<?xml version="1.0" encoding="UTF-8"?><svg id="Layer_2" xmlns="http://www.w3.org/2000/svg" viewBox="0 0 20.05153 23.91943"><defs><style>.cls-1{fill:#783cbe;}</style></defs><g id="Layer_1-2"><g><g><path class="cls-1" d="M12.85116,23.91943l-2.8291-.45801-2.88965,.44238c-.03223,.00586-.06738,.00781-.10059,.00391-1.61719-.13965-2.96094-.88184-3.99219-2.20898C.64608,18.62158-.38712,15.104,.13046,11.79443c.0166-.08301,.33105-1.57812,1.24023-2.74414,.14453-.18555,.41016-.2168,.59668-.07324,.18457,.14453,.21777,.41113,.07324,.59668-.78418,1.00488-1.07129,2.3584-1.07422,2.37207-.47754,3.05469,.49609,6.34082,2.74414,9.23145,.86914,1.11816,1.99414,1.75,3.34375,1.87891l2.90527-.44531c.04492-.00781,.09082-.00684,.13379,.00098l2.80176,.46484c1.3418-.09082,2.53223-.72852,3.44336-1.89941,2.38965-3.07324,3.3291-6.54297,2.64453-9.77051-.58984-2.77539-2.77539-4.22461-5.83203-3.88379-1.66211,.18652-2.89258,.92773-2.90527,.93457-.12891,.08008-.29297,.08203-.42578,.01074-.0127-.00781-1.28418-.69629-2.93848-.94727-.82422-.12305-1.6543-.07422-2.46973,.14941-.22266,.05957-.46094-.07227-.52246-.29785-.06152-.22656,.07129-.45996,.29785-.52246,.93066-.25586,1.87891-.31445,2.82129-.16895,1.41504,.21484,2.5498,.71094,3.00586,.93262,.4541-.24121,1.58984-.77246,3.04102-.93457,3.48633-.39746,6.08008,1.35156,6.75977,4.55176,.73633,3.47656-.25977,7.19434-2.80566,10.46777-1.06836,1.37305-2.4668,2.12012-4.1582,2.2207Z"/><path class="cls-1" d="M10.02401,8.52002c-.15918,0-.3125-.09082-.38477-.24512-.09277-.19727-2.22363-4.87598,1.0498-8.15039,.16602-.16602,.43555-.16602,.60156,0s.16602,.43555,0,.60156c-2.85742,2.85742-.90137,7.14648-.88184,7.18945,.09961,.21289,.00781,.46582-.20508,.56445-.05762,.02734-.11914,.04004-.17969,.04004Z"/><path class="cls-1" d="M11.8951,5.12256c-.88086,0-1.80762-.18164-2.75-.63184-.11133-.05371-.19434-.1543-.22656-.27344-.03223-.12012-.01074-.24805,.05957-.35059,.08105-.11816,2.0127-2.89062,4.95605-3.32715,2.94043-.44141,4.4502,.70996,4.51367,.75879,.09277,.07324,.15234,.18164,.16211,.2998,.00977,.11914-.03027,.23535-.11133,.32324-.14746,.16016-3,3.20117-6.60352,3.20117Zm-1.89062-1.19141c3.2832,1.20117,6.40234-1.22852,7.47559-2.20508-.5791-.25879-1.72559-.5957-3.4209-.34668-1.93945,.28809-3.42773,1.80469-4.05469,2.55176Z"/></g><circle class="cls-1" cx="2.81328" cy="8.09536" r=".43323"/></g></g></svg>