<?xml version="1.0" encoding="UTF-8"?><svg id="Layer_2" xmlns="http://www.w3.org/2000/svg" viewBox="0 0 12.70058 23.25684"><defs><style>.cls-1{fill:#783cbe;}</style></defs><g id="Layer_1-2"><g><path class="cls-1" d="M7.79337,23.25684H2.55607c-.73828,0-1.44141-.31934-1.92676-.87598S-.07675,21.08496,.02384,20.35352L.309,10.41016c.00684-.23047,.19531-.41211,.4248-.41211h.0127c.23438,.00684,.41895,.20215,.41211,.4375l-.28906,9.98828c-.07129,.5332,.07617,1.02637,.40039,1.39844s.79297,.58496,1.28613,.58496H7.79337c1.67773,0,2.79297-.37305,3.41113-1.14062,.7207-.89551,.83887-2.39258,.36133-4.57617l-1.07422-6.96777c-.33301-2.37012-2.54395-4.69141-4.46387-4.69141H2.40568c-1.00977,0-1.12402,.41504-1.17383,2.1875-.00684,.23438-.19629,.39844-.43652,.41309-.23535-.00684-.41992-.20215-.41309-.43652,.04395-1.5498,.08496-3.01367,2.02344-3.01367h3.62207c2.33594,0,4.91309,2.63281,5.30469,5.41699l1.06836,6.93652c.53125,2.4248,.3584,4.15527-.53418,5.26367-.79004,.98145-2.12207,1.45801-4.07324,1.45801Z"/><path class="cls-1" d="M8.77677,12.16797c-.07227,0-.15234-.00977-.24023-.0332-.73145-.19531-1.58496-1.29297-2.14062-2.25488-.26367-.45801-1.10547-2.02051-.86133-2.92871,.07715-.28906,.24414-.43652,.37109-.50879,.22363-.12988,.53125-.14844,.88867-.05273,.64258,.17188,1.62695,.77441,2.28223,1.90918,.64355,1.11621,.73633,2.34375,.54199,3.06543-.0918,.34277-.24805,.58008-.46582,.70508-.08496,.0498-.21191,.09863-.37598,.09863Zm-2.4248-4.99121c-.06738,.22363,.08594,1.07422,.78027,2.27734,.74219,1.28613,1.44824,1.85645,1.64551,1.86328,.1084-.14746,.25586-1.3916-.4375-2.59277-.66211-1.14648-1.69922-1.57617-1.98828-1.54785Zm-.23438-.36621h0Z"/><path class="cls-1" d="M5.89298,4.88379c-.21484,0-.40039-.16309-.42188-.38281l-.36523-3.65137h-1.86035l-.25098,3.44336c-.0166,.2334-.19336,.4209-.45508,.39258-.2334-.0166-.41016-.2207-.39258-.45508L2.42618,.39355c.0166-.22168,.20117-.39355,.42383-.39355h2.64062c.21875,0,.40137,.16504,.42285,.38281l.40332,4.03418c.02344,.2334-.14746,.44141-.38086,.46484-.01367,.00195-.02832,.00195-.04297,.00195Z"/><path class="cls-1" d="M.30315,8.77196c-.01855,.24365,.16357,.45642,.40771,.4751,.24365,.01855,.45605-.16382,.4751-.40771,.01855-.24365-.16406-.4563-.40771-.4751-.24365-.01855-.45654,.16394-.4751,.40771Z"/></g></g></svg>