<?xml version="1.0" encoding="UTF-8"?><svg id="Layer_2" xmlns="http://www.w3.org/2000/svg" viewBox="0 0 43.79785 25.06055"><defs><style>.cls-1{fill:#783cbe;}</style></defs><g id="Layer_1-2"><g><path class="cls-1" d="M27.34668,10.26465c-.16602-.16602-.43555-.16602-.60156,0s-.16602,.43555,0,.60156l1.40674,1.40662c-.04346-.01508-.08838-.02771-.13721-.02771H15.67383l1.37891-1.37891c.16602-.16602,.16602-.43555,0-.60156s-.43555-.16602-.60156,0l-2.10352,2.10449c-.16602,.16602-.16602,.43555,0,.60156l2.10352,2.10352c.08301,.08301,.19238,.12402,.30078,.12402s.21777-.04102,.30078-.12402c.16602-.16602,.16602-.43555,0-.60156l-1.37891-1.37793h12.34082c.04834,0,.09326-.0127,.13672-.02771l-1.40625,1.40564c-.16602,.16602-.16602,.43555,0,.60156,.08301,.08301,.19238,.12402,.30078,.12402s.21777-.04102,.30078-.12402l2.10352-2.10352c.16602-.16602,.16602-.43555,0-.60156l-2.10352-2.10449Zm1.06494,2.54224c.01514-.04352,.02783-.08838,.02783-.13696s-.0127-.09357-.02783-.13708l.13721,.13708-.13721,.13696Z"/><polygon class="cls-1" points="16.56592 7.76196 17.4292 7.76196 17.4292 4.20636 16.66699 4.20636 15.87793 4.6593 15.87793 5.42712 16.56592 5.03778 16.56592 7.76196"/><rect class="cls-1" x="18.38281" y="7.01025" width=".77246" height=".75171"/><path class="cls-1" d="M20.56006,6.15234c.12598-.03595,.26221-.05365,.4082-.05365,.17383,0,.31543,.04114,.42383,.12286,.10791,.08173,.16211,.21295,.16211,.3941,0,.15302-.06104,.27588-.18408,.36804-.12207,.09265-.29346,.13849-.51465,.13849-.18408,0-.36426-.03802-.53809-.11456s-.31152-.16608-.41016-.2691v.80481c.11035,.07806,.26025,.14471,.44971,.19989,.19043,.05518,.39355,.08276,.61133,.08276,.42578,0,.77686-.09784,1.05273-.29309,.2749-.19574,.41309-.52264,.41309-.98077,0-.40186-.11865-.7002-.35498-.89594-.23633-.19519-.53223-.29309-.88721-.29309-.21631,0-.41211,.02136-.58594,.06403l.06885-.47424h1.4707v-.75171h-2.01953l-.22412,1.63098,.3833,.42639c.05713-.0354,.14893-.0708,.2749-.1062Z"/><path class="cls-1" d="M23.8042,5.73639c.12109-.06042,.25195-.09058,.39453-.09058,.34814,0,.52197,.1546,.52197,.46381v1.65234h.79443v-1.81268c0-.04944-.00342-.11713-.01074-.20251,.1001-.06714,.22217-.10095,.36768-.10095,.34863,0,.52246,.1546,.52246,.46381v1.65234h.79443v-1.81268c0-.3446-.09033-.59033-.27148-.73816-.18115-.14734-.46045-.22125-.8374-.22125-.13818,0-.28516,.01715-.43896,.05048-.15527,.03387-.30225,.08124-.44043,.1416-.1709-.12805-.43555-.19208-.79443-.19208-.22412,0-.47803,.03229-.76221,.09631-.28418,.06348-.49561,.13324-.63428,.2077v2.46808h.79443v-2.02557Z"/><path class="cls-1" d="M4.89258,5.58691c1.53809,0,2.79004-1.25195,2.79004-2.79688,0-1.53809-1.25195-2.79004-2.79004-2.79004-1.53906,0-2.79102,1.25195-2.79102,2.7959,0,1.53906,1.25195,2.79102,2.79102,2.79102ZM4.89258,.84961c1.07031,0,1.94043,.87012,1.94043,1.94629,0,1.07031-.87012,1.94141-1.94043,1.94141s-1.94141-.87109-1.94141-1.94727c0-1.07031,.87109-1.94043,1.94141-1.94043Z"/><path class="cls-1" d="M5.78613,6.3418h-1.78711c-.51855,0-1.01953,.09668-1.49023,.28906-.21777,.08887-.32227,.33691-.2334,.55371,.08789,.21777,.33691,.32227,.55371,.2334,.36914-.15039,.7627-.22656,1.16992-.22656h1.78711c1.73633,0,3.14941,1.41309,3.14941,3.14941v3.57324c0,.31934-.07715,1.3623-1.06445,1.3623h-.07227v-3.5459c0-.23438-.19043-.4248-.4248-.4248s-.4248,.19043-.4248,.4248v10.91992c0,.86035-.55176,1.56055-1.22949,1.56055h-.40234v-7.5166c0-.23438-.19043-.4248-.4248-.4248s-.4248,.19043-.4248,.4248v7.5166h-.40234c-.67773,0-1.22949-.7002-1.22949-1.56055V11.73047c0-.23438-.19043-.4248-.4248-.4248s-.4248,.19043-.4248,.4248v3.52307c-.64355-.10834-1.13672-.66571-1.13672-1.33948v-3.57324c0-.20996,.02051-.41895,.06152-.61914,.0459-.23047-.10254-.4541-.33301-.50098-.23145-.04102-.45508,.10254-.50098,.33301-.05078,.25586-.07715,.52051-.07715,.78711v3.57324c0,1.14246,.87354,2.07422,1.98633,2.18909v6.54724c0,1.3291,.93262,2.41016,2.0791,2.41016h1.6543c1.14648,0,2.0791-1.08105,2.0791-2.41016v-6.52441h.07227c1.14453,0,1.91406-.88867,1.91406-2.21191v-3.57324c0-2.20508-1.79395-3.99902-3.99902-3.99902Z"/><path class="cls-1" d="M1.17725,8.43561c.25635,.01495,.47607-.18066,.49072-.43695,.01514-.25623-.18066-.47607-.43652-.49103-.25635-.01489-.47656,.18073-.49121,.43695-.01514,.25629,.18066,.47614,.43701,.49103Z"/><path class="cls-1" d="M38.90527,5.58691c1.53906,0,2.79102-1.25195,2.79102-2.79688,0-1.53809-1.25195-2.79004-2.79102-2.79004-1.53809,0-2.79004,1.25195-2.79004,2.7959,0,1.53906,1.25195,2.79102,2.79004,2.79102Zm0-4.7373c1.07031,0,1.94141,.87012,1.94141,1.94629,0,1.07031-.87109,1.94141-1.94141,1.94141s-1.94043-.87109-1.94043-1.94727c0-1.07031,.87012-1.94043,1.94043-1.94043Z"/><path class="cls-1" d="M39.79883,6.3418h-1.78711c-.51855,0-1.01953,.09668-1.49023,.28906-.21777,.08887-.32227,.33691-.2334,.55371,.08887,.21777,.33398,.32227,.55371,.2334,.36914-.15039,.7627-.22656,1.16992-.22656h1.78711c1.73633,0,3.14941,1.41309,3.14941,3.14941v3.57324c0,.31934-.07715,1.3623-1.06445,1.3623h-.07129v-3.5459c0-.23438-.19043-.4248-.4248-.4248s-.4248,.19043-.4248,.4248v10.91992c0,.86035-.55176,1.56055-1.23047,1.56055h-.40234v-7.5166c0-.23438-.19043-.4248-.4248-.4248s-.4248,.19043-.4248,.4248v7.5166h-.40234c-.67773,0-1.22949-.7002-1.22949-1.56055V11.73047c0-.23438-.19043-.4248-.4248-.4248s-.4248,.19043-.4248,.4248v3.52307c-.64355-.10834-1.13574-.66577-1.13574-1.33948v-3.57324c0-.20898,.02051-.41797,.06055-.62109,.0459-.23047-.10449-.45312-.33496-.49902-.2373-.05371-.4541,.10449-.49902,.33496-.05078,.25684-.07617,.52051-.07617,.78516v3.57324c0,1.1424,.87354,2.07416,1.98535,2.18909v6.54724c0,1.3291,.93262,2.41016,2.0791,2.41016h1.6543c1.14746,0,2.08008-1.08105,2.08008-2.41016v-6.52441h.07129c1.14453,0,1.91406-.88867,1.91406-2.21191v-3.57324c0-2.20508-1.79395-3.99902-3.99902-3.99902Z"/><path class="cls-1" d="M35.18994,8.43561c.25635,.01495,.47607-.18066,.49121-.43695,.01465-.25623-.18066-.47607-.43701-.49103-.25635-.01489-.47607,.18073-.49121,.43695-.01465,.25629,.18066,.47614,.43701,.49103Z"/></g></g></svg>