<?xml version="1.0" encoding="UTF-8"?><svg id="Layer_2" xmlns="http://www.w3.org/2000/svg" viewBox="0 0 13.29469 23.40607"><defs><style>.cls-1{fill:#783cbe;}</style></defs><g id="Layer_1-2"><g><path class="cls-1" d="M6.65266,4.17773c1.15234,0,2.08887-.93652,2.08887-2.08887S7.80501,0,6.65266,0s-2.08887,.93652-2.08887,2.08887,.93652,2.08887,2.08887,2.08887Zm0-3.31641c.67676,0,1.22754,.55078,1.22754,1.22754s-.55078,1.22754-1.22754,1.22754-1.22754-.55078-1.22754-1.22754,.55078-1.22754,1.22754-1.22754Z"/><path class="cls-1" d="M.18001,11.07129c-.3457,.56934-.18164,1.35059,.39062,1.75781,.22852,.16309,.49805,.24902,.77832,.24902,.39355,0,.76172-.1709,1.01562-.4707v-.00684l.04199-.04492,1.29313-1.94661,.37209-1.04651-.04218,1.08198,.00098,7.83301c-.00293,.52832,.29102,1.0293,.76758,1.30566,.37402,.2168,.83887,.26465,1.24902,.12402l.16895-.05664v.77539c0,.52441,.28711,1.00391,.76758,1.28223,.23047,.13379,.49219,.2041,.75684,.2041h.00586c.26855,0,.53223-.07031,.76172-.2041,.48047-.27832,.75586-.74609,.75586-1.28223V10.33691l.25,.26855c.00488,.00684,.01074,.02539,.01562,.04004,.00488,.00586,.01855,.0293,.03516,.05273l.02246,.03418,1.33203,1.84766c.00293,.00391,.00586,.00684,.00781,.01074,.25098,.30859,.62695,.4873,1.03027,.4873,.28027,0,.5498-.08594,.77832-.24902,.5791-.41211,.73145-1.20312,.34766-1.80078l-1.16113-1.63574-1.16797-3.02441c-.34668-.89844-1.22266-1.50195-2.18164-1.50195h-3.84473c-.95801,0-1.83301,.59668-2.18262,1.4873l-.00586,.0166-1.15625,3.02148L.22298,11.00977l-.01855,.0293-.02441,.03223Zm.75,.43164l.00586-.00879,1.19043-1.6582c.01074-.01465,.01758-.02539,.02344-.03613l.0166-.03125,.0127-.03125,1.16504-3.05957c.21973-.56836,.77539-.9502,1.38379-.9502h3.84473c.60547,0,1.15918,.38184,1.37695,.9502l1.17773,3.06152c.00977,.02246,.01367,.03223,.01758,.04297l.0332,.05273,.00098-.00098,1.17871,1.66016c.13574,.21875,.08203,.48828-.12109,.63184-.20605,.14844-.4873,.11035-.6416-.08203l-1.30371-1.81934-1.08887-2.84277-.01953-.0293-.12793-.11719-.08594-.04004-.03711-.00977-.07227-.01074-.00781,.00098-.03125-.00098-.08594,.01074-.03809,.00781-.00098,.00098,.00098,.00195-.0293,.01074-.00195-.00293-.02734,.0166h-.00098l-.06543,.04199-.02832,.02344-.1123,.16406-.01074,.0332-.00781,.03223-.00684,.03613-.00195,.04492-.00098,13.0293c0,.23047-.11035,.41113-.32617,.53711-.10254,.05859-.21582,.08789-.33008,.08789s-.22754-.0293-.3291-.08789c-.22266-.12988-.33984-.31543-.33984-.53711v-7.78613c0-.2373-.19336-.43066-.43066-.43066s-.43066,.19336-.43066,.43066v5.62598c.00195,.23438-.12305,.45312-.32812,.57129-.20215,.11719-.45508,.11621-.65723,0-.21387-.12402-.34082-.33301-.33984-.55859V7.61621c.00098-.18945-.11035-.35156-.27734-.41504-.22461-.08105-.47168,.02734-.55664,.25098l-1.07031,2.80371-1.27148,1.7832c-.16016,.19727-.43945,.2334-.64551,.08691-.20508-.14648-.26562-.41406-.13965-.62305Z"/><path class="cls-1" d="M6.80484,23.40607h-.21094c-3.38184,0-6.13281-2.67285-6.13281-5.95898v-1.34961c0-.23438,.19043-.4248,.4248-.4248s.4248,.19043,.4248,.4248v1.34961c0,2.81738,2.37012,5.10938,5.2832,5.10938h.21094c2.91406,0,5.28418-2.29199,5.28418-5.10938v-3.20996c0-.23438,.19043-.4248,.4248-.4248s.4248,.19043,.4248,.4248v3.20996c0,3.28613-2.75195,5.95898-6.13379,5.95898Z"/><path class="cls-1" d="M1.33218,14.26123c.07652,.22083-.04057,.46192-.26128,.5384-.22095,.07655-.46202-.04048-.53853-.26131-.07653-.22089,.04055-.46198,.26127-.53846,.22095-.07655,.46202,.04048,.53855,.26137Z"/></g></g></svg>