<?xml version="1.0" encoding="UTF-8"?><svg id="Layer_2" xmlns="http://www.w3.org/2000/svg" viewBox="0 0 25.23242 22.78455"><defs><style>.cls-1{fill:#783cbe;}</style></defs><g id="Layer_1-2"><g><g><path class="cls-1" d="M11.22949,12.50378c-.01172,0-.02441-.00049-.03711-.00146-.86523-.07471-1.61328-.48877-2.16504-1.19727-1.24512-1.60059-1.78223-3.43555-1.51172-5.16699,.03711-.23291,.25977-.38672,.48535-.35449,.23242,.03613,.39062,.25391,.35449,.48535-.23438,1.49756,.24316,3.10059,1.34277,4.51416,.4082,.52441,.93555,.81787,1.56836,.87256,.2334,.02002,.40625,.22607,.38672,.45996-.01953,.22119-.20508,.38818-.42383,.38818Z"/><path class="cls-1" d="M14.13965,12.50916c-.22363,0-.41113-.17383-.42383-.3999-.01465-.23389,.16406-.43506,.39844-.44922,.66309-.03906,1.21289-.33398,1.63477-.87646,1.16895-1.50342,1.62988-3.19531,1.29688-4.76514-.27637-1.3042-1.26758-1.96094-2.71875-1.79785-.78906,.08838-1.37598,.43994-1.38184,.44336-.13086,.07861-.29297,.08301-.42578,.00977-.00684-.00342-.62012-.33447-1.41602-.45508-.38379-.05811-.77441-.03516-1.16113,.07031-.22363,.06055-.45996-.0708-.52246-.29688-.06152-.22656,.07129-.46045,.29785-.52246,.50098-.1377,1.00977-.16943,1.51367-.09131,.65527,.09912,1.19922,.31543,1.4834,.44531,.28711-.1416,.83887-.37158,1.51855-.44775,1.87012-.21094,3.27637,.73389,3.64453,2.46631,.38477,1.81885-.13281,3.75879-1.45703,5.46289-.57129,.73389-1.35156,1.1499-2.25586,1.20361-.00879,.00049-.01758,.00049-.02539,.00049Z"/><path class="cls-1" d="M12.72363,4.72595c-.16016,0-.3125-.09033-.38477-.24512-.0498-.10498-1.18555-2.59961,.57227-4.35693,.16602-.16504,.43555-.16553,.60156,.00049s.16602,.43506,0,.60107c-1.33398,1.33252-.44238,3.31299-.40332,3.39648,.09766,.21289,.00586,.46533-.20703,.56396-.05762,.02734-.11914,.04004-.17871,.04004Z"/><path class="cls-1" d="M13.66797,3.00916c-.47363,0-.97168-.09766-1.47949-.34082-.11133-.05322-.19434-.15332-.22656-.27344-.03223-.11963-.01074-.24805,.05957-.3501,.04297-.06299,1.07031-1.53662,2.64746-1.771,1.56738-.2334,2.40723,.39941,2.44141,.42627,.09375,.07275,.15234,.18164,.16211,.30029,.00977,.11816-.03125,.23535-.11133,.32275-.07812,.08447-1.58008,1.68604-3.49316,1.68604Zm-.57422-.91992c1.22949,.27783,2.375-.44189,2.98633-.93164-.2959-.07715-.72168-.12646-1.28613-.04297-.73242,.10889-1.33691,.60205-1.7002,.97461Z"/></g><path class="cls-1" d="M4.90918,12.50427l15.66309-.00049c.33716,.07184,1.06921,1.32336,1.78076,2.9585h.93274c-.7467-1.81427-1.77698-3.80762-2.70374-3.80762H4.90918c-.92749,0-1.95728,1.99316-2.70374,3.80762h.9325c.71082-1.63544,1.4408-2.88696,1.77124-2.95801Z"/><path class="cls-1" d="M20.57227,21.93494l-15.64844,.00098c-.32959-.08563-1.02307-1.32483-1.7085-2.95898h-.93054c.73804,1.85504,1.72815,3.80762,2.62439,3.80762h15.67285c.89624,0,1.88574-1.95258,2.62402-3.80762h-.93042c-.68213,1.62573-1.37207,2.86072-1.70337,2.95801Z"/><path class="cls-1" d="M24.80762,15.46228h-8.76855c-.17383,0-.33105,.10596-.39551,.26807-.25879,.65332-.4209,.9043-.49023,.99316h-5.07422c-.06934-.08887-.23145-.33984-.49023-.99316-.06445-.16211-.22168-.26807-.39551-.26807H.4248c-.23438,0-.4248,.18994-.4248,.4248v2.66504c0,.23486,.19043,.4248,.4248,.4248H24.80762c.23438,0,.4248-.18994,.4248-.4248v-2.66504c0-.23486-.19043-.4248-.4248-.4248Zm-.4248,2.66504H.84961v-1.81543H8.9082c.44238,1.04248,.7373,1.26123,1.05859,1.26123h5.29883c.32129,0,.61621-.21875,1.05859-1.26123h8.05859v1.81543Z"/><circle class="cls-1" cx="8.43646" cy="4.66615" r=".41979"/></g></g></svg>