<?xml version="1.0" encoding="UTF-8"?><svg id="Layer_2" xmlns="http://www.w3.org/2000/svg" viewBox="0 0 25.06169 24.9292"><defs><style>.cls-1{fill:#783cbe;}</style></defs><g id="Layer_1-2"><g><path class="cls-1" d="M23.06555,14.36865c-.3418,.11523-.56152,.25195-.71484,.34863l-.50439,.34198c-.15967-.48541-.53564-.88275-1.03467-1.05682-.30957-.10938-.65332-.10938-.99805,.01562l-2.71289,1.26013c-.00977-.0011-.01807-.00421-.02832-.00525l-9.91797-1.24805c-.32715-.04102-.67188-.00977-1.01172,.10547l-5.1084,2.08301c-.21777,.08887-.32227,.33691-.2334,.55371,.08887,.21777,.33789,.32129,.55371,.2334l5.08301-2.07324c.19336-.06445,.40527-.08496,.61035-.05859l9.92871,1.24902c.34961,.03516,.60156,.15137,.75,.34375,.24121,.31445,.17188,.76562,.16602,.80371-.02148,.25293-.42676,.54785-.75586,.55469l-5.24902,.06543-2.20312-.07715c-.24707-.00879-.43164,.17578-.43945,.41016s.17578,.43164,.41016,.43945l2.10107,.07294,3.18896,1.75323c.14062,.07715,.31152,.06934,.44336-.02051l7.44727-5.04785c.10059-.0625,.25293-.1582,.50293-.24121,.21289-.08203,.66895,.15039,.82715,.41504,.10254,.18066,.08203,.62793-.66016,1.17773l-8.20312,6.77539c-.22559,.16797-.47852,.29199-.75098,.36621l-.45703,.12598c-.22266,.06348-.45898,.05957-.68164-.01562l-9.51074-3.15527c-.53711-.17969-1.13574-.13379-1.7002,.15625L.17395,22.50635c-.18945,.13867-.23047,.4043-.0918,.59375,.14062,.19141,.40723,.23047,.59375,.0918l1.96777-1.44922c.30664-.15332,.66699-.18066,.99121-.07227l9.51074,3.15527c.20801,.06934,.42285,.10352,.63672,.10352,.18262,0,.36426-.02539,.54199-.0752l.4541-.125c.37402-.10352,.7207-.27344,1.04883-.51758l8.20215-6.77441c1.26465-.93652,1.11035-1.91895,.86328-2.28809-.32715-.55176-1.18262-1-1.82715-.78027Zm-2.93066,.43555c.12695-.04492,.2666-.04492,.39551,0,.32812,.11493,.54932,.42529,.55029,.77386l-2.3252,1.57629c.01074-.28101-.02441-.77246-.34814-1.20074-.06738-.08905-.14502-.16718-.22852-.23938l1.95605-.91003Zm-5.00781,4.80957l-1.63574-.89893,3.01709-.03748-1.38135,.9364Z"/><path class="cls-1" d="M10.88391,7.99463c.1875,.1416,.45508,.10059,.59375-.08984,.2334-.31641,.45312-.59473,.62207-.80176,.88379,1.08301,2.01172,2.71875,2.01172,3.48535,0,1.11035-.90332,2.01367-2.01367,2.01367-1.10938,0-2.0127-.90332-2.0127-2.01367,0-.23438-.19043-.4248-.4248-.4248s-.4248,.19043-.4248,.4248c0,1.5791,1.28418,2.86328,2.8623,2.86328,1.5791,0,2.86328-1.28418,2.86328-2.86328,0-1.46289-2.28223-4.12695-2.54297-4.42676-.16016-.18555-.48047-.18555-.64062,0,0,0-.45996,.52832-.9834,1.23926-.13965,.18848-.09961,.45508,.08984,.59375Z"/><path class="cls-1" d="M16.90833,7.59717c1.30469,0,2.36621-1.06152,2.36621-2.36621,0-1.1709-1.7041-3.18945-2.0459-3.58203-.16016-.18555-.48047-.18555-.64062,0-.3418,.39258-2.0459,2.41113-2.0459,3.58203,0,1.30469,1.06152,2.36621,2.36621,2.36621Zm0-5.00586c.68457,.85059,1.5166,2.06934,1.5166,2.63965,0,.83594-.68066,1.5166-1.5166,1.5166s-1.5166-.68066-1.5166-1.5166c0-.57031,.83203-1.78906,1.5166-2.63965Z"/><path class="cls-1" d="M9.30286,5.54736c1.19434,0,2.16602-.97168,2.16602-2.16602,0-1.06738-1.53711-2.8877-1.8457-3.24219-.16016-.18555-.48047-.18555-.64062,0-.30859,.35449-1.8457,2.1748-1.8457,3.24219,0,1.19434,.97168,2.16602,2.16602,2.16602Zm0-4.46387c.625,.7832,1.31641,1.82812,1.31641,2.29785,0,.72559-.59082,1.31641-1.31641,1.31641s-1.31641-.59082-1.31641-1.31641c0-.46973,.69141-1.51465,1.31641-2.29785Z"/><path class="cls-1" d="M10.66907,9.02679c.01367-.23364-.16504-.43408-.39844-.44769s-.43408,.16473-.44775,.39838,.16504,.43408,.39844,.44769c.23389,.01361,.43408-.16473,.44775-.39838Z"/></g></g></svg>