<?xml version="1.0" encoding="UTF-8"?><svg id="Layer_2" xmlns="http://www.w3.org/2000/svg" viewBox="0 0 20.89844 24.97656"><defs><style>.cls-1{fill:#783cbe;}</style></defs><g id="Layer_1-2"><g><path class="cls-1" d="M10.45703,12.27148c3.38379,0,6.13574-2.75195,6.13574-6.13574S13.84082,0,10.45703,0,4.32129,2.75195,4.32129,6.13574s2.75195,6.13574,6.13574,6.13574ZM10.45703,.84961c2.44482,0,4.4873,1.67639,5.08887,3.93427l-1.91895,.81555c-.41113-.08386-1.73682-.3299-3.14551-.3299-1.27441,0-2.40186,.20203-2.88867,.30347l-2.20264-.86066c.62646-2.22095,2.64844-3.86273,5.06689-3.86273Zm-2.59473,5.547c.00488-.00323,.00732-.00861,.01221-.01208,.50146-.09882,1.50781-.26538,2.60693-.26538,1.12598,0,2.23047,.1748,2.76465,.27246v2.79199c-.38574,.14258-1.2832,.39746-2.76465,.39746-1.45801,0-2.27637-.24707-2.61914-.38379v-2.80066Zm-2.6333-.83569l1.78369,.69708v3.20587c0,.14355,.07227,.27832,.19336,.35645,.0957,.0625,1.00488,.61035,3.27539,.61035,2.29395,0,3.35156-.57031,3.39551-.59473,.13477-.0752,.21875-.21777,.21875-.37207v-3.13928l1.59766-.67914c.01562,.16394,.0498,.32239,.0498,.4903,0,2.91504-2.37109,5.28613-5.28613,5.28613s-5.28613-2.37109-5.28613-5.28613c0-.19684,.03711-.38354,.05811-.57483Z"/><path class="cls-1" d="M14.70312,13.54395c-2.39844-.52051-5.73438-.52051-8.4873-.00391-.76367,.125-1.49609,.3584-2.17578,.69434-.20996,.10352-.29688,.3584-.19238,.56934,.10352,.20996,.3584,.2959,.56934,.19238,.60449-.29785,1.25586-.50586,1.94531-.61914,2.61914-.49121,5.90039-.49219,8.16699-.00098,3.14648,.63086,5.51953,3.22363,5.51953,6.03027v2.00293c0,.94727-.77051,1.71777-1.71777,1.71777H2.48438c-.90137,0-1.63477-.73438-1.63477-1.63574v-2.08496c0-1.05664,.34961-2.16895,.9834-3.13281,.12891-.19629,.07422-.45996-.12207-.58887-.19434-.12598-.45801-.07324-.58887,.12207-.73438,1.11719-1.12207,2.36133-1.12207,3.59961v2.08496c0,1.37012,1.11426,2.48535,2.48438,2.48535h15.84668c1.41602,0,2.56738-1.15137,2.56738-2.56738v-2.00293c0-3.20312-2.66602-6.1543-6.19531-6.8623Z"/><path class="cls-1" d="M2.61328,16.10522c.25439,.01483,.47266-.1792,.4873-.43347,.01465-.25421-.1792-.47229-.43359-.48712s-.47217,.17926-.4873,.43347c-.01465,.25421,.17969,.47235,.43359,.48712Z"/></g></g></svg>