<?xml version="1.0" encoding="UTF-8"?><svg id="Layer_2" xmlns="http://www.w3.org/2000/svg" viewBox="0 0 14.31208 23.66202"><defs><style>.cls-1{fill:#783cbe;}</style></defs><g id="Layer_1-2"><g><circle class="cls-1" cx=".43324" cy="17.30097" r=".43323"/><g><path class="cls-1" d="M7.13482,5.441c-.2334,0-.42383-.18848-.4248-.42285-.00098-.11719,.00684-2.89941,2.02539-4.35352,.18848-.13867,.45508-.0957,.59277,.09668,.1377,.19043,.09375,.45605-.09668,.59277-1.6582,1.19531-1.67188,3.63574-1.67188,3.66016,.00098,.23438-.18848,.42578-.42285,.42676h-.00195Z"/><path class="cls-1" d="M4.97173,3.65292c-.48145,0-.99512-.06641-1.51953-.23535C1.06451,2.64901,.69536,.79354,.68072,.71444c-.04199-.22754,.10547-.44727,.33203-.49316,.23828-.04883,5.82422-1.15625,7.14453,2.08496,.07812,.19141,.00684,.41211-.16992,.52148-.06836,.04297-1.35449,.8252-3.01562,.8252ZM1.669,.97518c.23047,.47168,.78125,1.22656,2.04297,1.63379,1.46191,.4668,2.85547-.0332,3.4834-.32422C6.10943,.54647,2.89556,.80428,1.669,.97518Z"/></g><path class="cls-1" d="M6.57915,23.66171c-.64844,0-1.28711-.03906-1.78613-.11133C2.11333,23.15975,.32622,21.43124,.01177,18.92635c-.0293-.23242,.13574-.44531,.36914-.47461,.22363-.02734,.44434,.13672,.47461,.36914,.37988,3.03125,2.96582,3.72852,4.06055,3.8877,.59375,.08691,1.40918,.12402,2.18457,.09375,.8418,.03027,1.6582-.00684,2.25488-.09375,1.3125-.19141,4.33887-1.07324,4.09277-5.12793-.08789-1.44824-.83203-2.40527-1.48926-3.25098-.49902-.6416-.92969-1.19629-.92969-1.83496,0-2.12109-.37988-7.05371-3.89453-7.05371-3.51367,0-3.89355,4.93262-3.89355,7.05371,0,.63867-.43066,1.19336-.92969,1.83496-.35449,.45508-.75586,.97168-1.05078,1.58496-.10254,.21289-.3584,.2998-.56641,.19922-.21191-.10156-.30078-.35547-.19922-.56641,.33398-.69629,.76465-1.25,1.14551-1.73926,.40332-.51855,.75098-.96582,.75098-1.31348,0-2.37598,.46191-7.90332,4.74316-7.90332,4.28223,0,4.74414,5.52734,4.74414,7.90332,0,.34766,.34863,.79492,.75098,1.31348,.65918,.84863,1.5625,2.01074,1.66602,3.72168,.29785,4.8916-3.61328,5.84473-4.81836,6.02051-.64355,.09277-1.51953,.13184-2.33984,.10156-.18457,.00684-.37207,.00977-.55859,.00977Z"/></g></g></svg>