<?xml version="1.0" encoding="UTF-8"?><svg id="Layer_2" xmlns="http://www.w3.org/2000/svg" viewBox="0 0 14.80664 22.98145"><defs><style>.cls-1{fill:#783cbe;}</style></defs><g id="Layer_1-2"><g><path class="cls-1" d="M13.64258,8.10742c-.76221-.56335-1.6084-1.20117-1.73096-2.20587,.43799-.24188,.73877-.70288,.73877-1.23749V1.41895c0-.78223-.63672-1.41895-1.41895-1.41895H6.98535c-.23438,0-.4248,.19043-.4248,.4248s.19043,.4248,.4248,.4248h4.24609c.31348,0,.56934,.25586,.56934,.56934v3.24512c0,.31348-.25586,.56934-.56934,.56934H3.57617c-.31348,0-.56934-.25586-.56934-.56934V1.41895c0-.31348,.25586-.56934,.56934-.56934,.23438,0,.4248-.19043,.4248-.4248s-.19043-.4248-.4248-.4248c-.78223,0-1.41895,.63672-1.41895,1.41895v3.24512c0,.53461,.30078,.99561,.73877,1.23749-.12256,1.0047-.96973,1.64252-1.73193,2.20587-.625,.46094-1.16406,.86035-1.16406,1.4375v11.32422c0,1.16504,.94727,2.1123,2.1123,2.1123H12.69531c1.16406,0,2.11133-.94727,2.11133-2.1123V9.54492c0-.57715-.53906-.97559-1.16406-1.4375Zm-11.97363,.68359c.80273-.59332,1.86523-1.39081,2.06055-2.70801h7.34863c.19531,1.3172,1.25684,2.11469,2.05957,2.70801,.30664,.22656,.81934,.60547,.81934,.75391v1.9082H.84961v-1.9082c0-.14844,.5127-.52734,.81934-.75391Zm12.28809,9.04785H.84961v-5.53613H13.95703v5.53613Zm-1.26172,4.29297H2.1123c-.69629,0-1.2627-.56641-1.2627-1.2627v-2.18066H13.95703v2.18066c0,.69629-.56641,1.2627-1.26172,1.2627Z"/><path class="cls-1" d="M5.229,.84454c.23193,.01355,.43115-.16364,.44482-.39569,.01318-.23206-.16406-.43115-.396-.4447-.23193-.01349-.43115,.16364-.44482,.39569-.01318,.23212,.16406,.43121,.396,.4447Z"/></g></g></svg>