<?xml version="1.0" encoding="UTF-8"?><svg id="Layer_2" xmlns="http://www.w3.org/2000/svg" viewBox="0 0 23.66263 23.68597"><defs><style>.cls-1{fill:#783cbe;}</style></defs><g id="Layer_1-2"><g><path class="cls-1" d="M17.49075,15.22699l3.52734-3.79688c.35742-.38574,.53613-.8877,.50293-1.41309-.03418-.52539-.27441-1-.67871-1.33691l-1.01562-.84668c-.05176-.04395-.11133-.07227-.17285-.08691-.54004-1.41797-3.63574-3.6543-4.64648-4.35645-.1084-.07422-.24023-.09473-.36426-.05762s-.22461,.12891-.27246,.25l-.83789,2.09766c-.39844,.99707-.98633,1.88867-1.77441,2.67578-.54883,.5498-1.27637,.85254-2.04785,.85254h-.26172c-1.10156,0-2.09277-.6123-2.58594-1.59863l-.55664-1.11328c-.06055-.12207-.17676-.20703-.31152-.22949-.13867-.01758-.27246,.02246-.36914,.11914l-.24609,.24609c-.6416,.64258-.83789,1.60156-.50098,2.44531l.74512,1.86133c.16016,.40137,.22754,.82324,.2002,1.25488l-.20312,3.25781c-.06543,1.04688-.63574,2.00391-1.52539,2.55859l-2.96387,1.85352c-.93164,.58203-1.35059,1.7207-1.01855,2.76953,.19922,.62988,.77734,1.05273,1.4375,1.05273H6.10403c1.64746,0,3.25195-.58105,4.51758-1.63574l2.16699-1.80566c.3125-.26074,.57031-.57031,.76855-.91797l.88867-1.55664c.17871-.3125,.42969-.58984,.72461-.7998l1.80762-1.29199c.18457-.13086,.35645-.2832,.5127-.45117ZM1.58255,20.58441l2.96289-1.85352c.77832-.48511,1.35645-1.21692,1.66846-2.05927,.02686,.00537,.05225,.0163,.08057,.0163h1.10547c.23438,0,.4248-.19043,.4248-.4248s-.19043-.4248-.4248-.4248h-.97266c.01611-.11078,.03418-.22125,.04102-.33398l.04102-.6582h1.25879c.23438,0,.4248-.19043,.4248-.4248s-.19043-.4248-.4248-.4248h-1.20557l.06201-1.00006c.01367,.00128,.02539,.00787,.03906,.00787h1.47266c.23438,0,.4248-.19043,.4248-.4248s-.19043-.4248-.4248-.4248h-1.46924c.021-.52588-.05908-1.04089-.25439-1.53125l-.74512-1.8623c-.17969-.44824-.11719-.94922,.15234-1.33594l.2832,.56543c.6377,1.27539,1.91992,2.06738,3.3457,2.06738h.26172c.99805,0,1.93945-.39062,2.67676-1.12793,.8418-.84277,1.49316-1.83008,1.93457-2.93555l.6377-1.59668c1.96973,1.41895,3.9248,3.16895,3.9248,3.73535,0,.0459,.00684,.08984,.02051,.13086l-3.95508,4.61426c-.07812,.09082-.16309,.17773-.25488,.25684l-2.35059,2.05664c-.33203,.29102-.59961,.6377-.7959,1.03027l-.95508,1.91016c-.14746,.29395-.34668,.55273-.59473,.77051l-.63574,.55566c-1.13184,.99023-2.58301,1.53613-4.08594,1.53613H1.14407c.11523-.16016,.2627-.30078,.43848-.41016Zm14.90234-5.59863l-1.80859,1.29297c-.39355,.28027-.72852,.65039-.96875,1.06934l-.88867,1.55762c-.14844,.25977-.3418,.49121-.5752,.68652l-2.16699,1.80566c-1.1123,.92773-2.52344,1.43848-3.97266,1.43848H1.55032c-.28809,0-.54004-.18457-.62695-.45996-.05566-.17578-.0791-.35547-.07227-.53223H5.27688c1.70898,0,3.35938-.62012,4.64648-1.74609l.63574-.55664c.33105-.29004,.59766-.63672,.79395-1.02832l.95508-1.91016c.14746-.29395,.34766-.55371,.59668-.77051l2.34961-2.05664c.12207-.10645,.23438-.2207,.33984-.34375l4.00977-4.67773,.69336,.57812c.22363,.18652,.35645,.44922,.375,.73926s-.08008,.56738-.27734,.78027l-3.52734,3.79688c-.11621,.12598-.24512,.23926-.38281,.33691Z"/><path class="cls-1" d="M5.98099,5.13226c.08398,.0918,.19824,.1377,.31348,.1377,.10254,0,.20605-.03711,.28711-.11133,.17285-.15918,.18457-.42773,.02637-.60059L2.55618,.13812c-.15918-.17383-.42871-.18359-.60059-.02637-.17285,.15918-.18457,.42773-.02637,.60059L5.98099,5.13226Z"/><path class="cls-1" d="M12.59817,2.90765c.08398,.10059,.20508,.15234,.32617,.15234,.0957,0,.19238-.03223,.27246-.09863,.17969-.15039,.2041-.41797,.05371-.59863L11.40872,.15277c-.15137-.17969-.41797-.20508-.59863-.05371-.17969,.15039-.2041,.41797-.05371,.59863l1.8418,2.20996Z"/><path class="cls-1" d="M23.23782,16.20648h-4.05176c-.23438,0-.4248,.19043-.4248,.4248s.19043,.4248,.4248,.4248h4.05176c.23438,0,.4248-.19043,.4248-.4248s-.19043-.4248-.4248-.4248Z"/><path class="cls-1" d="M20.3472,19.57757c0-.23438-.19043-.4248-.4248-.4248h-4.05176c-.23438,0-.4248,.19043-.4248,.4248s.19043,.4248,.4248,.4248h4.05176c.23438,0,.4248-.19043,.4248-.4248Z"/><path class="cls-1" d="M22.86966,22.09906h-5.15723c-.23438,0-.4248,.19043-.4248,.4248s.19043,.4248,.4248,.4248h5.15723c.23438,0,.4248-.19043,.4248-.4248s-.19043-.4248-.4248-.4248Z"/><path class="cls-1" d="M22.10061,19.4754c-.01807-.23425-.22217-.41022-.45654-.39215-.23438,.01813-.41016,.22223-.39209,.45746,.01807,.23431,.22217,.40924,.45654,.39111,.23438-.01807,.41016-.22217,.39209-.45642Z"/></g></g></svg>