<?xml version="1.0" encoding="UTF-8"?><svg id="Layer_2" xmlns="http://www.w3.org/2000/svg" viewBox="0 0 24.56348 23.99416"><defs><style>.cls-1{fill:#783cbe;}</style></defs><g id="Layer_1-2"><g><path class="cls-1" d="M13.76367,3.25491c-.12305,0-.24023,.05273-.32031,.14551-.29688,.3418-1.77832,2.0957-1.77832,3.12695,0,1.15723,.94141,2.09766,2.09863,2.09766s2.09766-.94043,2.09766-2.09766c0-1.03125-1.48047-2.78516-1.77734-3.12695-.08008-.09277-.19727-.14551-.32031-.14551Zm0,4.52051c-.68848,0-1.24902-.55957-1.24902-1.24805,0-.44434,.65332-1.43359,1.24902-2.18262,.59473,.74902,1.24805,1.73828,1.24805,2.18262,0,.68848-.55957,1.24805-1.24805,1.24805Z"/><path class="cls-1" d="M10.09961,9.56936c.05957,.17871,.22559,.29102,.40332,.29102,.04395,0,.08984-.00684,.13379-.02148,.22266-.07422,.34375-.31445,.26953-.53711-.41895-1.25879-1.99902-2.34375-3.35938-2.69043V3.01955c0-.23438-.19043-.4248-.4248-.4248s-.4248,.19043-.4248,.4248v3.93652c0,.20898,.15137,.38672,.35742,.41992,1.13086,.18164,2.70703,1.17969,3.04492,2.19336Z"/><path class="cls-1" d="M10.68945,13.74807c-.23438,0-.4248,.19043-.4248,.4248v8.54004c0,.23828-.19336,.43164-.43066,.43164H1.2793c-.2373,0-.42969-.19336-.42969-.43164V10.59182c0-.22559,.02344-.4502,.06738-.66211l.01758-.0791-.41504-.0918-.43359-.00781c-.05762,.27344-.08594,.55664-.08594,.84082v12.12109c0,.70703,.57422,1.28125,1.2793,1.28125H9.83398c.70605,0,1.28027-.57422,1.28027-1.28125V14.17288c0-.23438-.19043-.4248-.4248-.4248Z"/><path class="cls-1" d="M2.55371,7.7344c.0625,0,.12402-.01074,.18066-.03418,.42285-.17285,.96094-.36523,1.13184-.38867,.21094-.02734,.36816-.20801,.36816-.4209V3.01955c0-.23438-.19043-.4248-.4248-.4248s-.4248,.19043-.4248,.4248v3.53906c-.36621,.11035-.80859,.28711-.9668,.35254-.00586,.00195-.0918,.03809-.09766,.04004-.21191,.09473-.26953,.3252-.17773,.53906,.06641,.15723,.23926,.24414,.41113,.24414Z"/><path class="cls-1" d="M.78271,8.37447c.03174,.22778,.24268,.38647,.47021,.35437,.22803-.0321,.38672-.2428,.35449-.47058-.03223-.22784-.24268-.38647-.4707-.35437-.22754,.0321-.38623,.2428-.354,.47058Z"/><path class="cls-1" d="M6.64746,12.60549h-2.29688c-.23438,0-.4248,.19043-.4248,.4248v1.87207h-1.87109c-.23438,0-.4248,.19043-.4248,.4248v2.29688c0,.23438,.19043,.4248,.4248,.4248h1.87109v1.87109c0,.23438,.19043,.4248,.4248,.4248h2.29688c.23438,0,.4248-.19043,.4248-.4248v-1.87109h1.87207c.23438,0,.4248-.19043,.4248-.4248v-2.29688c0-.23438-.19043-.4248-.4248-.4248h-1.87207v-1.87207c0-.23438-.19043-.4248-.4248-.4248Zm1.87207,3.14648v1.44727h-1.87207c-.23438,0-.4248,.19043-.4248,.4248v1.87109h-1.44727v-1.87109c0-.23438-.19043-.4248-.4248-.4248h-1.87109v-1.44727h1.87109c.23438,0,.4248-.19043,.4248-.4248v-1.87207h1.44727v1.87207c0,.23438,.19043,.4248,.4248,.4248h1.87207Z"/><path class="cls-1" d="M16.35156,10.31936l3.97559-1.65723,2.14551,.71582c.04395,.01465,.08887,.02148,.13477,.02148h1.53125c.23438,0,.4248-.19043,.4248-.4248s-.19043-.4248-.4248-.4248h-1.46191l-2.23145-.74414c-.09863-.0332-.20508-.0293-.29785,.01074l-4.12305,1.71777c-.44434,.18652-.73145,.61719-.73145,1.09961v.27246c0,.23425,.0752,.45483,.19922,.64539l-6.16113-1.36902c-.40039-.08984-.81152,.03027-1.10254,.32129l-.4668,.4668c-.09863,.09863-.14258,.23926-.11719,.37695,.02441,.13672,.11523,.25293,.24219,.31055l8.4209,3.82715c.05566,.02539,.11523,.03809,.17578,.03809,.05078,0,.10059-.00879,.14941-.02637l6.05176-2.26953h1.4541c.23438,0,.4248-.19043,.4248-.4248s-.19043-.4248-.4248-.4248h-1.53125c-.05078,0-.10156,.00879-.14941,.02637l-5.95898,2.23438-7.70215-3.5,.0332-.0332c.08398-.08594,.19629-.12109,.31543-.09277l6.48047,1.43945c.08203,.01855,.16992,.01172,.25-.02051l1.04932-.4198c0-.00006,.00049-.00006,.00049-.00012l2.77832-1.11133c.15479-.06177,.24854-.2052,.26123-.36102,.00049-.00861,.00537-.0163,.00537-.02496,.00098-.05536-.0083-.11194-.03027-.16675-.06543-.16357-.2207-.26373-.38721-.2666-.02637-.00055-.05225,.00977-.07861,.01434-.02881,.00494-.05811,.00458-.08691,.01593l-2.77832,1.11133c-.10645,.04297-.22168,.0293-.31738-.03418-.09473-.06445-.14941-.16699-.14941-.28223v-.27246c0-.1377,.08203-.26172,.20898-.31445Z"/><path class="cls-1" d="M.7627,2.97854c.11328,0,.22559-.04492,.30957-.13379l.79883-.84766c1.08008-.02344,6.74023-.14551,7.85449-.14551,1.3291,0,3.2793-.64941,4.22266-1.0332,.21777-.08887,.32227-.33594,.2334-.55371-.08984-.21777-.33691-.32129-.55371-.2334-.8252,.33594-2.70215,.9707-3.90234,.9707-1.23633,0-7.77344,.14355-8.05176,.14941-.11328,.00195-.22168,.05078-.2998,.13379l-.9209,.97754c-.16113,.1709-.15234,.43945,.01855,.60059,.08203,.07715,.18652,.11523,.29102,.11523Z"/></g></g></svg>