<?xml version="1.0" encoding="UTF-8"?><svg id="Layer_2" xmlns="http://www.w3.org/2000/svg" viewBox="0 0 22.28425 22.8291"><defs><style>.cls-1{fill:#783cbe;}</style></defs><g id="Layer_1-2"><g><g id="muscle_growth"><path class="cls-1" d="M11.65118,22.8291c-1.67383,0-3.22363-.11914-4.50098-.3584-2.91016-.5459-4.23535-.96875-6.3457-2.3916-.37207-.25098-.61719-.70215-.72949-1.3418C-.59491,14.92285,3.41778,4.16309,4.35821,2.87207,5.07208,1.8916,7.36309,.04785,8.74884,0h.03027c.80664,0,3.12305,1.05371,3.42969,1.20605,.5918,.29688,1.12988,.95703,.91699,1.70703-.27246,.94531-1.74121,.84766-2.03223,.81836-.2334-.02344-.40332-.23047-.38086-.46387,.02344-.2334,.24316-.39746,.46387-.38184,.50781,.04688,1.08789-.05664,1.13184-.20605,.0957-.33887-.31348-.62988-.47949-.71289-.75684-.37793-2.65137-1.09668-3.05078-1.11719-.91992,.03125-3.00977,1.53027-3.73242,2.52246C4.26934,4.43652,.29473,15.0752,.91192,18.58984c.06934,.39844,.19727,.66895,.36719,.78418,1.8877,1.27344,3.01465,1.69531,6.02734,2.26074,2.4668,.46289,5.99805,.46094,9.44629-.00293,3.08887-.41602,4.44141-.72461,4.81152-.83887,.23438-.19141,.69434-.01758,.7168,.30664,.02441,.37109,.04297,.63965-5.41504,1.37402-1.7627,.2373-3.5498,.35547-5.21484,.35547Z"/><path class="cls-1" d="M6.18243,12.82617c-.01562,0-.03125-.00098-.04688-.00195-.2334-.02637-.40234-.23535-.37695-.46875,.10742-.97754,.15625-1.8916,.2002-2.69727,.1123-2.10254,.19336-3.62109,1.2041-4.25781,.05957-.03809,.12793-.05957,.19824-.06445,1.46191-.09766,1.63574-.18555,1.95117-.34668,.2832-.14453,.67188-.34277,1.77734-.61621,.22656-.05371,.45801,.08301,.51465,.31152,.05566,.22754-.08301,.45801-.31152,.51465-1.00977,.24902-1.33398,.41406-1.59375,.54688-.43555,.22266-.69727,.32812-2.16113,.42969-.56641,.46582-.63965,1.8252-.73047,3.52734-.04395,.81738-.09375,1.74316-.20312,2.74414-.02441,.21777-.20801,.37891-.42188,.37891Z"/><path class="cls-1" d="M5.90802,16.36621c-.1377,0-.27246-.06641-.35449-.18945-.12988-.19629-.07617-.45996,.11914-.58984,.05176-.03418,1.26758-.83887,2.03516-1.17871,2.79492-1.23926,5.16504,.07031,6.06738,.70215,1.42969-1.96582,4.37793-2.90625,7.52637-2.36035,.23145,.04102,.38574,.26074,.3457,.49219-.04102,.23145-.25977,.38477-.49219,.3457-3.00879-.52734-5.7832,.4209-6.9082,2.35254-.06348,.10938-.17383,.18457-.29883,.20508-.12402,.02246-.25391-.0166-.34863-.09961-.10352-.08984-2.55371-2.19141-5.54688-.86035-.70312,.31055-1.89746,1.10156-1.90918,1.11035-.07227,.04785-.1543,.07031-.23535,.07031Z"/><path class="cls-1" d="M11.19122,5.21094c-.22852,0-.41699-.18066-.4248-.41016-.00781-.23438,.1748-.43066,.41016-.43945,.18262-.00684,.32617-.16016,.31934-.34277-.00781-.23242-.03613-.29492-.04395-.30762l-1.07227,.01562c-.23438-.00098-.42383-.19336-.42188-.42773,.00098-.23438,.18945-.47266,.42773-.42188l1.03125,.00684c.60645-.05176,.90234,.35254,.92871,1.10547,.01074,.31445-.10156,.61523-.31738,.8457-.21582,.23145-.50781,.36523-.82227,.37598h-.01465Z"/></g><circle class="cls-1" cx="6.0887" cy="14.09879" r=".42322"/></g></g></svg>