<?xml version="1.0" encoding="UTF-8"?><svg id="Layer_2" xmlns="http://www.w3.org/2000/svg" viewBox="0 0 18.66571 25.50287"><defs><style>.cls-1{fill:#783cbe;}</style></defs><g id="Layer_1-2"><g><path class="cls-1" d="M11.55273,2.28998l-1.51953,.00153c-.00293-.00006-.00488-.00153-.00781-.00153s-.00488,.00146-.00781,.00153l-7.2334,.00726C1.80762,2.5058,.0791,3.48334,.52637,5.69721c.03125,.15234,.1416,.27539,.28906,.32129,1.38965,.4375,1.41797,.49707,1.67383,1.03027,.13428,.27881,.18066,.67041,.19531,.98145h-.05078c-.57129,0-1.03516,.45312-1.03516,1.00977v1.73407c-.43213,.08081-.77246,.42578-.81445,.87238-.06836,.17871-.22559,.64746-.38281,1.5293-.04004,.23145,.11328,.45215,.34473,.49316,.22559,.03516,.45117-.1123,.49316-.34473,.17676-1,.35254-1.40723,.35254-1.4082,.02539-.05566,.03809-.11523,.03809-.17578,0-.08105,.06641-.15039,.14551-.15039H7.54688c.0791,0,.14551,.06934,.14648,.18066,.17383,2.44141,.4502,3.83887,.82031,4.15137,.16016,.13574,.41504,.43945,.68555,.75977,.37012,.44043,.79004,.94043,1.1582,1.24707,.27832,.47656-.0918,3.74316-.60059,6.57422,0,.08105-.06641,.15039-.14551,.15039H1.29395c-.07812,0-.14453-.06934-.14941-.21875-.00293-.01855-.29492-1.85938-.29492-6.07715,0-.4707,.01855-.7207,.04004-1.02344l.03125-.46191c.0127-.23438-.16602-.43555-.40039-.44922-.26074,.00781-.43555,.16699-.44922,.40039l-.0293,.44922c-.02344,.32129-.04199,.58594-.04199,1.08496,0,4.30176,.29297,6.1377,.2998,6.14551,0,.55176,.44629,1,.99414,1H9.61133c.54883,0,.99512-.44824,.98828-.92383,.54395-2.98047,1.04492-6.66016,.33984-7.26367-.34473-.29395-.74023-.76465-1.08984-1.18066-.30664-.36426-.57129-.67871-.75977-.83398-.19434-.2793-.44043-2.08203-.54785-3.56055,0-.47345-.33545-.85211-.77539-.95532v-1.74487c0-.55664-.46387-1.00977-1.03516-1.00977h-.09424l-.0083-1.125c.01074-.04468,.24609-.92047,1.22803-1.2168,.41455,.35089,1.74365,1.63593,1.74365,3.69727,0,.23438,.19043,.4248,.4248,.4248s.4248-.19043,.4248-.4248c0-1.78912-.8374-3.07361-1.48535-3.80023,1.62354,.00745,2.55566,.0542,2.56543,.05511,.12207,0,.23145-.03516,.31543-.11621s.13184-.19238,.13184-.30859V2.71478c0-.23438-.19043-.4248-.4248-.4248Zm-4.63574,6.75v1.7002H2.44824v-1.7002c0-.08691,.08496-.16016,.18555-.16016H6.73145c.10059,0,.18555,.07324,.18555,.16016Zm-1.12598-2.2334v1.22363H3.53809c-.0166-.38379-.08594-.94238-.31543-1.41797-.3291-.6875-.51758-.87695-1.90137-1.32422-.19336-1.70215,1.44141-2.11426,1.55078-2.14844h6.72852v1.60132c-.32178-.00372-.66699-.00659-1.06152-.00659-1.79199,0-2.57324,1.29102-2.74805,2.07227Zm5.33691-2.0332c-.17236-.00586-.41016-.01227-.67773-.01831v-1.61548h.67773v1.63379Z"/><path class="cls-1" d="M.57422,15.46539c.25098,.01465,.4668-.177,.48145-.42804,.01465-.25098-.17725-.46637-.42822-.48096-.25098-.01465-.46631,.177-.48096,.42798-.01465,.25104,.17676,.46637,.42773,.48102Z"/><path class="cls-1" d="M13.42676,3.61621c-.22266-.01294-.41406,.15698-.42676,.37958s.15723,.41357,.37988,.42657c.22266,.01294,.41309-.15698,.42676-.37958,.0127-.2226-.15723-.41357-.37988-.42657Z"/><path class="cls-1" d="M15.43652,4.04279c.01367-.2226-.15625-.41357-.37891-.42657-.22266-.01294-.41406,.15698-.42676,.37958s.15723,.41357,.37988,.42657c.22168,.01294,.41309-.15698,.42578-.37958Z"/><path class="cls-1" d="M17.06738,4.04279c.0127-.2226-.15723-.41357-.37988-.42657-.22266-.01294-.41309,.15698-.42578,.37958-.01367,.2226,.15625,.41357,.37891,.42657,.22266,.01294,.41406-.15698,.42676-.37958Z"/><path class="cls-1" d="M18.28516,3.61621c-.22266-.01294-.41309,.15698-.42676,.37958-.0127,.2226,.15723,.41357,.37988,.42657,.22266,.01294,.41309-.15698,.42676-.37958,.0127-.2226-.15723-.41357-.37988-.42657Z"/><path class="cls-1" d="M14.78125,3.01135c.16699-.14819,.18164-.40338,.0332-.57001-.14844-.16656-.40332-.1814-.56934-.0332-.16699,.14825-.18164,.40344-.0332,.57001,.14746,.16656,.40332,.18146,.56934,.0332Z"/><path class="cls-1" d="M15.93457,1.85834c.16602-.14819,.18164-.40338,.0332-.56995-.14844-.16663-.40332-.18146-.57031-.03326-.16602,.14825-.18164,.40344-.0332,.57001s.40332,.18146,.57031,.0332Z"/><path class="cls-1" d="M17.08691,.70538c.16699-.14825,.18164-.40344,.03418-.57001-.14844-.16663-.4043-.18146-.57031-.03326-.16699,.14825-.18164,.40344-.0332,.57001s.40332,.18146,.56934,.03326Z"/><path class="cls-1" d="M14.27832,4.92737c-.16699,.14825-.18164,.40344-.0332,.57001,.14746,.16656,.40332,.18146,.56934,.0332,.16699-.14819,.18164-.40338,.0332-.57001-.14844-.16656-.40332-.1814-.56934-.0332Z"/><path class="cls-1" d="M15.43066,6.08038c-.16602,.14825-.18164,.40344-.0332,.57001s.40332,.18146,.57031,.0332c.16602-.14819,.18164-.40338,.0332-.57001-.14844-.16656-.40332-.18146-.57031-.0332Z"/><path class="cls-1" d="M16.58398,7.2334c-.16699,.14825-.18164,.40344-.0332,.57001s.40332,.18146,.57031,.0332c.16602-.14819,.18066-.40344,.0332-.57001-.14844-.16656-.40332-.18146-.57031-.0332Z"/></g></g></svg>