<?xml version="1.0" encoding="UTF-8"?><svg id="Layer_2" xmlns="http://www.w3.org/2000/svg" viewBox="0 0 12.37977 22.79199"><defs><style>.cls-1{fill:#783cbe;}</style></defs><g id="Layer_5"><g><path class="cls-1" d="M2.37184,8.87713c.01855-.24365-.16357-.45642-.40771-.4751-.24365-.01855-.45605,.16382-.4751,.40771-.01855,.24365,.16406,.4563,.40771,.4751,.24365,.01855,.45654-.16394,.4751-.40771Z"/><path class="cls-1" d="M12.37847,12.35465c.01855-.24365-.16357-.45642-.40771-.4751-.24365-.01855-.45605,.16382-.4751,.40771-.01855,.24365,.16406,.4563,.40771,.4751,.24365,.01855,.45654-.16394,.4751-.40771Z"/><path class="cls-1" d="M2.8457,22.79199H1.01562c-.56055,0-1.01562-.45508-1.01562-1.01562V10.80664c0-.56055,.45508-1.01562,1.01562-1.01562h1.83008c.56055,0,1.01562,.45508,1.01562,1.01562v10.96973c0,.56055-.45508,1.01562-1.01562,1.01562ZM1.01562,10.64062c-.0918,0-.16602,.07422-.16602,.16602v10.96973c0,.0918,.07422,.16602,.16602,.16602h1.83008c.0918,0,.16602-.07422,.16602-.16602V10.80664c0-.0918-.07422-.16602-.16602-.16602H1.01562Z"/><path class="cls-1" d="M1.93066,7.89551c-.23438,0-.4248-.19043-.4248-.4248V2.32324c0-.23438,.19043-.4248,.4248-.4248s.4248,.19043,.4248,.4248V7.4707c0,.23438-.19043,.4248-.4248,.4248Z"/><path class="cls-1" d="M1.93066,2.54688c-.70215,0-1.27344-.57129-1.27344-1.27344S1.22852,0,1.93066,0s1.27344,.57129,1.27344,1.27344-.57129,1.27344-1.27344,1.27344ZM1.93066,.84961c-.2334,0-.42383,.19043-.42383,.42383s.19043,.42383,.42383,.42383,.42383-.19043,.42383-.42383-.19043-.42383-.42383-.42383Z"/><path class="cls-1" d="M11.34668,22.79199h-1.83105c-.55957,0-1.01465-.45508-1.01465-1.01562V8.06152c0-.56055,.45508-1.01562,1.01465-1.01562h1.83105c.56055,0,1.01562,.45508,1.01562,1.01562v2.79492c0,.23438-.19043,.4248-.4248,.4248s-.4248-.19043-.4248-.4248v-2.79492c0-.0918-.07422-.16602-.16602-.16602h-1.83105c-.09082,0-.16504,.07422-.16504,.16602v13.71484c0,.0918,.07422,.16602,.16504,.16602h1.83105c.0918,0,.16602-.07422,.16602-.16602v-7.99023c0-.23438,.19043-.4248,.4248-.4248s.4248,.19043,.4248,.4248v7.99023c0,.56055-.45508,1.01562-1.01562,1.01562Z"/><path class="cls-1" d="M10.43164,6.2002c-.23438,0-.4248-.19043-.4248-.4248V2.32324c0-.23438,.19043-.4248,.4248-.4248s.4248,.19043,.4248,.4248v3.45215c0,.23438-.19043,.4248-.4248,.4248Z"/><path class="cls-1" d="M10.43164,2.54688c-.70215,0-1.27344-.57129-1.27344-1.27344s.57129-1.27344,1.27344-1.27344,1.27246,.57129,1.27246,1.27344-.57031,1.27344-1.27246,1.27344Zm0-1.69727c-.2334,0-.42383,.19043-.42383,.42383s.19043,.42383,.42383,.42383,.42285-.19043,.42285-.42383-.18945-.42383-.42285-.42383Z"/></g></g></svg>