<?xml version="1.0" encoding="UTF-8"?><svg id="Layer_2" xmlns="http://www.w3.org/2000/svg" viewBox="0 0 17.02416 24.60392"><defs><style>.cls-1{fill:#783cbe;}</style></defs><g id="Layer_1-2"><g><path class="cls-1" d="M5.94434,7.30802C2.61133,7.30802,0,5.96037,0,4.23869S2.61133,1.16837,5.94434,1.16837s5.94434,1.34863,5.94434,3.07031-2.61133,3.06934-5.94434,3.06934Zm0-5.29004C2.94238,2.01798,.84961,3.18888,.84961,4.23869s2.09277,2.21973,5.09473,2.21973,5.09473-1.16992,5.09473-2.21973-2.09277-2.2207-5.09473-2.2207Z"/><path class="cls-1" d="M5.94434,24.60392c-3.33301,0-5.94434-1.34863-5.94434-3.07031,0-.23438,.19043-.4248,.4248-.4248s.4248,.19043,.4248,.4248c0,1.0498,2.09277,2.2207,5.09473,2.2207s5.09473-1.1709,5.09473-2.2207c0-.23438,.19043-.4248,.4248-.4248s.4248,.19043,.4248,.4248c0,1.72168-2.61133,3.07031-5.94434,3.07031Z"/><path class="cls-1" d="M5.94434,5.52873c-1.29297,0-2.23047-.54199-2.23047-1.29004s.9375-1.29004,2.23047-1.29004,2.23047,.54199,2.23047,1.29004-.9375,1.29004-2.23047,1.29004Zm0-1.73047c-.91504,0-1.36914,.33789-1.38086,.44043,.01172,.10254,.46582,.44043,1.38086,.44043,.91406,0,1.36816-.33789,1.38086-.44043-.0127-.10254-.4668-.44043-1.38086-.44043Z"/><path class="cls-1" d="M.4248,21.95841c-.23438,0-.4248-.19043-.4248-.4248V4.23869c0-.23438,.19043-.4248,.4248-.4248s.4248,.19043,.4248,.4248V21.53361c0,.23438-.19043,.4248-.4248,.4248Z"/><path class="cls-1" d="M11.46387,21.95841c-.23438,0-.4248-.19043-.4248-.4248V4.23966c-.00195,0-.12109-1.3418,.72559-2.37695,.51465-.62891,1.25684-.99414,2.20703-1.08398,1.5752-.15137,2.35254-.69336,2.36035-.69922,.12891-.09277,.30078-.10547,.44238-.03223s.23145,.21777,.23145,.37695V14.42619c0,.23438-.19043,.4248-.4248,.4248s-.4248-.19043-.4248-.4248V1.12345c-.46191,.19336-1.16113,.41113-2.10449,.50098-.71484,.06836-1.26367,.33008-1.62891,.77637-.61426,.75098-.53711,1.7832-.53613,1.79395l.00195,17.33887c0,.23438-.19043,.4248-.4248,.4248Z"/><path class="cls-1" d="M11.46289,22.11173c-.21484,0-.39844-.16211-.42188-.38086-.00098-.01367-.13281-1.37305,.72363-2.41992,.51465-.62891,1.25684-.99414,2.20703-1.08398,1.5752-.15039,2.35254-.69238,2.36035-.69824,.19336-.13477,.45703-.09082,.59277,.09668,.13672,.18945,.0957,.45312-.09277,.59082-.03809,.02832-.9502,.68262-2.78027,.85645-.71484,.06836-1.26367,.33008-1.62891,.77637-.61426,.75098-.53711,1.7832-.53613,1.79395,.02441,.2334-.14551,.44238-.37891,.4668-.01465,.00098-.0293,.00195-.04492,.00195Z"/><path class="cls-1" d="M16.14005,16.139c-.01855,.24365,.16357,.45642,.40771,.4751,.24365,.01855,.45605-.16382,.4751-.40771,.01855-.24365-.16406-.4563-.40771-.4751-.24365-.01855-.45654,.16394-.4751,.40771Z"/></g></g></svg>