<svg viewBox="0 0 24.1498 24.6599" xmlns="http://www.w3.org/2000/svg" xmlns:xlink="http://www.w3.org/1999/xlink" overflow="hidden"><g id="Layer_2"><g id="Layer_1-2"><path d="M12.5569 24.1682 0.42506 24.1682C0.190626 24.1684 0.000436802 23.9785 0.000260004 23.7441 0.000259843 23.7438 0.000259843 23.7436 0.000260004 23.7434L0.00026 6.14723C-0.000878306 5.91262 0.188391 5.7215 0.423004 5.72036 0.657617 5.71923 0.848732 5.90849 0.84987 6.14311 0.849877 6.14448 0.849877 6.14586 0.84987 6.14723L0.84987 23.3186 12.5569 23.3186C12.7915 23.3197 12.9808 23.5109 12.9796 23.7455 12.9785 23.9785 12.7899 24.1671 12.5569 24.1682Z"/><path d="M18.4817 9.76441C18.2473 9.76459 18.0571 9.57468 18.0569 9.34025 18.0569 9.34004 18.0569 9.33982 18.0569 9.33961L18.0569 0.84986 4.73952 0.84986 4.75952 4.37135C4.76116 4.60567 4.57253 4.79695 4.33821 4.79858 4.33705 4.79859 4.33588 4.79859 4.33472 4.79859L0.42506 4.79859C0.190447 4.79745 0.00117778 4.60634 0.00231609 4.37172 0.00344659 4.13872 0.192055 3.95011 0.42506 3.94898L3.90748 3.94898 3.88746 0.4275C3.88583 0.193171 4.07447 0.00188936 4.3088 0.000259948 4.30996 0.000251904 4.31111 0.000248591 4.31227 0.00025001L18.4817 0.00025C18.7161 7.32022e-05 18.9063 0.18998 18.9065 0.42442 18.9065 0.424633 18.9065 0.424847 18.9065 0.42506L18.9065 9.33961C18.9067 9.57404 18.7168 9.76423 18.4823 9.76441 18.4821 9.76441 18.4819 9.76441 18.4817 9.76441Z"/><path d="M19.4973 24.6599C19.3533 24.66 19.2191 24.587 19.1409 24.4661L18.533 23.5286C18.0592 23.5952 17.5783 23.5928 17.1052 23.5212L16.489 24.4544C16.3851 24.6102 16.1917 24.6803 16.012 24.6272 15.3657 24.433 14.7549 24.1361 14.2029 23.7478 14.0495 23.6396 13.9852 23.4435 14.0447 23.2654L14.3992 22.2048C14.0518 21.8758 13.7536 21.4984 13.514 21.0842L12.4007 21.1843C12.2137 21.2015 12.0377 21.0936 11.9681 20.9192 11.7168 20.2928 11.5681 19.63 11.5276 18.9563 11.5166 18.7688 11.6297 18.5962 11.806 18.5315L12.8558 18.1482C12.8764 17.9098 12.9139 17.6732 12.9681 17.4402 13.0225 17.2073 13.0934 16.9786 13.18 16.7556L12.4075 15.9475C12.2776 15.8118 12.2523 15.6068 12.3455 15.4436 12.6793 14.8573 13.1053 14.3285 13.6072 13.8777 13.7467 13.7518 13.9524 13.7327 14.1126 13.8308L15.0672 14.4124C15.4649 14.1467 15.8989 13.9398 16.3558 13.7981L16.5067 12.6897C16.5318 12.5036 16.6761 12.3561 16.8617 12.3269 17.5282 12.222 18.2074 12.2253 18.8729 12.3367 19.0579 12.3677 19.2008 12.5163 19.2245 12.7024L19.3656 13.8118C19.8216 13.9565 20.2541 14.1667 20.6497 14.4358L21.6097 13.863C21.7712 13.7671 21.9764 13.7881 22.1151 13.9148 22.6116 14.3707 23.0323 14.9028 23.3616 15.491 23.4532 15.6552 23.4262 15.8601 23.2952 15.9949L22.5159 16.7967C22.687 17.2439 22.7922 17.7137 22.8284 18.1912L23.8743 18.5838C24.0501 18.6499 24.1617 18.8236 24.1487 19.011 24.1024 19.6838 23.9486 20.3449 23.6931 20.969 23.6207 21.1419 23.4447 21.248 23.2581 21.2312L22.1462 21.1214C21.9029 21.5339 21.6009 21.9089 21.2498 22.2346L21.595 23.2981C21.653 23.477 21.5867 23.6728 21.4319 23.7796 20.8768 24.1622 20.2641 24.4536 19.617 24.6428 19.5781 24.6543 19.5378 24.66 19.4973 24.6599ZM18.7376 22.6379C18.8816 22.6378 19.0158 22.7108 19.094 22.8318L19.6765 23.7302C20.0285 23.6051 20.3667 23.4443 20.6858 23.2502L20.3547 22.2307C20.3008 22.0647 20.3539 21.8827 20.4885 21.7717 20.9207 21.4155 21.2757 20.9749 21.5315 20.4768 21.6094 20.32 21.777 20.2287 21.951 20.2482L23.0169 20.3532C23.0774 20.1768 23.1289 19.9973 23.1712 19.8156 23.2137 19.6339 23.2467 19.45 23.2703 19.2649L22.2679 18.8884C22.1048 18.827 21.9957 18.6724 21.9925 18.4982 21.9826 17.9381 21.8587 17.3859 21.6282 16.8752 21.5568 16.7162 21.5897 16.5296 21.7112 16.4046L22.4583 15.636C22.2575 15.3213 22.0252 15.0277 21.7649 14.76L20.8455 15.3088C20.696 15.3984 20.507 15.3873 20.3689 15.281 19.925 14.94 19.4163 14.6928 18.8738 14.5544 18.7051 14.5112 18.5798 14.3693 18.5579 14.1965L18.4226 13.1325C18.0512 13.0927 17.6768 13.0908 17.305 13.1267L17.161 14.1892C17.1374 14.3617 17.0111 14.5025 16.8421 14.5446 16.2983 14.6789 15.7875 14.9222 15.3407 15.26 15.2016 15.3652 15.0123 15.3745 14.8636 15.2834L13.9486 14.7258C13.6856 14.9909 13.4506 15.2825 13.2474 15.5959L13.9872 16.3703C14.1074 16.496 14.1389 16.6823 14.0668 16.8405 13.8334 17.3506 13.7049 17.9024 13.6888 18.4631 13.6839 18.6372 13.5735 18.7907 13.41 18.8508L12.4042 19.218C12.4479 19.5889 12.5299 19.9543 12.6488 20.3083L13.7162 20.2126C13.8891 20.2002 14.0529 20.2912 14.1337 20.4445 14.3856 20.945 14.7366 21.389 15.1654 21.7497 15.2984 21.862 15.3493 22.0442 15.2938 22.2092L14.954 23.2258C15.2714 23.4227 15.6083 23.5863 15.9594 23.7141L16.5502 22.8195C16.6458 22.6737 16.821 22.6015 16.9916 22.6374 17.5394 22.7538 18.1052 22.7568 18.6542 22.6462 18.6816 22.6406 18.7096 22.6378 18.7376 22.638Z"/><path d="M17.8401 21.3069C17.6317 21.3069 17.4239 21.283 17.221 21.2356L17.221 21.2356C15.7519 20.8932 14.8386 19.4248 15.181 17.9558 15.5233 16.4868 16.9917 15.5734 18.4608 15.9158 19.9298 16.2582 20.8431 17.7266 20.5008 19.1956 20.2125 20.4323 19.11 21.3072 17.8401 21.3069ZM17.4133 20.4075C18.4257 20.6432 19.4374 20.0135 19.673 19.0012 19.9087 17.9889 19.2791 16.9772 18.2668 16.7415 17.2545 16.5058 16.2428 17.1354 16.0071 18.1477 15.7742 19.1596 16.4026 20.1695 17.4133 20.4075Z"/><path d="M0.42506 4.79859C0.19045 4.79877 0.000114197 4.60873-6.58204e-05 4.37412-0.00015159 4.26233 0.0438251 4.15502 0.12233 4.07545L4.00953 0.12672C4.1743-0.0404759 4.44341-0.0424436 4.61061 0.122325 4.7778 0.287094 4.77977 0.556204 4.615 0.7234L0.7278 4.67213C0.648022 4.75331 0.538881 4.7989 0.42506 4.79859Z"/><path d="M0.42506 6.572C0.190626 6.57218 0.000436802 6.38227 0.000260004 6.14784 0.000259843 6.14763 0.000259843 6.14741 0.000260004 6.1472L0.00026 4.37379C-0.000878306 4.13918 0.188391 3.94806 0.423004 3.94692 0.657617 3.94579 0.848732 4.13505 0.84987 4.36967 0.849877 4.37104 0.849877 4.37242 0.84987 4.37379L0.84987 6.14723C0.85003 6.38166 0.660114 6.57184 0.42568 6.572 0.425474 6.572 0.425267 6.572 0.42506 6.572Z"/><path d="M8.80348 21.657 2.83668 21.657C2.60225 21.6572 2.41206 21.4673 2.41188 21.2328 2.41188 21.2326 2.41188 21.2324 2.41188 21.2322L2.41188 15.3714C2.4117 15.1369 2.6016 14.9467 2.83603 14.9465 2.83625 14.9465 2.83646 14.9465 2.83668 14.9465L8.80348 14.9465C9.03791 14.9464 9.2281 15.1363 9.22828 15.3707 9.22828 15.3709 9.22828 15.3711 9.22828 15.3714L9.22828 21.2322C9.22846 21.4666 9.03856 21.6568 8.80413 21.657 8.80391 21.657 8.8037 21.657 8.80348 21.657ZM3.26148 20.8074 8.37868 20.8074 8.37868 15.7962 3.26149 15.7962Z"/><path d="M14.9065 6.5857 2.76735 6.5857C2.53274 6.58684 2.34162 6.39757 2.34048 6.16296 2.33935 5.92834 2.52861 5.73723 2.76323 5.73609 2.7646 5.73608 2.76598 5.73608 2.76735 5.73609L14.9065 5.73609C15.1411 5.73723 15.3304 5.92834 15.3293 6.16296 15.3281 6.39596 15.1395 6.58457 14.9065 6.5857Z"/><path d="M14.9065 9.14479 2.76735 9.14479C2.53274 9.14593 2.34162 8.95666 2.34048 8.72205 2.33935 8.48743 2.52861 8.29632 2.76323 8.29518 2.7646 8.29517 2.76598 8.29517 2.76735 8.29518L14.9065 8.29518C15.1411 8.29632 15.3304 8.48743 15.3293 8.72205 15.3281 8.95505 15.1395 9.14366 14.9065 9.14479Z"/><path d="M12.116 11.7044 2.76735 11.7044C2.53274 11.7055 2.34162 11.5162 2.34048 11.2816 2.33935 11.047 2.52861 10.8559 2.76323 10.8547 2.7646 10.8547 2.76598 10.8547 2.76735 10.8547L12.116 10.8547C12.3506 10.8559 12.5399 11.047 12.5387 11.2816 12.5376 11.5146 12.349 11.7032 12.116 11.7044Z"/><path d="M5.50953 20.1917C5.39384 20.1917 5.28313 20.1446 5.20289 20.0613L3.92555 18.7312C3.76294 18.5619 3.7684 18.2927 3.93775 18.1301 4.10711 17.9675 4.37622 17.973 4.53883 18.1423L5.48805 19.1311 7.116 17.1892C7.26621 17.0089 7.53416 16.9845 7.71448 17.1347 7.8948 17.2849 7.9192 17.5529 7.76899 17.7332 7.76845 17.7338 7.76791 17.7345 7.76737 17.7351L5.83522 20.0398C5.75774 20.1325 5.64442 20.1877 5.52369 20.1917Z"/><circle cx="18.4816" cy="11.0126" r="0.425"/></g></g></svg>