<svg viewBox="0 0 30.8111 23.4799" xmlns="http://www.w3.org/2000/svg" xmlns:xlink="http://www.w3.org/1999/xlink" overflow="hidden"><defs></defs><g id="Layer_2"><g id="Layer_1-2"><path d="M28.044 4.81779 28.042 4.81779 20.7661 4.7885C20.5315 4.78703 20.3425 4.59565 20.344 4.36104 20.3454 4.12793 20.5345 3.93954 20.7676 3.93889L20.7696 3.93889 28.0455 3.96818C28.2801 3.96965 28.4691 4.16103 28.4676 4.39564 28.4661 4.62875 28.2771 4.81713 28.044 4.81779Z"/><path d="M25.0552 6.73674 25.0537 6.73674 20.7588 6.72014C20.5242 6.71867 20.3352 6.52729 20.3366 6.29268 20.3381 6.05957 20.5271 5.87119 20.7603 5.87053L20.7617 5.87053 25.0566 5.88713C25.2913 5.8886 25.4803 6.07998 25.4788 6.31459 25.4773 6.5477 25.2883 6.73608 25.0552 6.73674Z"/><path d="M20.502 11.3461C20.4456 11.3462 20.3898 11.3349 20.3379 11.3129 20.1793 11.2467 20.0763 11.0913 20.0772 10.9193L20.0865 8.5551C18.9209 7.72384 18.2143 6.39257 18.1792 4.96135 18.1837 4.22156 18.3882 3.49675 18.771 2.86369 18.8252 2.77189 18.8828 2.68303 18.9434 2.59416 19.0753 2.40006 19.3397 2.34971 19.5338 2.4817 19.7279 2.61369 19.7782 2.87803 19.6462 3.07213 19.6457 3.07296 19.6451 3.0738 19.6445 3.07463 19.5938 3.14787 19.5469 3.22111 19.5019 3.29631 19.1971 3.79999 19.0337 4.37652 19.0288 4.96525 19.0758 6.19768 19.7219 7.32942 20.7593 7.9965 20.8719 8.07635 20.9384 8.20613 20.9375 8.34416L20.9312 9.89689 21.9399 8.89589C22.0528 8.78414 22.2185 8.74459 22.3696 8.79335 23.0514 9.01118 23.7628 9.12252 24.4785 9.12343 25.8832 9.16287 27.2605 8.72918 28.3892 7.892 29.3374 7.23135 29.9198 6.16319 29.9614 5.00821 29.9702 2.727 27.5254 0.86174 24.5117 0.85 23.685 0.853713 22.8647 0.995984 22.085 1.2709 21.8649 1.35288 21.6201 1.24094 21.5381 1.02088 21.4561 0.800827 21.568 0.555978 21.7881 0.474 22.6607 0.151631 23.5849-0.00887221 24.5151 0.000370007 27.9975 0.01404 30.8217 2.26209 30.811 5.01209 30.772 6.43063 30.0662 7.74768 28.9067 8.5658 27.6272 9.51483 26.0677 10.01 24.4751 9.97307 23.7594 9.97193 23.0472 9.8727 22.3584 9.67814L20.8013 11.2231C20.7215 11.3018 20.614 11.346 20.502 11.3461Z"/><circle cx="20.4895" cy="1.69734" r="0.425" stroke="#714C9F" stroke-width="0" stroke-miterlimit="10"/><path d="M13.9712 15.0463 4.59131 15.0463C2.6958 15.0444 1.15967 13.5082 1.15771 11.6127L1.15771 11.6C1.16169 8.15634 3.95234 5.3657 7.396 5.36174L11.1665 5.36174C14.6102 5.3657 17.4008 8.15634 17.4048 11.6 17.4083 13.4998 15.8712 15.0428 13.9714 15.0463 13.9713 15.0463 13.9713 15.0463 13.9712 15.0463ZM7.396 6.21135C4.42129 6.21463 2.01062 8.62529 2.00732 11.6L2.00732 11.6127C2.00893 13.0391 3.16489 14.1951 4.59132 14.1967L13.9712 14.1967C15.3976 14.1951 16.5536 13.0391 16.5552 11.6127 16.5574 8.63363 14.1456 6.21612 11.1665 6.21135Z"/><path d="M7.40137 10.3676C6.74553 10.3673 6.21409 9.83544 6.21437 9.1796 6.21465 8.52376 6.74653 7.99232 7.40237 7.9926 8.05801 7.99288 8.58937 8.52446 8.58937 9.1801 8.5888 9.8359 8.05717 10.3673 7.40137 10.3676ZM7.40137 8.84221C7.21476 8.84248 7.0637 8.99398 7.06397 9.18059 7.06424 9.3672 7.21574 9.51826 7.40235 9.51799 7.58877 9.51772 7.73975 9.36652 7.73975 9.1801 7.73952 8.99339 7.58808 8.84217 7.40137 8.84221Z"/><path d="M11.0767 10.349C10.4208 10.349 9.88916 9.81734 9.88916 9.1615 9.88916 8.50566 10.4208 7.974 11.0767 7.974 11.7325 7.974 12.2642 8.50566 12.2642 9.1615 12.2636 9.8171 11.7323 10.3484 11.0767 10.349ZM11.0767 8.82361C10.89 8.82361 10.7388 8.97489 10.7388 9.1615 10.7388 9.34811 10.89 9.49939 11.0767 9.49939 11.2633 9.49939 11.4145 9.34811 11.4145 9.1615 11.4143 8.975 11.2632 8.82389 11.0767 8.82365Z"/><path d="M9.2627 13.1625C8.44206 13.1649 7.65455 12.839 7.0757 12.2573 6.90958 12.0914 6.90936 11.8223 7.07521 11.6562 7.24106 11.4901 7.51017 11.4898 7.67629 11.6557 8.55293 12.5307 9.9725 12.5307 10.8491 11.6557 11.0153 11.4898 11.2844 11.4901 11.4502 11.6562 11.6161 11.8223 11.6158 12.0914 11.4497 12.2573 10.8709 12.839 10.0834 13.1649 9.2627 13.1625Z"/><path d="M4.86377 10.9174 3.50928 10.9174C3.27467 10.9174 3.08448 10.7272 3.08447 10.4926 3.08447 10.4926 3.08447 10.4926 3.08447 10.4926 3.08447 8.33439 5.22998 6.58439 7.86768 6.58439L10.6948 6.58439C13.3325 6.58439 15.478 8.33439 15.478 10.4848 15.4788 10.7224 15.2869 10.9157 15.0492 10.9165 15.0212 10.9166 14.9933 10.9139 14.9658 10.9086L13.4951 10.9115 13.4946 10.9115C13.26 10.9105 13.0706 10.7195 13.0716 10.4849 13.0726 10.2519 13.2611 10.0632 13.4941 10.0619L14.5894 10.0599C14.3188 8.57555 12.6753 7.43393 10.6948 7.43393L7.86768 7.43393C5.88135 7.43393 4.23389 8.58237 3.97068 10.0677L4.86375 10.0677C5.09836 10.0689 5.28763 10.26 5.28649 10.4946 5.28536 10.7276 5.09676 10.9162 4.86375 10.9173Z"/><path d="M17.0869 12.0756C16.8523 12.0756 16.6621 11.8854 16.6621 11.6508 16.6621 11.4162 16.8523 11.226 17.0869 11.226 17.439 11.2293 17.7274 10.9472 17.7319 10.5951L17.7319 9.48283C17.7274 9.13075 17.439 8.84864 17.0869 8.85197L16.2427 8.85197C16.0081 8.85311 15.817 8.66384 15.8158 8.42923 15.8147 8.19461 16.0039 8.0035 16.2386 8.00236 16.2399 8.00235 16.2413 8.00235 16.2427 8.00236L17.0869 8.00236C17.9081 7.99935 18.5767 8.66165 18.5815 9.48283L18.5815 10.5951C18.5767 11.4163 17.9081 12.0786 17.0869 12.0756Z"/><path d="M1.49414 12.0756C0.673053 12.0786 0.0045723 11.4162 2.89536e-08 10.5951L0 9.48283C0.00457227 8.66175 0.673052 7.99939 1.49414 8.00236L2.33838 8.00236C2.57299 8.0035 2.76226 8.19461 2.76112 8.42923 2.75999 8.66223 2.57139 8.85084 2.33838 8.85197L1.49414 8.85197C1.14215 8.84868 0.853867 9.13085 0.84961 9.48283L0.84961 10.5951C0.853867 10.9471 1.14215 11.2293 1.49414 11.226 1.72875 11.226 1.91894 11.4162 1.91894 11.6508 1.91894 11.8854 1.72875 12.0756 1.49414 12.0756Z"/><path d="M9.24951 23.4799C6.41309 23.4799 3.97998 20.516 3.95166 18.0697L3.9502 18.0317C4.1155 16.5003 5.47477 15.3821 7.00928 15.5151L11.5171 15.5151C13.0305 15.3884 14.3767 16.4724 14.5757 17.978 14.5771 17.9923 14.5777 18.0066 14.5777 18.021 14.5776 20.478 12.1191 23.4799 9.24951 23.4799ZM4.80029 17.9975 4.80129 18.0268C4.80129 20.0561 6.89553 22.6303 9.24953 22.6303 11.6031 22.6303 13.6987 20.0883 13.7275 18.0629 13.7265 18.0531 13.7265 18.0424 13.7265 18.0317 13.7265 17.1283 12.7148 16.3647 11.5171 16.3647L7.00928 16.3647C5.96192 16.2574 5.00495 16.9647 4.80029 17.9975Z"/></g></g></svg>