<svg viewBox="0 0 23.5391 19.334" xmlns="http://www.w3.org/2000/svg" xmlns:xlink="http://www.w3.org/1999/xlink" overflow="hidden"><g id="Layer_2"><g id="Layer_1-2"><path d="M22.0029 19.334 1.53516 19.334C0.687651 19.3332 0.000815813 18.6463-5.4512e-08 17.7988L0 7.71094C-0.00113831 7.47633 0.188131 7.28521 0.422744 7.28407 0.657357 7.28294 0.848472 7.4722 0.84961 7.70682 0.849617 7.70819 0.849617 7.70957 0.84961 7.71094L0.84961 17.7988C0.850095 18.1772 1.15674 18.4839 1.53516 18.4844L22.0029 18.4844C22.3817 18.4843 22.6889 18.1776 22.6894 17.7988L22.6894 6.05078C22.6906 5.81617 22.8817 5.6269 23.1163 5.62804 23.3493 5.62917 23.5379 5.81777 23.5391 6.05078L23.5391 17.7988C23.5378 18.6465 22.8506 19.3333 22.0029 19.334Z"/><path d="M5.2793 3.31152C5.04476 3.31135 4.85466 3.12126 4.85449 2.88672L4.85449 0.4248C4.85563 0.190187 5.04674 0.000917788 5.28136 0.00205609 5.51436 0.0031866 5.70297 0.191795 5.7041 0.4248L5.7041 2.88672C5.70393 3.12126 5.51384 3.31135 5.2793 3.31152Z"/><path d="M18.2598 3.31152C18.0252 3.31135 17.8351 3.12126 17.835 2.88672L17.835 0.4248C17.8361 0.190187 18.0272 0.000917788 18.2618 0.00205609 18.4948 0.0031866 18.6834 0.191795 18.6846 0.4248L18.6846 2.88672C18.6844 3.12126 18.4943 3.31135 18.2598 3.31152Z"/><path d="M17.0977 1.53223 6.44141 1.53223C6.2068 1.53337 6.01568 1.3441 6.01454 1.10949 6.01341 0.874873 6.20267 0.683758 6.43729 0.68262 6.43866 0.682613 6.44004 0.682613 6.44141 0.68262L17.0977 0.68262C17.3323 0.683758 17.5215 0.874873 17.5204 1.10949 17.5193 1.34249 17.3307 1.5311 17.0977 1.53223Z"/><path d="M23.1143 6.47559C22.8797 6.47542 22.6896 6.28533 22.6894 6.05078L22.6894 2.21778C22.6888 1.83903 22.3817 1.5323 22.0029 1.53224L19.4219 1.53224C19.1873 1.53338 18.9962 1.34411 18.9951 1.1095 18.9939 0.874883 19.1832 0.683768 19.4178 0.68263 19.4192 0.682623 19.4206 0.682623 19.4219 0.68263L22.0029 0.68263C22.8506 0.683373 23.5378 1.37009 23.5391 2.21778L23.5391 6.05078C23.5389 6.28532 23.3488 6.47542 23.1143 6.47559Z"/><path d="M0.4248 8.13574C0.19026 8.13557 0.000170978 7.94548 8.53538e-09 7.71094L0 7.34668C0.00113831 7.11207 0.192253 6.9228 0.426866 6.92394 0.659871 6.92507 0.84848 7.11368 0.84961 7.34668L0.84961 7.71094C0.849439 7.94548 0.659344 8.13557 0.4248 8.13574Z"/><path d="M0.4248 4.54785C0.19026 4.54768 0.000170978 4.35759 8.53538e-09 4.12305L0 2.21777C0.00082689 1.37027 0.687659 0.683441 1.53516 0.68262L4.11716 0.68262C4.35177 0.683758 4.54104 0.874873 4.5399 1.10949 4.53877 1.34249 4.35016 1.5311 4.11716 1.53223L1.53516 1.53223C1.15675 1.53271 0.8501 1.83936 0.84961 2.21777L0.84961 4.12305C0.849439 4.35759 0.659344 4.54768 0.4248 4.54785Z"/><path d="M6.85352 11.2158C6.61898 11.2157 6.42888 11.0256 6.42871 10.791L6.42871 8.48535C6.42985 8.25074 6.62096 8.06147 6.85558 8.06261 7.08858 8.06374 7.27719 8.25235 7.27832 8.48535L7.27832 10.791C7.27816 11.0255 7.08807 11.2156 6.85352 11.2158Z"/><path d="M10.1309 11.2158C9.89632 11.2157 9.70622 11.0256 9.70605 10.791L9.70605 8.48535C9.70719 8.25074 9.8983 8.06147 10.1329 8.06261 10.3659 8.06374 10.5545 8.25235 10.5557 8.48535L10.5557 10.791C10.5555 11.0255 10.3654 11.2156 10.1309 11.2158Z"/><path d="M13.4082 11.2158C13.1737 11.2156 12.9836 11.0256 12.9834 10.791L12.9834 8.48535C12.9845 8.25074 13.1757 8.06147 13.4103 8.06261 13.6433 8.06374 13.8319 8.25235 13.833 8.48535L13.833 10.791C13.8328 11.0256 13.6428 11.2157 13.4082 11.2158Z"/><path d="M16.6856 11.2158C16.451 11.2157 16.2609 11.0256 16.2607 10.791L16.2607 8.48535C16.2619 8.25074 16.453 8.06147 16.6876 8.06261 16.9206 8.06374 17.1092 8.25235 17.1104 8.48535L17.1103 10.791C17.1102 11.0255 16.9201 11.2156 16.6855 11.2158Z"/><path d="M6.85352 16.8613C6.61897 16.8612 6.42888 16.6711 6.42871 16.4365L6.42871 14.1299C6.42985 13.8953 6.62096 13.706 6.85558 13.7071 7.08858 13.7083 7.27719 13.8969 7.27832 14.1299L7.27832 16.4365C7.27815 16.6711 7.08806 16.8612 6.85352 16.8613Z"/><path d="M10.1309 16.8613C9.89631 16.8612 9.70622 16.6711 9.70605 16.4365L9.70605 14.1299C9.70719 13.8953 9.8983 13.706 10.1329 13.7071 10.3659 13.7083 10.5545 13.8969 10.5557 14.1299L10.5557 16.4365C10.5555 16.6711 10.3654 16.8612 10.1309 16.8613Z"/><path d="M13.4082 16.8613C13.1737 16.8612 12.9836 16.6711 12.9834 16.4365L12.9834 14.1299C12.9845 13.8953 13.1757 13.706 13.4103 13.7071 13.6433 13.7083 13.8319 13.8969 13.833 14.1299L13.833 16.4365C13.8328 16.6711 13.6427 16.8612 13.4082 16.8613Z"/><path d="M16.6856 16.8613C16.451 16.8612 16.2609 16.6711 16.2607 16.4365L16.2607 14.1299C16.2619 13.8953 16.453 13.706 16.6876 13.7071 16.9206 13.7083 17.1092 13.8969 17.1104 14.1299L17.1103 16.4365C17.1102 16.6711 16.9201 16.8612 16.6855 16.8613Z"/><path d="M18.5332 12.9053 5.00586 12.9053C4.77125 12.9064 4.58013 12.7171 4.57899 12.4825 4.57786 12.2479 4.76712 12.0568 5.00174 12.0557 5.00311 12.0557 5.00449 12.0557 5.00586 12.0557L18.5332 12.0557C18.7678 12.0545 18.9589 12.2438 18.9601 12.4784 18.9612 12.713 18.7719 12.9041 18.5373 12.9053 18.5359 12.9053 18.5346 12.9053 18.5332 12.9053Z"/><path d="M21.5772 6.19434 8.0498 6.19434C7.81519 6.1932 7.62592 6.00209 7.62706 5.76747 7.62819 5.53447 7.81679 5.34586 8.0498 5.34473L21.5772 5.34473C21.8118 5.34587 22.001 5.53698 21.9999 5.7716 21.9988 6.0046 21.8102 6.19321 21.5772 6.19434Z"/><path d="M21.5772 6.19434 2.37305 6.19434C2.13844 6.19548 1.94732 6.00621 1.94618 5.7716 1.94505 5.53698 2.13431 5.34587 2.36893 5.34473 2.3703 5.34472 2.37168 5.34472 2.37305 5.34473L21.5772 5.34473C21.8118 5.34587 22.001 5.53698 21.9999 5.7716 21.9988 6.0046 21.8102 6.19321 21.5772 6.19434Z"/><circle cx="0.42468" cy="5.76986" r="0.42322"/></g></g></svg>