<svg viewBox="0 0 24.8281 21.498" xmlns="http://www.w3.org/2000/svg" xmlns:xlink="http://www.w3.org/1999/xlink" overflow="hidden"><g id="Layer_2"><g id="Layer_1-2"><path d="M17.48 14.9932C15.7832 14.9932 14.4077 13.6177 14.4077 11.9209 14.4077 10.2241 15.7832 8.84862 17.48 8.84862 19.1768 8.84862 20.5523 10.2241 20.5523 11.9209 20.5503 13.6168 19.176 14.9912 17.48 14.9931ZM17.48 9.69824C16.2525 9.69824 15.2573 10.6934 15.2573 11.9209 15.2573 13.1484 16.2525 14.1436 17.48 14.1436 18.7075 14.1436 19.7027 13.1484 19.7027 11.9209 19.7011 10.694 18.7069 9.69984 17.48 9.69824Z"/><path d="M17.48 17.4062C17.383 17.4063 17.289 17.3732 17.2134 17.3125 16.2846 16.4912 15.1089 16.0023 13.8716 15.9228 13.6605 15.9083 13.4923 15.7404 13.4776 15.5293 13.3979 14.2922 12.9092 13.1166 12.0884 12.1875 11.9634 12.0317 11.9634 11.8101 12.0884 11.6543 12.9092 10.7252 13.3979 9.54965 13.4776 8.3125 13.4923 8.10138 13.6605 7.93344 13.8716 7.91895 15.1088 7.839 16.2843 7.35016 17.2134 6.5293 17.3692 6.4043 17.5908 6.4043 17.7466 6.5293 18.6754 7.35024 19.8508 7.83911 21.0879 7.919 21.299 7.93349 21.4672 8.10143 21.4819 8.31255 21.5616 9.5497 22.0503 10.7253 22.871 11.6544 22.996 11.8101 22.996 12.0318 22.871 12.1876 22.0503 13.1166 21.5616 14.2922 21.4819 15.5294 21.4672 15.7405 21.299 15.9084 21.0879 15.9229 19.8507 16.0022 18.6751 16.4911 17.7466 17.3125 17.671 17.3733 17.5769 17.4063 17.48 17.4062ZM14.2915 15.1084C15.459 15.243 16.5645 15.7055 17.48 16.4424 18.3955 15.7058 19.5007 15.2433 20.668 15.1084 20.8026 13.9414 21.2648 12.8363 22.001 11.9209 21.2646 11.0056 20.8024 9.90045 20.668 8.7334 19.5008 8.59813 18.3957 8.13569 17.48 7.3994 16.5641 8.13562 15.4588 8.59805 14.2915 8.7334 14.157 9.90045 13.6949 11.0056 12.9585 11.9209 13.6947 12.8363 14.1569 13.9414 14.2915 15.1084Z"/><path d="M15.5073 21.4981C15.4639 21.4983 15.4208 21.4917 15.3794 21.4785L12.9927 20.7265C12.7687 20.6557 12.6445 20.4168 12.7153 20.1928 12.7179 20.1847 12.7207 20.1768 12.7237 20.1689L14.5132 15.497C14.5974 15.2778 14.8433 15.1682 15.0626 15.2524 15.2818 15.3365 15.3914 15.5825 15.3072 15.8017L13.6793 20.0517 15.2555 20.5478 16.7896 16.6005C16.8741 16.3816 17.1201 16.2725 17.3391 16.357 17.5581 16.4415 17.6672 16.6875 17.5827 16.9065 17.5823 16.9074 17.582 16.9083 17.5817 16.9091L15.9034 21.2275C15.8398 21.3907 15.6825 21.4982 15.5073 21.4981Z"/><path d="M19.4522 21.4981C19.277 21.4981 19.1198 21.3907 19.0562 21.2275L17.3779 16.9092C17.292 16.6908 17.3994 16.444 17.6178 16.3581 17.8362 16.2721 18.0829 16.3795 18.1689 16.5979 18.1692 16.5988 18.1696 16.5997 18.1699 16.6006L19.7041 20.5478 21.2803 20.0518 19.6523 15.8018C19.5682 15.5825 19.6777 15.3366 19.897 15.2524 20.1163 15.1683 20.3622 15.2778 20.4464 15.4971L22.2358 20.169C22.3198 20.3884 22.2101 20.6343 21.9907 20.7183 21.9828 20.7213 21.9749 20.7241 21.9668 20.7266L19.5801 21.4786C19.5387 21.4917 19.4956 21.4983 19.4522 21.498Z"/><path d="M24.4033 15.7207 23.375 15.7207C23.1404 15.7196 22.9511 15.5284 22.9523 15.2938 22.9534 15.0608 23.142 14.8722 23.375 14.8711L23.9785 14.8711 23.9785 0.84961 0.84961 0.84961 0.84961 14.8711 10.6592 14.8711C10.8938 14.8722 11.0831 15.0633 11.0819 15.298 11.0808 15.531 10.8922 15.7196 10.6592 15.7207L0.4248 15.7207C0.190195 15.7207 5.53145e-06 15.5305 8.53538e-09 15.2959 8.37844e-09 15.2959 8.37844e-09 15.2959 8.53538e-09 15.2959L0 0.4248C-0.000176798 0.190366 0.189726 0.000176806 0.42416 8.53538e-09 0.424373-1.5241e-07 0.424587-1.5241e-07 0.4248 8.53538e-09L24.4033 0C24.6378-0.000176798 24.8279 0.189726 24.8281 0.42416 24.8281 0.424373 24.8281 0.424587 24.8281 0.4248L24.8281 15.2959C24.8281 15.5305 24.6379 15.7207 24.4033 15.7207 24.4033 15.7207 24.4033 15.7207 24.4033 15.7207Z"/><path d="M21.3481 3.50684 3.52148 3.50684C3.28687 3.5057 3.0976 3.31459 3.09874 3.07997 3.09987 2.84697 3.28848 2.65836 3.52148 2.65723L21.3481 2.65723C21.5828 2.65609 21.7739 2.84536 21.775 3.07997 21.7761 3.31459 21.5869 3.5057 21.3523 3.50684 21.3509 3.50685 21.3495 3.50685 21.3481 3.50684Z"/><path d="M21.3481 5.48438 3.52148 5.48438C3.28687 5.48324 3.0976 5.29213 3.09874 5.05751 3.09987 4.82451 3.28848 4.6359 3.52148 4.63477L21.3481 4.63477C21.5828 4.63363 21.7739 4.8229 21.775 5.05751 21.7761 5.29213 21.5869 5.48324 21.3523 5.48438 21.3509 5.48439 21.3495 5.48439 21.3481 5.48438Z"/><path d="M9.17627 11.0996 3.62012 11.0996C3.38551 11.1007 3.19439 10.9115 3.19325 10.6769 3.19212 10.4423 3.38138 10.2511 3.616 10.25 3.61737 10.25 3.61875 10.25 3.62012 10.25L9.17627 10.25C9.41088 10.2511 9.60015 10.4423 9.59901 10.6769 9.59788 10.9099 9.40927 11.0985 9.17627 11.0996Z"/><circle cx="12.2177" cy="15.2961" r="0.425"/></g></g></svg>