<svg viewBox="0 0 24.4142 24.2213" xmlns="http://www.w3.org/2000/svg" xmlns:xlink="http://www.w3.org/1999/xlink" overflow="hidden"><defs></defs><g id="Layer_2"><g id="Layer_1-2"><path d="M2.68771 17.2667C2.68771 19.7281 4.68312 21.7236 7.14459 21.7236 9.60606 21.7236 11.6015 19.7281 11.6015 17.2667 11.6015 17.0205 11.4019 16.821 11.1558 16.821 10.9096 16.821 10.7101 17.0205 10.7101 17.2667 10.7084 19.2342 9.11204 20.8279 7.14449 20.8262 5.17693 20.8246 3.58325 19.2282 3.58491 17.2607 3.58657 15.2931 5.18294 13.6994 7.1505 13.7011 7.57226 13.7014 7.99061 13.7767 8.38607 13.9233 8.61661 14.0098 8.87358 13.8929 8.96002 13.6624 9.04646 13.4319 8.92964 13.1749 8.6991 13.0885 8.69836 13.0882 8.69762 13.0879 8.69688 13.0876 6.3874 12.2318 3.82141 13.4102 2.9656 15.7197 2.78213 16.2148 2.68804 16.7386 2.68772 17.2666Z"/><path d="M5.5886 16.5278C5.43406 16.3362 5.15342 16.3061 4.96178 16.4607 4.77116 16.6144 4.74022 16.8931 4.89248 17.0848L6.38048 18.9441C6.45027 19.0312 6.55013 19.089 6.6604 19.1061 6.67569 19.1084 6.69111 19.1099 6.70657 19.1107 6.83407 19.117 6.95814 19.0683 7.04727 18.9769L11.8696 14.0398C12.042 13.8642 12.0393 13.5821 11.8637 13.4097 11.6881 13.2373 11.406 13.2399 11.2336 13.4155 11.2331 13.4161 11.2326 13.4166 11.232 13.4172L6.76163 17.9938Z" stroke="#784099" stroke-width="0" stroke-miterlimit="10"/><path d="M15.2028 8.26422 3.00841 8.26422C2.7738 8.26308 2.58453 8.07197 2.58567 7.83735 2.5868 7.60435 2.7754 7.41574 3.00841 7.41461L15.2028 7.41461C15.4374 7.41575 15.6266 7.60686 15.6255 7.84148 15.6244 8.07448 15.4358 8.26309 15.2028 8.26422Z"/><path d="M15.2028 10.9844 3.00841 10.9844C2.7738 10.9833 2.58453 10.7922 2.58567 10.5576 2.5868 10.3246 2.7754 10.136 3.00841 10.1348L15.2028 10.1348C15.4374 10.136 15.6266 10.3271 15.6255 10.5617 15.6244 10.7947 15.4358 10.9833 15.2028 10.9844Z"/><path d="M17.6363 24.2213 0.858 24.2213C0.384554 24.2208 0.00077901 23.8373 8.99805e-05 23.3638L9e-05 5.04107C0.00122831 4.80646 0.192343 4.61719 0.426956 4.61833 0.659961 4.61946 0.84857 4.80806 0.8497 5.04107L0.8497 23.3638 17.6363 23.3716 17.6446 19.5406C17.6435 19.306 17.8328 19.1149 18.0674 19.1138 18.302 19.1126 18.4931 19.3019 18.4942 19.5365 18.4942 19.5379 18.4942 19.5393 18.4942 19.5406L18.4942 23.3639C18.4935 23.8373 18.1098 24.2208 17.6363 24.2213Z"/><path d="M18.0695 10.9712C17.835 10.9714 17.6448 10.7815 17.6446 10.5471 17.6446 10.5469 17.6446 10.5467 17.6446 10.5464L17.6446 0.85748 5.40929 0.84967C5.17468 0.848532 4.98541 0.657417 4.98655 0.422804 4.98768 0.189799 5.17628 0.0011905 5.40929 5.99945e-05L17.6363 6e-05C18.1098 0.000467543 18.4936 0.38403 18.4942 0.85748L18.4942 10.5465C18.4944 10.7809 18.3045 10.9711 18.0701 10.9713 18.0699 10.9713 18.0697 10.9713 18.0694 10.9713Z"/><path d="M5.40929 5.46588 0.42492 5.46588C0.190249 5.4659-3.78149e-06 5.27567-2.07742e-05 5.041-2.93505e-05 4.92256 0.0493973 4.80949 0.13634 4.72906L5.12072 0.11285C5.29287-0.0465339 5.56163-0.0361834 5.72102 0.135969 5.79378 0.214563 5.83417 0.317744 5.8341 0.42485L5.8341 5.04107C5.83428 5.27551 5.64437 5.4657 5.40993 5.46588 5.40972 5.46588 5.4095 5.46588 5.40929 5.46588ZM1.50939 4.61627 4.98449 4.61627 4.98449 1.39752Z"/><path d="M15.6139 20.0772C15.3793 20.0774 15.1889 19.8874 15.1888 19.6527 15.1887 19.5407 15.2328 19.4332 15.3116 19.3536L22.4293 12.1539C22.5943 11.9869 22.8635 11.9854 23.0304 12.1504 23.1973 12.3155 23.1988 12.5846 23.0338 12.7515L15.9161 19.9512C15.8363 20.032 15.7274 20.0774 15.6139 20.0772Z"/><path d="M14.3282 18.7916C14.0936 18.7917 13.9033 18.6017 13.9031 18.3671 13.903 18.2551 13.9472 18.1475 14.026 18.0679L21.2111 10.8067C21.3761 10.6398 21.6452 10.6382 21.8121 10.8033 21.979 10.9683 21.9806 11.2374 21.8155 11.4044L14.6305 18.6656C14.5506 18.7463 14.4418 18.7916 14.3282 18.7916Z"/><path d="M22.7316 12.8775C22.4969 12.8774 22.3068 12.6871 22.3069 12.4525 22.307 12.3399 22.3517 12.232 22.4313 12.1524L23.5236 11.0596 22.8429 10.379 21.8317 11.3819C21.6658 11.5477 21.3969 11.5477 21.2311 11.3819 21.0652 11.2161 21.0652 10.9472 21.2311 10.7813L22.2486 9.76373C22.3875 9.62217 22.5693 9.5305 22.7657 9.50299 22.9846 9.46975 23.2062 9.542 23.3634 9.69781L24.2189 10.5533C24.3459 10.6815 24.4163 10.8552 24.4142 11.0357 24.4099 11.2589 24.3177 11.4713 24.1578 11.627L23.0318 12.753C22.9524 12.8329 22.8443 12.8778 22.7316 12.8775Z"/><path d="M13.9596 20.4459C13.7246 20.4456 13.5343 20.2549 13.5346 20.0199 13.5346 19.9893 13.538 19.9587 13.5446 19.9288L13.9132 18.2745C13.9652 18.0455 14.1929 17.9019 14.4219 17.9539 14.6496 18.0055 14.793 18.231 14.7433 18.459L14.5197 19.461 15.5217 19.2374C15.7511 19.1874 15.9776 19.3329 16.0276 19.5623 16.0773 19.7904 15.9339 20.0158 15.7063 20.0675L14.052 20.4361C14.0216 20.4428 13.9906 20.446 13.9596 20.4459Z"/><path d="M22.7198 12.7627C22.6055 12.763 22.496 12.7171 22.4161 12.6353L21.2179 11.4112C21.0537 11.2435 21.0565 10.9743 21.2242 10.8101 21.392 10.6459 21.6611 10.6487 21.8253 10.8165L23.0236 12.0406C23.1878 12.2081 23.1851 12.4771 23.0175 12.6413 22.938 12.7192 22.8312 12.7628 22.7198 12.7628Z"/><circle cx="18.0473" cy="12.3005" r="0.46455" stroke="#784099" stroke-width="0" stroke-miterlimit="10"/></g></g></svg>