<svg viewBox="0 0 18.9476 24.5371" xmlns="http://www.w3.org/2000/svg" xmlns:xlink="http://www.w3.org/1999/xlink" overflow="hidden"><g id="Layer_2"><g id="Layer_1-2"><path d="M0.4422 8.26953C0.207595 8.26954 0.0174055 8.07936 0.0174 7.84475 0.0174 7.84474 0.0174 7.84474 0.0174 7.84473L0.0174 5.83887C0.0186126 4.88833 0.789017 4.11814 1.73956 4.11719L5.22 4.11719C5.45461 4.11605 5.64573 4.30532 5.64687 4.53993 5.648 4.77455 5.45874 4.96566 5.22412 4.9668 5.22275 4.96681 5.22137 4.96681 5.22 4.9668L1.73956 4.9668C1.2581 4.96741 0.867881 5.35741 0.867 5.83887L0.867 7.84473C0.867006 8.07934 0.676825 8.26952 0.44222 8.26953 0.442213 8.26953 0.442207 8.26953 0.4422 8.26953Z"/><path d="M18.5228 24.5371 0.4422 24.5371C0.207589 24.5371 0.0174 24.3469 0.0174 24.1123 0.0174 24.1123 0.0174 24.1123 0.0174 24.1123L0.0174 11.2109C0.0174 10.9763 0.207589 10.7861 0.4422 10.7861 0.676811 10.7861 0.867 10.9763 0.867 11.2109L0.867 23.6875 18.098 23.6875 18.098 5.93164C18.0973 5.39886 17.6654 4.96721 17.1327 4.9668L13.745 4.9668C13.5104 4.96566 13.3211 4.77455 13.3222 4.53993 13.3234 4.30693 13.512 4.11832 13.745 4.11719L17.1327 4.11719C18.1345 4.11794 18.9466 4.92978 18.9476 5.93164L18.9476 24.1123C18.9476 24.3469 18.7574 24.5371 18.5228 24.5371 18.5228 24.5371 18.5228 24.5371 18.5228 24.5371Z"/><path d="M12.8787 6.80469 6.08624 6.80469C5.39285 6.8226 4.81558 6.27632 4.79523 5.583L4.79523 4.5166C4.81603 3.82363 5.39319 3.2779 6.08623 3.2959L6.17364 3.2959C6.16778 3.22461 6.16533 3.1543 6.16533 3.08398 6.23398 1.31841 7.71635-0.0598629 9.48224 8.34656e-08 11.2482-0.0598833 12.7307 1.31834 12.7996 3.084 12.7996 3.15432 12.7972 3.22463 12.7913 3.29592L12.8787 3.29592C13.5718 3.27792 14.1489 3.82365 14.1697 4.51662L14.1697 5.583C14.1494 6.27632 13.5721 6.82258 12.8787 6.80469ZM6.08624 4.14551C5.86341 4.13084 5.66867 4.29456 5.64484 4.5166L5.64484 5.583C5.66854 5.80524 5.86319 5.96932 6.08624 5.95507L12.8787 5.95507C13.1018 5.96932 13.2964 5.80524 13.3201 5.583L13.3201 4.5166C13.2963 4.29456 13.1016 4.13084 12.8787 4.14551L12.2879 4.14551C12.0532 4.14546 11.8629 3.95513 11.863 3.72041 11.863 3.68359 11.8678 3.64692 11.8773 3.61133 11.9246 3.43952 11.949 3.26221 11.95 3.084 11.8808 1.78779 10.7789 0.790103 9.48224 0.84961 8.18572 0.790326 7.08411 1.78797 7.015 3.084 7.01597 3.26222 7.04043 3.43953 7.08776 3.61135 7.14806 3.83819 7.01305 4.07097 6.7862 4.13127 6.75061 4.14073 6.71394 4.14552 6.67711 4.14553Z"/><path d="M3.68878 13.9863C3.58218 13.9865 3.47945 13.9464 3.40118 13.874L2.59118 13.1299C2.41795 12.9717 2.40571 12.7031 2.56385 12.5299 2.72198 12.3567 2.99061 12.3444 3.16384 12.5026 3.16469 12.5033 3.16553 12.5041 3.16637 12.5049L3.68883 12.9844 6.00524 10.8545C6.17719 10.695 6.4459 10.705 6.60544 10.877 6.76497 11.0489 6.75491 11.3176 6.58296 11.4772 6.58212 11.4779 6.58128 11.4787 6.58043 11.4795L3.97638 13.874C3.89816 13.9465 3.7954 13.9866 3.68878 13.9863Z"/><path d="M3.68878 17.9326C3.58216 17.9329 3.4794 17.8928 3.40118 17.8203L2.59118 17.0752C2.41795 16.9171 2.40571 16.6484 2.56385 16.4752 2.72198 16.302 2.99061 16.2897 3.16384 16.4479 3.16469 16.4486 3.16553 16.4494 3.16637 16.4502L3.68883 16.9307 6.00524 14.8008C6.17719 14.6412 6.4459 14.6513 6.60544 14.8233 6.76497 14.9952 6.75491 15.2639 6.58296 15.4235 6.58212 15.4242 6.58128 15.425 6.58043 15.4258L3.97643 17.8203C3.8982 17.8928 3.79541 17.9329 3.68878 17.9326Z"/><path d="M3.68878 21.8789C3.58216 21.8792 3.4794 21.839 3.40118 21.7666L2.59118 21.0215C2.41795 20.8633 2.40571 20.5947 2.56385 20.4215 2.72198 20.2483 2.99061 20.236 3.16384 20.3942 3.16469 20.3949 3.16553 20.3957 3.16637 20.3965L3.68883 20.8769 6.00524 18.7461C6.17719 18.5866 6.4459 18.5966 6.60544 18.7686 6.76497 18.9405 6.75491 19.2092 6.58296 19.3688 6.58212 19.3695 6.58128 19.3703 6.58043 19.3711L3.97643 21.7666C3.8982 21.8391 3.79541 21.8792 3.68878 21.8789Z"/><path d="M15.8836 11.9873 8.535 11.9873C8.30039 11.9873 8.1102 11.7971 8.1102 11.5625 8.1102 11.3279 8.30039 11.1377 8.535 11.1377L15.8836 11.1377C16.1183 11.1377 16.3084 11.3279 16.3084 11.5625 16.3084 11.7971 16.1183 11.9873 15.8836 11.9873Z"/><path d="M15.8836 16.1738 8.535 16.1738C8.30039 16.1727 8.11112 15.9816 8.11226 15.747 8.11339 15.514 8.302 15.3253 8.535 15.3242L15.8836 15.3242C16.1183 15.3254 16.3075 15.5165 16.3064 15.7511 16.3053 15.9841 16.1166 16.1727 15.8836 16.1738Z"/><path d="M15.8836 20.5459 8.535 20.5459C8.30039 20.5448 8.11112 20.3536 8.11226 20.119 8.11339 19.886 8.302 19.6974 8.535 19.6963L15.8836 19.6963C16.1183 19.6974 16.3075 19.8885 16.3064 20.1232 16.3053 20.3562 16.1166 20.5448 15.8836 20.5459Z"/><circle cx="0.42501" cy="9.52838" r="0.425"/></g></g></svg>