<svg viewBox="0 0 26.1478 23.4508" xmlns="http://www.w3.org/2000/svg" xmlns:xlink="http://www.w3.org/1999/xlink" overflow="hidden"><defs></defs><g id="Layer_2"><g id="Layer_1-2"><path d="M3.2291 14.1557C3.2291 16.5399 5.1619 18.4727 7.54614 18.4727 9.93038 18.4727 11.8632 16.5399 11.8632 14.1557 11.8632 13.9172 11.6699 13.7239 11.4315 13.7239 11.193 13.7239 10.9997 13.9172 10.9997 14.1557 10.9981 16.0615 9.45184 17.6051 7.54604 17.6035 5.64024 17.6019 4.0966 16.0556 4.09822 14.1498 4.09985 12.244 5.64612 10.7003 7.55192 10.702 7.96043 10.7023 8.36563 10.7752 8.74866 10.9172 8.97208 11.0006 9.22083 10.8871 9.30425 10.6637 9.38768 10.4403 9.27419 10.1916 9.05077 10.1081 9.05041 10.108 9.05006 10.1079 9.04971 10.1077 6.81269 9.27878 4.32722 10.4202 3.49826 12.6572 3.32054 13.1368 3.2294 13.6442 3.2291 14.1557Z"/><path d="M6.039 13.44C5.89001 13.2538 5.61829 13.2236 5.4321 13.3726 5.2459 13.5216 5.21573 13.7933 5.36472 13.9795L6.806 15.7804C6.87359 15.8648 6.97032 15.9208 7.07713 15.9374 7.09196 15.9396 7.10688 15.9411 7.12186 15.9419 7.24536 15.948 7.36553 15.9008 7.45186 15.8123L12.1229 11.0301C12.2894 10.8595 12.2862 10.5863 12.1156 10.4197 11.9451 10.2532 11.6719 10.2564 11.5053 10.427L7.17519 14.86Z"/><path d="M16.8856 3.7945C15.9319 3.7945 15.1588 4.56762 15.1588 5.52132 15.1588 6.47502 15.9319 7.24814 16.8856 7.24814 17.8393 7.24814 18.6124 6.47502 18.6124 5.52132 18.6114 4.56807 17.8389 3.79558 16.8856 3.7945ZM16.8856 6.3847C16.4088 6.38468 16.0222 5.99811 16.0222 5.52126 16.0223 5.04441 16.4088 4.65786 16.8857 4.65788 17.3625 4.6579 17.7491 5.04447 17.7491 5.52132 17.7486 5.99798 17.3623 6.38425 16.8856 6.3847Z"/><path d="M16.8856 9.83833C15.9319 9.83831 15.1588 10.6114 15.1587 11.5652 15.1587 12.5189 15.9318 13.292 16.8856 13.292 17.8393 13.292 18.6124 12.5189 18.6124 11.5652 18.6124 11.5652 18.6124 11.5652 18.6124 11.5652 18.6114 10.6119 17.8389 9.83941 16.8856 9.83833ZM16.8856 12.4286C16.4088 12.4286 16.0222 12.042 16.0222 11.5652 16.0223 11.0883 16.4088 10.7018 16.8857 10.7018 17.3625 10.7018 17.749 11.0883 17.7491 11.5652 17.7486 12.0418 17.3623 12.4281 16.8856 12.4286Z"/><path d="M16.8856 15.8822C15.9319 15.8822 15.1588 16.6554 15.1588 17.6091 15.1588 18.5627 15.9319 19.3359 16.8856 19.3359 17.8393 19.3359 18.6124 18.5627 18.6124 17.6091 18.6124 17.609 18.6124 17.609 18.6124 17.609 18.6113 16.6558 17.8389 15.8833 16.8856 15.8822ZM16.8856 18.4725C16.4088 18.4725 16.0222 18.0859 16.0222 17.609 16.0223 17.1322 16.4088 16.7456 16.8857 16.7457 17.3625 16.7457 17.749 17.1322 17.7491 17.609 17.7486 18.0857 17.3623 18.472 16.8856 18.4725Z"/><path d="M25.716 6.3847 20.771 6.3847C20.5326 6.3847 20.3393 6.57799 20.3393 6.81642 20.3393 7.05485 20.5326 7.24814 20.771 7.24814L25.716 7.24814C25.9544 7.24814 26.1477 7.05485 26.1477 6.81642 26.1477 6.57799 25.9544 6.3847 25.716 6.3847Z"/><path d="M20.771 5.08957 25.716 5.08957C25.9544 5.08957 26.1477 4.8963 26.1477 4.65788 26.1477 4.41946 25.9544 4.22619 25.716 4.22619L20.771 4.22619C20.5326 4.22619 20.3393 4.41946 20.3393 4.65788 20.3393 4.8963 20.5326 5.08957 20.771 5.08957Z"/><path d="M25.716 12.4286 20.771 12.4286C20.5326 12.4286 20.3393 12.6219 20.3393 12.8603 20.3393 13.0987 20.5326 13.292 20.771 13.292L25.716 13.292C25.9544 13.292 26.1477 13.0987 26.1477 12.8603 26.1477 12.6219 25.9544 12.4286 25.716 12.4286Z"/><path d="M25.716 10.2701 20.771 10.2701C20.5326 10.2701 20.3393 10.4634 20.3393 10.7018 20.3393 10.9402 20.5326 11.1335 20.771 11.1335L25.716 11.1335C25.9544 11.1335 26.1477 10.9402 26.1477 10.7018 26.1477 10.4634 25.9544 10.2701 25.716 10.2701Z"/><path d="M25.716 18.4725 20.771 18.4725C20.5326 18.4725 20.3393 18.6658 20.3393 18.9042 20.3393 19.1426 20.5326 19.3359 20.771 19.3359L25.716 19.3359C25.9544 19.3359 26.1477 19.1426 26.1477 18.9042 26.1477 18.6658 25.9544 18.4725 25.716 18.4725Z"/><path d="M25.716 16.3139 20.771 16.3139C20.5326 16.3139 20.3393 16.5072 20.3393 16.7456 20.3393 16.9841 20.5326 17.1774 20.771 17.1774L25.716 17.1773C25.9544 17.1773 26.1477 16.9841 26.1477 16.7456 26.1477 16.5072 25.9544 16.3139 25.716 16.3139Z"/><path d="M16.9519 23.4508 0.42506 23.4508C0.190461 23.4508 0.000272094 23.2606 0.000250004 23.026L0.00025 6.51423C0.00138831 6.27962 0.192503 6.09035 0.427116 6.09149 0.660121 6.09262 0.848729 6.28122 0.84986 6.51423L0.84986 22.6012 16.5271 22.6012 16.5271 20.4019C16.526 20.1673 16.7152 19.9762 16.9499 19.9751 17.1845 19.9739 17.3756 20.1632 17.3767 20.3978 17.3767 20.3992 17.3767 20.4006 17.3767 20.4019L17.3767 23.0259C17.3767 23.2605 17.1866 23.4507 16.952 23.4508 16.9519 23.4508 16.9519 23.4508 16.9519 23.4508Z"/><path d="M6.91627 6.939 4.74537 6.939C4.51076 6.94014 4.31964 6.75087 4.3185 6.51626 4.31737 6.28164 4.50663 6.09053 4.74125 6.08939 4.74262 6.08938 4.744 6.08938 4.74537 6.08939L6.48951 6.08939 6.468 0.42732C6.46664 0.192995 6.65549 0.00193118 6.88981 0.000566842 6.89082 0.000560986 6.89182 0.000558706 6.89283 0.000560004L16.9519 0.00056C17.1865 0.000554477 17.3767 0.190739 17.3767 0.42535 17.3767 0.425357 17.3767 0.425363 17.3767 0.42537L17.3767 2.66755C17.3779 2.90216 17.1886 3.09328 16.954 3.09442 16.7194 3.09555 16.5282 2.90629 16.5271 2.67167 16.5271 2.6703 16.5271 2.66892 16.5271 2.66755L16.5271 0.85017 7.31959 0.85017 7.34107 6.51228C7.34244 6.7466 7.1536 6.93766 6.91928 6.93903 6.91828 6.93904 6.91727 6.93904 6.91627 6.93904Z"/><circle cx="2.85915" cy="6.52235" r="0.425"/><path d="M0.42506 6.939C0.190339 6.93907 6.96557e-06 6.74884-5.8481e-05 6.51412-9.11521e-05 6.39695 0.0482534 6.28496 0.13355 6.20462L6.60132 0.1158C6.77323-0.0441887 7.04229-0.034521 7.20228 0.137394 7.36095 0.307885 7.35294 0.574288 7.18432 0.73494L0.71656 6.8238C0.637661 6.898 0.53337 6.93922 0.42506 6.939Z"/></g></g></svg>