<svg viewBox="0 0 23.3164 25.0088" xmlns="http://www.w3.org/2000/svg" xmlns:xlink="http://www.w3.org/1999/xlink" overflow="hidden"><defs></defs><g id="Layer_2"><g id="Layer_1-2"><path d="M11.8506 25.0088C10.3698 25.0088 9.16943 23.8084 9.16942 22.3276 9.16941 20.8469 10.3698 19.6465 11.8506 19.6465 13.3313 19.6465 14.5317 20.8469 14.5317 22.3276 14.5317 22.3278 14.5317 22.328 14.5317 22.3281 14.5301 23.8081 13.3306 25.0074 11.8506 25.0088ZM11.8506 20.4961C10.8391 20.4961 10.019 21.3161 10.019 22.3276 10.019 23.3392 10.839 24.1592 11.8506 24.1592 12.8619 24.1592 13.6819 23.3395 13.6821 22.3281 13.6809 21.317 12.8617 20.4976 11.8506 20.4961Z"/><path d="M11.8506 20.4961C11.616 20.4961 11.4258 20.3059 11.4258 20.0713 11.4258 20.0713 11.4258 20.0713 11.4258 20.0713L11.4258 14.3779C11.4246 14.1433 11.6139 13.9522 11.8485 13.9511 12.0831 13.9499 12.2743 14.1392 12.2754 14.3738 12.2754 14.3752 12.2754 14.3766 12.2754 14.3779L12.2754 20.0713C12.2754 20.3059 12.0852 20.4961 11.8506 20.4961 11.8506 20.4961 11.8506 20.4961 11.8506 20.4961Z"/><path d="M9.59424 22.7529 1.92188 22.7529C1.68727 22.7541 1.49615 22.5648 1.49501 22.3302 1.49388 22.0956 1.68314 21.9045 1.91776 21.9033 1.91913 21.9033 1.92051 21.9033 1.92188 21.9033L9.59424 21.9033C9.82885 21.9045 10.0181 22.0956 10.017 22.3302 10.0159 22.5632 9.82724 22.7518 9.59424 22.7529Z"/><path d="M21.7793 22.7529 14.1069 22.7529C13.8723 22.7518 13.683 22.5607 13.6842 22.3261 13.6853 22.0931 13.8739 21.9044 14.1069 21.9033L21.7793 21.9033C22.0139 21.9045 22.2032 22.0956 22.202 22.3302 22.2009 22.5632 22.0123 22.7518 21.7793 22.7529Z"/><path d="M20.1548 14.5352 3.16211 14.5352C1.42008 14.5395 0.00436793 13.1308 2.33597e-05 11.3888-0.00358469 9.9421 0.977442 8.67841 2.37988 8.32324 2.37305 8.22656 2.36963 8.12988 2.36963 8.03224 2.3285 7.02317 2.64785 6.03241 3.27051 5.2373 3.41505 5.05231 3.6822 5.01952 3.86719 5.16406 4.05218 5.3086 4.08497 5.57575 3.94043 5.76074 3.43476 6.40657 3.17872 7.21299 3.21924 8.03223 3.22095 8.22452 3.23661 8.41643 3.26611 8.60645 3.30047 8.83808 3.14054 9.05371 2.90891 9.08807 2.90445 9.08873 2.89999 9.08932 2.89551 9.08984 1.63047 9.23299 0.721003 10.3745 0.864151 11.6396 0.99634 12.8078 1.98647 13.6893 3.16211 13.6856L20.1548 13.6855C21.4301 13.6871 22.4652 12.6546 22.4668 11.3793 22.4678 10.6031 22.0787 9.87829 21.4312 9.4502 21.2701 9.34271 21.2022 9.13981 21.2661 8.95703 21.9357 7.05861 20.9395 4.97684 19.0411 4.30727 18.7216 4.19459 18.388 4.127 18.0498 4.10645 17.892 4.09662 17.7528 3.99989 17.6885 3.85545 16.5612 1.30621 13.5808 0.153468 11.0316 1.28072 9.85936 1.79908 8.92825 2.74404 8.42725 3.92381 8.34625 4.10778 8.14924 4.21175 7.95166 4.17481 7.47609 4.07923 6.98725 4.06964 6.5083 4.14648 6.27709 4.18529 6.0582 4.02933 6.01939 3.79812 5.98058 3.56692 6.13655 3.34803 6.36775 3.30921 6.36903 3.309 6.3703 3.30879 6.37158 3.30859 6.83926 3.23179 7.31567 3.2239 7.78564 3.28516 9.22817 0.365173 12.7647-0.832541 15.6847 0.60999 16.845 1.18321 17.7845 2.12222 18.3584 3.28223 20.6185 3.55988 22.3182 5.47687 22.3232 7.75391 22.323 8.15321 22.2689 8.55066 22.1626 8.93555 23.5107 10.0428 23.7058 12.0333 22.5986 13.3813 21.9979 14.1126 21.1011 14.536 20.1548 14.5352Z"/><circle cx="4.7453" cy="4.32731" r="0.42322" stroke="#784099" stroke-width="0" stroke-miterlimit="10"/></g></g></svg>