<svg viewBox="0 0 27.1152 24.1361" xmlns="http://www.w3.org/2000/svg" xmlns:xlink="http://www.w3.org/1999/xlink" overflow="hidden"><defs></defs><g id="Layer_2"><g id="Layer_1-2"><path d="M10.9687 24.1361 10.9443 24.1351C9.65688 24.0622 8.38949 23.7832 7.19039 23.309 7.0159 23.2397 6.90726 23.0645 6.92281 22.8774L7.1357 20.4067C6.18183 19.8933 5.32383 19.219 4.59957 18.4135L2.249 19.2084C2.07133 19.2687 1.87514 19.2051 1.76657 19.0521 1.01927 18.0003 0.446176 16.835 0.0693001 15.6009 0.0144225 15.4215 0.0839197 15.2273 0.2402 15.1234L2.30563 13.7484C2.11218 12.6826 2.10359 11.5915 2.28024 10.5228L0.19527 9.181C0.0372228 9.07932-0.0354165 8.88601 0.01656 8.70541 0.373389 7.4661 0.926639 6.29202 1.65524 5.22789 1.7611 5.07246 1.95688 5.0056 2.1357 5.06383L3.10543 5.37536C3.32872 5.44709 3.45158 5.68625 3.37984 5.90953 3.30811 6.13282 3.06896 6.25568 2.84567 6.18395L2.1816 5.97106C1.64656 6.80126 1.22394 7.69873 0.92477 8.64L2.97848 9.96129C3.12502 10.0556 3.1993 10.2297 3.16598 10.4008 2.94113 11.5427 2.95043 12.7185 3.19332 13.8568 3.22963 14.027 3.15794 14.2022 3.01266 14.2982L0.97848 15.6527C1.29341 16.589 1.7315 17.4793 2.28121 18.3002L4.59664 17.5179C4.7615 17.4617 4.94396 17.5121 5.05664 17.6449 5.80741 18.5341 6.73191 19.2605 7.77344 19.7797 7.92966 19.857 8.02264 20.022 8.00781 20.1957L7.79781 22.6303C8.72608 22.9673 9.69469 23.1808 10.6787 23.265L11.5107 20.9662C11.5699 20.8023 11.7232 20.6912 11.8974 20.6859 13.0611 20.6529 14.2059 20.3828 15.2616 19.892 15.4199 19.8188 15.6067 19.8493 15.7333 19.9691L17.5048 21.6508C17.9253 21.3929 18.3285 21.1078 18.7118 20.7973 19.0946 20.4861 19.457 20.1508 19.7968 19.7933L18.5195 17.7123C18.3965 17.5122 18.459 17.2503 18.6591 17.1273 18.8592 17.0044 19.1211 17.0669 19.2441 17.267L20.6894 19.6224C20.7876 19.783 20.769 19.989 20.6435 20.1293 19.7828 21.0891 18.7747 21.9056 17.6572 22.5483 17.494 22.6413 17.2893 22.6172 17.1523 22.4887L15.3534 20.7817C14.3573 21.2084 13.2947 21.4592 12.2128 21.5229L11.3681 23.8559C11.3073 24.0241 11.1476 24.1362 10.9687 24.1361Z"/><path d="M18.7929 6.95055C18.7166 6.95089 18.6416 6.93029 18.5761 6.89098 18.3746 6.77195 18.3077 6.51209 18.4268 6.31056 18.4271 6.31003 18.4274 6.30951 18.4277 6.30898L19.6728 4.20644C18.984 3.49819 18.2041 2.88474 17.3535 2.38222L15.6064 4.09313C15.4821 4.21509 15.2959 4.24879 15.1367 4.17813 14.0734 3.70409 12.9248 3.45124 11.7607 3.43497 11.5865 3.43217 11.4317 3.32342 11.3701 3.16055L10.5039 0.87731C9.52077 0.974753 8.55497 1.20233 7.6318 1.55407L7.8798 3.98375C7.89735 4.1569 7.80759 4.32327 7.65324 4.40368 7.19998 4.62057 6.77358 4.88964 6.38273 5.20543L6.20793 5.35094C6.0287 5.50221 5.76079 5.47954 5.60952 5.30032 5.45925 5.12226 5.4805 4.85638 5.65715 4.70446L5.84465 4.54723C6.20405 4.2537 6.59284 3.99811 7.0048 3.78454L6.7538 1.32067C6.73497 1.13381 6.841 0.956744 7.01461 0.88512 8.2066 0.39209 9.47013 0.0940129 10.7568 0.00231003 10.9446-0.012941 11.1195 0.0988907 11.1845 0.27575L12.0644 2.59411C13.1466 2.64242 14.2123 2.87697 15.2148 3.28746L16.9892 1.55016C17.1237 1.41953 17.3277 1.39181 17.4921 1.4818 18.6207 2.10671 19.6413 2.90933 20.5146 3.8588 20.6416 3.99705 20.663 4.20218 20.5673 4.36369L19.1582 6.74259C19.0818 6.87162 18.9429 6.95069 18.7929 6.95055Z"/><path d="M11.541 18.3275C8.02074 18.3276 5.16693 15.4739 5.16685 11.9536 5.16677 8.43338 8.02045 5.57958 11.5407 5.5795 13.3506 5.57946 15.0751 6.34883 16.2841 7.69567 16.4406 7.87082 16.4255 8.13967 16.2504 8.29617 16.0759 8.4521 15.8082 8.43774 15.6513 8.26403 13.6131 5.99443 10.121 5.80686 7.85137 7.84507 5.58177 9.88328 5.3942 13.3754 7.43241 15.645 9.47062 17.9146 12.9628 18.1022 15.2324 16.064 15.4317 15.885 15.6177 15.6917 15.789 15.4857 15.939 15.3056 16.2066 15.2811 16.3867 15.431 16.5668 15.581 16.5913 15.8486 16.4414 16.0287 15.2319 17.4867 13.4353 18.3294 11.541 18.3275Z"/><path d="M20.4101 12.2465 18.2431 12.2465C18.0085 12.2476 17.8174 12.0583 17.8163 11.8237 17.8151 11.5891 18.0044 11.398 18.239 11.3968 18.2404 11.3968 18.2417 11.3968 18.2431 11.3968L19.9853 11.3968 19.9853 6.7445C19.9855 6.50995 20.1756 6.31986 20.4101 6.31969L22.6337 6.31969C22.8684 6.31855 23.0595 6.50782 23.0606 6.74243 23.0617 6.97705 22.8725 7.16816 22.6379 7.1693 22.6365 7.16931 22.6351 7.16931 22.6337 7.1693L20.8349 7.1693 20.8349 11.8216C20.8348 12.0562 20.6447 12.2463 20.4101 12.2465Z"/><path d="M22.6338 17.3275 20.4101 17.3275C20.1756 17.3273 19.9855 17.1372 19.9853 16.9027L19.9853 11.8216C19.9864 11.587 20.1776 11.3978 20.4122 11.3989 20.6452 11.4 20.8338 11.5886 20.8349 11.8216L20.8349 16.4779 22.6338 16.4779C22.8684 16.4768 23.0595 16.666 23.0606 16.9006 23.0618 17.1352 22.8725 17.3264 22.6379 17.3275 22.6365 17.3275 22.6351 17.3275 22.6338 17.3275Z"/><path d="M16.0693 14.2367C14.7358 14.2364 13.655 13.1552 13.6552 11.8217 13.6554 10.4882 14.7367 9.40733 16.0702 9.40758 17.4034 9.40783 18.4841 10.4885 18.4843 11.8217 18.483 13.1549 17.4025 14.2354 16.0693 14.2367ZM16.0693 10.2572C15.205 10.2575 14.5046 10.9583 14.5048 11.8226 14.5051 12.6869 15.206 13.3873 16.0703 13.3871 16.9346 13.3868 17.635 12.6859 17.6347 11.8216 17.6334 10.9578 16.9332 10.258 16.0693 10.2572Z"/><path d="M24.7011 14.2367C23.3676 14.2369 22.2864 13.1561 22.2861 11.8226 22.2858 10.4891 23.3667 9.40785 24.7002 9.40758 26.0337 9.40732 27.1149 10.4881 27.1152 11.8217 27.1152 11.8217 27.1152 11.8217 27.1152 11.8217 27.1139 13.1546 26.034 14.2349 24.7011 14.2367ZM24.7011 10.2572C23.8368 10.2569 23.136 10.9574 23.1357 11.8216 23.1354 12.6859 23.8359 13.3868 24.7002 13.3871 25.5645 13.3873 26.2653 12.6869 26.2656 11.8226 26.2656 11.8223 26.2656 11.822 26.2656 11.8216 26.2643 10.9582 25.5646 10.2585 24.7011 10.2572Z"/><path d="M24.623 19.3177C23.2895 19.3175 22.2087 18.2363 22.2089 16.9027 22.2091 15.5692 23.2904 14.4884 24.6239 14.4886 25.9571 14.4889 27.0378 15.5696 27.038 16.9027 27.0369 18.236 25.9563 19.3166 24.623 19.3177ZM24.623 15.3383C23.7587 15.3385 23.0583 16.0394 23.0585 16.9037 23.0588 17.768 23.7597 18.4684 24.624 18.4681 25.4883 18.4679 26.1887 17.767 26.1884 16.9027 26.1872 16.0388 25.4869 15.3389 24.623 15.3383Z"/><path d="M24.623 9.15954C23.2895 9.1593 22.2086 8.07806 22.2089 6.74454 22.2091 5.41102 23.2904 4.33018 24.6239 4.33042 25.9571 4.33066 27.0378 5.41136 27.038 6.74454 27.0369 8.07783 25.9563 9.15839 24.623 9.15954ZM24.623 5.18004C23.7587 5.18031 23.0583 5.88118 23.0585 6.74548 23.0588 7.60978 23.7597 8.31021 24.624 8.30994 25.4883 8.30967 26.1887 7.6088 26.1884 6.7445 26.1872 5.88058 25.4869 5.18067 24.623 5.18Z"/><path d="M22.58 12.2465 20.4101 12.2465C20.1755 12.2476 19.9844 12.0583 19.9833 11.8237 19.9821 11.5891 20.1714 11.398 20.406 11.3968 20.4074 11.3968 20.4087 11.3968 20.4101 11.3968L22.58 11.3968C22.8146 11.398 23.0039 11.5891 23.0027 11.8237 23.0016 12.0567 22.813 12.2453 22.58 12.2465Z"/><circle cx="4.62977" cy="6.22048" r="0.47011"/></g></g></svg>