<svg viewBox="0 0 28.4562 23.6484" xmlns="http://www.w3.org/2000/svg" xmlns:xlink="http://www.w3.org/1999/xlink" overflow="hidden"><g id="Layer_2"><g id="Layer_1-2"><path d="M15.7044 17.9394C14.2627 17.9394 13.0941 16.7708 13.0941 15.3291 13.0941 13.8874 14.2627 12.7188 15.7044 12.7188 17.1461 12.7188 18.3148 13.8874 18.3148 15.3291 18.3131 16.7701 17.1454 17.9378 15.7044 17.9394ZM15.7044 13.5684C14.732 13.5684 13.9437 14.3567 13.9437 15.3291 13.9437 16.3015 14.732 17.0898 15.7044 17.0898 16.6768 17.0898 17.4651 16.3015 17.4651 15.3291 17.4639 14.3572 16.6763 13.5696 15.7044 13.5684Z"/><path d="M16.4095 23.6484 13.2078 23.6484C12.3486 23.6475 11.6524 22.951 11.6517 22.0918L11.6517 20.4522C11.6562 19.2414 12.5017 18.1965 13.6849 17.9395 13.8055 17.915 13.9309 17.9431 14.0296 18.0166 15.0192 18.7686 16.3887 18.7686 17.3782 18.0166 17.477 17.9427 17.6026 17.9146 17.7234 17.9395 18.9066 18.1965 19.7521 19.2414 19.7566 20.4522L19.7567 21.6963C19.7555 21.9309 19.5644 22.1202 19.3298 22.119 19.0968 22.1179 18.9082 21.9293 18.907 21.6963L18.907 20.4522C18.9039 19.7086 18.4257 19.0503 17.7195 18.8174 16.5 19.6338 14.9083 19.6338 13.6888 18.8174 12.9826 19.0503 12.5044 19.7086 12.5013 20.4522L12.5013 22.0918C12.5016 22.4819 12.8177 22.7982 13.2078 22.7988L16.4095 22.7988C16.6441 22.7999 16.8334 22.9911 16.8322 23.2257 16.8311 23.4587 16.6425 23.6473 16.4095 23.6484Z"/><path d="M26.0354 22.0801 21.1067 22.0801C20.8721 22.0803 20.6818 21.8904 20.6815 21.6558 20.6815 21.5942 20.6948 21.5334 20.7205 21.4775L22.7161 17.1338C22.7857 16.9832 22.9364 16.8867 23.1024 16.8867L28.0311 16.8867C28.2657 16.8865 28.456 17.0764 28.4563 17.311 28.4563 17.3726 28.443 17.4334 28.4173 17.4893L26.4217 21.833C26.3521 21.9836 26.2014 22.0801 26.0354 22.0801ZM21.7698 21.2305 25.763 21.2305 27.368 17.7363 23.3748 17.7363Z"/><path d="M25.1966 23.5791 17.9051 23.5791C17.6705 23.578 17.4812 23.3868 17.4823 23.1522 17.4835 22.9192 17.6721 22.7306 17.9051 22.7295L25.1966 22.7295C25.4312 22.7306 25.6205 22.9217 25.6193 23.1564 25.6182 23.3894 25.4296 23.578 25.1966 23.5791Z"/><path d="M10.596 4.57227C9.3334 4.57228 8.30986 3.54874 8.30985 2.28614 8.30984 1.02354 9.33338-4.51207e-06 10.596-1.00349e-05 11.8586-1.55578e-05 12.8821 1.02352 12.8821 2.28612 12.8809 3.5482 11.8581 4.571 10.596 4.57226ZM10.596 0.84961C9.80263 0.849604 9.15946 1.49276 9.15946 2.28613 9.15945 3.0795 9.80261 3.72266 10.596 3.72267 11.3894 3.72268 12.0325 3.07952 12.0325 2.28615 12.0325 2.28614 12.0325 2.28614 12.0325 2.28613 12.0316 1.49314 11.389 0.850524 10.596 0.84961Z"/><path d="M12.722 9.43359 10.0267 9.43359C9.79205 9.43245 9.60278 9.24134 9.60392 9.00672 9.60505 8.77372 9.79366 8.58511 10.0267 8.58398L12.722 8.58398C13.0194 8.58335 13.2602 8.34229 13.2606 8.04492L13.2606 6.64844C13.258 6.05367 12.8823 5.52456 12.3216 5.32617 11.2741 6.01367 9.91838 6.01367 8.87088 5.32617 8.31017 5.52456 7.93443 6.05367 7.93188 6.64844L7.93188 7.66309C7.93074 7.8977 7.73963 8.08697 7.50501 8.08583 7.27201 8.0847 7.0834 7.8961 7.08227 7.66309L7.08227 6.64844C7.08626 5.58773 7.82703 4.67237 8.86358 4.44727 8.98438 4.42287 9.10986 4.45091 9.20879 4.52441 10.0295 5.1455 11.163 5.1455 11.9837 4.52441 12.0824 4.45052 12.2081 4.42244 12.3289 4.44727 13.3654 4.6724 14.1062 5.58775 14.1102 6.64844L14.1102 8.04492C14.1095 8.81137 13.4885 9.43261 12.722 9.43359Z"/><path d="M6.17315 8.10352 2.12432 8.10352C1.95842 8.10351 1.80765 8.00706 1.73809 7.85645L0.03887 4.15723C-0.0593098 3.94417 0.03382 3.69186 0.246881 3.59368 0.302763 3.56793 0.363571 3.55462 0.4251 3.55469L4.47344 3.55469C4.63934 3.5547 4.79011 3.65114 4.85967 3.80176L6.55938 7.501C6.65755 7.71407 6.56441 7.96638 6.35134 8.06456 6.29547 8.0903 6.23467 8.1036 6.17315 8.10354ZM2.39678 7.25391 5.51006 7.25391 4.201 4.4043 1.08819 4.4043Z"/><path d="M8.722 9.375 2.66143 9.375C2.42682 9.37386 2.23755 9.18275 2.23869 8.94813 2.23982 8.71513 2.42842 8.52652 2.66143 8.52539L8.722 8.52539C8.95661 8.52653 9.14588 8.71764 9.14474 8.95226 9.14361 9.18526 8.955 9.37387 8.722 9.375Z"/><path d="M24.615 15.7539C24.3811 15.7541 24.191 15.565 24.1902 15.331L24.1443 6.60449C24.1448 6.35964 23.9468 6.16071 23.702 6.16016 23.7019 6.16016 23.7019 6.16016 23.7019 6.16016L17.5242 6.16016C17.2896 6.15902 17.1003 5.96791 17.1015 5.73329 17.1026 5.50029 17.2912 5.31168 17.5242 5.31055L23.702 5.31055C24.4153 5.31118 24.9934 5.88926 24.994 6.60255L25.0399 15.3272C25.0412 15.5615 24.8523 15.7526 24.6179 15.7539 24.6178 15.7539 24.6177 15.7539 24.6175 15.7539Z"/><path d="M10.2181 21.1397 5.00665 21.1397C4.30125 21.1391 3.7294 20.5677 3.72833 19.8623L3.72833 11.0957C3.72833 10.8611 3.91852 10.6709 4.15313 10.6709 4.38774 10.6709 4.57793 10.8611 4.57793 11.0957L4.57793 19.8623C4.57867 20.0986 4.77034 20.2898 5.00665 20.29L10.2181 20.29C10.4527 20.2889 10.6438 20.4782 10.6449 20.7128 10.6461 20.9474 10.4568 21.1385 10.2222 21.1397 10.2208 21.1397 10.2194 21.1397 10.2181 21.1397Z"/><circle cx="15.9593" cy="5.74034" r="0.425"/></g></g></svg>