<svg viewBox="0 0 25.7266 23.5186" xmlns="http://www.w3.org/2000/svg" xmlns:xlink="http://www.w3.org/1999/xlink" overflow="hidden"><defs></defs><g id="Layer_2"><g id="Layer_1-2"><path d="M1.73026 9.90039C1.49499 9.90007 1.30452 9.70908 1.30485 9.4738 1.30488 9.44571 1.3077 9.41768 1.31326 9.39014 1.48081 8.57237 1.73535 7.77486 2.07254 7.01123 2.22049 6.67627 2.38325 6.34994 2.56082 6.03223 3.57281 4.22307 5.04267 2.71178 6.823 1.6499L7.02857 1.53076C7.23298 1.41555 7.49209 1.48785 7.6073 1.69226 7.72213 1.89599 7.65073 2.15421 7.44755 2.27L7.26005 2.37937C5.60684 3.3645 4.24209 4.76748 3.303 6.44727 3.13844 6.74121 2.9874 7.04378 2.84987 7.35498 2.53707 8.0627 2.30118 8.80196 2.14626 9.56006 2.10586 9.75781 1.93209 9.89997 1.73026 9.90039Z"/><path d="M24.1214 11.1514C23.9017 11.151 23.7184 10.9834 23.6985 10.7647 23.2123 5.13422 18.4851 0.820188 12.8338 0.84961 12.1096 0.849545 11.3872 0.920853 10.677 1.0625L10.5217 1.09521C10.2928 1.14645 10.0656 1.00238 10.0144 0.773435 9.96317 0.544485 10.1072 0.317348 10.3362 0.26611L10.4939 0.23242C11.2643 0.0779922 12.0481 0.000139898 12.8338-2.54631e-09 18.9257-0.0315923 24.0214 4.61901 24.5452 10.6885 24.5661 10.9223 24.3937 11.1288 24.1599 11.1499Z"/><path d="M12.8338 23.5186C6.79305 23.5388 1.72698 18.9633 1.13407 12.9517 1.10836 12.7184 1.27665 12.5084 1.50996 12.4827 1.74326 12.4569 1.95324 12.6252 1.97895 12.8585 1.97925 12.8612 1.97952 12.864 1.97977 12.8667 2.5913 18.8618 7.94702 23.226 13.9421 22.6145 18.509 22.1486 22.2959 18.8742 23.4163 14.4224 23.4741 14.1949 23.7054 14.0574 23.9328 14.1153 24.1593 14.1729 24.2968 14.4025 24.2405 14.6294 22.9267 19.8577 18.2246 23.5219 12.8338 23.5185Z"/><path d="M11.9705 19.0635C11.9561 19.0635 11.9418 19.0629 11.9275 19.0615 11.1609 18.9831 10.4118 18.783 9.70826 18.4687 9.53671 18.392 9.43589 18.2117 9.46026 18.0254L9.63262 16.706C9.14651 16.4025 8.70953 16.0266 8.33673 15.5913L7.05792 15.9614C6.87768 16.0137 6.68449 15.9414 6.58282 15.7836 6.16402 15.1364 5.85241 14.4258 5.66 13.6792 5.61324 13.4974 5.69124 13.3065 5.85189 13.2095L6.99203 12.5215C6.92638 11.9519 6.94728 11.3757 7.05403 10.8125L5.96757 10.044C5.81421 9.93542 5.75028 9.73905 5.81034 9.561 6.05607 8.83039 6.41743 8.14394 6.88065 7.52783 6.99356 7.37758 7.19179 7.31939 7.368 7.38477L8.616 7.84668C9.02117 7.44077 9.4848 7.09778 9.99149 6.8291L9.91532 5.501C9.90463 5.31355 10.0182 5.14129 10.1946 5.07717 10.9194 4.81417 11.6817 4.66942 12.4524 4.64846 12.6388 4.64808 12.8052 4.76502 12.868 4.94046L13.2845 6.20413C13.8543 6.26656 14.4115 6.41506 14.9368 6.64456L15.928 5.75589C16.0677 5.63026 16.2734 5.61157 16.4334 5.70999 17.0913 6.1124 17.68 6.61842 18.1765 7.2085 18.2972 7.35207 18.3097 7.55772 18.2073 7.71484L17.4788 8.8291C17.786 9.31297 18.0177 9.84084 18.1658 10.3945L19.4773 10.6157C19.6626 10.6471 19.8053 10.7964 19.8284 10.9829 19.9233 11.7476 19.8954 12.5225 19.7459 13.2783 19.7092 13.4627 19.556 13.6012 19.3689 13.6191L18.0437 13.7441C17.8564 14.2864 17.5875 14.797 17.2463 15.2583L17.8913 16.4214C17.9825 16.5857 17.9549 16.7905 17.8235 16.9248 17.5542 17.1997 17.2636 17.4528 16.9543 17.6816 16.6451 17.9099 16.3184 18.1135 15.9773 18.2905 15.8102 18.3769 15.6063 18.3433 15.4758 18.208L14.552 17.251C14.0111 17.4424 13.4442 17.5499 12.8708 17.5699L12.3635 18.8008C12.2976 18.9598 12.1425 19.0634 11.9705 19.0635ZM10.345 17.8135C10.7824 17.984 11.2373 18.1057 11.7014 18.1763L12.1922 16.9858C12.2499 16.8175 12.4142 16.7095 12.5916 16.7231 13.2459 16.7324 13.8953 16.6092 14.5008 16.3608 14.6619 16.2932 14.8481 16.3323 14.9685 16.459L15.8616 17.3843C16.0644 17.2663 16.2607 17.1374 16.4495 16.998 16.6379 16.8585 16.8185 16.7087 16.9905 16.5493L16.367 15.4248C16.2826 15.2724 16.2996 15.084 16.41 14.9492 16.8259 14.4433 17.1341 13.8578 17.3158 13.2285 17.3646 13.0612 17.5104 12.9405 17.6839 12.9238L18.9657 12.8032C19.034 12.3387 19.0507 11.8681 19.0155 11.3999L17.7474 11.186C17.5755 11.1573 17.4388 11.0263 17.4026 10.8559 17.2663 10.2159 17.0008 9.61045 16.6224 9.07662 16.5218 8.9343 16.5183 8.74501 16.6136 8.59908L17.3181 7.52144C16.9985 7.1775 16.6415 6.87027 16.2537 6.60544L15.2952 7.46433C15.1656 7.58041 14.9785 7.60593 14.8226 7.52878 14.2363 7.23659 13.597 7.06616 12.9432 7.02778 12.7692 7.01732 12.6192 6.9018 12.5647 6.73628L12.1619 5.51465C11.6938 5.55044 11.2312 5.63822 10.7825 5.77637L10.8562 7.06006C10.8661 7.23379 10.7692 7.39603 10.6116 7.46973 10.0181 7.74725 9.48621 8.14073 9.04716 8.627 8.93117 8.75721 8.74701 8.80262 8.58378 8.74126L7.37723 8.29443C7.11424 8.68334 6.89497 9.10009 6.72343 9.53711L7.77421 10.2803C7.91636 10.381 7.98273 10.5582 7.94169 10.7275 7.78696 11.3639 7.76288 12.025 7.87089 12.6709 7.89917 12.8425 7.82007 13.0141 7.67118 13.104L6.56918 13.7695C6.70881 14.2176 6.89798 14.6486 7.13318 15.0547L8.37 14.6968C8.53739 14.6479 8.71761 14.7067 8.8241 14.8447 9.22399 15.3626 9.72524 15.7936 10.2972 16.1113 10.4495 16.1962 10.5346 16.3653 10.5121 16.5381Z"/><path d="M12.6614 14.9556C11.6817 14.9574 10.7593 14.4936 10.1765 13.706L10.1765 13.706C9.16087 12.3356 9.44845 10.4013 10.8189 9.38564 12.1893 8.36996 14.1236 8.65753 15.1393 10.028 16.155 11.3984 15.8674 13.3327 14.497 14.3484 13.9659 14.742 13.3225 14.9548 12.6614 14.9556ZM10.8601 13.2002C11.594 14.193 12.9936 14.4029 13.9864 13.669 14.9792 12.9352 15.1891 11.5355 14.4552 10.5428 13.7214 9.55001 12.3217 9.34011 11.329 10.0739 11.3286 10.0742 11.3283 10.0745 11.3279 10.0747 10.3367 10.8093 10.1274 12.2076 10.8601 13.2002Z"/><path d="M24.1404 11.2583C24.0468 11.2585 23.9558 11.2275 23.8816 11.1704L22.3724 10.0098C22.1863 9.86657 22.1515 9.59965 22.2947 9.41358 22.4379 9.2275 22.7048 9.19274 22.8909 9.33594L24.0633 10.2373 24.9646 9.06494C25.1074 8.87852 25.3742 8.84313 25.5606 8.98587 25.7471 9.12862 25.7825 9.39546 25.6397 9.58188 25.6393 9.58242 25.6389 9.58296 25.6385 9.5835L24.4778 11.0928C24.3972 11.1973 24.2725 11.2585 24.1404 11.2583Z"/><path d="M0.4246 14.7715C0.190028 14.7715-0.000164591 14.5814-0.000207276 14.3468-0.000224357 14.253 0.0308534 14.1617 0.08817 14.0874L1.21217 12.626C1.28624 12.5294 1.39304 12.4633 1.51247 12.44 1.62698 12.4174 1.7458 12.439 1.84499 12.5005L3.35426 13.6617C3.54016 13.8051 3.57459 14.072 3.43117 14.2579 3.28799 14.4435 3.02164 14.4782 2.83571 14.3355L1.66335 13.4336 0.762 14.606C0.681466 14.7107 0.556709 14.7719 0.4246 14.7715Z"/><circle cx="8.82187" cy="1.24312" r="0.4199"/></g></g></svg>