<svg viewBox="0 0 24.9863 20.084" xmlns="http://www.w3.org/2000/svg" xmlns:xlink="http://www.w3.org/1999/xlink" overflow="hidden"><g id="Layer_2"><g id="Layer_1-2"><path d="M22.8013 20.084 3.396 20.084C3.16139 20.084 2.9712 19.8938 2.9712 19.6592 2.9712 19.4246 3.16139 19.2344 3.396 19.2344L22.8013 19.2344C23.0154 19.2343 23.189 19.0608 23.1894 18.8467L23.2129 17.6563 23.1894 5.82127C23.1889 5.58666 23.3787 5.39603 23.6133 5.39549 23.6133 5.39549 23.6133 5.39549 23.6133 5.39549L23.6143 5.39549C23.8486 5.39537 24.0387 5.58504 24.0391 5.81932L24.0625 17.6357 24.0391 18.8554C24.0345 19.5357 23.4815 20.0846 22.8013 20.084Z"/><path d="M24.5615 4.61719 2.14551 4.61719C1.9109 4.6172 1.72071 4.42701 1.7207 4.1924 1.7207 4.19239 1.7207 4.19239 1.7207 4.19238L1.7207 3.5625C1.75717 2.51801 2.63114 1.69951 3.67578 1.7315L8.665 1.7315C8.75713 0.729747 9.6116-0.0281309 10.6172 2.95639e-08L16.0898 0C17.0954-0.0281168 17.9498 0.729729 18.042 1.73145L23.0313 1.73145C24.0759 1.69946 24.9499 2.51799 24.9863 3.5625L24.9863 4.19238C24.9863 4.42699 24.7962 4.61718 24.5615 4.61719 24.5615 4.61719 24.5615 4.61719 24.5615 4.61719ZM2.57031 3.76758 24.1367 3.76758 24.1367 3.5625C24.0997 2.98754 23.6065 2.54967 23.0312 2.58105L17.6196 2.58105C17.385 2.58106 17.1948 2.39087 17.1948 2.15626 17.1948 2.15626 17.1948 2.15625 17.1948 2.15625L17.1948 1.83105C17.1581 1.25618 16.665 0.818262 16.0898 0.84961L10.6172 0.84961C10.042 0.818262 9.54895 1.25618 9.51219 1.83105L9.51219 2.15625C9.51219 2.39086 9.322 2.58105 9.08739 2.58105 9.08739 2.58105 9.08738 2.58105 9.08738 2.58105L3.67578 2.58105C3.10049 2.54967 2.60729 2.98754 2.57031 3.5625Z"/><path d="M3.23926 16.334C3.00465 16.3342 2.81432 16.1441 2.81414 15.9095 2.81405 15.7965 2.85897 15.6882 2.93896 15.6084L4.74609 13.8018 4.74609 11.3613C4.74495 11.1267 4.93422 10.9356 5.16883 10.9345 5.40345 10.9333 5.59456 11.1226 5.5957 11.3572 5.59571 11.3586 5.59571 11.36 5.5957 11.3613L5.5957 13.9775C5.59571 14.0903 5.55093 14.1985 5.47119 14.2783L3.53955 16.21C3.46004 16.2898 3.3519 16.3344 3.23926 16.334Z"/><path d="M4.94336 18.5117C2.21125 18.5097-0.00194909 16.2933 4.89635e-05 13.5612 0.000598392 12.8099 0.172257 12.0686 0.502 11.3936 0.606327 11.183 0.861546 11.097 1.07205 11.2013 1.28146 11.3051 1.36792 11.5584 1.26567 11.7686 0.990305 12.3285 0.847941 12.9444 0.84967 13.5684 0.852026 15.8269 2.68487 17.656 4.94344 17.6536 7.20202 17.6512 9.03104 15.8184 9.02869 13.5598 9.02633 11.3013 7.19348 9.47223 4.93491 9.47459 4.39141 9.47515 3.85347 9.58405 3.35254 9.79492 3.13756 9.88913 2.8869 9.79123 2.79269 9.57625 2.69848 9.36126 2.79638 9.11061 3.01137 9.0164 3.01504 9.01479 3.01874 9.01323 3.02246 9.01172 5.53864 7.95123 8.4381 9.13129 9.49859 11.6475 10.5591 14.1636 9.37902 17.0631 6.86284 18.1236 6.2553 18.3797 5.60267 18.5116 4.94336 18.5117Z"/><path d="M3.105 7.919C2.87039 7.919 2.6802 7.72881 2.6802 7.4942 2.6802 7.4942 2.6802 7.49419 2.6802 7.49419L2.6802 5.98535C2.68134 5.75074 2.87245 5.56147 3.10707 5.56261 3.34007 5.56374 3.52868 5.75235 3.52981 5.98535L3.52981 7.49414C3.52984 7.72875 3.33968 7.91897 3.10507 7.919 3.10505 7.919 3.10502 7.919 3.105 7.919Z"/><path d="M21.793 9.22852 11.1963 9.22852C10.9617 9.22966 10.7706 9.04039 10.7694 8.80578 10.7683 8.57116 10.9576 8.38005 11.1922 8.37891 11.1935 8.3789 11.1949 8.3789 11.1963 8.37891L21.793 8.37891C22.0276 8.38005 22.2169 8.57116 22.2157 8.80578 22.2146 9.03878 22.026 9.22739 21.793 9.22852Z"/><path d="M21.793 11.5791 11.1963 11.5791C10.9617 11.5802 10.7706 11.391 10.7694 11.1564 10.7683 10.9217 10.9576 10.7306 11.1922 10.7295 11.1935 10.7295 11.1949 10.7295 11.1963 10.7295L21.793 10.7295C22.0276 10.7306 22.2169 10.9217 22.2157 11.1564 22.2146 11.3894 22.026 11.578 21.793 11.5791Z"/><path d="M17.7393 16.3398C17.6386 16.34 17.5411 16.3044 17.4644 16.2393L16.0557 15.044C15.8761 14.8927 15.8533 14.6245 16.0045 14.445 16.1558 14.2655 16.424 14.2426 16.6035 14.3939 16.6042 14.3945 16.6048 14.395 16.6055 14.3956L17.6948 15.3204 19.6518 13.0792C19.8043 12.9007 20.0726 12.8797 20.251 13.0322 20.4295 13.1846 20.4505 13.4529 20.298 13.6314 20.2962 13.6335 20.2943 13.6356 20.2924 13.6378L18.0595 16.1944C17.979 16.2871 17.8621 16.3402 17.7393 16.3398Z"/><circle cx="1.83386" cy="10.2932" r="0.425"/></g></g></svg>