<svg viewBox="0 0 23.7746 24.1792" xmlns="http://www.w3.org/2000/svg" xmlns:xlink="http://www.w3.org/1999/xlink" overflow="hidden"><defs></defs><g id="Layer_2"><g id="Layer_1-2"><path d="M7.90891 18.2645 5.50917 18.2645C5.38153 18.2643 5.27819 18.1607 5.27817 18.0331L5.27817 11.9736C5.27819 11.846 5.38153 11.7424 5.50917 11.7422L17.6277 11.7422C18.2042 11.7418 18.6716 11.2747 18.6722 10.6981L18.6722 5.50831C18.6716 4.93178 18.2042 4.46463 17.6277 4.46425L9.3361 4.46425C9.11162 4.46423 8.92958 4.64608 8.92936 4.87056 8.92307 6.9481 7.34563 8.68387 5.27815 8.88822L5.27815 8.69792C5.27704 8.47329 5.09403 8.29209 4.8694 8.2932 4.64634 8.29431 4.46579 8.47486 4.46468 8.69792L4.46468 8.88854C2.54413 8.7189 1.02124 7.19728 0.85 5.27687L1.04453 5.27687C1.26893 5.27687 1.45084 5.09496 1.45084 4.87056 1.45084 4.64616 1.26893 4.46425 1.04453 4.46425L0.84765 4.46425C1.0405 2.55353 2.54501 1.03887 4.45439 0.83319L4.46468 0.83292 4.46468 1.04406C4.46579 1.26869 4.6488 1.44989 4.87343 1.44878 5.09649 1.44767 5.27704 1.26712 5.27815 1.04406L5.27815 0.84273C6.65298 0.974413 7.86483 1.80039 8.49005 3.03189 8.59184 3.23203 8.83659 3.31176 9.03673 3.20997 9.23687 3.10818 9.3166 2.86343 9.21481 2.66329 8.39361 1.04755 6.73991 0.0246293 4.92751 0.0113 4.90912 0.00613126 4.89037 0.00235392 4.87142 2.36452e-08 4.84753 0.00252337 4.82392 0.00727743 4.80091 0.0142 4.65883 0.016 4.51783 0.01 4.37425 0.024 1.98314 0.276499 0.130618 2.23025 0.00556994 4.6314 0.0022 4.70175 0.00643 4.771 0.006 4.84093 0.0052 4.85122 0 4.86006 0 4.87056 0 4.88128 0.0053 4.89028 0.00611 4.90078 0.0170086 7.57939 2.19279 9.7444 4.87142 9.742 7.40232 9.73695 9.50967 7.79854 9.72569 5.27687L17.6277 5.27687C17.7553 5.27713 17.8587 5.38067 17.8587 5.50831L17.8587 10.6981C17.8587 10.8258 17.7553 10.9293 17.6277 10.9296L5.50917 10.9296C4.93264 10.9299 4.4653 11.3971 4.46468 11.9736L4.46468 18.0331C4.4653 18.6096 4.93264 19.0768 5.50917 19.0772L7.90891 19.0772C8.13331 19.0783 8.31612 18.8973 8.31723 18.6729 8.31834 18.4485 8.13734 18.2657 7.91294 18.2645 7.9116 18.2645 7.91025 18.2645 7.90891 18.2645Z"/><path d="M23.3679 18.2645 23.1163 18.2645C22.9155 15.8982 21.0385 14.021 18.6722 13.82L18.6722 13.568C18.6722 13.3434 18.4901 13.1613 18.2655 13.1613 18.0408 13.1613 17.8587 13.3434 17.8587 13.568L17.8587 13.8353C15.7116 14.0139 13.9366 15.581 13.4931 17.6894 13.4785 17.7602 13.4716 17.8331 13.4602 17.9048L13.1823 17.4879C13.0574 17.3015 12.8051 17.2513 12.6183 17.3757 12.4316 17.5001 12.3812 17.7523 12.5056 17.939 12.5057 17.9392 12.5059 17.9394 12.506 17.9397L12.722 18.2645 12.4242 18.2645 11.9068 17.4879C11.7812 17.3016 11.5283 17.2525 11.342 17.3781 11.157 17.5029 11.1071 17.7535 11.2301 17.9396L11.4467 18.2645 11.2494 18.2645C11.025 18.2634 10.8422 18.4444 10.841 18.6688 10.8399 18.8932 11.0209 19.076 11.2453 19.0771 11.2467 19.0771 11.248 19.0771 11.2494 19.0771L11.4463 19.0771 11.2296 19.402C11.106 19.5896 11.1578 19.8419 11.3454 19.9655 11.5318 20.0883 11.7823 20.0381 11.9068 19.8529L12.4242 19.0771 12.7216 19.0771 12.5056 19.4011C12.3818 19.5881 12.4319 19.8399 12.6179 19.9651 12.6845 20.0102 12.7633 20.0341 12.8438 20.0337 12.9798 20.0339 13.1069 19.966 13.1823 19.8528L13.6995 19.0771 18.2655 19.0771C18.4899 19.0782 18.6727 18.8972 18.6738 18.6728 18.6749 18.4484 18.4939 18.2656 18.2695 18.2645 18.2682 18.2645 18.2668 18.2645 18.2655 18.2645L16.8217 18.2645C17.0501 17.4684 17.8807 17.0083 18.6767 17.2367 19.4728 17.4652 19.933 18.2957 19.7045 19.0918 19.476 19.8879 18.6455 20.348 17.8494 20.1195 17.5794 20.042 17.3365 19.8902 17.1485 19.6814 16.9975 19.5149 16.7401 19.5023 16.5736 19.6534 16.4071 19.8044 16.3945 20.0618 16.5455 20.2283 17.4034 21.1828 18.8727 21.2611 19.8272 20.4032 20.7817 19.5453 20.86 18.0761 20.0021 17.1216 19.1442 16.1671 17.675 16.0888 16.7205 16.9467 16.3361 17.2921 16.0779 17.7558 15.9866 18.2645L14.2486 18.2645C14.2555 18.1267 14.2694 17.9894 14.2902 17.853 14.6538 16.1209 16.0977 14.8241 17.8587 14.6478L17.8587 14.8434C17.8587 15.0681 18.0408 15.2502 18.2654 15.2502 18.4901 15.2502 18.6722 15.0681 18.6722 14.8434L18.6722 14.6531C20.5808 14.8463 22.0898 16.3558 22.2824 18.2645L22.0924 18.2645C21.868 18.2634 21.6851 18.4444 21.684 18.6688 21.6829 18.8932 21.8639 19.076 22.0883 19.0771 22.0897 19.0771 22.091 19.0771 22.0924 19.0771L22.2823 19.0771C22.0894 20.9854 20.5804 22.4945 18.6722 22.6876L18.6722 22.4973C18.6722 22.2727 18.4901 22.0905 18.2654 22.0905 18.0408 22.0905 17.8587 22.2727 17.8587 22.4973L17.8587 22.6992C16.4386 22.5553 15.1975 21.6783 14.5877 20.3877 14.5483 20.3037 14.5118 20.218 14.478 20.1297 14.3972 19.92 14.1618 19.8154 13.9521 19.8962 13.7423 19.9769 13.6378 20.2123 13.7185 20.4221 13.7592 20.5275 13.8029 20.6303 13.8509 20.7323 14.5958 22.3071 16.1228 23.3661 17.8587 23.5118L17.8587 23.7728C17.8587 23.9974 18.0408 24.1795 18.2655 24.1795 18.4901 24.1795 18.6722 23.9974 18.6722 23.7728L18.6722 23.5208C21.0382 23.3199 22.9152 21.4431 23.1163 19.0771L23.3679 19.0771C23.5923 19.0782 23.7751 18.8972 23.7762 18.6728 23.7773 18.4484 23.5963 18.2656 23.3719 18.2645 23.3706 18.2645 23.3692 18.2645 23.3679 18.2645Z"/><path d="M4.87142 2.551C4.64694 2.55098 4.4649 2.73283 4.46468 2.95731L4.46468 4.87056C4.4643 4.97838 4.50723 5.08184 4.58383 5.15772L6.47094 7.04611C6.63038 7.20456 6.88808 7.20375 7.04652 7.04431 7.12213 6.96823 7.16465 6.86537 7.16483 6.75811 7.16521 6.65029 7.12228 6.54683 7.04568 6.47095L5.27815 4.70255 5.27815 2.95731C5.27793 2.73284 5.09589 2.55099 4.87142 2.551Z"/><circle cx="9.5643" cy="18.6779" r="0.425"/></g></g></svg>