<svg viewBox="0 0 19.6211 24.9971" xmlns="http://www.w3.org/2000/svg" xmlns:xlink="http://www.w3.org/1999/xlink" overflow="hidden"><defs></defs><g id="Layer_2"><g id="Layer_1-2"><path d="M6.313 8.73145 3.771 8.73145C3.60242 8.73142 3.44977 8.63183 3.38184 8.47754L2.2124 5.82227C2.11801 5.60734 2.21573 5.3566 2.43066 5.26221 2.64559 5.16782 2.89633 5.26554 2.99072 5.48047L4.04834 7.88184 6.313 7.88184C6.54761 7.88298 6.73688 8.07409 6.73574 8.30871 6.73461 8.54171 6.54601 8.73032 6.313 8.73145Z"/><path d="M15.4546 8.73145 9.731 8.73145C9.49639 8.73259 9.30527 8.54332 9.30413 8.30871 9.30299 8.07409 9.49226 7.88298 9.72688 7.88184 9.72825 7.88183 9.72963 7.88183 9.731 7.88184L15.1905 7.88184 16.375 5.47949C16.4817 5.27043 16.7377 5.18748 16.9468 5.2942 17.1514 5.39866 17.236 5.64682 17.1377 5.85449L15.8359 8.49414C15.7644 8.63939 15.6165 8.73139 15.4546 8.73145Z"/><path d="M9.731 8.74023C9.49639 8.74024 9.3062 8.55005 9.30619 8.31544 9.30619 8.31544 9.30619 8.31543 9.30619 8.31543L9.30619 4.58008C9.30505 4.34547 9.49432 4.15435 9.72893 4.15321 9.96355 4.15208 10.1547 4.34134 10.1558 4.57596 10.1558 4.57733 10.1558 4.57871 10.1558 4.58008L10.1558 8.31543C10.1558 8.55003 9.96562 8.74022 9.73102 8.74023 9.73101 8.74023 9.73101 8.74023 9.731 8.74023Z"/><path d="M17.0273 19.0801C16.8728 19.0802 16.7304 18.9964 16.6553 18.8613L15.6074 16.9736 10.3223 16.9736 10.3223 17.1982C10.3234 17.4329 10.1341 17.624 9.89953 17.6251 9.66491 17.6262 9.4738 17.437 9.47266 17.2024 9.47265 17.201 9.47265 17.1996 9.47266 17.1982L9.47266 16.5488C9.47265 16.3142 9.66284 16.124 9.89745 16.124 9.89745 16.124 9.89746 16.124 9.89746 16.124L15.8575 16.124C16.0118 16.1241 16.1541 16.2078 16.229 16.3428L17.3985 18.4492C17.5123 18.6539 17.4386 18.912 17.2339 19.0258 17.2336 19.026 17.2333 19.0262 17.2329 19.0264 17.1703 19.0619 17.0994 19.0805 17.0273 19.0801Z"/><path d="M2.87158 19.0654C2.79228 19.0656 2.71456 19.0432 2.64746 19.001 2.44836 18.8773 2.38719 18.6157 2.51083 18.4166 2.51097 18.4164 2.5111 18.4162 2.51123 18.416L3.813 16.3242C3.89049 16.1995 4.027 16.1238 4.17384 16.124L9.89746 16.124C10.1321 16.1229 10.3232 16.3122 10.3243 16.5468 10.3255 16.7814 10.1362 16.9725 9.90158 16.9736 9.90021 16.9736 9.89883 16.9736 9.89746 16.9736L4.41016 16.9736 3.23291 18.8652C3.1551 18.9899 3.01851 19.0655 2.87158 19.0654Z"/><path d="M9.96729 24.9971C8.45309 24.9971 7.22559 23.7696 7.2256 22.2554 7.22561 20.7412 8.45311 19.5137 9.96731 19.5137 11.4813 19.5137 12.7087 20.7409 12.709 22.2549 12.7073 23.7685 11.4809 24.9951 9.96729 24.9971ZM9.96729 20.3633C8.92232 20.3633 8.0752 21.2104 8.0752 22.2554 8.0752 23.3003 8.92232 24.1475 9.96729 24.1475 11.0123 24.1475 11.8594 23.3003 11.8594 22.2554 11.8594 22.2552 11.8594 22.255 11.8594 22.2549 11.8579 21.2106 11.0116 20.3645 9.96729 20.3633Z"/><path d="M2.7417 23.7666C1.2275 23.7666-4.63903e-08 22.5391-2.22076e-08 21.0249 1.97517e-09 19.5107 1.2275 18.2832 2.7417 18.2832 4.2559 18.2832 5.4834 19.5107 5.4834 21.0249 5.4834 21.0251 5.4834 21.0252 5.4834 21.0254 5.48161 22.5388 4.25508 23.7651 2.7417 23.7666ZM2.7417 19.1328C1.69673 19.1328 0.84961 19.9799 0.84961 21.0249 0.84961 22.0699 1.69673 22.917 2.7417 22.917 3.78648 22.917 4.63352 22.0702 4.63379 21.0254 4.63275 19.9808 3.78632 19.1341 2.7417 19.1328Z"/><path d="M16.8794 23.7549C15.3652 23.7549 14.1377 22.5274 14.1377 21.0132 14.1377 19.499 15.3652 18.2715 16.8794 18.2715 18.3934 18.2715 19.6208 19.4987 19.6211 21.0127 19.6194 22.5263 18.393 23.7529 16.8794 23.7549ZM16.8794 19.1211C15.8344 19.1211 14.9873 19.9682 14.9873 21.0132 14.9873 22.0582 15.8344 22.9053 16.8794 22.9053 17.9244 22.9053 18.7715 22.0582 18.7715 21.0132 18.7715 21.013 18.7715 21.0129 18.7715 21.0127 18.77 19.9684 17.9237 19.1223 16.8794 19.1211Z"/><path d="M9.89746 20.1523C9.66286 20.1523 9.47267 19.9622 9.47266 19.7276 9.47266 19.7276 9.47266 19.7275 9.47266 19.7275L9.47266 16.5488C9.47152 16.3142 9.66079 16.1231 9.8954 16.122 10.13 16.1208 10.3211 16.3101 10.3223 16.5447 10.3223 16.5461 10.3223 16.5475 10.3223 16.5488L10.3223 19.7275C10.3223 19.9622 10.1321 20.1523 9.89747 20.1523 9.89747 20.1523 9.89746 20.1523 9.89746 20.1523Z"/><path d="M18.6011 6.01953 14.8369 6.01953C14.6023 6.01954 14.4121 5.82935 14.4121 5.59475 14.4121 5.59474 14.4121 5.59474 14.4121 5.59473L14.4121 1.83008C14.4121 1.59547 14.6023 1.40528 14.8369 1.40527 14.8369 1.40527 14.8369 1.40527 14.8369 1.40527L18.6011 1.40527C18.8357 1.40526 19.0259 1.59545 19.0259 1.83006 19.0259 1.83007 19.0259 1.83007 19.0259 1.83008L19.0259 5.59473C19.0259 5.82934 18.8357 6.01953 18.6011 6.01953 18.6011 6.01953 18.6011 6.01953 18.6011 6.01953ZM15.2617 5.16992 18.1763 5.16992 18.1763 2.25492 15.2617 2.25492Z"/><path d="M4.60254 6.01953 0.83789 6.01953C0.603285 6.01954 0.413096 5.82935 0.41309 5.59475 0.41309 5.59474 0.41309 5.59474 0.41309 5.59473L0.41309 1.83008C0.413084 1.59547 0.603269 1.40528 0.83788 1.40527 0.837883 1.40527 0.837887 1.40527 0.83789 1.40527L4.60254 1.40527C4.83715 1.40527 5.02734 1.59546 5.02734 1.83007 5.02734 1.83007 5.02734 1.83008 5.02734 1.83008L5.02734 5.59473C5.02735 5.82933 4.83716 6.01952 4.60256 6.01953 4.60255 6.01953 4.60255 6.01953 4.60254 6.01953ZM1.2627 5.16992 4.1777 5.16992 4.1777 2.25492 1.2627 2.25492Z"/><path d="M11.6602 4.61426 7.896 4.61426C7.66139 4.61427 7.4712 4.42408 7.47119 4.18947 7.47119 4.18946 7.47119 4.18946 7.47119 4.18945L7.47119 0.4248C7.47119 0.190189 7.66138 8.48269e-09 7.89599 8.41768e-09 7.89599 8.41768e-09 7.896 8.45692e-09 7.896 8.53538e-09L11.6602 0C11.8948-5.52291e-06 12.085 0.190175 12.085 0.42478 12.085 0.424787 12.085 0.424793 12.085 0.4248L12.085 4.18945C12.085 4.42406 11.8948 4.61425 11.6602 4.61426 11.6602 4.61426 11.6602 4.61426 11.6602 4.61426ZM8.3208 3.76465 11.2353 3.76465 11.2353 0.84961 8.3208 0.84961Z"/><path d="M9.84521 14.9072C9.74313 14.9074 9.64444 14.8707 9.56738 14.8037L5.29346 11.1103C5.11527 10.9578 5.0945 10.6896 5.24708 10.5114 5.39966 10.3333 5.6678 10.3125 5.84599 10.4651 5.84704 10.466 5.84808 10.4669 5.84912 10.4678L9.834 13.9111 13.6455 10.3447C13.8186 10.186 14.0876 10.1976 14.2464 10.3707 14.4029 10.5414 14.3941 10.8059 14.2265 10.9658L10.1357 14.793C10.0569 14.8666 9.95305 14.9074 9.84521 14.9072Z"/><circle cx="7.95487" cy="8.31242" r="0.42322"/></g></g></svg>