<?xml version="1.0" encoding="UTF-8"?><svg id="Layer_2" xmlns="http://www.w3.org/2000/svg" viewBox="0 0 25.42357 25.01119"><defs><style>.cls-1{fill:#783cbe;}</style></defs><g id="Layer_1-2"><g><path class="cls-1" d="M23.4054,14.30611c-.3457,.11523-.56934,.25586-.72363,.35352l-1.18652,.80408c-.53418-1.18524-2.31934-3.57098-5.69141-3.6958,.00293-.02881,.00586-.0484,.00879-.08289,.19336-1.56244,.68408-2.95184,1.2749-4.14008,.12109,.00879,.25,.01605,.39502,.01605,1.2334,0,3.25977-.40332,4.84473-2.68848,2.09375-3.01465,2.61621-4.19336,2.6377-4.24219,.05273-.12109,.0459-.25977-.01758-.375s-.17773-.19531-.30762-.21484c-.03027-.00586-.76855-.11328-2.28516,.04785-.2334,.02539-.40234,.23438-.37793,.46777,.02539,.23438,.24902,.39941,.46777,.37793,.62793-.06738,1.11133-.08301,1.44922-.08301-.33789,.60742-1.0166,1.73926-2.26465,3.53711-1.37598,1.98267-3.07275,2.3324-4.10205,2.3338,1.33008-2.29846,2.91309-3.63843,2.93896-3.65997,.18066-.15039,.20508-.41797,.05566-.59863-.15039-.18164-.41699-.2041-.59863-.05566-.11523,.09601-1.90918,1.61041-3.32715,4.21124-.00049-.00037-.00049-.00092-.00098-.00128-.46387-.40332-.5293-.97461-.50195-1.38281,.0752-1.13477,.89648-2.35059,2.14355-3.17285,.26855-.17676,.58301-.33789,.93555-.47656,.21777-.08691,.3252-.33301,.23926-.55176-.08594-.21777-.3291-.32129-.55176-.23926-.40723,.16113-.77441,.34863-1.09082,.55859-1.46484,.96484-2.43164,2.43066-2.52441,3.8252-.05664,.84961,.22559,1.58789,.79395,2.08203,.04102,.03546,.09375,.03577,.14258,.05298,.01367,.01501,.02295,.03308,.03906,.04614-.29492,.61865-.56445,1.28461-.78125,2.00342-.10254-.20312-.23145-.39844-.39062-.5752-.06787-.07501-.14648-.14374-.23242-.20789,.0083-.09656,.07178-1.1048-.63379-1.83704-.50195-.52051-1.25781-.75391-2.20508-.70703-2.375,.12891-4.1709,2.78809-4.24609,2.90137-.08203,.12305-.09375,.2793-.03223,.41406,.0625,.13379,.18945,.22559,.33594,.24316,.01758,.00195,1.80566,.2168,3.19629,.70898,.34863,.12402,.71387,.18457,1.07715,.18457,.50586,0,1.00977-.11816,1.46289-.35352,.31934-.16528,.57715-.37622,.77051-.60803,.46875,.67224,.45898,1.65186,.42383,2.08655-.00732,.06183-.01416,.12402-.021,.18628-2.90967,.22888-4.23096,2.07599-4.52002,2.55646l-3.1709-.39899c-.33105-.04102-.67871-.00781-1.02246,.10742l-5.18457,2.11426c-.21777,.08887-.32227,.33691-.2334,.55371,.08887,.21777,.33789,.32129,.55371,.2334l5.15918-2.10449c.19727-.06641,.41309-.08691,.62207-.06055l10.07617,1.26758c.35645,.03613,.61426,.1543,.7666,.35254,.24609,.32129,.17578,.78125,.1709,.82031-.02344,.25879-.4375,.56055-.77539,.56738l-5.32715,.06738-2.23633-.0791c-.23145,.01758-.43164,.17578-.43945,.41016s.1748,.43066,.41016,.43945l2.13428,.07483,3.23877,1.77966c.14062,.07715,.31152,.07031,.44336-.02051l7.55957-5.12305c.10156-.06445,.25586-.16113,.50977-.24609,.22363-.07129,.68652,.1543,.84766,.42578,.10449,.18457,.08496,.6416-.67188,1.20215l-8.32715,6.87695c-.22852,.1709-.48535,.2959-.76465,.37305l-.45996,.12793c-.23242,.06348-.47168,.05859-.69727-.0166l-9.65332-3.20215c-.54297-.17871-1.14746-.13574-1.71973,.1582L.17395,22.56392c-.18945,.13867-.23047,.4043-.0918,.59375,.13867,.19141,.40918,.23047,.59375,.0918l1.99805-1.4707c.31152-.15625,.67871-.18359,1.01074-.07422l9.65234,3.20215c.20996,.06934,.42578,.10449,.64355,.10449,.18457,0,.36914-.02539,.55078-.07617l.45801-.12695c.38086-.10449,.7334-.27734,1.06348-.52441l8.3252-6.875c1.28125-.94727,1.12402-1.94043,.875-2.31348-.33301-.55957-1.19727-1.01172-1.84766-.78906Zm-10.02637-4.92676c-.56934,.29492-1.24902,.34082-1.86523,.12305-.91895-.3252-1.96777-.5332-2.65039-.64551,.60645-.7207,1.80078-1.89844,3.15918-1.97168,.68262-.04102,1.21777,.11035,1.54199,.44238,.25049,.2569,.3457,.58502,.38232,.83276-1.38477-.4408-3.33154-.34265-3.61182-.32202-.23438,.01367-.41211,.21582-.39746,.4502s.22168,.41699,.4502,.39746c.99121-.05786,2.56104,.00342,3.46436,.34241-.1084,.11731-.26025,.24084-.47314,.35095Zm3.94043,5.84375l-5.94629-.74817c.48682-.62946,1.68506-1.79535,3.92773-1.86511,3.49463-.0979,5.15918,2.50989,5.47656,3.34039l-1.75391,1.18896c.0127-.28223-.02051-.78766-.35254-1.22662-.2998-.39648-.75781-.62891-1.35156-.68945Zm-1.97168,4.40723l-1.68506-.9256,3.1084-.03918-1.42334,.96478Z"/><path class="cls-1" d="M20.64124,1.18892c.23779,.01813,.44531-.15991,.46338-.39771,.01855-.23785-.15967-.44537-.39746-.46356s-.44531,.15985-.46338,.39771c-.01855,.23779,.15967,.44537,.39746,.46356Z"/></g></g></svg>