<?xml version="1.0" encoding="UTF-8"?><svg id="Layer_2" xmlns="http://www.w3.org/2000/svg" viewBox="0 0 20.54062 26.56167"><defs><style>.cls-1{fill:#783cbe;}</style></defs><g id="Layer_1-2"><g><path class="cls-1" d="M19.67507,20.36343c-.03809-.10547-.11816-.19238-.21973-.24023-.10059-.04785-.21777-.0498-.32617-.01367l-.7583,.27789c1.14404-2.36957,.39014-6.55151,.37842-6.58356l-1.26758-3.47656c-.33008-.90527-1.33984-1.37402-2.24414-1.04492-.35059,.12793-.64453,.35938-.84863,.66406-.46289-.5166-1.21289-.72949-1.90527-.47852-.30957,.11328-.56836,.30566-.76172,.54492-.3584-.85449-1.33008-1.28711-2.21289-.96582-.30957,.11328-.56738,.30469-.76074,.54297l-1.53613-4.21191c-.33105-.90723-1.33691-1.37793-2.24414-1.04492-.90723,.33105-1.37598,1.33789-1.04492,2.24414l2.4043,6.59082-.3623-.30371c-.73828-.61816-1.84668-.52051-2.46582,.21875-.29883,.35645-.44141,.81055-.40039,1.27734,.04004,.44727,.24316,.85352,.57422,1.14941,.9043,1.28064,4.53662,6.26746,7.1084,7.65894l-.7041,.25806c-.21973,.08105-.33301,.32422-.25293,.54492l.83984,2.31055c.03809,.10547,.11816,.19238,.21973,.24023,.05664,.02637,.11816,.03906,.17969,.03906,.0498,0,.09863-.00879,.14648-.02539l9.05176-3.31738c.21973-.08105,.33301-.32422,.25293-.54492l-.83984-2.31055ZM4.33816,14.97769c-.02148-.03027-.04688-.05762-.0752-.08105-.18359-.15332-.2959-.37012-.31641-.61035-.02148-.24121,.05078-.47461,.20508-.6582,.17773-.21191,.43262-.32129,.69043-.32129,.2041,0,.40918,.06836,.57715,.20898l1.57812,1.32324c.14746,.12402,.36035,.13379,.51758,.02246,.15723-.11035,.2207-.3125,.15527-.49316L4.72194,6.28628c-.16992-.4668,.07031-.98438,.53711-1.1543,.46289-.16992,.9834,.07031,1.1543,.53711l2.05078,5.62207c.08105,.22168,.3252,.33301,.54492,.25391,.2207-.08105,.33398-.32422,.25391-.54492-.16992-.4668,.07031-.98438,.53711-1.1543,.46289-.1709,.9834,.06934,1.1543,.53711l.4834,1.3252c0,.00195,.00098,.00293,.00098,.00391,.08008,.2207,.32227,.33691,.54492,.25391,.2207-.08008,.33398-.32422,.25391-.54492l-.00098-.00098c-.16797-.4668,.07324-.9834,.53809-1.15332,.46973-.17285,.98438,.07227,1.1543,.53711l.26367,.72266c.08008,.22168,.32812,.33398,.54492,.25391,.2207-.08105,.33398-.32422,.25391-.54492-.16992-.4668,.07031-.98438,.53711-1.1543,.4707-.17285,.98535,.07227,1.1543,.53711l1.25391,3.43066c.17188,.80762,.80566,6.31445-1.4082,6.99902l-4.45996,1.62695c-1.27734,.46582-5.2832-4.22363-7.73047-7.69727Zm6.97949,10.61328l-.5498-1.51172,8.25391-3.02441,.5498,1.51172-8.25391,3.02441Z"/><path class="cls-1" d="M2.73659,1.7062c.29688-.21973,.80078-.44922,1.1377-.57617,1.15234-.4209,2.39551-.36523,3.50586,.15039,1.11035,.5166,1.95312,1.43555,2.37305,2.58594,.41699,1.1416,.36719,2.37988-.1416,3.48535-.09766,.21387-.00391,.46582,.20898,.56445,.05762,.02637,.11816,.03809,.17773,.03809,.16113,0,.31445-.0918,.38672-.24707,.60156-1.31152,.66113-2.7793,.16699-4.13184-.49805-1.36426-1.49609-2.45312-2.8125-3.06543C6.42116-.10337,4.9446-.16489,3.57839,.33316c-.19922,.0752-.88672,.34863-1.34766,.69141-.18848,.13965-.22852,.40527-.08789,.59375,.13965,.18848,.40625,.22852,.59375,.08789Z"/><path class="cls-1" d="M3.30984,10.39468c.15918,0,.31152-.08984,.38477-.24316,.09961-.21289,.00879-.46582-.20312-.56641-1.10059-.51953-1.93652-1.43359-2.35352-2.5752-.21875-.59961-.42578-1.55176-.16992-2.6748,.05273-.22949-.09082-.45703-.31934-.50879-.23145-.05664-.45703,.09082-.50879,.31934-.23926,1.0498-.1709,2.14062,.19922,3.15527,.49414,1.35352,1.48535,2.4375,2.78906,3.05371,.05859,.02734,.12012,.04004,.18164,.04004Z"/><path class="cls-1" d="M1.27273,3.06949c.24707,0,.44629-.19958,.44629-.44641s-.19922-.44635-.44629-.44635c-.24658,0-.44629,.19952-.44629,.44635s.19971,.44641,.44629,.44641Z"/></g></g></svg>