<?xml version="1.0" encoding="UTF-8"?><svg id="Layer_2" xmlns="http://www.w3.org/2000/svg" viewBox="0 0 18.7865 19.84788"><defs><style>.cls-1{fill:#783cbe;}</style></defs><g id="Layer_1-2"><g><path class="cls-1" d="M18.71094,9.59592c-.31055-1.05957-1.47656-1.88965-2.57715-1.84668l-4.40527,.04004c-.23145,.01172-.40332-.03125-.48047-.11426-.08398-.09082-.06738-.25-.0625-.3125,.00098-.18457,.16309-2.04102,.2666-3.17188,.2373-2.92969-1.34961-3.78711-1.39062-3.80664-.0957-.05859-.96289-.56738-1.66992-.31348-.23047,.08203-.53906,.27637-.70215,.73926-.02246,.0625-.0293,.12988-.02148,.19629,.79102,6.07617-4.1875,8.37598-4.23828,8.39844l-.16309,.0752c-.27051,.12598-.57617,.26953-.88672,.29199-.87793,.06348-1.93555,.03906-1.94434,.03906-.11816-.00098-.22559,.04102-.30762,.12109-.08203,.0791-.12793,.18945-.12793,.30371v7.53613c0,.19727,.13574,.36914,.32812,.41406l1.96387,.45898c.12598,.02637,.25781,0,.35938-.08008s.16113-.20215,.16211-.33105l.04199-6.31348c.00195-.23535-.2207-.45215-.4248-.42773-.2334,0-.42383,.18848-.4248,.42188l-.03906,5.78125-1.11719-.26074v-6.76953c.4043,.00879,1.02441-.00488,1.5918-.0459,.4668-.0332,.88184-.22754,1.18457-.37012l.15137-.06934c1.92773-.86133,5.38086-3.88184,4.74805-9.16797,.04883-.09277,.10352-.12305,.14941-.13965,.26367-.09082,.75,.12012,.96387,.24805,.04785,.02637,1.15527,.67188,.9668,2.99805-.04492,.49316-.26953,2.9707-.26465,3.17578-.00879,.05469-.07812,.55078,.26855,.94141,.25488,.28809,.6582,.43457,1.14062,.40332l4.40332-.04004c.01562-.00098,.03125-.00098,.04785-.00098,.70215,0,1.50098,.57812,1.69434,1.2373,.13379,.4541-.05371,.83496-.55469,1.13086-.12012,.07031-.19727,.19531-.20801,.33301-.01074,.13867,.04688,.27344,.1543,.36133,.00488,.00488,.55176,.4707,.5293,1.04688-.01562,.39355-.29688,.7832-.83691,1.16016-.0957,.06641-.15918,.1709-.17578,.28711-.01758,.11523,.01465,.23438,.08594,.32617,.00391,.00488,.39551,.5127,.2959,1.12695-.0752,.45996-.40723,.8877-.98828,1.27148-.13184,.08691-.20508,.24121-.18848,.39844,.00586,.05859,.12598,1.41992-1.83984,1.62891-2.44824,.26172-6.41211-.10059-8.33301-.38965l-.15918-.02734c-.23438-.0459-.4541,.1084-.49609,.33887-.04395,.23047,.10742,.45312,.33789,.49707l.19043,.03125c1.5332,.23145,4.14941,.49121,6.43652,.49121,.75781,0,1.47949-.02832,2.11328-.0957,2.21191-.23633,2.55078-1.68457,2.59375-2.29395,.67773-.49512,1.07227-1.07617,1.17383-1.72754,.0918-.58398-.08105-1.08789-.24316-1.40918,.56348-.47656,.86035-1.00684,.88281-1.58008,.02246-.56934-.23926-1.04199-.47559-1.34961,.52344-.48145,.71777-1.125,.52051-1.7959Z"/><path class="cls-1" d="M3.89258,18.20109c-.22559,.06604-.35449,.30237-.28857,.52795,.06592,.22552,.30225,.35486,.52783,.28882s.35498-.30237,.28906-.52795c-.06641-.22552-.30273-.35486-.52832-.28882Z"/></g></g></svg>