<?xml version="1.0" encoding="UTF-8"?><svg id="Layer_2" xmlns="http://www.w3.org/2000/svg" viewBox="0 0 21.46877 25.06944"><defs><style>.cls-1{fill:#783cbe;}</style></defs><g id="Layer_1-2"><g><path class="cls-1" d="M18.88967,18.94151c-.04004-.10547-.12012-.19043-.22266-.2373-.10156-.04492-.21875-.0498-.32617-.00977l-.5957,.22675c.00879-.01801,.02051-.03174,.0293-.04999,1.00586-2.08691,.57129-5.49414,.5127-5.64941l-1.27051-3.35352c-.16113-.42578-.47949-.76367-.89648-.95117-.41895-.18848-.88281-.20215-1.30762-.04102-.33496,.12695-.61523,.35059-.81152,.64355-.45996-.49023-1.18555-.68262-1.85449-.43066-.29395,.11133-.54004,.2959-.72363,.52441-.1709-.38086-.47266-.68262-.8584-.85547-.41797-.18945-.88379-.20312-1.30566-.04102-.28711,.1084-.53418,.28809-.72168,.52148l-1.53223-4.04395c-.33594-.88086-1.33008-1.3252-2.2041-.99121-.88086,.33398-1.32617,1.32227-.99316,2.2041l2.39258,6.3125-.31738-.25879c-.72852-.59766-1.80957-.48633-2.40527,.24316-.28809,.35254-.4209,.79688-.375,1.25195,.04395,.43652,.24707,.83008,.57422,1.11523,.83105,1.12988,4.12109,5.45862,6.54736,6.71283l-.61572,.23444c-.21875,.08398-.3291,.32812-.24609,.54785l.8418,2.22852c.04004,.10547,.12012,.19043,.22266,.2373,.05566,.02441,.11523,.03711,.1748,.03711,.05078,0,.10254-.00879,.15137-.02734l8.73145-3.32422c.21875-.08398,.3291-.32812,.24609-.54785l-.84082-2.22852ZM4.33206,14.52842c-.02148-.0293-.0459-.05566-.07422-.07812-.17676-.14453-.28613-.34961-.30957-.5791s.04395-.45312,.1875-.62891c.16992-.20801,.41797-.31641,.66699-.31641,.19141,0,.38379,.06348,.54297,.19336l1.5459,1.26367c.14648,.12109,.36035,.12793,.5166,.01562s.21777-.31543,.14941-.49512l-2.95508-7.79688c-.16797-.44336,.05664-.94043,.5-1.1084,.43652-.16797,.93945,.05469,1.10742,.49805l2.05566,5.4248c.08398,.21973,.33105,.33008,.54785,.24707,.21973-.08301,.33008-.32812,.24707-.54785l-.00098-.00293c-.08008-.21289-.07227-.44531,.02148-.6543,.09473-.20996,.26465-.37012,.47949-.45117,.21094-.08105,.44434-.07422,.65527,.02051,.20996,.09473,.37012,.26465,.45117,.47754l.48633,1.2832c.08398,.21973,.3291,.33008,.54785,.24707,.21973-.08301,.33008-.32812,.24707-.54785v-.00098c-.16699-.44336,.05664-.94043,.5-1.10742,.43652-.16895,.93945,.05469,1.10742,.49805l.26367,.69727c.08301,.21973,.32715,.33105,.54785,.24707,.21973-.08301,.33008-.32812,.24707-.54785-.16797-.44336,.05664-.93945,.49902-1.10742,.21484-.08105,.44824-.07324,.65723,.02051,.20996,.09473,.37012,.26465,.45117,.47754l1.25293,3.29395c.12988,.69824,.50293,5.47852-1.64355,6.17285l-4.30176,1.62988c-1.23828,.46973-4.94336-3.66406-7.19727-6.7373Zm6.5166,9.56738l-.54102-1.43359,7.9375-3.02148,.54102,1.43359-7.9375,3.02148Z"/><path class="cls-1" d="M2.85159,1.57432c.26562-.1748,.55469-.32227,.85938-.4375,2.28516-.86621,4.84766,.28809,5.71484,2.57324,.41602,1.09863,.38184,2.29492-.09668,3.36914-.09473,.21484,.00098,.46582,.21582,.56152,.05664,.02441,.11523,.03613,.17285,.03613,.16211,0,.31738-.09375,.38867-.25195,.56934-1.28027,.61035-2.70703,.11426-4.01562C9.1885,.68565,6.12893-.6874,3.41018,.3419c-.36328,.1377-.70801,.31348-1.02539,.52148-.19629,.12891-.25098,.39258-.12207,.58887,.12988,.19531,.3916,.24902,.58887,.12207Z"/><path class="cls-1" d="M3.65334,9.87413c.09766-.21387,.00293-.46582-.20996-.56348-1.07031-.48828-1.88867-1.3623-2.30469-2.45996-.2627-.69336-.34863-1.44336-.24805-2.16992,.03223-.2334-.12988-.44727-.3623-.47949-.23926-.03027-.44727,.13086-.47949,.36328-.12012,.86719-.01758,1.76172,.29492,2.58691,.49512,1.30859,1.4707,2.35059,2.74609,2.93262,.05762,.02637,.11719,.03809,.17676,.03809,.16113,0,.31543-.0918,.38672-.24805Z"/><path class="cls-1" d="M1.42288,3.07048c.20703-.14624,.25586-.43237,.10938-.63904-.146-.20667-.43213-.25562-.63867-.10938-.20703,.1463-.25586,.43237-.10938,.63904,.146,.20667,.43213,.25562,.63867,.10938Z"/><path class="cls-1" d="M19.14748,.97276h.83789l-5.91992,5.91992c-.16602,.16602-.16602,.43555,0,.60156,.08301,.08301,.19238,.12402,.30078,.12402s.21777-.04102,.30078-.12402L20.53225,1.62901v.72852c0,.23438,.19043,.4248,.4248,.4248s.4248-.19043,.4248-.4248V.54796c0-.23438-.19043-.4248-.4248-.4248h-1.80957c-.23438,0-.4248,.19043-.4248,.4248s.19043,.4248,.4248,.4248Z"/><path class="cls-1" d="M15.17873,3.86631c1.02734,0,1.86328-.83594,1.86328-1.86328s-.83594-1.86328-1.86328-1.86328-1.8623,.83594-1.8623,1.86328,.83496,1.86328,1.8623,1.86328Zm0-2.87695c.55859,0,1.01367,.45508,1.01367,1.01367s-.45508,1.01367-1.01367,1.01367-1.0127-.45508-1.0127-1.01367,.4541-1.01367,1.0127-1.01367Z"/><path class="cls-1" d="M19.60549,4.25401c-1.02734,0-1.86328,.83496-1.86328,1.8623s.83594,1.86328,1.86328,1.86328,1.86328-.83594,1.86328-1.86328-.83594-1.8623-1.86328-1.8623Zm0,2.87598c-.55859,0-1.01367-.45508-1.01367-1.01367s.45508-1.0127,1.01367-1.0127,1.01367,.4541,1.01367,1.0127-.45508,1.01367-1.01367,1.01367Z"/></g></g></svg>