<?xml version="1.0" encoding="UTF-8"?><svg id="Layer_2" xmlns="http://www.w3.org/2000/svg" viewBox="0 0 29.50809 24.3457"><defs><style>.cls-1{fill:#783cbe;}</style></defs><g id="Layer_1-2"><g><path class="cls-1" d="M28.92836,15.94727l-3.36426,1.30859-1.20166-2.80859-.07471-.1748-1.33838-3.12793-.45068-1.05371,3.43555-1.44629c.21582-.09082,.31738-.33984,.22656-.55664-.09082-.21582-.34375-.31641-.55664-.22656l-3.70215,1.55872-5.00684-1.18567c-.84961-.17383-1.62305-.28711-2.47656,.08984l-1.33496,.58661c-2.27979-.49323-4.90088-.34509-5.4458-.30634l-3.73389-1.57324c-.21582-.08984-.46484,.00977-.55664,.22656-.09082,.2168,.01074,.46582,.22656,.55664l3.43555,1.44727-3.06543,7.16504-3.36426-1.30957c-.21777-.08398-.46484,.02344-.55078,.24219-.08496,.21875,.02344,.46484,.24219,.55078l3.74805,1.45801c.05078,.01953,.10254,.02832,.1543,.02832,.16504,0,.32227-.09668,.39062-.25781l.38623-.90265c.31641,.23029,.80029,.58954,1.40479,1.05853l-.03906,.04333c-.23926,.26855-.35645,.61426-.32812,.97363,.02734,.3584,.19629,.68164,.47559,.91016,.21631,.17767,.47119,.26184,.72949,.29193-.06396,.18945-.09082,.39136-.07617,.59674,.0293,.40625,.21484,.77637,.52246,1.04199,.29004,.25098,.64355,.37402,.99609,.37402,.14014,0,.27832-.02679,.41406-.06573,.05713,.30847,.18359,.60663,.42969,.83624,.29004,.26953,.66016,.40332,1.0293,.40332,.13037,0,.25928-.02277,.38623-.05597,.05371,.28918,.16992,.56897,.39795,.78644,.2793,.2666,.6416,.39941,1.00293,.39941,.36523,0,.72656-.14276,1.00684-.41364l.50977,.48981c.29785,.28613,.69043,.43945,1.0918,.43945,.16992,0,.34277-.02734,.50977-.08398,.38721-.12994,.68408-.39502,.86475-.74738,.20508,.08197,.41748,.14008,.63623,.15167,.03906,.00195,.0791,.00293,.12012,.00293,.58594,0,1.37207-.24121,2.01367-1.29199,.00244-.00366,.00195-.00793,.00439-.01166,.04834,.00323,.09521,.01459,.14404,.01459,.16602,0,.33301-.01855,.49902-.05664,.70898-.16351,1.2627-.66278,1.53369-1.38965,.10059-.00226,.20215-.01044,.30322-.03223,.55371-.11719,.99609-.50586,1.18262-1.03906,.16895-.47949,.08105-1.00195-.23633-1.39746l-.16064-.20129,2.42285-.76971,.20264,.47394c.06836,.16113,.22559,.25781,.39062,.25781,.05176,0,.10352-.00879,.1543-.02832l3.74805-1.45703c.21875-.08496,.32715-.33203,.24219-.55078-.08496-.21973-.33301-.32715-.55078-.24219Zm-14.16797-6.8457c.57129-.25098,1.11035-.20898,1.95215-.03809l4.9209,1.16602,1.11279,2.60083,.61768,1.44318c-1.17822,.6991-2.26025,.79187-3.19678,.58344-.01318-.00305-.0293-.00568-.04199-.00873-.15332-.03577-.30078-.08289-.44629-.13348-.00684-.00269-.02881-.01044-.03174-.0116s-.00586,.00055-.00879-.00055c-1.78711-.6405-2.93262-2.28961-3.01367-2.40961-.53125-.72559-1.09668-1.09277-1.68555-1.09277-.03809,0-.07715,.00195-.11523,.00488-.96289,.07812-1.50781,1.10156-1.58008,1.24805-.2998,.72852-.66406,1.17871-1.08105,1.33691-.30176,.11133-.63867,.07812-1.00879-.10352-.15625-.07617-.23535-.26953-.18262-.44824l.52051-1.78613c.19336-.66406,.66797-1.20605,1.30078-1.48535l1.96777-.86523Zm-7.9248,9.14355c-.01074-.12598,.03027-.24707,.11426-.34082l.07471-.08368c.24756,.19678,.51221,.41125,.78564,.63495l-.04199,.04736c-.19629,.22363-.5332,.25195-.7666,.06055-.09766-.0791-.15625-.19238-.16602-.31836Zm1.35938,2.26465c-.13574-.11816-.21777-.28125-.23047-.45996s.04492-.35254,.16309-.48828l.4248-.48969c.3335,.28027,.67725,.57294,1.03418,.88446l-.19238,.20972c0,.00024-.00049,.00055-.00049,.00079l-.26514,.28925c-.24805,.26953-.6582,.29199-.93359,.05371Zm1.86328,1.16504c-.26562-.2478-.28223-.6662-.0376-.93378l.20361-.22198c.32129,.28711,.65039,.58832,.98242,.89673l-.21484,.22778c-.24902,.2627-.66797,.27832-.93359,.03125Zm1.82129,1.14062c-.22803-.21777-.2417-.5708-.0459-.81171,.22363,.21283,.44775,.42828,.67383,.6496l.18066,.17371c-.2334,.20154-.58496,.2038-.80859-.0116Zm10.03418-3.23535c-.08887,.25488-.29297,.43359-.55762,.49023-.26562,.05664-.52734-.02832-.70996-.22168l-3.99805-4.24316c-.16113-.1709-.42969-.17969-.60059-.01855s-.17969,.43066-.01855,.60059l3.99805,4.24316c.11279,.11938,.24316,.21149,.38037,.28992-.15723,.38843-.4834,.67737-.90186,.77356-.46387,.10645-.93652-.03418-1.2627-.37695l-3.36523-3.51953c-.16309-.16895-.43066-.1748-.60156-.01367-.16895,.16309-.17578,.43164-.01367,.60156l3.36523,3.51953c.16553,.17291,.3584,.30475,.56152,.41284-.34814,.4848-.75146,.74524-1.22852,.69849-.32422-.0166-.65332-.18555-.9043-.46387l-2.7832-3.09082c-.15723-.17578-.42578-.18848-.59961-.03125-.1748,.15625-.18848,.42578-.03125,.59961l2.7832,3.09082c.04199,.04669,.09033,.08258,.13477,.12524-.0957,.26215-.31348,.37518-.41699,.40991-.2627,.0918-.54199,.02734-.74316-.16309l-1.30078-1.25c-.33398-.32697-.66455-.64154-.99268-.95013-.00195-.00177-.00244-.00421-.00439-.00592-.00195-.00183-.00439-.00226-.00635-.00403-.5498-.5163-1.08789-1.00482-1.6084-1.46466-.00244-.00262-.00342-.00629-.00635-.00885-.00342-.00305-.00781-.00385-.01123-.00677-.58789-.51886-1.15283-1.00238-1.67969-1.44049-.00244-.00201-.00293-.00488-.00537-.00684-.00244-.00226-.00586-.00269-.00879-.00488-.02246-.01886-.04639-.03888-.06885-.05756-.00195-.00171-.00244-.00421-.00439-.00592-.00293-.00244-.00635-.00299-.00928-.00537-.52002-.43073-.99707-.81384-1.43066-1.15515-.00146-.00134-.00195-.00323-.00342-.00452-.00293-.00262-.00684-.00317-.00977-.00574-.91016-.716-1.59814-1.2229-1.95654-1.48138l2.56299-5.99152c.61719-.03583,2.29248-.09894,3.96826,.11536-.54639,.40985-.95312,.98578-1.14893,1.65527l-.52051,1.78613c-.16895,.5791,.09375,1.18945,.62402,1.4502,.58203,.28516,1.16406,.33301,1.68457,.13477,.64648-.24512,1.17383-.85352,1.55176-1.77637,.10254-.19922,.46094-.72363,.87891-.75684,.37891-.04102,.78418,.38672,1.03516,.72949,.02002,.02942,1.14111,1.64862,2.94531,2.50592,.01074,.01794,.01514,.0379,.02832,.05463l2.91211,3.65332c.13281,.16602,.16992,.38379,.09863,.58496Zm-.14648-2.0332l-1.26465-1.7627c.86914,.11816,2.08301,.07617,3.21777-.67676l.68457,1.60059-2.6377,.83887Z"/><path class="cls-1" d="M8.03041,2.24493c.15967-.17041,.15088-.43799-.01953-.59772-.17041-.15967-.43799-.15094-.59766,.01947s-.15088,.43799,.01953,.59766,.43799,.151,.59766-.01941Z"/><path class="cls-1" d="M14.51235,6.05566c.23438,0,.4248-.19043,.4248-.4248V.4248c0-.23438-.19043-.4248-.4248-.4248s-.4248,.19043-.4248,.4248V5.63086c0,.23438,.19043,.4248,.4248,.4248Z"/><path class="cls-1" d="M16.73403,6.00293c.09082,0,.18164-.02832,.25781-.08691l4.75488-3.63867c.18652-.14258,.22266-.41016,.08008-.5957-.1416-.18652-.41016-.2207-.5957-.08008l-4.75488,3.63867c-.18652,.14258-.22266,.41016-.08008,.5957,.08398,.10938,.20996,.16699,.33789,.16699Z"/><path class="cls-1" d="M12.19399,5.91895c.07617,.05664,.16504,.08398,.25391,.08398,.12891,0,.25684-.05859,.34082-.1709,.14062-.1875,.10156-.4541-.08691-.59473l-3.55859-2.6543c-.1875-.13867-.45312-.10352-.59473,.08691-.14062,.1875-.10156,.4541,.08691,.59473l3.55859,2.6543Z"/></g></g></svg>