<?xml version="1.0" encoding="UTF-8"?><svg id="Layer_2" xmlns="http://www.w3.org/2000/svg" viewBox="0 0 14.95168 23.01074"><defs><style>.cls-1{fill:#783cbe;}</style></defs><g id="Layer_1-2"><g><path class="cls-1" d="M13.20753,8.19824h-.00781c-.36914,0-.72266,.11523-1.01758,.32812-.08691-.2168-.2168-.41699-.3877-.58887-.33008-.33301-.76855-.5166-1.23535-.51855h-.00488c-.32812,0-.63477,.09082-.89746,.24805-.01953-.43457-.19727-.8418-.50781-1.1543-.33008-.33301-.76855-.5166-1.23438-.51758-.35645,.01074-.63184,.08496-.90137,.24609l.01562-4.48438c.00391-.96484-.77832-1.75293-1.74414-1.75684h-.00488c-.96191,0-1.74707,.78125-1.75098,1.74414l-.02441,7.0166-.23535-.41016c-.23242-.40527-.6084-.69531-1.06152-.81836-.4541-.12207-.9248-.06152-1.32715,.16895-.82031,.46973-1.11621,1.50781-.67871,2.33691,.10254,.38086,.77344,2.82422,1.68848,5.21875,.08496,.2207,.33398,.32715,.54883,.24609,.21973-.08398,.3291-.33008,.24609-.54883-.97461-2.5498-1.66797-5.1582-1.6748-5.18359-.00977-.03613-.02344-.07031-.04199-.10254-.24609-.43066-.09668-.98242,.33398-1.22852,.20898-.11914,.45117-.14941,.68359-.08691,.23242,.06348,.42676,.21289,.54492,.41992l1.02344,1.78711c.09668,.16699,.29395,.25098,.47754,.2002,.18652-.0498,.31641-.2168,.31641-.40918l.03027-8.60254c.00195-.49609,.40625-.89844,.90137-.89844h.00195c.23926,.00098,.46484,.0957,.63477,.26758s.26367,.39746,.2627,.63574l-.02148,5.98535c-.00098,.23535,.18848,.42578,.42285,.42676h.00195c.23438,0,.42383-.18945,.4248-.42285,.00098-.23926,.0957-.46484,.26758-.63477,.16992-.16992,.39453-.2627,.63281-.2627h.00391c.23926,.00098,.46387,.0957,.63379,.2666s.26367,.39746,.2627,.63574l-.00488,1.41504c-.00098,.23535,.18848,.42578,.42285,.42676h.00195c.23438,0,.42383-.18945,.4248-.42285,.00195-.49512,.40625-.89746,.90137-.89746h.00195c.23926,.00098,.46484,.0957,.63477,.26758,.16992,.1709,.26367,.39746,.2627,.63672l-.00195,.76953c-.00098,.23438,.18945,.42578,.42383,.42578h.00098c.23438,0,.4248-.18945,.4248-.42383,.00098-.23828,.0957-.46387,.2666-.63379,.1709-.16895,.39453-.2627,.63281-.2627h.00391c.23926,.00098,.46387,.0957,.63477,.2666,.16992,.17188,.2627,.39844,.2627,.63672l-.01074,3.65234c-.11719,.80762-1.39648,6.08203-3.66602,6.08203-.02539,0-.05176-.00098-.07715-.00195l-4.74805-.01758c-.1748-.00098-.66895-.15332-1.47754-1.55762-.11719-.2041-.37793-.27441-.58008-.15625-.2041,.11719-.27344,.37695-.15625,.58008,.271,.4704,.53662,.85114,.79834,1.15283l-.7124-.00146h-.00098c-.2334,0-.42383,.18848-.4248,.42285l-.01172,2.45801c-.00098,.11328,.04395,.22168,.12305,.30176,.08008,.08008,.1875,.125,.30078,.125l9.64062,.01953h.00098c.2334,0,.42383-.18848,.4248-.42285l.01172-2.45801c.00098-.11328-.04395-.22168-.12305-.30176-.08008-.08008-.1875-.125-.30078-.125l-.80957-.00165c1.89697-1.82806,2.63477-6.0141,2.63477-6.04718l.01367-3.7002c.00098-.46582-.17969-.90625-.50977-1.23828-.33008-.33301-.76855-.5166-1.23438-.51758Zm-.53027,13.96191l-8.79102-.01758,.00781-1.6084,8.79102,.01758-.00781,1.6084Z"/><path class="cls-1" d="M3.33839,16.77026c0-.24683-.19971-.44641-.44678-.44641-.24658,0-.44629,.19958-.44629,.44641s.19971,.44635,.44629,.44635c.24707,0,.44678-.19952,.44678-.44635Z"/></g></g></svg>