<?xml version="1.0" encoding="UTF-8"?><svg id="Layer_2" xmlns="http://www.w3.org/2000/svg" viewBox="0 0 21.25869 25.04785"><defs><style>.cls-1{fill:#783cbe;}</style></defs><g id="Layer_1-2"><g><path class="cls-1" d="M17.99502,19.34863c-.03906-.10547-.11816-.19238-.21973-.24023-.10352-.04688-.21777-.0498-.32617-.01367l-.60938,.22333c.98779-2.16956,.32422-5.91724,.3125-5.94794l-1.15625-3.16797c-.30859-.84668-1.25098-1.2832-2.09277-.97461-.31152,.11328-.5752,.31543-.76465,.58008-.43359-.45605-1.11328-.63965-1.74512-.41113-.26367,.0957-.49219,.25488-.67188,.46191-.35254-.76074-1.24316-1.13965-2.03906-.8457-.26074,.0957-.48828,.25195-.66699,.45703l-1.37891-3.77832c-.30859-.84668-1.25-1.28418-2.09277-.97461-.8457,.30859-1.2832,1.24707-.97461,2.09277l2.14355,5.87695-.22363-.1875c-.33398-.2793-.75879-.41699-1.19141-.37305-.43555,.03809-.8291,.24219-1.1084,.57617-.56445,.6748-.49023,1.67676,.1582,2.26172,1.0957,1.55096,4.15332,5.68622,6.40918,6.95026l-.55664,.20404c-.21973,.08105-.33301,.32422-.25293,.54492l.76562,2.10547c.03906,.10547,.11816,.19238,.21973,.24023,.05762,.02637,.11816,.03906,.17969,.03906,.0498,0,.09863-.00879,.14648-.02539l8.24902-3.02344c.21973-.08105,.33301-.32422,.25293-.54492l-.76562-2.10547ZM4.0126,14.43164c-.02148-.0293-.04688-.05664-.07422-.08008-.33105-.27734-.37402-.77246-.09668-1.10449,.13281-.1582,.32129-.25586,.53027-.27441,.02344-.00195,.04688-.00293,.07031-.00293,.18457,0,.36035,.0625,.50195,.18164l1.43848,1.20508c.14648,.12207,.35938,.13281,.5166,.02148,.15723-.11035,.2207-.3125,.15527-.49316l-2.68652-7.36621c-.14746-.40527,.06152-.85547,.4668-1.00293,.40332-.14844,.85547,.06152,1.00293,.4668l1.87012,5.12402v.00098c.08105,.21973,.3291,.33398,.54492,.25293,.2207-.08105,.33398-.3252,.25391-.54492v-.00098c-.07129-.19434-.0625-.40625,.02637-.59668s.24512-.33496,.44043-.40625c.40527-.14941,.85645,.06055,1.00293,.4668l.44238,1.21191c.08105,.22168,.32715,.33496,.54492,.25391,.2207-.08105,.33398-.32422,.25391-.54492-.07129-.19531-.06152-.4082,.02734-.59863,.08789-.19043,.24414-.33398,.43945-.40527,.40332-.14746,.85547,.0625,1.00391,.4668l.23926,.65527c0,.00098,.00098,.00293,.00098,.00391,.08105,.22168,.3252,.33496,.54492,.25391,.2207-.08008,.33398-.32422,.25391-.54492l-.00098-.00293c-.07031-.19434-.06055-.40527,.02832-.5957,.08789-.19043,.24414-.33398,.43945-.40527,.40527-.14844,.85547,.06055,1.00293,.4668l1.14258,3.12012c.15332,.73242,.72168,5.72266-1.25977,6.33691l-4.06543,1.48242c-.99121,.37109-4.4248-3.34375-7.00195-7.00098Zm6.35352,9.64551l-.47559-1.30664,7.45117-2.73047,.47559,1.30664-7.45117,2.73047Z"/><path class="cls-1" d="M2.76455,2.2666c.24707-.1582,.51953-.29199,.80762-.39844,1.03809-.37793,2.16504-.33105,3.16699,.13574,1.00293,.46777,1.76465,1.29688,2.14355,2.33594,.37598,1.03027,.33105,2.14844-.12793,3.14746-.09863,.21387-.00488,.46582,.20801,.56348,.05762,.02734,.11816,.03906,.17773,.03906,.16113,0,.31445-.0918,.38574-.24707,.55371-1.20508,.6084-2.55273,.15527-3.79395-.45703-1.25293-1.37402-2.25195-2.58301-2.81543-1.20996-.56152-2.56445-.62207-3.81836-.16309-.34766,.12695-.6748,.28906-.97461,.48145-.19727,.12598-.25488,.38867-.12793,.58691,.12695,.19629,.38965,.25391,.58691,.12793Z"/><path class="cls-1" d="M3.0458,10.31348c.15918,0,.31152-.08984,.38477-.24316,.09961-.21289,.00879-.46582-.2041-.56641-.99414-.46777-1.74902-1.29395-2.125-2.3252-.2373-.64941-.30859-1.35254-.20703-2.03223,.03516-.23145-.125-.44824-.35742-.48242-.21191-.04102-.44824,.12402-.48242,.35742-.12305,.81836-.03711,1.66602,.24805,2.44824,.4541,1.24316,1.36426,2.23926,2.5625,2.80371,.05762,.02734,.12012,.04004,.18066,.04004Z"/><path class="cls-1" d="M21.23428,.30365c-.00488-.0152-.00439-.03223-.01074-.04669-.00928-.02179-.02734-.03949-.04004-.05975-.01758-.02631-.03174-.05432-.05469-.07617-.00146-.00171-.00195-.00409-.00391-.0058-.0166-.01562-.03711-.02209-.05566-.03455-.02588-.01776-.0498-.03741-.0791-.04913-.03271-.01288-.06641-.01575-.10059-.02032-.01904-.00262-.03613-.01123-.05566-.01123h-3.77734c-.23438,0-.4248,.19043-.4248,.4248s.19043,.4248,.4248,.4248h2.79688l-4.2207,4.50195-1.57715-.32227c-.12402-.02441-.25488,.00586-.35352,.08691l-3.1123,2.53613c-.18164,.14746-.20898,.41602-.06055,.59766,.08398,.10254,.20605,.15625,.3291,.15625,.09473,0,.18945-.03125,.26855-.0957l2.95605-2.4082,1.6123,.3291c.14551,.03027,.29395-.01758,.39453-.125L20.40908,1.49915v2.703c0,.23438,.19043,.4248,.4248,.4248s.4248-.19043,.4248-.4248V.4248c0-.00214-.00098-.00397-.00098-.0061-.00098-.03937-.01221-.07715-.02344-.11505Z"/><path class="cls-1" d="M1.15664,3.72925c.24707,0,.44629-.19952,.44629-.44635s-.19922-.44641-.44629-.44641c-.24658,0-.44629,.19958-.44629,.44641s.19971,.44635,.44629,.44635Z"/></g></g></svg>