<?xml version="1.0" encoding="UTF-8"?><svg id="Layer_2" xmlns="http://www.w3.org/2000/svg" viewBox="0 0 20.58545 25.00293"><defs><style>.cls-1{fill:#783cbe;}</style></defs><g id="Layer_1-2"><g><path class="cls-1" d="M10.31787,16.53418c1.01172,0,1.83398-.82227,1.83398-1.83398,0-.86401-.60254-1.58569-1.40918-1.77844v-2.53015c0-.23438-.19043-.4248-.4248-.4248s-.4248,.19043-.4248,.4248v2.53027c-.80566,.19287-1.4082,.91443-1.4082,1.77832,0,1.01172,.82227,1.83398,1.83301,1.83398Zm0-2.81738c.54297,0,.98438,.44141,.98438,.9834,0,.54297-.44141,.98438-.98438,.98438-.54199,0-.9834-.44141-.9834-.98438,0-.54199,.44141-.9834,.9834-.9834Z"/><path class="cls-1" d="M19.42334,7.33789c.64648-.66016,.64648-1.69434-.00293-2.35742-.61719-.61719-1.73047-.625-2.35156,0l-1.15771,1.15674c-1.08154-.70605-2.30176-1.21533-3.61279-1.47266v-1.50439h.34473c.63184,0,1.14648-.51465,1.14648-1.14648v-.86621c0-.63281-.51465-1.14746-1.14648-1.14746H7.97314c-.63184,0-1.14648,.51465-1.14648,1.14746v.86621c0,.63184,.51465,1.14648,1.14648,1.14648h.32031v1.51428c-1.33789,.26538-2.58936,.78235-3.69141,1.51794l-1.21191-1.21191c-.30859-.30762-.73535-.48438-1.1709-.48438-.44824,0-.86816,.17188-1.18359,.4873-.64746,.66016-.64746,1.69434,.00293,2.3584l1.12988,1.13013c-.86377,1.12744-1.50342,2.44946-1.84668,3.90991-.04395,.18848-.08301,.37988-.11719,.57227-.04004,.23145,.11426,.45117,.3457,.49219,.23145,.03613,.45117-.11523,.49219-.3457,.03027-.17676,.06738-.35254,.10742-.52441,.33838-1.44043,.99658-2.72913,1.88135-3.81177,.00586-.00513,.01367-.00684,.01904-.01245,.01465-.01489,.02148-.03418,.03369-.05054,1.74072-2.09204,4.34961-3.38306,7.23389-3.38306,5.19336,0,9.41797,4.22461,9.41797,9.41797,0,5.19238-4.22461,9.41699-9.41797,9.41699-4.45508,0-8.33496-3.16211-9.22559-7.51953l-.03223-.14844c-.00977-.03711-.00977-.04492-.02539-.15527-.03125-.2334-.26562-.40137-.47754-.36426-.23242,.03125-.39551,.24512-.36426,.47754,.02246,.1709,.02637,.18164,.04004,.23828l.02734,.12305c.9707,4.75098,5.20117,8.19824,10.05762,8.19824,5.66211,0,10.26758-4.60547,10.26758-10.2666,0-2.39673-.83154-4.59888-2.21289-6.34778l1.05078-1.05066ZM7.67627,2.01367v-.86621c0-.16406,.13281-.29785,.29688-.29785h4.66992c.16406,0,.29688,.13379,.29688,.29785v.86621c0,.16406-.13281,.29688-.29688,.29688H7.97314c-.16406,0-.29688-.13281-.29688-.29688ZM2.71631,7.81641l-1.07324-1.07324c-.32031-.32617-.32031-.83789-.00293-1.16113,.29492-.29785,.8418-.30762,1.14844,0l1.11865,1.11877c-.42529,.33923-.82373,.71179-1.19092,1.1156Zm6.42676-3.27356v-1.33484h2.30566v1.32642c-.37207-.04089-.74854-.06567-1.13086-.06567-.39746,0-.78809,.03027-1.1748,.0741Zm7.46777,2.09778l1.05957-1.05957c.30664-.30469,.85547-.29297,1.14551-.00195,.32031,.32617,.31934,.83789,.00293,1.16113l-1.00391,1.00317c-.37207-.39868-.77344-.76733-1.2041-1.10278Z"/><path class="cls-1" d="M3.25195,14.74841c.0127,1.86389,.75537,3.55457,1.95264,4.80823,.01709,.02759,.02979,.05713,.05371,.08105,.01465,.01477,.03418,.021,.05029,.0332,1.2749,1.2782,3.03711,2.07031,4.98096,2.07031,3.88281,0,7.04102-3.1582,7.04102-7.04102,0-3.88184-3.1582-7.04004-7.04102-7.04004-3.88184,0-7.04004,3.1582-7.04004,7.04004,0,.00977,.00146,.01904,.00146,.02881,0,.00269-.00146,.00476-.00146,.00732,0,.00427,.00244,.00781,.00244,.01208Zm11.09814-4.71033l-.5918,.59082c-.16602,.16602-.16602,.43457,0,.60156,.08301,.08301,.19238,.12402,.30078,.12402s.21777-.04102,.30078-.12402l.5918-.59082c.86328,.98987,1.41504,2.25415,1.5083,3.64453h-.70264c-.23438,0-.4248,.19043-.4248,.4248s.19043,.4248,.4248,.4248h.70166c-.09814,1.40649-.6665,2.68213-1.55029,3.67505l-.54883-.5481c-.16602-.16602-.43555-.16602-.60156,0-.16602,.16699-.16602,.43555,0,.60156l.54443,.5437c-.97363,.83179-2.20654,1.36401-3.56006,1.46265v-.65479c0-.23438-.19043-.4248-.4248-.4248s-.4248,.19043-.4248,.4248v.65771c-1.42139-.09082-2.71143-.66113-3.71289-1.55371l.45605-.45557c.16602-.16602,.16602-.43457,0-.60156-.16602-.16602-.43555-.16602-.60156,0l-.45166,.45093c-.8291-.97168-1.36035-2.20117-1.46045-3.55054h.64941c.23438,0,.4248-.19043,.4248-.4248s-.19043-.4248-.4248-.4248h-.65332c.08496-1.35474,.60156-2.59363,1.42139-3.57483l.49463,.49377c.08301,.08301,.19238,.12402,.30078,.12402s.21777-.04102,.30078-.12402c.16602-.16699,.16602-.43555,0-.60156l-.50293-.50256c1.09961-1.00061,2.55566-1.61658,4.15625-1.61658,1.55371,0,2.97217,.57959,4.06055,1.52832Z"/><path class="cls-1" d="M.89307,14.73621c0-.24683-.19971-.44641-.44629-.44641-.24707,0-.44678,.19958-.44678,.44641s.19971,.44641,.44678,.44641c.24658,0,.44629-.19958,.44629-.44641Z"/></g></g></svg>