<?xml version="1.0" encoding="UTF-8"?><svg id="Layer_2" xmlns="http://www.w3.org/2000/svg" viewBox="0 0 24.11029 25"><defs><style>.cls-1{fill:#783cbe;}</style></defs><g id="Layer_1-2"><g><circle class="cls-1" cx="12.81589" cy="5.7063" r=".44695"/><g><path class="cls-1" d="M17.12695,22.27344c-2.14355,0-6.49023-3.59082-7.95898-4.86035-.33789-.18164-.5918-.48047-.71777-.84766-.13184-.38574-.10742-.79883,.07129-1.16309,.36621-.75391,1.28125-1.06836,2.03711-.7002l.10938,.05273-3.09863-4.59766c-.46973-.69629-.28516-1.64551,.41211-2.11523,.69238-.46875,1.64453-.28418,2.11523,.41309l2.00781,2.98047c.1123-.19727,.27051-.37207,.4707-.50684,.64355-.43457,1.50293-.30957,2.00098,.2627,.1123-.20117,.27246-.37988,.47656-.51758,.33496-.22656,.74219-.30957,1.14258-.23047,.17676,.03418,.3418,.09766,.49121,.18652,.11133-.25684,.2959-.48633,.54492-.6543,.69043-.46582,1.62988-.28906,2.10352,.39648l1.33301,1.66211c1.82129,2.79883,1.7959,6.77637,1.15234,7.34961l-3.99121,2.70312c-.19141,.12793-.42871,.18652-.70215,.18652Zm-7.23438-6.875c-.07422,0-.14844,.01172-.22168,.03711-.16992,.05859-.30762,.17969-.38574,.33984-.16309,.33398-.02441,.73828,.30957,.90137,.0332,.0166,.06445,.03613,.0918,.06055,3.06348,2.65332,6.8584,5.18848,7.66699,4.64453l3.88379-2.625c.25586-.55762,.29688-3.83496-1.25781-6.22559l-1.31836-1.64062c-.00684-.00879-.01367-.01855-.02051-.02832-.20801-.30664-.625-.39062-.93457-.18164-.30762,.20703-.38965,.625-.18359,.93359l.00098,.00098h0c.13086,.19531,.0791,.45898-.11523,.58984-.19629,.13086-.45898,.08008-.58984-.11523l-.35645-.5293c-.09961-.14844-.25195-.24902-.42871-.2832-.17969-.03516-.3584,.00098-.50586,.10156-.30762,.20703-.38965,.62695-.18164,.93457h0c.13086,.19434,.08008,.45898-.11523,.58984-.18945,.12988-.45801,.08105-.58984-.11523-.00098-.00098-.00195-.00293-.00293-.00391l-.65234-.96875c-.09961-.14746-.25293-.24902-.43066-.2832-.17773-.03613-.35645,.00195-.50488,.10156-.14746,.09961-.24902,.25293-.2832,.42969s.00098,.35547,.10059,.50293l.00098,.00195c.13086,.19434,.08008,.45898-.11523,.58984-.19043,.13086-.45801,.08105-.58984-.11523h0l-2.77148-4.11328c-.20703-.30664-.62598-.38965-.93555-.18262-.30762,.20801-.38965,.62695-.18164,.93555l3.98438,5.91309c.10742,.15918,.09473,.37109-.03223,.5166-.12598,.14453-.33691,.18652-.50684,.10254l-1.53418-.74902c-.0918-.04492-.19238-.06738-.29297-.06738Zm11.64551,3.66797h0Z"/><path class="cls-1" d="M17.74219,25c-.13184,0-.2627-.06152-.3457-.17773l-1.30664-1.82812c-.06543-.0918-.0918-.20605-.07324-.31738,.01855-.1123,.08105-.21094,.17383-.27637l5.94336-4.20703c.19043-.13379,.4541-.0918,.59082,.09961l1.30664,1.82812c.06543,.0918,.0918,.20605,.07324,.31738-.01855,.1123-.08105,.21094-.17383,.27637l-5.94336,4.20703c-.07422,.05273-.16016,.07812-.24512,.07812Zm-.71289-2.15234l.8125,1.13574,5.25-3.71582-.8125-1.13574-5.25,3.71582Z"/></g><path class="cls-1" d="M11.61035,21.62793H1.82422c-1.00586,0-1.82422-.81836-1.82422-1.82422V1.82422C0,.81836,.81836,0,1.82422,0H11.38477c1.00586,0,1.82422,.81836,1.82422,1.82422V3.96094c0,.23438-.19043,.4248-.4248,.4248s-.4248-.19043-.4248-.4248V1.82422c0-.53711-.4375-.97461-.97461-.97461H1.82422c-.53711,0-.97461,.4375-.97461,.97461V19.80371c0,.53711,.4375,.97461,.97461,.97461H11.61035c.23438,0,.4248,.19043,.4248,.4248s-.19043,.4248-.4248,.4248Z"/><path class="cls-1" d="M12.78418,2.73926H.4248c-.23438,0-.4248-.19043-.4248-.4248s.19043-.4248,.4248-.4248H12.78418c.23438,0,.4248,.19043,.4248,.4248s-.19043,.4248-.4248,.4248Z"/><path class="cls-1" d="M8.40527,18.91211H.4248c-.23438,0-.4248-.19043-.4248-.4248s.19043-.4248,.4248-.4248h7.98047c.23438,0,.4248,.19043,.4248,.4248s-.19043,.4248-.4248,.4248Z"/><path class="cls-1" d="M7.24609,20.28711h-1.2832c-.23438,0-.4248-.19043-.4248-.4248s.19043-.4248,.4248-.4248h1.2832c.23438,0,.4248,.19043,.4248,.4248s-.19043,.4248-.4248,.4248Z"/><g><path class="cls-1" d="M3.07031,16.25293c-.30273,0-.59766-.08887-.85547-.25977-.34473-.22852-.5791-.5791-.66113-.98535-.08203-.40527,0-.81836,.22852-1.16309,.22949-.34473,.58008-.5791,.98633-.66113,.82617-.16895,1.65332,.37402,1.82422,1.21289v.00098c.16797,.83691-.37695,1.65625-1.21387,1.8252-.10254,.02051-.20605,.03027-.30859,.03027Zm.00391-2.25c-.0459,0-.0918,.00488-.13867,.01465-.18359,.03613-.3418,.14258-.44531,.29785s-.13965,.3418-.10254,.52539c.03613,.18359,.14258,.34082,.29785,.44434,.15527,.10449,.34082,.1416,.52539,.10352,.37793-.07617,.62402-.44629,.54785-.8252-.06738-.33105-.35938-.56055-.68457-.56055Z"/><path class="cls-1" d="M5.77832,7.52832c-.72363,0-1.37207-.50977-1.51953-1.24414-.08203-.40625,0-.81934,.22852-1.16406,.22949-.34473,.5791-.58008,.98535-.66211,.83594-.16992,1.65527,.37598,1.8252,1.21387h0c.08203,.40625,0,.81934-.22852,1.16406-.22949,.34473-.5791,.58008-.98535,.66211-.10254,.02051-.20508,.03027-.30566,.03027Zm0-2.25c-.0459,0-.0918,.00391-.1377,.01367-.37891,.07617-.625,.44629-.54785,.82422,.0752,.37891,.4502,.62695,.82324,.54785,.37891-.07617,.625-.44629,.54785-.82422h0c-.06641-.33203-.35938-.56152-.68555-.56152Z"/><path class="cls-1" d="M13.92578,9.86523c-.72266,0-1.37207-.50977-1.52051-1.24414-.16797-.83887,.37695-1.65723,1.21387-1.8252,.41016-.08203,.81934,0,1.16406,.22852,.34473,.22949,.5791,.5791,.66113,.98535h0c.16895,.83691-.375,1.65527-1.21289,1.8252-.10254,.02051-.2041,.03027-.30566,.03027Zm.00098-2.25c-.0459,0-.09277,.00488-.13965,.01465-.37793,.0752-.62402,.44531-.54785,.82422,.0752,.37793,.44141,.625,.8252,.54688,.37695-.07617,.62305-.44531,.5459-.82324v-.00098c-.03613-.18262-.14258-.34082-.29785-.44434-.11621-.07715-.24902-.11719-.38574-.11719Z"/><path class="cls-1" d="M12.58984,8.54004c-.05371,0-.10938-.00977-.16211-.03223l-5.65918-2.33496c-.2168-.08887-.32031-.33789-.23047-.55469s.34082-.32227,.55469-.23047l5.65918,2.33496c.2168,.08887,.32031,.33789,.23047,.55469-.06738,.16406-.22559,.2627-.39258,.2627Z"/><path class="cls-1" d="M3.38574,13.97461c-.0293,0-.06055-.00293-.09082-.00977-.22949-.0498-.375-.27637-.32422-.50586l1.50977-6.88281c.0498-.22949,.27051-.37695,.50586-.32422,.22949,.0498,.375,.27637,.32422,.50586l-1.50977,6.88281c-.04395,.19922-.21973,.33398-.41504,.33398Z"/><path class="cls-1" d="M15.1709,8.15918c-.12207,0-.24316-.05176-.32715-.15332-.14941-.18066-.125-.44922,.05566-.59863l4.41895-3.66211c.18164-.14844,.4502-.12598,.59863,.05566,.14941,.18066,.125,.44922-.05566,.59863l-4.41895,3.66211c-.08008,.06543-.17578,.09766-.27148,.09766Z"/><path class="cls-1" d="M20.20996,5.9668c-.22559,0-.41406-.17773-.4248-.40527l-.0752-1.63281-1.55078,.03418c-.27539,.00488-.42969-.18066-.43457-.41504-.00488-.23535,.18066-.42969,.41504-.43457l1.96582-.04395h.00977c.22656,0,.41406,.17773,.4248,.40527l.09473,2.04785c.01074,.23438-.1709,.43359-.40527,.44434h-.01953Z"/></g></g></g></svg>