<?xml version="1.0" encoding="UTF-8"?><svg id="Layer_2" xmlns="http://www.w3.org/2000/svg" viewBox="0 0 15.62678 25.03906"><defs><style>.cls-1{fill:#783cbe;}</style></defs><g id="Layer_1-2"><g><path class="cls-1" d="M0,7.31565c0-.2468,.19956-.44636,.44638-.44636H.44638c.24682,0,.44638,.19956,.44638,.44636,0,.24684-.19956,.44639-.44638,.44639s-.44638-.19956-.44638-.44639"/><g><path class="cls-1" d="M1.91156,25.03906c-1.04199,0-1.88965-.84766-1.88965-1.88965V9.11816c0-.23438,.19043-.4248,.4248-.4248s.4248,.19043,.4248,.4248v14.03125c0,.57324,.4668,1.04004,1.04004,1.04004H13.7973c-.01562-.00781,.96582-.25781,.93945-.94141,.10156-1.11328-.02246-8.00879-.02344-8.07812V1.88965c0-.57324-.4668-1.04004-1.04004-1.04004H1.91156c-.57324,0-1.04004,.4668-1.04004,1.04004v3.63672c0,.23438-.19043,.4248-.4248,.4248s-.4248-.19043-.4248-.4248V1.88965C.02191,.84766,.86957,0,1.91156,0H13.67328c1.04199,0,1.88965,.84766,1.88965,1.88965V15.16211c.00488,.27832,.12598,7.00586,.02148,8.10938,.04492,1.0752-1.04297,1.61621-1.69238,1.75781l-11.98047,.00977Z"/><path class="cls-1" d="M13.22309,20.81543H2.25336c-.23438,0-.4248-.19043-.4248-.4248s.19043-.4248,.4248-.4248H13.22309c.23438,0,.4248,.19043,.4248,.4248s-.19043,.4248-.4248,.4248Z"/><path class="cls-1" d="M13.22309,3.77148H2.25336c-.23438,0-.4248-.19043-.4248-.4248s.19043-.4248,.4248-.4248H13.22309c.23438,0,.4248,.19043,.4248,.4248s-.19043,.4248-.4248,.4248Z"/></g><g><path class="cls-1" d="M7.55902,15.13184c-1.20996,0-2.19336-.9834-2.19336-2.19336,0-.23438,.19043-.4248,.4248-.4248s.4248,.19043,.4248,.4248c0,.74121,.60254,1.34375,1.34375,1.34375s1.34473-.60254,1.34473-1.34375c0-.64453-.40039-1.01367-1.47656-1.36523-.50977-.16699-2.06152-.6748-2.06152-2.17383,0-1.20996,.9834-2.19336,2.19336-2.19336s2.19434,.9834,2.19434,2.19336c0,.23438-.19043,.4248-.4248,.4248s-.4248-.19043-.4248-.4248c0-.74121-.60352-1.34375-1.34473-1.34375s-1.34375,.60254-1.34375,1.34375c0,.41113,.16797,.9375,1.47559,1.36523,.95996,.31348,2.0625,.84375,2.0625,2.17383,0,1.20996-.98438,2.19336-2.19434,2.19336Z"/><path class="cls-1" d="M7.55902,8.06738c-.23438,0-.4248-.19043-.4248-.4248v-.99805c0-.23438,.19043-.4248,.4248-.4248s.4248,.19043,.4248,.4248v.99805c0,.23438-.19043,.4248-.4248,.4248Z"/><path class="cls-1" d="M7.55902,16.12988c-.23438,0-.4248-.19043-.4248-.4248v-.99805c0-.23438,.19043-.4248,.4248-.4248s.4248,.19043,.4248,.4248v.99805c0,.23438-.19043,.4248-.4248,.4248Z"/></g></g></g></svg>