<?xml version="1.0" encoding="UTF-8"?><svg id="Layer_2" xmlns="http://www.w3.org/2000/svg" viewBox="0 0 27.64687 24.98438"><defs><style>.cls-1{fill:#783cbe;}</style></defs><g id="Layer_1-2"><g><path class="cls-1" d="M22.50527,14.32422h2.58008c.23438,0,.4248-.19043,.4248-.4248s-.19043-.4248-.4248-.4248h-2.58008c-.23438,0-.4248,.19043-.4248,.4248s.19043,.4248,.4248,.4248Z"/><path class="cls-1" d="M15.42714,14.32422h.86523v.86523c0,.23438,.19043,.4248,.4248,.4248s.4248-.19043,.4248-.4248v-.86523h.86523c.23438,0,.4248-.19043,.4248-.4248s-.19043-.4248-.4248-.4248h-.86523v-.86523c0-.23438-.19043-.4248-.4248-.4248s-.4248,.19043-.4248,.4248v.86523h-.86523c-.23438,0-.4248,.19043-.4248,.4248s.19043,.4248,.4248,.4248Z"/><path class="cls-1" d="M17.31874,21.15332l.61133-.61133c.16602-.16602,.16602-.43555,0-.60156s-.43555-.16602-.60156,0l-.61133,.61133-.61133-.61133c-.16602-.16602-.43555-.16602-.60156,0s-.16602,.43555,0,.60156l.61133,.61133-.61133,.61133c-.16602,.16602-.16602,.43555,0,.60156,.08301,.08301,.19238,.12402,.30078,.12402s.21777-.04102,.30078-.12402l.61133-.61133,.61133,.61133c.08301,.08301,.19238,.12402,.30078,.12402s.21777-.04102,.30078-.12402c.16602-.16602,.16602-.43555,0-.60156l-.61133-.61133Z"/><path class="cls-1" d="M24.80898,20.69727h-2.58008c-.23438,0-.4248,.19043-.4248,.4248s.19043,.4248,.4248,.4248h2.58008c.23438,0,.4248-.19043,.4248-.4248s-.19043-.4248-.4248-.4248Z"/><path class="cls-1" d="M23.54433,20.40723c.13086,0,.26172-.0498,.36133-.14746,.09668-.0957,.15234-.22852,.15234-.36523,0-.1123-.07129-.2832-.15039-.36328-.19727-.19629-.51953-.19727-.72656,0-.2002,.2002-.2002,.52637,.00488,.73047,.09961,.09668,.22949,.14551,.3584,.14551Z"/><path class="cls-1" d="M23.54824,21.9248h-.00195c-.11328,0-.28516,.07031-.36523,.15039-.19727,.19727-.19922,.52148,.00488,.73047,.09961,.09668,.22949,.14551,.3584,.14551,.13184,0,.26367-.0498,.36328-.14941,.09766-.09863,.15137-.22852,.15039-.36719-.00098-.10938-.07031-.27637-.14648-.35449-.09668-.09961-.22559-.1543-.36328-.15527Z"/><path class="cls-1" d="M10.88124,19.00684H1.75234c-.23438,0-.4248,.19043-.4248,.4248s.19043,.4248,.4248,.4248H10.88124c.23438,0,.4248-.19043,.4248-.4248s-.19043-.4248-.4248-.4248Z"/><path class="cls-1" d="M1.75234,2.56055c-.23438,0-.4248,.19043-.4248,.4248s.19043,.4248,.4248,.4248H13.56874c.23438,0,.4248-.19043,.4248-.4248s-.19043-.4248-.4248-.4248H1.75234Z"/><path class="cls-1" d="M.0414,1.89941v2.3877c0,.23438,.19043,.4248,.4248,.4248s.4248-.19043,.4248-.4248V1.89941c0-.5791,.4707-1.0498,1.04883-1.0498H13.7748c.5791,0,1.0498,.4707,1.0498,1.0498v6.29297c0,.23438,.19043,.4248,.4248,.4248s.4248-.19043,.4248-.4248V1.89941c0-1.04785-.85156-1.89941-1.89941-1.89941H1.93984C.89296,0,.0414,.85156,.0414,1.89941Z"/><path class="cls-1" d="M10.88124,23.06152H1.76699c-.48242,0-.87598-.39355-.87598-.87598V7.87012c0-.23438-.19043-.4248-.4248-.4248s-.4248,.19043-.4248,.4248v14.31543c0,.95117,.77441,1.72559,1.72559,1.72559H10.88124c.23438,0,.4248-.19043,.4248-.4248s-.19043-.4248-.4248-.4248Z"/><path class="cls-1" d="M11.50722,7.15137h-1.80176c-.23438,0-.4248,.19043-.4248,.4248s.19043,.4248,.4248,.4248h.76611l-3.13818,2.86328-1.44727-1.17285c-.16113-.13184-.39551-.125-.55078,.01367l-3.13574,2.80664c-.1748,.15625-.19043,.4248-.0332,.59961,.08398,.09375,.2002,.1416,.31641,.1416,.10059,0,.20215-.03516,.2832-.1084l2.86621-2.56445,1.4502,1.1748c.16309,.13281,.40039,.12695,.55371-.0166l3.44629-3.14539v.78503c0,.23438,.19043,.4248,.4248,.4248s.4248-.19043,.4248-.4248v-1.80176c0-.23438-.19043-.4248-.4248-.4248Z"/><path class="cls-1" d="M.433,6.56897c.2583,.01965,.4834-.17346,.50293-.43164,.02002-.25818-.17334-.48328-.43164-.50305-.25781-.01978-.4834,.17346-.50293,.43164-.01953,.25806,.17334,.48328,.43164,.50305Z"/><path class="cls-1" d="M26.39492,9.66113H13.71914c-.69043,0-1.25195,.56152-1.25195,1.25195v12.81836c0,.69141,.56152,1.25293,1.25195,1.25293h12.67578c.69043,0,1.25195-.56152,1.25195-1.25293V10.91309c0-.69043-.56152-1.25195-1.25195-1.25195Zm.40234,1.25195v6.17578h-6.04297v-6.33203c0-.09375-.03662-.17578-.08789-.24609h5.72852c.22168,0,.40234,.18066,.40234,.40234Zm-13.07812-.40234h6.27344c-.05127,.07031-.08789,.15234-.08789,.24609v6.33203h-6.44824c-.04932,0-.09521,.01257-.13965,.0282v-6.20398c0-.22168,.18066-.40234,.40234-.40234Zm-.40234,13.2207v-5.82129c.04443,.01562,.09033,.02832,.13965,.02832h6.44824v6.19629h-6.18555c-.22168,0-.40234-.18066-.40234-.40332Zm13.07812,.40332h-5.64062v-6.19629h6.04297v5.79297c0,.22266-.18066,.40332-.40234,.40332Z"/></g></g></svg>