<?xml version="1.0" encoding="UTF-8"?><svg id="Layer_2" xmlns="http://www.w3.org/2000/svg" viewBox="0 0 23.78541 24.97363"><defs><style>.cls-1{fill:#783cbe;}</style></defs><g id="Layer_1-2"><g><path class="cls-1" d="M18.09693,24.97363c-1.60254,0-3.20508-.20801-4.76367-.62305-.54492-.14551-.9248-.64062-.9248-1.2041v-.98047c0-.23438,.19043-.4248,.4248-.4248s.4248,.19043,.4248,.4248v.98047c0,.17871,.12109,.33594,.29395,.38184,2.97461,.79492,6.11621,.79395,9.09082,.00098,.17188-.04688,.29297-.2041,.29297-.38281v-.98047c0-.23438,.19043-.4248,.4248-.4248s.4248,.19043,.4248,.4248v.98047c0,.56348-.37988,1.05859-.92383,1.20312-1.55859,.41602-3.16113,.62402-4.76465,.62402Z"/><path class="cls-1" d="M18.09693,21.96289c-1.60254,0-3.20508-.20801-4.76367-.62402-.54492-.14453-.9248-.63965-.9248-1.20312v-.98047c0-.23438,.19043-.4248,.4248-.4248s.4248,.19043,.4248,.4248v.98047c0,.17871,.12109,.33594,.29395,.38184,2.97461,.79492,6.11621,.79395,9.09082,.00098,.17188-.04688,.29297-.2041,.29297-.38281v-.98047c0-.23438,.19043-.4248,.4248-.4248s.4248,.19043,.4248,.4248v.98047c0,.56348-.37988,1.05859-.92383,1.20312-1.55859,.41602-3.16113,.62402-4.76465,.62402Z"/><path class="cls-1" d="M18.09693,18.95215c-1.60254,0-3.20508-.20801-4.76367-.62305-.54492-.14551-.9248-.64062-.9248-1.2041v-.98047c0-.23438,.19043-.4248,.4248-.4248s.4248,.19043,.4248,.4248v.98047c0,.17871,.12109,.33594,.29395,.38184,2.97461,.79492,6.11621,.79395,9.09082,.00098,.17188-.04688,.29297-.2041,.29297-.38281v-.98047c0-.23438,.19043-.4248,.4248-.4248s.4248,.19043,.4248,.4248v.98047c0,.56348-.37988,1.05859-.92383,1.20312-1.55859,.41602-3.16113,.62402-4.76465,.62402Z"/><path class="cls-1" d="M18.09693,16.27832c-2.74023,0-5.68848-.59961-5.68848-1.91602,0-1.31543,2.94824-1.91504,5.68848-1.91504s5.68848,.59961,5.68848,1.91504c0,1.31641-2.94824,1.91602-5.68848,1.91602Zm0-2.98145c-3.14355,0-4.83887,.75586-4.83887,1.06543s1.69531,1.06641,4.83887,1.06641,4.83887-.75684,4.83887-1.06641-1.69531-1.06543-4.83887-1.06543Z"/><path class="cls-1" d="M7.15748,13.71387c-.97559,0-1.89551-.37305-2.5957-1.05469-.71387-.69336-1.11523-1.62402-1.12891-2.61914-.01465-.99512,.35938-1.93652,1.05273-2.65039s1.62402-1.11426,2.61914-1.12891c.01758,0,.03516-.00098,.05371-.00098,.86621,0,1.70605,.30176,2.37207,.85352,.18164,.14941,.20703,.41699,.05664,.59766-.15039,.18164-.41602,.20605-.59766,.05664-.52344-.43359-1.1709-.66406-1.87305-.65723-1.58496,.02344-2.85645,1.33203-2.83398,2.91797,.01074,.76855,.32031,1.48633,.87109,2.02148,.55078,.53613,1.29492,.7998,2.04688,.81348,.68066-.00977,1.33887-.2627,1.85156-.71191,.17871-.15332,.44727-.13574,.60059,.04004,.1543,.17676,.13574,.44531-.04004,.60059-.66504,.58105-1.51758,.9082-2.40039,.9209-.01855,0-.03711,.00098-.05469,.00098Z"/><g><path class="cls-1" d="M6.75709,9.73633H3.04029c-.23438,0-.4248-.19043-.4248-.4248s.19043-.4248,.4248-.4248h3.7168c.23438,0,.4248,.19043,.4248,.4248s-.19043,.4248-.4248,.4248Z"/><path class="cls-1" d="M6.75709,11.10352H3.04029c-.23438,0-.4248-.19043-.4248-.4248s.19043-.4248,.4248-.4248h3.7168c.23438,0,.4248,.19043,.4248,.4248s-.19043,.4248-.4248,.4248Z"/></g><path class="cls-1" d="M12.52173,12.97266c-.23438,0-.4248-.19043-.4248-.4248V1.62988c0-.42969-.35059-.78027-.78027-.78027H1.64088c-.42969,0-.78027,.35059-.78027,.78027v2.7002c0,.23438-.19043,.4248-.4248,.4248S.01099,4.56445,.01099,4.33008V1.62988C.01099,.73145,.74244,0,1.64088,0H11.31666c.89844,0,1.62988,.73145,1.62988,1.62988V12.54785c0,.23438-.19043,.4248-.4248,.4248Z"/><path class="cls-1" d="M11.42115,20.74805H1.64088C.74244,20.74805,.01099,20.01758,.01099,19.11914V7.88086c0-.23438,.19043-.4248,.4248-.4248s.4248,.19043,.4248,.4248v11.23828c0,.42969,.35059,.7793,.78027,.7793H11.42115c.23438,0,.4248,.19043,.4248,.4248s-.19043,.4248-.4248,.4248Z"/><path class="cls-1" d="M16.51978,11.35938c-.0918,0-.18457-.0293-.2627-.09082-.18457-.14453-.2168-.41211-.07129-.59668l2.33203-2.9668-1.2627-2.53613c-.07227-.14551-.05469-.32031,.04395-.44922L20.42506,.66211c.14355-.18652,.40918-.2207,.59668-.07715,.18555,.14355,.21973,.41016,.07715,.59668l-2.96387,3.84668,1.26367,2.53906c.07324,.14746,.05469,.32324-.04688,.45215l-2.49805,3.17773c-.08398,.10645-.20801,.16211-.33398,.16211Z"/><path class="cls-1" d="M16.24634,11.61719c-.21484,0-.39941-.16309-.42188-.38184l-.18652-1.84766c-.02344-.2334,.14648-.44238,.37988-.46582,.22363-.0166,.44141,.14648,.46582,.37988l.14355,1.4248,1.39258-.13965c.22559-.0293,.44141,.14648,.46582,.37988,.02344,.23438-.14648,.44238-.37988,.46582l-1.81543,.18262c-.01465,.00098-.0293,.00195-.04395,.00195Z"/><path class="cls-1" d="M10.94556,17.27344H1.92213c-.23438,0-.4248-.19043-.4248-.4248s.19043-.4248,.4248-.4248H10.94556c.23438,0,.4248,.19043,.4248,.4248s-.19043,.4248-.4248,.4248Z"/><path class="cls-1" d="M10.94556,3.25391H1.92213c-.23438,0-.4248-.19043-.4248-.4248s.19043-.4248,.4248-.4248H10.94556c.23438,0,.4248,.19043,.4248,.4248s-.19043,.4248-.4248,.4248Z"/><path class="cls-1" d="M16.91236,3.75684c-.98242,0-1.78223-.7998-1.78223-1.78223s.7998-1.78223,1.78223-1.78223,1.78223,.7998,1.78223,1.78223-.7998,1.78223-1.78223,1.78223Zm0-2.71484c-.51367,0-.93262,.41895-.93262,.93262s.41895,.93262,.93262,.93262,.93262-.41895,.93262-.93262-.41895-.93262-.93262-.93262Z"/><path class="cls-1" d="M21.35963,6.89355c-.98242,0-1.78223-.7998-1.78223-1.78223s.7998-1.78223,1.78223-1.78223,1.78223,.7998,1.78223,1.78223-.7998,1.78223-1.78223,1.78223Zm0-2.71484c-.51367,0-.93262,.41895-.93262,.93262s.41895,.93262,.93262,.93262,.93262-.41895,.93262-.93262-.41895-.93262-.93262-.93262Z"/><circle class="cls-1" cx=".43549" cy="6.09366" r=".43547"/></g></g></svg>