<?xml version="1.0" encoding="UTF-8"?><svg id="Layer_2" xmlns="http://www.w3.org/2000/svg" viewBox="0 0 23.83496 25.00586"><defs><style>.cls-1{fill:#783cbe;}</style></defs><g id="Layer_1-2"><g><path class="cls-1" d="M12.91602,25.00586H1.45605c-.80273,0-1.45605-.64941-1.45605-1.44727V1.44727C0,.64941,.65332,0,1.45605,0H12.91602c.80273,0,1.45605,.64941,1.45605,1.44727V3.95898c0,.23438-.19043,.4248-.4248,.4248s-.4248-.19043-.4248-.4248V1.44727c0-.3291-.27246-.59766-.60645-.59766H1.45605c-.33398,0-.60645,.26855-.60645,.59766V23.55859c0,.3291,.27246,.59766,.60645,.59766H12.91602c.33398,0,.60645-.26855,.60645-.59766V15.52539c0-.23438,.19043-.4248,.4248-.4248s.4248,.19043,.4248,.4248v8.0332c0,.79785-.65332,1.44727-1.45605,1.44727Z"/><path class="cls-1" d="M7.18652,23.29297c-.91406,0-1.65723-.73828-1.65723-1.64551s.74316-1.64551,1.65723-1.64551c.91309,0,1.65625,.73828,1.65625,1.64551s-.74316,1.64551-1.65625,1.64551Zm0-2.44141c-.44531,0-.80762,.35742-.80762,.7959s.3623,.7959,.80762,.7959c.44434,0,.80664-.35742,.80664-.7959s-.3623-.7959-.80664-.7959Z"/><path class="cls-1" d="M11.90332,4.36035H2.22949c-.23438,0-.4248-.19043-.4248-.4248s.19043-.4248,.4248-.4248H11.90332c.23438,0,.4248,.19043,.4248,.4248s-.19043,.4248-.4248,.4248Z"/><path class="cls-1" d="M7.83105,2.60547h-1.29004c-.23438,0-.4248-.19043-.4248-.4248s.19043-.4248,.4248-.4248h1.29004c.23438,0,.4248,.19043,.4248,.4248s-.19043,.4248-.4248,.4248Z"/><path class="cls-1" d="M8.52051,15.98828c-.0957,0-.19043-.03223-.26758-.09473-.13184-.10645-.1875-.28125-.1416-.44434l.79785-2.86914V6.83496c0-.71973,.66602-1.30469,1.48535-1.30469h7.94434c.23438,0,.4248,.19043,.4248,.4248s-.19043,.4248-.4248,.4248h-7.94434c-.33887,0-.63574,.21289-.63574,.45508v5.80273c0,.03809-.00488,.07715-.01562,.11426l-.55078,1.98242,3.06152-1.59375c.06055-.03125,.12793-.04785,.19629-.04785h9.89941c.33887,0,.63574-.21289,.63574-.45508V6.83496c0-.24219-.29688-.45508-.63574-.45508h-.25098c-.23438,0-.4248-.19043-.4248-.4248s.19043-.4248,.4248-.4248h.25098c.81934,0,1.48535,.58496,1.48535,1.30469v5.80273c0,.71973-.66602,1.30469-1.48535,1.30469H12.55469l-3.83789,1.99805c-.06152,.03223-.12891,.04785-.19629,.04785Z"/><g><path class="cls-1" d="M16.16016,11.0625c-.82227,0-1.49023-.66406-1.49023-1.48047s.66797-1.48047,1.49023-1.48047,1.49023,.66406,1.49023,1.48047-.66797,1.48047-1.49023,1.48047Zm0-2.11133c-.35352,0-.64062,.2832-.64062,.63086s.28711,.63086,.64062,.63086,.64062-.2832,.64062-.63086-.28711-.63086-.64062-.63086Z"/><path class="cls-1" d="M19.98828,11.0625c-.82227,0-1.49023-.66406-1.49023-1.48047s.66797-1.48047,1.49023-1.48047,1.49023,.66406,1.49023,1.48047-.66797,1.48047-1.49023,1.48047Zm0-2.11133c-.35352,0-.64062,.2832-.64062,.63086s.28711,.63086,.64062,.63086,.64062-.2832,.64062-.63086-.28711-.63086-.64062-.63086Z"/><path class="cls-1" d="M12.37109,11.0625c-.82129,0-1.48926-.66406-1.48926-1.48047s.66797-1.48047,1.48926-1.48047c.82227,0,1.49023,.66406,1.49023,1.48047s-.66797,1.48047-1.49023,1.48047Zm0-2.11133c-.35254,0-.63965,.2832-.63965,.63086s.28711,.63086,.63965,.63086c.35352,0,.64062-.2832,.64062-.63086s-.28711-.63086-.64062-.63086Z"/></g><path class="cls-1" d="M11.36133,19.37207h-.00098l-9.13184-.02051c-.23438,0-.4248-.19141-.42383-.42578,0-.23438,.19043-.42383,.4248-.42383h.00098l9.13184,.02051c.23438,0,.4248,.19141,.42383,.42578,0,.23438-.19043,.42383-.4248,.42383Z"/><circle class="cls-1" cx="20.17082" cy="5.95989" r=".48727"/></g></g></svg>