<?xml version="1.0" encoding="UTF-8"?><svg id="Layer_2" xmlns="http://www.w3.org/2000/svg" viewBox="0 0 27.10038 24.96487"><defs><style>.cls-1{fill:#783cbe;}</style></defs><g id="Layer_1-2"><g><path class="cls-1" d="M22.95107,9.44388c-.07471-.06506-.16992-.10791-.27686-.10791h-.00195l-9.03516,.03772c-.04932-.00977-.09717-.0116-.14648-.00403l-9.00879-.0376h-.00195c-.09375,0-.17578,.03613-.24609,.0874-.01562,.00708-.03223,.00806-.04688,.01709L.20253,11.88284c-.15918,.09766-.23633,.28906-.18848,.46973,.04785,.18164,.20801,.31055,.39453,.31738l10.10059,.38477h.0166c.10742,0,.21191-.04102,.29102-.11523l2.36621-2.21875v13.26172l-8.27832-2.21484v-5.86816c0-.23438-.19043-.4248-.4248-.4248s-.4248,.19043-.4248,.4248v6.19434c0,.19238,.12891,.36035,.31543,.41016l9.08691,2.4314c.03076,.00708,.05566,.02954,.08789,.02954,.01514,0,.03076-.00439,.0459-.0061,.00586,.00024,.01074,.0022,.0166,.0022,.00781,0,.01367-.00684,.02148-.0072,.00879-.00183,.01758-.0011,.02637-.00354l9.12891-2.44336c.18555-.0498,.31445-.21777,.31445-.41016V12.79129l3.59277-.13696c.18652-.00684,.34668-.13574,.39453-.31738,.04785-.18066-.0293-.37207-.18848-.46973l-3.94678-2.42334Zm-12.58643,2.75439l-8.52246-.32422,2.75586-1.69189,7.88232,.03271-2.11572,1.9834Zm11.88477,9.57227l-8.2168,2.19946V10.81253l2.25195,2.11133c.0791,.07422,.18359,.11523,.29102,.11523h.0166l5.65723-.21558v8.94702Zm-5.5127-9.58789l-2.09473-1.96387,7.89258-.03259,2.72363,1.67224-8.52148,.32422Z"/><path class="cls-1" d="M8.08242,3.14944c-.0918,.16406-.06445,.36914,.06543,.50391l.75195,.77637c-.16602,.43359-.26758,.88477-.30469,1.34473l-1.0127,.37793c-.17676,.06641-.28809,.24023-.27539,.42773,.04492,.66113,.19336,1.30469,.44043,1.91016,.06738,.16504,.22559,.26465,.39355,.26465,.05371,0,.10742-.00977,.16016-.03125,.21777-.08887,.32227-.33691,.2334-.55371-.17383-.42676-.29102-.87402-.34961-1.33496l.96875-.36133c.16309-.06152,.27344-.21582,.27637-.38965,.01074-.54395,.13086-1.07422,.35742-1.57422,.07129-.15918,.03906-.34473-.08203-.4707l-.71973-.74316c.19238-.30078,.41406-.58105,.66309-.83691l.88672,.53223c.14844,.08984,.33789,.0791,.47656-.02637,.43555-.33203,.9248-.56836,1.4541-.70312,.16895-.04297,.29492-.18457,.31738-.35742l.13184-1.02637c.35742-.03711,.71387-.03906,1.06738-.00293l.1377,1.02539c.02246,.17285,.14844,.31348,.31738,.35547,.26465,.06641,.52051,.15918,.76465,.27637,.24414,.11621,.47656,.25781,.69238,.42188,.1377,.10449,.32812,.11426,.47754,.02441l.88379-.53613c.25,.25488,.47363,.53418,.66699,.83398l-.71582,.74707c-.13281,.1377-.15625,.34863-.05762,.5127,.00195,.00293,.18066,.30469,.26172,.60645,.09961,.37207,.10156,.6875,.09473,.79688-.02246,.07812-.02246,.16211,.00195,.24316,.04395,.1416,.15723,.24609,.29102,.28418l.93945,.3457c-.05566,.45801-.1709,.90625-.34473,1.33594-.08691,.21777,.01758,.46582,.23535,.55371,.21973,.08594,.46484-.01855,.55371-.23535,.24609-.61328,.39258-1.25684,.43262-1.91406,.01172-.1875-.10059-.36035-.27734-.4248l-.97168-.35742c-.00391-.30957-.08008-.64551-.13379-.84766-.05273-.19531-.13086-.38379-.2002-.53125l.72949-.76172c.12988-.13477,.15527-.33984,.06348-.50293-.32422-.57422-.7373-1.08984-1.22559-1.53223-.14062-.12695-.3457-.14453-.50586-.04785l-.92383,.56055c-.19238-.12891-.39355-.24316-.60059-.3418-.20703-.09961-.42285-.18555-.64453-.25488l-.14355-1.07227c-.02441-.18555-.16895-.33301-.35352-.36328-.64648-.10254-1.30664-.09961-1.96094,.00488-.18555,.03125-.3291,.17969-.35352,.36523l-.1377,1.07324c-.44141,.13965-.85742,.34082-1.24219,.60059l-.92773-.55664c-.16016-.09766-.36621-.07617-.50586,.05078-.48535,.44434-.89551,.96094-1.21777,1.53613Z"/><path class="cls-1" d="M13.60781,3.50979c-1.40723-.05566-2.63086,1.03125-2.70117,2.45215-.06836,1.41992,1.03125,2.63184,2.45215,2.70117,.04199,.00195,.08398,.00293,.12598,.00293,1.36523,0,2.50781-1.07617,2.5752-2.45508,.06836-1.41992-1.03125-2.63184-2.45215-2.70117Zm1.03809,3.85742c-.34277,.31055-.79785,.4707-1.24609,.44629-.46094-.02246-.88672-.22266-1.19727-.56445s-.46875-.78516-.44629-1.24609c.04492-.92383,.81152-1.64551,1.72754-1.64551,.02734,0,.05469,0,.08301,.00195,.95215,.0459,1.69043,.8584,1.64355,1.81055-.02246,.46094-.22266,.88672-.56445,1.19727Z"/><path class="cls-1" d="M4.329,14.5845c.22754,.08496,.48096-.03101,.56592-.25879s-.03125-.4812-.25879-.56604c-.22803-.08484-.48145,.03113-.56592,.25891-.08496,.22766,.03076,.4812,.25879,.56592Z"/></g></g></svg>