<?xml version="1.0" encoding="UTF-8"?><svg id="Layer_2" xmlns="http://www.w3.org/2000/svg" viewBox="0 0 26.53337 25.01172"><defs><style>.cls-1{fill:#783cbe;}</style></defs><g id="Layer_1-2"><g><path class="cls-1" d="M19.22559,6.38574c.16602-.16602,.16602-.43555,0-.60156-1.79492-1.79395-4.18164-2.78223-6.7207-2.78223C7.26465,3.00195,3.00098,7.26562,3.00098,12.50586c0,5.24121,4.26367,9.50488,9.50391,9.50488,2.53809,0,4.9248-.98828,6.72168-2.7832,.08008-.08008,.125-.18945,.12402-.30371-.00098-.11328-.04688-.22266-.12793-.30176l-6.19727-6.03516,6.2002-6.20117Zm-.91211,12.53809c-1.5957,1.44531-3.6416,2.2373-5.80859,2.2373-4.77148,0-8.6543-3.88281-8.6543-8.65527C3.85059,7.73438,7.7334,3.85156,12.50488,3.85156c2.16992,0,4.21777,.79297,5.81152,2.24023l-6.19727,6.19824c-.08008,.08105-.125,.18945-.12402,.30371,.00098,.11328,.04688,.22266,.12793,.30176l6.19043,6.02832Z"/><path class="cls-1" d="M21.45117,20.63574c-.16699-.16211-.43555-.15918-.60059,.00781-2.21387,2.26855-5.17773,3.51855-8.3457,3.51855C6.07812,24.16211,.84961,18.93262,.84961,12.50586c0-2.40234,.72461-4.70801,2.0957-6.66992,.12109-.17383,.24707-.34473,.37793-.51074,.14551-.18457,.11328-.45215-.07129-.59668-.18652-.14746-.45215-.11328-.59668,.07129-.14062,.17969-.27637,.3623-.40723,.5498C.77734,7.4541,0,9.92871,0,12.50586c0,6.89551,5.60938,12.50586,12.50488,12.50586,3.39844,0,6.5791-1.34082,8.95312-3.77441,.16406-.16797,.16113-.4375-.00684-.60156Z"/><path class="cls-1" d="M5.90039,2.90039C7.84668,1.55859,10.13086,.84961,12.50488,.84961c2.87842,0,5.57324,1.02966,7.70068,2.91211l-1.27002-.03027c-.25098,.04102-.42871,.18066-.43457,.41504s.17969,.42871,.41504,.43457l2.36426,.05664h.00977c.05322,0,.10693-.0105,.15723-.03076,.02148-.00842,.03809-.0249,.05811-.03674,.02588-.0155,.05371-.02698,.07666-.04871,.00098-.00098,.00098-.0022,.00195-.00317,.00098-.00073,.00195-.00098,.00293-.00171,.01807-.01758,.02734-.04126,.04199-.06152,.01758-.0249,.03955-.04761,.05127-.07495,.00635-.01465,.00586-.03113,.01025-.04639,.01172-.03809,.02295-.07593,.02344-.11548,0-.00183,.00098-.00342,.00098-.00537V1.7793c0-.23438-.19043-.4248-.4248-.4248s-.4248,.19043-.4248,.4248v1.43933C18.56738,1.14172,15.63916,0,12.50488,0c-2.54688,0-4.99805,.76074-7.08691,2.20117-.19336,.13281-.24219,.39746-.1084,.59082s.40234,.24121,.59082,.1084Z"/><path class="cls-1" d="M4.33252,4.20142c.24365-.06323,.39014-.31226,.32715-.55627-.06348-.24402-.3125-.3905-.55615-.32727-.24414,.06323-.39062,.31238-.32764,.5564,.06348,.2439,.3125,.39038,.55664,.32715Z"/><path class="cls-1" d="M22.17578,12.73242l.54297-1.58789c.61621,1.22363,.66602,1.21289,.95605,1.14355,.14551-.03418,.25879-.1416,.30566-.27637,.04785-.09473,.18848-.32031,.29395-.48633h.11523c.23438,0,.4248-.19043,.4248-.4248s-.19043-.4248-.4248-.4248h-.34766c-.14453,0-.2793,.07324-.35742,.19531-.03027,.0459-.05762,.08984-.08398,.13086-.17969-.35547-.39941-.79492-.57324-1.14551-.07617-.15332-.24707-.2627-.4082-.23535-.17188,.01074-.31934,.12402-.375,.28613l-.53906,1.57617-.20215-.41504c-.07129-.14551-.21973-.23828-.38184-.23828h-.48145c-.23438,0-.4248,.19043-.4248,.4248s.19043,.4248,.4248,.4248h.21582l.53613,1.10156c.07129,.14648,.21973,.23828,.38184,.23828,.00879,0,.01758,0,.02637-.00098,.17188-.00977,.32031-.12305,.37598-.28613Z"/><path class="cls-1" d="M24.81543,16.73438c.00098-.23438-.18848-.42578-.42285-.42676l-3.45312-.0166c-.24316,.02637-.42578,.1875-.42676,.42285-.00098,.23438,.18848,.42578,.42285,.42676l3.45312,.0166h.00195c.2334,0,.42383-.18848,.4248-.42285Z"/><path class="cls-1" d="M18.81055,10.89648c-.02051,.12598-.1582,1.27637,1.29785,2.90527,.41504,.44922,.55664,1.40527,.57715,1.73535,.0127,.22559,.2002,.40039,.42383,.40039,.00781,0,.0166,0,.02441-.00098,.23438-.01367,.41309-.21387,.39941-.44824-.00781-.15234-.10449-1.51074-.7959-2.25781-1.17676-1.31738-1.08691-2.19727-1.08203-2.25293,.06738-2.24902,1.60156-3.04004,2.93457-3.04004,.02441,0,.0498,.00098,.07422,.00098,1.65918,.00195,3.00977,1.35938,3.01367,3.08594,.00098,.00879,.08984,.88867-1.12012,2.24707-.65625,.94531-.69629,2.17773-.69727,2.23047-.00586,.2334,.17871,.42871,.41309,.43555,.23047-.00684,.42871-.17871,.43652-.41309,0-.00977,.03711-1.03516,.51367-1.72754,1.45215-1.62402,1.31445-2.77441,1.2998-2.83203,0-2.13477-1.73145-3.87402-3.84961-3.87598-.03125-.00098-.0625-.00098-.09375-.00098-1.83594,0-3.69336,1.18359-3.76953,3.80859Z"/><path class="cls-1" d="M24.00391,17.80957h-2.67871c-.23438,0-.4248,.19043-.4248,.4248s.19043,.4248,.4248,.4248h2.67871c.23438,0,.4248-.19043,.4248-.4248s-.19043-.4248-.4248-.4248Z"/></g></g></svg>