<?xml version="1.0" encoding="UTF-8"?><svg id="Layer_2" xmlns="http://www.w3.org/2000/svg" viewBox="0 0 25.29102 25.11074"><defs><style>.cls-1{fill:#783cbe;}</style></defs><g id="Layer_1-2"><g><path class="cls-1" d="M2.7373,11.28261c.9375,0,1.7002-.76172,1.7002-1.69922,0-.20679-.04248-.40259-.11035-.58594l4.00098-2.65979c.29785,.2561,.67969,.41663,1.10254,.41663,.58691,0,1.10449-.29858,1.41016-.75195l3.84814,1.37842c-.00391,.04761-.01416,.09351-.01416,.14209,0,.9375,.76172,1.69922,1.69922,1.69922s1.69922-.76172,1.69922-1.69922c0-.2771-.07275-.53503-.19092-.76636l1.67627-1.55884c.17188-.16016,.18164-.42871,.02246-.60059-.16016-.17383-.43066-.18262-.60059-.02246l-1.65576,1.53979c-.27148-.18408-.59863-.29175-.95068-.29175-.58691,0-1.10498,.29919-1.41016,.75293l-3.84814-1.37842c.00391-.04761,.01416-.09351,.01416-.14209,0-.9375-.76172-1.69922-1.69922-1.69922s-1.69922,.76172-1.69922,1.69922c0,.20679,.04248,.40259,.11035,.58594l-4.00146,2.65991c-.29785-.2561-.68018-.41675-1.10303-.41675-.9375,0-1.69922,.76172-1.69922,1.69922s.76172,1.69922,1.69922,1.69922Zm13.63672-4.61035c.46875,0,.84961,.38184,.84961,.85059s-.38086,.84961-.84961,.84961-.84961-.38086-.84961-.84961,.38086-.85059,.84961-.85059Zm-6.94336-2.4668c.46875,0,.84961,.38086,.84961,.84961s-.38086,.84961-.84961,.84961-.84961-.38086-.84961-.84961,.38086-.84961,.84961-.84961ZM2.7373,8.73379c.46875,0,.85059,.38086,.85059,.84961s-.38184,.84961-.85059,.84961-.84961-.38086-.84961-.84961,.38086-.84961,.84961-.84961Z"/><path class="cls-1" d="M22.0498,3.15859c.26758,.16016,.56738,.24219,.87109,.24219,.13867,0,.27734-.0166,.41504-.05176,.90918-.22559,1.46387-1.15039,1.2373-2.05957v-.00098c-.11035-.44043-.38477-.81152-.77441-1.04492-.38965-.23438-.84766-.30273-1.28711-.19141-.44043,.11035-.81152,.38477-1.04492,.77441-.2334,.38867-.30176,.8457-.19141,1.28711,.11035,.44043,.38477,.81055,.77441,1.04492Zm.66895-2.28223c.06836-.0166,.1377-.02539,.20703-.02539,.15234,0,.30176,.04102,.43555,.12109,.19434,.11719,.33203,.30273,.3877,.52344,.1123,.4541-.16406,.91602-.61914,1.0293-.21875,.05273-.44727,.02051-.64258-.0957-.19531-.11719-.33203-.30176-.3877-.52246-.11328-.4541,.16406-.91602,.61914-1.03027Z"/><path class="cls-1" d="M11.47852,9.89394H7.30078c-.23438,0-.4248,.19043-.4248,.4248v14.36719c0,.23438,.19043,.4248,.4248,.4248h4.17773c.23438,0,.4248-.19043,.4248-.4248V10.31875c0-.23438-.19043-.4248-.4248-.4248Zm-.4248,14.36719h-3.32812V10.74355h3.32812v13.51758Z"/><path class="cls-1" d="M4.60254,13.83144H.4248c-.23438,0-.4248,.19043-.4248,.4248v10.42969c0,.23438,.19043,.4248,.4248,.4248H4.60254c.23438,0,.4248-.19043,.4248-.4248V14.25625c0-.23438-.19043-.4248-.4248-.4248Zm-.4248,10.42969H.84961V14.68105h3.32812v9.58008Z"/><path class="cls-1" d="M18.78027,24.68593V12.22597c0-.23438-.19043-.4248-.4248-.4248h-4.17871c-.23438,0-.4248,.19043-.4248,.4248v12.45996c0,.23438,.19043,.4248,.4248,.4248h4.17871c.23438,0,.4248-.19043,.4248-.4248Zm-.84961-.4248h-3.3291V12.65078h3.3291v11.61035Z"/><path class="cls-1" d="M20.32422,7.23769V24.60683c0,.23438,.19043,.4248,.4248,.4248h4.11719c.23438,0,.4248-.19043,.4248-.4248V7.23769c0-.23438-.19043-.4248-.4248-.4248h-4.11719c-.23438,0-.4248,.19043-.4248,.4248Zm.84961,.4248h3.26758V24.18203h-3.26758V7.6625Z"/><path class="cls-1" d="M20.4502,4.17446c.25586,.01953,.479-.17188,.49854-.42773,.01953-.25574-.17188-.479-.42773-.49854s-.479,.172-.49854,.42773c-.01953,.25586,.17188,.479,.42773,.49854Z"/></g></g></svg>