<?xml version="1.0" encoding="UTF-8"?><svg id="Layer_2" xmlns="http://www.w3.org/2000/svg" viewBox="0 0 26.83984 26.99805"><defs><style>.cls-1{fill:#783cbe;}</style></defs><g id="Layer_1-2"><g><path class="cls-1" d="M25.69043,8.9043c0-2.62109-1.98438-4.81836-4.56348-5.1123-1.12988-2.3125-3.48535-3.79199-6.06836-3.79199-2.60254,0-4.95312,1.4834-6.08008,3.80664-.55469-.07715-1.12988-.07031-1.66602,.02051-.23145,.03809-.3877,.25684-.34863,.48926,.03809,.23145,.25293,.38574,.48926,.34863,.54199-.09082,1.13477-.08008,1.69141,.03223,.19531,.03711,.39648-.06445,.47559-.25,.92969-2.18555,3.06445-3.59766,5.43848-3.59766,2.33203,0,4.45117,1.37988,5.39844,3.51562,.06445,.14551,.20312,.24219,.36133,.25195,2.25586,.14453,4.02246,2.02832,4.02246,4.28711,0,.47559-.08203,.95117-.24316,1.41406-.06348,.18262,.00391,.38574,.16504,.49316,.76855,.5127,1.22754,1.36523,1.22754,2.2793,0,1.51172-1.22949,2.74121-2.74121,2.74121H3.59082c-1.51172,0-2.74121-1.22949-2.74121-2.74121,0-1.37988,1.04297-2.54395,2.42578-2.70801,.11426-.01367,.21777-.07227,.28809-.16406,.06934-.0918,.09961-.20703,.08203-.32129-.03223-.21973-.05566-.44336-.05566-.67285,0-1.1084,.25391-1.90625,.84961-2.66797,.14453-.18457,.11133-.45215-.07324-.59668-.18555-.14355-.45117-.11328-.59668,.07324-.71191,.91016-1.0293,1.89453-1.0293,3.19141,0,.13086,.00586,.26074,.0166,.38867-1.59863,.38184-2.75684,1.80957-2.75684,3.47754,0,1.98047,1.61035,3.59082,3.59082,3.59082H13.21777v4.28906c-1.33154,.18896-2.37842,1.23596-2.56738,2.56738H2.15625c-.23438,0-.4248,.19043-.4248,.4248s.19043,.4248,.4248,.4248H10.65039c.20898,1.47144,1.46387,2.61035,2.99219,2.61035s2.7832-1.13892,2.99219-2.61035h8.49316c.23438,0,.4248-.19043,.4248-.4248s-.19043-.4248-.4248-.4248h-8.49316c-.18896-1.33142-1.23584-2.37842-2.56738-2.56738v-4.28906h9.18164c1.98047,0,3.59082-1.61035,3.59082-3.59082,0-1.0918-.49707-2.11426-1.34375-2.79492,.12891-.45703,.19434-.92383,.19434-1.3916Zm-9.8623,15.05859c0,1.20508-.98047,2.18555-2.18555,2.18555s-2.18555-.98047-2.18555-2.18555,.98047-2.18555,2.18555-2.18555,2.18555,.98047,2.18555,2.18555Z"/><path class="cls-1" d="M4.98877,4.71228c-.12549,.2395-.0332,.5354,.20654,.66089,.23926,.12561,.53516,.03308,.66064-.20642s.0332-.5354-.20605-.66089c-.23975-.12549-.53564-.03308-.66113,.20642Z"/></g></g></svg>