<?xml version="1.0" encoding="UTF-8"?><svg id="Layer_2" xmlns="http://www.w3.org/2000/svg" viewBox="0 0 27.70312 22.27344"><defs><style>.cls-1{fill:#783cbe;}</style></defs><g id="Layer_1-2"><g><path class="cls-1" d="M26.51562,9.18555c0-2.70215-2.04883-4.96875-4.71094-5.26855-1.16406-2.3877-3.59473-3.91699-6.26074-3.91699-2.68652,0-5.1123,1.5332-6.27344,3.93457-.56348-.08203-1.15332-.07617-1.72559,.01953-.23145,.03809-.38867,.25684-.34961,.48828,.03809,.23145,.26367,.38574,.48828,.34961,.58496-.0957,1.18945-.08301,1.75195,.0332,.19238,.03906,.39746-.06445,.47656-.25,.96289-2.2627,3.17383-3.72559,5.63184-3.72559,2.41406,0,4.60938,1.42969,5.59082,3.6416,.06445,.14453,.20312,.24121,.36133,.25098,2.33789,.15039,4.16992,2.10254,4.16992,4.44336,0,.49219-.08496,.98438-.25293,1.46387-.06348,.18359,.00391,.38672,.16504,.49414,.79883,.5332,1.27539,1.41797,1.27539,2.36719,0,1.56934-1.27734,2.84668-2.84668,2.84668h-1.39453v-5.05078c0-.48145-.3916-.87305-.87305-.87305H11.25391c-.48145,0-.87305,.3916-.87305,.87305v1.51855h-1.91309c-.48145,0-.87207,.3916-.87207,.87305v1.68945h-.57422c-.40137,0-.72754,.32617-.72754,.72754v.24219H3.69629c-1.56934,0-2.84668-1.27734-2.84668-2.84668,0-1.43359,1.08301-2.6416,2.51855-2.81152,.11426-.01367,.21777-.07227,.28711-.16309,.07031-.09082,.10059-.20605,.08398-.31934-.0332-.22949-.05762-.46094-.05762-.7002,0-1.14844,.26367-1.97559,.87988-2.76562,.14453-.18555,.11133-.45215-.07324-.59668-.18652-.14355-.45215-.1123-.59668,.07324-.7334,.93945-1.05957,1.9541-1.05957,3.28906,0,.13965,.00684,.27637,.01758,.41211-1.65137,.38867-2.84961,1.86035-2.84961,3.58203,0,2.03809,1.6582,3.69629,3.69629,3.69629h2.59766v4.33887c0,.40137,.32617,.72754,.72754,.72754h6.38184c.14355,0,.27295-.04297,.39258-.10449,.07373,.0625,.16602,.10449,.27051,.10449h4.88965c.23438,0,.4248-.19043,.4248-.4248v-1.36426c0-.2041-.14453-.37891-.34473-.41699l-1.40723-.26367-.00439-.80859h4.11475c.48145,0,.87305-.3916,.87305-.87305v-.91504h1.39453c2.03809,0,3.69629-1.6582,3.69629-3.69629,0-1.12598-.51465-2.18164-1.3916-2.88281,.13574-.47461,.2041-.95801,.2041-1.44238ZM8.46777,21.42383h-1.32422v-5.18652h1.80664v5.18652h-.48242Zm1.33203,0v-5.30859c0-.40137-.32617-.72754-.72754-.72754h-.62256l.01807-1.71289,4.95898,.02344-.02344,7.72559h-3.60352Zm4.47656-2.42871h1.09473v.80859h-.02441c-.02832,0-.05566,.00293-.08301,.00781l-.9873,.19727v-1.01367Zm2.9209,1.6582l.35156-.00781,.98242,.18945v.58887h-4.04004v-.59082l.89746-.17969h.40723c.23438,0,.4248-.19043,.4248-.4248v-1.2334h.55176v1.2334c0,.23438,.19043,.4248,.4248,.4248Zm4.56543-3.68555l-.02344,1.17773h-4.53711c-.00195,0-.00293-.00098-.00488-.00098h-1.40137c-.00195,0-.00293,.00098-.00488,.00098h-1.51465v-4.44727c0-.48145-.3916-.87305-.87305-.87305h-2.16797l.01855-1.54199,10.50879,.02344v5.66113Z"/><path class="cls-1" d="M16.81152,12.01562h-.62891c-.23438,0-.4248,.19043-.4248,.4248s.19043,.4248,.4248,.4248h.62891c.23438,0,.4248-.19043,.4248-.4248s-.19043-.4248-.4248-.4248Z"/><path class="cls-1" d="M11.25,14.5498h-.62891c-.23438,0-.4248,.19043-.4248,.4248s.19043,.4248,.4248,.4248h.62891c.23438,0,.4248-.19043,.4248-.4248s-.19043-.4248-.4248-.4248Z"/><path class="cls-1" d="M5.35352,5.53735c.24756,.12964,.55322,.03418,.68311-.21313,.12939-.24756,.03418-.55322-.21338-.68286-.24707-.12976-.55322-.0343-.68262,.21313-.12988,.24744-.03418,.55322,.21289,.68286Z"/></g></g></svg>