<?xml version="1.0" encoding="UTF-8"?><svg id="Layer_2" xmlns="http://www.w3.org/2000/svg" viewBox="0 0 24.21484 24.92871"><defs><style>.cls-1{fill:#783cbe;}</style></defs><g id="Layer_1-2"><g><path class="cls-1" d="M16.51074,8.11816V3.83789c0-.03674-.01221-.06958-.021-.10352,.00537-.04224,.021-.08154,.021-.125V1.61621c0-.01099-.00537-.02026-.00635-.03125,.00098-.01501,.00635-.02856,.00635-.04395,0-1.2168-2.74414-1.54102-4.36621-1.54102S7.77832,.32422,7.77832,1.54102c0,.01538,.00537,.02905,.00635,.04407-.00098,.01086-.00635,.02014-.00635,.03113v1.99316c0,.04346,.01562,.08276,.021,.125-.00879,.03394-.021,.06689-.021,.10352v4.28027c0,.46875,.31641,.88184,.77148,1.00488,1.17578,.3125,2.38477,.46973,3.59473,.46973,1.20898,0,2.41895-.15723,3.5957-.4707,.4541-.12207,.77051-.53516,.77051-1.00391Zm-.84961-2.25488c0,.08594-.05762,.16113-.14062,.18359-2.20898,.58789-4.54297,.58887-6.75195-.00098-.08301-.02148-.14062-.09668-.14062-.18262v-1.23096c1.15137,.29895,2.33301,.45166,3.5166,.45166,1.18213,0,2.36475-.15271,3.5166-.45239v1.23169Zm-3.5166-2.78125c1.05322,0,2.57568-.13855,3.5166-.56763v1.09497c0,.08594-.05859,.16113-.14062,.18262-2.20898,.58984-4.54395,.58887-6.75098,.00098-.08301-.02246-.1416-.09766-.1416-.18359v-1.09497c.94092,.42908,2.46338,.56763,3.5166,.56763Zm0-2.23242c2.14746,0,3.30469,.46387,3.5,.69141-.19531,.22754-1.35254,.69141-3.5,.69141-2.25488,0-3.41699-.51074-3.52246-.65918,.10547-.21289,1.26758-.72363,3.52246-.72363Zm3.37598,7.45117c-2.20898,.58984-4.54395,.58887-6.75098,.00098-.08301-.02246-.1416-.09766-.1416-.18359v-1.23291c1.15137,.30078,2.33398,.45264,3.5166,.45264s2.36523-.15186,3.5166-.45166v1.23193c0,.08594-.05859,.16113-.14062,.18262Z"/><path class="cls-1" d="M19.84961,15.33496c-1.62207,0-4.36621,.32422-4.36621,1.54102,0,.01538,.00537,.02905,.00635,.04407-.00098,.01086-.00635,.02014-.00635,.03113v1.99316c0,.0437,.01562,.08325,.021,.12573-.00879,.03394-.021,.06689-.021,.10376v4.2793c0,.47168,.31738,.88477,.77148,1.00391,1.17578,.31445,2.38477,.47168,3.59473,.47168,1.20898,0,2.41797-.15723,3.59277-.4707,.45508-.12012,.77246-.5332,.77246-1.00488v-4.2793c0-.03687-.01221-.06982-.021-.104,.00537-.04248,.021-.08179,.021-.12549v-1.99316c0-.01099-.00537-.02026-.00635-.03125,.00098-.01501,.00635-.02856,.00635-.04395,0-1.2168-2.74414-1.54102-4.36523-1.54102Zm3.51562,5.86426c0,.08594-.05859,.16113-.14062,.18262-2.20801,.58887-4.54199,.58984-6.75,.00098-.08301-.02246-.1416-.09766-.1416-.18359v-1.23279c1.15137,.30078,2.33301,.45349,3.5166,.45349,1.18262,0,2.36475-.15283,3.51562-.45288v1.23218Zm0-2.25488c0,.08594-.05762,.16113-.14062,.18359-2.20898,.58789-4.54297,.58887-6.75195-.00098-.08203-.02148-.13965-.09668-.13965-.18262v-1.09497c.94092,.42908,2.46338,.56763,3.5166,.56763,1.05273,0,2.57471-.13867,3.51562-.56763v1.09497Zm-3.51562-2.75977c2.14746,0,3.30371,.46387,3.49902,.69141-.19531,.22754-1.35156,.69141-3.49902,.69141-2.25488,0-3.41699-.51074-3.52246-.65918,.10547-.21289,1.26758-.72363,3.52246-.72363Zm3.375,7.45215c-2.20898,.58789-4.54297,.58887-6.75195-.00098-.08203-.02148-.13965-.09668-.13965-.18262v-1.23096c1.15137,.29895,2.33301,.45166,3.51562,.45166,1.18311,0,2.36475-.15271,3.5166-.45239v1.23169c0,.08594-.05762,.16113-.14062,.18359Z"/><path class="cls-1" d="M4.36621,15.26074c-1.62207,0-4.36621,.32422-4.36621,1.54102,0,.01538,.00537,.02905,.00635,.04407-.00098,.01086-.00635,.02014-.00635,.03113v1.99316c0,.0437,.01562,.08325,.021,.12573-.00879,.03394-.021,.06689-.021,.10376v4.2793c0,.47168,.31738,.88477,.77148,1.00391,1.17578,.31445,2.38477,.47168,3.59473,.47168,1.20898,0,2.41797-.15723,3.59277-.4707,.45508-.12012,.77246-.5332,.77246-1.00488v-4.2793c0-.03687-.01221-.06982-.021-.104,.00537-.04248,.021-.08179,.021-.12549v-1.99316c0-.01099-.00537-.02026-.00635-.03125,.00098-.01501,.00635-.02856,.00635-.04395,0-1.2168-2.74414-1.54102-4.36523-1.54102Zm3.51562,5.86426c0,.08594-.05859,.16113-.14062,.18262-2.20801,.58984-4.54199,.58887-6.75,.00098-.08301-.02246-.1416-.09766-.1416-.18359v-1.23279c1.15137,.30078,2.33301,.45349,3.5166,.45349,1.18262,0,2.36475-.15283,3.51562-.45288v1.23218Zm0-2.25488c0,.08594-.05762,.16113-.14062,.18359-2.20898,.58789-4.54297,.58887-6.75195-.00098-.08203-.02148-.13965-.09668-.13965-.18262v-1.09497c.94092,.42908,2.46338,.56763,3.5166,.56763,1.05273,0,2.57471-.13867,3.51562-.56763v1.09497Zm-3.51562-2.75977c2.14844,0,3.30469,.46387,3.49902,.69141-.19434,.22754-1.34961,.69141-3.49902,.69141-2.25586,0-3.41797-.51074-3.52246-.65918,.10547-.21289,1.26758-.72363,3.52246-.72363Zm3.375,7.45215c-2.20898,.58789-4.54297,.58887-6.75195-.00098-.08203-.02148-.13965-.09668-.13965-.18262v-1.23096c1.15137,.29895,2.33301,.45166,3.51562,.45166,1.18311,0,2.36475-.15271,3.5166-.45239v1.23169c0,.08594-.05762,.16113-.14062,.18359Z"/><path class="cls-1" d="M20.6123,14.30176c.08984,0,.17969-.02734,.25586-.08594,.1875-.14062,.22461-.40723,.08301-.59473l-3.18555-4.22363c-.1416-.1875-.41113-.22559-.59473-.08301-.1875,.14062-.22461,.40723-.08301,.59473l3.18555,4.22363c.08301,.11035,.20996,.16895,.33887,.16895Z"/><path class="cls-1" d="M3.62207,14.30176c.12891,0,.25586-.05762,.33887-.16895l2.12207-2.8125c.1416-.1875,.10449-.4541-.08301-.59473-.1875-.14258-.45312-.10645-.59473,.08301l-2.12207,2.8125c-.1416,.1875-.10449,.4541,.08301,.59473,.07617,.05859,.16602,.08594,.25586,.08594Z"/><path class="cls-1" d="M6.57959,10.05054c.22266,.11548,.49756,.03052,.61475-.18982,.11621-.22034,.03027-.49255-.19238-.60803s-.49756-.03052-.61426,.18994c-.1167,.22021-.03076,.49243,.19189,.60791Z"/></g></g></svg>