<?xml version="1.0" encoding="UTF-8"?><svg id="Layer_2" xmlns="http://www.w3.org/2000/svg" viewBox="0 0 20.99023 25.0459"><defs><style>.cls-1{fill:#783cbe;}</style></defs><g id="Layer_1-2"><g><path class="cls-1" d="M10.16406,9.06055L17.8208,1.37708l.01123,1.39929c.00195,.23438,.19141,.42188,.4248,.42188h.00293c.23535-.00195,.42383-.19336,.42188-.42773l-.01855-2.34863c-.00195-.23438-.19141-.42188-.4248-.42188h-.00293l-2.41797,.01855c-.23535,.00195-.42383,.19336-.42188,.42773,.00195,.23535,.21582,.43262,.42773,.42188l1.31494-.00964-7.29541,7.32117-2.11719-1.83887c-.16602-.14551-.41406-.13965-.57227,.01367l-3.85156,3.69043c-.16992,.16211-.17578,.43164-.0127,.60059,.08301,.08691,.19531,.13086,.30664,.13086,.10547,0,.21191-.03906,.29395-.11816l3.57129-3.42188,2.12402,1.84473c.16797,.14746,.42285,.13867,.5791-.02051Z"/><path class="cls-1" d="M13.27539,24.62109V14.89844c0-.23438-.19043-.4248-.4248-.4248h-4.71094c-.23438,0-.4248,.19043-.4248,.4248v9.72266c0,.23438,.19043,.4248,.4248,.4248h4.71094c.23438,0,.4248-.19043,.4248-.4248Zm-.84961-.4248h-3.86133V15.32324h3.86133v8.87305Z"/><path class="cls-1" d="M5.13672,12.72754H.4248c-.23438,0-.4248,.19043-.4248,.4248v11.40723c0,.23438,.19043,.4248,.4248,.4248H5.13672c.23438,0,.4248-.19043,.4248-.4248V13.15234c0-.23438-.19043-.4248-.4248-.4248Zm-.4248,11.40723H.84961V13.57715h3.8623v10.55762Z"/><path class="cls-1" d="M15.42871,5.62988V24.55957c0,.23438,.19043,.4248,.4248,.4248h4.71191c.23438,0,.4248-.19043,.4248-.4248V5.62988c0-.23438-.19043-.4248-.4248-.4248h-4.71191c-.23438,0-.4248,.19043-.4248,.4248Zm.84961,.4248h3.8623V24.13477h-3.8623V6.05469Z"/><path class="cls-1" d="M2.59766,11.9375c.23584-.06494,.37402-.30859,.30908-.54443-.06494-.23572-.30859-.37427-.54443-.30933-.23535,.06494-.37402,.30872-.30908,.54443,.06494,.23584,.30859,.37427,.54443,.30933Z"/></g></g></svg>