<?xml version="1.0" encoding="UTF-8"?><svg id="Layer_2" xmlns="http://www.w3.org/2000/svg" viewBox="0 0 24.99677 24.98034"><defs><style>.cls-1{fill:#783cbe;}</style></defs><g id="Layer_1-2"><g><path class="cls-1" d="M19.56135,15.91491c-.87695-.87512-2.24805-.9397-3.20996-.2157l-.96582-.96521c.53857-.59619,1.00732-1.27234,1.37793-2.02905,1.03711-2.11816,1.1875-4.51367,.42383-6.74609-.76465-2.23145-2.35254-4.03125-4.4707-5.06836C8.61506-1.1183,3.57502,.37877,1.24592,4.30162c-.12012,.20117-.05371,.46191,.14844,.58203,.20117,.12207,.46191,.05469,.58203-.14844C4.08088,1.19225,8.63264-.16322,12.34357,1.65416c1.91406,.9375,3.34863,2.56348,4.03906,4.58105,.69141,2.0166,.55469,4.18164-.38281,6.09668-.37988,.7749-.87207,1.4574-1.44385,2.04504-.02637,.0166-.05469,.02869-.07764,.05164-.01855,.01855-.02734,.04199-.0415,.06274-2.34766,2.31458-5.99023,3.0271-9.11475,1.49683C2.27912,14.49791,.50471,11.23717,.90607,7.87487c.02832-.2334-.13867-.44531-.37109-.47266-.23047-.03125-.44531,.13672-.47266,.37109-.44434,3.7207,1.51855,7.3291,4.88672,8.97852,1.24609,.61035,2.56738,.89941,3.87012,.89941,2.19482,0,4.32275-.8374,5.95557-2.32483l.9751,.97424c-.72559,.96191-.66016,2.33423,.21484,3.20898l4.71777,4.75293c.47949,.47852,1.1084,.71777,1.7373,.71777,.62988,0,1.25977-.23926,1.73926-.71973l.11914-.11914c.95801-.95801,.95801-2.5166,.00098-3.47363l-4.71777-4.75293Zm4.11523,7.625c0,.00098-.00098,.00098-.00098,.00195l-.11914,.11914c-.62695,.62598-1.64648,.62695-2.27148,.00098l-4.71777-4.75293c-.62695-.62598-.62695-1.64551,.00098-2.27344l.05664-.05664c.00098-.00098,.00195-.0011,.00293-.00195s.00098-.00208,.00195-.00293l.05762-.05762c.31348-.31348,.72461-.46973,1.13672-.46973,.41113,0,.82227,.15625,1.13477,.46875l4.71777,4.75293c.62695,.62598,.62695,1.64551,0,2.27148Z"/><path class="cls-1" d="M8.77131,15.2069c3.54688,0,6.43262-2.86914,6.43262-6.39551s-2.88574-6.39453-6.43262-6.39453S2.33869,5.28502,2.33869,8.81139s2.88574,6.39551,6.43262,6.39551Zm0-11.94043c3.07812,0,5.58301,2.4873,5.58301,5.54492s-2.50488,5.5459-5.58301,5.5459-5.58301-2.48828-5.58301-5.5459S5.69318,3.26647,8.77131,3.26647Z"/><path class="cls-1" d="M18.409,17.42565l-.96973,.96973c-.16602,.16602-.16602,.43555,0,.60156,.08301,.08301,.19238,.12402,.30078,.12402s.21777-.04102,.30078-.12402l.96973-.96973c.16602-.16602,.16602-.43555,0-.60156s-.43555-.16602-.60156,0Z"/><path class="cls-1" d="M.46613,6.18151c.06104,.23389,.29932,.37427,.53369,.31372,.2334-.06067,.37402-.29944,.31348-.53333s-.29932-.37439-.5332-.3136c-.23389,.06055-.37451,.29932-.31396,.5332Z"/></g></g></svg>