<?xml version="1.0" encoding="UTF-8"?><svg id="Layer_2" xmlns="http://www.w3.org/2000/svg" viewBox="0 0 27.66717 24.91992"><defs><style>.cls-1{fill:#783cbe;}</style></defs><g id="Layer_1-2"><g><path class="cls-1" d="M1.81449,11.12598c.02051,.00293,.04199,.00391,.0625,.00391,.20703,0,.38867-.15234,.41992-.36328,.37598-2.5791,1.63672-4.98633,3.54883-6.7793,.1709-.16016,.17969-.42871,.01855-.60059-.16016-.1709-.42969-.17969-.60059-.01855-2.05176,1.92285-3.4043,4.50684-3.80859,7.27539-.0332,.23242,.12695,.44824,.35938,.48242Z"/><path class="cls-1" d="M25.7393,13.92285c-.22559-.03809-.44922,.12207-.48633,.35352-.8916,5.6748-5.71582,9.79395-11.46875,9.79395-5.58301,0-10.31689-3.92114-11.3833-9.36157l.60498,.46509c.18457,.1416,.4502,.10938,.5957-.07812,.14355-.18555,.1084-.45312-.07812-.5957l-1.60547-1.23438c-.18652-.14453-.49121-.05859-.63477,.12891L.08793,14.94824c-.14258,.18555-.1084,.45215,.07812,.5957,.07715,.05957,.16797,.08789,.25879,.08789,.12695,0,.25293-.05664,.33691-.16602l.73877-.95996c.00098,.01624-.00439,.03149-.00146,.04785,1.0166,6.00684,6.18359,10.36621,12.28516,10.36621,6.1748,0,11.35059-4.4209,12.30859-10.51074,.03613-.23242-.12207-.4502-.35352-.48633Z"/><path class="cls-1" d="M27.47367,9.25586c-.19238-.12793-.45996-.07227-.58789,.125l-.78809,1.21448C25.18705,4.54236,19.93217,0,13.78422,0c-1.97266,0-3.86035,.44824-5.60938,1.33203-.20996,.10547-.29395,.36133-.1875,.57031,.10645,.20996,.36133,.29492,.57031,.1875,1.62988-.82227,3.38867-1.24023,5.22656-1.24023,5.71729,0,10.60596,4.21729,11.46826,9.83948l-1.05127-.71838c-.19629-.13477-.45801-.08398-.59082,.11035s-.08301,.45898,.11035,.59082l1.95508,1.33594c.07129,.04883,.15527,.07422,.24023,.07422,.02832,0,.05566-.00293,.08398-.00781,.1123-.02246,.20996-.08984,.27246-.18555l1.32617-2.04492c.12793-.19727,.07129-.45996-.125-.58789Z"/><path class="cls-1" d="M5.585,11.68164l1.4834,.66699c-.00098,.70898,.1084,1.40527,.32715,2.07812l-1.20703,1.0918c-.13965,.12598-.17969,.3291-.09863,.49805,.38965,.81641,.90625,1.5625,1.53613,2.21875,.13184,.13672,.33496,.16895,.50098,.08398l1.44824-.74414c.55273,.44434,1.16504,.79297,1.82715,1.04004l.10059,1.62402c.01172,.1875,.14453,.3457,.32812,.3877,.63379,.14648,1.27734,.21973,1.9209,.21973,.25684,0,.51367-.01172,.77051-.03516,.18652-.0166,.34082-.1543,.37793-.33887l.32129-1.59668c.69238-.15527,1.34766-.41699,1.9541-.78027l1.33203,.93359c.15332,.10547,.36035,.10059,.50879-.01562,.35547-.2832,.68848-.59277,.98926-.9209,.30273-.33105,.58203-.69043,.83105-1.06738,.10352-.15723,.0918-.36426-.0293-.50781l-1.04688-1.24609c.30957-.63672,.5127-1.31152,.60547-2.01367l1.5625-.46094c.18066-.05273,.30469-.21777,.30469-.40625,.00293-.90039-.1377-1.79688-.41992-2.66406-.05859-.17871-.24219-.29199-.41504-.29297l-1.62695,.04199c-.30469-.6377-.70605-1.2168-1.19727-1.72949l.61426-1.50781c.07129-.17383,.01953-.37402-.12695-.49121-.70898-.56934-1.49805-1.01855-2.3457-1.33496-.17676-.06543-.375-.00879-.4873,.1416l-.98242,1.29883c-.69043-.1582-1.39062-.20508-2.09766-.14355l-.7959-1.41895c-.09277-.16309-.27344-.24609-.46387-.20703-.88574,.19824-1.72949,.53516-2.50586,1.00098-.16113,.09668-.23926,.28711-.19336,.46973l.40332,1.57715c-.27441,.21875-.5332,.45996-.77148,.71973-.2373,.25879-.45508,.53809-.64941,.83203l-1.60645-.2627c-.18066-.02246-.36816,.06543-.4502,.2334-.39648,.81445-.6582,1.68359-.77637,2.58496-.02539,.18652,.0752,.36621,.24609,.44336Zm1.16211-2.37012l1.56543,.25586c.16699,.02246,.34375-.05273,.43262-.20117,.20215-.33594,.43848-.65234,.70312-.94141,.26562-.29004,.56055-.55371,.87598-.7832,.14062-.10254,.20508-.28027,.16211-.44922l-.39258-1.53613c.5293-.28809,1.09082-.5127,1.6748-.66895l.77637,1.38379c.08594,.15137,.24707,.2373,.42773,.21289,.78418-.10254,1.56738-.05176,2.3291,.15918,.16699,.04785,.34766-.0127,.45215-.15234l.95703-1.26562c.55664,.2334,1.08203,.53223,1.56836,.8916l-.59863,1.4707c-.06543,.16113-.02637,.34668,.09961,.4668,.57324,.54883,1.02051,1.19434,1.32812,1.91895,.06934,.16113,.21191,.23926,.40234,.25879l1.58594-.04004c.16406,.58398,.25879,1.18066,.28125,1.78125l-1.52246,.44922c-.16699,.04883-.28809,.19531-.30273,.36914-.07129,.78809-.29688,1.54004-.67285,2.23535-.08301,.15332-.06348,.3418,.04883,.47559l1.02051,1.21387c-.17676,.24609-.36816,.48145-.57031,.70215-.20117,.21973-.41797,.42969-.64844,.62793l-1.29785-.90918c-.14355-.09961-.33398-.10156-.47754-.00586-.65918,.43359-1.38965,.72559-2.16895,.86621-.17188,.03027-.30664,.16309-.3418,.33398l-.31348,1.55566c-.60254,.03125-1.20508-.01172-1.7998-.12402l-.09863-1.58203c-.01074-.17383-.12695-.32422-.29199-.37793-.74902-.24316-1.43164-.63184-2.02832-1.1543-.12988-.11523-.31934-.13574-.47461-.05859l-1.41113,.72559c-.40234-.4541-.74609-.95117-1.02734-1.4834l1.17578-1.06445c.12891-.11719,.17383-.30078,.11328-.46387-.27637-.74023-.39844-1.51758-.36328-2.30859,.00781-.17383-.0918-.33496-.25-.40625l-1.44629-.65039c.10352-.59668,.27734-1.1748,.51855-1.72754Z"/><path class="cls-1" d="M13.74418,15.93945c.05371,0,.10742-.00195,.16113-.00391,.95508-.04199,1.83594-.45312,2.48145-1.1582,1.33203-1.45508,1.23145-3.72168-.22266-5.05371-.7041-.64453-1.60059-.96875-2.57324-.93652-.95508,.04199-1.83594,.45312-2.48145,1.1582s-.97754,1.61914-.93555,2.57324c.04199,.95508,.45312,1.83594,1.1582,2.48145,.66504,.6084,1.5166,.93945,2.41211,.93945Zm-2.00781-5.41992c.49219-.53711,1.16406-.85059,1.8916-.88281,.04102-.00195,.08203-.00293,.12207-.00293,.68359,0,1.33301,.25195,1.83984,.7168,.53711,.49219,.85156,1.16406,.88281,1.8916,.03223,.72754-.2207,1.42383-.71289,1.96094s-1.16406,.85059-1.8916,.88281c-.7168,.03711-1.4248-.2207-1.96191-.71289s-.85059-1.16406-.88281-1.8916,.2207-1.4248,.71289-1.96191Z"/><path class="cls-1" d="M6.86723,3.03076c.23486,0,.42529-.19031,.42529-.42505,0-.23462-.19043-.42493-.42529-.42493-.23438,0-.4248,.19031-.4248,.42493,0,.23474,.19043,.42505,.4248,.42505Z"/></g></g></svg>