<?xml version="1.0" encoding="UTF-8"?><svg id="Layer_2" xmlns="http://www.w3.org/2000/svg" viewBox="0 0 25.88463 24.99693"><defs><style>.cls-1{fill:#783cbe;}</style></defs><g id="Layer_1-2"><g><path class="cls-1" d="M1.49062,23.1776c-.01758,.98535,.76855,1.80176,1.75391,1.81934h.0332c.96973,0,1.76855-.7793,1.78613-1.75293,.01953-.98438-.7666-1.80078-1.75293-1.82031-.10889,.00256-.21533,.01709-.31982,.0376l-.36865-2.33362c.14453-.07703,.28223-.16736,.40332-.28406,.34375-.33105,.53809-.77637,.54688-1.25391,.00684-.33496-.0835-.65552-.25-.93726l1.81592-1.0625c1.5874,1.56165,3.68359,2.42358,5.91357,2.42358,2.11084,0,4.09766-.77856,5.65234-2.18555l1.01562,1.0166c-.15771,.28418-.23096,.62183-.19434,.97559,.0498,.47559,.27539,.9375,.64453,1.30664l3.12598,2.9873c.3623,.36328,.82324,.58984,1.29883,.63965,.06348,.00586,.125,.00879,.1875,.00879,.43066,0,.8291-.15527,1.11426-.44043l.0752-.0752c.65918-.66016,.56641-1.82617-.21387-2.60645l-3.125-2.99023c-.67676-.67505-1.6499-.83252-2.32568-.42163l-1.00146-1.0022c1.40674-1.55347,2.18555-3.54041,2.18555-5.65137,0-.92517-.15576-1.82471-.44043-2.67761l1.99316-1.30078c.16992,.13135,.36133,.23547,.57227,.29968,.17188,.05273,.34766,.0791,.52246,.0791,.28906,0,.57617-.07129,.83887-.21191,.86914-.46387,1.19922-1.54883,.73535-2.41797-.03418-.06372-.07764-.11938-.11865-.17773l1.30957-1.63818,.1333,1.02783c.02832,.21387,.21094,.37012,.4209,.37012,.01855,0,.03711-.00098,.05566-.00293,.23242-.03027,.39648-.24414,.36719-.47656l-.26953-2.0791c-.03027-.23242-.23828-.3877-.47656-.36719l-2.0791,.26953c-.23242,.03027-.39648,.24414-.36719,.47656,.03125,.2334,.25488,.39355,.47656,.36719l1.09473-.14197-1.30176,1.62891c-.09668-.0498-.19678-.09326-.30273-.12561-.45508-.13672-.94043-.09082-1.36133,.13379-.4209,.22559-.72949,.60059-.86816,1.05664-.12793,.42114-.08984,.86267,.09131,1.25916l-1.78418,1.16455c-.41357-.91125-.98438-1.75403-1.71338-2.48328C14.03261,.62291,9.25917,.30553,5.91835,2.87681c-.29199,.22461-.57227,.46973-.83301,.73047-.58203,.58203-1.07422,1.24219-1.4873,2.00781l-.05762,.11035c-.10938,.20703-.03027,.46484,.17773,.57422,.20801,.10742,.46484,.03125,.57422-.17773l.0791-.15039c.34863-.64551,.79102-1.23926,1.31543-1.7627,.23438-.23438,.48633-.45605,.74902-.6582,3.00586-2.30859,7.29785-2.02637,9.98242,.6582,1.43359,1.43359,2.22363,3.33887,2.22363,5.36621s-.79004,3.93262-2.22363,5.36523c-1.43359,1.43359-3.33887,2.22363-5.36621,2.22363s-3.93262-.79004-5.36523-2.22363c-1.48145-1.48047-2.29004-3.53223-2.21875-5.62793,.00781-.23438-.17578-.43164-.41016-.43945-.24316-.01367-.43164,.17578-.43945,.41016-.0708,2.06335,.62842,4.08569,1.93164,5.66528l-1.78223,1.04272c-.021,.01245-.03418,.03174-.05225,.04688-.26807-.16455-.57324-.26172-.896-.26758h-.0332C.81581,15.77037,.01796,16.55064,.00038,17.52428c-.00977,.47656,.16797,.92871,.49902,1.27246s.77637,.53809,1.25391,.54688h.0332c.00293,0,.00586-.00085,.00879-.00085l.39307,2.48755c-.40869,.31653-.68652,.79077-.69775,1.34729ZM21.23964,3.9149c.07324-.24023,.23438-.43652,.45508-.55469,.14062-.0752,.29102-.11035,.43945-.11035,.33594,0,.66016,.17969,.8291,.49609,.24316,.45605,.07031,1.02441-.38574,1.26758-.22168,.11719-.47559,.1416-.71289,.07031-.24023-.07324-.43652-.23535-.55469-.45605s-.14258-.47363-.07031-.71289Zm-1.99316,12.94336c.27832,.02832,.56445,.17188,.79199,.39941l3.125,2.99023c.43555,.43457,.53027,1.0752,.20703,1.39746l-.0752,.0752c-.14551,.14648-.36328,.20898-.6123,.1875-.27832-.0293-.56445-.17285-.79199-.40137l-3.12598-2.98828c-.22168-.2207-.36523-.50684-.39355-.78516-.02539-.24902,.04102-.4668,.1875-.6123l.0752-.0752c.125-.12598,.30371-.19238,.50977-.19238,.0332,0,.06836,.00098,.10254,.00488ZM.84999,17.5399c.00977-.51074,.42773-.91992,.93652-.91992h.01758c.25,.00488,.4834,.10645,.65723,.28711,.17383,.17969,.2666,.41699,.26172,.66699-.00488,.25098-.10645,.48438-.28613,.65723-.18066,.17383-.41016,.2627-.66797,.2627-.25-.00488-.4834-.10645-.65723-.28711-.17383-.17969-.2666-.41699-.26172-.66699Zm2.44531,4.7334c.5166,.00977,.92871,.43848,.91895,.95508-.00488,.25-.10645,.4834-.28613,.65723-.18164,.17383-.40137,.27441-.66797,.26172-.25-.00488-.4834-.10645-.65723-.28711-.17383-.17969-.26758-.41699-.2627-.66699,.00977-.51074,.42871-.91992,.9375-.91992h.01758Z"/><path class="cls-1" d="M11.05214,15.66588c3.35938,0,6.0918-2.73242,6.0918-6.09082,0-3.35938-2.73242-6.0918-6.0918-6.0918-3.3584,0-6.09082,2.73242-6.09082,6.0918,0,.49902,.06055,.99707,.18066,1.48145,.18945,.75879,.52051,1.46582,.9834,2.10156,1.14453,1.57031,2.98633,2.50781,4.92676,2.50781Zm0-.84961c-1.28369,0-2.51416-.48022-3.46338-1.3147l1.86475-2.71289,.22852,.58716c.06543,.16797,.22656,.27051,.39648,.27051,.05176,0,.10352-.00879,.1543-.02832l2.6123-1.0166c.21875-.08594,.32715-.33203,.24219-.55078l-.40918-1.05188,3.37842-.89978c.13965,.47131,.23779,.96008,.23779,1.47607,0,2.88965-2.35156,5.24121-5.24219,5.24121Zm1.08887-4.85352l-1.82031,.70898-.70898-1.82031,1.82031-.70898,.70898,1.82031Zm-6.33008-.3877c0-2.89062,2.35156-5.24219,5.24121-5.24219,2.07178,0,3.8501,1.2179,4.70068,2.96655l-3.31982,.88403c-.02246,.0061-.04004,.02075-.06055,.03003l-.30176-.77515c-.08496-.21875-.33496-.32715-.55078-.24219l-2.6123,1.0166c-.21875,.08594-.32715,.33203-.24219,.55078l.43066,1.10681c-.04785,.02966-.09082,.06873-.125,.1178l-1.98193,2.88354c-.05859-.07166-.12158-.13855-.17627-.21362-.39844-.54785-.68359-1.15625-.84668-1.80762-.10254-.41602-.15527-.8457-.15527-1.27539Z"/><path class="cls-1" d="M3.30605,8.00572c.24854,.0144,.46191-.17529,.47656-.42383s-.17529-.46191-.42383-.47632c-.24854-.01453-.46191,.17529-.47656,.42383s.17529,.46191,.42383,.47632Z"/></g></g></svg>