<?xml version="1.0" encoding="utf-8"?>
<!-- Generator: Adobe Illustrator 25.0.1, SVG Export Plug-In . SVG Version: 6.00 Build 0)  -->
<svg version="1.1" fill="#8052FD" id="Layer_1" xmlns="http://www.w3.org/2000/svg" xmlns:xlink="http://www.w3.org/1999/xlink" x="0px" y="0px"
	 viewBox="0 0 512 512" style="enable-background:new 0 0 512 512;" xml:space="preserve">

<g id="surface1">
	<path  d="M110.4,424h268.8c12.4,0,22.4-10,22.4-22.4v-16.8c0-3.1-2.5-5.6-5.6-5.6h-11.2v-89.6h-11.2v89.6h-11.2v-89.6
		h-11.2v89.6h-71.4c-6,0-11.4,3.3-14,8.7c-0.8,1.5-2.4,2.5-4.1,2.5h-32.3c-1.7,0-3.3-1-4.1-2.5c-2.6-5.3-8.1-8.7-14-8.7h-72.8v-140
		c0-3.1,2.5-5.6,5.6-5.6h100.8v-11.2H144c-9.3,0-16.8,7.5-16.8,16.8v140H116V228c0-9.3,7.5-16.8,16.8-16.8h112V200h-112
		c-15.5,0-28,12.5-28,28v151.2H93.6c-3.1,0-5.6,2.5-5.6,5.6v16.8C88,414,98,424,110.4,424z M99.2,390.4h112c1.7,0,3.3,1,4.1,2.5
		c2.6,5.3,8.1,8.7,14,8.7h32.3c6,0,11.4-3.3,14-8.7c0.8-1.5,2.4-2.5,4.1-2.5h110.7v11.2c0,6.2-5,11.2-11.2,11.2H110.4
		c-6.2,0-11.2-5-11.2-11.2L99.2,390.4L99.2,390.4z"/>
	<path  d="M160.8,295.2V340c0,3.1,2.5,5.6,5.6,5.6h156.8c3.1,0,5.6-2.5,5.6-5.6v-44.8c0-3.1-2.5-5.6-5.6-5.6H166.4
		C163.3,289.6,160.8,292.1,160.8,295.2z M172,300.8h145.6v33.6H172V300.8z"/>
	<path  d="M183.2,312h11.2v11.2h-11.2V312z"/>
	<path  d="M205.6,312h11.2v11.2h-11.2V312z"/>
	<path  d="M228,312h11.2v11.2H228V312z"/>
	<path  d="M250.4,312h11.2v11.2h-11.2V312z"/>
	<path  d="M407.2,172.2v-17c0-37.1-30.1-67.2-67.2-67.2s-67.2,30.1-67.2,67.2v17c-9.5,1-16.7,9.1-16.8,18.6v68.8
		c0,10.4,8.5,18.8,18.8,18.8h130.3c10.4,0,18.8-8.5,18.8-18.8v-68.8C423.9,181.3,416.7,173.2,407.2,172.2z M284,155.2
		c0-30.9,25.1-56,56-56s56,25.1,56,56V172h-11.2v-16.8c0-24.7-20.1-44.8-44.8-44.8s-44.8,20.1-44.8,44.8V172h-11.2v-16.8H284z
		 M306.4,172v-16.8c0-18.6,15-33.6,33.6-33.6s33.6,15,33.6,33.6V172H306.4z M412.8,259.5c0,4.2-3.4,7.6-7.6,7.6H274.8
		c-4.2,0-7.6-3.4-7.6-7.6v-68.7c0-4.2,3.4-7.6,7.6-7.6h130.3c4.2,0,7.6,3.4,7.6,7.6L412.8,259.5L412.8,259.5z"/>
	<path  d="M340,205.6c-8.2,0-15.2,5.8-16.5,13.9c-1.4,8.1,3.2,15.9,11,18.6v12.2h11.2v-12.2c7.7-2.7,12.3-10.6,11-18.6
		C355.2,211.4,348.2,205.6,340,205.6z M340,228c-3.1,0-5.6-2.5-5.6-5.6c0-3.1,2.5-5.6,5.6-5.6s5.6,2.5,5.6,5.6
		C345.6,225.5,343.1,228,340,228z"/>
	<path  d="M188.8,177.6H200v11.2h-11.2V177.6z"/>
	<path  d="M188.8,155.2H200v11.2h-11.2V155.2z"/>
	<path  d="M188.8,132.8H200V144h-11.2V132.8z"/>
	<path  d="M188.8,110.4H200v11.2h-11.2V110.4z"/>
	<path  d="M211.2,110.4h11.2v11.2h-11.2V110.4z"/>
	<path  d="M233.6,110.4h11.2v11.2h-11.2V110.4z"/>
	<path  d="M256,110.4h11.2v11.2H256V110.4z"/>
</g>
</svg>
