<?xml version="1.0" encoding="utf-8"?>
<!-- Generator: Adobe Illustrator 25.0.1, SVG Export Plug-In . SVG Version: 6.00 Build 0)  -->
<svg version="1.1" fill="#8052FD" id="Layer_1" xmlns="http://www.w3.org/2000/svg" xmlns:xlink="http://www.w3.org/1999/xlink" x="0px" y="0px"
	 viewBox="0 0 496 496" style="enable-background:new 0 0 496 496;" xml:space="preserve">

	
	

<g>
	<g>
		<g>
			<path d="M400.3,144.7l-9.8,6.7c19.4,28.6,29.6,62,29.6,96.6c0,94.9-77.2,172.1-172.1,172.1
				c-32.5,0-63.9-9.1-91.2-26.3l20.9-3.5l-1.9-11.7l-43.6,7.3l21.4,42.8l10.6-5.3l-7.9-15.8c27.9,16,59.3,24.4,91.7,24.4
				c101.4,0,184-82.5,184-184C432,211,421,175.3,400.3,144.7z"/>
			<path d="M301.4,343v-35.6h47.5v-45.1c0-14.5-7.7-28.2-20.2-35.6l-4.1-2.4c7.6-7.6,12.4-18,12.4-29.5
				c0-22.9-18.6-41.5-41.5-41.5c-21.1,0-38.5,15.8-41.2,36.1c-2.1-0.3-4.2-0.5-6.3-0.5s-4.2,0.2-6.3,0.5
				c-2.7-20.3-20.1-36.1-41.2-36.1c-22.9,0-41.5,18.6-41.5,41.5c0,11.6,4.7,22,12.4,29.5l-4.1,2.4c-12.5,7.5-20.2,21.1-20.2,35.6
				v45.1h47.5V343H301.4z M289.5,331.1h-83.1v-33.2c0-10.4,5.5-20.1,14.4-25.4l8.5-5.1c5.6,2.8,11.9,4.5,18.6,4.5s13-1.6,18.6-4.5
				l8.5,5.1c8.9,5.3,14.4,15.1,14.4,25.4V331.1z M337,262.2v33.2h-35.8c-0.8-13.6-8.2-26.2-20-33.2l-4.1-2.4
				c6.5-6.4,10.8-14.8,12-24.2c2.1,0.3,4.2,0.5,6.3,0.5c6.7,0,13-1.6,18.6-4.5l8.5,5.1C331.5,242.1,337,251.9,337,262.2z
				 M295.5,164.9c16.4,0,29.7,13.3,29.7,29.7s-13.3,29.7-29.7,29.7c-2.2,0-4.4-0.4-6.5-0.8c-2.2-13.5-11-24.9-22.9-30.6
				C266.9,177.3,279.8,164.9,295.5,164.9z M248,200.5c16.4,0,29.7,13.3,29.7,29.7s-13.3,29.7-29.7,29.7s-29.7-13.3-29.7-29.7
				S231.6,200.5,248,200.5z M170.8,194.6c0-16.4,13.3-29.7,29.7-29.7c15.7,0,28.6,12.4,29.5,27.9c-11.9,5.8-20.7,17.1-22.9,30.6
				c-2.2,0.5-4.4,0.8-6.5,0.8C184.1,224.3,170.8,211,170.8,194.6z M159,295.5v-33.2c0-10.4,5.5-20.1,14.4-25.4l8.5-5.1
				c5.6,2.8,11.9,4.5,18.6,4.5c2.2,0,4.2-0.2,6.3-0.5c1.2,9.4,5.6,17.8,12,24.2l-4.1,2.4c-11.8,7-19.2,19.7-20,33.2H159z"/>
			<path d="M248,384.5c26.6,0,52.3-7.6,74.5-22.1l-6.5-9.9c-20.3,13.2-43.8,20.2-68,20.2
				c-68.7,0-124.6-55.9-124.6-124.6s55.9-124.6,124.6-124.6S372.7,179.3,372.7,248c0,37.3-16.5,72.3-45.3,96.2l7.6,9.1
				c31.5-26,49.6-64.4,49.6-105.3c0-75.3-61.2-136.5-136.5-136.5S111.5,172.7,111.5,248S172.7,384.5,248,384.5z"/>
			<path d="M75.9,248c0-94.9,77.2-172.1,172.1-172.1c32.5,0,63.9,9.1,91.2,26.3l-20.9,3.5l1.9,11.7l43.6-7.3l-21.4-42.8
				l-10.6,5.3l7.9,15.8C311.8,72.4,280.4,64,248,64C146.6,64,64,146.6,64,248c0,27.9,6.1,54.8,18.2,79.8l10.7-5.1
				C81.6,299.2,75.9,274.1,75.9,248z"/>
			<path d="M88.6,340c2.2,3.8,4.6,7.6,7,11.3l9.8-6.7c-2.3-3.4-4.5-7-6.6-10.5L88.6,340z"/>
		</g>
	</g>
</g>
</svg>
