<?xml version="1.0" encoding="UTF-8"?><svg fill="#8052fd" id="AI-1" xmlns="http://www.w3.org/2000/svg" viewBox="0 0 198 198"><g><path d="M99,58.09c-2.28,0-4.55-.87-6.29-2.6-1.68-1.68-2.6-3.91-2.6-6.29s.92-4.61,2.6-6.28c3.46-3.47,9.1-3.47,12.57,0h0c1.68,1.68,2.6,3.91,2.6,6.28s-.92,4.61-2.6,6.29c-1.73,1.73-4.01,2.6-6.29,2.6Zm0-13.27c-1.12,0-2.25,.43-3.1,1.28s-1.29,1.93-1.29,3.1,.46,2.27,1.29,3.1c1.71,1.71,4.5,1.71,6.21,0,.83-.83,1.29-1.93,1.29-3.1s-.46-2.27-1.29-3.1h0c-.86-.86-1.98-1.28-3.1-1.28Z" /><path d="M99,157.68c-8.56,0-15.53-6.96-15.53-15.53,0-1.24,1.01-2.25,2.25-2.25h26.55c1.24,0,2.25,1.01,2.25,2.25,0,8.56-6.97,15.53-15.53,15.53Zm-10.8-13.28c1.04,5,5.49,8.78,10.8,8.78s9.75-3.77,10.8-8.78h-21.59Z" /><path d="M142.81,144.4H55.19c-4.9,0-8.89-3.99-8.89-8.89s3.99-8.89,8.89-8.89c2.42,0,4.39-1.97,4.39-4.39v-26.55c0-21.74,17.69-39.43,39.43-39.43s39.43,17.69,39.43,39.43v26.55c0,2.42,1.97,4.39,4.39,4.39,4.9,0,8.89,3.99,8.89,8.89s-3.99,8.89-8.89,8.89ZM99,60.75c-19.26,0-34.93,15.67-34.93,34.93v26.55c0,4.9-3.99,8.89-8.89,8.89-2.42,0-4.39,1.97-4.39,4.39s1.97,4.39,4.39,4.39h87.63c2.42,0,4.39-1.97,4.39-4.39s-1.97-4.39-4.39-4.39c-4.9,0-8.89-3.99-8.89-8.89v-26.55c0-19.26-15.67-34.93-34.93-34.93Z" /></g><path d="M138.61,131.12H55.19c-1.24,0-2.25-1.01-2.25-2.25s1.01-2.25,2.25-2.25h83.42c1.24,0,2.25,1.01,2.25,2.25s-1.01,2.25-2.25,2.25Z" /></svg>