<?xml version="1.0" encoding="utf-8"?>
<!-- Generator: Adobe Illustrator 25.0.1, SVG Export Plug-In . SVG Version: 6.00 Build 0)  -->
<svg version="1.1" fill="#8052FD" id="Capa_1" xmlns="http://www.w3.org/2000/svg" xmlns:xlink="http://www.w3.org/1999/xlink" x="0px" y="0px"
	 viewBox="0 0 512 512" style="enable-background:new 0 0 512 512;" xml:space="preserve">

	
	


<path d="M169.4,406.8c-2.4,0-4.3,1.9-4.3,4.3c0,2.4,1.9,4.3,4.3,4.3h172.3c2.4,0,4.3-1.9,4.3-4.3c0-2.4-1.9-4.3-4.3-4.3
	h-25.4l-9-31.6h114.9c8.7,0,15.8-7.1,15.8-15.8V141.2c-0.1-8.7-7.2-15.8-15.9-15.8H89c-8.7,0-15.8,7.1-15.8,15.8v218.2
	c0,8.7,7.1,15.8,15.8,15.8h114.9l-9,31.6H169.4z M307.2,406.8H203.8l9-31.6h85.4L307.2,406.8z M422,366.6H89c-3.9,0-7.2-3.2-7.2-7.2
	V141.2c0-3.9,3.2-7.2,7.2-7.2H422c3.9,0,7.2,3.2,7.2,7.2v218.2C429.2,363.3,426,366.6,422,366.6z M100.5,148.4
	c-2.4,0-4.3,1.9-4.3,4.3v195.2c0,2.4,1.9,4.3,4.3,4.3h310.1c2.4,0,4.3-1.9,4.3-4.3V152.7c0-2.4-1.9-4.3-4.3-4.3H100.5z M406.3,343.6
	H104.8V202.9h301.5V343.6z M406.3,194.3H104.8V157h301.5V194.3z M180.9,181h172.3c2.9,0,5.4-2.4,5.4-5.4s-2.4-5.4-5.4-5.4H180.9
	c-2.9,0-5.4,2.4-5.4,5.4S177.9,181,180.9,181z M376.1,181h11.5c2.9,0,5.4-2.4,5.4-5.4s-2.4-5.4-5.4-5.4h-11.5
	c-2.9,0-5.4,2.4-5.4,5.4S373.2,181,376.1,181L376.1,181z M123.4,181c2.9,0,5.4-2.4,5.4-5.4s-2.4-5.4-5.4-5.4c-2.9,0-5.4,2.4-5.4,5.4
	c0,1.4,0.6,2.8,1.6,3.8C120.6,180.4,122,181,123.4,181z M140.7,181c2.9,0,5.4-2.4,5.4-5.4s-2.4-5.4-5.4-5.4s-5.4,2.4-5.4,5.4
	c0,1.4,0.6,2.8,1.6,3.8C137.9,180.4,139.2,181,140.7,181z M157.9,181c2.9,0,5.4-2.4,5.4-5.4s-2.4-5.4-5.4-5.4s-5.4,2.4-5.4,5.4
	c0,1.4,0.6,2.8,1.6,3.8C155.1,180.4,156.5,181,157.9,181z M144.5,229.3c-2.2-2-5.6-1.9-7.6,0.3c-1.9,2.1-1.9,5.2,0,7.3l36.4,36.4
	l-36.4,36.4c-2.2,2-2.3,5.5-0.3,7.6c2,2.2,5.5,2.3,7.6,0.3c0.1-0.1,0.2-0.1,0.3-0.3l40.2-40.2c2.1-2.1,2.1-5.5,0-7.6l0,0
	L144.5,229.3z M249.8,308.1h-57.4c-2.9,0-5.4,2.4-5.4,5.4s2.4,5.4,5.4,5.4h57.4c2.9,0,5.4-2.4,5.4-5.4S252.7,308.1,249.8,308.1z"/>
</svg>
