<?xml version="1.0" encoding="utf-8"?>
<!-- Generator: Adobe Illustrator 25.0.1, SVG Export Plug-In . SVG Version: 6.00 Build 0)  -->
<svg version="1.1" fill="#8052FD" id="Capa_1" xmlns="http://www.w3.org/2000/svg" xmlns:xlink="http://www.w3.org/1999/xlink" x="0px" y="0px"
	 viewBox="0 0 504.9 504.9" style="enable-background:new 0 0 504.9 504.9;" xml:space="preserve">

	
	

<circle cx="200.3" cy="184.3" r="4.5"/>
<circle cx="217.2" cy="184.3" r="4.5"/>
<circle cx="234.2" cy="184.3" r="4.5"/>
<circle cx="201" cy="221.8" r="4.6"/>
<circle cx="216.9" cy="221.8" r="4.6"/>
<circle cx="234.4" cy="221.8" r="4.6"/>
<g>
	<path d="M296.4,219.8c-9,0-16.5-7.4-16.5-16.5c0-9,7.4-16.5,16.5-16.5s16.5,7.4,16.5,16.5
		C312.9,212.3,305.4,219.8,296.4,219.8z M296.4,192c-6.2,0-11.4,5.1-11.4,11.4c0,6.2,5.1,11.4,11.4,11.4s11.4-5.1,11.4-11.4
		C307.7,197.2,302.5,192,296.4,192z"/>
	<path d="M331.6,293.8h-3.3v-5.1h3.3c0.5,0,1,0,1.6,0l0.8,5.1C333.1,293.8,332.3,293.8,331.6,293.8z M313.7,293.8h-5.1
		v-5.1h5.1V293.8z M323.3,293.8h-5.1v-5.1h5.1V293.8z M324.7,205.9h-5.1v-5.1h5.1V205.9z M303.4,293.8h-5.1v-5.1h5.1V293.8z
		 M293.2,293.8H288v-5.1h5.1V293.8z M283.1,293.8h-5.1v-5.1h5.1V293.8z M339.5,291.8l-2.6-4.4c1.3-0.8,2.3-1.6,3.1-2.8l4.1,3.1
		C342.9,289.2,341.3,290.5,339.5,291.8z M346.7,282l-5.1-1c0.3-0.8,0.3-1.6,0.3-2.3v-2.3h5.1v2.3C347,279.7,347,280.8,346.7,282z
		 M347,271.2h-5.1v-5.1h5.1V271.2z M347,260.9h-5.1v-5.1h5.1V260.9z M347,250.6h-5.1v-5.1h5.1V250.6z M347,240.3h-5.1v-5.1h5.1
		V240.3z M347,230.1h-5.1V225h5.1V230.1z M347,219.8h-5.1v-3.3c0-0.5,0-1,0-1.3l5.1-0.8c0,0.8,0.3,1.3,0.3,2.1v3.3H347L347,219.8z
		 M340.6,211c-0.8-1.3-1.6-2.3-2.8-3.1l3.1-4.1c1.6,1.3,3.1,2.8,4.1,4.6L340.6,211z M334.1,206.2c-0.8-0.3-1.6-0.3-2.3-0.3h-2.1
		v-5.1h2.1c1.3,0,2.3,0.3,3.6,0.5L334.1,206.2z M315.5,205.9h-5.1v-5.1h5.1V205.9z"/>
</g>
<path d="M274.3,303.7l-17.8-10c-0.8-0.5-1.3-1.3-1.3-2.3c0-1,0.5-1.8,1.3-2.3l17.8-10c0.8-0.5,1.8-0.5,2.6,0
	c0.8,0.5,1.3,1.3,1.3,2.3v20.1c0,1-0.5,1.8-1.3,2.3C276.1,304.2,275,304.2,274.3,303.7z M263.2,291.3l9.7,5.6v-11.1L263.2,291.3z"/>
<path d="M214.1,328.3h-7.4c-1.3,0-2.3-1-2.6-2.1l-0.5-4.1c-0.8-0.3-1.8-0.5-2.6-0.8l-2.6,3.1c-0.8,1-2.3,1.3-3.3,0.5
	l-6.5-3.6c-1-0.5-1.3-1.8-1-2.8l1.6-3.9c-0.8-0.5-1.3-1.3-1.8-1.8l-3.9,1.3c-1.3,0.5-2.6,0-3.1-1l-3.6-6.5c-0.5-1-0.3-2.6,0.5-3.3
	l3.1-2.6c-0.3-0.8-0.5-1.8-0.8-2.6l-4.1-0.5c-1.3-0.2-2.1-1.3-2.1-2.5v-7.4c0-1.3,1-2.3,2.1-2.6l4.1-0.5c0.3-0.8,0.5-1.8,0.8-2.6
	l-3.1-2.6c-1-0.8-1.3-2.3-0.5-3.3l3.6-6.5c0.5-1,2.1-1.6,3.1-1l3.9,1.6c0.5-0.8,1.3-1.3,1.8-1.8l-1.6-4.1c-0.5-1.3,0-2.6,1-3.1
	l6.5-3.6c1-0.5,2.6-0.3,3.3,0.5l2.6,3.1c0.8-0.3,1.8-0.5,2.6-0.8l0.5-4.1c0.3-1.3,1.3-2.1,2.6-2.1h7.4c1.3,0,2.3,1,2.6,2.1l0.5,4.1
	c0.8,0.3,1.8,0.5,2.6,0.8l2.6-3.1c0.8-1,2.3-1.3,3.3-0.5l6.5,3.6c1,0.5,1.6,2.1,1,3.1l-1.6,3.9c0.8,0.5,1.3,1.3,1.8,1.8l3.9-1.6
	c1.3-0.5,2.6,0,3.1,1l3.6,6.5c0.5,1,0.3,2.6-0.5,3.3l-3.1,2.6c0.3,0.8,0.5,1.8,0.8,2.6l4.1,0.5c1.3,0.3,2.1,1.3,2.1,2.6v7.4
	c0,1.3-1,2.3-2.1,2.6l-4.1,0.5c-0.3,0.8-0.5,1.8-0.8,2.6l3.1,2.6c1,0.8,1.3,2.3,0.5,3.3l-3.6,6.5c-0.5,1-2.1,1.6-3.1,1l-3.9-1.6
	c-0.5,0.8-1.3,1.3-1.8,1.8l1.6,3.9c0.5,1.3,0,2.6-1,3.1l-6.5,3.6c-1,0.5-2.6,0.3-3.3-0.5l-2.6-3.1c-0.8,0.3-1.8,0.5-2.6,0.8
	l-0.5,4.1C216.4,327.6,215.4,328.3,214.1,328.3z M208.9,323.2h2.8l0.5-3.6c0.3-1,1-2.1,2.1-2.1c1.8-0.3,3.6-0.8,5.1-1.3
	c1-0.5,2.3,0,2.8,0.8l2.3,2.8l2.6-1.6l-1.3-3.3c-0.5-1,0-2.3,0.8-2.8c1.3-1,2.6-2.3,3.9-3.9c0.8-0.8,1.8-1.3,2.8-0.8l3.3,1.3
	l1.6-2.6l-2.8-2.3c-0.8-0.8-1.3-1.8-0.8-2.8c0.8-1.8,1-3.3,1.3-5.1c0.3-1,1-2.1,2.1-2.1l3.6-0.5v-2.8L238,290c-1-0.3-2.1-1-2.1-2.1
	c-0.3-1.8-0.8-3.6-1.3-5.1c-0.5-1,0-2.3,0.8-2.8l2.8-2.3l-1.6-2.6l-2.8,0.5c-1,0.5-2.3,0-2.8-0.8c-1-1.3-2.3-2.6-3.9-3.9
	c-0.8-0.8-1.3-1.8-0.8-2.8l1.3-3.3l-2.6-1.6l-2.3,2.8c-0.8,0.8-1.8,1.3-2.8,0.8c-1.8-0.8-3.3-1-5.1-1.3c-1-0.3-2.1-1-2.1-2.1
	l-0.5-3.6h-2.8l-0.5,3.6c-0.8,0.8-1.6,1.8-2.6,1.8c-1.8,0.3-3.6,0.8-5.1,1.3c-1,0.5-2.3,0-2.8-0.8l-2.3-2.8l-2.6,1.6l1.3,3.3
	c0.5,1,0,2.3-0.8,2.8c-1.3,1-2.6,2.3-3.9,3.9c-0.8,1-2.1,1.3-3.1,1l-3.3-1.3l-1.6,2.6l2.8,2.3c0.8,0.8,1.3,1.8,0.8,2.8
	c-0.8,1.8-1,3.3-1.3,5.1c-0.3,1-1,2.1-2.1,2.1l-3.6,0.5v2.8l3.6,0.5c1,0.3,2.1,1,2.1,2.1c0.3,1.8,0.8,3.6,1.3,5.1
	c0.5,1,0,2.3-0.8,2.8l-2.8,2.3l1.6,2.6l3.3-1.3c1-0.5,2.3,0,2.8,0.8c1,1.3,2.3,2.6,3.9,3.9c0.8,0.8,1.3,1.8,0.8,2.8l-1.3,3.3
	l2.6,1.6l2.3-2.8c0.8-0.8,1.8-1.3,2.8-0.8c1.8,0.8,3.3,1,5.1,1.3c1,0.3,2.1,1,2.1,2.1L208.9,323.2z"/>
<path d="M210.5,302.4c-5.9,0-10.8-4.9-10.8-10.8c0-5.9,4.9-10.8,10.8-10.8s10.8,4.9,10.8,10.8S216.4,302.4,210.5,302.4z
	 M210.5,285.7c-3.1,0-5.6,2.6-5.6,5.6s2.6,5.6,5.6,5.6s5.6-2.6,5.6-5.6C216.1,288.2,213.6,285.7,210.5,285.7z"/>
<path d="M279.9,203.3c0-0.9,0.1-1.7,0.2-2.6h-98c-2.1,0-3.6-1.6-3.6-3.6v-24.7c0-2.1,1.6-3.6,3.6-3.6l0,0h108
	c2.1,0,3.6,1.6,3.6,3.6v14.6c0.8-0.1,1.7-0.2,2.6-0.2s1.7,0.1,2.6,0.2v-14.6c0-4.9-3.9-8.8-8.8-8.8h-108c-4.9,0-8.8,3.9-8.8,8.8
	v24.7c0,4.9,3.9,8.8,8.8,8.8h98C280,205.1,279.9,204.2,279.9,203.3z"/>
<path d="M296.4,219.8c-0.9,0-1.7-0.1-2.6-0.2v14.6c0,2.1-1.6,3.6-3.6,3.6h-108c-2.1,0-3.6-1.6-3.6-3.6v-24.7
	c0-2.1,1.6-3.6,3.6-3.6h98c-0.1-0.8-0.2-1.7-0.2-2.6s0.1-1.7,0.2-2.6h-98c-4.9,0-8.8,3.9-8.8,8.8v24.7c0,4.9,3.9,8.8,8.8,8.8h108
	c4.9,0,8.8-3.9,8.8-8.8v-14.6C298.1,219.7,297.3,219.8,296.4,219.8z"/>
<path d="M167.9,400.2c-1.9,0-3.6,1.6-3.6,3.6c0,1.9,1.6,3.6,3.6,3.6h171.3c1.9,0,3.6-1.6,3.6-3.6c0-1.9-1.6-3.6-3.6-3.6
	h-25.8l-9.4-32.8H419c8.2,0,15-6.7,15-15v-217c-0.1-8.2-6.8-15-15.1-15H87.9c-8.2,0-15,6.7-15,15v217c0,8.2,6.7,15,15,15H203
	l-9.4,32.8H167.9z M305.8,400.2H201l9.4-32.8h86L305.8,400.2z M419,360.3H87.9c-4.3,0-7.9-3.5-7.9-7.9v-217c0-4.3,3.5-7.9,7.9-7.9
	H419c4.3,0,7.9,3.5,7.9,7.9v217C426.8,356.8,423.3,360.3,419,360.3z M99.3,143.4c-1.9,0-3.6,1.6-3.6,3.6V341c0,1.9,1.6,3.6,3.6,3.6
	h308.3c1.9,0,3.6-1.6,3.6-3.6V146.9c0-1.9-1.6-3.6-3.6-3.6H99.3z M404,337.5H102.9V150.5H404L404,337.5L404,337.5z"/>
</svg>
