<?xml version="1.0" encoding="utf-8"?>
<!-- Generator: Adobe Illustrator 25.0.1, SVG Export Plug-In . SVG Version: 6.00 Build 0)  -->
<svg version="1.1" fill="#8052FD" id="Layer_3" xmlns="http://www.w3.org/2000/svg" xmlns:xlink="http://www.w3.org/1999/xlink" x="0px" y="0px"
	 viewBox="0 0 512 512" style="enable-background:new 0 0 512 512;" xml:space="preserve">

	
	


<path d="M98.5,150.4h8.9v-8.9h-8.9V150.4z M120.5,150.4h141v-8.9h-141V150.4z M131.5,348.5h130v-41.9h-11v-13.1h11
	v-41.9h-11v-13.1h11v-41.9h-130v41.9h11v13.1h-11v41.9h11v13.1h-11V348.5z M252.5,339.5H140.4v-24.1h112.1V339.5z M241.5,306.5
	h-90.1v-13.1h90.1V306.5z M252.5,284.5H140.4v-24.1h112.1V284.5z M241.5,251.5h-90.1v-13.1h90.1V251.5z M252.5,229.5H140.4v-24.1
	h112.1V229.5z M362.6,425.5h52.9v-63.9h-52.9v27.5H345c-9.7,0-17.5-7.8-17.5-17.5V310h35.1v27.5h52.9v-63.9h-52.9V301h-35.1v-95.6
	h35.1v33h52.9v-63.9h-52.9v22h-35.1v-56c0-9.7,7.8-17.5,17.5-17.5h17.5v27.5h52.9V86.5h-52.9V114H345c-14.6,0-26.5,11.9-26.5,26.5
	v111.1h-35.1V146c0-14.6-11.9-26.5-26.5-26.5H103c-14.6,0-26.5,11.9-26.5,26.5v209c0,14.6,11.9,26.5,26.5,26.5h154
	c14.6,0,26.5-11.9,26.5-26.5v-94.5h35.1v111.1c0,14.6,11.9,26.5,26.5,26.5h17.5V425.5z M406.6,416.6h-35.1v-46.1h35.1V416.6z
	 M257,372.6H118.4V172.5H257c9.7,0,17.5,7.8,17.5,17.5v165C274.5,364.7,266.7,372.6,257,372.6z M109.5,372.6H103
	c-9.7,0-17.5-7.8-17.5-17.5V165.9l1.7,1.2c4.6,3.4,10.1,5.3,15.9,5.3h6.5V372.6z M406.6,328.5h-35.1v-46.1h35.1V328.5z M406.6,229.5
	h-35.1v-46.1h35.1V229.5z M274.5,170l-1.7-1.2c-4.6-3.4-10.1-5.3-15.9-5.3H103c-9.7,0-17.5-7.8-17.5-17.5c0-9.7,7.8-17.5,17.5-17.5
	h154c9.7,0,17.5,7.8,17.5,17.5V170z M406.6,141.5h-35.1V95.4h35.1V141.5z"/>
</svg>
