<?xml version="1.0" encoding="utf-8"?>
<!-- Generator: Adobe Illustrator 25.0.1, SVG Export Plug-In . SVG Version: 6.00 Build 0)  -->
<svg version="1.1" fill="#8052FD" id="Layer_1" xmlns="http://www.w3.org/2000/svg" xmlns:xlink="http://www.w3.org/1999/xlink" x="0px" y="0px"
	 viewBox="0 0 512 512" style="enable-background:new 0 0 512 512;" xml:space="preserve">
<g>
	<path d="M194.9,326v-6.3h6.3v-12.7h-6.3v-6.3h-12.7v6.3h-12.6v12.7h12.7v6.3H194.9z"/>
	<path d="M408.2,99.5c-5.9-6.4-13.3-11.3-21.5-14.3c-0.7-0.2-1.4-0.4-2.1-0.4H150.6c-7,0-12.7,5.6-12.7,12.7v13.2
		c-14.2,2.4-25.9,12.7-30,26.5c-4.2,13.9,0,28.8,10.7,38.7l-12,39.9c-0.7,2.3,0,4.8,1.8,6.5c1.8,1.6,4.4,2.1,6.6,1.2l23-9.2v67.5
		h-6.3c-3.5,0-6.3,2.8-6.3,6.3v6.3H93.7c-10.5,0-19,8.5-19,19s8.5,19,19,19h31.7v6.3c0,3.5,2.8,6.3,6.3,6.3h6.3v19h-19
		c-3.3,0-6.1,2.6-6.3,5.9c-1.1,15.6,4,30.9,14.3,42.6c5.9,6.4,13.3,11.3,21.4,14.3c0.7,0.3,1.5,0.4,2.2,0.4h227.7
		c7,0,12.7-5.6,12.7-12.7V148.1h25.2c3.3,0,6.1-2.5,6.3-5.9C423.6,126.7,418.5,111.3,408.2,99.5z M144.3,122.8
		c14,0,25.3,11.3,25.3,25.3s-11.3,25.3-25.3,25.3s-25.3-11.3-25.3-25.3S130.3,122.8,144.3,122.8z M129.7,183.1
		c9.4,3.9,19.9,3.9,29.4,0l7.1,23.8l-19.5-7.7c-1.5-0.6-3.2-0.6-4.7,0l-19.4,7.8L129.7,183.1z M156.9,304.7l30.8-15.3l28.9,24.1
		l-28.9,24.1l-30.8-15.3V304.7z M138,294.5h6.3v38H138V294.5z M93.7,319.7c-3.5,0-6.3-2.8-6.3-6.3c0-3.5,2.8-6.3,6.3-6.3h31.7v12.6
		H93.7z M150.6,345c3.5,0,6.3-2.8,6.3-6.3v-2.4l28.8,14.5c2.2,1.1,5,0.8,6.9-0.8l38-31.7c1.4-1.2,2.3-3,2.3-4.9
		c0-1.9-0.8-3.6-2.3-4.9l-38-31.7c-1.9-1.6-4.6-1.9-6.9-0.8l-28.8,14.4v-2.4c0-3.5-2.8-6.3-6.3-6.3v-67.5l23,9.2
		c2.2,0.9,4.8,0.4,6.6-1.2s2.5-4.2,1.8-6.5l-11.9-39.7c10.7-9.8,14.8-24.8,10.7-38.7c-4.2-13.9-15.8-24.2-30-26.5V97.5h227.7v316.6
		c-5.4-2.3-10.3-5.7-14.3-10c-7.9-9.2-11.9-21.1-11-33.3c0.1-1.8-0.5-3.5-1.7-4.7c-1.2-1.3-2.9-2-4.6-2H150.6V345z M151.8,414.6
		c-5.9-2.3-11.2-5.9-15.5-10.6c-6.7-7.6-10.6-17.3-11-27.4h215c0.4,13.3,5.5,26,14.4,35.9c0.7,0.7,1.3,1.4,2,2.1H151.8z M391,135.5
		v-34c2.9,1.9,5.6,4.1,7.9,6.7c6.7,7.6,10.5,17.3,11,27.4H391z"/>
	<path d="M257.1,308.2h101.2v12.7H257.1V308.2z"/>
	<path d="M138,141.8h12.7v12.7H138V141.8z"/>
	<path d="M239.2,122.8h50.6v12.7h-50.6L239.2,122.8L239.2,122.8z"/>
	<path d="M220.2,173.4h88.6v12.7h-88.6V173.4z"/>
	<path d="M201.3,198.7h126.5v12.7H201.3V198.7z"/>
	<path d="M201.3,224h126.5v12.7H201.3V224z"/>
	<path d="M201.3,249.3h126.5v12.6H201.3V249.3z"/>
</g>
</svg>
