<?xml version="1.0" encoding="utf-8"?>
<!-- Generator: Adobe Illustrator 25.0.1, SVG Export Plug-In . SVG Version: 6.00 Build 0)  -->
<svg version="1.1" fill="#8052FD" xmlns="http://www.w3.org/2000/svg" xmlns:xlink="http://www.w3.org/1999/xlink" x="0px" y="0px"
	 viewBox="0 0 100 100" style="enable-background:new 0 0 100 100;" xml:space="preserve">

	
	


<g id="Layer_1">
	<g>
		<g>
			<path d="M67.7,51.4c0.7,3.5,3.7,6.1,7.4,6.1c4.2,0,7.6-3.4,7.6-7.6s-3.4-7.6-7.6-7.6c-3.6,0-6.7,2.6-7.4,6.1H59V28
				c0-1.2,1-2.2,2.2-2.2h6.6c0.7,3.5,3.7,6.1,7.4,6.1c4.2,0,7.6-3.4,7.6-7.6s-3.5-7.5-7.6-7.5c-3.6,0-6.7,2.6-7.4,6.1h-6.6
				c-2.9,0-5.2,2.3-5.2,5.2v20.5h-9v-1.1c0-1.5-1.2-2.6-2.6-2.6h-1.6c-0.2-0.5-0.4-0.9-0.6-1.4l1.2-1.2c1-1,1-2.7,0-3.7L39.7,35
				c-1-1-2.8-1-3.7,0l-1.2,1.2c-0.5-0.2-0.9-0.4-1.4-0.6v-1.8c0-1.5-1.2-2.6-2.6-2.6h-5.1c-1.5,0-2.6,1.2-2.6,2.6v1.6
				c-0.5,0.2-0.9,0.4-1.4,0.6l-1.2-1.2c-0.5-0.5-1.2-0.8-1.9-0.8l0,0c-0.7,0-1.4,0.3-1.9,0.8l-3.6,3.6c-0.5,0.5-0.8,1.2-0.8,1.9
				c0,0.7,0.3,1.4,0.8,1.9l1.2,1.2c-0.4,0.5-0.6,1-0.8,1.5H12c-1.5,0-2.6,1.2-2.6,2.6v5.1c0,1.5,1.2,2.6,2.6,2.6h1.6
				c0.2,0.5,0.4,0.9,0.6,1.4L13,57.7c-0.5,0.5-0.8,1.2-0.8,1.9s0.3,1.4,0.8,1.9l3.6,3.6c1,1,2.7,1,3.7,0l1.2-1.2
				c0.5,0.2,0.9,0.4,1.4,0.6v1.7c0,1.5,1.2,2.6,2.6,2.6h5.1c1.5,0,2.6-1.2,2.6-2.6v-1.6c0.5-0.2,0.9-0.4,1.4-0.6l1.2,1.2
				c1,1,2.7,1,3.7,0l3.6-3.6c0.5-0.5,0.8-1.2,0.8-1.9c0-0.7-0.3-1.4-0.8-1.9l-1-1.2c0.2-0.5,0.4-0.9,0.6-1.4h1.6
				c1.5,0,2.6-1.2,2.6-2.6v-1.1h9V72c0,2.9,2.3,5.2,5.2,5.2h6.6c0.6,3.4,3.7,5.9,7.3,5.9c4.2,0,7.6-3.4,7.6-7.6
				c0-4.2-3.4-7.6-7.6-7.6c-3.6,0-6.7,2.6-7.4,6.1h-6.6c-1.2,0-2.2-1-2.2-2.2V51.4H67.7z M75.1,45.3c2.5,0,4.6,2.1,4.6,4.6
				c0,2.5-2.1,4.6-4.6,4.6c-2.5,0-4.6-2.1-4.6-4.6C70.5,47.4,72.6,45.3,75.1,45.3z M75.1,19.7c2.5,0,4.6,2.1,4.6,4.6
				S77.7,29,75.1,29c-2.5,0-4.6-2.1-4.6-4.6S72.6,19.7,75.1,19.7z M44.1,52.2h-2.4c-0.7,0-1.2,0.5-1.4,1.1c-0.3,1-0.7,1.9-1.2,2.9
				c-0.3,0.5-0.2,1.3,0.2,1.8l1.7,1.7l-3.2,3.2l-1.7-1.7c-0.5-0.5-1.2-0.5-1.8-0.2c-0.8,0.5-1.9,0.9-2.9,1.2
				c-0.6,0.2-1.1,0.8-1.1,1.4v2.4h-4.5v-2.4c0-0.7-0.5-1.2-1.1-1.4c-1-0.3-1.9-0.7-2.9-1.2c-0.5-0.3-1.3-0.2-1.8,0.2l-1.7,1.7
				l-3.2-3.2l1.7-1.7c0.5-0.5,0.5-1.2,0.2-1.8c-0.5-0.8-0.9-1.9-1.2-2.9c-0.2-0.6-0.8-1.1-1.4-1.1h-2.4v-4.6h2.4
				c0.7,0,1.2-0.5,1.4-1.1c0.3-1,0.7-1.9,1.2-2.9c0.3-0.5,0.2-1.3-0.2-1.8l-1.7-1.7l3.2-3.2l1.7,1.7c0.5,0.5,1.2,0.5,1.8,0.2
				c0.8-0.5,1.9-0.9,2.9-1.2c0.6-0.2,1.1-0.8,1.1-1.4V34h4.6v2.4c0,0.7,0.5,1.2,1.1,1.4c1,0.3,1.9,0.7,2.9,1.2
				c0.5,0.3,1.3,0.2,1.8-0.2l1.7-1.7l3.2,3.2l-1.7,1.7c-0.5,0.5-0.5,1.2-0.2,1.8c0.5,0.8,0.9,1.9,1.2,2.9c0.2,0.6,0.8,1.1,1.4,1.1
				h2.4L44.1,52.2L44.1,52.2z M75.1,71c2.5,0,4.6,2.1,4.6,4.6s-2.1,4.6-4.6,4.6c-2.5,0-4.6-2.1-4.6-4.6S72.6,71,75.1,71z"/>
			<path d="M35,48.2l-8.8-5.5c-0.7-0.4-1.5-0.5-2.2-0.1s-1.1,1.1-1.1,1.9v10.9c0,0.8,0.4,1.5,1.1,1.9
				c0.3,0.2,0.7,0.2,1,0.2c0.4,0,0.8-0.1,1.2-0.3l8.8-5.5c0.7-0.3,1-0.9,1-1.7S35.7,48.6,35,48.2z M25.9,54v-8l6.5,4L25.9,54z"/>
		</g>
	</g>
</g>
</svg>
