<?xml version="1.0" encoding="utf-8"?>
<!-- Generator: Adobe Illustrator 25.0.1, SVG Export Plug-In . SVG Version: 6.00 Build 0)  -->
<svg version="1.1" fill="#8052FD" id="Layer_1" xmlns="http://www.w3.org/2000/svg" xmlns:xlink="http://www.w3.org/1999/xlink" x="0px" y="0px"
	 viewBox="0 0 480 480" style="enable-background:new 0 0 480 480;" xml:space="preserve">

	
	


<path d="M171.2,375.8l0.8,0.4c6.4,3.2,13,5.9,19.7,8.2l0.9,0.3l12,36.1c0.8,2.4,3,4,5.6,4H270c2.5,0,4.7-1.6,5.6-4
	l12-36.1l0.9-0.3c6.7-2.3,13.3-5,19.7-8.2l0.8-0.4l32.2,15.3c1.9,0.9,4.2,0.7,5.9-0.5c16.9-12,31.6-26.7,43.7-43.7
	c1.3-1.7,1.4-4,0.5-5.9l-15.3-32.2l0.4-0.8c3.2-6.4,5.9-13,8.2-19.7l0.3-0.9l36.1-12c2.4-0.8,4-3,4-5.6V210c0-2.5-1.6-4.7-4-5.6
	l-36.4-12l-8.8-21l15.4-32.5c0.9-1.9,0.7-4.2-0.5-5.9c-12-16.9-26.8-31.7-43.7-43.7c-1.7-1.2-4-1.4-5.9-0.5l-32.5,15.4l-21-8.8
	l-12-36.4c-0.8-2.4-3-4-5.6-4h-59.8c-2.5,0-4.7,1.6-5.6,4l-12,36.4l-21,8.8L139,88.8c-1.9-0.9-4.2-0.7-5.9,0.5
	c-16.9,12-31.6,26.8-43.6,43.7c-1.3,1.7-1.4,4-0.5,5.9l15.4,32.5l-8.8,21l-36.4,12c-2.4,0.8-4,3-4,5.6v59.8c0,2.5,1.6,4.7,4,5.6
	l36.1,12l0.3,0.9c2.2,6.7,5,13.2,8.2,19.7l0.4,0.8L88.9,341c-0.9,1.9-0.7,4.1,0.5,5.9c12,16.9,26.7,31.7,43.7,43.7
	c1.7,1.2,4,1.4,5.9,0.5L171.2,375.8z M265.7,413.1h-51.4l-11.5-34.9c-0.6-1.8-2-3.2-3.9-3.7c-8.6-2.6-16.9-6.1-24.8-10.4
	c-1.7-0.8-3.5-0.9-5.2-0.1l-31.7,15.1l-0.9-0.7c-13.1-9.9-24.7-21.5-34.5-34.5l-0.7-0.9l15.1-31.7c0.8-1.7,0.8-3.6-0.1-5.2
	c-4.3-8-7.7-16.3-10.4-24.8c-0.6-1.9-1.9-3.3-3.7-3.9l-34.9-11.5v-51.4l34.9-11.5c1.6-0.5,2.9-1.8,3.5-3.3l10.8-25.9
	c0.7-1.5,0.6-3.3-0.1-4.7l-15.1-31.7l0.7-0.9c9.9-13.1,21.5-24.7,34.5-34.5l0.9-0.7l31.7,15.1c1.5,0.7,3.2,0.8,4.7,0.1l25.9-10.8
	c1.6-0.7,2.8-1.9,3.3-3.5L214.4,67h51.4l11.5,34.9c0.5,1.6,1.8,2.9,3.3,3.5l25.9,10.8c1.5,0.7,3.3,0.6,4.7-0.1l31.7-15.1l0.9,0.7
	c13.1,9.8,24.7,21.4,34.5,34.5l0.7,0.9L364,168.9c-0.7,1.5-0.8,3.2-0.1,4.7l10.8,25.9c0.7,1.6,1.9,2.8,3.5,3.3l34.9,11.6v51.4
	l-34.9,11.5c-1.8,0.6-3.2,2-3.8,3.9c-2.6,8.5-6.1,16.9-10.4,24.8c-0.8,1.6-0.9,3.5-0.1,5.2l15.1,31.7l-0.7,0.9
	c-9.9,13.1-21.5,24.7-34.5,34.5l-0.9,0.7L311.3,364c-1.7-0.8-3.6-0.8-5.2,0.1c-8,4.2-16.3,7.7-24.8,10.4c-1.9,0.6-3.3,1.9-3.9,3.8
	L265.7,413.1z M240,117.4c-67.6,0-122.6,55-122.6,122.6s55,122.6,122.6,122.6s122.6-55,122.6-122.6S307.6,117.4,240,117.4z
	 M240,350.9c-61.1,0-110.9-49.8-110.9-110.9S178.9,129.1,240,129.1S350.9,178.9,350.9,240S301.2,350.9,240,350.9z M213.5,298.7
	L169,255.9c-2.9-2.8-2.9-7.2-0.2-10.1l0,0c2.8-2.9,7.2-2.9,10.1-0.2l34.5,33.2l80.4-78.1c2.9-2.8,7.3-2.7,10.1,0.2l0,0
	c2.8,2.9,2.7,7.3-0.2,10.1L213.5,298.7z"/>
</svg>
