<?xml version="1.0" encoding="utf-8"?>
<!-- Generator: Adobe Illustrator 26.0.1, SVG Export Plug-In . SVG Version: 6.00 Build 0)  -->
<svg version="1.1" fill="#8052FD" id="Layer_1" xmlns="http://www.w3.org/2000/svg" xmlns:xlink="http://www.w3.org/1999/xlink" x="0px" y="0px"
	 viewBox="0 0 198 198" style="enable-background:new 0 0 198 198;" xml:space="preserve">
<g>
	<g>
		<path d="M96.7,144.5c-8.4,0-14.9-4.9-14.9-11.1h4c0,3.8,5,7.1,10.9,7.1c6.1,0,11-3.2,11-7.1h4
			C111.7,139.6,105.1,144.5,96.7,144.5z"/>
	</g>
	<g>
		<path d="M96.4,129.3c-17.2,0-33.8-3.8-43.4-10l-0.9-0.6v-1.1c0-0.4,0-0.8,0-1.2c0-3.4-0.1-8.5,2.1-13.3l0.2-0.3
			c0.3-0.5,0.7-1,1.1-1.5c3.1-4,8.3-10.7,9.3-25.6C66,57.7,79.3,44.6,96.4,44.6c16.8,0,30.4,13.4,31.6,31.2
			c1,15.1,6.3,21.7,9.4,25.7c0.4,0.5,0.7,0.9,1,1.3l0.2,0.3c2.2,4.7,2.1,9.9,2.1,13.3c0,0.4,0,0.8,0,1.2v1.1l-0.9,0.6
			C130.2,125.5,113.6,129.3,96.4,129.3z M56.1,116.5c9.1,5.5,24.4,8.8,40.3,8.8s31.2-3.4,40.3-8.8c0,0,0-0.1,0-0.1
			c0-3,0.1-7.5-1.6-11.3c-0.3-0.3-0.5-0.7-0.8-1.1c-3.4-4.3-9.1-11.6-10.2-27.9c-1.1-15.9-12.7-27.4-27.6-27.4
			c-14.9,0-26.5,11.5-27.6,27.4c-1.1,16-7,23.6-10.1,27.7c-0.3,0.5-0.7,0.9-0.9,1.3c-1.8,3.9-1.7,8.4-1.6,11.3
			C56.1,116.4,56.1,116.4,56.1,116.5z"/>
	</g>
	<g>
		<g>
			<path d="M146.9,132.5l-2.9-2.8c10.4-10.8,10.4-28.3,0-39.1l2.9-2.8C158.8,100.1,158.8,120.2,146.9,132.5z"/>
		</g>
		<g>
			<path d="M158.4,140.9l-2.8-2.9c7.5-7.4,11.6-17.1,11.6-27.5c0-10.4-4.1-20.2-11.6-27.5l2.8-2.9
				c8.3,8.1,12.8,18.9,12.8,30.4C171.2,122,166.7,132.8,158.4,140.9z"/>
		</g>
		<g>
			<path d="M43.5,132.5c-11.9-12.3-11.9-32.4,0-44.7l2.9,2.8c-10.4,10.8-10.4,28.3,0,39.1L43.5,132.5z"/>
		</g>
		<g>
			<path d="M33.6,140.9c-8.3-8.1-12.8-18.9-12.8-30.4c0-11.5,4.6-22.3,12.8-30.4l2.8,2.9c-7.5,7.4-11.6,17.1-11.6,27.5
				c0,10.4,4.1,20.2,11.6,27.5L33.6,140.9z"/>
		</g>
	</g>
	<g>
		<path d="M87.9,47.9c-2-2.2-3-5-3-8c0-6.7,5.3-12.1,11.9-12.1s11.9,5.4,11.9,12.1c0,2.9-1,5.7-3,8l-3.1-2.6
			c0.9-1.1,2-3,2-5.4c0-4.5-3.5-8.1-7.9-8.1c-4.4,0-7.9,3.6-7.9,8.1c0,2,0.7,3.9,2,5.4L87.9,47.9z"/>
	</g>
</g>
</svg>
