<?xml version="1.0" encoding="utf-8"?>
<!-- Generator: Adobe Illustrator 25.0.1, SVG Export Plug-In . SVG Version: 6.00 Build 0)  -->
<svg version="1.1" fill="#8052FD" id="Layer_1" xmlns="http://www.w3.org/2000/svg" xmlns:xlink="http://www.w3.org/1999/xlink" x="0px" y="0px"
	 viewBox="0 0 473.1 470.8" style="enable-background:new 0 0 473.1 470.8;" xml:space="preserve">

	
	


<g id="Layer_2_1_">
	<g id="Layer_1-2">
		<g id="NewGroupe0">
			<g id="NewGroup0-0">
				<path d="M218.1,89.6c1.7-3.9,4.4-7.3,8-9.7c10.1-6.8,23.7-4.1,30.5,6c2.4,3.6,3.7,7.9,3.7,12.3
					c0,3.2-0.6,6.4-1.8,9.4c-0.9,2.4-2.1,4.6-3.5,6.7c-2,3-4.6,5.6-7.6,7.5c-1.4,0.9-2.9,1.6-4.4,2.1c-1.5,0.5-3.1,0.7-4.6,0.7
					c-2.8,0-5.6-0.8-8.1-2.2c-2-1.1-3.9-2.6-5.5-4.3c-2.6-2.7-4.7-5.9-6.1-9.3c-1.4-3.3-2.2-6.9-2.3-10.6
					C216.4,95.3,217,92.4,218.1,89.6L218.1,89.6z M213.9,119.6c2.7,4.1,6.3,7.5,10.4,10.2c2.1,1.3,4.3,2.3,6.7,3.1
					c2.4,0.7,4.9,1.1,7.4,1.1c4.4,0,8.8-1.2,12.7-3.4c2.8-1.6,5.4-3.6,7.7-5.9c3.4-3.5,6.1-7.7,8-12.2c1.9-4.5,3-9.3,3-14.2
					c0-17.4-14.1-31.4-31.4-31.4S207,80.9,207,98.2c0,4.4,0.8,8.7,2.4,12.7C210.5,114,212,116.9,213.9,119.6z"/>
				<polygon points="264.6,349.5 264.5,349.5 264.5,349.5 				"/>
				<path d="M402.5,384.5c-1.3-2-3-3.7-4.9-5.1V257.8l2-1.4l0,0c1-0.7,1.8-1.6,2.5-2.5c0.9-1.3,1.6-2.8,1.9-4.4
					c0.4-1.5,0.6-3.1,0.6-4.6c0-1.3-0.1-2.6-0.5-3.9c-0.3-1.4-0.9-2.6-1.7-3.8c-1.1-1.6-2.6-2.9-4.3-3.7c-3.9-2-8.6-1.7-12.2,0.8
					l-110,77v-67.9c0-0.5,0-1,0.1-1.4c0.1-0.8,0.3-1.6,0.5-2.4c0.2-0.8,0.4-1.4,0.5-1.8c0.5-1.4,0.7-2.8,0.7-4.3v-59.2l28,5.4
					c0.9,0.2,1.8,0.3,2.7,0.3c1.2,0,2.4-0.1,3.5-0.4l35.3-9c7.6-1.9,12.1-9.6,10.2-17.2c-1.9-7.6-9.6-12.1-17.2-10.2l-32.2,8.2
					l-37-7.1c-0.5-0.1-1-0.2-1.5-0.4c-0.9-0.3-2.1-0.7-3.2-1.2s-2.2-0.9-3.2-1.3c-2.6-1-5.4-1.5-8.2-1.5h-33.1c-2.3,0-4.5,0.3-6.7,1
					c-1.1,0.3-2.4,0.7-3.7,1c-0.6,0.1-1.3,0.3-1.8,0.3c-0.5,0.1-1,0.1-1.4,0.1h-0.3l0,0l-30-2.1c-0.4,0-0.8-0.1-1.2-0.2
					c-0.8-0.2-1.6-0.6-2.4-0.9c-0.6-0.3-1.2-0.7-1.7-1.1l-22-20.8c-5.7-5.4-14.6-5.1-20,0.6c-5.4,5.7-5.1,14.6,0.6,20l27.9,26.3
					c2.4,2.2,5.5,3.6,8.7,3.8l30.7,2.1h0.1c0.1,0,0.1,0.1,0.2,0.2c0,0,0.1,0.1,0.1,0.1v48.3c0,0.4,0.1,0.8,0.2,1.2
					c-0.1,0.5-0.2,0.9-0.2,1.4c0,0.1,0,0.2,0,0.3c0,0.7-0.1,1.4-0.2,2.1c-0.2,0.8-0.4,1.6-0.7,2.3l0,0.1c-0.3,0.7-0.6,1.3-1,2
					c-0.5,0.8-1.2,1.6-1.9,2.7l0,0l-2.1,3l-46.3,66.8c-5.2,7.5-3.3,17.8,4.1,23c7.5,5.2,17.8,3.3,23-4.1l50.3-72.4h19.2v79.6
					L93.9,351l-11.6,1.9l0,0l-4.8,0.8c-6.4,1.1-10.8,7.1-9.7,13.5c0,0,0,0,0,0l0,0c0.2,1.3,0.6,2.6,1.2,3.9c0.4,1,0.9,1.9,1.5,2.9
					c0.4,0.7,0.9,1.4,1.4,2c0.9,1,1.9,1.9,3,2.6c0.7,0.4,1.3,0.7,2.1,0.9c0.3,0.1,0.6,0.2,0.9,0.2c-4.6,3.5-7.4,8.9-7.4,14.7v3.3
					c0,2.6,2.1,4.7,4.7,4.7h33c2.6,0,4.7-2.1,4.7-4.7v-3.3c0-6-2.9-11.6-7.9-15v-2.7l159.5-27.3c1.7-0.3,3.4-1,4.8-2l0,0l103-72.6
					v105c-4.9,3.4-7.9,9-7.9,15v3.3c0,2.6,2.1,4.7,4.7,4.7c0,0,0,0,0.1,0l31.5-0.5c2.6,0,4.6-2.1,4.6-4.7v-3.3
					C405.5,391,404.5,387.5,402.5,384.5z M221.5,237.3c-1.5,0-3,0.8-3.9,2l-51.7,74.5c-2.2,3.2-6.7,4-9.8,1.7c-1.9-1.3-3-3.5-3-5.8
					c0-1.4,0.4-2.8,1.3-4l46.4-66.8l2.1-3l0-0.1c0.5-0.8,1.2-1.7,1.9-2.8c0.8-1.2,1.5-2.5,2-3.9l0,0l0-0.1l0,0l0,0
					c0.4-1.2,0.8-2.4,1.1-3.6c0.3-1.3,0.5-2.7,0.5-4.1c0-0.2,0-0.5,0-0.7c0-0.3-0.1-0.7-0.2-1c0.1-0.4,0.2-0.8,0.2-1.2v-48.3
					c0-1.3-0.2-2.5-0.7-3.6c-0.7-1.7-1.8-3.1-3.2-4.2c-1.5-1.1-3.3-1.8-5.1-1.9l-30.7-2.1c-1.1-0.1-2.1-0.5-2.9-1.3l-27.9-26.3
					c-0.5-0.4-0.9-1-1.1-1.6c-0.5-1.1-0.5-2.4,0-3.6c0.2-0.6,0.5-1.1,0.9-1.5c0.4-0.5,1-0.9,1.6-1.1c0.6-0.2,1.2-0.4,1.8-0.4
					c0.6,0,1.2,0.1,1.7,0.3c0.6,0.2,1.1,0.5,1.5,1l22,20.8c0.8,0.7,1.6,1.3,2.4,1.9c1.3,0.8,2.7,1.5,4.1,2c0.7,0.3,1.4,0.5,2.2,0.6
					c0.8,0.2,1.5,0.3,2.3,0.4l30,2.1l0,0c0.3,0,0.6,0,1,0c0.9,0,1.8-0.1,2.7-0.2c1.3-0.2,2.6-0.4,3.8-0.7c1.2-0.3,2.3-0.6,3.2-0.9
					c1.3-0.4,2.6-0.6,3.9-0.6h33c1.7,0,3.3,0.3,4.8,0.9l1.9,0.8c1.1,0.4,2.4,1,3.6,1.4c0.6,0.2,1.3,0.4,1.9,0.6
					c0.7,0.2,1.3,0.4,2,0.5l38,7.3c0.7,0.1,1.4,0.1,2.1-0.1l33.2-8.5c0.4-0.1,0.8-0.2,1.2-0.1c2.2,0,4,1.5,4.6,3.6
					c0.1,0.4,0.2,0.8,0.1,1.2c0,2.2-1.5,4-3.6,4.6l-35.3,8.9c-0.4,0.1-0.8,0.1-1.2,0.1c-0.3,0-0.6,0-0.9-0.1l-29-5.6
					c-0.6-0.1-1.2-0.2-1.8-0.2c-1.1,0-2.2,0.2-3.3,0.6c-1.6,0.6-2.9,1.8-3.8,3.2c-0.9,1.4-1.4,3.1-1.4,4.8v60.1
					c0,0.4-0.1,0.8-0.2,1.2c-0.2,0.5-0.3,1-0.5,1.6c-0.3,0.9-0.5,2-0.7,3.2c-0.2,1.3-0.3,2.5-0.4,3.8v73.9l-14.1,6.1V242
					c0-2.6-2.1-4.7-4.7-4.7c0,0,0,0,0,0H221.5z M374,393.5c0.2-1.2,0.6-2.4,1.3-3.4c0.9-1.4,2.2-2.5,3.7-3.2
					c1.7-0.8,2.7-2.5,2.7-4.3V265.8c0-2.6-2.1-4.7-4.7-4.7c-1,0-1.9,0.3-2.7,0.9l0,0L264,339.8c-0.3,0.2-0.6,0.3-1,0.4l0,0
					l-163.5,28c-2.3,0.4-3.9,2.4-3.9,4.6v9.3c0,1.8,1,3.5,2.7,4.3c1.5,0.7,2.8,1.8,3.7,3.2c0.7,1,1.1,2.2,1.3,3.5H80
					c0.5-2.9,2.4-5.4,5-6.7c1.7-0.8,2.7-2.5,2.7-4.3v-7.4c0-2.6-2.1-4.7-4.7-4.7c-0.3,0-0.5,0-0.8,0.1l-2.5,0.4h-0.1
					c-0.1-0.1-0.3-0.2-0.4-0.4c-0.6-0.6-1.1-1.4-1.4-2.1c-0.2-0.4-0.4-0.8-0.5-1.3c-0.1-0.3-0.2-0.7-0.3-1c0-0.1,0-0.3,0-0.4
					c0-0.5,0.2-1.1,0.6-1.5c0.2-0.2,0.4-0.4,0.6-0.5c0.2-0.1,0.5-0.2,0.8-0.3l4.8-0.8l0,0l11.6-2l153.5-25.4h0.1l0.3-0.1l0.2,0
					l0.2-0.1c0.1,0,0.2-0.1,0.2-0.1h0.1l23.2-10l0.2-0.1l0.2-0.1c0.2-0.1,0.3-0.2,0.5-0.3L391.5,242c0.7-0.5,1.7-0.6,2.4-0.2
					c0.3,0.2,0.6,0.4,0.8,0.7c0.1,0.2,0.2,0.4,0.2,0.7c0.1,0.5,0.2,1.1,0.2,1.6c0,1-0.2,1.9-0.5,2.9c-0.1,0.3-0.2,0.6-0.4,0.8
					c0,0.1-0.1,0.1-0.1,0.2l0,0l-4,2.8l-0.1,0l0,0c-1.2,0.9-1.9,2.3-1.9,3.8v126.8c0,1.8,1,3.5,2.7,4.3c1.5,0.7,2.8,1.8,3.7,3.2
					c0.7,1.1,1.1,2.3,1.3,3.5L374,393.5z"/>
			</g>
		</g>
	</g>
</g>
</svg>
