<?xml version="1.0" encoding="utf-8"?>
<!-- Generator: Adobe Illustrator 25.0.1, SVG Export Plug-In . SVG Version: 6.00 Build 0)  -->
<svg version="1.1" fill="#8052FD" id="Layer_1" xmlns="http://www.w3.org/2000/svg" xmlns:xlink="http://www.w3.org/1999/xlink" x="0px" y="0px"
	 viewBox="0 0 496 496" style="enable-background:new 0 0 496 496;" xml:space="preserve">

	
	


<path d="M312.7,152.5H183.3c-5.9,0-10.8,4.9-10.8,10.8v32.4c0,4,2.2,7.4,5.4,9.3v13.8c-3.2,1.9-5.4,5.3-5.4,9.3v32.4
	c0,4,2.2,7.4,5.4,9.3v13.8c-3.2,1.9-5.4,5.3-5.4,9.3v32.4c0,4,2.2,7.4,5.4,9.3v13.8c-3.2,1.9-5.4,5.3-5.4,9.3v32.4
	c0,5.9,4.9,10.8,10.8,10.8h129.5c5.9,0,10.8-4.9,10.8-10.8v-32.4c0-4-2.2-7.4-5.4-9.3v-13.8c3.2-1.9,5.4-5.3,5.4-9.3v-32.4
	c0-4-2.2-7.4-5.4-9.3v-13.8c3.2-1.9,5.4-5.3,5.4-9.3v-32.4c0-4-2.2-7.4-5.4-9.3V205c3.2-1.9,5.4-5.3,5.4-9.3v-32.4
	C323.5,157.4,318.7,152.5,312.7,152.5z M183.3,163.3h129.5v32.4H183.3V163.3z M188.7,346.7V336h118.7v10.8H188.7z M183.3,325.2
	v-32.4h129.5v32.4H183.3z M188.7,282v-10.8h118.7V282H188.7z M183.3,260.4v-32.4h129.5v32.4H183.3z M188.7,217.3v-10.8h118.7v10.8
	H188.7z M183.3,389.9v-32.4h129.5v32.4H183.3z"/>
<path d="M129.3,314.4h10.8v10.8h-10.8V314.4z"/>
<path d="M129.3,336h10.8v10.8h-10.8V336z"/>
<path d="M355.9,314.4h10.8v10.8h-10.8V314.4z"/>
<path d="M366.7,282h17.2c2.2,6.3,8.2,10.8,15.2,10.8c8.9,0,16.2-7.3,16.2-16.2s-7.3-16.2-16.2-16.2
	c-7,0-12.9,4.5-15.2,10.8h-17.2v-43.2h5.4c23.8,0,43.2-19.4,43.2-43.2c0-20.1-13.8-37-32.4-41.7c0-0.5,0.1-0.9,0.1-1.4
	c0-35.7-29.1-64.7-64.7-64.7c-18.6,0-36.3,8.1-48.5,21.9C254.7,79,231,66.2,204.8,66.2c-42.8,0-77.9,33.4-80.7,75.5
	c-0.1,0-0.2,0-0.3,0c-23.8,0-43.2,19.4-43.2,43.2s19.4,43.2,43.2,43.2h5.4v43.2h-17.2c-2.2-6.3-8.2-10.8-15.2-10.8
	c-8.9,0-16.2,7.3-16.2,16.2s7.3,16.2,16.2,16.2c7,0,12.9-4.5,15.2-10.8h17.2v21.6h10.8V255h10.8v124.1h-10.8v-21.6h-10.8v21.6h-17.2
	c-2.2-6.3-8.2-10.8-15.2-10.8c-8.9,0-16.2,7.3-16.2,16.2c0,8.9,7.3,16.2,16.2,16.2c7,0,12.9-4.5,15.2-10.8h38.8v10.8h10.8V206.5
	h-10.8v37.8h-10.8v-27h-16.2c-17.9,0-32.4-14.5-32.4-32.4s14.5-32.4,32.4-32.4c8.8,0,17,3.4,23.1,9.7l7.7-7.6
	c-5.5-5.7-12.4-9.6-19.8-11.5C137,106.3,167.5,77,204.8,77c34.7,0,64.5,25.8,69.5,60.1l10.7-1.6c-1.4-9.8-4.6-18.9-9.1-27.2
	c10.2-12.9,25.8-20.6,42.3-20.6c29.7,0,53.9,24.2,53.9,53.9c-11.7,0-22.7,4.6-30.8,12.9l7.7,7.6c6.1-6.3,14.4-9.7,23.1-9.7
	c17.9,0,32.4,14.5,32.4,32.4s-14.5,32.4-32.4,32.4h-16.2v27h-10.8v-37.8h-10.8v194.2h10.8v-10.8h38.8c2.2,6.3,8.2,10.8,15.2,10.8
	c8.9,0,16.2-7.3,16.2-16.2c0-8.9-7.3-16.2-16.2-16.2c-7,0-12.9,4.5-15.2,10.8h-17.2v-21.6h-10.8v21.6h-10.8V255h10.8v48.6h10.8V282z
	 M399.1,271.2c3,0,5.4,2.4,5.4,5.4c0,3-2.4,5.4-5.4,5.4c-3,0-5.4-2.4-5.4-5.4C393.7,273.6,396.1,271.2,399.1,271.2z M96.9,282
	c-3,0-5.4-2.4-5.4-5.4c0-3,2.4-5.4,5.4-5.4c3,0,5.4,2.4,5.4,5.4C102.3,279.6,99.9,282,96.9,282z M96.9,389.9c-3,0-5.4-2.4-5.4-5.4
	c0-3,2.4-5.4,5.4-5.4c3,0,5.4,2.4,5.4,5.4C102.3,387.5,99.9,389.9,96.9,389.9z M399.1,379.1c3,0,5.4,2.4,5.4,5.4
	c0,3-2.4,5.4-5.4,5.4c-3,0-5.4-2.4-5.4-5.4C393.7,381.5,396.1,379.1,399.1,379.1z"/>
<path d="M355.9,336h10.8v10.8h-10.8V336z"/>
<path d="M194.1,174.1h10.8v10.8h-10.8V174.1z"/>
<path d="M215.6,174.1h10.8v10.8h-10.8V174.1z"/>
<path d="M269.6,238.9h10.8v10.8h-10.8V238.9z"/>
<path d="M291.2,238.9h10.8v10.8h-10.8V238.9z"/>
<path d="M188.7,303.6h10.8v10.8h-10.8V303.6z"/>
<path d="M210.2,303.6H221v10.8h-10.8V303.6z"/>
<path d="M269.6,368.3h10.8v10.8h-10.8V368.3z"/>
<path d="M291.2,368.3h10.8v10.8h-10.8V368.3z"/>
</svg>
