<?xml version="1.0" encoding="utf-8"?>
<!-- Generator: Adobe Illustrator 25.0.1, SVG Export Plug-In . SVG Version: 6.00 Build 0)  -->
<svg version="1.1" fill="#8052FD" id="Capa_1" xmlns="http://www.w3.org/2000/svg" xmlns:xlink="http://www.w3.org/1999/xlink" x="0px" y="0px"
	 viewBox="0 0 512 512" style="enable-background:new 0 0 512 512;" xml:space="preserve">
<path d="M256.5,79c-47.4,0-92,18.5-125.5,52c-33.5,33.5-52,78.1-52,125.5s18.5,92,52,125.5s78.1,52,125.5,52
	s92-18.5,125.5-52c33.5-33.5,52-78.1,52-125.5s-18.5-92-52-125.5l0,0C348.5,97.5,303.9,79,256.5,79z M256.5,420.7
	C166,420.7,92.3,347,92.3,256.5S166,92.4,256.5,92.4S420.6,166,420.6,256.5C420.6,347,347,420.7,256.5,420.7z M256.5,149.9
	c-58.8,0-106.6,47.8-106.6,106.6s47.8,106.6,106.6,106.6s106.6-47.8,106.6-106.6S315.3,149.9,256.5,149.9z M256.5,349.8
	c-47.2,0-87-35.3-92.6-82.1l-0.6-4.4h186.3l-0.6,4.4C343.5,314.5,303.7,349.8,256.5,349.8z M349.6,249.8H163.4l0.6-4.4
	c5.6-46.8,45.4-82.2,92.6-82.2s87,35.4,92.6,82.2L349.6,249.8z"/>
</svg>
