<?xml version="1.0" encoding="utf-8"?>
<!-- Generator: Adobe Illustrator 25.0.1, SVG Export Plug-In . SVG Version: 6.00 Build 0)  -->
<svg version="1.1" fill="#8052FD" id="Layer_1" xmlns="http://www.w3.org/2000/svg" xmlns:xlink="http://www.w3.org/1999/xlink" x="0px" y="0px"
	 viewBox="0 0 512 512" style="enable-background:new 0 0 512 512;" xml:space="preserve">

	
	


<path d="M100.2,161.3c-0.7-8.1-0.2-16.3,1.4-24.3c2.2-10,6.5-18.2,12.9-24.6c8.9-8.9,21.4-13.8,37.1-14.5
	c7.6-0.3,15.2,0.2,22.7,1.5l2-11.4c-8.3-1.5-16.8-2-25.2-1.7c-18.7,0.9-33.8,6.9-44.8,17.9c-7.9,7.9-13.3,18.1-16,30.3
	c0,0,0,0,0,0.1c-1.9,9.1-2.4,18.5-1.6,27.7L100.2,161.3z"/>
<path d="M125.5,236.7c-3.5-6.3-6.7-12.7-9.5-18.9l-10.5,4.7c2.9,6.5,6.3,13.1,9.9,19.7L125.5,236.7z"/>
<path d="M92,183.6c1.4,6.2,3.2,12.3,5.3,18.3l10.9-3.7c-1.9-5.6-3.6-11.4-4.9-17.2L92,183.6z"/>
<path d="M170.5,300.2c-0.5-0.6-1-1.1-1.5-1.7l-8.7,7.6c0.5,0.6,1,1.2,1.5,1.8c2.9,3.3,6,6.7,9.1,10
	c1.4,1.5,2.8,2.9,4.2,4.4l8.3-8c-1.4-1.4-2.7-2.9-4.1-4.3C176.3,306.7,173.3,303.4,170.5,300.2z"/>
<path d="M146.4,289.1l9.1-7.1c-0.8-1.1-1.7-2.2-2.5-3.2c-3.5-4.6-6.9-9.3-10.1-13.9l-9.5,6.5c3.3,4.8,6.8,9.6,10.4,14.4
	C144.6,286.9,145.5,288,146.4,289.1z"/>
<path d="M184.9,332.1c10.9,10.6,22.4,20.7,34.3,30.1c16.3,12.8,33.6,24.1,51.8,33.9c10.7,5.7,21.7,10.6,33,14.7l-10.5,3
	l3.2,11.1l29.5-8.4c3.1-0.9,4.8-4.1,4-7.1l-7.7-26.9l-11.1,3.2l4.9,17.1c-13.8-4.4-27.1-10-39.8-16.8c-17.6-9.4-34.4-20.4-50.1-32.8
	c-11.7-9.1-22.8-18.9-33.4-29.2L184.9,332.1z"/>
<path d="M421.2,334c-2.4-14.7-7.2-30.5-14.5-47l-10.6,4.6c6.8,15.6,11.4,30.5,13.6,44.2c4.1,25.8-0.4,46.1-13.1,58.8
	c-6.3,6.3-14.5,10.6-24.3,12.8c-8,1.8-17,2.2-26.8,1.3c-2.4-0.2-4.9-0.6-7.4-1l-1.8,11.4c2.7,0.4,5.5,0.8,8.1,1
	c3.8,0.4,7.4,0.5,11,0.5c6.6,0,13.1-0.6,19.5-2c12-2.7,22.1-8.1,29.9-15.9C420.2,387.4,425.9,363.6,421.2,334z"/>
<path d="M393.2,260.2l-10,5.7c2.8,4.9,5.4,9.8,7.8,14.6l10.3-5.1C398.8,270.4,396.1,265.3,393.2,260.2z"/>
<path d="M366.4,220.1l-9.2,7c4.3,5.6,8.5,11.4,12.5,17.3l9.5-6.5C375.2,231.9,370.9,225.9,366.4,220.1z"/>
<path d="M337.9,186.8l-8.3,8c4.9,5.1,9.7,10.4,14.3,15.8l8.8-7.5C347.9,197.6,343,192.1,337.9,186.8z"/>
<path d="M195,126.9l11.3-2.4l-3.7-17.4c10.6,3.8,20.9,8.3,30.8,13.5c17.4,9.2,34,19.9,49.5,32
	c7.3,5.7,14.7,11.8,21.9,18.2c4,3.6,8,7.3,12,11.1c1.7,1.7,3.5,3.4,5.2,5.1l8.2-8.2c-1.8-1.8-3.6-3.6-5.3-5.3
	c-4.1-3.9-8.2-7.8-12.3-11.5c-7.4-6.6-15-12.9-22.6-18.7c-7.3-5.7-14.9-11.1-22.7-16.2c4.4-2.5,8.9-4.9,13.2-7l-5.1-10.3
	c-5.2,2.6-10.5,5.4-15.7,8.4l3.7,6.4c-8-5.1-16.2-9.9-24.5-14.3c-7.5-3.9-15.1-7.5-22.9-10.6l10.2-2.2l-2.4-11.3l-30,6.4
	c-3.1,0.7-5.1,3.7-4.4,6.8L195,126.9z"/>
<path d="M88.1,334.9c-1.5,8.3-2,16.8-1.7,25.2c0.9,18.7,6.9,33.8,17.9,44.8c7.9,7.9,18.1,13.3,30.3,16c0,0,0,0,0.1,0
	c6.4,1.3,12.8,2,19.3,2c2.8,0,5.6-0.1,8.4-0.4l-1-11.5c-8.1,0.7-16.3,0.2-24.3-1.4c-10-2.2-18.2-6.5-24.6-12.9
	c-8.9-8.9-13.8-21.4-14.5-37.1c-0.3-7.6,0.2-15.2,1.5-22.7L88.1,334.9z"/>
<path d="M222.4,405.7c6.5-2.9,13.1-6.3,19.7-9.9l-5.5-10.1c-6.3,3.5-12.7,6.7-18.9,9.5L222.4,405.7z"/>
<path d="M183.6,419.1c6.2-1.4,12.3-3.2,18.3-5.3l-3.7-10.9c-5.6,1.9-11.4,3.6-17.2,4.9L183.6,419.1z"/>
<path d="M298.4,342.2l7.6,8.7c0.6-0.5,1.2-1,1.8-1.5c3.3-2.9,6.7-6,10-9.1c1.5-1.4,2.9-2.8,4.4-4.2l-8-8.3
	c-1.4,1.4-2.9,2.7-4.3,4.1c-3.2,3-6.5,6-9.7,8.8C299.6,341.2,299,341.7,298.4,342.2z"/>
<path d="M264.8,368.3l6.5,9.5c4.8-3.3,9.6-6.8,14.4-10.4c1.1-0.8,2.2-1.7,3.3-2.6l-7.1-9.1c-1.1,0.8-2.2,1.7-3.2,2.5
	C274.1,361.7,269.4,365.1,264.8,368.3z"/>
<path d="M335.8,101.4c25.8-4.1,46.1,0.4,58.8,13.1c6.3,6.3,10.6,14.5,12.8,24.3c1.8,8,2.2,17,1.3,26.8
	c-0.2,2.4-0.5,4.9-0.9,7.4l11.4,1.8c0.4-2.7,0.8-5.5,1-8.1c1.1-11.1,0.6-21.3-1.5-30.5c-2.7-12-8.1-22.1-15.9-29.9
	c-15.4-15.4-39.2-21.1-68.8-16.3c-14.7,2.4-30.5,7.2-47,14.5l4.6,10.6C307.1,108.2,322,103.6,335.8,101.4z"/>
<path d="M210.5,167.3l-7.5-8.8c-5.5,4.7-11,9.7-16.3,14.7l8,8.3C199.8,176.7,205.2,171.9,210.5,167.3z"/>
<path d="M244.4,141.4l-6.5-9.5c-6,4.1-12,8.4-17.8,12.8l7,9.2C232.7,149.6,238.5,145.4,244.4,141.4z"/>
<path d="M416.3,184.9c-0.9-3.1-4.1-4.8-7.1-4l-26.9,7.7l3.2,11.1l17.1-4.9c-4.4,13.8-10,27.1-16.8,39.8
	c-9.4,17.6-20.4,34.4-32.8,50.1c-9.1,11.7-18.9,22.8-29.2,33.4l8.3,8.1c10.6-10.9,20.7-22.4,30.1-34.3
	c12.8-16.3,24.1-33.6,33.9-51.8c5.7-10.7,10.6-21.7,14.7-33l3,10.5l11.1-3.2L416.3,184.9z"/>
<path d="M98.3,322.1c0.4,0,0.8,0,1.2-0.1l27.3-5.8l-2.4-11.3l-17.4,3.7c3.8-10.6,8.3-20.9,13.5-30.8
	c9.2-17.4,19.9-34,32-49.5c5.7-7.3,11.8-14.7,18.2-21.9c3.6-4,7.3-8,11.1-12c1.7-1.7,3.4-3.5,5.1-5.2l-8.2-8.2
	c-1.8,1.8-3.5,3.6-5.3,5.3c-3.9,4.1-7.8,8.2-11.5,12.3c-6.6,7.4-12.9,15-18.7,22.6c-12.5,16.1-23.6,33.2-33.1,51.2
	c-3.9,7.5-7.5,15.1-10.6,22.9l-2.2-10.2l-11.3,2.4l6.4,30C93.2,320.2,95.6,322.1,98.3,322.1z"/>
<path d="M205.8,209.9v91.5c0,4.9,2.7,11.8,16.6,16.8c9,3.3,20.7,5,33.2,5h0.4c7.2,0,14.4-0.7,21.5-2
	c18-3.4,28.4-10.7,28.4-19.9v-91.5c0-4.9-3.1-11.8-16.9-16.8c-9-3.3-20.9-5-33.4-5c-12.5,0-24.2,1.8-33.2,5
	C208.6,198.1,205.8,205,205.8,209.9z M275.4,309.9c-6.5,1.2-13.1,1.8-19.8,1.8c-11.2,0-21.5-1.5-29.3-4.4c-7.6-2.7-9-5.5-9-5.9
	v-16.1c1.6,0.9,3.3,1.6,5.1,2.2c9,3.3,20.7,5,33.3,5c12.5,0,24.4-1.8,33.4-5c2-0.7,3.2-1.5,5.4-2.2v16.1
	C294.4,302.4,289.8,307.1,275.4,309.9z M294.4,270.7c0,0.4-1.7,3.2-9.3,5.9c-7.8,2.8-18.3,4.4-29.5,4.4c-11.2,0-21.5-1.5-29.3-4.4
	c-7.6-2.7-9-5.5-9-5.9v-15.9c1.6,0.9,3.3,1.6,5.1,2.2c9,3.3,20.7,5,33.3,5c12.5,0,24.4-1.8,33.4-5c2-0.7,3.2-1.5,5.4-2.2V270.7z
	 M285.1,246.2c-7.8,2.8-18.3,4.4-29.5,4.4c-11.2,0-21.5-1.5-29.3-4.4c-7.6-2.7-9-5.5-9-5.9v-15.9c1.6,0.9,3.3,1.6,5.1,2.2
	c9,3.3,20.7,5,33.3,5s24.4-1.8,33.4-5c2-0.7,3.2-1.5,5.4-2.2v15.9C294.4,240.7,292.7,243.5,285.1,246.2z M226.2,203.9
	c7.8-2.8,18.2-4.4,29.4-4.4c11.2,0,21.6,1.5,29.4,4.4c7.6,2.7,9.2,5.5,9.2,5.9c0,0.4-1.6,3.2-9.2,5.9c-7.8,2.8-18.2,4.4-29.4,4.4
	c-11.2,0-21.6-1.5-29.4-4.4c-7.6-2.7-9.2-5.5-9.2-5.9C217,209.4,218.6,206.7,226.2,203.9L226.2,203.9z"/>
</svg>
