<?xml version="1.0" encoding="utf-8"?>
<!-- Generator: Adobe Illustrator 25.0.1, SVG Export Plug-In . SVG Version: 6.00 Build 0)  -->
<svg version="1.1" fill="#8052FD" id="Layer_1" xmlns="http://www.w3.org/2000/svg" xmlns:xlink="http://www.w3.org/1999/xlink" x="0px" y="0px"
	 viewBox="0 0 495 495" style="enable-background:new 0 0 495 495;" xml:space="preserve">

	
	

<g id="Layer_2_1_">
	<g id="Calque_1">
		<path d="M361.7,199.5h-22.6v-22.8H118.8v191.4c0,28.6,23.2,51.8,51.8,51.8h116.6c22.1,0,41.7-14,49-34.9h25.5
			c32,0,58-26,58-58v-69.5C419.7,225.5,393.8,199.6,361.7,199.5z M339.1,234.6h22.3c12.7,0,22.9,10.3,22.9,22.9v69.5
			c0,12.7-10.3,22.9-22.9,22.9h-22.3V234.6z M287.3,408.2H170.6c-22.1,0-40-17.9-40-40V188.6h196.6v179.6
			C327.2,390.2,309.3,408.1,287.3,408.2z M407.9,327.1c0,25.5-20.7,46.2-46.2,46.2h-22.9c0.2-1.7,0.3-3.4,0.3-5.1v-6.3h22.3
			c19.2,0,34.7-15.6,34.8-34.8v-69.5c0-19.2-15.6-34.7-34.8-34.8h-22.3v-11.4h22.6c25.5,0,46.2,20.7,46.2,46.2V327.1z"/>
		<path d="M159.3,126.8c5.8,3.1,7.3,4.2,7.3,7.8c0,4.7-1.9,6-7.5,8.9c-5.9,3.1-14.8,7.7-14.8,21.5h11.8
			c0-6.3,2.6-8,8.5-11c5.9-3.1,13.9-7.2,13.9-19.4c0-11.1-7.8-15.2-13.6-18.3c-6.1-3.2-9.1-5.1-9.1-11.5c0-5.7,2.8-7.5,8.6-10.7
			s13.8-7.6,13.8-19.1h-11.8c0,4.2-1.9,5.6-7.7,8.8c-6.2,3.4-14.7,8.1-14.7,21C143.9,118.6,153.2,123.5,159.3,126.8z"/>
		<path d="M227.8,126.8c5.8,3.1,7.3,4.2,7.3,7.8c0,4.7-1.9,6-7.5,8.9c-5.9,3.1-14.8,7.7-14.8,21.5h11.8
			c0-6.3,2.6-8,8.5-11c5.9-3.1,13.9-7.2,13.9-19.4c0-11.1-7.8-15.2-13.6-18.3c-6.1-3.2-9.1-5.1-9.1-11.5c0-5.7,2.8-7.5,8.6-10.7
			s13.8-7.7,13.8-19.1h-11.8c0,4.2-1.9,5.6-7.7,8.8c-6.2,3.4-14.7,8.1-14.7,21C212.5,118.6,221.7,123.5,227.8,126.8z"/>
		<path d="M297.6,126.8c5.8,3.1,7.3,4.2,7.3,7.8c0,4.7-1.9,6-7.5,8.9c-5.9,3.1-14.8,7.7-14.8,21.5h11.8
			c0-6.3,2.6-8,8.5-11c5.9-3.1,13.9-7.2,13.9-19.4c0-11.1-7.8-15.2-13.6-18.3c-6.1-3.2-9.1-5.1-9.1-11.5c0-5.7,2.8-7.5,8.6-10.7
			s13.8-7.7,13.8-19.1h-11.8c0,4.2-1.9,5.6-7.7,8.8c-6.2,3.4-14.7,8.1-14.7,21C282.3,118.6,291.5,123.5,297.6,126.8z"/>
		<path d="M230.1,222.6c-41.1,0-74.3,33.3-74.3,74.3s33.3,74.3,74.3,74.3s74.3-33.3,74.3-74.3
			C304.4,255.9,271.2,222.6,230.1,222.6z M230.1,359.4c-34.5,0-62.5-28-62.5-62.5c0-34.5,28-62.5,62.5-62.5s62.5,28,62.5,62.5
			C292.6,331.4,264.6,359.4,230.1,359.4z"/>
		<polygon points="261.7,257.9 235.2,284.2 235.2,247.2 223.3,247.2 223.3,296 212.7,306.6 221,315 223.3,312.7 
			223.3,314.5 235.2,314.5 235.2,300.9 270,266.3 		"/>
	</g>
</g>
</svg>
