<?xml version="1.0" encoding="utf-8"?>
<!-- Generator: Adobe Illustrator 25.0.1, SVG Export Plug-In . SVG Version: 6.00 Build 0)  -->
<svg version="1.1" fill="#8052FD" id="Layer_1" xmlns="http://www.w3.org/2000/svg" xmlns:xlink="http://www.w3.org/1999/xlink" x="0px" y="0px"
	 viewBox="0 0 512 512" style="enable-background:new 0 0 512 512;" xml:space="preserve">
<g>
	<path d="M223.2,60.3c-0.4,0-0.8,0-1.2,0.1c-64.2,12.2-111.6,68.6-112.6,134l-0.2,0.9l-48.6,89.1c-0.5,0.9-0.8,2-0.8,3
		v8.3c0,3.5,2.9,6.4,6.4,6.4h43.2v43.2c0,8.4,3.3,16.2,9.1,21.9c5.8,6,13.6,9.2,22.1,9.2h26.7v68c0,3.5,2.9,6.4,6.4,6.4
		s6.4-2.9,6.4-6.4v-74.4c0-3.5-2.9-6.4-6.4-6.4h-33.1c-5,0-9.6-1.9-13.1-5.5c-3.5-3.4-5.3-8-5.3-13v-49.6c0-3.5-2.9-6.4-6.4-6.4
		H72.3l49-89.8c0.5-0.9,0.8-1.9,0.8-3c0-60.4,43-112.5,102.3-123.7c1.6-0.3,3.1-1.2,4-2.6c0.9-1.4,1.3-3.1,1-4.7
		c-0.3-1.7-1.2-3.1-2.6-4.1C225.6,60.6,224.4,60.3,223.2,60.3z"/>
	<path d="M256.2,319.5c-0.8,0-1.5,0.2-2.2,0.4c-2.5,0.9-4.1,3.3-4.1,5.9v85.6c0,3.5,2.9,6.4,6.4,6.4
		c3.5,0,6.4-2.9,6.4-6.4v-72.6l2.7,1.2c5,2.2,10.3,3.3,15.7,3.3c21.7,0,39.4-17.7,39.4-39.4c0-21.7-17.7-39.4-39.4-39.4
		c-11.3,0-22.1,4.9-29.5,13.4c-1.1,1.2-1.7,2.9-1.5,4.6c0.2,1.7,0.9,3.3,2.2,4.3c2.6,2.3,6.7,2,8.9-0.6c5.1-5.8,12.4-9.1,20.1-9.1
		c14.7,0,26.7,12,26.7,26.7c0,14.7-12,26.7-26.7,26.7c-7.7,0-15-3.3-20.1-9.1C259.7,320.3,258,319.5,256.2,319.5z"/>
	<rect x="282.9" y="438.2" width="12.6" height="12.6"/>
	<rect x="249.8" y="438.2" width="12.6" height="12.6"/>
	<rect x="216.8" y="438.2" width="12.6" height="12.6"/>
	<path d="M338.8,363.8c-3.5,0-6.4,2.9-6.4,6.4v74.4c0,3.5,2.9,6.4,6.4,6.4c3.5,0,6.4-2.9,6.4-6.4v-68h26.7
		c8.3,0,16.1-3.3,22-9.1c5.9-5.9,9.1-13.7,9.1-22v-43.2h43.2c3.5,0,6.4-2.9,6.4-6.4v-8.3c0-1.1-0.2-2.1-0.8-3l-48.8-90
		C401.9,119.2,339.7,58,264.4,58h-8.3c-3.5,0-6.4,2.9-6.4,6.4v72.5l-2.7-1.2c-5-2.2-10.3-3.3-15.7-3.3c-21.7,0-39.4,17.7-39.4,39.4
		s17.7,39.4,39.4,39.4c5.4,0,10.8-1.1,15.7-3.3l2.7-1.2V246c0,3.5,2.9,6.4,6.4,6.4c3.5,0,6.4-2.9,6.4-6.4v-52.5c0-2.6-1.6-5-4.1-5.9
		c-2.5-0.9-5.3-0.2-7,1.7c-5.1,5.8-12.4,9.1-20.1,9.1c-14.7,0-26.7-12-26.7-26.7s12-26.7,26.7-26.7c7.7,0,15,3.3,20.1,9.1
		c1.7,1.9,4.6,2.6,7,1.7c2.5-0.9,4.1-3.3,4.1-5.9V70.6h1.9c69.4,0,125.9,56.5,125.9,125.9c0,1.1,0.2,2.1,0.8,3l49,89.8h-43.5
		c-3.5,0-6.4,2.9-6.4,6.4v49.6c0,5-1.9,9.6-5.4,13.1c-3.5,3.5-8.1,5.4-13.1,5.4H338.8z"/>
</g>
</svg>
