<?xml version="1.0" encoding="utf-8"?>
<!-- Generator: Adobe Illustrator 25.0.1, SVG Export Plug-In . SVG Version: 6.00 Build 0)  -->
<svg version="1.1" fill="#8052FD" id="Capa_1" xmlns="http://www.w3.org/2000/svg" xmlns:xlink="http://www.w3.org/1999/xlink" x="0px" y="0px"
	 viewBox="0 0 512 512" style="enable-background:new 0 0 512 512;" xml:space="preserve">

	
	


<g>
	<path d="M352.5,74.2c0-0.7-0.2-1.4-0.5-2c-2.3-8.5-12-16.5-27.2-22.4c-17.4-6.7-40.7-10.2-67.8-10.2
		c-27,0-50.4,3.5-67.8,10.2c-15.2,5.9-24.9,13.8-27.2,22.4c-0.4,0.5-0.5,1.3-0.5,2v140.9c0,0.6,0.2,1.3,0.5,1.8
		c2.3,9.2,13.2,17.6,31,23.5c17.4,5.9,40.3,9.2,64.1,9.2c23.8,0,46.6-3.3,64-9.1c17.7-6,28.7-14.3,31-23.5c0.3-0.6,0.5-1.3,0.5-2
		V74.2z M169.7,118.8V91.3c0.2,0.2,0.4,0.4,0.6,0.5l0.3,0.2c0.2,0.1,0.2,0.2,0.5,0.4l0.4,0.3c1.2,0.9,2.4,1.8,3.8,2.7
		c0.2,0.1,0.3,0.2,0.4,0.2l0.5,0.3c1.1,0.7,2.3,1.3,3.6,2c0.3,0.2,0.6,0.3,0.9,0.5l0.5,0.2c1.5,0.7,2.9,1.4,4.4,2h0.1
		c0.1,0,0.2,0.1,0.2,0.1c0.2,0.1,0.3,0.2,0.5,0.2l0.2,0.1c1.6,0.7,3.4,1.4,5.6,2.1l1.6,0.5c1.5,0.5,3,1,4.8,1.6l0.5,0.2
		c0.5,0.2,0.9,0.2,1.3,0.4c2.3,0.6,4.6,1.3,7,1.7h0.1c0.2,0.1,0.4,0.1,0.5,0.1l0.4,0.1c2.2,0.5,4.3,0.9,6.6,1.3
		c0.7,0.1,1.3,0.2,2,0.3l0.3,0.1c2,0.3,4.1,0.6,6.6,0.9l0.9,0.2c0.2,0.1,0.5,0.1,0.8,0.1c2.7,0.3,5.6,0.6,8.8,0.9l2.3,0.2
		c2.3,0.2,4.8,0.3,7,0.4l3.1,0.2c3.6,0.2,6.9,0.2,10.1,0.2c3.2,0,6.5-0.1,10.1-0.2l3.1-0.2c2.5-0.2,4.8-0.2,7-0.4
		c0.4,0,0.9-0.1,1.3-0.1l1-0.1c3.1-0.2,6.1-0.5,8.8-0.9c0.3,0,0.5-0.1,0.8-0.1l0.9-0.2c2.5-0.3,4.7-0.6,6.6-0.9l0.3-0.1
		c0.7-0.1,1.4-0.2,2-0.3c2.3-0.4,4.5-0.8,6.6-1.3l1-0.2c2.3-0.5,4.7-1.1,7-1.7l1.1-0.3c0.2-0.1,0.5-0.2,0.7-0.2
		c1.8-0.5,3.4-1,4.9-1.6l1.7-0.5c2-0.7,3.8-1.4,5.5-2.1l0.2-0.1c0.2-0.1,0.2-0.1,0.4-0.2l-0.5-1.1l0.6,1c0.1,0,0.2-0.1,0.2-0.1h0.1
		c1.3-0.5,2.8-1.3,4.4-2.1l1.4-0.7c1.5-0.8,2.6-1.4,3.5-2h0.2c0.2-0.1,0.4-0.2,0.5-0.3c1.1-0.7,2.3-1.5,3.4-2.4l0.4-0.3
		c0.2-0.2,0.5-0.4,0.8-0.6l0.3-0.2c0.2-0.2,0.5-0.4,0.6-0.5v27.5c-0.2,0.5-0.2,1.2-0.1,1.8c0.1,0.4,0.1,0.8,0.1,1.2
		c0,0.6-0.1,1.2-0.2,1.7l-0.1,0.2l0,0c-0.1,0.4-0.2,0.8-0.4,1.2c-0.2,0.4-0.3,0.8-0.5,1.1c-0.2,0.5-0.5,0.9-0.9,1.3
		c-0.2,0.3-0.5,0.6-0.7,0.9l-0.2,0.2c-0.5,0.5-0.9,1-1.3,1.5c-0.2,0.2-0.3,0.3-0.5,0.5l-0.5,0.5c-0.7,0.6-1.3,1.1-2,1.6l-0.3,0.2
		c-0.2,0.2-0.5,0.3-0.7,0.5c-0.7,0.5-1.6,1.1-2.7,1.8l-0.8,0.5c-1.2,0.7-2.3,1.3-3.6,1.9c-0.1,0.1-0.2,0.1-0.4,0.2l-0.2,0.1
		c-1.4,0.7-2.9,1.3-4.2,1.9l-0.4,0.2c-6.1,2.3-12.5,4.3-18.9,5.7c-2.3-3.9-5.2-7.6-8.4-10.9C286,123.8,272,118,257.1,118H257
		c-14.9,0-28.8,5.8-39.3,16.3c-3.4,3.4-6.2,7-8.5,10.9c-6.5-1.4-12.9-3.4-19-5.7l-0.2-0.1c-1.4-0.5-2.8-1.2-4.5-2l-0.1-0.1
		c-0.2-0.1-0.3-0.2-0.4-0.2H185c-1.2-0.5-2.3-1.2-3.6-1.9c-0.2-0.1-0.3-0.2-0.5-0.2l-0.4-0.2c-0.9-0.5-1.8-1.1-2.7-1.8
		c-0.3-0.2-0.6-0.4-0.9-0.6c-0.6-0.5-1.3-0.9-2-1.6l-0.1-0.1c-0.3-0.3-0.6-0.5-0.9-0.9c-0.5-0.5-0.9-1-1.4-1.5
		c-0.3-0.3-0.5-0.6-0.8-1c-0.3-0.5-0.6-0.9-0.9-1.4c-0.2-0.4-0.4-0.7-0.5-1.1s-0.3-0.9-0.4-1.3v-0.1c-0.2-0.5-0.2-1.2-0.2-1.7
		c0-0.4,0-0.8,0.1-1.3C169.9,120,169.8,119.4,169.7,118.8z M320,95.2c-16.8,5.9-39.2,9.2-63,9.2s-46.3-3.3-63-9.2
		c-15.2-5.3-24.2-12.4-24.2-19c0-6.6,9.1-13.7,24.2-19.1c16.8-5.9,39.2-9.2,63.1-9.2c23.8,0,46.2,3.3,63,9.2
		c15.2,5.3,24.2,12.5,24.2,19.1C344.3,82.8,335.2,89.9,320,95.2z M344.1,166.4c0.1,0.4,0.1,0.8,0.1,1.2c0,0.6-0.1,1.2-0.3,1.8
		c-0.1,0.5-0.2,0.9-0.5,1.3c-0.2,0.4-0.3,0.7-0.5,1.1c-0.2,0.5-0.5,0.9-0.9,1.4c-0.2,0.3-0.5,0.7-0.8,1l-0.1,0.1
		c-0.4,0.4-0.8,0.9-1.3,1.3c-0.4,0.3-0.7,0.6-1,0.9c-0.6,0.5-1.3,1.1-2,1.6c-0.3,0.2-0.6,0.4-0.9,0.6l-0.1,0.1
		c-0.8,0.5-1.7,1.2-2.7,1.8c-0.2,0.2-0.5,0.3-0.8,0.5c-1.3,0.7-2.5,1.3-3.6,1.9c-0.1,0.1-0.2,0.1-0.2,0.2l-0.2,0.1
		c-1.6,0.8-3,1.4-4.5,2l-0.2,0.1c-4.4,1.7-8.8,3.1-13.4,4.4c1.5-5,2.3-10.3,2.3-15.8c0-7.2-1.3-14.2-4-20.7
		c13.8-3.3,25.2-8.1,32.8-13.8c0.9-0.6,1.8-1.4,2.7-2.1v27.5C344,165.1,344,165.7,344.1,166.4z M169.7,164.5V137
		c0.9,0.8,1.6,1.4,2.4,2c7.7,5.9,19.2,10.6,33.2,14c-2.6,6.5-4,13.4-4,20.6c0,5.5,0.8,10.8,2.3,15.9c-4.5-1.2-9.1-2.7-13.5-4.4
		l-0.2-0.1c-1.6-0.7-3.1-1.3-4.5-2c-0.1-0.1-0.2-0.1-0.4-0.2l-0.2-0.1c-1.3-0.6-2.4-1.3-3.6-2l-0.8-0.4c-1-0.6-1.9-1.2-2.7-1.8
		l-0.9-0.6c-0.6-0.5-1.3-0.9-2-1.6c-0.3-0.2-0.6-0.5-1-0.9c-0.5-0.5-0.9-0.9-1.3-1.4l-0.1-0.1c-0.2-0.3-0.5-0.6-0.8-1
		c-0.3-0.5-0.6-0.9-0.9-1.3s-0.4-0.8-0.5-1.1c-0.2-0.5-0.3-0.9-0.5-1.4c-0.2-0.5-0.2-1.2-0.2-1.7c0-0.4,0-0.9,0.1-1.3
		C169.9,165.7,169.8,165.1,169.7,164.5z M303.9,173.2c0.1,25.9-21,46.9-46.8,47H257c-25.8,0-46.8-21-46.9-46.8
		c0-12.5,4.8-24.3,13.7-33.2c8.8-8.8,20.6-13.8,33.2-13.8l0,0c6.3,0,12.5,1.3,18.3,3.7C292.7,137.4,303.9,154.4,303.9,173.2z
		 M169.8,182.7c0.8,0.7,1.6,1.3,2.4,2c8.1,6.2,20.3,11.2,35.4,14.5c2.6,5,5.9,9.7,10.1,13.8c10.5,10.6,24.5,16.3,39.3,16.3h0.1
		c7.5,0,14.8-1.5,21.7-4.4c12.3-5.2,22-14.5,27.8-25.8c14.8-3.3,26.9-8.2,35-14.3c0.9-0.7,1.8-1.4,2.7-2.1v31.4v0.1
		c0,0.2-0.1,0.2-0.1,0.4v0.1c-1.1,6.4-10.7,13.2-25.7,18.2c-16.7,5.6-38.5,8.7-61.5,8.7c-23,0-44.8-3-61.5-8.7
		c-15-5-24.6-11.8-25.7-18.2v-0.2c0-0.1,0-0.2-0.1-0.3c0-0.1,0-0.1,0-0.2V182.7z"/>
	<path d="M277.7,160.1L277.7,160.1h-10.3l12-19.1c0.7-1.1,0.7-2.5,0-3.6c-0.6-1-1.7-1.6-3-1.6H257c-1.2,0-2.3,0.6-3,1.6
		l-18.3,36.5c-0.6,1.1-0.6,2.4,0.1,3.5c0.6,0.9,1.7,1.6,2.9,1.6h9.2l-12.2,29.4c-0.6,1.5-0.2,3.2,1.2,4.1c0.5,0.4,1.2,0.6,1.8,0.6
		c0.1,0,0.2,0,0.2,0c0.9,0,1.8-0.4,2.4-1l39-46.3l0.1-0.2c0.7-1,0.9-2.4,0.2-3.5C280.2,160.9,279,160.1,277.7,160.1z M256.2,176.9
		l0.1-0.2c0.4-1,0.2-2.2-0.4-3l-0.2-0.3c-0.6-0.7-1.6-1.1-2.6-1.2h-8.8l14.8-29.6h11.1l-12.1,19c-0.7,1.1-0.7,2.5,0,3.6
		c0.6,1,1.7,1.6,3,1.6h9.3l-19.8,23.4L256.2,176.9z"/>
</g>
<path d="M80.3,265.6c-2.8,0-5.1,2.3-5.1,5.1v130.2c0,2.8,2.3,5.1,5.1,5.1h68.2c2.8,0,5.1-2.3,5.1-5.1V299.2l56.9-18.5
	c10.3-3.4,21.5-3.8,32.2-1.1l73.7,18.7c6.8,1.7,11.2,8.1,10.5,15c-0.7,7.2-6.7,12.7-13.9,12.7h-58.6c-2.8,0-5.1,2.3-5.1,5.1
	s2.3,5.1,5.1,5.1h23c0.3,0,0.5,0,0.8,0.1h0.2h36.1c11.5,0,22.5-4.3,31-12.2l62.7-58.4c5.5-5.2,13.9-5.6,20-1.1
	c3.8,2.8,6,7.1,6.3,11.7c0.2,4.7-1.6,9.2-5,12.4L343,369c-6.4,5.9-14.7,9.2-23.4,9.2H206.4c-2.8,0-5.1,2.3-5.1,5.1
	c0,2.8,2.3,5.1,5.1,5.1h113.2c11.3,0,22-4.2,30.3-11.9l86.5-80.5c5.7-5.3,8.7-12.8,8.2-20.5l0,0c-0.4-7.7-4.2-14.7-10.4-19.3
	c-10.1-7.4-24-6.6-33.1,1.8L337,317.8l0.2-5.2c0.3-11.3-7.2-21.3-18.3-24.2l-73.6-18.7c-12.6-3.2-25.6-2.7-37.8,1.3l-53.8,17.4
	v-17.7c0-2.8-2.3-5.1-5.1-5.1L80.3,265.6L80.3,265.6z M143.4,395.8h-58V275.9h58C143.4,275.9,143.4,395.8,143.4,395.8z M177,378.2
	c-1.3,0-2.7,0.5-3.7,1.5c-0.9,0.9-1.4,2.2-1.4,3.6c0,1.3,0.5,2.7,1.5,3.7c0.9,0.9,2.2,1.4,3.6,1.4c1.3,0,2.7-0.5,3.7-1.5
	c0.9-0.9,1.4-2.2,1.4-3.6c0-1.4-0.5-2.7-1.5-3.6l0,0C179.7,378.7,178.4,378.2,177,378.2z M114.4,370.7c-1.3,0-2.7,0.5-3.7,1.5
	c-0.9,0.9-1.4,2.2-1.4,3.6c0,1.3,0.5,2.7,1.5,3.7c0.9,0.9,2.2,1.4,3.6,1.4c1.3,0,2.7-0.5,3.7-1.5c0.9-0.9,1.4-2.2,1.4-3.6
	c0-1.3-0.5-2.7-1.5-3.7C117.2,371.2,115.8,370.7,114.4,370.7z M114.4,293.5c-2.8,0-5.1,2.3-5.1,5.1V349c0,2.8,2.3,5.1,5.1,5.1
	s5.1-2.3,5.1-5.1v-50.4C119.6,295.8,117.2,293.5,114.4,293.5z"/>
</svg>
