<?xml version="1.0" encoding="utf-8"?>
<!-- Generator: Adobe Illustrator 25.0.1, SVG Export Plug-In . SVG Version: 6.00 Build 0)  -->
<svg version="1.1" fill="#8052FD" id="Capa_1" xmlns="http://www.w3.org/2000/svg" xmlns:xlink="http://www.w3.org/1999/xlink" x="0px" y="0px"
	 viewBox="0 0 512 512" style="enable-background:new 0 0 512 512;" xml:space="preserve">

	
	


<g>
	<path d="M266.9,301.3h54.6l0.3,1.4c3.2,15.4,16.9,26.6,32.6,26.6c18.4,0,33.3-14.9,33.3-33.3s-14.9-33.3-33.3-33.3
		c-15.8,0-29.5,11.2-32.6,26.6l-0.3,1.4h-54.6l-0.4-1.2c-2.7-7.7-10-12.8-18.2-12.8c-8.1,0-15.4,5.2-18.2,12.8l-0.4,1.2h-37.9
		l-0.3-1.4c-1.3-6.3-4.3-12.1-8.9-16.7l-1-1.1l15.9-23.6l1.3,0.4c2.8,1,5.7,1.5,8.8,1.5c14.5,0,26.3-11.8,26.3-26.3
		c0-14.5-11.8-26.3-26.3-26.3c-14.5,0-26.3,11.8-26.3,26.3c0,6.4,2.4,12.6,6.7,17.5l0.9,1l-16.1,23.8l-1.3-0.6
		c-3.9-1.6-8.1-2.5-12.3-2.5h-1.4l-4.2-21.8l1.1-0.6c5.9-3.4,9.5-9.8,9.5-16.6c0-10.7-8.6-19.3-19.3-19.3
		c-10.7,0-19.3,8.6-19.3,19.3c0,9.5,7.1,17.7,16.4,19.1l1.3,0.2l4.2,21.8l-1.3,0.6c-12.5,5.2-20.5,17.2-20.5,30.8
		c0,18.4,14.9,33.3,33.3,33.3c15.8,0,29.5-11.2,32.6-26.6l0.3-1.4h37.9l0.4,1.2c2.7,7.7,10,12.8,18.2,12.8s15.4-5.2,18.2-12.8
		L266.9,301.3z M354.5,318.8c-12.5,0-22.8-10.2-22.8-22.8c0-12.5,10.2-22.8,22.8-22.8s22.8,10.2,22.8,22.8
		C377.3,308.6,367,318.8,354.5,318.8z M158.9,318.8c-12.5,0-22.8-10.2-22.8-22.8c0-12.5,10.2-22.8,22.8-22.8
		c12.5,0,22.8,10.2,22.8,22.8C181.7,308.6,171.5,318.8,158.9,318.8z M248.4,304.8c-4.8,0-8.8-3.9-8.8-8.8s3.9-8.8,8.8-8.8
		c4.8,0,8.8,3.9,8.8,8.8S253.2,304.8,248.4,304.8z M207.6,239.5c-8.7,0-15.8-7.1-15.8-15.8c0-8.7,7.1-15.8,15.8-15.8
		c8.7,0,15.8,7.1,15.8,15.8C223.3,232.4,216.3,239.5,207.6,239.5z M144.9,232.4c-4.8,0-8.8-3.9-8.8-8.8c0-4.8,3.9-8.8,8.8-8.8
		s8.8,3.9,8.8,8.8C153.7,228.5,149.7,232.4,144.9,232.4z"/>
	<path d="M144.5,369.9c-2.9,0-5.3,2.4-5.3,5.3c0,2.9,2.4,5.3,5.3,5.3c3.1,0,5.5-2.4,5.5-5.3c0-2.9-2.4-5.3-5.3-5.3
		H144.5z M84.3,369.9c-2.9,0-5.3,2.4-5.3,5.3v14c0,10.7,8.6,19.3,19.3,19.3h316.8c10.7,0,19.3-8.6,19.3-19.3v-14
		c0-2.9-2.4-5.3-5.3-5.3h-6V224.5l0.9-0.5c6.3-3.4,10.3-9.9,10.3-17v-84.1c0-10.7-8.6-19.3-19.3-19.3h-21c-2.9,0-5.3,2.4-5.3,5.3
		c0,2.9,2.4,5.3,5.3,5.3h21c4.8,0,8.8,3.9,8.8,8.8v84.1c0,4.1-2.9,7.7-7,8.6c-0.6,0.1-1.2,0.2-1.8,0.2H284.7c-1.4,0-2.7,0.6-3.7,1.5
		L262,236.3V122.8c0-4.8,3.9-8.8,8.8-8.8h75c2.9,0,5.3-2.4,5.3-5.3c0-2.9-2.4-5.3-5.3-5.3h-75c-10.7,0-19.3,8.6-19.3,19.3v22.8
		H109.5c-10.7,0-19.3,8.6-19.3,19.3v205H84.3z M415.1,397.9H98.3c-4.8,0-8.8-3.9-8.8-8.8v-8.8h27c2.9,0,5.3-2.4,5.3-5.3
		c0-2.9-2.4-5.3-5.3-5.3h-15.8v-10.5h311.9v10.5H296.3c-1.1,0-2.2,0.4-3.1,1l-5.5,4h-62.1l-5.5-4c-0.9-0.6-2-1-3.1-1h-52.2
		c-2.9,0-5.3,2.4-5.3,5.3c0,2.9,2.4,5.3,5.3,5.3h50.5l5.5,4c0.9,0.6,2,1,3.1,1h65.5c1.1,0,2.2-0.4,3.1-1l5.5-4h125.8v8.8
		C423.9,394,420,397.9,415.1,397.9z M412.7,348.9H100.7V177.1h150.7V249c0,2.1,1.3,4.1,3.2,4.8c2,0.8,4.3,0.4,5.7-1.1l26.5-26.5
		h125.8V348.9z M251.4,166.6H100.7v-1.8c0-4.8,3.9-8.8,8.8-8.8h141.9V166.6z M365.8,103.5c-2.9,0-5.3,2.4-5.3,5.3
		c0,2.9,2.4,5.3,5.3,5.3c3.1,0,5.5-2.4,5.5-5.3c0-2.9-2.4-5.3-5.3-5.3H365.8z"/>
	<path d="M285.1,176.6h15.5v16.3c0,2.9,2.4,5.3,5.3,5.3s5.3-2.4,5.3-5.3v-43.1c0-10.1-8.2-18.2-18.2-18.2
		c-10,0-18.2,8.2-18.2,18.2v43.1c0,2.9,2.4,5.3,5.3,5.3s5.3-2.4,5.3-5.3L285.1,176.6L285.1,176.6z M300.5,166.1H285v-16.3
		c0-4.3,3.5-7.7,7.7-7.7c4.2,0,7.7,3.5,7.7,7.7L300.5,166.1L300.5,166.1z M331.9,131.6c-2.9,0-5.3,2.4-5.3,5.3v56.1
		c0,2.9,2.4,5.3,5.3,5.3c2.9,0,5.3-2.4,5.3-5.3v-16.3h9c10.7,0,19.5-8.8,19.5-19.5v-6.1c0-10.7-8.8-19.5-19.5-19.5H331.9z
		 M346.1,166.1h-9v-24h9c4.9,0,9,4,9,9v6.1C355.1,162.1,351.1,166.1,346.1,166.1z M386.5,187.7c-2.9,0-5.3,2.4-5.3,5.3
		c0,2.9,2.4,5.3,5.3,5.3H406c2.9,0,5.3-2.4,5.3-5.3c0-2.9-2.4-5.3-5.3-5.3h-4.5v-45.6h4.5c2.9,0,5.3-2.4,5.3-5.3
		c0-2.9-2.4-5.3-5.3-5.3h-19.5c-2.9,0-5.3,2.4-5.3,5.3c0,2.9,2.4,5.3,5.3,5.3h4.5v45.6H386.5z"/>
</g>
</svg>
