<?xml version="1.0" encoding="utf-8"?>
<!-- Generator: Adobe Illustrator 25.0.1, SVG Export Plug-In . SVG Version: 6.00 Build 0)  -->
<svg version="1.1" fill="#8052FD" id="Layer_1" xmlns="http://www.w3.org/2000/svg" xmlns:xlink="http://www.w3.org/1999/xlink" x="0px" y="0px"
	 viewBox="0 0 512 512" style="enable-background:new 0 0 512 512;" xml:space="preserve">

	
	


<g>
	<path d="M416.4,114.5H96c-10,0-18.1,8.1-18.1,18.1v216.8c0,10,8.1,18.1,18.1,18.1H238l-5.5,58
		c-0.1,1.7,0.4,3.3,1.6,4.6c1.1,1.3,2.8,2,4.4,1.9h36.1c1.7,0,3.3-0.7,4.4-1.9c1.1-1.3,1.7-2.9,1.6-4.6l-5.5-58h141.2
		c10,0,18.1-8.1,18.1-18.1V132.6C434.4,122.7,426.3,114.5,416.4,114.5z M96,126.6h320.3c3.3,0,6,2.7,6,6v186.7H90V132.6
		C90,129.3,92.7,126.6,96,126.6z M268.1,420h-23l5-52.4h13L268.1,420z M416.4,355.4H96c-3.3,0-6-2.7-6-6v-18.1h332.4v18.1
		C422.4,352.8,419.7,355.4,416.4,355.4z"/>
	<path d="M262.6,337.4h-12.1c-3.3,0-6,2.7-6,6c0,3.3,2.7,6,6,6h12.1c3.3,0,6-2.7,6-6
		C268.6,340.1,265.9,337.4,262.6,337.4z"/>
	<path d="M233.5,284.8c2.1,0,4.3-0.1,6.4-0.4l13,16.2c1.1,1.4,2.9,2.3,4.7,2.3h18.1v-12.1h-15.2l-7.5-9.3
		c24.7-8.5,41.2-31.9,40.7-58c-0.5-26.1-17.7-49-42.8-56.5l4.3-8.6h32.4v-12.1h-36.1c-2.3,0-4.4,1.3-5.4,3.3l-7.6,15
		c-1.7-0.1-3.4-0.3-5.2-0.3c-12.3,0-24.3,3.8-34.3,10.9c-0.1,0.1-0.1,0.1-0.2,0.1c-0.1,0.1-0.1,0.1-0.2,0.2
		c-21.5,15.1-30.6,42.4-22.7,67.4C184.1,267.9,207.3,284.8,233.5,284.8z M281.3,218.5h-44.6L211,181.9c14-7.4,30.7-7.5,44.8-0.1
		C269.8,189.1,279.4,202.8,281.3,218.5z M201.2,188.9l27.4,39.1c1.1,1.6,3,2.5,4.9,2.5h47.8c-2.6,21.2-18.9,38.2-40,41.7
		c-21.1,3.5-42-7.4-51.2-26.7C180.7,226.3,185.3,203.3,201.2,188.9z"/>
	<path d="M293.8,146.2h73.3v12.1h-73.3V146.2z"/>
	<path d="M311.8,164.3h55.3v12.1h-55.3V164.3z"/>
	<path d="M293.8,164.3h12.1v12.1h-12.1V164.3z"/>
	<path d="M281.7,290.8h77.5v12.1h-77.5V290.8z"/>
	<path d="M311.8,272.7h47.4v12.1h-47.4V272.7z"/>
	<path d="M281.7,272.7h24.1v12.1h-24.1V272.7z"/>
</g>
</svg>
