<?xml version="1.0" encoding="utf-8"?>
<!-- Generator: Adobe Illustrator 25.0.1, SVG Export Plug-In . SVG Version: 6.00 Build 0)  -->
<svg version="1.1" fill="#8052FD" id="Capa_1" xmlns="http://www.w3.org/2000/svg" xmlns:xlink="http://www.w3.org/1999/xlink" x="0px" y="0px"
	 viewBox="0 0 512 512" style="enable-background:new 0 0 512 512;" xml:space="preserve">
<path d="M165.8,95.2H96.2c-2.9,0-5.3,2.4-5.3,5.3V170c0,2.9,2.4,5.3,5.3,5.3h69.5c2.9,0,5.3-2.4,5.3-5.3v-60.3
	l18.2-18.2l-7.5-7.5l-12.4,12.4l-1.1-0.6C167.4,95.4,166.6,95.2,165.8,95.2z M160.5,164.7h-58.9v-58.9h58.4l-28.9,29l-9-9l-7.5,7.5
	l12.8,12.8c2.1,2.1,5.4,2.1,7.5,0l25.7-25.7V164.7z M165.8,220.4H96.2c-2.9,0-5.3,2.4-5.3,5.3v69.5c0,2.9,2.4,5.3,5.3,5.3h69.5
	c2.9,0,5.3-2.4,5.3-5.3v-60.4l18.1-18.1l-7.5-7.5l-12.4,12.4l-1.1-0.6C167.4,220.6,166.6,220.4,165.8,220.4z M160.5,289.9h-58.9
	v-58.9h58.4l-28.9,29l-9-9l-7.5,7.5l12.8,12.8c2.1,2.1,5.4,2.1,7.5,0l25.7-25.7V289.9z M165.8,338.6H96.2c-2.9,0-5.3,2.4-5.3,5.3
	v69.5c0,2.9,2.4,5.3,5.3,5.3h69.5c2.9,0,5.3-2.4,5.3-5.3V353l18.1-18.1l-7.5-7.5l-12.4,12.4l-1.1-0.6
	C167.4,338.8,166.6,338.6,165.8,338.6z M160.5,408.1h-58.9v-58.9h58.4l-28.9,29l-9-9l-7.5,7.5l12.8,12.8c2.1,2.1,5.4,2.1,7.5,0
	l25.7-25.7V408.1z M223.1,161.4h198.4v-10.6H223.1V161.4z M223.1,119.7h198.4v-10.6H223.1V119.7z M223.1,286.6h198.4V276H223.1
	V286.6z M223.1,244.9h198.4v-10.6H223.1V244.9z M223.1,404.8h198.4v-10.6H223.1V404.8z M223.1,363.1h198.4v-10.6H223.1V363.1z"/>
</svg>
