<?xml version="1.0" encoding="utf-8"?>
<!-- Generator: Adobe Illustrator 25.0.1, SVG Export Plug-In . SVG Version: 6.00 Build 0)  -->
<svg version="1.1" fill="#8052FD" id="Layer_1" xmlns="http://www.w3.org/2000/svg" xmlns:xlink="http://www.w3.org/1999/xlink" x="0px" y="0px"
	 viewBox="0 0 512 512" style="enable-background:new 0 0 512 512;" xml:space="preserve">


<g>
	<g>
		
		<g id="Layer_2_1_" class="st2">
			<g id="Layer_1-2">
				<path d="M504,408.8H2c-1.1,0-2-0.9-2-2s0.9-2,2-2h502c1.1,0,2,0.9,2,2S505.1,408.8,504,408.8z"/>
				<path d="M209.2,397.9c-2.7,0-5.8-1.2-9.2-4.3c-0.8-0.7-0.9-2-0.2-2.8s2-0.9,2.8-0.2c4.7,4.2,8.4,4.2,12.1,0.1
					c0.7-0.8,2-0.9,2.8-0.2s0.9,2,0.2,2.8l0,0C215.7,395.8,212.8,397.9,209.2,397.9z"/>
				<path d="M224.3,397.8c-3,0-6.1-1.4-9.2-4.2c-0.8-0.7-0.9-2-0.2-2.8s2-0.9,2.8-0.2c4.7,4.2,8.4,4.2,12.1,0.1
					c0.7-0.8,2-0.9,2.8-0.2s0.9,2,0.2,2.8l0,0C230.3,396.4,227.4,397.8,224.3,397.8z"/>
				<path d="M239.9,397.8c-3,0-6.1-1.4-9.2-4.2c-0.8-0.7-0.9-2-0.2-2.8s2-0.9,2.8-0.2c4.7,4.2,8.4,4.3,12.1,0.1
					c0.7-0.8,2-0.9,2.8-0.2s0.9,2,0.2,2.8l0,0C245.9,396.4,243,397.8,239.9,397.8z"/>
				<path d="M255.6,397.8c-3,0-6.1-1.4-9.2-4.2c-0.8-0.7-0.9-2-0.2-2.8s2-0.9,2.8-0.2c4.7,4.2,8.4,4.2,12.1,0.1
					c0.7-0.8,2-0.9,2.8-0.2s0.9,2,0.2,2.8l0,0C261.5,396.4,258.6,397.8,255.6,397.8z"/>
				<path d="M271.1,397.8c-3,0-6.1-1.4-9.2-4.2c-0.8-0.7-0.9-2-0.2-2.8c0.7-0.8,2-0.9,2.8-0.2c4.7,4.2,8.4,4.2,12.1,0.1
					c0.7-0.8,2-0.9,2.8-0.2s0.9,2,0.2,2.8l0,0C277.1,396.4,274.2,397.8,271.1,397.8z"/>
				<path d="M286.8,397.9c-2.7,0-5.8-1.2-9.2-4.3c-0.8-0.7-0.9-2-0.2-2.8s2-0.9,2.8-0.2c4.7,4.2,8.4,4.2,12.1,0.1
					c0.7-0.8,2-0.9,2.8-0.2s0.9,2,0.2,2.8l0,0C293.2,395.8,290.3,397.9,286.8,397.9z"/>
				<path d="M302.4,397.9c-2.7,0-5.8-1.2-9.2-4.3c-0.8-0.7-0.9-2-0.2-2.8s2-0.9,2.8-0.2c4.7,4.2,8.4,4.2,12.1,0.1
					c0.7-0.8,2-0.9,2.8-0.2s0.9,2,0.2,2.8l0,0C308.8,395.8,305.9,397.9,302.4,397.9z"/>
				<path d="M187.1,407.5c-0.2,0-0.5,0-0.7-0.1c-1-0.4-1.6-1.5-1.2-2.6l0,0l35.1-98l-15.6-4.3l-38.1,103
					c-0.4,1-1.6,1.5-2.6,1.1s-1.5-1.5-1.2-2.5l38.7-104.7c0.4-1,1.4-1.5,2.4-1.2l19.4,5.3c0.5,0.1,1,0.5,1.2,1
					c0.3,0.5,0.3,1.1,0.1,1.6l-35.8,100C188.7,407,188,407.5,187.1,407.5z"/>
				<path d="M209.8,408.4c-0.4,0-0.9-0.1-1.2-0.4c-13.9-10.5-10.8-30.5-6.7-48.5c0.3-1.1,1.4-1.7,2.4-1.4
					c1,0.3,1.7,1.3,1.5,2.3c-3.7,16.7-6.7,35.3,5.3,44.4c0.9,0.7,1.1,1.9,0.4,2.8C211,408.1,210.4,408.4,209.8,408.4L209.8,408.4z"
					/>
				<path d="M178.1,405.8c-0.2,0-0.5,0-0.7-0.1c-1-0.4-1.6-1.5-1.2-2.6l36.7-99.2c0.4-1,1.5-1.6,2.5-1.2
					s1.6,1.5,1.2,2.5c0,0,0,0,0,0.1L180,404.5C179.7,405.3,178.9,405.8,178.1,405.8z"/>
				<path d="M214.3,328.3c-0.2,0-0.5,0-0.7-0.1l-4.2-1.5c-1-0.4-1.6-1.5-1.2-2.6c0.4-1,1.5-1.6,2.6-1.2l0,0l4.2,1.5
					c1,0.4,1.6,1.5,1.2,2.5C215.9,327.8,215.1,328.3,214.3,328.3L214.3,328.3z"/>
				<path d="M208.3,347.8c-0.2,0-0.5,0-0.7-0.1l-4.2-1.5c-1.1-0.3-1.6-1.5-1.3-2.5c0.3-1.1,1.5-1.6,2.5-1.3h0.1l4.2,1.5
					c1,0.4,1.6,1.5,1.2,2.5C209.9,347.2,209.1,347.8,208.3,347.8L208.3,347.8z"/>
				<path d="M200.8,367.2c-0.2,0-0.4,0-0.7-0.1l-4.2-1.5c-1.1-0.3-1.6-1.5-1.3-2.5c0.3-1.1,1.5-1.6,2.5-1.3h0.1l4.2,1.5
					c1,0.4,1.6,1.5,1.2,2.6C202.4,366.7,201.6,367.2,200.8,367.2L200.8,367.2z"/>
				<path d="M194.8,383.7c-0.2,0-0.4,0-0.7-0.1l-4.2-1.5c-1.1-0.3-1.6-1.5-1.3-2.5c0.3-1.1,1.5-1.6,2.5-1.3h0.1l4.2,1.5
					c1,0.4,1.6,1.5,1.2,2.6C196.4,383.2,195.6,383.7,194.8,383.7L194.8,383.7z"/>
				<path d="M324.9,407.5c-0.8,0-1.6-0.5-1.9-1.3l-35.9-100.1c-0.2-0.5-0.1-1.1,0.1-1.6c0.3-0.5,0.7-0.9,1.2-1l19.4-5.3
					c1-0.3,2,0.3,2.4,1.2l38.7,104.7c0.4,1-0.1,2.2-1.2,2.6s-2.2-0.1-2.6-1.2l-38.1-103l-15.6,4.3l35.1,98c0.4,1-0.2,2.2-1.2,2.6
					l0,0C325.4,407.4,325.2,407.5,324.9,407.5z"/>
				<path d="M302.3,408.4c-1.1,0-2-0.9-2-2c0-0.6,0.3-1.2,0.8-1.6c12-9,9-27.6,5.2-44.4c-0.2-1.1,0.5-2.1,1.6-2.3
					c1-0.2,2.1,0.4,2.3,1.5c4,18,7.1,38-6.7,48.5C303.1,408.3,302.7,408.4,302.3,408.4z"/>
				<path d="M334,405.8c-0.8,0-1.6-0.5-1.9-1.3l-36.7-99.2c-0.4-1,0.1-2.2,1.2-2.6c1-0.4,2.2,0.1,2.6,1.2l36.7,99.2
					c0.4,1-0.1,2.2-1.2,2.6C334.5,405.7,334.2,405.8,334,405.8z"/>
				<path d="M297.8,328.3c-1.1,0-2-0.9-2-2c0-0.9,0.5-1.6,1.3-1.9l4.2-1.5c1-0.4,2.2,0.2,2.6,1.2s-0.2,2.2-1.2,2.6l0,0
					l-4.2,1.5C298.2,328.3,298,328.3,297.8,328.3z"/>
				<path d="M303.8,347.8c-1.1,0-2-0.9-2-2c0-0.9,0.5-1.6,1.3-1.9l4.2-1.5c1-0.4,2.2,0.2,2.6,1.2s-0.2,2.2-1.2,2.6
					l-4.2,1.5C304.2,347.7,304,347.8,303.8,347.8z"/>
				<path d="M311.3,367.2c-1.1,0-2-0.9-2-2c0-0.8,0.5-1.6,1.3-1.9l4.2-1.5c1.1-0.3,2.2,0.3,2.5,1.3s-0.2,2.1-1.2,2.5
					l-4.2,1.5C311.7,367.2,311.5,367.2,311.3,367.2z"/>
				<path d="M317.2,383.7c-1.1,0-2-0.9-2-2c0-0.8,0.5-1.6,1.3-1.9l4.2-1.5c1-0.4,2.2,0.1,2.6,1.1s-0.1,2.2-1.1,2.6h-0.1
					l-4.2,1.5C317.7,383.7,317.5,383.7,317.2,383.7z"/>
				<path d="M289.2,369.1h-66.1c-1.1,0-2-0.9-2-2c0-0.3,0.1-0.6,0.2-0.9l4.7-9.2c0.3-0.7,1-1.1,1.8-1.1h55.9
					c0.7,0,1.4,0.4,1.7,1l5.6,9.2c0.6,1,0.2,2.2-0.7,2.7C289.9,369,289.6,369.1,289.2,369.1L289.2,369.1z M226.4,365.1h59.3
					l-3.2-5.2H229L226.4,365.1z"/>
				<path d="M227.2,396.2c-0.9,0-1.7-0.6-1.9-1.5l-4.1-16.5c-0.1-0.6,0-1.2,0.4-1.7s1-0.8,1.6-0.8h39.1c1.1,0,2,0.9,2,2
					s-0.9,2-2,2h-36.6l3.4,14c0.3,1.1-0.4,2.2-1.5,2.4l0,0C227.5,396.1,227.3,396.2,227.2,396.2z"/>
				<path d="M283.6,396.2c-0.2,0-0.4,0-0.6-0.1c-1-0.4-1.6-1.5-1.3-2.5l0,0l4.7-13.8h-11c-1.1,0-2-0.9-2-2s0.9-2,2-2
					h13.8c1.1,0,2,0.9,2,2c0,0.2,0,0.4-0.1,0.7l-5.6,16.5C285.2,395.6,284.5,396.2,283.6,396.2z"/>
				<path d="M226.6,378.4c-1.1,0-2-0.9-2-2v-6.6c0-1.1,0.9-2,2-2s2,0.9,2,2v6.6C228.6,377.5,227.7,378.4,226.6,378.4z"
					/>
				<path d="M284.7,378.4c-1.1,0-2-0.9-2-2v-6.6c0-1.1,0.9-2,2-2s2,0.9,2,2v6.6C286.7,377.5,285.8,378.4,284.7,378.4z"
					/>
				<path d="M270.2,348h-22.5c-1.1,0-2-0.9-2-2s0.9-2,2-2h22.5c1.1,0,2,0.9,2,2S271.3,348,270.2,348z"/>
				<path d="M250.4,358.6c-1.1,0-2-0.9-2-2v-9.2c0-1.1,0.9-2,2-2s2,0.9,2,2v9.2C252.4,357.7,251.5,358.6,250.4,358.6z"
					/>
				<path d="M267.5,358.6c-1.1,0-2-0.9-2-2v-9.2c0-1.1,0.9-2,2-2s2,0.9,2,2v9.2C269.5,357.7,268.6,358.6,267.5,358.6z"
					/>
				<path d="M269.6,388.2c-4.4,0-7.9-3.5-7.9-7.9s3.5-7.9,7.9-7.9s7.9,3.5,7.9,7.9C277.5,384.6,274,388.2,269.6,388.2z
					 M269.6,376.4c-2.2,0-3.9,1.7-3.9,3.9c0,2.2,1.7,3.9,3.9,3.9c2.2,0,3.9-1.7,3.9-3.9l0,0C273.5,378.1,271.8,376.4,269.6,376.4
					L269.6,376.4z"/>
				<path d="M125.3,406.1c-7.8,0-13.6-3.9-19.3-7.7s-11.8-7.9-20.2-8.3c-8.7,0.4-14.6,4.4-20.3,8.3
					c-7.1,4.8-14.5,9.8-26.1,6.5c-10.6-3.5-15.9-12.5-14.1-24.1c3-19.8,25-41.3,60.1-42.1h1.4c20.4,0.5,34,8.1,41.9,14.4
					c9.8,7.8,16.3,18.1,17.8,28.1c1.7,11.5-3.5,20.4-13.8,23.8C130.2,405.7,127.8,406.1,125.3,406.1z M85.8,386.1L85.8,386.1
					c9.7,0.4,16.5,4.9,22.5,8.9c7.1,4.8,13.3,8.9,23.1,6.1c8.4-2.8,12.5-9.9,11-19.4c-2.3-15.7-21.2-38.2-55.8-39.1h-1.2
					c-19.6,0.5-32.5,7.5-40,13.4c-9,7.1-14.9,16.3-16.3,25.3c-1.4,9.7,2.7,16.9,11.3,19.7c9.7,2.7,15.8-1.3,22.7-6
					C69.2,391.2,75.9,386.6,85.8,386.1L85.8,386.1z"/>
				<path d="M90.7,352.6h-0.2c-0.9-0.1-1.4-0.1-1.9-0.1H88c-1.1,0-2-1-1.9-2.1c0-1.1,1-2,2.1-1.9h0.5
					c0.5,0,1.1,0,2.2,0.1s2,1,1.9,2.1C92.7,351.9,91.8,352.7,90.7,352.6L90.7,352.6z"/>
				<path d="M133.3,375.5c-0.7,0-1.3-0.3-1.7-0.9c-7-10.7-19.4-18.4-34.1-21.1c-1.1-0.2-1.8-1.2-1.7-2.3
					c0.2-1.1,1.2-1.8,2.3-1.7h0.1c15.7,2.9,29.1,11.2,36.7,22.8c0.6,0.9,0.3,2.2-0.6,2.8l0,0C134.1,375.4,133.7,375.5,133.3,375.5z"
					/>
				<path d="M119.5,405.2c-0.6,0-1.1-0.3-1.5-0.7c-12.8-15-23-22.1-31.8-22.5c-10.8-0.4-20.2,9-33.2,22.1l-0.2,0.2
					c-0.8,0.7-2.1,0.7-2.8-0.1c-0.7-0.8-0.7-1.9,0-2.7l0.2-0.2c13.2-13.2,23.6-23.8,36.2-23.3c10.2,0.4,20.9,7.7,34.7,23.8
					c0.7,0.8,0.6,2.1-0.2,2.8C120.4,404.9,119.9,405.1,119.5,405.2L119.5,405.2z"/>
				<path d="M13.9,407.4c-1.1,0-2-0.9-2-2V270.7c0-1.1,0.9-2,2-2H80c1.1,0,2,0.9,2,2v70c0,1.1-0.9,2-2,2s-2-0.9-2-2v-68
					H16v132.8C15.9,406.5,15,407.4,13.9,407.4L13.9,407.4z"/>
				<path d="M62.8,346.7c-1.1,0-2-0.9-2-2V239c0-1.1,0.9-2,2-2s2,0.9,2,2v105.7C64.8,345.8,63.9,346.7,62.8,346.7
					L62.8,346.7z"/>
				<path d="M32.4,367.8c-1.1,0-2-0.9-2-2V239c0-1.1,0.9-2,2-2c1.1,0,2,0.9,2,2v126.8C34.4,366.9,33.5,367.8,32.4,367.8
					z"/>
				<path d="M39,239.7c-1.1,0-2-0.9-2-2v-18.5c0-1.1,0.9-2,2-2h17.2c1.1,0,2,0.9,2,2v17.2c0,1.1-0.9,2-2,2s-2-0.9-2-2
					v-15.2H41v16.5C41,238.8,40.1,239.7,39,239.7z"/>
				<path d="M60.1,221.2H35c-1.1,0-2-0.9-2-2s0.9-2,2-2h25.1c1.1,0,2,0.9,2,2S61.2,221.2,60.1,221.2L60.1,221.2z"/>
				<path d="M47.7,230.9c-1.1,0-2-0.9-2-2v-1.1c0-1.1,0.9-2,2-2s2,0.9,2,2v1.1C49.7,230,48.8,230.9,47.7,230.9z"/>
				<path d="M68.1,241h-41c-1.1,0-2-0.9-2-2s0.9-2,2-2h41c1.1,0,2,0.9,2,2S69.2,241,68.1,241z"/>
				<path d="M40.3,254.2c-1.1,0-2-0.9-2-2v-4c0-1.1,0.9-2,2-2s2,0.9,2,2v4C42.3,253.3,41.4,254.2,40.3,254.2z"/>
				<path d="M46.9,254.2c-1.1,0-2-0.9-2-2v-4c0-1.1,0.9-2,2-2s2,0.9,2,2v4C48.9,253.3,48,254.2,46.9,254.2z"/>
				<path d="M53.5,254.2c-1.1,0-2-0.9-2-2v-4c0-1.1,0.9-2,2-2s2,0.9,2,2v4C55.5,253.3,54.6,254.2,53.5,254.2z"/>
				<path d="M40.3,284.6c-1.1,0-2-0.9-2-2V280c0-1.1,0.9-2,2-2s2,0.9,2,2v2.6C42.3,283.7,41.4,284.6,40.3,284.6z"/>
				<path d="M46.9,284.6c-1.1,0-2-0.9-2-2V280c0-1.1,0.9-2,2-2s2,0.9,2,2v2.6C48.9,283.7,48,284.6,46.9,284.6z"/>
				<path d="M53.5,284.6c-1.1,0-2-0.9-2-2V280c0-1.1,0.9-2,2-2s2,0.9,2,2v2.6C55.5,283.7,54.6,284.6,53.5,284.6z"/>
				<path d="M40.3,295.1c-1.1,0-2-0.9-2-2v-2.6c0-1.1,0.9-2,2-2s2,0.9,2,2v2.6C42.3,294.3,41.4,295.1,40.3,295.1z"/>
				<path d="M46.9,295.1c-1.1,0-2-0.9-2-2v-2.6c0-1.1,0.9-2,2-2s2,0.9,2,2v2.6C48.9,294.3,48,295.1,46.9,295.1z"/>
				<path d="M53.5,295.1c-1.1,0-2-0.9-2-2v-2.6c0-1.1,0.9-2,2-2s2,0.9,2,2v2.6C55.5,294.3,54.6,295.1,53.5,295.1z"/>
				<path d="M40.3,305.7c-1.1,0-2-0.9-2-2v-2.6c0-1.1,0.9-2,2-2s2,0.9,2,2v2.6C42.3,304.8,41.4,305.7,40.3,305.7z"/>
				<path d="M46.9,305.7c-1.1,0-2-0.9-2-2v-2.6c0-1.1,0.9-2,2-2s2,0.9,2,2v2.6C48.9,304.8,48,305.7,46.9,305.7z"/>
				<path d="M53.5,305.7c-1.1,0-2-0.9-2-2v-2.6c0-1.1,0.9-2,2-2s2,0.9,2,2v2.6C55.5,304.8,54.6,305.7,53.5,305.7z"/>
				<path d="M40.3,316.3c-1.1,0-2-0.9-2-2v-2.6c0-1.1,0.9-2,2-2s2,0.9,2,2v2.6C42.3,315.4,41.4,316.3,40.3,316.3z"/>
				<path d="M46.9,316.3c-1.1,0-2-0.9-2-2v-2.6c0-1.1,0.9-2,2-2s2,0.9,2,2v2.6C48.9,315.4,48,316.3,46.9,316.3z"/>
				<path d="M53.5,316.3c-1.1,0-2-0.9-2-2v-2.6c0-1.1,0.9-2,2-2s2,0.9,2,2v2.6C55.5,315.4,54.6,316.3,53.5,316.3z"/>
				<path d="M40.3,326.9c-1.1,0-2-0.9-2-2v-2.6c0-1.1,0.9-2,2-2s2,0.9,2,2v2.6C42.3,326,41.4,326.9,40.3,326.9z"/>
				<path d="M46.9,326.9c-1.1,0-2-0.9-2-2v-2.6c0-1.1,0.9-2,2-2s2,0.9,2,2v2.6C48.9,326,48,326.9,46.9,326.9z"/>
				<path d="M53.5,326.9c-1.1,0-2-0.9-2-2v-2.6c0-1.1,0.9-2,2-2s2,0.9,2,2v2.6C55.5,326,54.6,326.9,53.5,326.9z"/>
				<path d="M40.3,337.4c-1.1,0-2-0.9-2-2v-2.6c0-1.1,0.9-2,2-2s2,0.9,2,2v2.6C42.3,336.5,41.4,337.4,40.3,337.4z"/>
				<path d="M46.9,337.4c-1.1,0-2-0.9-2-2v-2.6c0-1.1,0.9-2,2-2s2,0.9,2,2v2.6C48.9,336.5,48,337.4,46.9,337.4z"/>
				<path d="M53.5,337.4c-1.1,0-2-0.9-2-2v-2.6c0-1.1,0.9-2,2-2s2,0.9,2,2v2.6C55.5,336.5,54.6,337.4,53.5,337.4z"/>
				<path d="M40.3,348c-1.1,0-2-0.9-2-2v-2.6c0-1.1,0.9-2,2-2s2,0.9,2,2v2.6C42.3,347.1,41.4,348,40.3,348z"/>
				<path d="M40.3,263.4c-1.1,0-2-0.9-2-2v-1.3c0-1.1,0.9-2,2-2s2,0.9,2,2v1.3C42.3,262.5,41.4,263.4,40.3,263.4z"/>
				<path d="M46.9,263.4c-1.1,0-2-0.9-2-2v-1.3c0-1.1,0.9-2,2-2s2,0.9,2,2v1.3C48.9,262.5,48,263.4,46.9,263.4z"/>
				<path d="M53.5,263.4c-1.1,0-2-0.9-2-2v-1.3c0-1.1,0.9-2,2-2s2,0.9,2,2v1.3C55.5,262.5,54.6,263.4,53.5,263.4z"/>
				<path d="M70.7,283.3c-1.1,0-2-0.9-2-2V280c0-1.1,0.9-2,2-2s2,0.9,2,2v1.3C72.7,282.4,71.8,283.3,70.7,283.3z"/>
				<path d="M70.7,292.5c-1.1,0-2-0.9-2-2v-1.3c0-1.1,0.9-2,2-2s2,0.9,2,2v1.3C72.7,291.6,71.8,292.5,70.7,292.5z"/>
				<path d="M70.7,301.8c-1.1,0-2-0.9-2-2v-1.3c0-1.1,0.9-2,2-2s2,0.9,2,2v1.3C72.7,300.9,71.8,301.8,70.7,301.8z"/>
				<path d="M70.7,311c-1.1,0-2-0.9-2-2v-1.3c0-1.1,0.9-2,2-2s2,0.9,2,2v1.3C72.7,310.1,71.8,311,70.7,311z"/>
				<path d="M70.7,320.2c-1.1,0-2-0.9-2-2v-1.3c0-1.1,0.9-2,2-2s2,0.9,2,2v1.3C72.7,319.4,71.8,320.2,70.7,320.2z"/>
				<path d="M70.7,329.5c-1.1,0-2-0.9-2-2v-1.3c0-1.1,0.9-2,2-2s2,0.9,2,2v1.3C72.7,328.6,71.8,329.5,70.7,329.5z"/>
				<path d="M23.1,283.3c-1.1,0-2-0.9-2-2V280c0-1.1,0.9-2,2-2s2,0.9,2,2v1.3C25.1,282.4,24.2,283.3,23.1,283.3z"/>
				<path d="M23.1,292.5c-1.1,0-2-0.9-2-2v-1.3c0-1.1,0.9-2,2-2s2,0.9,2,2v1.3C25.1,291.6,24.2,292.5,23.1,292.5z"/>
				<path d="M23.1,301.8c-1.1,0-2-0.9-2-2v-1.3c0-1.1,0.9-2,2-2s2,0.9,2,2v1.3C25.1,300.9,24.2,301.8,23.1,301.8z"/>
				<path d="M23.1,311c-1.1,0-2-0.9-2-2v-1.3c0-1.1,0.9-2,2-2s2,0.9,2,2v1.3C25.1,310.1,24.2,311,23.1,311z"/>
				<path d="M23.1,320.2c-1.1,0-2-0.9-2-2v-1.3c0-1.1,0.9-2,2-2s2,0.9,2,2v1.3C25.1,319.4,24.2,320.2,23.1,320.2z"/>
				<path d="M23.1,329.5c-1.1,0-2-0.9-2-2v-1.3c0-1.1,0.9-2,2-2s2,0.9,2,2v1.3C25.1,328.6,24.2,329.5,23.1,329.5z"/>
				<path d="M23.1,340.1c-1.1,0-2-0.9-2-2v-1.3c0-1.1,0.9-2,2-2s2,0.9,2,2v1.3C25.1,339.2,24.2,340.1,23.1,340.1z"/>
				<path d="M23.1,350.6c-1.1,0-2-0.9-2-2v-1.3c0-1.1,0.9-2,2-2s2,0.9,2,2v1.3C25.1,349.7,24.2,350.6,23.1,350.6z"/>
				<path d="M23.1,361.2c-1.1,0-2-0.9-2-2v-1.3c0-1.1,0.9-2,2-2s2,0.9,2,2v1.3C25.1,360.3,24.2,361.2,23.1,361.2z"/>
				<path d="M172.4,386.3c-1.1,0-2-0.9-2-2V231.7h-29.7c-1.1,0-2-0.9-2-2V204H107v138c0,1.1-0.9,2-2,2s-2-0.9-2-2V202
					c0-1.1,0.9-2,2-2h35.7c1.1,0,2,0.9,2,2v25.8h29.7c1.1,0,2,0.9,2,2v154.5C174.4,385.4,173.5,386.3,172.4,386.3z"/>
				<path d="M131.5,202.7c-1.1,0-2-0.9-2-2v-11.2h-15.8v11.2c0,1.1-0.9,2-2,2s-2-0.9-2-2v-13.2c0-1.1,0.9-2,2-2h19.8
					c1.1,0,2,0.9,2,2v13.2C133.5,201.8,132.6,202.7,131.5,202.7z"/>
				<path d="M131.6,189.5c-0.6,0-1.1-0.2-1.5-0.7l-7.8-9l-9.1,9.1c-0.8,0.8-2,0.8-2.8,0s-0.8-2,0-2.8l10.6-10.5
					c0.4-0.4,0.9-0.6,1.5-0.6s1.1,0.3,1.4,0.7l9.2,10.6c0.7,0.8,0.6,2.1-0.2,2.8C132.6,189.3,132.1,189.5,131.6,189.5L131.6,189.5z"
					/>
				<path d="M118.2,197.4c-1.1,0-2-0.9-2-2v-1.3c0-1.1,0.9-2,2-2s2,0.9,2,2v1.3C120.2,196.5,119.4,197.4,118.2,197.4z"
					/>
				<path d="M124.9,197.4c-1.1,0-2-0.9-2-2v-1.3c0-1.1,0.9-2,2-2s2,0.9,2,2v1.3C126.9,196.5,126,197.4,124.9,197.4z"/>
				<path d="M113,213.2c-1.1,0-2-0.9-2-2v-1.3c0-1.1,0.9-2,2-2s2,0.9,2,2v1.3C115,212.3,114.1,213.2,113,213.2z"/>
				<path d="M119.6,213.2c-1.1,0-2-0.9-2-2v-1.3c0-1.1,0.9-2,2-2s2,0.9,2,2v1.3C121.6,212.3,120.7,213.2,119.6,213.2z"
					/>
				<path d="M126.2,213.2c-1.1,0-2-0.9-2-2v-1.3c0-1.1,0.9-2,2-2s2,0.9,2,2v1.3C128.2,212.3,127.3,213.2,126.2,213.2z"
					/>
				<path d="M132.8,213.2c-1.1,0-2-0.9-2-2v-1.3c0-1.1,0.9-2,2-2s2,0.9,2,2v1.3C134.8,212.3,133.9,213.2,132.8,213.2z"
					/>
				<path d="M113,222.5c-1.1,0-2-0.9-2-2v-1.3c0-1.1,0.9-2,2-2s2,0.9,2,2v1.3C115,221.6,114.1,222.5,113,222.5z"/>
				<path d="M113,250.2c-1.1,0-2-0.9-2-2v-1.3c0-1.1,0.9-2,2-2s2,0.9,2,2v1.3C115,249.3,114.1,250.2,113,250.2z"/>
				<path d="M113,259.5c-1.1,0-2-0.9-2-2v-1.3c0-1.1,0.9-2,2-2s2,0.9,2,2v1.3C115,258.6,114.1,259.5,113,259.5z"/>
				<path d="M113,268.7c-1.1,0-2-0.9-2-2v-1.3c0-1.1,0.9-2,2-2s2,0.9,2,2v1.3C115,267.8,114.1,268.7,113,268.7z"/>
				<path d="M113,278c-1.1,0-2-0.9-2-2v-1.3c0-1.1,0.9-2,2-2s2,0.9,2,2v1.3C115,277.1,114.1,278,113,278z"/>
				<path d="M113,287.2c-1.1,0-2-0.9-2-2v-1.3c0-1.1,0.9-2,2-2s2,0.9,2,2v1.3C115,286.3,114.1,287.2,113,287.2z"/>
				<path d="M113,296.5c-1.1,0-2-0.9-2-2v-1.3c0-1.1,0.9-2,2-2s2,0.9,2,2v1.3C115,295.6,114.1,296.5,113,296.5z"/>
				<path d="M113,305.7c-1.1,0-2-0.9-2-2v-1.3c0-1.1,0.9-2,2-2s2,0.9,2,2v1.3C115,304.8,114.1,305.7,113,305.7z"/>
				<path d="M113,321.6c-1.1,0-2-0.9-2-2v-1.3c0-1.1,0.9-2,2-2s2,0.9,2,2v1.3C115,320.7,114.1,321.6,113,321.6z"/>
				<path d="M113,337.4c-1.1,0-2-0.9-2-2v-1.3c0-1.1,0.9-2,2-2s2,0.9,2,2v1.3C115,336.5,114.1,337.4,113,337.4z"/>
				<path d="M130.1,250.2c-1.1,0-2-0.9-2-2v-1.3c0-1.1,0.9-2,2-2s2,0.9,2,2v1.3C132.1,249.3,131.2,250.2,130.1,250.2z"
					/>
				<path d="M130.1,259.5c-1.1,0-2-0.9-2-2v-1.3c0-1.1,0.9-2,2-2s2,0.9,2,2v1.3C132.1,258.6,131.2,259.5,130.1,259.5z"
					/>
				<path d="M130.1,268.7c-1.1,0-2-0.9-2-2v-1.3c0-1.1,0.9-2,2-2s2,0.9,2,2v1.3C132.1,267.8,131.2,268.7,130.1,268.7z"
					/>
				<path d="M130.1,278c-1.1,0-2-0.9-2-2v-1.3c0-1.1,0.9-2,2-2s2,0.9,2,2v1.3C132.1,277.1,131.2,278,130.1,278z"/>
				<path d="M130.1,287.2c-1.1,0-2-0.9-2-2v-1.3c0-1.1,0.9-2,2-2s2,0.9,2,2v1.3C132.1,286.3,131.2,287.2,130.1,287.2z"
					/>
				<path d="M130.1,296.5c-1.1,0-2-0.9-2-2v-1.3c0-1.1,0.9-2,2-2s2,0.9,2,2v1.3C132.1,295.6,131.2,296.5,130.1,296.5z"
					/>
				<path d="M130.1,305.7c-1.1,0-2-0.9-2-2v-1.3c0-1.1,0.9-2,2-2s2,0.9,2,2v1.3C132.1,304.8,131.2,305.7,130.1,305.7z"
					/>
				<path d="M130.1,321.6c-1.1,0-2-0.9-2-2v-1.3c0-1.1,0.9-2,2-2s2,0.9,2,2v1.3C132.1,320.7,131.2,321.6,130.1,321.6z"
					/>
				<path d="M130.1,337.4c-1.1,0-2-0.9-2-2v-1.3c0-1.1,0.9-2,2-2s2,0.9,2,2v1.3C132.1,336.5,131.2,337.4,130.1,337.4z"
					/>
				<path d="M136.8,250.2c-1.1,0-2-0.9-2-2v-1.3c0-1.1,0.9-2,2-2s2,0.9,2,2v1.3C138.8,249.3,137.9,250.2,136.8,250.2z"
					/>
				<path d="M136.8,259.5c-1.1,0-2-0.9-2-2v-1.3c0-1.1,0.9-2,2-2s2,0.9,2,2v1.3C138.8,258.6,137.9,259.5,136.8,259.5z"
					/>
				<path d="M136.8,268.7c-1.1,0-2-0.9-2-2v-1.3c0-1.1,0.9-2,2-2s2,0.9,2,2v1.3C138.8,267.8,137.9,268.7,136.8,268.7z"
					/>
				<path d="M136.8,278c-1.1,0-2-0.9-2-2v-1.3c0-1.1,0.9-2,2-2s2,0.9,2,2v1.3C138.8,277.1,137.9,278,136.8,278z"/>
				<path d="M136.8,287.2c-1.1,0-2-0.9-2-2v-1.3c0-1.1,0.9-2,2-2s2,0.9,2,2v1.3C138.8,286.3,137.9,287.2,136.8,287.2z"
					/>
				<path d="M136.8,296.5c-1.1,0-2-0.9-2-2v-1.3c0-1.1,0.9-2,2-2s2,0.9,2,2v1.3C138.8,295.6,137.9,296.5,136.8,296.5z"
					/>
				<path d="M136.8,305.7c-1.1,0-2-0.9-2-2v-1.3c0-1.1,0.9-2,2-2s2,0.9,2,2v1.3C138.8,304.8,137.9,305.7,136.8,305.7z"
					/>
				<path d="M136.8,321.6c-1.1,0-2-0.9-2-2v-1.3c0-1.1,0.9-2,2-2s2,0.9,2,2v1.3C138.8,320.7,137.9,321.6,136.8,321.6z"
					/>
				<path d="M136.8,337.4c-1.1,0-2-0.9-2-2v-1.3c0-1.1,0.9-2,2-2s2,0.9,2,2v1.3C138.8,336.5,137.9,337.4,136.8,337.4z"
					/>
				<path d="M152.6,250.2c-1.1,0-2-0.9-2-2v-1.3c0-1.1,0.9-2,2-2s2,0.9,2,2v1.3C154.6,249.3,153.7,250.2,152.6,250.2z"
					/>
				<path d="M152.6,259.5c-1.1,0-2-0.9-2-2v-1.3c0-1.1,0.9-2,2-2s2,0.9,2,2v1.3C154.6,258.6,153.7,259.5,152.6,259.5z"
					/>
				<path d="M152.6,268.7c-1.1,0-2-0.9-2-2v-1.3c0-1.1,0.9-2,2-2s2,0.9,2,2v1.3C154.6,267.8,153.7,268.7,152.6,268.7z"
					/>
				<path d="M152.6,278c-1.1,0-2-0.9-2-2v-1.3c0-1.1,0.9-2,2-2s2,0.9,2,2v1.3C154.6,277.1,153.7,278,152.6,278z"/>
				<path d="M152.6,287.2c-1.1,0-2-0.9-2-2v-1.3c0-1.1,0.9-2,2-2s2,0.9,2,2v1.3C154.6,286.3,153.7,287.2,152.6,287.2z"
					/>
				<path d="M152.6,296.5c-1.1,0-2-0.9-2-2v-1.3c0-1.1,0.9-2,2-2s2,0.9,2,2v1.3C154.6,295.6,153.7,296.5,152.6,296.5z"
					/>
				<path d="M152.6,305.7c-1.1,0-2-0.9-2-2v-1.3c0-1.1,0.9-2,2-2s2,0.9,2,2v1.3C154.6,304.8,153.7,305.7,152.6,305.7z"
					/>
				<path d="M152.6,321.6c-1.1,0-2-0.9-2-2v-1.3c0-1.1,0.9-2,2-2s2,0.9,2,2v1.3C154.6,320.7,153.7,321.6,152.6,321.6z"
					/>
				<path d="M152.6,337.4c-1.1,0-2-0.9-2-2v-1.3c0-1.1,0.9-2,2-2s2,0.9,2,2v1.3C154.6,336.5,153.7,337.4,152.6,337.4z"
					/>
				<path d="M159.2,250.2c-1.1,0-2-0.9-2-2v-1.3c0-1.1,0.9-2,2-2s2,0.9,2,2v1.3C161.2,249.3,160.3,250.2,159.2,250.2z"
					/>
				<path d="M159.2,259.5c-1.1,0-2-0.9-2-2v-1.3c0-1.1,0.9-2,2-2s2,0.9,2,2v1.3C161.2,258.6,160.3,259.5,159.2,259.5z"
					/>
				<path d="M159.2,268.7c-1.1,0-2-0.9-2-2v-1.3c0-1.1,0.9-2,2-2s2,0.9,2,2v1.3C161.2,267.8,160.3,268.7,159.2,268.7z"
					/>
				<path d="M159.2,278c-1.1,0-2-0.9-2-2v-1.3c0-1.1,0.9-2,2-2s2,0.9,2,2v1.3C161.2,277.1,160.3,278,159.2,278z"/>
				<path d="M159.2,287.2c-1.1,0-2-0.9-2-2v-1.3c0-1.1,0.9-2,2-2s2,0.9,2,2v1.3C161.2,286.3,160.3,287.2,159.2,287.2z"
					/>
				<path d="M159.2,296.5c-1.1,0-2-0.9-2-2v-1.3c0-1.1,0.9-2,2-2s2,0.9,2,2v1.3C161.2,295.6,160.3,296.5,159.2,296.5z"
					/>
				<path d="M159.2,305.7c-1.1,0-2-0.9-2-2v-1.3c0-1.1,0.9-2,2-2s2,0.9,2,2v1.3C161.2,304.8,160.3,305.7,159.2,305.7z"
					/>
				<path d="M159.2,321.6c-1.1,0-2-0.9-2-2v-1.3c0-1.1,0.9-2,2-2s2,0.9,2,2v1.3C161.2,320.7,160.3,321.6,159.2,321.6z"
					/>
				<path d="M159.2,337.4c-1.1,0-2-0.9-2-2v-1.3c0-1.1,0.9-2,2-2s2,0.9,2,2v1.3C161.2,336.5,160.3,337.4,159.2,337.4z"
					/>
				<path d="M152.6,346.7c-1.1,0-2-0.9-2-2v-1.3c0-1.1,0.9-2,2-2s2,0.9,2,2v1.3C154.6,345.8,153.7,346.7,152.6,346.7z"
					/>
				<path d="M136.8,346.7c-1.1,0-2-0.9-2-2v-1.3c0-1.1,0.9-2,2-2s2,0.9,2,2v1.3C138.8,345.8,137.9,346.7,136.8,346.7z"
					/>
				<path d="M159.2,346.7c-1.1,0-2-0.9-2-2v-1.3c0-1.1,0.9-2,2-2s2,0.9,2,2v1.3C161.2,345.8,160.3,346.7,159.2,346.7z"
					/>
				<path d="M152.6,355.9c-1.1,0-2-0.9-2-2v-1.3c0-1.1,0.9-2,2-2s2,0.9,2,2v1.3C154.6,355,153.7,355.9,152.6,355.9z"/>
				<path d="M159.2,355.9c-1.1,0-2-0.9-2-2v-1.3c0-1.1,0.9-2,2-2s2,0.9,2,2v1.3C161.2,355,160.3,355.9,159.2,355.9z"/>
				<path d="M152.6,365.2c-1.1,0-2-0.9-2-2v-1.3c0-1.1,0.9-2,2-2s2,0.9,2,2v1.3C154.6,364.3,153.7,365.2,152.6,365.2z"
					/>
				<path d="M159.2,365.2c-1.1,0-2-0.9-2-2v-1.3c0-1.1,0.9-2,2-2s2,0.9,2,2v1.3C161.2,364.3,160.3,365.2,159.2,365.2z"
					/>
				<path d="M159.2,374.4c-1.1,0-2-0.9-2-2v-1.3c0-1.1,0.9-2,2-2s2,0.9,2,2v1.3C161.2,373.5,160.3,374.4,159.2,374.4z"
					/>
				<path d="M159.2,383.7c-1.1,0-2-0.9-2-2v-1.3c0-1.1,0.9-2,2-2s2,0.9,2,2v1.3C161.2,382.8,160.3,383.7,159.2,383.7z"
					/>
				<path d="M159.2,392.9c-1.1,0-2-0.9-2-2v-1.3c0-1.1,0.9-2,2-2s2,0.9,2,2v1.3C161.2,392,160.3,392.9,159.2,392.9z"/>
				<path d="M119.6,222.5c-1.1,0-2-0.9-2-2v-1.3c0-1.1,0.9-2,2-2s2,0.9,2,2v1.3C121.6,221.6,120.7,222.5,119.6,222.5z"
					/>
				<path d="M126.2,222.5c-1.1,0-2-0.9-2-2v-1.3c0-1.1,0.9-2,2-2s2,0.9,2,2v1.3C128.2,221.6,127.3,222.5,126.2,222.5z"
					/>
				<path d="M132.8,222.5c-1.1,0-2-0.9-2-2v-1.3c0-1.1,0.9-2,2-2s2,0.9,2,2v1.3C134.8,221.6,133.9,222.5,132.8,222.5z"
					/>
				<path d="M169.8,313.6h-62.1c-1.1,0-2-0.9-2-2s0.9-2,2-2h62.1c1.1,0,2,0.9,2,2S170.9,313.6,169.8,313.6z"/>
				<path d="M169.8,241h-62.1c-1.1,0-2-0.9-2-2s0.9-2,2-2h62.1c1.1,0,2,0.9,2,2S170.9,241,169.8,241z"/>
				<path d="M169.8,328.2h-62.1c-1.1,0-2-0.9-2-2s0.9-2,2-2h62.1c1.1,0,2,0.9,2,2S170.9,328.2,169.8,328.2z"/>
				<path d="M140.7,231.7h-34.4c-1.1,0-2-0.9-2-2s0.9-2,2-2h34.3c1.1,0,2,0.9,2,2S141.8,231.7,140.7,231.7L140.7,231.7z
					"/>
				<path d="M342.8,394.2c-1.1,0-2-0.9-2-2V163.7c0-1.1,0.9-2,2-2h19.8c1.1,0,2,0.9,2,2s-0.9,2-2,2h-17.8v226.6
					C344.8,393.3,343.9,394.2,342.8,394.2z"/>
				<path d="M391.7,408.8c-1.1,0-2-0.9-2-2V261.4c0-1.1,0.9-2,2-2s2,0.9,2,2v145.3C393.7,407.9,392.8,408.8,391.7,408.8
					z"/>
				<path d="M391.7,248.9c-1.1,0-2-0.9-2-2V82.5H366v163.1c0,1.1-0.9,2-2,2s-2-0.9-2-2V80.5c0-1.1,0.9-2,2-2h27.7
					c1.1,0,2,0.9,2,2V247C393.7,248,392.8,248.9,391.7,248.9L391.7,248.9z"/>
				<path d="M364,408.8c-1.1,0-2-0.9-2-2V260.1c0-1.1,0.9-2,2-2s2,0.9,2,2v146.6C366,407.9,365.1,408.8,364,408.8z"/>
				<path d="M391.7,93H364c-1.1,0-2-0.9-2-2s0.9-2,2-2h27.7c1.1,0,2,0.9,2,2S392.8,93,391.7,93L391.7,93z"/>
				<path d="M373.2,79.8c-1.1,0-2-0.9-2-2V58c0-1.1,0.9-2,2-2s2,0.9,2,2v19.8C375.2,78.9,374.3,79.8,373.2,79.8z"/>
				<path d="M382.5,79.8c-1.1,0-2-0.9-2-2V58c0-1.1,0.9-2,2-2s2,0.9,2,2v19.8C384.5,78.9,383.6,79.8,382.5,79.8z"/>
				<path d="M412.9,262.1h-67.4c-1.1,0-2-0.9-2-2s0.9-2,2-2h67.4c1.1,0,2,0.9,2,2S414,262.1,412.9,262.1z"/>
				<path d="M412.9,271.4h-67.4c-1.1,0-2-0.9-2-2s0.9-2,2-2h67.4c1.1,0,2,0.9,2,2S414,271.4,412.9,271.4z"/>
				<path d="M412.9,280.6h-67.4c-1.1,0-2-0.9-2-2s0.9-2,2-2h67.4c1.1,0,2,0.9,2,2S414,280.6,412.9,280.6z"/>
				<path d="M412.9,289.9h-67.4c-1.1,0-2-0.9-2-2s0.9-2,2-2h67.4c1.1,0,2,0.9,2,2S414,289.9,412.9,289.9z"/>
				<path d="M412.9,299.1h-67.4c-1.1,0-2-0.9-2-2s0.9-2,2-2h67.4c1.1,0,2,0.9,2,2S414,299.1,412.9,299.1z"/>
				<path d="M412.9,308.4h-67.4c-1.1,0-2-0.9-2-2s0.9-2,2-2h67.4c1.1,0,2,0.9,2,2S414,308.4,412.9,308.4z"/>
				<path d="M412.9,317.6h-67.4c-1.1,0-2-0.9-2-2s0.9-2,2-2h67.4c1.1,0,2,0.9,2,2S414,317.6,412.9,317.6z"/>
				<path d="M412.9,326.9h-67.4c-1.1,0-2-0.9-2-2s0.9-2,2-2h67.4c1.1,0,2,0.9,2,2S414,326.9,412.9,326.9z"/>
				<path d="M412.9,336.1h-67.4c-1.1,0-2-0.9-2-2s0.9-2,2-2h67.4c1.1,0,2,0.9,2,2S414,336.1,412.9,336.1z"/>
				<path d="M412.9,345.4h-67.4c-1.1,0-2-0.9-2-2s0.9-2,2-2h67.4c1.1,0,2,0.9,2,2S414,345.4,412.9,345.4z"/>
				<path d="M412.9,354.6h-67.4c-1.1,0-2-0.9-2-2s0.9-2,2-2h67.4c1.1,0,2,0.9,2,2S414,354.6,412.9,354.6z"/>
				<path d="M412.9,363.8h-67.4c-1.1,0-2-0.9-2-2s0.9-2,2-2h67.4c1.1,0,2,0.9,2,2S414,363.8,412.9,363.8z"/>
				<path d="M412.9,373.1h-67.4c-1.1,0-2-0.9-2-2s0.9-2,2-2h67.4c1.1,0,2,0.9,2,2S414,373.1,412.9,373.1z"/>
				<path d="M412.9,382.3h-67.4c-1.1,0-2-0.9-2-2s0.9-2,2-2h67.4c1.1,0,2,0.9,2,2S414,382.3,412.9,382.3z"/>
				<path d="M412.9,391.6h-67.4c-1.1,0-2-0.9-2-2s0.9-2,2-2h67.4c1.1,0,2,0.9,2,2S414,391.6,412.9,391.6z"/>
				<path d="M412.9,400.8h-67.4c-1.1,0-2-0.9-2-2s0.9-2,2-2h67.4c1.1,0,2,0.9,2,2S414,400.8,412.9,400.8z"/>
				<path d="M412.9,248.9h-67.4c-1.1,0-2-0.9-2-2s0.9-2,2-2h67.4c1.1,0,2,0.9,2,2S414,248.9,412.9,248.9z"/>
				<path d="M390.4,165.7h-25.1c-1.1,0-2-0.9-2-2s0.9-2,2-2h25.1c1.1,0,2,0.9,2,2S391.5,165.7,390.4,165.7z"/>
				<path d="M389.1,102.3h-23.8c-1.1,0-2-0.9-2-2s0.9-2,2-2h23.8c1.1,0,2,0.9,2,2S390.2,102.3,389.1,102.3z"/>
				<path d="M389.1,111.5h-23.8c-1.1,0-2-0.9-2-2s0.9-2,2-2h23.8c1.1,0,2,0.9,2,2S390.2,111.5,389.1,111.5z"/>
				<path d="M389.1,120.8h-23.8c-1.1,0-2-0.9-2-2s0.9-2,2-2h23.8c1.1,0,2,0.9,2,2S390.2,120.8,389.1,120.8z"/>
				<path d="M389.1,130h-23.8c-1.1,0-2-0.9-2-2c0-1.1,0.9-2,2-2h23.8c1.1,0,2,0.9,2,2C391.1,129.1,390.2,130,389.1,130z
					"/>
				<path d="M389.1,139.3h-23.8c-1.1,0-2-0.9-2-2s0.9-2,2-2h23.8c1.1,0,2,0.9,2,2C391.1,138.4,390.2,139.3,389.1,139.3z
					"/>
				<path d="M389.1,148.5h-23.8c-1.1,0-2-0.9-2-2s0.9-2,2-2h23.8c1.1,0,2,0.9,2,2S390.2,148.5,389.1,148.5z"/>
				<path d="M389.1,157.8h-23.8c-1.1,0-2-0.9-2-2s0.9-2,2-2h23.8c1.1,0,2,0.9,2,2C391.1,156.9,390.2,157.8,389.1,157.8z
					"/>
				<path d="M412.9,174.9h-68.7c-1.1,0-2-0.9-2-2s0.9-2,2-2h68.7c1.1,0,2,0.9,2,2C414.9,174,414,174.9,412.9,174.9
					L412.9,174.9z"/>
				<path d="M412.9,184.2h-68.7c-1.1,0-2-0.9-2-2s0.9-2,2-2h68.7c1.1,0,2,0.9,2,2C414.9,183.3,414,184.2,412.9,184.2
					L412.9,184.2z"/>
				<path d="M412.9,193.4h-68.7c-1.1,0-2-0.9-2-2s0.9-2,2-2h68.7c1.1,0,2,0.9,2,2S414,193.4,412.9,193.4L412.9,193.4z"
					/>
				<path d="M412.9,202.7h-68.7c-1.1,0-2-0.9-2-2s0.9-2,2-2h68.7c1.1,0,2,0.9,2,2S414,202.7,412.9,202.7L412.9,202.7z"
					/>
				<path d="M412.9,211.9h-68.7c-1.1,0-2-0.9-2-2s0.9-2,2-2h68.7c1.1,0,2,0.9,2,2S414,211.9,412.9,211.9L412.9,211.9z"
					/>
				<path d="M412.9,221.2h-68.7c-1.1,0-2-0.9-2-2s0.9-2,2-2h68.7c1.1,0,2,0.9,2,2S414,221.2,412.9,221.2L412.9,221.2z"
					/>
				<path d="M412.9,230.4h-68.7c-1.1,0-2-0.9-2-2s0.9-2,2-2h68.7c1.1,0,2,0.9,2,2S414,230.4,412.9,230.4L412.9,230.4z"
					/>
				<path d="M412.9,239.7h-68.7c-1.1,0-2-0.9-2-2s0.9-2,2-2h68.7c1.1,0,2,0.9,2,2S414,239.7,412.9,239.7L412.9,239.7z"
					/>
				<path d="M414.2,407.4c-1.1,0-2-0.9-2-2V165.7h-17.8c-1.1,0-2-0.9-2-2s0.9-2,2-2h19.8c1.1,0,2,0.9,2,2v241.8
					C416.2,406.5,415.3,407.4,414.2,407.4z"/>
				<path d="M496.1,407.4c-1.1,0-2-0.9-2-2V272.7h-66v132.8c0,1.1-0.9,2-2,2s-2-0.9-2-2V270.7c0-1.1,0.9-2,2-2h70
					c1.1,0,2,0.9,2,2v134.8C498.1,406.5,497.2,407.4,496.1,407.4z"/>
				<path d="M482.9,407.4c-1.1,0-2-0.9-2-2v-95.1c0-1.1,0.9-2,2-2s2,0.9,2,2v95.1C484.9,406.5,484,407.4,482.9,407.4z"
					/>
				<path d="M482.9,300.4c-1.1,0-2-0.9-2-2V194.8h-5.2v8.6c0,1.1-0.9,2-2,2h-25.1c-1.1,0-2-0.9-2-2v-8.6h-5.2v103.7
					c0,1.1-0.9,2-2,2s-2-0.9-2-2V192.8c0-1.1,0.9-2,2-2h9.2c1.1,0,2,0.9,2,2v8.6h21.1v-8.6c0-1.1,0.9-2,2-2h9.2c1.1,0,2,0.9,2,2
					v105.7C484.9,299.5,484,300.4,482.9,300.4z"/>
				<path d="M439.3,407.4c-1.1,0-2-0.9-2-2v-93.8c0-1.1,0.9-2,2-2s2,0.9,2,2v93.8C441.3,406.5,440.4,407.4,439.3,407.4z
					"/>
				<path d="M465.7,205.3c-1.1,0-2-0.9-2-2v-15.2h-5.2V202c0,1.1-0.9,2-2,2s-2-0.9-2-2v-15.9c0-1.1,0.9-2,2-2h9.2
					c1.1,0,2,0.9,2,2v17.2C467.7,204.4,466.8,205.3,465.7,205.3z"/>
				<path d="M481.5,215.9h-41c-1.1,0-2-0.9-2-2s0.9-2,2-2h41c1.1,0,2,0.9,2,2S482.6,215.9,481.5,215.9z"/>
				<path d="M494.8,301.8h-67.4c-1.1,0-2-0.9-2-2s0.9-2,2-2h67.4c1.1,0,2,0.9,2,2S495.9,301.8,494.8,301.8z"/>
				<path d="M494.8,312.3h-67.4c-1.1,0-2-0.9-2-2s0.9-2,2-2h67.4c1.1,0,2,0.9,2,2S495.9,312.3,494.8,312.3z"/>
				<path d="M452.5,225.1h-4c-1.1,0-2-0.9-2-2s0.9-2,2-2h4c1.1,0,2,0.9,2,2S453.6,225.1,452.5,225.1z"/>
				<path d="M463,225.1h-4c-1.1,0-2-0.9-2-2s0.9-2,2-2h4c1.1,0,2,0.9,2,2S464.2,225.1,463,225.1z"/>
				<path d="M473.6,225.1h-4c-1.1,0-2-0.9-2-2s0.9-2,2-2h4c1.1,0,2,0.9,2,2S474.7,225.1,473.6,225.1z"/>
				<path d="M452.5,234.4h-4c-1.1,0-2-0.9-2-2s0.9-2,2-2h4c1.1,0,2,0.9,2,2S453.6,234.4,452.5,234.4z"/>
				<path d="M463,234.4h-4c-1.1,0-2-0.9-2-2s0.9-2,2-2h4c1.1,0,2,0.9,2,2S464.2,234.4,463,234.4z"/>
				<path d="M473.6,234.4h-4c-1.1,0-2-0.9-2-2s0.9-2,2-2h4c1.1,0,2,0.9,2,2S474.7,234.4,473.6,234.4z"/>
				<path d="M452.5,243.6h-4c-1.1,0-2-0.9-2-2s0.9-2,2-2h4c1.1,0,2,0.9,2,2S453.6,243.6,452.5,243.6z"/>
				<path d="M463,243.6h-4c-1.1,0-2-0.9-2-2s0.9-2,2-2h4c1.1,0,2,0.9,2,2S464.2,243.6,463,243.6z"/>
				<path d="M473.6,243.6h-4c-1.1,0-2-0.9-2-2s0.9-2,2-2h4c1.1,0,2,0.9,2,2S474.7,243.6,473.6,243.6z"/>
				<path d="M452.5,252.9h-4c-1.1,0-2-0.9-2-2s0.9-2,2-2h4c1.1,0,2,0.9,2,2S453.6,252.9,452.5,252.9z"/>
				<path d="M463,252.9h-4c-1.1,0-2-0.9-2-2s0.9-2,2-2h4c1.1,0,2,0.9,2,2S464.2,252.9,463,252.9z"/>
				<path d="M473.6,252.9h-4c-1.1,0-2-0.9-2-2s0.9-2,2-2h4c1.1,0,2,0.9,2,2S474.7,252.9,473.6,252.9z"/>
				<path d="M452.5,262.1h-4c-1.1,0-2-0.9-2-2s0.9-2,2-2h4c1.1,0,2,0.9,2,2S453.6,262.1,452.5,262.1z"/>
				<path d="M463,262.1h-4c-1.1,0-2-0.9-2-2s0.9-2,2-2h4c1.1,0,2,0.9,2,2S464.2,262.1,463,262.1z"/>
				<path d="M473.6,262.1h-4c-1.1,0-2-0.9-2-2s0.9-2,2-2h4c1.1,0,2,0.9,2,2S474.7,262.1,473.6,262.1z"/>
				<path d="M452.5,281.9h-4c-1.1,0-2-0.9-2-2s0.9-2,2-2h4c1.1,0,2,0.9,2,2S453.6,281.9,452.5,281.9z"/>
				<path d="M463,281.9h-4c-1.1,0-2-0.9-2-2s0.9-2,2-2h4c1.1,0,2,0.9,2,2S464.2,281.9,463,281.9z"/>
				<path d="M473.6,281.9h-4c-1.1,0-2-0.9-2-2s0.9-2,2-2h4c1.1,0,2,0.9,2,2S474.7,281.9,473.6,281.9z"/>
				<path d="M452.5,321.6h-4c-1.1,0-2-0.9-2-2s0.9-2,2-2h4c1.1,0,2,0.9,2,2S453.6,321.6,452.5,321.6z"/>
				<path d="M463,321.6h-4c-1.1,0-2-0.9-2-2s0.9-2,2-2h4c1.1,0,2,0.9,2,2S464.2,321.6,463,321.6z"/>
				<path d="M473.6,321.6h-4c-1.1,0-2-0.9-2-2s0.9-2,2-2h4c1.1,0,2,0.9,2,2S474.7,321.6,473.6,321.6z"/>
				<path d="M452.5,330.8h-4c-1.1,0-2-0.9-2-2s0.9-2,2-2h4c1.1,0,2,0.9,2,2S453.6,330.8,452.5,330.8z"/>
				<path d="M463,330.8h-4c-1.1,0-2-0.9-2-2s0.9-2,2-2h4c1.1,0,2,0.9,2,2S464.2,330.8,463,330.8z"/>
				<path d="M473.6,330.8h-4c-1.1,0-2-0.9-2-2s0.9-2,2-2h4c1.1,0,2,0.9,2,2S474.7,330.8,473.6,330.8z"/>
				<path d="M452.5,340.1h-4c-1.1,0-2-0.9-2-2s0.9-2,2-2h4c1.1,0,2,0.9,2,2S453.6,340.1,452.5,340.1z"/>
				<path d="M463,340.1h-4c-1.1,0-2-0.9-2-2s0.9-2,2-2h4c1.1,0,2,0.9,2,2S464.2,340.1,463,340.1z"/>
				<path d="M473.6,340.1h-4c-1.1,0-2-0.9-2-2s0.9-2,2-2h4c1.1,0,2,0.9,2,2S474.7,340.1,473.6,340.1z"/>
				<path d="M452.5,349.3h-4c-1.1,0-2-0.9-2-2s0.9-2,2-2h4c1.1,0,2,0.9,2,2S453.6,349.3,452.5,349.3z"/>
				<path d="M463,349.3h-4c-1.1,0-2-0.9-2-2s0.9-2,2-2h4c1.1,0,2,0.9,2,2S464.2,349.3,463,349.3z"/>
				<path d="M473.6,349.3h-4c-1.1,0-2-0.9-2-2s0.9-2,2-2h4c1.1,0,2,0.9,2,2S474.7,349.3,473.6,349.3z"/>
				<path d="M452.5,358.6h-4c-1.1,0-2-0.9-2-2s0.9-2,2-2h4c1.1,0,2,0.9,2,2S453.6,358.6,452.5,358.6z"/>
				<path d="M463,358.6h-4c-1.1,0-2-0.9-2-2s0.9-2,2-2h4c1.1,0,2,0.9,2,2S464.2,358.6,463,358.6z"/>
				<path d="M473.6,358.6h-4c-1.1,0-2-0.9-2-2s0.9-2,2-2h4c1.1,0,2,0.9,2,2S474.7,358.6,473.6,358.6z"/>
				<path d="M452.5,367.8h-4c-1.1,0-2-0.9-2-2s0.9-2,2-2h4c1.1,0,2,0.9,2,2S453.6,367.8,452.5,367.8z"/>
				<path d="M463,367.8h-4c-1.1,0-2-0.9-2-2s0.9-2,2-2h4c1.1,0,2,0.9,2,2S464.2,367.8,463,367.8z"/>
				<path d="M473.6,367.8h-4c-1.1,0-2-0.9-2-2s0.9-2,2-2h4c1.1,0,2,0.9,2,2S474.7,367.8,473.6,367.8z"/>
				<path d="M452.5,377h-4c-1.1,0-2-0.9-2-2s0.9-2,2-2h4c1.1,0,2,0.9,2,2S453.6,377,452.5,377z"/>
				<path d="M463,377h-4c-1.1,0-2-0.9-2-2s0.9-2,2-2h4c1.1,0,2,0.9,2,2S464.2,377,463,377z"/>
				<path d="M473.6,377h-4c-1.1,0-2-0.9-2-2s0.9-2,2-2h4c1.1,0,2,0.9,2,2S474.7,377,473.6,377z"/>
				<path d="M452.5,386.3h-4c-1.1,0-2-0.9-2-2s0.9-2,2-2h4c1.1,0,2,0.9,2,2S453.6,386.3,452.5,386.3z"/>
				<path d="M463,386.3h-4c-1.1,0-2-0.9-2-2s0.9-2,2-2h4c1.1,0,2,0.9,2,2S464.2,386.3,463,386.3z"/>
				<path d="M473.6,386.3h-4c-1.1,0-2-0.9-2-2s0.9-2,2-2h4c1.1,0,2,0.9,2,2S474.7,386.3,473.6,386.3z"/>
				<path d="M452.5,395.5h-4c-1.1,0-2-0.9-2-2s0.9-2,2-2h4c1.1,0,2,0.9,2,2S453.6,395.5,452.5,395.5z"/>
				<path d="M463,395.5h-4c-1.1,0-2-0.9-2-2s0.9-2,2-2h4c1.1,0,2,0.9,2,2S464.2,395.5,463,395.5z"/>
				<path d="M473.6,395.5h-4c-1.1,0-2-0.9-2-2s0.9-2,2-2h4c1.1,0,2,0.9,2,2S474.7,395.5,473.6,395.5z"/>
				<path d="M452.5,291.2h-4c-1.1,0-2-0.9-2-2s0.9-2,2-2h4c1.1,0,2,0.9,2,2S453.6,291.2,452.5,291.2z"/>
				<path d="M463,291.2h-4c-1.1,0-2-0.9-2-2s0.9-2,2-2h4c1.1,0,2,0.9,2,2S464.2,291.2,463,291.2z"/>
				<path d="M473.6,291.2h-4c-1.1,0-2-0.9-2-2s0.9-2,2-2h4c1.1,0,2,0.9,2,2S474.7,291.2,473.6,291.2z"/>
			</g>
		</g>
	</g>
</g>
</svg>
