<?xml version="1.0" encoding="utf-8"?>
<!-- Generator: Adobe Illustrator 25.0.1, SVG Export Plug-In . SVG Version: 6.00 Build 0)  -->
<svg version="1.1" fill="#8052FD" id="Layer_1" xmlns="http://www.w3.org/2000/svg" xmlns:xlink="http://www.w3.org/1999/xlink" x="0px" y="0px"
	 viewBox="0 0 512 512" style="enable-background:new 0 0 512 512;" xml:space="preserve">
<g>
	<path d="M197.8,430c18.9,6.4,38.7,9.7,58.9,9.7c49,0,95-19.1,129.6-53.7S440,305.2,440,256.3
		c0-40.7-13.1-79.3-37.8-111.5l-3.4-4.5l-29.4,22.6l3.4,4.5c19.7,25.7,30.1,56.4,30.1,88.9c0,80.6-65.6,146.3-146.3,146.3
		c-13.8,0-27.5-1.9-40.6-5.7l9.2-16.7l-78.7,1.5l40.6,67.4L197.8,430z M186.8,426.5l-20.5-33.9l39.6-0.8l-6.3,11.5
		c9.8,3.3,28.9,10.5,57,10.5c86.9,0,157.5-70.7,157.5-157.5c0-33.1-10-64.5-29.1-91.3l11.5-8.8c21,29.3,32.1,63.8,32.1,100.1
		c0,45.9-17.9,89.1-50.4,121.6s-75.7,50.4-121.6,50.4c-24.4,0-43.2-4.6-64.1-12.3L186.8,426.5z"/>
	<path d="M367.1,269.1l-16.7-6.1c3.8-54.4-39.4-100.6-93.7-100.6c-19.1,0-37.4,5.7-53.1,16.4l-3.7,2.6l16.8,24.5
		l3.7-2.6c10.7-7.4,23.3-11.3,36.3-11.3c34,0,62,26.6,64.1,60.1l-12.9-4.7l10.9,62L367.1,269.1z M329.9,256.3
		c0-40.4-32.9-73.3-73.3-73.3c-13.4,0-26.2,3.6-37.6,10.3l-6.5-9.6c13.3-8.1,28.4-12.4,44.2-12.4c50.1,0,89.8,43.6,84.4,94.1
		l-0.4,3.5l8.6,3.1l-24.3,20.3l-5.5-31.2l10.1,3.7C329.9,258.3,329.9,257.6,329.9,256.3z"/>
	<path d="M313.5,331.2l-16.8-24.5l-3.7,2.6c-10.7,7.4-23.3,11.3-36.3,11.3c-34,0-62-26.6-64.1-60.1l12.9,4.7l-10.9-62.1
		l-48.3,40.5l16.7,6.1c-0.2,2.2-0.2,4.4-0.2,6.6c0,22.7,8.2,44.6,23.2,61.8l6.8-5.9c-13.5-15.4-21-35.3-21-55.8
		c0-5.2,0.5-8.7,0.9-12.7l-8.6-3.1l24.3-20.3l5.5,31.2l-10.2-3.7c-0.2,6.8-0.2,7.5-0.2,8.7c0,40.4,32.9,73.3,73.3,73.3
		c13.4,0,26.2-3.6,37.6-10.3l6.5,9.6c-13.3,8.1-28.4,12.4-44.2,12.4c-20.5,0-40.3-7.5-55.8-21l-5.9,6.8c17.1,15,39,23.2,61.8,23.2
		c19.1,0,37.4-5.7,53.1-16.4L313.5,331.2z"/>
	<path d="M140.5,345.2c-19.7-25.7-30.1-56.4-30.1-88.9c0-80.6,65.6-146.3,146.3-146.3c13.8,0,27.5,1.9,40.6,5.7
		l-9.2,16.7l78.7-1.5l-40.7-67.3l-10.6,19.1c-18.9-6.4-38.7-9.7-58.9-9.7c-48.5,0-94.2,18.7-128.7,52.8l7.9,8.1
		c32.4-31.9,75.3-49.5,120.7-49.5c24.4,0,43.2,4.6,64.1,12.3l5.8-10.4l20.5,33.9l-39.6,0.8l6.3-11.5c-9.1-3-28.5-10.5-57-10.5
		c-86.9,0-157.5,70.7-157.5,157.5c0,33.1,10,64.5,29.1,91.3l-11.5,8.8c-21-29.3-32.1-63.8-32.1-100.1c0-41.1,14.7-80.9,41.3-111.9
		l-8.6-7.4c-28.4,33.1-44,75.5-44,119.2c0,40.7,13.1,79.3,37.8,111.5l3.4,4.5l29.4-22.6L140.5,345.2z"/>
</g>
</svg>
