<?xml version="1.0" encoding="utf-8"?>
<!-- Generator: Adobe Illustrator 26.3.1, SVG Export Plug-In . SVG Version: 6.00 Build 0)  -->
<svg version="1.1" id="Layer_1" xmlns="http://www.w3.org/2000/svg" xmlns:xlink="http://www.w3.org/1999/xlink" x="0px" y="0px"
	 viewBox="0 0 512 512" style="enable-background:new 0 0 512 512;" xml:space="preserve">
<style type="text/css">
	.st0{fill-rule:evenodd;clip-rule:evenodd;fill:#8052FD;}
	.st1{fill:#8052FD;}
</style>
<g>
	<path class="st0" d="M204.8,163c28.3-28.3,66.6-44.1,106.6-44.1s78.3,15.9,106.6,44.1c28.3,28.3,44.1,66.6,44.1,106.6
		c0,4.9-4,8.9-8.9,8.9h-35.5v-17.7H444c-2.1-32-15.8-62.3-38.7-85.2c-6.1-6.1-12.8-11.6-19.9-16.3l-13.3,22.7l-15.3-9l13.3-22.6
		c-15.5-7.7-32.5-12.3-50-13.4v26.3h-17.7v-26.3c-17.5,1.2-34.4,5.8-50,13.4l13.3,22.6l-15.3,9l-13.3-22.7
		c-7.1,4.8-13.7,10.2-19.9,16.3c-6.2,6.2-11.7,13-16.5,20.1l22.8,13l-8.8,15.4l-22.8-13c-7.6,15.4-12.1,32.3-13.3,49.7h26.3v17.7
		h-35.5c-2.4,0-4.6-0.9-6.3-2.6c-1.7-1.7-2.6-3.9-2.6-6.3C160.6,229.6,176.5,191.3,204.8,163z M388,287.9c3.5-1.3,7.4-0.3,9.8,2.5
		l62.1,70.9c3.1,3.5,2.9,8.8-0.4,12.1l-62.1,62.1c-2.5,2.5-6.3,3.3-9.7,1.9c-3.3-1.4-5.5-4.6-5.5-8.2v-26.6h-97.5v-17.7h106.4
		c4.9,0,8.9,4,8.9,8.9v14.1l41.1-41.1L400,319.8v11.9c0,4.9-4,8.9-8.9,8.9h-53.2v-17.7h44.3v-26.6
		C382.3,292.5,384.5,289.2,388,287.9z M284.7,340.5h-26.6v-17.7h26.6V340.5z"/>
	<path class="st0" d="M311.3,251.9c-9.8,0-17.7,7.9-17.7,17.7c0,9.8,7.9,17.7,17.7,17.7c9.8,0,17.7-7.9,17.7-17.7
		C329.1,259.8,321.1,251.9,311.3,251.9z M275.9,269.6c0-19.6,15.9-35.5,35.5-35.5s35.5,15.9,35.5,35.5s-15.9,35.5-35.5,35.5
		S275.9,289.2,275.9,269.6z"/>
	<path class="st0" d="M416.6,212c2.4,4.3,0.9,9.7-3.3,12.1l-73.6,41.7c-4.3,2.4-9.7,0.9-12.1-3.3c-2.4-4.3-0.9-9.7,3.3-12.1
		l73.6-41.7C408.7,206.3,414.1,207.8,416.6,212z M292.5,291.6l-24.8,13.3l-8.4-15.6l24.8-13.3L292.5,291.6z"/>
	<path class="st1" d="M213.9,92.7c-14-5.9-29.5-7.1-44.1-3.2c-14.7,3.9-27.6,12.5-36.8,24.5c-9.2,12-14.1,26.8-14,42
		c0,0.1,0,0.2,0,0.3c-0.1,4.2,0.2,8.4,0.8,12.6c0.4,2.4-0.3,4.8-1.8,6.8c-1.5,1.9-3.7,3.1-6.1,3.4c-12.9,1.3-24.8,7.7-33.1,17.7
		c-8.2,10.1-12.1,23-10.8,35.9c1.3,12.9,7.7,24.8,17.7,33.1c5,4.1,10.7,7.1,16.9,9c6.2,1.9,12.6,2.5,19,1.8c0.3,0,0.6,0,0.9,0h15.1
		c4.9,0,8.9,4,8.9,8.9c0,4.9-4,8.9-8.9,8.9h-14.6c-8.6,0.8-17.2-0.1-25.5-2.6c-8.4-2.5-16.2-6.7-23-12.2
		c-13.7-11.2-22.4-27.4-24.2-45c-1.8-17.6,3.5-35.2,14.8-48.9c9.3-11.4,22.1-19.3,36.3-22.7c-0.1-2.3-0.2-4.6-0.1-6.9
		c-0.1-19,6.1-37.6,17.7-52.7c11.6-15.2,27.9-26.1,46.4-30.9c18.5-4.9,38-3.5,55.6,4c17.6,7.5,32.2,20.6,41.5,37.3
		c2.4,4.3,0.8,9.7-3.4,12.1c-4.3,2.4-9.7,0.8-12.1-3.4C239.5,109.1,227.9,98.7,213.9,92.7z"/>
	<path class="st0" d="M71.8,179.5c14.3-14.3,33.1-16.3,49.8-16.3c4.9,0,8.9,4,8.9,8.9c0,4.9-4,8.9-8.9,8.9
		c-15.9,0-28.3,2.1-37.3,11.1c-10,10-15.7,23.5-15.9,37.8c-0.1,4.9-4.1,8.8-9,8.7c-4.9-0.1-8.8-4.1-8.7-9
		C51,210.7,58.5,192.7,71.8,179.5z"/>
	<path class="st0" d="M155.5,296.5c11.8-5.1,25-6.1,37.5-2.7c12.4,3.4,23.4,10.9,31.1,21.3c7.7,10.4,11.8,23.1,11.6,36.1
		c0,0.9,0,1.7-0.1,2.6c7.7,3.3,14.3,8.6,19.2,15.5c6.5,9.1,9.5,20.3,8.4,31.5c-1.1,11.2-6.1,21.6-14.2,29.3
		c-8.1,7.7-18.7,12.1-29.9,12.4c-0.1,0-0.2,0-0.2,0H100.8c-12.4,0.1-24.3-4.5-33.5-12.9c-9.2-8.4-15-19.9-16.3-32.3
		c-1.3-12.4,1.9-24.9,9.2-35c5.9-8.3,14.2-14.6,23.6-18c1.4-7.5,4.9-14.5,10.3-20.1c7-7.2,16.6-11.2,26.6-11.2h0
		c3.9,0,7.8,0.7,11.5,1.9C138.3,306.9,146.3,300.5,155.5,296.5z M188.3,310.9c-8.5-2.3-17.6-1.7-25.8,1.9
		c-8.2,3.5-14.9,9.8-19.3,17.8c-1.2,2.2-3.2,3.8-5.6,4.4c-2.4,0.6-4.9,0.2-7-1.2c-3-1.9-6.5-3-10-3c-5.2,0-10.2,2.1-13.9,5.9
		c-3.7,3.8-5.9,9-5.9,14.5c0,4.2-2.9,7.8-7,8.7c-7.7,1.7-14.6,6.2-19.3,12.8c-4.7,6.6-6.8,14.8-6,22.9c0.9,8.1,4.7,15.6,10.6,21
		c5.9,5.4,13.6,8.3,21.5,8.3l0.1,0l118.1,0c6.7-0.2,13.1-2.9,18-7.5c5-4.7,8.1-11.1,8.7-18.1c0.7-7-1.2-13.9-5.2-19.5
		c-4-5.6-9.8-9.5-16.4-11c-4.7-1-7.6-5.6-6.8-10.3c0.5-2.4,0.7-4.9,0.7-7.3v0c0.1-9.1-2.7-18.1-8.1-25.3
		C204.5,318.4,196.9,313.2,188.3,310.9z"/>
</g>
</svg>
