<?xml version="1.0" encoding="utf-8"?>
<!-- Generator: Adobe Illustrator 25.0.1, SVG Export Plug-In . SVG Version: 6.00 Build 0)  -->
<svg version="1.1" fill="#8052FD" id="Capa_1" xmlns="http://www.w3.org/2000/svg" xmlns:xlink="http://www.w3.org/1999/xlink" x="0px" y="0px"
	 viewBox="0 0 512 512" style="enable-background:new 0 0 512 512;" xml:space="preserve">

	
	


<path d="M203,370h-33.8c-1.5,0-2.9-1-3.4-2.4c-6.3-16.7-9.4-34.3-9.4-52.3c0-23,5.4-45.8,15.5-66.4c-0.3,0-0.7,0-1,0
	c-17.9,0.8-35,8.3-47.9,21c-13,12.7-20.9,29.5-22.1,47.4c-1.1,14.9,2.3,29.5,9.7,42.1c1.2,2.1,1.2,4.8,0,6.9c-1.2,2.2-3.5,3.5-6,3.5
	H67.9c-1.5,0-2.8-0.9-3.4-2.3c-5.9-14.4-8.8-29.5-8.8-45c0-46.5,27.1-88.5,69.2-108c-0.2-2.7-0.2-5.1-0.2-7.6
	c0-73.4,59.6-133,133-133c33,0,64.6,12.1,89.1,34.3c23.9,21.6,39.1,50.8,43,82.4c40,27,64.8,71.5,66.5,119.4l0,0
	c0.7,19.8-2.4,39.1-9.3,57.2c-0.6,1.5-1.9,2.4-3.4,2.4h-33.8c-2.9,0-5.6-1.5-7.2-3.9c-1.5-2.4-1.8-5.5-0.6-8.1
	c6-13.3,9.1-27.7,9.1-42.6c0-25.7-9.3-50-26.2-69.2c-2.7,8.9-6.4,17.6-11.1,25.9c-0.7,1.1-1.9,1.9-3.2,1.9h-36
	c-3.3,0-6.2-1.8-7.6-4.7c-1.5-2.9-1.1-6.3,0.9-8.9c9.4-12.4,15.2-26.9,17.1-42.2c-13.7-5.5-28.1-7.9-42.8-7.3
	c-19.8,0.8-38.6,7.1-55,18.3c12.7,9.9,23.4,22.4,31.2,36.4c9,16.3,14,33.8,14.7,52.4c0.7,17.2-2.2,34-8.7,50
	c-0.6,1.4-1.9,2.3-3.4,2.3h-36.6c-2.5,0-4.8-1.4-6.1-3.5c-1.2-2.2-1.2-4.7,0.1-6.9c6.5-11.1,9.9-23.8,9.9-36.9
	c0-24.6-12-47-32.1-60.9c-9.4,15.6-14.5,33.3-14.8,51.3c-0.3,15.7,2.8,30.8,9.1,45.1c1.1,2.7,0.9,5.7-0.7,8.1
	C208.5,368.5,205.8,370,203,370z M171.7,362.7H203c0.5,0,0.8-0.2,1-0.5c0.2-0.2,0.3-0.6,0.1-1.1c-6.8-15.1-10.1-31.3-9.8-48.2
	c0.4-20.6,6.6-40.8,17.9-58.3c1.1-1.7,3.3-2.2,5-1.1c24.2,15,38.6,40.8,38.6,69.1c0,14.1-3.7,27.9-10.6,39.9h33.4
	c5.5-14.2,8-29.3,7.3-44.6c-1.5-34.6-18.6-66.1-47-86.2c-1-0.7-1.5-1.8-1.5-2.9s0.5-2.3,1.5-3c18.4-13.9,40.2-21.7,63.1-22.6
	c16.8-0.7,33,2.4,48.4,8.9c1.5,0.7,2.4,2.1,2.2,3.7c-1.6,17.7-8.1,34.5-18.9,48.7c-0.4,0.6-0.2,1.1-0.2,1.3c0.1,0.2,0.4,0.7,1.1,0.7
	h33.8c4.9-9.1,8.6-18.7,11.1-28.6c0.3-1.3,1.3-2.3,2.6-2.6c1.3-0.3,2.6,0,3.6,1c21.1,21.2,32.7,49.2,32.7,79.1
	c0,15.9-3.3,31.3-9.8,45.7c-0.2,0.5-0.1,0.8,0.1,1.1c0.2,0.2,0.4,0.6,1,0.6h31.2c5.9-16.5,8.5-34,8-52.1
	c-1.5-46.1-25.7-88.9-64.6-114.6c-0.9-0.6-1.5-1.5-1.6-2.7c-3.3-30.5-17.8-58.7-40.8-79.5c-23.2-20.9-53-32.4-84.1-32.4
	c-69.3,0-125.7,56.4-125.7,125.7c0,2.9,0.2,5.9,0.4,9.6c0.1,1.5-0.7,3-2.2,3.7c-40.7,17.7-67,57.8-67,102.2
	c0,13.7,2.4,27.1,7.4,39.9h33.4C96,348.8,92.4,333,93.5,316.9c1.4-19.7,10-38.2,24.3-52.2c14.3-14,33-22.1,52.8-23
	c2.4-0.1,5-0.1,7.4,0c1.3,0.1,2.4,0.7,3.1,1.9c0.7,1.1,0.7,2.4,0,3.6c-11.4,20.9-17.4,44.5-17.4,68.3
	C163.7,331.6,166.4,347.5,171.7,362.7z M203.6,214.9c-0.3,0-0.7,0-0.9-0.1c-8-2-16-3.3-23.9-3.6c-4.1-0.2-8.4-0.1-12.4,0.2
	c-1.1,0.1-2-0.2-2.8-1c-0.7-0.7-1.1-1.6-1.1-2.7c0-2.6,0.1-5.3,0.2-8c3.7-47.6,42.3-85.3,89.9-87.8c41-2.2,78.8,22,93.8,60.3
	c0.5,1.3,0.2,2.8-0.7,3.7c-0.9,1.1-2.4,1.5-3.7,1.1c-9.8-2.5-19.9-4.1-30.1-4.5c-20.1-0.8-39.7,2.5-58.2,9.8
	c-17.8,7.1-33.8,17.6-47.5,31.2C205.5,214.5,204.6,214.9,203.6,214.9z M174.7,203.9c1.5,0,2.9,0,4.5,0.1c7.7,0.3,15.6,1.4,23.4,3.3
	c14.1-13.6,30.4-24.1,48.5-31.2c19.4-7.7,40.1-11.2,61.2-10.4c8.3,0.3,16.4,1.3,24.5,3c-15.5-31.5-48.2-51-83.7-49.1
	c-43.9,2.3-79.6,37.1-83,81c-0.1,1.1-0.2,2.4-0.2,3.6C171.4,203.9,173,203.9,174.7,203.9z"/>
</svg>
