<?xml version="1.0" encoding="utf-8"?>
<!-- Generator: Adobe Illustrator 25.0.1, SVG Export Plug-In . SVG Version: 6.00 Build 0)  -->
<svg version="1.1" fill="#8052FD" id="Capa_1" xmlns="http://www.w3.org/2000/svg" xmlns:xlink="http://www.w3.org/1999/xlink" x="0px" y="0px"
	 viewBox="0 0 512 512" style="enable-background:new 0 0 512 512;" xml:space="preserve">

	
	


<g>
	<path d="M390.1,196.5C386.7,139,339.3,93,282.1,93c-34.7,0-68.3,17-89.1,44.8c-0.5-0.2-1-0.4-1.5-0.7
		c-1.3-0.6-2.6-1.2-3.9-1.7c-0.7-0.3-1.5-0.5-2.2-0.8c-1.3-0.5-2.6-0.9-4-1.2c-0.7-0.2-1.5-0.4-2.2-0.6c-1.4-0.3-2.9-0.6-4.4-0.8
		c-0.6-0.1-1.3-0.2-1.9-0.3c-2.1-0.2-4.3-0.4-6.4-0.4c-31.7,0-57.5,25.8-57.5,57.5c0,0.8,0.1,1.6,0.1,2.4
		c-26.6,14.5-44.9,44.9-44.9,75.3c0,45.3,36.8,82.1,82.1,82.1h33c3.5,0,6.4-2.9,6.4-6.4c0-3.5-2.9-6.4-6.4-6.4h-33
		c-38.2,0-69.3-31.1-69.3-69.3c0-26.6,17.3-54.1,41.1-65.5l3.6-1.7v-4c0-0.8,0.1-1.5,0.1-2.3l0.1-1.2l-0.1-1.2
		c0-0.5-0.1-1.1-0.1-1.6c0-24.7,20.1-44.7,44.7-44.7c2,0,3.9,0.2,5.9,0.4c0.5,0.1,1,0.1,1.5,0.2c1.7,0.3,3.4,0.7,5,1.1
		c0.2,0.1,0.5,0.1,0.7,0.2c1.8,0.6,3.6,1.3,5.3,2.1c0.5,0.2,0.9,0.4,1.3,0.6c1.5,0.8,3,1.6,4.5,2.5c12.3,8,20.5,21.8,20.5,37.6
		c0,3.5,2.9,6.4,6.4,6.4c3.5,0,6.4-2.9,6.4-6.4c0-17.6-8-33.4-20.5-43.9c18.3-24,48.5-39.2,78.5-39.2c49.5,0,90.6,39.2,94.9,88.8
		c-6.5-0.5-16.3-0.7-26.1,0.8c-3.5,0.5-5.9,3.8-5.4,7.3c0.5,3.2,3.2,5.4,6.3,5.4c0.3,0,0.6,0,1-0.1c14.2-2.2,29.1-0.1,29.9,0
		c29.8,5.7,52.2,33.1,52.2,63.8c0,35.3-28.8,64.1-64.1,64.1h-25.4c-3.5,0-6.4,2.9-6.4,6.4c0,3.5,2.9,6.4,6.4,6.4h25.4
		c42.4,0,76.9-34.5,76.9-76.9C447.8,236.7,423.3,205.2,390.1,196.5z"/>
	<path d="M309,357l-40.2,40.2V265.6c0-3.5-2.9-6.4-6.4-6.4c-3.5,0-6.4,2.9-6.4,6.4v131.6L215.8,357
		c-2.5-2.5-6.5-2.5-9,0c-2.5,2.5-2.5,6.5,0,9l51.1,51.1c0.6,0.6,1.3,1.1,2.1,1.4c0.8,0.3,1.6,0.5,2.4,0.5c0.8,0,1.7-0.2,2.4-0.5
		c0.8-0.3,1.5-0.8,2.1-1.4L318,366c2.5-2.5,2.5-6.5,0-9C315.5,354.5,311.5,354.5,309,357z"/>
</g>
</svg>
