<?xml version="1.0" encoding="utf-8"?>
<!-- Generator: Adobe Illustrator 25.0.1, SVG Export Plug-In . SVG Version: 6.00 Build 0)  -->
<svg version="1.1" fill="#8052FD" id="Cloud" xmlns="http://www.w3.org/2000/svg" xmlns:xlink="http://www.w3.org/1999/xlink" x="0px" y="0px"
	 viewBox="0 0 512 512" style="enable-background:new 0 0 512 512;" xml:space="preserve">

	
	


<path d="M165.2,384.8c0,0.2,0.1,0.4,0.2,0.6l0.3,1.2l-1.2,0.3c-6.1,1.5-11.2,5.3-14.3,10.7c-3.2,5.4-4.1,11.7-2.6,17.7
	c3.1,12.5,15.9,20.2,28.4,17c6.1-1.5,11.2-5.3,14.3-10.7c3.2-5.4,4.1-11.7,2.6-17.7c-2.1-8.4-8.6-14.9-17-17l-1.2-0.3l0.3-1.2
	c0.1-0.2,0.1-0.4,0.2-0.6v-87h51.4v37.9c0,0.2,0.1,0.4,0.2,0.6l0.3,1.2l-1.2,0.3c-6.1,1.5-11.2,5.3-14.3,10.7
	c-3.2,5.4-4.1,11.7-2.6,17.7c3.1,12.5,15.9,20.2,28.4,17c6.1-1.5,11.2-5.3,14.3-10.7c3.2-5.4,4.1-11.7,2.6-17.7
	c-2.1-8.4-8.6-14.9-17-17l-1.2-0.3l0.3-1.2c0.1-0.2,0.1-0.4,0.2-0.6v-37.9h51.4v74.7c0,0.2,0.1,0.4,0.2,0.6l0.3,1.2l-1.2,0.3
	c-6.1,1.5-11.2,5.3-14.3,10.7c-3.2,5.4-4.1,11.7-2.6,17.7c3.1,12.5,15.9,20.2,28.4,17c12.5-3.1,20.2-15.9,17-28.4
	c-2.1-8.4-8.6-14.9-17-17l-1.2-0.3l0.3-1.2c0.1-0.2,0.1-0.4,0.2-0.6v-74.7h45.3v25.6c0,0.2,0.1,0.4,0.2,0.6l0.3,1.2l-1.2,0.3
	c-6.1,1.5-11.2,5.3-14.3,10.7c-3.2,5.4-4.1,11.7-2.6,17.7c1.5,6.1,5.3,11.2,10.7,14.3c5.4,3.2,11.7,4.1,17.7,2.6
	c12.5-3.1,20.2-15.9,17-28.4c-2.1-8.4-8.6-14.9-17-17l-1.2-0.3l0.3-1.2c0.1-0.2,0.1-0.4,0.2-0.6v-25.6h7.3c0.1,0,0.2,0,0.2,0
	c22.6,0,43.8-8.7,59.8-24.7c16-16,24.9-37.2,25-59.8c0.2-46.7-37.8-84.8-84.5-85c-0.1,0-0.2,0-0.2,0c-4.1,0-8.1,0.3-12,0.8l-0.8,0.1
	l-0.4-0.6c-20.1-31-54.1-49.5-91-49.5c-0.2,0-0.2,0-0.4,0c-24.9,0.2-49.3,8.8-68.7,24.5s-32.9,37.7-38.2,62.1l-0.2,1.2l-1.2-0.2
	c-4.8-1.1-9.7-1.6-14.5-1.6c-17.7,0-34.4,6.9-46.9,19.4c-12.7,12.7-19.6,29.3-19.6,47c0,33.2,24.9,61.5,57.8,65.8h0.2l0.2,0.1
	c0.6,0.3,1.4,0.5,2.1,0.5l0,0h38L165.2,384.8L165.2,384.8z M170.1,422.9c-7.4,0-13.4-6.1-13.4-13.4s6.1-13.4,13.4-13.4
	c7.4,0,13.4,6.1,13.4,13.4S177.5,422.9,170.1,422.9z M292.9,410.6c-7.4,0-13.4-6.1-13.4-13.4s6.1-13.4,13.4-13.4s13.4,6.1,13.4,13.4
	S300.2,410.6,292.9,410.6z M231.5,373.8c-7.4,0-13.4-6.1-13.4-13.4c0-7.4,6.1-13.4,13.4-13.4s13.4,6.1,13.4,13.4
	C244.9,367.7,238.9,373.8,231.5,373.8z M348.1,361.5c-7.4,0-13.4-6.1-13.4-13.4c0-7.4,6.1-13.4,13.4-13.4s13.4,6.1,13.4,13.4
	C361.5,355.4,355.5,361.5,348.1,361.5z M360.5,287.8c-0.1,0-0.2,0-0.2,0H128.9l-0.2-0.1c-0.3-0.1-0.7-0.2-1.1-0.2
	c-15-1.5-28.5-8.7-38.1-20.3c-9.6-11.7-14-26.3-12.6-41.3c3-30.9,30.7-53.6,61.6-50.6c4.3,0.5,8.6,1.4,12.7,2.8
	c1.2,0.5,2.6,0.3,3.8-0.2c1.2-0.6,2.1-1.6,2.5-2.8c0.1-0.3,0.2-0.5,0.2-0.8c3.5-23.6,15.4-45,33.4-60.6
	c17.9-15.6,40.9-24.3,64.7-24.4c0.1,0,0.2,0,0.3,0c34.6,0,67,18.4,84.8,48.2c1.1,1.8,3.1,2.7,5.2,2.3c19.6-3.8,39.5,0.2,56.1,11.4
	c16.6,11.2,27.8,28.2,31.6,47.7c7.9,40.5-18.6,79.9-59.1,87.7C370.1,287.4,365.4,287.8,360.5,287.8z M121,263.3c-2.8,0-5,2.2-5,5
	s2.2,5,5,5h79.8c2.8,0,5-2.2,5-5s-2.2-5-5-5H121z M219.2,263.3c-2.8,0-5,2.2-5,5s2.2,5,5,5h6.1c2.8,0,5-2.2,5-5s-2.2-5-5-5H219.2z"
	/>
</svg>
