<?xml version="1.0" encoding="utf-8"?>
<!-- Generator: Adobe Illustrator 25.0.1, SVG Export Plug-In . SVG Version: 6.00 Build 0)  -->
<svg version="1.1" fill="#8052FD" id="Capa_1" xmlns="http://www.w3.org/2000/svg" xmlns:xlink="http://www.w3.org/1999/xlink" x="0px" y="0px"
	 viewBox="0 0 512 512" style="enable-background:new 0 0 512 512;" xml:space="preserve">

	
	


<path d="M394.4,220.9C391,161.5,342,114,283,114c-35.8,0-70.5,17.6-92,46.3c-0.5-0.3-1-0.4-1.5-0.7
	c-1.3-0.6-2.6-1.2-4-1.8c-0.8-0.3-1.5-0.6-2.3-0.8c-1.3-0.5-2.7-0.9-4.1-1.3c-0.8-0.2-1.5-0.4-2.3-0.6c-1.5-0.3-3-0.6-4.5-0.8
	c-0.7-0.1-1.3-0.2-2-0.3c-2.2-0.2-4.4-0.4-6.7-0.4c-32.8,0-59.4,26.6-59.4,59.4c0,0.8,0.1,1.7,0.1,2.5v0
	c-27.4,15-46.3,46.3-46.3,77.7C58,340,96,378,142.8,378h161.8c0.7,0,1.4,0,2.1-0.1l0.4-0.1l0.9,0.1c0.7,0.1,1.3,0.1,2,0.1h64.7
	c43.8,0,79.4-35.6,79.4-79.4C454,262.4,428.7,229.9,394.4,220.9z M374.6,364.8h-64.7c-0.4,0-0.8,0-1.1-0.1l-1.8-0.1l-1.3,0.1
	c-0.4,0-0.8,0.1-1.1,0.1H142.8c-39.5,0-71.6-32.1-71.6-71.6c0-27.4,17.9-55.9,42.5-67.7l3.7-1.8v-4.2c0-0.8,0.1-1.7,0.1-2.5l0.1-1.1
	l-0.1-1.4c0-0.5-0.1-1.1-0.1-1.6c0-25.5,20.7-46.2,46.2-46.2c2,0,4.1,0.2,6.1,0.4c0.5,0.1,1,0.2,1.5,0.2c1.8,0.3,3.5,0.7,5.2,1.2
	c0.2,0.1,0.5,0.1,0.7,0.2c1.9,0.6,3.7,1.3,5.5,2.1c0.5,0.2,0.9,0.4,1.4,0.7c1.6,0.8,3.1,1.6,4.6,2.6c12.7,8.2,21.2,22.5,21.2,38.8
	c0,3.6,3,6.6,6.6,6.6c3.6,0,6.6-3,6.6-6.6c0-18.2-8.2-34.4-21.1-45.3c18.9-24.8,50.1-40.5,81.1-40.5c51.1,0,93.6,40.5,98,91.7
	c-6.7-0.5-16.8-0.7-26.9,0.8c-3.6,0.5-6.1,3.9-5.5,7.5c0.5,3.3,3.3,5.6,6.5,5.6c0.3,0,0.7,0,1-0.1c14.7-2.2,30-0.1,30.9,0
	c30.7,5.8,53.9,34.1,53.9,65.9C440.8,335.1,411.1,364.8,374.6,364.8z"/>
</svg>
