<?xml version="1.0" encoding="utf-8"?>
<!-- Generator: Adobe Illustrator 25.0.1, SVG Export Plug-In . SVG Version: 6.00 Build 0)  -->
<svg version="1.1" fill="#8052FD" id="Capa_1" xmlns="http://www.w3.org/2000/svg" xmlns:xlink="http://www.w3.org/1999/xlink" x="0px" y="0px"
	 viewBox="0 0 512 512" style="enable-background:new 0 0 512 512;" xml:space="preserve">

	
	


<g>
	<g>
		<path d="M436.6,414.6H305.2c-4.1,0-7.3,3.3-7.3,7.3c0,4.1,3.3,7.3,7.3,7.3h131.4c4.1,0,7.3-3.3,7.3-7.3
			C444,417.9,440.7,414.6,436.6,414.6z"/>
	</g>
</g>
<g>
	<g>
		<path d="M206.1,414.6H75.4c-4.1,0-7.3,3.3-7.3,7.3c0,4.1,3.3,7.3,7.3,7.3h130.7c4.1,0,7.3-3.3,7.3-7.3
			C213.4,417.9,210.1,414.6,206.1,414.6z"/>
	</g>
</g>
<g>
	<g>
		<path d="M258.9,218.2H202c-4.1,0-7.3,3.3-7.3,7.3c0,4.1,3.3,7.3,7.3,7.3h56.9c4.1,0,7.3-3.3,7.3-7.3
			S263,218.2,258.9,218.2z"/>
	</g>
</g>
<g>
	<g>
		<path d="M316.1,220.4c-1.4-1.4-3.3-2.2-5.2-2.2c-1.9,0-3.8,0.8-5.2,2.2c-1.4,1.4-2.2,3.3-2.2,5.2s0.8,3.8,2.2,5.2
			c1.4,1.4,3.3,2.2,5.2,2.2c1.9,0,3.8-0.8,5.2-2.2c1.4-1.4,2.2-3.3,2.2-5.2C318.2,223.6,317.4,221.7,316.1,220.4z"/>
	</g>
</g>
<g>
	<g>
		<path d="M290.4,220.4c-1.4-1.4-3.3-2.2-5.2-2.2c-1.9,0-3.8,0.8-5.2,2.2c-1.4,1.4-2.2,3.3-2.2,5.2s0.8,3.8,2.2,5.2
			c1.4,1.4,3.3,2.2,5.2,2.2s3.8-0.8,5.2-2.2c1.4-1.4,2.1-3.3,2.1-5.2C292.6,223.6,291.8,221.7,290.4,220.4z"/>
	</g>
</g>
<g>
	<g>
		<path d="M258.9,277H202c-4.1,0-7.3,3.3-7.3,7.3c0,4.1,3.3,7.3,7.3,7.3h56.9c4.1,0,7.3-3.3,7.3-7.3
			C266.2,280.3,263,277,258.9,277z"/>
	</g>
</g>
<g>
	<g>
		<path d="M316.1,279.1c-1.4-1.4-3.3-2.2-5.2-2.2c-1.9,0-3.8,0.8-5.2,2.2c-1.4,1.4-2.2,3.3-2.2,5.2
			c0,1.9,0.8,3.8,2.2,5.2c1.4,1.4,3.3,2.2,5.2,2.2c1.9,0,3.8-0.8,5.2-2.2c1.4-1.4,2.2-3.3,2.2-5.2
			C318.2,282.4,317.4,280.5,316.1,279.1z"/>
	</g>
</g>
<g>
	<g>
		<path d="M290.4,279.1c-1.4-1.4-3.3-2.2-5.2-2.2c-1.9,0-3.8,0.8-5.2,2.2c-1.4,1.4-2.2,3.3-2.2,5.2
			c0,1.9,0.8,3.8,2.2,5.2c1.4,1.4,3.3,2.2,5.2,2.2c1.9,0,3.8-0.8,5.2-2.2c1.4-1.4,2.1-3.3,2.1-5.2
			C292.6,282.4,291.8,280.5,290.4,279.1z"/>
	</g>
</g>
<g>
	<g>
		<path d="M258.9,335.7H202c-4.1,0-7.3,3.3-7.3,7.3c0,4.1,3.3,7.3,7.3,7.3h56.9c4.1,0,7.3-3.3,7.3-7.3
			C266.2,339,263,335.7,258.9,335.7z"/>
	</g>
</g>
<g>
	<g>
		<path d="M316.1,337.9c-1.4-1.4-3.3-2.2-5.2-2.2c-1.9,0-3.8,0.8-5.2,2.2c-1.4,1.4-2.1,3.3-2.1,5.2s0.8,3.8,2.1,5.2
			c1.4,1.4,3.3,2.2,5.2,2.2c1.9,0,3.8-0.8,5.2-2.2c1.4-1.4,2.2-3.3,2.2-5.2S317.4,339.2,316.1,337.9z"/>
	</g>
</g>
<g>
	<g>
		<path d="M290.4,337.9c-1.4-1.4-3.3-2.2-5.2-2.2c-1.9,0-3.8,0.8-5.2,2.2c-1.4,1.4-2.2,3.3-2.2,5.2s0.8,3.8,2.2,5.2
			c1.4,1.4,3.3,2.2,5.2,2.2c1.9,0,3.8-0.8,5.2-2.2c1.4-1.4,2.2-3.3,2.2-5.2S291.8,339.2,290.4,337.9z"/>
	</g>
</g>
<g>
	<g>
		<path d="M351.6,285.4c0-12-5.8-22.7-14.7-29.4c8.9-6.7,14.7-17.4,14.7-29.4c0-20.2-16.5-36.7-36.7-36.7H197.3
			c-20.2,0-36.7,16.5-36.7,36.7c0,12,5.8,22.7,14.7,29.4c-8.9,6.7-14.7,17.4-14.7,29.4s5.8,22.7,14.7,29.4
			c-8.9,6.7-14.7,17.4-14.7,29.4c0,20.2,16.5,36.7,36.7,36.7h51.3v20.4c-8.5,3-14.7,11.2-14.7,20.8c0,12.1,9.9,22,22,22
			c12.1,0,22-9.9,22-22c0-9.6-6.1-17.7-14.7-20.8v-20.4h51.5c20.2,0,36.7-16.5,36.7-36.7c0-12-5.8-22.7-14.7-29.4
			C345.8,308,351.6,297.4,351.6,285.4z M175.3,226.6c0-12.1,9.9-22,22-22h117.5c12.1,0,22,9.9,22,22s-9.9,22-22,22H197.3
			C185.2,248.6,175.3,238.8,175.3,226.6z M256,429.3c-4,0-7.3-3.3-7.3-7.3s3.3-7.3,7.3-7.3s7.3,3.3,7.3,7.3S260,429.3,256,429.3z
			 M336.9,344.1c0,12.1-9.9,22-22,22H197.3c-12.1,0-22-9.9-22-22s9.9-22,22-22h117.5C327,322.1,336.9,332,336.9,344.1z M314.8,307.4
			H197.3c-12.1,0-22-9.9-22-22s9.9-22,22-22h117.5c12.1,0,22,9.9,22,22S327,307.4,314.8,307.4z"/>
	</g>
</g>
<g>
	<g>
		<path d="M428.2,181.7c-9.4-13.7-22.3-24.4-37.4-31.1c-18.5-49.5-65.9-82.6-119-82.6c-30.9,0-60.7,11.2-83.9,31.7
			c-21.2,18.7-35.5,43.7-40.8,71.2c-1.1-0.1-2.3-0.1-3.4-0.1c-41.7,0-75.6,33.9-75.6,75.6c0,18.1,6.5,35.7,18.4,49.4
			c11.7,13.6,27.9,22.6,45.5,25.3c0.4,0.1,0.8,0.1,1.1,0.1c3.6,0,6.7-2.6,7.2-6.2c0.6-4-2.1-7.8-6.1-8.4
			c-29.8-4.6-51.5-30-51.5-60.2c0-33.6,27.3-60.9,60.9-60.9c2.8,0,5.7,0.2,8.5,0.6c1.9,0.3,3.9-0.2,5.5-1.4s2.6-2.9,2.8-4.9
			c7.5-55.4,55.4-97.1,111.3-97.1c48,0,90.7,30.5,106.3,75.8c0.7,2,2.2,3.6,4.2,4.4c28.6,11.5,47,38.8,47,69.5
			c0,35.4-25.1,66.3-59.8,73.4c-4,0.8-6.5,4.7-5.7,8.7s4.7,6.5,8.7,5.7c41.5-8.5,71.5-45.4,71.5-87.8
			C444,214.2,438.5,196.7,428.2,181.7z"/>
	</g>
</g>
</svg>
