<?xml version="1.0" encoding="utf-8"?>
<!-- Generator: Adobe Illustrator 25.0.1, SVG Export Plug-In . SVG Version: 6.00 Build 0)  -->
<svg version="1.1" fill="#8052FD" id="Capa_1" xmlns="http://www.w3.org/2000/svg" xmlns:xlink="http://www.w3.org/1999/xlink" x="0px" y="0px"
	 viewBox="0 0 512 512" style="enable-background:new 0 0 512 512;" xml:space="preserve">

	
	


<g>
	<g>
		<g>
			<path d="M370.7,128.8C352.8,97.5,319.4,78,283.6,78c-36.1,0-69,19.2-87,50.4c-6.5-2.2-13.3-3.3-20.2-3.3
				c-16.7,0-32.4,6.5-44.4,18.3c-10.6,10.5-17.1,24.1-18.7,38.9c-13.8,1.4-26.7,7.6-36.6,17.7c-11.2,11.4-17.3,26.5-17.3,42.5
				c0,33.4,26.9,60.5,60,60.5h50c3.2,0,5.8-2.6,5.8-5.8c0-3.2-2.6-5.8-5.8-5.8h-50c-26.8,0-48.5-22-48.5-49
				c0-26.6,21.5-48.6,47.8-49c3.1,0,5.6-2.5,5.7-5.6c0.3-13.7,5.9-26.6,15.6-36.2c9.8-9.6,22.6-14.9,36.3-14.9
				c7.1,0,14,1.4,20.6,4.3c2.8,1.2,6,0.1,7.4-2.7c15.4-30.1,45.7-48.7,79.2-48.7c31.7,0,61.3,17.2,77.2,45c1.6,2.8,5.1,3.7,7.9,2.1
				C371.4,135.1,372.3,131.5,370.7,128.8z"/>
		</g>
	</g>
	<g>
		<g>
			<path d="M389.3,181.9h-5.2c0-0.8,0-1.7,0-2.5c0-5.5-0.4-11-1.3-16.4c-0.5-3.1-3.5-5.3-6.6-4.8
				c-3.1,0.5-5.3,3.5-4.8,6.6c0.8,4.8,1.2,9.7,1.2,14.6c0,2.5-0.1,5.1-0.3,7.8c-0.1,1.6,0.4,3.2,1.5,4.4c1.1,1.2,2.6,1.9,4.2,1.9
				h11.2c26.8,0,48.5,22,48.5,49s-21.8,49-48.5,49h-83.9c-3.2,0-5.8,2.6-5.8,5.8c0,3.2,2.6,5.8,5.8,5.8h83.9c33.1,0,60-27.1,60-60.5
				C449.3,209,422.4,181.9,389.3,181.9z"/>
		</g>
	</g>
	<g>
		<g>
			<path d="M205.6,254.1l-15.3-23.7c3.7-3.9,6-9.1,6-14.9c0-11.8-9.5-21.4-21.2-21.4c-11.7,0-21.2,9.6-21.2,21.4
				c0,11.8,9.5,21.4,21.2,21.4c1.8,0,3.6-0.2,5.3-0.7l15.6,24.1c0.5,0.8,1.2,2.9,1.2,3.9v71.6H68.3c-3.2,0-5.8,2.6-5.8,5.8
				c0,3.2,2.6,5.8,5.8,5.8H199c5.3,0,9.6-4.3,9.6-9.6v-73.5C208.6,261,207.4,256.8,205.6,254.1z M175.1,225.4
				c-5.4,0-9.7-4.4-9.7-9.9s4.4-9.9,9.7-9.9c5.4,0,9.7,4.4,9.7,9.9C184.8,220.9,180.4,225.4,175.1,225.4z"/>
		</g>
	</g>
	<g>
		<g>
			<path d="M315.3,194.1c-9.7,0-17.9,6.6-20.4,15.6h-41.3c-2.5-9-10.7-15.6-20.4-15.6c-11.7,0-21.2,9.6-21.2,21.4
				c0,9.4,6.1,17.4,14.5,20.3v134.6h-62.5c-3.2,0-5.8,2.6-5.8,5.8s2.6,5.8,5.8,5.8h64.4c5.3,0,9.6-4.3,9.6-9.6v-136
				c7.6-1.8,13.6-7.6,15.7-15.1h41.3c2.5,9,10.7,15.6,20.4,15.6c11.7,0,21.2-9.6,21.2-21.4C336.6,203.7,327.1,194.1,315.3,194.1z
				 M233.1,225.4c-5.4,0-9.7-4.4-9.7-9.9s4.4-9.9,9.7-9.9c5.4,0,9.7,4.4,9.7,9.9C242.8,220.9,238.5,225.4,233.1,225.4z M315.3,225.4
				c-5.4,0-9.7-4.4-9.7-9.9c0-5.4,4.4-9.9,9.7-9.9c5.4,0,9.7,4.4,9.7,9.9C325.1,220.9,320.7,225.4,315.3,225.4z"/>
		</g>
	</g>
	<g>
		<g>
			<path d="M127,370.4h-22.8l0,0c-2.5-9.1-10.7-15.6-20.5-15.6c-0.2,0-0.4,0-0.6,0c-11.7,0.3-21,10.2-20.7,21.9
				c0.3,11.7,9.6,20.8,21.2,20.8c0.2,0,0.4,0,0.6,0c9.5-0.3,17.4-6.8,19.9-15.6H127c3.2,0,5.8-2.6,5.8-5.8S130.2,370.4,127,370.4z
				 M84.1,386l-0.3,0c-5.3,0-9.6-4.2-9.7-9.6c-0.1-5.4,4.1-10,9.5-10.1l0.3,0c5.3,0,9.6,4.2,9.7,9.6C93.7,381.3,89.4,385.9,84.1,386
				z"/>
		</g>
	</g>
	<g>
		<g>
			<path d="M446.7,406.9H186.8c-2.5-9.1-10.7-15.6-20.5-15.6c-0.2,0-0.4,0-0.6,0c-9.5,0.3-17.4,6.8-19.9,15.6H68.3
				c-3.2,0-5.8,2.6-5.8,5.8c0,3.2,2.6,5.8,5.8,5.8h77.6c2.5,9.1,10.7,15.6,20.5,15.6c0.2,0,0.4,0,0.6,0c9.5-0.3,17.4-6.8,19.9-15.6
				h259.9c3.2,0,5.8-2.6,5.8-5.8C452.5,409.4,449.9,406.9,446.7,406.9z M166.6,422.5l-0.3,0c-5.3,0-9.6-4.2-9.7-9.6
				c-0.1-5.4,4.1-10,9.5-10.1l0.3,0c5.3,0,9.6,4.2,9.7,9.6C176.2,417.8,172,422.3,166.6,422.5z"/>
		</g>
	</g>
	<g>
		<g>
			<path d="M446.7,335.8h-86.4c-3.2,0-5.8,2.6-5.8,5.8s2.6,5.8,5.8,5.8h86.4c3.2,0,5.8-2.6,5.8-5.8
				S449.9,335.8,446.7,335.8z"/>
		</g>
	</g>
	<g>
		<g>
			<path d="M324.3,335.8h-44.4v-56.9c8.7-2.7,15.1-10.8,15.1-20.5c0-11.8-9.5-21.4-21.2-21.4
				c-11.7,0-21.2,9.6-21.2,21.4c0,9.9,6.8,18.3,15.9,20.7v58.6c0,5.3,4.3,9.6,9.6,9.6h46.3c3.2,0,5.8-2.6,5.8-5.8
				C330.1,338.4,327.5,335.8,324.3,335.8z M273.7,268.3c-5.4,0-9.7-4.4-9.7-9.9c0-5.4,4.4-9.9,9.7-9.9c5.4,0,9.7,4.4,9.7,9.9
				C283.5,263.9,279.1,268.3,273.7,268.3z"/>
		</g>
	</g>
	<g>
		<g>
			<path d="M446.7,370.4h-22.3c-2.5-9.1-10.7-15.6-20.5-15.6c-0.2,0-0.4,0-0.6,0c-9.5,0.3-17.4,6.8-19.9,15.6h-89.4
				c-2.5-9.1-10.7-15.6-20.5-15.6c-0.2,0-0.4,0-0.6,0c-11.7,0.3-21,10.2-20.7,21.9c0.3,11.7,9.6,20.8,21.2,20.8c0.2,0,0.4,0,0.6,0
				c9.5-0.3,17.4-6.8,19.9-15.6h89.4c2.5,9.1,10.7,15.6,20.5,15.6c0.2,0,0.4,0,0.6,0c9.5-0.3,17.4-6.8,19.9-15.6h22.3
				c3.2,0,5.8-2.6,5.8-5.8C452.5,373,449.9,370.4,446.7,370.4z M274,386l-0.3,0c-5.3,0-9.6-4.2-9.7-9.6c-0.1-5.4,4.1-10,9.5-10.1
				l0.3,0c5.3,0,9.6,4.2,9.7,9.6C283.6,381.3,279.4,385.9,274,386z M404.3,386l-0.3,0c-5.3,0-9.6-4.2-9.7-9.6
				c-0.1-5.4,4.1-10,9.5-10.1l0.3,0c5.3,0,9.6,4.2,9.7,9.6C413.9,381.3,409.6,385.9,404.3,386z"/>
		</g>
	</g>
	<g>
		<g>
			<path d="M273.7,141.4c-11.7,0-21.2,9.6-21.2,21.4c0,11.8,9.5,21.4,21.2,21.4c11.7,0,21.2-9.6,21.2-21.4
				S285.5,141.4,273.7,141.4z M273.7,172.7c-5.4,0-9.7-4.4-9.7-9.9s4.4-9.9,9.7-9.9c5.4,0,9.7,4.4,9.7,9.9
				C283.5,168.2,279.1,172.7,273.7,172.7z"/>
		</g>
	</g>
</g>
</svg>
