<?xml version="1.0" encoding="utf-8"?>
<!-- Generator: Adobe Illustrator 25.0.1, SVG Export Plug-In . SVG Version: 6.00 Build 0)  -->
<svg version="1.1" fill="#8052FD" id="Capa_1" xmlns="http://www.w3.org/2000/svg" xmlns:xlink="http://www.w3.org/1999/xlink" x="0px" y="0px"
	 viewBox="0 0 512 512" style="enable-background:new 0 0 512 512;" xml:space="preserve">

	
	


<g>
	<g>
		<path d="M341.1,91.3H121.5c-15.2,0-27.4,12.3-27.5,27.5v175.7c0,12.5,8.5,23.5,20.6,26.6l2.7-10.6
			c-7.3-1.9-12.4-8.4-12.4-16V118.7c0-9.1,7.4-16.5,16.5-16.5h219.7c9.1,0,16.5,7.4,16.5,16.5v5.5h11v-5.5
			C368.6,103.6,356.3,91.3,341.1,91.3z"/>
	</g>
</g>
<g>
	<g>
		<rect x="116" y="113.2" width="11" height="11"/>
	</g>
</g>
<g>
	<g>
		<rect x="137.9" y="113.2" width="11" height="11"/>
	</g>
</g>
<g>
	<g>
		<rect x="159.9" y="113.2" width="11" height="11"/>
	</g>
</g>
<g>
	<g>
		<path d="M416.4,394.9l-52.1-52.1c2.7-4.9,4.9-10.1,6.5-15.4h8.7v-11h-6.4c2.1-13.3,0.5-26.9-4.6-39.4v-54h-11v35
			c-3.3-4.2-6.9-8-11-11.4v-45.5h-11v37.9c-3.5-2-7.2-3.8-11-5.2v-54.6h-11v51.2c-3.6-0.8-7.3-1.3-11-1.5v-38.7h-11v38.7
			c-3.7,0.2-7.4,0.8-11,1.5v-18.3h-11v21.6c-3.8,1.5-7.5,3.2-11,5.2v-32.4h-11v40c-4,3.4-7.7,7.2-11,11.4v-40.5h-11v59.5
			c-5.1,12.5-6.7,26.1-4.6,39.4h-72.3v11h74.6c12,40.6,54.7,63.8,95.4,51.7c8-2.4,15.6-6,22.4-10.8l50.8,50.8c2.1,2.1,5.6,2.1,7.8,0
			l16.5-16.5C418.5,400.5,418.5,397,416.4,394.9z M297.2,371.3c-36.4,0-65.9-29.5-65.9-65.9c0-36.4,29.5-65.9,65.9-65.9
			s65.9,29.5,65.9,65.9S333.6,371.3,297.2,371.3z M396,407.5l-46.2-46.2c3-2.8,5.8-5.9,8.3-9.2l46.6,46.6L396,407.5z"/>
	</g>
</g>
<g>
	<g>
		<path d="M297.2,250.5c-30.3,0-54.9,24.6-54.9,54.9c0,30.3,24.6,54.9,54.9,54.9c30.3,0,54.9-24.6,54.9-54.9
			C352.1,275.1,327.5,250.5,297.2,250.5z M297.2,349.4c-15.7,0-30.2-8.4-38-22h76C327.3,341,312.9,349.3,297.2,349.4z M254.7,316.4
			c-4.4-16.7,1.5-34.5,15-45.2v34.2h11v-40.7c3.5-1.4,7.2-2.4,11-2.9v43.6h11v-43.6c3.8,0.5,7.5,1.4,11,2.9v40.7h11v-34.2
			c13.5,10.7,19.4,28.5,15,45.2H254.7z"/>
	</g>
</g>
<g>
	<g>
		<path d="M374.1,135.2H154.4c-15.2,0-27.4,12.3-27.5,27.5v175.7c0,15.2,12.3,27.4,27.5,27.5h71.4v-11h-71.4
			c-9.1,0-16.5-7.4-16.5-16.5V162.6c0-9.1,7.4-16.5,16.5-16.5h219.7c9.1,0,16.5,7.4,16.5,16.5v175.7c0,4-1.5,7.9-4.1,10.9l8.2,7.3
			c4.4-5,6.9-11.5,6.9-18.2V162.6C401.5,147.5,389.2,135.2,374.1,135.2z"/>
	</g>
</g>
<g>
	<g>
		<rect x="148.9" y="157.2" width="11" height="11"/>
	</g>
</g>
<g>
	<g>
		<rect x="170.9" y="157.2" width="11" height="11"/>
	</g>
</g>
<g>
	<g>
		<rect x="192.8" y="157.2" width="11" height="11"/>
	</g>
</g>
<g>
	<g>
		<rect x="159.9" y="272.5" width="11" height="32.9"/>
	</g>
</g>
<g>
	<g>
		<rect x="181.9" y="239.5" width="11" height="65.9"/>
	</g>
</g>
<g>
	<g>
		<rect x="203.8" y="256" width="11" height="49.4"/>
	</g>
</g>
</svg>
