<?xml version="1.0" encoding="utf-8"?>
<!-- Generator: Adobe Illustrator 25.0.1, SVG Export Plug-In . SVG Version: 6.00 Build 0)  -->
<svg version="1.1" fill="#8052FD" id="Layer_1" xmlns="http://www.w3.org/2000/svg" xmlns:xlink="http://www.w3.org/1999/xlink" x="0px" y="0px"
	 viewBox="0 0 100 100" style="enable-background:new 0 0 100 100;" xml:space="preserve">

	
	

<g>
	<g>
		<path d="M26.7,52.2c-0.6,0-1,0.4-1,1v5.9c0,0.6,0.4,1,1,1c0.6,0,1-0.4,1-1v-5.9C27.7,52.6,27.2,52.2,26.7,52.2z"/>
	</g>
	<g>
		<path d="M31.9,52.2c-0.6,0-1,0.4-1,1v5.9c0,0.6,0.4,1,1,1c0.6,0,1-0.4,1-1v-5.9C32.8,52.6,32.4,52.2,31.9,52.2z"/>
	</g>
	<g>
		<path d="M41.6,55.4c-0.4,0.4-0.4,1,0,1.4s1,0.4,1.4,0c0.4-0.4,0.4-1,0-1.4C42.6,55,42,55,41.6,55.4z"/>
	</g>
	<g>
		<path d="M45.6,55.4c-0.4,0.4-0.4,1,0,1.4c0.4,0.4,1,0.4,1.4,0c0.4-0.4,0.4-1,0-1.4C46.7,55,46,55,45.6,55.4z"/>
	</g>
	<g>
		<path d="M26.7,45.4c0.6,0,1-0.4,1-1v-5.9c0-0.6-0.4-1-1-1c-0.6,0-1,0.4-1,1v5.9C25.8,45,26.2,45.4,26.7,45.4z"/>
	</g>
	<g>
		<path d="M31.9,45.4c0.6,0,1-0.4,1-1v-5.9c0-0.6-0.4-1-1-1c-0.6,0-1,0.4-1,1v5.9C30.9,45,31.3,45.4,31.9,45.4z"/>
	</g>
	<g>
		<path d="M42.9,42.2c0.4-0.4,0.4-1,0-1.4c-0.4-0.4-1-0.4-1.4,0c-0.4,0.4-0.4,1,0,1.4C42,42.6,42.5,42.6,42.9,42.2z"/>
	</g>
	<g>
		<path d="M47.1,42.2c0.4-0.4,0.4-1,0-1.4s-1-0.4-1.4,0c-0.4,0.4-0.4,1,0,1.4C46.1,42.6,46.7,42.6,47.1,42.2z"/>
	</g>
	<g>
		<path d="M51.2,42.2c0.4-0.4,0.4-1,0-1.4s-1-0.4-1.4,0c-0.4,0.4-0.4,1,0,1.4C50.2,42.6,50.8,42.6,51.2,42.2z"/>
	</g>
	<g>
		<path d="M26.7,23c-0.6,0-1,0.4-1,1v5.9c0,0.6,0.4,1,1,1c0.6,0,1-0.4,1-1V24C27.7,23.4,27.2,23,26.7,23z"/>
	</g>
	<g>
		<path d="M31.9,23c-0.6,0-1,0.4-1,1v5.9c0,0.6,0.4,1,1,1c0.6,0,1-0.4,1-1V24C32.8,23.4,32.4,23,31.9,23z"/>
	</g>
	<g>
		<path d="M41.6,26.2c-0.4,0.4-0.4,1,0,1.4s1,0.4,1.4,0c0.4-0.4,0.4-1,0-1.4C42.6,25.9,42,25.9,41.6,26.2z"/>
	</g>
	<g>
		<path d="M45.6,26.2c-0.4,0.4-0.4,1,0,1.4c0.4,0.4,1,0.4,1.4,0c0.4-0.4,0.4-1,0-1.4C46.7,25.9,46,25.9,45.6,26.2z"/>
	</g>
	<g>
		<path d="M49.8,26.2c-0.4,0.4-0.4,1,0,1.4c0.4,0.4,1,0.4,1.4,0s0.4-1,0-1.4C50.8,25.9,50.1,25.9,49.8,26.2z"/>
	</g>
	<g>
		<path d="M76.6,51.9H58.6v-0.7c0-1-0.4-1.7-1-2.4c0.6-0.6,1-1.5,1-2.4v-9.8c0-1-0.4-1.7-1-2.4c0.6-0.6,1-1.5,1-2.4V22
			c0-1.8-1.6-3.4-3.4-3.4H21.9c-1.8,0-3.4,1.6-3.4,3.4v9.8c0,1,0.4,1.7,1,2.4c-0.6,0.6-1,1.5-1,2.4v9.8c0,1,0.4,1.7,1,2.4
			c-0.6,0.6-1,1.5-1,2.4v9.8c0,1.8,1.6,3.4,3.4,3.4h27v12.2c0,2.7,2.2,4.9,4.9,4.9h22.7c2.7,0,4.9-2.2,4.9-4.9v-20
			C81.5,54,79.3,51.9,76.6,51.9z M20.4,31.8V22c0-0.8,0.7-1.5,1.5-1.5h33.4c0.8,0,1.5,0.7,1.5,1.5v9.8c0,0.8-0.7,1.5-1.5,1.5H21.9
			C21.1,33.3,20.4,32.6,20.4,31.8z M55.3,35.2c0.8,0,1.5,0.7,1.5,1.5v9.8c0,0.8-0.7,1.5-1.5,1.5H21.9c-0.8,0-1.5-0.7-1.5-1.5v-9.9
			c0-0.8,0.7-1.5,1.5-1.5L55.3,35.2L55.3,35.2z M21.9,62.4c-0.8,0-1.5-0.7-1.5-1.5v-9.7c0-0.8,0.7-1.5,1.5-1.5h33.4
			c0.8,0,1.5,0.7,1.5,1.5v0.7h-2.9c-2.7,0-4.9,2.2-4.9,4.9v5.6L21.9,62.4L21.9,62.4z M79.6,76.5c0,1.6-1.4,3-3,3H53.9
			c-1.6,0-3-1.4-3-3V56.7c0-1.6,1.4-3,3-3h22.7c1.6,0,3,1.4,3,3V76.5z"/>
	</g>
	<g>
		<path d="M56.8,58.2v-1c0-0.6-0.4-1-1-1s-1,0.4-1,1v1c-1.3,0.4-2.2,1.6-2.2,3c0,1.5,1,2.6,2.2,3V76c0,0.6,0.4,1,1,1
			s1-0.4,1-1V64.2c1.3-0.4,2.2-1.6,2.2-3C59,59.7,58.1,58.6,56.8,58.2z M55.8,62.5c-0.7,0-1.3-0.6-1.3-1.3s0.6-1.3,1.3-1.3l0,0l0,0
			c0.7,0,1.3,0.6,1.3,1.3S56.6,62.5,55.8,62.5z"/>
	</g>
	<g>
		<path d="M66.2,63.6v-6.4c0-0.6-0.4-1-1-1s-1,0.4-1,1v6.4C63,64,62,65.3,62,66.6c0,1.4,1,2.6,2.2,3V76c0,0.6,0.4,1,1,1
			s1-0.4,1-1v-6.4c1.3-0.4,2.2-1.6,2.2-3C68.4,65.3,67.4,64,66.2,63.6z M65.2,67.9c-0.7,0-1.3-0.6-1.3-1.3c0-0.7,0.6-1.3,1.3-1.3
			c0.7,0,1.3,0.6,1.3,1.3S65.9,67.9,65.2,67.9z"/>
	</g>
	<g>
		<path d="M75.6,69.3V57.2c0-0.6-0.4-1-1-1s-1,0.4-1,1v12c-1.3,0.4-2.2,1.6-2.2,3c0,1.5,1,2.6,2.2,3v0.7
			c0,0.6,0.4,1,1,1s1-0.4,1-1v-0.7c1.3-0.4,2.2-1.6,2.2-3C77.8,70.9,76.9,69.7,75.6,69.3z M74.6,73.6c-0.7,0-1.3-0.6-1.3-1.3
			c0-0.7,0.6-1.3,1.3-1.3c0.7,0,1.3,0.6,1.3,1.3C75.9,73,75.3,73.6,74.6,73.6z"/>
	</g>
</g>
</svg>
