<?xml version="1.0" encoding="utf-8"?>
<!-- Generator: Adobe Illustrator 25.0.1, SVG Export Plug-In . SVG Version: 6.00 Build 0)  -->
<svg version="1.1" fill="#8052FD" id="Capa_1" xmlns="http://www.w3.org/2000/svg" xmlns:xlink="http://www.w3.org/1999/xlink" x="0px" y="0px"
	 viewBox="0 0 368 368" style="enable-background:new 0 0 368 368;" xml:space="preserve">

	
	


<path d="M228.7,72.8c-2.6-2.6-6.8-2.6-9.4,0l-28.6,28.6V37.7c0-3.7-3-6.7-6.7-6.7s-6.7,3-6.7,6.7v63.8l-28.5-28.6
	c-2.5-2.7-6.7-2.7-9.4-0.2s-2.7,6.7-0.2,9.4c0.1,0.1,0.2,0.2,0.2,0.2l39.9,39.9c2.6,2.6,6.8,2.6,9.4,0l39.9-39.9
	C231.2,79.6,231.2,75.5,228.7,72.8z"/>
<path d="M228.7,285.7l-39.9-39.9c-0.6-0.6-1.3-1.1-2.2-1.4c-2.5-1-5.3-0.5-7.2,1.4l-39.9,39.9c-2.5,2.7-2.4,6.9,0.2,9.4
	c2.6,2.4,6.6,2.4,9.1,0l28.6-28.5v63.8c0,3.7,3,6.7,6.7,6.7s6.7-3,6.7-6.7v-63.8l28.5,28.5c2.6,2.6,6.8,2.6,9.4,0
	C231.2,292.5,231.2,288.4,228.7,285.7L228.7,285.7z"/>
<path d="M123.6,181.4c-0.3-0.8-0.8-1.6-1.4-2.2l-39.9-39.9c-2.7-2.5-6.9-2.4-9.4,0.2c-2.4,2.6-2.4,6.6,0,9.1l28.5,28.6
	H37.7c-3.7,0-6.7,3-6.7,6.7s3,6.7,6.7,6.7h63.8l-28.6,28.5c-2.7,2.5-2.7,6.7-0.2,9.4s6.7,2.7,9.4,0.2c0.1-0.1,0.2-0.2,0.2-0.2
	l39.9-39.9C124,186.8,124.6,183.9,123.6,181.4z"/>
<path d="M330.3,177.3h-63.8l28.5-28.5c2.7-2.5,2.7-6.7,0.2-9.4s-6.7-2.7-9.4-0.2c-0.1,0.1-0.2,0.2-0.2,0.2l-39.9,39.9
	c-2.6,2.6-2.6,6.8,0,9.4l39.9,39.9c2.7,2.5,6.9,2.4,9.4-0.2c2.4-2.6,2.4-6.6,0-9.1l-28.5-28.6h63.8c3.7,0,6.7-3,6.7-6.7
	S334,177.3,330.3,177.3z"/>
<path d="M184,150.7c-18.4,0-33.3,14.9-33.3,33.3s14.9,33.3,33.3,33.3s33.3-14.9,33.3-33.3S202.4,150.7,184,150.7z
	 M184,204c-11.1,0-20-8.9-20-20s8.9-20,20-20s20,8.9,20,20S195.1,204,184,204z"/>
</svg>
