<?xml version="1.0" encoding="utf-8"?>
<!-- Generator: Adobe Illustrator 25.0.1, SVG Export Plug-In . SVG Version: 6.00 Build 0)  -->
<svg version="1.1" fill="#8052FD" id="Layer_1" xmlns="http://www.w3.org/2000/svg" xmlns:xlink="http://www.w3.org/1999/xlink" x="0px" y="0px"
	 viewBox="0 0 512 512" style="enable-background:new 0 0 512 512;" xml:space="preserve">

	
	


<g id="Layer_2_2_">
	<g id="Layer_1-2_1_">
		<path d="M124,124.7c28.8-29.5,66.7-48.6,107.5-54c3.6,13.6,17.6,21.5,31.2,17.9s21.5-17.6,17.9-31.2
			C277,43.9,263,35.9,249.4,39.6c-9.9,2.7-17.3,11.1-18.6,21.4c-43.3,5.6-83.4,25.7-113.9,56.9L124,124.7z M256,48.5
			c8.6,0,15.6,7,15.6,15.6s-7,15.6-15.6,15.6s-15.6-7-15.6-15.6l0,0C240.4,55.4,247.4,48.5,256,48.5L256,48.5z"/>
		<path d="M69.9,307.9l9.4-2.8c-11.9-40.4-9.5-83.6,6.6-122.5c2.2,0.6,4.4,0.9,6.7,0.9c9.1,0,17.5-4.9,22-12.7
			c7-12.1,3-27.7-9.2-34.7c-3.9-2.3-8.3-3.5-12.8-3.5c-14,0-25.4,11.3-25.4,25.3c0,7.9,3.6,15.4,9.9,20.2
			C59.9,219.3,57.3,265.1,69.9,307.9z M79,150.2c4.3-7.5,13.9-10,21.4-5.6c3.6,2.1,6.2,5.5,7.2,9.5c1.1,4,0.5,8.3-1.6,11.9
			c-4.5,7.3-13.9,9.7-21.4,5.7C77.3,167.3,74.7,157.7,79,150.2L79,150.2z"/>
		<path d="M109.5,364.5c9.6-9.8,9.4-25.6-0.4-35.2s-25.6-9.4-35.2,0.4s-9.4,25.6,0.4,35.2c7.1,6.9,17.8,9,27,5.1
			c25.3,33.6,60.8,58,101.3,69.7l2.7-9.4C167.1,419.2,133.5,396.1,109.5,364.5z M78,354.3c-4.2-7.5-1.6-17,5.8-21.3l0,0
			c7.6-4,17.1-1,21.1,6.6c3.8,7.3,1.3,16.3-5.7,20.5C92.1,364.3,82.2,361.5,78,354.3z"/>
		<path d="M386.5,383.1c-28.6,28.6-65.9,47.1-106.1,52.5c-3.6-13.6-17.5-21.6-31-18c-11.1,3-18.8,13-18.9,24.4
			c-0.2,14.1,11.1,25.5,25.2,25.7c0,0,0,0,0.1,0h0.3c12.8-0.1,23.6-9.6,25.1-22.3c42.5-5.5,82-25,112.4-55.4L386.5,383.1z
			 M256,457.8v4.9l-0.2-4.9c-8.6-0.1-15.5-7.1-15.4-15.8l0,0c0.1-8.6,7.1-15.5,15.8-15.4c8.6,0.1,15.5,7.1,15.4,15.8
			C271.5,451,264.6,457.8,256,457.8z"/>
		<path d="M403.6,143.3c-8.3,8-10.2,20.5-4.6,30.5c6.9,12.3,22.3,16.7,34.6,9.8c12.3-6.9,16.7-22.3,9.8-34.6
			c-6.2-11.1-19.7-15.9-31.6-11.3c-26.6-36.2-65.1-61.9-108.6-72.9l-2.4,9.5C342,84.8,378.3,109.1,403.6,143.3z M434.9,153.8
			c4.2,7.5,1.4,17-6,21.2l0,0c-7.5,4-16.9,1.3-21.2-6.1c-4.7-7.3-2.5-16.9,4.7-21.6c7.3-4.7,16.9-2.5,21.6,4.7
			C434.3,152.7,434.7,153.3,434.9,153.8L434.9,153.8z"/>
		<path d="M434.1,330c10.5-24.2,15.9-50.4,15.9-76.9c0-16.5-2.1-33-6.3-49.1l-9.5,2.5c4,15.3,5.9,30.8,5.9,46.6
			c0,24.8-5,49.5-14.8,72.3c-2.3-0.7-4.6-0.9-6.9-0.9c-9,0-17.3,4.7-21.9,12.4c-7.2,12-3.3,27.6,8.8,34.8c4,2.4,8.5,3.6,13,3.6
			c9,0,17.3-4.7,21.9-12.4C446.9,352,444.2,337.8,434.1,330L434.1,330z M431.9,357.9c-4.2,7.1-14.2,9.7-21.4,5.4
			c-7.5-4.4-9.8-14-5.4-21.4s14-9.8,21.4-5.4C433.8,340.9,436.3,350.5,431.9,357.9L431.9,357.9z"/>
		<path d="M256,162c-7.8,0-15.5,2.1-22.2,6.2c-17.7-11.8-41.6-6.9-53.4,10.8s-6.9,41.6,10.8,53.4
			c10.1,6.7,22.7,8.3,34.1,4.2c16.9,16.9,44.5,16.9,61.4,0c20.1,7.2,42.1-3.3,49.3-23.3c7.2-20.1-3.3-42.1-23.3-49.3
			c-11.5-4.2-24.3-2.5-34.5,4.3C271.5,164.1,263.8,162,256,162z M183.8,200.2c0-15.8,12.9-28.7,28.7-28.7c4.5,0,8.9,1.1,13,3.1
			c-14.4,14.2-17.2,36.4-6.7,53.6c-15.5,3.5-30.8-6.3-34.3-21.8C184,204.4,183.8,202.3,183.8,200.2L183.8,200.2z M256,239.5
			c-18.6,0-33.8-15.1-33.8-33.8c0-18.6,15.1-33.8,33.8-33.8c18.6,0,33.8,15.1,33.8,33.8l0,0C289.8,224.3,274.7,239.5,256,239.5z
			 M299.5,171.5c15.8,0.1,28.6,13,28.6,28.8s-13,28.6-28.8,28.6c-2,0-4.1-0.3-6-0.7c10.6-17.3,7.8-39.6-6.7-53.7
			C290.5,172.5,294.9,171.4,299.5,171.5L299.5,171.5z"/>
		<path d="M381.1,316.5c-0.9-14.7-2.1-27.5-3.6-38.1l-0.1-0.7c-0.7-5.8-2.5-11.4-5.5-16.4l-0.3-0.5
			c-2.9-4.9-7.1-9.1-12.1-11.9c-1.7-0.9-3.5-1.8-5.3-2.5l-27.4-9.7l-11.4,21.8l-27.5-9.8l-27.5,51.1h-8.9L224,248.7l-27.6,9.8
			L185,236.7l-27.5,9.8c-1.9,0.7-3.6,1.4-5.3,2.5c-4.9,2.7-9,6.7-11.9,11.5l-0.3,0.9c-2.9,4.9-4.7,10.4-5.3,16.1l-0.1,0.8
			c-1.5,10.7-2.7,23.5-3.6,38l-0.3,5.2H164c-0.4,5.2-0.8,11.1-1.1,17.9l-0.2,5.1h187l-0.3-5.2c-0.4-6.3-0.8-12.1-1.4-17.8h33.6
			L381.1,316.5z M141,311.8c0.8-12.1,1.9-22.9,3.2-32c0.1-0.8,0.2-1.2,0.2-1.3c0.3-4,1.9-8.1,4.5-12.8c2-3.4,4.9-6.3,8.4-8.2
			c1.3-0.7,2.5-1.3,3.8-1.8l19.3-6.9l7,13.6c-5.8,3.2-10.8,8-14.1,13.7c-4.2,7.2-6.3,14.5-6.4,21.4c-0.3,1.5-1.2,6.4-2.1,14.2
			L141,311.8z M172.8,334.9c1.2-23.3,3.8-35.6,3.9-35.7l0.1-1c0-5.4,1.7-11.2,5.1-17.1c3.3-5.7,8.6-9.9,14.7-12.1l22.9-8.2
			l26.3,48.8h20.6l26.3-48.8l22.9,8.1c1.5,0.6,3.1,1.3,4.5,2c4.1,2.3,7.5,5.6,9.8,9.6l0.3,0.5c2.7,4.5,4.4,9.5,5.1,14.7
			c0,0.2,0.1,0.6,0.2,1.4c1.5,10.7,2.8,23.4,3.7,37.7L172.8,334.9L172.8,334.9z M347,311.8c-0.6-5.8-1.2-11.2-1.9-16.1l-0.1-0.9
			c-0.8-6.5-2.9-12.9-6.3-18.6l-0.3-0.5c-3.3-5.6-8-10.2-13.6-13.4c-0.1,0-0.2-0.1-0.3-0.1l7-13.5l19.3,6.9c1.4,0.5,2.6,1.1,3.8,1.8
			c3.4,1.9,6.3,4.7,8.3,8l0.3,0.5c2.3,3.8,3.8,8,4.3,12.5c0,0.2,0.1,0.5,0.2,1.2c1.3,9.1,2.4,19.9,3.2,32.1H347V311.8z"/>
	</g>
</g>
</svg>
