<?xml version="1.0" encoding="utf-8"?>
<!-- Generator: Adobe Illustrator 25.0.1, SVG Export Plug-In . SVG Version: 6.00 Build 0)  -->
<svg version="1.1" fill="#8052FD" id="Capa_1" xmlns="http://www.w3.org/2000/svg" xmlns:xlink="http://www.w3.org/1999/xlink" x="0px" y="0px"
	 viewBox="0 0 512 512" style="enable-background:new 0 0 512 512;" xml:space="preserve">
<g>
	<g>
		<path d="M406.9,84H105.1c-3.3,0-6,2.7-6,6v90.5c0,3.3,2.7,6,6,6h301.8c3.3,0,6-2.7,6-6V90
			C412.9,86.7,410.2,84,406.9,84z M400.8,174.5H111.2V96.1h289.7L400.8,174.5L400.8,174.5z"/>
	</g>
</g>
<g>
	<g>
		<path d="M213.8,84H105.1c-3.3,0-6,2.7-6,6v90.5c0,3.3,2.7,6,6,6h108.6c3.3,0,6-2.7,6-6V90
			C219.8,86.7,217.1,84,213.8,84z M207.7,174.5h-96.6V96.1h96.6V174.5z"/>
	</g>
</g>
<g>
	<g>
		<path d="M151.6,152.2L133.5,134c-2.4-2.4-6.2-2.4-8.5,0c-2.4,2.4-2.4,6.2,0,8.5l18.1,18.1c1.2,1.2,2.7,1.8,4.3,1.8
			c1.5,0,3.1-0.6,4.3-1.8C154,158.3,154,154.5,151.6,152.2z"/>
	</g>
</g>
<g>
	<g>
		<path d="M193.9,109.9c-2.4-2.4-6.2-2.4-8.5,0l-42.2,42.2c-2.4,2.4-2.4,6.2,0,8.5c1.2,1.2,2.7,1.8,4.3,1.8
			c1.5,0,3.1-0.6,4.3-1.8l42.2-42.2C196.2,116.1,196.2,112.3,193.9,109.9z"/>
	</g>
</g>
<g>
	<g>
		<path d="M340.5,114.2H237.9c-3.3,0-6,2.7-6,6c0,3.3,2.7,6,6,6h102.6c3.3,0,6-2.7,6-6
			C346.5,116.9,343.8,114.2,340.5,114.2z"/>
	</g>
</g>
<g>
	<g>
		<path d="M382.7,114.2h-18.1c-3.3,0-6,2.7-6,6c0,3.3,2.7,6,6,6h18.1c3.3,0,6-2.7,6-6
			C388.8,116.9,386.1,114.2,382.7,114.2z"/>
	</g>
</g>
<g>
	<g>
		<path d="M382.7,144.4H280.1c-3.3,0-6,2.7-6,6c0,3.3,2.7,6,6,6h102.6c3.3,0,6-2.7,6-6
			C388.8,147.1,386.1,144.4,382.7,144.4z"/>
	</g>
</g>
<g>
	<g>
		<path d="M256,144.4h-18.1c-3.3,0-6,2.7-6,6c0,3.3,2.7,6,6,6H256c3.3,0,6-2.7,6-6C262,147.1,259.3,144.4,256,144.4z"/>
	</g>
</g>
<g>
	<g>
		<path d="M406.9,204.7H105.1c-3.3,0-6,2.7-6,6v90.5c0,3.3,2.7,6,6,6h301.8c3.3,0,6-2.7,6-6v-90.5
			C412.9,207.4,410.2,204.7,406.9,204.7z M400.8,295.2H111.2v-78.5h289.7L400.8,295.2L400.8,295.2z"/>
	</g>
</g>
<g>
	<g>
		<path d="M213.8,204.7H105.1c-3.3,0-6,2.7-6,6v90.5c0,3.3,2.7,6,6,6h108.6c3.3,0,6-2.7,6-6v-90.5
			C219.8,207.4,217.1,204.7,213.8,204.7z M207.7,295.2h-96.6v-78.5h96.6V295.2z"/>
	</g>
</g>
<g>
	<g>
		<path d="M151.6,272.9l-18.1-18.1c-2.4-2.4-6.2-2.4-8.5,0c-2.4,2.4-2.4,6.2,0,8.5l18.1,18.1c1.2,1.2,2.7,1.8,4.3,1.8
			c1.5,0,3.1-0.6,4.3-1.8C154,279,154,275.2,151.6,272.9z"/>
	</g>
</g>
<g>
	<g>
		<path d="M193.9,230.6c-2.4-2.4-6.2-2.4-8.5,0l-42.2,42.2c-2.4,2.4-2.4,6.2,0,8.5c1.2,1.2,2.7,1.8,4.3,1.8
			c1.5,0,3.1-0.6,4.3-1.8l42.2-42.2C196.2,236.8,196.2,233,193.9,230.6z"/>
	</g>
</g>
<g>
	<g>
		<path d="M340.5,234.9H237.9c-3.3,0-6,2.7-6,6c0,3.3,2.7,6,6,6h102.6c3.3,0,6-2.7,6-6
			C346.5,237.6,343.8,234.9,340.5,234.9z"/>
	</g>
</g>
<g>
	<g>
		<path d="M382.7,234.9h-18.1c-3.3,0-6,2.7-6,6c0,3.3,2.7,6,6,6h18.1c3.3,0,6-2.7,6-6
			C388.8,237.6,386.1,234.9,382.7,234.9z"/>
	</g>
</g>
<g>
	<g>
		<path d="M382.7,265.1H280.1c-3.3,0-6,2.7-6,6c0,3.3,2.7,6,6,6h102.6c3.3,0,6-2.7,6-6
			C388.8,267.8,386.1,265.1,382.7,265.1z"/>
	</g>
</g>
<g>
	<g>
		<path d="M256,265.1h-18.1c-3.3,0-6,2.7-6,6c0,3.3,2.7,6,6,6H256c3.3,0,6-2.7,6-6C262,267.8,259.3,265.1,256,265.1z"/>
	</g>
</g>
<g>
	<g>
		<path d="M406.9,325.4H105.1c-3.3,0-6,2.7-6,6V422c0,3.3,2.7,6,6,6h301.8c3.3,0,6-2.7,6-6v-90.5
			C412.9,328.1,410.2,325.4,406.9,325.4z M400.8,415.9H111.2v-78.5h289.7L400.8,415.9L400.8,415.9z"/>
	</g>
</g>
<g>
	<g>
		<path d="M213.8,325.4H105.1c-3.3,0-6,2.7-6,6V422c0,3.3,2.7,6,6,6h108.6c3.3,0,6-2.7,6-6v-90.5
			C219.8,328.1,217.1,325.4,213.8,325.4z M207.7,415.9h-96.6v-78.5h96.6V415.9z"/>
	</g>
</g>
<g>
	<g>
		<path d="M151.6,393.6l-18.1-18.1c-2.4-2.4-6.2-2.4-8.5,0c-2.4,2.4-2.4,6.2,0,8.5l18.1,18.1c1.2,1.2,2.7,1.8,4.3,1.8
			c1.5,0,3.1-0.6,4.3-1.8C154,399.7,154,395.9,151.6,393.6z"/>
	</g>
</g>
<g>
	<g>
		<path d="M193.9,351.3c-2.4-2.4-6.2-2.4-8.5,0l-42.2,42.2c-2.4,2.4-2.4,6.2,0,8.5c1.2,1.2,2.7,1.8,4.3,1.8
			c1.5,0,3.1-0.6,4.3-1.8l42.2-42.2C196.2,357.5,196.2,353.7,193.9,351.3z"/>
	</g>
</g>
<g>
	<g>
		<path d="M340.5,355.6H237.9c-3.3,0-6,2.7-6,6c0,3.3,2.7,6,6,6h102.6c3.3,0,6-2.7,6-6
			C346.5,358.3,343.8,355.6,340.5,355.6z"/>
	</g>
</g>
<g>
	<g>
		<path d="M382.7,355.6h-18.1c-3.3,0-6,2.7-6,6c0,3.3,2.7,6,6,6h18.1c3.3,0,6-2.7,6-6
			C388.8,358.3,386.1,355.6,382.7,355.6z"/>
	</g>
</g>
<g>
	<g>
		<path d="M382.7,385.8H280.1c-3.3,0-6,2.7-6,6c0,3.3,2.7,6,6,6h102.6c3.3,0,6-2.7,6-6S386.1,385.8,382.7,385.8z"/>
	</g>
</g>
<g>
	<g>
		<path d="M256,385.8h-18.1c-3.3,0-6,2.7-6,6c0,3.3,2.7,6,6,6H256c3.3,0,6-2.7,6-6S259.3,385.8,256,385.8z"/>
	</g>
</g>
</svg>
