<?xml version="1.0" encoding="utf-8"?>
<!-- Generator: Adobe Illustrator 25.0.1, SVG Export Plug-In . SVG Version: 6.00 Build 0)  -->
<svg version="1.1" fill="#8052FD" id="Layer_1" xmlns="http://www.w3.org/2000/svg" xmlns:xlink="http://www.w3.org/1999/xlink" x="0px" y="0px"
	 viewBox="0 0 504 503.6" style="enable-background:new 0 0 504 503.6;" xml:space="preserve">

	
	


<g id="Page-1">
	<g id="_006---Confusion">
		<path id="Shape" d="M85.5,291.5c1.9,1.3,3.9,2.5,5.9,3.4c2.5,1.3,6.6,3.4,6.9,4.9c0.3,2,0.1,4-0.7,5.8
			s-1.8,3.4-2.5,4.8c-2.1,3.7-5.6,9.9-0.3,14.3c1.2,1.2,3.3,2.8,5.3,4.3c-1.4,2.5-2.1,5.5-1.8,8.3c0.3,2.3,1.6,4.3,3.4,5.7
			c1.3,0.9,2.6,1.7,4,2.5c3.4,1.9,4.7,2.8,5.1,4.6c0.3,2.3,0.1,4.6-0.5,6.9c-0.3,1.5-0.7,3.1-0.9,4.6c-0.5,5.3,0.1,10.5,1.8,15.5
			c2.6,9.1,10.8,15.5,20.3,15.7c1.6,0,3.1-0.2,4.7-0.5c16.4-3.9,32.5-8.8,48.4-14.5c12.9,7.6,21.1,30.6,23.2,39.3
			c0.6,2.5,2.9,4.4,5.5,4.4l144-0.4c3.1,0,5.7-2.6,5.7-5.7c0-0.6-0.1-1.2-0.3-1.7c-1.4-3.9-3.3-7.6-5.8-10.9c-1.4-2-2.6-4-3.7-6.2
			c-2.6-5.3-4.8-10.7-6.5-16.3c-3.3-11.1-5.5-22.4-6.8-34c-0.1-1.3-0.3-3.2-0.4-5.2c0.4,0,0.8,0.1,1.2,0.1c12.6,0,23-10.3,23-22.9
			c0-12.6-10.3-23-22.9-23s-23,10.3-23,22.9c0,7.6,3.8,14.8,10,19c0.1,3.8,0.3,7.8,0.7,10.5c1.3,12.2,3.8,24.3,7.2,36
			c1.9,6.2,4.2,12.2,7.1,18c1.3,2.6,2.8,5.1,4.4,7.5l0.4,0.5l-130.2,0.3c-3.8-13.6-10.7-26.2-20.2-36.6l5.2-1.8
			c3.8-1.4,6.8-2.3,8.2-2.8c24.6-7.8,36.8-19,36.5-33.3c0-3.1-2.5-5.7-5.7-5.7c-3.1,0-5.7,2.5-5.7,5.7c0,0.1,0,0.2,0,0.3
			c0.1,5.9-4.7,14.5-28.6,22.1c-1.6,0.5-4.6,1.6-8.5,2.9c-4.2,1.5-9.7,3.4-15.7,5.4h-0.1c-16.1,5.9-32.6,10.9-49.4,14.9
			c-5.3,1-10.5-2.3-11.8-7.7c-1.2-3.3-1.7-6.8-1.4-10.3c0.1-1.2,0.4-2.4,0.7-3.6c1.2-4,1.4-8.1,0.5-12.2c-1.6-5.3-5.5-9.5-10.6-11.7
			l-1.2-0.7c0.6-1.2,1.4-2.5,2.2-3.6c2-2.5,1.6-6.1-0.9-8.1c-0.1-0.1-0.1-0.1-0.2-0.1c-1.4-1-4.6-3.4-7-5.3c0.3-0.5,0.5-1,0.9-1.6
			c0.9-1.6,1.9-3.4,2.9-5.5c1.8-4,2.3-8.5,1.5-12.9c-1.4-7-8.1-10.5-13-12.9c-1.6-0.8-3.2-1.7-4.7-2.7c-1.2-0.8-2.4-1.8-3.4-2.8
			c0-0.9,1-3,5.3-8.3c10.3-13.2,19.1-27.5,26.3-42.7c1.4-2.4,2.1-5.1,2.2-7.7c-0.6-5.7-3.6-11-8.4-14.4c-2.3-2.1-4.5-4.2-4.8-6
			c0.1-1.4,0.3-2.7,0.9-3.9c1-2.5,2.1-4.9,3.1-7.3c2.3-4.9,4.2-9.9,5.6-15.1l0.5-2.5c1.2-5.7,2.8-11.4,4.6-17
			c4.5-12.5,11.6-23.9,20.6-33.6c11-11.6,28.2-19.8,51.4-24.4c17.7-3.9,35.8-6.5,53.9-7.8c14.2-0.5,28.3,1.4,41.9,5.3
			c-12.9,9.9-22.4,23.5-27.3,39c-3.9,12,2.7,25,14.8,28.9c12,3.9,25-2.7,28.9-14.8c5.7-18.2,25-28.3,43.1-22.6
			c18.2,5.7,28.3,25,22.6,43.1c-4.5,14.5-18,24.3-33.2,24.2c-6,0-11.8,2.3-16.2,6.4c-4.1,4-6.4,9.6-6.4,15.3v47.1
			c0,12.6,10.3,23,23,23c12.6,0,23-10.3,23-23v-26.3c42.5-12.5,66.9-57.2,54.4-99.7c-12.5-42.7-57.2-67.1-99.7-54.6
			c-4.9,1.4-9.6,3.3-14.2,5.7c-17.7-6.4-36.4-9.4-55.2-8.8c-18.7,1.3-37.2,4-55.5,8c-25.9,5.1-44.6,14.2-57.5,27.8
			c-10.1,10.8-18,23.6-23,37.5c-2.1,6-3.8,12.1-5.1,18.3l-0.6,2.4c-1.2,4.5-2.9,8.9-4.9,13.1c-1.2,2.6-2.3,5.2-3.3,7.9
			c-1.3,3-1.8,6.3-1.5,9.6c1.2,5.1,4.1,9.7,8.3,12.9c2.8,2.6,4.6,4.4,4.6,5.9c-0.2,0.9-0.5,1.7-1,2.5c-6.9,14.5-15.3,28.2-25.1,40.8
			c-4.2,5.1-8.5,10.9-7.6,16.9C78.4,285.3,81.4,289.2,85.5,291.5z M341,306.5c6.4,0,11.5,5.1,11.5,11.5s-5.1,11.5-11.5,11.5
			c-6.4,0-11.5-5.1-11.5-11.5C329.5,311.6,334.6,306.5,341,306.5L341,306.5z M348.8,88.8c37.8,4.3,64.9,38.4,60.6,76.2
			c-3.3,28.9-24.3,52.5-52.6,59.2c-2.6,0.6-4.4,2.9-4.4,5.6v30.7c0.1,6.4-4.9,11.6-11.2,11.8c-6.4,0.1-11.6-4.9-11.8-11.2
			c0-0.2,0-0.3,0-0.5v-47.1c0-2.7,1.1-5.3,3-7.1c2.3-2.1,5.3-3.3,8.3-3.1h0.2c23,0.2,42.5-16.7,45.5-39.6
			c3.4-25.2-14.2-48.3-39.4-51.7c-22.2-3-43.2,10.4-50,31.7c-1.9,6-8.4,9.3-14.4,7.4c-2.3-0.8-4.3-2.2-5.7-4.1
			c-2.3-3-2.9-7-1.7-10.5C285.5,105.1,316.2,85.2,348.8,88.8z"/>
		<path id="Shape-2" d="M141.1,179l0.5-2.5c1-4.8,2.3-9.5,3.8-14.1c3.4-9.6,8.8-18.4,15.7-25.8c7.5-7,16.5-12,26.5-14.5
			c3-0.9,4.8-4.1,3.9-7.1c-0.9-3-4.1-4.8-7.1-3.9c-0.1,0-0.1,0-0.1,0c-11.8,3.1-22.6,9.2-31.4,17.6c-7.9,8.5-14.1,18.7-18,29.7
			c-1.7,5.1-3.1,10.3-4.2,15.5l-0.5,2.5c-0.7,3.1,1.2,6.2,4.3,6.9c0.4,0.1,0.9,0.1,1.3,0.1C138.2,183.5,140.5,181.6,141.1,179z"/>
		<circle id="Oval" cx="128.7" cy="197.4" r="5.7"/>
	</g>
</g>
</svg>
