<?xml version="1.0" encoding="utf-8"?>
<!-- Generator: Adobe Illustrator 25.0.1, SVG Export Plug-In . SVG Version: 6.00 Build 0)  -->
<svg version="1.1" fill="#8052FD" id="Layer_1" xmlns="http://www.w3.org/2000/svg" xmlns:xlink="http://www.w3.org/1999/xlink" x="0px" y="0px"
	 viewBox="0 0 439.2 439.2" style="enable-background:new 0 0 439.2 439.2;" xml:space="preserve">

	
	


<path d="M371,202l-19-5.3c-0.6-3.1-4.7-17.2-5.5-20.3l-6.9,13.2c1.1,4,2,8,2.7,12.2c0.3,2.1,1.8,3.6,3.8,4.2l18.4,5.2
	l-0.1,23.4l-18.4,5.2c-2,0.5-3.5,2.2-3.8,4.2c-1.3,7.9-3.4,15.7-6.2,23.2c-0.7,1.9-0.3,4.1,1.2,5.5l13.5,13.9
	c-3.4,7-7.2,13.6-11.6,20l-18.7-4.8c-2-0.5-4.1,0.2-5.3,1.8c-5.2,6.2-10.8,11.9-17,17c-1.6,1.3-2.2,3.5-1.8,5.4l4.8,18.7
	c-6.4,4.3-13,8.3-20,11.6l-13.9-13.5c-1.5-1.5-3.6-1.9-5.5-1.2c-7.5,2.8-15.3,4.9-23.2,6.2c-2.1,0.3-3.6,1.8-4.2,3.8L229,370h-23.4
	l-5.2-18.4c-0.5-2-2.2-3.5-4.2-3.8c-7.9-1.3-15.7-3.4-23.2-6.2c-1.9-0.7-4.1-0.3-5.5,1.2l-13.9,13.5c-7-3.4-13.6-7.2-20-11.6
	l4.8-18.7c0.5-2-0.2-4.1-1.8-5.3c-6.2-5.2-11.9-10.8-17-17c-1.3-1.5-3.5-2.2-5.4-1.8l-18.7,4.8c-4.3-6.4-8.3-13-11.6-20l13.5-13.9
	c1.5-1.5,1.9-3.6,1.2-5.5c-2.8-7.5-4.9-15.3-6.2-23.2c-0.3-2.1-1.8-3.6-3.8-4.2l-18.2-5.2v-23.4l18.4-5.2c2-0.5,3.5-2.2,3.8-4.2
	c1.3-7.9,3.4-15.7,6.2-23.2c0.7-1.9,0.3-4.1-1.2-5.5l-13.5-13.9c3.4-7,7.2-13.6,11.6-20l18.7,4.8c2,0.5,4.1-0.2,5.3-1.8
	c5.2-6.2,10.8-11.9,17-17c1.6-1.3,2.2-3.5,1.8-5.4l-4.8-18.7c6.4-4.3,13-8.3,20-11.6l13.9,13.5c1.5,1.5,3.6,1.9,5.5,1.2
	c7.5-2.8,15.3-4.9,23.2-6.2c2.1-0.3,3.6-1.8,4.2-3.8l5.1-18.2H229l5.2,18.4c0.5,2,2.2,3.5,4.2,3.8c7.9,1.3,15.7,3.4,23.2,6.2
	c1.9,0.7,4.1,0.3,5.5-1.2L281,89.5c3.8,1.8,7.2,4.1,10.8,6.3l6.4-8.8c-5.2-3.2-10.7-6-16.3-8.6c-2-1-4.3-0.4-5.9,1l-14.1,13.7
	c-6.1-2.1-12.3-3.8-18.6-5l-5.4-19c-0.7-2.3-2.7-3.8-5.1-3.8h-31.3c-2.4,0-4.4,1.5-5.1,3.8l-5.3,19c-6.3,1.2-12.6,2.9-18.6,5
	l-14.1-13.7c-1.5-1.5-3.9-1.9-5.9-1c-9.9,4.4-19.3,9.9-28.1,16.2c-1.8,1.3-2.6,3.5-2.1,5.6l4.9,19.1c-4.9,4.2-9.4,8.8-13.6,13.6
	l-19-4.9c-2.1-0.5-4.3,0.3-5.6,2.1c-6.3,8.8-11.8,18.2-16.2,28.1c-0.9,2-0.4,4.3,1,5.9l13.7,14.1c-2.1,6.1-3.8,12.3-5,18.6l-19,5.3
	c-2.1,0.6-3.6,2.6-3.6,4.9v31.4c0,2.4,1.5,4.4,3.8,5.1l19,5.3c1.2,6.3,2.9,12.6,5,18.6L74,281.6c-1.5,1.5-1.9,3.9-1,5.9
	c4.4,9.9,9.9,19.3,16.2,28.1c1.3,1.8,3.5,2.6,5.6,2.1l19.1-4.9c4.2,4.9,8.8,9.4,13.6,13.6l-4.9,19c-0.5,2.1,0.3,4.3,2.1,5.6
	c8.8,6.3,18.2,11.8,28.1,16.2c2,0.9,4.3,0.4,5.9-1l14.1-13.7c6.1,2.1,12.3,3.8,18.6,5l5.3,19c0.7,2.3,2.7,3.8,5.1,3.8h31.4
	c2.4,0,4.4-1.5,5.1-3.8l5.3-19c6.3-1.2,12.6-2.9,18.6-5l14.1,13.7c1.5,1.5,3.9,1.9,5.9,1c9.9-4.4,19.3-9.9,28.1-16.2
	c1.8-1.3,2.6-3.5,2.1-5.6l-4.9-19.1c4.9-4.2,9.4-8.8,13.6-13.6l19.1,4.9c2.1,0.5,4.3-0.3,5.6-2.1c6.3-8.8,11.8-18.2,16.2-28.1
	c0.9-2,0.4-4.3-1-5.9l-13.7-14.1c2.1-6.1,3.8-12.3,5-18.6l19-5.3c2.3-0.7,3.8-2.7,3.8-5.1v-31.3C374.9,204.7,373.4,202.6,371,202z"
	/>
<polygon points="166.3,212.2 238.7,266.5 379,72.1 366,62.7 235.2,243.8 175.9,199.4 "/>
</svg>
