<?xml version="1.0" encoding="utf-8"?>
<!-- Generator: Adobe Illustrator 25.0.1, SVG Export Plug-In . SVG Version: 6.00 Build 0)  -->
<svg version="1.1" fill="#8052FD" id="Capa_1" xmlns="http://www.w3.org/2000/svg" xmlns:xlink="http://www.w3.org/1999/xlink" x="0px" y="0px"
	 viewBox="0 0 512 512" style="enable-background:new 0 0 512 512;" xml:space="preserve">

	
	


<g>
	<path d="M255.9,299.2c20.8,0,37.8-17,37.8-37.8c0-20.8-17-37.8-37.8-37.8s-37.8,17-37.8,37.8S235.1,299.2,255.9,299.2z
		 M255.9,234.4c14.9,0,27,12.1,27,27c0,14.9-12.1,27-27,27c-14.9,0-27-12.1-27-27C228.9,246.5,241,234.4,255.9,234.4z"/>
	<circle cx="255.9" cy="261.4" r="5.4"/>
	<path d="M94,94v208.5v55.4v44.6V418h12.7h61.1h47.1h82.3h47.1h61.1H418v-15.5v-44.6v-55.4V94H94z M295.7,104.8
		c-2.1,0.3-3.9,1.8-4.4,3.9l-4.3,16.1c-8.3-2-16.9-3.2-25.5-3.6v-16.5H295.7z M250.6,121.2c-8.7,0.3-17.3,1.5-25.7,3.5l-4.3-16
		c-0.6-2.1-2.4-3.6-4.4-3.9h34.4V121.2z M215.9,104.8c-0.6-0.1-1.2,0-1.9,0.1c-2.9,0.8-4.6,3.7-3.8,6.6l4.3,16.2
		c-8.2,2.7-16.1,6-23.7,10.1l-8.5-14.8c-1.5-2.6-4.8-3.5-7.4-2c-2.6,1.5-3.5,4.8-2,7.4l8.6,14.9c-7.2,4.6-14,9.9-20.3,15.7
		L149,146.8c-2.1-2.1-5.5-2.1-7.6,0c-2.1,2.1-2.1,5.5,0,7.6l12.2,12.2c-5.9,6.3-11.2,13-15.9,20.2l-14.7-8.5c-2.6-1.5-5.9-0.6-7.4,2
		c-1.5,2.6-0.6,5.9,2,7.4l14.6,8.4c-3.5,6.5-6.5,13.3-9,20.4c-0.3,0.4-0.6,0.9-0.8,1.4c-0.1,0.4-0.1,0.7-0.1,1.1
		c-1.3,4.1-2.5,8.2-3.5,12.4c-0.6,2.9,1.2,5.8,4.1,6.4c2.9,0.7,5.8-1.2,6.4-4.1c0.6-2.5,1.3-4.9,2-7.3l71.6,23.3
		c0.6,0.2,1.1,0.3,1.7,0.3c2.3,0,4.4-1.5,5.1-3.7c0.9-2.8-0.6-5.9-3.5-6.8l-71.5-23.2c18.4-47.8,64.9-82.2,115.8-84.3v75.4
		c0,3,2.4,5.4,5.4,5.4c3,0,5.4-2.4,5.4-5.4v-75.3c51.3,2.5,97.8,36.9,115.9,84.2l-71.6,23.3c-2.8,0.9-4.4,4-3.5,6.8
		c0.7,2.3,2.9,3.7,5.1,3.7c0.6,0,1.1-0.1,1.7-0.3l71.7-23.3c0.7,2.5,1.4,5,2,7.5c0.5,2.5,2.8,4.3,5.3,4.3c0.4,0,0.8,0,1.1-0.1
		c2.9-0.6,4.8-3.5,4.1-6.4c-1-4.6-2.3-9-3.7-13.4c0-0.1,0-0.3,0-0.4c-0.1-0.2-0.2-0.3-0.3-0.5c-2.5-7.4-5.6-14.6-9.3-21.4l14.4-8.3
		c2.6-1.5,3.5-4.8,2-7.4c-1.5-2.6-4.8-3.5-7.4-2l-14.5,8.4c-4.7-7.2-10-14-15.9-20.2l12.1-12.1c2.1-2.1,2.1-5.5,0-7.6
		s-5.5-2.1-7.6,0L350.7,159c-6.3-5.8-13.2-11-20.4-15.6l8.6-14.9c1.5-2.6,0.6-5.9-2-7.4c-2.6-1.5-5.9-0.6-7.4,2l-8.6,14.8
		c-7.6-4.1-15.5-7.4-23.7-10.1l4.4-16.3c0.8-2.9-0.9-5.8-3.8-6.6c-0.7-0.2-1.3-0.2-2-0.1h111.3V301c-7.1-2.5-12.4-8.6-13.5-16.3
		l-2.7-17.9h-33.4l-4,20.7c-1.3,6.9-5.9,12.5-12.4,15.2c-6.5,2.7-13.6,2-19.5-2l-17.5-11.8l-23.6,23.6l10.7,14.6
		c4.2,5.7,5.2,13.1,2.6,19.8c-2.6,6.6-8.3,11.4-15.3,12.7l-17.1,3.3v33.4l17.9,2.8c5.5,0.9,10.3,3.8,13.4,8.1h-73.4
		c3.2-4.3,7.9-7.3,13.4-8.1l17.9-2.8v-33.4l-17-3.3c-7-1.3-12.7-6.1-15.3-12.7c-2.6-6.6-1.6-14,2.6-19.8l10.7-14.6l-23.6-23.6
		l-17.5,11.8c-5.9,4-13,4.7-19.5,2c-6.5-2.7-11.1-8.2-12.4-15.2l-4-20.8h-33.4l-2.7,17.9c-1.2,7.7-6.5,13.8-13.5,16.3V104.8H215.9z
		 M110.8,407.2c-2.3-2.3-4.3-4.8-6-7.5v-38.9c6.8-11.4,19.1-18.3,32.4-18.3c20.8,0,37.8,17,37.8,37.8c0,10.2-4.1,19.9-11.4,27H110.8
		z M177.5,407.2c5.3-7.9,8.3-17.3,8.3-27c0-26.8-21.8-48.6-48.6-48.6c-12.2,0-23.6,4.6-32.4,12.5v-31.9
		c12.6-2.8,22.2-12.9,24.2-25.9l1.3-8.7h15.2l2.3,12c2,10.4,9.1,19.1,18.9,23.1c9.8,4.1,20.9,2.9,29.7-3l10.1-6.8l10.8,10.8
		l-5.2,7.1c-6.4,8.8-7.9,20-3.9,30.1c4,10.1,12.7,17.4,23.4,19.4l8.3,1.6V387l-8.7,1.3c-11,1.7-19.9,8.8-24.2,18.8L177.5,407.2
		L177.5,407.2z M280.9,388.4l-8.7-1.3v-15.2l8.3-1.6c10.7-2.1,19.4-9.3,23.4-19.4c4-10.1,2.5-21.4-3.9-30.1l-5.2-7.1l10.8-10.8
		l10.1,6.8c8.8,6,19.9,7.1,29.7,3c9.8-4.1,16.9-12.7,18.9-23.1l2.3-12h15.2l1.3,8.7c2,13.1,11.7,23.1,24.2,25.9v31.9
		c-8.8-7.9-20.2-12.5-32.4-12.5c-26.8,0-48.6,21.8-48.6,48.6c0,9.7,3,19.1,8.3,27h-29.4C300.9,397.1,291.9,390.1,280.9,388.4z
		 M348.4,407.2c-7.3-7.1-11.4-16.8-11.4-27c0-20.8,17-37.8,37.8-37.8c13.3,0,25.6,7,32.4,18.3v38.9c-1.7,2.7-3.7,5.3-6,7.5
		L348.4,407.2L348.4,407.2z"/>
</g>
</svg>
