<?xml version="1.0" encoding="utf-8"?>
<!-- Generator: Adobe Illustrator 25.0.1, SVG Export Plug-In . SVG Version: 6.00 Build 0)  -->
<svg version="1.1" fill="#8052FD" id="Layer_1" xmlns="http://www.w3.org/2000/svg" xmlns:xlink="http://www.w3.org/1999/xlink" x="0px" y="0px"
	 viewBox="0 0 512 512" style="enable-background:new 0 0 512 512;" xml:space="preserve">

	
	


<path d="M190.5,284.9l82.9,55.3l-1.3,4.7c-1.6,5.8-2.5,11.9-2.5,18c0,37.6,30.6,68.2,68.2,68.2s68.2-30.6,68.2-68.2
	s-30.6-68.2-68.2-68.2c-20.7,0.1-39.9,9.4-52.9,25.6l-3.9,4.9l-84.9-57v-10c-0.1-1.9-0.3-3.9-0.7-5.8l-0.7-4.1l83.8-61.6l4,5.5
	c22,30.4,64.7,37.3,95.2,15.2c30.4-22,37.3-64.7,15.2-95.2c-22-30.4-64.7-37.3-95.2-15.2c-17.9,13-28.5,33.9-28.2,56
	c0,4.6,0.5,9.3,1.3,13.8l0.8,4.2l-81.2,59.9l-3.7-6.7c-8.9-15.9-23.5-27.3-41-32.2c-17.5-4.9-36-2.7-51.8,6.3
	c-15.9,8.9-27.3,23.5-32.2,41c-4.9,17.5-2.7,36,6.3,51.8c8.9,15.9,23.5,27.3,41,32.2c17.5,4.9,36,2.7,51.8-6.3
	c10.9-6.1,19.8-15.1,25.9-25.9L190.5,284.9z M337.8,414.5c-28.5,0-51.7-23.2-51.7-51.7s23.2-51.7,51.7-51.7s51.7,23.2,51.7,51.7
	S366.3,414.5,337.8,414.5z M128.1,309.6c-28.5,0-51.7-23.2-51.7-51.7s23.2-51.7,51.7-51.7s51.7,23.2,51.7,51.7
	S156.6,309.6,128.1,309.6z M337.8,204.8c-28.5,0-51.7-23.2-51.7-51.7s23.2-51.7,51.7-51.7s51.7,23.2,51.7,51.7
	S366.3,204.8,337.8,204.8z"/>
</svg>
