<?xml version="1.0" encoding="utf-8"?>
<!-- Generator: Adobe Illustrator 25.0.1, SVG Export Plug-In . SVG Version: 6.00 Build 0)  -->
<svg version="1.1" fill="#8052FD" id="Layer_1" xmlns="http://www.w3.org/2000/svg" xmlns:xlink="http://www.w3.org/1999/xlink" x="0px" y="0px"
	 viewBox="0 0 491 490.9" style="enable-background:new 0 0 491 490.9;" xml:space="preserve">

	
	


<g id="Layer_2_2_">
	<g id="Layer_1-2_1_">
		<path d="M75.2,275.1c-5.2,9.2-4.9,18.7-0.4,27.9c4.6,9.6,12.9,14.5,23.4,14.6c25.7,0.3,51.4,0.2,77,0.1
			c4.1,0,5.3,1.1,4.3,5.2c-1.3,6-2.3,12-3.2,18c-1.6,10.6-4.3,21.2-2.4,32.1c2.8,16.8,9.5,32.4,16.5,47.7c1.3,2.9,4.3,5.5,7,7.3
			c7.2,4.8,15.4,6.1,23.8,5.2c16.3-1.8,24-10.6,23.6-26.8c-0.2-9.2-0.8-18.4-0.6-27.7c0.1-4.4,0.5-9.4,2.4-13.2
			c11.6-23,24.8-44.9,40.7-65.3c4-5.2,8.4-8.2,15.1-5.5c1.5,0.6,3.4,0.3,5.1,0.3c30.7,0,61.4,0,92.1,0c14.4,0,19.9-5.5,19.9-19.9
			c0-35.7,0-71.4,0-107.1c0-8.7,0.1-17.2,0-25.8c-0.2-9.4-6.2-16.2-14.8-16.2c-30.4-0.1-60.8-0.1-91.2,0c-7.9,0-13.1,5.1-14.2,12.9
			c-0.3,1.8-0.5,3.6-0.9,6.7c-3.3-1.4-6.2-2.3-8.8-3.8c-6.5-3.8-14-5.8-21.5-5.8c-43.2,0-86.5-0.2-129.7,0.2
			c-8.9,0.1-18.4,1.3-26.6,4.5c-15.3,5.8-22.7,23-19,40.7c0.9,4,0.5,7.2-1.8,10.6c-5.9,8.7-8.2,18.4-4.9,28.6c1.3,4,0.7,7-1.6,10.5
			c-6.2,9.2-8.1,19.1-4.8,29.9c0.6,2.2-0.1,5.1-0.9,7.5C78,271,76.4,273,75.2,275.1z M316.8,140.1h88.1v5c0,0.3,0,0.6,0,0.9v6.2
			v116.2v6.4c0,0.3,0,0.6,0,0.9v5h-88.1V140.1z M86.6,284.5L86.6,284.5c0.2-0.9,0.4-1.8,0.7-2.8l0,0l0,0c0.3-0.9,0.6-1.8,1.1-2.7
			l0,0l0,0l0,0c0.6-1.3,1.3-2.5,2.1-3.6l0.1-0.2c0.2-0.3,0.4-0.6,0.6-0.8c0.1-0.1,0.1-0.1,0.2-0.2c0.2-0.3,0.4-0.6,0.7-0.8l0.1-0.1
			c0.3-0.3,0.6-0.6,0.9-0.9l0,0c0.3-0.3,0.6-0.6,0.9-0.8l0.3-0.2l0.7-0.6l0.4-0.3c0.2-0.1,0.5-0.4,0.7-0.5l0.3-0.2
			c0.4-0.2,0.7-0.4,1.1-0.6l0,0l0.4-0.2c0.8-0.4,9.7-4.5,9.7-4.5l-7.2-3.9c-0.4-0.2-0.7-0.4-1.1-0.7l-0.3-0.2
			c-0.2-0.1-0.5-0.4-0.7-0.6l-0.3-0.2c-0.2-0.2-0.5-0.4-0.7-0.6L97,258c-0.3-0.3-0.6-0.6-0.8-0.9l0,0c-0.6-0.6-1-1.3-1.4-2l-0.1-0.1
			c-0.1-0.3-0.4-0.6-0.5-1l-0.1-0.1c-0.1-0.4-0.3-0.7-0.4-1.1l0,0c-0.1-0.2-0.1-0.4-0.2-0.7l0,0l-0.1-0.1l0,0
			c-0.1-0.2-0.1-0.4-0.1-0.7l0,0c0,0,0,0,0-0.1c-0.1-0.7-0.2-1.5-0.2-2.2l0,0c0-0.1,0-0.4,0-0.5l0,0c0-0.1,0-0.3,0-0.5l0,0v0
			c0-0.7,0.1-1.4,0.2-2.1c1.3-8.4,6.2-14.1,14-17.5c1.8-0.8,3.5-1.8,6.1-3.1c-2.1-1.3-3.3-2.2-4.5-2.9c-9.9-5.7-12.1-15.2-5-24.4
			c2.6-3.4,6.8-5.7,10.4-8.3c1.4-1.1,3.1-1.8,5-3.1c-2.1-1.6-3.6-2.6-5.1-3.8c-6-4.7-7.7-11.1-4.6-17.9c3.7-8.3,10.3-12.8,19.3-13.6
			c3.7-0.5,7.5-0.6,11.3-0.6c40.9,0,81.7,0.1,122.7-0.1c9.1,0,17.2,1.9,24.8,7c2.3,1.1,4.6,2,7,2.8c0.8,0.2,1.6,0.4,2.4,0.6l0.2,0.1
			l2.2,0.5c0.3,0.1,0.6,0.1,0.8,0.2c0.2,0.1,0.4,0.1,0.6,0.2c0.9,0.1,1.8,0.1,2.6,0.1v3.9c0,12.8,0,25.8,0,38.6
			c0,12.3,0,24.6-0.1,36.9l0,0v29.7c0,0-10.6,5.5-17.9,10.7l0,0c-0.9,0.6-1.7,1.3-2.6,2.1l-0.2,0.1c-0.9,0.7-1.6,1.4-2.4,2.1
			c-1.3,1.4-2.7,2.8-4,4.3c-0.4,0.5-0.9,1.1-1.3,1.6c-1.8,2.3-3.8,4.7-5.3,7.2c-11.8,19.1-23.6,38.2-35.2,57.3
			c-3.5,5.8-5.2,12.6-4.7,19.3c0.4,9.9,0.6,19.7,0.7,29.6c0.1,10.1-3.5,13.8-13.7,13.8c-7.8,0-14-2.3-16.7-10.7
			c-3.3-10.7-7.9-21.1-10.8-31.9c-3.4-12.6,0.1-25.2,2.1-37.7c1.8-11.6,3.8-23.1,5.9-35.4h-6.2c-28.8,0-57.6,0-86.5,0
			c-5.9,0-11.6-0.6-15.6-5.8c-0.8-1.1-1.5-2.3-2-3.5l0,0c0-0.1-0.1-0.1-0.1-0.1c-0.1-0.4-0.3-0.9-0.4-1.3v-0.1l0,0
			c-0.2-0.8-0.4-1.6-0.5-2.4l0,0c0-0.1,0-0.1,0-0.1c-0.1-0.4-0.1-0.9-0.1-1.3v-0.1l0,0C86.3,287.2,86.4,285.8,86.6,284.5L86.6,284.5
			z"/>
	</g>
</g>
</svg>
