<?xml version="1.0" encoding="utf-8"?>
<!-- Generator: Adobe Illustrator 25.0.1, SVG Export Plug-In . SVG Version: 6.00 Build 0)  -->
<svg version="1.1" fill="#8052FD" id="Capa_1" xmlns="http://www.w3.org/2000/svg" xmlns:xlink="http://www.w3.org/1999/xlink" x="0px" y="0px"
	 viewBox="0 0 512 512" style="enable-background:new 0 0 512 512;" xml:space="preserve">

	
	


<path d="M424.9,209.2c-2.7-8.2-9.7-14.1-18.3-15.3l-84-12.2c-4.3-0.6-8.1-3.3-10.1-7.3L275,98.2l0,0
	c-3.8-7.7-11.6-12.6-20.2-12.6c-8.7,0-16.4,4.8-20.2,12.6L197,174.4c-1.9,3.9-5.7,6.7-10.1,7.3l-84,12.2
	c-8.6,1.3-15.6,7.1-18.3,15.3c-2.7,8.2-0.5,17.1,5.7,23.2l60.8,59.2c3.1,3.1,4.6,7.5,3.8,11.8l-14.3,83.7c-1.5,8.5,2,17,8.9,22.1
	c7,5.1,16.1,5.8,23.8,1.7l75.1-39.5c3.9-2.1,8.5-2.1,12.4,0l4.5,2.4v-10.4l-0.3-0.1c-3.3-1.7-6.9-2.6-10.5-2.6
	c-3.6,0-7.2,0.9-10.5,2.6l-75.1,39.5c-4.6,2.4-9.9,2.1-14.1-1c-4.2-3.1-6.2-8-5.3-13.1l14.3-83.7c1.3-7.3-1.1-14.8-6.5-20
	l-60.8-59.2c-3.7-3.6-5-8.7-3.4-13.7c1.6-5,5.6-8.3,10.8-9.1l84-12.2c7.4-1.1,13.7-5.7,17-12.4l37.6-76.1c2.3-4.7,6.7-7.5,12-7.5
	c5.2,0,9.7,2.8,12,7.5l37.6,76.1c3.3,6.7,9.7,11.3,17,12.4l84,12.2c5.1,0.8,9.2,4.1,10.8,9.1c1.6,5,0.4,10.1-3.4,13.7l-60.8,59.2
	c-5.3,5.1-7.7,12.5-6.5,19.7h9.4l-0.2-1.3c-0.7-4.3,0.7-8.7,3.8-11.8l60.8-59.2C425.4,226.3,427.6,217.5,424.9,209.2z"/>
<g>
	<path d="M347.1,407.2h-4.8c-3.1,0-5.6-2.5-5.6-5.6v-68.8c0-3.1,2.5-5.6,5.6-5.6h4.8c3.1,0,5.6,2.5,5.6,5.6v68.8
		C352.7,404.7,350.2,407.2,347.1,407.2z"/>
	<path d="M304.8,369.6v-4.8c0-3.1,2.5-5.6,5.6-5.6h68.8c3.1,0,5.6,2.5,5.6,5.6v4.8c0,3.1-2.5,5.6-5.6,5.6h-68.9
		C307.3,375.2,304.8,372.7,304.8,369.6z"/>
	<path d="M384.6,434.3h-79.7c-22.4,0-40.5-18.2-40.5-40.5v-53.2c0-22.4,18.2-40.5,40.5-40.5h79.7
		c22.4,0,40.5,18.2,40.5,40.5v53.2C425.1,416.2,407,434.3,384.6,434.3z M304.9,309.4c-17.3,0-31.3,14.1-31.3,31.3v53.2
		c0,17.3,14.1,31.3,31.3,31.3h79.7c17.3,0,31.3-14.1,31.3-31.3v-53.2c0-17.3-14.1-31.3-31.3-31.3H304.9z"/>
</g>
</svg>
