<?xml version="1.0" encoding="utf-8"?>
<!-- Generator: Adobe Illustrator 25.0.1, SVG Export Plug-In . SVG Version: 6.00 Build 0)  -->
<svg version="1.1" fill="#8052FD" id="Layer_1" xmlns="http://www.w3.org/2000/svg" xmlns:xlink="http://www.w3.org/1999/xlink" x="0px" y="0px"
	 viewBox="0 0 512 512" style="enable-background:new 0 0 512 512;" xml:space="preserve">
<path d="M300.2,371.5v-42.8c0-4.2-3.4-7.6-7.6-7.6c-4.2,0-7.6,3.4-7.6,7.6v42.8c-11.6,3.3-20.1,14-20.1,26.6
	c0,15.2,12.4,27.6,27.6,27.6c15.2,0,27.6-12.4,27.6-27.6C320.3,385.4,311.8,374.8,300.2,371.5z M292.6,410.6
	c-6.9,0-12.5-5.6-12.5-12.5c0-6.9,5.6-12.5,12.5-12.5c6.9,0,12.5,5.6,12.5,12.5C305.2,405,299.5,410.6,292.6,410.6z"/>

<path d="M287.9,305.1l0.2,0.1c1.4,1,3,1.5,4.6,1.5c2.3,0,4.5-1,6-3c2.5-3.3,1.9-8.1-1.4-10.6l-0.2-0.1
	c-3.3-2.5-8.1-1.9-10.6,1.4C283.9,297.8,284.6,302.6,287.9,305.1z"/>
<path d="M287.7,178.4l0.2,0.1c1.4,1,3,1.5,4.6,1.5c2.3,0,4.5-1,6-3c2.5-3.3,1.9-8.1-1.4-10.6l-0.2-0.1
	c-3.3-2.5-8.1-1.9-10.6,1.4C283.7,171.1,284.4,175.9,287.7,178.4z"/>
<path d="M300.4,372.1v-42.7c0-4.2-3.4-7.6-7.6-7.6c-4.2,0-7.6,3.4-7.6,7.6v42.7c-11.6,3.3-20,14-20,26.6
	c0,15.3,12.4,27.6,27.6,27.6c15.3,0,27.6-12.4,27.6-27.6C320.5,386.1,312,375.4,300.4,372.1z M292.9,411.2
	c-6.9,0-12.5-5.7-12.5-12.5s5.7-12.5,12.5-12.5s12.5,5.7,12.5,12.5C305.4,405.6,299.7,411.2,292.9,411.2z"/>
<path d="M422.3,298.7c-12.6,0-23.3,8.5-26.6,20.1h-20.1v-66.6h7.9c4.2,0,7.6-3.4,7.6-7.6v-0.8
	c0-16.1,13.1-29.3,29.3-29.3h1.6c2.3,0,4.4-1.1,5.8-2.7c1.5-1.8,2-4,1.5-6.3c-7.4-36.7-25.9-69.7-53.5-95.4c-1.7-1.5-4-2.3-6.2-1.9
	c-2.3,0.3-4.3,1.6-5.4,3.6c-2.2,3.6-5.1,6.7-8.6,9.1c-0.1,0.1-0.2,0.1-0.2,0.2c-0.6,0.5-16.6,11.7-33.9-1c-0.4-0.2-0.6-0.4-1-0.6
	c-1-0.6-11.6-7.1-11.1-25.9c0.1-3.7,1.4-7.7,3.9-12c1.1-1.9,1.3-4.4,0.5-6.5c-0.8-2.1-2.5-3.8-4.7-4.4c-18-5.9-36.9-8.9-55.9-8.9
	c-17.6,0-35,2.6-51.8,7.6c-2.1,0.6-3.9,2.2-4.8,4.2c-0.9,2-0.8,4.4,0.2,6.4c6.9,13.7,1.8,30.6-11.6,38.3l-0.7,0.4
	c-13.7,7.9-31,3.6-39.4-9.8c-1.2-1.9-3.2-3.2-5.3-3.5c-2.2-0.3-4.4,0.3-6.1,1.9c-27.4,24.4-46.5,56-55.2,91.5
	c-0.6,2.2-0.1,4.4,1.2,6.2s3.3,2.9,5.6,3.1c15.1,1.1,27,14,27,29.2v7.5c0,4.2,3.4,7.6,7.6,7.6h14v66.6h-17.6
	c-3.3-11.6-14-20.1-26.6-20.1c-15.3-0.2-27.6,12.3-27.6,27.5c0,15.3,12.4,27.6,27.6,27.6c12.6,0,23.3-8.5,26.6-20.1h25
	c4.2,0,7.6-3.4,7.6-7.6V252h22.3v97.1l-20.7,24.5c-3.6-1.7-7.6-2.7-11.9-2.7c-15.3,0-27.6,12.4-27.6,27.6
	c0,15.3,12.4,27.6,27.6,27.6s27.6-12.4,27.6-27.6c0-5.5-1.6-10.7-4.4-15l22.7-26.7l0,0c0.1-0.2,0.2-0.2,0.3-0.4
	c0.1-0.1,0.1-0.2,0.2-0.2c0.1-0.2,0.2-0.2,0.2-0.4c0.1-0.1,0.1-0.2,0.2-0.2c0.1-0.2,0.2-0.2,0.2-0.4c0.1-0.1,0.1-0.2,0.2-0.3
	c0-0.1,0.1-0.2,0.1-0.2c0.1-0.2,0.2-0.3,0.2-0.5c0-0.1,0-0.2,0.1-0.2c0.1-0.2,0.1-0.3,0.2-0.6c0-0.1,0-0.2,0-0.2
	c0-0.2,0.1-0.3,0.1-0.6c0-0.1,0-0.2,0-0.2c0-0.2,0-0.3,0-0.5c0,0,0,0,0-0.1v-99.6H209v119.9c-11.6,3.3-20.1,14-20.1,26.6
	c0,15.3,12.4,27.6,27.6,27.6s27.6-12.4,27.6-27.6c0-12.6-8.5-23.3-20.1-26.6V252.2h61.3v18.2c0,4.2,3.4,7.6,7.6,7.6
	c4.2,0,7.6-3.4,7.6-7.6v-18.2h22.6v99.9c0,0,0,0,0,0.1c0,0.2,0,0.3,0,0.5c0,0.1,0,0.2,0,0.2c0,0.2,0.1,0.3,0.1,0.6
	c0,0.1,0,0.2,0,0.2c0,0.2,0.1,0.3,0.2,0.6c0,0.1,0,0.2,0.1,0.2c0.1,0.2,0.1,0.3,0.2,0.5c0,0.1,0.1,0.2,0.1,0.2s0.1,0.2,0.2,0.2
	c0.1,0.2,0.1,0.2,0.2,0.4c0,0.1,0.1,0.2,0.2,0.2c0.1,0.2,0.2,0.2,0.2,0.4c0.1,0.1,0.1,0.2,0.2,0.2c0.1,0.2,0.2,0.2,0.3,0.4l0,0
	l22.7,26.8c-2.8,4.3-4.4,9.5-4.4,15c0,15.3,12.4,27.6,27.6,27.6s27.6-12.4,27.6-27.6c0-15.3-12.4-27.6-27.6-27.6
	c-4.2,0-8.2,1-11.9,2.7l-20.7-24.5v-97.3h22.3v74.2c0,4.2,3.4,7.6,7.6,7.6c0.5,0,0.9-0.1,1.4-0.2c0.5,0.1,0.9,0.2,1.4,0.2h25
	c3.3,11.6,14,20.1,26.6,20.1c15.3,0,27.6-12.4,27.6-27.6C450,311.1,437.6,298.7,422.3,298.7z M89.7,338.8c-6.9,0-12.5-5.6-12.5-12.5
	c0-6.9,5.7-12.5,12.5-12.5s12.5,5.7,12.5,12.5C102.2,333.2,96.6,338.8,89.7,338.8z M138.5,411.2c-6.9,0-12.5-5.7-12.5-12.5
	s5.6-12.5,12.5-12.5c6.9,0,12.5,5.7,12.5,12.5C151,405.6,145.4,411.2,138.5,411.2z M228.9,398.7c0,6.9-5.7,12.5-12.5,12.5
	c-6.9,0-12.5-5.7-12.5-12.5s5.6-12.5,12.5-12.5C223.4,386.2,228.9,391.8,228.9,398.7z M383.3,398.7c0,6.9-5.7,12.5-12.5,12.5
	s-12.5-5.7-12.5-12.5s5.7-12.5,12.5-12.5C377.7,386.2,383.3,391.8,383.3,398.7z M95.1,194.5c7.9-26.7,22.5-50.9,42.6-70.5
	c13.8,14.5,36.1,18.2,54.2,7.8l0.7-0.4c17.5-10.1,25.7-30.7,20.8-49.6c12.9-3.2,26.3-4.8,39.7-4.8c14.6,0,29.1,1.9,43.2,5.7
	c-1.2,3.6-1.9,7.1-1.9,10.6c-0.7,26.4,15,37.3,18.6,39.4c20.9,15.1,42.6,7.3,51.3,0.8c2.7-1.9,5.2-4,7.4-6.2
	c19.9,20.5,33.9,45.5,41.1,73.1c-18.6,3.3-33.2,18.2-36.1,36.9h-38.2c-0.3-17.3-6-33.8-16.2-47.8c-2.5-3.4-7.2-4-10.6-1.6
	c-3.4,2.5-4.1,7.2-1.6,10.6c8.4,11.4,13,24.7,13.3,38.8h-137c0.5-17.9,7.8-34.7,20.7-47.3c2.7-2.7,5.7-5.1,8.8-7.3
	c11.5-8,25-12.2,39-12.2c3.2,0,6.5,0.2,9.8,0.7c4.1,0.6,8-2.3,8.6-6.4s-2.3-8-6.4-8.6c-4-0.6-7.9-0.9-11.9-0.9
	c-17.1,0-33.6,5.2-47.6,14.9c-3.8,2.7-7.4,5.6-10.7,8.8c-15.8,15.4-24.8,36-25.2,58.1h-44C127.2,217,113.7,199.8,95.1,194.5z
	 M422.3,338.8c-6.9,0-12.5-5.6-12.5-12.5c0-6.9,5.7-12.5,12.5-12.5s12.5,5.7,12.5,12.5C434.8,333.2,429.2,338.8,422.3,338.8z"/>
<path d="M288.1,305.8l0.2,0.2c1.4,1.1,3,1.5,4.6,1.5c2.3,0,4.5-1.1,6.1-3c2.5-3.3,1.9-8.1-1.5-10.6l-0.2-0.2
	c-3.3-2.5-8.1-1.9-10.6,1.5C284.1,298.5,284.8,303.2,288.1,305.8z"/>
<path d="M287.8,179.1l0.2,0.2c1.4,1.1,3,1.5,4.6,1.5c2.3,0,4.5-1.1,6.1-3c2.5-3.3,1.9-8.1-1.5-10.6l-0.2-0.2
	c-3.3-2.5-8.1-1.9-10.6,1.5C283.9,171.8,284.5,176.5,287.8,179.1z"/>
</svg>
