<?xml version="1.0" encoding="UTF-8"?><svg fill="#8052fd" id="AI-1" xmlns="http://www.w3.org/2000/svg" viewBox="0 0 198 198"><path d="M66.15,93.84c-7.24,0-14.47-2.75-19.98-8.26-.09-.09-.17-.18-.24-.28-6.11-6.27-8.98-14.93-7.73-23.67,.35-2.48,2.05-4.51,4.43-5.3,2.39-.8,4.98-.19,6.76,1.59l6.1,6.1c2.5,2.5,6.58,2.5,9.08,0,1.21-1.21,1.87-2.82,1.87-4.54s-.66-3.33-1.87-4.54h0l-6.1-6.1c-1.78-1.78-2.39-4.36-1.59-6.75,.8-2.38,2.84-4.09,5.32-4.44,8.89-1.26,17.61,1.65,23.94,7.97h0c11.02,11.02,11.02,28.95,0,39.96-5.51,5.51-12.75,8.26-19.98,8.26Zm-15.08-9.89c9.32,7.67,23.17,7.15,31.88-1.56,8.75-8.75,9.23-22.67,1.47-31.99-.02-.02-.04-.05-.07-.07l-1.44-1.57c-5.32-5.29-12.64-7.72-20.09-6.67-.8,.11-1.43,.64-1.69,1.41-.26,.77-.07,1.57,.5,2.14l6.1,6.1c2.06,2.06,3.19,4.8,3.19,7.72s-1.13,5.67-3.19,7.72c-4.26,4.25-11.18,4.26-15.44,0l-6.1-6.1c-.57-.57-1.38-.76-2.15-.5-.37,.12-1.24,.53-1.4,1.67-1.09,7.64,1.57,15.22,7.14,20.53l1.09,.98c.06,.06,.12,.12,.18,.18Z" /><g><path d="M60.48,160.64c-.14,0-.28,0-.42,0-4.84-.1-9.39-1.93-12.48-5.02-6.03-6.03-7.31-18.24,0-25.56l23.68-23.68c4.99-4.99,13.11-4.99,18.1,0l7.46,7.46c2.41,2.41,3.74,5.62,3.74,9.05s-1.33,6.64-3.74,9.05l-23.68,23.68c-3.25,3.25-7.73,5.03-12.66,5.03Zm19.83-53.51c-2.12,0-4.25,.81-5.87,2.43h0l-23.68,23.68c-5.4,5.41-4.44,14.76,0,19.19,2.28,2.28,5.7,3.63,9.39,3.71,3.83,.07,7.33-1.24,9.8-3.71l23.68-23.68c1.56-1.56,2.42-3.64,2.42-5.87s-.86-4.31-2.42-5.87l-7.46-7.46c-1.62-1.62-3.74-2.43-5.87-2.43Zm-7.46,.83h0Z" /><path d="M95.22,117.68h0c-.6,0-1.17-.24-1.59-.66l-7.46-7.46c-.88-.88-.88-2.3,0-3.18l54.49-54.49c.25-.25,.55-.43,.88-.54l11.19-3.73c.81-.27,1.7-.06,2.3,.54s.81,1.49,.54,2.3l-3.73,11.19c-.11,.33-.3,.63-.54,.88l-54.49,54.49c-.42,.42-.99,.66-1.59,.66Zm-4.28-9.71l4.28,4.28,52.53-52.53,2.14-6.41-6.41,2.14-52.53,52.53Z" /></g><g><path d="M88.9,109.08c-.58,0-1.15-.22-1.59-.66l-15.73-15.73c-.88-.88-.88-2.3,0-3.18l.67-.67c.26-.26,.58-.45,.93-.56,3.73-1.15,7.01-3.13,9.76-5.88,2.75-2.75,4.73-6.04,5.88-9.76,.11-.35,.3-.67,.56-.93l.67-.67c.88-.88,2.3-.88,3.18,0l15.73,15.73c.88,.88,.88,2.3,0,3.18l-18.48,18.48c-.44,.44-1.01,.66-1.59,.66Zm-11.95-17.38l11.95,11.95,15.3-15.3-11.95-11.95c-1.42,3.42-3.5,6.56-6.12,9.18-2.62,2.62-5.75,4.71-9.18,6.12Z" /><path d="M144.79,159.55c-3.92,0-7.84-1.49-10.83-4.48l-39.19-39.19c-.42-.42-.66-.99-.66-1.59s.24-1.17,.66-1.59l18.48-18.48c.42-.42,.99-.66,1.59-.66h0c.6,0,1.17,.24,1.59,.66l39.19,39.19c5.97,5.97,5.97,15.69,0,21.66-2.99,2.99-6.91,4.48-10.83,4.48Zm-45.25-45.26l37.6,37.6c4.22,4.22,11.08,4.22,15.3,0,4.22-4.22,4.22-11.08,0-15.3h0l-37.6-37.6-15.3,15.3Z" /></g></svg>