<?xml version="1.0" encoding="utf-8"?>
<!-- Generator: Adobe Illustrator 25.0.1, SVG Export Plug-In . SVG Version: 6.00 Build 0)  -->
<svg version="1.1" fill="#8052FD" id="Capa_1" xmlns="http://www.w3.org/2000/svg" xmlns:xlink="http://www.w3.org/1999/xlink" x="0px" y="0px"
	 viewBox="0 0 512 512" style="enable-background:new 0 0 512 512;" xml:space="preserve">

	
	


<g>
	<g>
		<path d="M425.6,158.9c0-0.5,0-1.1-0.5-1.7v-0.5c-0.5-0.5-0.5-1.1-1.1-1.7l-56.3-56.3c-0.5-0.5-1.1-0.5-1.7-1.1h-0.5
			c-0.5,0-1.1-0.5-1.7-0.5l0,0H93.4c-3.4,0-5.6,2.3-5.6,5.6v261.7c0,3.4,2.3,5.6,5.6,5.6h22.5v-11.3H99v-16.9h16.9v-11.3H99V108.2
			h259v50.7c0,3.4,2.3,5.6,5.6,5.6h50.7v166h-22.5v11.3h22.5v16.9h-22.5V370h28.1c3.4,0,5.6-2.3,5.6-5.6V158.9H425.6z M369.3,153.3
			v-37.2l37.2,37.2C406.5,153.3,369.3,153.3,369.3,153.3z"/>
		<path d="M374.9,217.9c0-3.4-2.3-5.6-5.6-5.6h-45.1c-3.4,0-5.6,2.3-5.6,5.6v185.8h-16.9V285.5c0-3.4-2.3-5.6-5.6-5.6
			h-45.1c-3.4,0-5.6,2.3-5.6,5.6v118.2h-16.9v-61.9c0-3.4-2.3-5.6-5.6-5.6H178c-3.4,0-5.6,2.3-5.6,5.6v61.9h-28.4V201h-11.3v208.4
			c0,3.4,2.3,5.6,5.6,5.6h39.4h45.1H251h45.1h28.1h45.1h33.8v-11.3h-28.1V217.9z M363.7,223.5v16.9h-33.8v-16.9H363.7z M290.5,291.1
			V308h-33.8v-16.9H290.5z M217.2,347.4v16.9h-33.8v-16.9H217.2z M183.5,403.7v-28.1h33.8v28.1H183.5z M256.7,403.7v-84.5h33.8v84.4
			L256.7,403.7L256.7,403.7z M329.9,403.7v-152h33.8v152L329.9,403.7L329.9,403.7z"/>
		<rect x="115.9" y="125.1" width="33.8" height="11.3"/>
		<rect x="115.9" y="147.6" width="78.9" height="11.3"/>
		<path d="M176.7,298.9l125-125v19.7H313v-33.8c0-3.4-2.3-5.6-5.6-5.6h-33.8v11.3h20.3L168.3,291.1L176.7,298.9z"/>
	</g>
</g>
</svg>
