<?xml version="1.0" encoding="utf-8"?>
<!-- Generator: Adobe Illustrator 25.0.1, SVG Export Plug-In . SVG Version: 6.00 Build 0)  -->
<svg version="1.1" fill="#8052FD" id="Layer_1" xmlns="http://www.w3.org/2000/svg" xmlns:xlink="http://www.w3.org/1999/xlink" x="0px" y="0px"
	 viewBox="0 0 512 512" style="enable-background:new 0 0 512 512;" xml:space="preserve">
<path d="M429.7,313.9c-8.1,0-15.4,5.2-18.1,12.9h-8.9c-1.6,0-3.2-0.6-4.3-1.8l-43.2-43.2h35.9
	c16.9,0,32.9-7.4,43.8-20.3c11.3-13.3,16.2-30.9,13.3-48.1c-3.6-22.2-19.6-40.4-41.2-46.7c-7.7-2.2-15.7-2.9-23.7-2.1
	c1.5-7.5,1.8-15.2,0.7-22.8c-2.7-20.6-15.3-38.6-33.6-48.3c-18.3-9.8-40.3-10.1-58.9-0.8c-17.4-18.9-42-29.6-67.7-29.6
	c-49.3,0.4-89.9,38.9-93,88.1c0,0.1-0.1,0.1-0.2,0.1h-3.3c-17.7,0-34.6,7.3-46.6,20.3c-18,19.1-22.8,47.2-12.2,71.2
	c10.6,24,34.5,39.4,60.8,39h33.9l-25.7,25.7h-37.1c-3.1-8.9-12.2-14.2-21.5-12.6c-9.3,1.6-16,9.6-16,19c0,9.4,6.8,17.4,16,19
	c9.3,1.6,18.3-3.7,21.5-12.6h33.3v20.5c-8.9,3.1-14.2,12.2-12.6,21.5c1.6,9.3,9.6,16,19,16c9.4,0,17.4-6.8,19-16
	c1.6-9.3-3.7-18.3-12.6-21.5v-24.2l34.8-34.8h23.1v32.2c0,7.1,5.8,12.9,12.9,12.9h23.3c3.1,0,6.1-1.1,8.5-3.2l8.8-7.7
	c2.8-2.4,4.4-6,4.4-9.7v-24.4H337l28.9,28.9l-11.5,11.5l0,0.1c-2.6-1.3-5.4-1.9-8.3-1.9c-10.7,0-19.3,8.6-19.3,19.3
	c0,10.7,8.6,19.3,19.3,19.3c10.7,0,19.3-8.6,19.3-19.3c0-2.9-0.7-5.7-1.9-8.3l0.1,0l11.5-11.5l14.3,14.3c3.5,3.6,8.4,5.6,13.4,5.5
	h8.9c3.3,9.2,13,14.5,22.5,12.3c9.5-2.2,15.9-11.2,14.8-21C447.7,321.3,439.5,313.9,429.7,313.9z M82.4,320.4
	c-3.6,0-6.4-2.9-6.4-6.4c0-3.6,2.9-6.4,6.4-6.4c3.6,0,6.4,2.9,6.4,6.4C88.8,317.5,85.9,320.4,82.4,320.4z M140.3,365.4
	c-3.6,0-6.4-2.9-6.4-6.4c0-3.6,2.9-6.4,6.4-6.4c3.6,0,6.4,2.9,6.4,6.4C146.7,362.5,143.8,365.4,140.3,365.4z M76.1,220
	c-1-14.6,4.1-29,14.2-39.7c9.6-10.4,23.1-16.2,37.2-16.2h3.3c6.8,0,12.5-5.2,13-12c2.6-42.5,37.6-75.7,80.2-76.2
	c22.1,0,43.3,9.2,58.3,25.5c3.9,4.3,10.1,5.5,15.3,2.9c9.4-4.8,20.1-6.6,30.6-5c22.6,3.6,40.1,21.5,43.2,44.2
	c0.9,6.1,0.7,12.3-0.6,18.4c-0.9,4.2,0.3,8.6,3.3,11.7c2.9,3.1,7.1,4.5,11.2,4c6.1-0.8,12.3-0.4,18.2,1.4
	c16.7,5,29.2,19.1,32.1,36.4c2.2,13.5-1.6,27.3-10.4,37.7c-8.5,10-20.9,15.8-34,15.8H129.4C101.5,269.2,78.2,247.8,76.1,220z
	 M249.6,306.2l-8.9,7.7h-23.3v-32.2h32.2V306.2z M346.1,346.1c-3.6,0-6.4-2.9-6.4-6.4c0-3.6,2.9-6.4,6.4-6.4c3.6,0,6.4,2.9,6.4,6.4
	C352.5,343.2,349.6,346.1,346.1,346.1z M429.7,339.7c-3.6,0-6.4-2.9-6.4-6.4c0-3.6,2.9-6.4,6.4-6.4c3.6,0,6.4,2.9,6.4,6.4
	C436.1,336.8,433.2,339.7,429.7,339.7z"/>
<path d="M230.3,243.2h51.5c10.7,0,19.3-8.6,19.3-19.3v-38.6c0-8.1-5.2-15.4-12.9-18.1v-7.6c0-17.8-14.4-32.2-32.2-32.2
	c-17.8,0-32.2,14.4-32.2,32.2v7.6c-7.7,2.7-12.8,10-12.9,18.1v38.6C211,234.6,219.7,243.2,230.3,243.2z M236.7,159.6
	c0-10.7,8.6-19.3,19.3-19.3c10.7,0,19.3,8.6,19.3,19.3v6.4h-38.6V159.6z M223.9,185.3c0-3.6,2.9-6.4,6.4-6.4h51.5
	c3.6,0,6.4,2.9,6.4,6.4v38.6c0,3.6-2.9,6.4-6.4,6.4h-51.5c-3.6,0-6.4-2.9-6.4-6.4V185.3z"/>
<path d="M256,217.5c3.6,0,6.4-2.9,6.4-6.4v-12.9c0-3.6-2.9-6.4-6.4-6.4c-3.6,0-6.4,2.9-6.4,6.4V211
	C249.6,214.6,252.5,217.5,256,217.5z"/>
<path d="M256,346.1v51.5c0,7.1,5.8,12.9,12.9,12.9h23.3c3.1,0,6.1-1.1,8.5-3.2l8.8-7.7c2.8-2.4,4.4-6,4.4-9.7v-37.3
	c0-7.1-5.8-12.9-12.9-12.9h-38.6C258.9,339.7,256,342.6,256,346.1z M268.9,352.5h32.2v37.3l-8.9,7.7h-23.3V352.5z"/>
<path d="M185.3,436.2c0,7.1,5.8,12.9,12.9,12.9h23.3c3.1,0,6.1-1.2,8.5-3.2l8.8-7.7c2.8-2.4,4.4-6,4.4-9.7v-37.3
	c0-7.1-5.8-12.9-12.9-12.9h-32.2c-7.1,0-12.9,5.8-12.9,12.9V436.2z M198.1,391.1h32.2v37.3l-8.9,7.7h-23.3V391.1z"/>
<path d="M313.9,320.4v-12.9c0-3.6-2.9-6.4-6.4-6.4c-3.6,0-6.4,2.9-6.4,6.4v12.9c0,3.6,2.9,6.4,6.4,6.4
	C311,326.8,313.9,323.9,313.9,320.4z"/>
<path d="M288.2,320.4v-12.9c0-3.6-2.9-6.4-6.4-6.4c-3.6,0-6.4,2.9-6.4,6.4v12.9c0,3.6,2.9,6.4,6.4,6.4
	C285.3,326.8,288.2,323.9,288.2,320.4z"/>
<path d="M198.1,359v-12.9c0-3.6-2.9-6.4-6.4-6.4c-3.6,0-6.4,2.9-6.4,6.4V359c0,3.6,2.9,6.4,6.4,6.4
	C195.3,365.4,198.1,362.5,198.1,359z"/>
<path d="M223.9,359v-12.9c0-3.6-2.9-6.4-6.4-6.4c-3.6,0-6.4,2.9-6.4,6.4V359c0,3.6,2.9,6.4,6.4,6.4
	C221,365.4,223.9,362.5,223.9,359z"/>
</svg>
