<?xml version="1.0" encoding="utf-8"?>
<!-- Generator: Adobe Illustrator 25.0.1, SVG Export Plug-In . SVG Version: 6.00 Build 0)  -->
<svg version="1.1" fill="#8052FD" id="Capa_1" xmlns="http://www.w3.org/2000/svg" xmlns:xlink="http://www.w3.org/1999/xlink" x="0px" y="0px"
	 viewBox="0 0 512 512" style="enable-background:new 0 0 512 512;" xml:space="preserve">
<g>
	<path d="M156.4,134.1c-12.7,0-23,10.3-23,23s10.3,23,23,23s23-10.3,23-23S169.1,134.1,156.4,134.1z M156.4,169.8
		c-7,0-12.8-5.7-12.8-12.8c0-7,5.7-12.8,12.8-12.8s12.8,5.7,12.8,12.8C169.2,164.1,163.5,169.8,156.4,169.8z"/>
	<circle cx="358.1" cy="149.4" r="5.1"/>
	<circle cx="337.7" cy="149.4" r="5.1"/>
	<circle cx="368.3" cy="164.7" r="5.1"/>
	<circle cx="347.9" cy="164.7" r="5.1"/>
	<circle cx="317.3" cy="149.4" r="5.1"/>
	<circle cx="327.5" cy="164.7" r="5.1"/>
	<circle cx="296.8" cy="149.4" r="5.1"/>
	<circle cx="307.1" cy="164.7" r="5.1"/>
	<circle cx="276.4" cy="149.4" r="5.1"/>
	<circle cx="286.6" cy="164.7" r="5.1"/>
	<path d="M156.4,231.1c-12.7,0-23,10.3-23,23s10.3,23,23,23s23-10.3,23-23S169.1,231.1,156.4,231.1z M156.4,266.8
		c-7,0-12.8-5.7-12.8-12.8s5.7-12.8,12.8-12.8s12.8,5.7,12.8,12.8S163.5,266.8,156.4,266.8z"/>
	<path d="M156.4,328.1c-12.7,0-23,10.3-23,23s10.3,23,23,23s23-10.3,23-23S169.1,328.1,156.4,328.1z M156.4,363.9
		c-7,0-12.8-5.7-12.8-12.8s5.7-12.8,12.8-12.8s12.8,5.7,12.8,12.8S163.5,363.9,156.4,363.9z"/>
	<path d="M409.2,187.2V127c0-13-10.6-23.5-23.5-23.5H126.4c-13,0-23.5,10.6-23.5,23.5v60.2c0,7.5,3.6,14.1,9.1,18.4
		c-5.5,4.3-9.1,10.9-9.1,18.4v60.2c0,7.5,3.6,14.1,9.1,18.4c-5.5,4.3-9.1,10.9-9.1,18.4v60.2c0,13,10.6,23.5,23.5,23.5h142.3
		c13.7,2.5,28.7,3.8,43.5,3.8c44.3,0,91-11.5,96.5-33.5c0.3-0.7,0.5-1.5,0.5-2.3v-46v-1.9V323v-42.1V279v-1.9v-44v-1.9
		c0-0.8-0.2-1.5-0.5-2.1c-1.8-7.5-8.4-13.8-18.2-18.8C401.1,207.9,409.2,198.5,409.2,187.2z M113,284.2V224c0-7.3,6-13.3,13.3-13.3
		h106.5c-9.2,5-15.5,11.1-17.2,18.3c-0.3,0.7-0.5,1.4-0.5,2.1v1.9v44v1.9v1.9v16.6h-88.8C119,297.5,113,291.5,113,284.2z
		 M228.6,252.8c0.2,0.1,0.5,0.3,0.7,0.4c0.9,0.6,1.8,1.1,2.8,1.7c0.3,0.2,0.6,0.3,0.8,0.5c1.2,0.6,2.4,1.3,3.7,1.9
		c0.2,0.1,0.4,0.2,0.6,0.3c1.1,0.5,2.3,1,3.5,1.5c0.4,0.1,0.7,0.3,1.1,0.4c1.4,0.6,2.8,1.1,4.3,1.6c0.1,0,0.2,0.1,0.2,0.1
		c1.4,0.5,2.9,0.9,4.4,1.4c0.4,0.1,0.8,0.2,1.2,0.4c1.5,0.4,3,0.8,4.5,1.2c0.1,0,0.2,0.1,0.4,0.1c1.6,0.4,3.3,0.8,5,1.2
		c0.4,0.1,0.9,0.2,1.3,0.3c1.5,0.3,2.9,0.6,4.4,0.9c0.3,0.1,0.6,0.1,0.9,0.2c1.8,0.3,3.5,0.6,5.3,0.9c0.4,0.1,0.9,0.1,1.3,0.2
		c1.5,0.2,3,0.4,4.5,0.6c0.4,0.1,0.8,0.1,1.2,0.2c1.8,0.2,3.7,0.4,5.5,0.6c0.4,0,0.8,0.1,1.1,0.1c1.6,0.2,3.1,0.3,4.7,0.4
		c0.5,0,0.9,0.1,1.4,0.1c1.9,0.1,3.8,0.3,5.6,0.4c0.3,0,0.5,0,0.8,0c1.7,0.1,3.3,0.1,5,0.2c0.5,0,1,0,1.5,0c1.9,0,3.8,0.1,5.7,0.1
		c1.9,0,3.8,0,5.7-0.1c0.5,0,1,0,1.5,0c1.7,0,3.3-0.1,5-0.2c0.3,0,0.5,0,0.8,0c1.9-0.1,3.8-0.2,5.6-0.4c0.5,0,0.9-0.1,1.4-0.1
		c1.6-0.1,3.1-0.3,4.7-0.4c0.4,0,0.8-0.1,1.1-0.1c1.9-0.2,3.7-0.4,5.5-0.6c0.4-0.1,0.8-0.1,1.2-0.2c1.5-0.2,3-0.4,4.5-0.6
		c0.4-0.1,0.9-0.1,1.3-0.2c1.8-0.3,3.6-0.6,5.3-0.9c0.3-0.1,0.6-0.1,0.9-0.2c1.5-0.3,3-0.6,4.4-0.9c0.4-0.1,0.9-0.2,1.3-0.3
		c1.7-0.4,3.4-0.8,5-1.2c0.1,0,0.2-0.1,0.4-0.1c1.5-0.4,3-0.8,4.5-1.2c0.4-0.1,0.8-0.2,1.2-0.4c1.5-0.4,2.9-0.9,4.4-1.4
		c0.1,0,0.2-0.1,0.2-0.1c1.5-0.5,2.9-1.1,4.3-1.6c0.4-0.1,0.7-0.3,1.1-0.4c1.2-0.5,2.4-1,3.5-1.5c0.2-0.1,0.4-0.2,0.6-0.3
		c1.3-0.6,2.5-1.2,3.7-1.9c0.3-0.2,0.6-0.3,0.8-0.5c1-0.5,1.9-1.1,2.8-1.7c0.2-0.1,0.5-0.3,0.7-0.4c1.1-0.7,2.1-1.4,3-2.1
		c0.1,0,0.1-0.1,0.2-0.1v25.5c-0.1,0.6-0.2,1.2-0.1,1.8c0.1,0.4,0.1,0.7,0.1,1.1c0,0.6-0.2,1.1-0.3,1.7c-0.1,0.4-0.2,0.9-0.4,1.3
		c-0.2,0.4-0.4,0.8-0.6,1.2c-0.2,0.4-0.5,0.8-0.7,1.2c-0.4,0.5-0.8,1.1-1.3,1.6c-0.2,0.2-0.4,0.4-0.6,0.6
		c-10.8,10.5-42.7,19.9-82.8,19.9c-40.1,0-72-9.4-82.8-19.9c-0.2-0.2-0.4-0.4-0.6-0.7c-0.5-0.5-0.9-1-1.3-1.5
		c-0.3-0.4-0.5-0.8-0.8-1.2c-0.2-0.4-0.4-0.7-0.6-1.1c-0.2-0.5-0.3-0.9-0.4-1.4c-0.1-0.6-0.3-1.1-0.3-1.7c0-0.4,0-0.7,0.1-1.1
		c0.1-0.7,0-1.3-0.1-2v-25.3c0.1,0,0.1,0.1,0.2,0.1C226.5,251.4,227.5,252.1,228.6,252.8z M398.2,327.9c-0.2,0.4-0.4,0.8-0.6,1.2
		c-0.2,0.4-0.5,0.8-0.7,1.2c-0.4,0.5-0.8,1.1-1.3,1.6c-0.2,0.2-0.4,0.4-0.6,0.6c-10.8,10.5-42.7,19.9-82.8,19.9
		c-40.1,0-72-9.4-82.8-19.9c-0.2-0.2-0.4-0.4-0.6-0.7c-0.5-0.5-0.9-1-1.3-1.5c-0.3-0.4-0.5-0.8-0.8-1.2c-0.2-0.4-0.4-0.7-0.6-1.1
		c-0.2-0.5-0.3-0.9-0.4-1.4c-0.1-0.5-0.2-1-0.3-1.4v-0.6c0-0.2,0-0.5,0.1-0.7c0.1-0.4,0-0.9-0.1-1.3l0-25.1v-0.9
		c0.2,0.2,0.4,0.3,0.7,0.5c0.6,0.5,1.3,0.9,2,1.4c0.6,0.4,1.1,0.7,1.7,1.1c0.9,0.6,1.8,1.1,2.8,1.7c0,0,0,0,0,0
		c10.7,5.8,25.3,10,41.5,12.5c0.1,0,0.2,0,0.4,0.1c5.2,0.8,10.6,1.4,16,1.9c1.2,0.1,2.3,0.2,3.5,0.3c1.1,0.1,2.3,0.2,3.4,0.2
		c1.5,0.1,3.1,0.2,4.6,0.2c0.9,0,1.8,0.1,2.7,0.1c2.5,0.1,5,0.1,7.4,0.1c2.5,0,5,0,7.4-0.1c0.9,0,1.8-0.1,2.7-0.1
		c1.5-0.1,3.1-0.1,4.6-0.2c1.2-0.1,2.3-0.1,3.5-0.2c1.1-0.1,2.3-0.2,3.4-0.3c5.5-0.5,10.9-1.1,16.2-1.9c0.1,0,0.2,0,0.2,0
		c17.7-2.8,33.5-7.5,44.3-14.2c0.6-0.4,1.2-0.7,1.7-1.1c0.7-0.5,1.4-0.9,2-1.4c0.2-0.2,0.5-0.3,0.7-0.5V322
		c-0.1,0.6-0.2,1.2-0.1,1.8c0.1,0.4,0.1,0.7,0.1,1.1c0,0.6-0.2,1.1-0.3,1.7C398.6,327.1,398.4,327.5,398.2,327.9z M126.4,394.5
		c-7.3,0-13.3-6-13.3-13.3V321c0-7.3,6-13.3,13.3-13.3h88.8V323v1.9v1.9v46v5.1h1.5c0.1,0.2,0.2,0.4,0.3,0.6
		c0.2,0.4,0.4,0.8,0.6,1.1c0.4,0.8,0.9,1.5,1.4,2.2c0.5,0.7,1.1,1.5,1.7,2.2c0.3,0.4,0.6,0.7,1,1.1c2,2,4.3,3.9,7,5.7
		c0.1,0.1,0.2,0.1,0.3,0.2c2,1.3,4.1,2.5,6.4,3.6L126.4,394.5L126.4,394.5z M399,371.5c0,0.2-0.1,0.3-0.1,0.5
		c-2.1,12.7-37.4,26.4-86.7,26.4c-15.7,0-30-1.4-42.3-3.7l0,0c-25.4-4.8-39.4-12.9-43.4-19.8c0,0,0,0,0,0c-0.2-0.3-0.3-0.6-0.4-0.9
		c-0.3-0.6-0.5-1.3-0.6-1.9l0-29.4c0.2,0.1,0.4,0.3,0.6,0.4c0.6,0.5,1.3,0.9,2,1.4c0.6,0.4,1.1,0.7,1.7,1.1c0.9,0.6,1.8,1.1,2.8,1.7
		c0,0,0,0,0,0c10.7,5.8,25.3,10,41.5,12.5c0.1,0,0.2,0,0.4,0.1c5.2,0.8,10.6,1.4,16,1.9c1.2,0.1,2.3,0.2,3.5,0.3
		c1.1,0.1,2.3,0.2,3.4,0.2c1.5,0.1,3.1,0.2,4.6,0.2c0.9,0,1.8,0.1,2.7,0.1c2.5,0.1,5,0.1,7.4,0.1c2.5,0,5,0,7.4-0.1
		c0.9,0,1.8-0.1,2.7-0.1c1.5-0.1,3.1-0.1,4.6-0.2c1.2-0.1,2.3-0.1,3.5-0.2c1.1-0.1,2.3-0.2,3.4-0.3c5.5-0.5,10.9-1.1,16.2-1.9
		c0.1,0,0.2,0,0.2,0c17.7-2.8,33.5-7.5,44.3-14.2c0.6-0.4,1.2-0.7,1.7-1.1c0.7-0.5,1.4-0.9,2-1.4c0.2-0.2,0.5-0.3,0.7-0.5L399,371.5
		L399,371.5z M399,233c0,13-37.1,27.4-86.8,27.4c-49.7,0-86.8-14.5-86.8-27.4c0-0.7,0.2-1.3,0.3-2c0.2-0.7,0.5-1.3,0.9-2
		c0,0,0-0.1,0-0.1c1.7-2.8,5.1-5.9,10.4-8.8c0.2-0.1,0.5-0.2,0.7-0.4c0.9-0.5,1.9-1,2.9-1.5c1.2-0.5,2.4-1.1,3.7-1.6
		c0.3-0.1,0.5-0.2,0.8-0.3c5.9-2.4,13.1-4.5,21.1-6.2c2.5-0.5,5.1-1,7.7-1.5c0.7-0.1,1.4-0.2,2.1-0.4c22.9-3.5,49.5-3.5,72.4,0
		c0.7,0.1,1.4,0.2,2.1,0.4c2.6,0.4,5.2,0.9,7.7,1.5C383,215.4,399,224.6,399,233z M399,187.2c0,7.3-6,13.3-13.3,13.3H362
		c-0.3-0.1-0.6-0.1-0.9-0.2c-3.3-0.7-6.8-1.4-10.3-1.9c-0.3-0.1-0.7-0.1-1-0.2c-12.1-1.9-24.9-2.8-37.6-2.8c-12.7,0-25.5,1-37.6,2.8
		c-0.4,0.1-0.7,0.1-1.1,0.2c-3.5,0.6-6.9,1.2-10.3,1.9c-0.3,0.1-0.6,0.1-0.9,0.2h-136c-7.3,0-13.3-6-13.3-13.3V127
		c0-7.3,6-13.3,13.3-13.3h259.3c7.3,0,13.3,6,13.3,13.3V187.2z"/>
</g>
</svg>
