<?xml version="1.0" encoding="utf-8"?>
<!-- Generator: Adobe Illustrator 25.0.1, SVG Export Plug-In . SVG Version: 6.00 Build 0)  -->
<svg version="1.1" fill="#8052FD" id="Capa_1" xmlns="http://www.w3.org/2000/svg" xmlns:xlink="http://www.w3.org/1999/xlink" x="0px" y="0px"
	 viewBox="0 0 512 512" style="enable-background:new 0 0 512 512;" xml:space="preserve">

	
	

<path d="M148.6,256.3h102.7L231,275c-5.9,5.4-10.4,10.4-14.1,15.6c-9.8,14.1-15.7,31.4-17.6,51.2l-0.6,7.2l-6.9,2.2
	c-19,5.9-31.8,23.2-31.8,42.8c0,24.8,20.2,45.1,45.1,45.1c24.8,0,45.1-20.3,45.1-45.1c0-19.1-12.3-36.1-30.5-42.4l-8.2-2.8l1-8.6
	c1.9-16.4,6.9-30.1,15-42.1c6.5-9.4,15.2-17.5,25.5-24c14.8-9.2,30.8-13.6,41.7-15.6c4.8-0.9,9.7-1.6,14.5-2h0.2
	c1.9-0.2,3.2-0.2,4.1-0.2h1.2h116l-40.9,40.9c-2.6,2.6-2.6,6.6,0,9.2s6.6,2.6,9.2,0l52-52c1.2-1.2,1.9-2.9,1.9-4.6s-0.7-3.4-1.9-4.6
	l-52-52c-1.2-1.2-2.9-1.9-4.6-1.9c-1.8,0-3.4,0.6-4.6,1.9c-1.2,1.2-1.9,2.9-1.9,4.6s0.6,3.4,1.9,4.6l41,41h-116v-0.1
	c-6,0.2-16.2-1.4-17.6-1.7c-9.1-1.5-22.8-4.6-35.8-10.9c-14.5-6.9-26.1-16.2-34.3-27.7c-7.9-11.2-12.6-23.8-14.5-38.8l-1.1-8.7
	l8.3-2.9c18.2-6.3,30.5-23.3,30.5-42.4c0-24.8-20.3-45.1-45.1-45.1s-45,20.2-45.1,45.1c0,19.6,12.8,36.9,31.8,42.8l6.8,2.2l0.7,7.1
	c1.8,18.8,7.9,35.7,17.6,48.9c3.4,4.6,7.3,8.9,12.1,13.3l20.4,18.7H148.6l-2.4-7.4c-6.1-18.6-23.2-31.1-42.6-31.1
	c-24.8,0-45,20.2-45.1,45.1c0,24.8,20.2,45.1,45.1,45.1c19.4,0,36.6-12.5,42.6-31.1L148.6,256.3z M205.2,426.2L205.2,426.2
	c-17.7,0-32.1-14.5-32.1-32.1c0-17.7,14.5-32.1,32.1-32.2c17.7,0,32.1,14.5,32.2,32.1C237.3,411.7,222.8,426.1,205.2,426.2
	L205.2,426.2z M103.7,282c-17.7,0-32.1-14.5-32.2-32.1c0-17.7,14.5-32.1,32.1-32.2h0.1c17.6,0,32.1,14.5,32.1,32.1
	C135.7,267.5,121.3,282,103.7,282z M205.2,142.5c-17.7,0-32.1-14.5-32.2-32.1c0-17.7,14.5-32.1,32.1-32.2h0.1
	c17.6,0,32.1,14.5,32.1,32.1C237.3,128,222.8,142.5,205.2,142.5z"/>
</svg>
