<?xml version="1.0" encoding="utf-8"?>
<!-- Generator: Adobe Illustrator 25.0.1, SVG Export Plug-In . SVG Version: 6.00 Build 0)  -->
<svg version="1.1" fill="#8052FD" id="Layer_1" xmlns="http://www.w3.org/2000/svg" xmlns:xlink="http://www.w3.org/1999/xlink" x="0px" y="0px"
	 viewBox="0 0 480 480" style="enable-background:new 0 0 480 480;" xml:space="preserve">

	
	


<path d="M123.2,135.5l7.6-7.6l-28.5-28.5l28.5-28.5l-7.6-7.7L90.9,95.5c-2.1,2.1-2.1,5.5,0,7.6L123.2,135.5z"/>
<path d="M163.1,135.5l32.3-32.3c2.1-2.1,2.1-5.5,0-7.6l-32.3-32.3l-7.6,7.6L184,99.3l-28.5,28.5L163.1,135.5z"/>
<path d="M89.3,147.8h59.2v10.8H89.3V147.8z"/>
<path d="M89.3,163.9h26.9v10.8H89.3V163.9z"/>
<path d="M89.3,180.1h59.2v10.8H89.3V180.1z"/>
<path d="M153.9,180.1h26.9v10.8h-26.9V180.1z"/>
<path d="M121.6,163.9h26.9v10.8h-26.9V163.9z"/>
<path d="M89.3,196.2h59.2V207H89.3V196.2z"/>
<path d="M153.9,196.2h43V207h-43V196.2z"/>
<path d="M89.3,212.4h59.2v10.8H89.3V212.4z"/>
<path d="M153.9,212.4h43v10.8h-43V212.4z"/>
<path d="M202.3,212.4h26.9v10.8h-26.9V212.4z"/>
<path d="M153.9,163.9h43v10.8h-43V163.9z"/>
<path d="M186.2,180.1h21.5v10.8h-21.5V180.1z"/>
<path d="M202.3,196.2h10.8V207h-10.8V196.2z"/>
<path d="M400.4,370.6l-42-57.8V158.5c0-5.9-4.8-10.8-10.8-10.8h-34.4l-10.8-21.5h2.1c3,0,5.4-2.4,5.4-5.4v-16.1
	c0-3-2.4-5.4-5.4-5.4h-5.4V72.4c0-8.9-7.2-16.1-16.1-16.1s-16.1,7.2-16.1,16.1v26.9h-5.4c-3,0-5.4,2.4-5.4,5.4v16.1
	c0,3,2.4,5.4,5.4,5.4h2.1l-10.8,21.5H240v10.8h13.6l25.3,30.3c1,1.2,2.6,2,4.2,2c1.6,0,3.1-0.7,4.2-2l17.4-20.9v6.7h10.8v-10.8H308
	l4.5-5.4h35.1v150.7H132.4v-75.3h-10.8v79l-42,57.8c-1.2,1.6-1.3,3.8-0.5,5.6c0.9,1.8,2.8,3,4.8,3H396c2,0,3.9-1.1,4.8-3
	C401.8,374.5,401.6,372.2,400.4,370.6z M277.7,72.4c0-3,2.4-5.4,5.4-5.4s5.4,2.4,5.4,5.4v26.9h-10.8V72.4z M266.9,110.1h32.3v5.4
	h-32.3V110.1z M283,177l-20.5-24.6l13-26.2h14.9l13,26.2L283,177z M215.6,368.4l6.5-16.1h35.8l6.5,16.1H215.6z M275.9,368.4
	l-9.4-23.5c-0.8-2-2.8-3.4-5-3.4h-43c-2.2,0-4.2,1.3-5,3.4l-9.4,23.5H94.5l35.2-48.4h220.6l35.2,48.4H275.9z"/>
<path d="M132.4,325.4h21.5v10.8h-21.5V325.4z"/>
<path d="M164.7,325.4h21.5v10.8h-21.5V325.4z"/>
<path d="M196.9,325.4h21.5v10.8h-21.5V325.4z"/>
<path d="M116.2,346.9h21.5v10.8h-21.5V346.9z"/>
<path d="M148.5,346.9H170v10.8h-21.5V346.9z"/>
<path d="M180.8,346.9h21.5v10.8h-21.5V346.9z"/>
<path d="M277.7,346.9h21.5v10.8h-21.5V346.9z"/>
<path d="M309.9,346.9h21.5v10.8h-21.5V346.9z"/>
<path d="M342.2,346.9h21.5v10.8h-21.5V346.9z"/>
<path d="M229.2,325.4h21.5v10.8h-21.5V325.4z"/>
<path d="M261.5,325.4H283v10.8h-21.5V325.4z"/>
<path d="M293.8,325.4h21.5v10.8h-21.5V325.4z"/>
<path d="M326.1,325.4h21.5v10.8h-21.5V325.4z"/>
<path d="M331.5,293.1h10.8v10.8h-10.8V293.1z"/>
<path d="M315.3,293.1h10.8v10.8h-10.8V293.1z"/>
<path d="M331.5,276.9h10.8v10.8h-10.8V276.9z"/>
<path d="M342.2,169.3c0-3-2.4-5.4-5.4-5.4h-16.1v10.8h10.8v10.8h10.8V169.3z"/>
<path d="M331.5,190.8h10.8v10.8h-10.8V190.8z"/>
<path d="M153.9,147.8h75.3v10.8h-75.3V147.8z"/>
<path d="M202.3,163.9h26.9v10.8h-26.9V163.9z"/>
<path d="M213.1,180.1h16.1v10.8h-16.1V180.1z"/>
<path d="M218.5,196.2h10.8V207h-10.8V196.2z"/>
<path d="M288.4,137h-10.8v10.8h-5.4v10.8h5.4v5.4h10.8v-5.4h5.4v-10.8h-5.4V137z"/>
<path d="M261.5,244.6c-3,0-5.4,2.4-5.4,5.4v5.4h-32.3V250c0-3-2.4-5.4-5.4-5.4h-43c-3,0-5.4,2.4-5.4,5.4v21.5
	c0,3,2.4,5.4,5.4,5.4h16.1v21.5h10.8v-21.5h16.1c3,0,5.4-2.4,5.4-5.4v-5.4h32.3v5.4c0,3,2.4,5.4,5.4,5.4h43c3,0,5.4-2.4,5.4-5.4V250
	c0-3-2.4-5.4-5.4-5.4h-16.1v-16.1h16.1c3,0,5.4-2.4,5.4-5.4v-21.5c0-3-2.4-5.4-5.4-5.4h-43c-3,0-5.4,2.4-5.4,5.4v21.5
	c0,3,2.4,5.4,5.4,5.4h16.1v16.1H261.5z M213.1,266.2h-32.3v-10.8h32.3V266.2z M266.9,207h32.3v10.8h-32.3V207z M299.2,266.2h-32.3
	v-10.8h32.3V266.2z"/>
</svg>
