<?xml version="1.0" encoding="utf-8"?>
<!-- Generator: Adobe Illustrator 25.0.1, SVG Export Plug-In . SVG Version: 6.00 Build 0)  -->
<svg version="1.1" fill="#8052FD" id="Layer_1" xmlns="http://www.w3.org/2000/svg" xmlns:xlink="http://www.w3.org/1999/xlink" x="0px" y="0px"
	 viewBox="0 0 512 512" style="enable-background:new 0 0 512 512;" xml:space="preserve">

	
	


<path d="M78.4,378.5v16.8c0,9.2,7.5,16.8,16.8,16.8h321.7c9.2,0,16.8-7.5,16.8-16.8v-16.8h-11.9V168.9
	c0-9.2-7.5-16.8-16.8-16.8h-54.7V151c0-3.4-0.2-6.9-0.6-10.3c-0.1-0.8-0.2-1.6-0.4-2.5c-0.1-0.4-0.1-0.8-0.2-1.2
	c-0.3-2.2-0.7-4.2-1-6.2c-0.3-1.4-0.7-2.8-1-4.2l-0.1-0.4c-0.5-1.9-1-3.4-1.5-5c-0.5-1.6-1.1-3.2-1.8-4.8c-0.7-1.6-1.3-3.1-1.9-4.5
	c-0.6-1.4-1.4-3.1-2.2-4.6c-0.8-1.5-1.6-2.9-2.5-4.4c-0.2-0.4-0.4-0.7-0.6-1c-0.6-1-1.2-2-1.9-3c-1.4-2.2-3.1-4.4-4.9-6.7
	c-0.1-0.2-0.3-0.4-0.4-0.6c-0.1-0.1-0.2-0.4-0.4-0.5c-2.2-2.7-4.6-5.2-7.1-7.7c-0.1-0.1-0.4-0.4-0.6-0.5l-0.4-0.3
	c-2.2-2.2-4.6-4.2-7.1-6.1c-0.1-0.1-0.2-0.2-0.4-0.3c-0.1-0.1-0.1-0.1-0.2-0.1l-2.9-2.2h-0.1l-0.6-0.4
	c-42.5-29.5-101.1-19-130.7,23.6c-2.6,3.8-5,7.8-7.1,12l-0.2,0.4h-0.1l-1,2.1c0,0,0,0.1-0.1,0.1c0,0.1-0.1,0.2-0.1,0.3
	c-1.3,2.7-2.3,5.5-3.3,8.3c-0.1,0.1-0.1,0.4-0.2,0.5c-0.1,0.2-0.1,0.4-0.2,0.6c-0.9,2.6-1.6,5.3-2.3,8.3c-0.1,0.2-0.1,0.4-0.1,0.7
	c-0.1,0.3-0.1,0.5-0.2,0.8c-0.6,2.8-1,5.6-1.3,8c-0.1,0.3-0.1,0.7-0.1,1c-0.1,0.3-0.1,0.6-0.1,1c-0.3,3.3-0.5,6.6-0.4,9.9v1.1h-54.7
	c-9.2,0-16.8,7.5-16.8,16.8v209.6H78.4V378.5z M416.9,402.3H95.1c-3.9,0-7.1-3.2-7.1-7.1v-7.1h335.9v7.1
	C423.9,399.1,420.7,402.3,416.9,402.3z M412,378.5H100V168.9c0-3.9,3.2-7.1,7.1-7.1h55.4l0.1,1c0.5,3.9,1.3,7.9,2.3,11.8l0.4,1.4
	h-51.2v188.4h283.7V175.9h-51.2l0.6-2.3c0.1-0.7,0.4-1.3,0.5-1.9c0.1-0.2,0.1-0.4,0.1-0.6c0.1-0.1,0.1-0.3,0.1-0.5
	c0.4-2.2,0.9-4.7,1.3-7.8l0.1-1h55.4c3.9,0,7.1,3.2,7.1,7.1V378.5z M388.2,354.7H123.8v-169h44.6l0.3,0.7
	c7.1,17.4,19.1,32.2,34.6,42.7s33.8,16.1,52.7,16.2c2.8,0,5.7-0.1,8.9-0.4c1.2-0.1,2.5-0.3,3.6-0.5c0.4-0.1,0.9-0.1,1.3-0.2
	c0.4-0.1,0.7-0.1,1-0.1c0.8-0.1,1.6-0.2,2.4-0.4c2.4-0.4,4.6-1,6.6-1.5c0.2-0.1,0.5-0.1,0.7-0.2c0.3-0.1,0.6-0.1,0.9-0.2
	c2.3-0.7,4.6-1.4,6.9-2.3c0.1-0.1,0.3-0.1,0.4-0.1c0.1,0,0.2-0.1,0.3-0.1l2.8-1c0.1-0.1,0.2-0.1,0.4-0.1c0.1,0,0.2-0.1,0.3-0.1
	l0.4-0.1v-0.1l0.8-0.4c20.5-9.1,37.2-25.2,46.8-45.4l0.1-0.4l0.1-0.1l0.7-1.6c0-0.1,0.1-0.1,0.1-0.1c0-0.1,0.1-0.1,0.1-0.2
	c0.4-0.9,0.9-1.9,1.3-3.1l0.3-0.7H388v169.1L388.2,354.7L388.2,354.7z M256,235.5c-46.5-0.1-84.5-38-84.5-84.5
	c0-2.8,0.1-5.6,0.4-8.5l0,0c0.8-8.3,2.9-16.5,6.2-24.3l0.2-0.5l0.6-0.1c14.7-3,29.7,3,38.5,15.1l2.8,3.9c4.7,6.5,7.1,14.1,7.1,22.2
	c0,18.8,11.2,36,28.4,43.7c11.9,5.4,21.3,15.5,25.5,27.9l0.4,1l-1.1,0.4c-1.9,0.6-3.8,1.1-5.6,1.5c-0.1,0-0.1,0.1-0.2,0.1
	s-0.2,0.1-0.3,0.1c-1.2,0.3-2.3,0.4-3.5,0.7l-0.5,0.1c-1.6,0.3-2.8,0.4-3.9,0.6c-0.9,0.1-1.9,0.2-3.1,0.4
	C260.5,235.4,258.2,235.5,256,235.5z M290.7,227.9l-0.4-1.2c-5.2-14.7-16.4-26.7-30.6-33.1c-13.8-6.1-22.6-19.8-22.6-34.9
	c0-10.1-3.1-19.7-8.9-27.8l-2.8-3.9c-9.2-12.7-23.9-20-39.5-19.7h-2.1l1.1-1.8c15.6-24.4,42.2-39,71.3-39l0,0
	c15.7,0,31.1,4.4,44.4,12.7l1.4,0.9l-1.3,1c-11.8,8.8-15.3,25.1-7.9,37.8l3.6,6.4c4.3,7.6,3.1,17.3-3.1,23.5
	c-5.5,5.5-8.6,12.9-8.6,20.7s3.1,15.1,8.6,20.7c1.9,1.9,3.9,3.4,6.2,4.7l2.7,1.5c6.3,3.6,13.7,4.8,20.8,3.1l2.9-0.7l-1.8,2.4
	c-8.3,11.2-19.4,20.2-31.9,26.1L290.7,227.9z M316.3,190.5c-3.4,0-6.7-0.9-9.7-2.6l-2.7-1.5c-9.4-5.4-12.6-17.4-7.3-26.7
	c0.9-1.5,1.9-2.9,3.1-4.1c9.3-9.3,11.2-23.8,4.7-35.2l-3.6-6.4c-5-8.7-2.6-19.7,5.6-25.6l3.4-2.5l0.7,0.6c2.2,1.9,4.3,3.9,6.3,6
	c0.4,0.4,0.7,0.8,1.1,1.2l0.4,0.4c1.3,1.5,2.7,3.1,3.9,4.6c0.7,1,1.4,1.9,2.2,2.8c1,1.3,1.9,2.8,2.7,3.9c0.8,1.3,1.6,2.5,2.2,3.6
	c0.6,1,1.1,2.1,1.6,3.1l0.3,0.5c0.7,1.5,1.4,2.8,2,4.2c0.6,1.3,1,2.5,1.5,3.7l0.1,0.4c0.5,1.3,1,2.6,1.5,4c0.4,1.1,0.7,2.3,1,3.4
	l0.4,1.7c0.3,1,0.6,2.2,0.8,3.3c0.3,1.6,0.6,3.2,0.8,4.8l0.1,0.4c0.1,0.4,0.1,0.8,0.2,1.2c0.1,0.7,0.2,1.5,0.3,2.2
	c0.3,3,0.5,6,0.5,8.9c0,2.8-0.1,5.7-0.4,8.5c-0.8,8.4-3,16.6-6.3,24.4l-0.1,0.4l-8.6,4.3C322.4,189.9,319.3,190.5,316.3,190.5z
	 M233.3,340.5h45.4v-23.8h23.5l-46.2-54l-46.2,54h23.5V340.5z M269,330.8H243V307h-12.2l25.2-29.4l25.2,29.4H269V330.8z"/>
</svg>
