<?xml version="1.0" encoding="utf-8"?>
<!-- Generator: Adobe Illustrator 25.0.1, SVG Export Plug-In . SVG Version: 6.00 Build 0)  -->
<svg version="1.1" fill="#8052FD" id="Layer_1" xmlns="http://www.w3.org/2000/svg" xmlns:xlink="http://www.w3.org/1999/xlink" x="0px" y="0px"
	 viewBox="0 0 512 512" style="enable-background:new 0 0 512 512;" xml:space="preserve">

	
	


<g id="surface1_2_">
	<path d="M93.8,405.8h300.3c13.9,0,25-11.2,25-25V362c0-3.4-2.8-6.2-6.2-6.2h-12.5v-93.9h-12.5v93.8h-12.5v-87.5h-12.5
		v87.5h-80.5c-6.7,0-12.8,3.7-15.7,9.7c-0.9,1.7-2.6,2.8-4.5,2.8h-36.1c-1.9,0-3.7-1.1-4.5-2.8c-2.9-5.9-9-9.7-15.7-9.7h-80.6V174.4
		H244v-12.5H118.9c-3.4,0-6.2,2.8-6.2,6.2v187.7h-12.5V168.1c0-10.3,8.4-18.8,18.8-18.8H244v-12.5H118.9c-17.3,0-31.2,14-31.3,31.3
		v187.7H75.1c-3.4,0-6.2,2.8-6.2,6.2v18.8C68.8,394.6,80,405.8,93.8,405.8z M81.4,368.3h124.4c1.9,0,3.7,1.1,4.5,2.8
		c2.9,5.9,9,9.7,15.7,9.7h36c6.7,0,12.8-3.7,15.7-9.7c0.9-1.7,2.6-2.8,4.5-2.8h124.4v12.5c0,6.9-5.6,12.5-12.5,12.5H93.8
		c-6.9,0-12.5-5.6-12.5-12.5L81.4,368.3L81.4,368.3z"/>
	<path d="M256.5,224.4v-12.5H143.9c-3.4,0-6.2,2.8-6.2,6.2v37.5c0,3.4,2.8,6.2,6.2,6.2H294v-12.4H150.1v-25L256.5,224.4
		L256.5,224.4z"/>
	<path d="M237.7,284.7c0-3.4-2.8-6.2-6.2-6.2h-31.3c-3.4,0-6.2,2.8-6.2,6.2V316c0,3.4,2.8,6.2,6.2,6.2h31.3
		c3.4,0,6.2-2.8,6.2-6.2V284.7z M225.2,309.7h-18.8v-18.8h18.8V309.7z"/>
	<path d="M181.4,284.7c0-3.4-2.8-6.2-6.2-6.2h-31.3c-3.4,0-6.2,2.8-6.2,6.2V316c0,3.4,2.8,6.2,6.2,6.2h31.3
		c3.4,0,6.2-2.8,6.2-6.2V284.7z M168.9,309.7h-18.8v-18.8h18.8V309.7z"/>
	<path d="M344.1,322.2c3.4,0,6.2-2.8,6.2-6.2v-31.3c0-3.4-2.8-6.2-6.2-6.2h-31.3c-3.4,0-6.2,2.8-6.2,6.2v31.3
		c0,3.4,2.8,6.2,6.2,6.2H344.1z M319,290.9h18.8v18.8H319V290.9z"/>
	<path d="M294,284.7c0-3.4-2.8-6.2-6.2-6.2h-31.3c-3.4,0-6.2,2.8-6.2,6.2V316c0,3.4,2.8,6.2,6.2,6.2h31.3
		c3.4,0,6.2-2.8,6.2-6.2V284.7z M281.5,309.7h-18.8v-18.8h18.8V309.7z"/>
	<path d="M350.3,68c-51.8,0-93.8,42-93.8,93.8s42,93.8,93.8,93.8s93.8-42,93.8-93.8C444.1,110,402.2,68.1,350.3,68z
		 M350.3,243.1c-44.9,0-81.3-36.4-81.3-81.3s36.4-81.3,81.3-81.3s81.3,36.4,81.3,81.3S395.2,243.1,350.3,243.1z"/>
	<path d="M350.3,118.1c2.8,0,5.6,0.3,8.3,0.9l-9.2,5.8l6.7,10.6l21-13.3c1.5-1,2.5-2.4,2.8-4.1s-0.1-3.4-1.1-4.8
		L363.4,92l-10.1,7.3l5,6.8c-16.2-2.4-32.6,2.3-44.9,13c-12.4,10.7-19.4,26.2-19.4,42.6c0,11.6,3.5,22.9,10.2,32.3l10.3-7.2
		c-9.4-13.3-10.6-30.9-3-45.4C319,127.2,334,118.1,350.3,118.1z"/>
	<path d="M386,136c9.4,13.3,10.6,30.9,3,45.4c-7.6,14.5-22.5,23.6-38.9,23.6c-2.8,0-5.5-0.3-8.3-0.9l9.2-5.8l-6.7-10.6
		L323.3,201c-1.5,1-2.5,2.4-2.8,4.1c-0.3,1.7,0.1,3.4,1.1,4.8L337,231l10.1-7.4l-5-6.8c22.2,3.2,44.2-7.1,55.9-26.2
		c11.7-19.1,11-43.4-1.8-61.8L386,136z"/>
</g>
</svg>
