<?xml version="1.0" encoding="utf-8"?>
<!-- Generator: Adobe Illustrator 25.0.1, SVG Export Plug-In . SVG Version: 6.00 Build 0)  -->
<svg version="1.1" fill="#8052FD" id="Layer_1" xmlns="http://www.w3.org/2000/svg" xmlns:xlink="http://www.w3.org/1999/xlink" x="0px" y="0px"
	 viewBox="0 0 512 512" style="enable-background:new 0 0 512 512;" xml:space="preserve">

	
	


<g id="Page-1">
	<g id="_x30_28---Earthquake-Cover">
		<path id="Shape" d="M264.3,159.6l11.8,2.4c0.8,0.1,1.6,0.2,2.4,0.2c5.7,0,10.7-4,11.8-9.7l4.8-23.6
			c1.3-6.5-2.9-12.9-9.4-14.2l-11.8-2.4c-3.1-0.6-6.4,0-9,1.8c-2.7,1.8-4.5,4.5-5.2,7.6l-4.8,23.6c-0.6,3.1,0,6.4,1.8,9
			C258.3,157.1,261.1,159,264.3,159.6L264.3,159.6z M271.5,124.1l11.8,2.4l-4.8,23.7l-11.8-2.4L271.5,124.1z"/>
		<path id="Shape_1_" d="M311.6,169.2l11.8,2.4c6.5,1.3,12.9-2.9,14.2-9.4l4.8-23.7c1.3-6.5-2.9-12.9-9.4-14.2
			l-11.8-2.4c-3.1-0.6-6.4,0-9,1.8c-2.7,1.8-4.5,4.5-5.2,7.6l-4.8,23.6C300.8,161.5,305,167.9,311.6,169.2z M318.8,133.8l11.8,2.4
			l-4.8,23.7l-11.8-2.4L318.8,133.8z"/>
		<path id="Shape_2_" d="M358.8,178.9l11.8,2.4c0.8,0.1,1.6,0.2,2.4,0.2c5.7,0,10.7-4,11.8-9.7l4.8-23.7
			c0.6-3.1,0-6.4-1.8-9c-1.8-2.7-4.5-4.5-7.6-5.2l-11.8-2.3c-6.5-1.3-12.9,2.9-14.2,9.4l-4.8,23.6c-0.6,3.1,0,6.4,1.8,9
			C352.9,176.4,355.7,178.3,358.8,178.9z M366,143.4l11.8,2.4l-4.8,23.6l-11.8-2.4L366,143.4z"/>
		<path id="Shape_3_" d="M252.2,218.7l11.8,2.4c6.5,1.3,12.9-2.9,14.2-9.4l4.8-23.6c0.6-3.1,0-6.4-1.8-9
			c-1.8-2.7-4.5-4.5-7.6-5.2l-11.8-2.4c-3.1-0.6-6.4,0-9,1.8c-2.7,1.8-4.5,4.5-5.2,7.6l-4.8,23.7C241.5,211,245.7,217.3,252.2,218.7
			z M259.5,183.3l11.8,2.4l-4.8,23.7l-11.8-2.4L259.5,183.3z"/>
		<path id="Shape_4_" d="M290.1,214.1c-1.3,6.5,2.9,12.9,9.4,14.2l11.8,2.4c6.5,1.3,12.9-2.9,14.2-9.4l4.8-23.6
			c1.3-6.5-2.9-12.9-9.4-14.2l-11.8-2.4c-3.1-0.6-6.4,0-9,1.8c-2.6,1.8-4.5,4.5-5.2,7.6L290.1,214.1z M306.8,192.9l11.8,2.4
			l-4.8,23.7l-11.8-2.4L306.8,192.9z"/>
		<path id="Shape_5_" d="M337.4,223.8c-1.3,6.5,2.9,12.9,9.4,14.2l11.8,2.4c0.8,0.1,1.6,0.2,2.4,0.2
			c5.7,0,10.7-4,11.8-9.7l4.8-23.6c0.6-3.1,0-6.4-1.8-9c-1.8-2.7-4.5-4.5-7.6-5.2l-11.8-2.4c-6.5-1.3-12.9,2.9-14.2,9.4L337.4,223.8
			z M354,202.5l11.8,2.4l-4.8,23.7l-11.8-2.4L354,202.5z"/>
		<path id="Shape_6_" d="M192.9,268.2l11.8,2.4c0.8,0.1,1.6,0.2,2.4,0.2c5.7,0,10.7-4,11.8-9.7l4.8-23.6
			c1.3-6.5-2.9-12.9-9.4-14.2l-11.8-2.4c-3.1-0.6-6.4,0-9,1.8s-4.5,4.5-5.2,7.6l-4.8,23.6C182.2,260.5,186.3,266.8,192.9,268.2
			L192.9,268.2z M200.1,232.7l11.8,2.4l-4.8,23.7l-11.8-2.4L200.1,232.7z"/>
		<path id="Shape_7_" d="M240.2,277.8l11.8,2.4c0.8,0.1,1.6,0.2,2.4,0.2c5.7,0,10.7-4,11.8-9.7L271,247
			c1.3-6.5-2.9-12.9-9.4-14.2l-11.8-2.4c-3.1-0.6-6.4,0-9,1.8c-2.7,1.8-4.5,4.5-5.2,7.6l-4.8,23.7c-0.6,3.1,0,6.4,1.8,9
			C234.3,275.3,237.1,277.1,240.2,277.8z M247.4,242.4l11.8,2.4l-4.8,23.6l-11.8-2.4L247.4,242.4z"/>
		<path id="Shape_8_" d="M308.9,242.6l-11.8-2.4c-6.5-1.3-12.9,2.9-14.2,9.4l-4.8,23.6c-0.6,3.1,0,6.4,1.8,9
			c1.8,2.7,4.5,4.5,7.6,5.2l11.8,2.4c0.8,0.1,1.6,0.2,2.4,0.2c5.7,0,10.7-4,11.8-9.7l4.8-23.7C319.6,250.3,315.4,243.9,308.9,242.6z
			 M301.7,278l-11.8-2.4l4.8-23.6l11.8,2.4L301.7,278z"/>
		<path id="Shape_9_" d="M356.2,252.2l-11.8-2.4c-3.1-0.6-6.4,0-9,1.8c-2.7,1.8-4.5,4.5-5.2,7.6l-4.8,23.6
			c-0.6,3.1,0,6.4,1.8,9c1.8,2.7,4.5,4.5,7.6,5.2l11.8,2.4c0.8,0.1,1.6,0.2,2.4,0.2c5.7,0,10.7-4,11.8-9.7l4.8-23.6
			C366.9,259.9,362.7,253.5,356.2,252.2L356.2,252.2z M348.9,287.7l-11.8-2.4l4.8-23.7l11.8,2.4L348.9,287.7z"/>
		<path id="Shape_10_" d="M180.9,327.2l11.8,2.4c0.8,0.1,1.6,0.3,2.4,0.2c5.7,0,10.7-4,11.8-9.7l4.8-23.7
			c1.3-6.5-2.9-12.9-9.4-14.2l-11.8-2.4c-3.1-0.6-6.4,0-9,1.8c-2.7,1.8-4.5,4.5-5.2,7.6l-4.8,23.7
			C170.2,319.5,174.3,325.9,180.9,327.2z M188.1,291.8l11.8,2.4l-4.8,23.7l-11.8-2.4L188.1,291.8z"/>
		<path id="Shape_11_" d="M218.7,322.6c-1.3,6.5,2.9,12.9,9.4,14.2l11.8,2.4c0.8,0.1,1.6,0.2,2.4,0.2
			c5.7,0,10.7-4,11.8-9.7l4.8-23.6c0.6-3.1,0-6.4-1.8-9c-1.8-2.7-4.5-4.5-7.6-5.2l-11.8-2.4c-3.1-0.6-6.4,0-9,1.8
			c-2.7,1.8-4.5,4.5-5.2,7.6L218.7,322.6z M235.4,301.4l11.8,2.4l-4.8,23.7l-11.8-2.4L235.4,301.4z"/>
		<path id="Shape_12_" d="M87.2,436.9h337.7c6.6,0,12.1-5.4,12.1-12.1V283c0-4.8-2.6-9.2-6.9-11.4
			c-4.2-2.2-9.3-2-13.3,0.6l-12.8,8.5c-0.7,0.5-1.4,1-2,1.6l-18.9,18.9l33.8-165.9c1-4.7,0.1-9.6-2.6-13.6c-2.6-4-6.8-6.8-11.5-7.8
			l-189-38.5c-9.8-2-19.4,4.3-21.3,14.1l-1.3,6.4l-47.3-20.4c-1.6-0.6-3.3-0.6-4.8,0l-60.4,26c-2.2,1-3.6,3.2-3.6,5.6v71.4
			c0.1,12,5.9,23.3,15.8,30.2l47.1,33.6c2.1,1.5,4.9,1.5,7,0l19.1-13.6l-16.2,79.6c-3.2-2.6-7.2-4.1-11.4-4.1h-14.8
			c-1.4,0-2.8-0.5-3.9-1.4l-13-11c-5.4-4.5-12.9-5.5-19.2-2.5c-6.4,3-10.5,9.3-10.5,16.4v119C75.1,431.5,80.5,436.9,87.2,436.9z
			 M410.7,290.8l12.8-8.6c0.3-0.1,0.6-0.2,0.9-0.1c0.3,0.1,0.5,0.4,0.5,0.8v141.8H302l-7.1-14.1c-3-6.1-9.3-10-16.2-10h-6.4
			c-1.3,0-2.7-0.5-3.7-1.3l-19.3-15.5l34.9-44.7l36.8-15.8c0.3-0.1,0.6-0.1,0.9,0.1l22.1,17.7c5.2,4.1,12.6,3.7,17.2-0.9
			L410.7,290.8z M292.6,322.5l-13.3,5.7c-0.1,0.1-0.1,0.1-0.3,0.1l3.5-17.2l11.8,2.4L292.6,322.5z M212.2,173.6L224,176l-4.8,23.7
			l-11.8-2.4L212.2,173.6z M141.5,230l-43.6-31c-6.6-4.7-10.6-12.3-10.7-20.4v-67.4l54.3-23.5l54.3,23.5v67.4
			c-0.1,8.1-4,15.8-10.7,20.4l-15.3,10.8c-0.1,0.1-0.2,0.1-0.4,0.3L141.5,230z M192.1,208.7c1.9-1.4,3.7-3,5.4-4.7
			c1.8,2.6,4.5,4.4,7.6,5l11.8,2.4c0.8,0.1,1.6,0.3,2.4,0.2c5.7,0,10.7-4,11.8-9.7l4.8-23.7c1.3-6.5-2.9-12.9-9.4-14.2l-11.8-2.4
			c-2.3-0.5-4.7-0.3-6.9,0.6v-21.1c1.1,4.5,4.7,7.9,9.3,8.8l11.8,2.4c0.8,0.1,1.6,0.2,2.5,0.2c5.7,0,10.7-4,11.8-9.7l4.8-23.6
			c1.3-6.5-2.9-12.9-9.4-14.2l-11.8-2.4c-6.5-1.3-12.9,2.9-14.2,9.4l-4.7,22.8v-27.7c0-2.4-1.4-4.6-3.6-5.5l-1.7-0.8l1.8-8.9
			c0.7-3.3,3.9-5.4,7.1-4.7l189,38.5c1.6,0.3,3,1.3,3.9,2.6c0.8,1.3,1.2,3,0.8,4.5l-37.6,183.9l-15.1,15.1c-0.4,0.4-0.8,0.4-1.2,0.1
			l-22.1-17.7c-3.7-3-8.8-3.7-13.1-1.8l-10.1,4.3l0.1-0.8c1.3-6.5-2.9-12.9-9.4-14.2l-11.8-2.4c-3.1-0.6-6.4,0-9,1.8
			c-2.7,1.8-4.5,4.5-5.2,7.6l-6,29.5c-0.4,1.6,0,3.2,0.8,4.5c0.1,0.1,0.1,0.1,0.1,0.1l-25,32.2l-10.2-20.5
			c-4.5-8.9-15.3-12.5-24.2-8.1l-6.3,3.1c-2.1,1.1-4.7,0.8-6.6-0.8l-29.7-24.7l-5.8-5.7l20.4-99.9L192.1,208.7z M219.4,138.1
			l4.8-23.6l11.8,2.4l-4.8,23.6L219.4,138.1z M87.2,305.9c0-2.3,1.3-4.5,3.5-5.4c0.8-0.4,1.7-0.6,2.6-0.6c1.4,0,2.8,0.5,3.7,1.4
			l13.1,10.9c3.3,2.7,7.3,4.2,11.6,4.2h14.8c1.6,0,3.1,0.6,4.2,1.8l14.2,14.2c0.4,0.4,0.8,0.7,1.2,1.1l29.7,24.7
			c5.5,4.6,13.2,5.5,19.6,2.3l6.3-3.1c3-1.5,6.6-0.2,8.1,2.8l11.5,23c1.2,2.3,2.8,4.4,4.9,6l24.8,19.8c3.2,2.5,7.2,4,11.3,4h6.4
			c2.3,0,4.4,1.3,5.4,3.3l4.4,8.7H87.2V305.9z"/>
		<path id="Shape_13_" d="M143.5,349.8l-11.2-5.6c-5.8-2.9-12.7-2.5-18.2,1.1l-12.3,8.2c-1.8,1.2-2.8,3.3-2.7,5.4
			s1.4,4,3.3,5c1.9,1,4.2,0.8,6-0.4l12.3-8.2c1.8-1.2,4.1-1.3,6-0.4l11.2,5.6c2,1,3.3,3.1,3.3,5.4v10.7c0,3.3,2.7,6,6,6
			c3.3,0,6-2.7,6-6V366C153.5,359.1,149.7,352.8,143.5,349.8z"/>
		<path id="Shape_14_" d="M210.4,389.3l-9.5-4.7c-2.5-1.3-5.3-1.9-8.1-1.9h-5.6c-3.6,0-7.1,1.1-10,3l-15.1,10
			c-2.8,1.8-3.5,5.6-1.7,8.3s5.6,3.5,8.3,1.7l15.1-10c1-0.6,2.1-1,3.3-1h5.6c0.9,0,1.8,0.2,2.7,0.6l9.5,4.7c1.9,1,4.2,0.8,6-0.4
			c1.8-1.2,2.8-3.3,2.7-5.4C213.7,392.2,212.4,390.2,210.4,389.3L210.4,389.3z"/>
		<path id="Shape_15_" d="M348.1,379.2c-1.8-5.4-6.1-9.6-11.4-11.4l-6.8-2.3c-5.3-1.8-11.1-1-15.8,2.1l-13.2,8.8
			c-2.8,1.8-3.5,5.6-1.7,8.3c1.8,2.8,5.6,3.5,8.3,1.7l13.2-8.8c1.6-1.1,3.5-1.3,5.2-0.7l6.8,2.3c1.8,0.6,3.3,2,3.8,3.8l4.1,12.4
			c1.1,3.2,4.5,4.9,7.6,3.8c3.2-1.1,4.9-4.5,3.8-7.6L348.1,379.2z"/>
		<path id="Shape_16_" d="M370.6,382.6c1.6,0,3.1-0.6,4.2-1.8l14.6-14.6c1.1-1.1,2.7-1.8,4.2-1.8h2
			c1.6,0,3.1,0.6,4.2,1.8l2.5,2.5c2.3,2.3,6.1,2.3,8.5-0.1s2.3-6.1,0.1-8.5l-2.5-2.5c-3.4-3.4-8-5.3-12.8-5.3h-2
			c-4.8,0-9.4,1.9-12.8,5.3l-14.6,14.6c-1.7,1.7-2.3,4.3-1.3,6.6C366,381.2,368.2,382.6,370.6,382.6z"/>
		<path id="Shape_17_" d="M406.8,388.6h-7.1c-4.8,0-9.4,1.9-12.8,5.3l-8.6,8.6c-1.6,1.5-2.2,3.7-1.6,5.9
			s2.2,3.7,4.3,4.3c2.1,0.6,4.4-0.1,5.9-1.6l8.6-8.6c1.1-1.1,2.7-1.8,4.2-1.8h7.1c3.3,0,6-2.7,6-6
			C412.8,391.4,410.1,388.6,406.8,388.6z"/>
		<circle id="Oval" cx="123.4" cy="394.7" r="6"/>
		<circle id="Oval_1_" cx="105.3" cy="328.4" r="6"/>
		<circle id="Oval_2_" cx="231.9" cy="406.7" r="6"/>
		<circle id="Oval_3_" cx="322.4" cy="406.7" r="6"/>
		<circle id="Oval_4_" cx="400.7" cy="328.4" r="6"/>
		<circle id="Oval_5_" cx="280.1" cy="376.6" r="6"/>
		<path id="Shape_18_" d="M181.4,122.5c-1.3-1-2.8-1.5-4.5-1.3c-1.6,0.1-3,1-4,2.3l-44.6,55.8l-19.4-14.6
			c-2.7-2-6.4-1.5-8.4,1.2c-2,2.7-1.5,6.4,1.2,8.4l24.1,18.1c2.6,2,6.3,1.5,8.3-1.1l48.3-60.3c1-1.3,1.5-2.8,1.3-4.5
			C183.4,125,182.7,123.5,181.4,122.5z"/>
	</g>
</g>
<desc>Created with Sketch.</desc>
</svg>
