<?xml version="1.0" encoding="utf-8"?>
<!-- Generator: Adobe Illustrator 25.0.1, SVG Export Plug-In . SVG Version: 6.00 Build 0)  -->
<svg version="1.1" fill="#8052FD" id="Layer_1" xmlns="http://www.w3.org/2000/svg" xmlns:xlink="http://www.w3.org/1999/xlink" x="0px" y="0px"
	 viewBox="0 0 512 512" style="enable-background:new 0 0 512 512;" xml:space="preserve">

	
	


<g>
	<path d="M248.9,330.5h14.2v14.2h-14.2V330.5z"/>
	<path d="M391,316.3H92.7c-3.9,0-7.1-3.2-7.1-7.1c0-3.9,3.2-7.1,7.1-7.1H391c3.9,0,7.1,3.2,7.1,7.1
		C398.1,313.1,394.9,316.3,391,316.3z"/>
	<path d="M391,103.3H121c-19.6,0-35.5,15.9-35.5,35.5v198.9c0,19.6,15.9,35.5,35.5,35.5h85.2v42.6h-14.2
		c-0.3,0-0.6,0.1-0.9,0.2c-0.3-0.1-0.6-0.2-0.9-0.2h-57.7c-3.9,0-7.1,3.2-7.1,7.1c0,3.9,3.2,7.1,7.1,7.1h57.7c0.3,0,0.6-0.1,0.9-0.2
		c0.3,0.1,0.6,0.2,0.9,0.2h187.3c3.9,0,7.1-3.2,7.1-7.1c0-3.9-3.2-7.1-7.1-7.1h-73.6v-42.6H391c19.6,0,35.5-15.9,35.5-35.5V138.8
		C426.4,119.2,410.5,103.3,391,103.3z M291.5,415.7h-71v-42.6h71L291.5,415.7L291.5,415.7z M412.3,337.6c0,11.7-9.6,21.3-21.3,21.3
		H121c-11.7,0-21.3-9.6-21.3-21.3V138.8c0-11.7,9.6-21.3,21.3-21.3h269.8c11.7,0,21.3,9.6,21.3,21.3L412.3,337.6L412.3,337.6z"/>
	<path d="M156.6,273.7h-28.4c-3.9,0-7.1-3.2-7.1-7.1v-28.4c0-3.9,3.2-7.1,7.1-7.1h28.4c3.9,0,7.1,3.2,7.1,7.1v28.4
		C163.7,270.5,160.5,273.7,156.6,273.7z M135.3,259.5h14.2v-14.2h-14.2V259.5z"/>
	<path d="M142.4,245.3c-3.9,0-7.1-3.2-7.1-7.1v-21.3c0-3.9,3.2-7.1,7.1-7.1c3.9,0,7.1,3.2,7.1,7.1v21.3
		C149.5,242.2,146.3,245.3,142.4,245.3z"/>
	<path d="M142.4,287.9c-3.9,0-7.1-3.2-7.1-7.1v-14.2c0-3.9,3.2-7.1,7.1-7.1c3.9,0,7.1,3.2,7.1,7.1v14.2
		C149.5,284.8,146.3,287.9,142.4,287.9z"/>
	<path d="M213.4,245.3H185c-3.9,0-7.1-3.2-7.1-7.1v-49.7c0-3.9,3.2-7.1,7.1-7.1h28.4c3.9,0,7.1,3.2,7.1,7.1v49.7
		C220.5,242.2,217.3,245.3,213.4,245.3z M192.1,231.1h14.2v-35.5h-14.2V231.1z"/>
	<path d="M199.2,195.6c-3.9,0-7.1-3.2-7.1-7.1v-14.2c0-3.9,3.2-7.1,7.1-7.1c3.9,0,7.1,3.2,7.1,7.1v14.2
		C206.3,192.4,203.1,195.6,199.2,195.6z"/>
	<path d="M199.2,266.6c-3.9,0-7.1-3.2-7.1-7.1v-21.3c0-3.9,3.2-7.1,7.1-7.1c3.9,0,7.1,3.2,7.1,7.1v21.3
		C206.3,263.5,203.1,266.6,199.2,266.6z"/>
	<path d="M270.2,259.5h-28.4c-3.9,0-7.1-3.2-7.1-7.1v-35.5c0-3.9,3.2-7.1,7.1-7.1h28.4c3.9,0,7.1,3.2,7.1,7.1v35.5
		C277.3,256.3,274.1,259.5,270.2,259.5z M248.9,245.3h14.2V224h-14.2V245.3z"/>
	<path d="M256,224c-3.9,0-7.1-3.2-7.1-7.1v-56.8c0-3.9,3.2-7.1,7.1-7.1c3.9,0,7.1,3.2,7.1,7.1v56.8
		C263.1,220.8,259.9,224,256,224z"/>
	<path d="M256,273.7c-3.9,0-7.1-3.2-7.1-7.1v-14.2c0-3.9,3.2-7.1,7.1-7.1c3.9,0,7.1,3.2,7.1,7.1v14.2
		C263.1,270.5,259.9,273.7,256,273.7z"/>
	<path d="M327,252.4h-28.4c-3.9,0-7.1-3.2-7.1-7.1v-85.2c0-3.9,3.2-7.1,7.1-7.1H327c3.9,0,7.1,3.2,7.1,7.1v85.2
		C334.1,249.2,331,252.4,327,252.4z M305.7,238.2h14.2v-71h-14.2V238.2z"/>
	<path d="M312.8,167.2c-3.9,0-7.1-3.2-7.1-7.1v-21.3c0-3.9,3.2-7.1,7.1-7.1c3.9,0,7.1,3.2,7.1,7.1v21.3
		C319.9,164,316.7,167.2,312.8,167.2z"/>
	<path d="M312.8,287.9c-3.9,0-7.1-3.2-7.1-7.1v-35.5c0-3.9,3.2-7.1,7.1-7.1c3.9,0,7.1,3.2,7.1,7.1v35.5
		C319.9,284.8,316.7,287.9,312.8,287.9z"/>
	<path d="M383.8,216.9h-28.4c-3.9,0-7.1-3.2-7.1-7.1v-28.4c0-3.9,3.2-7.1,7.1-7.1h28.4c3.9,0,7.1,3.2,7.1,7.1v28.4
		C391,213.7,387.8,216.9,383.8,216.9z M362.5,202.7h14.2v-14.2h-14.2V202.7z"/>
	<path d="M369.6,188.5c-3.9,0-7.1-3.2-7.1-7.1v-21.3c0-3.9,3.2-7.1,7.1-7.1s7.1,3.2,7.1,7.1v21.3
		C376.7,185.3,373.6,188.5,369.6,188.5z"/>
	<path d="M369.6,273.7c-3.9,0-7.1-3.2-7.1-7.1v-56.8c0-3.9,3.2-7.1,7.1-7.1s7.1,3.2,7.1,7.1v56.8
		C376.7,270.5,373.6,273.7,369.6,273.7z"/>
</g>
</svg>
