<?xml version="1.0" encoding="utf-8"?>
<!-- Generator: Adobe Illustrator 25.0.1, SVG Export Plug-In . SVG Version: 6.00 Build 0)  -->
<svg version="1.1" fill="#8052FD" id="Capa_1" xmlns="http://www.w3.org/2000/svg" xmlns:xlink="http://www.w3.org/1999/xlink" x="0px" y="0px"
	 viewBox="0 0 512 512" style="enable-background:new 0 0 512 512;" xml:space="preserve">

	
	


<g>
	<g>
		<g>
			<path d="M145.9,361.3H98.9c-3.3,0-5.9,2.6-5.9,5.9v46.9c0,3.3,2.6,5.9,5.9,5.9h46.9c3.3,0,5.9-2.6,5.9-5.9v-46.9
				C151.8,364,149.1,361.3,145.9,361.3z M140,408.3h-35.2v-35.2H140L140,408.3L140,408.3z"/>
		</g>
	</g>
	<g>
		<g>
			<path d="M233.9,343.8h-46.9c-3.3,0-5.9,2.6-5.9,5.9v64.6c0,3.3,2.6,5.9,5.9,5.9h46.9c3.3,0,5.9-2.6,5.9-5.9v-64.6
				C239.8,346.4,237.1,343.8,233.9,343.8z M228,408.3h-35.2v-52.8H228V408.3z"/>
		</g>
	</g>
	<g>
		<g>
			<path d="M321.9,320.3H275c-3.3,0-5.9,2.6-5.9,5.9v88c0,3.3,2.6,5.9,5.9,5.9h46.9c3.3,0,5.9-2.6,5.9-5.9v-88
				C327.7,322.9,325.2,320.3,321.9,320.3z M316,408.3h-35.2V332H316V408.3z"/>
		</g>
	</g>
	<g>
		<g>
			<path d="M409.9,267.5H363c-3.3,0-5.9,2.6-5.9,5.9v140.8c0,3.3,2.6,5.9,5.9,5.9h46.9c3.3,0,5.9-2.6,5.9-5.9V273.3
				C415.8,270.1,413.2,267.5,409.9,267.5z M404.1,408.3h-35.2v-129h35.2V408.3z"/>
		</g>
	</g>
	<g>
		<g>
			<path d="M386.5,120.8h-14l0.7-1.4c4.4-8.9,0.8-19.8-8-24.2c-8.5-4.2-18.7-1.2-23.5,6.9l-7.8,12.9l-7.8-12.9
				c-5.1-8.5-16.2-11.3-24.8-6.2c-8.1,4.9-11.1,15.1-6.9,23.5l0.7,1.4h-14.4c-3.3,0-5.9,2.6-5.9,5.9V156c0,3.3,2.6,5.9,5.9,5.9h5.9
				v52.8c0,3.3,2.6,5.9,5.9,5.9h82.2c3.3,0,5.9-2.6,5.9-5.9v-52.8h5.9c3.3,0,5.9-2.6,5.9-5.9v-29.3
				C392.3,123.4,389.7,120.8,386.5,120.8z M316,208.8h-17.6v-46.9H316V208.8z M316,150.1h-29.3v-17.6H316V150.1z M308.3,120.8
				l-3.3-6.7c-1.5-3.1-0.3-6.9,2.8-8.5c3-1.5,6.5-0.4,8.3,2.4l7.6,12.7H308.3z M339.5,208.8h-11.7v-46.9h11.7V208.8z M339.5,150.1
				h-11.7v-17.6h11.7V150.1z M351.7,108.1c1.8-3,5.7-4,8.7-2.1c2.8,1.7,3.9,5.3,2.4,8.3l-3.3,6.7h-15.3L351.7,108.1z M368.9,208.8
				h-17.6v-46.9h17.6V208.8z M380.6,150.1h-29.3v-17.6h29.3V150.1z"/>
		</g>
	</g>
	<g>
		<g>
			<path d="M267.1,95.6c-5.8,5.8-10.8,12.3-14.9,19.5l10.2,5.8c3.6-6.2,8-11.9,13-17.1L267.1,95.6z"/>
		</g>
	</g>
	<g>
		<g>
			<path d="M333.6,244c-7.1,0-14.3-0.9-21.1-2.8l-3.1,11.4c7.9,2.1,16,3.1,24.2,3.1h0.1L333.6,244z"/>
		</g>
	</g>
	<g>
		<g>
			<path d="M333.6,68h-0.3l0.3,11.7c7.1,0,14.1,0.9,21,2.7l3-11.4C349.8,69,341.8,68,333.6,68z"/>
		</g>
	</g>
	<g>
		<g>
			<path d="M275.7,220l-8.3,8.3c5.8,5.8,12.3,10.8,19.4,14.9l5.9-10.2C286.4,229.5,280.7,225.1,275.7,220z"/>
		</g>
	</g>
	<g>
		<g>
			<path d="M242.9,137.8c-2.1,7.8-3.1,15.7-3.1,23.8v0.5l11.7-0.2c0-7.1,0.9-14.2,2.7-21.1L242.9,137.8z"/>
		</g>
	</g>
	<g>
		<g>
			<path d="M254.3,183.3l-11.3,3.1c2.1,7.9,5.3,15.5,9.4,22.6l10.1-5.9C259,196.9,256.2,190.2,254.3,183.3z"/>
		</g>
	</g>
	<g>
		<g>
			<path d="M374.8,233c-6.2,3.6-12.8,6.4-19.8,8.3l3.1,11.3c7.9-2.1,15.5-5.3,22.6-9.4L374.8,233z"/>
		</g>
	</g>
	<g>
		<g>
			<path d="M404.8,202.9c-3.6,6.2-8,11.9-13,17l8.3,8.3c5.8-5.8,10.8-12.3,14.9-19.4L404.8,202.9z"/>
		</g>
	</g>
	<g>
		<g>
			<path d="M309.1,71.2c-7.9,2.1-15.5,5.3-22.6,9.4l5.9,10.1c6.2-3.6,12.8-6.4,19.8-8.3L309.1,71.2z"/>
		</g>
	</g>
	<g>
		<g>
			<path d="M414.8,114.6l-10.1,5.9c3.6,6.2,6.4,12.8,8.3,19.8l11.3-3.1C422.1,129.3,418.9,121.7,414.8,114.6z"/>
		</g>
	</g>
	<g>
		<g>
			<path d="M415.8,161.8c0,7.1-0.9,14.4-2.8,21.3l11.4,3.1c2.1-7.9,3.2-16.1,3.2-24.3v-0.4L415.8,161.8z"/>
		</g>
	</g>
	<g>
		<g>
			<path d="M380.3,80.4l-5.8,10.2c6.2,3.6,11.9,8,17.1,13l8.3-8.3C394,89.5,387.5,84.5,380.3,80.4z"/>
		</g>
	</g>
	<g>
		<g>
			<path d="M252.4,250l-35.2-5.9l-1.9,11.6l21.7,3.6l-34.4,25.8h-56.7c-1,0-2.1,0.3-3,0.8l-70.4,41.1l5.9,10.1
				l69.1-40.3h57.1c1.2,0,2.5-0.4,3.5-1.2l35.2-26.4l-3.5,20.7l11.6,1.9l5.9-35.2C257.8,253.5,255.6,250.5,252.4,250z"/>
		</g>
	</g>
</g>
</svg>
