<?xml version="1.0" encoding="utf-8"?>
<!-- Generator: Adobe Illustrator 25.0.1, SVG Export Plug-In . SVG Version: 6.00 Build 0)  -->
<svg version="1.1" fill="#8052FD" id="Capa_1" xmlns="http://www.w3.org/2000/svg" xmlns:xlink="http://www.w3.org/1999/xlink" x="0px" y="0px"
	 viewBox="0 0 503 503" style="enable-background:new 0 0 503 503;" xml:space="preserve">

	
	


<g transform="translate(2 1.627517)">
	<g>
		<path d="M361.5,311.1H184.3c-3.6,0-6.6-2.9-6.6-6.6c0-3.6,2.9-6.6,6.6-6.6h177.2c3.5,0,6.5-2.3,7.5-5.7l33.1-110
			c0.8-2.5,0.3-5.2-1.3-7.3c-1.5-2-3.8-3.2-6.3-3.2H169.8c-3.6,0-6.6-2.9-6.6-6.6s2.9-6.6,6.6-6.6h224.7c6.7,0,12.8,3.1,16.8,8.5
			c4.1,5.5,5.3,12.4,3.3,18.9l-33.1,110C378.9,305.1,370.8,311.1,361.5,311.1z"/>
	</g>
	<g>
		<path d="M369.7,362.6H210.8c-9.5,0-17.7-6.1-20.4-15.2l-61.9-205.9H66.9c-3.6,0-6.6-2.9-6.6-6.6s2.9-6.6,6.6-6.6h66.5
			c2.9,0,5.4,1.9,6.3,4.7l63.3,210.5c1,3.5,4.2,5.8,7.9,5.8h158.9c3.6,0,6.6,2.9,6.6,6.6C376.2,359.6,373.3,362.6,369.7,362.6z"/>
	</g>
	<g>
		<path d="M200.1,429.2c-15.3,0-27.8-12.5-27.8-27.8c0-15.3,12.5-27.8,27.8-27.8c15.3,0,27.8,12.5,27.8,27.8
			C227.9,416.8,215.4,429.2,200.1,429.2z M200.1,386.8c-8.1,0-14.6,6.6-14.6,14.6c0,8.1,6.6,14.6,14.6,14.6
			c8.1,0,14.6-6.6,14.6-14.6C214.8,393.4,208.2,386.8,200.1,386.8z"/>
	</g>
	<g>
		<path d="M345.5,429.2c-15.3,0-27.8-12.5-27.8-27.8c0-15.3,12.5-27.8,27.8-27.8c15.3,0,27.8,12.5,27.8,27.8
			C373.2,416.8,360.8,429.2,345.5,429.2z M345.5,386.8c-8.1,0-14.6,6.6-14.6,14.6c0,8.1,6.6,14.6,14.6,14.6
			c8.1,0,14.6-6.6,14.6-14.6C360.1,393.4,353.5,386.8,345.5,386.8z"/>
	</g>
</g>
</svg>
