<?xml version="1.0" encoding="utf-8"?>
<!-- Generator: Adobe Illustrator 25.0.1, SVG Export Plug-In . SVG Version: 6.00 Build 0)  -->
<svg version="1.1" fill="#8052FD" id="Layer_1" xmlns="http://www.w3.org/2000/svg" xmlns:xlink="http://www.w3.org/1999/xlink" x="0px" y="0px"
	 viewBox="0 0 512 512" style="enable-background:new 0 0 512 512;" xml:space="preserve">

	
	


<path d="M358.9,178.9c7-7,7-18.5,0-25.5l-0.2-0.2c-7-7-18.5-7-25.5,0l-0.2,0.2c-1.1,1.1-2.9,1.1-4,0l-0.2-0.2
	c-7-7-18.5-7-25.5,0l-0.2,0.2c-1.1,1.1-2.9,1.1-4,0l-0.2-0.2c-7-7-18.5-7-25.5,0l-0.2,0.2c-1.1,1.1-2.9,1.1-4,0l-0.2-0.2
	c-7-7-18.5-7-25.5,0l-0.2,0.2c-0.7,0.7-1.6,0.8-2,0.8c-0.4,0-1.3-0.1-2-0.8l-0.2-0.2c-7-7-18.5-7-25.5,0l-0.2,0.2
	c-0.7,0.7-1.6,0.8-2,0.8c-0.4,0-1.3-0.1-2-0.8l-0.2-0.2c-7-7-18.5-7-25.5,0l-0.2,0.2c-1.1,1.1-2.9,1.1-4,0l-0.2-0.2
	c-7-7-18.5-7-25.5,0l-0.2,0.2c-7,7-7,18.5,0,25.5l0.2,0.2c1.1,1.1,1.1,2.9,0,4l-0.2,0.2c-7,7-7,18.5,0,25.5l0.2,0.2
	c1.1,1.1,1.1,2.9,0,4l-0.2,0.2c-7,7-7,18.5,0,25.5l0.2,0.2c0.7,0.7,0.8,1.6,0.8,2s-0.1,1.3-0.8,2l-0.2,0.2c-7,7-7,18.5,0,25.5
	l0.2,0.2c0.7,0.7,0.8,1.6,0.8,2s-0.1,1.3-0.8,2l-0.2,0.2c-7,7-7,18.5,0,25.5l0.2,0.2c0.7,0.7,0.8,1.6,0.8,2c0,0.4-0.1,1.3-0.8,2
	l-0.2,0.2c-7,7-7,18.5,0,25.5l0.2,0.2c1.1,1.1,1.1,2.9,0,4l-0.2,0.2c-7,7-7,18.5,0,25.5l0.2,0.2c3.4,3.4,7.9,5.3,12.8,5.3
	c4.8,0,9.4-1.9,12.8-5.3l0.2-0.2c1.1-1.1,2.9-1.1,4,0l0.2,0.2c3.4,3.4,7.9,5.3,12.8,5.3c4.8,0,9.4-1.9,12.8-5.3l0.2-0.2
	c1.1-1.1,2.9-1.1,4,0l0.2,0.2c3.4,3.4,7.9,5.3,12.8,5.3s9.4-1.9,12.8-5.3l0.2-0.2c1.1-1.1,2.9-1.1,4,0l0.2,0.2
	c3.4,3.4,7.9,5.3,12.8,5.3c4.8,0,9.4-1.9,12.8-5.3l0.2-0.2c1.1-1.1,2.9-1.1,4,0l0.2,0.2c3.4,3.4,7.9,5.3,12.8,5.3
	c4.8,0,9.4-1.9,12.8-5.3l0.2-0.2c1.1-1.1,2.9-1.1,4,0l0.2,0.2c3.4,3.4,7.9,5.3,12.8,5.3c4.8,0,9.4-1.9,12.8-5.3l0.2-0.2
	c1.1-1.1,2.9-1.1,4,0l0.2,0.2c3.4,3.4,7.9,5.3,12.8,5.3c4.8,0,9.4-1.9,12.8-5.3l0.2-0.2c0,0,0,0,0,0c7-7,7-18.5,0-25.5l-0.2-0.2
	c-1.1-1.1-1.1-2.9,0-4l0.2-0.2c7-7,7-18.5,0-25.5l-0.2-0.2c-0.7-0.7-0.8-1.6-0.8-2c0-0.4,0.1-1.3,0.8-2l0.2-0.2c7-7,7-18.5,0-25.5
	l-0.2-0.2c-0.7-0.7-0.8-1.6-0.8-2c0-0.4,0.1-1.3,0.8-2l0.2-0.2c7-7,7-18.5,0-25.5l-0.2-0.2c-0.7-0.7-0.8-1.6-0.8-2
	c0-0.4,0.1-1.3,0.8-2l0.2-0.2c7-7,7-18.5,0-25.5l-0.2-0.2c-1.1-1.1-1.1-2.9,0-4l0.2-0.2c7-7,7-18.5,0-25.5l-0.2-0.2
	c-1.1-1.1-1.1-2.9,0-4L358.9,178.9z M347.9,253.8l0.2,0.2c0.7,0.7,0.8,1.6,0.8,2s-0.1,1.3-0.8,2l-0.2,0.2c-7,7-7,18.5,0,25.5
	l0.2,0.2c1.1,1.1,1.1,2.9,0,4l-0.2,0.2c-7,7-7,18.5,0,25.5l0.2,0.2c1.1,1.1,1.1,2.9,0,4l-0.2,0.2c-7,7-7,18.5,0,25.5l0.2,0.2
	c1.1,1.1,1.1,2.9,0,4l-0.2,0.2c-0.7,0.7-1.6,0.8-2,0.8c-0.4,0-1.3-0.1-2-0.8l-0.2-0.2c-3.5-3.5-8.1-5.3-12.8-5.3
	c-4.6,0-9.2,1.8-12.8,5.3l-0.2,0.2c-0.7,0.7-1.6,0.8-2,0.8c-0.4,0-1.3-0.1-2-0.8l-0.2-0.2c-7-7-18.5-7-25.5,0l-0.2,0.2
	c-0.7,0.7-1.6,0.8-2,0.8c-0.4,0-1.3-0.1-2-0.8l-0.2-0.2c-7-7-18.5-7-25.5,0l-0.2,0.2c-0.7,0.7-1.6,0.8-2,0.8s-1.3-0.1-2-0.8
	l-0.2-0.2c-7-7-18.5-7-25.5,0l-0.2,0.2c-0.7,0.7-1.6,0.8-2,0.8c-0.4,0-1.3-0.1-2-0.8l-0.2-0.2c-7-7-18.5-7-25.5,0l-0.2,0.2
	c-0.7,0.7-1.6,0.8-2,0.8c-0.4,0-1.3-0.1-2-0.8l-0.2-0.2c-7-7-18.5-7-25.5,0l-0.2,0.2c-0.7,0.7-1.6,0.8-2,0.8c-0.4,0-1.3-0.1-2-0.8
	l-0.2-0.2c-1.1-1.1-1.1-2.9,0-4l0.2-0.2c7-7,7-18.5,0-25.5l-0.2-0.2c-1.1-1.1-1.1-2.9,0-4l0.2-0.2c7-7,7-18.5,0-25.5l-0.2-0.2
	c-1.1-1.1-1.1-2.9,0-4l0.2-0.2c7-7,7-18.5,0-25.5l-0.2-0.2c-0.7-0.7-0.8-1.6-0.8-2s0.1-1.3,0.8-2l0.2-0.2c7-7,7-18.5,0-25.5
	l-0.2-0.2c-0.7-0.7-0.8-1.6-0.8-2c0-0.4,0.1-1.3,0.8-2l0.2-0.2c7-7,7-18.5,0-25.5l-0.2-0.2c-1.1-1.1-1.1-2.9,0-4l0.2-0.2
	c7-7,7-18.5,0-25.5l-0.2-0.2c-0.7-0.7-0.8-1.6-0.8-2c0-0.4,0.1-1.3,0.8-2l0.2-0.2c1.1-1.1,2.9-1.1,4,0l0.2,0.2c7,7,18.5,7,25.5,0
	l0.2-0.2c1.1-1.1,2.9-1.1,4,0l0.2,0.2c7,7,18.5,7,25.5,0l0.2-0.2c0.7-0.7,1.6-0.8,2-0.8s1.3,0.1,2,0.8l0.2,0.2c7,7,18.5,7,25.5,0
	l0.2-0.2c0.7-0.7,1.6-0.8,2-0.8c0.4,0,1.3,0.1,2,0.8l0.2,0.2c7,7,18.5,7,25.5,0l0.2-0.2c0.7-0.7,1.6-0.8,2-0.8c0.4,0,1.3,0.1,2,0.8
	l0.2,0.2c7,7,18.5,7,25.5,0l0.2-0.2c1.1-1.1,2.9-1.1,4,0l0.2,0.2c7,7,18.5,7,25.5,0l0.2-0.2c1.1-1.1,2.9-1.1,4,0l0.2,0.2
	c1.1,1.1,1.1,2.9,0,4l-0.2,0.2c-7,7-7,18.5,0,25.5l0.2,0.2c1.1,1.1,1.1,2.9,0,4l-0.2,0.2c-7,7-7,18.5,0,25.5l0.2,0.2
	c0.7,0.7,0.8,1.6,0.8,2c0,0.4-0.1,1.3-0.8,2l-0.2,0.2C340.8,235.3,340.8,246.7,347.9,253.8z"/>
<path d="M447.7,249.7l-38.8-27c-2.3-1.6-5.4-1.8-7.9-0.5c-2.5,1.3-4.1,3.9-4.1,6.8v4.5h-12.6c-4.2,0-7.6,3.4-7.6,7.6
	v30.5c0,4.2,3.4,7.6,7.6,7.6h12.6v3.9c0,2.8,1.6,5.4,4.1,6.8c1.1,0.6,2.3,0.9,3.5,0.9c1.5,0,3.1-0.5,4.4-1.4l38.8-27
	c2-1.4,3.3-3.8,3.3-6.3C451,253.5,449.8,251.2,447.7,249.7z M411.7,268.8c-1.1-2.9-3.9-4.9-7.1-4.9H392v-15.2h12.6
	c3.4,0,6.3-2.3,7.3-5.4l18.2,12.7L411.7,268.8z"/>
<path d="M283,396.9h-4.5v-12.6c0-4.2-3.4-7.6-7.6-7.6h-30.5c-4.2,0-7.6,3.4-7.6,7.6v12.6H229c-2.8,0-5.4,1.6-6.8,4.1
	c-1.3,2.5-1.1,5.5,0.5,7.9l27,38.8c1.4,2,3.8,3.3,6.3,3.3c2.5,0,4.8-1.2,6.3-3.3l27-38.8c1.6-2.3,1.8-5.4,0.5-7.9
	C288.5,398.5,285.9,396.9,283,396.9z M256,430.1l-12.8-18.4c2.9-1.1,4.9-3.9,4.9-7.1V392h15.2v12.6c0,3.4,2.3,6.3,5.4,7.3L256,430.1
	z"/>
<path d="M127.7,233.4h-12.6V229c0-2.8-1.6-5.4-4.1-6.8c-2.5-1.3-5.6-1.1-7.9,0.5l-38.8,27c-2,1.4-3.3,3.8-3.3,6.3
	s1.2,4.8,3.3,6.3l38.8,27c1.3,0.9,2.8,1.4,4.4,1.4c1.2,0,2.4-0.3,3.5-0.9c2.5-1.3,4.1-3.9,4.1-6.8v-3.9h12.6c4.2,0,7.6-3.4,7.6-7.6
	v-30.5C135.3,236.9,131.9,233.4,127.7,233.4z M120,263.9h-12.6c-3.2,0-6,2-7.1,4.9L81.9,256l18.2-12.7c1,3.1,3.9,5.4,7.3,5.4H120
	V263.9z"/>
<path d="M229,115.1h3.9v12.6c0,4.2,3.4,7.6,7.6,7.6h30.5c4.2,0,7.6-3.4,7.6-7.6v-12.6h4.5c2.8,0,5.4-1.6,6.8-4.1
	c1.3-2.5,1.1-5.6-0.5-7.9l-27-38.8c-1.4-2-3.8-3.3-6.3-3.3s-4.8,1.2-6.3,3.3l-27,38.8c-1.6,2.3-1.8,5.4-0.5,7.9
	C223.5,113.5,226.1,115.1,229,115.1z M256,81.9l12.7,18.2c-3.1,1-5.4,3.9-5.4,7.3V120h-15.2v-12.6c0-3.2-2-6-4.9-7.1L256,81.9z"/>
<path d="M198.4,222.9c-4.2,0-7.6,3.4-7.6,7.6v80.7c0,4.2,3.4,7.6,7.6,7.6s7.6-3.4,7.6-7.6v-80.7
	C206,226.3,202.6,222.9,198.4,222.9z"/>
<path d="M198.4,207.6c2,0,4-0.8,5.4-2.2c1.4-1.4,2.2-3.4,2.2-5.4c0-2-0.8-4-2.2-5.4c-1.4-1.4-3.4-2.2-5.4-2.2
	c-2,0-4,0.8-5.4,2.2c-1.4,1.4-2.2,3.4-2.2,5.4c0,2,0.8,4,2.2,5.4C194.4,206.8,196.4,207.6,198.4,207.6z"/>
</svg>
