<?xml version="1.0" encoding="utf-8"?>
<!-- Generator: Adobe Illustrator 25.0.1, SVG Export Plug-In . SVG Version: 6.00 Build 0)  -->
<svg version="1.1" fill="#8052FD" id="Layer_1" xmlns="http://www.w3.org/2000/svg" xmlns:xlink="http://www.w3.org/1999/xlink" x="0px" y="0px"
	 viewBox="0 0 512 512" style="enable-background:new 0 0 512 512;" xml:space="preserve">
<path d="M22.1,198.1l0.4,0.2c3.4,1.6,7.8,0,9.4-3.4c0.8-1.7,0.9-3.7,0.3-5.4c-0.7-1.7-1.9-3.2-3.7-4
	c-2.1-0.9-4-1-5.7-0.5c-1.8,0.7-3.2,1.9-4,3.7c-0.8,1.7-0.9,3.6-0.3,5.4C19.1,195.8,20.4,197.3,22.1,198.1L22.1,198.1z M256.8,281.9
	c82.8,0,165.6,14.9,228.7,44.8c3.5,1.6,7.8,0,9.4-3.4c1.7-3.5,0.2-7.7-3.4-9.4c-13.9-6.6-29.2-12.6-45.2-18l-1.6-0.6v-20.7
	c0-3.9-3.2-7.1-7.1-7.1c-3.9,0-7.1,3.2-7.1,7.1v16.3l-3-0.8c-48.5-13.8-104.3-21.6-161.3-22.3h-2.4v-23.6h2.4
	c4.2-0.1,8.4-0.2,12.6-0.3c19.8-0.7,39.6-2.1,58.9-4.4l2.6-0.3v13.5c0,3.9,3.2,7.1,7.1,7.1s7.1-3.2,7.1-7.1v-15.4l2-0.3
	c50.7-7.5,97.4-21,135.1-38.9c3.5-1.7,5-5.9,3.4-9.4c-1.7-3.5-5.8-5-9.4-3.4C372.3,239,190.4,245,62.5,199.4
	c-1.8-0.7-3.7-0.6-5.4,0.3c-1.7,0.8-3,2.3-3.7,4c-1.3,3.7,0.6,7.7,4.2,9c30.1,10.7,63.7,18.9,99.8,24.3l2,0.3v15.4
	c0,3.9,3.2,7.1,7.1,7.1c3.9,0,7.1-3.2,7.1-7.1v-13.5l2.6,0.3c23.3,2.7,47.3,4.3,71.2,4.6h2.4v23.6h-2.4
	c-57.1,0.8-112.8,8.5-161.3,22.3l-3,0.8v-16.3c0-3.9-3.2-7.1-7.1-7.1s-7.1,3.2-7.1,7.1v20.7l-1.6,0.6c-16,5.3-31.3,11.4-45.2,18
	c-3.5,1.7-5,5.9-3.4,9.4c1.7,3.5,5.8,5,9.4,3.4C91.2,296.9,174,281.9,256.8,281.9z M256.8,306.2c-2.4,0-4.5,1.1-5.8,3l-33.4,48
	c-1.5,2.2-1.7,5-0.5,7.3c1.2,2.4,3.6,3.8,6.3,3.8h7.9v68.5c0,3.9,3.2,7.1,7.1,7.1H276c3.9,0,7.1-3.2,7.1-7.1v-68.6h7.2
	c2.6,0,5.1-1.4,6.3-3.8c1.2-2.4,1-5.2-0.5-7.3l-33.4-48C261.3,307.3,259.2,306.2,256.8,306.2z M268.9,429.8h-23.5v-68.6
	c0-3.1-2-5.8-5-6.8l-3.1-0.9l19.4-28l19.5,28l-2.8,1c-2.7,1-4.5,3.7-4.5,6.6L268.9,429.8L268.9,429.8z M223.5,143.7
	c-2.6,0-5,1.4-6.2,3.8s-1,5.2,0.5,7.3l33.4,48c2.6,3.8,8.9,3.8,11.6,0l33.4-48c1.5-2.2,1.7-5,0.5-7.3s-3.6-3.8-6.3-3.8h-7.2V75.2
	c0-3.9-3.2-7.1-7.1-7.1h-37.7c-3.9,0-7.1,3.2-7.1,7.1v68.6H223.5z M256.8,186.4l-19.4-28l3.1-0.9c3-0.9,5-3.7,5-6.8V82.2H269v68.6
	c0,2.9,1.8,5.6,4.5,6.6l2.8,1L256.8,186.4z"/>
</svg>
