<?xml version="1.0" encoding="utf-8"?>
<!-- Generator: Adobe Illustrator 25.0.1, SVG Export Plug-In . SVG Version: 6.00 Build 0)  -->
<svg version="1.1" fill="#8052FD" id="Layer_5" xmlns="http://www.w3.org/2000/svg" xmlns:xlink="http://www.w3.org/1999/xlink" x="0px" y="0px"
	 viewBox="0 0 512 512" style="enable-background:new 0 0 512 512;" xml:space="preserve">

	
	


<g>
	<path d="M410.1,81h-54.6c-2.6,0-4.6,2.1-4.6,4.6v53l-60.7,78.6H211l-45.1-45.1v-46.3c0-2.6-2.1-4.6-4.6-4.6h-47.9
		c-2.6,0-4.6,2.1-4.6,4.6v47.9c0,2.6,2.1,4.6,4.6,4.6h45.6l45.4,45.4v79.8l-40,47.4h-40.5c-2.6,0-4.6,2.1-4.6,4.6v42.6
		c0,2.6,2.1,4.6,4.6,4.6h42.6c2.6,0,4.6-2.1,4.6-4.6v-40.9l40-47.4H290l40.5,55.5c0.1,0.1,0.1,0.1,0.2,0.2v61.7
		c0,2.6,2.1,4.6,4.6,4.6h65.4c2.6,0,4.6-2.1,4.6-4.6v-65.4c0-2.6-2.1-4.6-4.6-4.6h-64.7L297,303.7v-80.4l60.7-78.6H410
		c2.6,0,4.6-2.1,4.6-4.6V85.6C414.7,83.1,412.6,81,410.1,81z M340.1,366.5h56.2v56.2h-56.2V366.5z M118,130.3h38.7V169H118V130.3z
		 M162,393.5h-33.3v-33.3H162C162,360.2,162,393.5,162,393.5z M287.8,300.6h-74.1v-74.2h74.2L287.8,300.6L287.8,300.6z M405.4,135.6
		h-45.3V90.2h45.3V135.6z"/>
	<path d="M364.4,195.4c-2.6,0-4.6,2.1-4.6,4.6v22.3c0,2.6,2.1,4.6,4.6,4.6h22.3c2.6,0,4.6-2.1,4.6-4.6V200
		c0-2.6-2.1-4.6-4.6-4.6H364.4z M382.1,217.7H369v-13.1h13.1V217.7z"/>
	<path d="M327.1,267.2c-2.6,0-4.6,2.1-4.6,4.6v22.3c0,2.6,2.1,4.6,4.6,4.6h22.3c2.6,0,4.6-2.1,4.6-4.6v-22.3
		c0-2.6-2.1-4.6-4.6-4.6H327.1z M344.8,289.6h-13.1v-13.1h13.1V289.6z"/>
	<path d="M270.1,356.2h-22.3c-2.6,0-4.6,2.1-4.6,4.6v22.3c0,2.6,2.1,4.6,4.6,4.6h22.3c2.6,0,4.6-2.1,4.6-4.6v-22.3
		C274.7,358.3,272.6,356.2,270.1,356.2z M265.4,378.6h-13.1v-13.1h13.1V378.6z"/>
	<path d="M232.1,176.5h22.3c2.6,0,4.6-2.1,4.6-4.6v-22.3c0-2.6-2.1-4.6-4.6-4.6h-22.3c-2.6,0-4.6,2.1-4.6,4.6v22.3
		C227.5,174.4,229.5,176.5,232.1,176.5z M236.7,154.1h13.1v13.1h-13.1V154.1z"/>
	<path d="M164.4,273.2c2.6,0,4.6-2.1,4.6-4.6v-22.3c0-2.6-2.1-4.6-4.6-4.6h-22.3c-2.6,0-4.6,2.1-4.6,4.6v22.3
		c0,2.6,2.1,4.6,4.6,4.6H164.4z M146.7,250.9h13.1V264h-13.1V250.9z"/>
</g>
</svg>
