<?xml version="1.0" encoding="utf-8"?>
<!-- Generator: Adobe Illustrator 25.0.1, SVG Export Plug-In . SVG Version: 6.00 Build 0)  -->
<svg version="1.1" fill="#8052FD" id="Layer_1" xmlns="http://www.w3.org/2000/svg" xmlns:xlink="http://www.w3.org/1999/xlink" x="0px" y="0px"
	 viewBox="0 0 512 512" style="enable-background:new 0 0 512 512;" xml:space="preserve">
<path d="M391.5,302.2c2.8,0,5-2.2,5-5V141.4h11.3c6.7,0,12.1-5.4,12.1-12.1V96.6c0-6.7-5.4-12.1-12.1-12.1h-32.7
	c-6.7,0-12.1,5.4-12.1,12.1v32.7c0,6.7,5.4,12.1,12.1,12.1h11.3v150.7h-59.7v-31.2c0-4.8-2.7-9-6.6-11.2v-4.9
	c0-7.1-5.8-12.8-12.8-12.8h-7.6v-29.1c0-8-2.2-15.8-6.3-22.6c-1.4-2.4-4.5-3.1-6.9-1.7c-2.4,1.4-3.1,4.5-1.7,6.9
	c3.2,5.2,4.9,11.2,4.9,17.3v29.1H282v-29.1c0-14.2-11.5-25.7-25.7-25.7s-25.7,11.5-25.7,25.7v29.1h-7.7v-29.1
	c0-18.4,15-33.3,33.3-33.3c4.6,0,9.1,0.9,13.3,2.8c2.5,1.1,5.5-0.1,6.6-2.6c1.1-2.5-0.1-5.5-2.6-6.6c-5.5-2.4-11.3-3.6-17.3-3.6
	c-23.9,0-43.4,19.5-43.4,43.4v29.1h-7.6c-7.1,0-12.8,5.8-12.8,12.8v4.9c-4,2.2-6.6,6.4-6.6,11.2v31.2h-59.7V141.4h11.3
	c6.7,0,12.1-5.4,12.1-12.1V96.6c0-6.7-5.4-12.1-12.1-12.1h-32.7c-6.7,0-12.1,5.4-12.1,12.1v32.7c0,6.7,5.4,12.1,12.1,12.1H116v155.8
	c0,2.8,2.2,5,5,5h65.4c0.6,4.1,1.5,8.1,2.7,12H121c-2.8,0-5,2.3-5,5v51.4h-11.3c-6.7,0-12.1,5.4-12.1,12.1v32.7
	c0,6.7,5.4,12.1,12.1,12.1h32.7c6.7,0,12.1-5.4,12.1-12.1v-32.7c0-6.7-5.4-12.1-12.1-12.1h-11.3v-46.4h67.2
	c11.6,23.1,35.5,39,63.1,39c11.7,0,23.4-3,33.6-8.5c2.4-1.3,3.3-4.4,2-6.8c-1.3-2.4-4.4-3.3-6.8-2c-8.8,4.8-18.8,7.3-28.8,7.3
	c-33.3,0-60.4-27.1-60.4-60.4v-31.9c0-1.5,1.2-2.8,2.8-2.8h14.6c2.8,0,5-2.3,5-5c0-2.8-2.3-5-5-5h-10.7v-3.3c0-1.5,1.2-2.8,2.8-2.8
	h102c1.5,0,2.8,1.2,2.8,2.8v3.3h-73.7c-2.8,0-5,2.2-5,5c0,2.8,2.2,5,5,5h77.6c1.5,0,2.8,1.2,2.8,2.8v31.9c0,14.6-5.3,28.7-14.8,39.7
	c-1.8,2.1-1.6,5.3,0.5,7.1c1,0.8,2.1,1.2,3.3,1.2c1.4,0,2.8-0.6,3.8-1.7c3.9-4.5,7.2-9.5,9.9-14.8h67.2v46.4h-11.3
	c-6.7,0-12.1,5.4-12.1,12.1v32.7c0,6.7,5.4,12.1,12.1,12.1h32.7c6.7,0,12.1-5.4,12.1-12.1v-32.7c0-6.7-5.4-12.1-12.1-12.1h-11.3
	v-51.4c0-2.8-2.3-5-5-5h-68.1c1.2-3.9,2.2-7.9,2.7-12H391.5z M373.1,129.2V96.6c0-1.1,0.9-2.1,2.1-2.1h32.7c1.1,0,2.1,0.9,2.1,2.1
	v32.7c0,1.1-0.9,2.1-2.1,2.1h-32.7C374,131.3,373.1,130.4,373.1,129.2z M102.6,129.2V96.6c0-1.1,0.9-2.1,2.1-2.1h32.7
	c1.1,0,2.1,0.9,2.1,2.1v32.7c0,1.1-0.9,2.1-2.1,2.1h-32.7C103.6,131.3,102.6,130.4,102.6,129.2z M139.5,382.8v32.7
	c0,1.1-0.9,2.1-2.1,2.1h-32.7c-1.1,0-2.1-0.9-2.1-2.1v-32.7c0-1.1,0.9-2.1,2.1-2.1h32.7C138.5,380.7,139.5,381.6,139.5,382.8z
	 M240.6,202.8c0-8.6,7-15.6,15.6-15.6c8.6,0,15.6,7,15.6,15.6v29.1h-31.3V202.8z M409.9,382.8v32.7c0,1.1-0.9,2.1-2.1,2.1h-32.7
	c-1.1,0-2.1-0.9-2.1-2.1v-32.7c0-1.1,0.9-2.1,2.1-2.1h32.7C409,380.7,409.9,381.6,409.9,382.8z"/>
<path d="M236.2,109.6c5.7-4.7,12.7-7.1,20.1-7.1c7.4,0,14.3,2.5,20.1,7.1c0.9,0.8,2.1,1.1,3.2,1.1
	c1.5,0,2.9-0.6,3.9-1.9c1.8-2.2,1.4-5.3-0.7-7.1c-7.4-6.1-16.8-9.4-26.4-9.4c-9.6,0-19,3.3-26.4,9.4c-2.2,1.8-2.5,4.9-0.7,7.1
	C230.9,111,234.1,111.3,236.2,109.6z"/>
<path d="M275.5,120.8c1.8-2.2,1.4-5.3-0.7-7.1c-5.2-4.3-11.8-6.6-18.5-6.6c-6.7,0-13.3,2.3-18.5,6.6
	c-2.2,1.8-2.5,4.9-0.7,7.1c1.8,2.2,4.9,2.5,7.1,0.7c3.5-2.8,7.7-4.3,12.2-4.3c4.5,0,8.7,1.5,12.2,4.3c0.9,0.8,2.1,1.1,3.2,1.1
	C273.1,122.6,274.5,122,275.5,120.8z"/>
<path d="M268,131.9c1.8-2.2,1.4-5.3-0.7-7.1c-3.1-2.5-7-3.9-11-3.9c-4,0-7.9,1.4-11,3.9c-2.2,1.8-2.5,4.9-0.7,7.1
	c1.8,2.2,4.9,2.5,7.1,0.7c1.3-1.1,2.9-1.6,4.6-1.6c1.7,0,3.3,0.6,4.6,1.6c0.9,0.8,2.1,1.1,3.2,1.1C265.5,133.7,267,133.1,268,131.9z
	"/>
<path d="M256.3,136L256.3,136c-2.8,0-5.1,2.2-5.1,5c0,2.8,2.3,5,5.1,5c2.8,0,5-2.3,5-5C261.3,138.2,259.1,136,256.3,136
	z"/>
<path d="M229.3,386.7h16.1c2.8,0,5-2.2,5-5c0-2.8-2.2-5-5-5h-16.1c-2.8,0-5,2.3-5,5
	C224.2,384.5,226.5,386.7,229.3,386.7z"/>
<path d="M283.3,396h-54c-2.8,0-5,2.2-5,5c0,2.8,2.3,5,5,5h54c2.8,0,5-2.3,5-5C288.3,398.3,286.1,396,283.3,396z"/>
<path d="M283.3,410h-54c-2.8,0-5,2.3-5,5c0,2.8,2.3,5,5,5h54c2.8,0,5-2.2,5-5C288.3,412.3,286.1,410,283.3,410z"/>
<path d="M256.3,327.3c7.4,0,13.4-6,13.4-13.4v-9.4c4-3.7,6.3-8.9,6.3-14.4c0-5.6-2.4-11-6.6-14.7
	c-4.2-3.7-9.8-5.5-15.4-4.9c-9.1,1-16.4,8.3-17.4,17.4c-0.7,6.3,1.6,12.4,6.2,16.7v9.4C242.9,321.3,248.9,327.3,256.3,327.3z
	 M246.7,288.9c0.5-4.4,4.1-8,8.5-8.5c0.4,0,0.8-0.1,1.1-0.1c2.4,0,4.6,0.9,6.4,2.5c2,1.8,3.2,4.5,3.2,7.2c0,3.2-1.5,6.1-4.1,7.9
	c-1.3,0.9-2.1,2.5-2.1,4.1v11.8c0,1.9-1.5,3.4-3.4,3.4c-1.9,0-3.4-1.5-3.4-3.4v-11.8c0-1.6-0.8-3.2-2.2-4.1
	C247.8,295.9,246.3,292.5,246.7,288.9z"/>
</svg>
