<?xml version="1.0" encoding="utf-8"?>
<!-- Generator: Adobe Illustrator 25.0.1, SVG Export Plug-In . SVG Version: 6.00 Build 0)  -->
<svg version="1.1" fill="#8052FD" id="Layer_1" xmlns="http://www.w3.org/2000/svg" xmlns:xlink="http://www.w3.org/1999/xlink" x="0px" y="0px"
	 viewBox="0 0 512 512" style="enable-background:new 0 0 512 512;" xml:space="preserve">

	
	


<path d="M376.7,217c-2.3,0-4.2,1.9-4.2,4.2s1.9,4.2,4.2,4.2c7.2,0,28.1,1.1,38.4,6.3c1,0.5,2.1,0.6,3.2,0.3
	c1.1-0.3,1.9-1.1,2.5-2.2c0.5-1,0.6-2.1,0.2-3.2c-0.3-1.1-1.1-1.9-2.1-2.3l0,0C404.7,217.1,377.9,217,376.7,217z M418.7,312.7
	l1.3,0.7c0.7,0.3,1.5,0.8,2.3,0.9l25.9,7.4c6.9,2,11.5,8.2,11.5,15.3v51.9c0,2.3,1.9,4.2,4.2,4.2c2.3,0,4.2-1.9,4.2-4.2V337
	c0-10.8-7.3-20.4-17.7-23.4l-25.9-7.4c-2-0.7-3.4-2.5-3.4-4.5v-9.7l0.9-0.6c1.8-1.3,3.7-2.8,5.8-4.7c8.6-8.3,13.6-19.9,13.5-31.9
	v-12.4l2.8-5.4c2.6-5.2,3.9-11,3.9-16.9v-32.3c0-2.3-1.9-4.2-4.2-4.2h-60.4c-20.8,0-37.7,16.9-37.7,37.7v0.4c0,4.9,1.2,9.6,3.3,13.9
	l3.4,6.9v10.5c0,15,7.2,29.1,19.3,37.9l0.8,0.6v10.1c0,3.3-1.9,4.1-6.7,5.4l-13.3,3.8l-38.7-14.1l0.2-1.6c0.1-1.1-0.3-2.3-1.1-3.2
	l-12.3-12.9v-22.4l0.8-0.7c1.2-0.9,2.3-2,3.4-3c14.3-13.5,22.5-32.4,22.5-52.1v-17l0.2-0.4c4.3-9.1,6.5-19.4,6.5-29.6V87
	c0-2.3-1.9-4.2-4.2-4.2h-93.8c-31.9,0-57.8,25.9-57.8,57.9v13.4c0,10.3,2.2,20.3,6.5,29.7l0.2,0.4v14.5c-0.1,22,9.5,42.8,26.1,57
	l0.8,0.6v22.9l-12.3,12.9c-0.8,0.8-1.2,2-1.1,3.1l0.2,1.6l-40.2,14.6c-2.7,1-5,2.3-7.3,3.8l-1,0.8l-11.1-5.6l4.1-1.8
	c17.4-7.5,22.8-18,23-18.4c0.6-1.2,0.6-2.6,0-3.7c-4.9-9.6-5.4-27.1-5.8-39.9c0-1-0.1-1.9-0.1-2.8c-0.1-3.3-0.3-6.5-0.5-9.4
	c-2.1-29-24.1-50.9-51.1-50.9s-49.1,21.8-51.2,50.8c-0.3,3.8-0.4,8-0.6,12.3c-0.4,12.7-0.9,30.2-5.8,39.8c-0.6,1.2-0.6,2.6,0,3.7
	l0.1,0.2c0,0.1,5.4,10.7,23,18.3l4.1,1.8l-20.8,10.5c-8.1,3.9-13.4,12.5-13.4,21.7v46.4c0,2.3,1.9,4.2,4.2,4.2s4.2-1.9,4.2-4.2
	v-46.4c0-6.1,3.3-11.5,8.8-14.2l22.3-11.1l8.4,8c9.4,9,24.1,9,33.6,0l8.4-8l10.2,5.1l-1.2,1.9c-3.1,4.9-4.7,10.6-4.7,16.4v48.3
	c0,2.3,1.9,4.2,4.2,4.2s4.2-1.9,4.2-4.2v-48.4c0-9.5,6-18.1,15-21.3l42.2-15.4l17.8,26.8c1.8,2.8,4.8,4.5,8,4.8h0.3
	c0.3,0.1,0.5,0.1,0.9,0.1c2.9,0,5.7-1.2,7.7-3.2l14-14v70.4c0,2.3,1.9,4.2,4.2,4.2s4.2-1.9,4.2-4.2v-70.4l14,14
	c2.1,2.1,4.9,3.2,7.7,3.2c0.4,0,0.7,0,0.9-0.1h0.3c3.2-0.3,6.1-2.1,8-4.8l17.8-26.8l42.2,15.4c9,3.2,14.9,11.8,14.9,21.3v48.3
	c0,2.3,1.9,4.2,4.2,4.2c2.3,0,4.2-1.9,4.2-4.2v-48.3c0-8-3.2-15.8-8.7-21.5l-2.5-2.6l5-1.3c2-0.5,3.9-1.3,5.5-2l1.3-0.6l17.6,17.6
	v58.7c0,2.3,1.9,4.2,4.2,4.2c2.3,0,4.2-1.9,4.2-4.2V330L418.7,312.7z M230.3,327.2c-0.3,0-0.4,0-0.7-0.1c-0.4-0.1-0.8-0.3-1.3-0.7
	l-0.3-0.3l-20.4-30.7l8.6-9.1l33.1,22.7L232,326.5C231.6,327,231,327.2,230.3,327.2z M281.9,327.2c-0.3,0-1.1,0-1.8-0.7l-17.5-17.5
	l33.1-22.7l8.6,9.1l-20.5,30.9l-0.2,0.2l-1.5-1.5l1.5,1.5C283.2,327,282.6,327.2,281.9,327.2z M108.5,323.5c-3.9,0-7.9-1.5-11-4.4
	l-7-6.6l0.8-1.4c0.8-1.6,1.3-3.3,1.3-5.1v-9.5l2.8,0.8c8.6,2.8,17.8,2.8,26.4,0l2.8-0.8v9.5c0,1.8,0.4,3.6,1.3,5.1l0.8,1.4l-6.9,6.6
	C116.3,322,112.4,323.5,108.5,323.5z M396.9,322.6l-16.5-16.5l0.3-1.1c0.3-1.3,0.4-2.3,0.4-3.3v-5.6l2.8,0.9c3.8,1.3,7.9,2,11.9,2.1
	h1.4c4.6,0,9-0.7,13.1-2l2.8-0.8v5.4c0,1,0.1,1.9,0.4,3.3l0.3,1.1L396.9,322.6z M132.8,303.6v-11.6l0.9-0.6
	c7-4.9,12.5-11.6,15.7-19.5l3-7.2l1,7.8c0.7,5.1,1.8,10,3.5,14.6l0.4,1.1l-0.8,0.9c-2.6,3.2-8.8,9.2-21,13.6L132.8,303.6z
	 M84.1,303.5l-2.8-1c-12.1-4.4-18.4-10.3-21.1-13.6l-0.8-0.9l0.4-1.1c1.7-4.5,2.8-9.5,3.5-14.6l1-7.8l3,7.2
	c3.3,7.9,8.7,14.6,15.8,19.5l0.9,0.6L84.1,303.5L84.1,303.5z M256.1,303.3L220,278.6v-16.3l3.1,1.7c8.6,4.7,18.4,7.4,28.3,8.1
	c1.6,0.1,3.3,0.2,4.8,0.2c11.4,0,22.8-2.8,32.9-8l3.1-1.6v16L256.1,303.3z M396.8,290.8c-0.3,0-0.7,0-1,0c-19.3-0.5-35-17.5-35-37.7
	v-11.8c0-0.7-0.2-1.3-0.5-2l-3.8-7.7c-1.6-3.1-2.4-6.6-2.4-10.1v-0.3c0-16.2,13.1-29.4,29.4-29.4h56.2v28.1c0,4.5-1.1,9-3.1,13.1
	l-3.2,6.4c-0.3,0.6-0.4,1.3-0.4,1.9v13.4c0,9.7-4,19.2-11,25.9C415.2,287.2,406.3,290.8,396.8,290.8z M108.6,290.7
	c-0.1,0-0.1,0-0.2,0c-19.9,0-36.1-16.2-36.1-36.1c0-2.3-1.8-4.2-4.1-4.2c-0.2,0-0.5,0-0.6,0l-2.6,0.7v-2.7c0-0.5,0-1.2,0.1-1.8
	c0.1-1.2,0.1-2.3,0.1-3.5c0.1-3,0.2-5.8,0.4-8.4c0.7-11.5,5.4-22.3,13.3-30.6c15.7-16.3,41.8-16.7,58.1-1l0.9,0.9
	c8,8.4,12.6,19.2,13.3,30.6c0.3,3.5,0.4,7.5,0.5,12v8.2L148,249c-6.6-10.2-16.7-17.5-29.9-21.8c-7.4-2.4-15.2-3.7-23.2-3.7
	c-1.1,0.1-2.2,0.5-2.9,1.3l-11.3,11.7c-1.6,1.7-1.6,4.3,0.1,5.9c1.7,1.6,4.3,1.6,5.9-0.1L97,231.9l0.9,0.1
	c4.4,0.3,13.1,1.2,22.1,4.9c11.4,4.7,19.5,12.1,24,22.2l0.3,0.6l-0.1,0.6C141.4,277.9,126.5,290.7,108.6,290.7z M256,264
	c-1.4,0-2.9-0.1-4.4-0.2c-32.8-2.1-58.5-30.6-58.5-65v-15.6c0-0.6-0.2-1.2-0.5-1.9c-4.1-8.4-6.3-17.8-6.3-27.2v-13.4
	c0-27.2,22.2-49.5,49.5-49.5h89.8v62.9c0,9.4-2.2,18.8-6.4,27.3c-0.3,0.5-0.4,1.1-0.4,1.9V201c0.1,17.3-7.2,34-19.9,45.9
	c-1.6,1.5-3.3,2.9-4.9,4.2l-0.2,0.2C283,259.5,269.7,264,256,264z M437.1,344.5c-2.3,0-4.2,1.9-4.2,4.2v40.3c0,2.3,1.9,4.2,4.2,4.2
	s4.2-1.9,4.2-4.2v-40.3C441.3,346.3,439.4,344.5,437.1,344.5z M74.9,352.8c-2.3,0-4.2,1.9-4.2,4.2v32c0,2.3,1.9,4.2,4.2,4.2
	s4.2-1.9,4.2-4.2v-32C79.1,354.7,77.2,352.8,74.9,352.8z M246,139.9c-12.8,0-24.4,1.3-31.9,2.4c-5.3,0.8-9.3,5.4-9.2,10.7v14.5
	c0,2.3,1.9,4.2,4.2,4.2s4.2-1.9,4.2-4.2v-14.4c0-1.2,0.8-2.3,2.2-2.5c6.5-1,23.4-3.2,41.1-2c20.1,1.3,34.7,6.4,43.5,15.1
	c0.8,0.8,1.8,1.1,3,1.1c1.1-0.1,2.1-0.5,2.8-1.3c1.5-1.6,1.4-4.1,0-5.7C291.7,143.5,267.2,139.9,246,139.9z M182.3,357.9
	c-2.3,0-4.2,1.9-4.2,4.2V389c0,2.3,1.9,4.2,4.2,4.2s4.2-1.9,4.2-4.2v-26.9C186.5,359.8,184.6,357.9,182.3,357.9z M329.9,357.9
	c-2.3,0-4.2,1.9-4.2,4.2V389c0,2.3,1.9,4.2,4.2,4.2c2.3,0,4.2-1.9,4.2-4.2v-26.9C334.1,359.8,332.2,357.9,329.9,357.9z"/>
</svg>
