<?xml version="1.0" encoding="utf-8"?>
<!-- Generator: Adobe Illustrator 25.0.1, SVG Export Plug-In . SVG Version: 6.00 Build 0)  -->
<svg version="1.1" fill="#8052FD" id="Layer_1" xmlns="http://www.w3.org/2000/svg" xmlns:xlink="http://www.w3.org/1999/xlink" x="0px" y="0px"
	 viewBox="0 0 512 512" style="enable-background:new 0 0 512 512;" xml:space="preserve">

	
	


<path d="M256,387.3c-72.4,0-131.3-58.9-131.3-131.3S183.6,124.7,256,124.7S387.3,183.6,387.3,256S328.4,387.3,256,387.3
	z M256,137.8c-65.2,0-118.2,53-118.2,118.2s53,118.2,118.2,118.2s118.2-53,118.2-118.2S321.2,137.8,256,137.8z"/>
<path d="M256,453c-3.6,0-6.6-2.9-6.6-6.6V407c0-3.6,2.9-6.6,6.6-6.6s6.6,2.9,6.6,6.6v39.4
	C262.6,450.1,259.6,453,256,453z"/>
<path d="M256,111.5c-3.6,0-6.6-2.9-6.6-6.6V65.6c0-3.6,2.9-6.6,6.6-6.6s6.6,2.9,6.6,6.6V105
	C262.6,108.6,259.6,111.5,256,111.5z"/>
<path d="M105,262.6H65.6c-3.6,0-6.6-2.9-6.6-6.6s2.9-6.6,6.6-6.6H105c3.6,0,6.6,2.9,6.6,6.6S108.6,262.6,105,262.6z"/>
<path d="M446.4,262.6H407c-3.6,0-6.6-2.9-6.6-6.6s2.9-6.6,6.6-6.6h39.4c3.6,0,6.6,2.9,6.6,6.6S450.1,262.6,446.4,262.6z
	"/>
<path d="M223.2,354.5c-1,0-2-0.2-3-0.7c-2.7-1.4-4.1-4.4-3.4-7.3l17.8-77.3h-31.1c-2.6,0-4.9-1.5-6-3.8
	c-1.1-2.3-0.7-5.1,1-7l85.4-98.5c2-2.3,5.3-2.9,7.9-1.6c2.7,1.4,4.1,4.4,3.4,7.3l-17.8,77.3h31.1c2.6,0,4.9,1.5,6,3.8
	c1.1,2.3,0.7,5.1-1,7l-85.4,98.5C226.9,353.7,225,354.5,223.2,354.5z M217.8,256h25c2,0,3.9,0.9,5.1,2.5c1.2,1.6,1.7,3.6,1.3,5.6
	l-13.8,59.6l58.6-67.7h-25c-2,0-3.9-0.9-5.1-2.5c-1.2-1.6-1.7-3.6-1.3-5.6l13.8-59.6L217.8,256z"/>
<path d="M390.7,397.2c-1.7,0-3.4-0.6-4.6-1.9l-27.9-27.9c-2.6-2.6-2.6-6.7,0-9.3c2.6-2.6,6.7-2.6,9.3,0l27.9,27.9
	c2.6,2.6,2.6,6.7,0,9.3C394,396.6,392.3,397.2,390.7,397.2z"/>
<path d="M149.2,155.8c-1.7,0-3.4-0.6-4.6-1.9L116.7,126c-2.6-2.6-2.6-6.7,0-9.3c2.6-2.6,6.7-2.6,9.3,0l27.9,27.9
	c2.6,2.6,2.6,6.7,0,9.3C152.6,155.1,150.9,155.8,149.2,155.8z"/>
<path d="M121.3,397.2c-1.7,0-3.4-0.6-4.6-1.9c-2.6-2.6-2.6-6.7,0-9.3l27.9-27.9c2.6-2.6,6.7-2.6,9.3,0
	c2.6,2.6,2.6,6.7,0,9.3L126,395.3C124.7,396.6,123,397.2,121.3,397.2z"/>
<path d="M362.8,155.8c-1.7,0-3.4-0.6-4.6-1.9c-2.6-2.6-2.6-6.7,0-9.3l27.9-27.9c2.6-2.6,6.7-2.6,9.3,0
	c2.6,2.6,2.6,6.7,0,9.3l-27.9,27.9C366.2,155.1,364.5,155.8,362.8,155.8z"/>
</svg>
