<?xml version="1.0" encoding="utf-8"?>
<!-- Generator: Adobe Illustrator 25.0.1, SVG Export Plug-In . SVG Version: 6.00 Build 0)  -->
<svg version="1.1" fill="#8052FD" id="Capa_1" xmlns="http://www.w3.org/2000/svg" xmlns:xlink="http://www.w3.org/1999/xlink" x="0px" y="0px"
	 viewBox="0 0 512 512" style="enable-background:new 0 0 512 512;" xml:space="preserve">

	
	


<g>
	<path d="M141.4,144.5c-14.6,0-26.5,11.9-26.5,26.5s11.9,26.5,26.5,26.5c14.6,0,26.5-11.9,26.5-26.5
		S155.9,144.5,141.4,144.5z M141.4,185.7c-8.1,0-14.7-6.6-14.7-14.7s6.6-14.7,14.7-14.7c8.1,0,14.7,6.6,14.7,14.7
		S149.5,185.7,141.4,185.7z"/>
	<circle cx="373.6" cy="162.2" r="5.9"/>
	<circle cx="350.1" cy="162.2" r="5.9"/>
	<circle cx="385.3" cy="179.8" r="5.9"/>
	<circle cx="361.8" cy="179.8" r="5.9"/>
	<circle cx="326.5" cy="162.2" r="5.9"/>
	<circle cx="338.3" cy="179.8" r="5.9"/>
	<circle cx="303" cy="162.2" r="5.9"/>
	<circle cx="314.8" cy="179.8" r="5.9"/>
	<circle cx="279.5" cy="162.2" r="5.9"/>
	<circle cx="291.3" cy="179.8" r="5.9"/>
	<path d="M432.4,205.6v-69.3c0-14.9-12.2-27.1-27.1-27.1H106.7c-14.9,0-27.1,12.2-27.1,27.1v69.3
		c0,8.6,4.1,16.2,10.4,21.2c-6.3,5-10.4,12.6-10.4,21.2v69.3c0,14.9,12.2,27.1,27.1,27.1H256h149.3c14.9,0,27.1-12.2,27.1-27.1V248
		c0-8.6-4.1-16.2-10.4-21.2C428.2,221.9,432.4,214.2,432.4,205.6z M420.6,248v69.3c0,8.5-6.9,15.3-15.3,15.3H106.7
		c-8.5,0-15.3-6.9-15.3-15.3V248c0-8.5,6.9-15.3,15.3-15.3h298.5C413.7,232.7,420.6,239.6,420.6,248z M106.7,220.9
		c-8.5,0-15.3-6.9-15.3-15.3v-69.3c0-8.5,6.9-15.3,15.3-15.3h298.5c8.5,0,15.3,6.9,15.3,15.3v69.3c0,8.5-6.9,15.3-15.3,15.3
		L106.7,220.9L106.7,220.9z"/>
	<path d="M141.4,309.1c14.6,0,26.5-11.9,26.5-26.5s-11.9-26.5-26.5-26.5c-14.6,0-26.5,11.9-26.5,26.5
		S126.8,309.1,141.4,309.1z M141.4,268c8.1,0,14.7,6.6,14.7,14.7s-6.6,14.7-14.7,14.7c-8.1,0-14.7-6.6-14.7-14.7
		S133.3,268,141.4,268z"/>
	<path d="M264.7,405.5c1.3,0.8,2.6,1.7,3.7,2.8c1.1,1.1,2.6,1.7,4.1,1.7c1.5,0,3-0.6,4.2-1.8c2.3-2.3,2.2-6-0.1-8.3
		c-1.8-1.8-3.9-3.3-6.1-4.6c-2.8-1.6-6.4-0.6-8,2.2C260.9,400.3,261.8,403.8,264.7,405.5z"/>
	<path d="M264.8,436.1c-1.3,0.8-2.7,1.4-4.2,1.8c-3.1,0.8-5,4.1-4.2,7.2c0.7,2.6,3.1,4.4,5.7,4.4c0.5,0,1-0.1,1.5-0.2
		c2.5-0.7,4.9-1.7,7.1-3c2.8-1.6,3.8-5.2,2.1-8C271.2,435.4,267.6,434.5,264.8,436.1z"/>
	<path d="M279.5,414.8c-3.2,0-5.9,2.8-5.9,6c0,1.6-0.2,3.1-0.6,4.6c-0.8,3.1,1,6.4,4.2,7.2c0.5,0.1,1,0.2,1.5,0.2
		c2.6,0,5-1.7,5.7-4.4c0.7-2.5,1-5,1-7.6v-0.3C285.4,417.3,282.8,414.8,279.5,414.8z"/>
	<path d="M247.2,436.1c-1.3-0.8-2.6-1.7-3.7-2.8c-2.3-2.3-6-2.3-8.3,0c-2.3,2.3-2.3,6,0,8.3c1.8,1.8,3.9,3.4,6.1,4.7
		c0.9,0.5,1.9,0.8,2.9,0.8c2,0,4-1.1,5.1-3C251,441.3,250.1,437.7,247.2,436.1z"/>
	<path d="M248.2,392.5c-2.5,0.7-4.8,1.7-7.1,3c-2.8,1.6-3.7,5.2-2.1,8c1.1,1.9,3.1,2.9,5.1,2.9c1,0,2-0.3,3-0.8
		c1.3-0.8,2.7-1.4,4.2-1.8c3.1-0.9,5-4.1,4.1-7.2C254.5,393.5,251.3,391.6,248.2,392.5z"/>
	<path d="M238.4,420.8c0-1.5,0.2-3,0.6-4.5c0.8-3.1-1.1-6.3-4.2-7.2c-3.1-0.8-6.4,1.1-7.2,4.2c-0.6,2.4-0.9,4.9-0.9,7.5
		l5.9,0h-5.9c0,3.3,2.6,5.8,5.9,5.8C235.7,426.8,238.4,424.1,238.4,420.8z"/>
	<circle cx="373.6" cy="273.8" r="5.9"/>
	<circle cx="350.1" cy="273.8" r="5.9"/>
	<circle cx="385.3" cy="291.5" r="5.9"/>
	<circle cx="361.8" cy="291.5" r="5.9"/>
	<circle cx="326.5" cy="273.8" r="5.9"/>
	<circle cx="338.3" cy="291.5" r="5.9"/>
	<circle cx="303" cy="273.8" r="5.9"/>
	<circle cx="314.8" cy="291.5" r="5.9"/>
	<circle cx="279.5" cy="273.8" r="5.9"/>
	<circle cx="291.3" cy="291.5" r="5.9"/>
	<path d="M209,414.9h-5.9c-3.2,0-5.9,2.6-5.9,5.9s2.6,5.9,5.9,5.9h5.9c3.2,0,5.9-2.6,5.9-5.9S212.2,414.9,209,414.9z"/>
	<path d="M161.9,414.9h-5.9c-3.2,0-5.9,2.6-5.9,5.9s2.6,5.9,5.9,5.9h5.9c3.2,0,5.9-2.6,5.9-5.9S165.2,414.9,161.9,414.9
		z"/>
	<path d="M185.5,414.9h-5.9c-3.2,0-5.9,2.6-5.9,5.9s2.6,5.9,5.9,5.9h5.9c3.2,0,5.9-2.6,5.9-5.9S188.7,414.9,185.5,414.9
		z"/>
	<path d="M91.4,414.9h-5.9c-3.2,0-5.9,2.6-5.9,5.9s2.6,5.9,5.9,5.9h5.9c3.2,0,5.9-2.6,5.9-5.9S94.6,414.9,91.4,414.9z"
		/>
	<path d="M114.9,414.9H109c-3.2,0-5.9,2.6-5.9,5.9s2.6,5.9,5.9,5.9h5.9c3.2,0,5.9-2.6,5.9-5.9S118.2,414.9,114.9,414.9z
		"/>
	<path d="M138.4,414.9h-5.9c-3.2,0-5.9,2.6-5.9,5.9s2.6,5.9,5.9,5.9h5.9c3.2,0,5.9-2.6,5.9-5.9S141.7,414.9,138.4,414.9
		z"/>
	<path d="M308.9,414.9H303c-3.2,0-5.9,2.6-5.9,5.9s2.6,5.9,5.9,5.9h5.9c3.2,0,5.9-2.6,5.9-5.9S312.2,414.9,308.9,414.9z
		"/>
	<path d="M355.9,414.9h-5.9c-3.2,0-5.9,2.6-5.9,5.9s2.6,5.9,5.9,5.9h5.9c3.2,0,5.9-2.6,5.9-5.9S359.2,414.9,355.9,414.9
		z"/>
	<path d="M332.4,414.9h-5.9c-3.2,0-5.9,2.6-5.9,5.9s2.6,5.9,5.9,5.9h5.9c3.2,0,5.9-2.6,5.9-5.9S335.7,414.9,332.4,414.9
		z"/>
	<path d="M426.5,414.9h-5.9c-3.2,0-5.9,2.6-5.9,5.9s2.6,5.9,5.9,5.9h5.9c3.2,0,5.9-2.6,5.9-5.9S429.7,414.9,426.5,414.9
		z"/>
	<path d="M379.5,414.9h-5.9c-3.2,0-5.9,2.6-5.9,5.9s2.6,5.9,5.9,5.9h5.9c3.2,0,5.9-2.6,5.9-5.9S382.7,414.9,379.5,414.9
		z"/>
	<path d="M403,414.9h-5.9c-3.2,0-5.9,2.6-5.9,5.9s2.6,5.9,5.9,5.9h5.9c3.2,0,5.9-2.6,5.9-5.9S406.2,414.9,403,414.9z"/>
	<path d="M261.9,379.7v-5.9c0-3.3-2.6-5.9-5.9-5.9c-3.2,0-5.9,2.6-5.9,5.9v5.9c0,3.3,2.6,5.9,5.9,5.9
		C259.2,385.5,261.9,382.9,261.9,379.7z"/>
	<path d="M250.1,350.3v5.9c0,3.3,2.6,5.9,5.9,5.9c3.2,0,5.9-2.6,5.9-5.9v-5.9c0-3.3-2.6-5.9-5.9-5.9
		C252.8,344.4,250.1,347,250.1,350.3z"/>
</g>
</svg>
