<?xml version="1.0" encoding="utf-8"?>
<!-- Generator: Adobe Illustrator 25.0.1, SVG Export Plug-In . SVG Version: 6.00 Build 0)  -->
<svg version="1.1" fill="#8052FD" id="Layer_1" xmlns="http://www.w3.org/2000/svg" xmlns:xlink="http://www.w3.org/1999/xlink" x="0px" y="0px"
	 viewBox="0 0 512 512" style="enable-background:new 0 0 512 512;" xml:space="preserve">

	
	


<g>
	<g>
		<g>
			<path d="M328.8,369.2c-2.8,0-5,2.3-5,5c0,2.8,2.3,5,5,5h32.5c2.8,0,5-2.3,5-5c0-2.8-2.3-5-5-5H328.8z"/>
			<path d="M101.1,240c-2.8,0-5,2.3-5,5c0,2.7,2.3,5,5,5h26c2.8,0,5-2.3,5-5c0-2.7-2.3-5-5-5H101.1z"/>
			<path d="M114.8,369.2c-2.8,0-5,2.3-5,5c0,2.8,2.3,5,5,5h32.5c2.8,0,5-2.3,5-5c0-2.8-2.3-5-5-5H114.8z"/>
			<path d="M131,317.6c-11.7,0-21.2,9.5-21.2,21.2c0,11.7,9.5,21.2,21.2,21.2c11.8,0,21.2-9.5,21.2-21.2
				C152.2,327,142.7,317.6,131,317.6z M131,349.9c-6.2,0-11.2-5-11.2-11.2c0-6.1,5-11.2,11.2-11.2c6.2,0,11.2,5,11.2,11.2
				C142.2,344.9,137.2,349.9,131,349.9z"/>
			<path d="M244.1,152.5c-9.2,0-16.6,7.4-16.6,16.6c0,9.2,7.4,16.6,16.6,16.6s16.6-7.4,16.6-16.6
				C260.7,160,253.2,152.5,244.1,152.5z M244.1,175.8c-3.6,0-6.6-3-6.6-6.6c0-3.6,3-6.6,6.6-6.6c3.6,0,6.6,3,6.6,6.6
				C250.7,172.8,247.8,175.8,244.1,175.8z"/>
			<path d="M346.3,165.5h-68.5c-2.8,0-5,2.3-5,5c0,2.8,2.3,5,5,5h68.5c2.8,0,5-2.3,5-5
				C351.2,167.8,349,165.5,346.3,165.5z"/>
			<path d="M345,317.6c-11.7,0-21.2,9.5-21.2,21.2c0,11.7,9.5,21.2,21.2,21.2c11.7,0,21.2-9.5,21.2-21.2
				C366.3,327,356.7,317.6,345,317.6z M345,349.9c-6.2,0-11.2-5-11.2-11.2c0-6.1,5-11.2,11.2-11.2s11.2,5,11.2,11.2
				C356.3,344.9,351.2,349.9,345,349.9z"/>
			<path d="M210,338.7c0,13.2,12.2,23.6,26,20.7c6.1-1.3,11.5-5.6,14.3-11.3c5.1-10.4,0.9-21.9-7.9-27.3l5-14.8
				c0.2-0.6,0.7-1,1.4-1h138.9c9.9,0,18-8,18-18V118c0-9.9-8-18-18-18H226c-9.9,0-18,21.4-18,31.2v197.1c0,2.6,0.9,4.9,2.3,6.8
				C210.1,336.3,210,337.5,210,338.7z M242.4,338.7c0,6.1-5,11.2-11.2,11.2c-5.8,0-10.6-4.5-11.2-10.1h7.7c5,0,9.3-3.1,10.9-7.8
				l0.4-1.2C241.2,332.7,242.4,335.6,242.4,338.7z M218,118c0-4.4,3.6-8,8-8h161.7c4.4,0,8,3.6,8,8v2.6H218V118z M218,131.9h177.5
				v81.2H218V131.9z M218,223h177.5V287c0,4.4-3.6,8-8,8H248.7c-5,0-9.3,3.1-10.9,7.8l-8.7,26.1c-0.2,0.6-0.7,1-1.4,1h-8.2
				c-0.8,0-1.5-0.7-1.5-1.5V223L218,223z"/>
			<path d="M243.4,273h89.3c8.1,0,14.7-6.6,14.7-14.7s-6.6-14.7-14.7-14.7h-89.3c-8.1,0-14.7,6.6-14.7,14.7
				C228.7,266.4,235.3,273,243.4,273z M243.4,253.6h89.3c2.6,0,4.7,2.1,4.7,4.7c0,2.6-2.1,4.7-4.7,4.7h-89.3c-2.6,0-4.7-2.1-4.7-4.7
				C238.8,255.7,240.8,253.6,243.4,253.6z"/>
			<path d="M420.6,192.8h-4.7c-2.8,0-5,2.3-5,5c0,2.8,2.3,5,5,5h4.7c4.4,0,8,3.6,8,8v4.2h-11.6c-2.8,0-5,2.3-5,5
				c0,2.8,2.3,5,5,5h11.6v66.8h-12.5c-2.8,0-5,2.3-5,5c0,2.8,2.3,5,5,5h12.5v86.2c0,4.4-3.6,8-8,8H88.7c-4.4,0-8-3.6-8-8v-86.1
				c0.3,0.1,0.6,0.1,0.9,0.1h115.7c2.8,0,5-2.3,5-5c0-2.8-2.3-5-5-5H81.6c-0.3,0-0.6,0-0.9,0.1v-66.9H196c2.8,0,5-2.3,5-5
				c0-2.8-2.3-5-5-5H80.8v-4.2c0-4.4,3.6-8,8-8h6.5l0,0h64.9l0,0h35.8c2.8,0,5-2.3,5-5c0-2.8-2.3-5-5-5h-30.9V185
				c0-6.4-5.3-11.7-11.7-11.7h-51.5c-6.4,0-11.7,5.3-11.7,11.7v7.7h-1.5c-9.9,0-18,8-18,18v177.1c0,9.9,8,18,18,18h331.9
				c9.9,0,18-8,18-18V210.6C438.5,200.8,430.5,192.8,420.6,192.8z M100.3,185c0-0.9,0.7-1.7,1.7-1.7h51.6c0.9,0,1.7,0.7,1.7,1.7v7.7
				h-55V185z"/>
			<path d="M371.5,273c8.1,0,14.7-6.6,14.7-14.7s-6.6-14.7-14.7-14.7s-14.7,6.6-14.7,14.7
				C356.8,266.4,363.4,273,371.5,273z M371.5,253.6c2.6,0,4.7,2.1,4.7,4.7c0,2.6-2.1,4.7-4.7,4.7c-2.6,0-4.7-2.1-4.7-4.7
				C366.8,255.7,368.8,253.6,371.5,253.6z"/>
			<path d="M215,369.2c-2.8,0-5,2.3-5,5c0,2.8,2.3,5,5,5h32.5c2.8,0,5-2.3,5-5c0-2.8-2.3-5-5-5H215z"/>
		</g>
	</g>
</g>
</svg>
