<?xml version="1.0" encoding="utf-8"?>
<!-- Generator: Adobe Illustrator 25.0.1, SVG Export Plug-In . SVG Version: 6.00 Build 0)  -->
<svg version="1.1" fill="#8052FD" id="Capa_1" xmlns="http://www.w3.org/2000/svg" xmlns:xlink="http://www.w3.org/1999/xlink" x="0px" y="0px"
	 viewBox="0 0 512 512" style="enable-background:new 0 0 512 512;" xml:space="preserve">

	
	


<path d="M256.2,250.9c-6.5,0-11.8,5.3-11.8,11.8c0,4.7,2.8,8.8,6.8,10.7v14.3c0,2.8,2.3,5.1,5.1,5.1
	c2.8,0,5.1-2.3,5.1-5.1v-14.3c4-1.9,6.8-6,6.8-10.7C268,256.2,262.7,250.9,256.2,250.9z M382.2,167c-21.8-8.6-39-24.5-48.6-44.6
	c-2.6-5.5-8.2-9-14.3-9H192.8c-6.1,0-11.8,3.5-14.3,9c-9.6,20.2-26.8,36-48.6,44.6c-6.1,2.4-10,8.2-10,14.8v30.8
	c0,40.3,11.8,80.2,34,115.2c22.4,35.4,55,65,94.1,85.6l0.6,0.3c2.4,1.2,4.8,1.8,7.4,1.8c2.6,0,5.1-0.6,7.4-1.8l0.6-0.3
	c39.1-20.6,71.7-50.2,94.1-85.6c22.2-35.1,34-74.9,34-115.2v-30.8C392.2,175.2,388.2,169.4,382.2,167z M382.1,212.6
	c0,38.4-11.2,76.4-32.4,109.8c-21.5,33.9-52.8,62.3-90.3,82l-0.6,0.3c-1.7,0.9-3.7,0.9-5.5,0l-0.6-0.3c-37.5-19.7-68.8-48.1-90.3-82
	c-21.2-33.4-32.4-71.4-32.4-109.8v-30.8c0-2.4,1.5-4.6,3.7-5.4c24.1-9.6,43.3-27.2,54-49.7c1-2,3-3.3,5.3-3.3h126.5
	c2.2,0,4.3,1.2,5.3,3.3c10.7,22.4,29.9,40.1,54,49.7c2.2,0.9,3.7,3,3.7,5.4v30.8H382.1z M411.3,266.5c2.4-9.8,2.9-15.3,4.5-27.7
	c0.8-7.8,1.2-15.7,1.2-23.4v-54.2c0-6.9-5.1-12.7-12-13.4c-26.9-2.8-48.1-21.8-51.5-46c-1-6.7-6.7-11.8-13.4-11.8H171.9
	c-6.7,0-12.5,5.1-13.4,11.8c-3.4,24.2-24.6,43.2-51.5,46c-6.9,0.7-12,6.5-12,13.4v54.2c0,7.9,0.4,15.9,1.2,23.7
	c1.4,13.7,3.1,20.5,4.4,27.2c15.9,71,64.7,132.6,133.7,168.8l15.4,8.1c1.9,1,4.2,1.5,6.3,1.5c2.1,0,4.3-0.5,6.3-1.5l15.4-8.1
	C346.5,398.8,395.2,337.4,411.3,266.5z M110.5,264c-1.9-7.5-3-15.8-4.2-26c-0.8-7.5-1.2-15.1-1.2-22.7v-54.2c0-1.7,1.3-3.2,2.9-3.4
	c31.6-3.3,56.5-25.8,60.5-54.7c0.3-1.8,1.7-3,3.4-3h168.2c1.7,0,3.1,1.3,3.4,3c4,28.8,28.9,51.3,60.5,54.7c1.7,0.2,2.9,1.7,2.9,3.4
	v54.2c0,7.5-0.4,15-1.1,22.4c-1.5,12.7-2.5,18.8-4.3,26.5c-15.4,68-62.2,127-128.4,161.8l-15.4,8.1c-1,0.6-2.1,0.6-3.2,0l-15.4-8.1
	C172.7,391.2,125.8,332.1,110.5,264z M313.8,216h-8.3v-24.1c0-27.2-22.1-49.3-49.3-49.3s-49.3,22.1-49.3,49.3V216h-8.3
	c-8.9,0-16.1,7.2-16.1,16.1v72.3c0,8.9,7.2,16.1,16.1,16.1h115.3c8.9,0,16.1-7.2,16.1-16.1V232C329.8,223.2,322.6,216,313.8,216z
	 M217,191.9c0-21.6,17.6-39.2,39.2-39.2s39.2,17.6,39.2,39.2V216H217V191.9z M319.8,304.3c0,3.3-2.7,6-6,6H198.6c-3.3,0-6-2.7-6-6
	V232c0-3.3,2.7-6,6-6h115.3c3.3,0,6,2.7,6,6V304.3z"/>
</svg>
