<?xml version="1.0" encoding="UTF-8"?><svg fill="#8052fd" id="AI-1" xmlns="http://www.w3.org/2000/svg" viewBox="0 0 198 198"><g><path d="M165.69,144.51H32.31c-.78,0-1.5-.4-1.91-1.07-.41-.66-.45-1.49-.1-2.19l9.88-19.76c.38-.76,1.16-1.24,2.01-1.24h113.62c.85,0,1.63,.48,2.01,1.24l9.88,19.76c.35,.7,.31,1.53-.1,2.19-.41,.66-1.13,1.07-1.91,1.07Zm-129.74-4.5h126.1l-7.63-15.26H43.58l-7.63,15.26Z" /><path d="M155.81,124.75H42.19c-1.24,0-2.25-1.01-2.25-2.25V55.81c0-6.69,5.44-12.13,12.13-12.13h93.86c6.69,0,12.13,5.44,12.13,12.13V122.5c0,1.24-1.01,2.25-2.25,2.25Zm-111.37-4.5h109.12V55.81c0-4.21-3.42-7.63-7.63-7.63H52.07c-4.21,0-7.63,3.42-7.63,7.63V120.25Z" /><path d="M158.28,156.86H39.72c-5.33,0-9.66-4.33-9.66-9.66v-4.94c0-1.24,1.01-2.25,2.25-2.25H165.69c1.24,0,2.25,1.01,2.25,2.25v4.94c0,5.33-4.33,9.66-9.66,9.66Zm-123.72-12.35v2.69c0,2.85,2.31,5.16,5.16,5.16h118.56c2.85,0,5.16-2.31,5.16-5.16v-2.69H34.56Z" /><path d="M103.94,134.5h-9.88c-1.24,0-2.25-1.01-2.25-2.25s1.01-2.25,2.25-2.25h9.88c1.24,0,2.25,1.01,2.25,2.25s-1.01,2.25-2.25,2.25Z" /><path d="M106.25,109.31c-2.96,0-3.85-2.13-7.44-26.62-.73-4.99-1.57-10.72-2.33-14.79-.47,2.29-.95,4.97-1.36,7.25-2.79,15.54-4.31,21.87-8.21,21.87s-5.49-5.01-7.24-10.31c-.7-2.11-1.84-5.57-2.66-6.43-1.09,.3-2.12,2.75-2.49,5.03-.18,1.09-1.12,1.89-2.22,1.89h-13.81c-1.24,0-2.25-1.01-2.25-2.25s1.01-2.25,2.25-2.25h12c.99-3.63,3.15-6.96,6.75-6.96s5.02,4.42,6.71,9.55c.64,1.95,1.75,5.3,2.67,6.69,1.45-3.02,3.13-12.36,4.07-17.63,2.07-11.57,2.77-15.47,5.89-15.47s3.67,2.62,6.68,23.15c.87,5.96,2.18,14.9,3.31,19.9,.82-2.62,1.71-6.2,2.33-8.72,2.59-10.48,3.77-14.74,7.02-14.74,2.85,0,4.62,3.1,6.49,6.38,.85,1.5,2.42,4.24,3.25,4.67,.8-.15,1.99-2.53,2.42-4.88l.02-.09c.19-1.07,1.12-1.86,2.22-1.86h9.18c1.24,0,2.25,1.01,2.25,2.25s-1.01,2.25-2.25,2.25h-7.4c-.74,2.55-2.57,6.83-6.51,6.83-3.12,0-5.05-3.37-7.08-6.94-.6-1.05-1.48-2.6-2.18-3.5-.95,2.19-2.19,7.19-3.06,10.7-2.81,11.35-3.97,15.02-7.02,15.02Z" /></g><path d="M77.61,164.15h-28.37c-1.24,0-2.25-1.01-2.25-2.25s1.01-2.25,2.25-2.25h28.37c1.24,0,2.25,1.01,2.25,2.25s-1.01,2.25-2.25,2.25Z" /><path d="M75.34,172.17h-17.7c-1.24,0-2.25-1.01-2.25-2.25s1.01-2.25,2.25-2.25h17.7c1.24,0,2.25,1.01,2.25,2.25s-1.01,2.25-2.25,2.25Z" /><path d="M41.02,159.32c-1.42,0-2.58,1.15-2.58,2.58s1.15,2.58,2.58,2.58,2.58-1.15,2.58-2.58-1.15-2.58-2.58-2.58h0Z" /><path d="M145.01,38.35h-28.37c-1.24,0-2.25-1.01-2.25-2.25s1.01-2.25,2.25-2.25h28.37c1.24,0,2.25,1.01,2.25,2.25s-1.01,2.25-2.25,2.25Z" /><path d="M136.62,30.33h-17.7c-1.24,0-2.25-1.01-2.25-2.25s1.01-2.25,2.25-2.25h17.7c1.24,0,2.25,1.01,2.25,2.25s-1.01,2.25-2.25,2.25Z" /><path d="M153.23,33.53c-1.42,0-2.58,1.15-2.58,2.58s1.15,2.58,2.58,2.58,2.58-1.15,2.58-2.58-1.15-2.58-2.58-2.58h0Z" /></svg>