<?xml version="1.0" encoding="utf-8"?>
<!-- Generator: Adobe Illustrator 25.0.1, SVG Export Plug-In . SVG Version: 6.00 Build 0)  -->
<svg version="1.1" fill="#8052FD" id="Layer_1" xmlns="http://www.w3.org/2000/svg" xmlns:xlink="http://www.w3.org/1999/xlink" x="0px" y="0px"
	 viewBox="0 0 512 512" style="enable-background:new 0 0 512 512;" xml:space="preserve">
<path d="M405.9,124.5h-61V85.6c0-9.2-7.5-16.7-16.6-16.7H183.9c-9.2,0-16.6,7.5-16.6,16.7V180h-61
	c-9.2,0-16.7,7.5-16.7,16.7v199.8c0,3.1,2.5,5.5,5.5,5.5c3.1,0,5.6-2.5,5.6-5.5v-61.1h22.2c3.1,0,5.5-2.5,5.5-5.5s-2.5-5.6-5.5-5.6
	h-22.2v-11.1h38.8c3.1,0,5.6-2.5,5.6-5.6v-22.2c0-3.1-2.5-5.6-5.6-5.6h-38.8v-83.2c0-3.1,2.5-5.6,5.6-5.6h61v33.3
	c0,3.1,2.5,5.5,5.6,5.5c3.1,0,5.6-2.5,5.6-5.5V85.6c0-3.1,2.5-5.6,5.5-5.6h144.3c3.1,0,5.5,2.5,5.5,5.6v99.9c0,3.1,2.5,5.6,5.5,5.6
	c3.1,0,5.6-2.5,5.6-5.6v-49.9h61c3.1,0,5.6,2.5,5.6,5.6v177.6h-38.9c-3.1,0-5.6,2.5-5.6,5.5v22.2c0,3.1,2.5,5.5,5.6,5.5h38.9v44.4
	c0,3.1,2.5,5.5,5.5,5.5s5.5-2.5,5.5-5.5V141.1C422.5,132,415,124.5,405.9,124.5z M133.9,291v11.1h-33.3V291H133.9z M378.1,340.9
	v-11.1h33.3v11.1H378.1z"/>
<path d="M317.1,235.5c-3.1,0-5.6,2.5-5.6,5.6v22.2c0,3.1,2.5,5.5,5.6,5.5h23.1c3.1,0,5.5-2.5,5.5-5.5s-2.5-5.5-5.5-5.5
	h-9.8l58.8-58.8v10.7c0,3.1,2.5,5.6,5.5,5.6c3.1,0,5.6-2.5,5.6-5.6v-24c0-3.1-2.5-5.6-5.6-5.6h-23.1c-3.1,0-5.5,2.5-5.5,5.6
	s2.5,5.6,5.5,5.6h9.8l-58.8,58.8V241C322.6,238,320.1,235.5,317.1,235.5z"/>
<path d="M166.3,285.4c0,3.1,2.5,5.5,5.6,5.5H195c3.1,0,5.6-2.5,5.6-5.5v-22.2c0-3.1-2.5-5.5-5.6-5.5s-5.6,2.5-5.6,5.5
	v8.8l-58.8-58.8h9.8c3.1,0,5.6-2.5,5.6-5.6c0-3.1-2.5-5.6-5.6-5.6h-23.1c-3.1,0-5.6,2.5-5.6,5.6v24c0,3.1,2.5,5.6,5.6,5.6
	s5.5-2.5,5.5-5.6v-10.7l58.8,58.8h-9.8C168.7,279.9,166.3,282.4,166.3,285.4z"/>
<path d="M200.5,130h22.2c3.1,0,5.6-2.5,5.6-5.6v-22.2c0-3.1-2.5-5.6-5.6-5.6h-22.2c-3.1,0-5.6,2.5-5.6,5.6v22.2
	C195,127.6,197.4,130,200.5,130z M206.1,107.8h11.1v11.1h-11.1V107.8z"/>
<path d="M267.1,107.8c3.1,0,5.6-2.5,5.6-5.5s-2.5-5.6-5.6-5.6h-22.2c-3.1,0-5.6,2.5-5.6,5.6v22.2c0,3.1,2.5,5.6,5.6,5.6
	h22.2c3.1,0,5.6-2.5,5.6-5.6s-2.5-5.5-5.6-5.5h-16.6v-11.1H267.1z"/>
<path d="M311.5,96.7h-22.2c-3.1,0-5.6,2.5-5.6,5.6v22.2c0,3.1,2.5,5.6,5.6,5.6h22.2c3.1,0,5.6-2.5,5.6-5.6v-22.2
	C317.1,99.2,314.6,96.7,311.5,96.7z M306,118.9h-11.1v-11.1H306V118.9z"/>
<path d="M195,168.9c0,3.1,2.5,5.5,5.6,5.5h22.2c3.1,0,5.6-2.5,5.6-5.5v-22.2c0-3.1-2.5-5.5-5.6-5.5h-22.2
	c-3.1,0-5.6,2.5-5.6,5.5V168.9z M206.1,152.2h11.1v11.1h-11.1V152.2z"/>
<path d="M239.4,168.9c0,3.1,2.5,5.5,5.6,5.5h66.6c3.1,0,5.6-2.5,5.6-5.5v-22.2c0-3.1-2.5-5.5-5.6-5.5h-66.6
	c-3.1,0-5.6,2.5-5.6,5.5V168.9z M250.5,152.2H306v11.1h-55.5V152.2z"/>
<path d="M195,213.3c0,3.1,2.5,5.6,5.6,5.6h22.2c3.1,0,5.6-2.5,5.6-5.6s-2.5-5.6-5.6-5.6h-16.6v-11.1h16.6
	c3.1,0,5.6-2.5,5.6-5.6c0-3.1-2.5-5.6-5.6-5.6h-22.2c-3.1,0-5.6,2.5-5.6,5.6V213.3z"/>
<path d="M239.4,213.3c0,3.1,2.5,5.6,5.6,5.6c3.1,0,5.6-2.5,5.6-5.6v-16.6h11.1v16.6c0,3.1,2.5,5.6,5.5,5.6
	s5.6-2.5,5.6-5.6v-22.2c0-3.1-2.5-5.6-5.6-5.6h-22.2c-3.1,0-5.6,2.5-5.6,5.6V213.3z"/>
<path d="M145,346.5h-22.2c-3.1,0-5.5,2.5-5.5,5.5c0,3.1,2.5,5.6,5.5,5.6H145c3.1,0,5.6-2.5,5.6-5.6
	C150.6,349,148.1,346.5,145,346.5z"/>
<path d="M394.8,285.4c3.1,0,5.6-2.5,5.6-5.6s-2.5-5.5-5.6-5.5h-22.2c-3.1,0-5.6,2.5-5.6,5.5v22.2c0,3.1,2.5,5.5,5.6,5.5
	h22.2c3.1,0,5.6-2.5,5.6-5.5s-2.5-5.6-5.6-5.6h-16.6v-11.1H394.8z"/>
<path d="M350.4,291h-49.9v-33.3c0-3.1-2.5-5.6-5.6-5.6h-77.7c-3.1,0-5.6,2.5-5.6,5.6v66.6h-38.8c-3.1,0-5.6,2.5-5.6,5.6
	v66.6c0,3.1,2.5,5.5,5.6,5.5c3.1,0,5.6-2.5,5.6-5.5v-61.1h33.3v61.1c0,3.1,2.5,5.5,5.6,5.5c3.1,0,5.6-2.5,5.6-5.5V263.2h66.6v133.2
	c0,3.1,2.5,5.5,5.5,5.5s5.6-2.5,5.6-5.5v-94.4h44.4v94.4c0,3.1,2.5,5.5,5.5,5.5s5.6-2.5,5.6-5.5v-99.9
	C355.9,293.5,353.4,291,350.4,291z"/>
<path d="M328.2,313.2h-11.1c-3.1,0-5.6,2.5-5.6,5.5s2.5,5.5,5.6,5.5h11.1c3.1,0,5.5-2.5,5.5-5.5
	S331.2,313.2,328.2,313.2z"/>
<path d="M333.7,340.9c0,3.1-2.5,5.5-5.5,5.5c-3.1,0-5.6-2.5-5.6-5.5c0-3.1,2.5-5.6,5.6-5.6
	C331.2,335.4,333.7,337.9,333.7,340.9z"/>
<path d="M328.2,357.6h-11.1c-3.1,0-5.6,2.5-5.6,5.5s2.5,5.6,5.6,5.6h11.1c3.1,0,5.5-2.5,5.5-5.6
	S331.2,357.6,328.2,357.6z"/>
<path d="M200.5,352c0,3.1-2.5,5.6-5.6,5.6s-5.6-2.5-5.6-5.6c0-3.1,2.5-5.5,5.6-5.5S200.5,349,200.5,352z"/>
<path d="M200.5,374.2c0,3.1-2.5,5.5-5.6,5.5s-5.6-2.5-5.6-5.5s2.5-5.5,5.6-5.5S200.5,371.2,200.5,374.2z"/>
<path d="M239.4,291h11.1c3.1,0,5.5-2.5,5.5-5.5c0-3.1-2.5-5.6-5.5-5.6h-11.1c-3.1,0-5.5,2.5-5.5,5.6
	C233.8,288.5,236.3,291,239.4,291z"/>
<path d="M278.2,285.4c0,3.1-2.5,5.5-5.5,5.5c-3.1,0-5.6-2.5-5.6-5.5c0-3.1,2.5-5.6,5.6-5.6
	C275.7,279.9,278.2,282.4,278.2,285.4z"/>
<path d="M239.4,313.2h11.1c3.1,0,5.5-2.5,5.5-5.6s-2.5-5.5-5.5-5.5h-11.1c-3.1,0-5.5,2.5-5.5,5.5
	S236.3,313.2,239.4,313.2z"/>
<path d="M278.2,307.6c0,3.1-2.5,5.6-5.5,5.6c-3.1,0-5.6-2.5-5.6-5.6s2.5-5.5,5.6-5.5
	C275.7,302.1,278.2,304.6,278.2,307.6z"/>
<path d="M256,329.8c0,3.1-2.5,5.5-5.5,5.5s-5.6-2.5-5.6-5.5s2.5-5.6,5.6-5.6S256,326.8,256,329.8z"/>
<path d="M278.2,329.8c0,3.1-2.5,5.5-5.5,5.5c-3.1,0-5.6-2.5-5.6-5.5s2.5-5.6,5.6-5.6
	C275.7,324.3,278.2,326.8,278.2,329.8z"/>
<path d="M272.7,346.5h-11.1c-3.1,0-5.6,2.5-5.6,5.5c0,3.1,2.5,5.6,5.6,5.6h11.1c3.1,0,5.5-2.5,5.5-5.6
	C278.2,349,275.7,346.5,272.7,346.5z"/>
<path d="M244.9,352c0,3.1-2.5,5.6-5.6,5.6c-3.1,0-5.5-2.5-5.5-5.6c0-3.1,2.5-5.5,5.5-5.5
	C242.4,346.5,244.9,349,244.9,352z"/>
<path d="M261.6,368.7h-11.1c-6.1,0-11.1,5-11.1,11.1v16.7c0,3.1,2.5,5.5,5.6,5.5c3.1,0,5.6-2.5,5.6-5.5v-16.7h11.1v16.7
	c0,3.1,2.5,5.5,5.5,5.5s5.6-2.5,5.6-5.5v-16.7C272.7,373.7,267.7,368.7,261.6,368.7z"/>
</svg>
