<?xml version="1.0" encoding="utf-8"?>
<!-- Generator: Adobe Illustrator 25.0.1, SVG Export Plug-In . SVG Version: 6.00 Build 0)  -->
<svg version="1.1" fill="#8052FD" id="Layer_1" xmlns="http://www.w3.org/2000/svg" xmlns:xlink="http://www.w3.org/1999/xlink" x="0px" y="0px"
	 viewBox="0 0 100 100" style="enable-background:new 0 0 100 100;" xml:space="preserve">

	
	


<rect x="39.8" y="35.6" width="2.3" height="2.3"/>
<rect x="39.8" y="40.2" width="2.3" height="2.3"/>
<rect x="39.8" y="44.7" width="2.3" height="2.3"/>
<rect x="39.8" y="49.3" width="2.3" height="2.3"/>
<rect x="44.3" y="35.6" width="2.3" height="2.3"/>
<rect x="44.3" y="40.2" width="2.3" height="2.3"/>
<rect x="44.3" y="44.7" width="2.3" height="2.3"/>
<rect x="44.3" y="49.3" width="2.3" height="2.3"/>
<rect x="48.9" y="35.6" width="2.3" height="2.3"/>
<rect x="48.9" y="40.2" width="2.3" height="2.3"/>
<rect x="48.9" y="44.7" width="2.3" height="2.3"/>
<rect x="48.9" y="49.3" width="2.3" height="2.3"/>
<rect x="53.4" y="35.6" width="2.3" height="2.3"/>
<rect x="44.3" y="31.1" width="2.3" height="2.3"/>
<rect x="48.9" y="31.1" width="2.3" height="2.3"/>
<rect x="53.4" y="31.1" width="2.3" height="2.3"/>
<rect x="53.4" y="40.2" width="2.3" height="2.3"/>
<rect x="53.4" y="44.7" width="2.3" height="2.3"/>
<rect x="53.4" y="49.3" width="2.3" height="2.3"/>
<rect x="57.9" y="35.6" width="2.3" height="2.3"/>
<rect x="57.9" y="40.2" width="2.3" height="2.3"/>
<rect x="57.9" y="44.7" width="2.3" height="2.3"/>
<rect x="57.9" y="49.3" width="2.3" height="2.3"/>
<path d="M82.9,30h-17V14.1c0-0.6-0.5-1.1-1.1-1.1H35.2c-0.6,0-1.1,0.5-1.1,1.1V30h-17c-0.6,0-1.1,0.5-1.1,1.1V72
	c0,0.6,0.5,1.1,1.1,1.1h2.4c-0.1,0.4-0.1,0.8-0.1,1.1v5.7c0,0.6,0.5,1.1,1.1,1.1h59c0.6,0,1.1-0.5,1.1-1.1v-5.7c0-0.4,0-0.8-0.1-1.1
	h2.4c0.6,0,1.1-0.5,1.1-1.1V31.1C84.1,30.5,83.6,30,82.9,30z M64.7,61.3L64.7,61.3c0.1,0.3,0.1,0.7,0,1l0,0
	c-0.1,0.5-0.4,0.9-0.7,1.2l0,0c-0.4,0.4-1,0.6-1.5,0.6c-0.2,0-0.3,0-0.5-0.1c-0.1,0-0.1,0-0.2,0c-0.1,0-0.2-0.1-0.3-0.1
	s-0.1-0.1-0.2-0.1c-0.1,0-0.2-0.1-0.2-0.1c-0.1,0-0.1-0.1-0.2-0.1c-0.1-0.1-0.1-0.1-0.2-0.2c0-0.1-0.1-0.1-0.1-0.2
	c-0.1-0.1-0.1-0.1-0.1-0.2c0-0.1-0.1-0.1-0.1-0.2c0-0.1-0.1-0.1-0.1-0.2c0-0.1,0-0.1-0.1-0.2c0-0.1,0-0.2,0-0.3s0-0.1,0-0.2
	c0-0.1,0-0.2,0-0.3s0-0.1,0-0.2c0-0.2,0.1-0.4,0.2-0.5c0-0.1,0.1-0.1,0.1-0.2c0.1-0.1,0.2-0.3,0.3-0.4c0,0,0,0,0.1-0.1
	s0.3-0.3,0.4-0.3l0.1-0.1c0.2-0.1,0.3-0.1,0.5-0.2c0,0,0,0,0.1,0c0.2,0,0.4-0.1,0.6,0c0.1,0,0.1,0,0.2,0c0.1,0,0.2,0,0.4,0.1h0.1
	c0.3,0.1,0.5,0.3,0.7,0.4C64.3,60.4,64.6,60.8,64.7,61.3z M35.3,61.3L35.3,61.3c0.1-0.5,0.4-0.9,0.7-1.2c0.2-0.2,0.5-0.3,0.7-0.4
	h0.1c0.1,0,0.3-0.1,0.4-0.1c0.1,0,0.1,0,0.2,0c0.2,0,0.4,0,0.6,0c0,0,0,0,0.1,0c0.2,0,0.3,0.1,0.5,0.2c0,0,0.1,0,0.1,0.1
	c0.2,0.1,0.3,0.2,0.4,0.3c0,0,0,0,0.1,0.1s0.2,0.3,0.3,0.4c0,0.1,0.1,0.1,0.1,0.2c0.1,0.2,0.1,0.3,0.2,0.5c0,0.1,0,0.1,0,0.2
	c0,0.1,0,0.2,0,0.3s0,0.1,0,0.2c0,0.1,0,0.2,0,0.3s0,0.1-0.1,0.2c0,0.1-0.1,0.2-0.1,0.2c0,0.1-0.1,0.1-0.1,0.2
	c0,0.1-0.1,0.1-0.1,0.2c0,0.1-0.1,0.1-0.1,0.2c-0.1,0.1-0.1,0.1-0.2,0.2c-0.1,0-0.1,0.1-0.2,0.1c-0.1,0-0.1,0.1-0.2,0.1
	c-0.1,0-0.1,0.1-0.2,0.1c-0.1,0-0.2,0.1-0.3,0.1c0,0-0.1,0-0.2,0c-0.2,0-0.3,0-0.5,0c-0.6,0-1.1-0.2-1.5-0.6l0,0
	c-0.4-0.3-0.6-0.7-0.7-1.2l0,0C35.2,61.9,35.2,61.6,35.3,61.3L35.3,61.3z M30.7,78.8h-9.1v-4.5c0-0.9,0.3-1.7,0.7-2.5
	c0.1-0.1,0.1-0.2,0.2-0.2c0.1-0.1,0.2-0.3,0.3-0.4c0.1-0.1,0.1-0.1,0.2-0.2s0.3-0.3,0.4-0.4c0.1,0,0.1-0.1,0.2-0.1
	c0.2-0.1,0.4-0.3,0.7-0.4c0.1,0,0.2-0.1,0.2-0.1c0.2-0.1,0.4-0.1,0.5-0.2c0.1,0,0.2,0,0.2-0.1c0.5-0.1,1.1-0.1,1.6,0
	c0.1,0,0.2,0,0.2,0.1c0.2,0,0.4,0.1,0.6,0.2c0.1,0,0.2,0.1,0.2,0.1c0.2,0.1,0.5,0.2,0.7,0.4c0.1,0,0.1,0.1,0.2,0.1
	c0.2,0.1,0.3,0.2,0.4,0.4c0.1,0.1,0.1,0.1,0.2,0.2s0.2,0.3,0.3,0.4c0.1,0.1,0.1,0.2,0.2,0.2c0.5,0.7,0.7,1.6,0.7,2.5v4.5H30.7z
	 M23.9,65.2c0-1.3,1-2.3,2.3-2.3s2.3,1,2.3,2.3c0,1.3-1,2.3-2.3,2.3S23.9,66.4,23.9,65.2z M32.6,66.2c-0.1,0.1-0.1,0.1-0.2,0.2
	c-0.1,0.1-0.2,0.2-0.3,0.3c-0.1,0.1-0.1,0.1-0.2,0.2s-0.2,0.2-0.2,0.3c0,0.1-0.1,0.1-0.1,0.2c-0.1,0.1-0.1,0.3-0.2,0.4
	c0,0.1-0.1,0.1-0.1,0.2c-0.1,0.1-0.1,0.3-0.2,0.4c0,0.1-0.1,0.1-0.1,0.2s-0.1,0.3-0.1,0.4s0,0.1-0.1,0.2c-0.1-0.1-0.1-0.1-0.2-0.1
	c-0.1-0.1-0.2-0.2-0.3-0.2c-0.1-0.1-0.1-0.1-0.2-0.2s-0.2-0.2-0.3-0.2c-0.1,0-0.1-0.1-0.2-0.1s-0.2-0.1-0.2-0.1
	c1.7-1.8,1.7-4.7-0.1-6.4c-1.8-1.7-4.7-1.7-6.4,0.1c-1.7,1.8-1.7,4.5,0,6.3c0,0,0,0-0.1,0s-0.1,0.1-0.2,0.1
	c-0.2,0.1-0.4,0.2-0.5,0.4c-0.1,0-0.1,0.1-0.2,0.1c-0.4,0.3-0.8,0.7-1.1,1.1l-0.1,0.1c-0.1,0.2-0.3,0.4-0.4,0.6c0,0,0,0,0,0.1h-2.1
	V32.2h15.9v26.5L34,58.8c-0.1,0.2-0.3,0.3-0.4,0.5c0,0.1-0.1,0.1-0.1,0.2c-0.1,0.2-0.2,0.3-0.2,0.5c0,0.1-0.1,0.2-0.1,0.4
	c0,0.1-0.1,0.3-0.1,0.4c-0.1,0.6-0.1,1.1,0,1.7c0,0.2,0.1,0.3,0.1,0.4c0,0.1,0.1,0.2,0.1,0.4c0.1,0.2,0.2,0.3,0.2,0.5
	c0,0.1,0.1,0.2,0.1,0.2c0.1,0.2,0.2,0.3,0.4,0.5l0.1,0.1V65c0,0-0.1,0-0.1,0.1c-0.2,0.1-0.3,0.2-0.4,0.3c-0.1,0-0.1,0.1-0.2,0.1
	c-0.1,0.1-0.2,0.2-0.4,0.3c-0.1,0.1-0.1,0.1-0.2,0.2C32.8,66,32.7,66.1,32.6,66.2z M42.1,78.8H33v-7.9c0-0.3,0-0.5,0.1-0.8
	c0-0.1,0-0.2,0.1-0.2c0-0.2,0.1-0.4,0.2-0.6c0-0.1,0.1-0.2,0.1-0.2c0.1-0.2,0.2-0.5,0.4-0.7c0-0.1,0.1-0.1,0.1-0.2
	c0.1-0.2,0.2-0.3,0.4-0.4c0.1-0.1,0.1-0.1,0.2-0.2c0.1-0.1,0.3-0.2,0.4-0.3c0.1-0.1,0.2-0.1,0.2-0.2c0.7-0.5,1.6-0.7,2.5-0.7
	c2.5,0,4.5,2,4.5,4.5v7.9H42.1z M55.7,78.8H44.3v-7.9c0-3.1,2.5-5.7,5.7-5.7s5.7,2.5,5.7,5.7V78.8z M46.6,59.5
	c0-1.9,1.5-3.4,3.4-3.4s3.4,1.5,3.4,3.4s-1.5,3.4-3.4,3.4S46.6,61.4,46.6,59.5z M57.5,66.2c-0.1,0.1-0.1,0.1-0.2,0.2
	c-0.1,0.1-0.2,0.2-0.3,0.4l-0.1,0.1l-0.1-0.1c-0.1-0.2-0.3-0.4-0.4-0.6c-0.1-0.1-0.1-0.1-0.2-0.2c-0.2-0.2-0.3-0.4-0.5-0.6l-0.1-0.1
	c-0.2-0.2-0.4-0.4-0.7-0.6c-0.1,0-0.1-0.1-0.2-0.1c-0.2-0.1-0.4-0.3-0.6-0.4c-0.1,0-0.2-0.1-0.2-0.1c-0.1-0.1-0.2-0.1-0.3-0.2
	c2.4-2,2.7-5.6,0.7-8s-5.6-2.7-8-0.7s-2.7,5.6-0.7,8c0.2,0.2,0.4,0.5,0.7,0.7C46.2,64,46.1,64,46,64.1c-0.1,0-0.2,0.1-0.2,0.1
	c-0.2,0.1-0.4,0.3-0.6,0.4c-0.1,0-0.1,0.1-0.2,0.1c-0.2,0.2-0.5,0.4-0.7,0.6l-0.1,0.1c-0.2,0.2-0.3,0.4-0.5,0.6
	c-0.1,0.1-0.1,0.1-0.2,0.2c-0.1,0.2-0.3,0.4-0.4,0.6L43,66.9l-0.1-0.1c-0.1-0.1-0.2-0.3-0.3-0.4s-0.1-0.1-0.2-0.2
	c-0.1-0.1-0.2-0.2-0.3-0.3c-0.1-0.1-0.1-0.1-0.2-0.2c-0.1-0.1-0.2-0.2-0.4-0.3c-0.1,0-0.1-0.1-0.2-0.1c-0.2-0.1-0.3-0.2-0.5-0.3
	l-0.1-0.1c0.1-0.1,0.1-0.1,0.2-0.2c0.1-0.1,0.1-0.1,0.1-0.2c0.1-0.1,0.2-0.3,0.3-0.4s0.1-0.2,0.2-0.4c0.1-0.2,0.1-0.3,0.2-0.5
	c0-0.1,0.1-0.2,0.1-0.4s0.1-0.4,0.1-0.6c0-0.1,0-0.2,0-0.4v-0.1c0-0.2,0-0.3,0-0.5c0-0.1,0-0.2,0-0.3v-0.1v-0.1
	c-0.1-0.2-0.1-0.4-0.2-0.7c0-0.1,0-0.1-0.1-0.2c-0.1-0.2-0.2-0.4-0.3-0.6c0,0,0,0,0-0.1c-0.2-0.2-0.3-0.4-0.5-0.6l0,0
	c-0.2-0.2-0.4-0.3-0.6-0.5L40,58c-0.2-0.1-0.4-0.2-0.6-0.3c0,0-0.1,0-0.1-0.1c-0.2-0.1-0.5-0.2-0.8-0.2l0,0
	c-0.3-0.1-0.6-0.1-0.9-0.1c0,0,0,0-0.1,0s-0.2,0-0.2,0c-0.3,0-0.5,0-0.8,0.1h-0.1V15.2h27.2v42.2h-0.1c-0.2-0.1-0.5-0.1-0.7-0.1
	c-0.1,0-0.2,0-0.2,0s0,0-0.1,0c-0.3,0-0.6,0-0.9,0.1l0,0c-0.3,0.1-0.5,0.1-0.8,0.2c0,0-0.1,0-0.1,0.1c-0.2,0.1-0.4,0.2-0.6,0.3h-0.2
	c-0.2,0.1-0.4,0.3-0.6,0.5l0,0c-0.2,0.2-0.4,0.4-0.5,0.6c0,0,0,0,0,0.1c-0.1,0.2-0.3,0.4-0.3,0.6c0,0.1,0,0.1-0.1,0.2
	c-0.1,0.2-0.2,0.4-0.2,0.7v0.1v0.1c0,0.1,0,0.2,0,0.3c0,0.2,0,0.3,0,0.5v0.1c0,0.1,0,0.2,0,0.4s0,0.4,0.1,0.6c0,0.1,0.1,0.2,0.1,0.4
	c0.1,0.2,0.1,0.4,0.2,0.5c0.1,0.1,0.1,0.2,0.2,0.4c0.1,0.2,0.2,0.3,0.3,0.4c0,0.1,0.1,0.1,0.1,0.2s0.1,0.1,0.2,0.2L59.3,65
	c-0.2,0.1-0.3,0.2-0.5,0.3c-0.1,0-0.1,0.1-0.2,0.1c-0.1,0.1-0.3,0.2-0.4,0.3c-0.1,0.1-0.1,0.1-0.2,0.2C57.7,66,57.6,66.1,57.5,66.2z
	 M67,72v6.8h-9.1v-7.9c0-2.5,2-4.5,4.5-4.5c0.9,0,1.7,0.3,2.5,0.7c0.1,0.1,0.2,0.1,0.2,0.2c0.1,0.1,0.3,0.2,0.4,0.3
	c0.1,0.1,0.1,0.1,0.2,0.2s0.3,0.3,0.4,0.4c0,0.1,0.1,0.1,0.1,0.2c0.1,0.2,0.3,0.4,0.4,0.7c0,0.1,0.1,0.2,0.1,0.2
	c0.1,0.2,0.1,0.4,0.2,0.6c0,0.1,0,0.2,0.1,0.2c0.1,0.3,0.1,0.5,0.1,0.8L67,72L67,72z M78.4,78.8h-9.1v-4.5c0-0.9,0.3-1.7,0.7-2.5
	c0.1-0.1,0.1-0.2,0.2-0.2c0.1-0.1,0.2-0.3,0.3-0.4c0.1-0.1,0.1-0.1,0.2-0.2s0.3-0.3,0.4-0.4c0.1,0,0.1-0.1,0.2-0.1
	c0.2-0.1,0.4-0.3,0.7-0.4c0.1,0,0.2-0.1,0.2-0.1c0.2-0.1,0.4-0.1,0.5-0.2c0.1,0,0.2,0,0.2-0.1c0.5-0.1,1.1-0.1,1.6,0
	c0.1,0,0.2,0,0.2,0.1c0.2,0,0.4,0.1,0.6,0.2c0.1,0,0.2,0.1,0.2,0.1c0.2,0.1,0.5,0.2,0.7,0.4c0.1,0,0.1,0.1,0.2,0.1
	c0.2,0.1,0.3,0.2,0.4,0.4c0.1,0.1,0.1,0.1,0.2,0.2s0.2,0.3,0.3,0.4c0.1,0.1,0.1,0.2,0.2,0.2c0.5,0.7,0.7,1.6,0.7,2.5v4.5H78.4z
	 M71.6,65.2c0-1.3,1-2.3,2.3-2.3s2.3,1,2.3,2.3c0,1.3-1,2.3-2.3,2.3S71.6,66.4,71.6,65.2z M81.8,70.8h-2.1c0,0,0,0,0-0.1
	c-0.1-0.2-0.3-0.4-0.4-0.6L79.2,70c-0.3-0.4-0.7-0.8-1.2-1.1c-0.1,0-0.1-0.1-0.2-0.1c-0.2-0.1-0.4-0.2-0.5-0.4c0,0-0.1-0.1-0.2-0.1
	c0,0,0,0-0.1,0c1.7-1.8,1.7-4.7-0.1-6.4c-1.8-1.7-4.7-1.7-6.4,0.1c-1.7,1.8-1.7,4.5,0,6.3c-0.1,0-0.2,0.1-0.2,0.1s-0.1,0.1-0.2,0.1
	c-0.1,0.1-0.2,0.1-0.3,0.2c-0.1,0.1-0.1,0.1-0.2,0.2s-0.2,0.2-0.3,0.2c-0.1,0-0.1,0.1-0.2,0.1c0-0.1,0-0.1-0.1-0.2
	c0-0.1-0.1-0.3-0.1-0.4s-0.1-0.1-0.1-0.2c-0.1-0.1-0.1-0.3-0.2-0.4c0-0.1-0.1-0.1-0.1-0.2c-0.1-0.1-0.1-0.3-0.2-0.4
	c0-0.1-0.1-0.2-0.1-0.2c-0.1-0.1-0.1-0.2-0.2-0.3c-0.1-0.1-0.1-0.1-0.2-0.2s-0.2-0.2-0.3-0.3c-0.1-0.1-0.1-0.1-0.2-0.2
	S67.1,66,67,65.9c-0.1-0.1-0.1-0.1-0.2-0.2s-0.2-0.2-0.4-0.3c-0.1,0-0.1-0.1-0.2-0.1c-0.1-0.1-0.3-0.2-0.4-0.3c0,0-0.1,0-0.1-0.1
	v-0.2l0.1-0.1c0.1-0.2,0.3-0.3,0.4-0.5c0-0.1,0.1-0.1,0.1-0.2c0.1-0.2,0.2-0.3,0.2-0.5c0-0.1,0.1-0.2,0.1-0.4c0-0.1,0.1-0.3,0.1-0.4
	c0.1-0.6,0.1-1.1,0-1.7c0-0.2-0.1-0.3-0.1-0.4c0-0.1-0.1-0.2-0.1-0.4c-0.1-0.2-0.2-0.3-0.2-0.5c0-0.1-0.1-0.2-0.1-0.2
	c-0.1-0.2-0.2-0.3-0.4-0.5l-0.1-0.1V32.2h15.9v38.6H81.8z"/>
<rect x="69.3" y="39.1" width="2.3" height="18.2"/>
<rect x="76.1" y="39.1" width="2.3" height="18.2"/>
<rect x="21.6" y="39.1" width="2.3" height="18.2"/>
<rect x="28.4" y="39.1" width="2.3" height="18.2"/>
<path d="M57.9,18.6c0-0.6-0.5-1.1-1.1-1.1H43.2c-0.6,0-1.1,0.5-1.1,1.1v9.1c0,0.6,0.5,1.1,1.1,1.1h13.6
	c0.6,0,1.1-0.5,1.1-1.1V18.6z M55.7,26.6H44.3v-6.8h11.4C55.7,19.8,55.7,26.6,55.7,26.6z"/>
</svg>
