<?xml version="1.0" encoding="utf-8"?>
<!-- Generator: Adobe Illustrator 25.0.1, SVG Export Plug-In . SVG Version: 6.00 Build 0)  -->
<svg version="1.1" fill="#8052FD" id="Capa_1" xmlns="http://www.w3.org/2000/svg" xmlns:xlink="http://www.w3.org/1999/xlink" x="0px" y="0px"
	 viewBox="0 0 512 512" style="enable-background:new 0 0 512 512;" xml:space="preserve">

	
	


<g>
	<path d="M348.4,361.9H163.6c-7.5,0-13.5-6-13.5-13.5V163.6c0-7.5,6-13.5,13.5-13.5h184.7c7.5,0,13.5,6,13.5,13.5v184.7
		C361.9,355.8,355.8,361.9,348.4,361.9z M163.6,158.7c-2.7,0-4.9,2.2-4.9,4.9v184.7c0,2.7,2.2,4.9,4.9,4.9h184.7
		c2.7,0,4.9-2.2,4.9-4.9V163.6c0-2.7-2.2-4.9-4.9-4.9H163.6z"/>
	<path d="M201.8,143.4h-25.2c-4.1,0-7.5-3.4-7.5-7.5V88.1c0-4.1,3.4-7.5,7.5-7.5h25.2c4.1,0,7.5,3.4,7.5,7.5v47.8
		C209.3,140,206,143.4,201.8,143.4z M177.8,134.7h22.9V89.2h-22.9V134.7z"/>
	<path d="M268.6,143.4h-25.2c-4.1,0-7.5-3.4-7.5-7.5V88.1c0-4.1,3.4-7.5,7.5-7.5h25.2c4.1,0,7.5,3.4,7.5,7.5v47.8
		C276.1,140,272.7,143.4,268.6,143.4z M244.6,134.7h22.9V89.2h-22.9V134.7L244.6,134.7z"/>
	<path d="M335.4,143.4h-25.2c-4.1,0-7.5-3.4-7.5-7.5V88.1c0-4.1,3.4-7.5,7.5-7.5h25.2c4.1,0,7.5,3.4,7.5,7.5v47.8
		C342.8,140,339.5,143.4,335.4,143.4z M311.3,134.7h22.9V89.2h-22.9V134.7z"/>
	<path d="M201.8,431.4h-25.2c-4.1,0-7.5-3.4-7.5-7.5v-47.8c0-4.1,3.4-7.5,7.5-7.5h25.2c4.1,0,7.5,3.4,7.5,7.5v47.8
		C209.3,428,206,431.4,201.8,431.4z M177.8,422.8h22.9v-45.5h-22.9V422.8z"/>
	<path d="M268.6,431.4h-25.2c-4.1,0-7.5-3.4-7.5-7.5v-47.8c0-4.1,3.4-7.5,7.5-7.5h25.2c4.1,0,7.5,3.4,7.5,7.5v47.8
		C276.1,428,272.7,431.4,268.6,431.4z M244.6,422.8h22.9v-45.5h-22.9V422.8L244.6,422.8z"/>
	<path d="M335.4,431.4h-25.2c-4.1,0-7.5-3.4-7.5-7.5v-47.8c0-4.1,3.4-7.5,7.5-7.5h25.2c4.1,0,7.5,3.4,7.5,7.5v47.8
		C342.8,428,339.5,431.4,335.4,431.4z M311.3,422.8h22.9v-45.5h-22.9V422.8z"/>
	<path d="M423.9,209.3h-47.8c-4.1,0-7.5-3.4-7.5-7.5v-25.2c0-4.1,3.4-7.5,7.5-7.5h47.8c4.1,0,7.5,3.4,7.5,7.5v25.2
		C431.4,206,428,209.3,423.9,209.3z M377.3,200.7h45.5v-22.9h-45.5V200.7z"/>
	<path d="M423.9,276.1h-47.8c-4.1,0-7.5-3.4-7.5-7.5v-25.2c0-4.1,3.4-7.5,7.5-7.5h47.8c4.1,0,7.5,3.4,7.5,7.5v25.2
		C431.4,272.7,428,276.1,423.9,276.1z M377.3,267.4h45.5v-22.9h-45.5V267.4z"/>
	<path d="M423.9,342.8h-47.8c-4.1,0-7.5-3.4-7.5-7.5v-25.2c0-4.1,3.4-7.5,7.5-7.5h47.8c4.1,0,7.5,3.4,7.5,7.5v25.2
		C431.4,339.5,428,342.8,423.9,342.8z M377.3,334.2h45.5v-22.9h-45.5V334.2z"/>
	<path d="M135.9,209.3H88.1c-4.1,0-7.5-3.4-7.5-7.5v-25.2c0-4.1,3.4-7.5,7.5-7.5h47.8c4.1,0,7.5,3.4,7.5,7.5v25.2
		C143.4,206,140,209.3,135.9,209.3z M89.2,200.7h45.5v-22.9H89.2V200.7z"/>
	<path d="M135.9,276.1H88.1c-4.1,0-7.5-3.4-7.5-7.5v-25.2c0-4.1,3.4-7.5,7.5-7.5h47.8c4.1,0,7.5,3.4,7.5,7.5v25.2
		C143.4,272.7,140,276.1,135.9,276.1z M89.2,267.4h45.5v-22.9H89.2V267.4z"/>
	<path d="M135.9,342.8H88.1c-4.1,0-7.5-3.4-7.5-7.5v-25.2c0-4.1,3.4-7.5,7.5-7.5h47.8c4.1,0,7.5,3.4,7.5,7.5v25.2
		C143.4,339.5,140,342.8,135.9,342.8z M89.2,334.2h45.5v-22.9H89.2V334.2z"/>
</g>
</svg>
