<?xml version="1.0" encoding="utf-8"?>
<!-- Generator: Adobe Illustrator 25.0.1, SVG Export Plug-In . SVG Version: 6.00 Build 0)  -->
<svg version="1.1" fill="#8052FD" id="Layer_1" xmlns="http://www.w3.org/2000/svg" xmlns:xlink="http://www.w3.org/1999/xlink" x="0px" y="0px"
	 viewBox="0 0 512 512" style="enable-background:new 0 0 512 512;" xml:space="preserve">

	
	


<path d="M99.6,435.2c-2.5,0-4.6,2-4.6,4.6s2,4.6,4.6,4.6h311.1c2.5,0,4.6-2,4.6-4.6s-2-4.6-4.6-4.6h-14.4V298.5
	c0-9.6-7.7-17.3-17.3-17.3h-32.6v-93l0.1-0.2c5.8-7.9,7.7-18.2,5.2-27.6c-0.4-1.3-1.3-2.5-2.6-3c-0.6-0.3-1.3-0.4-2-0.4h-0.7v-11
	h64.4c2.9,0,5.4-1.8,6.5-4.4s0.3-5.7-1.9-7.6l-16-14.1l16-14.1c2.2-1.9,2.9-4.9,1.9-7.6c-1.1-2.7-3.6-4.4-6.5-4.4h-64.4v-3.5
	c0-2.5-2-4.6-4.6-4.6s-4.6,2-4.6,4.6v71.6L292.7,186l-0.1-1.1c-0.2-1.8-0.8-3.7-1.6-5.3l-6.1-12c-2-3.8-5.3-6.6-9.3-7.9
	c-4.1-1.3-8.4-1-12.2,1l-4.7,2.4c-3.8,2-6.6,5.3-7.9,9.3c-1.3,4.1-1,8.4,1,12.2l6.1,12c1.3,2.5,3.3,4.7,5.8,6.3l0.6,0.4l-0.4,0.6
	c-3.2,4.3-4.7,9.8-6.3,15.1l-1.1,4c-0.4,1.2-0.2,2.4,0.4,3.4c0.6,1.1,1.5,1.8,2.7,2.2c0.4,0.1,0.8,0.1,1.3,0.1c2,0,3.9-1.3,4.4-3.3
	l1.1-4c2.4-8.4,3.8-12.8,8.6-15.4l9.1-4.9c0.3-0.1,0.5-0.3,0.8-0.4l0.1-0.1l58.9-32l-0.1,1.3c-0.4,7.7-4.5,14.6-11,18.5l-37.6,22.9
	c-0.1,0-0.1,0.1-0.1,0.1l-11.7,7.1c-2.2,1.3-2.8,4.1-1.5,6.3c1.3,2,3.8,2.7,5.9,1.8l1.5-0.7l-9.7,28.8L253.9,265l5.5-19.3
	c0.7-2.5-0.7-5-3.2-5.6c-1.2-0.4-2.4-0.2-3.4,0.4c-1.1,0.6-1.8,1.5-2.2,2.7l-8,28.4c-0.1,0.4-0.1,0.7-0.1,1l-2.1,38.6
	c0,0.4,0,0.8,0,1.3c0,1.5,0.1,3.4-0.5,4.6l-23.6,49.5h-17.4c-9.6,0-17.3,7.7-17.3,17.3v16.3l-1-0.4c-2.3-1.1-4.6-1.5-7.2-1.5h-43.2
	c-9.6,0-17.3,7.7-17.3,17.3v19.6H99.6z M387.2,435.2h-59.4v-32.4c0-2.5-2-4.6-4.6-4.6s-4.6,2-4.6,4.6v32.4h-59.4V350
	c0-4.5,3.7-8.2,8.2-8.2h43c4.5,0,8.2,3.7,8.2,8.2v26.4c0,2.5,2,4.6,4.6,4.6s4.6-2,4.6-4.6v-77.9c0-4.5,3.7-8.2,8.2-8.2h43
	c4.5,0,8.2,3.7,8.2,8.2L387.2,435.2L387.2,435.2z M250.2,435.2h-59.4V384c0-4.5,3.7-8.2,8.2-8.2h43c4.5,0,8.2,3.7,8.2,8.2
	L250.2,435.2L250.2,435.2z M181.6,435.2h-59.4v-19.6c0-4.5,3.7-8.2,8.2-8.2h43c4.5,0,8.2,3.7,8.2,8.2L181.6,435.2L181.6,435.2z
	 M250.2,368.7l-1-0.4c-1.8-0.8-3.7-1.3-5.6-1.5l-1.3-0.1l7.8-10.4V368.7L250.2,368.7z M230.8,366.6h-4.4l21.6-45.4
	c1.1-3.1,1.5-6.3,1.4-9.5l2-35.7l26-10.7l-4.6,25.8c0,0.1,0,0.1,0,0.1l-3.7,20.3c-0.1,0.4-0.2,0.8-0.3,1.3c-0.4,2-0.9,4.5-2,6
	L230.8,366.6z M318.7,334.7l-1-0.4c-1.8-0.8-3.9-1.3-5.9-1.5l-0.7-0.1l4.4-35.5c0.8-6.5-2.5-10.9-5.8-15.1
	c-0.4-0.4-13.8-16.4-20.9-24.8l-0.3-0.3l12.8-38.7l35.9-21.9v84.7h-1.3c-9.6,0-17.3,7.7-17.3,17.3L318.7,334.7L318.7,334.7z
	 M287.7,332.7h-19.9l6.1-8.1c2.4-2.9,3.1-6.3,3.7-9.1c0.1-0.7,2.7-14.8,2.7-14.9l0.2-1l0.8,0.6c1.1,0.7,2.5,1.5,2.6,1.6
	c0.4,0.2,0.7,0.6,0.7,1.1L287.7,332.7z M301.8,332.7h-4.9l-3-30.8c-0.4-3.6-2.6-6.8-5.8-8.4l-0.1-0.1l-5.7-3.6l3.9-21.5l1,1.1
	c0.6,0.7,14.9,17.7,15.3,18.1c3.2,4.1,4.3,5.8,4,8.4L301.8,332.7z M272,196.2c-0.7,0-1.4-0.1-2.1-0.4c-1.8-0.6-3.2-1.8-4-3.4
	l-6.1-12c-0.8-1.6-1-3.4-0.4-5.2l0,0c0.6-1.8,1.8-3.2,3.4-4l4.7-2.4c1-0.5,2-0.8,3.1-0.8c2.6,0,4.9,1.4,6.1,3.7l6.1,12
	c1.5,3.1,0.6,6.8-2.3,8.8l-1.8,1l-3.7,1.9C274.1,196,273.1,196.2,272,196.2z M404.8,136.8h-58.4v-34h58.4l-13.4,11.8
	c-1.5,1.3-2.3,3.2-2.3,5.2s0.8,3.9,2.3,5.2L404.8,136.8z"/>
</svg>
