<?xml version="1.0" encoding="utf-8"?>
<!-- Generator: Adobe Illustrator 25.0.1, SVG Export Plug-In . SVG Version: 6.00 Build 0)  -->
<svg version="1.1" fill="#8052FD" id="Layer_1" xmlns="http://www.w3.org/2000/svg" xmlns:xlink="http://www.w3.org/1999/xlink" x="0px" y="0px"
	 viewBox="0 0 100 100" style="enable-background:new 0 0 100 100;" xml:space="preserve">

	
	


<g>
	<g>
		<path d="M55.8,40.6c-0.1-0.2-0.2-0.5-0.4-0.8c-0.7-1.4-1.6-2.7-2.8-3.8c-2.7-2.7-6.4-4.3-10.3-4.3
			c-5.6,0-10.6,3.1-13,8.1c-0.1,0.3-0.2,0.5-0.4,0.8c-0.8,1.8-1.2,3.7-1.2,5.7v1.6h1.8v-1.6c0-1.7,0.3-3.4,1-5
			c0.1-0.2,0.2-0.4,0.3-0.7c2.2-4.4,6.6-7.1,11.4-7.1c3.4,0,6.6,1.3,9,3.7c1,1,1.8,2.1,2.4,3.4c0.1,0.2,0.2,0.5,0.3,0.7
			c0.7,1.6,1,3.3,1,5v1.6H57v-1.6c0-1.3-0.2-2.6-0.5-3.8c2.8,0.3,5,2.6,5,5.5v5.2c0,3.4,2.7,6.1,6.1,6.1s6.1-2.7,6.1-6.1v-2.6h4.6
			V48h1v-1.8h-1v-0.9h1v-1.8h-1v-0.9c0-3.2,1.1-6.3,3.1-8.7c1.7-2,2.6-4.6,2.6-7.2c0-3.1-1.2-5.9-3.4-8.1c-2.2-2.1-5.1-3.3-8.2-3.2
			c-6.1,0.1-11,5.2-11,11.3c0,2.6,0.9,5.2,2.6,7.3c2,2.4,3.1,5.5,3.1,8.7v0.9h-0.9v1.8h0.9v0.9h-0.9V48h0.9v2.6H72v2.6
			c0,2.4-1.9,4.3-4.3,4.3s-4.3-1.9-4.3-4.3V48c0-4-3.3-7.3-7.3-7.3C56,40.7,55.9,40.7,55.8,40.6z M65.5,32.7
			c-1.4-1.7-2.2-3.9-2.2-6.1c0-5.1,4.2-9.4,9.3-9.5c2.6-0.1,5,0.9,6.9,2.7c1.9,1.8,2.9,4.2,2.9,6.8c0,2.2-0.8,4.4-2.2,6.1
			c-1.9,2.3-3.1,5.1-3.4,8h-1.5V39h-1.8v1.7h-1.2V39h-1.8v1.7H69C68.6,37.8,67.4,35,65.5,32.7z M76.7,48.8H69V48h7.6L76.7,48.8
			L76.7,48.8z M76.7,46.2H69v-0.9h7.6L76.7,46.2L76.7,46.2z M69,43.5v-0.9l0,0h7.6l0,0v0.9H69L69,43.5z"/>
		<rect x="41.6" y="54.3" width="1.8" height="2.7"/>
		<rect x="41.6" y="18" width="1.8" height="9.3"/>
		
			<rect x="49.7" y="25.1" transform="matrix(0.7071 -0.7071 0.7071 0.7071 -2.4554 46.0438)" width="9.3" height="1.8"/>
		
			<rect x="29.7" y="21.3" transform="matrix(0.7071 -0.7071 0.7071 0.7071 -9.3921 29.2103)" width="1.8" height="9.3"/>
		<path d="M68.5,33.1l4.4-2.3l4.4,2.3l-0.8-4.9l3.6-3.5l-5-0.7l-2.2-4.5L70.7,24l-5,0.7l3.6,3.5L68.5,33.1z M71.9,25.5
			l1-2.1l1,2.1l2.3,0.3l-1.7,1.6l0.4,2.3l-2.1-1.1l-2.1,1.1l0.4-2.3l-1.7-1.6L71.9,25.5z"/>
		<path d="M18.2,74.1c-0.3,1.4-0.4,2.9-0.4,4.4v4.3H67v-4.3c0-1.5-0.1-2.9-0.4-4.4c-0.3-1.7-1.1-3.3-2.4-4.5
			c-0.5-0.5-1.2-1-1.9-1.4c-0.8-0.5-1.7-0.8-2.7-0.9L48.7,65v-1.8c2.6-1.8,4.5-4.6,4.9-7.9c0.1,0,0.1,0,0.2,0c1.6,0,3-1.3,3-3
			c0-1.6-1.3-3-3-3c-0.1,0-0.1,0-0.2,0c-0.2-1.1-0.7-2-1.6-2.6l0,0c-1.3-0.9-2.4-3.5-2.8-4.6c-0.3-0.6-0.8-1.1-1.5-1.3
			c-0.7-0.1-1.4,0.1-1.9,0.6c-4.3,4.3-10.4,5.3-12.8,5.5c-1.2,0.1-2.2,1.1-2.2,2.4l0,0c-1.6,0-3,1.3-3,3c0,1.6,1.3,3,3,3h0.1
			c0.5,3.3,2.3,6.2,5,8V65l-11,2.2c-1.9,0.3-3.6,1.3-4.9,2.7C19.2,71,18.5,72.4,18.2,74.1L18.2,74.1z M55.2,52.3
			c0,0.6-0.5,1.2-1.2,1.2h-0.1v-2.3H54C54.7,51.1,55.2,51.6,55.2,52.3z M42.5,70.2l2,1.5v2.9l-3.9-3L42.5,70.2z M40.5,73.7l4,3.1
			v3.1l-4-3.1V73.7z M40.5,79l2.4,1.9h-2.4V79z M46.3,72.9l2.6,1.9v-8l1.8,0.4V81h-4.4C46.3,81,46.3,72.9,46.3,72.9z M47.1,71.3
			l-3-2.2l3-1.9V71.3z M37.9,71.3v-4l2.9,1.9L37.9,71.3z M38.7,72.9v8h-4.4V67.1l1.8-0.4v8L38.7,72.9z M59.5,68.9
			c0.7,0.1,1.5,0.4,2.1,0.7c0.5,0.3,1,0.7,1.5,1.1c1,1,1.6,2.2,1.9,3.6c0.2,1.3,0.4,2.7,0.4,4.1v2.5h-13V67.5L59.5,68.9L59.5,68.9z
			 M29.8,52.3c0-0.6,0.5-1.2,1.2-1.2l0,0v2.3l0,0C30.3,53.4,29.8,52.9,29.8,52.3z M32.8,53.7v-4.3c0-0.4,0.3-0.7,0.6-0.7
			c2.6-0.2,9.1-1.3,13.9-6c0.1-0.1,0.1-0.1,0.2-0.1c0,0,0,0,0.1,0s0.2,0,0.2,0.2c0.5,1.4,1.7,4.3,3.5,5.5l0,0c0.5,0.3,0.9,1,0.9,1.6
			v3.8c0,5.3-4.3,9.7-9.7,9.7S32.8,59,32.8,53.7z M42.5,65.1c1.6,0,3.2-0.4,4.6-1v1L42.4,68l-4.5-2.9v-1
			C39.3,64.8,40.8,65.1,42.5,65.1z M19.6,78.4c0-1.3,0.1-2.7,0.4-4v-0.1c0.2-1.2,0.8-2.3,1.6-3.3c1-1.1,2.4-1.9,3.9-2.1l7.1-1.5
			v13.4h-13C19.6,80.9,19.6,78.4,19.6,78.4z"/>
	</g>
</g>
</svg>
