<?xml version="1.0" encoding="utf-8"?>
<!-- Generator: Adobe Illustrator 25.0.1, SVG Export Plug-In . SVG Version: 6.00 Build 0)  -->
<svg version="1.1" fill="#8052FD" id="Layer_1" xmlns="http://www.w3.org/2000/svg" xmlns:xlink="http://www.w3.org/1999/xlink" x="0px" y="0px"
	 viewBox="0 0 524.7 524.7" style="enable-background:new 0 0 524.7 524.7;" xml:space="preserve">

	
	


<g>
	<path d="M140.3,321l-17.6,34.8l-39.7,5.6l28.6,27.3l-6.8,38.4l35.3-18.1l35.3,18.1l-6.8-38.4l28.6-27.3l-39.7-5.6
		L140.3,321z M157.4,384.9l4,22.9L140.3,397l-21.1,10.8l4-22.9l-16.9-16.1l23.3-3.3l10.6-21l10.6,21l23.4,3.3L157.4,384.9z"/>
	<path d="M264.2,321l-17.6,34.8l-39.7,5.6l28.6,27.3l-6.8,38.4l35.3-18.1l35.3,18.1l-6.8-38.4l28.6-27.3l-39.7-5.6
		L264.2,321z M281.3,384.9l4.1,22.9L264.2,397l-21.1,10.8l4-22.9l-16.9-16.1l23.3-3.3l10.6-21l10.6,21l23.3,3.3L281.3,384.9z"/>
	<path d="M416.7,388.7l28.7-27.3l-39.6-5.6L388.2,321l-17.6,34.8l-39.7,5.6l28.7,27.3l-6.8,38.4l35.3-18.1l35.3,18.1
		L416.7,388.7z M388.2,397l-21.1,10.8l4-22.9l-16.9-16.1l23.3-3.3l10.6-21l10.6,21l23.3,3.3l-16.9,16.1l4.1,22.9L388.2,397z"/>
	<path d="M340.2,296.6v-53.9c-0.5-20-8.6-38.7-22.9-52.7c-14.3-14-33.1-21.7-53-21.7c-0.5,0-1.1,0-1.7,0
		c-19.7,0.5-38.1,8.4-52,22.3c-13.9,13.9-21.8,32.4-22.3,52v53.9H340.2z M203.5,283.5v-3.8v-35c0-33.5,27.3-60.8,60.8-60.8
		s60.8,27.3,60.8,60.8v35v3.8h-3.8h-0.1H207.3H203.5z"/>
	<path d="M264.2,158.1c27.8,0,50.5-22.7,50.5-50.5c0-27.9-22.6-50.5-50.5-50.5c-27.9,0-50.5,22.6-50.5,50.5
		S236.4,158.1,264.2,158.1z M264.2,70.8h3.4v0.2c18.6,1.7,33.3,17.5,33.3,36.5c0,20.2-16.5,36.6-36.7,36.6
		c-20.2,0-36.7-16.5-36.7-36.7S244,70.8,264.2,70.8z"/>
</g>
</svg>
