<?xml version="1.0" encoding="utf-8"?>
<!-- Generator: Adobe Illustrator 25.0.1, SVG Export Plug-In . SVG Version: 6.00 Build 0)  -->
<svg version="1.1" fill="#8052FD" id="Layer_1" xmlns="http://www.w3.org/2000/svg" xmlns:xlink="http://www.w3.org/1999/xlink" x="0px" y="0px"
	 viewBox="0 0 502 502" style="enable-background:new 0 0 502 502;" xml:space="preserve">

	
	


<g id="Layer_2_1_">
	<g id="Calque_1">
		<path d="M340.8,301c-4,0-7.2,3.2-7.2,7.2l0,0v72.2c0,5.8-4.7,10.5-10.5,10.5h-50.3c-0.6,0-1.1,0.1-1.6,0.2V161.3
			c0.1-12.5-7.7-23.8-19.3-28.3L164,98.7h156.9c7.1,0,12.8,5.7,12.8,12.8v72.1c0,4,3.2,7.2,7.2,7.2c3.9,0,7.2-3.2,7.2-7.2l0,0v-72.2
			c0-15-12.2-27.1-27.1-27.1H123.7c-2.1,0-4,0.9-5.4,2.4c-2.7,2.1-4.3,5.4-4.3,8.8v298.4c0,6.5,4,12.3,10,14.7l118.2,46.1l0,0
			c10.9,4.3,23.3-1.1,27.6-12.1c1-2.4,1.5-5.1,1.5-7.7v-29.7c0.5,0.1,1.1,0.2,1.6,0.2h50.3c13.8,0,24.9-11.1,24.9-24.9v-72.2
			C348,304.3,344.8,301,340.8,301L340.8,301z M256.8,435c0,3.8-3.1,6.9-6.9,6.9c-0.9,0-1.7-0.1-2.5-0.4l-118.2-46.1
			c-0.5-0.2-0.9-0.7-0.9-1.3V100.2l118.2,46.1c6.2,2.4,10.2,8.3,10.2,14.9V435z"/>
		<path d="M430.1,236.7L384,190.7c-2.8-2.8-7.4-2.8-10.2,0s-2.8,7.4,0,10.2l0,0L411,238h-94.2c-4,0-7.2,3.2-7.2,7.2
			c0,4,3.2,7.2,7.2,7.2l0,0h94.6l-36.7,36.7c-2.9,2.7-2.9,7.3-0.2,10.2c2.7,2.9,7.3,2.9,10.2,0.2c0.1-0.1,0.1-0.1,0.2-0.2l45.2-45.2
			C434.9,249.3,434.9,241.5,430.1,236.7L430.1,236.7L430.1,236.7z"/>
	</g>
</g>
</svg>
