<?xml version="1.0" encoding="utf-8"?>
<!-- Generator: Adobe Illustrator 25.0.1, SVG Export Plug-In . SVG Version: 6.00 Build 0)  -->
<svg version="1.1" fill="#8052FD" id="Capa_1" xmlns="http://www.w3.org/2000/svg" xmlns:xlink="http://www.w3.org/1999/xlink" x="0px" y="0px"
	 viewBox="0 0 512 512" style="enable-background:new 0 0 512 512;" xml:space="preserve">

	
	


<g>
	<g>
		<g>
			<path d="M256.7,77.2c-98.9,0-179.1,80.2-179.1,179.1s80.2,179.1,179.1,179.1s179.1-80.2,179.1-179.1
				C435.7,157.4,355.6,77.3,256.7,77.2z M256.7,423.5c-92.4,0-167.2-74.8-167.2-167.2S164.3,89.1,256.7,89.1s167.2,74.8,167.2,167.2
				C423.8,348.6,349,423.4,256.7,423.5z"/>
		</g>
	</g>
	<g>
		<g>
			<rect x="112.1" y="250" width="25.1" height="12.6"/>
		</g>
	</g>
	<g>
		<g>
			<rect x="376.1" y="250" width="25.1" height="12.6"/>
		</g>
	</g>
	<g>
		<g>
			
				<rect x="129.8" y="316" transform="matrix(0.8661 -0.4999 0.4999 0.8661 -142.0779 114.3186)" width="25.1" height="12.6"/>
		</g>
	</g>
	<g>
		<g>
			
				<rect x="358.4" y="184" transform="matrix(0.8661 -0.4999 0.4999 0.8661 -45.4694 210.9455)" width="25.1" height="12.6"/>
		</g>
	</g>
	<g>
		<g>
			
				<rect x="136" y="177.8" transform="matrix(0.4999 -0.8661 0.8661 0.4999 -93.6846 218.4828)" width="12.6" height="25.1"/>
		</g>
	</g>
	<g>
		<g>
			
				<rect x="364.7" y="309.7" transform="matrix(0.4999 -0.8661 0.8661 0.4999 -93.5941 482.4555)" width="12.6" height="25.1"/>
		</g>
	</g>
	<g>
		<g>
			
				<rect x="184.4" y="129.5" transform="matrix(0.8661 -0.4999 0.4999 0.8661 -45.4586 114.3293)" width="12.6" height="25.1"/>
		</g>
	</g>
	<g>
		<g>
			<rect x="250.4" y="111.8" width="12.6" height="25.1"/>
		</g>
	</g>
	<g>
		<g>
			
				<rect x="310.1" y="135.7" transform="matrix(0.4999 -0.8661 0.8661 0.4999 38.3659 350.4979)" width="25.1" height="12.6"/>
		</g>
	</g>
	<g>
		<g>
			
				<rect x="119.8" y="211.9" transform="matrix(0.2588 -0.9659 0.9659 0.2588 -120.3097 285.807)" width="12.6" height="18.9"/>
		</g>
	</g>
	<g>
		<g>
			
				<rect x="380.9" y="281.8" transform="matrix(0.2588 -0.9659 0.9659 0.2588 5.6216 589.8752)" width="12.6" height="18.9"/>
		</g>
	</g>
	<g>
		<g>
			
				<rect x="154.8" y="151.3" transform="matrix(0.7071 -0.7071 0.7071 0.7071 -66.4804 161.0139)" width="12.6" height="18.9"/>
		</g>
	</g>
	<g>
		<g>
			
				<rect x="215.4" y="116.3" transform="matrix(0.9659 -0.2588 0.2588 0.9659 -24.9965 61.6543)" width="12.6" height="18.9"/>
		</g>
	</g>
	<g>
		<g>
			
				<rect x="282.2" y="119.6" transform="matrix(0.2588 -0.9659 0.9659 0.2588 94.5811 375.0003)" width="18.9" height="12.6"/>
		</g>
	</g>
	<g>
		<g>
			
				<rect x="342.8" y="154.5" transform="matrix(0.7071 -0.7071 0.7071 0.7071 -10.5354 296.1723)" width="18.9" height="12.6"/>
		</g>
	</g>
	<g>
		<g>
			
				<rect x="377.8" y="215" transform="matrix(0.9659 -0.2588 0.2588 0.9659 -44.0921 107.757)" width="18.9" height="12.6"/>
		</g>
	</g>
	<g>
		<g>
			
				<rect x="116.7" y="285" transform="matrix(0.9659 -0.2588 0.2588 0.9659 -71.0974 42.5791)" width="18.9" height="12.6"/>
		</g>
	</g>
	<g>
		<g>
			<path d="M283.4,152.9c-57.2-14.7-115.4,19.7-130.2,76.8c-7,27.1-3.1,55.8,10.9,80c1.8,2.9,5.7,3.8,8.6,2.1
				c2.8-1.8,3.8-5.4,2.2-8.3c-26-45.1-10.5-102.8,34.6-128.8s102.8-10.5,128.8,34.6c12.3,21.4,15.8,46.7,9.6,70.6
				c-0.9,3.4,1.2,6.8,4.5,7.7c3.4,0.9,6.8-1.2,7.7-4.5l0,0C374.9,225.9,340.5,167.6,283.4,152.9z"/>
		</g>
	</g>
	<g>
		<g>
			<path d="M348.6,301.8l-69.2-56.6c-0.2-0.1-0.4-0.2-0.6-0.3c-6.3-12.3-21.4-17.2-33.7-10.9
				c-12.3,6.3-17.2,21.4-10.9,33.7c4.1,7.9,12,13.1,20.8,13.6l87.4,31.2c0.7,0.2,1.4,0.4,2.1,0.4c3.5,0,6.3-2.8,6.3-6.3
				C351,304.7,350.1,302.9,348.6,301.8z M256.7,268.9c-6.9,0-12.6-5.6-12.6-12.6c0-6.9,5.6-12.6,12.6-12.6c6.9,0,12.6,5.6,12.6,12.6
				C269.2,263.3,263.6,268.9,256.7,268.9z M273.8,274.6c3.5-3.2,6-7.4,7.1-12.1l31.7,25.9L273.8,274.6z"/>
		</g>
	</g>
	<g>
		<g>
			<path d="M281.8,319.2h-50.3c-17.4,0-31.5,14.1-31.5,31.5c0,17.4,14.1,31.5,31.5,31.5h50.3
				c17.4,0,31.5-14.1,31.5-31.5C313.3,333.3,299.2,319.2,281.8,319.2z M281.8,369.4h-50.3c-10.4,0-18.9-8.5-18.9-18.9
				s8.5-18.9,18.9-18.9h50.3c10.4,0,18.9,8.5,18.9,18.9S292.2,369.4,281.8,369.4z"/>
		</g>
	</g>
	<g>
		<g>
			<path d="M244.1,344.3h-12.6c-3.5,0-6.3,2.8-6.3,6.3s2.8,6.3,6.3,6.3h12.6c3.5,0,6.3-2.8,6.3-6.3
				S247.6,344.3,244.1,344.3z"/>
		</g>
	</g>
	<g>
		<g>
			<path d="M281.8,356.9c3.5,0,6.3-2.8,6.3-6.3s-2.8-6.3-6.3-6.3h-12.6c-3.5,0-6.3,2.8-6.3,6.3s2.8,6.3,6.3,6.3"/>
		</g>
	</g>
</g>
</svg>
