<?xml version="1.0" encoding="utf-8"?>
<!-- Generator: Adobe Illustrator 25.0.1, SVG Export Plug-In . SVG Version: 6.00 Build 0)  -->
<svg version="1.1" fill="#8052FD" id="Layer_1" xmlns="http://www.w3.org/2000/svg" xmlns:xlink="http://www.w3.org/1999/xlink" x="0px" y="0px"
	 viewBox="0 0 480 480" style="enable-background:new 0 0 480 480;" xml:space="preserve">

	
	


<g>
	<path d="M388.9,174.1c-22.3,0-41.1,14.9-47.2,35.2h-66.9l5.8-8.2c1.4-2,1-4.8-1.1-6.3c-2.1-1.4-4.8-1-6.3,1.1
		l-21.1,29.6c-1.4,2-1,4.8,1.1,6.3c0.8,0.6,1.8,0.8,2.7,0.8c1.4,0,2.8-0.7,3.7-1.9l8.8-12.3h71.6c-0.2,1.7-0.3,3.3-0.3,5
		c0,13.4,5.3,25.5,13.9,34.3l-79.1,79.1c-8.9-8.7-21-14.1-34.5-14.1c-12.7,0-24.3,4.8-33,12.8l-79.3-79.3
		c7.8-8.8,12.6-20.3,12.6-32.9c0-1.7-0.1-3.3-0.3-5h71.6l-5,7.1c-1.4,2-1,4.8,1.1,6.3c0.8,0.6,1.8,0.8,2.7,0.8
		c1.4,0,2.8-0.7,3.7-1.9l21.1-29.6c1.4-2,1-4.8-1.1-6.3c-2-1.4-4.8-1-6.3,1.1l-9.6,13.4h-79.9c-6.1-20.4-25-35.2-47.2-35.2
		c-27.2,0-49.2,22.1-49.2,49.2c0,27.2,22.1,49.2,49.2,49.2c11.3,0,21.7-3.8,30-10.2l79.8,79.8c-6.3,8.3-10.1,18.6-10.1,29.8
		c0,27.2,22.1,49.2,49.2,49.2c27.2,0,49.2-22.1,49.2-49.2c0-10.5-3.3-20.2-8.9-28.2l80.2-80.2c8,5.7,17.8,9,28.4,9
		c27.2,0,49.2-22.1,49.2-49.2C438.2,196.2,416.1,174.1,388.9,174.1z M91,263.5c-22.2,0-40.2-18-40.2-40.2s18-40.2,40.2-40.2
		s40.2,18,40.2,40.2S113.2,263.5,91,263.5z M240,412.1c-22.2,0-40.2-18-40.2-40.2s18-40.1,40.2-40.1s40.2,18,40.2,40.2
		S262.2,412.1,240,412.1z M388.9,263.5c-22.2,0-40.2-18-40.2-40.2s18-40.2,40.2-40.2c22.2,0,40.2,18,40.2,40.2
		C429.1,245.5,411,263.5,388.9,263.5z"/>
	<path d="M249.7,179.3c-8.8,0-15.9-7.1-15.9-15.9s7.1-15.9,15.9-15.9c8.8,0,15.9,7.1,15.9,15.9S258.4,179.3,249.7,179.3
		z M249.7,156.7c-3.8,0-6.8,3-6.8,6.8s3,6.8,6.8,6.8s6.8-3,6.8-6.8S253.4,156.7,249.7,156.7z"/>
	<path d="M254.8,139.1h-12c-5.1,0-9.3-4.2-9.5-9.3l-3.2-61.7c-0.1-2.5,0.8-4.8,2.6-6.6c1.8-1.8,4-2.8,6.5-2.8h19.2
		c2.5,0,4.8,1,6.5,2.8c1.8,1.8,2.7,4.1,2.6,6.6v0.1l-3.1,61.7C264.2,134.9,259.9,139.1,254.8,139.1z M239.2,67.8l3.1,61.7
		c0,0.3,0.2,0.4,0.4,0.4h12c0.3,0,0.4-0.2,0.4-0.4v-0.1l3.1-61.6L239.2,67.8L239.2,67.8z"/>
</g>
</svg>
