<?xml version="1.0" encoding="utf-8"?>
<!-- Generator: Adobe Illustrator 25.0.1, SVG Export Plug-In . SVG Version: 6.00 Build 0)  -->
<svg version="1.1" fill="#8052FD" id="Layer_1" xmlns="http://www.w3.org/2000/svg" xmlns:xlink="http://www.w3.org/1999/xlink" x="0px" y="0px"
	 viewBox="0 0 512 512" style="enable-background:new 0 0 512 512;" xml:space="preserve">

	
	


<g>
	<path d="M256,327.5c-32,0-58-26.1-58-58s26.1-58,58-58s58,26.1,58,58S288,327.5,256,327.5z M256,220.8
		c-26.9,0-48.7,21.8-48.7,48.7s21.8,48.7,48.7,48.7s48.7-21.8,48.7-48.7S282.9,220.8,256,220.8z"/>
</g>
<path d="M279.3,304h-46.5c-4.6,0-8.3-3.5-8.3-7.9v-29.6c0-4.4,3.7-7.9,8.3-7.9h1v-9c0-11.4,10-20.6,22.3-20.6
	c12.3,0,22.3,9.2,22.3,20.6v9h1c4.6,0,8.3,3.5,8.3,7.9v29.6C287.6,300.4,283.8,304,279.3,304z M232.7,265.9c-0.6,0-1,0.4-1,0.6v29.6
	c0,0.2,0.4,0.6,1,0.6h46.5c0.6,0,1-0.4,1-0.6v-29.6c0-0.2-0.4-0.6-1-0.6h-8.3v-16.4c0-7.3-6.7-13.3-15-13.3c-8.2,0-15,6-15,13.3
	v16.4H232.7z M266.1,266h-20.1v-14.4c0-6,4.5-10.8,10.1-10.8c5.6,0,10.1,4.9,10.1,10.8L266.1,266L266.1,266z M253.2,258.7h5.5v-7.1
	c0-1.9-1.3-3.5-2.8-3.5s-2.8,1.6-2.8,3.5L253.2,258.7L253.2,258.7z"/>
<path d="M409,140L378.2,99c-1.9-2.2-5.2-2.6-7.5-0.7c-0.3,0.2-0.5,0.4-0.7,0.7L339.2,140c-0.6,0.9-1,2-1,3.1v41.1h-46.2
	v-41.1c0-1.1-0.4-2.2-1-3.1L260.1,99c-1.9-2.2-5.2-2.6-7.5-0.7c-0.3,0.2-0.5,0.4-0.7,0.7L221.1,140c-0.6,0.9-1,2-1,3.1v41.1h-46.2
	v-41.1c0-1.1-0.4-2.2-1-3.1L142,99c-1.9-2.2-5.2-2.6-7.5-0.7c-0.3,0.2-0.5,0.4-0.7,0.7L103,140c-0.6,0.9-1,2-1,3.1V410
	c0,2.8,2.3,5.1,5.1,5.1h61.6c2.8,0,5.1-2.3,5.1-5.1v-51.3h46.2V410c0,2.8,2.3,5.1,5.1,5.1h61.6c2.8,0,5.1-2.3,5.1-5.1v-51.3h46.2
	V410c0,2.8,2.3,5.1,5.1,5.1h61.6c2.8,0,5.1-2.3,5.1-5.1V143.1C410,142,409.6,140.9,409,140z M163.6,404.9h-51.3V144.8l25.7-34.2
	l25.7,34.2V404.9z M173.9,194.4h46.2v15.8h-46.2V194.4z M220.1,348.4h-46.2v-15h46.2V348.4z M338.1,348.4h-46.2v-15h46.2V348.4z
	 M338.1,323.2h-46.2v-11.1c-3.1,2.6-6.6,4.9-10.3,6.9v85.9h-51.3V319c-3.7-1.9-7.1-4.2-10.3-6.9v11.1h-46.2V220.6h46.2v6.4
	c3.1-2.6,6.6-4.9,10.3-6.9v-75.2l25.7-34.2l25.7,34.2V220c3.7,1.9,7.1,4.2,10.3,6.9v-6.4h46.2V323.2z M338.1,210.3h-46.2v-15.8h46.2
	V210.3z M399.7,404.9h-51.3V144.8l25.7-34.2l25.7,34.2V404.9z"/>
</svg>
