<?xml version="1.0" encoding="UTF-8"?><svg fill="#8052fd" id="AI-1" xmlns="http://www.w3.org/2000/svg" viewBox="0 0 198 198"><g><path d="M132.77,155.28H65.23c-6.21,0-11.25-5.05-11.25-11.25V53.98c0-6.21,5.05-11.25,11.25-11.25h54.03c1.24,0,2.25,1.01,2.25,2.25v20.26h20.26c1.24,0,2.25,1.01,2.25,2.25v76.54c0,6.21-5.05,11.25-11.25,11.25ZM65.23,47.22c-3.72,0-6.75,3.03-6.75,6.75v90.05c0,3.72,3.03,6.75,6.75,6.75h67.54c3.72,0,6.75-3.03,6.75-6.75V69.73h-20.26c-1.24,0-2.25-1.01-2.25-2.25v-20.26h-51.78Z" /><path d="M141.77,69.73h-22.51c-1.24,0-2.25-1.01-2.25-2.25v-22.51c0-.91,.55-1.73,1.39-2.08,.84-.35,1.81-.15,2.45,.49l22.51,22.51c.64,.64,.84,1.61,.49,2.45-.35,.84-1.17,1.39-2.08,1.39Zm-20.26-4.5h14.83l-14.83-14.83v14.83Z" /></g><g><path d="M123.76,123.78h-49.53c-1.24,0-2.27-1.03-2.27-2.27s1.03-2.27,2.27-2.27h49.53c1.24,0,2.27,1.03,2.27,2.27s-1.03,2.27-2.27,2.27Z" /><path d="M123.76,110.28h-49.53c-1.24,0-2.27-1.03-2.27-2.27s1.03-2.27,2.27-2.27h49.53c1.24,0,2.27,1.03,2.27,2.27s-1.03,2.27-2.27,2.27Z" /><path d="M123.76,96.77h-49.53c-1.24,0-2.27-1.03-2.27-2.27s1.03-2.27,2.27-2.27h49.53c1.24,0,2.27,1.03,2.27,2.27s-1.03,2.27-2.27,2.27Z" /><path d="M123.76,83.26h-49.53c-1.24,0-2.27-1.03-2.27-2.27s1.03-2.27,2.27-2.27h49.53c1.24,0,2.27,1.03,2.27,2.27s-1.03,2.27-2.27,2.27Z" /></g></svg>