<?xml version="1.0" encoding="utf-8"?>
<!-- Generator: Adobe Illustrator 25.0.1, SVG Export Plug-In . SVG Version: 6.00 Build 0)  -->
<svg version="1.1" fill="#8052FD" id="Capa_1" xmlns="http://www.w3.org/2000/svg" xmlns:xlink="http://www.w3.org/1999/xlink" x="0px" y="0px"
	 viewBox="0 0 508.5 508.5" style="enable-background:new 0 0 508.5 508.5;" xml:space="preserve">

	
	


<path d="M141.5,82.2c-6.6,0-13.7,5.2-13.7,16.5v318.8c0,4.4,4.5,9,10.2,10.5c0.1,0,0.3,0.1,0.4,0.1
	c0.1,0.1,0.3,0.1,0.4,0.1c0.9,0.2,1.8,0.3,2.6,0.3h240.7c0.8,0,1.7-0.1,2.6-0.3c0.1,0,0.3-0.1,0.4-0.1c0.1-0.1,0.3-0.1,0.4-0.1
	c5.8-1.5,10.2-6.1,10.2-10.5V165.2c0-4.3-0.5-7.5-3-10l-69.9-69.9c-1.9-1.9-4.5-3-7.2-3C315.9,82.2,141.5,82.2,141.5,82.2z
	 M386,326.4v88.4c0,1.5-0.8,2.8-2.2,3.4l-0.2,0.1c-0.3,0.2-0.8,0.3-1.4,0.3H141.5c-0.6,0-1-0.2-1.5-0.3l-0.2-0.1
	c-1.3-0.6-2.2-2-2.2-3.4v-88.4v-9.9V98.8c0-4.1,1.5-6.6,3.8-6.6h173.2l-0.3,1.3c-0.2,0.8-0.3,1.5-0.3,2.1v68.7h68.7
	c0.6,0,1.3-0.1,2.1-0.3l1.3-0.3v1.3c0,0.1,0,0.1,0,0.2v151.4L386,326.4z M378.2,154.3H324v-54.2L378.2,154.3z"/>
</svg>
