<?xml version="1.0" encoding="utf-8"?>
<!-- Generator: Adobe Illustrator 25.0.1, SVG Export Plug-In . SVG Version: 6.00 Build 0)  -->
<svg version="1.1" fill="#8052FD" id="Layer_1" xmlns="http://www.w3.org/2000/svg" xmlns:xlink="http://www.w3.org/1999/xlink" x="0px" y="0px"
	 viewBox="0 0 512 512" style="enable-background:new 0 0 512 512;" xml:space="preserve">

	
	


<path d="M343.6,196.7v-96.1c0-10.3-8.4-18.8-18.8-18.8H187.2c-10.3,0-18.8,8.4-18.8,18.8v96.1
	c-99.9,5.6-100,16.6-100,22.6v50c0,6.2,3.6,12.3,42.1,17.5L217.2,367c4.8,3.5,7.6,9.2,7.6,15.1v62.4c0,6.9,5.6,12.5,12.5,12.5
	c2.3,0,4.6-0.7,6.6-1.9l34.7-21.7c5.4-3.4,8.8-9.5,8.7-15.9v-35.5c0-6,2.9-11.6,7.7-15.1l106.5-80c38.5-5.2,42.1-11.3,42.1-17.5v-50
	C443.6,213.3,443.5,202.3,343.6,196.7z M431,267.5c-10.1,6.2-74.1,14.4-175,14.4s-164.9-8.1-175-14.4v-36.6
	c15.1,4.2,30.5,6.8,46.2,7.9c34.4,3.6,80.1,5.5,128.9,5.5s94.4-2,128.9-5.5c15.6-1.1,31.1-3.7,46.2-7.9v36.6H431z M331,181.8H181
	v-37.5h150V181.8L331,181.8z M181,194.4h150v35.8c-22,1-47,1.7-75,1.7s-53-0.7-75-1.7L181,194.4L181,194.4z M426.4,219.4
	c-11.8,3.7-40.5,7.7-82.9,10.1v-20.3C391.8,211.9,416.3,216.3,426.4,219.4z M181,100.6c0-3.4,2.8-6.2,6.2-6.2h137.5
	c3.4,0,6.2,2.8,6.2,6.2v31.3H181V100.6z M168.5,209.2v20.3c-42.3-2.4-71.1-6.4-82.9-10.1C95.7,216.3,120.2,211.9,168.5,209.2z
	 M287.5,356.9c-8,5.9-12.7,15.2-12.7,25.2v35.5c0,2.1-1.1,4.2-2.9,5.3l-34.6,21.6v-62.4c0-9.9-4.7-19.3-12.7-25.1L135,289.6
	c33.4,3.1,75.9,4.8,121,4.8s87.6-1.7,121-4.8L287.5,356.9z"/>
<path d="M206,106.8h-6.2c-3.4,0-6.2,2.8-6.2,6.2s2.8,6.2,6.2,6.2h6.2c3.4,0,6.2-2.8,6.2-6.2
	C212.3,109.7,209.4,106.8,206,106.8z"/>
<path d="M237.3,106.8H231c-3.4,0-6.2,2.8-6.2,6.2s2.8,6.2,6.2,6.2h6.2c3.4,0,6.2-2.8,6.2-6.2
	C243.5,109.7,240.7,106.8,237.3,106.8z"/>
<path d="M199.8,169.4h6.2c3.4,0,6.2-2.8,6.2-6.2c0-3.4-2.8-6.2-6.2-6.2h-6.2c-3.4,0-6.2,2.8-6.2,6.2
	C193.5,166.5,196.3,169.4,199.8,169.4z"/>
<path d="M231,169.4h6.2c3.4,0,6.2-2.8,6.2-6.2c0-3.4-2.8-6.2-6.2-6.2H231c-3.4,0-6.2,2.8-6.2,6.2
	C224.7,166.5,227.6,169.4,231,169.4z"/>
<path d="M312.3,106.8h-18.8c-3.4,0-6.2,2.8-6.2,6.2s2.8,6.2,6.2,6.2h18.8c3.4,0,6.2-2.8,6.2-6.2
	C318.5,109.7,315.7,106.8,312.3,106.8z"/>
<path d="M293.5,169.4h18.8c3.4,0,6.2-2.8,6.2-6.2c0-3.4-2.8-6.2-6.2-6.2h-18.8c-3.4,0-6.2,2.8-6.2,6.2
	C287.3,166.5,290.1,169.4,293.5,169.4z"/>
<path d="M206,206.9h-6.2c-3.4,0-6.2,2.8-6.2,6.2s2.8,6.2,6.2,6.2h6.2c3.4,0,6.2-2.8,6.2-6.2
	C212.3,209.7,209.4,206.9,206,206.9z"/>
<path d="M237.3,206.9H231c-3.4,0-6.2,2.8-6.2,6.2s2.8,6.2,6.2,6.2h6.2c3.4,0,6.2-2.8,6.2-6.2S240.7,206.9,237.3,206.9z"
	/>
<path d="M293.5,219.3h18.8c3.4,0,6.2-2.8,6.2-6.2s-2.8-6.2-6.2-6.2h-18.8c-3.4,0-6.2,2.8-6.2,6.2
	S290.1,219.3,293.5,219.3z"/>
<path d="M124.7,81.8c-3.4,0-6.2,2.8-6.2,6.2v66.2l-8.1-8.1c-2.4-2.3-6.4-2.3-8.8,0.1c-2.4,2.4-2.4,6.3-0.1,8.8
	l18.8,18.8c1.2,1.2,2.8,1.8,4.4,1.8s3.2-0.7,4.4-1.8l18.8-18.8c2.3-2.4,2.3-6.4-0.1-8.8c-2.4-2.4-6.3-2.4-8.8-0.1l-8.1,8.1V88.1
	C131,84.6,128.2,81.8,124.7,81.8z"/>
<path d="M387.3,81.8c-3.4,0-6.2,2.8-6.2,6.2v66.2l-8.1-8.1c-2.4-2.3-6.4-2.3-8.8,0.1c-2.4,2.4-2.4,6.3-0.1,8.8
	l18.8,18.8c1.2,1.2,2.8,1.8,4.4,1.8c1.7,0,3.2-0.7,4.4-1.8l18.8-18.8c2.3-2.4,2.3-6.4-0.1-8.8s-6.3-2.4-8.8-0.1l-8.1,8.1V88.1
	C393.5,84.6,390.7,81.8,387.3,81.8z"/>
</svg>
