<?xml version="1.0" encoding="utf-8"?>
<!-- Generator: Adobe Illustrator 25.0.1, SVG Export Plug-In . SVG Version: 6.00 Build 0)  -->
<svg version="1.1" fill="#8052FD" id="Layer_1" xmlns="http://www.w3.org/2000/svg" xmlns:xlink="http://www.w3.org/1999/xlink" x="0px" y="0px"
	 viewBox="0 0 511 511" style="enable-background:new 0 0 511 511;" xml:space="preserve">

	
	


<path d="M105.8,140c-3.2,0-5.8,2.6-5.8,5.8c0,33.5,14.4,65.6,39.5,87.9l55.9,49.7c11.2,10,17.7,24.3,17.7,39.2v124.6
	c0,3.6,3,5.8,5.8,5.8c1.2,0,2.1-0.3,3.1-1l75.4-50.2c1.6-1,2.6-2.8,2.6-4.7v-74.3c0-15,6.5-29.3,17.7-39.2l55.9-49.7
	c25-22.4,39.4-54.5,39.4-87.9c0-3.2-2.6-5.8-5.8-5.8H105.8z M224.6,436.5V322.6c0-18.2-7.8-35.7-21.4-47.8l-55.9-49.7
	c-19.2-17-31.6-40.3-34.9-65.7l-1-8h290.3l-1,8c-3.3,25.3-15.6,48.6-34.8,65.6l0,0l-55.9,49.7c-13.6,12.1-21.4,29.5-21.4,47.8v71.3
	l-3.1,2.1l-49.8,33.2L224.6,436.5z"/>
</svg>
