<?xml version="1.0" encoding="utf-8"?>
<!-- Generator: Adobe Illustrator 25.0.1, SVG Export Plug-In . SVG Version: 6.00 Build 0)  -->
<svg version="1.1" fill="#8052FD" id="Layer_1" xmlns="http://www.w3.org/2000/svg" xmlns:xlink="http://www.w3.org/1999/xlink" x="0px" y="0px"
	 viewBox="0 0 107.8 107.8" style="enable-background:new 0 0 107.8 107.8;" xml:space="preserve">

	
	

<g transform="translate(2 1.694631)">
	<g>
		<path d="M15.5,31.6c-0.6,0-1.1-0.5-1.1-1.1c0-3.7,2.6-6.7,6-6.7h14.7c0.6,0,1.1,0.5,1.1,1.1S35.7,26,35.2,26H20.4
			c-2.2,0-3.9,2-3.9,4.6C16.6,31.1,16.1,31.6,15.5,31.6z"/>
	</g>
	<g>
		<path d="M77.3,36.5c-0.6,0-1.1-0.5-1.1-1.1v-8.8H62.5c-0.6,0-1.1-0.5-1.1-1.1c0-0.6,0.5-1.1,1.1-1.1h14.7
			c0.6,0,1.1,0.5,1.1,1.1v9.8C78.3,36,77.8,36.5,77.3,36.5z"/>
	</g>
	<g>
		<path d="M71.6,36.5c-0.3,0-0.5-0.1-0.7-0.3L48.5,13.8L26.1,36.2c-0.4,0.4-1.1,0.4-1.5,0c-0.4-0.4-0.4-1.1,0-1.5
			l23.2-23.2c0.4-0.4,1.1-0.4,1.5,0l23.2,23.2c0.4,0.4,0.4,1.1,0,1.5C72.2,36.4,71.9,36.5,71.6,36.5z"/>
	</g>
	<g>
		<path d="M37.3,36.5c-0.3,0-0.5-0.1-0.7-0.3c-0.4-0.4-0.4-1.1,0-1.5l8.1-8.4c0.2-0.2,0.5-0.3,0.8-0.3h0
			c0.3,0,0.6,0.1,0.8,0.3c1,1,1.9,1.5,2.7,1.5c0,0,0,0,0,0c0.9,0,1.8-0.5,2.7-1.5c0.2-0.2,0.5-0.3,0.8-0.3c0,0,0,0,0,0
			c0.3,0,0.6,0.1,0.8,0.3l8.1,8.4c0.4,0.4,0.4,1.1,0,1.5c-0.4,0.4-1.1,0.4-1.5,0l-7.3-7.7c-1.1,0.9-2.3,1.4-3.5,1.4c0,0,0,0,0,0
			c-1.2,0-2.3-0.5-3.5-1.4L38,36.2C37.8,36.4,37.5,36.5,37.3,36.5z"/>
	</g>
	<g>
		<path d="M85,81.4H20.5c-3.4,0-6-2.7-6-6V30.5c0-0.6,0.5-1.1,1.1-1.1c0.6,0,1.1,0.5,1.1,1.1c0,2.2,1.7,3.9,3.9,3.9H85
			c0.6,0,1.1,0.5,1.1,1.1v11.6c0,0.6-0.5,1.1-1.1,1.1s-1.1-0.5-1.1-1.1V36.6H20.5c-1.5,0-2.9-0.5-3.9-1.4v40.2
			c0,2.2,1.7,3.9,3.9,3.9h63.4V67.1c0-0.6,0.5-1.1,1.1-1.1s1.1,0.5,1.1,1.1v13.3C86,80.9,85.6,81.4,85,81.4z"/>
	</g>
	<g>
		<path d="M83.5,67.4H65.2c-5.4,0-9.4-3.9-9.4-9.2c0-5.4,3.9-9.2,9.4-9.2h16.6c1,0,2.3-1.1,2.3-2.2
			c0-0.6,0.5-1.1,1.1-1.1h1.7c1.5,0,2.7,1.2,2.7,2.7v13.1C89.5,64.7,86.8,67.4,83.5,67.4z M65.2,51c-4.3,0-7.3,2.9-7.3,7.1
			c0,4.2,3,7.1,7.3,7.1h18.3c2.2,0,3.9-1.7,3.9-3.9V48.3c0-0.3-0.3-0.6-0.6-0.6h-0.8c-0.6,1.9-2.5,3.3-4.2,3.3H65.2z"/>
	</g>
	<g>
		<path d="M66.7,59h-2.8c-0.6,0-1.1-0.5-1.1-1.1c0-0.6,0.5-1.1,1.1-1.1h2.8c0.6,0,1.1,0.5,1.1,1.1
			C67.8,58.5,67.3,59,66.7,59z"/>
	</g>
</g>
</svg>
