<?xml version="1.0" encoding="utf-8"?>
<!-- Generator: Adobe Illustrator 26.0.1, SVG Export Plug-In . SVG Version: 6.00 Build 0)  -->
<svg version="1.1" fill="#8052FD" id="Layer_1" xmlns="http://www.w3.org/2000/svg" xmlns:xlink="http://www.w3.org/1999/xlink" x="0px" y="0px"
	 viewBox="0 0 512 512" style="enable-background:new 0 0 512 512;" xml:space="preserve">

<path d="M418.1,155.9c-0.4-1-1.2-1.8-2.2-2.2l-158-83c-1.2-0.6-2.6-0.6-3.8,0l-158,83c-2,1.1-2.7,3.5-1.7,5.5
	c1,1.9,3.2,2.8,5,2l0.7-0.3l-0.1,1c-0.1,0.6-0.2,1.1-0.2,1.7v13.7c0,5.5,3.4,10.4,8.5,12.2l0.3,0.1V210c0,6.5,5.1,11.9,11.6,12.2
	l0.4,0v116.9l-0.4,0c-6.5,0.3-11.6,5.6-11.6,12.2v20.3l-0.3,0.1c-5.1,1.9-8.5,6.9-8.5,12.4v13.4c0,2.2,1.8,4.1,4.1,4.1h304.3
	c2.2,0,4.1-1.8,4.1-4.1V384c0-5.5-3.3-10.3-8.5-12.4l-0.3-0.1V351c0-6.5-5.1-11.9-11.6-12.2l-0.4,0V222l0.4,0
	c6.5-0.3,11.6-5.6,11.6-12.2v-20.4l0.3-0.1c5.2-2,8.5-6.7,8.5-12.2v-13.6c0-0.6-0.1-1.1-0.2-1.7l-0.1-1l0.7,0.3
	c1,0.4,2.1,0.5,3.1,0.1c1-0.4,1.8-1.2,2.2-2.2C418.4,158,418.5,156.9,418.1,155.9z M256,79l0.2,0.1l134.4,70.6l-0.2,0.8H121.7
	l-0.2-0.8L256,79z M116.8,210.1L116.8,210.1l0-3.8h52.9v3.7c0,2.2-1.8,4-4,4h-44.9C118.6,214,116.8,212.3,116.8,210.1z M233.1,222.2
	l0.4,0V339l-0.4,0c-6.5,0.3-11.6,5.6-11.6,12.2v19.6h-43.7v-19.6c0-6.5-5.1-11.9-11.6-12.2l-0.4,0V222.2l0.4,0
	c6.5-0.3,11.6-5.6,11.6-12.2v-19.6h43.6V210C221.4,216.5,226.6,221.9,233.1,222.2z M345.9,222.2l0.4,0V339l-0.4,0
	c-6.5,0.3-11.6,5.6-11.6,12.2v19.6h-43.7v-19.6c0-6.5-5.1-11.9-11.6-12.2l-0.4,0V222.2l0.4,0c6.5-0.3,11.6-5.6,11.6-12.2v-19.6h43.7
	V210C334.3,216.5,339.4,221.9,345.9,222.2z M278.4,347.2c2.2,0,4,1.8,4,4v3.7h-52.9v-3.7c0-2.2,1.8-4,4-4H278.4z M241.6,339V222.3
	h28.9V339H241.6z M282.5,363.1v7.8h-53v-7.8H282.5z M282.5,198.1h-52.9v-7.8h52.9V198.1z M282.4,206.4v3.7c0,2.2-1.8,4-4,4h-44.8
	c-2.2,0-4-1.8-4-4v-3.7H282.4z M169.6,198.1h-52.9v-7.8h52.9V198.1z M157.6,222.4V339h-28.9V222.3L157.6,222.4z M116.8,351.3
	c0-2.2,1.8-4,4-4h44.8c2.2,0,4,1.8,4,4v3.7h-52.9V351.3z M116.8,363.1h52.9v7.8h-52.9V363.1z M404.1,384.2v9.2H108v-9.2
	c0-2.8,2.3-5.1,5.1-5.1h286C401.8,379.1,404,381.3,404.1,384.2z M395.4,370.8h-53v-7.8h53V370.8z M395.3,351.3v3.7h-52.9v-3.7
	c0-2.2,1.8-4,4-4h44.9C393.6,347.4,395.3,349.2,395.3,351.3z M354.5,339.1V222.3h28.9V339L354.5,339.1z M395.3,210.1
	c0,2.2-1.8,4-4,4h-44.8c-2.2,0-4-1.8-4-4v-3.8h52.9V210.1z M395.3,198.1h-52.9v-7.8h52.9V198.1z M404.1,177.4c0,2.7-2.2,4.9-4.9,4.9
	H112.9c-2.7,0-4.9-2.2-4.9-4.9v-13.7c0-2.7,2.2-4.9,4.9-4.9h286.3c2.7,0,4.9,2.2,4.9,4.9V177.4z"/>
</svg>
