<?xml version="1.0" encoding="utf-8"?>
<!-- Generator: Adobe Illustrator 25.0.1, SVG Export Plug-In . SVG Version: 6.00 Build 0)  -->
<svg version="1.1" fill="#8052FD" id="Layer_1" xmlns="http://www.w3.org/2000/svg" xmlns:xlink="http://www.w3.org/1999/xlink" x="0px" y="0px"
	 viewBox="0 0 512 512" style="enable-background:new 0 0 512 512;" xml:space="preserve">

	
	


<path d="M115.6,251.1c0,23.6,19.1,42.7,42.7,42.7s42.7-19.1,42.7-42.7c0-23.6-19.1-42.7-42.7-42.7
	C134.8,208.4,115.6,227.5,115.6,251.1z M188.2,245h-5.5c-14.3,0-26.6-9.9-29.7-23.9C169.3,218,185.1,228.7,188.2,245z M141.6,225.7
	c5.1,18.6,21.9,31.5,41.2,31.5h5.5c-2.7,13.6-14.3,23.6-28.1,24.4c-13.8,0.8-26.4-7.7-30.8-20.8C125,247.7,130,233.3,141.6,225.7z"
	/>
<path d="M353.7,293.9c23.6,0,42.7-19.1,42.7-42.7c0-23.6-19.1-42.7-42.7-42.7s-42.7,19.1-42.7,42.7
	C311,274.7,330.1,293.8,353.7,293.9z M384.2,251.1c0,15.7-11.9,28.8-27.5,30.4c-15.6,1.6-29.9-8.9-33-24.3h5.5
	c19.3,0,36.1-13,41.2-31.5C379,231.3,384.2,240.9,384.2,251.1z M353.7,220.6c1.8,0,3.6,0.2,5.3,0.5c-3.1,13.9-15.5,23.9-29.7,23.9
	h-5.5C326.7,230.8,339.2,220.6,353.7,220.6z"/>
<path d="M384.2,165.7h-5.4c-2.3,0-4.7,0.4-6.8,1.2v-2c10.8-2.8,18.3-12.5,18.3-23.6c0-11.1-7.5-20.9-18.3-23.6V92.4
	c0-3.4-2.7-6.1-6.1-6.1h-36.6c-3.4,0-6.1,2.7-6.1,6.1c0,6.7-5.5,12.2-12.2,12.2s-12.2-5.5-12.2-12.2c0-3.4-2.7-6.1-6.1-6.1h-67.9
	C221.9,75.5,212.2,68,201.1,68s-20.9,7.5-23.6,18.3H140c-3.4,0-6.1,2.7-6.1,6.1V123c0,3.4,2.7,6.1,6.1,6.1c6.7,0,12.2,5.5,12.2,12.2
	c0,6.7-5.5,12.2-12.2,12.2c-3.4,0-6.1,2.7-6.1,6.1v6.2c-0.3,0-0.5-0.1-0.7-0.1h-5.4c-30.3,0-54.9,24.6-54.9,54.9V300
	c0,23.3,14.7,44,36.6,51.8v64.2c0,3.4,2.7,6.1,6.1,6.1h85.5c3.4,0,6.1-2.7,6.1-6.1v-61h0.7c20.3-0.3,38.9-11.8,48.2-29.9
	c9.3,18.1,27.9,29.6,48.2,29.9h0.6v61c0,3.4,2.7,6.1,6.1,6.1h85.5c3.4,0,6.1-2.7,6.1-6.1v-64.2c21.9-7.8,36.6-28.5,36.6-51.8v-79.3
	C439.1,190.3,414.5,165.7,384.2,165.7z M285.4,196.2h7.2c3.4,0,6.1-2.7,6.1-6.1c0-6.7,5.5-12.2,12.2-12.2s12.2,5.5,12.2,12.2
	c0,3.4,2.7,6.1,6.1,6.1h35.3c3.4,3.9,8.4,6.1,13.6,6.1h6.1c10.1,0,18.3,8.2,18.3,18.3v79.5c-1.2,3.7-4.7,6.2-8.5,6h-64.7
	c-8.7,0-16.8,4.6-21.2,12.2h-3.9c-4.3,0-8.5-1.7-11.6-4.8c-3.8-3.7-6-8.8-6.1-14.1v-97.2C286.5,200.2,286.1,198.1,285.4,196.2z
	 M147.5,196.2h29.9c2.8,10.8,12.5,18.3,23.6,18.3s20.9-7.5,23.6-18.3h1.8c-0.7,1.9-1.1,4-1.1,6v97.2c-0.1,5.3-2.3,10.4-6.1,14.1
	c-2.9,3-6.9,4.7-11.1,4.8h-4.3c-4.4-7.6-12.4-12.2-21.2-12.2h-64.7c-3.9,0.2-7.4-2.4-8.5-6.1v-79.3c0-10.1,8.2-18.3,18.3-18.3h6.1
	C139.1,202.3,144,200.1,147.5,196.2z M262.1,123V98.5h25.2c2.8,10.8,12.5,18.3,23.6,18.3c11.1,0,20.9-7.5,23.6-18.3h25.2V123
	c0,3.4,2.7,6.1,6.1,6.1c6.7,0,12.2,5.5,12.2,12.2c0,6.7-5.5,12.2-12.2,12.2c-3.4,0-6.1,2.7-6.1,6.1V184h-25.2
	c-2.8-10.8-12.5-18.3-23.6-18.3c-11.1,0-20.9,7.5-23.6,18.3h-25.2v-24.4c0-3.4-2.7-6.1-6.1-6.1c-6.7,0-12.2-5.5-12.2-12.2
	c0-6.7,5.5-12.2,12.2-12.2C259.4,129.1,262.1,126.3,262.1,123z M146.1,164.9c10.8-2.8,18.3-12.5,18.3-23.6s-7.5-20.9-18.3-23.6V98.5
	h36.6c3.4,0,6.1-2.7,6.1-6.1c0-6.7,5.5-12.2,12.2-12.2s12.2,5.5,12.2,12.2c0,3.4,2.7,6.1,6.1,6.1h30.5v19.1
	c-10.8,2.8-18.3,12.5-18.3,23.6s7.5,20.9,18.3,23.6V184h-30.5c-3.4,0-6.1,2.7-6.1,6.1c0,6.7-5.5,12.2-12.2,12.2s-12.2-5.5-12.2-12.2
	c0-3.4-2.7-6.1-6.1-6.1h-30.6c0-1,0-2.1-0.2-3.1c-0.7-4-2.8-7.6-5.8-10.3V164.9z M207.8,342.7h-6.7c-3.4,0-6.1,2.7-6.1,6.1v61h-73.2
	v-62.6c0-2.8-1.9-5.2-4.6-5.9c-18.9-4.9-32-21.9-32.1-41.4v-79.3c0-23.6,19.1-42.7,42.7-42.7h5.4c0.3,0,0.5,0.1,0.7,0.1v12.1h-6.1
	c-16.8,0-30.5,13.7-30.5,30.5V300c0,0.9,0.1,1.8,0.3,2.7c2.4,9.3,10.8,15.8,20.4,15.6h64.7c5.2,0,9.8,3.2,11.5,8.1
	c0.9,2.5,3.2,4.1,5.8,4.1h7.5c7.6,0.1,15-2.8,20.4-8.2c6.2-6,9.7-14.2,9.8-22.9v-97.2c0-1.6,0.7-3.2,1.8-4.3c1.3-1.3,3-1.9,4.8-1.8
	c3.3,0.5,5.7,3.5,5.6,6.8V300C249.8,323.3,231.1,342.3,207.8,342.7z M426.9,300c0,19.5-13.2,36.5-32.1,41.4
	c-2.7,0.7-4.6,3.1-4.6,5.9v62.6H317v-61c0-3.4-2.7-6.1-6.1-6.1h-6.6c-23.4-0.4-42.1-19.4-42.2-42.7V203c-0.1-3.3,2.2-6.3,5.5-6.8
	c1.8-0.2,3.6,0.5,4.9,1.8c1.2,1.1,1.8,2.7,1.8,4.3v97.2c0,8.6,3.6,16.9,9.8,22.9c5.4,5.4,12.7,8.4,20.3,8.2h7.6
	c2.6,0,4.9-1.6,5.8-4.1c1.7-4.9,6.3-8.1,11.5-8.1h64.7c9.6,0.2,18.1-6.3,20.4-15.6c0.2-0.9,0.3-1.8,0.3-2.7v-79.3
	c0-16.8-13.7-30.5-30.5-30.5h-6.1c-1.8,0-3.5-0.8-4.7-2.2c-1.2-1.4-1.6-3.2-1.3-5c0.8-3.1,3.6-5.1,6.8-5h5.4
	c23.6,0,42.7,19.1,42.7,42.7V300z"/>
</svg>
