<?xml version="1.0" encoding="utf-8"?>
<!-- Generator: Adobe Illustrator 25.0.1, SVG Export Plug-In . SVG Version: 6.00 Build 0)  -->
<svg version="1.1" fill="#8052FD" id="Capa_1" xmlns="http://www.w3.org/2000/svg" xmlns:xlink="http://www.w3.org/1999/xlink" x="0px" y="0px"
	 viewBox="0 0 512 512" style="enable-background:new 0 0 512 512;" xml:space="preserve">

	
	


<g>
	<g>
		<g>
			<path d="M378,290.8H215.3c-16,0-29,13-29,29v69.7c0,19.2-15.6,34.8-34.8,34.8s-34.8-15.6-34.8-34.8V105
				c0-9.6,7.8-17.4,17.4-17.4h185.8c9.6,0,17.4,7.8,17.4,17.4v174.2h11.6V105c0-16-13-29-29-29H134c-16,0-29,13-29,29v284.6
				c0,25.6,20.8,46.5,46.5,46.5s46.5-20.8,46.5-46.5v-34.8h197.5v34.8c0,19.2-15.6,34.8-34.8,34.8H331c-2.8-16.5-17.1-29-34.3-29
				s-31.5,12.6-34.3,29h-64.4V436h162.6c25.6,0,46.5-20.8,46.5-46.5v-69.7C407,303.9,394,290.8,378,290.8z M274.2,424.4
				c2.6-10,11.6-17.4,22.4-17.4s19.8,7.4,22.4,17.4H274.2z M395.4,343.1H197.9v-23.2c0-9.6,7.8-17.4,17.4-17.4H378
				c9.6,0,17.4,7.8,17.4,17.4V343.1z"/>
			<polygon points="325.7,279.2 325.7,122.4 128.2,122.4 128.2,401.2 139.8,401.2 139.8,134 314.1,134 314.1,279.2 			
				"/>
			<rect x="192.1" y="99.2" width="52.3" height="11.6"/>
			<rect x="256" y="99.2" width="11.6" height="11.6"/>
			<path d="M186.3,145.7h-34.8v34.8h34.8V145.7z M174.7,168.9h-11.6v-11.6h11.6V168.9z"/>
			<path d="M244.4,145.7h-34.8v34.8h34.8V145.7z M232.8,168.9h-11.6v-11.6h11.6V168.9z"/>
			<path d="M302.5,145.7h-34.8v34.8h34.8V145.7z M290.8,168.9h-11.6v-11.6h11.6V168.9z"/>
			<path d="M186.3,192.1h-34.8V227h34.8V192.1z M174.7,215.3h-11.6v-11.6h11.6V215.3z"/>
			<path d="M244.4,192.1h-34.8V227h34.8V192.1z M232.8,215.3h-11.6v-11.6h11.6V215.3z"/>
			<path d="M302.5,192.1h-34.8V227h34.8V192.1z M290.8,215.3h-11.6v-11.6h11.6V215.3z"/>
			<path d="M151.5,273.4h34.8v-34.8h-34.8V273.4z M163.1,250.2h11.6v11.6h-11.6V250.2z"/>
			<path d="M209.5,273.4h34.8v-34.8h-34.8V273.4z M221.2,250.2h11.6v11.6h-11.6V250.2z"/>
			<path d="M267.6,273.4h34.8v-34.8h-34.8V273.4z M279.2,250.2h11.6v11.6h-11.6V250.2z"/>
		</g>
	</g>
</g>
</svg>
