<?xml version="1.0" encoding="utf-8"?>
<!-- Generator: Adobe Illustrator 25.0.1, SVG Export Plug-In . SVG Version: 6.00 Build 0)  -->
<svg version="1.1" fill="#8052FD" id="Layer_1" xmlns="http://www.w3.org/2000/svg" xmlns:xlink="http://www.w3.org/1999/xlink" x="0px" y="0px"
	 viewBox="0 0 512 512" style="enable-background:new 0 0 512 512;" xml:space="preserve">

	
	


<g>
	<path d="M411.2,91H102.5c-6.1,0-11,4.9-11,11v308.6c0,6.1,4.9,11,11,11h308.6c6.1,0,11-4.9,11-11V102
		C422.1,95.9,417.2,91,411.2,91z M411.2,335.5l-8.3-4.2c-1.6-0.8-3.4-0.8-5,0.1c-3.6,1.9-7.3,3.4-11.1,4.6c-1.7,0.5-3,1.8-3.6,3.5
		l-9,27.1H360l-9-27c-0.6-1.7-1.9-3-3.6-3.5c-3.8-1.2-7.6-2.8-11.1-4.6c-1.5-0.8-3.4-0.8-5-0.1l-25.5,12.7l-10-10l12.7-25.5
		c0.8-1.5,0.8-3.4-0.1-5c-1.9-3.6-3.4-7.3-4.6-11.1c-0.5-1.7-1.8-3-3.5-3.6l-27-9v-14.1l27-9c1.7-0.6,3-1.9,3.5-3.6
		c1.2-3.8,2.8-7.6,4.6-11.1c0.8-1.5,0.8-3.4,0.1-5l-12.7-25.5l10-10l25.5,12.7c1.5,0.8,3.4,0.8,5-0.1c3.6-1.9,7.3-3.4,11.1-4.6
		c1.7-0.5,3-1.9,3.6-3.5l9-27h14.1l9,27c0.6,1.7,1.9,3,3.6,3.5c3.8,1.2,7.6,2.8,11.1,4.6c1.5,0.8,3.4,0.8,5,0.1l8.3-4.2L411.2,335.5
		L411.2,335.5z M102.5,102h308.6v22H102.5V102z M102.5,135.1h308.6v62.8l-10.8,5.4c-2.5-1.2-5-2.3-7.7-3.2l-9.4-28.2
		c-0.8-2.3-2.8-3.8-5.2-3.8h-22c-2.4,0-4.5,1.5-5.2,3.7l-0.5,1.4l-12.2-14.2c-1-1.2-2.6-1.9-4.2-1.9h-17.3
		c-3.3-12.9-17.4-20.3-30.6-14.5c-5.6,2.5-10.1,7.5-11.8,13.4c-4.1,13.8,5.1,26.8,18.3,28.5c11,1.4,21.4-5.6,24.2-16.3h14.8
		l14.9,17.3l-4.8,14.6c-2.6,0.9-5.2,2-7.7,3.2l-26.5-13.2c-2.1-1-4.7-0.6-6.4,1l-15.6,15.6c-1.7,1.7-2.1,4.3-1,6.3l13.2,26.6
		c-1.2,2.5-2.3,5-3.2,7.7l-28.2,9.4c-2.3,0.8-3.7,2.8-3.7,5.2v22c0,2.4,1.5,4.5,3.7,5.2l15.2,5l10.7,3.6l2.3,0.8
		c0.9,2.6,2,5.2,3.2,7.7l-13.2,26.6c-1,2.1-0.6,4.6,1,6.3l15.6,15.6c1.7,1.7,4.3,2.1,6.3,1l26.6-13.2c2.5,1.2,5,2.3,7.7,3.2l1,2.9
		l-9.3,1.5c-1.4,0.2-2.5,0.9-3.4,2l-8.7,10.9c-12.3-5.6-27.2,0.8-31,14.9c-1.6,6.1-0.5,12.7,3.1,17.9c8.3,12,24.5,13,34.2,3.7
		c8.1-7.8,9.1-20.5,2.4-29.4l7.4-9.3l9-1.5L351,374c0.8,2.3,2.8,3.7,5.2,3.7h22c2.4,0,4.5-1.5,5.2-3.7l9.4-28.2
		c2.6-0.9,5.2-2,7.7-3.2l10.8,5.4v62.8H102.5V135.1z M306.4,162.6c0,6.1-4.9,11-11,11c-6.1,0-11-4.9-11-11s4.9-11,11-11
		C301.5,151.6,306.4,156.5,306.4,162.6z M322.9,383.1c0,6.1-4.9,11-11,11c-6.1,0-11-4.9-11-11c0-6.1,4.9-11,11-11
		C318,372,322.9,376.9,322.9,383.1z"/>
	<path d="M108,107.5h11v11h-11V107.5z"/>
	<path d="M124.6,107.5h11v11h-11V107.5z"/>
	<path d="M141.1,107.5h11v11h-11V107.5z"/>
	<path d="M367.1,228.7c-24.3,0-44.1,19.8-44.1,44.1c0,24.3,19.8,44.1,44.1,44.1c24.3,0,44.1-19.8,44.1-44.1
		C411.1,248.5,391.4,228.8,367.1,228.7z M367.1,305.9c-18.3,0-33.1-14.8-33.1-33.1c0-18.3,14.8-33.1,33.1-33.1s33.1,14.8,33.1,33.1
		C400.1,291.1,385.3,305.9,367.1,305.9z"/>
	<path d="M169.2,165.4l-8.1-8.1l-34.2,34.2c-2.1,2.1-2.3,5.5-0.3,7.7l34.2,39.9l8.7-7.4l-30.8-35.9L169.2,165.4z"/>
	<path d="M199.4,157.3l-8.1,8.1l30.5,30.5L191,231.8l8.7,7.4l34.2-39.9c1.9-2.3,1.8-5.6-0.3-7.7L199.4,157.3z"/>
	<path d="M179.1,325.8c-11.9-0.1-22.4,7.6-26.2,18.8c-3.7,11.2,0.1,23.6,9.6,30.7c0,0.6,0.1,1.2,0.3,1.9l5.5,16.5
		c0.8,2.3,2.8,3.7,5.2,3.7h11c2.4,0,4.5-1.5,5.2-3.7l5.5-16.5c0.2-0.6,0.3-1.2,0.3-1.9c9.5-7.1,13.4-19.4,9.6-30.7
		C201.4,333.3,191,325.7,179.1,325.8z M180.7,386.4h-3.1l-1.8-5.5h6.7L180.7,386.4z M179.1,369.9c-9.1,0-16.5-7.4-16.5-16.5
		c0-9.1,7.4-16.5,16.5-16.5s16.5,7.4,16.5,16.5C195.7,362.5,188.2,369.9,179.1,369.9z"/>
	<path d="M173.6,303.8h11v16.5h-11V303.8z"/>
	<path d="M198.6,326.1l11.7-11.7l7.8,7.8l-11.7,11.7L198.6,326.1z"/>
	<path d="M212.2,347.8h16.5v11h-16.5V347.8z"/>
	<path d="M129.5,347.8h16.5v11h-16.5V347.8z"/>
	<path d="M140.2,322.2l7.8-7.8l11.7,11.7l-7.8,7.8L140.2,322.2z"/>
	<path d="M173.6,347.8h11v11h-11V347.8z"/>
	<path d="M113.6,255.3h33.1v11h-33.1V255.3z"/>
	<path d="M152.1,255.3h99.2v11h-99.2V255.3z"/>
	<path d="M113.6,278.3h77.2v11h-77.2V278.3z"/>
	<path d="M196.2,278.3h55.1v11h-55.1V278.3z"/>
</g>
</svg>
