<?xml version="1.0" encoding="utf-8"?>
<!-- Generator: Adobe Illustrator 25.0.1, SVG Export Plug-In . SVG Version: 6.00 Build 0)  -->
<svg version="1.1" fill="#8052FD" id="Layer_1" xmlns="http://www.w3.org/2000/svg" xmlns:xlink="http://www.w3.org/1999/xlink" x="0px" y="0px"
	 viewBox="0 0 511.9 511.9" style="enable-background:new 0 0 511.9 511.9;" xml:space="preserve">

	
	

<g id="Padding__x26__Artboard">
</g>

<g>
	<defs>
		<path id="SVGID_1_" d="M255.1,502c-66,0-128.1-25.6-174.7-72.3C33.7,383.2,8.1,321,8.1,255.1S33.7,126.9,80.3,80.3
			S189.1,8.1,255.1,8.1s128.1,25.6,174.7,72.3c46.5,46.7,72.3,108.8,72.3,174.7s-25.6,128.1-72.3,174.7S321,502,255.1,502z"/>
	</defs>
	<clipPath id="SVGID_2_">
		<use xlink:href="#SVGID_1_"  style="overflow:visible;"/>
	</clipPath>
	<g id="Icons" class="st2">
		<g>
			<g>
				<path d="M207.6,133.5c-1.3,0-2.3-1-2.3-2.3v-42c0-1.3,1-2.3,2.3-2.3s2.3,1,2.3,2.3v42
					C210,132.4,208.9,133.5,207.6,133.5z"/>
				<path d="M187.7,399.7c-1.3,0-2.3-1-2.3-2.3V89.1c0-1.3,1-2.3,2.3-2.3h12.9c1.3,0,2.3,1,2.3,2.3s-1,2.3-2.3,2.3
					h-10.6v305.9C190.1,398.5,189.1,399.7,187.7,399.7z"/>
				<path d="M216.6,363.9c-0.6,0-1.2-0.2-1.6-0.7c-0.5-0.5-0.7-1-0.7-1.7v-219c0-0.8,0.3-2.1,1.5-3.2
					c3.7-3.3,14.7-3.7,21.4-2.9c7,0.7,10.6,2.8,10.6,6.1v217.4c0,1.2-0.9,2.2-2.2,2.3L216.6,363.9
					C216.7,363.9,216.6,363.9,216.6,363.9z M245.4,359.9L245.4,359.9L245.4,359.9z M219,142.8v216.2l24.2-1.3V142.8
					c-0.5-0.4-2.2-1.2-6.5-1.7C228.7,140.2,220.4,141.5,219,142.8z"/>
				<path d="M219.3,142.4c-1.3,0-2.3-1-2.3-2.3v-5.6c-15.7-2.5-27.9,4.3-28,4.4c-1.1,0.7-2.5,0.3-3.2-0.8
					s-0.3-2.5,0.8-3.2c0.6-0.4,14.8-8.4,33.2-4.6c1.1,0.2,1.9,1.2,1.9,2.2v7.6C221.7,141.3,220.6,142.4,219.3,142.4z"/>
				<path d="M196.4,239.2c-0.5,0-0.9-0.2-1.4-0.5c-0.7-0.5-0.9-1.1-0.9-1.9l0.1-71.4c0-0.9,0.5-1.7,1.3-2.1l20.2-9.7
					c1.1-0.6,2.5-0.1,3.1,1.1c0.6,1.1,0.1,2.5-1.1,3.1l-18.8,9.1l-0.1,66.7l17.2-5.8c1.2-0.4,2.5,0.3,3,1.5c0.4,1.2-0.3,2.5-1.5,3
					l-20.2,6.8C196.8,239.2,196.6,239.2,196.4,239.2z"/>
				<path d="M196.7,299.9c-0.6,0-1-0.2-1.5-0.5c-0.6-0.5-0.8-1.1-0.8-1.9v-42.8c0-1,0.7-2,1.7-2.2l5.5-1.7
					c0.2-0.2,0.4-0.3,0.7-0.3l13.7-4.3c1.2-0.4,2.5,0.3,2.9,1.5c0.4,1.2-0.3,2.5-1.5,2.9l-13,4c-0.2,0.2-0.5,0.3-0.7,0.4l-4.5,1.4
					v38.1l3.6-0.8l13.5-3.3c1.2-0.3,2.5,0.5,2.8,1.7s-0.5,2.5-1.7,2.8l-13.5,3.3l-6.5,1.5C197,299.9,196.8,299.9,196.7,299.9z"/>
				<path d="M196.7,361.5c-0.6,0-1.1-0.2-1.6-0.6c-0.5-0.5-0.7-1.1-0.7-1.8V316c0-1.1,0.7-2.1,1.8-2.2l6.6-1.5l13.3-3.2
					c1.3-0.3,2.5,0.5,2.8,1.8c0.3,1.2-0.5,2.5-1.8,2.8l-18.1,4.2v38.7l4.2-0.5l13.1-1.4c1.3-0.1,2.4,0.7,2.5,2.1
					c0.1,1.3-0.8,2.4-2.1,2.5l-19.9,2.2C196.8,361.5,196.8,361.5,196.7,361.5z"/>
				<path d="M266.7,257.5c-0.4,0-0.7-0.1-0.9-0.2c-0.1,0-10.4-4.7-20.1-4.9c-1.3,0-2.3-1.1-2.3-2.3c0-1.3,1-2.3,2.3-2.3
					l0,0c7.2,0.2,14.5,2.4,18.7,3.9v-36.9c-5.1-2.5-15.5-4.8-19.2-5.4c-1.3-0.2-2.2-1.4-1.9-2.7c0.2-1.3,1.4-2.2,2.7-1.9
					c0.7,0.1,15.7,2.8,22,6.7c0.7,0.5,1.1,1.2,1.1,2v41.8c0,0.7-0.4,1.5-1,2C267.5,257.3,267.1,257.5,266.7,257.5z"/>
				<path d="M267.7,319.1c-0.4,0-0.7-0.1-1.1-0.3c-0.1,0-7.4-3.9-20.7-3.3c-1.3,0-2.4-0.9-2.4-2.2
					c-0.1-1.3,0.9-2.4,2.2-2.4c9.3-0.5,15.9,1.1,19.7,2.3l-0.6-37.8c-9.2-3.6-18.9-3.6-19-3.6l0,0c-1.3,0-2.3-1-2.3-2.3
					s1-2.3,2.3-2.3c0.5,0,11.7-0.1,22.3,4.5c0.8,0.4,1.4,1.2,1.4,2.2l0.6,42.8c0,0.8-0.5,1.6-1.1,2.1
					C268.5,319.1,268.2,319.1,267.7,319.1z"/>
				<path d="M253,390h-11.3c-1.3,0-2.3-1-2.3-2.3s1-2.3,2.3-2.3h10.4l13.8-13.9l-0.4-33.7c-4.8-1.7-15.5-2.4-19.5-2.5
					c-1.3,0-2.3-1.1-2.2-2.4c0.1-1.3,1.1-2.3,2.4-2.2c1.8,0.1,17.3,0.6,22.9,3.7c0.7,0.4,1.2,1.2,1.2,2.1l0.4,36.2
					c0,0.7-0.3,1.2-0.7,1.7l-15.2,15.3C254.2,389.7,253.6,390,253,390z"/>
				<path d="M227.5,364c-1.3,0-2.3-1-2.3-2.3V140c0-1.3,1-2.3,2.3-2.3c1.3,0,2.3,1,2.3,2.3v221.5
					C229.8,362.8,228.7,364,227.5,364z"/>
				<path d="M236.9,362.4c-1.3,0-2.3-1-2.3-2.3V138.8c0-1.3,1-2.3,2.3-2.3c1.3,0,2.3,1,2.3,2.3V360
					C239.2,361.2,238.2,362.4,236.9,362.4z"/>
				<path d="M262.5,274.6c-1.3,0-2.3-1-2.3-2.3l-0.3-18.8c0-1.3,1-2.3,2.3-2.3l0,0c1.3,0,2.3,1,2.3,2.3l0.3,18.8
					C264.8,273.5,263.8,274.6,262.5,274.6L262.5,274.6z"/>
				<path d="M263.2,335.2c-1.3,0-2.3-1-2.3-2.3l-0.3-17.9c0-1.3,1-2.3,2.3-2.3s2.3,1,2.3,2.3l0.3,17.9
					C265.5,334.1,264.5,335.2,263.2,335.2L263.2,335.2z"/>
				<path d="M261.7,213.4c-1.3,0-2.3-1-2.3-2.3l-0.7-51.3c0-1.3,1-2.3,2.3-2.3l0,0c1.3,0,2.3,1,2.3,2.3l0.7,51.3
					C264,212.4,263,213.4,261.7,213.4L261.7,213.4z"/>
				<path d="M202.8,255.2c-1.3,0-2.3-1-2.3-2.3v-0.1l-0.1-18c0-1.3,1-2.3,2.3-2.3l0,0c1.3,0,2.3,1,2.3,2.3l0.1,18.2
					C205.2,254.2,204.2,255.2,202.8,255.2z"/>
				<path d="M203.6,371.2c-1.3,0-2.3-1-2.3-2.3l-0.1-10.4c0-1.3,1-2.3,2.3-2.3c1.3,0,2.3,1,2.3,2.3l0.1,10.4
					C206,370.1,205,371.2,203.6,371.2C203.7,371.2,203.7,371.2,203.6,371.2z"/>
				<path d="M203.2,316.8c-1.3,0-2.3-1-2.3-2.3l-0.1-18.4c0-1.3,1-2.3,2.3-2.3l0,0c1.3,0,2.3,1,2.3,2.3l0.1,18.4
					C205.7,315.8,204.5,316.8,203.2,316.8C203.3,316.8,203.3,316.8,203.2,316.8z"/>
				<path d="M202.3,165c-1.3,0-2.3-1-2.3-2.3l-0.3-30.5c0-1.3,1-2.3,2.3-2.3l0,0c1.3,0,2.3,1,2.3,2.3l0.3,30.5
					C204.6,163.9,203.6,165,202.3,165L202.3,165z"/>
				<path d="M197.7,134.5c-1.3,0-2.3-1-2.3-2.3V95.5c0-0.4,0.1-0.7,0.2-1l3-6.5l6.9-15.1c0.6-1.2,2-1.7,3.1-1.1
					c1.2,0.6,1.7,2,1.1,3.1L202.7,90l-2.8,6v36.1C200,133.5,199,134.5,197.7,134.5z"/>
				<path d="M207.6,91.5c-1.3,0-2.3-1-2.3-2.3V36.4c0-1.3,1-2.3,2.3-2.3s2.3,1,2.3,2.3V89
					C210,90.3,208.9,91.5,207.6,91.5z"/>
				<path d="M273,419.6C273,419.6,273,419.6,273,419.6l-159.9-2.2c-1.3,0-2.3-1.1-2.3-2.3c0-1.3,1-2.3,2.3-2.3l0,0
					l157.6,2.1v-2.7c-13.7-0.1-84.1-2.7-158.6-40.1c-0.2-0.1-0.4-0.2-0.5-0.4c-0.9-0.5-1.9-0.9-2.8-1.4c-0.1,0-0.2-0.1-0.3-0.1
					c-0.9,0.3-2.4,0.7-4.5,1.4c-12.8,3.9-55.9,17.1-80.5,22.8v17.2l79.9,1.1c1.3,0,2.3,1.1,2.3,2.3c0,1.3-1,2.3-2.3,2.3l-82.2-1.1
					c-1.3,0-2.3-1-2.3-2.3v-21.4c0-1.1,0.7-2.1,1.9-2.2c24.1-5.4,68.9-19,82-23.2c3.4-1,5.4-1.6,5.4-1.6c0.6-0.2,1.2-0.1,1.8,0.1
					c0.4,0.2,0.7,0.4,1.1,0.6c1,0.6,2.1,1,3.1,1.5c0.3,0.1,0.6,0.3,0.7,0.5c81.5,40.8,157.5,39.4,158.2,39.4c0.7,0,1.2,0.2,1.7,0.7
					c0.5,0.5,0.7,1,0.7,1.7v7.4c0,0.7-0.3,1.2-0.7,1.7C274.2,419.4,273.6,419.6,273,419.6z"/>
				<path d="M129.4,455.9H86.5c-0.7,0-1.2-0.3-1.7-0.7c-0.5-0.4-0.7-1-0.7-1.7v-22.1c0-9,19.8-9.4,23.8-9.4
					c3.9,0,23.8,0.5,23.8,9.4v22.1C131.7,454.9,130.7,455.9,129.4,455.9z M88.9,451.2H127v-19.8c0-0.7-1.6-2.1-5-3.1
					c-3.7-1-8.7-1.7-14.1-1.7c-11.6,0-19.1,2.8-19.1,4.7V451.2z"/>
				<path d="M113,425.9c-1.3,0-2.3-1-2.3-2.3v-53.7c0-1.3,1-2.3,2.3-2.3s2.3,1,2.3,2.3v53.7
					C115.4,424.9,114.4,425.9,113,425.9z"/>
				<path d="M103.3,417.4c-1,0-1.9-0.7-2.2-1.6l-9-27.6v26.3c0,1.1-0.7,2.1-1.8,2.2c-1,0.3-2.2-0.3-2.6-1.2L74,388.7v26
					c0,1-0.7,2-1.7,2.2c-0.9,0.3-2.1-0.1-2.6-0.9l-16.6-23.9V414c0,0.9-0.7,1.9-1.5,2.2c-0.9,0.4-2,0.1-2.6-0.7l-15.9-18.9V414
					c0,1.3-1,2.3-2.3,2.3c-1.3,0-2.3-1-2.3-2.3v-23.8c0-0.9,0.7-1.9,1.5-2.2c0.9-0.4,2-0.1,2.6,0.7l15.9,18.9v-23.1
					c0-1,0.7-2,1.7-2.2c0.9-0.3,2.1,0.1,2.6,0.9l16.6,23.9v-28.3c0-1.1,0.7-2.1,1.8-2.2c1-0.3,2.2,0.3,2.6,1.2l13.7,27v-31.3
					c0-1.1,0.8-2.2,2-2.3c1.1-0.2,2.2,0.5,2.6,1.6l13.5,41.6c0.4,1.2-0.3,2.5-1.5,3C103.8,417.4,103.5,417.4,103.3,417.4z"/>
				<path d="M243.7,418.9c-0.5,0-0.9-0.1-1.3-0.4c-0.7-0.5-1-1.1-1-2v-4.4l-12.1,6.5c-0.7,0.4-1.6,0.4-2.3-0.1
					c-0.7-0.5-1.1-1.2-1.1-2v-5.8l-10.9,7.7c-0.7,0.5-1.7,0.6-2.4,0.2c-0.7-0.4-1.3-1.2-1.3-2.1v-8.2l-13.2,9.5
					c-0.7,0.5-1.7,0.6-2.4,0.2s-1.3-1.2-1.3-2.1v-10.5l-13.8,12.2c-0.7,0.7-1.7,0.7-2.5,0.4c-0.8-0.4-1.4-1.2-1.4-2.2v-13.1
					L164,417.4c-0.7,0.7-1.7,1-2.6,0.7s-1.5-1.2-1.5-2.2v-18.1l-13.1,18.7c-0.6,0.8-1.7,1.2-2.6,0.8c-0.9-0.3-1.6-1.2-1.6-2.2v-22.3
					l-13.8,23.6c-0.6,0.9-1.6,1.3-2.6,1.1c-1-0.3-1.7-1.2-1.7-2.2v-24.7l-9.1,25.4c-0.5,1.2-1.8,1.9-3,1.4c-1.2-0.5-1.9-1.8-1.4-3
					l13.7-38.2c0.4-1,1.5-1.7,2.6-1.5s2,1.1,2,2.3v29.4l13.8-23.6c0.6-0.9,1.6-1.3,2.6-1.1c1,0.3,1.7,1.2,1.7,2.2v23.6l13.1-18.7
					c0.6-0.8,1.7-1.2,2.6-0.8c0.9,0.3,1.6,1.2,1.6,2.2v19.1l12.7-14.6c0.7-0.7,1.7-1,2.6-0.7s1.5,1.2,1.5,2.2v14.2l13.8-12.2
					c0.7-0.7,1.7-0.7,2.5-0.4c0.8,0.4,1.4,1.2,1.4,2.2v11.2l13.2-9.5c0.7-0.5,1.7-0.6,2.4-0.2s1.3,1.2,1.3,2.1v8.2l10.9-7.7
					c0.7-0.5,1.7-0.6,2.4-0.2c0.7,0.4,1.3,1.2,1.3,2.1v6.4l12.1-6.5c0.7-0.4,1.6-0.4,2.3,0.1c0.7,0.5,1.1,1.2,1.1,2v4.7l12.5-5.5
					c0.7-0.3,1.6-0.3,2.2,0.2c0.7,0.5,1,1.1,1,2v7c0,1.3-1,2.3-2.3,2.3c-1.3,0-2.3-1-2.3-2.3v-3.4l-12.5,5.5
					C244.4,418.8,244.1,418.9,243.7,418.9z"/>
				<path d="M337.5,454.7h-88.5c-1.3,0-2.3-1-2.3-2.3v-34.4c0-1.3,1-2.3,2.3-2.3c1.3,0,2.3,1,2.3,2.3V450h83.8v-16.2
					l-16.8-0.4c-0.6,0-1.1-0.2-1.5-0.6l-22.6-20.6H273c-1.3,0-2.3-1-2.3-2.3s1-2.3,2.3-2.3h22.2c0.6,0,1.1,0.2,1.6,0.6l22.7,20.6
					l18.2,0.5c1.3,0,2.2,1,2.2,2.3v20.9C339.9,453.7,338.8,454.7,337.5,454.7z"/>
				<path d="M282,454.7c-1.3,0-2.3-1-2.3-2.3v-42.5c0-1.3,1-2.3,2.3-2.3c1.3,0,2.3,1,2.3,2.3v42.5
					C284.4,453.7,283.4,454.7,282,454.7z"/>
				<path d="M249.1,448.9H129.4c-1.3,0-2.3-1-2.3-2.3c0-1.3,1-2.3,2.3-2.3h119.7c1.3,0,2.3,1,2.3,2.3
					C251.4,447.8,250.4,448.9,249.1,448.9z"/>
				<path d="M241.6,409.4c-1.3,0-2.3-1-2.3-2.3v-33.3l-38.1,2v24.4c0,1.3-1,2.3-2.3,2.3c-1.3,0-2.3-1-2.3-2.3v-26.6
					c0-1.2,0.9-2.2,2.2-2.3l42.7-2.2c0.7,0,1.3,0.2,1.7,0.7c0.5,0.5,0.7,1,0.7,1.7v35.7C244,408.4,243,409.4,241.6,409.4z"/>
				<path d="M198.8,375.9c-0.7,0-1.5-0.4-2-1c-0.7-1-0.5-2.5,0.7-3.3l17.7-12c1-0.7,2.5-0.5,3.3,0.7
					c0.7,1,0.5,2.5-0.7,3.3l-17.7,12C199.7,375.8,199.3,375.9,198.8,375.9z"/>
				<path d="M241.6,373.7c-0.7,0-1.2-0.3-1.7-0.7c-0.9-0.9-0.8-2.4,0.1-3.3l8-7.6l-2.3,0.2c-1.3,0.1-2.4-0.8-2.5-2.2
					s0.8-2.4,2.2-2.5l9-0.7c1-0.1,2,0.5,2.3,1.4c0.4,0.9,0.2,2-0.6,2.6L243.2,373C242.8,373.5,242.2,373.7,241.6,373.7z"/>
				<path d="M268.1,372.7c-0.6,0-1-0.2-1.5-0.6L252.9,361c-1-0.8-1.1-2.3-0.3-3.3c0.8-1,2.3-1.1,3.3-0.3l13.7,11.2
					c1,0.8,1.1,2.3,0.3,3.3C269.4,372.4,268.7,372.7,268.1,372.7z"/>
				<path d="M276.5,382.8c-0.6,0-1.2-0.2-1.6-0.7l-8.3-8.1c-0.9-0.9-0.9-2.3-0.1-3.3c0.9-0.9,2.3-0.9,3.3-0.1l4.3,4.1
					L271,166.7l-10.3-4.5l-14.8,3c-1.2,0.3-2.5-0.6-2.7-1.9c-0.3-1.3,0.6-2.5,1.9-2.7l15.5-3.1c0.5-0.1,0.9,0,1.4,0.2l12.4,5.3
					c0.8,0.4,1.4,1.2,1.4,2.2l3.1,215.3c0,0.9-0.6,1.8-1.4,2.2C277.1,382.7,276.8,382.8,276.5,382.8z"/>
				<path d="M241.6,390c-0.6,0-1.1-0.2-1.6-0.6c-0.9-0.8-1-2.3-0.2-3.3l14.3-15.8c0.5-0.6,1.1-0.8,1.9-0.7l12.1,0.6
					c1.3,0.1,2.2,1.1,2.2,2.4c-0.1,1.3-1.1,2.2-2.4,2.2l-11-0.6l-13.6,15C242.9,389.7,242.3,390,241.6,390z"/>
				<path d="M487,459.9L487,459.9c-1.3,0-2.3-1-2.3-2.3l0.1-69.5l-10.5,0.4c-1.2,0-2.3-0.9-2.4-2.2
					c-0.1-1.3,0.9-2.3,2.2-2.4l12.9-0.5c0.7,0,1.2,0.2,1.7,0.7c0.5,0.5,0.7,1,0.7,1.7l-0.1,71.9C489.4,458.9,488.4,459.9,487,459.9z
					"/>
				<path d="M357,447h-19.5c-1.3,0-2.3-1-2.3-2.3s1-2.3,2.3-2.3H357c1.3,0,2.3,1,2.3,2.3S358.3,447,357,447z"/>
				<path d="M254.5,397c-1.2,0-2.2-1-2.3-2.2c-0.1-1.3,0.9-2.3,2.2-2.4l92.1-3.6c1.3,0,2.3,0.9,2.4,2.2
					c0.1,1.3-0.9,2.3-2.2,2.4L254.5,397C254.6,397,254.5,397,254.5,397z"/>
				<path d="M253,411.4c-1.3,0-2.3-1-2.3-2.3v-21.5c0-1.3,1-2.3,2.3-2.3c1.3,0,2.3,1,2.3,2.3V409
					C255.3,410.4,254.3,411.4,253,411.4z"/>
				<path d="M404.4,374.8c-1.2,0-2.2-0.9-2.3-2.2c-0.1-1.3,0.9-2.4,2.2-2.4l8.4-0.5c1.3-0.1,2.4,0.9,2.4,2.2
					c0.1,1.3-0.9,2.4-2.2,2.4L404.4,374.8C404.5,374.8,404.4,374.8,404.4,374.8z"/>
				<path d="M487.1,388c-1.3,0-2.3-1-2.3-2.3v-15.9l-18.7,1.1c-1.3,0.1-2.4-0.9-2.4-2.2c-0.1-1.3,0.9-2.4,2.2-2.4
					l21.2-1.2c0.7,0,1.3,0.2,1.8,0.7c0.5,0.5,0.7,1,0.7,1.7v18.4C489.5,387,488.4,388,487.1,388z"/>
				<path d="M263.2,396.5c-0.6,0-1.2-0.2-1.6-0.7c-0.9-0.9-0.9-2.3,0-3.3l13.3-13.7c0.4-0.4,0.9-0.7,1.5-0.7l54.2-3.4
					c1.3-0.1,2.4,0.9,2.5,2.2c0.1,1.3-0.9,2.4-2.2,2.5l-53.2,3.4L265,395.9C264.4,396.3,263.8,396.5,263.2,396.5z"/>
				<path d="M377.9,424.2c-0.6,0-1-0.2-1.5-0.6c-0.1,0-1.4-1.1-2.3-2.1c-0.2-0.2-0.5-0.5-0.7-0.7c-0.4-0.4-0.9-1-1.2-1
					c-0.2,0-0.7,0.1-1,0.2c-0.3,0.1-0.6,0.1-0.7,0.2c-2.2,0.5-4.9-0.2-6.6-1.7c-1.4-1.2-2.2-2.9-2.2-4.7c0-0.6,0.2-1.1,0.3-1.6
					c0-0.2,0.1-0.5,0.1-0.7c-0.3-0.1-0.8-0.2-1.9-0.1c-2.3,0.2-6.8,0.7-9.7-2.2c-1.3-1.3-2-3-2.5-4.4c-0.1-0.4-0.3-0.7-0.5-1
					c-0.6-1.2-1.2-2.1-1.9-2.2c-0.1,0-0.2,0-0.3,0c-0.7,0-1.8-0.1-2.7-1c-1-0.9-1-2.2-1.1-2.7c-0.1-2.3,0.7-4.7,2.2-6.5
					c0.1-0.2,0.3-0.3,0.4-0.5c0.2-0.2,0.4-0.5,0.5-0.6c0.1-0.2,0-0.8-0.1-1.2l-0.3-1.8c-2.5,0.6-5.1-0.6-6.5-1.2l-4.3-1.9
					c-1-0.5-2.5-1.1-3.6-2.3c-1.4-1.7-1.8-4.2-1-6.9c1.1-4.4,4.3-8.2,8.4-10.1c0.3-0.1,0.6-0.3,0.7-0.4c0.6-0.2,1-0.5,1.4-0.7
					c0.4-0.3,0.7-0.6,1.1-1c0.3-0.3,0.6-0.6,0.9-0.8c2.6-2.3,6.5-3.4,10-2.6l0.3,0.1c0.1,0,0.2,0.1,0.4,0.1c0.1-0.2,0.3-0.3,0.4-0.5
					c1.5-1.5,3.8-2,6.6-1.4c0.5,0.1,0.8,0.2,1.3,0.4c0.9,0.3,1.9,0.5,2.5,0.5c0.3,0,0.6-0.1,0.7-0.1c0.5-0.1,1-0.2,1.7-0.2
					c2.2-0.1,4.3,1.1,5.4,3c0.1,0.2,0.2,0.4,0.3,0.7c0.7,0.3,1.8,0.5,2.2,0.3c0.4-0.1,0.7-0.3,1.1-0.5c1.2-0.6,2.8-1.3,4.7-0.8
					c1.8,0.4,2.9,1.5,3.8,2.4c0.6,0.6,1,1.1,1.4,1.1c0.6,0.1,1.6-0.6,2.5-1.2l0.2-0.2c3.7-2.4,6.1-1.5,7.2-0.7
					c0.4,0.3,0.7,0.5,0.8,0.7c0.1,0.1,0.2,0.2,0.3,0.3c0.1,0,0.7-0.1,1.1-0.2c0.4-0.1,0.7-0.1,1-0.2c2.8-0.4,5.8,0.8,7.6,3.1
					s2.3,5.4,1.3,8.1c-0.1,0.3-0.3,0.7-0.4,0.9c0,0.1-0.1,0.2-0.1,0.2c0.3,0,0.7,0,1,0.1c2,0.5,2.5,2.2,2.9,3.2
					c0.1,0.2,0.2,0.5,0.2,0.6c0.2,0.1,0.8-0.1,1.1-0.4c0.6-0.7,0.6-2.2,0-3.7c-0.1-0.2-0.1-0.4-0.2-0.5c-0.5-1.1-0.9-2.5-0.7-4.2
					c0.3-1.6,1.2-2.9,2.8-4.1c2.7-2,6.1-2.8,9.4-2.2c0.4,0.1,0.7,0.1,1,0.2c0.7,0.1,1.2,0.3,1.7,0.2c0.1,0,0.2,0,0.3-0.1
					c0-0.1,0-0.3,0-0.4c-0.1-0.8-0.3-2.4,0.8-3.7c0.8-0.9,2-1.1,2.5-1.2l3.8-0.7c0.7-0.2,2.3-0.5,3.7,0.5c0.6,0.4,1,0.9,1.2,1.2
					c0,0,0,0,0,0.1c0.3-0.1,0.8-0.4,1.6-1c3.7-3.5,6.3-2.5,7.5-1.7c0.5,0.3,0.7,0.7,1,0.9c0,0,0,0,0,0.1c0.3-0.1,0.7-0.4,1-0.6
					l0.4-0.3c3.1-1.8,7-2,10.3-0.4c1.5,0.7,2.4,1.8,2.9,3c0.3,0.8,0.2,1.6,0.2,2.1c0,0.2,0,0.3,0,0.5c0.1,0.8,1.1,1.6,2.8,2.6
					c2.1,1.3,4.6,2.8,5.1,5.9c0.2,0.9,0.1,1.9,0,2.7c0,0.4-0.1,1-0.1,1.3c0.2,0,0.5,0.1,0.7,0.2c0.4,0.1,0.7,0.2,1.2,0.3
					c3,0.9,5.1,4.2,5,7.7c-0.1,2.5-1.2,5-3.3,7.5l-0.3,0.4c-0.3,0.3-0.5,0.6-0.7,0.8c2.2-0.5,4.9,0.4,6.7,2.4
					c1.5,1.7,2.2,3.7,2.8,5.3c1.4,3.8,2.8,9.4-0.7,13.2c-1.1,1.2-2.5,1.9-3.7,2.5c-0.4,0.2-0.8,0.4-1.2,0.7
					c-0.4,0.2-0.8,0.5-1.3,0.7c-0.7,0.3-2.2,1-2.6,1.5c-0.2,1.1-1.1,2-2.2,2c-1.3,0-2.3-0.9-2.4-2.2c-0.1-2.9,3-4.4,5.2-5.5
					c0.4-0.2,0.7-0.4,1-0.6c0.5-0.3,0.9-0.5,1.4-0.7c0.9-0.5,1.9-0.9,2.4-1.5c1.4-1.5,1.3-4.1-0.3-8.4c-0.6-1.6-1-2.8-1.9-3.7
					c-0.7-0.7-1.6-1.1-2.2-0.9c-0.1,0-0.2,0.1-0.3,0.1c-0.5,0.2-1.1,0.4-1.9,0.4c-1.1,0-2.2-0.6-2.9-1.5c-0.8-1.1-1.1-2.6-0.8-3.9
					c0.4-1.5,1.3-2.6,2.1-3.5l0.3-0.3c1.4-1.7,2.2-3.2,2.2-4.6c0.1-1.3-0.7-2.7-1.7-3c-0.2-0.1-0.5-0.1-0.7-0.2
					c-0.8-0.2-2.1-0.5-3.1-1.4c-1.7-1.6-1.4-3.7-1.2-5.2c0.1-0.6,0.1-1.1,0.1-1.4c-0.2-0.9-1.5-1.8-2.9-2.6c-2.2-1.3-4.8-3-5-6.2
					c0-0.4,0-0.7,0-1c0-0.1,0-0.3,0-0.5c-0.1-0.1-0.2-0.2-0.5-0.3c-1.8-0.9-4.1-0.8-5.9,0.2l-0.4,0.2c-1.3,0.7-3.5,2.1-5.6,0.7
					c-0.7-0.4-1-0.8-1.3-1.1c0-0.1-0.1-0.1-0.1-0.2c-0.3,0.1-0.8,0.4-1.7,1.2c-2.7,2.5-5.7,3-7.7,1.2c-0.4-0.3-0.7-0.7-0.8-0.9
					c-0.1,0-0.3,0-0.4,0.1l-3.4,0.7c0.1,0.5,0.1,1.1,0,1.8c-0.4,2.1-2.2,3.6-4.6,3.7c-1.1,0.1-2.1-0.1-2.9-0.3
					c-0.3-0.1-0.6-0.1-0.8-0.2c-2.1-0.3-4.2,0.2-5.9,1.4c-0.8,0.7-0.9,1-1,1.1c-0.1,0.4,0.2,1,0.5,1.7c0.1,0.2,0.2,0.4,0.2,0.6
					c1.1,3.1,0.9,5.9-0.6,8c-1.1,1.5-3.1,2.4-5.1,2.3c-1.8-0.1-3.2-0.9-3.9-2.3c-0.3-0.5-0.5-0.9-0.6-1.3c-0.4,0.1-0.8,0.1-1.3,0
					c-2.1-0.3-3.5-2.4-3.2-4.7c0.1-0.9,0.5-1.7,0.7-2.3c0.1-0.2,0.2-0.5,0.3-0.7c0.5-1.1,0.2-2.6-0.6-3.6c-0.7-0.9-2.2-1.5-3.4-1.3
					c-0.3,0-0.5,0.1-0.7,0.1c-1.2,0.2-2.8,0.6-4.4-0.4c-0.5-0.3-0.8-0.7-1.1-0.8c-0.1-0.1-0.2-0.2-0.3-0.3c-0.1-0.1-0.8,0-2,0.7
					l-0.2,0.2c-1.5,1-3.7,2.4-6.1,1.9c-1.7-0.4-2.8-1.5-3.7-2.4c-0.5-0.5-1-1.1-1.4-1.1c-0.4-0.1-1.1,0.3-1.8,0.6
					c-0.5,0.2-1,0.5-1.6,0.7c-1.9,0.6-5.3,0.1-7.1-1.4c-0.6-0.6-0.9-1.1-1.1-1.9c-0.3-0.3-0.7-0.4-1-0.4c-0.3,0-0.6,0.1-0.9,0.1
					c-0.4,0.1-0.8,0.2-1.3,0.2c-1.6,0.2-3-0.3-4.2-0.6c-0.4-0.1-0.7-0.2-1.1-0.3c-1.2-0.3-2-0.1-2.2,0.1c-0.1,0.1-0.1,0.1-0.2,0.2
					c-0.3,0.3-0.7,0.8-1.4,1.2c-1.3,0.7-2.7,0.4-3.6,0.2h-0.2c-2-0.5-4.3,0.2-5.8,1.5c-0.3,0.2-0.5,0.5-0.7,0.7
					c-0.5,0.5-1,1-1.8,1.5c-0.7,0.6-1.5,0.8-2.2,1.1c-0.2,0.1-0.5,0.2-0.7,0.3c-2.8,1.3-5.1,4-5.9,7c-0.4,1.2-0.3,2.2,0.1,2.8
					c0.4,0.4,1.1,0.7,1.8,1l4.3,1.9c1.5,0.7,3.1,1.2,4,0.7h0.1c0.5-0.2,1.4-0.7,2.5-0.4c0.7,0.2,2.1,0.8,2.4,3l0.6,3.2
					c0.2,0.9,0.4,2.3-0.2,3.7c-0.4,0.8-0.8,1.4-1.3,1.9c-0.1,0.1-0.2,0.2-0.3,0.3c-0.7,0.7-0.9,1.7-1,2.6c0,0,0,0,0.1,0
					c2.3,0.3,4.3,2.1,5.5,5c0.2,0.4,0.3,0.7,0.5,1.2c0.5,1.1,0.8,2.2,1.5,2.8c1.2,1.2,3.7,1.1,6.1,0.9c4.7-0.4,6.3,1.8,6.7,3.1
					c0.5,1.3,0.2,2.4,0,3.3c-0.1,0.3-0.1,0.6-0.1,0.7c0,0.3,0.2,0.7,0.5,0.9c0.7,0.6,1.8,0.8,2.6,0.7c0.2,0,0.4-0.1,0.6-0.1
					c0.8-0.2,1.8-0.5,3-0.3c1.8,0.3,2.9,1.5,3.8,2.4c0.2,0.2,0.4,0.4,0.5,0.5c0.8,0.8,2.1,1.9,2.1,1.9c1,0.8,1.1,2.3,0.3,3.3
					C379.2,423.9,378.6,424.2,377.9,424.2z M472.8,417.9L472.8,417.9L472.8,417.9z M346.2,397.8L346.2,397.8L346.2,397.8z
					 M406.2,379.9L406.2,379.9L406.2,379.9z M371,362.8L371,362.8L371,362.8z"/>
				<path d="M487.4,460.6L487.4,460.6l-130.5-0.7c-0.4,0-0.7-0.1-1-0.3c-7.1-3.6-8.7-8.2-8.8-8.7
					c-0.2-0.7-0.1-1.5,0.4-2.1c0.5-0.6,1.1-0.9,1.9-0.9h6.1v-8.9c0-1.3,1-2.3,2.3-2.3h13.9l1.2-3.3c0.4-0.9,1.1-1.5,2.2-1.5
					l87.5-2.9l-0.1-0.6l-89,2.7c-0.9,0.1-1.8-0.6-2.2-1.4c-0.4-0.8-0.2-1.9,0.5-2.5l6.6-6.9c0.5-0.5,1-0.7,1.6-0.7l107.1-3.7
					c1.3-0.1,2.3,0.9,2.4,2.2c0,1.3-0.9,2.3-2.2,2.4l-106.2,3.7l-2,2.1l85.4-2.6c1.2-0.1,2.2,0.8,2.4,2.1l0.7,5.2
					c0.1,0.7-0.1,1.3-0.6,1.8c-0.5,0.5-1,0.8-1.7,0.8l-88.5,3l-1.2,3.3c-0.4,0.9-1.2,1.5-2.2,1.5h-13.2v8.9c0,1.3-1,2.3-2.3,2.3
					h-3.9c0.8,0.8,2.1,1.8,3.7,2.6l129.9,0.7c1.3,0,2.3,1,2.3,2.3C489.8,459.6,488.7,460.6,487.4,460.6z"/>
				<path d="M380,435.8c-1.3,0-2.3-1-2.3-2.3v-5c0-1.3,1-2.3,2.3-2.3c1.3,0,2.3,1,2.3,2.3v5
					C382.3,434.8,381.3,435.8,380,435.8z"/>
				<path d="M487,452.5H357.7c-1.3,0-2.3-1-2.3-2.3s1-2.3,2.3-2.3H487c1.3,0,2.3,1,2.3,2.3S488.4,452.5,487,452.5z"/>
				<rect x="366.9" y="442.8" width="12.6" height="3.7"/>
				<rect x="387.2" y="442.8" width="12.6" height="3.7"/>
				<rect x="407.6" y="442.8" width="12.6" height="3.7"/>
				<rect x="428" y="442.8" width="12.6" height="3.7"/>
				<rect x="448.4" y="442.8" width="12.6" height="3.7"/>
				<rect x="468.8" y="442.8" width="12.6" height="3.7"/>
				<path d="M373.2,441.3c-1.3,0-2.3-1-2.3-2.3c0-1.3,1-2.3,2.3-2.3l99.1-0.7l-8-2.5c-1.2-0.4-1.9-1.7-1.5-2.9
					c0.4-1.2,1.7-1.9,2.9-1.5l21.9,7c1.1,0.4,1.8,1.4,1.6,2.6c-0.2,1.1-1.1,2-2.3,2L373.2,441.3
					C373.3,441.3,373.2,441.3,373.2,441.3z"/>
				<path d="M487.1,430.9c-0.4,0-0.7-0.1-1-0.2l-20-9.6c-1.1-0.6-1.7-2-1.1-3.1c0.6-1.1,2-1.7,3.1-1.1l20,9.6
					c1.1,0.6,1.7,2,1.1,3.1C488.8,430.4,488,430.9,487.1,430.9z"/>
				<path d="M376,387.5c-0.5,0-0.9-0.1-1.3-0.4l-5.2-3.6c-1-0.7-1.3-2.2-0.7-3.3c0.7-1,2.2-1.3,3.3-0.7l5.2,3.6
					c1,0.7,1.3,2.2,0.7,3.3C377.5,387.1,376.7,387.5,376,387.5z"/>
				<path d="M374.7,405.6c-0.1,0-0.3,0-0.4,0c-1.3,0-2.3-1.1-2.2-2.4c0-1.3,1-2.2,2.3-2.2c0,0,0,0,0.1,0
					c0.9,0,1.9-0.1,2.7-0.4c1.2-0.4,2.5,0.3,3,1.5c0.4,1.2-0.3,2.5-1.5,3C377.4,405.3,376,405.6,374.7,405.6z"/>
				<path d="M399,400.6c-0.3,0-0.7-0.1-0.9-0.2l-3-1.4c-1.2-0.6-1.7-2-1.1-3.1c0.6-1.1,2-1.7,3.1-1.1l3,1.4
					c1.2,0.6,1.7,2,1.1,3.1C400.7,400.1,399.9,400.6,399,400.6z"/>
				<path d="M392.2,380.1c-0.1,0-0.2,0-0.3,0l-2.2-0.3c-1.3-0.2-2.2-1.3-2.1-2.6c0.2-1.3,1.3-2.2,2.6-2.1l2.2,0.3
					c1.3,0.2,2.2,1.3,2.1,2.6C394.3,379.1,393.3,380.1,392.2,380.1z"/>
				<path d="M433.8,410.2c-0.6,0-1-0.2-1.5-0.6l-3.6-3c-1-0.8-1.1-2.3-0.3-3.3c0.8-1,2.3-1.1,3.3-0.3l3.6,3
					c1,0.8,1.1,2.3,0.3,3.3C435.2,409.9,434.6,410.2,433.8,410.2z"/>
				<path d="M451,411c-1.2,0-2.2-0.9-2.3-2.2c-0.1-1.3,0.9-2.4,2.2-2.5l4.1-0.3c1.3-0.1,2.4,0.8,2.5,2.2
					c0.1,1.3-0.9,2.4-2.2,2.5l-4.1,0.3C451.1,411,451.1,411,451,411z"/>
				<path d="M453.9,388c-0.8,0-1.6-0.5-2.1-1.2c-0.7-1.1-0.2-2.5,0.9-3.2l3-1.7c1.1-0.7,2.5-0.2,3.2,0.9
					c0.7,1.1,0.2,2.5-0.9,3.2l-3,1.7C454.6,387.9,454.2,388,453.9,388z"/>
				<path d="M444.5,378.9c-0.9,0-1.9-0.7-2.2-1.6l-1.4-4.1c-0.4-1.2,0.3-2.5,1.5-3c1.2-0.4,2.5,0.3,3,1.5l1.4,4.1
					c0.4,1.2-0.3,2.5-1.5,3C445,378.9,444.8,378.9,444.5,378.9z"/>
				<path d="M417.1,394.3c-1.1,0-2.1-0.7-2.3-1.9c-0.3-1.3,0.6-2.5,1.9-2.7l4.4-0.8c1.3-0.3,2.5,0.6,2.7,1.9
					c0.3,1.3-0.6,2.5-1.9,2.7l-4.4,0.8C417.4,394.2,417.2,394.3,417.1,394.3z"/>
				<path d="M412.1,417c-0.4,0-0.7-0.1-1-0.3l-2.2-1c-1.1-0.6-1.7-2-1.1-3.1c0.6-1.1,2-1.7,3.1-1.1l2.2,1
					c1.1,0.6,1.7,2,1.1,3.1C413.9,416.5,413.1,417,412.1,417z"/>
				<path d="M359.3,377.8c-0.6,0-1.1-0.2-1.5-0.6l-1.9-1.7c-0.9-0.8-1.1-2.3-0.3-3.3s2.3-1.1,3.3-0.3l1.9,1.7
					c0.9,0.8,1.1,2.3,0.3,3.3C360.6,377.5,359.9,377.8,359.3,377.8z"/>
				<path d="M312.1,427.4c-0.2,0-0.4,0-0.6-0.1c-1.2-0.4-2-1.6-1.7-2.9c1.8-6.7,7.8-12,14.6-13.1c0.7-1.2,1.6-2.2,2.8-3
					c2.2-1.3,5.1-1.8,7.5-1c0.5,0.1,0.9,0.3,1.4,0.5c0.7,0.3,1.4,0.5,2,0.5c1.1,0.1,2.2-0.8,3.6-1.9c1.1-0.8,2.3-1.8,3.7-2.3
					c2.9-1.1,6.4-0.7,8.9,1.1c1,0.7,1.2,2.2,0.5,3.3c-0.7,1-2.2,1.2-3.3,0.5c-1.2-0.9-2.9-1.1-4.3-0.6c-0.8,0.4-1.8,1-2.7,1.7
					c-1.8,1.3-3.7,2.8-6.5,2.8c-1.3,0-2.4-0.4-3.4-0.7c-0.4-0.1-0.7-0.3-1.1-0.4c-1.2-0.4-2.8-0.1-3.8,0.6c-0.5,0.3-1.1,0.8-1.3,1.6
					c-0.2,1-1.1,1.8-2.2,1.9c-5.5,0.4-10.5,4.5-11.9,9.8C314.1,426.8,313.2,427.4,312.1,427.4z"/>
				<path d="M348.5,426.7c-0.4,0-0.8-0.1-1.2-0.4l-3.8-2.3c-1.1-0.7-1.5-2.2-0.7-3.2c0.7-1.1,2.2-1.4,3.2-0.7l3.8,2.3
					c1.1,0.7,1.5,2.2,0.7,3.2C350.1,426.2,349.3,426.7,348.5,426.7z"/>
				<path d="M327.9,425.7h-1.7c-1.3,0-2.3-1-2.3-2.3c0-1.3,1-2.3,2.3-2.3h1.7c1.3,0,2.3,1,2.3,2.3
					C330.2,424.7,329.2,425.7,327.9,425.7z"/>
				<path d="M362.4,432.6c-0.7,0-1.3-0.3-1.8-0.7c-0.7-0.8-1.3-1.9-1.7-3c-0.4-1.2,0.3-2.5,1.5-3c1.2-0.4,2.5,0.3,3,1.5
					c0.2,0.5,0.5,0.9,0.7,1.3c0.8,0.9,0.7,2.4-0.2,3.3C363.5,432.4,362.9,432.6,362.4,432.6z"/>
				<path d="M249.1,435.9H129.4c-1.3,0-2.3-1-2.3-2.3c0-1.3,1-2.3,2.3-2.3h119.7c1.3,0,2.3,1,2.3,2.3
					C251.4,434.9,250.4,435.9,249.1,435.9z"/>
				<path d="M86.5,435.9H21.1c-1.3,0-2.3-1-2.3-2.3c0-1.3,1-2.3,2.3-2.3h65.4c1.3,0,2.3,1,2.3,2.3
					C88.9,434.9,87.8,435.9,86.5,435.9z"/>
				<path d="M86,448.9H21.1c-1.3,0-2.3-1-2.3-2.3v-32.6c0-1.3,1-2.3,2.3-2.3c1.3,0,2.3,1,2.3,2.3v30.3H86
					c1.3,0,2.3,1,2.3,2.3C88.3,447.8,87.3,448.9,86,448.9z"/>
				<path d="M109.8,445.8H94.6c-1.3,0-2.3-1-2.3-2.3c0-1.3,1-2.3,2.3-2.3h15.2c1.3,0,2.3,1,2.3,2.3
					C112.1,444.8,111.1,445.8,109.8,445.8z"/>
				<path d="M119.7,445.8H117c-1.3,0-2.3-1-2.3-2.3c0-1.3,1-2.3,2.3-2.3h2.7c1.3,0,2.3,1,2.3,2.3
					C122,444.8,121,445.8,119.7,445.8z"/>
				<path d="M148.4,387.8c-1.3,0-2.3-1-2.3-2.3l-0.3-47.2l-42.4-4.3l-14.5,3.2v36.8c0,1.3-1,2.3-2.3,2.3s-2.3-1-2.3-2.3
					v-38.6c0-1.1,0.7-2.1,1.9-2.2l16.8-3.7c0.3-0.1,0.5-0.1,0.7,0l44.8,4.5c1.2,0.1,2.1,1.1,2.1,2.3l0.3,49.4
					C150.7,386.7,149.7,387.8,148.4,387.8L148.4,387.8z"/>
				<path d="M103.3,425.9c-1.3,0-2.3-1-2.3-2.3v-92c0-1.3,1-2.3,2.3-2.3s2.3,1,2.3,2.3v92
					C105.6,424.9,104.6,425.9,103.3,425.9z"/>
				<path d="M129.8,367c-0.1,0-0.3,0-0.4,0l-6.7-1.1c-1.1-0.2-2-1.1-2-2.3v-30.1c0-1.3,1-2.3,2.3-2.3s2.3,1,2.3,2.3
					v28.1l2,0.4v-27.7c0-1.3,1-2.3,2.3-2.3s2.3,1,2.3,2.3v30.6c0,0.7-0.3,1.3-0.8,1.8C130.9,366.9,130.3,367,129.8,367z"/>
				<path d="M142.2,337.1l-1.6-1.8l-1.5-1.8l1.5,1.8l-2.3-0.2c0.1-1.3,0-28.8,0-46.9c0-1.1,0.8-2.2,2-2.3l18.1-2.9
					c0.3,0,0.6,0,0.8,0l29.1,5.9c1.3,0.3,2.1,1.5,1.9,2.7c-0.2,1.2-1.5,2.1-2.7,1.9l-28.6-5.8l-15.7,2.5c0,3.8,0,12.7,0,21.5
					c0,5.9,0,11.7,0,16.1C143,336.3,143,336.3,142.2,337.1z"/>
				<path d="M158.7,390c-1.3,0-2.3-1-2.3-2.3V285.3c0-1.3,1-2.3,2.3-2.3c1.3,0,2.3,1,2.3,2.3v102.4
					C161,389,160,390,158.7,390z"/>
				<polygon points="179.6,301.9 169.3,299.9 169.3,295.2 179.6,297.1 				"/>
				<polygon points="179.6,322.1 169.3,320.1 169.3,315.3 179.6,317.3 				"/>
				<polygon points="179.6,342.1 169.3,340.2 169.3,335.5 179.6,337.4 				"/>
				<polygon points="179.6,362.3 169.3,360.4 169.3,355.6 179.6,357.6 				"/>
				<polygon points="179.6,381.6 169.3,379.6 169.3,374.8 179.6,376.8 				"/>
				<path d="M335.3,311.1c-1.2,0-2.3-1-2.3-2.2l-1.9-66.2c-5.4-3.4-13.6-7.2-16.7-6.2c-0.7,0.2-1.5,0.1-2.1-0.4
					s-0.9-1.1-0.9-1.9v-16.8c-18.1-8.2-36,0.6-36.2,0.7c-1.1,0.6-2.5,0.1-3.2-1c-0.6-1.1-0.1-2.5,1-3.2c0.8-0.5,21.1-10.3,41.7-0.1
					c0.8,0.4,1.3,1.2,1.3,2.1v15.7c6.9,0.3,16.6,6.4,18.7,7.8c0.7,0.4,1,1.1,1,1.9l1.9,67.4C337.6,310,336.7,311,335.3,311.1
					C335.4,311.1,335.3,311.1,335.3,311.1z"/>
				<path d="M312.1,380.5c-1.3,0-2.3-1-2.3-2.3l-2.6-141.4c0-0.5,0.1-0.9,0.4-1.3c0.2-0.3,1.9-2.6,5.5-3.7
					c1.2-0.4,2.5,0.4,2.9,1.6c0.4,1.2-0.4,2.5-1.6,2.9c-1.2,0.4-2,0.9-2.4,1.3l2.6,140.4C314.5,379.4,313.4,380.5,312.1,380.5
					L312.1,380.5z"/>
				<path d="M326.2,379.9c-1.3,0-2.3-1-2.3-2.3l-0.7-66.1c0-1.2,0.9-2.2,2.1-2.3l26-2.7c0.3,0,0.6,0,0.8,0.1l23.2,6.3
					c1,0.3,1.7,1.2,1.8,2.2l0.6,29.9c0,1.3-1,2.3-2.2,2.3c-1.3,0.1-2.3-1-2.3-2.2l-0.6-28.2l-21.2-5.6l-23.3,2.5l0.7,63.9
					C328.5,378.9,327.5,379.9,326.2,379.9L326.2,379.9z"/>
				<path d="M352.9,364c-1.2,0-2.3-1-2.3-2.2l-1.5-53.1c0-1.3,0.9-2.3,2.2-2.4c0,0,0,0,0.1,0c1.2,0,2.3,1,2.3,2.2
					l1.5,53.1C355.3,362.9,354.2,364,352.9,364L352.9,364z"/>
				<path d="M402.6,359.4h-34.9c-1.3,0-2.3-1-2.3-2.3v-7.6c0-0.8,0.5-1.6,1.1-2l16.9-10.3c0.7-0.5,1.7-0.5,2.4,0
					l17.8,10.3c0.7,0.4,1.1,1.1,1.1,2l0.2,7.6c0,0.7-0.2,1.2-0.7,1.7C403.8,359.1,403.2,359.4,402.6,359.4z M370.1,354.7h30.2
					l-0.1-3.8l-15.5-8.9l-14.5,8.9L370.1,354.7L370.1,354.7z"/>
				<path d="M402.4,351.8h-34.7c-1.3,0-2.3-1-2.3-2.3s1-2.3,2.3-2.3h34.7c1.3,0,2.3,1,2.3,2.3S403.7,351.8,402.4,351.8z
					"/>
				<path d="M400.2,367.5c-1.3,0-2.3-1-2.3-2.3V357c0-1.3,1-2.3,2.3-2.3s2.3,1,2.3,2.3v8.2
					C402.5,366.5,401.5,367.5,400.2,367.5z"/>
				<path d="M481.3,369.7c-1.3,0-2.3-1-2.3-2.3v-38h-25.6V357c0,1.3-1,2.3-2.3,2.3c-1.3,0-2.3-1-2.3-2.3v-30
					c0-1.3,1-2.3,2.3-2.3h30.3c1.3,0,2.3,1,2.3,2.3v40.3C483.7,368.6,482.6,369.7,481.3,369.7z"/>
				<path d="M429.5,363.5c-1.3,0-2.3-1-2.3-2.3v-16.3l-35,0.6c-1.3,0-2.3-1-2.3-2.3c0-1.3,1-2.3,2.3-2.3l37.3-0.7l0,0
					c0.7,0,1.2,0.3,1.7,0.7c0.5,0.5,0.7,1,0.7,1.7V361C431.8,362.5,430.8,363.5,429.5,363.5z"/>
			</g>
			<path d="M162.1,475.3h-14.4c-1.3,0-2.3-1-2.3-2.3s1-2.3,2.3-2.3h14.4c1.3,0,2.3,1,2.3,2.3S163.4,475.3,162.1,475.3z"
				/>
			<path d="M234.7,475.3h-51.1c-1.3,0-2.3-1-2.3-2.3s1-2.3,2.3-2.3h51.1c1.3,0,2.3,1,2.3,2.3S236,475.3,234.7,475.3z"/>
			<path d="M270.1,475.3h-14.4c-1.3,0-2.3-1-2.3-2.3s1-2.3,2.3-2.3h14.4c1.3,0,2.3,1,2.3,2.3S271.5,475.3,270.1,475.3z"
				/>
			<path d="M387.7,475.3H284.1c-1.3,0-2.3-1-2.3-2.3s1-2.3,2.3-2.3h103.6c1.3,0,2.3,1,2.3,2.3S388.9,475.3,387.7,475.3z
				"/>
			<path d="M115.3,475.3H64.8c-1.3,0-2.3-1-2.3-2.3s1-2.3,2.3-2.3h50.5c1.3,0,2.3,1,2.3,2.3S116.6,475.3,115.3,475.3z"
				/>
			<path d="M162.1,491.9h-54.2c-1.3,0-2.3-1-2.3-2.3c0-1.3,1-2.3,2.3-2.3h54.2c1.3,0,2.3,1,2.3,2.3
				C164.4,490.9,163.4,491.9,162.1,491.9z"/>
			<path d="M429.1,475.3h-20.2c-1.3,0-2.3-1-2.3-2.3s1-2.3,2.3-2.3h20.2c1.3,0,2.3,1,2.3,2.3S430.4,475.3,429.1,475.3z"
				/>
			<path d="M324.6,491.9H204.7c-1.3,0-2.3-1-2.3-2.3c0-1.3,1-2.3,2.3-2.3h119.8c1.3,0,2.3,1,2.3,2.3
				C326.9,490.9,325.8,491.9,324.6,491.9z"/>
		</g>
	</g>
</g>
</svg>
