<?xml version="1.0" encoding="utf-8"?>
<!-- Generator: Adobe Illustrator 25.0.1, SVG Export Plug-In . SVG Version: 6.00 Build 0)  -->
<svg version="1.1" fill="#8052FD" id="Capa_1" xmlns="http://www.w3.org/2000/svg" xmlns:xlink="http://www.w3.org/1999/xlink" x="0px" y="0px"
	 viewBox="0 0 512 512" style="enable-background:new 0 0 512 512;" xml:space="preserve">

	
	


<g>
	<g>
		<path d="M207,140.9l-6.9-6v-2.9l6.9-6c1.6-1.4,2.3-3.6,1.9-5.6c-1-4.7-2.5-9.3-4.6-13.6c-0.9-1.9-2.7-3.2-4.8-3.4
			l-9-0.8c-0.6-0.9-1.2-1.7-1.9-2.6l2-8.5c0.5-2.1-0.2-4.3-1.8-5.7c-3.6-3.2-7.6-6.1-11.8-8.4c-1.8-1-4-1-5.8,0l-7.8,4.5
			c-1-0.4-2.1-0.7-3.2-1l-3.6-8.4c-0.9-2.2-3-3.6-5.4-3.6h-13.3c-2.4,0-4.5,1.4-5.4,3.6l-3.6,8.4c-1.1,0.3-2.2,0.6-3.2,1l-7.8-4.5
			c-1.8-1-4-1.1-5.8,0c-4.2,2.4-8.2,5.2-11.8,8.4c-1.6,1.4-2.3,3.6-1.8,5.7l2,8.5c-0.7,0.8-1.3,1.7-1.9,2.6l-9,0.8
			c-2.1,0.2-3.9,1.5-4.8,3.4c-2,4.4-3.6,8.9-4.6,13.6c-0.4,2.1,0.3,4.2,1.9,5.6l6.9,6v2.9l-6.9,6c-1.6,1.4-2.3,3.6-1.9,5.6
			c1,4.7,2.5,9.3,4.6,13.6c0.9,1.9,2.7,3.2,4.8,3.4l9,0.8c0.6,0.9,1.2,1.7,1.9,2.6l-2,8.5c-0.5,2.1,0.2,4.3,1.8,5.7
			c3.6,3.2,7.6,6.1,11.8,8.4c1.8,1,4,1,5.8,0l7.8-4.5c1,0.4,2.1,0.7,3.2,1l3.6,8.4c0.9,2.2,3,3.6,5.4,3.6h13.3
			c2.4,0,4.5-1.4,5.4-3.6l3.6-8.4c1.1-0.3,2.2-0.6,3.2-1l7.8,4.5c2,1.2,4.5,1,6.4-0.3l10.7-7.7c1.9-1.4,2.8-3.8,2.3-6.1l-2-8.5
			c0.7-0.8,1.3-1.7,1.9-2.6l9-0.8c2.1-0.2,3.9-1.5,4.8-3.4c2-4.3,3.6-8.9,4.6-13.6C209.4,144.5,208.6,142.3,207,140.9z M190.4,142.1
			l6.2,5.4c-0.4,1.6-1,3.2-1.6,4.7l-8.4,0.8c-1.8,0.2-3.5,1.2-4.5,2.8c-1.3,2.1-2.7,4-4.3,5.8c-1.3,1.4-1.7,3.4-1.3,5.2l1.7,7.5
			l-4.5,3.2l-6.9-4c-1.6-0.9-3.5-1-5.2-0.3c-2.3,0.9-4.7,1.7-7.1,2.2c-1.8,0.4-3.4,1.7-4.1,3.4l-3.2,7.5h-5.5l-3.2-7.5
			c-0.7-1.7-2.3-3-4.1-3.4c-2.4-0.5-4.8-1.3-7.1-2.2c-1.7-0.7-3.6-0.6-5.2,0.3l-7.2,4.2c-1.5-0.9-2.9-2-4.3-3.1l1.8-7.9
			c0.4-1.8-0.1-3.8-1.3-5.2c-1.6-1.8-3.1-3.8-4.3-5.9c-1-1.6-2.6-2.6-4.5-2.8l-8.4-0.8c-0.6-1.6-1.2-3.2-1.6-4.7l6.2-5.4
			c1.3-1.1,2-2.7,2-4.4v-8.2c0-1.7-0.7-3.3-2-4.4l-6.2-5.4c0.4-1.6,1-3.1,1.6-4.7l8.4-0.8c1.8-0.2,3.5-1.2,4.5-2.8
			c1.3-2.1,2.7-4,4.3-5.8c1.3-1.4,1.7-3.4,1.3-5.2l-1.8-7.9c1.4-1.1,2.8-2.1,4.3-3.1l7.2,4.2c1.6,0.9,3.5,1,5.2,0.3
			c2.3-0.9,4.7-1.7,7.1-2.2c1.8-0.4,3.4-1.7,4.1-3.4l3.2-7.5h5.5l3.2,7.5c0.7,1.7,2.3,3,4.1,3.4c2.4,0.5,4.8,1.3,7.1,2.2
			c1.7,0.7,3.6,0.6,5.2-0.3l7.2-4.2c1.5,0.9,2.9,2,4.3,3.1l-1.8,7.9c-0.4,1.8,0.1,3.8,1.3,5.2c1.6,1.8,3.1,3.8,4.3,5.9
			c1,1.6,2.6,2.6,4.5,2.8l8.4,0.8c0.6,1.6,1.2,3.2,1.6,4.7l-6.2,5.4c-1.3,1.1-2,2.7-2,4.4v8.2C188.4,139.4,189.1,141,190.4,142.1z"
			/>
	</g>
</g>
<g>
	<g>
		<path d="M144.5,104.2c-16.2,0-29.3,13.1-29.3,29.3s13.1,29.3,29.3,29.3s29.3-13.1,29.3-29.3
			C173.8,117.3,160.7,104.2,144.5,104.2z M144.5,151.1c-9.7,0-17.6-7.9-17.6-17.6s7.9-17.6,17.6-17.6s17.6,7.9,17.6,17.6
			C162.1,143.2,154.3,151.1,144.5,151.1z"/>
	</g>
</g>
<g>
	<g>
		<path d="M144.5,362.3C144.5,362.3,144.5,362.3,144.5,362.3H97.6c-3.2,0-5.9,2.6-5.9,5.9c0,0,0,0,0,0v46.9
			c0,3.2,2.6,5.9,5.9,5.9c0,0,0,0,0,0h46.9c3.2,0,5.9-2.6,5.9-5.9c0,0,0,0,0,0v-46.9C150.4,365,147.8,362.3,144.5,362.3z
			 M138.7,409.3h-35.2v-35.2h35.2V409.3z"/>
	</g>
</g>
<g>
	<g>
		<path d="M232.5,344.7C232.5,344.7,232.5,344.7,232.5,344.7h-46.9c-3.2,0-5.9,2.6-5.9,5.9c0,0,0,0,0,0v64.5
			c0,3.2,2.6,5.9,5.9,5.9c0,0,0,0,0,0h46.9c3.2,0,5.9-2.6,5.9-5.9c0,0,0,0,0,0v-64.5C238.4,347.4,235.8,344.7,232.5,344.7z
			 M226.7,409.3h-35.2v-52.8h35.2V409.3z"/>
	</g>
</g>
<g>
	<g>
		<path d="M320.5,321.3C320.5,321.3,320.5,321.3,320.5,321.3h-46.9c-3.2,0-5.9,2.6-5.9,5.9c0,0,0,0,0,0v88
			c0,3.2,2.6,5.9,5.9,5.9c0,0,0,0,0,0h46.9c3.2,0,5.9-2.6,5.9-5.9c0,0,0,0,0,0v-88C326.4,323.9,323.8,321.3,320.5,321.3z
			 M314.7,409.3h-35.2V333h35.2V409.3z"/>
	</g>
</g>
<g>
	<g>
		<path d="M408.5,268.5C408.5,268.5,408.5,268.5,408.5,268.5h-46.9c-3.2,0-5.9,2.6-5.9,5.9c0,0,0,0,0,0v140.8
			c0,3.2,2.6,5.9,5.9,5.9c0,0,0,0,0,0h46.9c3.2,0,5.9-2.6,5.9-5.9c0,0,0,0,0,0V274.3C414.4,271.1,411.8,268.5,408.5,268.5z
			 M402.7,409.3h-35.2V280.2h35.2V409.3z"/>
	</g>
</g>
<g>
	<g>
		<path d="M281.2,198.3c0,0-0.1,0-0.1,0L240,186.6l-3.2,11.3l28.7,8.2l-177,116.2L95,332l174.1-114.3l-9.7,31.4
			l11.2,3.4l14.4-46.9C286,202.6,284.3,199.3,281.2,198.3z"/>
	</g>
</g>
<g>
	<g>
		<path d="M400.9,125.5c-0.9-0.9-2-1.4-3.2-1.6l-25.3-3.9L361,95.8c-1.4-2.9-4.9-4.2-7.8-2.8c-1.2,0.6-2.2,1.6-2.8,2.8
			L339.1,120l-25.3,3.9c-2.2,0.3-4,1.9-4.7,3.9c-0.7,2.1-0.2,4.4,1.4,6l18.5,18.9l-4.4,26.8c-0.5,3.2,1.6,6.2,4.8,6.7
			c1.3,0.2,2.6,0,3.8-0.7l22.5-12.5l22.5,12.5c2.8,1.6,6.4,0.5,8-2.3c0.6-1.2,0.9-2.5,0.7-3.8l-4.4-26.8l18.5-18.9
			C403.3,131.5,403.2,127.8,400.9,125.5z M372.1,146.7c-1.3,1.3-1.9,3.2-1.6,5l2.9,17.8l-14.8-8.2c-1.8-1-3.9-1-5.7,0l-14.8,8.2
			l2.9-17.8c0.3-1.8-0.3-3.7-1.6-5l-12.6-12.9l17.1-2.6c1.9-0.3,3.6-1.5,4.4-3.3l7.4-15.7l7.4,15.7c0.8,1.8,2.5,3,4.4,3.3l17.1,2.6
			L372.1,146.7z"/>
	</g>
</g>
<g>
	<g>
		<path d="M367,208.8c-3.7,0.6-7.4,1-11.2,1h-0.1c-3.7,0-7.5-0.3-11.1-1l-2,11.6c4.4,0.6,8.8,1,13.3,1.1
			c4.4,0,8.8-0.4,13.2-1.2L367,208.8z"/>
	</g>
</g>
<g>
	<g>
		<path d="M368.7,70.1l-2,11.6c7.4,1.3,14.5,3.8,21.1,7.6l5.8-10.2C385.9,74.6,377.5,71.6,368.7,70.1z"/>
	</g>
</g>
<g>
	<g>
		<path d="M342.3,70.2c-8.8,1.6-17.2,4.7-24.9,9.1l5.9,10.1c6.5-3.8,13.6-6.4,21-7.7L342.3,70.2z"/>
	</g>
</g>
<g>
	<g>
		<path d="M405.2,186.7c-4.8,5.8-10.6,10.6-17.2,14.4l5.9,10.2c7.7-4.5,14.5-10.2,20.3-17L405.2,186.7z"/>
	</g>
</g>
<g>
	<g>
		<path d="M429.4,145l-9.1,0.2c0,7.5-1.3,15-3.9,22.1l11,4c3.1-8.4,4.6-17.3,4.6-26.3L429.4,145z"/>
	</g>
</g>
<g>
	<g>
		<path d="M414,96l-9,7.6c4.9,5.7,8.7,12.3,11.3,19.3l11-4.1C424.3,110.6,419.7,102.8,414,96z"/>
	</g>
</g>
<g>
	<g>
		<path d="M297.2,96.4c-5.7,6.8-10.2,14.6-13.2,23l11,4c2.6-7.1,6.3-13.6,11.2-19.4L297.2,96.4z"/>
	</g>
</g>
<g>
	<g>
		<path d="M306.4,186.8l-9,7.6c5.7,6.8,12.6,12.6,20.3,17l5.9-10.2C317,197.4,311.2,192.6,306.4,186.8z"/>
	</g>
</g>
<g>
	<g>
		<path d="M291.2,145.4l-11.7,0c0,8.9,1.6,17.7,4.6,26.1l11-4C292.5,160.4,291.2,152.9,291.2,145.4z"/>
	</g>
</g>
</svg>
