<?xml version="1.0" encoding="utf-8"?>
<!-- Generator: Adobe Illustrator 26.0.1, SVG Export Plug-In . SVG Version: 6.00 Build 0)  -->
<svg version="1.1" fill="#8052FD" id="Layer_1" xmlns="http://www.w3.org/2000/svg" xmlns:xlink="http://www.w3.org/1999/xlink" x="0px" y="0px"
	 viewBox="0 0 101 101" style="enable-background:new 0 0 101 101;" xml:space="preserve">

	.

<path d="M16.1,37.7c-0.1,0-0.1,0-0.2,0c-0.6-0.1-1-0.7-0.9-1.3c1.5-8.1,6-14.7,13-19.3c10.8-7,24.8-6.3,33.8-2.5
	c3.3,1.4,7.8,4,10,8.3c0.3,0.5,0.1,1.2-0.5,1.5c-0.5,0.3-1.2,0.1-1.5-0.5c-1.5-2.9-4.7-5.5-8.9-7.3c-8.5-3.6-21.7-4.2-31.8,2.3
	c-6.5,4.2-10.6,10.4-12,17.8C17.1,37.3,16.6,37.7,16.1,37.7z"/>
<path d="M21.8,81.3c-0.1,0-0.2,0-0.3,0c-0.6-0.1-1-0.7-0.8-1.3c0-0.1,1.7-7.4,1.7-11.8c0-6.5-2-10.6-4.1-15
	c-0.9-1.9-1.8-3.8-2.5-5.9c-0.2-0.6,0.1-1.2,0.7-1.4c0.6-0.2,1.2,0.1,1.4,0.7c0.7,2,1.5,3.8,2.5,5.7c2.1,4.4,4.3,8.9,4.3,15.9
	c0,4.7-1.7,12-1.8,12.3C22.7,81,22.3,81.3,21.8,81.3z"/>
<path d="M52.4,48H14.6c-0.6,0-1.1-0.5-1.1-1.1V35.8c0-0.6,0.5-1.1,1.1-1.1h37.7c0.6,0,1.1,0.5,1.1,1.1v11.1
	C53.5,47.5,53,48,52.4,48z M15.7,45.8h35.5v-8.9H15.7V45.8z"/>
<path d="M68.6,84.3c-1.4,0-5.6-1-9.6-2.4c-3.6-1.2-8.2-3-9.5-4.8L44.1,69c-0.3-0.5-0.2-1.2,0.3-1.5s1.2-0.2,1.5,0.3
	l5.4,8c1.7,2.3,15.1,6.3,17.3,6.3c1.4,0,2.6-0.6,3.4-1.6c0.7-1,0.9-2.2,0.4-3.6l-0.1-0.3c-0.4-1.4-0.7-2.3-0.5-3.1
	c0.1-0.4,0.4-0.7,0.8-0.8c1-0.3,2.3-1.6,2.4-2c0-0.6,0.5-1.1,1.1-1.1s1.1,0.5,1.1,1.1c0,1.5-1.7,3-3.1,3.8c0.1,0.4,0.3,0.9,0.4,1.4
	l0.1,0.3c0.6,2,0.4,4-0.8,5.6C72.7,83.3,70.7,84.3,68.6,84.3z"/>
<path d="M53.1,87.2c-0.1,0-0.1,0-0.2,0c-0.6-0.1-1-0.7-0.9-1.3l1.5-7.4c0.1-0.6,0.7-1,1.3-0.9s1,0.7,0.9,1.3l-1.5,7.4
	C54.1,86.9,53.6,87.2,53.1,87.2z"/>
<path d="M65.7,68c-0.6,0-1.1-0.5-1.1-1.1s0.5-1.1,1.1-1.1c3.4,0,8.2-0.7,9.8-1.3c-0.1-0.2-0.2-0.4-0.3-0.5
	c-0.5-0.9-1.2-2-1.4-3.5c-0.1-0.6,0.3-1.2,0.9-1.3s1.2,0.3,1.3,0.9c0.2,1.1,0.8,2.1,1.2,2.9c0.5,1,1.1,1.9,0.5,2.8
	C76.7,67.5,66.8,68,65.7,68z M75.7,64.9L75.7,64.9L75.7,64.9z M76,64.3L76,64.3L76,64.3z"/>
<path d="M81.5,60.6H70.3c-4.9,0-18.8-4.6-19.4-4.8c-0.1,0-0.1,0-0.2-0.1c-3.2-1.7-5-4.6-5.3-8.8c0-0.6,0.4-1.1,1-1.2
	c0.6,0,1.1,0.4,1.2,1c0.3,3.3,1.6,5.6,4.1,6.9c1.2,0.4,14.3,4.6,18.7,4.6h11.2c2.6,0,3.9-1.1,3.9-3.2V27.6c0-2.2-1.3-3.2-3.9-3.2
	H70.3c-4.4,0-17.4,4.3-18.6,4.6c-2.5,1.3-3.8,3.6-4.1,6.9c0,0.6-0.6,1.1-1.2,1c-0.6,0-1.1-0.6-1-1.2c0.3-4.1,2.1-7.1,5.3-8.8
	c0.1,0,0.1-0.1,0.2-0.1c0.6-0.2,14.5-4.8,19.4-4.8h11.2c3.8,0,6.1,2,6.1,5.5v27.6C87.5,58.6,85.3,60.6,81.5,60.6z"/>
<path d="M53.1,51.7c-0.6,0-1.1-0.5-1.1-1.1V32.8c0-0.6,0.5-1.1,1.1-1.1s1.1,0.5,1.1,1.1v17.8
	C54.2,51.2,53.7,51.7,53.1,51.7z"/>
</svg>
