<?xml version="1.0" encoding="utf-8"?>
<!-- Generator: Adobe Illustrator 26.3.1, SVG Export Plug-In . SVG Version: 6.00 Build 0)  -->
<svg version="1.1" id="Layer_1" xmlns="http://www.w3.org/2000/svg" xmlns:xlink="http://www.w3.org/1999/xlink" x="0px" y="0px"
	 viewBox="0 0 512 512" style="enable-background:new 0 0 512 512;" xml:space="preserve">
<style type="text/css">
	.st0{fill:#8052FD;}
</style>
<g transform="translate(0)">
	<path class="st0" d="M219.6,453.7l-4.2-0.9c-14.6-3-28.8-7.7-42.4-13.8l-3.9-1.8l-3-39.6l-17.2-12.5l-38.6,9.4l-2.9-3.1
		c-10.1-11-18.9-23.1-26.2-36.1l-2.1-3.7l20.8-33.8l-6.6-20.3l-36.7-15.1l-0.5-4.2c-1.7-14.8-1.7-29.8,0-44.6l0.5-4.2l36.7-15.1
		l6.6-20.3l-20.8-33.8l2.1-3.7c7.4-13,16.2-25.1,26.2-36.1l2.9-3.1l38.6,9.4l17.2-12.5l3-39.6l3.9-1.8c13.6-6.2,27.8-10.8,42.4-13.8
		l4.2-0.9l25.7,30.3h21.3l25.7-30.3l4.2,0.9c14.6,3,28.9,7.7,42.5,13.8l3.9,1.8l3,39.6l17.2,12.5l38.6-9.4l2.9,3.1
		c10.1,11,18.9,23.2,26.3,36.1l2.1,3.7L412,194.1l6.6,20.3l36.7,15.1l0.5,4.2c1.7,14.8,1.7,29.8,0,44.6l-0.5,4.2l-36.7,15.1
		l-6.6,20.3l20.8,33.8l-2.1,3.7c-7.4,13-16.2,25.1-26.3,36.1l-2.9,3.1l-38.6-9.4l-17.2,12.5l-3,39.6L339,439
		c-13.6,6.2-27.8,10.8-42.5,13.9l-4.2,0.9l-25.7-30.3h-21.3L219.6,453.7z M238.7,409.2h34.6l24.5,28.8c10.8-2.5,21.3-5.9,31.4-10.3
		l2.9-37.7l27.9-20.3l36.7,8.9c7.3-8.3,13.8-17.3,19.4-26.8l-19.8-32.1l10.7-32.9l34.9-14.3c0.5-5.6,0.8-11.2,0.8-16.6
		s-0.3-10.9-0.8-16.6L407,225l-10.7-32.9l19.8-32.1c-5.7-9.5-12.2-18.5-19.5-26.8l-36.7,8.9L332,121.8l-2.9-37.7
		c-10.2-4.3-20.7-7.8-31.4-10.3l-24.5,28.8h-34.6l-24.5-28.8c-10.8,2.5-21.3,5.9-31.4,10.3l-2.9,37.7l-28,20.3l-36.7-8.9
		c-7.3,8.3-13.8,17.3-19.4,26.8l19.8,32.1L104.9,225L70,239.4c-0.5,5.6-0.7,11.2-0.7,16.6c0,5.4,0.3,10.9,0.8,16.6l34.9,14.3
		l10.7,32.9l-19.8,32.1c5.7,9.5,12.2,18.4,19.4,26.8l36.7-8.9l27.9,20.3l2.9,37.7c10.2,4.3,20.7,7.8,31.4,10.3L238.7,409.2z"/>
	<g transform="translate(28.618 40.889)">
		<path class="st0" d="M227.4,319.6v-14.3c4,0,8-0.3,11.9-0.8l1.9,14.2C236.6,319.3,232,319.6,227.4,319.6z"/>
	</g>
	<g transform="translate(33.055 39.422)">
		<path class="st0" d="M259,314.7l-4.9-13.4c4.2-1.6,8.3-3.4,12.2-5.6l6.9,12.5C268.7,310.7,263.9,312.9,259,314.7z"/>
	</g>
	<g transform="translate(37.084 36.432)">
		<path class="st0" d="M287.8,298.1l-9.4-10.8c3.4-3,6.6-6.2,9.5-9.7l10.9,9.2C295.4,290.9,291.7,294.7,287.8,298.1z"/>
	</g>
	<g transform="translate(40.003 32.362)">
		<path class="st0" d="M308.6,272l-12.6-6.7c2-3.9,3.8-8,5.3-12.2l13.5,4.7C313.1,262.7,311,267.5,308.6,272z"/>
	</g>
	<g transform="translate(41.384 27.665)">
		<path class="st0" d="M318.4,240.2l-14.2-1.6c0.4-3.4,0.6-6.8,0.6-10.3c0-1,0-2,0-3l14.3-0.5c0,1.1,0.1,2.3,0.1,3.5
			C319.1,232.3,318.9,236.3,318.4,240.2z"/>
	</g>
	<g transform="translate(40.456 22.368)">
		<path class="st0" d="M302.9,211.1c-1.1-4.3-2.5-8.5-4.2-12.5l13.2-5.6c2,4.7,3.6,9.6,4.9,14.5L302.9,211.1z"/>
	</g>
	<g transform="translate(34.899 14.941)">
		<path class="st0" d="M305.3,188.4h-40.1V174H291v-25.8h14.3L305.3,188.4z"/>
	</g>
	<g transform="translate(13.738 13.28)">
		<path class="st0" d="M242.2,347.2c-57.7,0-104.5-46.8-104.5-104.5c0-57.7,46.8-104.5,104.5-104.5c14,0,27.8,2.8,40.7,8.2
			c15.4,6.6,29.1,16.7,39.9,29.6l1.8,2l-10.5,9.7l-1.9-2.1c-9.4-11.3-21.3-20.3-34.8-26c-45.9-19.4-98.8,2-118.2,47.9
			c-19.4,45.9,2,98.8,47.9,118.2c11.1,4.7,23.1,7.1,35.2,7.1V347.2L242.2,347.2z"/>
	</g>
	<g transform="translate(19.449 18.99)">
		<path class="st0" d="M236.5,301.4c-35.6,0-64.4-28.8-64.4-64.4s28.8-64.4,64.4-64.4v14.3c-27.7,0-50.1,22.4-50.1,50.1
			s22.4,50.1,50.1,50.1s50.1-22.4,50.1-50.1l0,0h14.3C300.9,272.6,272.1,301.4,236.5,301.4z"/>
	</g>
</g>
</svg>
