<?xml version="1.0" encoding="utf-8"?>
<!-- Generator: Adobe Illustrator 26.3.1, SVG Export Plug-In . SVG Version: 6.00 Build 0)  -->
<svg version="1.1" id="Layer_1" xmlns="http://www.w3.org/2000/svg" xmlns:xlink="http://www.w3.org/1999/xlink" x="0px" y="0px"
	 viewBox="0 0 512 512" style="enable-background:new 0 0 512 512;" xml:space="preserve">
<style type="text/css">
	.st0{fill:#8052FD;}
</style>
<g id="Layer_2_1_">
	<g id="XMLID_1219_">
		<path class="st0" d="M217.9,453.5c-2.2,0-4.2-1.4-5.1-3.6c-1.3-3.9-2.7-6.4-4.2-9.1c-3.5-6.4-6.8-12.4-7-32.6
			c-0.2-21.2,2.7-41.8,9-62.9c-35.4-5.1-58.1-17.9-69.2-39.5c-9.3-17.6-8.9-38.1-8.2-43.1c0.8-10.1,3.6-20.1,8.3-29.8
			c-4.6-9.3-8.6-19.4-11.9-30.2c-3.8-12.5-6.3-25.5-7.6-39.9c-0.2-1.8,0.6-3.5,2-4.6c1.4-1.1,3.3-1.5,5-0.9
			c10.3,3.4,20.7,8.3,31.2,14.6c0,0,0.1,0,0.1,0.1c9,5.6,17.4,12,24.9,18.8c15-7.9,37.8-16.9,65.9-18.3c26.9-1.6,53.5,3.8,79.1,15.9
			c6.1-5.5,13.5-11,22.1-16.4c12.2-7.7,23.6-12,31.2-14.6c1.7-0.6,3.6-0.2,5,0.8c1.4,1.1,2.2,2.9,2,4.6c-1.3,14.3-3.8,27.3-7.6,39.8
			c-2.7,9.5-6.1,17.7-9.5,25.2c7.4,17.9,7.5,36.3,7.5,36.5v0.5c0,18.3-3.2,33.5-9.6,45c-14.3,25.8-43.6,32.9-69.5,35.5
			c5.8,21.1,8.5,43.1,8,65.6c-0.5,18-3.1,23.2-6.1,29.1c-1.3,2.6-2.7,5.2-4,9.5c-0.9,2.8-3.8,4.3-6.6,3.5c-2.8-0.9-4.3-3.8-3.5-6.6
			c1.6-5.1,3.3-8.4,4.7-11.3c2.7-5.2,4.6-9,5-24.5c0.5-23.5-2.7-46.5-9.4-68.5c-0.5-1.5-0.2-3.2,0.7-4.6c0.9-1.3,2.4-2.2,4-2.3
			c24.6-1.9,54.6-7.1,67.5-30.6c5.5-9.9,8.3-23.3,8.3-39.9v-0.5c0-4.9-1.4-20.6-7.5-34.3c-0.7-1.4-0.7-3,0-4.4
			c3.5-7.7,7.3-16.1,9.9-25.9v-0.1c2.9-9.3,4.9-18.9,6.2-29.3c-6.3,2.5-13.5,5.9-21.1,10.6c-9.3,5.9-17,11.8-23.2,17.6
			c-1.6,1.5-4,1.9-6,0.9c-25-12.5-50.9-18-77.1-16.4c-28.3,1.5-50.8,11.1-64.7,18.8c-2,1.1-4.6,0.8-6.3-0.8
			c-7.7-7.3-16.5-14.2-26-20.1c-7.1-4.2-14.2-7.8-21.1-10.7c1.4,10.4,3.4,20,6.2,29.3c3.4,11.1,7.6,21.4,12.5,30.8
			c0.8,1.5,0.8,3.3,0,4.9c-4.8,9.2-7.7,18.8-8.4,28.4c0,0.1,0,0.2,0,0.3c0,0.2-1.9,19.8,7.1,36.9c10.1,19.4,32.1,30.7,67.4,34.7
			c1.5,0.2,3,1.1,3.8,2.4c0.9,1.3,1.1,3,0.6,4.5c-7.2,22-10.5,43.5-10.3,65.6c0.2,17.5,2.6,22,5.7,27.6c1.5,2.8,3.3,6,4.9,10.8
			c1,2.8-0.6,5.8-3.3,6.7C219.1,453.4,218.4,453.5,217.9,453.5z"/>
		<path class="st0" d="M256,458c-54,0-104.7-21-142.9-59.1S54,310,54,256s21-104.7,59.1-142.9C151.3,75,202,54,256,54
			s104.7,21,142.9,59.1C437,151.3,458,202,458,256s-21,104.7-59.1,142.9S310,458,256,458z M256,64.6c-51.1,0-99.2,19.9-135.4,56
			c-36.1,36.1-56,84.2-56,135.4s19.9,99.2,56,135.4s84.2,56,135.4,56s99.2-19.9,135.4-56s56-84.2,56-135.4s-19.9-99.2-56-135.4
			C355.2,84.5,307.1,64.6,256,64.6z"/>
	</g>
</g>
</svg>
