<?xml version="1.0" encoding="utf-8"?>
<!-- Generator: Adobe Illustrator 25.0.1, SVG Export Plug-In . SVG Version: 6.00 Build 0)  -->
<svg version="1.1" fill="#8052FD" id="Layer_1" xmlns="http://www.w3.org/2000/svg" xmlns:xlink="http://www.w3.org/1999/xlink" x="0px" y="0px"
	 viewBox="0 0 512 512" style="enable-background:new 0 0 512 512;" xml:space="preserve">

	
	


<g id="Page-1">
	<g id="Google" transform="translate(1.000000, 1.000000)">
		<path d="M256.7,413.2c-46.8,0-91-20.1-121.5-55.2c-9-10.4-16.7-21.9-22.7-34.2l-1.7-3.5l60.9-46.5l2.1,6.4
			c5.7,17.3,16.6,32.2,31.4,43c6.2,4.5,12.9,8.1,20.1,10.9c10.1,3.9,20.7,5.9,31.5,5.9c18.8,0,35.8-4.5,49.2-12.9
			c14-8.8,23.7-21.8,28.3-37.7H252v-69.8h153.8l0.9,3.7c2.4,10.4,3.7,20.6,3.7,29.4c0,26.2-4.9,50.4-14.5,72.1
			c-8.2,18.6-19.8,34.9-34.3,48.3c-17.2,16-38.6,27.9-61.8,34.3C285.8,411.2,271.3,413.2,256.7,413.2z M122.8,323
			c5.3,10.3,11.9,19.8,19.6,28.6c28.7,33.1,70.3,51.9,114.3,51.9c13.8,0,27.3-1.8,40.4-5.5c21.7-6,41.7-17.1,57.9-32
			c13.6-12.5,24.3-27.7,32-45.2c9.1-20.4,13.6-43.4,13.6-68.1c0-7-0.9-15.1-2.6-23.5H261.5v50.6h84.7l-1.2,5.7
			c-4.3,21.1-16.1,38.3-34,49.6c-14.9,9.4-33.7,14.3-54.3,14.3c-12,0-23.7-2.2-34.9-6.5c-7.8-3.1-15.4-7.1-22.2-12.1
			c-14.6-10.7-25.8-25-32.6-41.5L122.8,323z"/>
		<path d="M115,329l-2.6-5.2C102.2,303,96.7,280.6,96,257.1c0-0.5,0-0.9-0.1-1.4c0-1-0.1-2-0.1-3s0-2,0.1-3
			c0-0.5,0-0.9,0-1.4c0.6-23.6,6.2-46,16.4-66.7c6-12.2,13.7-23.7,22.7-34.2c30.5-35.1,74.7-55.2,121.5-55.2
			c39.2,0,75.7,13.9,105.9,40.1l3.8,3.4l-52.1,52l-3.4-2.7c-15.6-12.7-34.4-19.4-54.4-19.4c-18.7,0-36.5,5.8-51.5,16.7
			c-14.9,10.8-25.8,25.8-31.4,43.1c-2.4,7.4-3.8,15.4-4.2,23.3c0,0.5-0.1,0.9-0.1,1.4c-0.1,0.9-0.1,1.8-0.1,2.7
			c0,0.8,0.1,1.6,0.1,2.6c0,0.5,0.1,0.9,0.1,1.4c0.4,8.1,1.8,15.9,4.2,23.3l1.1,3.2L115,329z M256.7,101.8
			c-43.9,0-85.6,18.9-114.2,51.9c-8.5,9.8-15.7,20.7-21.4,32.1c-9.6,19.5-14.8,40.6-15.4,62.7c0,0.5,0,0.9-0.1,1.4
			c0,0.9-0.1,1.8-0.1,2.7c0,0.9,0,1.8,0.1,2.7c0,0.5,0,1,0.1,1.5c0.5,20.1,4.9,39.3,12.8,57.3l45-34.5c-2.1-7.2-3.3-14.7-3.7-22.5
			c0-0.4-0.1-0.9-0.1-1.3c-0.1-1-0.2-2.1-0.2-3.2c0-1.2,0.1-2.2,0.2-3.3c0-0.4,0.1-0.9,0.1-1.3c0.4-8.9,2-17.6,4.7-25.9
			c6.3-19.3,18.4-35.8,34.9-47.9c16.6-12.1,36.4-18.6,57.1-18.6c20.8,0,40.4,6.5,57,19l38.7-38.6
			C324.8,113.7,291.8,101.8,256.7,101.8z"/>
		<path d="M171.6,231.7l-60.9-46.5l1.7-3.5c6-12.2,13.7-23.7,22.7-34.2c30.5-35.1,74.7-55.2,121.5-55.2
			c39.2,0,75.7,13.9,105.9,40.1l-6.3,7.2c-28.4-24.7-62.8-37.8-99.6-37.8c-43.9,0-85.6,18.9-114.2,51.9
			c-7.7,8.9-14.3,18.4-19.6,28.7L167,216c6.7-16.6,17.9-30.9,32.6-41.6l5.6,7.8c-14.9,10.9-25.8,25.8-31.4,43.1L171.6,231.7z"/>
		<path d="M135.1,358c-9-10.4-16.7-21.9-22.7-34.2l-1.7-3.5l60.9-46.5l2.1,6.4c5.7,17.3,16.6,32.1,31.4,43
			c6.2,4.5,12.9,8.2,20.1,10.9l-3.4,8.9c-7.8-3.1-15.4-7.1-22.2-12.1c-14.7-10.7-25.8-25-32.6-41.5L122.8,323
			c5.3,10.3,11.9,19.8,19.6,28.6L135.1,358z"/>
		<path d="M256.7,413.2v-9.6c13.8,0,27.3-1.8,40.4-5.5c19.9-5.5,38.3-15.3,53.7-28.3l-42.7-33
			c-14.4,8.3-32.1,12.6-51.4,12.6v-9.6c18.8,0,35.8-4.5,49.2-12.9l2.8-1.8l56.9,44l-4.2,3.8c-17.2,16-38.6,27.9-61.8,34.3
			C285.8,411.2,271.4,413.2,256.7,413.2z"/>
	</g>
</g>
</svg>
