<?xml version="1.0" encoding="utf-8"?>
<!-- Generator: Adobe Illustrator 25.0.1, SVG Export Plug-In . SVG Version: 6.00 Build 0)  -->
<svg version="1.1" fill="#8052FD" id="Layer_1" xmlns="http://www.w3.org/2000/svg" xmlns:xlink="http://www.w3.org/1999/xlink" x="0px" y="0px"
	 viewBox="0 0 118 118" style="enable-background:new 0 0 118 118;" xml:space="preserve">

	
	


<g>
	<g transform="translate(2.25 2)">
		<g>
			<path d="M99.3,34.7c-0.1,0-0.3,0-0.4-0.1L57.7,16.8L16.6,34.7c-0.5,0.2-1.2,0-1.4-0.6c-0.2-0.5,0-1.2,0.6-1.4
				l41.6-18.1c0.3-0.1,0.6-0.1,0.9,0l41.6,18.1c0.5,0.2,0.8,0.9,0.6,1.4C100.1,34.5,99.7,34.7,99.3,34.7z"/>
		</g>
		<g>
			<path d="M97.5,42H18c-0.6,0-1.1-0.5-1.1-1.1c0-0.6,0.5-1.1,1.1-1.1h79.5c0.6,0,1.1,0.5,1.1,1.1
				C98.6,41.5,98.1,42,97.5,42z"/>
		</g>
		<g>
			<path d="M19.8,83.6c-0.6,0-1.1-0.5-1.1-1.1V48.1c0-0.6,0.5-1.1,1.1-1.1h10.8c0.6,0,1.1,0.5,1.1,1.1v27.1
				c0,0.6-0.5,1.1-1.1,1.1c-0.6,0-1.1-0.5-1.1-1.1V49.2h-8.7v33.3C20.9,83.1,20.4,83.6,19.8,83.6z"/>
		</g>
	</g>
	<g>
		<path d="M90.4,83.8H29.2c-0.6,0-1.1-0.5-1.1-1.1s0.5-1.1,1.1-1.1h61.2c0.6,0,1.1,0.5,1.1,1.1S91,83.8,90.4,83.8z"/>
	</g>
	<g transform="translate(4.25 15)">
		<g>
			<path d="M95.1,76H15.6c-0.6,0-1.1-0.5-1.1-1.1s0.5-1.1,1.1-1.1h79.5c0.6,0,1.1,0.5,1.1,1.1S95.7,76,95.1,76z"/>
		</g>
		<g>
			<path d="M55.4,23.8c-3.6,0-6.5-2.9-6.5-6.5s2.9-6.5,6.5-6.5s6.5,2.9,6.5,6.5S59,23.8,55.4,23.8z M55.4,13
				C53,13,51,15,51,17.3s1.9,4.3,4.3,4.3s4.3-1.9,4.3-4.3S57.8,13,55.4,13z"/>
		</g>
		<g>
			<path d="M22.9,45.4h-4.3c-0.6,0-1.1-0.5-1.1-1.1c0-0.6,0.5-1.1,1.1-1.1h4.3c0.6,0,1.1,0.5,1.1,1.1
				C23.9,44.9,23.5,45.4,22.9,45.4z"/>
		</g>
		<g>
			<path d="M22.9,54.4h-4.3c-0.6,0-1.1-0.5-1.1-1.1c0-0.6,0.5-1.1,1.1-1.1h4.3c0.6,0,1.1,0.5,1.1,1.1
				C23.9,53.9,23.5,54.4,22.9,54.4z"/>
		</g>
		<g>
			<path d="M22.9,63.4h-4.3c-0.6,0-1.1-0.5-1.1-1.1c0-0.6,0.5-1.1,1.1-1.1h4.3c0.6,0,1.1,0.5,1.1,1.1
				C23.9,62.9,23.5,63.4,22.9,63.4z"/>
		</g>
		<g>
			<path d="M93.3,70.6c-0.6,0-1.1-0.5-1.1-1.1V36.4h-8.7v25.9c0,0.6-0.5,1.1-1.1,1.1c-0.6,0-1.1-0.5-1.1-1.1v-27
				c0-0.6,0.5-1.1,1.1-1.1h10.8c0.6,0,1.1,0.5,1.1,1.1v34.2C94.4,70.1,93.9,70.6,93.3,70.6z"/>
		</g>
		<g>
			<path d="M93.3,45.4h-5.4c-0.6,0-1.1-0.5-1.1-1.1c0-0.6,0.5-1.1,1.1-1.1h5.4c0.6,0,1.1,0.5,1.1,1.1
				C94.4,44.9,93.9,45.4,93.3,45.4z"/>
		</g>
		<g>
			<path d="M93.3,54.4h-5.4c-0.6,0-1.1-0.5-1.1-1.1c0-0.6,0.5-1.1,1.1-1.1h5.4c0.6,0,1.1,0.5,1.1,1.1
				C94.4,53.9,93.9,54.4,93.3,54.4z"/>
		</g>
		<g>
			<path d="M93.3,63.4h-5.4c-0.6,0-1.1-0.5-1.1-1.1c0-0.6,0.5-1.1,1.1-1.1h5.4c0.6,0,1.1,0.5,1.1,1.1
				C94.4,62.9,93.9,63.4,93.3,63.4z"/>
		</g>
		<g>
			<path d="M42.7,63.4c-0.6,0-1.1-0.5-1.1-1.1V38.9c0-1.4-1.1-2.5-2.5-2.5c-1.4,0-2.5,1.1-2.5,2.5v23.4
				c0,0.6-0.5,1.1-1.1,1.1c-0.6,0-1.1-0.5-1.1-1.1V38.9c0-2.6,2.1-4.7,4.7-4.7c2.6,0,4.7,2.1,4.7,4.7v23.4
				C43.8,62.9,43.3,63.4,42.7,63.4z"/>
		</g>
		<g>
			<path d="M59,63.4c-0.6,0-1.1-0.5-1.1-1.1V38.9c0-1.4-1.1-2.5-2.5-2.5c-1.4,0-2.5,1.1-2.5,2.5v23.4
				c0,0.6-0.5,1.1-1.1,1.1s-1.1-0.5-1.1-1.1V38.9c0-2.6,2.1-4.7,4.7-4.7s4.7,2.1,4.7,4.7v23.4C60.1,62.9,59.6,63.4,59,63.4z"/>
		</g>
		<g>
			<path d="M75.3,63.4c-0.6,0-1.1-0.5-1.1-1.1V38.9c0-1.4-1.1-2.5-2.5-2.5c-1.4,0-2.5,1.1-2.5,2.5v23.4
				c0,0.6-0.5,1.1-1.1,1.1S67,62.9,67,62.3V38.9c0-2.6,2.1-4.7,4.7-4.7c2.6,0,4.7,2.1,4.7,4.7v23.4C76.3,62.9,75.9,63.4,75.3,63.4z"
				/>
		</g>
	</g>
</g>
</svg>
