<?xml version="1.0" encoding="utf-8"?>
<!-- Generator: Adobe Illustrator 25.0.1, SVG Export Plug-In . SVG Version: 6.00 Build 0)  -->
<svg version="1.1" fill="#8052FD" id="Layer_1" xmlns="http://www.w3.org/2000/svg" xmlns:xlink="http://www.w3.org/1999/xlink" x="0px" y="0px"
	 viewBox="0 0 511 511" style="enable-background:new 0 0 511 511;" xml:space="preserve">

	
	


<g>
	<path d="M422.3,304.4c1.6-2.1,3-3.9,3.3-6.3l0.2-1.2l-0.2-1.2c-0.4-2.4-1.6-4.3-3.3-6.3c-0.6-0.8-1.3-1.7-1.5-2.2
		c-0.2-0.5-0.2-1.8-0.1-2.8c0.1-2.3,0.1-4.1-0.6-6l-0.8-2.1l-1.7-1.4c-1.6-1.3-3.4-2-5.7-2.6c-1-0.3-2.2-0.6-2.7-0.9
		s-1.2-1.3-1.7-2.2c-1.3-2-2.5-3.5-4.3-4.7l-1.7-1.1l-2-0.2h-0.3h-0.3c-1.9,0-3.5,0.5-5.5,1.2c-1.1,0.4-2.2,0.8-2.8,0.8
		s-1.8-0.4-2.8-0.8c-2-0.7-3.7-1.2-5.5-1.2H382h-0.3l-2,0.2l-1.7,1.1c-1.8,1.1-3,2.7-4.3,4.7c-0.5,0.9-1.2,1.9-1.7,2.2
		c-0.5,0.3-1.6,0.7-2.7,0.9c-2.3,0.6-4.1,1.2-5.7,2.6l-1.7,1.4l-0.8,2.1c-0.7,1.9-0.7,3.7-0.6,6c0,1.1,0.1,2.3-0.1,2.9
		c-0.2,0.5-0.9,1.5-1.5,2.2c-1.4,1.8-3,3.8-3.4,6.6l-0.2,1l0.2,1c0.3,2.7,1.9,4.7,3.4,6.6c0.6,0.8,1.3,1.7,1.5,2.2
		c0.2,0.5,0.2,1.8,0.1,2.8c-0.1,2.3-0.1,4.1,0.6,6l0.8,2.1l1.7,1.4c1.2,0.9,2.4,1.6,3.9,2v67.1l23-28.2l23,28.2v-67.1
		c1.5-0.5,2.7-1.1,3.9-2l1.7-1.4l0.8-2.1c0.7-1.9,0.7-3.7,0.6-6c0-1.1-0.1-2.3,0.1-2.9C420.9,306.1,421.6,305.1,422.3,304.4z
		 M390.5,346.6l-14.7,17.9v-36.9c0.5,0.6,1.2,1.2,2,1.6l2,1.2h2.4c1.9,0,3.5-0.5,5.5-1.2c1.1-0.4,2.2-0.8,2.8-0.8
		c0.6,0,1.7,0.4,2.8,0.8c2.1,0.8,3.7,1.2,5.3,1.2l2.5,0.1l2.1-1.3c0.7-0.5,1.3-1,2-1.6v36.8L390.5,346.6z M415.6,299.1
		c-1.1,1.3-2.3,2.9-2.9,4.8c-0.6,2-0.5,4-0.5,5.7c0,0.9,0.1,2.3-0.1,2.8c-0.4,0.3-1.8,0.7-2.7,1c-1.6,0.5-3.6,1-5.2,2.3
		c-1.6,1.2-2.7,2.8-3.7,4.3c-0.5,0.8-1.3,2-1.8,2.3c-0.5,0-1.8-0.5-2.7-0.8c-1.6-0.6-3.6-1.2-5.7-1.2c-2.1,0-4,0.7-5.7,1.2
		c-0.8,0.3-2.1,0.8-2.7,0.8l0,0c-0.5-0.3-1.2-1.5-1.8-2.3c-0.9-1.4-2-3-3.7-4.3c-1.6-1.2-3.6-1.7-5.2-2.3c-0.9-0.2-2.3-0.6-2.7-1
		c-0.2-0.5-0.2-2-0.1-2.8c0.1-1.7,0.2-3.7-0.5-5.7c-0.6-1.9-1.8-3.4-2.9-4.8c-0.5-0.8-1.6-2-1.6-2.4c0.1-0.5,1-1.7,1.6-2.5
		c1.1-1.3,2.3-2.9,2.9-4.8c0.6-2,0.5-4,0.5-5.7c0-0.9-0.1-2.3,0.1-2.8c0.4-0.3,1.8-0.7,2.7-1c1.6-0.5,3.6-1,5.2-2.3
		c1.6-1.2,2.7-2.8,3.7-4.3c0.5-0.8,1.3-2,1.8-2.3l0,0c0.5,0,1.8,0.5,2.7,0.8c1.6,0.6,3.6,1.2,5.7,1.2c2.1,0,4-0.7,5.7-1.2
		c0.8-0.3,2.1-0.8,2.7-0.8l0,0c0.5,0.2,1.2,1.5,1.8,2.3c0.9,1.4,2,3,3.7,4.3c1.6,1.2,3.6,1.7,5.2,2.3c0.9,0.2,2.3,0.6,2.7,1
		c0.2,0.5,0.2,2,0.1,2.8c-0.1,1.7-0.2,3.7,0.5,5.7c0.6,1.9,1.8,3.4,2.9,4.8c0.5,0.7,1.6,2,1.6,2.4
		C417.2,297.2,416.3,298.4,415.6,299.1z"/>
	<path d="M404.6,94.3H273.4v135.3h8.3v-127h116.9v39.6h39.6v192.9h-16.5v8.3h25V136.4L404.6,94.3z M407.1,133.9v-25.4
		l25.4,25.4H407.1z"/>
	<path d="M313.3,335.3h45.8v8.3h-45.8V335.3z"/>
	<path d="M302.3,115.5h38v8.3h-38V115.5z"/>
	<path d="M302.2,241.2h123.7v8.3H302.2V241.2z"/>
	<path d="M302.2,257.9h53.1v8.3h-53.1V257.9z"/>
	<path d="M303.3,280h8.3v8.3h-8.3V280z"/>
	<path d="M320,280h8.3v8.3H320V280z"/>
	<path d="M302.3,133.9h76.1v8.3h-76.1V133.9z"/>
	<path d="M318.8,216v-5.3c4.7-1.7,7.8-6.3,7.6-11.5c-0.2-8.3-8.1-10.5-10.7-11.3c-4.4-1.3-4.5-2.1-4.6-3
		c-0.2-2,1-3.7,2.7-4c0.1,0,0.2,0,0.3-0.1c1.1-0.2,1.9,0.4,2.2,0.7c0.7,0.6,1.1,1.5,1.1,2.4v0.2h8.3v-0.2c0-3.4-1.4-6.6-3.9-8.7
		c-0.9-0.9-2-1.5-3.1-2v-5.5h-8.3v5.3c-4.9,1.9-8.1,6.9-7.6,12.4c0.5,6.6,5.7,8.9,10.6,10.4c4.6,1.3,4.6,2.6,4.7,3.5
		c0.1,1.6-0.9,3-2.3,3.4c-0.2,0.1-0.5,0.2-0.7,0.2c-1.1,0.2-1.9-0.4-2.3-0.7c-0.7-0.6-1.1-1.5-1.1-2.4h-8.3c0,3.4,1.4,6.6,4,8.7
		c0.9,0.9,2,1.5,3.1,2v5.5H318.8z"/>
	<path d="M364.3,216v-5.3c4.7-1.7,7.8-6.3,7.6-11.5c-0.2-8.3-8.1-10.5-10.7-11.3c-4.4-1.3-4.5-2.1-4.6-3
		c-0.2-2,1-3.7,2.7-4c0.1,0,0.2,0,0.3-0.1c1.1-0.2,1.9,0.4,2.3,0.7c0.7,0.6,1.1,1.5,1.1,2.4v0.2h8.3V184c0-3.4-1.4-6.6-3.9-8.7
		c-0.9-0.9-2-1.5-3.1-2v-5.5H356v5.3c-4.9,1.9-8.1,6.9-7.6,12.4c0.5,6.6,5.7,8.9,10.6,10.4c4.6,1.3,4.6,2.6,4.7,3.5
		c0.1,1.6-0.9,3-2.3,3.4c-0.2,0.1-0.5,0.2-0.7,0.2c-1.1,0.2-1.9-0.4-2.3-0.7c-0.7-0.6-1.1-1.5-1.1-2.4H349c0,3.4,1.4,6.6,4,8.7
		c0.9,0.9,2,1.5,3.1,2v5.5h8.2V216z"/>
	<path d="M401.4,167.9v5.3c-4.9,1.9-8.1,6.9-7.6,12.4c0.5,6.6,5.7,8.9,10.6,10.4c4.6,1.3,4.6,2.6,4.7,3.5
		c0.1,1.6-0.9,3-2.3,3.4c-0.2,0.1-0.5,0.2-0.7,0.2c-1.1,0.2-1.9-0.4-2.3-0.7c-0.7-0.6-1.1-1.5-1.1-2.4h-8.3c0,3.4,1.4,6.6,4,8.7
		c0.9,0.9,2,1.5,3.1,2v5.5h8.3v-5.3c4.7-1.7,7.8-6.3,7.6-11.5c-0.2-8.3-8.1-10.5-10.7-11.3c-4.4-1.3-4.5-2.1-4.6-3
		c-0.2-2,1-3.7,2.7-4c0.1,0,0.2,0,0.3-0.1c1.1-0.2,1.9,0.4,2.2,0.7c0.7,0.6,1.1,1.5,1.1,2.4v0.2h8.3V184c0-3.4-1.4-6.6-3.9-8.7
		c-0.9-0.9-2-1.5-3.1-2v-5.5C409.8,167.9,401.4,167.9,401.4,167.9z"/>
	<path d="M184.8,107.5h-24.3v33.6c-23,9.9-39.5,32.2-41.1,58.4h-0.2V238H88.7v25h7.8v41.9h-7.8v16.7H72.6v72H47.2v8.3
		h77.5l0,0h31.4l0,0h16.7l0,0h31.4l0,0H221l0,0h31.4l0,0h48.1l0,0h4.6l0,0h25.4v-8.3h-25.4v-72h-4.6l0,0h-11.5v-16.7h-7.3V263h7.3
		v-25h-30.5v-38.4h-0.2c-1.6-26.2-18.1-48.5-41.1-58.4v-33.6h-24.2H184.8z M168.9,115.8h40.2v22.2c-5.9-1.6-12.2-2.6-18.6-2.6h-3
		c-6.5,0-12.7,0.9-18.6,2.6L168.9,115.8L168.9,115.8z M160.5,150.3c4.4-2.3,9.1-4,14.1-5.1c4.1-0.9,8.4-1.4,12.9-1.4h3
		c4.4,0,8.7,0.5,12.9,1.4c5,1.1,9.7,2.8,14.1,5.1c18.3,9.3,31.2,27.7,32.7,49.2H127.8C129.2,178,142.2,159.6,160.5,150.3z
		 M127.6,207.9h122.6v30h-8.3v-22.2h-8.3V238h-16v-22.2h-8.3V238h-16.1v-22.2h-8.3V238h-16v-22.2h-8.4V238h-16v-22.2H136V238h-8.4
		V207.9L127.6,207.9z M97.1,246.4h183.7v8.3H97.1V246.4z M273.4,263.1V305h-8.3v-41.9H273.4z M256.7,263.1V305h-15v-41.9H256.7z
		 M233.3,263.1V305h-8.3v-41.9H233.3z M216.6,263.1V305h-15v-41.9H216.6z M193.3,263.1V305H185v-41.9H193.3z M176.6,263.1V305h-15
		v-41.9H176.6z M153.3,263.1V305h-8.3v-41.9H153.3z M136.6,263.1V305h-15v-41.9H136.6z M113.2,263.1V305h-8.3v-41.9H113.2z
		 M103.9,393.7H80.9V330h22.9V393.7z M120.6,393.7h-8.3V330h8.3V393.7z M152,393.7h-23.1V330H152V393.7z M168.7,393.7h-8.3V330h8.3
		V393.7z M200.2,393.7h-23.1V330h23.1V393.7z M216.9,393.7h-8.3V330h8.3V393.7z M248.3,393.7h-23.1V330h23.1V393.7z M265,393.7h-8.3
		V330h8.3V393.7z M269.2,321.7H97.1v-8.3h183.7v8.3H269.2z M296.5,393.7h-23V330h23V393.7z"/>
</g>
</svg>
