<?xml version="1.0" encoding="utf-8"?>
<!-- Generator: Adobe Illustrator 25.0.1, SVG Export Plug-In . SVG Version: 6.00 Build 0)  -->
<svg version="1.1" fill="#8052FD" id="Layer_1" xmlns="http://www.w3.org/2000/svg" xmlns:xlink="http://www.w3.org/1999/xlink" x="0px" y="0px"
	 viewBox="0 0 512 512" style="enable-background:new 0 0 512 512;" xml:space="preserve">

	
	


<path d="M271.2,421H402V269.9H271.2v78.8h-26.7v-78.8h-40.7v-26.7h40.7v-78.8h26.7v78.8H402V92H271.2v59.7h-39.3v78.8
	h-28v-59.1H73v150.5h130.8v-39.3h28v78.8h39.3L271.2,421L271.2,421z M389.4,408.3H283.9v-86.4h105.4L389.4,408.3L389.4,408.3z
	 M389.4,309.2H283.9v-26.7h105.4L389.4,309.2L389.4,309.2z M191.2,309.2H85.7v-85.7h105.4L191.2,309.2L191.2,309.2z M389.4,230.4
	H283.9v-85.7h105.4L389.4,230.4L389.4,230.4z M191.2,210.8H85.7v-26.7h105.4L191.2,210.8L191.2,210.8z M389.4,132H283.9v-27.4h105.4
	L389.4,132L389.4,132z M310.6,184.1h52.1v-12.7h-52.1V184.1z M310.6,361.3h52.1v-12.7h-52.1V361.3z M112.4,262.8h52.1v-12.7h-52.1
	V262.8z"/>
</svg>
