<?xml version="1.0" encoding="utf-8"?>
<!-- Generator: Adobe Illustrator 25.0.1, SVG Export Plug-In . SVG Version: 6.00 Build 0)  -->
<svg version="1.1" fill="#8052FD" id="Layer_5" xmlns="http://www.w3.org/2000/svg" xmlns:xlink="http://www.w3.org/1999/xlink" x="0px" y="0px"
	 viewBox="0 0 512 512" style="enable-background:new 0 0 512 512;" xml:space="preserve">

	
	


<path d="M195.6,428.4v1.4c-0.2,6.2,2.2,11.9,6.5,16.2c4.2,4.2,9.8,6.5,15.8,6.5c5.9,0,11.6-2.3,15.8-6.5
	c0.3-0.3,0.7-0.8,1-1.1l0.6-0.7l0.8,0.3c2.2,0.8,4.5,1.2,6.9,1.2c5.6,0,10.7-2.2,14.7-6.1c2-2,3.6-4.5,4.7-7.2l0.8-1.9l2.1,2.1
	c3.9,3.9,9.1,6.1,14.7,6.1c5.6,0,10.7-2.1,14.7-6.1c2.1-2.1,3.7-4.7,4.8-7.4l0.6-1.6l1.4,1c3.6,2.6,7.8,4,12.2,4
	c5.6,0,10.7-2.1,14.7-6.1c3.9-3.9,6.1-9.1,6.1-14.7c0-1.7-0.2-3.3-0.6-4.9l-0.3-1.4l1.4-0.3c4-0.8,7.6-2.8,10.5-5.7
	c3.9-3.9,6.1-9.1,6.1-14.7c0-4.3-1.4-8.5-3.8-12l-0.7-0.9l6.1-6.1c14.8-14.8,24.6-33.6,28.4-54.2c0.7-3.7,2.5-7.3,5.4-10.1
	l20.6-20.6l4.4,4.4c1,1,2.3,1.5,3.7,1.5s2.7-0.5,3.7-1.5l39.9-39.9c1-1,1.5-2.3,1.5-3.7s-0.5-2.7-1.5-3.7l-79.8-79.8
	c-1-1-2.3-1.5-3.7-1.5c-1.4,0-2.7,0.5-3.7,1.5L332.2,194c-1,1-1.5,2.3-1.5,3.7s0.5,2.7,1.5,3.7l4.9,4.9L327,216.5
	c-6.3,6.3-16.2,8-24.4,4.3c-7.1-3.2-15.1-4.9-22.9-4.9c-9.2,0-18.4,2.4-26.6,6.8l-0.4,0.3l-0.5-0.1c-3.4-0.8-6.9-1.3-10.2-1.3
	c-5,0-10,0.8-14.6,2.5c-8.2,3-17.1,1.1-23.1-4.8L187,201.9l2.9-2.9c1-1,1.5-2.3,1.5-3.7c0-1.4-0.5-2.7-1.5-3.7l-40.5-39.9
	c-1-1-2.3-1.5-3.7-1.5c-1.4,0-2.7,0.5-3.7,1.5l-88.8,88.9c-2,2-2,5.4,0,7.4l39.9,39.9c1,1,2.3,1.5,3.7,1.5s2.7-0.5,3.7-1.5l3.3-3.3
	l12.5,12.5c3.1,3.1,5.2,7,5.9,11.3c3.8,20.4,13.5,38.9,28.2,53.6l3,3l-0.8,0.9c-4,4.1-6.1,9.6-6.1,15.3c0,5.9,2.3,11.6,6.5,15.8
	c4.5,4.5,10.6,6.9,16.9,6.5l1.4-0.1l-0.1,1.4c-0.3,6.3,2,12.4,6.5,16.9c4.2,4.2,9.8,6.5,15.8,6.5c0.1,0,0.2,0,0.3,0L195.6,428.4z
	 M217.9,442c-3.1,0-6.1-1.3-8.4-3.5c-2.2-2.2-3.5-5.2-3.5-8.4c0-3.2,1.3-6.1,3.5-8.4c2.2-2.2,5.2-3.5,8.4-3.5c3.1,0,6.1,1.3,8.4,3.5
	c2.2,2.2,3.5,5.2,3.5,8.4c0,3.2-1.3,6.1-3.5,8.4C224,440.8,221,442,217.9,442z M242.9,435.2c-0.6,0-1.3-0.1-1.9-0.2l-1.3-0.3
	l0.2-1.3c1-7-1.4-14.1-6.3-19.1c-4.2-4.2-9.8-6.5-15.8-6.5c-0.1,0-0.2,0-0.3,0h-1.5v-1.4c0.2-6.2-2.2-11.9-6.5-16.2
	c-4.2-4.2-9.8-6.5-15.8-6.5c-0.3,0-0.8,0-1.1,0l-1.4,0.1l0.1-1.4c0.3-6.3-2-12.4-6.5-16.9c-5.5-5.5-13.3-7.7-20.8-5.9l-0.7,0.2
	l-5.2-5.2c-13.1-13.2-21.9-29.8-25.3-48.1c-1.2-6.3-4.2-12.1-8.9-16.8l-12.5-12.5l67.8-67.8l17.3,17.3c5.9,5.9,14.2,9.3,22.8,9.3
	c3.9,0,7.7-0.7,11.3-2c1.9-0.7,3.9-1.2,6-1.5l4-0.6l-43.6,43.6c-4.7,4.7-7.4,11-7.4,17.7c0,6.7,2.6,12.9,7.4,17.7
	c4.7,4.7,11,7.3,17.7,7.3l0,0c6.7,0,12.9-2.6,17.7-7.3l21.3-21.3l84.1,84.1c1.9,1.9,3,4.5,3,7.3c0,2.7-1.1,5.3-3,7.3l0,0l0,0
	c-1.9,1.9-4.5,3-7.3,3s-5.3-1.1-7.3-3l-63.7-63.7c-2-2-5.4-2-7.4,0c-2,2-2,5.4,0,7.4l68.6,68.6c1.9,1.9,3,4.5,3,7.3
	c0,2.7-1.1,5.3-3,7.3c-4,4-10.5,4-14.6,0L241,350c-2-2-5.4-2-7.4,0c-1,1-1.5,2.3-1.5,3.7s0.5,2.7,1.5,3.7l53.4,53.4
	c1.9,1.9,2.9,4.5,2.9,7.2c0,2.7-1.1,5.3-3,7.3c-1.9,1.9-4.5,3-7.3,3c-2.7,0-5.3-1.1-7.3-3l-57.9-57.9c-2-2-5.4-2-7.4,0
	c-1,1-1.5,2.3-1.5,3.7c0,1.4,0.5,2.7,1.5,3.7l43,43c1.9,1.9,3,4.5,3,7.2s-1.1,5.3-3,7.3C248.3,434.1,245.7,435.2,242.9,435.2z
	 M193.7,417.9c-3.1,0-6.1-1.3-8.4-3.5c-2.2-2.2-3.5-5.2-3.5-8.4c0-3.1,1.3-6.1,3.5-8.4c2.2-2.2,5.2-3.5,8.4-3.5
	c3.1,0,6.1,1.3,8.4,3.5c2.2,2.2,3.5,5.2,3.5,8.4c0,3.1-1.3,6.1-3.5,8.4l0,0C199.8,416.7,196.9,417.9,193.7,417.9z M169,393.1
	c-3,0-6.1-1.2-8.4-3.5c-2.2-2.2-3.5-5.2-3.5-8.4c0-3.1,1.3-6.1,3.5-8.4c2.2-2.2,5.2-3.5,8.4-3.5c3.1,0,6.1,1.3,8.4,3.5
	c4.6,4.6,4.6,12.1,0,16.8l0,0C175,392,172,393.1,169,393.1z M339.5,360.4l-45-45l3.6,0.3c1,0.1,1.9,0.1,2.6,0.1
	c4.3,0,8.5-0.8,12.3-2.4c2.7-1.1,4-4.1,2.9-6.9c-1.1-2.7-4.1-4-6.9-2.9c-17.7,7.2-38.5-12.4-40.9-14.6l-0.6-0.6L261,282l7.2-7.2
	c1-1,1.5-2.3,1.5-3.7c0-1.4-0.5-2.7-1.5-3.7c-1-1-2.3-1.5-3.7-1.5c-1.4,0-2.7,0.5-3.7,1.5l-36,36c-5.7,5.7-14.9,5.7-20.6,0
	c-2.7-2.7-4.2-6.4-4.2-10.2c0-3.9,1.5-7.5,4.2-10.2l43.2-43.2c2.5-2.5,5.2-4.7,8.2-6.5c7-4.3,15.1-6.7,23.5-6.7
	c6.3,0,12.8,1.4,18.5,4c12.3,5.6,26.7,3,36.1-6.4l10.1-10.1l55.6,55.6L379,290c-4.4,4.4-7.2,9.8-8.3,15.7
	c-3.3,18.5-12.1,35.4-25.4,48.7L339.5,360.4z M96.8,276.7l-32.5-32.5l81.4-81.4l32.5,32.5L96.8,276.7z M415.2,270.3l-0.9-0.9
	l-71.4-71.4l32.5-32.5l72.4,72.4L415.2,270.3z M421.9,237.5c-2.9,0-5.2,2.4-5.2,5.2s2.4,5.2,5.2,5.2c2.9,0,5.2-2.4,5.2-5.2
	C427.2,239.9,424.8,237.5,421.9,237.5z M93.4,244.1c-2.9,0-5.2,2.4-5.2,5.2s2.4,5.2,5.2,5.2s5.2-2.4,5.2-5.2S96.3,244.1,93.4,244.1z
	"/>
<g>
	<path d="M151,102.2c0-5.3,0.9-10.1,2.6-14.4c1.7-4.3,4.2-8,7.2-11.1c3.1-3.1,6.8-5.4,11-7.1c4.3-1.7,9-2.5,14.1-2.5
		c5.2-0.1,9.9,0.7,14.2,2.3c4.3,1.6,8,3.9,11.1,7s5.5,6.7,7.3,11c1.7,4.3,2.6,9.1,2.6,14.4c0,5.2-0.9,9.9-2.6,14.1
		c-1.7,4.2-4.2,7.9-7.3,10.9c-3.1,3.1-6.8,5.4-11.1,7.2c-4.3,1.7-9,2.6-14.2,2.7c-5.1,0-9.8-0.8-14.1-2.5s-7.9-4-11-7
		s-5.5-6.7-7.2-10.9C151.8,112.1,151,107.4,151,102.2z M163.3,101.4c0,3.6,0.5,6.8,1.6,9.8s2.6,5.6,4.6,7.8c2,2.2,4.4,3.9,7.2,5.1
		s5.9,1.9,9.3,1.9c3.4,0,6.5-0.6,9.4-1.9c2.8-1.2,5.2-3,7.2-5.1c2-2.2,3.5-4.8,4.6-7.8s1.6-6.3,1.6-9.8c0-3.3-0.5-6.4-1.6-9.3
		s-2.6-5.4-4.6-7.5c-2-2.2-4.4-3.8-7.2-5s-5.9-1.8-9.4-1.8c-3.4,0-6.5,0.6-9.3,1.8c-2.8,1.2-5.2,2.9-7.2,5c-2,2.2-3.5,4.7-4.6,7.5
		C163.8,95.1,163.3,98.1,163.3,101.4z"/>
	<path d="M232.4,68.8h43.9v10.7h-32.1v16.3h30.4v10.7h-30.4v18H278V135h-45.5L232.4,68.8L232.4,68.8z"/>
	<path d="M289.8,68.8h18l17.7,46.4l17.9-46.4H361V135h-11.2V80h-0.2l-20.1,55h-8.2l-20.1-55H301v55h-11.2V68.8z"/>
</g>
</svg>
