<?xml version="1.0" encoding="utf-8"?>
<!-- Generator: Adobe Illustrator 26.0.1, SVG Export Plug-In . SVG Version: 6.00 Build 0)  -->
<svg version="1.1" fill="#8052FD" id="Layer_5" xmlns="http://www.w3.org/2000/svg" xmlns:xlink="http://www.w3.org/1999/xlink" x="0px" y="0px"
	 viewBox="0 0 512 512" style="enable-background:new 0 0 512 512;" xml:space="preserve">


<path d="M199,431.9v1.3c-0.2,5.8,2.1,11.3,6.2,15.4c4,4,9.3,6.2,15,6.2c5.6,0,11-2.2,15-6.2c0.3-0.3,0.6-0.7,1-1
	l0.6-0.6l0.8,0.2c2.1,0.7,4.2,1.1,6.5,1.1c5.3,0,10.2-2.1,13.9-5.8c1.9-1.9,3.4-4.2,4.4-6.8l0.7-1.8l2,2c3.7,3.7,8.6,5.8,13.9,5.8
	s10.2-2,13.9-5.8c2-2,3.5-4.4,4.6-7l0.6-1.5l1.4,1c3.4,2.5,7.4,3.8,11.5,3.8c5.3,0,10.2-2,13.9-5.8c3.7-3.7,5.8-8.6,5.8-13.9
	c0-1.6-0.2-3.1-0.6-4.6l-0.3-1.3l1.3-0.2c3.8-0.8,7.2-2.6,9.9-5.4c3.7-3.7,5.8-8.6,5.8-13.9c0-4.1-1.3-8-3.6-11.4l-0.6-0.9l5.8-5.8
	c14-14,23.3-31.7,26.8-51.3c0.6-3.5,2.4-6.9,5.1-9.5l19.4-19.4l4.2,4.2c1,1,2.2,1.4,3.5,1.4s2.6-0.5,3.5-1.4l37.7-37.7
	c1-1,1.4-2.2,1.4-3.5s-0.5-2.6-1.4-3.5l-75.4-75.4c-1-1-2.2-1.4-3.5-1.4c-1.4,0-2.6,0.5-3.5,1.4L328,210.5c-1,1-1.4,2.2-1.4,3.5
	c0,1.4,0.5,2.6,1.4,3.5l4.6,4.6l-9.5,9.5c-6,6-15.3,7.6-23,4.1c-6.7-3-14.2-4.6-21.6-4.6c-8.7,0-17.4,2.2-25.1,6.4l-0.4,0.2
	l-0.5-0.1c-3.2-0.8-6.5-1.2-9.7-1.2c-4.7,0-9.4,0.8-13.8,2.4c-7.8,2.8-16.2,1-21.8-4.6l-16.4-16.4l2.7-2.7c1-1,1.4-2.2,1.4-3.5
	s-0.5-2.6-1.4-3.5l-38.2-37.7c-1-1-2.2-1.4-3.5-1.4s-2.6,0.5-3.5,1.4l-83.9,84c-1.9,1.9-1.9,5.1,0,7l37.7,37.7c1,1,2.2,1.4,3.5,1.4
	c1.4,0,2.6-0.5,3.5-1.4l3.1-3.1l11.8,11.8c3,3,4.9,6.6,5.6,10.6c3.6,19.3,12.8,36.8,26.6,50.6l2.9,2.9l-0.8,0.9
	c-3.8,3.9-5.8,9.1-5.8,14.5c0,5.6,2.2,11,6.2,15c4.2,4.2,10,6.5,16,6.2l1.4-0.1l-0.1,1.4c-0.3,5.9,1.9,11.8,6.2,16
	c4,4,9.3,6.2,15,6.2c0.1,0,0.2,0,0.3,0L199,431.9z M220,444.8c-3,0-5.8-1.2-7.9-3.3c-2.1-2.1-3.3-4.9-3.3-7.9s1.2-5.8,3.3-7.9
	s4.9-3.3,7.9-3.3s5.8,1.2,7.9,3.3c2.1,2.1,3.3,4.9,3.3,7.9s-1.2,5.8-3.3,7.9C225.7,443.7,222.9,444.8,220,444.8z M243.7,438.4
	c-0.6,0-1.2-0.1-1.8-0.2l-1.2-0.2l0.2-1.2c1-6.6-1.3-13.4-5.9-18.1c-4-4-9.3-6.2-15-6.2c-0.1,0-0.2,0-0.3,0h-1.4v-1.3
	c0.2-5.8-2.1-11.3-6.2-15.4c-4-4-9.3-6.2-15-6.2c-0.3,0-0.7,0-1,0l-1.4,0.1l0.1-1.4c0.3-5.9-1.9-11.8-6.2-16
	c-5.2-5.2-12.6-7.3-19.7-5.6l-0.6,0.2l-5-5c-12.4-12.5-20.7-28.1-23.9-45.4c-1.1-6-4-11.4-8.4-15.8L119.1,289l64.1-64.1l16.4,16.4
	c5.6,5.6,13.4,8.8,21.5,8.8c3.7,0,7.3-0.6,10.7-1.9c1.8-0.6,3.7-1.1,5.7-1.4l3.8-0.6l-41.2,41.2c-4.5,4.5-7,10.4-7,16.7
	s2.5,12.2,7,16.7s10.4,6.9,16.7,6.9l0,0c6.3,0,12.2-2.5,16.7-6.9l20.2-20.2l79.5,79.5c1.8,1.8,2.9,4.2,2.9,6.9c0,2.6-1,5-2.9,6.9
	l0,0l0,0c-1.8,1.8-4.2,2.9-6.9,2.9s-5-1-6.9-2.9l-60.2-60.2c-1.9-1.9-5.1-1.9-7,0s-1.9,5.1,0,7l64.9,64.9c1.8,1.8,2.9,4.2,2.9,6.9
	c0,2.6-1,5-2.8,6.9c-3.8,3.8-9.9,3.8-13.8,0l-61.5-61.5c-1.9-1.9-5.1-1.9-7,0c-1,1-1.4,2.2-1.4,3.5s0.5,2.6,1.4,3.5l50.5,50.5
	c1.8,1.8,2.7,4.2,2.7,6.8c0,2.6-1,5-2.9,6.9c-1.8,1.8-4.2,2.8-6.9,2.8c-2.6,0-5-1-6.9-2.8l-54.7-54.7c-1.9-1.9-5.1-1.9-7,0
	c-1,1-1.4,2.2-1.4,3.5s0.5,2.6,1.4,3.5l40.6,40.6c1.8,1.8,2.8,4.2,2.8,6.8c0,2.6-1,5-2.9,6.9C248.7,437.3,246.3,438.4,243.7,438.4z
	 M197.2,422c-3,0-5.8-1.2-7.9-3.3c-2.1-2.1-3.3-4.9-3.3-7.9s1.2-5.8,3.3-7.9s4.9-3.3,7.9-3.3s5.8,1.2,7.9,3.3
	c2.1,2.1,3.3,4.9,3.3,7.9s-1.2,5.8-3.3,7.9l0,0C202.9,420.9,200.2,422,197.2,422z M173.8,398.6c-2.9,0-5.8-1.1-7.9-3.3
	c-2.1-2.1-3.3-4.9-3.3-7.9s1.2-5.8,3.3-7.9s4.9-3.3,7.9-3.3s5.8,1.2,7.9,3.3c4.3,4.3,4.3,11.4,0,15.8l0,0
	C179.4,397.5,176.6,398.6,173.8,398.6z M334.9,367.7l-42.5-42.5l3.4,0.2c1,0.1,1.8,0.1,2.5,0.1c4.1,0,8-0.8,11.6-2.2
	c2.6-1,3.8-3.9,2.7-6.5s-3.9-3.8-6.5-2.7c-16.7,6.8-36.4-11.7-38.6-13.8l-0.6-0.6l-6.1-6.1l6.8-6.8c1-1,1.4-2.2,1.4-3.5
	c0-1.4-0.5-2.6-1.4-3.5c-1-1-2.2-1.4-3.5-1.4c-1.4,0-2.6,0.5-3.5,1.4l-34,34c-5.4,5.4-14.1,5.4-19.4,0c-2.6-2.6-4-6.1-4-9.7
	c0-3.7,1.4-7.1,4-9.7l40.9-40.9c2.3-2.3,5-4.4,7.8-6.2c6.6-4.1,14.3-6.3,22.2-6.3c6,0,12.1,1.3,17.5,3.8c11.6,5.3,25.3,2.8,34.1-6.1
	l9.5-9.5l52.5,52.5l-19.4,19.4c-4.2,4.2-6.8,9.3-7.8,14.8c-3.1,17.5-11.4,33.4-24,46L334.9,367.7z M105.6,288.6l-30.7-30.7
	l76.9-76.9l30.7,30.7L105.6,288.6z M406.5,282.5l-0.9-0.9l-67.5-67.5l30.7-30.7l68.4,68.4L406.5,282.5z M412.8,251.6
	c-2.7,0-5,2.2-5,5c0,2.7,2.2,5,5,5c2.7,0,5-2.2,5-5S415.5,251.6,412.8,251.6z M102.3,257.7c-2.7,0-5,2.2-5,5c0,2.7,2.2,5,5,5
	c2.7,0,5-2.2,5-5C107.3,260,105.1,257.7,102.3,257.7z"/>
<g>
	<path d="M278.5,152.4c-0.1-2-1.6-3.6-3.5-3.8l-9.2-0.9c-1-3.7-2.6-7.3-4.6-10.8l5.8-7.1c1.3-1.5,1.2-3.8-0.2-5.2
		l-11.4-11.4c-1.4-1.4-3.7-1.5-5.1-0.2l-7.1,5.9c-3.6-2.1-7.2-3.6-10.9-4.6l-0.9-9.3c-0.2-2-1.8-3.5-3.8-3.5h-16.2
		c-2,0-3.6,1.5-3.8,3.5l-1,9.4c-3.7,1-7.3,2.6-10.8,4.6l-7.1-5.8c-1.5-1.3-3.8-1.2-5.2,0.2l-11.4,11.4c-1.4,1.4-1.5,3.7-0.2,5.1
		l5.9,7.1c-2.1,3.6-3.6,7.2-4.6,10.9l-9.3,0.9c-2,0.2-3.4,1.8-3.4,3.8v16.2c0,2,1.4,3.6,3.4,3.8l9.3,0.9c1,3.7,2.6,7.3,4.6,10.8
		l-5.8,7.1c-1.3,1.5-1.2,3.8,0.2,5.2l11.4,11.4c1.4,1.4,3.7,1.5,5.1,0.2l7.1-5.9c3.4,2,7,3.4,10.9,4.6l0.9,9.3
		c0.2,1.9,1.8,3.4,3.8,3.4h16.3c2,0,3.6-1.4,3.8-3.4l0.9-9.2c3.7-1,7.3-2.6,10.8-4.6l7.1,5.8c1.5,1.4,3.8,1.2,5.2-0.3l11.3-11.4
		c1.4-1.4,1.5-3.7,0.2-5.1l-5.9-7.1c2.1-3.6,3.6-7.1,4.6-10.9l9.3-0.9c2-0.2,3.5-1.8,3.6-3.8L278.5,152.4L278.5,152.4z M258.8,169
		L258.8,169c-1,4.9-3,9.4-5.7,13.4c-0.9,1.4-0.8,3.3,0.2,4.6l5.4,6.6l-6.3,6.4l-6.6-5.4c-1.3-1.1-3.1-1.2-4.6-0.3
		c-4.2,2.7-8.7,4.6-13.4,5.7c-1.6,0.3-2.8,1.7-3,3.4l-0.8,8.5h-9.2l-0.8-8.5c-0.2-1.7-1.4-3-3-3.4c-4.9-1-9.4-3-13.4-5.7
		c-1.4-0.9-3.2-0.8-4.6,0.2l-6.6,5.4l-6.4-6.4l5.4-6.6c1.1-1.3,1.2-3.1,0.3-4.6c-2.8-4.3-4.6-8.8-5.7-13.4c-0.4-1.6-1.8-2.8-3.4-3
		l-8.5-0.8v-9.2l8.5-0.8c1.7-0.2,3-1.4,3.4-3c1-4.7,2.9-9.2,5.7-13.4c0.9-1.4,0.8-3.3-0.2-4.6l-5.4-6.6l6.4-6.4l6.6,5.4
		c1.3,1.1,3.1,1.2,4.6,0.3c4.2-2.7,8.7-4.6,13.4-5.7c1.6-0.4,2.8-1.8,3-3.4l0.8-8.6h9.2l0.8,8.6c0.2,1.7,1.4,3,3,3.4
		c4.9,1,9.4,3,13.4,5.7c1.4,0.9,3.2,0.8,4.6-0.2l6.6-5.4l6.4,6.4l-5.4,6.6c-1.1,1.4-1.2,3.2-0.2,4.6c2.7,4.2,4.6,8.7,5.8,13.5
		c0.4,1.6,1.8,2.8,3.4,3l8.5,0.8v9.2l-8.6,0.8C260.6,166.2,259.2,167.3,258.8,169z"/>
	<path d="M219.6,128.6c-17.7,0-32.1,14.4-32.1,32.1c0,8.6,3.4,16.6,9.4,22.7c6.1,6.1,14.2,9.4,22.7,9.4
		c17.7,0,32.1-14.4,32.1-32.1C251.7,143,237.2,128.6,219.6,128.6z M243.9,160.6c0,13.4-11,24.4-24.4,24.4s-24.4-11-24.4-24.4
		c0-6.5,2.6-12.6,7.1-17.3c4.6-4.6,10.7-7.1,17.3-7.1c6.5,0,12.6,2.6,17.3,7.1C241.3,147.9,243.9,154.1,243.9,160.6z"/>
	<path d="M343.7,98.7l-6-0.6c-0.8-2.6-1.8-5-2.9-7l3.8-4.7c1.1-1.4,1-3.4-0.2-4.7l-8.2-8.2c-1.3-1.3-3.2-1.4-4.6-0.2
		l-4.7,3.9c-2.3-1.3-4.6-2.2-7-3l-0.6-6.2c-0.2-1.8-1.6-3.1-3.4-3.2h-11.5c-1.8,0-3.4,1.4-3.4,3.2l-0.6,6.2c-2.6,0.8-5,1.8-7,2.9
		l-4.7-3.8c-1.4-1.1-3.4-1-4.7,0.2l-8.2,8.2c-1.3,1.3-1.4,3.4-0.2,4.6l4,4.8c-1.3,2.3-2.2,4.6-3,7l-6.2,0.6
		c-1.8,0.2-3.1,1.6-3.2,3.4v11.5c0,1.8,1.4,3.4,3.2,3.4l6.2,0.6c0.8,2.6,1.8,5,2.9,7l-3.8,4.7c-1.1,1.4-1,3.4,0.2,4.7l8.2,8.2
		c1.3,1.3,3.4,1.4,4.6,0.2l4.7-3.9c2.1,1.2,4.4,2.2,7,3l0.6,6.2c0.2,1.8,1.6,3,3.3,3c0.1,0,0.2,0,0.2,0H310c1.8,0,3.2-1.3,3.4-3
		l0.6-6c2.6-0.8,5-1.8,7-2.9l4.7,3.8c1.4,1.1,3.4,1,4.7-0.2l8-8.2c1.3-1.3,1.4-3.2,0.2-4.6l-3.9-4.7c1.2-2.2,2.2-4.4,3-7l6.2-0.6
		c1.8-0.3,3.1-1.8,3.1-3.5v-11.7C346.8,100.4,345.5,98.9,343.7,98.7z M331.5,113.8c-0.7,3.3-2,6.4-3.9,9.3c-0.8,1.2-0.7,2.9,0.2,4.2
		l3.4,4.2l-3.6,3.6l-4.2-3.4c-1.1-1-2.8-1-4.1-0.2c-3,1.9-6.1,3.2-9.4,3.9c-1.5,0.3-2.6,1.6-2.7,3l-0.5,5.4h-5.2l-0.5-5.4
		c-0.1-1.5-1.3-2.8-2.7-3c-3.3-0.7-6.4-2-9.4-3.9c-1.2-0.8-2.9-0.7-4.2,0.2l-4.2,3.4l-3.7-3.7l3.4-4.2c1-1.1,1-2.8,0.2-4.1
		c-1.8-2.9-3.2-6-4-9.4c-0.3-1.5-1.6-2.6-3.1-2.7l-5.4-0.5v-5.4l5.4-0.4c1.5-0.1,2.8-1.2,3.1-2.7c0.7-3.3,2-6.4,3.9-9.4
		c0.8-1.2,0.7-2.9-0.2-4.2l-3.4-4.2l3.7-3.7l4.2,3.4c1.1,1,2.8,1,4.1,0.2c2.9-1.8,6-3.2,9.4-4c1.5-0.3,2.6-1.6,2.7-3.1l0.5-5.4h5.3
		l0.5,5.4c0.1,1.5,1.2,2.8,2.7,3.1c3.3,0.7,6.4,2,9.4,3.9c1.2,0.8,2.9,0.7,4.2-0.2l4.2-3.4l3.7,3.7l-3.4,4.2c-1,1.1-1,2.8-0.2,4.1
		c1.8,2.9,3.2,6,4,9.4c0.3,1.5,1.6,2.6,3,2.7l5.3,0.5l0.1,5.4l-5.4,0.5C333.1,111.1,331.8,112.3,331.5,113.8z"/>
	<path d="M304.3,87.9c-11,0-20.1,9-20.1,20.1s9,20.1,20.1,20.1c11,0,20-9,20.1-20.1l0,0
		C324.3,96.8,315.3,87.9,304.3,87.9z M304.2,94.7c7.3,0,13.2,5.9,13.2,13.2s-5.9,13.2-13.2,13.2c-7.3,0-13.2-5.9-13.2-13.2
		C291.1,100.7,297,94.7,304.2,94.7z"/>
</g>
<g>
	<g>
		<circle cx="853.8" cy="1061.5" r="3.4"/>
	</g>
</g>
<g>
	<g>
		<circle cx="682.9" cy="1064.8" r="3.4"/>
	</g>
</g>
</svg>
