<?xml version="1.0" encoding="utf-8"?>
<!-- Generator: Adobe Illustrator 25.0.1, SVG Export Plug-In . SVG Version: 6.00 Build 0)  -->
<svg version="1.1" fill="#8052FD" id="Capa_1" xmlns="http://www.w3.org/2000/svg" xmlns:xlink="http://www.w3.org/1999/xlink" x="0px" y="0px"
	 viewBox="0 0 512 512" style="enable-background:new 0 0 512 512;" xml:space="preserve">

	
	


<g>
	<g>
		<path d="M414.9,128.2c0-10.2-8.4-18.6-18.6-18.6H115.8c-10.2,0-18.6,8.4-18.6,18.6v135.9v0.1c0,0.1,0,0.1,0,0.2v43.7
			c0,12.8,1.9,25.5,5.8,37.7l7,22.4v28c0,3.4,2.8,6.2,6.2,6.2s6.2-2.8,6.2-6.2v-29c0-0.6-0.1-1.2-0.3-1.9l-7.3-23.3
			c-3.5-11-5.2-22.5-5.2-34v-43.7c0-3.5,2.8-6.3,6.3-6.3s6.3,2.8,6.3,6.3v15.2c0,3.4,2.8,6.2,6.2,6.2c3.4,0,6.2-2.8,6.2-6.2v-24.4
			c0-3.5,2.8-6.3,6.3-6.3c3.5,0,6.3,2.8,6.3,6.3v24.4c0,3.4,2.8,6.2,6.2,6.2c3.4,0,6.2-2.8,6.2-6.2v-32.3c0-3.5,2.8-6.3,6.3-6.3
			s6.3,2.8,6.3,6.3v32.3c0,3.4,2.8,6.2,6.2,6.2s6.2-2.8,6.2-6.2v-72.9c0-3.5,2.8-6.3,6.3-6.3s6.3,2.8,6.3,6.3v90.2
			c0,2.9,1.9,5.3,4.7,6c2.7,0.7,5.6-0.6,6.9-3l14.6-27.1c1.8-3.4,5.8-4.6,9.2-2.9c2.9,1.4,4.4,4.7,3.6,7.8l-9.6,39.3
			c-1.9,7.7-5.2,14.9-9.9,21.3l-18.6,25.4c-0.8,1.1-1.2,2.4-1.2,3.7v29c0,3.4,2.8,6.2,6.2,6.2c3.4,0,6.2-2.8,6.2-6.2v-27l17.4-23.8
			c5.6-7.8,9.7-16.4,11.9-25.7l5.5-22.8h23.9l5.5,22.8c2.2,9.3,6.3,18,11.9,25.7l17.4,23.8v27c0,3.4,2.8,6.2,6.2,6.2
			s6.2-2.8,6.2-6.2v-29c0-1.3-0.4-2.6-1.2-3.7l-18.6-25.4c-4.7-6.4-8-13.6-9.9-21.3l-9.5-39.3c-0.7-3.2,0.7-6.3,3.6-7.8
			c3.4-1.7,7.4-0.4,9.2,2.9l14.6,27.1c1.4,2.5,4.2,3.8,6.9,3c2.7-0.7,4.7-3.2,4.7-6v-90.2c0-3.5,2.8-6.3,6.3-6.3s6.3,2.8,6.3,6.3v73
			c0,3.4,2.8,6.2,6.2,6.2s6.2-2.8,6.2-6.2v-32.3c0-3.5,2.8-6.3,6.3-6.3c3.5,0,6.3,2.8,6.3,6.3v32.3c0,3.4,2.8,6.2,6.2,6.2
			s6.2-2.8,6.2-6.2v-24.4c0-3.5,2.8-6.3,6.3-6.3s6.3,2.8,6.3,6.3v24.4c0,3.4,2.8,6.2,6.2,6.2s6.2-2.8,6.2-6.2v-15.2
			c0-3.5,2.8-6.3,6.3-6.3c3.5,0,6.3,2.8,6.3,6.3v43.7c0,11.5-1.7,23-5.2,34l-7.3,23.3c-0.2,0.6-0.3,1.2-0.3,1.9v28.9
			c0,3.4,2.8,6.2,6.2,6.2s6.2-2.8,6.2-6.2v-28l7-22.4c3.8-12.2,5.8-24.9,5.8-37.7v-43.7c0-0.1,0-0.1,0-0.2v-0.1V128.2H414.9z
			 M264,280.4l1,4.1h-17.9l1-4.1c1.8-7.3-0.9-14.8-6.5-19.5h29C264.8,265.6,262.2,273.1,264,280.4z M402.5,246.8
			c-2-0.7-4-1.1-6.3-1.1c-2.9,0-5.5,0.6-7.9,1.7c-2.9-6.5-9.4-10.9-17-10.9c-3,0-5.9,0.7-8.4,2c-3.2-5.9-9.4-9.9-16.5-9.9
			c-2.2,0-4.3,0.4-6.3,1.1v-23.1c0-10.3-8.4-18.7-18.7-18.7c-10.3,0-18.7,8.4-18.7,18.7v65.6l-3-5.5c-2.8-5.2-7.6-8.6-13-9.7
			c0.2-0.7,0.4-1.4,0.4-2.2c0-3.4-2.8-6.2-6.2-6.2H238c-3.4,0-6.2,2.8-6.2,6.2c0,0.7,0.1,1.4,0.3,2c-7.9-1.2-15.9,2.5-19.9,9.9
			l-3,5.5v-65.6c0-10.3-8.4-18.7-18.7-18.7s-18.7,8.4-18.7,18.7v23.1c-2-0.7-4-1.1-6.3-1.1c-7.1,0-13.3,4-16.5,9.9
			c-2.5-1.3-5.4-2-8.4-2c-7.6,0-14,4.5-17,10.9c-2.4-1.1-5.1-1.7-7.9-1.7c-2.2,0-4.3,0.4-6.3,1.1V128.2c0-3.4,2.8-6.2,6.2-6.2h280.4
			c3.4,0,6.2,2.8,6.2,6.2v118.6H402.5z"/>
	</g>
</g>
<g>
	<g>
		<path d="M163.6,179.1h-26.7c-3.4,0-6.2,2.8-6.2,6.2s2.8,6.2,6.2,6.2h26.7c3.4,0,6.2-2.8,6.2-6.2
			S167,179.1,163.6,179.1z"/>
	</g>
</g>
<g>
	<g>
		<path d="M225.8,179.1H216c-3.4,0-6.2,2.8-6.2,6.2s2.8,6.2,6.2,6.2h9.8c3.4,0,6.2-2.8,6.2-6.2S229.2,179.1,225.8,179.1
			z"/>
	</g>
</g>
<g>
	<g>
		<path d="M147.6,213.8h-10.7c-3.4,0-6.2,2.8-6.2,6.2s2.8,6.2,6.2,6.2h10.7c3.4,0,6.2-2.8,6.2-6.2
			S151.1,213.8,147.6,213.8z"/>
	</g>
</g>
<g>
	<g>
		<path d="M242.4,213.8h-11.5c-3.4,0-6.2,2.8-6.2,6.2s2.8,6.2,6.2,6.2h11.5c3.4,0,6.2-2.8,6.2-6.2
			S245.8,213.8,242.4,213.8z"/>
	</g>
</g>
<g>
	<g>
		<path d="M158.4,144.3h-21.5c-3.4,0-6.2,2.8-6.2,6.2s2.8,6.2,6.2,6.2h21.5c3.4,0,6.2-2.8,6.2-6.2
			S161.8,144.3,158.4,144.3z"/>
	</g>
</g>
<g>
	<g>
		<path d="M225.8,144.3h-19.7c-3.4,0-6.2,2.8-6.2,6.2s2.8,6.2,6.2,6.2h19.7c3.4,0,6.2-2.8,6.2-6.2
			S229.2,144.3,225.8,144.3z"/>
	</g>
</g>
<g>
	<g>
		<path d="M187,146.1c-1.2-1.2-2.7-1.8-4.4-1.8c-1.6,0-3.2,0.7-4.4,1.8c-1.2,1.2-1.8,2.7-1.8,4.4c0,1.6,0.7,3.2,1.8,4.4
			c1.2,1.2,2.7,1.8,4.4,1.8s3.2-0.7,4.4-1.8c1.2-1.2,1.8-2.7,1.8-4.4C188.8,148.9,188.1,147.3,187,146.1z"/>
	</g>
</g>
<g>
	<g>
		<path d="M264.7,179.1h-16.4c-3.4,0-6.2,2.8-6.2,6.2s2.8,6.2,6.2,6.2h16.4c3.4,0,6.2-2.8,6.2-6.2
			S268.1,179.1,264.7,179.1z"/>
	</g>
</g>
<g>
	<g>
		<path d="M298.6,180.9c-1.2-1.2-2.7-1.8-4.4-1.8s-3.2,0.7-4.4,1.8c-1.2,1.2-1.8,2.7-1.8,4.4c0,1.6,0.7,3.2,1.8,4.4
			c1.2,1.2,2.7,1.8,4.4,1.8s3.2-0.7,4.4-1.8c1.2-1.2,1.8-2.7,1.8-4.4S299.7,182,298.6,180.9z"/>
	</g>
</g>
<g>
	<g>
		<path d="M375.4,179.1H352c-3.4,0-6.2,2.8-6.2,6.2s2.8,6.2,6.2,6.2h23.3c3.4,0,6.2-2.8,6.2-6.2
			S378.8,179.1,375.4,179.1z"/>
	</g>
</g>
<g>
	<g>
		<path d="M286.4,213.8h-12.5c-3.4,0-6.2,2.8-6.2,6.2s2.8,6.2,6.2,6.2h12.5c3.4,0,6.2-2.8,6.2-6.2
			S289.9,213.8,286.4,213.8z"/>
	</g>
</g>
<g>
	<g>
		<path d="M374.2,213.8h-11.5c-3.4,0-6.2,2.8-6.2,6.2s2.8,6.2,6.2,6.2h11.5c3.4,0,6.2-2.8,6.2-6.2
			S377.6,213.8,374.2,213.8z"/>
	</g>
</g>
<g>
	<g>
		<path d="M272.5,144.3H256c-3.4,0-6.2,2.8-6.2,6.2s2.8,6.2,6.2,6.2h16.4c3.4,0,6.2-2.8,6.2-6.2
			S275.9,144.3,272.5,144.3z"/>
	</g>
</g>
<g>
	<g>
		<path d="M375.2,144.3h-20.5c-3.4,0-6.2,2.8-6.2,6.2s2.8,6.2,6.2,6.2h20.5c3.4,0,6.2-2.8,6.2-6.2
			S378.6,144.3,375.2,144.3z"/>
	</g>
</g>
<g>
	<g>
		<path d="M322.7,144.3h-13.6c-3.4,0-6.2,2.8-6.2,6.2s2.8,6.2,6.2,6.2h13.6c3.4,0,6.2-2.8,6.2-6.2
			S326.1,144.3,322.7,144.3z"/>
	</g>
</g>
</svg>
