<?xml version="1.0" encoding="utf-8"?>
<!-- Generator: Adobe Illustrator 25.0.1, SVG Export Plug-In . SVG Version: 6.00 Build 0)  -->
<svg version="1.1" fill="#8052FD" id="Layer_1" xmlns="http://www.w3.org/2000/svg" xmlns:xlink="http://www.w3.org/1999/xlink" x="0px" y="0px"
	 viewBox="0 0 512 512" style="enable-background:new 0 0 512 512;" xml:space="preserve">

	
	


<g id="Layer_2_1_">
	<g id="Calque_1">
		<path d="M441.5,337.8H303.4c-3.7,0-6.6,3-6.6,6.6v27.5c0,3.7,3,6.6,6.6,6.6h138.1c3.7,0,6.6-3,6.6-6.6v-27.5
			C448.1,340.7,445.1,337.8,441.5,337.8z M443.2,372c0,1-0.9,1.9-1.9,1.9h-138c-1,0-1.9-0.9-1.9-1.9v-27.6c0-1,0.9-1.9,1.9-1.9
			h138.1c1,0,1.9,0.9,1.9,1.9L443.2,372L443.2,372z M341.2,348.5h-31.1c-1.5,0.1-2.6,1.3-2.6,2.8c0.1,1.4,1.2,2.5,2.6,2.6h31.1
			c1.5-0.1,2.6-1.3,2.6-2.8C343.7,349.7,342.6,348.6,341.2,348.5z M431.8,348.3c-2.3,0-4,1.8-4,4s1.8,4,4,4c2.3,0,4-1.8,4-4l0,0
			C435.9,350.1,434.1,348.3,431.8,348.3L431.8,348.3z M418.7,348.3c-2.3,0-4,1.8-4,4s1.8,4,4,4c2.3,0,4-1.8,4-4l0,0
			C422.8,350.1,421,348.3,418.7,348.3L418.7,348.3L418.7,348.3z M405.7,348.3c-2.3,0-4,1.8-4,4s1.8,4,4,4c2.3,0,4-1.8,4-4l0,0
			C409.7,350.1,407.9,348.3,405.7,348.3L405.7,348.3L405.7,348.3z M392.6,348.3c-2.3,0-4,1.8-4,4s1.8,4,4,4c2.3,0,4-1.8,4-4l0,0
			C396.6,350.1,394.9,348.3,392.6,348.3L392.6,348.3L392.6,348.3z M379.5,348.3c-2.3,0-4,1.8-4,4s1.8,4,4,4c2.3,0,4-1.8,4-4l0,0
			C383.6,350.1,381.8,348.3,379.5,348.3L379.5,348.3z"/>
		<path d="M441.5,293.4H303.4c-3.7,0-6.6,3-6.6,6.6v27.5c0,3.7,3,6.6,6.6,6.6h138.1c3.7,0,6.6-3,6.6-6.6V300
			C448.1,296.4,445.1,293.4,441.5,293.4z M443.2,327.7c0,1-0.9,1.9-1.9,1.9h-138c-1,0-1.9-0.9-1.9-1.9V300c0-1,0.9-1.9,1.9-1.9
			h138.1c1,0,1.9,0.9,1.9,1.9L443.2,327.7L443.2,327.7z M341.2,304.2h-31.1c-1.5,0-2.6,1.2-2.6,2.6c0,1.5,1.2,2.6,2.6,2.6h31.1
			c1.5,0,2.6-1.2,2.6-2.6C343.9,305.3,342.7,304.2,341.2,304.2z M431.8,303.9c-2.3,0-4,1.8-4,4c0,2.3,1.8,4,4,4s4-1.8,4-4
			C435.9,305.7,434.1,303.9,431.8,303.9L431.8,303.9z M418.7,303.9c-2.3,0-4,1.8-4,4c0,2.3,1.8,4,4,4s4-1.8,4-4
			C422.8,305.7,421,303.9,418.7,303.9L418.7,303.9z"/>
		<path d="M441.5,249.1H303.4c-3.7,0-6.6,3-6.6,6.6v27.5c0,3.7,3,6.6,6.6,6.6h138.1c3.7,0,6.6-3,6.6-6.6v-27.5
			C448.1,252,445.1,249.1,441.5,249.1z M443.2,283.3c0,1-0.9,1.9-1.9,1.9h-138c-1,0-1.9-0.9-1.9-1.9v-27.6c0-1,0.9-1.9,1.9-1.9
			h138.1c1,0,1.9,0.9,1.9,1.9L443.2,283.3L443.2,283.3z M341.2,259.9h-31.1c-1.5,0-2.6,1.2-2.6,2.6c0,1.5,1.2,2.6,2.6,2.6h31.1
			c1.5,0,2.6-1.2,2.6-2.6C343.9,261.1,342.7,259.9,341.2,259.9z M431.8,259.7c-2.3,0-4,1.8-4,4c0,2.3,1.8,4,4,4c2.3,0,4-1.8,4-4l0,0
			C435.9,261.4,434.1,259.7,431.8,259.7C431.8,259.6,431.8,259.6,431.8,259.7L431.8,259.7z M418.7,259.7c-2.3,0-4,1.8-4,4
			c0,2.3,1.8,4,4,4c2.3,0,4-1.8,4-4l0,0C422.8,261.4,421,259.7,418.7,259.7C418.7,259.6,418.7,259.6,418.7,259.7L418.7,259.7z
			 M405.7,259.7c-2.3,0-4,1.8-4,4c0,2.3,1.8,4,4,4c2.3,0,4-1.8,4-4C409.7,261.4,407.9,259.7,405.7,259.7
			C405.7,259.6,405.7,259.6,405.7,259.7L405.7,259.7z M392.6,259.7c-2.3,0-4,1.8-4,4c0,2.3,1.8,4,4,4c2.3,0,4-1.8,4-4
			C396.6,261.4,394.9,259.7,392.6,259.7C392.6,259.6,392.6,259.6,392.6,259.7L392.6,259.7z M379.5,259.7c-2.3,0-4,1.8-4,4
			c0,2.3,1.8,4,4,4c2.3,0,4-1.8,4-4l0,0C383.6,261.4,381.8,259.7,379.5,259.7C379.5,259.6,379.5,259.6,379.5,259.7L379.5,259.7z"/>
		<path d="M200.7,337.8H62.5c-3.7,0-6.6,3-6.6,6.6v27.5c0,3.7,3,6.6,6.6,6.6h138.1c3.7,0,6.6-3,6.6-6.6v-27.5
			C207.3,340.7,204.4,337.8,200.7,337.8z M202.5,372c0,1-0.9,1.9-1.9,1.9H62.5c-1,0-1.9-0.9-1.9-1.9c0,0,0,0,0-0.1v-27.5
			c0-1,0.9-1.9,1.9-1.9h138.1c1,0,1.9,0.9,1.9,1.9V372z M100.5,348.5H69.4c-1.5,0.1-2.6,1.3-2.6,2.8c0.1,1.4,1.2,2.5,2.6,2.6h31.1
			c1.5-0.1,2.6-1.3,2.6-2.8C102.9,349.7,101.8,348.6,100.5,348.5z M191.1,348.3c-2.3,0-4,1.8-4,4s1.8,4,4,4c2.3,0,4-1.8,4-4l0,0
			C195.1,350.1,193.3,348.3,191.1,348.3L191.1,348.3L191.1,348.3z M178,348.3c-2.3,0-4,1.8-4,4s1.8,4,4,4c2.3,0,4-1.8,4-4l0,0
			C182.1,350.1,180.3,348.3,178,348.3L178,348.3z M164.9,348.3c-2.3,0-4,1.8-4,4s1.8,4,4,4c2.3,0,4-1.8,4-4l0,0
			C169,350.1,167.2,348.3,164.9,348.3L164.9,348.3L164.9,348.3z M151.9,348.3c-2.3,0-4,1.8-4,4s1.8,4,4,4c2.3,0,4-1.8,4-4l0,0
			C155.9,350.1,154.1,348.3,151.9,348.3L151.9,348.3L151.9,348.3z M138.8,348.3c-2.3,0-4,1.8-4,4s1.8,4,4,4c2.3,0,4-1.8,4-4l0,0
			C142.8,350.1,141,348.3,138.8,348.3L138.8,348.3L138.8,348.3z"/>
		<path d="M200.7,293.4H62.5c-3.7,0-6.6,3-6.6,6.6v27.5c0,3.7,3,6.6,6.6,6.6h138.1c3.7,0,6.6-3,6.6-6.6V300
			C207.3,296.4,204.4,293.4,200.7,293.4z M202.5,327.7c0,1-0.9,1.9-1.9,1.9H62.5c-1,0-1.9-0.9-1.9-1.9V300c0-1,0.9-1.9,1.9-1.9
			h138.1c1,0,1.9,0.9,1.9,1.9V327.7z M100.5,304.2H69.4c-1.5,0-2.6,1.2-2.6,2.6c0,1.5,1.2,2.6,2.6,2.6h31.1c1.5,0,2.6-1.2,2.6-2.6
			C103.2,305.3,102,304.2,100.5,304.2z M191.1,303.9c-2.3,0-4,1.8-4,4c0,2.3,1.8,4,4,4c2.3,0,4-1.8,4-4
			C195.1,305.8,193.3,303.9,191.1,303.9L191.1,303.9z M178,303.9c-2.3,0-4,1.8-4,4c0,2.3,1.8,4,4,4c2.3,0,4-1.8,4-4
			C182.1,305.7,180.3,303.9,178,303.9L178,303.9z"/>
		<path d="M200.7,249.1H62.5c-3.7,0-6.6,3-6.6,6.6v27.5c0,3.7,3,6.6,6.6,6.6h138.1c3.7,0,6.6-3,6.6-6.6v-27.5
			C207.3,252,204.4,249.1,200.7,249.1z M202.5,283.3c0,1-0.9,1.9-1.9,1.9H62.5c-1,0-1.9-0.9-1.9-1.9v-27.6c0-1,0.9-1.9,1.9-1.9l0,0
			h138.1c1,0,1.9,0.9,1.9,1.9l0,0V283.3z M100.5,259.9H69.4c-1.5,0-2.6,1.2-2.6,2.6c0,1.5,1.2,2.6,2.6,2.6h31.1
			c1.5,0,2.6-1.2,2.6-2.6C103.2,261.1,102,259.9,100.5,259.9z M191.1,259.7c-2.3,0-4,1.8-4,4c0,2.3,1.8,4,4,4c2.3,0,4-1.8,4-4l0,0
			C195.1,261.4,193.3,259.7,191.1,259.7C191.1,259.6,191.1,259.6,191.1,259.7L191.1,259.7z M178,259.7c-2.3,0-4,1.8-4,4
			c0,2.3,1.8,4,4,4c2.3,0,4-1.8,4-4l0,0C182.1,261.4,180.3,259.7,178,259.7C178,259.6,178,259.6,178,259.7L178,259.7z M164.9,259.7
			c-2.3,0-4,1.8-4,4c0,2.3,1.8,4,4,4c2.3,0,4-1.8,4-4l0,0C169,261.4,167.2,259.7,164.9,259.7C164.9,259.6,164.9,259.6,164.9,259.7
			L164.9,259.7z M151.9,259.7c-2.3,0-4,1.8-4,4c0,2.3,1.8,4,4,4c2.3,0,4-1.8,4-4l0,0C155.9,261.4,154.1,259.7,151.9,259.7
			C151.9,259.6,151.9,259.6,151.9,259.7L151.9,259.7z M138.8,259.7c-2.3,0-4,1.8-4,4c0,2.3,1.8,4,4,4c2.3,0,4-1.8,4-4l0,0
			C142.8,261.4,141,259.7,138.8,259.7C138.8,259.6,138.8,259.6,138.8,259.7L138.8,259.7z"/>
		<path d="M321.1,172H182.9c-3.7,0-6.6,3-6.6,6.6v27.6c0,3.7,3,6.6,6.6,6.6H321c3.7,0,6.6-3,6.6-6.6v-27.6
			C327.7,174.9,324.7,172,321.1,172z M322.9,206.2c0,1-0.9,1.9-1.9,1.9H182.9c-1,0-1.9-0.9-1.9-1.9l0,0v-27.6c0-1,0.9-1.9,1.9-1.9
			l0,0H321c1,0,1.9,0.9,1.9,1.9V206.2z M220.9,182.7h-31.1c-1.5,0-2.6,1.2-2.6,2.6s1.2,2.6,2.6,2.6l0,0h31.1c1.5,0,2.6-1.2,2.6-2.6
			C223.5,183.9,222.4,182.7,220.9,182.7z M311.4,182.5c-2.3,0-4,1.8-4,4s1.8,4,4,4c2.3,0,4-1.8,4-4S313.7,182.5,311.4,182.5
			L311.4,182.5L311.4,182.5z M298.4,182.5c-2.3,0-4,1.8-4,4s1.8,4,4,4c2.3,0,4-1.8,4-4S300.6,182.5,298.4,182.5L298.4,182.5
			L298.4,182.5z M285.3,182.5c-2.3,0-4,1.8-4,4s1.8,4,4,4c2.3,0,4-1.8,4-4l0,0C289.3,184.3,287.6,182.5,285.3,182.5L285.3,182.5
			L285.3,182.5z M272.2,182.5c-2.3,0-4,1.8-4,4s1.8,4,4,4c2.3,0,4-1.8,4-4l0,0C276.3,184.3,274.5,182.5,272.2,182.5L272.2,182.5z
			 M259.2,182.5c-2.3,0-4,1.8-4,4s1.8,4,4,4c2.3,0,4-1.8,4-4l0,0C263.2,184.3,261.4,182.5,259.2,182.5L259.2,182.5L259.2,182.5z"/>
		<path d="M321.1,127.6H182.9c-3.7,0-6.6,3-6.6,6.6v27.6c0,3.7,3,6.6,6.6,6.6H321c3.7,0,6.6-3,6.6-6.6v-27.6
			C327.7,130.6,324.7,127.6,321.1,127.6z M322.9,161.9c0,1-0.9,1.9-1.9,1.9H182.9c-1,0-1.9-0.9-1.9-1.9l0,0v-27.6
			c0-1,0.9-1.9,1.9-1.9l0,0H321c1,0,1.9,0.9,1.9,1.9V161.9z M220.9,138.4h-31.1c-1.5,0-2.6,1.2-2.6,2.6c0,1.5,1.2,2.6,2.6,2.6h31.1
			c1.5,0,2.6-1.2,2.6-2.6C223.5,139.6,222.4,138.4,220.9,138.4z M311.4,138.1c-2.3,0-4,1.8-4,4c0,2.3,1.8,4,4,4c2.3,0,4-1.8,4-4l0,0
			C315.5,140,313.7,138.1,311.4,138.1L311.4,138.1L311.4,138.1z M298.4,138.1c-2.3,0-4,1.8-4,4c0,2.3,1.8,4,4,4c2.3,0,4-1.8,4-4l0,0
			C302.4,140,300.6,138.1,298.4,138.1L298.4,138.1L298.4,138.1z"/>
		<path d="M321.1,83.3H182.9c-3.7,0-6.6,3-6.6,6.6v27.6c0,3.7,3,6.6,6.6,6.6H321c3.7,0,6.6-3,6.6-6.6V89.9
			C327.7,86.2,324.7,83.3,321.1,83.3z M322.9,117.5c0,1-0.9,1.9-1.9,1.9H182.9c-1,0-1.9-0.9-1.9-1.9l0,0V89.9c0-1,0.9-1.9,1.9-1.9
			l0,0H321c1,0,1.9,0.9,1.9,1.9V117.5z M220.9,94.1h-31.1c-1.5,0.1-2.6,1.3-2.6,2.8c0.1,1.4,1.2,2.5,2.6,2.6h31.1
			c1.5-0.1,2.6-1.3,2.6-2.8C223.4,95.3,222.3,94.1,220.9,94.1z M311.4,93.8c-2.3,0-4,1.8-4,4s1.8,4,4,4c2.3,0,4-1.8,4-4l0,0
			C315.5,95.6,313.7,93.8,311.4,93.8L311.4,93.8L311.4,93.8z M298.4,93.8c-2.3,0-4,1.8-4,4s1.8,4,4,4c2.3,0,4-1.8,4-4l0,0
			C302.4,95.6,300.6,93.8,298.4,93.8L298.4,93.8L298.4,93.8z M285.3,93.8c-2.3,0-4,1.8-4.1,4s1.8,4,4,4.1c2.3,0,4-1.8,4.1-4l0,0
			C289.3,95.6,287.6,93.8,285.3,93.8L285.3,93.8z M272.2,93.8c-2.3,0-4,1.8-4,4s1.8,4,4,4c2.3,0,4-1.8,4-4l0,0
			C276.3,95.6,274.5,93.8,272.2,93.8L272.2,93.8z M259.2,93.8c-2.3,0-4,1.8-4,4s1.8,4,4,4c2.3,0,4-1.8,4-4l0,0
			C263.2,95.6,261.4,93.8,259.2,93.8L259.2,93.8L259.2,93.8z"/>
		<path d="M143.2,250.4h-5.3c0-33.5,14.7-65.4,40.3-87l3.4,4C157.3,188,143.2,218.4,143.2,250.4z"/>
		<path d="M252,364.4c-16.7,0.1-33.2-3.7-48.4-10.7l2.3-4.7c28.9,13.5,62.1,13.7,91.1,0.5l2.2,4.8
			C284.4,361,268.3,364.5,252,364.4z"/>
		<path d="M366.1,250.4h-5.3c0-32.5-14.5-63.3-39.6-84l3.3-4C350.9,184,366.1,216.3,366.1,250.4z"/>
	</g>
</g>
</svg>
