<?xml version="1.0" encoding="utf-8"?>
<!-- Generator: Adobe Illustrator 25.0.1, SVG Export Plug-In . SVG Version: 6.00 Build 0)  -->
<svg version="1.1" fill="#8052FD" id="Capa_1" xmlns="http://www.w3.org/2000/svg" xmlns:xlink="http://www.w3.org/1999/xlink" x="0px" y="0px"
	 viewBox="0 0 512 512" style="enable-background:new 0 0 512 512;" xml:space="preserve">

	
	


<g>
	<g>
		<path d="M500.5,262.5H416c14.1-32.1,12.6-58,7.3-75.6c-9.2-31.3-40.1-65.3-85.9-65.3c-12.2,0-24.4,2.3-37,6.9
			c-21.8,8-36.3,16.8-42.8,21.4c-6.5-4.6-20.6-13.4-42.8-21.4c-12.6-4.6-25.2-6.9-37-6.9c-45.8,0-76.7,34-85.9,65.3
			c-5.3,18.7-7.3,47,10.7,82.5H11.2c-3.4,0-6.1,2.7-6.1,6.1s2.7,6.1,6.1,6.1h98.6c1.9,3.4,4.2,6.9,6.9,10.3
			c39.7,57.3,126,119.5,141.7,123.3v0.4c0,0,0.4,0,0.8-0.4c0.4,0,0.8,0,1.1,0v-0.4c13.4-6.5,96.2-59.9,139.7-123.3
			c4.2-5.7,7.6-11.5,10.7-17.2h90.6c3.4,0,6.1-2.7,6.1-6.1S503.9,262.5,500.5,262.5z M388.9,285c-40.5,59.2-114.9,106.9-131,117.2
			c-16.4-10.3-90.5-58.4-131.3-117.2c-0.8-1.1-1.5-2.3-2.3-3.4h56.1c2.3,0,4.6-1.1,5.7-3.4l25.6-50.4l40.1,102.7
			c0.8,2.3,3.4,3.8,5.7,3.8c0,0,0,0,0.4,0c2.7,0,5-1.9,5.7-4.6l35.1-120.3l18.7,60.7c0.8,2.3,2.7,3.8,5,4.2s4.6-0.8,6.1-2.7
			l14.9-21.8l12.6,21.4c1.1,1.9,3.1,3.1,5.3,3.1h34.4C393.5,278.1,391.2,281.6,388.9,285z M402.6,262.5h-37.4l-15.7-26.7
			c-1.1-1.9-3.1-3.1-5.3-3.1s-4.2,0.8-5.3,2.7l-13,19.1l-21-68.3c-0.8-2.7-3.4-4.2-6.1-4.6c-2.7,0-5.3,1.9-6.1,4.6l-35.5,122.6
			l-38.6-98.5c-0.8-2.3-3.1-3.8-5.3-3.8c-2.7,0-4.6,1.1-5.7,3.4L177.3,269h-60.7c-15.3-27.9-19.5-54.6-12.6-78.7
			c8-27.1,34.4-56.1,74.1-56.1c10.7,0,21.8,2.3,32.8,6.1c27.9,10.3,42.8,22.1,43.1,22.1c2.3,1.9,5.3,1.9,7.6,0
			c0,0,14.9-11.8,43.1-22.1c11.1-4.2,22.1-6.1,32.8-6.1c39.3,0,66.1,29,74.1,56.1C418.3,212.5,414.8,236.9,402.6,262.5z"/>
	</g>
</g>
</svg>
