<?xml version="1.0" encoding="utf-8"?>
<!-- Generator: Adobe Illustrator 25.0.1, SVG Export Plug-In . SVG Version: 6.00 Build 0)  -->
<svg version="1.1" fill="#8052FD" id="Layer_1" xmlns="http://www.w3.org/2000/svg" xmlns:xlink="http://www.w3.org/1999/xlink" x="0px" y="0px"
	 viewBox="0 0 512 512" style="enable-background:new 0 0 512 512;" xml:space="preserve">

	
	


<path d="M208.9,241.7h23.6c3.2,0,5.9-2.6,5.9-5.9c0-3.2-2.6-5.9-5.9-5.9h-23.6c-3.2,0-5.9,2.6-5.9,5.9
	C203,239.1,205.6,241.7,208.9,241.7z"/>
<path d="M179.4,241.7h5.9c3.2,0,5.9-2.6,5.9-5.9c0-3.2-2.6-5.9-5.9-5.9h-5.9c-3.2,0-5.9,2.6-5.9,5.9
	C173.5,239.1,176.1,241.7,179.4,241.7z"/>
<path d="M397.6,365.6c0,0.1-0.2,14.2-8.5,18.3c-2.9,1.5-4.1,5-2.6,7.9s5,4.1,7.9,2.6c14.9-7.4,15.1-28,15.1-28.8
	c0-3.2-2.6-5.9-5.9-5.9C400.2,359.7,397.6,362.3,397.6,365.6z"/>
<path d="M427.1,371.5c-3.2,0-5.9,2.6-5.9,5.9c0,0.1-0.2,14.2-8.5,18.3c-2.9,1.5-4.1,5-2.6,7.9c1.5,2.9,5,4.1,7.9,2.6
	c14.9-7.4,15.1-28,15.1-28.8C433,374.1,430.3,371.5,427.1,371.5z"/>
<path d="M108.6,359.7c-3.2,0-5.9,2.6-5.9,5.9c0,0.9,0.1,21.4,15.1,28.9c2.9,1.5,6.4,0.3,7.9-2.6
	c1.5-2.9,0.3-6.4-2.6-7.9c-8.2-4.1-8.5-18.1-8.5-18.3C114.5,362.3,111.8,359.7,108.6,359.7z"/>
<path d="M94.1,406.3c2.9,1.5,6.4,0.3,7.9-2.6c1.5-2.9,0.3-6.4-2.6-7.9c-8.2-4.1-8.5-18.1-8.5-18.3
	c0-3.2-2.6-5.9-5.9-5.9c-3.2,0-5.9,2.6-5.9,5.9C79.1,378.3,79.3,398.8,94.1,406.3z"/>
<path d="M250.1,324.3H262v11.8h-11.8V324.3z"/>
<path d="M250.1,300.7H262v11.8h-11.8V300.7z"/>
<path d="M250.1,347.9H262v11.8h-11.8V347.9z"/>
<path d="M273.7,359.7h11.8v11.8h-11.8V359.7z"/>
<path d="M297.3,359.7h11.8v11.8h-11.8V359.7z"/>
<path d="M226.6,359.7h11.8v11.8h-11.8V359.7z"/>
<path d="M202.9,359.7h11.8v11.8h-11.8V359.7z"/>
<path d="M144,365.6c0,13,10.6,23.6,23.6,23.6s23.6-10.6,23.6-23.6S180.5,342,167.5,342S144,352.6,144,365.6z
	 M179.4,365.6c0,6.5-5.3,11.8-11.8,11.8c-6.5,0-11.8-5.3-11.8-11.8c0-6.5,5.3-11.8,11.8-11.8C174.1,353.8,179.4,359.1,179.4,365.6z"
	/>
<path d="M368.1,365.6c0-13-10.6-23.6-23.6-23.6c-13.1,0-23.6,10.6-23.6,23.6s10.6,23.6,23.6,23.6
	C357.6,389.2,368.1,378.6,368.1,365.6z M332.7,365.6c0-6.5,5.3-11.8,11.8-11.8c6.5,0,11.8,5.3,11.8,11.8c0,6.5-5.3,11.8-11.8,11.8
	C338,377.4,332.7,372.1,332.7,365.6z"/>
<path d="M138.1,258.8V283c0,3.2,2.6,5.9,5.9,5.9h224.1c3.2,0,5.9-2.6,5.9-5.9v-22.6c37.6-11,59-39.1,59-77.7
	c0-37.5-37.5-76.5-74.2-77.3c-9.5-0.6-19,1-27.9,4.4C321.7,78.9,288.4,53,256,53c-31.1,0-62.8,19.8-74.1,45.2
	c-6.4-2.7-13.3-4-20.3-3.9c-38.2,0-82.6,31.4-82.6,71.7v16.7C79.1,215.6,102.6,245.6,138.1,258.8z M149.8,277.1v-82.5h11.8v17.7
	c0,3.2,2.6,5.9,5.9,5.9H256v35.4h-88.5c-3.2,0-5.9,2.6-5.9,5.9v17.7H149.8z M338.6,194.6v11.8H173.5v-11.8H338.6z M267.8,218.1h11.8
	v35.4h-11.8V218.1z M303.2,218.1v35.4h-11.8v-35.4L303.2,218.1L303.2,218.1z M262,265.3h76.7v11.8H173.5v-11.8H262z M326.8,253.5
	H315v-35.4h11.8V253.5z M362.2,277.1h-11.8v-17.7c0-3.2-2.6-5.9-5.9-5.9h-5.9v-35.4h5.9c3.2,0,5.9-2.6,5.9-5.9v-17.7h11.8V277.1z
	 M90.9,166c0-33.2,38.7-59.9,70.8-59.9c7.4,0,14.7,1.9,21.2,5.4c1.5,0.7,3.3,0.7,4.8,0c1.5-0.7,2.7-2.1,3.2-3.7
	c7.2-23.7,36.4-43,65.2-43c29,0,60,25.8,65,54.1c0.4,1.8,1.6,3.2,3.2,4.1c1.7,0.8,3.7,0.9,5.4,0.1c9-4.4,18.9-6.5,29-5.9
	c30.4,0.7,62.6,34.4,62.6,65.6c0,41.7-26.9,58.5-47.2,65.3v-59.4c0-3.2-2.6-5.9-5.9-5.9H144c-3.2,0-5.9,2.6-5.9,5.9v57.4
	c-24.5-10.6-47.2-33-47.2-63.3C90.9,182.8,90.9,166,90.9,166z"/>
</svg>
