<?xml version="1.0" encoding="utf-8"?>
<!-- Generator: Adobe Illustrator 25.0.1, SVG Export Plug-In . SVG Version: 6.00 Build 0)  -->
<svg version="1.1" fill="#8052FD" id="Layer_1" xmlns="http://www.w3.org/2000/svg" xmlns:xlink="http://www.w3.org/1999/xlink" x="0px" y="0px"
	 viewBox="0 0 512 512" style="enable-background:new 0 0 512 512;" xml:space="preserve">

	
	


<g id="surface1">
	<path d="M271.9,222.3c0,2.7,2.2,4.9,4.9,4.9h8.1v57.7h-57.7v-57.7H256c2.7,0,4.9-2.2,4.9-4.9s-2.2-4.9-4.9-4.9h-31.1
		c-4.1,0-7.5,3.4-7.5,7.5v62.2c0,4.1,3.4,7.5,7.5,7.5h62.2c4.1,0,7.5-3.4,7.5-7.5v-62.2c0-4.1-3.4-7.5-7.5-7.5h-10.4
		C274.1,217.4,271.9,219.6,271.9,222.3z"/>
	<path d="M116.9,109.5c-4.1,0-7.5,3.4-7.5,7.5v33.7c0,4.1,3.4,7.5,7.5,7.5h33.7c4.1,0,7.5-3.4,7.5-7.5V117
		c0-4.1-3.4-7.5-7.5-7.5H116.9z M148.4,148.4h-29.2v-29.2h29.2V148.4z"/>
	<path d="M150.6,353.9h-33.7c-4.1,0-7.5,3.4-7.5,7.5v33.7c0,4.1,3.4,7.5,7.5,7.5h33.7c4.1,0,7.5-3.4,7.5-7.5v-33.7
		C158.1,357.3,154.7,353.9,150.6,353.9z M148.4,392.8h-29.2v-29.2h29.2V392.8z"/>
	<path d="M347.1,177.5h62.2c7,0,12.6-5.6,12.6-12.6v-62.2c0-7-5.6-12.6-12.6-12.6h-62.2c-7,0-12.6,5.6-12.6,12.6V129
		h-58.4c-2.7,0-4.9,2.2-4.9,4.9V198h-26.6v-19c5.6-2,9.7-7.4,9.7-13.7c0-8-6.5-14.6-14.6-14.6s-14.6,6.5-14.6,14.6
		c0,6.4,4.1,11.7,9.7,13.7v19h-21.7c-8.4,0-15.2,6.8-15.2,15.2v28.2h-59.3v-63.9h26.3c7,0,12.6-5.6,12.6-12.6v-12.6
		c0-2.7-2.2-4.9-4.9-4.9s-4.9,2.2-4.9,4.9v12.6c0,1.6-1.3,2.9-2.9,2.9h-62.2c-1.6,0-2.9-1.3-2.9-2.9v-62.2c0-1.6,1.3-2.9,2.9-2.9
		h62.2c1.6,0,2.9,1.3,2.9,2.9v28.9c0,2.7,2.2,4.9,4.9,4.9s4.9-2.2,4.9-4.9v-28.9c0-7-5.6-12.6-12.6-12.6h-62.2
		c-7,0-12.6,5.6-12.6,12.6v62.2c0,7,5.6,12.6,12.6,12.6H129v68.7c0,2.7,2.2,4.9,4.9,4.9H198v20.8h-6.7c-2-5.6-7.4-9.7-13.7-9.7
		c-8,0-14.6,6.5-14.6,14.6s6.5,14.6,14.6,14.6c6.4,0,11.7-4.1,13.7-9.7h6.7v17.2c0,8.4,6.8,15.2,15.2,15.2h21.7v57.8h-57.4v-24.7
		c0-7-5.6-12.6-12.6-12.6h-62.2c-7,0-12.6,5.6-12.6,12.6v62.2c0,7,5.6,12.6,12.6,12.6h62.2c7,0,12.6-5.6,12.6-12.6v-27.8h62.2
		c2.7,0,4.9-2.2,4.9-4.9V314h26.6v21.6c-5.6,2-9.7,7.4-9.7,13.7c0,8,6.5,14.6,14.6,14.6s14.6-6.5,14.6-14.6c0-6.4-4.1-11.7-9.7-13.7
		V314h17.8c8.4,0,15.2-6.8,15.2-15.2v-33.1h59.3v68.8H347c-7,0-12.6,5.6-12.6,12.6v12.6c0,2.7,2.2,4.9,4.9,4.9s4.9-2.2,4.9-4.9
		v-12.6c0-1.6,1.3-2.9,2.9-2.9h62.2c1.6,0,2.9,1.3,2.9,2.9v62.2c0,1.6-1.3,2.9-2.9,2.9h-62.2c-1.6,0-2.9-1.3-2.9-2.9v-28.9
		c0-2.7-2.2-4.9-4.9-4.9s-4.9,2.2-4.9,4.9v28.9c0,7,5.6,12.6,12.6,12.6h62.2c7,0,12.6-5.6,12.6-12.6v-62.2c0-7-5.6-12.6-12.6-12.6
		h-26.3v-73.7c0-2.7-2.2-4.9-4.9-4.9h-64v-16.5h23.1c2,5.6,7.4,9.7,13.7,9.7c8,0,14.6-6.5,14.6-14.6S359,220,350.9,220
		c-6.4,0-11.7,4.1-13.7,9.7H314v-16.5c0-8.4-6.8-15.2-15.2-15.2H281v-59.3h53.5V165C334.5,171.9,340.1,177.5,347.1,177.5z
		 M239.8,160.4c2.7,0,4.9,2.2,4.9,4.9s-2.2,4.9-4.9,4.9s-4.9-2.2-4.9-4.9S237.1,160.4,239.8,160.4z M177.5,281.6
		c-2.7,0-4.9-2.2-4.9-4.9s2.2-4.9,4.9-4.9s4.9,2.2,4.9,4.9S180.2,281.6,177.5,281.6z M167.8,409.4c0,1.6-1.3,2.9-2.9,2.9h-62.2
		c-1.6,0-2.9-1.3-2.9-2.9v-62.2c0-1.6,1.3-2.9,2.9-2.9h62.2c1.6,0,2.9,1.3,2.9,2.9V409.4z M276.1,354.2c-2.7,0-4.9-2.2-4.9-4.9
		s2.2-4.9,4.9-4.9s4.9,2.2,4.9,4.9S278.8,354.2,276.1,354.2z M350.9,229.7c2.7,0,4.9,2.2,4.9,4.9s-2.2,4.9-4.9,4.9s-4.9-2.2-4.9-4.9
		S348.3,229.7,350.9,229.7z M304.3,213.2v85.6c0,3-2.5,5.5-5.5,5.5h-85.6c-3,0-5.5-2.5-5.5-5.5v-85.6c0-3,2.5-5.5,5.5-5.5h85.6
		C301.8,207.7,304.3,210.2,304.3,213.2z M347.1,99.7h62.2c1.6,0,2.9,1.3,2.9,2.9v62.2c0,1.6-1.3,2.9-2.9,2.9h-62.2
		c-1.6,0-2.9-1.3-2.9-2.9v-31c0-0.1,0-0.1,0-0.1v-0.1v-31C344.2,101,345.5,99.7,347.1,99.7z"/>
	<path d="M361.4,158.1h33.7c4.1,0,7.5-3.4,7.5-7.5v-33.7c0-4.1-3.4-7.5-7.5-7.5h-33.7c-4.1,0-7.5,3.4-7.5,7.5v33.7
		C353.9,154.7,357.3,158.1,361.4,158.1z M363.6,119.2h29.2v29.2h-29.2V119.2z"/>
	<path d="M395.1,402.5c4.1,0,7.5-3.4,7.5-7.5v-33.7c0-4.1-3.4-7.5-7.5-7.5h-33.7c-4.1,0-7.5,3.4-7.5,7.5V395
		c0,4.1,3.4,7.5,7.5,7.5H395.1z M363.6,363.6h29.2v29.2h-29.2V363.6z"/>
</g>
</svg>
