<?xml version="1.0" encoding="utf-8"?>
<!-- Generator: Adobe Illustrator 25.0.1, SVG Export Plug-In . SVG Version: 6.00 Build 0)  -->
<svg version="1.1" fill="#8052FD" id="Capa_1" xmlns="http://www.w3.org/2000/svg" xmlns:xlink="http://www.w3.org/1999/xlink" x="0px" y="0px"
	 viewBox="0 0 512 512" style="enable-background:new 0 0 512 512;" xml:space="preserve">
<g>
	<g>
		<path d="M361,206.2c-1.6,0-3,0.6-4.1,1.7l-20.7,20.7c-26.1-44.3-83.2-59-127.6-32.8c-13.5,8-24.8,19.3-32.8,32.8
			L149.2,202c-1.1-1.1-2.6-1.7-4.1-1.7h-29.2V212h26.7l27.5,27.5c-5,11.6-7.5,24.1-7.5,36.7h11.7c-0.1-45.1,36.5-81.7,81.5-81.7
			c21.1,0,41.4,8.1,56.7,22.8l-40.4,40.4c-13.5-8.9-31.7-5.2-40.6,8.3c-8.9,13.5-5.2,31.7,8.3,40.6s31.7,5.2,40.6-8.3
			c6.5-9.8,6.5-22.5,0-32.3l39.9-40c11.3,14.3,17.4,32,17.4,50.2h11.7c0-12.7-2.5-25.1-7.5-36.7l21.6-21.6h32.6v-11.7L361,206.2
			L361,206.2z M256,299.5c-9.6,0-17.5-7.9-17.5-17.5s7.9-17.5,17.5-17.5c2.6,0,5.1,0.6,7.5,1.8l-11.6,11.6l8.2,8.2l11.6-11.6
			c1.2,2.3,1.7,4.9,1.8,7.5C273.5,291.6,265.6,299.5,256,299.5z"/>
	</g>
</g>
<g>
	<g>
		<rect x="191.8" y="293.7" width="11.7" height="11.7"/>
	</g>
</g>
<g>
	<g>
		<rect x="145.1" y="293.7" width="35" height="11.7"/>
	</g>
</g>
<g>
	<g>
		<path d="M425.3,106.9H86.7c-3.2,0-5.8,2.6-5.8,5.8v256.8c0,3.2,2.6,5.8,5.8,5.8h151.9c-12.9,9.4-15.7,27.4-6.3,40.2
			c0.1,0.2,0.3,0.4,0.5,0.6H221c-1.8,0-3.4,0.8-4.6,2.2l-23.3,29.2c-2,2.5-1.6,6.2,0.9,8.2c1,0.8,2.3,1.3,3.6,1.3h116.7
			c3.2,0,5.8-2.6,5.8-5.8c0-1.3-0.5-2.6-1.3-3.6l-23.3-29.2c-1.1-1.4-2.8-2.2-4.6-2.2h-11.8c9.7-12.6,7.4-30.6-5.2-40.4
			c-0.2-0.1-0.4-0.3-0.6-0.5h151.9c3.2,0,5.8-2.6,5.8-5.8V112.7C431.1,109.5,428.5,106.9,425.3,106.9z M288.2,427.9l14,17.5h-92.5
			l14-17.5H288.2z M273.5,398.7c0,9.6-7.9,17.5-17.5,17.5s-17.5-7.9-17.5-17.5s7.9-17.5,17.5-17.5S273.5,389,273.5,398.7z
			 M419.4,363.7H92.6V118.6h326.8V363.7L419.4,363.7z"/>
	</g>
</g>
<g>
	<g>
		<path d="M407.7,124.4H104.2c-3.2,0-5.8,2.6-5.8,5.8V352c0,3.2,2.6,5.8,5.8,5.8h303.5c3.2,0,5.8-2.6,5.8-5.8V130.2
			C413.6,127,411,124.4,407.7,124.4z M401.9,346.2H110.1V171.1h291.8V346.2L401.9,346.2z M401.9,159.4H110.1v-23.3h291.8V159.4
			L401.9,159.4z"/>
	</g>
</g>
<g>
	<g>
		<rect x="115.9" y="141.9" width="11.7" height="11.7"/>
	</g>
</g>
<g>
	<g>
		<rect x="139.2" y="141.9" width="11.7" height="11.7"/>
	</g>
</g>
<g>
	<g>
		<rect x="162.6" y="141.9" width="11.7" height="11.7"/>
	</g>
</g>
<g>
	<g>
		<rect x="384.4" y="141.9" width="11.7" height="11.7"/>
	</g>
</g>
<g>
	<g>
		<rect x="256" y="317" width="11.7" height="11.7"/>
	</g>
</g>
<g>
	<g>
		<rect x="279.3" y="317" width="23.3" height="11.7"/>
	</g>
</g>
<g>
	<g>
		<rect x="314.3" y="317" width="11.7" height="11.7"/>
	</g>
</g>
<g>
	<g>
		<rect x="337.7" y="317" width="35" height="11.7"/>
	</g>
</g>
</svg>