<?xml version="1.0" encoding="utf-8"?>
<!-- Generator: Adobe Illustrator 25.0.1, SVG Export Plug-In . SVG Version: 6.00 Build 0)  -->
<svg version="1.1" fill="#8052FD" id="Layer_1" xmlns="http://www.w3.org/2000/svg" xmlns:xlink="http://www.w3.org/1999/xlink" x="0px" y="0px"
	 viewBox="0 0 512 512" style="enable-background:new 0 0 512 512;" xml:space="preserve">

	
	


<path d="M206.3,275.3c-20.2,0-36.7-16.4-36.7-36.7V224c0-20.2,16.4-36.7,36.7-36.7c20.2,0,36.7,16.4,36.7,36.7v14.7
	C243,258.9,226.6,275.3,206.3,275.3z M206.3,202c-12.1,0-22,9.9-22,22v14.7c0,12.1,9.9,22,22,22c12.1,0,22-9.9,22-22V224
	C228.3,211.9,218.5,202,206.3,202z"/>
<path d="M228.3,348.7h-44c-24.8,0-41.2-16.1-41.8-16.8c-1.4-1.4-2.1-3.2-2.1-5.2v-25.4c0-4.9,2.4-9.5,6.5-12.2l37.5-25
	v-3.4H199v7.3c0,2.4-1.2,4.7-3.3,6.1L155,301.3v22.1c4.4,3.5,15.2,10.7,29.3,10.7h44c14.2,0,25-7.2,29.3-10.7v-22.1l-40.7-27.2
	c-2-1.4-3.3-3.7-3.3-6.1v-7.3h14.7v3.4l37.5,25c4.1,2.7,6.5,7.3,6.5,12.2v25.4c0,2-0.8,3.8-2.1,5.2
	C269.5,332.5,253.1,348.7,228.3,348.7z"/>
<path d="M213.7,414.7H199c-2.8,0-5.3-1.6-6.6-4.1L182.2,390c-4.1-0.9-8.2-2-12.2-3.3l-19.2,12.7
	c-2.3,1.5-5.3,1.6-7.7,0.2l-12.7-7.3c-2.4-1.4-3.8-4-3.7-6.8l1.4-22.9c-3.2-2.8-6.2-5.8-9-9L96.1,355c-2.8,0.1-5.4-1.3-6.8-3.7
	L82,338.7c-1.4-2.4-1.3-5.4,0.2-7.7l12.7-19.2c-1.3-4-2.4-8.1-3.3-12.3l-20.6-10.3c-2.5-1.3-4.1-3.8-4.1-6.6V268
	c0-2.8,1.6-5.3,4-6.6l20.6-10.3c0.9-4.1,2-8.2,3.3-12.2l-12.7-19.2c-1.5-2.3-1.6-5.3-0.2-7.7l7.3-12.7c1.4-2.4,4.1-3.8,6.8-3.7
	L119,197c2.8-3.2,5.9-6.2,9-9l-1.4-22.9c-0.2-2.8,1.2-5.4,3.7-6.8L143,151c2.4-1.4,5.4-1.3,7.7,0.2l19.2,12.7
	c4-1.3,8.1-2.4,12.2-3.3l10.3-20.5c1.3-2.5,3.8-4.1,6.6-4.1h14.7c2.8,0,5.3,1.6,6.6,4.1l10.3,20.6c4.1,0.9,8.2,2,12.2,3.3l19.2-12.7
	c2.3-1.5,5.3-1.6,7.7-0.2l12.7,7.3c2.4,1.4,3.8,4,3.7,6.8l-1.4,22.9c3.2,2.8,6.2,5.9,9,9l22.9-1.4c2.7-0.2,5.4,1.2,6.8,3.7l7.3,12.7
	c1.4,2.4,1.3,5.4-0.2,7.7l-12.7,19.2c1.3,4,2.4,8.1,3.3,12.2l20.6,10.3c2.5,1.3,4.1,3.8,4.1,6.6v14.7c0,2.8-1.6,5.3-4.1,6.6
	L321,299.5c-0.9,4.1-2,8.2-3.3,12.3l12.7,19.2c1.5,2.3,1.6,5.3,0.2,7.7l-7.3,12.7c-1.4,2.4-4,3.8-6.8,3.7l-22.9-1.4
	c-2.8,3.2-5.9,6.2-9,9l1.4,22.9c0.2,2.8-1.2,5.4-3.7,6.8l-12.7,7.3c-2.4,1.4-5.4,1.3-7.7-0.2l-19.2-12.7c-4,1.3-8.1,2.4-12.2,3.3
	l-10.3,20.6C219,413.1,216.4,414.7,213.7,414.7z M203.5,400h5.6l9.9-19.7c1-2.1,3-3.5,5.3-3.9c5.7-1,11.4-2.5,17-4.6
	c2.2-0.8,4.6-0.5,6.5,0.8l18.4,12.2l4.9-2.8l-1.3-22c-0.1-2.3,0.8-4.5,2.6-6c4.5-3.8,8.7-8,12.5-12.5c1.5-1.8,3.8-2.7,6.1-2.6
	l22,1.3l2.8-4.9l-12.2-18.4c-1.3-1.9-1.6-4.4-0.8-6.5c2-5.6,3.6-11.3,4.6-17c0.4-2.3,1.9-4.3,3.9-5.3l19.7-9.9v-5.6l-19.7-9.9
	c-2.1-1-3.5-3-3.9-5.3c-1-5.7-2.5-11.4-4.6-17c-0.8-2.2-0.5-4.6,0.8-6.5l12.2-18.4l-2.8-4.9l-22,1.3c-2.3,0.2-4.6-0.8-6-2.6
	c-3.8-4.5-8-8.7-12.5-12.5c-1.8-1.5-2.7-3.7-2.6-6.1l1.3-22l-4.9-2.8l-18.4,12.2c-1.9,1.3-4.4,1.6-6.5,0.8c-5.6-2-11.3-3.6-17-4.6
	c-2.3-0.4-4.2-1.9-5.3-3.9l-9.9-19.7h-5.6l-9.9,19.7c-1,2.1-3,3.5-5.3,3.9c-5.7,1-11.4,2.5-17,4.6c-2.2,0.8-4.6,0.5-6.5-0.8
	L146.4,166l-4.9,2.8l1.3,22c0.1,2.3-0.8,4.6-2.6,6.1c-4.5,3.8-8.7,8-12.5,12.5c-1.5,1.8-3.7,2.8-6.1,2.6l-22-1.3l-2.8,4.8l12.2,18.4
	c1.3,1.9,1.6,4.4,0.8,6.5c-2,5.6-3.6,11.3-4.6,17c-0.4,2.3-1.9,4.2-3.9,5.3l-19.7,9.9v5.6l19.7,9.9c2.1,1,3.5,3,3.9,5.3
	c1,5.7,2.5,11.4,4.6,17c0.8,2.2,0.5,4.6-0.8,6.5L97,335.2l2.8,4.9l22-1.3c2.3-0.1,4.6,0.8,6,2.6c3.8,4.5,8.1,8.7,12.5,12.5
	c1.8,1.5,2.8,3.7,2.6,6.1l-1.3,22l4.9,2.8l18.4-12.2c1.9-1.3,4.4-1.6,6.5-0.8c5.6,2,11.3,3.6,17,4.6c2.3,0.4,4.3,1.9,5.3,3.9
	L203.5,400z"/>
<path d="M118.3,268H133v14.7h-14.7V268z"/>
<path d="M279.7,268h14.7v14.7h-14.7V268z"/>
<path d="M351,215.3c-3.4,0-6.4-2.3-7.2-5.8c-0.9-4,1.6-7.9,5.6-8.7c5.8-1.3,11.3-3.6,16.4-6.8c2.2-1.4,4.9-1.5,7.2-0.4
	l10.5,5.2l2.9-2.9l-5.2-10.5c-1.2-2.3-1-5.1,0.4-7.2c3.2-5.1,5.5-10.6,6.8-16.4c0.6-2.5,2.4-4.6,4.8-5.4l11.1-3.7v-4.1l-11.1-3.7
	c-2.4-0.8-4.3-2.9-4.8-5.4c-1.3-5.8-3.6-11.3-6.8-16.4c-1.4-2.2-1.5-4.9-0.4-7.2l5.2-10.5l-2.9-2.9l-10.5,5.2c-2.3,1.1-5,1-7.2-0.4
	c-5.1-3.2-10.6-5.5-16.4-6.8c-2.5-0.6-4.6-2.4-5.4-4.8l-3.7-11.1h-4.1l-3.7,11.1c-0.8,2.4-2.9,4.3-5.4,4.8
	c-5.8,1.3-11.3,3.6-16.4,6.8c-2.2,1.4-4.9,1.5-7.2,0.4l-10.5-5.2l-2.9,2.9l5.2,10.5c1.2,2.3,1,5.1-0.4,7.2
	c-3.2,5.1-5.5,10.6-6.8,16.4c-0.9,4-4.8,6.5-8.7,5.6c-4-0.9-6.5-4.8-5.6-8.7c1.4-6.1,3.6-12,6.6-17.5l-5.8-11.6
	c-1.4-2.8-0.9-6.2,1.4-8.5l10.4-10.4c2.2-2.2,5.6-2.8,8.5-1.4l11.6,5.8c4.3-2.4,8.7-4.2,13.4-5.6L324,75c1-3,3.8-5,7-5h14.7
	c3.2,0,6,2,7,5l4.1,12.3c4.6,1.4,9.1,3.2,13.4,5.6l11.6-5.8c2.8-1.4,6.2-0.9,8.5,1.4l10.4,10.4c2.2,2.2,2.8,5.6,1.4,8.5l-5.8,11.6
	c2.3,4.3,4.2,8.7,5.6,13.4l12.3,4.1c3,1,5,3.8,5,6.9V158c0,3.2-2,6-5,7l-12.3,4.1c-1.4,4.6-3.2,9.1-5.6,13.4l5.8,11.6
	c1.4,2.8,0.9,6.2-1.4,8.5l-10.4,10.4c-2.2,2.2-5.6,2.8-8.5,1.4l-11.6-5.8c-5.5,3.1-11.4,5.3-17.5,6.6
	C352.1,215.2,351.5,215.3,351,215.3z"/>
<path d="M338.3,187.3c-4.1,0-7.3-3.3-7.3-7.3s3.3-7.3,7.3-7.3c12.1,0,22-9.9,22-22c0-12.1-9.9-22-22-22
	c-12.1,0-22,9.9-22,22c0,4-3.3,7.3-7.3,7.3s-7.3-3.3-7.3-7.3c0-20.2,16.4-36.7,36.7-36.7c20.2,0,36.7,16.4,36.7,36.7
	C375,170.9,358.6,187.3,338.3,187.3z"/>
<path d="M345.7,422H331c-3.2,0-6-2-7-5l-4.1-12.3c-6.1-1.8-11.8-4.4-17.1-7.8c-3.4-2.2-4.4-6.7-2.2-10.1
	c2.2-3.4,6.7-4.4,10.1-2.2c4.9,3.2,10.4,5.5,16.4,6.8c2.5,0.6,4.5,2.4,5.3,4.8l3.7,11.1h4.1l3.7-11.1c0.8-2.4,2.8-4.3,5.3-4.8
	c6-1.3,11.5-3.6,16.4-6.8c2.2-1.4,5-1.6,7.3-0.4l10.4,5.3l2.9-2.9l-5.3-10.4c-1.2-2.3-1-5.1,0.4-7.3c3.2-4.9,5.5-10.4,6.8-16.4
	c0.6-2.5,2.4-4.5,4.8-5.3l11-3.7v-4.1l-11.1-3.7c-2.4-0.8-4.3-2.8-4.8-5.3c-1.3-6-3.6-11.5-6.8-16.4c-1.4-2.2-1.6-5-0.4-7.3
	l5.3-10.4l-2.9-2.9l-10.4,5.3c-2.3,1.2-5,1-7.2-0.4c-2.9-1.8-5.6-3.2-8.3-4.3c-3.8-1.5-5.6-5.8-4.1-9.5c1.5-3.8,5.8-5.6,9.5-4.1
	c2.3,0.9,4.7,2,7,3.4l11.6-5.8c2.8-1.4,6.2-0.9,8.5,1.4l10.4,10.4c2.2,2.2,2.8,5.7,1.4,8.5l-5.8,11.6c2.3,4.2,4.2,8.7,5.6,13.4
	L414,327c3,1,5,3.8,5,7v14.7c0,3.2-2,6-5,7l-12.3,4.1c-1.4,4.7-3.2,9.2-5.6,13.4l5.8,11.6c1.4,2.8,0.9,6.2-1.4,8.5l-10.4,10.4
	c-2.3,2.2-5.7,2.8-8.5,1.4l-11.6-5.8c-4.2,2.3-8.7,4.2-13.4,5.6l-4.1,12.3C351.6,420,348.8,422,345.7,422z"/>
<path d="M338.3,378c-4.1,0-7.3-3.3-7.3-7.3s3.3-7.3,7.3-7.3c12.1,0,22-9.9,22-22c0-12.1-9.9-22-22-22
	c-4.1,0-7.3-3.3-7.3-7.3s3.3-7.3,7.3-7.3c20.2,0,36.7,16.4,36.7,36.7C375,361.6,358.6,378,338.3,378z"/>
</svg>
