<?xml version="1.0" encoding="utf-8"?>
<!-- Generator: Adobe Illustrator 25.0.1, SVG Export Plug-In . SVG Version: 6.00 Build 0)  -->
<svg version="1.1" fill="#8052FD" id="Capa_1" xmlns="http://www.w3.org/2000/svg" xmlns:xlink="http://www.w3.org/1999/xlink" x="0px" y="0px"
	 viewBox="0 0 512 512" style="enable-background:new 0 0 512 512;" xml:space="preserve">

	
	


<path d="M152.6,133.3c-1.8,0.1-2.7,2.2-1.4,3.4l10.2,10.3l-2.6,2.7c0,0-6.8,7-8.1,8.2c-39.6,39.9-53.6,98-36.4,153.6
	c1.8,5.9,4.1,11.6,6.9,17.2c23.5,46.7,66.5,77.5,116.4,84c57.5,7.5,113.7-17.7,146.6-68.3c9.8-15,16.7-32,20.2-49.7
	c10.2-51.3-5.3-101.6-40.9-137.1c-11.6-11.5-24.7-21-39.1-28.2v19.8c10,5.8,19,12.7,26.9,20.5c51.8,51.8,51.8,136.3,0,188.1
	c-51.8,51.8-136.2,51.8-188.1,0c-51.6-51.7-51.8-135.9-0.4-187.8l10.7-10.8l10.2,9.8c1.4,1.4,3.7,0.4,3.7-1.5l1.8-32.7
	c0.1-1.8-1.4-3.2-3.1-3.1L152.6,133.3z"/>
</svg>
