<?xml version="1.0" encoding="utf-8"?>
<!-- Generator: Adobe Illustrator 25.0.1, SVG Export Plug-In . SVG Version: 6.00 Build 0)  -->
<svg version="1.1" fill="#8052FD" id="Layer_1" xmlns="http://www.w3.org/2000/svg" xmlns:xlink="http://www.w3.org/1999/xlink" x="0px" y="0px"
	 viewBox="0 0 503.2 503.2" style="enable-background:new 0 0 503.2 503.2;" xml:space="preserve">

	
	


<g id="Layer_2_1_">
	<g id="Calque_1">
		<path d="M251.7,347.4c-3.9,0-7.1-3.2-7.1-7.1V213.2c0-3.9,3.2-7.1,7.1-7.1c3.9,0,7.1,3.2,7.1,7.1v127.1
			C258.7,344.3,255.5,347.4,251.7,347.4L251.7,347.4z"/>
		<path d="M251.7,458c-66.5,0-120.6-54-120.6-120.5c0-44.1,24.1-84.7,62.8-105.9c3.4-1.9,7.8-0.7,9.6,2.8
			c1.9,3.4,0.7,7.8-2.8,9.6l0,0c-51.6,28.2-70.6,92.9-42.4,144.5s92.8,70.5,144.4,42.4s70.5-92.8,42.4-144.4
			c-9.8-17.9-24.5-32.6-42.4-42.4c-3.4-1.9-4.7-6.2-2.8-9.6s6.2-4.7,9.6-2.8l0,0c38.7,21.2,62.7,61.7,62.7,105.9
			C372.2,404,318.1,458,251.7,458z"/>
		<path d="M213.7,122.2c-0.7,0-1.5,0.2-2.1,0.4c-23.8,9.5-39.8,33.5-39.8,59.5v4.6c0.2,10.2,3.9,22.5,5.6,27.7
			c0.7,2.6,3,4.5,5.7,4.5c0.6,0,1.1-0.1,1.6-0.2c1.6-0.4,2.8-1.5,3.5-2.9c0.7-1.6,0.8-3.4,0.2-4.9c-2-5.7-5.5-18.1-5.2-28.8
			c0.2-13.1,5.1-25.8,13.7-35.7l4.3-4.8l-1.3,6.2c-0.5,2.3-0.8,4.7-0.8,7.1c0,13.5,11.8,24.5,26.4,24.5c14.6,0,26.4-11,26.4-24.5
			c0-7.4-3.5-15.3-7.5-24.4c-8.4-18.8-16.9-38.1-1.8-59.4l3-4.2l0.1,5.2c0.3,24.2,14,42.2,26.1,58.1c11.5,15.1,22.3,29.4,22.3,47.4
			c0,10.7-1,15.1-5.4,23.3c-1.6,2.7-0.7,6.1,2,7.8c2.7,1.6,6.1,0.7,7.8-2c0.1-0.1,0.2-0.2,0.2-0.3c5.3-9.9,6.7-16.1,6.7-28.6
			c0-21.8-12.5-38.3-24.7-54.3c-4.8-6.2-9.2-12.1-13-18.3l-0.4-0.7l0.3-0.7c1.4-3.9,3.2-7.6,5.3-11.2l1.7-2.8l1.2,3
			c7.8,18.8,20.2,30.6,31.1,41c15.5,14.8,27.7,26.4,27.7,52.9c0,6.7-1.9,16.6-4.4,23.5c-0.7,1.7-0.4,3.7,0.7,5.2s2.8,2.4,4.7,2.4
			c2.4,0,4.5-1.5,5.3-3.7c3.1-8.4,5.2-19.4,5.2-27.5c0-31.4-15.9-46.6-31.2-61.2l1.1-1.2l-1.1,1.2c-13-12.3-26.3-25.1-32.2-48.8
			c-0.7-3-3.9-4.9-6.9-4.2c-1.1,0.2-2,0.8-2.7,1.6c-4.1,4.1-7.6,8.8-10.6,13.8l-1.9,3.3l-1.1-3.6c-3.4-11.2-3.3-22.5,0.5-34.9
			c0.9-3-0.7-6.1-3.8-7.1c-1.8-0.6-3.7-0.2-5.2,1c-41.8,32.9-26.3,67.8-17.1,88.7c3.4,7.6,6.6,14.8,6.6,19.8c0,7.2-6.7,13.1-15,13.1
			s-15-5.9-15-13.1c0-6.5,4.9-18,8.3-24.3c0.9-1.6,1-3.6,0.2-5.3C217.9,123.4,215.9,122.2,213.7,122.2z"/>
	</g>
</g>
</svg>
