<?xml version="1.0" encoding="utf-8"?>
<!-- Generator: Adobe Illustrator 25.0.1, SVG Export Plug-In . SVG Version: 6.00 Build 0)  -->
<svg version="1.1" fill="#8052FD" id="Capa_1" xmlns="http://www.w3.org/2000/svg" xmlns:xlink="http://www.w3.org/1999/xlink" x="0px" y="0px"
	 viewBox="0 0 512 512" style="enable-background:new 0 0 512 512;" xml:space="preserve">

	
	


<g>
	<g>
		<g>
			<path d="M156.2,233.9c4.2-5.4,6.5-12,6.5-18.8c0-17.2-13.9-31.1-31.1-31.1s-31.1,13.9-31.1,31.1
				c0,6.8,2.3,13.4,6.5,18.8c-21.2,1.6-37.6,19.3-37.6,40.5v58.9c0,3.4,2.8,6.2,6.2,6.2h18.7v74.7c0,3.4,2.8,6.2,6.2,6.2h62.3
				c3.4,0,6.2-2.8,6.2-6.2v-74.7h18.7c3.4,0,6.2-2.8,6.2-6.2v-58.9C193.8,253.2,177.4,235.5,156.2,233.9z M131.6,196.4
				c10.3,0,18.7,8.4,18.7,18.7c0,10.3-8.4,18.7-18.7,18.7c-10.3,0-18.7-8.4-18.7-18.7C112.9,204.8,121.3,196.4,131.6,196.4z
				 M181.4,327.1h-12.5v-62.3h-12.5v143.2h-18.7v-80.9h-12.5v80.9h-18.7V264.9H94.2v62.3H81.8v-52.7c0-15.6,12.6-28.2,28.2-28.2
				h43.2c15.6,0,28.2,12.6,28.2,28.2L181.4,327.1L181.4,327.1z"/>
		</g>
	</g>
	<g>
		<g>
			<path d="M405.2,233.9c4.2-5.4,6.5-12,6.5-18.8c0-17.2-13.9-31.1-31.1-31.1c-17.2,0-31.1,13.9-31.1,31.1
				c0,6.8,2.3,13.4,6.5,18.8c-21.2,1.6-37.6,19.3-37.6,40.5v58.9c0,3.4,2.8,6.2,6.2,6.2h18.7v74.7c0,3.4,2.8,6.2,6.2,6.2h62.3
				c3.4,0,6.2-2.8,6.2-6.2v-74.7h18.7c3.4,0,6.2-2.8,6.2-6.2v-58.9C442.8,253.2,426.4,235.5,405.2,233.9z M380.6,196.4
				c10.3,0,18.7,8.4,18.7,18.7c0,10.3-8.4,18.7-18.7,18.7c-10.3,0-18.7-8.4-18.7-18.7C362,204.8,370.3,196.4,380.6,196.4z
				 M430.4,327.1H418v-62.3h-12.5v143.2h-18.7v-80.9h-12.5v80.9h-18.7V264.9h-12.5v62.3h-12.5v-52.7c0-15.6,12.6-28.2,28.2-28.2
				h43.2c15.6,0,28.2,12.6,28.2,28.2L430.4,327.1L430.4,327.1z"/>
		</g>
	</g>
	<g>
		<g>
			<path d="M324.6,140.4h-24.9c-3.4,0-6.2,2.8-6.2,6.2v41.1c0.3,2.9,0,5.8-1,8.5c-0.5,0.2-1,0.3-1.6,0.2h-10.1
				c4.1-5.4,6.4-11.9,6.4-18.7c0-17.2-13.9-31.1-31.1-31.1S225,160.5,225,177.7c0,6.8,2.3,13.3,6.4,18.7h-10.1c-0.5,0-1,0-1.5-0.2
				c-1-2.7-1.3-5.7-1-8.5v-41.1c0-3.4-2.8-6.2-6.2-6.2h-24.9c-3.4,0-6.2,2.8-6.2,6.2v57.6c0,16.3,13.2,29.5,29.5,29.5h7.8v130.7
				h-12.5c-3.4,0-6.2,2.8-6.2,6.2v43.6c0,3.4,2.8,6.2,6.2,6.2h99.6c3.4,0,6.2-2.8,6.2-6.2v-43.6c0-3.4-2.8-6.2-6.2-6.2h-12.5V233.7
				h7.8c16.3,0,29.5-13.2,29.5-29.5v-57.6C330.8,143.1,328,140.4,324.6,140.4z M256.1,159c10.3,0,18.7,8.4,18.7,18.7
				s-8.4,18.7-18.7,18.7c-10.3,0-18.7-8.4-18.7-18.7C237.4,167.4,245.8,159,256.1,159z M299.7,376.9v31.1h-87.2v-31.1H299.7z
				 M318.4,204.2c0,9.4-7.7,17.1-17.1,17.1h-14c-3.4,0-6.2,2.8-6.2,6.2v137h-18.7v-80.9h-12.5v80.9h-18.7v-137
				c0-3.4-2.8-6.2-6.2-6.2h-14c-9.4,0-17.1-7.7-17.1-17.1v-51.4h12.5v34.8c0,6.9,0,21.2,15,21.2h69.7c15,0,15-14.3,15-21.2v-34.8
				h12.5V204.2z"/>
		</g>
	</g>
	<g>
		<g>
			<path d="M299.4,82.5c-0.8-2.6-3.2-4.5-6-4.5h-23.8l-7.5-26.6c-0.9-3.3-4.4-5.2-7.7-4.3c-2.1,0.6-3.7,2.2-4.3,4.3
				l-7.5,26.6h-23.8c-3.4,0-6.2,2.8-6.2,6.2c0,2.1,1.1,4.1,2.8,5.2l18.9,12.3l-8.9,23.9c-1.2,3.2,0.4,6.8,3.7,8
				c1.9,0.7,4.1,0.4,5.8-0.8l21.3-15.1l21.3,15.1c2.8,2,6.7,1.3,8.7-1.5c1.2-1.7,1.5-3.8,0.8-5.8l-8.9-23.9l18.9-12.3
				C299.2,88,300.2,85.2,299.4,82.5z M264.5,101.5l3.6,9.6l-8.4-6c-2.2-1.5-5-1.5-7.2,0l-8.4,6l3.6-9.6c1-2.7,0-5.8-2.4-7.4
				l-5.5-3.6h7.6c2.8,0,5.2-1.8,6-4.5l2.8-10l2.8,10c0.8,2.7,3.2,4.5,6,4.5h7.6l-5.5,3.6C264.5,95.7,263.5,98.8,264.5,101.5z"/>
		</g>
	</g>
	<g>
		<g>
			
				<rect x="310.7" y="65.6" transform="matrix(0.8944 -0.4472 0.4472 0.8944 2.1235 152.7435)" width="27.8" height="12.5"/>
		</g>
	</g>
	<g>
		<g>
			
				<rect x="178.3" y="55.1" transform="matrix(0.3714 -0.9285 0.9285 0.3714 49.2583 216.4817)" width="12.5" height="33.5"/>
		</g>
	</g>
	<g>
		<g>
			
				<rect x="318.4" y="101.5" transform="matrix(0.4472 -0.8944 0.8944 0.4472 76.1538 354.1378)" width="12.5" height="27.8"/>
		</g>
	</g>
	<g>
		<g>
			
				<rect x="167.7" y="109.2" transform="matrix(0.9285 -0.3714 0.3714 0.9285 -29.6808 76.7802)" width="33.5" height="12.5"/>
		</g>
	</g>
</g>
</svg>
