<?xml version="1.0" encoding="utf-8"?>
<!-- Generator: Adobe Illustrator 25.0.1, SVG Export Plug-In . SVG Version: 6.00 Build 0)  -->
<svg version="1.1" fill="#8052FD" id="Capa_1" xmlns="http://www.w3.org/2000/svg" xmlns:xlink="http://www.w3.org/1999/xlink" x="0px" y="0px"
	 viewBox="0 0 512 512" style="enable-background:new 0 0 512 512;" xml:space="preserve">
<g>
	<g>
		<path d="M387,101.1H125.1c-13.3,0-24,10.7-24,24v262c0,13.2,10.7,23.9,24,23.9h262c13.2,0,24-10.7,24-24V125
			C410.9,111.8,400.2,101.1,387,101.1z M401.9,387c0,8.2-6.7,14.9-14.9,14.9H125.1c-8.2,0-14.9-6.7-14.9-14.9V125
			c0-8.2,6.7-14.9,14.9-14.9h262c8.2,0,14.8,6.7,14.8,14.9V387z"/>
	</g>
</g>
<g>
	<g>
		<path d="M382.1,125.3H129.9c-2.5,0-4.5,2.1-4.5,4.5v189.2c0,1.2,0.5,2.4,1.3,3.2l63.1,63.1c0.8,0.8,2,1.3,3.2,1.3
			h189.2c2.5,0,4.5-2.1,4.5-4.5V129.9C386.7,127.3,384.7,125.3,382.1,125.3z M377.6,377.6L377.6,377.6H194.8l-27-27l7.3-7.3
			l22.6,22.6c0.8,0.8,2,1.3,3.2,1.3h123c2.5,0,4.5-2.1,4.5-4.5s-2.1-4.5-4.5-4.5H202.9l-21.3-21.3l7.3-7.3l16.9,16.9
			c0.8,0.8,2,1.3,3.2,1.3h134.3c2.5,0,4.5-2.1,4.5-4.5V168.7c0-2.5-2.1-4.5-4.5-4.5H168.7c-2.5,0-4.5,2.1-4.5,4.5V303
			c0,1.2,0.5,2.4,1.3,3.2l16.9,16.9l-7.3,7.3l-21.3-21.3V183.3c0-2.5-2.1-4.5-4.5-4.5c-2.5,0-4.5,2.1-4.5,4.5v127.8
			c0,1.2,0.5,2.4,1.3,3.2l22.6,22.6l-7.3,7.3l-27-27V134.5h243.2V377.6z M212.4,313.9c7.9,0,14.2-6.4,14.2-14.2
			c0-7.9-6.4-14.2-14.2-14.2c-7.9,0-14.2,6.4-14.2,14.2c0,2.3,0.5,4.4,1.5,6.4l-10.8,10.7l-15.6-15.6V173.2h165.6v165.6H210.9
			l-15.7-15.6l10.8-10.8C207.9,313.4,210.1,313.9,212.4,313.9z M207.2,299.6c0-2.8,2.3-5.1,5.1-5.1c2.8,0,5.1,2.3,5.1,5.1
			s-2.3,5.1-5.1,5.1C209.5,304.8,207.2,302.5,207.2,299.6z"/>
	</g>
</g>
<g>
	<g>
		<path d="M362.8,144.7H149.3c-2.5,0-4.5,2.1-4.5,4.5v14.5c0,2.5,2.1,4.5,4.5,4.5s4.5-2.1,4.5-4.5v-10h204.4v204.4
			h-14.9c-2.5,0-4.5,2.1-4.5,4.5s2.1,4.5,4.5,4.5h19.4c2.5,0,4.5-2.1,4.5-4.5V149.3C367.3,146.8,365.3,144.7,362.8,144.7z"/>
	</g>
</g>
<g>
	<g>
		<path d="M275.4,232h-38.8c-2.5,0-4.5,2.1-4.5,4.5v38.8c0,2.5,2.1,4.5,4.5,4.5h38.8c2.5,0,4.5-2.1,4.5-4.5v-38.8
			C280,234.1,277.9,232,275.4,232z M270.9,270.9h-29.7v-29.7h29.7V270.9z"/>
	</g>
</g>
</svg>
