<?xml version="1.0" encoding="utf-8"?>
<!-- Generator: Adobe Illustrator 25.0.1, SVG Export Plug-In . SVG Version: 6.00 Build 0)  -->
<svg version="1.1" fill="#8052FD" id="Capa_1" xmlns="http://www.w3.org/2000/svg" xmlns:xlink="http://www.w3.org/1999/xlink" x="0px" y="0px"
	 viewBox="0 0 504.9 504.9" style="enable-background:new 0 0 504.9 504.9;" xml:space="preserve">

	
	


<g>
	<circle cx="138.3" cy="134.2" r="9.6"/>
	<circle cx="174.2" cy="134.2" r="9.6"/>
	<circle cx="210.5" cy="134.2" r="9.6"/>
	<circle cx="138.3" cy="211.2" r="9.6"/>
	<circle cx="171.4" cy="211.2" r="9.6"/>
	<circle cx="207.8" cy="211.2" r="9.6"/>
	<g>
		<path d="M336.6,206.9c-18.7,0-34.2-15.5-34.2-34.2s15.5-34.2,34.2-34.2s34.2,15.5,34.2,34.2S355.4,206.9,336.6,206.9z
			 M336.6,149.2c-12.8,0-23.6,10.7-23.6,23.6s10.7,23.6,23.6,23.6c12.8,0,23.6-10.7,23.6-23.6S349.5,149.2,336.6,149.2z"/>
		<path d="M391.2,360.9h-6.9v-10.7h6.9c1.1,0,2.2,0,3.2,0l1.6,10.7C394.4,360.9,392.8,360.9,391.2,360.9z M374.1,360.9
			h-10.7v-10.7h10.7V360.9z M352.7,360.9h-10.7v-10.7h10.7V360.9z M331.3,360.9h-10.7v-10.7h10.7V360.9z M309.9,360.9h-10.7v-10.7
			h10.7V360.9z M407.8,356.6l-5.4-9.1c2.6-1.6,4.8-3.2,6.4-5.9l8.6,6.4C414.7,351.3,411.5,353.9,407.8,356.6z M422.7,336.3
			l-10.7-2.2c0.5-1.6,0.5-3.2,0.5-4.8v-4.8h10.7v4.8C423.3,331.5,423.3,333.6,422.7,336.3z M423.3,313.8h-10.7v-10.7h10.7V313.8z
			 M423.3,292.4h-10.7v-10.7h10.7V292.4z M423.3,271.1h-10.7v-10.7h10.7V271.1z M423.3,249.7h-10.7v-10.7h10.7V249.7z M423.3,228.3
			h-10.7v-10.7h10.7V228.3z M423.3,206.9h-10.7V200c0-1.1,0-2.2,0-2.6l10.7-1.6c0,1.6,0.5,2.6,0.5,4.3v6.9L423.3,206.9L423.3,206.9z
			 M409.9,188.7c-1.6-2.6-3.2-4.8-5.9-6.4l6.4-8.6c3.2,2.6,6.4,5.9,8.6,9.6L409.9,188.7z M396.5,178.6c-1.6-0.5-3.2-0.5-4.8-0.5
			h-4.3v-10.7h4.3c2.6,0,4.8,0.5,7.5,1.1L396.5,178.6z M376.2,178.1h-10.7v-10.7h10.7V178.1z"/>
	</g>
	<path d="M290.7,381.2l-36.9-20.8c-1.6-1.1-2.6-2.6-2.6-4.8c0-2.2,1.1-3.7,2.6-4.8l36.9-20.8c1.6-1.1,3.7-1.1,5.4,0
		s2.6,2.6,2.6,4.8v41.7c0,2.2-1.1,3.7-2.6,4.8C294.4,382.3,292.3,382.3,290.7,381.2z M267.7,355.6l20.3,11.7v-23L267.7,355.6z"/>
	<path d="M165.6,432.5h-15.5c-2.6,0-4.8-2.2-5.4-4.3l-1.1-8.6c-1.6-0.5-3.7-1.1-5.4-1.6l-5.4,6.4
		c-1.6,2.2-4.8,2.6-6.9,1.1l-13.4-7.5c-2.2-1.1-2.6-3.7-2.2-5.9l3.2-8c-1.6-1.1-2.6-2.6-3.7-3.7l-8,2.6c-2.6,1.1-5.4,0-6.4-2.2
		L88,387.6c-1.1-2.2-0.5-5.4,1.1-6.9l6.4-5.4c-0.5-1.6-1.1-3.7-1.6-5.4l-8.6-1.1c-2.6-0.5-4.3-2.6-4.3-5.3v-15.5
		c0-2.6,2.2-4.8,4.3-5.4l8.6-1.1c0.5-1.6,1.1-3.7,1.6-5.4l-6.4-5.4c-2.2-1.6-2.6-4.8-1.1-6.9l7.5-13.4c1.1-2.2,4.3-3.2,6.4-2.2
		l8,3.2c1.1-1.6,2.6-2.6,3.7-3.7l-3.2-8.6c-1.1-2.6,0-5.4,2.2-6.4l13.4-7.5c2.2-1.1,5.4-0.5,6.9,1.1l5.4,6.4
		c1.6-0.5,3.7-1.1,5.4-1.6l1.1-8.6c0.5-2.6,2.6-4.3,5.4-4.3h15.5c2.6,0,4.8,2.2,5.4,4.3l1.1,8.6c1.6,0.5,3.7,1.1,5.4,1.6l5.4-6.4
		c1.6-2.2,4.8-2.6,6.9-1.1l13.4,7.5c2.2,1.1,3.2,4.3,2.2,6.4l-3.2,8c1.6,1.1,2.6,2.6,3.7,3.7l8-3.2c2.6-1.1,5.4,0,6.4,2.2l7.5,13.4
		c1.1,2.2,0.5,5.4-1.1,6.9l-6.4,5.4c0.5,1.6,1.1,3.7,1.6,5.4l8.6,1.1c2.6,0.5,4.3,2.6,4.3,5.4V363c0,2.6-2.2,4.8-4.3,5.4l-8.6,1.1
		c-0.5,1.6-1.1,3.7-1.6,5.4l6.4,5.4c2.2,1.6,2.6,4.8,1.1,6.9l-7.5,13.4c-1.1,2.2-4.3,3.2-6.4,2.2l-8-3.2c-1.1,1.6-2.6,2.6-3.7,3.7
		l3.2,8c1.1,2.6,0,5.4-2.2,6.4l-13.4,7.5c-2.2,1.1-5.4,0.5-6.9-1.1l-5.4-6.4c-1.6,0.5-3.7,1.1-5.4,1.6l-1.1,8.6
		C170.4,431,168.3,432.5,165.6,432.5z M154.9,421.9h5.9l1.1-7.5c0.5-2.2,2.2-4.3,4.3-4.3c3.7-0.5,7.5-1.6,10.7-2.6
		c2.2-1.1,4.8,0,5.9,1.6l4.8,5.9l5.4-3.2l-2.6-6.9c-1.1-2.2,0-4.8,1.6-5.9c2.6-2.2,5.4-4.8,8-8c1.6-1.6,3.7-2.6,5.9-1.6l6.9,2.6
		l3.2-5.4l-5.9-4.8c-1.6-1.6-2.6-3.7-1.6-5.9c1.6-3.7,2.2-6.9,2.6-10.7c0.5-2.2,2.2-4.3,4.3-4.3l7.5-1.1v-5.9l-7.5-1.1
		c-2.2-0.5-4.3-2.2-4.3-4.3c-0.5-3.7-1.6-7.5-2.6-10.7c-1.1-2.2,0-4.8,1.6-5.9l5.9-4.8l-3.2-5.4l-5.9,1.1c-2.2,1.1-4.8,0-5.9-1.6
		c-2.2-2.6-4.8-5.4-8-8c-1.6-1.6-2.6-3.7-1.6-5.9l2.6-6.9l-5.4-3.2l-4.8,5.9c-1.6,1.6-3.7,2.6-5.9,1.6c-3.7-1.6-6.9-2.2-10.7-2.6
		c-2.2-0.5-4.3-2.2-4.3-4.3l-1.1-7.5h-5.9l-1.1,7.5c-1.6,1.6-3.2,3.7-5.4,3.7c-3.7,0.5-7.5,1.6-10.7,2.6c-2.2,1.1-4.8,0-5.9-1.6
		l-4.8-5.9l-5.4,3.2l2.6,6.9c1.1,2.2,0,4.8-1.6,5.9c-2.6,2.2-5.4,4.8-8,8c-1.6,2.2-4.3,2.6-6.4,2.2l-6.9-2.6l-3.2,5.4l5.9,4.8
		c1.6,1.6,2.6,3.7,1.6,5.9c-1.6,3.7-2.2,6.9-2.6,10.7c-0.5,2.2-2.2,4.3-4.3,4.3l-7.5,1.1v5.9l7.5,1.1c2.2,0.5,4.3,2.2,4.3,4.3
		c0.5,3.7,1.6,7.5,2.6,10.7c1.1,2.2,0,4.8-1.6,5.9l-5.9,4.8l3.2,5.4l6.9-2.6c2.2-1.1,4.8,0,5.9,1.6c2.2,2.6,4.8,5.4,8,8
		c1.6,1.6,2.6,3.7,1.6,5.9l-2.6,6.9l5.4,3.2l4.8-5.9c1.6-1.6,3.7-2.6,5.9-1.6c3.7,1.6,6.9,2.2,10.7,2.6c2.2,0.5,4.3,2.2,4.3,4.3
		L154.9,421.9z"/>
	<path d="M158.1,378.6c-12.3,0-22.5-10.2-22.5-22.5s10.2-22.5,22.5-22.5s22.5,10.2,22.5,22.5S170.4,378.6,158.1,378.6z
		 M158.1,343.8c-6.4,0-11.7,5.4-11.7,11.7c0,6.4,5.4,11.7,11.7,11.7s11.7-5.4,11.7-11.7C169.9,349.1,164.5,343.8,158.1,343.8z"/>
	<path d="M302.4,172.7c0-1.8,0.1-3.6,0.4-5.4H99.2c-4.3,0-7.5-3.2-7.5-7.5v-51.3c0-4.3,3.2-7.5,7.5-7.5l0,0h224.5
		c4.3,0,7.5,3.2,7.5,7.5v30.3c1.8-0.3,3.5-0.4,5.4-0.4c1.8,0,3.6,0.1,5.4,0.4v-30.3c0-10.2-8-18.2-18.2-18.2H99.3
		c-10.2,0-18.2,8-18.2,18.2v51.3c0,10.2,8,18.2,18.2,18.2h203.6C302.6,176.3,302.4,174.5,302.4,172.7z"/>
	<path d="M336.6,206.9c-1.8,0-3.6-0.1-5.4-0.4v30.3c0,4.3-3.2,7.5-7.5,7.5H99.3c-4.3,0-7.5-3.2-7.5-7.5v-51.3
		c0-4.3,3.2-7.5,7.5-7.5h203.6c-0.3-1.8-0.4-3.5-0.4-5.4c0-1.8,0.1-3.6,0.4-5.4H99.3c-10.2,0-18.2,8-18.2,18.2v51.3
		c0,10.2,8,18.2,18.2,18.2h224.5c10.2,0,18.2-8,18.2-18.2v-30.3C340.2,206.8,338.5,206.9,336.6,206.9z"/>
</g>
</svg>
