<?xml version="1.0" encoding="utf-8"?>
<!-- Generator: Adobe Illustrator 25.0.1, SVG Export Plug-In . SVG Version: 6.00 Build 0)  -->
<svg version="1.1" fill="#8052FD" id="Capa_1" xmlns="http://www.w3.org/2000/svg" xmlns:xlink="http://www.w3.org/1999/xlink" x="0px" y="0px"
	 viewBox="0 0 512 512" style="enable-background:new 0 0 512 512;" xml:space="preserve">

	
	


<g>
	<path d="M323.5,203c0-0.6-0.1-1.1-0.4-1.6c-1.7-6.1-8.6-11.8-19.4-16c-12.2-4.8-28.8-7.2-47.8-7.2s-35.6,2.5-47.8,7.2
		c-10.8,4.1-17.7,9.8-19.4,16c-0.3,0.5-0.4,1-0.4,1.6v99c0,0.6,0.1,1,0.4,1.5c1.7,6.6,9.5,12.6,22.1,16.9
		c12.3,4.2,28.4,6.5,45.3,6.5c16.9,0,32.9-2.3,45.1-6.5c12.6-4.2,20.4-10.2,22.1-16.8c0.3-0.4,0.4-1,0.4-1.6L323.5,203z
		 M195.1,301.3v-20.7c0.3,0.3,0.6,0.4,0.8,0.6c5.8,4.4,14.4,7.9,24.9,10.3c6.9,13.1,20.3,21.2,35.1,21.2c5.3,0,10.5-1.1,15.5-3.1
		c8.5-3.6,15.5-10,19.7-18.1c10.4-2.3,18.9-5.8,24.5-10.1c0.4-0.3,0.7-0.5,1-0.8v20.8c0,0.1-0.1,0.1-0.1,0.3
		c-0.8,4.2-7.5,9-17.7,12.4c-11.7,3.9-27,6.1-43,6.1s-31.3-2.2-43-6.1c-10.5-3.6-16.9-8.1-17.7-12.3v-0.1
		C195.2,301.5,195.2,301.4,195.1,301.3z M195.1,266.4v-18.1c0.3,0.3,0.6,0.4,0.8,0.6c5.4,4.1,13.3,7.5,23,9.8
		c-1.7,4.5-2.6,9.2-2.6,14.1c0,3.6,0.4,7,1.4,10.4c-3-0.8-5.8-1.8-8.4-2.8l-0.1-0.1c-1.1-0.4-2.1-0.9-3.1-1.3
		c-0.1-0.1-0.1-0.1-0.1-0.1l-0.3-0.1c-0.6-0.3-1.3-0.6-1.9-1l-1.1-0.6c-0.6-0.3-1.1-0.7-1.6-1l-1-0.6c-0.4-0.3-0.8-0.6-1.3-1.1
		c-0.1-0.1-0.2-0.2-0.3-0.3s-0.3-0.2-0.4-0.3c-0.3-0.3-0.6-0.6-0.9-1l-0.1-0.1l-0.1-0.1c-0.1-0.1-0.2-0.2-0.3-0.3
		c-0.1-0.1-0.1-0.2-0.2-0.3c-0.1-0.1-0.2-0.3-0.3-0.4c-0.1-0.1-0.2-0.3-0.3-0.4c-0.1-0.3-0.2-0.4-0.3-0.6l-0.1-0.2
		c-0.1-0.3-0.2-0.5-0.3-0.8v-0.1c-0.1-0.4-0.2-0.8-0.2-1.1c0-0.3,0.1-0.5,0.1-0.8C195.3,267.3,195.2,266.7,195.1,266.4z M300,217.3
		c-11.9,4.2-27.5,6.5-44.1,6.5c-16.8,0-32.5-2.3-44.1-6.5c-10.3-3.6-16.7-8.6-16.7-12.9s6.4-9.3,16.7-12.9
		c11.9-4.2,27.5-6.5,44.1-6.5c16.8,0,32.5,2.3,44.1,6.5c10.3,3.6,16.7,8.6,16.7,12.9C316.6,208.8,310.5,213.5,300,217.3z
		 M195.1,216.2l0.4,0.3c0.7,0.6,1.5,1.1,2.3,1.7l0.3,0.3l0.1,0.1c0.1,0.1,0.1,0.1,0.1,0.1l0.4,0.3c0.7,0.4,1.6,1,2.5,1.5h0.1
		c0.1,0.1,0.2,0.1,0.3,0.1c0.1,0.1,0.3,0.1,0.4,0.2l1.1,0.5c0.8,0.4,1.5,0.8,2.3,1.1h0.1h0.1l0.5,0.3c1,0.4,2.2,0.9,3.6,1.4l1.5,0.6
		c0.6,0.2,1.3,0.4,2.1,0.7c0.4,0.1,0.9,0.3,1.3,0.4l0.3,0.1c0.3,0.1,0.6,0.2,1,0.3c1.6,0.4,3.3,0.8,4.9,1.2h0.1c0.1,0,0.1,0,0.2,0.1
		c0.1,0,0.1,0,0.1,0l0.4,0.1c1.5,0.4,3.1,0.6,4.7,0.9c0.5,0.1,1.1,0.2,1.6,0.3h0.1c1.1,0.2,2.2,0.4,3.4,0.5l1.8,0.3
		c0.1,0,0.3,0.1,0.4,0.1c0.1,0,0.1,0,0.3,0.1h0.1c1.8,0.3,3.8,0.4,6.2,0.6l1.6,0.1c1.1,0.1,2.2,0.1,3.2,0.2c0.6,0,1.1,0.1,1.7,0.1
		l2.2,0.1c2.5,0.1,4.9,0.1,7.1,0.1c2.2,0,4.5-0.1,7.2-0.1l2.2-0.1c1.6-0.1,2.9-0.2,4.3-0.3l0.6-0.1c0.2,0,0.3,0,0.5,0
		c0.1,0,0.3,0,0.4,0l0.8-0.1c2-0.2,4.2-0.4,6.1-0.6c0.1,0,0.3,0,0.4-0.1c0.1,0,0.1,0,0.1,0l2.1-0.3c1.2-0.2,2.3-0.3,3.5-0.5l0.3-0.1
		c0.3-0.1,0.4-0.1,0.7-0.1s0.5-0.1,0.8-0.1c1.6-0.3,3.1-0.6,4.7-0.9l0.7-0.1c1.4-0.3,3-0.7,4.9-1.3l0.8-0.3c0.1-0.1,0.3-0.1,0.4-0.1
		c1.5-0.4,2.5-0.8,3.4-1.1l1.2-0.4c1.3-0.4,2.5-1,3.9-1.5l0.1-0.1h0.1c0.1,0,0.1,0,0.2-0.1l0.2-0.1c0.8-0.3,2-0.9,3.1-1.5l1-0.5
		c1.2-0.6,2-1.1,2.5-1.5l0.3-0.2c0.1-0.1,0.1-0.1,0.2-0.1s0.1-0.1,0.3-0.1c0.7-0.5,1.6-1.1,2.5-1.7l0.3-0.2c0.1-0.1,0.2-0.2,0.3-0.3
		l0,0v18.1c-0.1,0.4-0.2,0.9-0.1,1.4c0.1,0.3,0.1,0.6,0.1,0.8c0,0.3-0.1,0.8-0.2,1l-0.1,0.1c-0.1,0.3-0.2,0.6-0.3,0.8
		c-0.1,0.1-0.1,0.3-0.2,0.4c-0.1,0.1-0.1,0.3-0.2,0.4c-0.1,0.1-0.2,0.3-0.3,0.4c-0.1,0.1-0.2,0.3-0.3,0.5c-0.1,0.1-0.1,0.1-0.1,0.2
		c-0.1,0.1-0.2,0.3-0.3,0.4l-0.3,0.3c-0.3,0.3-0.6,0.6-0.8,0.9l-0.1,0.1c-0.1,0.1-0.2,0.2-0.3,0.3l-0.3,0.3c-0.5,0.4-1,0.8-1.3,1.1
		l-0.2,0.1c-0.1,0.1-0.2,0.1-0.3,0.2c-0.1,0.1-0.2,0.1-0.2,0.1c-0.2,0.1-0.4,0.3-0.6,0.4c-0.4,0.3-0.8,0.5-1.3,0.8l-0.6,0.3
		c-0.8,0.5-1.6,0.9-2.5,1.3c-0.1,0-0.1,0.1-0.1,0.1s-0.1,0-0.1,0.1l-0.2,0.1c-1,0.5-2,1-2.9,1.3l-0.3,0.1c-4.1,1.6-8.4,2.9-12.8,3.9
		c-1.6-2.7-3.6-5.2-5.8-7.4c-7.5-7.5-17.4-11.6-28.1-11.7c-13.8,0-26.7,7.3-33.9,19c-4.2-1-8.6-2.3-12.9-3.9l-0.1-0.1
		c-1-0.4-1.9-0.8-3-1.3l-0.1-0.1c-0.1,0-0.1-0.1-0.1,0l-0.3-0.2h-0.1c-0.3-0.2-0.7-0.4-1.1-0.5c-0.4-0.3-0.9-0.4-1.3-0.7
		c0,0-0.1,0-0.1-0.1c-0.1-0.1-0.2-0.1-0.3-0.1l-0.3-0.1c-0.4-0.3-0.8-0.5-1.3-0.8l-0.6-0.4c-0.2-0.2-0.4-0.3-0.7-0.4
		c-0.4-0.3-0.8-0.6-1.3-1.1l-0.1-0.1c-0.2-0.2-0.4-0.4-0.6-0.6c-0.3-0.3-0.6-0.6-0.8-1l-0.1-0.1c-0.1-0.1-0.1-0.2-0.2-0.3
		c-0.1-0.1-0.3-0.3-0.3-0.4c-0.2-0.3-0.4-0.6-0.6-1c-0.1-0.1-0.1-0.3-0.3-0.4c-0.1-0.1-0.1-0.2-0.1-0.3c-0.1-0.2-0.2-0.5-0.3-0.7
		v-0.1c-0.1-0.4-0.2-0.8-0.2-1.1c0-0.3,0-0.5,0.1-0.7l0.1-0.1v-0.1c-0.1-0.3-0.1-0.4-0.1-0.6c0-0.3-0.1-0.4-0.1-0.7v-18.1H195.1z
		 M256,240.2c4.4,0,8.6,0.9,12.6,2.6c12,5.1,19.8,16.8,19.8,29.8c0,8.7-3.4,16.8-9.4,23c-6.1,6.1-14.3,9.5-23,9.5
		c-8.6,0-16.7-3.4-22.9-9.4c-6.1-6.1-9.5-14.3-9.5-23c0-8.7,3.4-16.8,9.4-23C239.1,243.6,247.3,240.2,256,240.2z M316.6,266.4
		c-0.2,0.4-0.2,1-0.1,1.5c0.1,0.3,0.1,0.5,0.1,0.7c0,0.3-0.1,0.6-0.1,1v0.1c-0.1,0.3-0.2,0.6-0.3,0.9c-0.1,0.1-0.1,0.3-0.2,0.4
		c-0.1,0.1-0.1,0.3-0.2,0.4c-0.1,0.1-0.2,0.3-0.3,0.4c-0.1,0.2-0.2,0.3-0.3,0.5c-0.1,0.2-0.3,0.4-0.4,0.6l-0.1,0.1
		c-0.3,0.3-0.5,0.6-0.8,0.9c-0.2,0.2-0.4,0.4-0.7,0.6c-0.4,0.4-0.9,0.8-1.3,1.1l-0.6,0.4l-0.1,0.1c-0.5,0.4-1.2,0.8-1.9,1.2
		c-0.1,0.1-0.3,0.2-0.5,0.3c-0.4,0.2-0.7,0.4-1,0.6c-0.5,0.3-1,0.5-1.5,0.8l-0.1,0.1l0,0h-0.1L306,279c-1.2,0.6-2.2,1-3,1.3
		l-0.2,0.1c-2.5,1-5.2,1.9-8.4,2.8c0.9-3.3,1.3-6.7,1.3-10.3c0-4.9-0.9-9.8-2.6-14.2c9.4-2.3,17.2-5.6,22.6-9.6
		c0.4-0.3,0.7-0.5,1-0.8v18.1H316.6z M317.2,267.8L317.2,267.8L317.2,267.8L317.2,267.8z"/>
	<path d="M233.2,275.5c0.3,0,0.6,0.1,0.9,0.3c0.3,0.2,0.6,0.4,0.8,0.7l0.1,0.1c0.3,0.3,0.4,0.8,0.6,1.3
		c0.2,0.6,0.3,1.3,0.3,2v8.9c0,1.2,0.2,2.3,0.6,3.3c0.4,0.9,0.9,1.7,1.5,2.5c0.7,0.7,1.4,1.2,2.2,1.5c0.8,0.4,1.6,0.6,2.4,0.6h4.8
		v-5.7h-3.9c-0.2,0-0.3,0-0.3,0l-0.1-0.1c-0.1-0.1-0.2-0.2-0.3-0.4c-0.1-0.3-0.2-0.6-0.3-1v-0.1c-0.1-0.4-0.1-0.8-0.1-1.2v-8.9
		c0-1.5-0.2-2.7-0.6-3.6s-1-1.8-1.5-2.3c-0.3-0.3-0.5-0.5-0.8-0.7c0.3-0.3,0.6-0.5,0.8-0.8c0.5-0.6,1-1.4,1.5-2.3
		c0.4-1,0.6-2.2,0.6-3.5v-9c0-0.4,0.1-1,0.1-1.4c0.1-0.4,0.1-0.6,0.3-1c0.1-0.1,0.2-0.4,0.4-0.5c0,0,0.1,0,0.3,0h3.9v-5.7h-4.8
		c-0.9-0.1-1.6,0.1-2.5,0.5c-0.7,0.3-1.4,0.8-2.2,1.5c-0.6,0.7-1.1,1.5-1.5,2.4c-0.4,1-0.6,2.1-0.6,3.3v8.9c0,0.7-0.1,1.3-0.3,2
		c-0.1,0.5-0.4,1-0.7,1.5c-0.3,0.4-0.6,0.6-0.8,0.8c-0.3,0.2-0.6,0.3-0.8,0.3h-1.4v6.1L233.2,275.5L233.2,275.5z"/>
	<path d="M269.3,296c0.7-0.3,1.4-0.8,2.2-1.5c0.6-0.7,1.1-1.5,1.5-2.4c0.4-1,0.6-2.1,0.6-3.3v-8.9c0-0.7,0.1-1.3,0.3-2
		c0.1-0.5,0.4-1,0.7-1.5c0.3-0.4,0.6-0.6,0.8-0.8c0.3-0.2,0.6-0.3,0.8-0.3h1.4v-6.1h-1.4h-0.1c-0.2,0-0.4-0.1-0.8-0.2l0,0
		c-0.3-0.1-0.6-0.4-0.8-0.8c-0.3-0.4-0.5-0.8-0.7-1.4s-0.3-1.3-0.3-2V256c0-1.2-0.2-2.3-0.6-3.3c-0.4-0.9-0.9-1.7-1.5-2.5
		c-0.7-0.7-1.4-1.2-2.2-1.5c-0.8-0.4-1.6-0.6-2.4-0.6H262v5.7h3.9c0.2,0,0.3,0,0.3,0l0.1,0.1c0.1,0.1,0.2,0.2,0.3,0.4
		c0.1,0.3,0.2,0.6,0.3,1c0.1,0.4,0.1,0.9,0.1,1.3v8.9c0,1.5,0.2,2.7,0.6,3.6s1,1.8,1.5,2.3c0.3,0.3,0.5,0.5,0.8,0.7
		c-0.3,0.3-0.6,0.5-0.8,0.8c-0.5,0.6-1,1.4-1.5,2.3c-0.4,1-0.6,2.2-0.6,3.5v9c0,0.4-0.1,1-0.1,1.4c-0.1,0.4-0.1,0.6-0.3,1
		c-0.1,0.1-0.2,0.4-0.4,0.5c0,0-0.1,0.1-0.3,0.1H262v5.7h4.8C267.7,296.6,268.5,296.4,269.3,296z"/>
</g>
<path d="M120.1,95.9c-13.4,0-24.2,10.8-24.2,24.2v271.8c0,13.3,10.8,24.2,24.2,24.2H392c13.4,0,24.2-10.8,24.2-24.2
	V120.1c-0.1-13.4-11-24.2-24.3-24.2H120.1z M391.8,407.9H120.1c-8.9,0-16.1-7.2-16.1-16.1V120.1c0-8.9,7.2-16.1,16.1-16.1H392
	c8.8,0,16,7.2,16,16.1v271.7C407.9,400.7,400.7,407.9,391.8,407.9z M125.2,121.1c-2.2,0-4.1,1.8-4.1,4.1v196.2
	c0,1.1,0.4,2.1,1.2,2.9l65.4,65.4c0.8,0.8,1.8,1.2,2.9,1.2h196.2c2.2,0,4.1-1.8,4.1-4.1V125.1c0-2.3-1.8-4.1-4.1-4.1
	C386.8,121.1,125.2,121.1,125.2,121.1z M382.8,382.7H192.2l-28.7-28.7l8.5-8.5l23.9,23.9c0.8,0.8,1.8,1.2,2.9,1.2h127.6
	c2.2,0,4.1-1.8,4.1-4.1c0-2.2-1.8-4.1-4.1-4.1H200.6l-22.8-22.8l8.5-8.5l18,18c0.8,0.8,1.8,1.2,2.9,1.2h139.3c2.2,0,4.1-1.8,4.1-4.1
	V165.4c0-2.2-1.8-4.1-4.1-4.1H165.4c-2.2,0-4.1,1.8-4.1,4.1v139.3c0,1.1,0.4,2.1,1.2,2.9l18,18l-8.4,8.5l-22.8-22.8V180.6
	c0-2.2-1.8-4.1-4.1-4.1c-2.2,0-4.1,1.8-4.1,4.1v132.6c0,1.1,0.4,2.1,1.2,2.9l23.9,23.9l-8.5,8.5l-28.7-28.6V129.3h253.5V382.7z
	 M342.5,342.5H209l-39.5-39.4V169.5h173V342.5z M346.5,362.6c-2.2,0-4.1,1.8-4.1,4.1s1.8,4.1,4.1,4.1h20.2c2.2,0,4.1-1.8,4.1-4.1
	V145.2c0-1.1-0.4-2.1-1.1-2.9c-0.8-0.8-1.8-1.2-2.9-1.2H145.3c-2.2,0-4.1,1.8-4.1,4.1v15.1c0,2.2,1.8,4.1,4.1,4.1
	c2.2,0,4.1-1.8,4.1-4.1v-11h213.3v213.3L346.5,362.6L346.5,362.6z"/>
</svg>
