<?xml version="1.0" encoding="utf-8"?>
<!-- Generator: Adobe Illustrator 25.0.1, SVG Export Plug-In . SVG Version: 6.00 Build 0)  -->
<svg version="1.1" fill="#8052FD" id="Capa_1" xmlns="http://www.w3.org/2000/svg" xmlns:xlink="http://www.w3.org/1999/xlink" x="0px" y="0px"
	 viewBox="0 0 512 512" style="enable-background:new 0 0 512 512;" xml:space="preserve">

	
	


<path d="M219.9,226.5H292l36.8,36.8l-2.3,2.7c-5.4,6.3-8.5,14.3-8.5,22.6c0,6.7,1.9,13.3,5.6,18.9l2.9,4.4l-5.1,1.4
	c-19,5.3-32.3,22.8-32.3,42.5v38.4c0,3.2,2.6,5.8,5.8,5.8h115.3c3.2,0,5.8-2.6,5.8-5.8V356c0-19.7-13.3-37.2-32.3-42.5l-5.1-1.4
	l2.9-4.4c3.7-5.6,5.6-12.2,5.6-18.9c0-19.1-15.5-34.6-34.6-34.6c-3.1,0-6.2,0.4-9.2,1.3l-4.9,1.3v-30.4l3.1-0.6
	c20.5-4.2,35.4-22.4,35.4-43.3v-39.1c0-24.4-19.9-44.2-44.2-44.2h-40.4l-1.2-1.5C282.9,86.3,270,79.8,256,79.8h-76.9
	c-24.4,0-44.2,19.9-44.2,44.2v58.3c0,21,14.9,39.2,35.4,43.3l3.1,0.6v30.4l-4.9-1.3c-3-0.8-6.1-1.3-9.2-1.3
	c-19.1,0-34.6,15.5-34.6,34.6c0,6.7,1.9,13.3,5.6,18.9l2.9,4.4l-5.1,1.4c-19,5.3-32.3,22.8-32.3,42.5v38.4c0,3.2,2.6,5.8,5.8,5.8
	h115.3c3.2,0,5.8-2.6,5.8-5.8V356c0-19.7-13.3-37.2-32.3-42.5l-5.1-1.4l2.9-4.4c3.7-5.6,5.6-12.2,5.6-18.9c0-8.3-3-16.3-8.5-22.6
	l-2.3-2.7L219.9,226.5z M404.6,388.7H300.8V356c0-18,14.7-32.7,32.7-32.7H372c18,0,32.7,14.7,32.7,32.7V388.7z M211.1,388.7H107.3
	V356c0-18,14.7-32.7,32.7-32.7h38.4c18,0,32.7,14.7,32.7,32.7V388.7z M352.7,311.8c-12.8,0-23.1-10.3-23.1-23.1
	c0-12.8,10.3-23.1,23.1-23.1c12.8,0,23.1,10.3,23.1,23.1C375.8,301.4,365.5,311.8,352.7,311.8z M159.2,311.8
	c-12.8,0-23.1-10.3-23.1-23.1c0-12.8,10.3-23.1,23.1-23.1s23.1,10.3,23.1,23.1C182.3,301.4,172,311.8,159.2,311.8z M327.1,245.3
	l-28.6-28.6c-1.1-1.1-2.6-1.7-4.1-1.7h-7.7l4.6-6.2c5.8-7.7,8.8-16.9,8.8-26.5V124c0-2.9-0.3-6-0.9-8.8l-1-4.6h34.5
	c18,0,32.7,14.7,32.7,32.7v39.1c0,18-14.7,32.7-32.7,32.7c-3.2,0-5.8,2.6-5.8,5.8V245.3z M184.9,245.3v-24.5c0-3.2-2.6-5.8-5.8-5.8
	c-18,0-32.7-14.7-32.7-32.7V124c0-18,14.7-32.7,32.7-32.7H256c18,0,32.7,14.7,32.7,32.7v58.3c0,18-14.7,32.7-32.7,32.7h-38.4
	c-1.5,0-3,0.6-4.1,1.7L184.9,245.3z M182.8,147.7c-1.7,0-3.3,0.6-4.5,1.9c-2.5,2.5-2.5,6.5,0,9l21.2,21.2c2.5,2.5,6.5,2.5,9,0
	l42.4-42.4c1.2-1.2,1.9-2.8,1.9-4.5c0-1.7-0.6-3.3-1.9-4.5l0,0c-1.2-1.2-2.8-1.9-4.5-1.9c-1.7,0-3.3,0.6-4.5,1.9L204,166.3
	l-16.7-16.7C186.1,148.4,184.5,147.7,182.8,147.7z"/>
</svg>
