<?xml version="1.0" encoding="utf-8"?>
<!-- Generator: Adobe Illustrator 25.0.1, SVG Export Plug-In . SVG Version: 6.00 Build 0)  -->
<svg version="1.1" fill="#8052FD" id="Capa_1" xmlns="http://www.w3.org/2000/svg" xmlns:xlink="http://www.w3.org/1999/xlink" x="0px" y="0px"
	 viewBox="0 0 512 512" style="enable-background:new 0 0 512 512;" xml:space="preserve">

	
	


<g>
	<g>
		<path d="M333.7,196.8h-17.9c-1.1-3.5-2.5-6.8-4.2-10.1l12.7-12.7c1.6-1.6,2.4-3.7,2.4-5.9s-0.9-4.3-2.4-5.9
			l-14.9-14.9c-3.2-3.2-8.6-3.2-11.8,0L285,160.1c-3.2-1.7-6.6-3.1-10.1-4.2V138c0-4.6-3.8-8.3-8.3-8.3h-21c-4.6,0-8.3,3.8-8.3,8.3
			v17.9c-3.5,1.1-6.8,2.5-10.1,4.2l-12.7-12.7c-3.2-3.2-8.6-3.2-11.8,0l-14.9,15c-1.6,1.6-2.4,3.7-2.4,5.9s0.9,4.3,2.4,5.9
			l12.7,12.7c-1.7,3.2-3.1,6.6-4.2,10.1h-17.9c-4.6,0-8.3,3.8-8.3,8.3v21c0,4.6,3.8,8.3,8.3,8.3h17.8c1.1,3.5,2.5,6.8,4.2,10.1
			l-12.7,12.7c-3.2,3.2-3.2,8.6,0,11.8l14.9,14.9c3.2,3.2,8.6,3.2,11.8,0l12.7-12.7c3.2,1.7,6.6,3.1,10.1,4.2v17.9
			c0,4.6,3.8,8.3,8.3,8.3h21c4.6,0,8.3-3.8,8.3-8.3v-17.9c3.5-1.1,6.8-2.5,10.1-4.2l12.7,12.7c3.2,3.2,8.6,3.2,11.8,0l14.9-14.9
			c1.6-1.6,2.4-3.7,2.4-5.9s-0.9-4.3-2.4-5.9l-12.7-12.7c1.7-3.2,3.1-6.6,4.2-10.1h17.9c4.6,0,8.3-3.8,8.3-8.3v-21
			C342,200.6,338.2,196.8,333.7,196.8z M330.2,222.8h-19c-2.8,0-5.1,1.9-5.7,4.6c-1.3,5.4-3.4,10.5-6.3,15.2
			c-1.4,2.4-1.1,5.4,0.9,7.3l13.4,13.4l-10,10l-13.4-13.4c-2-2-5-2.3-7.3-0.9c-4.7,2.9-9.8,5-15.2,6.3c-2.7,0.6-4.6,3-4.6,5.7v19
			h-14.2v-19c0-2.8-1.9-5.1-4.6-5.7c-5.4-1.3-10.5-3.4-15.2-6.3c-2.4-1.4-5.4-1.1-7.3,0.9l-13.4,13.4l-9.8-10.1l13.4-13.4
			c2-2,2.3-5,0.9-7.3c-2.9-4.6-5-9.8-6.3-15.2c-0.6-2.7-3-4.6-5.7-4.6h-19v-14.2h19c2.8,0,5.1-1.9,5.7-4.6
			c1.3-5.4,3.4-10.5,6.3-15.2c1.4-2.4,1.1-5.4-0.9-7.3l-13.4-13.4l10-10l13.4,13.4c2,2,5,2.3,7.3,0.9c4.6-2.9,9.8-5,15.2-6.3
			c2.7-0.6,4.6-3,4.6-5.7v-19h14.2v19c0,2.8,1.9,5.1,4.6,5.7c5.4,1.3,10.5,3.4,15.2,6.3c2.4,1.4,5.4,1.1,7.3-0.9l13.4-13.4l10,10
			l-13.4,13.4c-2,2-2.3,5-0.9,7.3c2.9,4.6,5,9.8,6.3,15.2c0.6,2.7,3,4.6,5.7,4.6h19v14.2H330.2z"/>
	</g>
</g>
<g>
	<g>
		<path d="M256,184.1c-17.5,0-31.6,14.2-31.6,31.6s14.2,31.6,31.6,31.6s31.6-14.2,31.6-31.6S273.5,184.1,256,184.1z
			 M256,235.5c-10.9,0-19.8-8.9-19.8-19.8s8.9-19.8,19.8-19.8c10.9,0,19.8,8.9,19.8,19.8S266.9,235.5,256,235.5z"/>
	</g>
</g>
<g>
	<g>
		<path d="M120.3,209.8h-19.6c-3.2,0-5.9,2.7-5.9,5.9c0,3.2,2.7,5.9,5.9,5.9h19.6c3.2,0,5.9-2.7,5.9-5.9
			C126.2,212.5,123.6,209.8,120.3,209.8z"/>
	</g>
</g>
<g>
	<g>
		<path d="M411.3,209.8h-19.6c-3.2,0-5.9,2.7-5.9,5.9c0,3.2,2.7,5.9,5.9,5.9h19.6c3.2,0,5.9-2.7,5.9-5.9
			C417.2,212.5,414.6,209.8,411.3,209.8z"/>
	</g>
</g>
<g>
	<g>
		<path d="M164.2,307.5c-2.3-2.3-6.1-2.3-8.3,0l-13.9,13.9c-2.3,2.3-2.3,6.1,0,8.3c2.3,2.3,6.1,2.3,8.3,0l13.9-13.9
			C166.5,313.5,166.5,309.8,164.2,307.5z"/>
	</g>
</g>
<g>
	<g>
		<path d="M369.9,101.8c-2.3-2.3-6.1-2.3-8.3,0l-13.9,13.9c-2.3,2.3-2.3,6.1,0,8.3c2.3,2.3,6.1,2.3,8.3,0l13.9-13.9
			C372.3,107.8,372.3,104,369.9,101.8z"/>
	</g>
</g>
<g>
	<g>
		<path d="M256,54.5c-3.2,0-5.9,2.7-5.9,5.9V80c0,3.2,2.7,5.9,5.9,5.9c3.2,0,5.9-2.7,5.9-5.9V60.4
			C261.9,57.2,259.2,54.5,256,54.5z"/>
	</g>
</g>
<g>
	<g>
		<path d="M369.9,321.3l-13.9-13.9c-2.3-2.3-6.1-2.3-8.3,0c-2.3,2.3-2.3,6.1,0,8.3l13.9,13.9c2.3,2.3,6.1,2.3,8.3,0
			C372.3,327.4,372.3,323.7,369.9,321.3z"/>
	</g>
</g>
<g>
	<g>
		<path d="M164.2,115.6l-13.9-13.9c-2.3-2.3-6.1-2.3-8.3,0s-2.3,6.1,0,8.3l13.9,13.9c2.3,2.3,6.1,2.3,8.3,0
			C166.5,121.7,166.5,117.9,164.2,115.6z"/>
	</g>
</g>
<g>
	<g>
		<path d="M373.7,201.2c-6.3-54.1-49.3-97.1-103.2-103.7c-3.2-0.4-6.2,1.9-6.6,5.1c-0.4,3.2,1.9,6.2,5.1,6.6
			c49,6,87.2,44.4,92.9,93.4c0.3,3,2.9,5.2,5.8,5.2c0.2,0,0.5,0,0.7-0.1C371.8,207.4,374.1,204.5,373.7,201.2z"/>
	</g>
</g>
<g>
	<g>
		<path d="M368.5,223.7c-3.2-0.4-6.2,1.9-6.6,5.1c-4,31.8-22,59.8-49.2,77c-11.7,7.4-18.7,20-18.7,33.8v24.3h-75.9V339
			c0-13.3-7-26-18.2-32.9c-31.7-19.7-50.7-53.6-50.7-90.8c0-53.8,40.3-99.3,93.7-105.9c3.2-0.4,5.5-3.4,5.1-6.6
			c-0.4-3.2-3.4-5.5-6.6-5.1c-59,7.3-104,58.1-104,117.6c0,20.5,5.4,40.8,15.5,58.6c9.8,17.2,23.9,31.9,40.8,42.3
			c7.8,4.8,12.6,13.5,12.6,22.8v25.6c-6,2-10.3,7.8-10.3,14.5v8.4c0,3.5,1.3,6.8,3.3,9.4c-2,2.6-3.3,5.9-3.3,9.4v8.4
			c0,8.5,6.8,15.3,15.3,15.3H230v13.4c0,7.7,6.3,13.9,13.9,13.9h24.4c7.7,0,13.9-6.3,13.9-13.9v-13.4h18.6c8.5,0,15.3-6.8,15.3-15.3
			v-8.4c0-3.5-1.3-6.8-3.3-9.4c2-2.6,3.3-5.9,3.3-9.4v-8.4c0-6.7-4.3-12.4-10.3-14.5v-25.2c0-9.7,5-18.6,13.2-23.8
			c30.3-19,50.2-50.1,54.6-85.5C374,227,371.8,224.1,368.5,223.7z M270.3,443.5c0,1.2-1,2.1-2.1,2.1h-24.4c-1.2,0-2.1-1-2.1-2.1
			v-13.4h28.7L270.3,443.5L270.3,443.5z M304.2,414.8c0,1.9-1.7,3.5-3.5,3.5c-10.4,0-79.6,0-89.4,0c-1.9,0-3.5-1.7-3.5-3.5v-8.4
			c0-1.9,1.7-3.5,3.5-3.5h89.4c1.9,0,3.5,1.7,3.5,3.5V414.8z M304.2,387.5c0,1.9-1.7,3.5-3.5,3.5h-89.4c-1.9,0-3.5-1.7-3.5-3.5v-8.4
			c0-1.9,1.7-3.5,3.5-3.5h89.4c1.9,0,3.5,1.7,3.5,3.5V387.5L304.2,387.5z"/>
	</g>
</g>
</svg>
