<?xml version="1.0" encoding="UTF-8"?><svg fill="#8052fd" id="AI-1" xmlns="http://www.w3.org/2000/svg" viewBox="0 0 198 198"><path d="M165.69,143.24H32.31c-.78,0-1.5-.4-1.91-1.07-.41-.66-.45-1.49-.1-2.19l9.88-19.76c.38-.76,1.16-1.24,2.01-1.24h113.62c.85,0,1.63,.48,2.01,1.24l9.88,19.76c.35,.7,.31,1.53-.1,2.19-.41,.66-1.13,1.07-1.91,1.07Zm-129.74-4.5h126.1l-7.63-15.26H43.58l-7.63,15.26Z" /><path d="M155.81,123.48H42.19c-1.24,0-2.25-1.01-2.25-2.25V54.54c0-6.69,5.44-12.13,12.13-12.13h93.86c6.69,0,12.13,5.44,12.13,12.13V121.23c0,1.24-1.01,2.25-2.25,2.25Zm-111.37-4.5h109.12V54.54c0-4.21-3.42-7.63-7.63-7.63H52.07c-4.21,0-7.63,3.42-7.63,7.63V118.98Z" /><path d="M158.28,155.59H39.72c-5.33,0-9.66-4.33-9.66-9.66v-4.94c0-1.24,1.01-2.25,2.25-2.25H165.69c1.24,0,2.25,1.01,2.25,2.25v4.94c0,5.33-4.33,9.66-9.66,9.66Zm-123.72-12.35v2.69c0,2.85,2.31,5.16,5.16,5.16h118.56c2.85,0,5.16-2.31,5.16-5.16v-2.69H34.56Z" /><path d="M103.94,133.24h-9.88c-1.24,0-2.25-1.01-2.25-2.25s1.01-2.25,2.25-2.25h9.88c1.24,0,2.25,1.01,2.25,2.25s-1.01,2.25-2.25,2.25Z" /><g><path d="M127.22,107.21h-56.43c-1.24,0-2.28-1.03-2.28-2.27V57.9c0-1.24,1.03-2.27,2.28-2.27s2.27,1.02,2.27,2.27v44.78h54.16c1.24,0,2.27,1.03,2.27,2.27s-1.03,2.27-2.27,2.27Z" /><path d="M70.79,107.21c-.74,0-1.46-.38-1.88-.99-.35-.51-.47-1.14-.35-1.73h0s0,0,0-.02c0-.02,0-.04,.01-.05,.16-.72,1.54-6.53,4.34-12.23,1.79-3.65,3.82-6.59,6.03-8.72,2.96-2.86,6.26-4.31,9.8-4.31,6.53,0,9.33,4.25,11.57,7.67,2.09,3.19,3.42,4.99,6.39,4.99,3.55,0,5.83-1.25,7.42-4.07,1.54-2.75,2.2-6.59,2.83-10.31,1.11-6.51,2.48-14.58,10.27-14.58,1.24,0,2.27,1.03,2.27,2.27s-1.03,2.27-2.27,2.27c-3.56,0-4.54,3.45-5.78,10.76-.7,4.11-1.41,8.35-3.35,11.81-2.38,4.24-6.21,6.38-11.39,6.38-5.57,0-8.03-3.74-10.19-7.04-2.29-3.49-3.89-5.62-7.76-5.62-2.31,0-4.54,1.02-6.63,3.04-1.83,1.77-3.55,4.27-5.11,7.45-2.72,5.54-3.98,11.19-3.99,11.25-.02,.08-.04,.16-.06,.24-.31,.92-1.19,1.55-2.16,1.55Z" /></g></svg>