<?xml version="1.0" encoding="UTF-8"?><svg fill="#8052fd" id="AI-1" xmlns="http://www.w3.org/2000/svg" viewBox="0 0 198 198"><g><path d="M43.71,111.44c-1.19,0-2.38-.46-3.29-1.37l-3.86-3.86c-.89-.89-1.38-2.08-1.36-3.34,.01-1.26,.52-2.44,1.43-3.31l59.15-56.88c1.81-1.74,4.65-1.74,6.46,0l16.19,15.56v-5.92c0-1.24,1.01-2.25,2.25-2.25h19.26c1.24,0,2.25,1.01,2.25,2.25v27.35c0,.9,.37,1.77,1.02,2.39l18.19,17.49h0c.91,.88,1.42,2.05,1.43,3.31,.01,1.26-.47,2.45-1.36,3.34l-3.86,3.86c-1.76,1.76-4.59,1.83-6.43,.15l-52.05-47.52c-.06-.05-.15-.05-.21,0l-52.05,47.52c-.89,.82-2.02,1.22-3.14,1.22ZM99,45.88s-.08,.01-.11,.04l-59.15,56.88s-.05,.05-.05,.11,.03,.1,.05,.11l3.86,3.86c.06,.06,.15,.06,.22,0l52.05-47.52c1.79-1.64,4.49-1.64,6.28,0l52.05,47.52c.06,.06,.16,.05,.22,0l3.86-3.86s.05-.05,.05-.11-.04-.1-.05-.11l-18.19-17.49c-1.52-1.47-2.4-3.52-2.4-5.63v-25.1h-14.76v5.16c0,1.55-.92,2.95-2.35,3.55-1.43,.61-3.07,.31-4.19-.77l-17.26-16.6s-.07-.04-.11-.04Z" /><path d="M147.15,156.62H50.85c-1.24,0-2.25-1.01-2.25-2.25v-50.86c0-.63,.27-1.24,.73-1.66l46.52-42.48c1.79-1.64,4.49-1.64,6.28,0l46.52,42.48c.47,.43,.73,1.03,.73,1.66v50.86c0,1.24-1.01,2.25-2.25,2.25Zm-94.04-4.5h91.79v-47.62l-45.79-41.81h0c-.06-.05-.15-.05-.21,0l-45.79,41.81v47.62Z" /></g><g><g><path d="M112.16,118.1c-4.78,0-8.66-3.89-8.66-8.66s3.89-8.66,8.66-8.66,8.66,3.89,8.66,8.66-3.89,8.66-8.66,8.66Zm0-12.83c-2.3,0-4.16,1.87-4.16,4.16s1.87,4.16,4.16,4.16,4.16-1.87,4.16-4.16-1.87-4.16-4.16-4.16Z" /><path d="M99.02,156.62c-1.24,0-2.3-1.01-2.3-2.25v-31.78c0-.6,.24-1.17,.66-1.59l8.63-8.63c.88-.88,2.3-.88,3.18,0,0,0,.02,.02,.02,.02,.87,.88,.89,2.32,.01,3.19l-7.96,7.96v30.83c0,1.24-1.01,2.25-2.25,2.25Z" /></g><g><path d="M77.9,128.61c-4.78,0-8.66-3.89-8.66-8.66s3.89-8.66,8.66-8.66,8.66,3.89,8.66,8.66-3.89,8.66-8.66,8.66Zm0-12.83c-2.3,0-4.16,1.87-4.16,4.16s1.87,4.16,4.16,4.16,4.16-1.87,4.16-4.16-1.87-4.16-4.16-4.16Z" /><path d="M77.93,156.62c-1.24,0-2.3-1.01-2.3-2.25v-28.01c0-1.24,1.01-2.25,2.25-2.25,.02,0,.03,0,.05,0,1.24,0,2.25,1.01,2.25,2.25v28.01c0,1.24-1.01,2.25-2.25,2.25Z" /></g><g><path d="M120.1,141.85c-4.78,0-8.66-3.89-8.66-8.66s3.89-8.66,8.66-8.66,8.66,3.89,8.66,8.66-3.89,8.66-8.66,8.66Zm0-12.83c-2.3,0-4.16,1.87-4.16,4.16s1.87,4.16,4.16,4.16,4.16-1.87,4.16-4.16-1.87-4.16-4.16-4.16Z" /><path d="M120.12,156.62c-1.24,0-2.3-1.01-2.3-2.25v-14.77c0-1.25,1-2.25,2.27-2.25h.03c1.24,0,2.25,1.01,2.25,2.25v14.77c0,1.24-1.01,2.25-2.25,2.25Z" /></g></g></svg>