<?xml version="1.0" encoding="utf-8"?>
<!-- Generator: Adobe Illustrator 25.0.1, SVG Export Plug-In . SVG Version: 6.00 Build 0)  -->
<svg version="1.1" fill="#8052FD" id="Layer_1" xmlns="http://www.w3.org/2000/svg" xmlns:xlink="http://www.w3.org/1999/xlink" x="0px" y="0px"
	 viewBox="0 0 496 496" style="enable-background:new 0 0 496 496;" xml:space="preserve">

	
	


<path d="M233.7,334c-2.6,0-5.2-1-7.3-2.9c-2.1-2.1-3.5-4.9-3.5-7.8l-0.1-12.4c-0.1-0.1-0.3-0.1-0.4-0.1l0,0l-8.8,8.8
	c-4.3,4.3-11.2,4.4-15.6,0.2l-21.6-20.6c-2.2-2.1-3.4-4.9-3.5-7.8c0-2.9,1.1-5.8,3.2-7.9l8.7-8.7c-0.1-0.1-0.1-0.1-0.1-0.2
	l-12.8,0.1c-2.7,0.1-5.6-1-7.7-2.9c-2.1-2.1-3.4-4.9-3.5-7.8l-0.4-29.4c-0.1-2.7,0.9-5.4,2.9-7.5c2.1-2.2,5-3.5,8-3.5l12.5-0.3
	c0.1-0.1,0.1-0.2,0.1-0.3l-8.9-8.6c-2.1-2.1-3.3-4.9-3.3-7.9c0.1-2.9,1.3-5.8,3.5-7.8l20.9-20.9c4.3-4.3,11.2-4.4,15.6-0.2l9,8.6
	c0.1-0.1,0.3-0.1,0.4-0.1l-0.1-12.4c-0.1-2.7,0.9-5.4,2.9-7.5c2.1-2.2,5-3.5,8-3.5L262,162c2.7-0.1,5.6,1,7.7,2.9
	c2.1,2.1,3.4,4.9,3.5,7.8l0.1,12.4c0.1,0.1,0.3,0.1,0.4,0.1l0,0l8.8-8.8c4.3-4.3,11.2-4.4,15.6-0.2l21.5,20.5
	c2.2,2.1,3.4,4.9,3.5,7.8s-1.1,5.8-3.2,7.9l-8.7,8.7c0,0.1,0.1,0.1,0.1,0.2l12.8-0.1c2.7-0.1,5.6,1,7.7,2.9c2.1,2.1,3.5,4.9,3.5,7.8
	l0.3,29.3c0.1,2.7-0.9,5.4-2.9,7.5c-2.1,2.2-5,3.5-8,3.5l-12.8,0.1c0,0.1-0.1,0.1-0.1,0.2l8.9,8.5c4.1,4,4.6,10.3,1,15.2
	c-0.1,0.2-0.4,0.4-0.6,0.7l-21.1,21.1c-4.3,4.3-11.2,4.4-15.6,0.2l-9-8.6c-0.1,0.1-0.3,0.1-0.4,0.1l0.1,12.4
	c0.1,2.7-0.9,5.4-2.9,7.5c-2.1,2.2-5,3.5-8,3.5l-30.1,0.4C234,334,233.9,334,233.7,334z M263.3,322.8L263.3,322.8L263.3,322.8z
	 M233.9,322.2L233.9,322.2L233.9,322.2L233.9,322.2z M221.1,297.6c0.7,0,1.3,0.1,2,0.4c1,0.4,2,0.8,2.9,1.3c0.4,0.1,0.7,0.4,1,0.5
	c0.4,0.2,1.8,0.8,2.9,1c2.7,0.6,4.6,2.9,4.6,5.7l0.2,15.6l28.6-0.4l-0.2-15.6c0-2.7,1.8-5.2,4.5-5.8c0.6-0.1,1.2-0.4,1.8-0.7
	l1.3-0.5c0.9-0.3,1.8-0.7,2.7-1.3c2.3-1.4,5.2-1,7.2,0.8l11.6,11.1l20.1-20.1l-11.6-11.1c-1.7-1.6-2.3-4.1-1.4-6.3
	c0.4-1,0.9-2,1.3-2.9c0.1-0.3,0.3-0.5,0.4-0.8c0.1-0.5,0.4-1,0.6-1.5c0.2-0.4,0.4-1,0.5-1.4c0.6-2.7,2.9-4.6,5.7-4.6l16.1-0.2
	l-0.3-27.6l-16.1,0.2c-2.8-0.1-5.2-1.8-5.8-4.5c-0.1-0.6-0.4-1.2-0.7-1.8l-0.5-1.3c-0.2-0.5-0.5-1.3-1.3-2.6
	c-1.5-2.4-1.1-5.4,0.8-7.3l11.1-11.1l-20.6-19.4l-11.3,11.4c-1.6,1.6-4.1,2.1-6.2,1.4c-1-0.4-2-0.8-2.9-1.3
	c-0.3-0.1-0.6-0.3-0.9-0.4c-0.5-0.1-1-0.4-1.5-0.6c-0.5-0.2-1-0.4-1.5-0.5c-2.7-0.6-4.6-2.9-4.6-5.7l-0.2-15.6l-28.6,0.4l0.2,15.6
	c0,2.7-1.8,5.2-4.5,5.8c-0.6,0.1-1.2,0.4-1.8,0.7l-1.3,0.5c-0.8,0.3-1.7,0.7-2.7,1.3c-2.3,1.4-5.2,1-7.1-0.8l-11.6-11.1l-20.1,20.1
	l11.2,10.7c1.7,1.6,2.3,4.1,1.5,6.3c-0.4,1-0.9,2-1.3,2.9c-0.1,0.4-0.4,0.7-0.5,1c-0.2,0.5-0.8,1.8-1,2.7c-0.6,2.7-2.9,4.6-5.6,4.6
	l-16,0.4l0.4,27.7l16.1-0.2h0.1c2.7,0,5.1,1.8,5.8,4.4c0.1,0.6,0.4,1.2,0.7,1.7l0.6,1.3c0.2,0.5,0.5,1.3,1.3,2.6
	c1.5,2.4,1.1,5.4-0.8,7.3l-11.1,11.1l20.6,19.6l11.3-11.4C218.1,298.3,219.6,297.6,221.1,297.6z M312.7,290L312.7,290z M171.6,262.7
	L171.6,262.7L171.6,262.7C171.6,262.7,171.6,262.7,171.6,262.7z M324,261.7L324,261.7L324,261.7z M172.1,234L172.1,234L172.1,234z
	 M324.5,233.1L324.5,233.1L324.5,233.1z M262.4,173.8L262.4,173.8L262.4,173.8z M232.9,173.1L232.9,173.1
	C232.9,173.2,232.9,173.2,232.9,173.1z"/>
<path d="M248.3,283.4c-9.6,0-18.7-3.5-25.4-10c-6.9-6.6-10.8-15.6-11-25.2c-0.1-9.7,3.5-18.7,10.3-25.5
	c6.7-6.8,15.9-10.5,25.7-10.7c10-0.1,18.9,3.5,25.9,10c6.9,6.6,10.8,15.6,11,25.2v0.1c0,9.7-3.7,18.8-10.3,25.4
	c-6.7,6.8-15.9,10.5-25.7,10.7C248.6,283.4,248.5,283.4,248.3,283.4z M248.4,223.7c-0.1,0-0.2,0-0.3,0c-6.7,0.1-12.9,2.7-17.4,7.2
	c-4.5,4.5-6.9,10.5-6.9,17c0.1,6.5,2.7,12.5,7.3,16.8c4.6,4.3,10.7,6.8,17.3,6.8h0.3c6.7-0.1,12.9-2.7,17.4-7.2
	c4.4-4.4,6.9-10.5,6.9-17c-0.1-6.4-2.7-12.4-7.3-16.8C261.1,226.2,254.9,223.7,248.4,223.7z"/>
<path d="M243.1,96.8h11.8v38.9h-11.8L243.1,96.8L243.1,96.8z"/>
<path d="M248.8,107.8c-11.9,0-21.7-9.6-21.7-21.3s9.7-21.3,21.7-21.3c11.9,0,21.7,9.6,21.7,21.3
	C270.4,98.3,260.7,107.8,248.8,107.8z M248.8,77c-5.5,0-9.9,4.3-9.9,9.5c0,5.2,4.4,9.5,9.9,9.5c5.5,0,9.9-4.3,9.9-9.5
	C258.6,81.2,254.2,77,248.8,77z"/>
<path d="M111.4,176.6l6.3-10l35.2,22.6l-6.3,10L111.4,176.6z"/>
<path d="M105.3,187.9c-3.7,0-7.4-0.9-10.8-2.8c-5.1-2.9-8.7-7.5-10.2-13s-0.7-11.2,2.2-16.1c6-10.1,19.2-13.6,29.6-7.8
	c5.1,2.9,8.7,7.5,10.2,13c1.5,5.5,0.7,11.2-2.2,16.1C120,184.2,112.7,187.9,105.3,187.9z M105.3,157.1c-3.5,0-6.8,1.7-8.6,4.8
	c-1.3,2.1-1.6,4.7-1,7.1c0.7,2.5,2.3,4.6,4.6,5.8c4.8,2.7,10.8,1.1,13.6-3.5c1.3-2.1,1.6-4.7,1-7.1c-0.7-2.5-2.3-4.6-4.6-5.8l0,0
	C108.7,157.5,107,157.1,105.3,157.1z"/>
<path d="M110.4,317.8l35.2-22.6l6.3,10l-35.2,22.6L110.4,317.8z"/>
<path d="M104.6,349.5c-7.5,0-14.8-3.8-18.8-10.6c-2.9-4.9-3.7-10.6-2.2-16.1c1.5-5.5,5.1-10.2,10.2-13
	c10.3-5.8,23.5-2.4,29.6,7.8c2.9,4.9,3.7,10.6,2.2,16.1c-1.5,5.5-5.1,10.2-10.2,13C112,348.6,108.2,349.5,104.6,349.5z M104.5,318.6
	c-1.7,0-3.4,0.4-5,1.3c-2.3,1.3-3.9,3.4-4.6,5.8c-0.7,2.4-0.3,4.9,1,7.1c2.7,4.6,8.8,6.2,13.6,3.5c2.3-1.3,3.9-3.4,4.6-5.8
	c0.7-2.4,0.3-4.9-1-7.1C111.3,320.3,108,318.6,104.5,318.6z M96.6,314.8L96.6,314.8L96.6,314.8z"/>
<path d="M241.2,360.2H253v38.9h-11.8V360.2z"/>
<path d="M247.3,430.8c-11.9,0-21.7-9.6-21.7-21.3c0-11.7,9.7-21.3,21.7-21.3c11.9,0,21.7,9.6,21.7,21.3
	C269,421.3,259.2,430.8,247.3,430.8z M247.3,400c-5.5,0-9.9,4.3-9.9,9.5c0,5.2,4.4,9.5,9.9,9.5s9.9-4.3,9.9-9.5
	C257.2,404.2,252.7,400,247.3,400z"/>
<path d="M343.1,306.8l6.3-10l35.2,22.6l-6.3,10L343.1,306.8z"/>
<path d="M390.7,350.7c-3.7,0-7.4-0.9-10.8-2.8c-5.1-2.9-8.7-7.5-10.2-13c-1.5-5.5-0.7-11.2,2.2-16.1
	c6-10.1,19.2-13.6,29.6-7.8c5.1,2.9,8.7,7.5,10.2,13c1.5,5.5,0.7,11.2-2.2,16.1C405.5,346.9,398.2,350.7,390.7,350.7z M390.8,319.9
	c-3.4,0-6.8,1.7-8.6,4.8c-1.3,2.1-1.6,4.7-1,7.1c0.7,2.5,2.3,4.6,4.6,5.8l0,0c4.8,2.7,10.8,1.1,13.6-3.5c1.3-2.1,1.6-4.7,1-7.1
	c-0.7-2.5-2.3-4.6-4.6-5.8C394.1,320.3,392.4,319.9,390.8,319.9z"/>
<path d="M344,190.8l35.2-22.6l6.3,10l-35.2,22.6L344,190.8z"/>
<path d="M391.6,189.2c-7.5,0-14.7-3.8-18.8-10.6c-2.9-4.9-3.7-10.6-2.2-16.1c1.5-5.5,5.1-10.2,10.2-13
	c10.3-5.8,23.6-2.4,29.6,7.8c2.9,4.9,3.7,10.6,2.2,16.1c-1.5,5.5-5.1,10.2-10.2,13C398.9,188.3,395.2,189.2,391.6,189.2z
	 M391.5,158.3c-1.7,0-3.4,0.4-5,1.3c-2.3,1.3-3.9,3.4-4.6,5.8c-0.7,2.4-0.3,4.9,1,7.1c2.7,4.6,8.8,6.2,13.6,3.5
	c2.3-1.3,3.9-3.4,4.6-5.8c0.7-2.4,0.3-4.9-1-7.1C398.3,160,394.9,158.3,391.5,158.3z"/>
</svg>
