<?xml version="1.0" encoding="utf-8"?>
<!-- Generator: Adobe Illustrator 25.0.1, SVG Export Plug-In . SVG Version: 6.00 Build 0)  -->
<svg version="1.1" fill="#8052FD" id="Capa_1" xmlns="http://www.w3.org/2000/svg" xmlns:xlink="http://www.w3.org/1999/xlink" x="0px" y="0px"
	 viewBox="0 0 512 512" style="enable-background:new 0 0 512 512;" xml:space="preserve">

	
	


<g>
	<g>
		<path d="M419.6,289.6l-8.8-17.7v-24.5h8.1v-9.7h-8.1v-20.1h8.1v-9.7h-8.1v-20.1h8.1v-9.7h-8.1v-24.8l-14.6-72
			l-14.6,72v118.7l-8.8,17.7h-8.2v-42.1h6.2v-9.7h-6.2v-20.1h6.2v-9.7h-6.2v-20.1h6.2v-9.7h-6.2v-24.8l-14.6-71.9l-14.6,72v19.4H325
			c-2.4-34.5-29.9-62.1-64.3-64.7V81h-9.7v26.9c-34.7,2.3-62.6,30-65,64.7h-10.3v-19.4l-14.5-72.1l-14.6,72v24.8h-8.1v9.7h8.1v20.1
			h-8.1v9.7h8.1v20.1h-8.1v9.7h8.1v42.1H139l-8.8-17.7V153.1l-14.6-72l-14.6,72v24.8h-8.1v9.7h8.1v20.1h-8.1v9.7h8.1v20.1h-8.1v9.7
			h8.1v24.5l-8.8,17.7h-2v123.9h331.8V289.6H419.6z M391.3,154.1l4.9-24l4.9,24v23.8h-9.7V154.1L391.3,154.1z M391.3,187.7h9.7v20.1
			h-9.7V187.7z M391.3,217.6h9.7v20.1h-9.7V217.6z M391.3,274.2v-26.8h9.7v26.8l7.7,15.4h-25.1L391.3,274.2z M345,154.1l4.9-24
			l4.9,24v23.8H345V154.1L345,154.1z M345,187.7h9.7v20.1H345V187.7z M345,217.6h9.7v20.1H345V217.6z M345,247.4h9.7v42.1H346
			c-0.2-1.4-0.5-2.9-0.9-4.3L345,247.4L345,247.4z M336.1,289.6h-47.7c2.2-10.6,11.8-18.2,23.8-18.2
			C324.4,271.4,333.9,278.9,336.1,289.6z M255.2,263.6c-8.1,0-14.6,6.6-14.6,14.6v11.4h-7.5c-2.4-16-16.3-27.9-33.7-27.9
			c-1,0-1.9,0.1-2.9,0.1v-25.5h118v25.4c-0.8-0.1-1.5-0.1-2.3-0.1c-17.4,0-31.3,11.9-33.7,27.9h-8.8v-11.4
			C269.8,270.1,263.2,263.6,255.2,263.6z M260,278.2v11.4h-9.7v-11.4c0-2.7,2.2-4.9,4.9-4.9C257.8,273.3,260,275.5,260,278.2z
			 M211,226.6c5.6-8.9,13.6-15.8,23-20c-3.4,5.4-6.2,12.1-8.2,20H211z M235.8,226.6c3.4-11.8,8.9-20.3,14.8-23.4v23.4H235.8z
			 M260.4,226.6v-23.4c6,3.1,11.4,11.6,14.8,23.4H260.4z M277,206.6c9.4,4.2,17.4,11.2,23,20h-14.7C283.3,218.7,280.5,212,277,206.6
			z M255.5,117.4c31.4,0,57.3,24.3,59.8,55.1H195.7C198.2,141.8,224.1,117.4,255.5,117.4z M175.7,182.3h10.1h139.5h10.1v87.8
			c-3.2-2.8-6.9-4.9-11-6.4v-37.1h-13.1c-10.5-21-32-34.3-55.6-34.3s-45.1,13.4-55.6,34.3h-13.1v37.3c-4.2,1.6-7.9,3.8-11,6.8V182.3
			L175.7,182.3z M199.4,271.4c12.1,0,21.6,7.5,23.8,18.2h-47.7C177.8,278.9,187.3,271.4,199.4,271.4z M156.3,154.1l4.9-24l4.9,24
			v23.8h-9.7V154.1z M156.3,187.7h9.7v20.1h-9.7V187.7z M156.3,217.6h9.7v20.1h-9.7V217.6z M156.3,247.4h9.7v39.9h0.1
			c-0.2,0.8-0.3,1.5-0.5,2.3h-9.4V247.4z M110.7,154.1l4.9-24l4.9,24v23.8h-9.7V154.1z M110.7,187.7h9.7v20.1h-9.7V187.7z
			 M110.7,217.6h9.7v20.1h-9.7V217.6z M110.7,274.2v-26.8h9.7v26.8l7.7,15.4H103L110.7,274.2z M195.2,403.7H99.8V299.3h65.5h29.9
			L195.2,403.7L195.2,403.7z M308.1,403.7H204.9V299.3h28.6h7.1h29.2h8.4h29.9L308.1,403.7L308.1,403.7z M412.2,403.7h-94.3V299.3
			h28.6h65.8L412.2,403.7L412.2,403.7z"/>
	</g>
</g>
<g>
	<g>
		<path d="M124.8,312.3c-8.1,0-14.6,6.6-14.6,14.6V348h29.2v-21.1C139.4,318.8,132.8,312.3,124.8,312.3z M129.6,338.2
			h-9.7v-11.4c0-2.7,2.2-4.9,4.9-4.9s4.9,2.2,4.9,4.9V338.2L129.6,338.2z"/>
	</g>
</g>
<g>
	<g>
		<path d="M124.8,357.7c-8.1,0-14.6,6.6-14.6,14.6v21h29.2v-21.1C139.4,364.2,132.8,357.7,124.8,357.7z M129.6,383.6
			h-9.7v-11.4c0-2.7,2.2-4.9,4.9-4.9s4.9,2.2,4.9,4.9V383.6L129.6,383.6z"/>
	</g>
</g>
<g>
	<g>
		<path d="M162.4,312.3c-8.1,0-14.6,6.6-14.6,14.6V348H177v-21.1C177,318.8,170.5,312.3,162.4,312.3z M167.3,338.2h-9.7
			v-11.4c0-2.7,2.2-4.9,4.9-4.9c2.7,0,4.9,2.2,4.9,4.9V338.2L167.3,338.2z"/>
	</g>
</g>
<g>
	<g>
		<path d="M162.4,357.7c-8.1,0-14.6,6.6-14.6,14.6v21H177v-21.1C177,364.2,170.5,357.7,162.4,357.7z M167.3,383.6h-9.7
			v-11.4c0-2.7,2.2-4.9,4.9-4.9c2.7,0,4.9,2.2,4.9,4.9V383.6L167.3,383.6z"/>
	</g>
</g>
<g>
	<g>
		<path d="M237.7,312.3c-8.1,0-14.6,6.6-14.6,14.6V348h29.2v-21.1C252.3,318.8,245.7,312.3,237.7,312.3z M242.6,338.2
			h-9.7v-11.4c0-2.7,2.2-4.9,4.9-4.9s4.9,2.2,4.9,4.9V338.2L242.6,338.2z"/>
	</g>
</g>
<g>
	<g>
		<path d="M237.7,357.7c-8.1,0-14.6,6.6-14.6,14.6v21h29.2v-21.1C252.3,364.2,245.7,357.7,237.7,357.7z M242.6,383.6
			h-9.7v-11.4c0-2.7,2.2-4.9,4.9-4.9s4.9,2.2,4.9,4.9V383.6L242.6,383.6z"/>
	</g>
</g>
<g>
	<g>
		<path d="M275.3,312.3c-8.1,0-14.6,6.6-14.6,14.6V348h29.2v-21.1C289.9,318.8,283.3,312.3,275.3,312.3z M280.2,338.2
			h-9.7v-11.4c0-2.7,2.2-4.9,4.9-4.9s4.9,2.2,4.9,4.9V338.2L280.2,338.2z"/>
	</g>
</g>
<g>
	<g>
		<path d="M275.3,357.7c-8.1,0-14.6,6.6-14.6,14.6v21h29.2v-21.1C289.9,364.2,283.3,357.7,275.3,357.7z M280.2,383.6
			h-9.7v-11.4c0-2.7,2.2-4.9,4.9-4.9s4.9,2.2,4.9,4.9V383.6L280.2,383.6z"/>
	</g>
</g>
<g>
	<g>
		<path d="M350.5,312.3c-8.1,0-14.6,6.6-14.6,14.6V348h29.2v-21.1C365.2,318.8,358.6,312.3,350.5,312.3z M355.4,338.2
			h-9.7v-11.4c0-2.7,2.2-4.9,4.9-4.9s4.9,2.2,4.9,4.9V338.2L355.4,338.2z"/>
	</g>
</g>
<g>
	<g>
		<path d="M350.5,357.7c-8.1,0-14.6,6.6-14.6,14.6v21h29.2v-21.1C365.2,364.2,358.6,357.7,350.5,357.7z M355.4,383.6
			h-9.7v-11.4c0-2.7,2.2-4.9,4.9-4.9s4.9,2.2,4.9,4.9V383.6L355.4,383.6z"/>
	</g>
</g>
<g>
	<g>
		<path d="M388.2,312.3c-8.1,0-14.6,6.6-14.6,14.6V348h29.2v-21.1C402.7,318.8,396.2,312.3,388.2,312.3z M393,338.2
			h-9.7v-11.4c0-2.7,2.2-4.9,4.9-4.9s4.9,2.2,4.9,4.9V338.2L393,338.2z"/>
	</g>
</g>
<g>
	<g>
		<path d="M388.2,357.7c-8.1,0-14.6,6.6-14.6,14.6v21h29.2v-21.1C402.7,364.2,396.2,357.7,388.2,357.7z M393,383.6h-9.7
			v-11.4c0-2.7,2.2-4.9,4.9-4.9s4.9,2.2,4.9,4.9V383.6L393,383.6z"/>
	</g>
</g>
<g>
	<g>
		<polygon points="185.8,192 185.8,209.9 195.5,209.9 195.5,201.8 203.6,201.8 203.6,192 		"/>
	</g>
</g>
<g>
	<g>
		<polygon points="307.4,192 307.4,201.8 315.5,201.8 315.5,209.9 325.2,209.9 325.2,192 		"/>
	</g>
</g>
<g>
	<g>
		<path d="M255.5,127.2v9.7c9.9,0,19.5,3.6,26.9,10.3l6.5-7.3C279.7,131.7,267.8,127.2,255.5,127.2z"/>
	</g>
</g>
<g>
	<g>
		<rect x="272.4" y="246.1" width="9.7" height="9.7"/>
	</g>
</g>
<g>
	<g>
		<rect x="205.2" y="246.1" width="9.7" height="9.7"/>
	</g>
</g>
<g>
	<g>
		<rect x="294.8" y="246.1" width="9.7" height="9.7"/>
	</g>
</g>
<g>
	<g>
		<rect x="227.6" y="246.1" width="9.7" height="9.7"/>
	</g>
</g>
<g>
	<g>
		<rect x="250" y="246.1" width="9.7" height="9.7"/>
	</g>
</g>
<g>
	<g>
		<rect x="287.3" y="156.6" width="9.7" height="9.7"/>
	</g>
</g>
<g>
	<g>
		<rect x="213.3" y="156.6" width="9.7" height="9.7"/>
	</g>
</g>
<g>
	<g>
		<rect x="262.6" y="156.6" width="9.7" height="9.7"/>
	</g>
</g>
<g>
	<g>
		<rect x="238" y="156.6" width="9.7" height="9.7"/>
	</g>
</g>
<rect x="57.7" y="403.7" width="396.2" height="9.7"/>
</svg>
