<?xml version="1.0" encoding="utf-8"?>
<!-- Generator: Adobe Illustrator 25.0.1, SVG Export Plug-In . SVG Version: 6.00 Build 0)  -->
<svg version="1.1" fill="#8052FD" id="Layer_1" xmlns="http://www.w3.org/2000/svg" xmlns:xlink="http://www.w3.org/1999/xlink" x="0px" y="0px"
	 viewBox="0 0 263.4 490" style="enable-background:new 0 0 263.4 490;" xml:space="preserve">

<g id="Layer_2_1_">
	<g id="Capa_1">
		<path d="M87.1,259.8c0,0-12.8,7.5,9.1,9.9c26.7,3,40.3,2.6,69.5-3c5.9,3.6,12.1,6.6,18.5,9
			C118.5,304.2,35.4,274.3,87.1,259.8L87.1,259.8z"/>
		<path d="M79.1,223.1c0,0-14.4,10.6,7.6,12.9c28.4,3,50.9,3.1,89.8-4.4c3.9,3.7,8.6,6.6,13.7,8.4
			C110.8,263.4,22.2,242,79.1,223.1L79.1,223.1z"/>
		<path d="M146.9,160.8c16.2,18.6-4.2,35.4-4.2,35.4s41.1-21.2,22.4-47.9c-17.7-24.8-31.2-37.2,42-79.6
			C206.9,68.7,91.8,97.5,146.9,160.8L146.9,160.8z"/>
		<path d="M233.8,287.1c0,0,9.5,7.9-10.5,13.9c-38,11.4-158,15-191.4,0.4c-12-5.2,10.5-12.4,17.5-14
			c3.8-0.9,7.7-1.4,11.6-1.4c-13.3-9.4-86.2,18.4-37,26.4C158.3,334.3,268.7,302.9,233.8,287.1L233.8,287.1z"/>
		<path d="M93.2,185c0,0-61.1,14.6-21.7,19.7c16.6,2.2,49.8,1.8,80.9-0.8c25.3-2.2,50.6-6.7,50.6-6.7
			c-5.3,2.3-10.5,5.1-15.4,8.2c-62.1,16.3-181.9,8.7-147.3-8C69.6,183.3,93.2,185,93.2,185z"/>
		<path d="M202.8,246.2c63-32.8,33.9-64.2,13.6-60c-2.4,0.5-4.9,1.1-7.2,1.9c1.4-1.9,3.3-3.4,5.4-4.2
			c40.3-14.2,71.2,41.8-12.9,63.8C202.2,247.3,202.6,246.8,202.8,246.2L202.8,246.2z"/>
		<path d="M164.8,0c0,0,34.8,35-33.1,88.6c-54.6,43.2-12.4,67.7,0,95.7c-31.8-28.7-55.3-54-39.5-77.6
			C115.2,72.3,178.9,55.5,164.8,0z"/>
		<path d="M99.5,335c60.6,3.8,153.4-2.2,155.7-30.8c0,0-4.2,10.9-50,19.5c-51.6,9.7-115.4,8.6-153.1,2.3
			C51.9,326,59.7,332.4,99.5,335L99.5,335z"/>
		<path d="M252.4,386.4h-1.9v-1.1h4.9v1.1h-1.8v5.2h-1.2L252.4,386.4L252.4,386.4z M262.3,386.6L262.3,386.6l-1.9,4.9
			h-0.8l-1.8-4.9l0,0v4.9h-1.2v-6.1h1.8l1.6,4.4l1.6-4.4h1.8v6.1h-1.2L262.3,386.6L262.3,386.6z"/>
		<path d="M89.6,444.4c-5.7,4.9-11.7,7.8-17.2,7.8c-7.8,0-11.8-4.6-11.8-12.1c0-8,4.5-13.9,22.5-13.9h6.7v18.2H89.6z
			 M105.3,462.2v-55c0-14-8-23.3-27.4-23.3c-10.1,0-20.1,2.2-29.3,6.4l2.3,9.8c6.4-2.3,14.6-4.5,22.6-4.5c11.2,0,15.9,4.5,15.9,13.7
			v6.9H84c-27.1,0-39.2,10.5-39.2,26.3c0,13.6,8,21.4,23.1,21.4c9.7,0,17-4.1,23.8-9.9l1.2,8.3L105.3,462.2L105.3,462.2z"/>
		<path d="M157.9,462.2h-19.6l-23.7-77h17.2l14.7,47.2l3.3,14.2c7.3-19.9,12.4-40.6,15.3-61.6h16.7
			C177.2,410.5,169.2,438.4,157.9,462.2L157.9,462.2z"/>
		<path d="M233.3,444.4c-5.7,4.9-11.7,7.8-17.1,7.8c-7.8,0-11.8-4.6-11.8-12.1c0-8,4.5-13.9,22.5-13.9h6.7L233.3,444.4
			L233.3,444.4z M249,462.2v-55c0-14-8-23.3-27.4-23.3c-10.1,0-20.1,2.2-29.3,6.4l2.3,9.8c6.4-2.3,14.6-4.5,22.6-4.5
			c11.2,0,15.9,4.5,15.9,13.7v6.9h-5.6c-27.1,0-39.2,10.5-39.2,26.3c0,13.6,8,21.4,23.1,21.4c9.8,0,17-4.1,23.8-9.9l1.2,8.3
			L249,462.2L249,462.2z"/>
		<path d="M27.5,475.3C23,481.8,15.8,487,7.8,490L0,480.9c6-3.1,11.2-8.2,13.6-12.8c2-4.2,3-9.5,3-22.3V358h16.7v86.7
			C33.3,461.6,32,468.5,27.5,475.3L27.5,475.3z"/>
	</g>
</g>
</svg>
