<?xml version="1.0" encoding="UTF-8"?><svg fill="#8052fd" id="AI-1" xmlns="http://www.w3.org/2000/svg" viewBox="0 0 198 198"><path d="M79.25,64.29c-9.34,0-16.93-7.6-16.93-16.93s7.6-16.93,16.93-16.93,16.93,7.6,16.93,16.93-7.6,16.93-16.93,16.93Zm0-29.37c-6.86,0-12.43,5.58-12.43,12.43s5.58,12.43,12.43,12.43,12.43-5.58,12.43-12.43-5.58-12.43-12.43-12.43Z" /><path d="M123.57,89.7c-9.34,0-16.93-7.6-16.93-16.93s7.6-16.93,16.93-16.93,16.93,7.6,16.93,16.93-7.6,16.93-16.93,16.93Zm0-29.37c-6.86,0-12.43,5.58-12.43,12.43s5.58,12.43,12.43,12.43,12.43-5.58,12.43-12.43-5.58-12.43-12.43-12.43Z" /><path d="M123.57,141.68c-9.34,0-16.93-7.6-16.93-16.93s7.6-16.93,16.93-16.93,16.93,7.6,16.93,16.93-7.6,16.93-16.93,16.93Zm0-29.37c-6.86,0-12.43,5.58-12.43,12.43s5.58,12.43,12.43,12.43,12.43-5.58,12.43-12.43-5.58-12.43-12.43-12.43Z" /><path d="M79.25,167.58c-9.34,0-16.93-7.6-16.93-16.93s7.6-16.93,16.93-16.93,16.93,7.6,16.93,16.93-7.6,16.93-16.93,16.93Zm0-29.37c-6.86,0-12.43,5.58-12.43,12.43s5.58,12.43,12.43,12.43,12.43-5.58,12.43-12.43-5.58-12.43-12.43-12.43Z" /><path d="M79.25,120.43c-11.99,0-21.75-9.76-21.75-21.75s9.76-21.75,21.75-21.75,21.75,9.76,21.75,21.75-9.76,21.75-21.75,21.75Zm0-39c-9.51,0-17.25,7.74-17.25,17.25s7.74,17.25,17.25,17.25,17.25-7.74,17.25-17.25-7.74-17.25-17.25-17.25Z" /><path d="M79.25,81.42c-1.24,0-2.25-1.01-2.25-2.25v-17.14c0-1.24,1.01-2.25,2.25-2.25s2.25,1.01,2.25,2.25v17.14c0,1.24-1.01,2.25-2.25,2.25Z" /><path d="M96.33,91.5c-.72,0-1.42-.34-1.86-.98-.7-1.03-.44-2.43,.59-3.13l13.4-9.16c1.02-.7,2.43-.44,3.13,.59,.7,1.03,.44,2.43-.59,3.13l-13.4,9.16c-.39,.27-.83,.39-1.27,.39Z" /><path d="M110.43,120.43c-.47,0-.94-.15-1.35-.45l-13.91-10.45c-.99-.75-1.19-2.16-.45-3.15,.75-.99,2.16-1.19,3.15-.45l13.91,10.45c.99,.75,1.19,2.16,.45,3.15-.44,.59-1.12,.9-1.8,.9Z" /><path d="M79.25,138.21c-1.24,0-2.25-1.01-2.25-2.25v-17.79c0-1.24,1.01-2.25,2.25-2.25s2.25,1.01,2.25,2.25v17.79c0,1.24-1.01,2.25-2.25,2.25Z" /></svg>