<?xml version="1.0" encoding="utf-8"?>
<!-- Generator: Adobe Illustrator 25.0.1, SVG Export Plug-In . SVG Version: 6.00 Build 0)  -->
<svg version="1.1" fill="#8052FD" id="Capa_1" xmlns="http://www.w3.org/2000/svg" xmlns:xlink="http://www.w3.org/1999/xlink" x="0px" y="0px"
	 viewBox="0 0 488.5 488.5" style="enable-background:new 0 0 488.5 488.5;" xml:space="preserve">

	
	


<g>
	<path d="M407.5,105.5c-2.3-2.3-5.3-3.6-8.6-3.6H89.5c-6.6,0-12,5.4-12,12v260.6c0,6.6,5.4,12,12,12h309.5
		c6.6,0,12-5.4,12-12V113.9C411,110.7,409.8,107.7,407.5,105.5z M190.1,127.1c0,2.1,1.7,3.9,3.9,3.9h209.3v10.6h-318v-27.6
		c0-2.3,1.9-4.2,4.2-4.2h309.5c2.4,0,4.3,1.9,4.3,4.3v9.2H193.9C191.8,123.2,190.1,124.9,190.1,127.1z M340,180.9
		c0,2.1,1.7,3.9,3.9,3.9h59.3v134.9h-68.6c-2.1,0-3.9,1.7-3.9,3.8s1.7,3.9,3.9,3.9h68.6v29.2h-318V307h41.5c2.1,0,3.9-1.7,3.9-3.9
		s-1.7-3.9-3.9-3.9H85.2v-150h318V177h-59.3C341.8,177,340,178.8,340,180.9z M403.2,364.4v10.1c0,2.4-1.9,4.3-4.3,4.3H89.5
		c-2.4,0-4.3-1.9-4.3-4.3v-10.1H403.2z"/>
	<path d="M104.3,114.4c-6.2,0-11.3,5.1-11.3,11.3c0,6.2,5.1,11.3,11.3,11.3s11.3-5.1,11.3-11.3
		C115.6,119.5,110.6,114.4,104.3,114.4z M107.9,125.7c0,2-1.6,3.6-3.6,3.6c-2,0-3.6-1.6-3.6-3.6c0-2,1.6-3.6,3.6-3.6
		C106.3,122.1,107.9,123.7,107.9,125.7z"/>
	<path d="M133.2,114.3c-6.2,0-11.3,5.1-11.3,11.3c0,6.3,5.1,11.4,11.3,11.4s11.3-5.1,11.3-11.3
		C144.5,119.4,139.4,114.3,133.2,114.3z M136.8,125.7c0,2-1.6,3.6-3.6,3.6c-2,0-3.6-1.6-3.6-3.6c0-2,1.6-3.6,3.6-3.6
		C135.2,122.1,136.8,123.7,136.8,125.7z"/>
	<path d="M162,114.4c-6.2,0-11.3,5.1-11.3,11.3c0,6.2,5.1,11.3,11.3,11.3s11.3-5.1,11.3-11.3
		C173.3,119.5,168.3,114.4,162,114.4z M162,122.1c2,0,3.5,1.6,3.5,3.6c0,2-1.6,3.6-3.6,3.6c-2,0-3.6-1.6-3.6-3.6
		C158.4,123.7,160,122.1,162,122.1z"/>
	<path d="M176.3,203.9c0-2.4-1.2-4.7-3.2-6.2L122,159.2c-1.6-1.2-3.5-1.8-5.5-1.8c-2.9,0-5.6,1.4-7.3,3.7l-4,5.4
		c-3,4-2.2,9.8,1.8,12.8l32.8,24.6c0,0,0.1,0.1,0.1,0.1c0,0-0.1,0.1-0.1,0.1L107,228.7c-2,1.5-3.2,3.6-3.6,6
		c-0.3,2.4,0.3,4.8,1.7,6.8l4,5.4c1.7,2.3,4.4,3.7,7.3,3.7c2,0,3.9-0.6,5.5-1.8l51.1-38.4C175.1,208.6,176.3,206.2,176.3,203.9z
		 M111.6,234.8l32.8-24.6c2.1-1.5,3.3-3.8,3.3-6.3c0-2.4-1.2-4.6-3.2-6.2L111.7,173c-0.3-0.2-0.5-0.6-0.6-1c-0.1-0.4,0-0.7,0.3-1
		l4-5.3c0.3-0.4,0.7-0.6,1.1-0.6c0.3,0,0.6,0.1,0.8,0.3l51.1,38.4c0,0,0.1,0,0.1,0.1c0,0,0,0-0.1,0.1l-51.1,38.4
		c-0.6,0.4-1.5,0.3-1.9-0.3l-4-5.4c-0.2-0.3-0.3-0.6-0.2-1C111.2,235.3,111.4,235,111.6,234.8z"/>
	<path d="M237.3,225.8h-60.5c-6.8,0-12.3,5.5-12.3,12.3c0,6.8,5.5,12.3,12.3,12.3h60.5c6.8,0,12.3-5.5,12.3-12.3
		C249.6,231.3,244.1,225.8,237.3,225.8z M241.8,238.1c0,2.5-2,4.5-4.5,4.5h-60.5c-2.5,0-4.5-2-4.5-4.5c0-2.5,2-4.5,4.5-4.5h60.5
		C239.8,233.6,241.8,235.6,241.8,238.1z"/>
</g>
</svg>
