<?xml version="1.0" encoding="utf-8"?>
<!-- Generator: Adobe Illustrator 25.0.1, SVG Export Plug-In . SVG Version: 6.00 Build 0)  -->
<svg version="1.1" fill="#8052FD" id="Capa_1" xmlns="http://www.w3.org/2000/svg" xmlns:xlink="http://www.w3.org/1999/xlink" x="0px" y="0px"
	 viewBox="0 0 512 512" style="enable-background:new 0 0 512 512;" xml:space="preserve">

	
	


<g>
	<g>
		<g>
			<path d="M256,310c26.1,0,54-1.4,54-18v-21.4l-32.3-19.4l-2.4-2.4c6.5-5.5,10.6-13.7,10.6-22.9v-6
				c0-16.5-13.5-30-30-30s-30,13.5-30,30v6c0,9.2,4.1,17.4,10.6,22.9l-2.4,2.4L202,270.6V292C202,308.6,229.9,310,256,310z M238,220
				c0-9.9,8.1-18,18-18c9.9,0,18,8.1,18,18v6c0,9.9-8.1,18-18,18c-9.9,0-18-8.1-18-18V220z M214,277.4l27.1-16.3l6.6-6.3
				c2.7,0.8,5.5,1.2,8.3,1.2c2.9,0,5.7-0.4,8.3-1.2l5.4,5.4l28.2,17.2V292c0,0.1-0.5,6-42,6s-42-5.9-42-6V277.4z"/>
			<rect x="250" y="88" width="12" height="12"/>
			<rect x="106" y="172" width="12" height="12"/>
			<rect x="394" y="172" width="12" height="12"/>
			<rect x="106" y="328" width="12" height="12"/>
			<path d="M415.6,308.4c5.5-16.8,8.4-34.4,8.4-52.4c0-18-2.8-35.6-8.4-52.4c8.6-5.3,14.4-14.8,14.4-25.6
				c0-16.5-13.5-30-30-30c-4.6,0-9,1.1-12.9,2.9c-25.6-31.9-61.2-53.1-101.3-60.3C284.1,75.7,271.4,64,256,64
				c-15.4,0-28.1,11.7-29.8,26.6c-40.1,7.2-75.7,28.4-101.3,60.3c-3.9-1.9-8.3-2.9-12.9-2.9c-16.5,0-30,13.5-30,30
				c0,10.8,5.8,20.3,14.4,25.6C90.8,220.3,88,238,88,256c0,18,2.8,35.6,8.4,52.4C87.8,313.7,82,323.2,82,334c0,16.5,13.5,30,30,30
				c4.6,0,9-1.1,12.9-2.9c25.6,31.9,61.2,53.1,101.3,60.3c1.7,15,14.4,26.6,29.8,26.6s28.1-11.7,29.8-26.6
				c40.1-7.2,75.7-28.4,101.3-60.3c3.9,1.9,8.3,2.9,12.9,2.9c16.5,0,30-13.5,30-30C430,323.2,424.2,313.7,415.6,308.4z M412,256
				c0,16.6-2.6,32.9-7.6,48.3c-1.4-0.2-2.9-0.3-4.4-0.3c-9.2,0-17.5,4.2-23,10.7l-33.8-18.6c5.7-12.2,8.8-25.8,8.8-40.2
				c0-14.3-3.2-28-8.8-40.2l33.9-18.5c5.5,6.6,13.8,10.7,23,10.7c1.5,0,2.9-0.1,4.4-0.3C409.4,223.1,412,239.4,412,256z M172,256
				c0-46.3,37.7-84,84-84s84,37.7,84,84s-37.7,84-84,84S172,302.3,172,256z M418,178c0,9.9-8.1,18-18,18s-18-8.1-18-18s8.1-18,18-18
				S418,168.1,418,178z M256,76c9.9,0,18,8.1,18,18s-8.1,18-18,18c-9.9,0-18-8.1-18-18S246.1,76,256,76z M227.3,102.6
				c3.2,10.5,11.9,18.5,22.7,20.8V148h12v-24.6c10.8-2.2,19.6-10.3,22.7-20.8c36.7,6.8,69.3,26.3,92.8,55.5
				c-4.7,5.3-7.5,12.2-7.5,19.8c0,3,0.5,5.9,1.3,8.7l-33.8,18.5c-17-27.1-47.1-45.2-81.5-45.2c-34.3,0-64.5,18.1-81.5,45.3
				l-33.8-18.5c0.8-2.8,1.3-5.7,1.3-8.7c0-7.6-2.8-14.5-7.5-19.8C158,129,190.6,109.5,227.3,102.6z M112,160c9.9,0,18,8.1,18,18
				s-8.1,18-18,18s-18-8.1-18-18S102.1,160,112,160z M100,256c0-16.6,2.6-32.9,7.6-48.3c1.4,0.2,2.9,0.3,4.4,0.3
				c9.2,0,17.5-4.2,23-10.7l33.8,18.6c-5.7,12.2-8.8,25.8-8.8,40.2c0,14.3,3.2,28,8.8,40.2L135,314.7c-5.5-6.6-13.8-10.7-23-10.7
				c-1.5,0-2.9,0.1-4.4,0.3C102.6,288.9,100,272.6,100,256z M94,334c0-9.9,8.1-18,18-18s18,8.1,18,18s-8.1,18-18,18S94,343.9,94,334
				z M256,436c-9.9,0-18-8.1-18-18s8.1-18,18-18c9.9,0,18,8.1,18,18S265.9,436,256,436z M284.7,409.4c-3.2-10.5-11.9-18.5-22.7-20.8
				V364h-12v24.6c-10.8,2.2-19.6,10.3-22.7,20.8c-36.7-6.8-69.3-26.4-92.8-55.5c4.7-5.3,7.5-12.2,7.5-19.8c0-3-0.5-6-1.3-8.7
				l33.8-18.5c17,27.2,47.1,45.3,81.5,45.3c34.3,0,64.5-18.1,81.5-45.3l33.8,18.5c-0.8,2.8-1.3,5.7-1.3,8.7c0,7.6,2.8,14.5,7.5,19.8
				C354,383,321.4,402.5,284.7,409.4z M400,352c-9.9,0-18-8.1-18-18s8.1-18,18-18s18,8.1,18,18S409.9,352,400,352z"/>
			<rect x="394" y="328" width="12" height="12"/>
			<rect x="250" y="412" width="12" height="12"/>
		</g>
	</g>
</g>
</svg>
