<?xml version="1.0" encoding="utf-8"?>
<!-- Generator: Adobe Illustrator 25.0.1, SVG Export Plug-In . SVG Version: 6.00 Build 0)  -->
<svg version="1.1" fill="#8052FD" id="Capa_1" xmlns="http://www.w3.org/2000/svg" xmlns:xlink="http://www.w3.org/1999/xlink" x="0px" y="0px"
	 viewBox="0 0 512 512" style="enable-background:new 0 0 512 512;" xml:space="preserve">
<g>
	<path d="M412.7,93.9H99.3c-3,0-5.4,2.4-5.4,5.4v313.5c0,3,2.4,5.4,5.4,5.4h313.5c3,0,5.4-2.4,5.4-5.4V99.3
		C418.1,96.3,415.7,93.9,412.7,93.9z M407.3,407.3H104.7V104.7h302.6V407.3z"/>
	<path d="M126.3,158.7h16.2v21.6c0,3,2.4,5.4,5.4,5.4h64.9c3,0,5.4-2.4,5.4-5.4v-21.6h167.5c3,0,5.4-2.4,5.4-5.4
		s-2.4-5.4-5.4-5.4H218.2v-21.6c0-3-2.4-5.4-5.4-5.4h-64.9c-3,0-5.4,2.4-5.4,5.4v21.6h-16.2c-3,0-5.4,2.4-5.4,5.4
		S123.3,158.7,126.3,158.7z M153.3,131.7h54v43.2h-54V131.7z"/>
	<path d="M126.3,261.4h91.9V283c0,3,2.4,5.4,5.4,5.4h64.9c3,0,5.4-2.4,5.4-5.4v-21.6h91.9c3,0,5.4-2.4,5.4-5.4
		c0-3-2.4-5.4-5.4-5.4h-91.9V229c0-3-2.4-5.4-5.4-5.4h-64.9c-3,0-5.4,2.4-5.4,5.4v21.6h-91.9c-3,0-5.4,2.4-5.4,5.4
		C120.9,259,123.3,261.4,126.3,261.4z M229,234.4h54v43.2h-54V234.4z"/>
	<path d="M126.3,364.1h167.5v21.6c0,3,2.4,5.4,5.4,5.4h64.9c3,0,5.4-2.4,5.4-5.4v-21.6h16.2c3,0,5.4-2.4,5.4-5.4
		c0-3-2.4-5.4-5.4-5.4h-16.2v-21.6c0-3-2.4-5.4-5.4-5.4h-64.9c-3,0-5.4,2.4-5.4,5.4v21.6H126.3c-3,0-5.4,2.4-5.4,5.4
		C120.9,361.7,123.3,364.1,126.3,364.1z M304.6,337.1h54v43.2h-54V337.1z"/>
</g>
</svg>
