<?xml version="1.0" encoding="utf-8"?>
<!-- Generator: Adobe Illustrator 25.0.1, SVG Export Plug-In . SVG Version: 6.00 Build 0)  -->
<svg version="1.1" fill="#8052FD" id="Capa_1" xmlns="http://www.w3.org/2000/svg" xmlns:xlink="http://www.w3.org/1999/xlink" x="0px" y="0px"
	 viewBox="0 0 512 512" style="enable-background:new 0 0 512 512;" xml:space="preserve">

	
	


<g>
	<g>
		<g>
			<path d="M210.6,319.9h23.2l-4.5,31.3c-0.5,3,1.7,6,4.8,6.4h0.1l21.8,3.1c3,0.5,5.2,3.3,4.8,6.4
				c-0.2,1.5-1,2.8-2.2,3.7l-17.7,13.2c-2.5,1.9-3,5.4-1.1,7.9l20.2,27c1.9,2.5,5.4,3,7.9,1.1l17.7-13.2c2.5-1.9,6-1.4,7.9,1.1
				c0.9,1.2,1.3,2.7,1.1,4.2l-3.1,21.8c-0.5,3,1.7,5.9,4.8,6.4l0,0l33.4,4.8c0.3,0.1,0.5,0.1,0.8,0.1c2.8,0,5.2-2.1,5.6-4.8
				l3.1-21.8c0.5-3,3.3-5.2,6.4-4.8c1.5,0.2,2.8,1,3.7,2.2l13.2,17.7c1.9,2.5,5.4,3,7.9,1.1l27-20.2c2.5-1.9,3-5.4,1.1-7.9
				l-13.2-17.7c-1.9-2.5-1.4-6,1.1-7.9c1.2-0.9,2.7-1.3,4.2-1.1l21.8,3.1c3,0.5,6-1.7,6.4-4.8l0,0l4.8-33.4c0.5-3-1.7-5.9-4.8-6.4
				l0,0l0,0l-21.8-3.1c-3-0.5-5.2-3.3-4.8-6.4c0.2-1.5,1-2.8,2.2-3.7l7.1-5.4h15c3.1,0,5.6-2.5,5.6-5.6V111.9c0-3.1-2.5-5.6-5.6-5.6
				H90.2c-3.1,0-5.6,2.5-5.6,5.6v202.4c0,3.1,2.5,5.6,5.6,5.6h14.6L210.6,319.9L210.6,319.9z M137.8,308.9v-50.8h22.5v50.8H137.8z
				 M238.8,310.4V230c0-3.1-2.5-5.6-5.6-5.6h-33.7c-3.1,0-5.6,2.5-5.6,5.6v78.7h-22.3v-56.2c0-3.1-2.5-5.6-5.6-5.6h-33.7
				c-3.1,0-5.6,2.5-5.6,5.6v56.2H95.8V117.5h314.8v183.6l-18-24c-1.9-2.5-5.4-3-7.9-1.1l-11.4,8.9v-128c0-3.1-2.5-5.6-5.6-5.6H334
				c-3.1,0-5.6,2.5-5.6,5.6v93.9c0,0-2.7,0-6-0.6c-3.3-0.6-4.8,3.1-4.8,3.9c0,0.8-1.5,6.8-2.5,13.6l-1.4,9.9c-0.4,3-3.2,5.2-6.3,4.8
				c-1.4-0.2-2.6-0.9-3.6-2v-82.2c0-3.1-2.5-5.6-5.6-5.6h-33.7c-3.1,0-5.6,2.5-5.6,5.6v80.9l-3.4,2.5c-2.5,1.9-3,5.4-1.1,7.9
				l13.2,17.7c0.9,0.8,1.1,2.7-0.1,2.7c-1.2,0-29.6,0-29.6,0 M362.1,162.5v92.2l-22.5-3.2v-88.9H362.1z M292.6,203.9v61.7l-2.2-3
				c-1.9-2.5-5.4-3-7.9-1.1l-12.4,9.3v-66.9H292.6z M227.6,308.7h-22.5v-73.1h22.5V308.7z M408.2,371.1l-16.3-2.3
				c-9.2-1.3-17.7,5.1-19.1,14.3c-0.7,4.4,0.5,8.9,3.2,12.5l9.9,13.2l-18,13.5l-9.9-13.2c-5.6-7.5-16.1-9-23.6-3.4
				c-3.6,2.7-6,6.7-6.6,11.1l-2.3,16.3l-22.2-3.2l2.3-16.3c1.3-9.2-5.1-17.7-14.3-19.1c-4.4-0.7-8.9,0.5-12.5,3.2l-13.2,9.9
				l-13.5-18l13.2-9.9c7.5-5.6,8.9-16.1,3.4-23.6c-2.7-3.6-6.7-6-11.1-6.6l-16.3-2.3l3.2-22.2l16.3,2.3c9.2,1.3,17.7-5.1,19.1-14.3
				c0.7-4.4-0.5-8.9-3.2-12.5l-9.9-13.2l18-13.5l9.9,13.2c5.6,7.5,16.1,9,23.6,3.4c3.6-2.7,6-6.7,6.6-11.1l2.3-16.3l22.2,3.2
				l-2.3,16.3c-1.3,9.2,5.1,17.7,14.3,19.1c4.4,0.7,8.9-0.5,12.5-3.2l13.2-9.9l13.5,18l-13.2,9.9c-7.5,5.6-8.9,16.1-3.4,23.6
				c2.7,3.6,6.7,6,11.1,6.6l16.3,2.3L408.2,371.1z"/>
		</g>
	</g>
	<g>
		<g>
			<path d="M326.4,303.1c-24.8,0-45,20.1-45,45c0,24.9,20.1,45,45,45s45-20.1,45-45
				C371.3,323.2,351.2,303.1,326.4,303.1z M326.4,381.7c-18.7,0-33.7-15.1-33.7-33.7c0-18.7,15.1-33.7,33.7-33.7
				s33.7,15.1,33.7,33.7C360,366.7,344.9,381.7,326.4,381.7z"/>
		</g>
	</g>
	<g>
		<g>
			<path d="M310.6,128.9l-28.1-5.6l-2.2,11l13.6,2.7l-150.3,88.1l5.7,9.7l152.2-89.2l-3.2,15.8l11,2.2l5.6-28.1
				C315.6,132.4,313.6,129.5,310.6,128.9z"/>
		</g>
	</g>
</g>
</svg>
