<?xml version="1.0" encoding="utf-8"?>
<!-- Generator: Adobe Illustrator 25.0.1, SVG Export Plug-In . SVG Version: 6.00 Build 0)  -->
<svg version="1.1" fill="#8052FD" id="Layer_1" xmlns="http://www.w3.org/2000/svg" xmlns:xlink="http://www.w3.org/1999/xlink" x="0px" y="0px"
	 viewBox="0 0 512 512" style="enable-background:new 0 0 512 512;" xml:space="preserve">

	
	


<g>
	<path d="M114,208.5c17.5,0,31.7-14.3,31.7-31.7S131.5,145,114,145c-17.5,0-31.7,14.3-31.7,31.7S96.5,208.5,114,208.5z
		 M114,155.2c11.9,0,21.5,9.6,21.5,21.5s-9.6,21.5-21.5,21.5s-21.5-9.6-21.5-21.5S102.1,155.2,114,155.2z"/>
	<path d="M420.5,238.5H182c-6.2,0-11.3,5.1-11.3,11.3v14.3c0,6.2,5.1,11.3,11.3,11.3h238.5c6.2,0,11.3-5.1,11.3-11.3
		v-14.3C431.8,243.5,426.7,238.5,420.5,238.5z M421.5,264.1c0,0.5-0.5,1-1,1H182c-0.5,0-1-0.5-1-1v-14.3c0-0.5,0.5-1,1-1h238.5
		c0.5,0,1,0.5,1,1V264.1z"/>
	<path d="M420.5,318.6H182c-6.2,0-11.3,5.1-11.3,11.3v14.3c0,6.2,5.1,11.3,11.3,11.3h238.5c6.2,0,11.3-5.1,11.3-11.3
		v-14.3C431.8,323.7,426.7,318.6,420.5,318.6z M421.5,344.2c0,0.5-0.5,1-1,1H182c-0.5,0-1-0.5-1-1v-14.3c0-0.5,0.5-1,1-1h238.5
		c0.5,0,1,0.5,1,1V344.2z"/>
	<path d="M114,368.8c17.5,0,31.7-14.3,31.7-31.7s-14.3-31.7-31.7-31.7s-31.7,14.2-31.7,31.7S96.5,368.8,114,368.8z
		 M114,315.5c11.9,0,21.5,9.6,21.5,21.5s-9.6,21.5-21.5,21.5s-21.5-9.6-21.5-21.5S102.1,315.5,114,315.5z"/>
	<path d="M420.5,158.3H310.7c-2.8,0-5.1,2.3-5.1,5.1c0,2.8,2.3,5.1,5.1,5.1h109.8c0.5,0,1,0.5,1,1v14.3c0,0.5-0.5,1-1,1
		H182c-0.5,0-1-0.5-1-1v-14.3c0-0.5,0.5-1,1-1h104.9c2.8,0,5.1-2.3,5.1-5.1c0-2.8-2.3-5.1-5.1-5.1H182c-6.2,0-11.3,5.1-11.3,11.3
		v14.3c0,6.2,5.1,11.3,11.3,11.3h238.5c6.2,0,11.3-5.1,11.3-11.3v-14.3C431.8,163.4,426.7,158.3,420.5,158.3z"/>
	<path d="M114,288.6c11.3,0,21.8-6.1,27.4-15.8c1.4-2.5,0.6-5.6-1.8-7c-2.5-1.4-5.6-0.6-7,1.8
		c-3.8,6.6-11,10.7-18.6,10.7c-11.9,0-21.5-9.6-21.5-21.5c0-11.9,9.6-21.5,21.5-21.5c8.6,0,16.4,5.1,19.8,13
		c1.1,2.6,4.1,3.8,6.8,2.7c2.7-1.2,3.8-4.2,2.7-6.8c-5.1-11.7-16.5-19.2-29.2-19.2c-17.5,0-31.8,14.3-31.8,31.7
		C82.2,274.4,96.5,288.6,114,288.6z"/>
</g>
</svg>
