<?xml version="1.0" encoding="utf-8"?>
<!-- Generator: Adobe Illustrator 25.0.1, SVG Export Plug-In . SVG Version: 6.00 Build 0)  -->
<svg version="1.1" fill="#8052FD" id="Capa_1" xmlns="http://www.w3.org/2000/svg" xmlns:xlink="http://www.w3.org/1999/xlink" x="0px" y="0px"
	 viewBox="0 0 511 511" style="enable-background:new 0 0 511 511;" xml:space="preserve">

	
	


<path d="M217.3,244.2c0.6,1.8,8.8,26.7-10.3,65.2c-12,24.3-14.7,45.8-8,63.8c5.6,14.7,17.6,26.6,34,33.2
	c5.5,2.1,11.2,3.3,17,3.3h0.4c21.4,0,44.1-12.8,58-32.7c0.7-1,1-2.2,0.8-3.4c-0.2-1.2-0.9-2.3-1.9-2.9c-2.1-1.4-5-0.9-6.4,1.1
	c-8,11.5-19.3,20.4-31.7,25.1c-11.6,4.4-23.5,4.8-32.7,1.1c-8.1-3.3-22.6-11.4-28.8-28c-5.8-15.6-3.3-34.6,7.7-56.4
	c22.1-44.5,10.7-72.4,10.7-72.8c-0.1-0.1-8.4-21-9.4-46.5c0-1.2-0.5-2.3-1.4-3.2c-0.9-0.8-2.1-1.3-3.3-1.2c-1.2,0-2.3,0.6-3.2,1.4
	c-0.8,0.9-1.3,2.1-1.2,3.3C208.1,211.6,211.5,228.3,217.3,244.2L217.3,244.2z M301.5,104.2c13.7,0,28.2,2.6,43.2,8
	c21.4,7.6,38.8,24.4,48.9,47.3c9.6,21.8,11,46.3,3.8,63.9c-10,24-27.8,42.7-45.2,60.8l-0.3,0.4c-18.1,19-35.3,37-39.2,58.1
	c-1,5.4-2.6,10.8-4.7,15.9c-0.5,1.1-0.6,2.4-0.1,3.6s1.3,2.1,2.4,2.6c0.7,0.3,1.3,0.4,1.9,0.4s1.1-0.1,1.8-0.3
	c1.1-0.4,1.9-1.3,2.4-2.4v-0.1l0,0l0.1-0.2c2.4-5.8,4.1-11.8,5.3-17.8c3.4-18.4,18.9-34.7,36.8-53.4l0.2-0.3
	c17.1-17.9,36.4-38.2,47.1-63.8c8.2-19.8,6.7-47.1-4-71.1l0,0c-11.2-25.2-30.5-43.8-54.2-52.3c-25.8-9.3-51.4-11-73.8-5
	c-23,6.2-41.8,20.4-54.3,41c-6.5,10.7-10.4,23.3-11.9,37.6c-0.1,1.2,0.3,2.4,1.1,3.3c0.8,0.9,1.9,1.4,3.2,1.6c2.4,0.1,4.5-1.6,4.8-4
	c1.2-12.7,4.8-24,10.6-33.7C243.3,118.2,270,104.2,301.5,104.2z M368.9,197.4h0.4c2.4,0,4.5-1.9,4.6-4.3c1-21.1-9.5-40-28.8-51.6
	c-21.8-13.1-49.5-13.5-70.7-1.1c-1.1,0.6-1.9,1.6-2.2,2.8c-0.4,1.2-0.3,2.4,0.4,3.5c0.6,1.1,1.6,1.9,2.8,2.2
	c1.2,0.4,2.3,0.3,3.4-0.4c0.1-0.1,0.2-0.2,0.4-0.3c18.2-10.8,42.2-10.3,61.1,1.1c16.4,9.8,25.3,25.5,24.4,43.3
	C364.5,195.1,366.5,197.2,368.9,197.4z M292.4,188.5c8,0,14.2,2.1,18.3,4c13.8,6.6,23.1,21.3,24.1,38.3c0.6,10.7-4.7,21.3-16.4,32.8
	c-0.9,0.9-1.3,2-1.3,3.3s0.4,2.4,1.4,3.3c0.9,0.9,2.1,1.4,3.3,1.4c1.2,0,2.4-0.4,3.2-1.2c13.7-13.4,20-26.4,19.1-39.9
	c-1.3-20.2-12.5-37.8-29.4-45.9c-22.4-10.7-45.1-1.6-56.6,4.9l-1.5,0.9l0.1-1.8c0.9-12.7,4.6-23.1,11.2-30.9
	c1.6-1.9,1.4-4.9-0.6-6.5c-1-0.8-2.1-1.1-3.4-1.1c-1.2,0.1-2.4,0.7-3.1,1.6c-9.5,11.4-14.2,27.6-13.5,46.9v0.5c0,0.6,0,1.1,0.1,1.6
	v0.2c0.6,9.1,2.1,18.1,4.6,26.8l0.1,0.3c0,0.1,0.1,0.1,0.1,0.2c0,0.1,0.1,0.1,0.1,0.3l0.1,0.1c0.1,0.1,0.2,0.3,0.3,0.4
	c0.1,0.1,0.1,0.2,0.2,0.3c0.1,0.1,0.3,0.4,0.5,0.5c0.6,0.5,1.2,0.9,1.9,1.1c0.1,0,0.3,0.1,0.4,0.1s0.2,0.1,0.3,0.1h0.8
	c3.3-0.1,6.8,0.4,10.2,1.6c5.9,2.2,9,6.4,9.3,12.4c0.7,13.4-18,15.3-20.1,15.5h-0.1c-1.3,0-2.4,0.6-3.3,1.4
	c-0.8,0.9-1.3,2.1-1.3,3.3c0.1,1.3,0.6,2.4,1.5,3.3c0.9,0.9,2.1,1.3,3.3,1.3h0.4c10.3-0.7,29.7-6.8,28.7-25.1
	c-0.4-6.5-2.8-11.8-7.1-15.7c-5.6-5-13.2-6.4-17.2-6.8l-0.7-0.1l-3.4-21.1l0.5-0.3C271.4,191.4,283.2,188.5,292.4,188.5z
	 M241.9,289.3L241.9,289.3c-0.9,2.8-8.9,27.8,0.2,41.5c3.4,5.1,9,8.1,15.8,8.5c0.8,0.1,1.4,0.1,2.1,0.1c17.7,0,21.7-14.6,24.9-26.3
	l0.1-0.1c2.1-7.5,4.1-14.6,8.8-18.1c1.6-1.2,3.4-2.5,5.5-3.9l0.3-0.2c3.3-2.3,8.3-5.8,13.6-10c0.9-0.8,1.6-1.8,1.7-3.1
	c0.1-1.3-0.2-2.4-0.9-3.4c-0.8-0.9-1.8-1.6-3-1.7c-1.3-0.1-2.4,0.2-3.4,0.9c-3.9,3-7.8,5.8-11.4,8.3l-1.9,1.3
	c-1.8,1.2-4,2.8-5.9,4.2c-7.3,5.3-9.8,14.3-12.2,22.9l-0.1,0.4c-3.6,12.9-6.2,20.2-17.6,19.5c-4.1-0.3-6.9-1.7-8.8-4.5
	c-2.4-3.6-3.3-9.7-2.4-17.4c0.6-6.1,2.2-12.4,3.4-15.9c0.4-1.3,0.4-2.4-0.1-3.6c-0.5-1.1-1.4-1.9-2.6-2.4c-2.4-0.9-5,0.3-5.8,2.7
	C242,289.2,242,289.3,241.9,289.3z M113.8,223.7c-0.9,0.9-1.3,2.1-1.3,3.3c0.1,1.3,0.6,2.4,1.4,3.3c6,5.6,9.6,15.3,9.6,25.7
	c0,10.3-3.6,19.9-9.5,25.7c-0.9,0.9-1.5,2-1.5,3.2c-0.1,1.3,0.4,2.4,1.2,3.3c0.9,0.9,1.9,1.4,3.1,1.5h0.3c1.1,0,2.2-0.4,2.9-1.2
	l0.2-0.2c7.8-7.4,12.5-19.5,12.5-32.4c0-12.9-4.6-25-12.4-32.4C118.5,221.8,115.6,221.9,113.8,223.7z M139.4,201.8
	c-1.1,0-2.3,0.4-3.1,1.2c-0.9,0.9-1.4,1.9-1.4,3.2c-0.1,1.2,0.4,2.4,1.2,3.3l0.1,0.1c0.1,0.1,0.1,0.2,0.3,0.3l0.1,0.1
	c10.7,10.3,17.2,27.5,17.2,45.9c0,18.6-6.4,35.7-17.2,45.9c-0.9,0.9-1.5,2-1.5,3.2c-0.1,1.3,0.4,2.4,1.2,3.3c0.9,0.9,2,1.5,3.2,1.5
	h0.3c1.1,0,2.3-0.4,3-1.1l0.2-0.2c12.6-11.9,20.1-31.5,20.1-52.6c0-20.9-7.5-40.6-20.1-52.6l-0.1-0.1c-0.8-0.9-2-1.4-3.2-1.4
	C139.5,201.8,139.5,201.8,139.4,201.8z M163.6,183.6c-0.1,0-0.1,0-0.2,0c-1.3,0.1-2.4,0.6-3.3,1.4c-0.9,0.9-1.3,2.1-1.3,3.3
	c0.1,1.3,0.6,2.4,1.4,3.3c15.1,14.4,24.1,38.4,24.1,64.3s-9,49.9-24.1,64.2c-0.9,0.9-1.5,2-1.5,3.2c-0.1,1.3,0.4,2.4,1.2,3.3
	c0.9,0.9,2.1,1.5,3.4,1.5c0.8,0,2-0.2,3.1-1.2l0.2-0.2c16.9-16.1,27.1-42.5,27.1-70.9c0-28.3-10.1-54.9-27-70.9
	C165.8,184.1,164.7,183.6,163.6,183.6z"/>
</svg>
