<?xml version="1.0" encoding="utf-8"?>
<!-- Generator: Adobe Illustrator 25.0.1, SVG Export Plug-In . SVG Version: 6.00 Build 0)  -->
<svg version="1.1" fill="#8052FD" id="Layer_1" xmlns="http://www.w3.org/2000/svg" xmlns:xlink="http://www.w3.org/1999/xlink" x="0px" y="0px"
	 viewBox="0 0 512 512" style="enable-background:new 0 0 512 512;" xml:space="preserve">

	
	


<g id="Capa_1">
	<g>
		<g>
			<g>
				<path d="M351.2,233.6V172c0-52.4-42.7-95.2-95.2-95.2s-95.2,42.7-95.2,95.2v61.6c-15.4,0-28,12.5-28,28v123.2
					c0,15.4,12.5,28,28,28h190.4c15.4,0,28-12.5,28-28V261.6C379.2,246.2,366.6,233.6,351.2,233.6z M172,172c0-46.3,37.7-84,84-84
					s84,37.7,84,84v61.6h-16.8V172c0-37.1-30.1-67.2-67.2-67.2S188.8,135,188.8,172v61.6H172V172z M312,172v61.6H200V172
					c0-30.9,25.1-56,56-56C286.9,116,312,141.1,312,172z M368,384.8c0,9.3-7.5,16.8-16.8,16.8H160.8c-9.3,0-16.8-7.5-16.8-16.8
					V261.6c0-9.3,7.5-16.8,16.8-16.8h5.6h28h123.2h28h5.6c9.3,0,16.8,7.5,16.8,16.8L368,384.8L368,384.8z"/>
				<path d="M256,278.4c-15.4,0-28,12.5-28,28c0,8.9,4.2,17.1,11.2,22.4v22.4c0,9.3,7.5,16.8,16.8,16.8
					c9.3,0,16.8-7.5,16.8-16.8v-22.4c7-5.3,11.2-13.5,11.2-22.4C284,291,271.4,278.4,256,278.4z M264.4,321c-1.7,1-2.8,2.8-2.8,4.9
					v25.4c0,3.1-2.5,5.6-5.6,5.6c-3.1,0-5.6-2.5-5.6-5.6v-25.4c0-2-1.1-3.9-2.8-4.9c-5.2-3-8.4-8.5-8.4-14.5
					c0-9.3,7.5-16.8,16.8-16.8c9.3,0,16.8,7.5,16.8,16.8C272.8,312.4,269.6,318,264.4,321z"/>
			</g>
		</g>
	</g>
</g>
<g id="Layer_1_1_">
</g>
</svg>
