<?xml version="1.0" encoding="utf-8"?>
<!-- Generator: Adobe Illustrator 25.0.1, SVG Export Plug-In . SVG Version: 6.00 Build 0)  -->
<svg version="1.1" fill="#8052FD" id="Layer_1" xmlns="http://www.w3.org/2000/svg" xmlns:xlink="http://www.w3.org/1999/xlink" x="0px" y="0px"
	 viewBox="0 0 151 151" style="enable-background:new 0 0 151 151;" xml:space="preserve">

	
	


<g transform="translate(2 .745192)">
	<g>
		<path d="M121.1,98.3h-4.4c-0.9,0-1.6-0.7-1.6-1.6s0.7-1.6,1.6-1.6h4.4c1.6,0,2.9-1.3,2.9-2.8v-15c0-2.1-1-3.3-2.9-3.3
			h-2.2c-0.6,0-1.1-0.3-1.4-0.8L110,59.8c-0.5-0.7-1.4-1.2-2.3-1.2H90.1c-0.9,0-1.6-0.7-1.6-1.6s0.7-1.6,1.6-1.6h17.6
			c2,0,3.8,1,4.9,2.6c0,0,0.1,0.1,0.1,0.1l7.1,12.7h1.3c3.6,0,6,2.6,6,6.4v15C127.1,95.6,124.4,98.3,121.1,98.3z"/>
	</g>
	<g>
		<path d="M90.1,98.3H57c-0.9,0-1.6-0.7-1.6-1.6s0.7-1.6,1.6-1.6h31.5V43h-36c-0.9,0-1.6-0.7-1.6-1.6
			c0-0.9,0.7-1.6,1.6-1.6h37.5c0.9,0,1.6,0.7,1.6,1.6v55.2C91.7,97.6,91,98.3,90.1,98.3z"/>
	</g>
	<g>
		<path d="M39.2,99H27.8c-0.9,0-1.6-0.7-1.6-1.6s0.7-1.6,1.6-1.6h11.3c0.9,0,1.6,0.7,1.6,1.6S40,99,39.2,99z"/>
	</g>
	<g>
		<path d="M107.5,109.6c-5.7,0-10.4-4.7-10.4-10.4c0-5.7,4.7-10.4,10.4-10.4s10.4,4.7,10.4,10.4
			C117.9,104.9,113.2,109.6,107.5,109.6z M107.5,91.9c-4,0-7.3,3.3-7.3,7.3s3.3,7.3,7.3,7.3s7.3-3.3,7.3-7.3S111.5,91.9,107.5,91.9z
			"/>
	</g>
	<g>
		<path d="M48,109.6c-5.7,0-10.4-4.7-10.4-10.4c0-5.7,4.7-10.4,10.4-10.4s10.4,4.7,10.4,10.4
			C58.4,104.9,53.8,109.6,48,109.6z M48,91.9c-4,0-7.3,3.3-7.3,7.3s3.3,7.3,7.3,7.3s7.3-3.3,7.3-7.3S52,91.9,48,91.9z"/>
	</g>
	<g>
		<path d="M98.6,99h-9.2c-0.9,0-1.6-0.7-1.6-1.6s0.7-1.6,1.6-1.6h9.2c0.9,0,1.6,0.7,1.6,1.6S99.5,99,98.6,99z"/>
	</g>
	<g>
		<path d="M110.7,76.3H95.1c-0.9,0-1.6-0.7-1.6-1.6s0.7-1.6,1.6-1.6h14v-0.3l-4.2-6.5c-0.5-0.7-0.3-1.7,0.5-2.2
			c0.7-0.5,1.7-0.3,2.2,0.5l4.5,6.9c0.2,0.3,0.2,0.5,0.2,0.8v2.3C112.2,75.6,111.5,76.3,110.7,76.3z"/>
	</g>
	<g>
		<path d="M59,69.9H21.5c-0.9,0-1.6-0.7-1.6-1.6s0.7-1.6,1.6-1.6H59c0.9,0,1.6,0.7,1.6,1.6S59.8,69.9,59,69.9z"/>
	</g>
	<g>
		<path d="M72.4,56.5H39.2c-0.9,0-1.6-0.7-1.6-1.6s0.7-1.6,1.6-1.6h33.3c0.9,0,1.6,0.7,1.6,1.6S73.3,56.5,72.4,56.5z"/>
	</g>
	<g>
		<path d="M34.2,56.5H30c-0.9,0-1.6-0.7-1.6-1.6s0.7-1.6,1.6-1.6h4.2c0.9,0,1.6,0.7,1.6,1.6S35.1,56.5,34.2,56.5z"/>
	</g>
	<g>
		<path d="M47.7,43.7h-4.2c-0.9,0-1.6-0.7-1.6-1.6c0-0.9,0.7-1.6,1.6-1.6h4.2c0.9,0,1.6,0.7,1.6,1.6
			C49.2,43,48.5,43.7,47.7,43.7z"/>
	</g>
</g>
</svg>
