<?xml version="1.0" encoding="utf-8"?>
<!-- Generator: Adobe Illustrator 25.0.1, SVG Export Plug-In . SVG Version: 6.00 Build 0)  -->
<svg version="1.1" fill="#8052FD" id="Capa_1" xmlns="http://www.w3.org/2000/svg" xmlns:xlink="http://www.w3.org/1999/xlink" x="0px" y="0px"
	 viewBox="0 0 512 512" style="enable-background:new 0 0 512 512;" xml:space="preserve">

	
	


<g>
	<g>
		<path d="M240.1,210.9c1.3-0.5,2.7-0.9,4-1.2c-0.2-2.8-0.4-5.5-0.4-8.3c-0.6-19.4,1.6-38.6,6-55.6l1.3-5
			c-8.9-10.7-19.9-19.2-32.2-25.1c-6.1,1.7-12.2,3.7-18,6.1l5.3,12.8L240.1,210.9z"/>
		<path d="M161.7,161l62.5,59.3c1-0.9,2.1-1.8,3.3-2.7c-1.2-2.4-2.4-4.8-3.5-7.3c-7.9-17.7-13.3-36.3-15.7-53.7l-0.7-5
			c-12.3-6.5-25.7-10.1-39.3-10.8c-5,3.9-9.9,8-14.3,12.5l7.8,7.8L161.7,161z"/>
		<path d="M132.7,204.3l80.3,30.9c0.6-1.3,1.3-2.6,2-3.8c-2-1.7-3.9-3.5-5.9-5.4c-14.1-13.4-26.3-28.5-35-43.6l-2.5-4.3
			c-13.9-1.3-27.8,0.5-40.6,5c-3.2,5.5-6.1,11.2-8.5,17.1l10.7,4.4L132.7,204.3z"/>
		<path d="M122.6,255.4l85.8-2.1c0.1-1.5,0.2-2.9,0.4-4.3c-2.4-0.9-5-1.7-7.4-2.6c-18.1-7-35.1-16.3-49-27l-3.9-3
			c-13.4,4.1-25.5,11.1-35.7,20.3c-0.8,6.2-1.3,12.5-1.3,19h12L122.6,255.4z"/>
		<path d="M350.4,161.4l-59.6,62.8c0.9,1,1.7,2,2.5,3.2c2.6-1.3,5.3-2.6,8-3.8c17.7-7.9,36.3-13.2,53.6-15.6l5-0.6
			c6.5-12.4,10.2-25.9,11-39.6c-3.9-5-8-9.9-12.5-14.3l-8.1,8.1L350.4,161.4z"/>
		<path d="M258.4,208.5c1.4,0.1,2.8,0.2,4.1,0.4c0.9-2.7,1.8-5.3,2.8-8c6.9-18.1,16.2-35.1,26.8-49l3.2-4.2
			c-4.1-13.3-11-25.5-20.2-35.6c-6.2-0.8-12.5-1.3-19-1.3v15.8L258.4,208.5z"/>
		<path d="M276.2,213.1c1.3,0.6,2.4,1.3,3.6,2c1.9-2.1,3.8-4.3,5.8-6.4c13.3-14,28.4-26.2,43.5-34.9l4.5-2.6
			c1.3-14-0.5-27.8-5-40.7c-5.5-3.2-11.2-6.1-17.1-8.5l-5.4,13L276.2,213.1z"/>
		<path d="M379.4,204.7l-79.2,35.2c0.5,1.3,0.8,2.5,1.2,3.8c3-0.2,5.9-0.4,8.9-0.5c19.8-0.5,38.5,1.6,55.6,6.1l4.7,1.3
			c10.9-9,19.5-20.1,25.3-32.5c-1.7-6.1-3.7-12.2-6.1-18l-11,4.6L379.4,204.7z"/>
		<path d="M272,299.8c-1.3,0.5-2.6,0.9-3.9,1.3c0.2,2.8,0.4,5.7,0.5,8.5c0.6,19.4-1.6,38.6-6,55.6l-1.3,5
			c8.9,10.7,19.9,19.2,32.2,25.1c6.1-1.7,12.2-3.7,18-6.1l-5.3-12.7L272,299.8z"/>
		<path d="M350.6,350.1l-63.1-59.8c-0.9,0.9-2,1.7-3.1,2.6c1.3,2.6,2.6,5.3,3.8,8c7.9,17.7,13.3,36.3,15.7,53.7l0.7,5
			c12.3,6.5,25.7,10.1,39.3,10.8c5-3.9,9.9-8,14.3-12.5l-7.8-7.8L350.6,350.1z"/>
		<path d="M379.5,306.8l-81.2-31.2c-0.6,1.2-1.2,2.4-1.8,3.5c2.2,2,4.5,3.9,6.6,6c14.1,13.4,26.3,28.5,35,43.6l2.5,4.3
			c13.9,1.3,27.8-0.5,40.6-5c3.2-5.5,6.1-11.2,8.5-17.1l-10.7-4.4L379.5,306.8z"/>
		<path d="M388.8,255.6l0.8,0.2l-86.9,2.1c-0.1,1.3-0.2,2.6-0.3,3.9c2.8,0.9,5.7,2,8.4,3c18.1,7,35.1,16.3,49,27l3.9,3
			c13.4-4.1,25.5-11.1,35.7-20.3c0.8-6.2,1.3-12.5,1.3-19l0,0L388.8,255.6L388.8,255.6z"/>
		<path d="M235.8,298.5c-1.3-0.6-2.6-1.3-3.9-2c-1.7,2-3.5,4-5.4,6c-13.3,14-28.4,26.2-43.5,34.9l-4.5,2.6
			c-1.3,14,0.5,27.8,5,40.7c5.5,3.2,11.2,6.1,17.1,8.5l5.4-13L235.8,298.5z"/>
		<path d="M161.8,349.7l59-62.2c-1-1.1-1.9-2.2-2.8-3.3c-2.4,1.2-4.7,2.3-7.1,3.4c-17.7,7.9-36.3,13.2-53.6,15.6l-5,0.6
			c-6.5,12.4-10.2,25.9-11,39.6c3.9,5,8,9.9,12.5,14.3l8.1-8.1L161.8,349.7z"/>
		<path d="M132.9,306.5l78.3-34.8c-0.5-1.3-0.9-2.8-1.3-4.2c-2.6,0.2-5.2,0.3-7.8,0.4c-1.8,0.1-3.6,0.1-5.4,0.1
			c-17.7,0-34.6-2.1-50.1-6.2l-4.7-1.3c-10.9,9-19.5,20.1-25.3,32.5c1.7,6.1,3.7,12.2,6.1,18l11-4.6L132.9,306.5z"/>
		<path d="M253.9,302.7c-1.4-0.1-2.8-0.2-4.2-0.3c-0.9,2.6-1.7,5.2-2.8,7.8c-6.9,18.1-16.2,35.1-26.8,49l-3.2,4.2
			c4.1,13.3,11,25.5,20.2,35.6c6.2,0.8,12.5,1.3,19,1.3l0,0v-15.7L253.9,302.7z"/>
	</g>
	<ellipse cx="255.6" cy="255.6" rx="35.2" ry="35.2"/>
	<g>
		<path d="M256.1,425.1c-93.5,0-169.5-76-169.5-169.5s76-169.5,169.5-169.5s169.5,76,169.5,169.5
			S349.6,425.1,256.1,425.1z M256.1,97.1c-87.4,0-158.5,71.1-158.5,158.5S168.7,414,256.1,414s158.5-71.1,158.5-158.5
			S343.5,97.1,256.1,97.1z"/>
	</g>
</g>
</svg>
