<?xml version="1.0" encoding="utf-8"?>
<!-- Generator: Adobe Illustrator 25.0.1, SVG Export Plug-In . SVG Version: 6.00 Build 0)  -->
<svg version="1.1" fill="#8052FD" id="Capa_1" xmlns="http://www.w3.org/2000/svg" xmlns:xlink="http://www.w3.org/1999/xlink" x="0px" y="0px"
	 viewBox="0 0 512 512" style="enable-background:new 0 0 512 512;" xml:space="preserve">

	
	


<g>
	<g>
		<rect x="226.9" y="251.8" width="11.2" height="54"/>
	</g>
</g>
<g>
	<g>
		<rect x="250.8" y="251.8" width="11.2" height="54"/>
	</g>
</g>
<g>
	<g>
		<rect x="274.5" y="251.8" width="11.2" height="54"/>
	</g>
</g>
<g>
	<g>
		<rect x="226.9" y="341.8" width="11.2" height="54"/>
	</g>
</g>
<g>
	<g>
		<rect x="250.8" y="341.8" width="11.2" height="54"/>
	</g>
</g>
<g>
	<g>
		<rect x="274.5" y="341.8" width="11.2" height="54"/>
	</g>
</g>
<g>
	<g>
		<rect x="226.6" y="318.2" width="59.5" height="11.2"/>
	</g>
</g>
<g>
	<g>
		<rect x="322.3" y="341.8" width="11.2" height="54"/>
	</g>
</g>
<g>
	<g>
		<rect x="346.3" y="341.8" width="11.2" height="54"/>
	</g>
</g>
<g>
	<g>
		<rect x="178.4" y="341.8" width="11.2" height="54"/>
	</g>
</g>
<g>
	<g>
		<rect x="154.4" y="341.8" width="11.2" height="54"/>
	</g>
</g>
<g>
	<g>
		<path d="M256,132.3c-22.9,0-41.6,18.7-41.6,41.6s18.7,41.6,41.6,41.6s41.6-18.7,41.6-41.6S278.9,132.3,256,132.3z
			 M256,204.2c-16.7,0-30.4-13.6-30.4-30.4s13.6-30.4,30.4-30.4s30.4,13.6,30.4,30.4S272.7,204.2,256,204.2z"/>
	</g>
</g>
<g>
	<g>
		<polygon points="250.4,155.9 250.4,168.3 238,168.3 238,179.5 261.6,179.5 261.6,155.9 		"/>
	</g>
</g>
<g>
	<g>
		<rect x="250.4" y="60" width="11.2" height="12"/>
	</g>
</g>
<g>
	<g>
		<rect x="292" y="126.4" width="12" height="11.2"/>
	</g>
</g>
<g>
	<g>
		<rect x="208" y="126.4" width="12" height="11.2"/>
	</g>
</g>
<g>
	<g>
		<rect x="292" y="210.2" width="12" height="11.2"/>
	</g>
</g>
<g>
	<g>
		<rect x="208" y="210.2" width="12" height="11.2"/>
	</g>
</g>
<g>
	<g>
		<path d="M447.8,408.1l-42.4,0.2V304.5l-8.2-16.3h-3.8v-18.4h-11.2v18.4h-3.8l-8.1,16.3v13.7H346v11.2h24.4v78.7h-60.7
			v-78.7H334v-11.2h-24.4v-78.7h2.7l9.3-9.3V117.7l-9.3-9.3h-8.7V93.7l-9.3-9.3h-8.7V64.1l-20.8-27.7h-17.6l-20.8,27.7v20.2h-8.7
			l-9.3,9.3v14.7h-8.7l-9.3,9.3V144h11.2v-21.7l2.7-2.7h4h95.2h4l2.7,2.7v103.3l-2.7,2.7H204.4l-2.7-2.7V156h-11.2v74.3l9.3,9.3h2.7
			v78.7h-60.7v-13.8l-8.2-16.3h-3.8v-18.4h-11.2v18.4h-3.8l-8.2,16.3v103.7l-42.4,0.2l0.1,11.2l383.7-0.2L447.8,408.1z M237.6,67.9
			l15.1-20.2h6.4l15.1,20.2v16.5h-36.7L237.6,67.9L237.6,67.9z M292.4,108.4h-72.7v-10l2.7-2.7h4h59.2h4l2.7,2.7V108.4L292.4,108.4z
			 M117.7,307.2L117.7,307.2l3.8-7.7h5l3.8,7.7v11h-12.7L117.7,307.2L117.7,307.2z M130.4,408.1h-12.7v-78.7h12.7V408.1L130.4,408.1
			z M202.4,408.1h-60.7v-78.7h60.7V408.1z M298.4,318.2v90h-84.7v-90v-78.7h84.7V318.2L298.4,318.2z M394.3,408.1h-12.7v-78.7h12.7
			V408.1z M394.3,318.2h-12.7v-11l0,0l3.8-7.7h5l3.8,7.7L394.3,318.2L394.3,318.2z"/>
	</g>
</g>
</svg>
