<?xml version="1.0" encoding="utf-8"?>
<!-- Generator: Adobe Illustrator 25.0.1, SVG Export Plug-In . SVG Version: 6.00 Build 0)  -->
<svg version="1.1" fill="#8052FD" id="Capa_1" xmlns="http://www.w3.org/2000/svg" xmlns:xlink="http://www.w3.org/1999/xlink" x="0px" y="0px"
	 viewBox="0 0 512 512" style="enable-background:new 0 0 512 512;" xml:space="preserve">

	
	


<g>
	<g>
		<g>
			<path d="M210.5,320.6h23.6l-4.6,31.8c-0.5,3.1,1.7,6.1,4.8,6.5h0.1l22.2,3.2c3.1,0.5,5.3,3.4,4.8,6.5
				c-0.2,1.5-1,2.9-2.2,3.8l-18,13.5c-2.6,1.9-3,5.5-1.1,8l20.6,27.5c1.9,2.6,5.5,3,8,1.1l18-13.5c2.6-1.9,6.1-1.4,8,1.1
				c0.9,1.2,1.3,2.8,1.1,4.2l-3.2,22.2c-0.5,3.1,1.7,6,4.8,6.5l0,0l34,4.8c0.3,0.1,0.5,0.1,0.8,0.1c2.8,0,5.2-2.1,5.7-4.9l3.2-22.2
				c0.5-3.1,3.4-5.3,6.5-4.8c1.5,0.2,2.8,1,3.8,2.2l13.5,18c1.9,2.6,5.5,3,8,1.1l27.5-20.6c2.6-1.9,3-5.5,1.1-8l-13.5-18
				c-1.9-2.6-1.4-6.1,1.1-8c1.2-0.9,2.8-1.3,4.2-1.1l22.2,3.2c3.1,0.5,6.1-1.7,6.5-4.8l0,0l4.8-34c0.5-3.1-1.7-6-4.8-6.5l0,0l0,0
				l-22.2-3.2c-3.1-0.5-5.3-3.4-4.8-6.5c0.2-1.5,1-2.9,2.2-3.8l7.3-5.5h15.3c3.2,0,5.7-2.6,5.7-5.7V109.1c0-3.2-2.6-5.7-5.7-5.7
				H88.1c-3.2,0-5.7,2.6-5.7,5.7v205.8c0,3.2,2.6,5.7,5.7,5.7h14.8H210.5z M136.5,309.5v-51.7h22.9v51.7H136.5z M239.2,311v-81.8
				c0-3.2-2.6-5.7-5.7-5.7h-34.3c-3.2,0-5.7,2.6-5.7,5.7v80h-22.7V252c0-3.2-2.6-5.7-5.7-5.7h-34.3c-3.2,0-5.7,2.6-5.7,5.7v57.2
				H93.8V114.8h320.2v186.8l-18.3-24.4c-1.9-2.6-5.5-3-8-1.1l-11.7,9V154.8c0-3.2-2.6-5.7-5.7-5.7H336c-3.2,0-5.7,2.6-5.7,5.7v95.5
				c0,0-2.8,0-6.1-0.6s-4.8,3.2-4.8,4s-1.5,6.9-2.6,13.9l-1.4,10.1c-0.4,3.1-3.3,5.2-6.4,4.8c-1.4-0.2-2.7-0.9-3.6-2v-83.6
				c0-3.2-2.6-5.7-5.7-5.7h-34.3c-3.2,0-5.7,2.6-5.7,5.7v82.3l-3.4,2.6c-2.6,1.9-3,5.5-1.1,8l13.5,18c0.9,0.8,1.1,2.8-0.1,2.8
				c-1.2,0-30.1,0-30.1,0 M364.6,160.5v93.8l-22.9-3.3v-90.5H364.6z M293.9,202.6v62.8l-2.3-3c-1.9-2.6-5.5-3-8-1.1l-12.6,9.4v-68
				H293.9z M227.8,309.2h-22.9v-74.3h22.9V309.2z M411.6,372.7l-16.6-2.4c-9.4-1.3-18,5.2-19.4,14.5c-0.7,4.5,0.5,9.1,3.2,12.7
				l10,13.4l-18.3,13.7l-10-13.4c-5.7-7.6-16.4-9.2-24-3.4c-3.6,2.8-6.1,6.8-6.7,11.3l-2.4,16.6l-22.6-3.2l2.4-16.6
				c1.3-9.4-5.2-18-14.5-19.4c-4.5-0.7-9.1,0.5-12.7,3.2l-13.5,10l-13.7-18.3l13.4-10c7.6-5.7,9.1-16.4,3.4-24
				c-2.8-3.6-6.8-6.1-11.3-6.7l-16.6-2.4l3.2-22.6l16.6,2.4c9.4,1.3,18-5.2,19.4-14.5c0.7-4.5-0.5-9.1-3.2-12.7l-10-13.4l18.3-13.7
				l10,13.4c5.7,7.6,16.4,9.2,24,3.4c3.6-2.8,6.1-6.8,6.7-11.3l2.4-16.6l22.6,3.2l-2.4,16.6c-1.3,9.4,5.2,18,14.5,19.4
				c4.5,0.7,9.1-0.5,12.7-3.2l13.4-10l13.7,18.3l-13.4,10c-7.6,5.7-9.1,16.4-3.4,24c2.8,3.6,6.8,6.1,11.3,6.7l16.6,2.4L411.6,372.7z
				"/>
		</g>
	</g>
	<g>
		<g>
			<path d="M328.3,303.5c-25.2,0-45.8,20.5-45.8,45.8S303,395,328.3,395s45.8-20.5,45.8-45.8
				C374,324,353.5,303.5,328.3,303.5z M328.3,383.6c-19,0-34.3-15.3-34.3-34.3s15.3-34.3,34.3-34.3s34.3,15.3,34.3,34.3
				C362.5,368.2,347.2,383.5,328.3,383.6z"/>
		</g>
	</g>
	<g>
		<g>
			<path d="M312.2,126.3l-28.6-5.7l-2.3,11.2l13.9,2.8l-152.9,89.6l5.8,9.9L303,143.4l-3.2,16.1l11.2,2.2l5.7-28.6
				C317.3,130,315.3,127,312.2,126.3z"/>
		</g>
	</g>
</g>
</svg>
