<?xml version="1.0" encoding="utf-8"?>
<!-- Generator: Adobe Illustrator 25.0.1, SVG Export Plug-In . SVG Version: 6.00 Build 0)  -->
<svg version="1.1" fill="#8052FD" id="Layer_1" xmlns="http://www.w3.org/2000/svg" xmlns:xlink="http://www.w3.org/1999/xlink" x="0px" y="0px"
	 viewBox="0 0 512 512" style="enable-background:new 0 0 512 512;" xml:space="preserve">

	
	


<g id="surface1">
	<path d="M387.8,99.6H132.7c-12.2,0-22.2,9.9-22.2,22.2v133.1h11.1V121.8c0-6.1,4.9-11.1,11.1-11.1h255.1
		c6.1,0,11.1,4.9,11.1,11.1v221.8c0,6.1-4.9,11.1-11.1,11.1H271.4v11.1h116.5c12.3,0,22.2-9.9,22.2-22.2V121.8
		C410,109.5,400.1,99.6,387.8,99.6z"/>
	<path d="M132.7,121.8h11.1v11.1h-11.1V121.8z"/>
	<path d="M154.9,121.8H166v11.1h-11.1V121.8z"/>
	<path d="M177,121.8h11.1v11.1H177V121.8z"/>
	<path d="M132.7,144h255.2v11.1H132.7V144z"/>
	<path d="M132.7,232.7c0,3.1,2.5,5.5,5.5,5.5h66.6c3.1,0,5.5-2.5,5.5-5.5v-44.4c0-3.1-2.5-5.5-5.5-5.5h-25.4l-9.5-9.5
		c-1-1-2.5-1.6-3.9-1.6h-27.7c-3.1,0-5.5,2.5-5.5,5.5L132.7,232.7L132.7,232.7z M143.8,182.8h19.9l9.5,9.5c1,1,2.5,1.6,3.9,1.6h22.2
		v33.3h-55.4V182.8z"/>
	<path d="M299,188.3c0-3.1-2.5-5.5-5.5-5.5h-25.4l-9.5-9.5c-1-1-2.5-1.6-3.9-1.6H227c-3.1,0-5.5,2.5-5.5,5.5v55.4
		c0,3.1,2.5,5.5,5.5,5.5h66.6c3.1,0,5.5-2.5,5.5-5.5V188.3z M288,227.2h-55.5v-44.4h19.9l9.5,9.5c1,1,2.5,1.6,3.9,1.6h22.2
		L288,227.2L288,227.2z"/>
	<path d="M387.8,188.3c0-3.1-2.5-5.5-5.5-5.5h-25.4l-9.5-9.5c-1-1-2.5-1.6-3.9-1.6h-27.8c-3.1,0-5.5,2.5-5.5,5.5v55.4
		c0,3.1,2.5,5.5,5.5,5.5h66.6c3.1,0,5.5-2.5,5.5-5.5L387.8,188.3L387.8,188.3z M376.7,227.2h-55.4v-44.4h19.9l9.5,9.5
		c1,1,2.5,1.6,3.9,1.6h22.2V227.2z"/>
	<path d="M271.4,315.9V327h22.2c3.1,0,5.5-2.5,5.5-5.5v-44.4c0-3.1-2.5-5.5-5.5-5.5h-25.4l-9.5-9.5
		c-1-1-2.5-1.6-3.9-1.6h-16.6v11.1h14.4l9.5,9.5c1,1,2.5,1.6,3.9,1.6H288V316L271.4,315.9L271.4,315.9z"/>
	<path d="M382.2,271.5h-25.4l-9.5-9.4c-1-1-2.5-1.6-3.9-1.6h-27.8c-3.1,0-5.5,2.5-5.5,5.5v55.4c0,3.1,2.5,5.5,5.5,5.5
		h66.6c3.1,0,5.5-2.5,5.5-5.5V277C387.8,274,385.4,271.5,382.2,271.5z M376.7,315.9h-55.4v-44.4h19.9l9.5,9.5c1,1,2.5,1.6,3.9,1.6
		h22.2V315.9z"/>
	<path d="M102.9,321.4H88.3c-3.1,0-5.5,2.5-5.5,5.5v33.3c0,3.1,2.5,5.5,5.5,5.5H103c1.2,3.6,2.7,7.2,4.4,10.6L97,386.7
		c-2.1,2.1-2.1,5.7,0,7.9l23.5,23.5c2.1,2.1,5.7,2.1,7.9,0l10.3-10.3c3.4,1.8,7,3.2,10.6,4.4v14.7c0,3.1,2.5,5.5,5.5,5.5h33.3
		c3.1,0,5.5-2.5,5.5-5.5v-14.7c3.6-1.2,7.2-2.7,10.6-4.4l10.3,10.3c2.1,2.1,5.7,2.1,7.9,0l23.5-23.5c2.1-2.1,2.1-5.7,0-7.9
		l-10.3-10.3c1.8-3.4,3.2-7,4.4-10.6h14.7c3.1,0,5.5-2.5,5.5-5.5V327c0-3.1-2.5-5.5-5.5-5.5H240c-1.2-3.6-2.7-7.2-4.4-10.6
		l10.3-10.3c2.1-2.1,2.1-5.7,0-7.9l-23.5-23.5c-2.1-2.1-5.7-2.1-7.9,0l-10.3,10.3c-3.4-1.8-7-3.2-10.6-4.4v-14.7
		c0-3.1-2.5-5.5-5.5-5.5h-33.3c-3.1,0-5.5,2.5-5.5,5.5v14.7c-3.6,1.2-7.2,2.7-10.6,4.4l-10.3-10.3c-2.1-2.1-5.7-2.1-7.9,0L97,292.6
		c-2.1,2.1-2.1,5.7,0,7.9l10.4,10.3c-0.5,0.9-0.9,1.8-1.3,2.7C104.8,316.2,103.9,318.8,102.9,321.4z M112.5,328.4
		c1.4-5.5,3.6-10.8,6.5-15.7c1.3-2.1,0.9-4.9-0.8-6.8l-9.4-9.4l15.7-15.7l9.4,9.4c1.8,1.8,4.5,2.1,6.8,0.8
		c4.9-2.9,10.2-5.1,15.7-6.5c2.5-0.6,4.2-2.9,4.2-5.4V266h22.2v13.3c0,2.5,1.7,4.7,4.2,5.4c5.5,1.4,10.8,3.6,15.7,6.5
		c2.1,1.3,4.9,0.9,6.8-0.8l9.4-9.4l15.7,15.7l-9.4,9.4c-1.8,1.8-2.1,4.5-0.8,6.8c2.9,4.9,5.1,10.2,6.5,15.7c0.6,2.5,2.9,4.2,5.4,4.2
		h13.3v22.2h-13.3c-2.5,0-4.7,1.7-5.4,4.2c-1.4,5.5-3.6,10.8-6.5,15.7c-1.3,2.1-0.9,4.9,0.8,6.8l9.4,9.4l-15.6,15.7l-9.4-9.4
		c-1.8-1.8-4.5-2.1-6.8-0.8c-4.9,2.9-10.2,5.1-15.7,6.5c-2.5,0.6-4.2,2.9-4.2,5.4v13.3h-22.2v-13.3c0-2.5-1.7-4.7-4.2-5.4
		c-5.5-1.4-10.8-3.6-15.7-6.5c-2.1-1.3-4.9-0.9-6.8,0.8l-9.4,9.4l-15.7-15.7l9.4-9.4c1.8-1.8,2.1-4.5,0.8-6.8
		c-2.9-4.9-5.1-10.2-6.5-15.7c-0.6-2.5-2.9-4.2-5.4-4.2H93.8v-22.2h13.3C109.6,332.5,111.9,330.9,112.5,328.4z"/>
	<path d="M171.5,382.5c21.4,0,38.8-17.4,38.8-38.8c0-21.4-17.4-38.8-38.8-38.8s-38.8,17.4-38.8,38.8
		C132.7,365,150.1,382.5,171.5,382.5z M171.5,315.9c15.3,0,27.8,12.4,27.8,27.8s-12.4,27.8-27.8,27.8s-27.8-12.5-27.8-27.8
		C143.8,328.3,156.2,315.9,171.5,315.9z"/>
</g>
</svg>
