<?xml version="1.0" encoding="utf-8"?>
<!-- Generator: Adobe Illustrator 25.0.1, SVG Export Plug-In . SVG Version: 6.00 Build 0)  -->
<svg version="1.1" fill="#8052FD" id="Capa_1" xmlns="http://www.w3.org/2000/svg" xmlns:xlink="http://www.w3.org/1999/xlink" x="0px" y="0px"
	 viewBox="0 0 512 512" style="enable-background:new 0 0 512 512;" xml:space="preserve">

	
	


<path d="M100.3,101.8c-2.6,0-4.7,2.2-4.7,4.7v43.5c0,2.6,2.2,4.7,4.7,4.7h65.3c2.6,0,4.7-2.2,4.7-4.7v-17h49l-13.1,13.1
	l6.7,6.7l21.3-21.3c0.9-0.9,1.4-2.1,1.4-3.4s-0.5-2.4-1.4-3.4l-21.3-21.3l-6.7,6.7l13.1,13.1h-49v-16.9c0-2.6-2.2-4.7-4.7-4.7H100.3
	z M160.8,145.4h-55.7v-34h55.7V145.4z M241.7,101.8c-2.6,0-4.7,2.2-4.7,4.7v43.5c0,2.6,2.2,4.7,4.7,4.7H394
	c14.6,0,26.5-11.9,26.5-26.5v-21.7c0-2.6-2.2-4.7-4.7-4.7H241.7z M394,145.4H246.5v-34H411v17C411,137.7,403.4,145.4,394,145.4z
	 M100.3,188.9c-2.6,0-4.7,2.2-4.7,4.7v43.5c0,2.6,2.2,4.7,4.7,4.7h65.3c2.6,0,4.7-2.2,4.7-4.7v-17h49l-13.1,13.1l6.7,6.7l21.3-21.3
	c0.9-0.9,1.4-2.1,1.4-3.4c0-1.3-0.5-2.4-1.4-3.4l-21.3-21.3l-6.7,6.7l13.1,13.1h-49v-17c0-2.6-2.2-4.7-4.7-4.7L100.3,188.9
	L100.3,188.9z M160.8,232.4h-55.7v-34h55.7V232.4z M241.7,188.9c-2.6,0-4.7,2.2-4.7,4.7v43.5c0,2.6,2.2,4.7,4.7,4.7H394
	c14.6,0,26.5-11.9,26.5-26.5v-21.7c0-2.6-2.2-4.7-4.7-4.7H241.7z M394,232.4H246.5v-34H411v17C411,224.8,403.4,232.4,394,232.4z
	 M100.3,275.9c-2.6,0-4.7,2.2-4.7,4.7v43.5c0,2.6,2.2,4.7,4.7,4.7h65.3c2.6,0,4.7-2.2,4.7-4.7v-17h49l-13.1,13.1l6.7,6.7l21.3-21.3
	c0.9-0.9,1.4-2.1,1.4-3.4c0-1.3-0.5-2.4-1.4-3.4l-21.3-21.3l-6.7,6.7l13.1,13.1h-49v-17c0-2.6-2.2-4.7-4.7-4.7L100.3,275.9
	L100.3,275.9z M160.8,319.5h-55.7v-34h55.7V319.5z M241.7,275.9c-2.6,0-4.7,2.2-4.7,4.7v43.5c0,2.6,2.2,4.7,4.7,4.7H394
	c14.6,0,26.5-11.9,26.5-26.5v-21.7c0-2.6-2.2-4.7-4.7-4.7H241.7z M394,319.5H246.5v-34H411v17C411,311.8,403.4,319.5,394,319.5z
	 M100.3,363c-2.6,0-4.7,2.2-4.7,4.7v43.5c0,2.6,2.2,4.7,4.7,4.7h65.3c2.6,0,4.7-2.2,4.7-4.7v-17h49l-13.1,13.1l6.7,6.7l21.3-21.3
	c0.9-0.9,1.4-2.1,1.4-3.4s-0.5-2.4-1.4-3.4l-21.3-21.3l-6.7,6.7l13.1,13.1h-49v-17c0-2.6-2.2-4.7-4.7-4.7L100.3,363L100.3,363z
	 M160.8,406.5h-55.7v-34h55.7V406.5z M241.7,363c-2.6,0-4.7,2.2-4.7,4.7v43.5c0,2.6,2.2,4.7,4.7,4.7H394c14.6,0,26.5-11.9,26.5-26.5
	v-21.7c0-2.6-2.2-4.7-4.7-4.7L241.7,363L241.7,363z M394,406.5H246.5v-34H411v17C411,398.9,403.4,406.5,394,406.5z"/>
</svg>
