<?xml version="1.0" encoding="utf-8"?>
<!-- Generator: Adobe Illustrator 25.0.1, SVG Export Plug-In . SVG Version: 6.00 Build 0)  -->
<svg version="1.1" fill="#8052FD" id="Layer_1" xmlns="http://www.w3.org/2000/svg" xmlns:xlink="http://www.w3.org/1999/xlink" x="0px" y="0px"
	 viewBox="0 0 509 509" style="enable-background:new 0 0 509 509;" xml:space="preserve">

	
	


<g>
	<path d="M203.9,112c-3.7,0-6.8,3-6.8,6.8c0,3.7,3,6.8,6.8,6.8c3.7,0,6.8-3,6.8-6.8C210.7,115.1,207.7,112,203.9,112z"
		/>
	<path d="M228.7,112c-3.7,0-6.8,3-6.8,6.8c0,3.7,3,6.8,6.8,6.8c3.8,0,6.8-3,6.8-6.8C235.5,115.1,232.5,112,228.7,112z"
		/>
	<path d="M275.7,110.5V127c0,4.1,6.2,4.1,6.2,0v-16.5C281.9,106.4,275.7,106.4,275.7,110.5z"/>
	<path d="M303.8,107.4c-1.7,0-3.1,1.4-3.1,3.1V127c0,1.7,1.4,3.1,3.1,3.1c1.7,0,3.1-1.4,3.1-3.1v-16.5
		C306.9,108.9,305.5,107.4,303.8,107.4z"/>
	<path d="M203.9,151.3c-3.7,0-6.8,3-6.8,6.8c0,3.8,3,6.8,6.8,6.8c3.8,0,6.8-3,6.8-6.8
		C210.7,154.3,207.7,151.3,203.9,151.3z"/>
	<path d="M228.7,151.3c-3.7,0-6.8,3-6.8,6.8c0,3.8,3,6.8,6.8,6.8c3.7,0,6.8-3,6.8-6.8
		C235.5,154.3,232.4,151.3,228.7,151.3z"/>
	<path d="M275.7,149.9v16.5c0,4.1,6.2,4.1,6.2,0v-16.5C281.9,145.8,275.7,145.8,275.7,149.9z"/>
	<path d="M303.8,146.8c-1.7,0-3.1,1.4-3.1,3.1v16.5c0,1.7,1.4,3.1,3.1,3.1c1.7,0,3.1-1.4,3.1-3.1v-16.5
		C306.9,148.2,305.5,146.8,303.8,146.8z"/>
	<path d="M266.9,220.4h50.8c6,0,10.9-4.9,10.9-10.9v-23.9c0-3-1.3-5.7-3.2-7.7c2-2,3.2-4.7,3.2-7.7v-23.9
		c0-3-1.3-5.7-3.2-7.7c2-2,3.2-4.7,3.2-7.7v-24.1l0,0c0-6-4.9-10.9-10.9-10.9h-23.2L261.3,96h-69.9c-6,0-10.9,4.9-10.9,10.9v23.9
		c0,3,1.3,5.7,3.2,7.7c-2,2-3.2,4.7-3.2,7.7v23.9c0,3,1.3,5.8,3.2,7.7c-2,2-3.2,4.7-3.2,7.7v24c0,6,4.9,10.9,10.9,10.9h33
		L266.9,220.4L266.9,220.4z M322.2,209.5c0,2.5-2.1,4.6-4.6,4.6c-25.9,0-98.6,0-126.3,0c-2.5,0-4.6-2.1-4.6-4.6v-23.9
		c0-2.5,2.1-4.6,4.6-4.6h126.3c2.5,0,4.6,2.1,4.6,4.6V209.5z M322.2,170.1c0,2.5-2.1,4.6-4.6,4.6c-23.5,0-96.8,0-126.3,0
		c-2.5,0-4.6-2.1-4.6-4.6v-23.9c0-2.5,2.1-4.6,4.6-4.6h126.3c2.5,0,4.6,2.1,4.6,4.6V170.1z M322.2,130.7c0,2.5-2.1,4.6-4.6,4.6
		c-25.5,0-100.9,0-126.3,0c-2.5,0-4.6-2.1-4.6-4.6v-23.9c0-2.5,2.1-4.6,4.6-4.6h126.3c2.5,0,4.6,2.1,4.6,4.6V130.7z"/>
	<path d="M203.9,190.8c-3.7,0-6.8,3-6.8,6.8s3,6.8,6.8,6.8c3.8,0,6.8-3,6.8-6.8S207.7,190.8,203.9,190.8z"/>
	<path d="M228.7,190.8c-3.7,0-6.8,3-6.8,6.8s3,6.8,6.8,6.8c3.7,0,6.8-3,6.8-6.8S232.4,190.8,228.7,190.8z"/>
	<path d="M278.8,186.2c-1.7,0-3.1,1.4-3.1,3.1v16.5c0,1.7,1.4,3.1,3.1,3.1c1.7,0,3.1-1.4,3.1-3.1v-16.5
		C281.9,187.6,280.5,186.2,278.8,186.2z"/>
	<path d="M303.8,186.2c-1.7,0-3.1,1.4-3.1,3.1v16.5c0,1.7,1.4,3.1,3.1,3.1c1.7,0,3.1-1.4,3.1-3.1v-16.5
		C306.9,187.6,305.5,186.2,303.8,186.2z"/>
</g>
<g>
	<path d="M327.4,267c-3.7,0-6.8,3-6.8,6.8c0,3.7,3,6.8,6.8,6.8c3.7,0,6.8-3,6.8-6.8C334.2,270.1,331.2,267,327.4,267z"
		/>
	<path d="M352.2,267c-3.7,0-6.8,3-6.8,6.8c0,3.7,3,6.8,6.8,6.8c3.8,0,6.8-3,6.8-6.8C359,270.1,356,267,352.2,267z"/>
	<path d="M399.2,265.5V282c0,4.1,6.2,4.1,6.2,0v-16.5C405.4,261.4,399.2,261.4,399.2,265.5z"/>
	<path d="M427.3,262.5c-1.7,0-3.1,1.4-3.1,3.1V282c0,1.7,1.4,3.1,3.1,3.1c1.7,0,3.1-1.4,3.1-3.1v-16.5
		C430.4,263.9,429,262.5,427.3,262.5z"/>
	<path d="M327.4,306.4c-3.7,0-6.8,3-6.8,6.8c0,3.8,3,6.8,6.8,6.8c3.8,0,6.8-3,6.8-6.8
		C334.2,309.3,331.2,306.4,327.4,306.4z"/>
	<path d="M352.2,306.4c-3.7,0-6.8,3-6.8,6.8c0,3.8,3,6.8,6.8,6.8c3.7,0,6.8-3,6.8-6.8
		C359,309.3,355.9,306.4,352.2,306.4z"/>
	<path d="M399.2,304.9v16.5c0,4.1,6.2,4.1,6.2,0v-16.5C405.4,300.8,399.2,300.8,399.2,304.9z"/>
	<path d="M427.3,301.8c-1.7,0-3.1,1.4-3.1,3.1v16.5c0,1.7,1.4,3.1,3.1,3.1c1.7,0,3.1-1.4,3.1-3.1v-16.5
		C430.4,303.2,429,301.8,427.3,301.8z"/>
	<path d="M390.4,375.4h50.8c6,0,10.9-4.9,10.9-10.9v-23.9c0-3-1.3-5.7-3.2-7.7c2-2,3.2-4.7,3.2-7.7v-23.9
		c0-3-1.3-5.7-3.2-7.7c2-2,3.2-4.7,3.2-7.7v-24.1l0,0c0-6-4.9-10.9-10.9-10.9h-23.2l-33.1,0.1h-69.9c-6,0-10.9,4.9-10.9,10.9v23.9
		c0,3,1.3,5.7,3.2,7.7c-2,2-3.2,4.7-3.2,7.7v23.9c0,3,1.3,5.8,3.2,7.7c-2,2-3.2,4.7-3.2,7.7v24c0,6,4.9,10.9,10.9,10.9h33H390.4z
		 M445.8,364.5c0,2.5-2.1,4.6-4.6,4.6c-25.9,0-98.6,0-126.3,0c-2.5,0-4.6-2.1-4.6-4.6v-23.9c0-2.5,2.1-4.6,4.6-4.6h126.3
		c2.5,0,4.6,2.1,4.6,4.6V364.5z M445.8,325.1c0,2.5-2.1,4.6-4.6,4.6c-23.5,0-96.8,0-126.3,0c-2.5,0-4.6-2.1-4.6-4.6v-23.9
		c0-2.5,2.1-4.6,4.6-4.6h126.3c2.5,0,4.6,2.1,4.6,4.6V325.1z M445.8,285.7c0,2.5-2.1,4.6-4.6,4.6c-25.5,0-100.9,0-126.3,0
		c-2.5,0-4.6-2.1-4.6-4.6v-23.9c0-2.5,2.1-4.6,4.6-4.6h126.3c2.5,0,4.6,2.1,4.6,4.6V285.7z"/>
	<path d="M327.4,345.8c-3.7,0-6.8,3-6.8,6.8c0,3.8,3,6.8,6.8,6.8c3.8,0,6.8-3,6.8-6.8
		C334.2,348.8,331.2,345.8,327.4,345.8z"/>
	<path d="M352.2,345.8c-3.7,0-6.8,3-6.8,6.8c0,3.8,3,6.8,6.8,6.8c3.7,0,6.8-3,6.8-6.8
		C359,348.8,355.9,345.8,352.2,345.8z"/>
	<path d="M402.3,341.2c-1.7,0-3.1,1.4-3.1,3.1v16.5c0,1.7,1.4,3.1,3.1,3.1c1.7,0,3.1-1.4,3.1-3.1v-16.5
		C405.4,342.6,404,341.2,402.3,341.2z"/>
	<path d="M427.3,341.2c-1.7,0-3.1,1.4-3.1,3.1v16.5c0,1.7,1.4,3.1,3.1,3.1c1.7,0,3.1-1.4,3.1-3.1v-16.5
		C430.4,342.6,429,341.2,427.3,341.2z"/>
</g>
<g>
	<path d="M80.4,267c-3.7,0-6.8,3-6.8,6.8c0,3.7,3,6.8,6.8,6.8c3.7,0,6.8-3,6.8-6.8C87.1,270.1,84.1,267,80.4,267z"/>
	<path d="M105.2,267c-3.7,0-6.8,3-6.8,6.8c0,3.7,3,6.8,6.8,6.8c3.8,0,6.8-3,6.8-6.8C111.9,270.1,108.9,267,105.2,267z"
		/>
	<path d="M152.1,265.5V282c0,4.1,6.2,4.1,6.2,0v-16.5C158.3,261.4,152.1,261.4,152.1,265.5z"/>
	<path d="M180.2,262.5c-1.7,0-3.1,1.4-3.1,3.1V282c0,1.7,1.4,3.1,3.1,3.1c1.7,0,3.1-1.4,3.1-3.1v-16.5
		C183.4,263.9,182,262.5,180.2,262.5z"/>
	<path d="M80.4,306.4c-3.7,0-6.8,3-6.8,6.8c0,3.8,3,6.8,6.8,6.8s6.8-3,6.8-6.8C87.1,309.3,84.1,306.4,80.4,306.4z"/>
	<path d="M105.2,306.4c-3.7,0-6.8,3-6.8,6.8c0,3.8,3,6.8,6.8,6.8c3.7,0,6.8-3,6.8-6.8
		C111.9,309.3,108.9,306.4,105.2,306.4z"/>
	<path d="M152.1,304.9v16.5c0,4.1,6.2,4.1,6.2,0v-16.5C158.3,300.8,152.1,300.8,152.1,304.9z"/>
	<path d="M180.2,301.8c-1.7,0-3.1,1.4-3.1,3.1v16.5c0,1.7,1.4,3.1,3.1,3.1c1.7,0,3.1-1.4,3.1-3.1v-16.5
		C183.4,303.2,182,301.8,180.2,301.8z"/>
	<path d="M143.3,375.4h50.8c6,0,10.9-4.9,10.9-10.9v-23.9c0-3-1.3-5.7-3.2-7.7c2-2,3.2-4.7,3.2-7.7v-23.9
		c0-3-1.3-5.7-3.2-7.7c2-2,3.2-4.7,3.2-7.7v-24.1l0,0c0-6-4.9-10.9-10.9-10.9h-23.2l-33.1,0.1H67.9c-6,0-10.9,4.9-10.9,10.9v23.9
		c0,3,1.3,5.7,3.2,7.7c-2,2-3.2,4.7-3.2,7.7v23.9c0,3,1.3,5.8,3.2,7.7c-2,2-3.2,4.7-3.2,7.7v24c0,6,4.9,10.9,10.9,10.9h33H143.3z
		 M198.7,364.5c0,2.5-2.1,4.6-4.6,4.6c-25.9,0-98.6,0-126.3,0c-2.5,0-4.6-2.1-4.6-4.6v-23.9c0-2.5,2.1-4.6,4.6-4.6h126.3
		c2.5,0,4.6,2.1,4.6,4.6V364.5z M198.7,325.1c0,2.5-2.1,4.6-4.6,4.6c-23.5,0-96.8,0-126.3,0c-2.5,0-4.6-2.1-4.6-4.6v-23.9
		c0-2.5,2.1-4.6,4.6-4.6h126.3c2.5,0,4.6,2.1,4.6,4.6V325.1z M198.7,285.7c0,2.5-2.1,4.6-4.6,4.6c-25.5,0-100.9,0-126.3,0
		c-2.5,0-4.6-2.1-4.6-4.6v-23.9c0-2.5,2.1-4.6,4.6-4.6h126.3c2.5,0,4.6,2.1,4.6,4.6V285.7z"/>
	<path d="M80.4,345.8c-3.7,0-6.8,3-6.8,6.8c0,3.8,3,6.8,6.8,6.8s6.8-3,6.8-6.8C87.1,348.8,84.1,345.8,80.4,345.8z"/>
	<path d="M105.2,345.8c-3.7,0-6.8,3-6.8,6.8c0,3.8,3,6.8,6.8,6.8c3.7,0,6.8-3,6.8-6.8
		C111.9,348.8,108.9,345.8,105.2,345.8z"/>
	<path d="M155.3,341.2c-1.7,0-3.1,1.4-3.1,3.1v16.5c0,1.7,1.4,3.1,3.1,3.1c1.7,0,3.1-1.4,3.1-3.1v-16.5
		C158.3,342.6,156.9,341.2,155.3,341.2z"/>
	<path d="M180.2,341.2c-1.7,0-3.1,1.4-3.1,3.1v16.5c0,1.7,1.4,3.1,3.1,3.1c1.7,0,3.1-1.4,3.1-3.1v-16.5
		C183.4,342.6,182,341.2,180.2,341.2z"/>
</g>
<g>
	<g>
		<g>
			<line x1="210.8" y1="307.1" x2="210.8" y2="307.1"/>
		</g>
		<g>
			<g>
				<path d="M219.5,312.3c-1.3,0-2.7-0.5-3.6-1.5c-1-1-1.5-2.3-1.5-3.6s0.5-2.7,1.5-3.6c0.2-0.2,0.5-0.4,0.8-0.6
					c0.3-0.2,0.6-0.3,0.9-0.5c0.3-0.1,0.6-0.2,1-0.3c0.7-0.1,1.3-0.1,2,0c0.3,0.1,0.6,0.2,1,0.3c0.3,0.1,0.6,0.3,0.9,0.5
					c0.3,0.2,0.5,0.4,0.8,0.6c1,1,1.5,2.3,1.5,3.6s-0.5,2.7-1.5,3.6c-0.2,0.2-0.5,0.4-0.8,0.6c-0.3,0.2-0.6,0.3-0.9,0.5
					c-0.3,0.1-0.6,0.2-1,0.3C220.2,312.2,219.8,312.3,219.5,312.3z"/>
			</g>
			<g>
				<path d="M241.1,312.3c-0.3,0-0.7,0-1-0.1c-0.3-0.1-0.6-0.2-1-0.3c-0.3-0.1-0.6-0.3-0.9-0.5
					c-0.3-0.2-0.5-0.4-0.8-0.6c-1-1-1.5-2.3-1.5-3.6s0.5-2.7,1.5-3.6c0.2-0.2,0.5-0.4,0.8-0.6c0.3-0.2,0.6-0.3,0.9-0.5
					c0.3-0.1,0.6-0.2,1-0.3c0.7-0.1,1.3-0.1,2,0c0.3,0.1,0.6,0.2,1,0.3c0.3,0.1,0.6,0.3,0.9,0.5c0.3,0.2,0.5,0.4,0.8,0.6
					c1,1,1.5,2.3,1.5,3.6s-0.5,2.7-1.5,3.6C243.8,311.7,242.5,312.3,241.1,312.3z"/>
			</g>
		</g>
		<g>
			<line x1="245.5" y1="307.1" x2="245.5" y2="307.1"/>
		</g>
		<g>
			<g>
				<path d="M245.5,302.5c-1.3,0-2.7-0.5-3.6-1.5c-1-1-1.5-2.3-1.5-3.6c0-0.3,0-0.7,0.1-1c0.1-0.3,0.2-0.6,0.3-1
					c0.1-0.3,0.3-0.6,0.5-0.9c0.2-0.3,0.4-0.5,0.6-0.8c1-1,2.3-1.5,3.6-1.5c1.3,0,2.7,0.5,3.6,1.5c0.2,0.2,0.4,0.5,0.6,0.8
					c0.2,0.3,0.3,0.6,0.5,0.9c0.1,0.3,0.2,0.6,0.3,1c0.1,0.3,0.1,0.7,0.1,1c0,1.3-0.5,2.7-1.5,3.6
					C248.1,302,246.8,302.5,245.5,302.5z"/>
			</g>
			<g>
				<path d="M240.3,276.3c0-2.8,2.3-5.1,5.1-5.1l0,0c2.8,0,5.1,2.3,5.1,5.1l0,0c0,2.8-2.3,5.1-5.1,5.1l0,0
					C242.6,281.4,240.3,279.1,240.3,276.3z M240.3,255.2c0-2.8,2.3-5.1,5.1-5.1l0,0c2.8,0,5.1,2.3,5.1,5.1l0,0
					c0,2.8-2.3,5.1-5.1,5.1l0,0C242.6,260.3,240.3,258,240.3,255.2z"/>
			</g>
			<g>
				<path d="M245.5,239.2c-1.3,0-2.7-0.5-3.6-1.5c-0.2-0.2-0.4-0.5-0.6-0.8c-0.2-0.3-0.3-0.6-0.5-0.9
					c-0.1-0.3-0.2-0.6-0.3-1c-0.1-0.3-0.1-0.7-0.1-1c0-0.3,0-0.7,0.1-1c0.1-0.3,0.2-0.6,0.3-1c0.1-0.3,0.3-0.6,0.5-0.9
					c0.2-0.3,0.4-0.5,0.6-0.8c1-1,2.3-1.5,3.6-1.5c1.3,0,2.7,0.5,3.6,1.5c0.2,0.2,0.4,0.5,0.6,0.8c0.2,0.3,0.3,0.6,0.5,0.9
					c0.1,0.3,0.2,0.6,0.3,1c0.1,0.3,0.1,0.7,0.1,1c0,0.3,0,0.7-0.1,1c-0.1,0.3-0.2,0.6-0.3,1c-0.1,0.3-0.3,0.6-0.5,0.9
					c-0.2,0.3-0.4,0.5-0.6,0.8C248.1,238.7,246.8,239.2,245.5,239.2z"/>
			</g>
		</g>
		<g>
			<line x1="245.5" y1="229.2" x2="245.5" y2="229.2"/>
		</g>
	</g>
</g>
<g>
	<g>
		<g>
			<line x1="295.4" y1="307.1" x2="295.4" y2="307.1"/>
		</g>
		<g>
			<g>
				<path d="M286.8,312.3c-0.3,0-0.7,0-1-0.1c-0.3-0.1-0.6-0.2-1-0.3c-0.3-0.1-0.6-0.3-0.9-0.5
					c-0.3-0.2-0.5-0.4-0.8-0.6c-0.2-0.2-0.4-0.5-0.6-0.8c-0.2-0.3-0.3-0.6-0.5-0.9c-0.1-0.3-0.2-0.6-0.3-1c-0.1-0.3-0.1-0.7-0.1-1
					c0-1.3,0.5-2.7,1.5-3.6c1.2-1.2,3-1.7,4.6-1.4c0.3,0.1,0.6,0.2,1,0.3c0.3,0.1,0.6,0.3,0.9,0.5c0.3,0.2,0.5,0.4,0.8,0.6
					c1,1,1.5,2.3,1.5,3.6s-0.5,2.7-1.5,3.6c-0.2,0.2-0.5,0.4-0.8,0.6c-0.3,0.2-0.6,0.3-0.9,0.5c-0.3,0.1-0.6,0.2-1,0.3
					C287.4,312.2,287.1,312.3,286.8,312.3z"/>
			</g>
			<g>
				<path d="M265.1,312.3c-0.3,0-0.7,0-1-0.1c-0.3-0.1-0.7-0.2-1-0.3c-0.3-0.1-0.6-0.3-0.9-0.5
					c-0.3-0.2-0.5-0.4-0.8-0.6c-1-1-1.5-2.3-1.5-3.6s0.5-2.7,1.5-3.6c0.2-0.2,0.5-0.4,0.8-0.6c0.3-0.2,0.6-0.3,0.9-0.5
					c0.3-0.1,0.6-0.2,1-0.3c1.7-0.3,3.4,0.2,4.6,1.4c1,1,1.5,2.3,1.5,3.6c0,0.3,0,0.7-0.1,1c-0.1,0.3-0.2,0.6-0.3,1
					c-0.1,0.3-0.3,0.6-0.5,0.9c-0.2,0.3-0.4,0.5-0.6,0.8c-0.2,0.2-0.5,0.4-0.8,0.6c-0.3,0.2-0.6,0.3-0.9,0.5c-0.3,0.1-0.6,0.2-1,0.3
					C265.8,312.2,265.5,312.3,265.1,312.3z"/>
			</g>
		</g>
		<g>
			<line x1="260.8" y1="307.1" x2="260.8" y2="307.1"/>
		</g>
		<g>
			<g>
				<path d="M260.8,302.5c-1.3,0-2.7-0.5-3.6-1.5c-1-0.9-1.5-2.3-1.5-3.6c0-0.3,0-0.7,0.1-1c0.1-0.3,0.2-0.6,0.3-1
					c0.1-0.3,0.3-0.6,0.5-0.9c0.2-0.3,0.4-0.5,0.6-0.8c1-1,2.3-1.5,3.6-1.5s2.7,0.5,3.6,1.5c0.2,0.2,0.4,0.5,0.6,0.8
					c0.2,0.3,0.3,0.6,0.5,0.9c0.1,0.3,0.2,0.6,0.3,1c0.1,0.3,0.1,0.7,0.1,1c0,1.3-0.5,2.7-1.5,3.6c-0.2,0.2-0.5,0.5-0.8,0.6
					c-0.3,0.2-0.6,0.3-0.9,0.5c-0.3,0.1-0.6,0.2-1,0.3C261.5,302.5,261.1,302.5,260.8,302.5z"/>
			</g>
			<g>
				<path d="M255.7,276.3c0-2.8,2.3-5.1,5.1-5.1l0,0c2.8,0,5.1,2.3,5.1,5.1l0,0c0,2.8-2.3,5.1-5.1,5.1l0,0
					C258,281.4,255.7,279.1,255.7,276.3z M255.7,255.2c0-2.8,2.3-5.1,5.1-5.1l0,0c2.8,0,5.1,2.3,5.1,5.1l0,0c0,2.8-2.3,5.1-5.1,5.1
					l0,0C258,260.3,255.7,258,255.7,255.2z"/>
			</g>
			<g>
				<path d="M260.8,239.2c-0.3,0-0.7,0-1-0.1c-0.3-0.1-0.6-0.2-1-0.3c-0.3-0.1-0.6-0.3-0.9-0.5
					c-0.3-0.2-0.5-0.4-0.8-0.6c-0.2-0.2-0.4-0.5-0.6-0.8c-0.2-0.3-0.3-0.6-0.5-0.9c-0.1-0.3-0.2-0.6-0.3-1c-0.1-0.3-0.1-0.7-0.1-1
					c0-0.3,0-0.7,0.1-1c0.1-0.3,0.2-0.6,0.3-1c0.1-0.3,0.3-0.6,0.5-0.9c0.2-0.3,0.4-0.5,0.6-0.8c1.2-1.2,3-1.7,4.6-1.4
					c0.3,0.1,0.6,0.2,1,0.3c0.3,0.1,0.6,0.3,0.9,0.5c0.3,0.2,0.5,0.4,0.8,0.6c1,1,1.5,2.3,1.5,3.6c0,0.3,0,0.7-0.1,1
					c-0.1,0.3-0.2,0.6-0.3,1c-0.1,0.3-0.3,0.6-0.5,0.9c-0.2,0.3-0.4,0.5-0.6,0.8s-0.5,0.4-0.8,0.6c-0.3,0.2-0.6,0.3-0.9,0.5
					c-0.3,0.1-0.6,0.2-1,0.3C261.5,239.2,261.1,239.2,260.8,239.2z"/>
			</g>
		</g>
		<g>
			<line x1="260.8" y1="229.2" x2="260.8" y2="229.2"/>
		</g>
	</g>
</g>
<g>
	<g>
		<g>
			<line x1="295.4" y1="320.5" x2="295.4" y2="320.5"/>
		</g>
		<g>
			<g>
				<path d="M286.1,325.6c-0.3,0-0.7,0-1-0.1c-0.3-0.1-0.6-0.2-1-0.3c-0.3-0.1-0.6-0.3-0.9-0.5
					c-0.3-0.2-0.5-0.4-0.8-0.6c-1-1-1.5-2.3-1.5-3.6c0-0.3,0-0.7,0.1-1c0.1-0.3,0.2-0.6,0.3-1c0.1-0.3,0.3-0.6,0.5-0.9
					c0.2-0.3,0.4-0.5,0.6-0.8c0.2-0.2,0.5-0.4,0.8-0.6c0.3-0.2,0.6-0.3,0.9-0.5c0.3-0.1,0.6-0.2,1-0.3c0.7-0.1,1.3-0.1,2,0
					c0.3,0.1,0.6,0.2,1,0.3c0.3,0.1,0.6,0.3,0.9,0.5c0.3,0.2,0.5,0.4,0.8,0.6c0.2,0.2,0.4,0.5,0.6,0.8c0.2,0.3,0.3,0.6,0.5,0.9
					c0.1,0.3,0.2,0.6,0.3,1c0.1,0.3,0.1,0.7,0.1,1c0,1.3-0.6,2.7-1.5,3.6C288.7,325.1,287.4,325.6,286.1,325.6z"/>
			</g>
			<g>
				<path d="M257.4,320.5c0-2.8,2.3-5.1,5.1-5.1l0,0c2.8,0,5.1,2.3,5.1,5.1l0,0c0,2.8-2.3,5.1-5.1,5.1l0,0
					C259.7,325.6,257.4,323.3,257.4,320.5z M233.9,320.5c0-2.8,2.3-5.1,5.1-5.1l0,0c2.8,0,5.1,2.3,5.1,5.1l0,0
					c0,2.8-2.3,5.1-5.1,5.1l0,0C236.2,325.6,233.9,323.3,233.9,320.5z"/>
			</g>
			<g>
				<path d="M215.6,325.6c-1.3,0-2.7-0.5-3.6-1.5c-0.2-0.2-0.4-0.5-0.6-0.8c-0.2-0.3-0.3-0.6-0.5-0.9
					c-0.1-0.3-0.2-0.6-0.3-1c-0.1-0.3-0.1-0.7-0.1-1s0-0.7,0.1-1c0.1-0.3,0.2-0.6,0.3-1c0.1-0.3,0.3-0.6,0.5-0.9
					c0.2-0.3,0.4-0.5,0.6-0.8c0.2-0.2,0.5-0.4,0.8-0.6c0.3-0.2,0.6-0.3,0.9-0.5c0.3-0.1,0.6-0.2,1-0.3c1.7-0.3,3.4,0.2,4.6,1.4
					c0.2,0.2,0.4,0.5,0.6,0.8c0.2,0.3,0.3,0.6,0.5,0.9c0.1,0.3,0.2,0.6,0.3,1c0.1,0.3,0.1,0.7,0.1,1s0,0.7-0.1,1
					c-0.1,0.3-0.2,0.6-0.3,1c-0.1,0.3-0.3,0.6-0.5,0.9c-0.2,0.3-0.4,0.5-0.6,0.8C218.2,325.1,216.9,325.6,215.6,325.6z"/>
			</g>
		</g>
		<g>
			<line x1="210.8" y1="320.5" x2="210.8" y2="320.5"/>
		</g>
	</g>
</g>
</svg>
