<?xml version="1.0" encoding="utf-8"?>
<!-- Generator: Adobe Illustrator 25.0.1, SVG Export Plug-In . SVG Version: 6.00 Build 0)  -->
<svg version="1.1" fill="#8052FD"  id="Layer_1" xmlns="http://www.w3.org/2000/svg" xmlns:xlink="http://www.w3.org/1999/xlink" x="0px" y="0px"
	 viewBox="0 0 512 512" style="enable-background:new 0 0 512 512;" xml:space="preserve">
<g>
	<g>
		<g>
			<path d="M326.2,256c0-38.8-31.5-70.2-70.2-70.2s-70.2,31.5-70.2,70.2s31.5,70.2,70.2,70.2S326.2,294.8,326.2,256z
				 M198.2,256c0-31.8,25.9-57.8,57.8-57.8s57.8,25.9,57.8,57.8c0,16.7-7.1,31.8-18.4,42.3c-1.3-3.4-3.3-6.5-6-9.1
				c-5.1-5-11.7-7.8-18.8-7.8h-29c-7.1,0-13.8,2.8-18.8,7.8c-2.6,2.6-4.7,5.7-6,9.1C205.3,287.8,198.2,272.7,198.2,256z
				 M227.5,306.2c0.4-3.1,1.7-6,4-8.2c2.6-2.6,6.2-4.2,10-4.2h29c3.8,0,7.3,1.4,10,4.2c2.3,2.3,3.6,5.1,4,8.2
				c-8.4,4.8-18.1,7.6-28.5,7.6C245.6,313.8,235.9,311,227.5,306.2z"/>
			<path d="M256,272c15.1,0,27.4-12.3,27.4-27.4c0-15.1-12.3-27.4-27.4-27.4c-15.1,0-27.4,12.3-27.4,27.4
				C228.6,259.8,240.9,272,256,272z M256,229.7c8.2,0,15,6.7,15,15c0,8.2-6.7,15-15,15c-8.2,0-15-6.7-15-15
				C241,236.4,247.8,229.7,256,229.7z"/>
			<path d="M416.6,221.2l-12.2,2.6c0.9,4.2,1.7,8.5,2.2,12.8l12.4-1.6C418.4,230.4,417.6,225.8,416.6,221.2z"/>
			<path d="M420.3,256c0-2.3-0.1-4.7-0.2-7l-12.5,0.5c0.1,2.1,0.2,4.3,0.2,6.5c0,2.2-0.1,4.3-0.2,6.5l12.5,0.5
				C420.2,260.7,420.3,258.4,420.3,256z"/>
			<path d="M418.9,277l-12.4-1.6c-0.5,4.3-1.3,8.6-2.2,12.8l12.2,2.6C417.6,286.3,418.4,281.6,418.9,277z"/>
			<path d="M319.3,104.4c-4.3-1.8-8.7-3.4-13.2-4.8l-3.9,11.9c4.1,1.3,8.2,2.8,12.2,4.5L319.3,104.4z"/>
			<path d="M337.4,127.9l6.7-10.5c-2-1.2-3.9-2.4-6-3.6c-2-1.1-4.1-2.3-6.1-3.4l-5.8,11c1.9,1,3.8,2,5.7,3.1
				C333.8,125.7,335.6,126.7,337.4,127.9z"/>
			<path d="M366.4,134.3c-3.4-3.1-7-6.1-10.8-8.9l-7.6,9.9c3.5,2.6,6.8,5.4,10,8.2L366.4,134.3z"/>
			<path d="M209.7,111.5l-3.9-11.9c-4.4,1.4-8.8,3-13.2,4.8l4.8,11.5C201.5,114.3,205.6,112.7,209.7,111.5z"/>
			<path d="M180.1,124.5c1.9-1.1,3.8-2.1,5.7-3.1l-5.7-11c-2,1.1-4.1,2.2-6.1,3.4c-2,1.2-4,2.4-6,3.6l6.7,10.5
				C176.4,126.7,178.2,125.7,180.1,124.5z"/>
			<path d="M163.9,135.4l-7.6-9.9c-3.7,2.8-7.3,5.8-10.8,8.9l8.4,9.2C157.1,140.7,160.5,137.9,163.9,135.4z"/>
			<path d="M107.6,288.1c-0.9-4.2-1.7-8.5-2.2-12.8L93,277c0.6,4.6,1.4,9.2,2.3,13.8L107.6,288.1z"/>
			<path d="M91.7,256c0,2.3,0.1,4.7,0.2,7l12.5-0.5c-0.1-2.1-0.2-4.3-0.2-6.5c0-2.2,0.1-4.3,0.2-6.5L91.9,249
				C91.8,251.3,91.7,253.7,91.7,256z"/>
			<path d="M107.6,223.9l-12.2-2.6c-1,4.5-1.7,9.1-2.3,13.8l12.4,1.6C106,232.3,106.7,228,107.6,223.9z"/>
			<path d="M192.7,407.6c4.3,1.8,8.7,3.4,13.2,4.8l3.9-11.9c-4.1-1.3-8.2-2.8-12.2-4.5L192.7,407.6z"/>
			<path d="M174.6,384.1l-6.7,10.5c2,1.2,3.9,2.4,6,3.6c2,1.1,4.1,2.3,6.1,3.4l5.7-11c-1.9-1-3.8-2-5.7-3.1
				C178.2,386.4,176.4,385.3,174.6,384.1z"/>
			<path d="M145.6,377.7c3.4,3.1,7,6.1,10.8,8.9l7.6-9.9c-3.5-2.6-6.8-5.4-10-8.2L145.6,377.7z"/>
			<path d="M348.1,376.7l7.6,9.9c3.7-2.8,7.3-5.8,10.8-8.9l-8.4-9.2C354.9,371.3,351.5,374.1,348.1,376.7z"/>
			<path d="M331.9,387.5c-1.9,1.1-3.8,2.1-5.7,3.1l5.7,11c2-1.1,4.1-2.2,6.1-3.4c2-1.2,4-2.4,6-3.6l-6.7-10.5
				C335.6,385.2,333.8,386.4,331.9,387.5z"/>
			<path d="M302.3,400.6l3.9,11.9c4.4-1.4,8.8-3,13.2-4.8l-4.8-11.5C310.5,397.8,306.4,399.3,302.3,400.6z"/>
			<rect x="249.7" y="143.4" width="12.5" height="33.3"/>
			<path d="M256,133.5c19.6,0,35.5-16,35.5-35.5s-16-35.5-35.5-35.5s-35.5,16-35.5,35.5S236.4,133.5,256,133.5z
				 M256,74.9c12.7,0,23.1,10.4,23.1,23.1s-10.4,23.1-23.1,23.1c-12.7,0-23.1-10.4-23.1-23.1S243.3,74.9,256,74.9z"/>
			<rect x="166.6" y="191.4" transform="matrix(0.5 -0.866 0.866 0.5 -93.733 253.6594)" width="12.5" height="33.3"/>
			<path d="M101.4,207.8c5.4,3.1,11.5,4.8,17.7,4.8c12.6,0,24.4-6.8,30.8-17.8c9.8-16.9,3.9-38.7-13-48.5
				c-5.4-3.1-11.6-4.8-17.8-4.8c-12.6,0-24.4,6.8-30.8,17.8c-4.8,8.2-6,17.8-3.6,26.9C87.3,195.4,93.2,203,101.4,207.8z M99.2,165.5
				c4.1-7.1,11.7-11.6,20-11.6c4,0,8,1.1,11.5,3.1c11,6.4,14.7,20.5,8.4,31.5c-4.1,7.1-11.7,11.5-20,11.5c-4,0-8-1.1-11.5-3.1
				c-5.3-3.1-9.1-8-10.7-14C95.3,177,96.1,170.8,99.2,165.5z"/>
			
				<rect x="156.2" y="297.8" transform="matrix(0.866 -0.5001 0.5001 0.866 -128.8849 127.1922)" width="33.3" height="12.5"/>
			<path d="M149.9,317.2c-6.4-11-18.1-17.8-30.8-17.8c-6.2,0-12.3,1.7-17.8,4.8c-16.9,9.8-22.8,31.5-13,48.5
				c6.4,11,18.1,17.8,30.8,17.8c6.2,0,12.3-1.7,17.7-4.8C153.9,356,159.7,334.3,149.9,317.2z M130.7,355c-3.5,2-7.5,3.1-11.5,3.1
				c-8.2,0-15.9-4.4-20-11.5c-6.4-11-2.6-25.1,8.4-31.5c3.5-2,7.5-3.1,11.5-3.1c8.2,0,15.9,4.4,20,11.5
				C145.4,334.5,141.6,348.6,130.7,355z"/>
			<rect x="249.7" y="335.4" width="12.5" height="33.3"/>
			<path d="M256,378.6c-19.6,0-35.5,16-35.5,35.5c0,19.6,16,35.5,35.5,35.5l0,0c9.5,0,18.4-3.7,25.1-10.4
				s10.4-15.6,10.4-25.1C291.5,394.4,275.6,378.6,256,378.6z M272.3,430.4c-4.4,4.3-10.1,6.7-16.3,6.7l0,0
				c-12.7,0-23.1-10.4-23.1-23.1s10.4-23.1,23-23.1c12.7,0,23.1,10.4,23.1,23.1C279,420.2,276.6,426,272.3,430.4z"/>
			<rect x="332.9" y="287.4" transform="matrix(0.5 -0.866 0.866 0.5 -93.7475 445.7278)" width="12.5" height="33.3"/>
			<path d="M410.6,304.2c-5.4-3.1-11.5-4.8-17.7-4.8c-12.6,0-24.4,6.8-30.8,17.8c-9.8,16.9-3.9,38.7,13,48.5
				c5.4,3.1,11.6,4.8,17.8,4.8l0,0c12.6,0,24.4-6.8,30.8-17.8c4.8-8.2,6-17.8,3.6-26.9C424.7,316.6,418.8,309,410.6,304.2z
				 M412.8,346.6c-4.1,7-11.7,11.5-20,11.5l0,0c-4,0-8-1.1-11.5-3.1c-11-6.4-14.7-20.5-8.4-31.5c4.1-7.1,11.7-11.5,20-11.5
				c4,0,8,1.1,11.5,3.1c5.3,3.1,9.1,8,10.7,14C416.7,335,415.9,341.2,412.8,346.6z"/>
			<rect x="322.5" y="201.7" transform="matrix(0.866 -0.5 0.5 0.866 -58.5501 197.4396)" width="33.3" height="12.5"/>
			<path d="M362.1,194.8c6.4,11,18.1,17.8,30.8,17.8c6.2,0,12.3-1.7,17.8-4.8c8.2-4.8,14.1-12.4,16.6-21.5
				c2.4-9.1,1.2-18.7-3.6-26.9c-6.4-11-18.1-17.8-30.8-17.8c-6.2,0-12.3,1.7-17.8,4.8C358.1,156.1,352.3,177.8,362.1,194.8z
				 M381.3,157c3.5-2,7.5-3.1,11.5-3.1c8.2,0,15.9,4.4,20,11.5c3.1,5.3,3.9,11.5,2.3,17.5c-1.6,6-5.4,10.9-10.7,14
				c-3.5,2-7.5,3.1-11.5,3.1c-8.2,0-15.9-4.4-20-11.5C366.6,177.5,370.4,163.4,381.3,157z"/>
		</g>
	</g>
</g>
</svg>
