<?xml version="1.0" encoding="utf-8"?>
<!-- Generator: Adobe Illustrator 25.0.1, SVG Export Plug-In . SVG Version: 6.00 Build 0)  -->
<svg version="1.1"  fill="#8052FD" id="Layer_1" xmlns="http://www.w3.org/2000/svg" xmlns:xlink="http://www.w3.org/1999/xlink" x="0px" y="0px"
	 viewBox="0 0 511 511" style="enable-background:new 0 0 511 511;" xml:space="preserve">
<g>
	<path d="M255.5,280c29.7,0,53.9-24.2,53.9-53.9s-24.2-53.9-53.9-53.9s-53.9,24.2-53.9,53.9S225.8,280,255.5,280z
		 M255.5,184.1c23.1,0,41.9,18.8,41.9,41.9S278.6,268,255.5,268s-41.9-18.8-41.9-41.9S232.4,184.1,255.5,184.1z"/>
	<path d="M255.5,256c16.6,0,30-13.4,30-30s-13.4-30-30-30s-30,13.4-30,30S238.9,256,255.5,256z M255.5,208.1
		c9.9,0,18,8.1,18,18s-8.1,18-18,18c-9.9,0-18-8.1-18-18S245.5,208.1,255.5,208.1z"/>
	<path d="M393.3,226h-41.9v-22.6l-23.6-6.2c-0.2-0.7-0.5-1.3-0.8-1.9l12.3-21l-32-32l-21,12.3c-0.7-0.3-1.3-0.5-1.9-0.8
		l-6.2-23.6h-45.2l-6.2,23.6c-0.7,0.2-1.3,0.5-1.9,0.8l-21-12.3l-32,32l12.3,21c-0.3,0.7-0.5,1.3-0.8,1.9l-23.6,6.2V226h-41.9v57.1
		l107.8,71.9v62.7h59.9v-62.7l107.8-71.9L393.3,226L393.3,226z M171.6,212.7l20.7-5.5l1-3c0.8-2.2,1.7-4.5,2.8-6.7l1.3-2.8
		l-10.8-18.5l18.9-18.9l18.5,10.8l2.8-1.3c2.2-1,4.4-1.9,6.7-2.8l3-1l5.5-20.7h26.7l5.5,20.7l3,1c2.2,0.8,4.5,1.7,6.7,2.8l2.8,1.3
		l18.5-10.8l18.9,18.9l-10.8,18.5l1.3,2.8c1,2.2,1.9,4.4,2.8,6.7l1,3l20.7,5.5v26.7l-20.7,5.5l-1,3c-0.8,2.2-1.7,4.5-2.8,6.7
		l-1.3,2.8l10.8,18.5l-18.9,18.9l-18.5-10.8l-2.8,1.3c-2.2,1-4.4,1.9-6.7,2.8l-3,1l-5.5,20.7H242l-5.5-20.7l-3-1
		c-2.2-0.8-4.5-1.7-6.7-2.8l-2.8-1.3l-18.5,10.8l-18.9-18.9l10.8-18.5l-1.3-2.8c-1-2.2-1.9-4.4-2.8-6.7l-1-3l-20.7-5.5V212.7z
		 M381.3,276.7l-107.8,71.9v57.1h-35.9v-57.1l-107.8-71.9V238h30v10.6l23.6,6.2c0.2,0.7,0.5,1.3,0.8,1.9l-12.3,21l32,32l21-12.3
		c0.7,0.3,1.3,0.5,1.9,0.8L233,322h45.2l6.2-23.6c0.7-0.2,1.3-0.5,1.9-0.8l21,12.3l32-32l-12.3-21c0.3-0.7,0.5-1.3,0.8-1.9l23.6-6.2
		V238h30L381.3,276.7L381.3,276.7z"/>
	<path d="M127.5,219.3l5.8-10.5c-13.3-7.4-21.6-21.5-21.6-36.7c0-21.3,16-39.2,37.1-41.6l4.6-0.5l0.6-4.6
		c2.4-17.7,17.7-31.1,35.6-31.1c4.1,0,8.2,0.7,12.2,2.2l4.9,1.8l2.4-4.6c11.5-21.7,33.8-35.3,58.3-35.3c32.5,0,60.4,24.3,65.2,56.4
		l1,6.5l6.4-1.6c3.9-1,7.7-1.4,11.4-1.4c26.4,0,47.9,21.5,47.9,47.9c0,18.3-10.2,34.8-26.7,43l5.3,10.7
		c20.5-10.2,33.3-30.8,33.3-53.7c0-35.6-31.4-64.5-67.9-59.3c-8.1-34.9-39.6-60.5-75.9-60.5c-27.3,0-52.3,14.2-66.5,37.4
		c-3.7-0.9-7.6-1.4-11.4-1.4c-22.3,0-41.6,15.7-46.7,37.1c-24.9,5-43.2,27-43.2,52.8C99.7,191.7,110.4,209.8,127.5,219.3z"/>
	<path d="M71.5,305.6l8.5,8.5l13.7-13.7v57.4h12v-57.4l13.8,13.8l8.5-8.5l-28.2-28.2L71.5,305.6z"/>
	<path d="M93.7,369.8h12v12h-12V369.8z"/>
	<path d="M93.7,393.8h12v12h-12V393.8z"/>
	<path d="M431,377.5l-13.7,13.7v-57.4h-12v57.4l-13.7-13.7l-8.5,8.5l28.2,28.2l28.2-28.2L431,377.5z"/>
	<path d="M405.3,309.9h12v12h-12V309.9z"/>
	<path d="M405.3,285.9h12v12h-12V285.9z"/>
	<path d="M123.7,172.1h12c0-9.9,8.1-18,18-18v-12C137.1,142.2,123.7,155.6,123.7,172.1z"/>
	<path d="M229.3,86.1l8.5,8.5c16.3-16.3,43-16.3,59.3,0l8.5-8.5C284.6,65,250.3,65,229.3,86.1z"/>
	<path d="M351.4,130.2v12c13.2,0,24,10.8,24,24h12C387.3,146.3,371.1,130.2,351.4,130.2z"/>
</g>
</svg>
