<?xml version="1.0" encoding="utf-8"?>
<!-- Generator: Adobe Illustrator 25.0.1, SVG Export Plug-In . SVG Version: 6.00 Build 0)  -->
<svg version="1.1" fill="#8052FD" id="Layer_1" xmlns="http://www.w3.org/2000/svg" xmlns:xlink="http://www.w3.org/1999/xlink" x="0px" y="0px"
	 viewBox="0 0 114 114" style="enable-background:new 0 0 114 114;" xml:space="preserve">

	
	


<g>
	<path d="M20.8,74.9h71.8c0.6,0,1-0.5,1-1V27.4c0-0.6-0.5-1-1-1H20.8c-0.6,0-1,0.5-1,1v46.5
		C19.7,74.4,20.2,74.9,20.8,74.9z M21.8,28.4h69.7v44.4H21.8V28.4z"/>
	<path d="M65,49.4l-15.7-9.2c-0.3-0.2-0.7-0.2-1,0c-0.3,0.2-0.5,0.5-0.5,0.9v18.5c0,0.4,0.2,0.7,0.5,0.9
		c0.2,0.1,0.3,0.1,0.5,0.1c0.2,0,0.4,0,0.5-0.1L65,51.2c0.3-0.2,0.5-0.5,0.5-0.9S65.4,49.6,65,49.4z M49.8,57.7V42.8l12.7,7.4
		L49.8,57.7z"/>
	<path d="M31.9,83.8H19.4c-0.6,0-1,0.5-1,1s0.5,1,1,1h12.5c0.6,0,1-0.5,1-1S32.5,83.8,31.9,83.8z"/>
	<path d="M94.6,83.8H50.7c-0.6,0-1,0.5-1,1s0.5,1,1,1h43.9c0.6,0,1-0.5,1-1S95.2,83.8,94.6,83.8z"/>
	<path d="M41.3,77.6c-4,0-7.3,3.2-7.3,7.2c0,4,3.3,7.2,7.3,7.2c4,0,7.3-3.2,7.3-7.2C48.6,80.8,45.4,77.6,41.3,77.6z
		 M41.3,89.9c-2.9,0-5.2-2.3-5.2-5.1s2.4-5.1,5.2-5.1c2.9,0,5.2,2.3,5.2,5.1S44.2,89.9,41.3,89.9z"/>
</g>
</svg>
