<?xml version="1.0" encoding="utf-8"?>
<!-- Generator: Adobe Illustrator 25.0.1, SVG Export Plug-In . SVG Version: 6.00 Build 0)  -->
<svg version="1.1" fill="#8052FD" id="Layer_1" xmlns="http://www.w3.org/2000/svg" xmlns:xlink="http://www.w3.org/1999/xlink" x="0px" y="0px"
	 viewBox="0 0 512 512" style="enable-background:new 0 0 512 512;" xml:space="preserve">
<path d="M430.8,315.7c6.5-19,9.7-39,9.7-59.3c0-49.3-19.2-95.6-54-130.5C351.6,91.2,305.3,72,256,72
	c-41,0-79.8,13.2-112.2,38l-4.5,3.5l22.7,29.6l4.5-3.5c25.9-19.8,56.8-30.3,89.5-30.3c81.2,0,147.2,66,147.2,147.2
	c0,13.9-1.9,27.6-5.7,40.9l-16.8-9.3l1.5,79.2l67.8-40.9L430.8,315.7z M427.3,326.8l-34.1,20.6l-0.8-39.8l11.6,6.4
	c3.4-9.9,10.6-29.1,10.6-57.4c0-87.4-71.1-158.5-158.5-158.5c-33.3,0-64.9,10.1-91.8,29.3l-8.9-11.6c29.5-21.2,64.2-32.3,100.7-32.3
	c46.2,0,89.7,18,122.4,50.7s50.7,76.2,50.7,122.4c0,24.5-4.6,43.4-12.4,64.5L427.3,326.8z"/>
<path d="M272,117.5l-7.7,21.1c-68.4-4.8-126.5,49.5-126.5,117.9c0,24,7.2,47.1,20.7,66.8l3.2,4.7l30.8-21.1l-3.2-4.7
	c-9.2-13.5-14.1-29.3-14.1-45.7c0-42.8,33.5-78,75.6-80.7l-5.9,16.2l78-13.7L272,117.5z M256,164.3c-50.8,0-92.2,41.4-92.2,92.2
	c0,16.8,4.5,33,13.1,47.3l-12.1,8.3c-10.2-16.7-15.6-35.8-15.6-55.6c0-63.1,54.8-113,118.4-106.2l4.4,0.5l4-10.8l25.6,30.5
	l-39.3,6.9l4.7-12.8C258.5,164.3,257.6,164.3,256,164.3z"/>
<path d="M203.7,268.2v18.4l52.3,30.2l52.3-30.2v-60.4L256,196.1l-52.3,30.2v26.8h11.4v-20.2l40.9-23.6l40.9,23.6v47.2
	L256,303.7l-40.9-23.6v-11.9H203.7z"/>
<path d="M274.8,256.5c0-10.4-8.4-18.8-18.8-18.8s-18.8,8.4-18.8,18.8s8.4,18.8,18.8,18.8S274.8,266.8,274.8,256.5z
	 M248.5,256.5c0-4.1,3.3-7.5,7.5-7.5s7.5,3.3,7.5,7.5s-3.3,7.5-7.5,7.5S248.5,260.6,248.5,256.5z"/>
<path d="M350.3,185l-30.8,21.1l3.2,4.7c9.2,13.5,14.1,29.3,14.1,45.7c0,42.8-33.5,78-75.6,80.7l5.9-16.2l-78,13.7
	l50.9,60.7l7.7-21.1c2.8,0.2,5.6,0.3,8.3,0.3c28.6,0,56.2-10.4,77.7-29.2l-7.5-8.6c-19.5,17-44.4,26.4-70.2,26.4
	c-6.6,0-10.9-0.6-16-1.1l-4,10.8l-25.6-30.5l39.2-6.9l-4.7,12.8c8.6,0.3,9.4,0.3,11,0.3c50.8,0,92.2-41.4,92.2-92.2
	c0-16.8-4.5-33-13.1-47.3l12.1-8.3c10.2,16.7,15.6,35.8,15.6,55.6c0,25.8-9.4,50.7-26.4,70.2l8.6,7.5c18.8-21.5,29.2-49.1,29.2-77.7
	c0-24-7.1-47.1-20.7-66.8L350.3,185z"/>
<path d="M345.5,373.3c-25.9,19.8-56.8,30.3-89.5,30.3c-81.2,0-147.2-66-147.2-147.2c0-13.9,1.9-27.6,5.7-40.9l16.8,9.3
	l-1.5-79.2L62,186.6l19.2,10.6c-6.5,19-9.7,39-9.7,59.3c0,48.8,18.9,94.8,53.1,129.5l8.1-8c-32.1-32.6-49.8-75.7-49.8-121.5
	c0-24.6,4.6-43.5,12.4-64.5l-10.5-5.8l34.1-20.6l0.8,39.8L108,199c-3.1,9.1-10.6,28.7-10.6,57.4C97.5,343.9,168.6,415,256,415
	c33.3,0,64.9-10.1,91.8-29.3l8.9,11.6c-29.5,21.2-64.2,32.3-100.7,32.3c-41.4,0-81.3-14.8-112.6-41.6l-7.4,8.6
	c33.3,28.6,75.9,44.3,120,44.3c41,0,79.8-13.2,112.2-38l4.5-3.5L350,369.8L345.5,373.3z"/>
<path d="M256.5,297.4l-5.7-9.8l32-18.5l5.7,9.8L256.5,297.4z M291.7,266.7h-11.4v-11.4h11.4V266.7z M291.7,247.8h-11.4
	v-11.4h11.4V247.8z"/>
</svg>
