<?xml version="1.0" encoding="utf-8"?>
<!-- Generator: Adobe Illustrator 26.0.1, SVG Export Plug-In . SVG Version: 6.00 Build 0)  -->
<svg version="1.1" fill="#8052FD" id="Layer_1" xmlns="http://www.w3.org/2000/svg" xmlns:xlink="http://www.w3.org/1999/xlink" x="0px" y="0px"
	 viewBox="0 0 482.3 482.3" style="enable-background:new 0 0 482.3 482.3;" xml:space="preserve">
<path d="M370.3,107.8c-4-13.7-8.1-14.6-13.6-14.6h-28.8c-6.6,0-11.1,0.2-15.6,2.7s-16.8,10.9-34.3,35.8s-29.9,53-31,55
	s-1.6,3.6-4.5,1.4c-2.1-1.6-3.6-7.4-14-27c-11.1-21.1-20.6-37.4-31.5-51.7s-20-16.9-27.5-16.9h-36.8c-6.4,0-11.2,5.4-14.9,19
	s-9.1,59.7-10.2,96.7s1,102.5,1,111.7s1.7,39.7,4.4,52.6s6.7,18,11.4,18h44.9c9.5,0,10.9-4.1,8.8-10.2S164,321.5,160.9,294
	c-4.1-35.8-5-83.4-3-102.1c1.8-16.6,9.4-30.2,19.7-11.5c10.5,19,18.3,39,24.1,53.6s17.9,66.5,21,73.3s6.4,12.8,16.9,14.4
	c0,0,13.5,1.8,18.6-8.4c5.1-10.2,7.2-34.7,12.5-54.5c6.6-24.7,25.7-70,33.4-80.7s13.7-6.8,16.6,1.3c3.3,9.1,4.6,59.4,0.8,102.2
	s-16.7,96.3-17.8,101.6s2.8,6.9,8.1,6.9h50.9c3.3,0,6.6,0.5,8.9-3s5.6-14.8,7.4-30.6s3.4-62.8,2.7-119.1S377.4,131.9,370.3,107.8z"
	/>
<path d="M266.5,363.6c-7.1,0-12.8,5.7-12.8,12.8s5.7,12.8,12.8,12.8s12.8-5.7,12.8-12.8l0,0
	C279.3,369.3,273.6,363.6,266.5,363.6L266.5,363.6z"/>
<path d="M218.8,363.6c-7.1,0-12.8,5.7-12.8,12.8s5.7,12.8,12.8,12.8s12.8-5.7,12.8-12.8l0,0
	C231.6,369.3,225.9,363.6,218.8,363.6L218.8,363.6z"/>
</svg>
