<?xml version="1.0" encoding="UTF-8"?><svg fill="#8052fd" id="AI-1" xmlns="http://www.w3.org/2000/svg" viewBox="0 0 198 198"><path d="M44.97,101.25c-1.24,0-2.25-1.01-2.25-2.25,0-25.5,10.48-45.47,23.86-45.47,1.24,0,2.25,1.01,2.25,2.25s-1.01,2.25-2.25,2.25c-10.5,0-19.36,18.76-19.36,40.97,0,1.24-1.01,2.25-2.25,2.25Z" /><path d="M88.19,144.47c-13.38,0-23.86-19.97-23.86-45.47s10.48-45.47,23.86-45.47c1.24,0,2.25,1.01,2.25,2.25s-1.01,2.25-2.25,2.25c-10.5,0-19.36,18.76-19.36,40.97s8.87,40.97,19.36,40.97c1.24,0,2.25,1.01,2.25,2.25s-1.01,2.25-2.25,2.25Z" /><path d="M66.58,144.47c-13.38,0-23.86-19.97-23.86-45.47,0-1.24,1.01-2.25,2.25-2.25s2.25,1.01,2.25,2.25c0,22.21,8.87,40.97,19.36,40.97,1.24,0,2.25,1.01,2.25,2.25s-1.01,2.25-2.25,2.25Z" /><path d="M109.81,144.47c-13.38,0-23.86-19.97-23.86-45.47s10.48-45.47,23.86-45.47c1.24,0,2.25,1.01,2.25,2.25s-1.01,2.25-2.25,2.25c-10.5,0-19.36,18.76-19.36,40.97s8.87,40.97,19.36,40.97c1.24,0,2.25,1.01,2.25,2.25s-1.01,2.25-2.25,2.25Z" /><path d="M131.42,144.47c-13.38,0-23.86-19.97-23.86-45.47s10.48-45.47,23.86-45.47,23.86,19.97,23.86,45.47-10.48,45.47-23.86,45.47Zm0-86.45c-10.5,0-19.36,18.76-19.36,40.97s8.87,40.97,19.36,40.97,19.36-18.76,19.36-40.97-8.87-40.97-19.36-40.97Z" /><path d="M131.42,58.03H66.58c-1.24,0-2.25-1.01-2.25-2.25s1.01-2.25,2.25-2.25h64.84c1.24,0,2.25,1.01,2.25,2.25s-1.01,2.25-2.25,2.25Z" /><path d="M131.42,144.47H66.58c-1.24,0-2.25-1.01-2.25-2.25s1.01-2.25,2.25-2.25h64.84c1.24,0,2.25,1.01,2.25,2.25s-1.01,2.25-2.25,2.25Z" /></svg>