<?xml version="1.0" encoding="utf-8"?>
<!-- Generator: Adobe Illustrator 25.0.1, SVG Export Plug-In . SVG Version: 6.00 Build 0)  -->
<svg version="1.1" fill="#8052FD" id="Capa_1" xmlns="http://www.w3.org/2000/svg" xmlns:xlink="http://www.w3.org/1999/xlink" x="0px" y="0px"
	 viewBox="0 0 512 512" style="enable-background:new 0 0 512 512;" xml:space="preserve">

	
	


<g id="Layer_1_1_">
</g>
<g>
	<g>
		<path d="M126.4,310.9c-0.6,0-1.2-0.1-1.8-0.4l-46.2-25c-1.2-0.7-1.9-1.9-1.9-3.3V230c0-1.3,0.7-2.5,1.8-3.2
			c1.1-0.7,2.5-0.7,3.6-0.1l46.2,25c1.2,0.7,1.9,1.9,1.9,3.3v52.2c0,1.3-0.7,2.5-1.8,3.2C127.7,310.6,127.1,310.9,126.4,310.9z
			 M83.9,279.9l38.8,21v-43.7l-38.8-21V279.9z"/>
		<path d="M126.4,310.9c-0.7,0-1.3-0.1-1.9-0.5c-1.1-0.7-1.8-1.9-1.8-3.2V255c0-1.3,0.7-2.6,1.9-3.3l46.2-25
			c1.1-0.6,2.5-0.6,3.6,0.1c1.1,0.7,1.8,1.9,1.8,3.2v52.2c0,1.3-0.7,2.6-1.9,3.3l-46.2,25C127.6,310.7,127,310.9,126.4,310.9z
			 M130.1,257.2v43.7l38.8-21v-43.7L130.1,257.2z"/>
		<path d="M126.4,258.7c-0.6,0-1.2-0.1-1.8-0.4l-46.2-25c-1.2-0.7-1.9-1.9-1.9-3.3c0-1.3,0.7-2.6,1.9-3.3l46.2-25.1
			c1.1-0.6,2.4-0.6,3.6,0l46.2,25c1.2,0.7,1.9,1.9,1.9,3.3c0,1.3-0.7,2.6-1.9,3.3l-46.2,25.1C127.6,258.5,127,258.7,126.4,258.7z
			 M87.9,230l38.5,20.8l38.5-20.8l-38.5-20.8L87.9,230z"/>
	</g>
	<g>
		<path d="M385.6,310.9c-0.6,0-1.2-0.1-1.8-0.4l-46.2-25.1c-1.2-0.7-1.9-1.9-1.9-3.3v-52.2c0-1.3,0.7-2.5,1.8-3.2
			s2.5-0.7,3.6-0.1l46.2,25c1.2,0.7,1.9,1.9,1.9,3.3v52.2c0,1.3-0.7,2.5-1.8,3.2C387,310.6,386.3,310.9,385.6,310.9z M343.2,279.9
			l38.8,21v-43.7l-38.8-21V279.9z"/>
		<path d="M385.6,310.9c-0.7,0-1.3-0.1-1.9-0.5c-1.1-0.7-1.8-1.9-1.8-3.2V255c0-1.3,0.7-2.6,1.9-3.3l46.2-25
			c1.2-0.6,2.5-0.6,3.6,0.1c1.1,0.7,1.8,1.9,1.8,3.2v52.2c0,1.3-0.7,2.6-1.9,3.3l-46.1,25C386.8,310.7,386.2,310.9,385.6,310.9z
			 M389.3,257.2v43.7l38.8-21v-43.7L389.3,257.2z"/>
		<path d="M385.6,258.7c-0.6,0-1.2-0.1-1.8-0.4l-46.2-25c-1.2-0.7-1.9-1.9-1.9-3.3c0-1.3,0.7-2.6,1.9-3.3l46.2-25
			c1.1-0.6,2.4-0.6,3.6,0l46.2,25c1.2,0.7,1.9,1.9,1.9,3.3c0,1.3-0.7,2.6-1.9,3.3l-46.2,25C386.8,258.5,386.2,258.7,385.6,258.7z
			 M347.2,230l38.5,20.8l38.5-20.8l-38.5-20.8L347.2,230z"/>
	</g>
	<g>
		<g>
			<path d="M192.9,208c-0.6,0-1.2-0.1-1.8-0.4l-46.2-25c-1.2-0.7-1.9-1.9-1.9-3.3v-52.2c0-1.3,0.7-2.5,1.8-3.2
				c1.1-0.7,2.5-0.7,3.6-0.1l46.2,25c1.2,0.7,1.9,1.9,1.9,3.3v52.2c0,1.3-0.7,2.5-1.8,3.2C194.2,207.8,193.5,208,192.9,208z
				 M150.4,177l38.8,21v-43.7l-38.8-21V177z"/>
			<path d="M192.9,208c-0.7,0-1.3-0.1-1.9-0.5c-1.1-0.7-1.8-1.9-1.8-3.2v-52.2c0-1.3,0.7-2.6,1.9-3.3l46.2-25
				c1.1-0.6,2.5-0.6,3.6,0.1s1.8,1.9,1.8,3.2v52.2c0,1.3-0.7,2.6-1.9,3.3l-46.2,25C194.1,207.8,193.5,208,192.9,208z M196.6,154.3
				V198l38.8-21v-43.7L196.6,154.3z"/>
			<path d="M192.9,155.8c-0.6,0-1.2-0.1-1.8-0.4l-46.2-25c-1.2-0.7-1.9-1.9-1.9-3.3c0-1.3,0.7-2.6,1.9-3.3l46.2-25
				c1.1-0.6,2.4-0.6,3.6,0l46.2,25c1.2,0.7,1.9,1.9,1.9,3.3c0,1.3-0.7,2.6-1.9,3.3l-46.2,25C194.1,155.6,193.5,155.8,192.9,155.8z
				 M154.4,127.1l38.5,20.8l38.5-20.8l-38.5-20.8L154.4,127.1z"/>
		</g>
		<g>
			<path d="M319.2,208c-0.6,0-1.2-0.1-1.8-0.4l-46.2-25c-1.2-0.7-1.9-1.9-1.9-3.3v-52.2c0-1.3,0.7-2.5,1.8-3.2
				s2.5-0.7,3.6-0.1l46.2,25c1.2,0.7,1.9,1.9,1.9,3.3v52.2c0,1.3-0.7,2.5-1.8,3.2C320.4,207.8,319.8,208,319.2,208z M276.6,177
				l38.8,21v-43.7l-38.8-21V177z"/>
			<path d="M319.2,208c-0.7,0-1.3-0.1-1.9-0.5c-1.1-0.7-1.8-1.9-1.8-3.2v-52.2c0-1.3,0.7-2.6,1.9-3.3l46.2-25
				c1.2-0.6,2.5-0.6,3.6,0.1s1.8,1.9,1.8,3.2v52.2c0,1.3-0.7,2.6-1.9,3.3l-46.2,25C320.4,207.8,319.8,208,319.2,208z M322.9,154.3
				V198l38.8-21v-43.7L322.9,154.3z"/>
			<path d="M319.2,155.8c-0.6,0-1.2-0.1-1.8-0.4l-46.2-25c-1.2-0.7-1.9-1.9-1.9-3.3c0-1.3,0.7-2.6,1.9-3.3l46.2-25
				c1.1-0.6,2.4-0.6,3.6,0l46.2,25c1.2,0.7,1.9,1.9,1.9,3.3c0,1.3-0.7,2.6-1.9,3.3l-46.2,25C320.4,155.6,319.8,155.8,319.2,155.8z
				 M280.7,127.1l38.5,20.8l38.5-20.8l-38.5-20.8L280.7,127.1z"/>
		</g>
	</g>
	<g>
		<g>
			<path d="M192.9,413.8c-0.6,0-1.2-0.1-1.8-0.4l-46.2-25c-1.2-0.7-1.9-1.9-1.9-3.3v-52.2c0-1.3,0.7-2.5,1.8-3.2
				c1.1-0.7,2.5-0.7,3.6-0.1l46.2,25c1.2,0.7,1.9,1.9,1.9,3.3v52.2c0,1.3-0.7,2.5-1.8,3.2C194.2,413.5,193.5,413.8,192.9,413.8z
				 M150.4,382.8l38.8,21v-43.7l-38.8-21V382.8z"/>
			<path d="M192.9,413.8c-0.7,0-1.3-0.1-1.9-0.5c-1.1-0.7-1.8-1.9-1.8-3.2v-52.2c0-1.3,0.7-2.6,1.9-3.3l46.2-25
				c1.1-0.6,2.5-0.6,3.6,0.1c1.1,0.7,1.8,1.9,1.8,3.2V385c0,1.3-0.7,2.6-1.9,3.3l-46.2,25C194.1,413.6,193.5,413.8,192.9,413.8z
				 M196.6,360.1v43.7l38.8-21v-43.7L196.6,360.1z"/>
			<path d="M192.9,361.6c-0.6,0-1.2-0.1-1.8-0.4l-46.2-25c-1.2-0.7-1.9-1.9-1.9-3.3s0.7-2.6,1.9-3.3l46.2-25
				c1.1-0.6,2.4-0.6,3.6,0l46.2,25c1.2,0.7,1.9,1.9,1.9,3.3s-0.7,2.6-1.9,3.3l-46.2,25C194.1,361.4,193.5,361.6,192.9,361.6z
				 M154.4,332.8l38.5,20.8l38.5-20.8l-38.5-20.8L154.4,332.8z"/>
		</g>
		<g>
			<path d="M319.2,413.8c-0.6,0-1.2-0.1-1.8-0.4l-46.2-25c-1.2-0.7-1.9-1.9-1.9-3.3v-52.2c0-1.3,0.7-2.5,1.8-3.2
				c1.1-0.7,2.5-0.7,3.6-0.1l46.2,25c1.2,0.7,1.9,1.9,1.9,3.3v52.2c0,1.3-0.7,2.5-1.8,3.2C320.4,413.5,319.8,413.8,319.2,413.8z
				 M276.6,382.8l38.8,21v-43.7l-38.8-21V382.8z"/>
			<path d="M319.2,413.8c-0.7,0-1.3-0.1-1.9-0.5c-1.1-0.7-1.8-1.9-1.8-3.2v-52.2c0-1.3,0.7-2.6,1.9-3.3l46.2-25
				c1.2-0.6,2.5-0.6,3.6,0.1c1.1,0.7,1.8,1.9,1.8,3.2V385c0,1.3-0.7,2.6-1.9,3.3l-46.2,25C320.4,413.6,319.8,413.8,319.2,413.8z
				 M322.9,360.1v43.7l38.8-21v-43.7L322.9,360.1z"/>
			<path d="M319.2,361.6c-0.6,0-1.2-0.1-1.8-0.4l-46.2-25c-1.2-0.7-1.9-1.9-1.9-3.3s0.7-2.6,1.9-3.3l46.2-25
				c1.1-0.6,2.4-0.6,3.6,0l46.2,25c1.2,0.7,1.9,1.9,1.9,3.3s-0.7,2.6-1.9,3.3l-46.2,25C320.4,361.4,319.8,361.6,319.2,361.6z
				 M280.7,332.8l38.5,20.8l38.5-20.8l-38.5-20.8L280.7,332.8z"/>
		</g>
	</g>
	<path d="M256,310.9c-0.6,0-1.2-0.1-1.8-0.4l-46.2-25c-1.2-0.7-1.9-1.9-1.9-3.3V230c0-1.3,0.7-2.5,1.8-3.2
		c1.1-0.7,2.5-0.7,3.6-0.1l46.2,25c1.2,0.7,1.9,1.9,1.9,3.3v52.2c0,1.3-0.7,2.5-1.8,3.2C257.3,310.6,256.7,310.9,256,310.9z
		 M213.5,279.9l38.8,21v-43.7l-38.8-21V279.9z"/>
	<path d="M256,310.9c-0.7,0-1.3-0.1-1.9-0.5c-1.1-0.7-1.8-1.9-1.8-3.2V255c0-1.3,0.7-2.6,1.9-3.3l46.2-25
		c1.2-0.6,2.5-0.6,3.6,0.1c1.1,0.7,1.8,1.9,1.8,3.2v52.2c0,1.3-0.7,2.6-1.9,3.3l-46.2,25C257.2,310.7,256.6,310.9,256,310.9z
		 M259.7,257.2v43.7l38.8-21v-43.7L259.7,257.2z"/>
	<path d="M256,258.7c-0.6,0-1.2-0.1-1.8-0.4l-46.2-25c-1.2-0.7-1.9-1.9-1.9-3.3c0-1.3,0.7-2.6,1.9-3.3l46.2-25
		c1.1-0.6,2.4-0.6,3.6,0l46.2,25c1.2,0.7,1.9,1.9,1.9,3.3c0,1.3-0.7,2.6-1.9,3.3l-46.2,25C257.2,258.5,256.6,258.7,256,258.7z
		 M217.5,230l38.5,20.8l38.5-20.8L256,209.2L217.5,230z"/>
	
		<rect x="141.1" y="200.2" transform="matrix(0.6919 -0.722 0.722 0.6919 -98.6354 176.741)" width="33.3" height="7.4"/>
	<rect x="174.8" y="254.4" width="32.5" height="7.4"/>
	
		<rect x="352.4" y="187.3" transform="matrix(0.722 -0.6919 0.6919 0.722 -42.0997 303.1129)" width="7.4" height="33.3"/>
	<rect x="238.9" y="356.9" width="32.5" height="7.4"/>
	<rect x="304.4" y="254.4" width="32.5" height="7.4"/>
	
		<rect x="339.5" y="304.9" transform="matrix(0.6919 -0.722 0.722 0.6919 -113.0676 352.2546)" width="33.3" height="7.4"/>
</g>
</svg>
