<?xml version="1.0" encoding="utf-8"?>
<!-- Generator: Adobe Illustrator 25.0.1, SVG Export Plug-In . SVG Version: 6.00 Build 0)  -->
<svg version="1.1" fill="#8052FD" id="Layer_1" xmlns="http://www.w3.org/2000/svg" xmlns:xlink="http://www.w3.org/1999/xlink" x="0px" y="0px"
	 viewBox="0 0 514 514" style="enable-background:new 0 0 514 514;" xml:space="preserve">

	
	


<g>
	<path d="M124.9,358.8L124.9,358.8c-1.2,0-2.2-1-2.2-2.2l0.2-162.9c0-0.5,0.2-1,0.5-1.4l6-7.4c0.4-0.5,1.1-0.8,1.7-0.8
		c0.7,0,1.3,0.3,1.7,0.8l4.2,5.2l4.2-5.2c0.4-0.5,1.1-0.8,1.7-0.8l0,0c0.7,0,1.3,0.3,1.7,0.8l6,7.3c0.4,0.4,0.5,0.9,0.5,1.4v163
		c0,1.2-1,2.2-2.2,2.2c-1.2,0-2.2-1-2.2-2.2V194.4l-3.7-4.5l-4.2,5.2c-0.4,0.5-1.1,0.8-1.7,0.8c-0.6,0-1.3-0.3-1.7-0.8l-4.3-5.2
		l-3.7,4.6L127,356.6C127.1,357.8,126.2,358.8,124.9,358.8z"/>
	<path d="M91.9,358.8c-1.2,0-2.2-1-2.2-2.2v-135l-4.7-5.3l-5.3,6c-0.8,1-2.5,1-3.3,0l-5.3-6l-5.3,6
		c-0.4,0.4-1.1,0.7-1.7,0.7l0,0c-0.6,0-1.2-0.3-1.7-0.7l-5.3-6l-4.8,5.3v134.9c0,1.2-1,2.2-2.2,2.2s-2.2-1-2.2-2.2V220.8
		c0-0.5,0.2-1.1,0.5-1.5l7-7.8c0.8-1,2.5-1,3.3,0l5.3,6l5.3-6c0.4-0.4,1.1-0.7,1.7-0.7l0,0c0.6,0,1.2,0.3,1.7,0.7l5.3,6l5.3-6
		c0.4-0.4,1.1-0.7,1.7-0.7l0,0c0.6,0,1.2,0.3,1.7,0.7l7,7.8c0.4,0.4,0.5,0.9,0.5,1.5v135.8C94.2,357.8,93.2,358.8,91.9,358.8z"/>
	<path d="M117.9,358.8c-1.2,0-2.2-1-2.2-2.2v-36.9c0-3.1-3.2-5.7-7.1-5.7s-7.1,2.6-7.1,5.7v36.9c0,1.2-1,2.2-2.2,2.2
		c-1.2,0-2.2-1-2.2-2.2v-36.9c0-5.6,5.2-10.2,11.6-10.2c6.4,0,11.6,4.5,11.6,10.2v36.9C120.1,357.8,119.1,358.8,117.9,358.8z"/>
	<path d="M175,358.8c-1.2,0-2.2-1-2.2-2.2v-35.8l-4.7-4h-4.8l-4.6,4v35.8c0,1.2-1,2.2-2.2,2.2s-2.2-1-2.2-2.2v-36.9
		c0-0.6,0.3-1.2,0.8-1.7l6.1-5.2c0.4-0.4,0.9-0.5,1.4-0.5h6.4c0.5,0,1.1,0.2,1.4,0.5l6.2,5.2c0.5,0.4,0.8,1.1,0.8,1.7v36.9
		C177.2,357.8,176.3,358.8,175,358.8z"/>
	<path d="M272.4,358.8c-1.2,0-2.2-1-2.2-2.2v-47.7l-8.8-6.7h-9.4l-8.8,6.7v47.7c0,1.2-1,2.2-2.2,2.2
		c-1.2,0-2.2-1-2.2-2.2v-48.8c0-0.7,0.4-1.3,0.9-1.8l10.3-7.8c0.4-0.3,0.9-0.4,1.3-0.4h11c0.4,0,1,0.2,1.3,0.4l10.3,7.8
		c0.5,0.4,0.9,1.1,0.9,1.8v48.8C274.7,357.8,273.7,358.8,272.4,358.8z"/>
	<path d="M115.6,286.1h-14.3c-1.2,0-2.2-1-2.2-2.2v-18.1c0-5.2,4.2-9.4,9.4-9.4s9.4,4.2,9.4,9.4v18.1
		C117.9,285.1,116.9,286.1,115.6,286.1z M103.6,281.6h9.8v-15.9c0-2.7-2.2-4.9-4.9-4.9c-2.7,0-4.9,2.2-4.9,4.9V281.6z"/>
	<path d="M121.2,254.3c-0.2,0-0.4,0-0.7-0.1l-11.9-3.8l-11.9,3.8c-1.2,0.4-2.4-0.3-2.8-1.4c-0.4-1.2,0.3-2.4,1.4-2.8
		l12.7-4c0.4-0.2,0.9-0.2,1.3,0l12.7,4c1.2,0.4,1.8,1.6,1.4,2.8C122.9,253.7,122.1,254.3,121.2,254.3z"/>
	<path d="M172.8,286.1h-14.3c-1.2,0-2.2-1-2.2-2.2v-18.1c0-5.2,4.2-9.4,9.4-9.4s9.4,4.2,9.4,9.4v18.1
		C175,285.1,174,286.1,172.8,286.1z M160.7,281.6h9.8v-15.9c0-2.7-2.2-4.9-4.9-4.9c-2.7,0-4.9,2.2-4.9,4.9V281.6z"/>
	<path d="M267.4,253.8h-22.2c-1.2,0-2.2-1-2.2-2.2v-19.7c0-6.8,5.5-12.3,12.3-12.3h2.1c6.8,0,12.3,5.5,12.3,12.3v19.7
		C269.6,252.8,268.6,253.8,267.4,253.8z M247.4,249.3h17.7v-17.5c0-4.4-3.5-7.8-7.8-7.8h-2.1c-4.4,0-7.8,3.5-7.8,7.8V249.3z"/>
	<path d="M175.3,243.4h-19.1c-1.2,0-2.2-1-2.2-2.2v-23.5c0-1.3,1-5.2,10.3-11.5c0.4-0.3,0.8-0.4,1.2-0.4h0.3
		c0.4,0,0.9,0.1,1.2,0.4c2.9,2,9.3,6.6,10.3,10.5c0.2,0.3,0.2,0.6,0.2,1v23.5C177.5,242.4,176.5,243.4,175.3,243.4z M158.4,238.9
		H173v-20.7c-0.1-0.2-0.1-0.4-0.1-0.5c-0.2-1.2-3.5-4.4-7.2-7c-3.7,2.7-7.1,5.9-7.3,7L158.4,238.9z M177.4,217.6L177.4,217.6
		L177.4,217.6z"/>
	<path d="M178.3,254.3c-0.2,0-0.4,0-0.7-0.1l-11.9-3.8l-11.9,3.8c-1.2,0.4-2.4-0.3-2.8-1.4c-0.4-1.2,0.3-2.4,1.4-2.8
		l12.7-4c0.4-0.2,0.9-0.2,1.3,0l12.7,4c1.2,0.4,1.8,1.6,1.4,2.8C180.1,253.7,179.3,254.3,178.3,254.3z"/>
	<path d="M238.7,211.6c-1,0-1.8-0.6-2.1-1.5c-0.4-1.2,0.3-2.4,1.4-2.8l16.3-5.3c0.4-0.2,0.9-0.2,1.3,0l16.3,5.3
		c1.2,0.4,1.8,1.6,1.4,2.8c-0.4,1.2-1.6,1.8-2.8,1.4l-15.6-5.1l-15.6,5.1C239.1,211.6,238.9,211.6,238.7,211.6z"/>
	<path d="M68.9,217.2c-1.2,0-2.2-1-2.2-2.2v-33.3l-3.8-8.1l-3.7,8.1v31.2c0,1.2-1,2.2-2.2,2.2s-2.2-1-2.2-2.2v-31.7
		c0-0.4,0.1-0.6,0.2-1l6-12.8c0.4-0.8,1.2-1.2,2.1-1.2l0,0c0.9,0,1.6,0.5,2.1,1.2l6.1,12.8c0.2,0.3,0.2,0.6,0.2,1v33.9
		C71.2,216.2,70.2,217.2,68.9,217.2z"/>
	<path d="M65.9,176.2c-1.2,0-2.1-0.9-2.2-2l-0.8-7.6l-0.8,7.6c-0.1,1.2-1.2,2.1-2.4,2c-1.2-0.1-2.1-1.2-2-2.4l2.9-29.3
		c0.1-1.2,1.1-2,2.2-2.1l0,0c1.2,0,2.1,0.9,2.2,2l3,29.3c0.1,1.2-0.8,2.3-2,2.4C66.1,176.2,66,176.2,65.9,176.2z"/>
	<path d="M72.9,217.2c-1.2,0-2.2-1-2.2-2.2v-33.9c0-0.4,0.1-0.6,0.2-1l6-12.8c0.4-0.8,1.2-1.2,2.1-1.2l0,0
		c0.9,0,1.6,0.5,2.1,1.2l6.1,12.8c0.2,0.3,0.2,0.6,0.2,1v31.7c0,1.2-1,2.2-2.2,2.2c-1.2,0-2.2-1-2.2-2.2v-31.2l-3.8-8.1l-3.7,8.1
		v33.3C75.2,216.2,74.2,217.2,72.9,217.2z"/>
	<path d="M81.9,176.2c-1.2,0-2.1-0.9-2.2-2l-0.8-7.6l-0.8,7.6c-0.1,1.2-1.2,2.1-2.4,2c-1.2-0.1-2.1-1.2-2-2.4l2.9-29.3
		c0.1-1.2,1.1-2,2.2-2.1l0,0c1.2,0,2.1,0.9,2.2,2l3,29.3c0.1,1.2-0.8,2.3-2,2.4C82.1,176.2,82,176.2,81.9,176.2z"/>
	<path d="M144.1,188.8c-1.2,0-2.2-1-2.2-2.2v-29.9l-4.9-10.5l-5,10.5v29.9c0,1.2-1,2.2-2.2,2.2s-2.2-1-2.2-2.2v-30.4
		c0-0.4,0.1-0.6,0.2-1l7.2-15.2c0.4-0.8,1.2-1.2,2.1-1.2l0,0c0.9,0,1.6,0.5,2.1,1.2l7.1,15.2c0.2,0.3,0.2,0.6,0.2,1v30.4
		C146.3,187.8,145.3,188.8,144.1,188.8z"/>
	<path d="M133.4,150c-0.1,0-0.2,0-0.3,0c-1.2-0.1-2.1-1.2-2-2.4l3.6-34.9c0.1-1.2,1.1-2,2.2-2l0,0
		c1.2,0,2.1,0.9,2.2,2.1l3.5,34.9c0.1,1.2-0.8,2.3-2,2.4c-1.2,0.1-2.3-0.8-2.4-2l-1.2-12.9l-1.3,12.9
		C135.5,149.1,134.5,150,133.4,150z"/>
	<path d="M94.5,322.9H47.2c-1.2,0-2.2-1-2.2-2.2c0-1.2,1-2.2,2.2-2.2h47.3c1.2,0,2.2,1,2.2,2.2
		C96.7,321.9,95.8,322.9,94.5,322.9z"/>
	<path d="M227.1,322.9h-47.2c-1.2,0-2.2-1-2.2-2.2c0-1.2,1-2.2,2.2-2.2h47.2c1.2,0,2.2,1,2.2,2.2
		C229.3,321.9,228.3,322.9,227.1,322.9z"/>
	<path d="M227.1,145.6h-47.2c-1.2,0-2.2-1-2.2-2.2c0-1.2,1-2.2,2.2-2.2h47.2c1.2,0,2.2,1,2.2,2.2
		C229.3,144.6,228.3,145.6,227.1,145.6z"/>
	<path d="M151.5,322.8h-29c-1.2,0-2.2-1-2.2-2.2s1-2.2,2.2-2.2h29c1.2,0,2.2,1,2.2,2.2S152.7,322.8,151.5,322.8z"/>
	<path d="M151.5,201.2h-29c-1.2,0-2.2-1-2.2-2.2c0-1.2,1-2.2,2.2-2.2h29c1.2,0,2.2,1,2.2,2.2
		C153.7,200.2,152.7,201.2,151.5,201.2z"/>
	<path d="M224.6,358.8c-1.2,0-2.2-1-2.2-2.2V139.2l-4.8-5.3l-5.3,6c-0.8,1-2.5,1-3.3,0l-5.3-6l-5.3,6
		c-0.8,1-2.5,1-3.3,0l-5.3-6l-4.8,5.3v217.4c0,1.2-1,2.2-2.2,2.2s-2.2-1-2.2-2.2V138.3c0-0.5,0.2-1.1,0.5-1.5l7-7.8
		c0.8-1,2.5-1,3.3,0l5.3,6l5.3-6c0.8-1,2.5-1,3.3,0l5.3,6l5.3-6c0.8-1,2.5-1,3.3,0l7,7.8c0.4,0.4,0.5,1,0.5,1.5v218.3
		C226.8,357.8,225.8,358.8,224.6,358.8z"/>
	<path d="M201.5,131.8c-1.2,0-2.2-1-2.2-2.2V99l-3.7-8.1l-3.8,8.1v30.5c0,1.2-1,2.2-2.2,2.2s-2.2-1-2.2-2.2V98.6
		c0-0.4,0.1-0.6,0.2-1l6.1-12.9c0.4-0.8,1.2-1.2,2.1-1.2l0,0c0.9,0,1.7,0.5,2.1,1.3l6,12.9c0.2,0.3,0.2,0.6,0.2,0.9v30.9
		C203.7,130.8,202.7,131.8,201.5,131.8z"/>
	<path d="M192.5,93.8c-0.1,0-0.2,0-0.3,0c-1.2-0.1-2.1-1.2-2-2.4l3-29.4c0.1-1.2,1.1-2,2.2-2l0,0c1.2,0,2.1,0.9,2.2,2.1
		l2.9,29.4c0.1,1.2-0.8,2.3-2,2.4c-1.2,0.1-2.3-0.8-2.4-2l-0.7-7.6l-0.8,7.6C194.6,92.9,193.6,93.8,192.5,93.8z"/>
	<path d="M217.5,131.8c-1.2,0-2.2-1-2.2-2.2V99l-3.7-8.1l-3.8,8.1v30.5c0,1.2-1,2.2-2.2,2.2c-1.2,0-2.2-1-2.2-2.2V98.6
		c0-0.4,0.1-0.6,0.2-1l6.1-12.9c0.4-0.8,1.2-1.2,2.1-1.2l0,0c0.9,0,1.7,0.5,2.1,1.3l6,12.9c0.2,0.3,0.2,0.6,0.2,0.9v30.9
		C219.8,130.8,218.8,131.8,217.5,131.8z"/>
	<path d="M208.5,93.8c-0.1,0-0.2,0-0.3,0c-1.2-0.1-2.1-1.2-2-2.4l3-29.4c0.1-1.2,1.1-2,2.2-2l0,0c1.2,0,2.1,0.9,2.2,2.1
		l2.9,29.4c0.1,1.2-0.8,2.3-2,2.4c-1.2,0.1-2.3-0.8-2.4-2l-0.7-7.6l-0.8,7.6C210.7,92.9,209.7,93.8,208.5,93.8z"/>
	<path d="M219.3,276.6h-31.7c-1.2,0-2.2-1-2.2-2.2c0-1.2,1-2.2,2.2-2.2h31.7c1.2,0,2.2,1,2.2,2.2
		C221.5,275.6,220.6,276.6,219.3,276.6z"/>
	<path d="M279.3,261.3h-45.1c-1.2,0-2.2-1-2.2-2.2s1-2.2,2.2-2.2h45.1c1.2,0,2.2,1,2.2,2.2S280.6,261.3,279.3,261.3z"/>
	<path d="M219.3,226.4h-31.7c-1.2,0-2.2-1-2.2-2.2s1-2.2,2.2-2.2h31.7c1.2,0,2.2,1,2.2,2.2S220.6,226.4,219.3,226.4z"/>
	<path d="M88.6,276.6H53.1c-1.2,0-2.2-1-2.2-2.2c0-1.2,1-2.2,2.2-2.2h35.5c1.2,0,2.2,1,2.2,2.2
		C90.9,275.6,89.9,276.6,88.6,276.6z"/>
	<path d="M94.2,228.7H47.5c-1.2,0-2.2-1-2.2-2.2c0-1.2,1-2.2,2.2-2.2h46.7c1.2,0,2.2,1,2.2,2.2
		C96.5,227.7,95.5,228.7,94.2,228.7z"/>
	<path d="M281.3,140.7h-48.9c-1.2,0-2.2-1-2.2-2.2c0-1.2,1-2.2,2.2-2.2h48.9c1.2,0,2.2,1,2.2,2.2
		C283.5,139.7,282.5,140.7,281.3,140.7z"/>
	<path d="M165.7,223.8c-4.2,0-7.7-3.1-7.7-6.9c0-3.7,3.5-6.9,7.7-6.9s7.7,3.1,7.7,6.9
		C173.3,220.7,169.8,223.8,165.7,223.8z M165.7,214.6c-1.8,0-3.2,1.1-3.2,2.4c0,1.3,1.4,2.4,3.2,2.4s3.2-1.1,3.2-2.4
		S167.4,214.6,165.7,214.6z"/>
	<path d="M162.4,241.6c-1.2,0-2.2-1-2.2-2.2v-15.9c0-1.2,1-2.2,2.2-2.2c1.2,0,2.2,1,2.2,2.2v15.9
		C164.6,240.6,163.6,241.6,162.4,241.6z"/>
	<path d="M168.9,241.6c-1.2,0-2.2-1-2.2-2.2v-15.9c0-1.2,1-2.2,2.2-2.2c1.2,0,2.2,1,2.2,2.2v15.9
		C171.2,240.6,170.2,241.6,168.9,241.6z"/>
	<path d="M269.3,198.3h-26.7c-1.2,0-2.2-1-2.2-2.2v-39.5c0-4.8,10-11.2,14.3-13.8c0.4-0.2,0.7-0.3,1.2-0.3h0.4
		c0.4,0,0.8,0.1,1.2,0.4c4.3,2.6,14.3,9,14.3,13.7v39.5C271.6,197.4,270.6,198.3,269.3,198.3z M244.8,193.9h22.3v-37.3
		c-0.3-1.5-5.4-5.9-11.1-9.4c-5.8,3.6-11,7.8-11.1,9.4L244.8,193.9z"/>
	<path d="M256,168.5c-5.5,0-10-4.3-10-9.6c0-5.3,4.5-9.6,10-9.6s10,4.3,10,9.6C265.9,164.2,261.5,168.5,256,168.5z
		 M256,153.7c-3,0-5.5,2.3-5.5,5.2s2.5,5.2,5.5,5.2c3,0,5.5-2.3,5.5-5.2S259,153.7,256,153.7z"/>
	<path d="M251.3,196.3c-1.2,0-2.2-1-2.2-2.2v-26.8c0-1.2,1-2.2,2.2-2.2s2.2,1,2.2,2.2v26.8
		C253.6,195.3,252.6,196.3,251.3,196.3z"/>
	<path d="M260.6,196.3c-1.2,0-2.2-1-2.2-2.2v-26.8c0-1.2,1-2.2,2.2-2.2s2.2,1,2.2,2.2v26.8
		C262.8,195.3,261.8,196.3,260.6,196.3z"/>
	<path d="M121.7,222.5H95c-1.2,0-2.2-1-2.2-2.2c0-1.2,1-2.2,2.2-2.2h26.7c1.2,0,2.2,1,2.2,2.2
		C123.9,221.5,122.9,222.5,121.7,222.5z"/>
	<path d="M96.8,219.7c-1.2,0-2.2-1-2.2-2.2v-17.3c0-1.2,1-2.2,2.2-2.2c1.2,0,2.2,1,2.2,2.2v17.3
		C99.1,218.7,98.1,219.7,96.8,219.7z"/>
	<path d="M104,219.7c-1.2,0-2.2-1-2.2-2.2v-22.6c0-1.2,1-2.2,2.2-2.2c1.2,0,2.2,1,2.2,2.2v22.6
		C106.2,218.7,105.2,219.7,104,219.7z"/>
	<path d="M111.1,219.7c-1.2,0-2.2-1-2.2-2.2v-27.8c0-1.2,1-2.2,2.2-2.2s2.2,1,2.2,2.2v27.8
		C113.3,218.7,112.3,219.7,111.1,219.7z"/>
	<path d="M118.1,219.7c-1.2,0-2.2-1-2.2-2.2v-33.2c0-1.2,1-2.2,2.2-2.2c1.2,0,2.2,1,2.2,2.2v33.2
		C120.4,218.7,119.4,219.7,118.1,219.7z"/>
	<path d="M179,195.2h-26.7c-1.2,0-2.2-1-2.2-2.2s1-2.2,2.2-2.2H179c1.2,0,2.2,1,2.2,2.2S180.3,195.2,179,195.2z"/>
	<path d="M155,191.4c-1.2,0-2.2-1-2.2-2.2v-24.6c0-1.2,1-2.2,2.2-2.2s2.2,1,2.2,2.2v24.6
		C157.3,190.4,156.3,191.4,155,191.4z"/>
	<path d="M162.1,191.4c-1.2,0-2.2-1-2.2-2.2v-29.9c0-1.2,1-2.2,2.2-2.2s2.2,1,2.2,2.2v29.9
		C164.3,190.4,163.3,191.4,162.1,191.4z"/>
	<path d="M169.2,191.4c-1.2,0-2.2-1-2.2-2.2V154c0-1.2,1-2.2,2.2-2.2c1.2,0,2.2,1,2.2,2.2v35.1
		C171.4,190.4,170.5,191.4,169.2,191.4z"/>
	<path d="M176.3,191.4c-1.2,0-2.2-1-2.2-2.2v-40.5c0-1.2,1-2.2,2.2-2.2c1.2,0,2.2,1,2.2,2.2v40.5
		C178.6,190.4,177.6,191.4,176.3,191.4z"/>
	<path d="M228.6,134.7c-1.2,0-2.2-1-2.2-2.2v-24.6c0-1.2,1-2.2,2.2-2.2s2.2,1,2.2,2.2v24.6
		C230.8,133.7,229.8,134.7,228.6,134.7z"/>
	<path d="M235.6,134.7c-1.2,0-2.2-1-2.2-2.2v-29.9c0-1.2,1-2.2,2.2-2.2s2.2,1,2.2,2.2v29.9
		C237.9,133.7,236.9,134.7,235.6,134.7z"/>
	<path d="M242.7,134.7c-1.2,0-2.2-1-2.2-2.2V97.3c0-1.2,1-2.2,2.2-2.2c1.2,0,2.2,1,2.2,2.2v35.2
		C244.9,133.7,243.9,134.7,242.7,134.7z"/>
	<path d="M249.6,134.7c-1.2,0-2.2-1-2.2-2.2V92c0-1.2,1-2.2,2.2-2.2c1.2,0,2.2,1,2.2,2.2v40.5
		C251.9,133.7,250.9,134.7,249.6,134.7z"/>
	<path d="M284.7,134.7c-1.2,0-2.2-1-2.2-2.2v-24.6c0-1.2,1-2.2,2.2-2.2c1.2,0,2.2,1,2.2,2.2v24.6
		C286.9,133.7,285.9,134.7,284.7,134.7z"/>
	<path d="M277.7,134.7c-1.2,0-2.2-1-2.2-2.2v-29.9c0-1.2,1-2.2,2.2-2.2c1.2,0,2.2,1,2.2,2.2v29.9
		C279.9,133.7,279,134.7,277.7,134.7z"/>
	<path d="M270.7,134.7c-1.2,0-2.2-1-2.2-2.2V97.3c0-1.2,1-2.2,2.2-2.2s2.2,1,2.2,2.2v35.2
		C272.9,133.7,271.9,134.7,270.7,134.7z"/>
	<path d="M263.6,134.7c-1.2,0-2.2-1-2.2-2.2V92c0-1.2,1-2.2,2.2-2.2s2.2,1,2.2,2.2v40.5
		C265.9,133.7,264.9,134.7,263.6,134.7z"/>
	<path d="M256.7,134.7c-1.2,0-2.2-1-2.2-2.2V92c0-1.2,1-2.2,2.2-2.2c1.2,0,2.2,1,2.2,2.2v40.5
		C258.9,133.7,257.9,134.7,256.7,134.7z"/>
	<path d="M281.9,289.9c-0.5,0-1-0.2-1.4-0.5c-5.3-4.5-14.4-7-24.2-7c-9.8,0-19.1,2.7-24.2,7c-1,0.8-2.3,0.7-3.1-0.3
		c-0.8-1-0.7-2.3,0.3-3.1c6-5.1,16.1-8.1,27.1-8.1c10.9,0,21,3,27.1,8.1c1,0.8,1.1,2.2,0.3,3.1C283.1,289.6,282.5,289.9,281.9,289.9
		z"/>
	<path d="M121.6,305.4c-0.5,0-1-0.2-1.4-0.5c-2.5-2.1-7-3.4-11.9-3.4c-4.9,0-9.4,1.2-11.9,3.4c-1,0.8-2.3,0.7-3.1-0.3
		c-0.8-1-0.7-2.3,0.3-3.1c3.4-2.9,8.7-4.5,14.7-4.5c5.9,0,11.4,1.7,14.7,4.5c1,0.8,1.1,2.2,0.3,3.1
		C122.9,305.1,122.2,305.4,121.6,305.4z"/>
	<path d="M178.8,305.4c-0.5,0-1-0.2-1.4-0.5c-2.5-2.1-7-3.4-11.9-3.4c-4.9,0-9.4,1.2-11.9,3.4c-1,0.8-2.3,0.7-3.1-0.3
		c-0.8-1-0.7-2.3,0.3-3.1c3.4-2.9,8.7-4.5,14.7-4.5c5.9,0,11.4,1.7,14.7,4.5c1,0.8,1.1,2.2,0.3,3.1
		C180,305.1,179.4,305.4,178.8,305.4z"/>
	<path d="M472.7,359.9H39c-1.4,0-2.6-1.2-2.6-2.6c0-1.4,1.2-2.6,2.6-2.6h433.7c1.4,0,2.6,1.2,2.6,2.6
		C475.3,358.7,474.1,359.9,472.7,359.9z"/>
	<path d="M481.9,367.6H32.6c-1.2,0-2.2-1-2.2-2.2s1-2.2,2.2-2.2h449.2c1.2,0,2.2,1,2.2,2.2S483.1,367.6,481.9,367.6z"/>
	<path d="M203.4,314.5c-1.2,0-2.2-1-2.2-2.2v-30.5c0-1.2,1-2.2,2.2-2.2s2.2,1,2.2,2.2v30.5
		C205.7,313.5,204.7,314.5,203.4,314.5z"/>
	<path d="M440.9,314.5c-1.2,0-2.2-1-2.2-2.2v-30.5c0-1.2,1-2.2,2.2-2.2s2.2,1,2.2,2.2v30.5
		C443.2,313.5,442.2,314.5,440.9,314.5z"/>
	<path d="M70.6,314.5c-1.2,0-2.2-1-2.2-2.2v-30.5c0-1.2,1-2.2,2.2-2.2c1.2,0,2.2,1,2.2,2.2v30.5
		C72.8,313.5,71.9,314.5,70.6,314.5z"/>
	<path d="M203.4,207.4c-1.2,0-2.2-1-2.2-2.2V149c0-1.2,1-2.2,2.2-2.2s2.2,1,2.2,2.2v56.1
		C205.7,206.4,204.7,207.4,203.4,207.4z"/>
	<path d="M386.5,358.8c-1.2,0-2.2-1-2.2-2.2l-0.2-164.7l-3.7-4.6l-4.3,5.3c-0.4,0.5-1.1,0.8-1.8,0.8
		c-0.7,0-1.3-0.4-1.7-0.8l-4.2-5.3l-3.7,4.6v164.7c0,1.2-1,2.2-2.2,2.2c-1.2,0-2.2-1-2.2-2.2V191c0-0.5,0.2-1,0.5-1.4l6-7.4
		c0.4-0.5,1.1-0.8,1.7-0.8l0,0c0.7,0,1.3,0.4,1.7,0.8l4.2,5.3l4.2-5.3c0.4-0.5,1.1-0.8,1.7-0.8s1.3,0.3,1.7,0.8l6,7.4
		c0.4,0.4,0.5,0.9,0.5,1.4l0.2,165.5C388.7,357.8,387.7,358.8,386.5,358.8L386.5,358.8z"/>
	<path d="M461.6,358.8c-1.2,0-2.2-1-2.2-2.2V221.7l-4.8-5.3l-5.3,6c-0.8,1-2.5,1-3.3,0l-5.3-6l-5.3,6
		c-0.4,0.4-1.1,0.7-1.7,0.7s-1.2-0.3-1.7-0.7l-5.3-6l-4.8,5.3v134.9c0,1.2-1,2.2-2.2,2.2c-1.2,0-2.2-1-2.2-2.2V220.8
		c0-0.5,0.2-1.1,0.5-1.5l7-7.8c0.4-0.4,1.1-0.7,1.7-0.7l0,0c0.6,0,1.2,0.3,1.7,0.7l5.3,6l5.3-6c0.8-1,2.5-1,3.3,0l5.3,6l5.3-6
		c0.8-1,2.5-1,3.3,0l7,7.8c0.4,0.4,0.5,1,0.5,1.5v135.8C463.9,357.8,462.9,358.8,461.6,358.8z"/>
	<path d="M412.2,358.8c-1.2,0-2.2-1-2.2-2.2v-36.9c0-3.1-3.2-5.7-7.1-5.7s-7.1,2.6-7.1,5.7v36.9c0,1.2-1,2.2-2.2,2.2
		c-1.2,0-2.2-1-2.2-2.2v-36.9c0-5.6,5.2-10.2,11.6-10.2s11.6,4.5,11.6,10.2v36.9C414.5,357.8,413.5,358.8,412.2,358.8z"/>
	<path d="M355.1,358.8c-1.2,0-2.2-1-2.2-2.2v-35.8l-4.7-4h-4.8l-4.7,4v35.8c0,1.2-1,2.2-2.2,2.2c-1.2,0-2.2-1-2.2-2.2
		v-36.9c0-0.6,0.3-1.2,0.8-1.7l6.2-5.2c0.4-0.4,0.9-0.5,1.4-0.5h6.4c0.5,0,1.1,0.2,1.4,0.5l6.2,5.2c0.5,0.4,0.8,1.1,0.8,1.7v36.9
		C357.3,357.8,356.3,358.8,355.1,358.8z"/>
	<path d="M410,286.1h-14.3c-1.2,0-2.2-1-2.2-2.2v-18.1c0-5.2,4.2-9.4,9.4-9.4c5.2,0,9.4,4.2,9.4,9.4v18.1
		C412.2,285.1,411.3,286.1,410,286.1z M398,281.6h9.8v-15.9c0-2.7-2.2-4.9-4.9-4.9s-4.9,2.2-4.9,4.9V281.6z"/>
	<path d="M415.5,254.3c-0.3,0-0.4,0-0.7-0.1l-11.9-3.8l-11.9,3.8c-1.2,0.4-2.4-0.3-2.8-1.4c-0.4-1.2,0.3-2.4,1.4-2.8
		l12.7-4c0.4-0.2,0.9-0.2,1.3,0l12.7,4c1.2,0.4,1.8,1.6,1.4,2.8C417.3,253.7,416.5,254.3,415.5,254.3z"/>
	<path d="M352.9,286.1h-14.3c-1.2,0-2.2-1-2.2-2.2v-18.1c0-5.2,4.2-9.4,9.4-9.4c5.2,0,9.4,4.2,9.4,9.4v18.1
		C355.1,285.1,354.1,286.1,352.9,286.1z M340.8,281.6h9.8v-15.9c0-2.7-2.2-4.9-4.9-4.9s-4.9,2.2-4.9,4.9V281.6z"/>
	<path d="M355.3,243.3h-19.1c-1.2,0-2.2-1-2.2-2.2c0-0.2,0-0.4,0.1-0.6v-22.9c0-1.3,1-5.2,10.3-11.5
		c0.4-0.3,0.8-0.4,1.2-0.4h0.3c0.4,0,0.9,0.1,1.2,0.4c3.1,2.1,10.3,7.4,10.3,11.5V241C357.5,242.3,356.5,243.3,355.3,243.3z
		 M338.5,238.8H353v-21.3c-0.2-1.1-3.5-4.3-7.2-7c-3.7,2.7-7.1,5.9-7.3,7V238.8z"/>
	<path d="M358.4,254.3c-0.3,0-0.4,0-0.7-0.1l-11.9-3.8l-11.9,3.8c-1.2,0.4-2.4-0.3-2.8-1.4c-0.4-1.2,0.3-2.4,1.4-2.8
		l12.7-4c0.4-0.2,0.9-0.2,1.3,0l12.7,4c1.2,0.4,1.8,1.6,1.4,2.8C360.2,253.7,359.4,254.3,358.4,254.3z"/>
	<path d="M442.5,217.2c-1.2,0-2.2-1-2.2-2.2v-33.9c0-0.4,0.1-0.6,0.2-1l6.1-12.8c0.4-0.8,1.2-1.2,2.1-1.2l0,0
		c0.9,0,1.7,0.5,2.1,1.2l6,12.8c0.2,0.3,0.2,0.6,0.2,1v31.7c0,1.2-1,2.2-2.2,2.2c-1.2,0-2.2-1-2.2-2.2v-31.2l-3.7-8.1l-3.8,8.1v33.3
		C444.7,216.2,443.7,217.2,442.5,217.2z"/>
	<path d="M445.5,176.2c-0.1,0-0.2,0-0.3,0c-1.2-0.1-2.1-1.2-2-2.4l3-29.3c0.1-1.2,1.1-2,2.2-2l0,0
		c1.2,0,2.1,0.9,2.2,2.1l2.9,29.3c0.1,1.2-0.8,2.3-2,2.4c-1.2,0.1-2.3-0.8-2.4-2l-0.7-7.6l-0.8,7.6
		C447.6,175.3,446.6,176.2,445.5,176.2z"/>
	<path d="M438.5,217.2c-1.2,0-2.2-1-2.2-2.2v-33.3l-3.8-8.1l-3.8,8.1v31.2c0,1.2-1,2.2-2.2,2.2s-2.2-1-2.2-2.2v-31.7
		c0-0.4,0.1-0.6,0.2-1l6.1-12.8c0.4-0.8,1.2-1.2,2.1-1.2s1.6,0.5,2.1,1.2l6.1,12.8c0.2,0.3,0.2,0.6,0.2,1v33.9
		C440.8,216.2,439.8,217.2,438.5,217.2z"/>
	<path d="M435.4,176.2c-1.2,0-2.1-0.9-2.2-2.1l-0.7-7.2l-0.7,7.2c-0.1,1.2-1.2,2.1-2.4,2c-1.2-0.1-2.1-1.2-2-2.4
		l2.9-29.3c0.1-1.2,1.1-2.1,2.2-2.1s2.1,0.9,2.2,2.1l2.9,29.3c0.1,1.2-0.8,2.3-2,2.4C435.6,176.2,435.5,176.2,435.4,176.2z"/>
	<path d="M381.7,186.1c-1.2,0-2.2-1-2.2-2.2v-29.8l-5-10.6l-4.9,10.6v29.8c0,1.2-1,2.2-2.2,2.2s-2.2-1-2.2-2.2v-30.3
		c0-0.4,0.1-0.6,0.2-1l7.1-15.3c0.4-0.8,1.2-1.2,2.1-1.2l0,0c0.9,0,1.6,0.5,2.1,1.2l7.2,15.3c0.2,0.3,0.2,0.6,0.2,1v30.3
		C383.9,185.2,382.9,186.1,381.7,186.1z"/>
	<path d="M378,147.4c-1.2,0-2.1-0.9-2.2-2l-1.3-12.9l-1.2,12.9c-0.1,1.2-1.2,2.1-2.4,2c-1.2-0.1-2.1-1.2-2-2.4l3.5-34.9
		c0.1-1.2,1.1-2.1,2.2-2.1l0,0c1.2,0,2.1,0.9,2.2,2l3.6,34.9c0.1,1.2-0.8,2.3-2,2.4C378.2,147.4,378.1,147.4,378,147.4z"/>
	<path d="M464.2,322.9h-47.3c-1.2,0-2.2-1-2.2-2.2c0-1.2,1-2.2,2.2-2.2h47.3c1.2,0,2.2,1,2.2,2.2
		C466.4,321.9,465.5,322.9,464.2,322.9z"/>
	<path d="M331.6,322.9h-47.2c-1.2,0-2.2-1-2.2-2.2c0-1.2,1-2.2,2.2-2.2h47.2c1.2,0,2.2,1,2.2,2.2
		C333.8,321.9,332.8,322.9,331.6,322.9z"/>
	<path d="M331.6,145.6h-47.2c-1.2,0-2.2-1-2.2-2.2c0-1.2,1-2.2,2.2-2.2h47.2c1.2,0,2.2,1,2.2,2.2
		C333.8,144.6,332.8,145.6,331.6,145.6z"/>
	<path d="M388.9,322.8h-29c-1.2,0-2.2-1-2.2-2.2s1-2.2,2.2-2.2h29c1.2,0,2.2,1,2.2,2.2S390.1,322.8,388.9,322.8z"/>
	<path d="M388.9,198.5h-29c-1.2,0-2.2-1-2.2-2.2s1-2.2,2.2-2.2h29c1.2,0,2.2,1,2.2,2.2S390.1,198.5,388.9,198.5z"/>
	<path d="M329.1,358.8c-1.2,0-2.2-1-2.2-2.2V139.2l-4.8-5.3l-5.3,6c-0.8,1-2.5,1-3.3,0l-5.3-6l-5.3,6
		c-0.8,1-2.5,1-3.3,0l-5.3-6l-4.8,5.3v217.4c0,1.2-1,2.2-2.2,2.2s-2.2-1-2.2-2.2V138.3c0-0.5,0.2-1.1,0.5-1.5l7-7.8
		c0.8-1,2.5-1,3.3,0l5.3,6l5.3-6c0.8-1,2.5-1,3.3,0l5.3,6l5.3-6c0.8-1,2.5-1,3.3,0l7,7.8c0.4,0.4,0.5,1,0.5,1.5v218.3
		C331.3,357.8,330.3,358.8,329.1,358.8z"/>
	<path d="M321.9,131.8c-1.2,0-2.2-1-2.2-2.2V99l-3.7-8.1l-3.8,8.1v30.5c0,1.2-1,2.2-2.2,2.2c-1.2,0-2.2-1-2.2-2.2V98.6
		c0-0.4,0.1-0.6,0.2-1l6.1-12.9c0.4-0.8,1.2-1.2,2.1-1.2l0,0c0.9,0,1.7,0.5,2.1,1.3l6,12.9c0.2,0.3,0.2,0.6,0.2,0.9v30.9
		C324.2,130.8,323.2,131.8,321.9,131.8z"/>
	<path d="M318.9,93.8c-1.2,0-2.1-0.9-2.2-2l-0.8-7.6l-0.7,7.6c-0.1,1.2-1.2,2.1-2.4,2c-1.2-0.1-2.1-1.2-2-2.4l2.9-29.4
		c0.1-1.2,1.1-2,2.2-2.1l0,0c1.2,0,2.1,0.9,2.2,2l3,29.4c0.1,1.2-0.8,2.3-2,2.4C319.1,93.8,319,93.8,318.9,93.8z"/>
	<path d="M305.9,131.8c-1.2,0-2.2-1-2.2-2.2V99l-3.7-8.1l-3.8,8.1v30.5c0,1.2-1,2.2-2.2,2.2s-2.2-1-2.2-2.2V98.6
		c0-0.4,0.1-0.6,0.2-1l6.1-12.9c0.4-0.8,1.2-1.2,2.1-1.2l0,0c0.9,0,1.7,0.5,2.1,1.3l6,12.9c0.2,0.3,0.2,0.6,0.2,0.9v30.9
		C308.1,130.8,307.1,131.8,305.9,131.8z"/>
	<path d="M296.9,93.8c-0.1,0-0.2,0-0.3,0c-1.2-0.1-2.1-1.2-2-2.4l3-29.4c0.1-1.2,1.1-2,2.2-2l0,0c1.2,0,2.1,0.9,2.2,2.1
		l2.9,29.4c0.1,1.2-0.8,2.3-2,2.4c-1.2,0.1-2.3-0.8-2.4-2l-0.7-7.6l-0.8,7.6C299,92.9,298,93.8,296.9,93.8z"/>
	<path d="M323.8,276.6h-31.7c-1.2,0-2.2-1-2.2-2.2c0-1.2,1-2.2,2.2-2.2h31.7c1.2,0,2.2,1,2.2,2.2
		C326,275.6,325,276.6,323.8,276.6z"/>
	<path d="M323.8,226.4h-31.7c-1.2,0-2.2-1-2.2-2.2s1-2.2,2.2-2.2h31.7c1.2,0,2.2,1,2.2,2.2S325,226.4,323.8,226.4z"/>
	<path d="M458.2,276.6h-35.4c-1.2,0-2.2-1-2.2-2.2c0-1.2,1-2.2,2.2-2.2h35.4c1.2,0,2.2,1,2.2,2.2
		C460.5,275.6,459.5,276.6,458.2,276.6z"/>
	<path d="M463.9,228.7h-46.8c-1.2,0-2.2-1-2.2-2.2c0-1.2,1-2.2,2.2-2.2h46.8c1.2,0,2.2,1,2.2,2.2
		C466.2,227.7,465.2,228.7,463.9,228.7z"/>
	<path d="M345.7,223.8c-4.2,0-7.7-3.1-7.7-6.9c0-3.7,3.5-6.9,7.7-6.9s7.7,3.1,7.7,6.9
		C353.4,220.7,349.9,223.8,345.7,223.8z M345.7,214.6c-1.8,0-3.2,1.1-3.2,2.4c0,1.3,1.4,2.4,3.2,2.4s3.2-1.1,3.2-2.4
		S347.5,214.6,345.7,214.6z"/>
	<path d="M349,241.6c-1.2,0-2.2-1-2.2-2.2v-15.9c0-1.2,1-2.2,2.2-2.2s2.2,1,2.2,2.2v15.9
		C351.3,240.6,350.3,241.6,349,241.6z"/>
	<path d="M342.4,241.6c-1.2,0-2.2-1-2.2-2.2v-15.9c0-1.2,1-2.2,2.2-2.2c1.2,0,2.2,1,2.2,2.2v15.9
		C344.7,240.6,343.7,241.6,342.4,241.6z"/>
	<path d="M416.3,222.5h-26.7c-1.2,0-2.2-1-2.2-2.2c0-1.2,1-2.2,2.2-2.2h26.7c1.2,0,2.2,1,2.2,2.2
		C418.6,221.5,417.6,222.5,416.3,222.5z"/>
	<path d="M414.6,219.7c-1.2,0-2.2-1-2.2-2.2v-17.3c0-1.2,1-2.2,2.2-2.2s2.2,1,2.2,2.2v17.3
		C416.8,218.7,415.8,219.7,414.6,219.7z"/>
	<path d="M407.4,219.7c-1.2,0-2.2-1-2.2-2.2v-22.6c0-1.2,1-2.2,2.2-2.2s2.2,1,2.2,2.2v22.6
		C409.6,218.7,408.7,219.7,407.4,219.7z"/>
	<path d="M400.4,219.7c-1.2,0-2.2-1-2.2-2.2v-27.8c0-1.2,1-2.2,2.2-2.2s2.2,1,2.2,2.2v27.8
		C402.6,218.7,401.6,219.7,400.4,219.7z"/>
	<path d="M393.2,219.7c-1.2,0-2.2-1-2.2-2.2v-33.2c0-1.2,1-2.2,2.2-2.2c1.2,0,2.2,1,2.2,2.2v33.2
		C395.5,218.7,394.5,219.7,393.2,219.7z"/>
	<path d="M359,195.2h-26.7c-1.2,0-2.2-1-2.2-2.2s1-2.2,2.2-2.2H359c1.2,0,2.2,1,2.2,2.2S360.3,195.2,359,195.2z"/>
	<path d="M356.4,191.4c-1.2,0-2.2-1-2.2-2.2v-24.6c0-1.2,1-2.2,2.2-2.2c1.2,0,2.2,1,2.2,2.2v24.6
		C358.7,190.4,357.7,191.4,356.4,191.4z"/>
	<path d="M349.3,191.4c-1.2,0-2.2-1-2.2-2.2v-29.9c0-1.2,1-2.2,2.2-2.2c1.2,0,2.2,1,2.2,2.2v29.9
		C351.5,190.4,350.5,191.4,349.3,191.4z"/>
	<path d="M342.2,191.4c-1.2,0-2.2-1-2.2-2.2V154c0-1.2,1-2.2,2.2-2.2s2.2,1,2.2,2.2v35.1
		C344.4,190.4,343.4,191.4,342.2,191.4z"/>
	<path d="M335,191.4c-1.2,0-2.2-1-2.2-2.2v-40.5c0-1.2,1-2.2,2.2-2.2c1.2,0,2.2,1,2.2,2.2v40.5
		C337.3,190.4,336.3,191.4,335,191.4z"/>
	<path d="M416.2,305.4c-0.5,0-1-0.2-1.4-0.5c-2.5-2.1-7-3.4-11.9-3.4c-4.9,0-9.4,1.2-11.9,3.4c-1,0.8-2.3,0.7-3.1-0.3
		c-0.8-1-0.7-2.3,0.3-3.1c3.4-2.9,8.7-4.5,14.7-4.5c5.9,0,11.4,1.7,14.7,4.5c1,0.8,1.1,2.2,0.3,3.1
		C417.5,305.1,416.9,305.4,416.2,305.4z"/>
	<path d="M359.1,305.4c-0.5,0-1-0.2-1.4-0.5c-2.5-2.1-7-3.4-11.9-3.4c-4.9,0-9.4,1.2-11.9,3.4c-1,0.8-2.3,0.7-3.1-0.3
		c-0.8-1-0.7-2.3,0.3-3.1c3.4-2.9,8.7-4.5,14.7-4.5c5.9,0,11.4,1.7,14.7,4.5c1,0.8,1.1,2.2,0.3,3.1
		C360.3,305.1,359.7,305.4,359.1,305.4z"/>
	<path d="M307.9,314.5c-1.2,0-2.2-1-2.2-2.2v-30.5c0-1.2,1-2.2,2.2-2.2c1.2,0,2.2,1,2.2,2.2v30.5
		C310.2,313.5,309.2,314.5,307.9,314.5z"/>
	<path d="M307.9,207.4c-1.2,0-2.2-1-2.2-2.2V149c0-1.2,1-2.2,2.2-2.2c1.2,0,2.2,1,2.2,2.2v56.1
		C310.2,206.4,309.2,207.4,307.9,207.4z"/>
</g>
<g id="Layer_1_1_">
</g>
</svg>
