<?xml version="1.0" encoding="utf-8"?>
<!-- Generator: Adobe Illustrator 25.0.1, SVG Export Plug-In . SVG Version: 6.00 Build 0)  -->
<svg version="1.1" fill="#8052FD" id="Layer_1" xmlns="http://www.w3.org/2000/svg" xmlns:xlink="http://www.w3.org/1999/xlink" x="0px" y="0px"
	 viewBox="0 0 512 512" style="enable-background:new 0 0 512 512;" xml:space="preserve">

	
	


<path d="M401.9,308.2l-12.7-25.4c2.7-5.5,5-11,6.9-16.5l26.8-8.9V184l-26.8-8.9c-1.9-5.5-4.2-11-6.9-16.5l12.7-25.4
	l-51.9-51.9l-25.4,12.7c-5.5-2.7-11-5-16.5-6.9l-8.9-26.8h-73.5l-8.9,26.8c-5.5,1.9-11,4.2-16.5,6.9l-25.4-12.7L123,133.2l12.7,25.4
	c-2.7,5.5-5,11-6.9,16.5l-26.8,8.9v73.4l26.8,8.9c1.9,5.5,4.2,10.9,6.8,16.3l-8.3,15H89.1v128.4H134v-19.3h48.7l19.3,19.3h34.8v6.4
	c0,14.2,11.5,25.7,25.7,25.7c14.2,0,25.7-11.5,25.7-25.7v-6.4H333c10.6,0,19.3-8.6,19.3-19.3c0-4.9-1.9-9.4-5-12.8
	c3.1-3.4,5-7.9,5-12.8c0-4.9-1.9-9.4-5-12.8c2.5-2.7,4.1-6.1,4.7-9.9L401.9,308.2z M148.5,279.8c-3.5-6.8-6.4-13.7-8.6-20.5l-1-3.1
	l-24.2-8.1v-54.9l24.2-8.1l1-3.1c2.1-6.8,5-13.7,8.6-20.5l1.5-2.9l-11.5-22.9l38.8-38.8l22.9,11.5l2.9-1.5
	c6.8-3.5,13.7-6.4,20.5-8.6l3.1-1L235,73h54.9l8.1,24.2l3.1,1c6.8,2.1,13.7,5,20.5,8.6l2.9,1.5l22.9-11.5l38.8,38.8l-11.5,22.9
	l1.5,2.9c3.5,6.8,6.4,13.7,8.6,20.5l1,3.1l24.2,8.1v54.9l-24.2,8.1l-1,3.1c-2.2,6.8-5,13.7-8.6,20.5l-1.5,2.9l11.5,22.9l-37.9,38.2
	c-0.3-0.4-0.7-0.9-1-1.3c3.1-3.4,5-7.9,5-12.8c0-10-7.7-18.2-17.5-19.1c27.2-21.8,43.2-54.6,43.2-90c0-63.7-51.8-115.5-115.5-115.5
	S146.9,157,146.9,220.7c0,35,15.9,68,43,89.9h-54.9l15.2-27.7L148.5,279.8z M339.5,381.2c0,3.5-2.9,6.4-6.4,6.4h-51.4
	c-3.5,0-6.4-2.9-6.4-6.4s2.9-6.4,6.4-6.4H333C336.6,374.8,339.5,377.6,339.5,381.2z M246.9,220.7h31l10.2-10.2v-28.3
	c7.1,0,12.8,5.8,12.8,12.8v29.4L279,246.4h-33.2l-21.9-21.9V195c0-7.1,5.8-12.8,12.8-12.8v28.3L246.9,220.7z M249.6,259.2h25.7v25.7
	h-25.7V259.2z M288.1,255.4l25.7-25.7V195c0-14.2-11.5-25.7-25.7-25.7h-12.8v35.9l-2.7,2.7h-20.4l-2.7-2.7v-35.9h-12.8
	c-14.2,0-25.7,11.5-25.7,25.7v34.8l25.7,25.7v29.4h-15.5l-0.4,0.4c-21.9-14.1-35.5-38.4-35.5-64.6c0-42.5,34.6-77,77-77
	s77,34.6,77,77c0,26-13,49.8-34.8,64.2h-16.6V255.4z M352.3,220.7c0-49.6-40.3-89.9-89.9-89.9s-89.9,40.3-89.9,89.9
	c0,29.7,14.8,57.3,38.9,73.9l-9.2,9.2c-26.7-19.3-42.5-50.2-42.5-83.2c0-56.6,46.1-102.7,102.7-102.7s102.7,46.1,102.7,102.7
	c0,31.7-14.3,61-38.8,80.4c-0.7-4.6-3.1-8.5-6.4-11.4C340.4,272.7,352.3,247.7,352.3,220.7z M333,323.4c3.5,0,6.4,2.9,6.4,6.4
	s-2.9,6.4-6.4,6.4h-51.4c-3.5,0-6.4-2.9-6.4-6.4s2.9-6.4,6.4-6.4H333z M281.7,361.9c-3.5,0-6.4-2.9-6.4-6.4s2.9-6.4,6.4-6.4H333
	c3.5,0,6.4,2.9,6.4,6.4s-2.9,6.4-6.4,6.4H281.7z M121.2,413.3h-19.3V310.6h19.3V413.3z M207.3,413.3L188,394h-54v-70.6h66.9
	l25.7-25.7h80.8c3.5,0,6.4,2.9,6.4,6.4s-2.9,6.4-6.4,6.4h-66.9l-27.6,27.6l9.1,9.1l14.7-14.7v80.8H207.3z M262.4,445.4
	c-7.1,0-12.8-5.8-12.8-12.8V323.4h14c-0.7,2-1.2,4.2-1.2,6.4c0,4.9,1.9,9.4,5,12.8c-3.1,3.4-5,7.9-5,12.8c0,4.9,1.9,9.4,5,12.8
	c-3.1,3.4-5,7.9-5,12.8c0,4.9,1.9,9.4,5,12.8c-3.1,3.4-5,7.9-5,12.8c0,8.4,5.4,15.4,12.8,18.1v7.6
	C275.3,439.6,269.5,445.4,262.4,445.4z M333,413.3h-51.4c-3.5,0-6.4-2.9-6.4-6.4c0-3.5,2.9-6.4,6.4-6.4H333c3.5,0,6.4,2.9,6.4,6.4
	C339.5,410.4,336.6,413.3,333,413.3z"/>
<path d="M69.8,143.7h12.8v12.8H69.8V143.7z"/>
<path d="M69.8,175.8h12.8v12.8H69.8V175.8z"/>
<path d="M429.3,323.4h12.8v12.8h-12.8V323.4z"/>
<path d="M429.3,355.5h12.8v12.8h-12.8V355.5z"/>
</svg>
