<?xml version="1.0" encoding="utf-8"?>
<!-- Generator: Adobe Illustrator 25.0.1, SVG Export Plug-In . SVG Version: 6.00 Build 0)  -->
<svg version="1.1" fill="#8052FD" id="Layer_1" xmlns="http://www.w3.org/2000/svg" xmlns:xlink="http://www.w3.org/1999/xlink" x="0px" y="0px"
	 viewBox="0 0 500 500" style="enable-background:new 0 0 500 500;" xml:space="preserve">

	
	


<g id="Layer_2_1_">
	<g id="Calque_1">
		<polygon points="286.7,228.9 317.8,200.6 286.7,172.2 280.4,178.9 299.4,196 182.3,196 182.3,113.9 299.3,113.9 
			280.4,130.9 286.7,137.6 317.8,109.3 286.7,81 280.4,87.7 299.4,104.7 173.2,104.7 173.2,397.5 299.4,397.5 280.4,414.6 
			286.7,421.2 317.8,392.9 286.7,364.6 280.4,371.3 299.3,388.4 182.3,388.4 182.3,302.6 299.3,302.6 280.4,319.7 286.7,326.4 
			317.8,298.1 286.7,269.8 280.4,276.4 299.4,293.5 182.3,293.5 182.3,205.1 299.3,205.1 280.4,222.2 		"/>
		<path d="M139.5,223.7l-6.2,6.7l18.9,17.1h-39.8c-2.5-18.2-19.3-30.8-37.4-28.3c-18.2,2.5-30.8,19.3-28.3,37.4
			s19.3,30.8,37.4,28.3c14.7-2,26.3-13.6,28.3-28.3h39.7l-18.9,17.1l6.2,6.7l31.1-28.3L139.5,223.7z M79.6,276.1
			c-13.3,0-24.1-10.8-24.1-24.1c0-13.3,10.8-24.1,24.1-24.1s24.1,10.8,24.1,24.1C103.6,265.3,92.9,276.1,79.6,276.1z"/>
		<circle cx="79.6" cy="252" r="8.7"/>
		<path d="M353.6,141.2c-18.3,0-33.2-14.9-33.2-33.2c0-18.3,14.9-33.2,33.2-33.2s33.2,14.9,33.2,33.2
			C386.7,126.3,371.9,141.1,353.6,141.2z M353.6,83.9c-13.3,0-24.1,10.8-24.1,24.1s10.8,24.1,24.1,24.1c13.3,0,24.1-10.8,24.1-24.1
			C377.6,94.7,366.9,83.9,353.6,83.9z"/>
		<circle cx="353.6" cy="108" r="8.7"/>
		<path d="M353.6,235.8c-18.3,0-33.2-14.9-33.2-33.2c0-18.3,14.9-33.2,33.2-33.2s33.2,14.9,33.2,33.2l0,0
			C386.7,221,371.9,235.8,353.6,235.8z M353.6,178.6c-13.3,0-24.1,10.8-24.1,24.1s10.8,24.1,24.1,24.1c13.3,0,24.1-10.8,24.1-24.1
			C377.6,189.4,366.9,178.6,353.6,178.6z"/>
		<circle cx="353.6" cy="202.8" r="8.7"/>
		<path d="M353.6,330.5c-18.3,0-33.2-14.9-33.2-33.2c0-18.3,14.9-33.2,33.2-33.2c18.3,0,33.2,14.9,33.2,33.2
			C386.7,315.7,371.9,330.5,353.6,330.5z M353.6,273.3c-13.3,0-24.1,10.8-24.1,24.1c0,13.3,10.8,24.1,24.1,24.1
			c13.3,0,24.1-10.8,24.1-24.1C377.6,284.1,366.9,273.3,353.6,273.3z"/>
		<circle cx="353.6" cy="297.3" r="8.7"/>
		<path d="M353.6,425.2c-18.3,0-33.2-14.9-33.2-33.2c0-18.3,14.9-33.2,33.2-33.2c18.3,0,33.2,14.9,33.2,33.2
			C386.7,410.4,371.9,425.2,353.6,425.2z M353.6,368c-13.3,0-24.1,10.8-24.1,24.1c0,13.3,10.8,24.1,24.1,24.1
			c13.3,0,24.1-10.8,24.1-24.1C377.6,378.7,366.9,368,353.6,368z"/>
		<circle cx="353.3" cy="391.9" r="8.7"/>
	</g>
</g>
</svg>
