<?xml version="1.0" encoding="utf-8"?>
<!-- Generator: Adobe Illustrator 25.0.1, SVG Export Plug-In . SVG Version: 6.00 Build 0)  -->
<svg version="1.1" fill="#8052FD" id="Layer_1" xmlns="http://www.w3.org/2000/svg" xmlns:xlink="http://www.w3.org/1999/xlink" x="0px" y="0px"
	 viewBox="0 0 512 512" style="enable-background:new 0 0 512 512;" xml:space="preserve">

	
	


<path d="M256,160c-3,0-5.4,2.5-5.4,5.4s2.5,5.4,5.4,5.4c3,0,5.4-2.5,5.4-5.4S259,160,256,160z M165.5,160
	c-3,0-5.4,2.5-5.4,5.4v181c0,3,2.5,5.4,5.4,5.4h181c3,0,5.4-2.5,5.4-5.4v-181c0-3-2.5-5.4-5.4-5.4h-60.3c-3,0-5.4,2.5-5.4,5.4
	s2.5,5.4,5.4,5.4h54.9V341H170.9V170.9h54.9c3,0,5.4-2.5,5.4-5.4s-2.5-5.4-5.4-5.4H165.5z M256,235.5c-11.3,0-20.5,9.2-20.5,20.5
	c0,11.3,9.2,20.5,20.5,20.5c11.3,0,20.5-9.2,20.5-20.5C276.5,244.7,267.3,235.5,256,235.5z M256,265.7c-5.3,0-9.7-4.3-9.7-9.7
	c0-5.4,4.3-9.7,9.7-9.7c5.4,0,9.7,4.3,9.7,9.7S261.3,265.7,256,265.7z M226.3,296.9l1.1,0.8c2.2,1.5,4.5,2.9,6.9,4l1.2,0.5v14.2
	c0,3,2.5,5.4,5.4,5.4H271c3,0,5.4-2.5,5.4-5.4v-14.2l1.2-0.5c2.4-1.1,4.7-2.5,6.9-4l1.1-0.8l12.3,7.1c1.3,0.8,2.7,0.9,4.1,0.5
	c1.4-0.4,2.6-1.3,3.3-2.6l15.1-26.1c1.5-2.6,0.6-6-2-7.5l-12.1-7l0.2-1.4c0.2-1.4,0.2-2.7,0.2-4.1c0-1.4-0.1-2.6-0.2-4.1l-0.2-1.4
	l12.1-7c2.6-1.5,3.5-4.8,2-7.5l-15.1-26.1c-1.5-2.6-4.8-3.5-7.5-2l-12.3,7.1l-1.1-0.8c-2.2-1.5-4.5-2.9-6.9-4l-1.2-0.5v-14
	c0-3-2.5-5.4-5.4-5.4h-30.2c-3,0-5.4,2.5-5.4,5.4v14.2l-1.2,0.5c-2.4,1.1-4.7,2.5-6.9,4l-1.1,0.8L214,208c-2.6-1.5-6-0.6-7.5,2
	l-15.1,26.1c-1.5,2.6-0.6,6,2,7.5l12.1,7l-0.2,1.4c-0.2,1.4-0.2,2.7-0.2,4.1c0,1.4,0.1,2.6,0.2,4.1l0.2,1.4l-12.1,7
	c-2.6,1.5-3.5,4.8-2,7.5l15.1,26.1c1.5,2.6,4.8,3.5,7.5,2L226.3,296.9z M265.7,310.9h-19.2v-12.4c0-2.3-1.4-4.4-3.6-5.1
	c-4.5-1.6-8.7-4-12.4-7.2c-1.7-1.5-4.3-1.7-6.3-0.6l-10.8,6.2l-9.7-16.7l10.6-6.1c2-1.1,3.1-3.5,2.6-5.7c-0.5-2.8-0.8-5.1-0.8-7.2
	s0.2-4.5,0.8-7.2c0.5-2.3-0.7-4.6-2.6-5.7l-10.6-6.1l9.7-16.7l10.8,6.2c2,1.1,4.5,0.9,6.3-0.6c3.7-3.2,7.9-5.6,12.4-7.2l0,0
	c2.2-0.8,3.6-2.9,3.6-5.1v-12.4h19.2v12.4c0,2.3,1.4,4.4,3.6,5.1c4.5,1.6,8.7,4,12.4,7.2c1.7,1.5,4.3,1.7,6.3,0.6l10.8-6.2l9.6,16.7
	l-10.6,6.1c-2,1.1-3.1,3.5-2.6,5.7c0.5,2.8,0.8,5.1,0.8,7.2c0,2.2-0.2,4.5-0.8,7.2c-0.5,2.3,0.7,4.6,2.6,5.7l10.6,6.1l-9.6,16.7
	l-10.8-6.2c-2-1.1-4.5-0.9-6.3,0.6c-3.7,3.2-7.9,5.6-12.4,7.2c-2.2,0.8-3.6,2.9-3.6,5.1V310.9z M276.5,382.1h34.3v27
	c0,3,2.5,5.4,5.4,5.4h9.7v27c0,3,2.5,5.4,5.4,5.4c2.9,0,5.4-2.5,5.4-5.4v-27h9.7c3,0,5.4-2.5,5.4-5.4v-27h24.7c3,0,5.4-2.5,5.4-5.4
	V352h27c3,0,5.4-2.5,5.4-5.4v-9.7h27c3,0,5.4-2.5,5.4-5.4c0-2.9-2.5-5.4-5.4-5.4h-27v-9.7c0-3-2.5-5.4-5.4-5.4h-27v-34.3h27
	c3,0,5.4-2.5,5.4-5.4v-9.7h27c3,0,5.4-2.5,5.4-5.4v-75.5c0-3-2.5-5.4-5.4-5.4c-2.9,0-5.4,2.5-5.4,5.4v70h-21.5v-9.7
	c0-3-2.5-5.4-5.4-5.4h-27v-34.3h26.9c3,0,5.4-2.5,5.4-5.4v-30.2c0-3-2.5-5.4-5.4-5.4h-27v-24.8c0-3-2.5-5.4-5.4-5.4H352v-27
	c0-3-2.5-5.4-5.4-5.4h-9.7v-27c0-3-2.5-5.4-5.4-5.4c-2.9,0-5.4,2.5-5.4,5.4v27h-9.7c-3,0-5.4,2.5-5.4,5.4v27h-34.3v-27
	c0-3-2.5-5.4-5.4-5.4h-9.7v-27c0-3-2.5-5.4-5.4-5.4c-3,0-5.4,2.5-5.4,5.4v27h-9.7c-3,0-5.4,2.5-5.4,5.4v27h-34.3v-27
	c0-3-2.5-5.4-5.4-5.4h-9.7v-27c0-3-2.5-5.4-5.4-5.4s-5.4,2.5-5.4,5.4v27h-9.7c-3,0-5.4,2.5-5.4,5.4v27h-24.7c-3,0-5.4,2.5-5.4,5.4
	V160h-27c-3,0-5.4,2.5-5.4,5.4v9.7h-27c-3,0-5.4,2.5-5.4,5.4s2.5,5.4,5.4,5.4h27v9.7c0,3,2.5,5.4,5.4,5.4h27v34.3h-27
	c-3,0-5.4,2.5-5.4,5.4v9.7h-27c-3,0-5.4,2.5-5.4,5.4c0,3,2.5,5.4,5.4,5.4h27v9.7c0,3,2.5,5.4,5.4,5.4h27v34.3h-27
	c-3,0-5.4,2.5-5.4,5.4v9.7h-27c-3,0-5.4,2.5-5.4,5.4c0,2.9,2.5,5.4,5.4,5.4h27v9.7c0,3,2.5,5.4,5.4,5.4h27v24.7c0,3,2.5,5.4,5.4,5.4
	H160v27c0,3,2.5,5.4,5.4,5.4h9.7v27c0,3,2.5,5.4,5.4,5.4s5.4-2.5,5.4-5.4v-27h9.7c3,0,5.4-2.5,5.4-5.4v-27h34.3v27
	c0,3,2.5,5.4,5.4,5.4h9.7v27c0,3,2.5,5.4,5.4,5.4c3,0,5.4-2.5,5.4-5.4v-27h9.7c3,0,5.4-2.5,5.4-5.4V382.1z M341.1,403.7h-19.2v-27
	c0-3-2.5-5.4-5.4-5.4h-45.3c-3,0-5.4,2.5-5.4,5.4v27h-19.2v-27c0-3-2.5-5.4-5.4-5.4h-45.3c-3,0-5.4,2.5-5.4,5.4v27h-19.2v-27
	c0-3-2.5-5.4-5.4-5.4H141v-24.7c0-3-2.5-5.4-5.4-5.4h-27.2v-19.2h27c3,0,5.4-2.5,5.4-5.4v-45.3c0-3-2.5-5.4-5.4-5.4h-27v-19.2h27
	c3,0,5.4-2.5,5.4-5.4v-45.3c0-3-2.5-5.4-5.4-5.4h-27v-19.2h27c3,0,5.4-2.5,5.4-5.4V141h24.7c3,0,5.4-2.5,5.4-5.4v-27.2h19.2v27
	c0,3,2.5,5.4,5.4,5.4h45.3c3,0,5.4-2.5,5.4-5.4v-27h19.2v27c0,3,2.5,5.4,5.4,5.4h45.3c3,0,5.4-2.5,5.4-5.4v-27h19.2v27
	c0,3,2.5,5.4,5.4,5.4H371v24.7c0,3,2.5,5.4,5.4,5.4h27v19.2h-26.8c-3,0-5.4,2.5-5.4,5.4v45.3c0,3,2.5,5.4,5.4,5.4h27v19.2h-27
	c-3,0-5.4,2.5-5.4,5.4v45.3c0,3,2.5,5.4,5.4,5.4h27v19.2h-27c-3,0-5.4,2.5-5.4,5.4V371h-24.7c-3,0-5.4,2.5-5.4,5.4V403.7z"/>
</svg>
