<?xml version="1.0" encoding="utf-8"?>
<!-- Generator: Adobe Illustrator 25.0.1, SVG Export Plug-In . SVG Version: 6.00 Build 0)  -->
<svg version="1.1" fill="#8052FD" id="Layer_1" xmlns="http://www.w3.org/2000/svg" xmlns:xlink="http://www.w3.org/1999/xlink" x="0px" y="0px"
	 viewBox="0 0 511 511" style="enable-background:new 0 0 511 511;" xml:space="preserve">
<g>
	<g class="st2">
		<path d="M255.4,439c-1.7,7.2-3.4,14.7-6.6,21l0,0.1c-0.2,0.4-0.1,0.9,0,1.3c0.2,0.4,0.5,0.7,0.9,0.9
			c0.2,0.1,0.4,0.1,0.6,0.1c0.5,0,1-0.2,1.3-0.7c2-2.8,3.5-6.2,5-9.4c0.9-2,1.9-4,2.9-5.8c2.8-5,5.3-10.1,7.5-15.4
			c5-12.5,8.8-25.5,11.6-38.6c1.7-8.1,2.5-16.5,3.2-24.6c0.4-4.7,0.8-9.6,1.4-14.3c0.3-2.4,0.8-4.8,1.3-7.3
			c1.4-6.8,2.8-13.9,1.3-20.6l0-0.1c-0.1-0.4-0.4-0.7-0.8-0.9c-0.4-0.2-0.8-0.2-1.2-0.1c-0.4,0.1-0.7,0.3-0.9,0.7
			c-7.1,12.2-8.6,26.9-10.1,41.1c-0.8,7.4-1.6,15.1-3.2,22.1c-3,13.1-7.2,26.1-10.9,37.6C257.4,430.2,256.4,434.6,255.4,439z"/>
		<polygon points="246.6,469.5 245.8,469.9 245.5,470.7 245.9,471.5 246.6,471.8 247.5,471.4 247.8,470.6 247.4,469.8 
					"/>
		<path d="M254.5,364.5L254.5,364.5c-2.9,5.2-5.9,10.4-8.9,15.4c-6.3,10.8-12.9,22-18.1,33.4
			c-3.8,8.6-6.9,17.6-9.2,26.7c-1.9,7-2.6,14.1-3.2,20.9c-0.3,3.5-0.7,7-1.2,10.6c-0.1,1,0.7,1.9,1.7,2c0,0,0.1,0,0.1,0
			c0.7,0,1.3-0.4,1.7-1l0-0.1c2.2-5.7,3.4-11.8,4.5-17.7c0.7-3.8,1.5-7.8,2.5-11.6c2.8-9.6,6.5-18.9,11-27.8
			c2.7-5.5,5.7-10.9,8.5-16.2c1.3-2.4,2.6-4.7,3.8-7.1c3.3-6.2,5.6-12.2,8-18.6c0.9-2.3,1.8-4.8,2.8-7.2c0.4-1.1,0-2.2-1.1-2.7
			C256.4,363.1,255.1,363.5,254.5,364.5z"/>
		<path d="M312.7,561.2c-1.2,0-2.1,0.9-2.1,2c-0.6,7.4-1.7,14.9-2.7,22.1c-1.1,7.3-2.1,14.9-2.8,22.4
			c-0.2,2.4-0.4,4.8-0.7,7.3c-1.2,11.8-2.6,25.2,1.2,36.1c0.4,1.2,1.5,2,2.8,2c0.3,0,0.6,0,0.9-0.1c0.9-0.3,1.6-1,1.9-1.8
			c1.8-4.8,1.4-10,1-15c-0.2-2.2-0.3-4.5-0.3-6.6c0-2.6,0-5.4,0-8c0-4.5-0.1-9.2,0.1-13.7c0.1-2.7,0.2-5.4,0.3-8
			c0.1-4.1,0.2-8.3,0.5-12.4c0.2-2.7,0.6-5.4,1-8c0.8-5.2,1.6-10.6,1-16.2C314.8,562.2,313.8,561.2,312.7,561.2z"/>
		<path d="M297.9,591.5c-1.1-0.4-2.2,0.1-2.6,1.1l0,0c-2.8,6.5-3,14.3-3.1,21.2c0,1,0,2-0.1,2.9c0,1.2-0.1,2.5-0.1,3.7
			c-0.2,8.7-0.5,16.8,1.3,25.6c0.1,1.4,1.2,2.5,2.6,2.5c1.4,0,2.6-1.1,2.6-2.6c0.7-4.9,0.4-9.9,0.2-14.7c-0.2-3.4-0.3-7-0.2-10.4
			c0.1-3-0.1-6.2-0.2-9.3c-0.3-6-0.7-12.2,1-17.5C299.7,593,299.1,591.9,297.9,591.5z M296.2,593L296.2,593L296.2,593L296.2,593z"/>
		<path d="M252.6,246.3c0.7,0.2,1.4,0.3,2.2,0.3c2.6,0,5.4-1.1,6.1-3.2c0.4-1.3-0.4-2.6-1.6-3c-0.4-0.1-0.9-0.1-1.4,0
			l-0.1,0c-1.1,0.5-2.2,0.8-3.3,0.9c-0.4,0-0.9,0-1.3-0.1c-0.4-0.3-0.9-0.5-1.4-0.7c-1-0.3-2.1,0.4-2.4,1.4l0,0.1
			C249,244.1,250.2,245.7,252.6,246.3z"/>
		<path d="M266.6,254.4c-1.4-0.1-2.9-0.2-4.3-0.2c-0.1,0-3.6,0-4.6,1.6c-0.2,0.3-0.5,1,0,1.9c0.8,1.4,2.3,1.7,3.8,1.7
			c0.7,0,1.5-0.1,2.1-0.1c0.3,0,0.6-0.1,0.8-0.1c0.3,0,0.7,0,1.1,0c1.7,0,3.7,0,5-1.7l0.1-0.1c0.5-0.8,0.2-1.9-0.6-2.4l-0.1,0
			C268.9,254.4,267.7,254.2,266.6,254.4z"/>
		<path d="M259.4,249.3c-0.3,0.2-0.6,0.6-0.7,0.9c0,0.2,0,0.4,0,0.6c0.5,2.9,3.8,3,5.2,3c0.2,0,0.3,0,0.5,0
			c1.6,0,3-0.9,3.7-2.4l0.1-0.2c0.2-0.7-0.3-1.5-1-1.7l-0.2,0l-0.1,0c-0.1,0-0.3,0-0.4-0.1l-0.1-0.1l-0.2,0
			c-0.7-0.2-1.5-0.3-2.1-0.2c-0.4,0-0.8,0-1.2-0.1c-0.3,0-0.6,0-0.9-0.1l-0.1,0l-0.1,0c-0.5,0-1,0-1.4,0
			C260.1,249,259.8,249.1,259.4,249.3z"/>
		<path d="M385.8,347.4c-3.3-2.7-7.1-4.9-11.1-6.4c-1.5-0.7-2.9-1.3-4.2-2c-4.3-2.4-9-3.9-13.8-4.4
			c-10.3-0.6-14.7,6.6-18.9,13.5l-1.3,2.2c-1.3-0.9-2.3-2-3-3.4c-0.6-1.4-1-2.8-1.3-4.3c-0.3-2-0.9-3.9-1.8-5.6
			c-1.4-2.4-3.3-4.5-5.6-6.2l-1.5-1.3c-0.3-0.3-0.6-0.6-0.9-1c-0.6-0.8-1.4-1.5-2.3-2.1c-0.4-0.2-0.8-0.4-1.3-0.5
			c-0.8-6.5-2-12.9-4.8-18.4c-2.7-5.4-7.3-8.3-11.7-11.2c-2-1.2-4-2.6-5.9-4.1c-0.2-0.6-0.5-1.1-0.9-1.6c1.9-5.8,1.9-12.1,0-17.9
			c-0.9-2.5-1.3-5.1-1-7.8c0.2-0.9,0.4-1.9,0.7-2.8c0.4-1.3,0.7-2.6,0.9-3.9c0.6-4.8-0.1-9.7-1.8-14.2c-0.6-1.7-0.7-3.6-0.1-5.3
			c0.4-1.6,1-3.1,1.6-4.6c3.3-1,6.8-1.4,10.3-1c4.7,0.1,9.6,0.2,13.8-2.5c0.3-0.2,0.5-0.4,0.6-0.6c0.7-1,0.4-2.4-0.6-3.1
			c-3.5-2.3-7.2-2.3-10.8-2.3h-4c-1.9,0.1-3.8,0-5.6-0.3c-0.4-0.1-0.9-0.2-1.3-0.3c-0.1-1.3-0.4-2.6-0.8-3.8l1.1-0.5
			c1.2-0.6,2.1-1,3.5-1.6c1.4-0.6,2.8-1.3,4.2-1.9c1.3-0.7,2.6-1.3,4-1.8c3.2-0.9,6.2-2.6,8.7-4.9c0.7-0.7,0.9-1.8,0.5-2.7
			c-0.4-0.9-1.3-1.5-2.3-1.4c-1.3,0.1-2.5,0.4-3.7,0.8c-0.5,0.2-0.9,0.3-1.6,0.5s-1.6,0.3-2.4,0.4c-1.6,0.2-3.2,0.6-4.7,1.1
			c-2.2,0.7-4.4,1.2-6.6,1.6c-2,0.4-4.1,0.9-6.1,1.5l-0.6-0.7c-1.3-1.4-2.7-2.6-4.2-3.8c3.1-3.3,5.5-6,7.6-8.6l0.6-0.7
			c1.8-2.2,4.2-5.2,4.2-8.3c0-0.9-0.5-1.7-1.3-2c-0.8-0.3-1.7-0.2-2.4,0.4c-1.5,1.2-3.1,2.3-4.8,3.2c-1.3,0.7-2.6,1.5-3.9,2.4
			c-3.5,2.6-6.8,5.5-9.9,8.7c-3.2-1.1-6.6-1.8-10-2.1c-0.1-0.2-0.2-0.4-0.4-0.6c-0.9-1.2-0.7-3.5-0.7-5.6c0.1-1,0.1-2,0-3
			c-0.1-0.5-0.1-1.1-0.1-1.6c-0.3-4.3-0.7-9.6-3.4-12.9c-0.4-0.5-1-0.8-1.6-0.8c-0.6,0-1.2,0.3-1.6,0.8c-3,3.7-2.8,8.3-2.5,12.3
			c0.1,1.4,0.1,2.8,0.1,4c0,1-0.2,2-0.3,3c-0.3,1.6-0.4,3.2-0.3,4.7c-2.8,0.4-5.5,1-8.2,1.8c-1-1.2-2.2-2.2-3.5-3l-0.4-0.2
			c-0.8-0.6-1.5-1.2-2.3-1.9c-0.8-0.8-1.6-1.5-2.5-2.1c-0.9-0.6-1.9-1.3-2.8-1.9c-1.3-0.9-2.7-1.8-4-2.7c-0.6-0.4-1.1-0.8-1.6-1.3
			c-1.8-1.7-3.9-2.9-6.3-3.7c-0.7-0.2-1.5,0-2.1,0.4c-0.6,0.5-0.9,1.2-0.9,1.9c0.2,4.6,4.2,8.4,7.4,11.5c0.8,0.8,1.5,1.6,2.1,2.2
			c0.6,0.6,1.1,1.2,1.6,1.8c0.8,1,1.7,2,2.6,2.9c0.7,0.6,1.4,1.2,2.1,1.8c-1.6,1.3-3,2.7-4.3,4.3c-0.6,0.8-1.2,1.5-1.6,2.2
			c-1.3-0.2-2.7-0.2-4.1,0h-0.4c-0.7,0-1.3,0-2,0h-1.5c-1.8,0.1-3.6,0-5.4-0.4c-1-0.2-2,0.1-2.7,0.8c-1,1.1-1,2.9,0.1,3.9
			c1.5,1.2,3.2,2.1,5.1,2.5c1,0.3,2,0.6,2.9,1.1l1.3,0.6c0.6,0.5,1.3,0.9,2,1.2c-0.5,2-0.5,4-0.2,6c0,0.1,1.3,6,3.8,8
			c-0.8,1.7-1.2,3.5-1.3,5.3c-0.1,1.1-0.1,2.2,0,3.3c-1.1-1.5-1.1-2.4-1-4.6c0-0.4,0-0.9,0-1.4c0.2-6.3-2-12-5.5-14.4
			c-2-1.3-4.4-1.7-6.7-1c-0.3-1-0.7-2-1.2-3c-0.7-1.5-1.3-3-1.9-4.6c2.2-8.3,0.8-14.5-0.8-21.6c-0.7-3-1.4-5.8-1.9-9.6
			c-0.5-3.8-1.3-7.7-2-11.5c-1.8-9.6-3.7-19.4-2.8-28.4l0.2-2.4c1-9.2,2.1-19.5-2.9-28.1c-0.8-1.4-1.9-2.6-3.2-3.5
			c0.6-2.6,0.8-5.3,0.7-8v-1.3h0.5c3.1-0.2,7-0.4,9-4.1c2-3.8,1.1-10.3,0.5-14.7l-0.2-1.3c-1-7.7-8.7-9.2-13.9-9.5
			c7.3-11.9,4-26.7-4.3-33.9c-1.3-1.2-3.4-1.1-4.6,0.1c-0.9,1.1-1.6,2.4-2,3.8c-0.5-0.7-1-1.4-1.5-2.1c-0.8-1.4-2.4-2.1-3.9-1.6
			c-1.5,0.4-2.6,1.7-2.6,3.3c0.1,5.4-1.6,9.2-4.2,14.3c-0.3,0.6-0.7,1.2-1,1.9c-1.5,2.3-2.4,4.8-2.8,7.5c-0.1,2.6,0.7,5.2,2.1,7.3
			c-2.8,0.3-5.6,1.1-8.2,2.2c-4.6,2.2-4.8,4.9-5,8.8l-0.1,1.9c-0.3,4.5-0.7,10.1,3.1,13.6c2,1.8,4.6,2.7,7.3,2.6
			c0.5,2.3,1.5,4.4,2.8,6.3c-0.7,0.4-1.3,0.9-1.7,1.5c-1.1,1.6-1.5,3.6-1.1,5.5c0.3,1.1,0.6,2.2,1.1,3.3c0.2,0.6,0.5,1.2,0.7,1.9
			c0.4,1.3,0.5,2.7,0.5,4c0,1.3,0.2,2.7,0.4,4c0.5,2.5,1.9,4.8,3.9,6.4c-0.5,2.3-0.4,4.6,0.1,6.9c0.4,2.1,0.7,4.2,0.8,6.3
			c0.1,1.7,0.3,3.5,0.6,5.2c0.3,2.5,0.8,4.9,1.7,7.3c-0.6,5.1-0.6,10.2,0,15.3c0.2,2.2,0.4,4.7,0.4,6.7c0,2,0,4,0,6
			c-0.1,5.2,0.2,10.5,0.8,15.7c0.4,2.6,1.1,5.2,2.1,7.6l0.3,1c1.8,5.5,2.6,11.2,2.4,17c0,2.3,0.1,4.4,0.2,6.4
			c-4.2,3-6.8,9.2-8.7,13.9l-1.1,2.7c-1.7,3.4-2.8,7-3.2,10.8c-0.1,2.8,0.6,5.5,2,7.9c0.6,1.1,1.1,2.2,1.5,3.3
			c0.5,2.3,0.4,4.7-0.2,7c-0.6,3.5-1.3,7.5,1.1,10.8c1.3,1.9,3.3,3,5.6,3.2l1.1,0.2c1,0.3,2,0.2,3-0.1l0.5,0.6
			c-1.2,3.9-1.8,8-1.8,12.1c0.1,2.8,1.1,5.5,2.8,7.8c1.5,1.9,2.3,4.2,2.3,6.6c-0.2,2.1-0.7,4.2-1.4,6.2c-1.1,3-1.6,6.3-1.5,9.5
			c0.4,3.3,2.5,5,4.5,6.6l0.8,0.6c4.7,3.8,7.1,7.4,7.3,10.7c0,0.2,0,0.5,0,0.9c0.1,3.3,0.6,6.5,1.6,9.6c-0.5,1.6-0.8,3.2-1,4.8
			c-0.2,1.5-0.5,2.9-0.9,4.3c-1.2,3.4-2.7,6.7-4.5,9.8c-0.7,1.3-1.4,2.5-2.2,3.8c-1.5,2.5-3,5.1-4.2,7.8c-2.4,5.1-3.4,10.7-2.9,16.3
			c0.2,3.4,1.5,6.6,3.6,9.3c1.9,4.6,4.6,8.9,8,12.6c-0.3,3.1-1.1,6.2-2.3,9.1c-4.6,10.3-4.8,18.6-0.6,28c0.5,1,1,2,1.5,3
			c1.4,2.4,2.4,5,2.7,7.8c0,2.4-0.3,4.7-0.9,7c-0.2,1-0.4,2.1-0.6,3.1c-1.2,6.1-1.3,12.3-0.3,18.5c1.5,8.2,0.7,13.4-0.7,21l-0.2,1.1
			c-0.8,3.9-1.7,8.8,0.5,12.9c0.5,0.9,1,1.8,1.6,2.5l-0.6,1.2c-1,2-1.9,4.1-2.5,6.2c-1.2,4.7-1.9,9.4-2.1,14.3
			c-0.1,6.5,0.3,12.9,1.1,19.3c0.5,4.8,1.2,9.9,1.2,14.8v1.9c0.1,5.2,0.3,8.6-2.7,13.3s-4,8.9-3.4,13.4c0.2,1,0.4,1.9,0.7,2.8
			c0.3,0.9,0.5,1.8,0.6,2.7c0.2,2.8-0.7,4.5-2.1,7.2l-0.5,0.9c-0.6,1.2-1.3,2.3-1.9,3.5c-0.5,0.8-1,1.6-1.4,2.5
			c-1.5,2.8-3.3,6-1.6,10l0.1,0.3l-1,0.2c-2,0.3-4,0.8-5.9,1.3c-2.5,1.1-7.1,3.6-9,7.4c-2,4.6-2.4,9.7-1.1,14.5l-0.6,0.1
			c-3.2,0.6-7.2,1.9-9.1,6.7c-1.4,3.5-0.6,6.4,0.2,9.3c0.5,1.5,0.8,3.1,0.9,4.7c-0.1,2.4-0.7,4.7-1.8,6.8c-0.9,2-1.6,4.2-2,6.4
			c-0.1,1.9-0.1,3.8,0,5.7c0.1,1.5,0.1,3,0,4.6c-1.9,0.9-3.9,1.4-5.9,1.5c-2.2,0.2-4.3,0.7-6.3,1.5c-4.4,2.3-5.6,5.6-6.6,9.7
			c-2.6,10.3-2.7,21-0.4,31.4c0.7,2.8,1.6,5.5,4.8,7.3c0.8,0.4,1.6,0.6,2.4,0.7c0.3,0.1,0.8,0.2,1,0.2c1.3,1.2,2.5,4.7,2.9,7.3
			c0.2,1.8,0.2,3.7,0.1,5.6c0,0.6,0,1.3,0,1.9c-0.1,11.4-0.9,23-1.8,34.2v0.2c-0.2,3.3-0.2,6.6-0.2,9.9c0,2.1,0.1,4.1,0,6.5
			c-0.1,2.4-0.3,4.8-0.6,7.3c-0.5,3.8-0.7,7.6-0.6,11.4c0.1,0.9,0.2,1.7,0.4,2.5c-0.4,1.9,0.3,3.8,1.6,5.1c5,4.9,12.8,7.3,24,7.3
			l-0.3,0h0.8c4.4,0,8.8-0.2,13.2-0.4c5.7-0.2,11.4-0.5,17.2-0.4c13.3,0.2,27.3,0.3,41.1-0.5c10.7-0.6,21-0.5,31.9-0.5H283
			c15.3,0,31.2,0,46.7,0.5h2c9.8,0.3,26.1,1.1,31.6-7.9c2.5-4.1,1.7-8.8,1-13c-0.3-1.5-0.5-2.9-0.6-4.3c-0.4-7-0.3-14,0.3-21
			c0.2-2.7,0.5-5.4,0.8-8.2c1.3-10.4,1.8-20.9,1.6-31.4c-0.2-6.1,2.4-9.1,6.4-13.6l0.3-0.3c1.8-2,3.1-4.4,3.7-7.1
			c1.3-5.8,1.5-13.1,0.4-22.4c-0.1-0.8-0.2-1.6-0.2-2.4c-0.3-4.5-0.8-10.1-5.3-12.5c-2.1-1-4.3-1.4-6.6-1.2c-2.4,0-3.9,0-4.9-1.4
			c-0.7-1.2-1-2.5-1-3.9c0.2-3.2-1.4-6.2-4.1-8c-0.9-0.4-1.4-1.3-1.5-2.3c-0.1-2.4,0.1-4.8,0.7-7.1c0.2-1.3,0.5-2.5,0.6-3.6
			c0.8-7,0.6-14.3-6.1-19.7c-0.8-0.6-1.7-1.2-2.5-1.6c1.7-4.6,0.3-11.2-0.7-15.7c-0.1-0.5-0.2-1.1-0.3-1.5c-0.1-0.3-0.1-0.5-0.2-0.8
			c0.2-1.6-0.3-3.3-1.5-4.4c-4.9-4.9-6.5-8.2-7.2-15.2c-0.9-8.2-1.5-16.4-1.6-23.6c0-1.6,0-3.3,0-4.9c0-4.8-0.2-9.5-0.6-14.3
			c-0.1-0.8-0.2-1.6-0.2-2.3c2.2,0.5,4.5,0,6.3-1.5c5.5-4.7,5.9-18,5.5-30.3c0-1.1,0-1.9,0-2.5c0-18.1-0.3-34.6-4-51.9
			c0.5-1.6,0.7-3.3,0.8-4.9c0.1-4.1-0.2-8.3-0.9-12.3c-0.6-4.2-0.9-8.4-1.2-12.5c-0.3-7.2-1.4-14.3-3.1-21.2c-0.8-2.8-1.5-5.7-2-8.6
			c0.5,0.1,1.1,0.2,1.6,0.3c6.6,0.9,12.9-2.9,15.1-9.2c0.7-1.9,1.1-3.9,1.2-5.9c0.1-1.5,0.4-2.9,0.7-4.3c0.7-2,1.8-3.8,3.3-5.3
			c1.3-1.4,2.4-3.1,3.3-4.8c2.8-6.2,3.7-13.1,2.5-19.7c0.4-0.2,0.9-0.4,1.2-0.7c1.4-0.2,2.8-0.7,4-1.4l1.3-0.6c6-2.7,11-7.4,14-13.3
			c3.6-6.4,6.3-18.4,2.4-25.6C390.1,363.1,392.1,353.3,385.8,347.4z M272,858.2c-0.6-5.6-0.8-10.9-1-16.4v-1.4
			c-0.1-2.3-0.3-4.6-0.5-6.9c-0.4-3.8-0.6-7.7-0.4-11.5c0-1,0.2-1.7,0.2-2.6c0.2-2.3,0.3-4.7,0.3-7.1c0-1-0.1-2.3-0.3-3.8
			c-0.2-2.5-0.6-6.6,0-7.8c0.4-0.9,2.6-0.9,4.2-0.9h1.4c0.9,0,1.7,0,2.3-0.1s1.3-0.1,1.5-0.1l-0.1-0.1h0.1c0.3,0.6,0.5,1.2,0.6,1.8
			c0.9,5.1,1.2,10.3,0.8,15.4c0,2.4,0,4.8,0,7.2c0.2,8.3,0.2,17.2,0.2,27.2c0,1.5-0.1,3-0.1,4.7c-0.3,4.4-0.2,8.9,0.3,13.3h-9.3
			c0-1.5,0-3.1,0-4.7C272.2,862.3,272.2,860.3,272,858.2z M358.8,389.7c0.8,1.7,0.7,3.7-0.1,5.3c-0.4,0.7-0.8,1.3-1.2,1.9
			c-0.3,0.4-0.6,0.8-0.9,1.3c-1.1,1.4-2.1,3-3,4.6l-0.5,0.9c-0.8,1.4-1.8,2.7-2.9,4c-1.2,1.4-2.3,2.9-3.3,4.5
			c-1.9,3.5-3.9,6.7-5.9,10c-0.3,0.5-0.5,1.1-0.7,1.6c-0.3,0.7-0.6,1.4-0.9,2.1c-1.4-0.9-2.8-1.9-4.1-3c-0.5-0.4-1-0.7-1.5-1l-0.2,0
			c0.2-6.8-0.3-13.7-1.6-20.4c-0.6-2.7-1.4-5.4-2.4-8.1c-1.4-3.5-2.3-7.2-2.8-10.9c0-0.4,0-0.8,0-1.2c5.9-7.1,11.2-14.6,15.9-22.5
			c1.1-1.8,2.2-3.6,3.3-5.2c2.5-3.9,6.4-9.1,11.3-9.1c2.3,0,5.4,1.9,7.9,3.6c1.1,0.7,2.1,1.3,3,1.8c0.9,0.5,1.9,0.9,2.9,1.3
			c2,0.7,3.9,1.8,5.6,3.1c2.7,2.9,1.7,7.1,0.2,10.2h-0.3c-5.7-0.3-7.5,3.4-9,6.6c-0.3,0.7-0.6,1.3-1,2c-0.9,1.4-2,2.5-3.3,3.5
			c-2.4,1.9-5.1,4.3-5.2,8.5C358,386.7,358.3,388.3,358.8,389.7z M335.7,590.9c0-1.2,0-2.4,0-3.6c0.1-1.9,0-3.7-0.1-5.6
			c-0.2-4.1,0-8.3,0.6-12.4c0.1-1.2,0.3-2.5,0.4-3.7v1C336.8,574.7,336.5,582.8,335.7,590.9z M335.3,553.5c-0.5-0.6-1-1.1-1.6-1.6
			c-0.3-0.2-0.6-0.4-0.8-0.7c-1.2-1.7-1.2-1.8-1.2-2.5c0-0.6,0-1.3-0.1-1.9c-0.1-0.4-0.2-0.9-0.2-1.3c-0.4-2.8-0.7-6-5.3-7.3
			c-0.6-0.2-1.2-0.3-1.8-0.3h0c0.8-0.8,1.5-1.6,2.3-2.4c2.2-2.2,3.9-5,4.9-7.9v0.3c0.2,1.2,0.9,2.2,2,2.7c0.2,1.2,0.4,2.4,0.6,3.7
			c0.3,1.7,0.6,3.4,0.9,5.3c0.7,4.9,1.1,10.1,1.4,16.2C336.1,554.9,335.7,554.2,335.3,553.5z M326.7,676.1c-0.1-0.7-0.2-1.3-0.4-2
			l0.7,0.1c3.3,0.8,6.6,1.4,10,1.6l0.1,1c0.4,2.5,0.6,4.9,0.4,7.4c-1.3-0.2-2.5-0.5-3.8-0.8c-1.2-0.3-2.3-0.6-3.5-0.8l-3.9-0.4
			l0.1-0.7C326.8,679.9,326.9,678,326.7,676.1z M351.9,857.6c0.1,1.1,0.3,2.2,0.5,3.3c0.4,1.5,0.6,3.1,0.5,4.6
			c-0.7,4.2-3.6,4.6-8.5,4.9h-0.9c-5.1,0.3-10.2,0.1-15.3-0.4c0-0.2,0-0.3,0-0.5l0.2-8.3c0.4-17,0.9-34.5,0.7-51.8
			c0-1,0.1-2.1,0.2-3.4c0.3-4.9,0.8-11-3.5-14c-2.5-1.6-5.5-2-8.4-1.2c-6.5-1.6-13.5-1.7-20.3-1.7h-4.6c-13-0.3-24.7-0.3-35.7,0
			c-4.2,0.1-8.4,0.4-12.5,0.7c-5.4,0.4-10.9,0.8-16.4,0.8c-2.1,0-4.3-0.2-6.7-0.3c-6.5-0.4-13.7-0.9-19.6,1.1
			c-2.3,0-4.7,0.3-6.9,0.9l-1.9,0.4c-6.2,1.1-9,2.8-9.2,9.7c-0.2,7.4-0.5,15-1.3,22.6c-1.1,9.4-1.4,18.9-0.9,28.4
			c0.2,3.3,0.4,6.8,0.4,11.4c0,0.2,0,0.6,0,1.1c0,1.5,0,3,0,4.3h-2.9c-1.5,0-3,0.1-4.6,0.2c-6.7,0.4-13.6,0.8-19.4-1.6h0
			c0.1-1.3,0.3-2.6,0.6-3.9c0.6-6.1,1-11.8,1.2-16.8c0-5.8,0-11.7,0-17.4c0-6.9-0.1-14,0.2-20.9v-1.9c0.3-7.4,0.6-17.9-2.6-25.4
			c12.6,0.9,25.7-0.2,38.4-1.3c3.1-0.3,6.1-0.5,9.1-0.8c13.4-0.7,26.7-0.7,40.1,0.2c7.1,0.3,14.5,0.7,21.7,0.7
			c17.2,0.2,34.7,1.6,51.7,2.9l6.7,0.5c5.9,0.5,11.9,0.4,17.7,0.3c3.1,0,6.2,0,9.4,0h2.5c2.4,0,5,0.1,7.6,0
			c-0.7,1.7-1.3,3.5-1.6,5.4C352.1,818,350.4,839.4,351.9,857.6z M317.9,869.3c-2.5-0.1-5.2-0.2-8-0.2c0.3-8.4,0.1-16.8-0.7-25.2
			c-0.3-3.5-0.6-7.1-0.7-10.8c-0.1-4.1,0.1-8.1,0.7-12.1c0.2-2.3,0.5-4.7,0.6-6.9c0-1.8,0-3.6-0.2-5.5c-0.3-2.3-0.3-4.7-0.2-7
			l1.4-0.3h0c2.6,0,5.2-0.2,7.7-0.8c0.6,0.2,1.2,0.7,1.5,1.3c0.7,1.2,0.2,5.6,0,8c-0.1,1.3-0.3,2.5-0.3,3.3c0,1.3,0,2.6,0,3.9
			c-0.1,2.7-0.1,5.3-0.1,8c-0.1,5.7-0.5,11.5-0.8,17.2C318.3,850.9,317.7,860.2,317.9,869.3z M291.8,852.9c-0.2-2.4-0.4-4.7-0.4-6.7
			c-0.1-11.9-0.2-23.6-0.9-35.2c0-0.8,0-1.9,0-3c0-2.7-0.1-5.4-0.4-8.1l2.2,0.2c2.3,0.1,4.9,0.4,7.6,0.7h0.6c0,1,0.1,2,0.1,3
			c0.1,0.6,0.1,1.3,0.1,2c0.1,5.2-0.2,10.4-0.7,15.6c-0.2,2-0.4,4.1-0.5,6.1c-0.2,5.4,0.1,10.8,1,16.1c0.2,1.6,0.4,3.3,0.6,4.9
			c0.4,4,0.7,8.2,1,12.2c0.2,2.8,0.4,5.7,0.6,8.6h-11h-0.1C292.7,864,292.2,858.1,291.8,852.9z M252,848.5l-0.1-2.4
			c-0.3-5.1-0.2-10.2-0.1-15.4s0.1-10.7-0.1-16c-0.1-0.6-0.1-1.3-0.1-2.1c0-4.1-0.5-8.3-1.5-12.3l-0.1-0.1c2.3-0.2,4.6-0.3,7-0.4
			l4.5-0.1c0,1,0,2,0,3.1c0,0.7,0,1.5,0,2.4c-0.1,2.2-0.1,4.4-0.1,6.6c-0.1,6.5-0.2,13.1,0.1,19.6c0.1,2.1,0.2,4.3,0.2,6.4
			c0.2,6.2,0.4,12.6,1.2,18.9c0.2,1.5,0.3,3.2,0.4,4.9c0.1,2.5,0.3,5,0.7,7.5l-11.9,0.1C252.6,862.3,252.5,855.4,252,848.5z
			 M242.1,869.4l-10.5,0.2c0.5-6.5,0.3-13-0.5-19.4c-0.2-2.2-0.4-4.3-0.5-6.3c-0.4-6.7-0.7-13.9-0.7-22.9c0-2.4,0.1-4.7,0.2-7.1
			v-0.7c0-1.3-0.1-2.6-0.2-3.8c-0.1-1.9-0.5-5.9,0-6.7c0.8-0.6,1.8-1.1,2.8-1.2h0c2,0,4.2-0.1,6.6-0.3c0.3,0,0.6,0.1,0.9,0.3
			c0.9,0.5,1.1,1.8,1.4,3.8l0.1,0.9c0.8,6.8,1,13.6,0.8,20.4c0,1.5,0,3,0,4.5c0,3.5,0.1,6.9,0.2,10.3c0.1,3.7,0.1,7.5,0.1,11.2
			c0,2.4-0.2,4.8-0.3,7.1C242.2,862.7,242,866.1,242.1,869.4z M211,816.3c0-1.1,0-2.5,0-4.2c0.1-3.6-0.1-7.3-0.6-10.9
			c3.5,0.2,7.1,0.2,10.4,0.2c-0.4,2.7-0.4,5.5-0.2,8.2c0.1,1.6,0.1,3.3,0,4.9c-0.3,4-0.3,8-0.1,12c0.2,5.7,0.6,11.5,0.9,17.1
			c0.1,2.1,0.3,4.2,0.4,6.3c0.2,2.6,0.2,5.3,0.2,7.9c-0.1,4,0.1,7.9,0.5,11.8l-8.2,0.2h-2.2C213.1,852.7,212.2,835.5,211,816.3z
			 M190,849.8c-0.1-3.1-0.2-6.3-0.2-9.3c0.1-4.2,0.4-8.4,1-12.6c0.3-2.9,0.7-5.9,0.8-8.8c0.1-1.6,0.2-3.3,0.2-4.9V812
			c0-1.2,0-2.4-0.2-3.7c-0.3-2.1-0.3-4.2,0.1-6.3c0.5-1,1.7-1.2,4-1.4c0.6,0,1.3-0.2,1.9-0.2c0.9-0.3,1.9-0.3,2.8,0
			c0.3,0.9,0.4,1.9,0.3,2.8c0.1,0.4,0.1,1,0.1,1.6c0.3,4.8,0.4,9.9,0.5,14.7c0,3.1,0.1,6.2,0.2,9.3c0.2,6.1,0.2,12.4,0.2,18.4
			c0,7.4,0,15,0.4,22.5h-4.4h-8.2h0C190.4,863.3,190.5,856.5,190,849.8z M160.8,761.9c2.7-0.3,5.3-0.6,7.8-0.7
			c10.6-0.6,19.5-0.8,27.9-0.7c7.1,0,14.2,0,21.2,0c13.1-0.1,26.7-0.1,40.1,0.6c8.7,0.4,17.6,1.1,26.2,1.6
			c11.6,0.8,23.6,1.6,35.5,2.1c5.1,0.2,10.4,0.5,15.5,0.9c4,0.2,7.9,0.5,11.9,0.7c1.4,0.1,2.8,0.2,4.5,0.3c5.1,0.6,10.3,0.6,15.4,0
			c-0.2,1.7-0.5,3.3-1,4.9c-0.7,0.1-1.4,0.3-2,0.7c-3.3,1.9-8.3,1.5-13.2,1.1c-1.9-0.1-3.9-0.3-5.5-0.3l0-0.1c-0.6,0-1.1,0-1.6,0
			c-7.6,0.4-15.2,0.2-22.8-0.5l-4.8-0.3c-10.9-0.7-21.9-0.9-32.6-1.1c-8.2-0.1-16.7-0.3-24.9-0.6c-4.5-0.2-9-0.4-13.5-0.7
			c-15.1-0.8-30.7-1.7-46.1-0.4c-6.9,0.6-14.2,0.7-21.2,0.8c-10.7-0.1-21.3,0.6-31.8,2.2c-0.2-1.4-0.3-3.1-0.3-4.3
			c-0.1-0.9-0.1-1.6-0.1-2c-0.1-1.1-0.3-2.2-0.5-3.4C150.2,762.9,155.5,762.6,160.8,761.9z M358,755.7L358,755.7
			c-1.5-0.1-3.1,0-4.7,0.1c-2.2,0-4.3,0-6.4,0c-3.8-0.1-7.6-0.3-11.3-0.6c-5.2-0.3-10.7-0.6-16-0.7c-13.5-0.3-27.2-1.1-40.4-1.9
			c-7.1-0.4-14.1-0.9-21.1-1.2c-13.4-0.7-27-0.4-40.2-0.2c-7,0.1-14.2,0.3-21.3,0.3c-16.1,0-34.9,0.4-53,3.4c-0.3-2.1-0.3-4.3,0-6.4
			c0.9-4.8,3.1-6,6.1-6.4c9.6,1.5,19.5,1,29.1,0.5c4.3-0.2,8.8-0.5,13.1-0.5c10.9-0.1,22-0.3,32.8-0.5c10.1-0.2,20.6-0.5,31-0.5
			c4.2,0,8.5-0.1,12.7-0.1c15.3-0.2,31.2-0.5,46.4,0.8c3.4,0.3,6.8,0.5,10.2,0.8c5,0.4,10.1,0.7,15.1,1.2c1.2,0.1,2.5,0.3,3.9,0.5
			c2.9,0.5,5.9,0.7,8.9,0.7c2.2,0.8,4.6,1.3,6.9,1.4c1,0.1,1.9,0.2,2.9,0.4c3.3,0.5,3.3,0.5,3.6,3.7c0,0.6,0.1,1.4,0.2,2.2
			c0.1,1.3,0.2,2.5,0.3,3.7C363.8,756,360.9,755.6,358,755.7z M343.8,732.9c-1.3-0.1-2.7-0.2-3.9-0.3c-4.9-0.5-9.9-0.7-14.8-1
			c-3.4-0.2-6.8-0.4-10.1-0.6c-14.1-1-28.5-0.8-42.6-0.5c-6,0.1-12.2,0.2-18.2,0.2c-14.1,0-28.4,0.5-42.3,1
			c-6.7,0.2-13.5,0.5-20.2,0.6c-8.6,0.2-17.5,0.7-26.6,1.5c0.1-1.3,0.1-2.6,0-3.9c-0.1-0.7-0.1-1.4-0.1-2c0-3,0.7-6,2.1-8.7
			c0.3-0.7,0.6-1.5,0.9-2.3c1.1-3.2,1.3-6.6,0.6-9.9c8.8,1.1,18,0.3,26.9-0.4c4.2-0.4,8.1-0.7,12-0.9c15.1-0.6,31-0.9,51.7-0.9
			c13.1,0,26.5,0.4,39.4,0.8c15.1,0.4,30.7,0.9,46,0.7c-0.2,1.8-0.6,3.6-1.1,5.4c-0.2,0.8-0.4,1.5-0.6,2.3
			c-0.8,3.4-2.2,9.7,1.1,14.2c0.8,1,1.9,1.8,3.1,2.3c0.5,0.2,1,0.4,1.3,0.8c0.5,0.5,0.9,1.2,1.1,1.9
			C347.6,733.2,345.7,733.1,343.8,732.9z M322.4,695.8c-3.3,0-6.7,0-10-0.2c-14.5-0.8-29.5-0.7-43.9-0.7h-13
			c-14.7,0-29.8,0-44.7,0.9c-3.8,0.2-7.6,0.4-11.4,0.5c-10.9,0.4-22.1,0.8-32.8,3.1c-0.4-0.7-0.1-1.1,1.5-2.2
			c1.7-0.5,3.5-0.7,5.3-0.7c1,0,1.9-0.1,2.6-0.2c1.3-0.2,2.8-0.5,4.6-0.9v0c3-0.1,6-0.5,8.7-0.7c1.7-0.2,3.2-0.5,4.4-0.5
			c6.6-0.4,13.5-0.6,20-0.8c5.8-0.1,11.9-0.3,17.8-0.7c25.2-1.5,51.2-0.7,76.3,0l3.2,0.1c4.4,0.1,10.3,0.3,16.2,0.7
			c1.2,0.1,2.6,0.3,4.1,0.6c0.6,0.3,1.2,0.6,1.8,0.9l0.2,0.1c1.2,0.5,2.4,0.9,3.5,1.3C332,695.9,327.2,695.8,322.4,695.8z
			 M186.3,684.9c-6.1,0.6-9.7,0.2-10.7-1.2c-0.9-1-1.2-2.3-1.1-3.6c0.3-1.5,1.6-3,4-4.5v0c2.2-0.6,4.6-1.1,7.2-1.4
			C185.4,677.8,185.6,681.4,186.3,684.9z M225.6,355.8c12.7-11.4,27.2-24.4,27.9-43c0-1.1-0.7-2-1.8-2.2c-1-0.2-2,0.3-2.5,1.2
			c-5.3,11.6-12.8,22.1-22.2,30.8c-2.6,2.3-5.4,4.4-8.2,6.3c-2.6,1.8-5.2,3.7-7.7,5.8c-0.2-1.2-0.5-2.4-0.9-3.6
			c-1.3-3.7-4.8-7.4-9.6-10.1l-0.2-0.2l-1-1.1c-2.5-2.9-1.7-5.9-0.2-10.6c0.8-2.2,1.3-4.5,1.6-6.8c0.4-3.3-0.7-6.7-3.1-9.1
			c-0.9-1-1.6-2.1-2.3-3.3c-0.8-1.7-1.1-3.5-0.9-5.4c3.2-4.4,3.4-10.4,0.5-15c-1.2-1.7-2.9-3-4.9-3.5c-1.2-0.3-2.5-0.3-3.7,0
			l-0.7,0.1c-0.2-0.6-0.3-1.3-0.4-2c0-1,0.1-2.1,0.3-3.1c0.3-1.4,0.5-2.8,0.4-4.2c0.2,0.4,0.6,0.7,1.1,0.9c0.9,0.2,1.8,0.3,2.7,0.3
			c1.6,0,3.2-0.4,4.6-1.1c0.6-0.3,1.2-0.6,1.8-1c1.3-0.7,2.7-1.4,3.9-2.1c4.9-2.6,9-6.3,12.2-10.8c-2.5,6-5.9,12.4-9.3,16
			c-0.7,0.8-0.9,1.9-0.4,2.8c0.6,1.2,2.1,1.6,3.3,1c8.5-4.6,15.4-14.8,18.4-26.3c0.5,0.9,0.9,1.9,1.1,3l0.2,0.8
			c0.1,0.5,0.2,1,0.4,1.5c-0.1,0-0.1,0-0.2,0c0,0,0,0,0,0c-1.2,0-2.2,1-2.2,2.1c-1.1,8.5-4.6,16.8-8,24.9c-0.5,1.2-1,2.4-1.5,3.6
			c-2.7,6.7-5.8,14.3-9.9,19.8c-0.6,0.9-0.5,2,0.3,2.7c0.5,0.4,1,0.6,1.6,0.6c0.5,0,1-0.2,1.4-0.6c6.7-6.2,12-13.9,15.1-22.5
			c3.8-9.9,5.5-18.1,5.5-25.9c0.4,0.7,0.9,1.4,1.4,2c0,1.8,0.2,3.5,0.3,5.3c0.1,1.8,0.3,3.8,0.3,5.6c0.1,3.3,0,6.8-0.2,10.1
			c0,1.6-0.1,3.2-0.1,4.9c-0.3-0.2-0.6-0.3-0.9-0.3c-0.8-0.1-1.5,0.3-1.9,1.1l0,0c-2.1,5-4.9,10-7.6,14.9c-1.9,3.4-3.8,6.9-5.5,10.4
			c-4.2,8.4-4.8,16-4.5,26.3c0,0.8,0.7,1.5,1.5,1.5c0,0,0,0,0.1,0c0.4,0,0.7-0.2,1-0.5c2-2.1,2.4-4.6,2.9-7.2
			c0.1-0.6,0.2-1.2,0.4-1.9c1.3-6.4,3.4-12.5,6.4-18.3c0.5-1.1,1.2-2.2,1.8-3.3c2.3-4.3,5.1-9.3,6.5-14.2c0.2,0.7,0.5,1.2,1.1,1.6
			c1.2,0.8,2.8,0.4,3.6-0.8c5-8,4.5-15.9,4-24.3v-1.2c-0.2-2.7-0.4-5.7-0.8-8.6l0.2,0.3c1.1,1.7,1.8,3.6,2.2,5.6
			c0.5,2.9,1.8,5.6,3.7,7.9c0.9,0.8,1.9,1.5,2.9,2.1c1.2,0.6,2.2,1.4,3,2.5c0.4,0.6,0.8,1.2,1.2,1.8c1.1,1.8,2.4,3.4,3.8,4.9
			c1.5,1.6,3.3,2.9,5.3,3.7c-2.3,3.5-3,7.8-2.1,11.9c0.3,0.9,1.1,1.6,2,1.6c0.9,0.1,1.8-0.4,2.2-1.2c1.6-2.9,3.5-5.6,5.8-8
			c2.3-2.5,4.3-2.8,7.6-3.3l1.3-0.2c3.5-0.6,6.9-1.7,10.2-3.1l1-0.4l0.4-0.2l-0.2,0.6c-0.9,2.6-3.4,5.1-5.7,7.5
			c-1.3,1.3-2.5,2.7-3.7,4.1c-2.8,3.4-5.3,7-7.5,10.9c-0.5,1-1.1,2.1-1.6,3.1c-4.1,7.5-8.4,15.3-8.2,24.4c0.1,1.5,1.1,2.7,2.6,2.9
			c1.3,0.3,2.6-0.4,3.1-1.6c6.3-14.4,14.3-28,23.9-40.5c1.3-1.7,2.4-3.4,3.4-5.3c0.8,0.8,1.6,1.5,2.5,2.2c1.7,1.4,3.3,3,4.6,4.7
			c3.7,5.3,5.5,12.7,7.2,19.9c0.9,4.1,2,8.2,3.4,12.3c3.7,10.1,5.1,20.8,4.2,31.5c-0.1,1.5-0.3,3-0.4,4.4c-0.5,3.2-0.6,6.5-0.2,9.7
			c0.5,3.1,1.3,6.2,2.3,9.2c0.7,2.3,1.4,4.7,1.8,7c1.9,9.6,1.8,19.6,1.6,29.3c-0.1,11.8-0.3,24,3.2,35.9l0.5,1.6
			c1.9,5.5,3.1,11.3,3.6,17.1c0,2,0,4,0,5.9c-0.1,3.2,0,6.4,0.3,9.6c0.4,2.9,0.5,5.8,0.6,8.8c-1.5-9-3.1-17.8-4.9-26.5
			c-0.5-2.1-1.1-4.1-1.9-6c-0.9-2.3-1.6-4.7-2-7.1c-0.6-5.1-0.7-10.2-0.4-15.2c0.2-9.2-0.8-18.4-3-27.4c-1.4-6.6-2.3-13.3-2.9-20.1
			c-1.1-10.9-2.3-22.3-6.7-32.3c-0.4-0.9-1.3-1.4-2.3-1.3c-1,0.1-1.8,0.8-1.9,1.8c-0.6,4.7-0.4,9.6,0.6,14.2c0.1,1,0.3,1.9,0.4,2.8
			c0.6,4.6,1.2,9.2,1.6,13.7c0.4,3.8,0.9,7.8,1.4,11.7c0.2,1.7,0.5,3.5,0.7,5.2c1.2,7,1.8,14.1,1.8,21.2c0,2.7-0.2,5.4-0.4,8
			c-0.6,5.8-0.5,11.6,0.1,17.4c0.7,4.7,1.8,9.3,2.9,13.8c0.9,3.5,1.7,7.2,2.4,10.8l0.5,3c0.7,4.1,1.5,8.4,2.2,12.6
			c0.2,1.2,0.4,2.4,0.7,3.6c0.8,3.9,1.6,7.9,0.3,11.1c-2.7,6.5-11.3,12-17.6,15.9l-2.3,1.4c-3.3,2-6.8,3.7-10.5,5.1
			c-3.6,1.4-7.1,3.1-10.5,5.1c-1.7-4.8,0.6-14,2.3-20.3c0.7-2.3,1.2-4.7,1.6-7c0.3-2,0.5-4.1,0.8-6.1c1.1-7.9,2.2-16.1,2.8-24
			c0.2-4.9-0.2-9.8-1.4-14.6c-1-5.5-1.4-11.1-1.3-16.7v-1c0-1.4-0.1-2.7-0.2-3.9c-0.3-2.2-0.3-4.4,0-6.6c0.4-2.5,1.1-4.9,1.9-7.3
			c0.5-1.8,1.1-3.6,1.5-5.5c1.1-5.6,1.7-11.3,1.9-17c0.1-4.4,0.5-8.8,1.2-13.2c1-6.1,1.7-12.3,2.4-18.4c0.5-4.8,1.1-9.7,1.8-14.7
			c0.3-2.3,0.7-4.6,1-6.9c1-6.8,2.1-13.9,2.6-20.9c0.2-3.3,0.3-6.8,0.3-10.1c0.1-7,0.2-14.3,2-20.6c0.3-1,0-2-0.7-2.7
			c-0.6-0.6-1.4-0.9-2.2-0.9c-0.4,0.1-0.8,0.3-1.1,0.5c-1,0.2-1.8,1-2,2c-2.3,9.1-3.9,18.3-4.8,27.7l-0.3,2.3
			c-0.9,7.1-2.3,14.3-3.6,21.2c-0.7,3.7-1.5,7.5-2.1,11.1c-0.6,3.6-1.4,7.4-2.1,11c-2,9.1-3.5,18.3-4.2,27.5c-0.1,1-0.2,2.1-0.2,3.1
			c-0.1,5.5-0.7,11-1.6,16.4c-0.4,1.7-0.8,3.5-1.3,5.1c-0.8,2.6-1.3,5.2-1.8,7.8c-0.3,2.7-0.3,5.5,0,8.2c0.2,1.6,0.2,3.2,0.2,4.6
			c0,1.3-0.1,2.7-0.3,3.9v0.5c-0.3,0.3-0.5,0.7-0.6,1.1c-1.2,2.4-2.8,4.7-4.7,6.6c-1.3,1.4-2.4,2.8-3.5,4.3
			c-0.8,1.3-1.6,2.5-2.5,3.9c-1.9,3.4-4.2,6.5-6.8,9.5c-3.6,3.6-7.4,7-11.4,10.1c-4.8,3.7-9.3,7.8-13.5,12.3
			c-2.9,3.5-5.7,7.1-8.2,10.8c-3,4.4-6.3,8.6-9.9,12.5l-0.8,0.8c-2.1,2.2-3.2,3.1-4,2.7c-0.5-1.6,1.1-8.3,1.8-11.6
			c0.5-1.9,0.9-3.8,1.2-5.7c0.2-4.9-0.4-9.8-1.6-14.6c-1.2-5.5-2.4-10.6-1.3-16.4c0.2-0.9,0.3-1.8,0.5-2.6c1-3.7,1.2-7.5,0.7-11.3
			c-0.5-2.5-1.3-5-2.4-7.3c-0.8-1.9-1.5-3.8-2-5.7c-1.4-6,0.2-10.8,2-15.7c1.5-3.7,2.4-7.6,2.8-11.5c0.1-2.9-0.1-5.8-0.6-8.6
			c0-1.3,0-2.7,0-4c0-0.8,0-1.6,0-2.4c0.1-6.5,1.7-12.9,4.7-18.7c4.2-8.8,10.4-15.7,16.4-21.9c2.2-2.3,4.7-4.5,7.4-6.9
			c9.2-8.3,19.6-17.8,20.9-30.8c0.2-1.6-0.8-3.1-2.4-3.5c-1.6-0.6-3.4,0.1-4.3,1.5c-4.8,8.9-10.9,16.9-18.1,24
			c-2,1.9-4.2,3.7-6.3,5.5c-3.8,3.1-7.4,6.4-10.8,10c-6.1,6.7-11.1,14.3-14.6,22.7c-1.7,4.3-2.6,8.9-2.8,13.5
			c-1-4.9-1.7-9.5-0.1-14.4c1.1-3,2.6-5.8,4.4-8.4c0.7-1,1.3-2,1.9-3.1c2.5-4.6,4.5-9.4,5.9-14.4c2.4-7.1,4.6-13.8,9.6-18.6
			C221.3,359.7,223.4,357.8,225.6,355.8z M167.3,85.6c0.5-3.6,5.8-4.4,10.9-4.4c2.4,0,4.8,0.2,6.6,0.3l1.6,0.1
			c1.7,0.1,3.5,0.2,5.2,0.2c2.4,0.1,4.8,0.2,7.2,0.4c1,0,2,0.2,3,0.5c0.3,0.9,0.4,1.8,0.3,2.7V86c-10.4-3.5-24.2-2.2-34.5,3.3
			C167.3,88.1,167.2,86.8,167.3,85.6z M179.3,104.7c-0.2-0.4-0.4-1.2-0.6-1.8h0.7l1.2-0.1c1.9-0.3,3.7-0.5,5.6-0.5
			c0.4,0,1-0.1,1.7-0.2c1.5-0.3,3.1-0.4,4.7-0.3v0.1c0,1.2-0.1,2.4-0.4,3.5c-0.1,0.5-0.2,0.9-0.2,1.3c-0.1,1-0.3,1.9-0.3,2.9
			c-1.1,0.1-2.1,0.3-3.1,0.7c-1-1.3-2.5-2.3-4.1-2.8c-1.1-0.3-2.2-0.5-3.3-0.5c-0.4,0-0.8,0-1.3,0v-0.4
			C179.7,105.9,179.5,105.3,179.3,104.7z M172.5,94.5l1.6-0.4c4.1-0.9,8.3-1.5,12.6-1.9c2.6-0.1,5.2,0.1,7.7,0.6
			c1.9,0.3,3.8,0.5,5.7,0.6H200c-0.7,0.3-1.3,0.5-2,0.7l-1.1,0.4c-2.7-0.9-5.6-1.1-8.4-0.7c-0.8,0.1-1.6,0.1-2.3,0.1
			c-2,0-3.8,0.2-5.6,0.4l-2.4,0.2h-1.3c-1.3-0.1-2.7,0.2-3.9,0.6c-0.5-0.2-0.9-0.3-1.3-0.5L172.5,94.5z M177,115.2
			c2.9,0,4.3,0.1,5.5,2.6c0.9,1.6,2.3,2.9,3.9,3.8c2.2,1.5,2.5,1.9,2.2,2.9c-0.5,1.6-1.6,2-3.8,2.6l-1.3,0.4l-1,0.4
			c-1.5,0.6-1.8,0.7-2.6-0.2l0,0c-0.4-0.8-0.6-1.7-0.7-2.7c0-0.3-0.1-0.7-0.1-0.9c-0.3-1.4-0.6-2.8-1.1-4.2
			c-0.3-0.9-0.6-1.8-0.8-2.8C176.9,116.6,176.8,115.9,177,115.2z M185.8,136.1l1.4-0.5l0.3-0.1c0,0.7,0,1.4,0,2.2
			c0.1,1.9,0.1,3.7,0,5.6c-0.1,1.3-0.1,2.6,0,3.9c0.1,2.5,0.3,8.3-0.8,9.2l-0.2,0.2v-0.2c-0.1-0.4-0.2-0.8-0.3-1.3
			c-0.5-1.8-0.8-3.6-0.9-5.5c-0.1-1.2-0.2-2.4-0.4-3.6c-0.5-3-1.1-6-1.9-8.9C183.9,136.8,184.9,136.5,185.8,136.1z M195.3,155.9
			c1.6-8.1,1-16.9,0.2-25.2c0-0.2-0.1-0.5-0.1-0.7c1-1.9,1.6-3.9,1.8-6c1.4,5.4,0.9,10.2,0.2,16.3c-0.7,7.4-0.5,14.8,0.5,22.1
			c0.2,1.7,0.4,3.4,0.5,5.2l0.2,2.4c0.7,7.6,1.4,15.5,2.8,23.3c0.4,2.2,1.1,4.4,1.9,6.6c0.5,1.5,1,2.9,1.4,4.4
			c0.5,2.4,0.8,4.9,0.8,7.4v0.2c-0.6,4.3,0,8.7,1.5,12.7c2.2,6.4,1.3,10.6-1.4,17.2c-2.1,5-5.2,8-8.9,11.3c0-3.8-0.3-7.7-0.7-11.5
			c-0.5-3.7-0.7-7.3-0.7-11c0-1.5,0.1-3,0.3-4.6c0.3-3.1,0.3-6.2,0-9.3c-0.5-2.4-1.4-4.8-2.7-6.9c-0.8-1.4-1.5-2.9-2-4.4
			c-2.3-7.4-2.4-15.2-2.6-23.4c0-5.1-0.3-10.2-0.8-15.3C193.3,166.1,194.8,158.6,195.3,155.9z M191.6,261.5c0.7,0.2,1.4,0.3,2,0.1
			h0.3c4.8,0.8,8.7-2.4,12-5.2l1.3-1c5.1-4.2,7.7-11,9.5-17.1c0.4-1.4,0.7-2.8,0.8-4.3c0.3,0.4,0.5,0.8,0.7,1.2
			c0.5,1.6,0.5,3.3,0,4.9c-0.1,0.6-0.3,1.3-0.3,1.9v0.5c-0.2,1.5-0.3,3-0.3,4.5c-0.9,3.9-1.8,7.1-2.6,9.9c0,0,0,0,0-0.1
			c-0.6-0.6-1.4-0.6-2.1-0.1c-2.8,2-5.5,4.1-8.2,6.2c-1.8,1.4-3.5,2.8-5.3,4.1c-1,0.8-2.2,1.4-3.4,2c-1.2,0.6-2.4,1.2-3.5,2
			c-0.5,0.4-0.9,0.7-1.3,1c-1.2,1-1.9,1.6-3.9,2.1c-0.5,0.2-0.9,0.5-1.1,1c-0.1,0.2-0.1,0.4-0.2,0.6c-0.4-1.5-1-2.9-2-4.1
			c-0.5-0.7-0.9-1.4-1.3-2.2c-2.7-5.6-1.1-11.3,2.2-18.1c0.3-0.7,0.7-1.4,1.1-2.3l0.6-1.3c0.6,3.9,1.6,7.8,2.8,11.5
			C189.8,260.3,190.6,261.1,191.6,261.5z M228.4,296L228.4,296L228.4,296L228.4,296z M260.8,214.9c-1,0-1.9,0.1-2.7,0.2
			c-0.3-1.7-0.7-3.4-1.3-5v0c1.3-0.2,2.6-0.3,3.9-0.3C260.5,211.4,260.6,213.2,260.8,214.9z M268.9,210.8v-0.4
			c1.3,0.3,2.6,0.6,3.8,1c-0.2,0.7-0.4,1.3-0.7,2c-0.3,0.8-0.6,1.7-0.8,2.5l-1.6-0.3l0-0.1c-0.2-0.8-0.3-1.7-0.4-2.5
			C269.1,212.2,269,211.4,268.9,210.8z M239,248c-0.1-1.1-0.3-2.1-0.3-3.2c-0.1-0.8-0.2-1.5-0.4-2.3c-0.1-0.5-0.3-1-0.3-1.4
			c-0.5-6.7,8.8-13.1,14.7-15.6c1.9-0.8,3.9-1.4,6-1.6c-1.1,0.7-2,1.5-2.8,2.5c-0.5,0.6-1,1.1-1.6,1.6c-1.4,1-3,1.7-4.6,2.3
			c-2,0.6-3.8,1.5-5.5,2.8c-3.6,2.9-5.1,8.1-3.9,13.5c-0.2,1.2-0.3,2.3-0.2,3.5c0.5,3.4,1.7,6.6,3.3,9.6
			c3.4,6.3,10.5,10.6,18.7,11.7c3.1,0.4,6.3,0.1,9.2-1c-0.1,1.9-0.2,3.7-0.2,5.6v1.5c-0.1,4.8,0.2,8,2.4,11.4
			c-0.8,0.2-1.5,0.5-2.1,0.7c-1.3,0.5-2.5,1.2-3.7,2c-3-2.3-5.5-5.1-7.5-8.2c-0.7-0.9-1.4-1.9-2.1-2.9c-1-1.2-2.1-2.2-3.4-3
			l-0.9-0.6c-1.1-0.8-2-1.9-2.6-3.1l-0.5-0.9c-0.4-0.7-0.8-1.4-1.2-2.1c-1.4-2.8-3.3-5.4-5.6-7.5c-1.7-1.4-3.8-2.2-5.9-2.6
			C240.1,256.6,239.5,252.2,239,248z M285.5,261.8l-0.4,1.9c-0.7,3.1-0.6,6.4,0.4,9.5c1.2,4.3,1.6,8.9,1.1,13.4
			c-2,0-3.9,0.2-5.9,0.5c-0.1-0.4-0.2-0.8-0.3-1.3l-0.2-0.6c-0.8-3.4-1.2-7-1.2-10.5v-0.4c0-1.5,0.1-2.9,0.2-4.4
			c0.2-1.8,0.3-3.6,0.2-5.5l0,0c5-6.3,7-14.5,5.4-22.5c0-0.5,0-0.9,0-1.3c0.7,3.3,1.3,6.7,1.6,10.1
			C286.9,254.5,286.5,258.2,285.5,261.8z M246.9,246.6c1.1-3.6,2.7-7.4,6-9.5c0.9-0.5,1.6-0.9,2.3-1.3c1.9-0.9,3.5-2.1,4.9-3.7
			c3.6-3.8,4.7-2.8,8.1,0.2c0.9,0.8,1.9,1.7,3,2.5c0.8,0.6,1.6,1,2.4,1.5c1,0.5,2,1.1,2.8,1.9c0.6,0.8,1,1.8,1.2,2.8
			c-0.5-0.1-1-0.2-1.5,0c-1.1,0.2-2.1,0.3-3.3,0.1c-1.2-0.1-2.2-0.2-3.1-0.2c-1.2,0-2.2,1-2.2,2.3c0.2,3,2.7,3.4,4.3,3.6
			c0.7,0.2,1.5,0.3,2.3,0.3c1.4,0,2.8-0.3,4.1-0.9c0.2-0.1,0.3-0.2,0.5-0.4l-0.2,0.8c-1.2,4.8-2.3,9.3-5.6,12.8
			c-4.5,4.8-11.8,3.5-17.2,0.7C250.2,257.2,248.5,252.5,246.9,246.6L246.9,246.6L246.9,246.6z M277.4,230.5l-1.1-0.7
			c-1-0.6-2-1.4-3-2.3c-1.5-1.3-3.1-2.4-4.8-3.4c2.3,0.4,4.6,1.1,6.8,2c3.8,1.4,6.6,4.7,8.2,9.6l0.1,0.3
			C282.3,233.8,280.2,232.4,277.4,230.5z M246.6,218.5c-0.4-0.8-0.9-1.5-1.4-2.2l-1-1.3v-0.1c1.4-1,2.9-1.9,4.4-2.6
			c0.1,1.7,0.3,3.3,0.7,4.9C248.4,217.7,247.5,218.1,246.6,218.5z M238,223.9c0.1-0.6,0.3-1.2,0.6-1.7c0.1,0.3,0.3,0.6,0.5,0.8
			L238,223.9z M288.4,561.3l-0.3,1.4l-1.1-0.9L288.4,561.3z M306,681.7c-13.2,0.6-26.8,0.3-40,0.1c-7.1-0.1-14.4-0.2-21.6-0.2
			c-4.1,0-8.4,0.4-12.1,0.8s-7.6,0.8-11.5,0.8h-3c-7.6,0-15.5,0-23.1,0.7h-0.1l-0.1-0.7c-0.3-1.3-0.5-2.6-0.6-3.9
			c-0.1-1,0-2.2-0.1-3.1c-0.1-0.9-0.1-1.9-0.1-2.8l0,0c6.3-0.5,12.6-0.5,17.8-0.4c8.1,0.1,16.4-0.2,24.4-0.6
			c7-0.3,14.3-0.6,21.4-0.6c10.3,0,20.7,0.2,30.8,0.4l9.6,0.2c2.2,0,4.5,0,6.7,0c4.4,0,9-0.1,13.4,0.3c0.1,1.1,0.2,2.1,0.4,3.2
			c0.1,0.6,0.2,1.3,0.3,2c0,1.1-0.1,2.1-0.4,3.2c0,0.3-0.2,0.5-0.2,0.8C313.6,681.6,309.6,681.5,306,681.7z M322.9,661.4
			c0-0.1-0.1-0.3-0.1-0.5c0.1,0,0.3,0,0.4,0.1L322.9,661.4z M200.4,636.9c-1.1-3-0.5-6.3,1.5-8.8c0.5-0.6,1-1.2,1.6-1.6
			c0.8-0.7,1.6-1.4,2.2-2.3c2.9-4.1,2.6-8.1,2.2-12.3c0-0.6-0.1-1.2-0.1-1.8c-0.5-5.7-1.4-11.4-2.6-17.1c-1.3-5.8-2.2-11.6-2.6-17.5
			c-0.4-5.6,0-11.3,1.2-16.8c0.3-1.3,0.8-2.6,1.2-3.9l0.4-1.1c8.2-0.3,17.3-12.1,25.1-23.8c0.6-1,1.2-1.7,1.6-2.3
			c4.7-6.6,10.7-11.6,17-16.9c4.2-3.4,8.2-7,12-10.8c3.1-3.5,5.9-7.4,8.1-11.5l1.4-2.3c0.7-1,1.4-2.1,2.2-3.3l0.7-1.1v0.2
			c1.2,4.6,1.7,9.3,1.4,14.1c-0.3,3-0.9,6-1.4,8.9c-0.4,2.4-0.9,5-1.2,7.5c-0.4,2.7-0.7,5.5-1,8.2c-0.5,4.6-1,9.3-1.9,13.9
			c-0.2,1.2-0.5,2.5-0.8,3.8c-1,4-1.6,8.1-1.6,12.2c0,3.6,1.4,7.2,3.8,9.9c0,1.3,0.6,2.5,1.6,3.3l1.5,1.2
			c7.2,5.5,10.9,8.9,11.2,10.2c0.2,3.3-11.4,8.4-19.7,10.6c-2.1,0.5-4.1,1-6,1.4c-8.3,1.8-16.1,3.5-22.1,12l-1.8,2.6
			c-2.5,4.1-5.7,7.8-9.5,10.9c-1.1,0.9-2.3,1.7-3.5,2.5c-2.9,1.8-5.6,4.1-7.8,6.7c-3.7,4.8-5.2,11.2-6.6,17.4
			c-1.7,7.6-3.3,14.7-8.8,19c-2.1,1.3-4.4,2.3-6.8,3.1c0-0.1-0.1-0.1-0.1-0.2c-0.1-0.7,0-2.8,4.1-8.5l0.3-0.4l0.2-0.2
			c2-2.9,3.6-5.2,3.9-9.3C201.2,640.7,200.9,638.7,200.4,636.9z M325.3,664.1L325.3,664.1c-0.1-0.7-0.3-1.3-0.6-1.9
			c-0.1-1.2-0.3-2.3-0.8-3.4c-0.3-0.8-0.5-1.6-0.7-2.4c-0.5-3.2-0.9-6.6-1.2-9.9c-0.2-1.7-0.3-3.4-0.5-5.1c-0.3-2-0.3-4.4-0.3-6.9
			c0-5.6-0.1-11.4-2.5-15.9c-0.7-1.2-2.2-1.7-3.5-1.1c-1.3,0.5-1.9,2-1.4,3.3c0.9,2.6,0.4,6.3,0,9.9c-0.3,1.8-0.4,3.5-0.5,5.3
			c0,3.2,0.1,6.4,0.2,9.5c0.1,1.9,0.2,3.7,0.2,5.6c0,0.9-0.1,2.1-0.1,3.3c-0.2,2.8-0.1,5.6,0.2,8.3c-4.6-0.4-9.5-0.4-14.4-0.4
			c-11.3,0.1-22.8,0-34,0h-2.5c3.3-6.3,4.3-14.8,5.1-21.4c0.1-1.1,0.3-2.1,0.4-3.1c1.4-11.9,0.7-24-2-35.6c-0.2-1-1.1-1.7-2.1-1.6
			c-1,0-1.9,0.7-2.1,1.6c-1,6-1.4,12-1.2,18.1c0.1,4.8-0.1,9.6-0.6,14.3c-0.6,3.8-1.5,7.6-2.6,11.3c-1.7,5.3-2.8,10.9-3.1,16.4h-2.4
			c-2.7,0-5.4,0-8.1,0c3.8-10.4,5.5-21.4,5.1-32.5c0,0,0,0,0,0c-0.1-1.6-1.4-2.9-3-2.8c0,0,0,0,0,0c-1.6,0-2.8,1.3-2.8,2.9
			c-0.3,5.5-1.1,11.1-2.5,16.4l-0.2,0.7c-0.6,2.7-1.4,5.4-2.4,8c-0.8,2.3-1.7,4.7-2.3,7.2v0.2c-10,0.2-20.3,0.6-30.6,1.2
			c7.3-6.1,10.6-16.2,13.2-24c0.4-1.1,0.6-2.3,0.9-3.6c0.4-2.3,1.1-4.5,2.2-6.6c1.5-1.7,3.3-3.1,5.3-4.1c0.9-0.5,1.9-1.1,2.8-1.6
			c4.3-2.7,8.2-5.9,11.7-9.6c1.4-1.7,2.6-3.5,3.7-5.4c1.4-2.9,3.5-5.4,6.1-7.3c3.5-2.3,8.1-3.2,12.6-4.1c3-0.5,6-1.3,9-2.3
			c3.2-1.1,6.3-2.5,9.3-4.1l-0.1,0.6c-2.7,14.8-5.4,30-2.1,45.4c0.4,1.5,1.7,2.6,3.3,2.5c1.6,0,2.9-1,3.3-2.5c1.2-6.9,1.6-14,1.2-21
			c-0.1-4.3-0.1-8.7,0.2-13c0.1-1.7,0.3-3.5,0.5-5.3c0.4-3.8,0.7-7.5,0.7-11.3c2-1.7,3.5-3.8,4.6-6.2c2-2.4,2.2-6.2,2.4-9.3
			c0-0.9,0.2-1.7,0.2-2.4c0.5-3.6,0.5-7.2,0.2-10.8c5.4-2.6,10.5-5.7,15.3-9.2l1.6-0.2c2.1-0.4,4.3-0.5,6.4-0.4l1,0.1
			c-0.3,1.2-0.3,2.5-0.1,3.8c0.2,1.9,1.1,3.6,2.4,4.9c0.3,0.3,0.6,0.7,1,1.2c2.6,3.4,2.5,6.2,2.3,10.5v1.5c-0.1,1.8-0.2,3.6-0.2,5.4
			c-0.4,6.2-0.5,12.4-0.1,18.6c-0.2,0.9-0.4,1.9-0.6,2.8c-0.3,1.2-0.5,2.3-0.7,3.5c-0.4,4.2-0.4,8.4-0.1,12.6
			c0.5,5.4,0.5,11,0.5,16.4c0,3.4,0,7,0.1,10.4c0.1,1.6,0.1,3.1,0.1,4.6c0.1,7.3,0.3,14.2,2.9,20.5L325.3,664.1z M333.6,435.1
			c1.7,1,3.6,1.7,5.5,2c1.7,0.3,3.5,0,4.9-0.9c-0.5,1.7-0.7,3.5-0.9,5.3c-0.1,2.1-0.5,4.1-1.3,6.1c-1.4,2.8-2.5,2.7-5.4,2.4
			c-0.7-0.1-1.4-0.2-2.2-0.2l-0.1-0.1c-0.3-4.2-0.5-8.7-0.5-13.6C333.6,435.8,333.6,435.5,333.6,435.1z M326.7,364.9
			c-0.5-3.8-1.2-7.5-2.1-11.2c1.5,2.3,3.3,4.4,5.6,6C329,361.4,327.8,363.2,326.7,364.9z M190.9,66.8l-0.2,0.6
			c-0.5,1.1-1.2,2.2-1.9,3.3c-0.5,0.8-1,1.6-1.5,2.5c-1.5,0.1-2.8,0.1-3.9,0.1h-2.1c-2.9-4.8-1.9-8,1-14c1.1-2.2,1.9-4.6,2.5-7v0
			c0.5,0.4,0.9,0.8,1.3,1.2c1,0.8,2.3,1,3.5,0.7c1.1-0.4,1.8-1.2,2.1-2.3c0.2-0.7,0.3-1.6,0.4-2.5c0.9,2.1,1.4,4.3,1.5,6.6
			C193.8,60.1,192.6,62.9,190.9,66.8z M366.5,399.8c0.6-0.7,1-1.3,1.3-1.7c1.4-2.2,2-5,1.4-7.6c-0.1-0.6-0.3-1.1-0.5-1.6
			c-0.1-0.3-0.2-0.5-0.3-0.8c-0.5-3.1,0-3.9,2-6.3c0.3-0.3,0.6-0.6,0.9-0.8c0.8-0.6,1.5-1.3,2-2.2c0.3-0.6,0.5-1.3,0.5-1.9
			c0-0.2,0-0.4,0-0.6c0.3-0.6,1-0.9,1.6-0.8c1.3,0.4,2.2,1.5,2.5,2.7c1.1,3.6,0.1,8.3-3.2,14.1c-1.7,3.4-4.2,6.3-7.3,8.6
			c-0.3,0.2-0.7,0.6-1.4,1.1c-0.6,0.5-1.4,1.2-2.2,1.8l-0.3-0.2C364.6,402.3,365.5,401,366.5,399.8z"/>
	</g>
</g>
</svg>
