<?xml version="1.0" encoding="utf-8"?>
<!-- Generator: Adobe Illustrator 25.0.1, SVG Export Plug-In . SVG Version: 6.00 Build 0)  -->
<svg version="1.1" fill="#8052FD" id="Layer_1" xmlns="http://www.w3.org/2000/svg" xmlns:xlink="http://www.w3.org/1999/xlink" x="0px" y="0px"
	 viewBox="0 0 512 512" style="enable-background:new 0 0 512 512;" xml:space="preserve">

	
	


<path d="M315.4,256c0-32.8-26.6-59.4-59.4-59.4s-59.4,26.6-59.4,59.4s26.6,59.4,59.4,59.4
	C288.8,315.4,315.4,288.8,315.4,256z M240.6,267.9c-1-6-1.1-12.2-0.3-18.2c5,0.6,10,1,15.1,1c5.5,0,11.1-0.4,16.6-1.2
	c0.7,6.1,0.6,12.2-0.3,18.2C261.2,266.5,250.8,266.5,240.6,267.9z M268.9,278.4c-2.9,8.4-7.3,16.3-12.9,23.2
	c-5.6-6.9-9.9-14.7-12.8-23.1C251.7,277.5,260.4,277.5,268.9,278.4z M207.4,256c0-4.9,0.7-9.8,2.2-14.5c6.5,2.8,13.3,5,20.2,6.4
	c-1,7.3-0.9,14.7,0.2,21.9c-6.3,1.4-12.5,3.3-18.5,5.7C208.8,269.4,207.4,262.7,207.4,256z M242.4,238.9
	c2.9-10.1,7.5-19.7,13.6-28.2c6.1,8.5,10.8,18,13.7,28C260.6,239.9,251.4,240,242.4,238.9z M282.2,247.6c6.9-1.6,13.6-3.7,20.1-6.4
	c3.6,11.2,3,23.3-1.7,34c-6-2.5-12.2-4.4-18.6-5.7C283.1,262.2,283.2,254.9,282.2,247.6z M297.8,231.3c-5.8,2.3-11.7,4.2-17.8,5.6
	c-2.7-9.9-6.9-19.4-12.4-28.1C280.3,211.9,291.2,220,297.8,231.3z M244.4,208.8c-5.5,8.8-9.8,18.3-12.5,28.3
	c-6.1-1.3-12.1-3.2-17.9-5.6C220.7,220.2,231.6,212,244.4,208.8z M217,285c5-1.9,10.2-3.4,15.4-4.6c2.5,8,6.2,15.6,11.1,22.5
	C232.9,300.1,223.6,293.8,217,285z M268.5,303c4.9-7,8.6-14.7,11.1-22.8c5.3,1.1,10.5,2.6,15.5,4.6
	C288.6,293.7,279.2,300.1,268.5,303z"/>
<path d="M110.1,169.5h21.6v10.8c-14.9,0-27,12.1-27,27v5.4h86.5v-5.4c0-14.9-12.1-27-27-27v-10.8h21.6
	c9,0,16.2-7.3,16.2-16.2v-43.2c0-9-7.3-16.2-16.2-16.2h-75.7c-9,0-16.2,7.3-16.2,16.2v43.2C93.9,162.3,101.1,169.5,110.1,169.5z
	 M179.4,202h-63c2.3-6.5,8.4-10.8,15.3-10.8h32.4C171,191.2,177.1,195.5,179.4,202z M153.3,180.3h-10.8v-10.8h10.8V180.3z
	 M104.7,110.1c0-3,2.4-5.4,5.4-5.4h75.7c3,0,5.4,2.4,5.4,5.4v43.2c0,3-2.4,5.4-5.4,5.4h-75.7c-3,0-5.4-2.4-5.4-5.4V110.1z"/>
<path d="M110.1,374.9h21.6v10.8c-14.9,0-27,12.1-27,27v5.4h86.5v-5.4c0-14.9-12.1-27-27-27v-10.8h21.6
	c9,0,16.2-7.3,16.2-16.2v-43.2c0-9-7.3-16.2-16.2-16.2h-75.7c-9,0-16.2,7.3-16.2,16.2v43.2C93.9,367.6,101.1,374.9,110.1,374.9z
	 M179.4,407.3h-63c2.3-6.5,8.4-10.8,15.3-10.8h32.4C171,396.5,177.1,400.9,179.4,407.3z M153.3,385.7h-10.8v-10.8h10.8V385.7z
	 M104.7,315.4c0-3,2.4-5.4,5.4-5.4h75.7c3,0,5.4,2.4,5.4,5.4v43.2c0,3-2.4,5.4-5.4,5.4h-75.7c-3,0-5.4-2.4-5.4-5.4V315.4z"/>
<path d="M401.9,93.9h-75.7c-9,0-16.2,7.3-16.2,16.2v43.2c0,9,7.3,16.2,16.2,16.2h21.6v10.8c-14.9,0-27,12.1-27,27v5.4
	h86.5v-5.4c0-14.9-12.1-27-27-27v-10.8h21.6c9,0,16.2-7.3,16.2-16.2v-43.2C418.1,101.1,410.9,93.9,401.9,93.9z M395.6,202h-63
	c2.3-6.5,8.4-10.8,15.3-10.8h32.4C387.2,191.2,393.3,195.5,395.6,202z M369.5,180.3h-10.8v-10.8h10.8V180.3z M407.3,153.3
	c0,3-2.4,5.4-5.4,5.4h-75.7c-3,0-5.4-2.4-5.4-5.4v-43.2c0-3,2.4-5.4,5.4-5.4h75.7c3,0,5.4,2.4,5.4,5.4V153.3z"/>
<path d="M401.9,299.2h-75.7c-9,0-16.2,7.3-16.2,16.2v43.2c0,9,7.3,16.2,16.2,16.2h21.6v10.8c-14.9,0-27,12.1-27,27v5.4
	h86.5v-5.4c0-14.9-12.1-27-27-27v-10.8h21.6c9,0,16.2-7.3,16.2-16.2v-43.2C418.1,306.5,410.9,299.2,401.9,299.2z M395.6,407.3h-63
	c2.3-6.5,8.4-10.8,15.3-10.8h32.4C387.2,396.5,393.3,400.9,395.6,407.3z M369.5,385.7h-10.8v-10.8h10.8V385.7z M407.3,358.7
	c0,3-2.4,5.4-5.4,5.4h-75.7c-3,0-5.4-2.4-5.4-5.4v-43.2c0-3,2.4-5.4,5.4-5.4h75.7c3,0,5.4,2.4,5.4,5.4V358.7z"/>
<path d="M364.1,223.6h10.8v10.8h-10.8V223.6z"/>
<path d="M364.1,250.6h10.8v10.8h-10.8V250.6z"/>
<path d="M364.1,277.6h10.8v10.8h-10.8V277.6z"/>
<path d="M137.1,223.6h10.8v10.8h-10.8V223.6z"/>
<path d="M137.1,250.6h10.8v10.8h-10.8V250.6z"/>
<path d="M137.1,277.6h10.8v10.8h-10.8V277.6z"/>
<path d="M277.6,126.3h10.8v10.8h-10.8V126.3z"/>
<path d="M250.6,126.3h10.8v10.8h-10.8V126.3z"/>
<path d="M223.6,126.3h10.8v10.8h-10.8V126.3z"/>
<path d="M277.6,374.9h10.8v10.8h-10.8V374.9z"/>
<path d="M250.6,374.9h10.8v10.8h-10.8V374.9z"/>
<path d="M223.6,374.9h10.8v10.8h-10.8V374.9z"/>
</svg>
