<?xml version="1.0" encoding="utf-8"?>
<!-- Generator: Adobe Illustrator 25.0.1, SVG Export Plug-In . SVG Version: 6.00 Build 0)  -->
<svg version="1.1" fill="#8052FD" id="Layer_1" xmlns="http://www.w3.org/2000/svg" xmlns:xlink="http://www.w3.org/1999/xlink" x="0px" y="0px"
	 viewBox="0 0 509 509" style="enable-background:new 0 0 509 509;" xml:space="preserve">
<g>
	<path d="M206.6,105.6c3.5,0,6.4-2.8,6.4-6.4c0-3.6-2.9-6.4-6.4-6.4s-6.4,2.8-6.4,6.4
		C200.1,102.8,203.1,105.6,206.6,105.6z"/>
	<path d="M230.1,105.6c3.5,0,6.4-2.8,6.4-6.4c0-3.6-2.9-6.4-6.4-6.4s-6.4,2.8-6.4,6.4
		C223.7,102.8,226.5,105.6,230.1,105.6z"/>
	<path d="M280.7,107V91.3c0-1.6-1.3-2.9-2.9-2.9c-1.6,0-2.9,1.3-2.9,2.9V107C274.8,110.9,280.7,110.9,280.7,107z"/>
	<path d="M301.6,109.9c1.6,0,2.9-1.3,2.9-2.9V91.3c0-1.6-1.3-2.9-2.9-2.9c-1.6,0-2.9,1.3-2.9,2.9V107
		C298.6,108.8,299.9,109.9,301.6,109.9z"/>
	<path d="M206.6,143.1c3.5,0,6.4-2.8,6.4-6.4c0-3.5-2.8-6.4-6.4-6.4c-3.5,0-6.4,2.8-6.4,6.4
		C200.1,140.2,203.1,143.1,206.6,143.1z"/>
	<path d="M230.1,143.1c3.5,0,6.4-2.8,6.4-6.4c0-3.5-2.8-6.4-6.4-6.4c-3.5,0-6.4,2.8-6.4,6.4
		C223.6,140.2,226.5,143.1,230.1,143.1z"/>
	<path d="M277.8,147.4c1.6,0,2.9-1.3,2.9-2.9v-15.7c0-1.6-1.3-2.9-2.9-2.9c-1.6,0-2.9,1.3-2.9,2.9v15.7
		C274.8,146.2,276.1,147.4,277.8,147.4z"/>
	<path d="M301.5,147.4c1.6,0,2.9-1.3,2.9-2.9v-15.7c0-1.6-1.3-2.9-2.9-2.9c-1.6,0-2.9,1.3-2.9,2.9v15.7
		C298.5,146.2,299.9,147.4,301.5,147.4z"/>
	<path d="M206.6,180.6c3.5,0,6.4-2.8,6.4-6.4c0-3.5-2.8-6.4-6.4-6.4c-3.5,0-6.4,2.8-6.4,6.4
		C200.1,177.7,203.1,180.6,206.6,180.6z"/>
	<path d="M230.1,180.6c3.5,0,6.4-2.8,6.4-6.4c0-3.5-2.8-6.4-6.4-6.4c-3.5,0-6.4,2.8-6.4,6.4
		C223.6,177.7,226.5,180.6,230.1,180.6z"/>
	<path d="M277.8,184.9c1.6,0,2.9-1.3,2.9-2.9v-15.7c0-1.6-1.3-2.9-2.9-2.9c-1.6,0-2.9,1.3-2.9,2.9V182
		C274.8,183.6,276.1,184.9,277.8,184.9z"/>
	<path d="M301.5,184.9c1.6,0,2.9-1.3,2.9-2.9v-15.7c0-1.6-1.3-2.9-2.9-2.9c-1.6,0-2.9,1.3-2.9,2.9V182
		C298.5,183.6,299.9,184.9,301.5,184.9z"/>
	<path d="M89.6,259.1c3.5,0,6.4-2.8,6.4-6.4c0-3.5-2.8-6.4-6.4-6.4c-3.5,0-6.4,2.8-6.4,6.4
		C83.1,256.3,86.1,259.1,89.6,259.1z"/>
	<path d="M113.1,259.1c3.5,0,6.4-2.8,6.4-6.4c0-3.5-2.8-6.4-6.4-6.4c-3.5,0-6.4,2.8-6.4,6.4
		C106.7,256.3,109.5,259.1,113.1,259.1z"/>
	<path d="M160.8,263.5c1.6,0,2.9-1.3,2.9-2.9v-15.7c0-1.6-1.3-2.9-2.9-2.9c-1.6,0-2.9,1.3-2.9,2.9v15.7
		C157.9,262.2,159.1,263.5,160.8,263.5z"/>
	<path d="M184.5,263.5c1.6,0,2.9-1.3,2.9-2.9v-15.7c0-1.6-1.3-2.9-2.9-2.9s-2.9,1.3-2.9,2.9v15.7
		C181.5,262.2,182.9,263.5,184.5,263.5z"/>
	<path d="M89.6,296.6c3.5,0,6.4-2.8,6.4-6.4s-2.8-6.5-6.4-6.5s-6.4,2.8-6.4,6.4S86,296.6,89.6,296.6z"/>
	<path d="M113.1,296.6c3.5,0,6.4-2.8,6.4-6.4s-2.8-6.4-6.4-6.4s-6.4,2.8-6.4,6.4S109.5,296.6,113.1,296.6z"/>
	<path d="M160.7,300.9c1.6,0,2.9-1.3,2.9-2.9v-15.7c0-1.6-1.3-2.9-2.9-2.9s-2.9,1.3-2.9,2.9V298
		C157.8,299.7,159.1,300.9,160.7,300.9z"/>
	<path d="M184.5,300.9c1.6,0,2.9-1.3,2.9-2.9v-15.7c0-1.6-1.3-2.9-2.9-2.9s-2.9,1.3-2.9,2.9V298
		C181.5,299.7,182.9,300.9,184.5,300.9z"/>
	<path d="M89.6,321.1c-3.5,0-6.4,2.8-6.4,6.4s2.8,6.4,6.4,6.4c3.5,0,6.4-2.8,6.4-6.4S93.1,321.1,89.6,321.1z"/>
	<path d="M113.1,321.1c-3.5,0-6.4,2.8-6.4,6.4s2.8,6.4,6.4,6.4c3.5,0,6.4-2.8,6.4-6.4S116.6,321.1,113.1,321.1z"/>
	<path d="M160.7,316.8c-1.6,0-2.9,1.3-2.9,2.9v15.7c0,3.9,5.9,3.9,5.9,0v-15.7C163.6,318.1,162.4,316.8,160.7,316.8z"/>
	<path d="M184.5,316.8c-1.6,0-2.9,1.3-2.9,2.9v15.7c0,1.6,1.3,2.9,2.9,2.9s2.9-1.3,2.9-2.9v-15.7
		C187.4,318.1,186.1,316.8,184.5,316.8z"/>
	<path d="M323.6,246.3c-3.5,0-6.4,2.8-6.4,6.4c0,3.5,2.8,6.4,6.4,6.4c3.5,0,6.4-2.8,6.4-6.4
		C330,249.2,327.2,246.3,323.6,246.3z"/>
	<path d="M347.1,246.3c-3.5,0-6.4,2.8-6.4,6.4c0,3.5,2.8,6.4,6.4,6.4s6.4-2.8,6.4-6.4
		C353.6,249.2,350.7,246.3,347.1,246.3z"/>
	<path d="M391.8,244.8v15.7c0,3.9,5.9,3.9,5.9,0v-15.7C397.7,240.9,391.8,240.9,391.8,244.8z"/>
	<path d="M418.5,241.9c-1.6,0-2.9,1.3-2.9,2.9v15.7c0,1.6,1.3,2.9,2.9,2.9c1.6,0,2.9-1.3,2.9-2.9v-15.7
		C421.5,243.3,420.2,241.9,418.5,241.9z"/>
	<path d="M323.6,283.7c-3.5,0-6.4,2.8-6.4,6.4s2.8,6.4,6.4,6.4s6.4-2.8,6.4-6.4S327.2,283.7,323.6,283.7z"/>
	<path d="M347.1,283.7c-3.5,0-6.4,2.8-6.4,6.4s2.8,6.4,6.4,6.4c3.5,0,6.4-2.8,6.4-6.4S350.7,283.7,347.1,283.7z"/>
	<path d="M391.8,282.2v15.7c0,3.9,5.9,3.9,5.9,0v-15.7C397.7,278.3,391.8,278.3,391.8,282.2z"/>
	<path d="M418.5,279.3c-1.6,0-2.9,1.3-2.9,2.9v15.7c0,1.6,1.3,2.9,2.9,2.9c1.6,0,2.9-1.3,2.9-2.9v-15.7
		C421.5,280.7,420.2,279.3,418.5,279.3z"/>
	<path d="M442,241.3c0-5.7-4.6-10.3-10.3-10.3h-22.1c-9.1-50.3-42-92.5-86.8-114.1c1.3-1.8,2.2-3.9,2.2-6.4V87.9
		c0-5.7-4.6-10.3-10.3-10.3H194.6c-5.7,0-10.3,4.6-10.3,10.3v22.7c0,2.3,0.8,4.6,2.2,6.3c-44.7,21.5-77.8,63.7-86.9,114.1H77.5
		c-5.7,0-10.3,4.6-10.3,10.3v22.7c0,2.8,1.2,5.5,3.1,7.3c-1.9,1.9-3.1,4.5-3.1,7.3v22.7c0,2.8,1.2,5.5,3.1,7.3
		c-1.9,1.9-3.1,4.5-3.1,7.3V339c0,5.7,4.6,10.3,10.3,10.3h48.3c28.5,40.5,75.6,67.1,128.8,67.1s100.3-26.5,128.8-67.1h48.3
		c5.7,0,10.3-4.6,10.3-10.3v-22.7c0-2.8-1.2-5.5-3.1-7.3c1.9-1.9,3.1-4.5,3.1-7.3v-22.7c0-2.8-1.2-5.5-3.1-7.3
		c1.9-1.9,3.1-4.5,3.1-7.3L442,241.3L442,241.3z M403.6,231H384c-7.6-35.4-29.4-65.6-59.1-84.3v-21.4c0-0.3,0-0.5-0.1-0.7
		C365.4,145.8,395,184.7,403.6,231z M190.2,87.9c0-2.4,2-4.4,4.4-4.4h120.1c2.4,0,4.4,2,4.4,4.4v22.7c0,1.6-0.8,2.8-2,3.7
		c-0.7,0.4-1.6,0.7-2.4,0.7c-24.3,0-95.9,0-120.1,0c-0.9,0-1.8-0.3-2.4-0.7c-1.2-0.8-2-2.2-2-3.7L190.2,87.9L190.2,87.9z
		 M190.1,143.2v-18c0-2.4,2-4.4,4.4-4.4h120.1c2.4,0,4.4,2,4.4,4.4V148c0,0.6-0.1,1.2-0.4,1.8c-0.7,1.6-2.2,2.6-4,2.6H194.5
		c-1.9,0-3.4-1.1-4-2.6c-0.2-0.5-0.4-1.1-0.4-1.8L190.1,143.2L190.1,143.2z M190.1,162.8c0-2.4,2-4.4,4.4-4.4h120.1
		c2.4,0,4.4,2,4.4,4.4v22.7c0,2.4-2,4.4-4.4,4.4H194.5c-2.4,0-4.4-2-4.4-4.4L190.1,162.8L190.1,162.8z M187.3,155.4
		c-1.9,1.9-3.1,4.5-3.1,7.3v22.7c0,5.7,4.6,10.3,10.3,10.3h120.1c5.7,0,10.3-4.6,10.3-10.3v-22.7c0-2.8-1.2-5.5-3.1-7.3
		c0.7-0.7,1.4-1.6,1.9-2.5c27.1,17.7,47,45.6,54.3,78.1h-66.4c-5.7,0-10.3,4.6-10.3,10.3v22.7c0,2.8,1.2,5.5,3.1,7.3
		c-1.9,1.9-3.1,4.5-3.1,7.3v22.7c0,2.8,1.2,5.5,3.1,7.3c-1.9,1.9-3.1,4.5-3.1,7.3V339c0,5.7,4.6,10.3,10.3,10.3H343
		c-22.8,22.3-53.9,36.1-88.4,36.1s-65.5-13.8-88.4-36.1h31.3c5.7,0,10.3-4.6,10.3-10.3v-22.7c0-2.8-1.2-5.5-3.1-7.3
		c1.9-1.9,3.1-4.5,3.1-7.3v-22.7c0-2.8-1.2-5.5-3.1-7.3c1.9-1.9,3.1-4.5,3.1-7.3v-22.7c0-5.7-4.6-10.3-10.3-10.3h-66.4
		c7.3-32.5,27.2-60.4,54.3-78.1C186,153.9,186.6,154.7,187.3,155.4z M184.4,124.5c0,0.2-0.1,0.5-0.1,0.7v21.4
		c-29.8,18.7-51.5,48.9-59.1,84.3h-19.6C114.3,184.7,143.9,145.9,184.4,124.5z M73.1,241.3c0-2.4,2-4.4,4.4-4.4h120.1
		c2.4,0,4.4,2,4.4,4.4v22.7c0,2.4-2,4.4-4.4,4.4c-24.2,0-96,0-120.1,0c-2.4,0-4.4-2-4.4-4.4C73.1,264.1,73.1,241.3,73.1,241.3z
		 M73.1,278.8c0-2.4,2-4.4,4.4-4.4h120.1c2.4,0,4.4,2,4.4,4.4v22.7c0,2.4-2,4.4-4.4,4.4c-41.7,0-77.2,0-120.1,0
		c-2.4,0-4.4-2-4.4-4.4C73.1,301.5,73.1,278.8,73.1,278.8z M77.5,343.4c-2.4,0-4.4-2-4.4-4.4v-22.7c0-2.4,2-4.4,4.4-4.4h120.1
		c2.4,0,4.4,2,4.4,4.4v22.7c0,2.4-2,4.4-4.4,4.4C159.7,343.4,112.6,343.4,77.5,343.4z M254.6,410.4c-49.7,0-94-24.1-121.6-61.2h25
		c24.2,25.7,58.5,42,96.6,42s72.4-16.2,96.6-42h25C348.6,386.4,304.3,410.4,254.6,410.4z M436.1,338.9c0,2.4-2,4.4-4.4,4.4
		c-24.6,0-93.7,0-120.1,0c-2.4,0-4.4-2-4.4-4.4v-22.7c0-2.4,2-4.4,4.4-4.4h120.1c2.4,0,4.4,2,4.4,4.4V338.9z M436.1,301.5
		c0,2.4-2,4.4-4.4,4.4c-22.4,0-92,0-120.1,0c-2.4,0-4.4-2-4.4-4.4v-22.7c0-2.4,2-4.4,4.4-4.4h120.1c2.4,0,4.4,2,4.4,4.4V301.5z
		 M436.1,264.1c0,2.4-2,4.4-4.4,4.4c-24.2,0-95.9,0-120.1,0c-2.4,0-4.4-2-4.4-4.4v-22.7c0-2.4,2-4.4,4.4-4.4h120.1
		c2.4,0,4.4,2,4.4,4.4V264.1z"/>
	<path d="M323.6,321.1c-3.5,0-6.4,2.8-6.4,6.4s2.8,6.4,6.4,6.4s6.4-2.8,6.4-6.4S327.2,321.1,323.6,321.1z"/>
	<path d="M347.1,321.1c-3.5,0-6.4,2.8-6.4,6.4s2.8,6.4,6.4,6.4c3.5,0,6.4-2.8,6.4-6.4S350.7,321.1,347.1,321.1z"/>
	<path d="M394.8,316.8c-1.6,0-2.9,1.3-2.9,2.9v15.7c0,1.6,1.3,2.9,2.9,2.9c1.6,0,2.9-1.3,2.9-2.9v-15.7
		C397.7,318.1,396.4,316.8,394.8,316.8z"/>
	<path d="M418.5,316.8c-1.6,0-2.9,1.3-2.9,2.9v15.7c0,1.6,1.3,2.9,2.9,2.9c1.6,0,2.9-1.3,2.9-2.9v-15.7
		C421.5,318.1,420.2,316.8,418.5,316.8z"/>
</g>
</svg>
