<?xml version="1.0" encoding="utf-8"?>
<!-- Generator: Adobe Illustrator 25.0.1, SVG Export Plug-In . SVG Version: 6.00 Build 0)  -->
<svg version="1.1" fill="#8052FD" id="Layer_1" xmlns="http://www.w3.org/2000/svg" xmlns:xlink="http://www.w3.org/1999/xlink" x="0px" y="0px"
	 viewBox="0 0 512 512" style="enable-background:new 0 0 512 512;" xml:space="preserve">

	
	


<g>
	<path d="M386.4,248h21.2c-0.1-1.4-0.1-2.7-0.2-4.1c-5.4-73.7-62.8-133.2-136.4-141.4l-6.5-0.7V66.6
		c0-3.2-3.9-4.8-6.1-2.6l-43.4,43.4c-2.4,2.4-2.4,6.3,0,8.7l43.4,43.4c2.3,2.3,6.1,0.7,6.1-2.6v-34.4l8.4,1.2
		c61.2,8.9,109,60,113.4,121.5C386.3,246.3,386.4,247.1,386.4,248z"/>
	<path d="M86,347.1l59.3,15.9c3.3,0.9,6.7-1.1,7.6-4.3l15.9-59.3c0.8-3.1-2.5-5.7-5.3-4l-29.8,17.3l-3.2-7.9
		c-6.3-15.9-9.6-32.5-9.6-49.3c0-44.8,22.9-86.8,60.1-111.2l-10.6-18.4c-43.7,28.2-70.7,77.2-70.7,129.5c0,21,4.4,41.8,13,61.6
		l2.6,6l-30.4,17.6C82.3,342.1,82.9,346.3,86,347.1z"/>
	<path d="M190.7,395.7c18.8,8.5,38.9,13,59.8,13.5c51.2,1.1,99.2-24.6,129.6-65.8l1.5-2.1l30.4,17.5
		c2.8,1.6,6.1-1,5.3-4l-15.9-59.3c-0.9-3.3-4.3-5.2-7.6-4.3l-59.5,15.9c-3.1,0.8-3.6,5-0.9,6.5l29.7,17.2l-5.2,6.7
		c-25.4,32.3-63.4,50.8-104.2,50.8c-18.7,0-36.7-3.7-53.5-11.2L190.7,395.7z"/>
</g>
</svg>
