<?xml version="1.0" encoding="utf-8"?>
<!-- Generator: Adobe Illustrator 25.0.1, SVG Export Plug-In . SVG Version: 6.00 Build 0)  -->
<svg version="1.1" fill="#8052FD" id="Layer_1" xmlns="http://www.w3.org/2000/svg" xmlns:xlink="http://www.w3.org/1999/xlink" x="0px" y="0px"
	 viewBox="0 0 496 496" style="enable-background:new 0 0 496 496;" xml:space="preserve">

	
	


<path d="M229,348.5h14.2v31c0,29,23.6,52.6,52.6,52.6c20.3,0,39-12,47.7-30.5l0.2-0.5l0.8-0.2
	c29.9-6.1,51.7-32.7,51.7-63.3c0-7.4-1.3-14.6-3.8-21.6l-0.3-0.9l0.8-0.5c24.1-13.6,39.1-39.1,39.1-66.7c0-25-12.2-48.3-32.7-62.7
	l-0.9-0.6l0.6-0.9c6-9.4,9.1-20.3,9.1-31.3c0-32.4-26.3-58.6-58.6-58.6c-1.7,0-3.5,0.1-5.4,0.3l-0.8,0.1l-0.4-0.7
	C334.2,75.6,315.6,64,295.8,64c-29,0-52.6,23.6-52.6,52.6v31H229v-23.9h-9.7v23.9h-26.1v-23.9h-9.7v23.9h-26.2v-23.9h-9.7v23.9
	h-26.1v-23.9h-9.7v23.9h-3.1l-20.7,20.7v3.1H64v9.7h23.9v26.1H64v9.7h23.9v26.2H64v9.7h23.9V279H64v9.7h23.9v26.2H64v9.7h23.9v23.9
	h23.9v23.9h9.7v-23.9h26.2v23.9h9.7v-23.9h26.2v23.9h9.7v-23.9h26.1v23.9h9.7v-24H229z M295.8,422.4c-23.7,0-42.9-19.2-42.9-42.9
	v-66.8h10.6l5.1-15.2l14.3,7.2l21.9-21.9l-7.2-14.3l15.2-5.1v-30.9l-15.2-5.1l7.2-14.3l-21.9-21.9l-14.3,7.2l-5.1-15.2h-10.6v-66.7
	c0-23.7,19.2-42.9,42.9-42.9c17.6,0,33.7,11.1,40,27.6l1.4,3.7l3.9-0.7c3-0.5,5.7-0.8,8.4-0.8c27,0,48.9,21.9,48.9,48.9
	c0,26.6-21.3,48.3-47.8,48.9v9.7c15.5-0.3,30.1-6.6,41-17.9l0.7-0.7l0.8,0.5c18.3,12.5,29.2,33.1,29.2,55
	c0,25.7-15.1,49.5-38.5,60.4l-4.4,2l2,4.4c3.3,7.2,5,14.9,5,22.8c0,23.5-15,44.4-37.4,52l-1.8,0.6l0.3-1.9c0.5-3.2,0.8-6.1,0.8-8.9
	c0-8.9-2.3-17.6-6.5-25.3l-8.4,4.8c3.4,6.3,5.2,13.3,5.2,20.5C338.7,403.1,319.4,422.4,295.8,422.4z M243.2,338.7H97.6V172.4
	l15.1-15.1h130.5v26.2h-10.6l-5.1,15.2l-14.3-7.2l-21.9,21.9l7.2,14.3l-15.2,5.1v30.9l15.2,5.1l-7.2,14.3l21.9,21.9l14.3-7.2
	l5.1,15.2h10.6V338.7z M256.4,302.9h-16.9l-4.7-14l-2.1-0.8c-0.8-0.3-1.6-0.6-2.3-0.9l-2.1-1l-13.2,6.6l-11.9-11.9l6.6-13.2
	l-0.9-2.1c-0.3-0.7-0.6-1.4-1-2.3l-0.8-2.2l-14-4.7v-16.9l14-4.7l0.8-2.3c0.3-0.8,0.6-1.5,0.9-2.2l0.9-2.1l-6.6-13.2l11.9-11.9
	l13.2,6.6l2.1-0.9c0.7-0.3,1.4-0.6,2.3-0.9l2.2-0.8l4.7-14h16.9l4.7,14l2.2,0.8c0.9,0.4,1.7,0.7,2.3,0.9l2.1,0.9l13.2-6.6l11.9,11.9
	l-6.6,13.2l0.9,2.1c0.3,0.7,0.6,1.4,0.8,2.1l0.9,2.4l14,4.7v16.9l-14,4.7l-0.8,2.1c-0.3,0.8-0.6,1.6-0.9,2.3l-1,2.1l6.6,13.2
	l-11.9,11.9l-13.2-6.6l-2.1,0.9c-0.7,0.3-1.4,0.6-2.3,1L261,289L256.4,302.9z M267.1,115.5h9.7c0.5-9.6,8.3-17.3,17.9-17.9v-9.7
	C279.7,88.4,267.6,100.5,267.1,115.5z M374.5,151.3h9.7c-0.6-18.2-15.3-33-33.6-33.6v9.7C363.5,128,373.9,138.4,374.5,151.3z
	 M327.6,278.6c5.4,4.9,12.2,7.6,19.5,7.6c7.7,0,14.9-3,20.3-8.4c5.4-5.4,8.4-12.7,8.4-20.3c0-7.3-2.7-14.2-7.6-19.5l-6.9,6.9
	c3.1,3.5,4.8,7.9,4.8,12.7c0,5.1-2,9.9-5.6,13.4c-6.9,6.9-18.9,7.2-26.1,0.8L327.6,278.6z M267.1,380.5c0.6,14.9,12.7,27,27.6,27.6
	v-9.7c-9.6-0.5-17.3-8.3-17.9-17.9H267.1z M302.9,177.4v9.7c15.3-0.6,27.6-13.3,27.6-28.7s-12.3-28.1-27.6-28.7v9.7
	c10,0.6,17.9,8.9,17.9,19C320.8,168.5,312.9,176.8,302.9,177.4z M248,219.3c-15.8,0-28.7,12.9-28.7,28.7s12.9,28.7,28.7,28.7
	s28.7-12.9,28.7-28.7S263.8,219.3,248,219.3z M248,267c-10.5,0-19-8.5-19-19c0-10.5,8.5-19,19-19s19,8.5,19,19
	C267,258.5,258.5,267,248,267z M159.5,181.2H217v-9.7h-57.5V181.2z M111.7,324.6H217v-9.7h-95.5v-95.5h-9.7V324.6z M128.6,171.5
	c-9.3,0-16.8,7.5-16.8,16.8s7.5,16.8,16.8,16.8c9.3,0,16.8-7.5,16.8-16.8S137.8,171.5,128.6,171.5z M128.6,196.9
	c-4.8,0-8.6-3.8-8.6-8.6s3.8-8.6,8.6-8.6s8.6,3.8,8.6,8.6S133.3,196.9,128.6,196.9z"/>
</svg>
