<?xml version="1.0" encoding="utf-8"?>
<!-- Generator: Adobe Illustrator 25.0.1, SVG Export Plug-In . SVG Version: 6.00 Build 0)  -->
<svg version="1.1" fill="#8052FD" id="Capa_1" xmlns="http://www.w3.org/2000/svg" xmlns:xlink="http://www.w3.org/1999/xlink" x="0px" y="0px"
	 viewBox="0 0 511.9 511.9" style="enable-background:new 0 0 511.9 511.9;" xml:space="preserve">

	
	


<g>
	<g>
		<path d="M212.4,354.5c-2.1-1.7-4.4-3-7-3.8c-2.6-0.9-5.3-1.3-8-1.3h-18.1v63.1h10.2v-22.8h7.7c3.3,0,6.3-0.5,9.1-1.5
			c2.8-0.9,5.1-2.3,7-4.1c2-1.8,3.5-3.9,4.5-6.5c1.1-2.6,1.6-5.5,1.6-8.7c0-3-0.7-5.7-2-8.2C216.2,358.3,214.5,356.2,212.4,354.5z
			 M208.5,375.3c-0.7,1.7-1.5,3.1-2.5,4.1c-1,0.9-2.2,1.7-3.4,2.1c-1.2,0.4-2.5,0.7-3.7,0.7h-9.4v-25h7.7c2.6,0,4.7,0.4,6.3,1.2
			c1.6,0.8,2.8,1.9,3.7,3c0.9,1.2,1.5,2.5,1.7,3.8c0.3,1.3,0.4,2.5,0.4,3.6C209.5,371.4,209.2,373.6,208.5,375.3z"/>
		<path d="M189.7,412.6h-10.6v-63.4h18.3c2.7,0,5.4,0.4,8,1.3c2.6,0.9,5,2.2,7.1,3.8l0,0c2.1,1.7,3.8,3.8,5.1,6.2
			c1.3,2.5,2,5.2,2,8.3c0,3.2-0.6,6.2-1.7,8.8s-2.6,4.9-4.6,6.6c-2,1.7-4.4,3.2-7,4.1c-2.8,0.9-5.8,1.5-9.1,1.5h-7.4L189.7,412.6
			L189.7,412.6z M179.5,412.2h9.9v-22.8h7.8c3.3,0,6.3-0.5,9-1.5c2.7-0.9,5-2.3,7-4.1c1.9-1.7,3.4-3.9,4.5-6.5
			c1.1-2.5,1.6-5.4,1.6-8.6c0-3-0.7-5.7-1.9-8.1c-1.2-2.4-3-4.4-5-6.2l0,0c-2.1-1.7-4.4-3-7-3.8c-2.6-0.9-5.2-1.3-7.9-1.3h-17.9
			L179.5,412.2L179.5,412.2z M198.9,382.3h-9.6V357h7.9c2.6,0,4.8,0.4,6.4,1.2c1.6,0.9,2.9,1.9,3.8,3.1c0.9,1.2,1.5,2.5,1.8,3.9
			s0.4,2.5,0.4,3.6c0,2.6-0.3,4.8-0.9,6.5l0,0c-0.7,1.8-1.5,3.1-2.5,4.1c-1,1-2.2,1.7-3.4,2.1C201.5,382.1,200.2,382.3,198.9,382.3z
			 M189.7,382h9.2c1.2,0,2.5-0.2,3.6-0.7c1.2-0.4,2.3-1.1,3.3-2c1-0.9,1.8-2.3,2.5-4c0.6-1.7,0.9-3.8,0.9-6.4c0-1-0.1-2.2-0.4-3.5
			c-0.3-1.3-0.9-2.6-1.7-3.8c-0.9-1.2-2.1-2.3-3.6-3c-1.6-0.8-3.7-1.2-6.2-1.2h-7.5V382z"/>
	</g>
	<g>
		<path d="M274.4,358.6c-2.7-2.8-6-5-10-6.7c-4-1.7-8.7-2.5-14-2.5h-19v63.1h23.9c0.8,0,2-0.1,3.7-0.3
			c1.7-0.2,3.5-0.7,5.4-1.4c2-0.7,4.1-1.8,6.2-3.2c2.1-1.4,4.1-3.4,5.8-5.9c1.7-2.5,3.1-5.6,4.2-9.2c1.1-3.6,1.7-8.1,1.7-13.3
			c0-3.8-0.7-7.4-2-11C279.1,364.6,277.1,361.4,274.4,358.6z M266.9,398.2c-3,4.4-8.1,6.7-15,6.7h-10.2v-47.8h6c4.9,0,8.9,0.7,12,2
			c3,1.3,5.5,3,7.3,5.1c1.8,2.1,3,4.4,3.6,7c0.7,2.5,0.9,5.2,0.9,7.8C271.6,387.3,270.1,393.8,266.9,398.2z"/>
		<path d="M255.3,412.6h-24v-63.4h19.2c5.3,0,10,0.9,14.1,2.5c4,1.7,7.4,3.9,10.1,6.8l0,0c2.6,2.8,4.6,6,6,9.6
			c1.3,3.6,2,7.3,2,11c0,5.2-0.6,9.7-1.7,13.4c-1.1,3.7-2.5,6.8-4.3,9.3c-1.7,2.5-3.7,4.5-5.8,5.9c-2.2,1.5-4.2,2.5-6.2,3.3
			c-2,0.7-3.8,1.2-5.5,1.4C257.4,412.5,256.1,412.6,255.3,412.6z M231.7,412.2h23.7c0.8,0,2-0.1,3.6-0.3c1.7-0.2,3.5-0.7,5.4-1.4
			c2-0.7,4.1-1.7,6.2-3.2c2.1-1.4,4.1-3.3,5.7-5.8c1.7-2.5,3.1-5.5,4.2-9.2c1.1-3.6,1.7-8.1,1.7-13.3c0-3.7-0.7-7.4-2-11
			c-1.3-3.6-3.3-6.8-5.9-9.4l0,0c-2.6-2.8-6-5-9.9-6.7s-8.7-2.5-13.9-2.5h-18.8L231.7,412.2L231.7,412.2z M251.9,405h-10.4v-48.1
			h6.2c4.9,0,8.9,0.7,12.1,2c3.1,1.3,5.6,3,7.4,5.1c1.8,2.1,3,4.4,3.7,7c0.7,2.5,0.9,5.2,0.9,7.8c0,8.4-1.6,15-4.6,19.5l0,0
			C264,402.8,258.9,405,251.9,405z M241.9,404.7h10c6.9,0,11.9-2.3,14.9-6.6l0,0c3-4.4,4.6-10.9,4.6-19.2c0-2.6-0.3-5.2-0.9-7.8
			c-0.7-2.5-1.8-4.9-3.6-6.9c-1.7-2-4.2-3.7-7.3-5c-3-1.2-7-1.9-11.9-1.9h-5.8L241.9,404.7L241.9,404.7z"/>
	</g>
	<g>
		<polygon points="297.2,412.4 307.7,412.4 307.7,384 334,384 334,377 307.7,377 307.7,357.1 336.7,357.1 336.7,349.4 
			297.2,349.4 		"/>
		<path d="M307.9,412.6h-10.8v-63.4h39.8v8.1h-29v19.5h26.4v7.4h-26.4V412.6z M297.4,412.2h10.1v-28.4h26.4v-6.7h-26.4
			V357h29v-7.4h-39.1V412.2z"/>
	</g>
</g>
<path d="M130.5,75.6c-6.9,0-14.3,5.4-14.3,17.2v332.1c0,4.6,4.7,9.4,10.7,10.9c0.1,0,0.3,0.1,0.4,0.1s0.3,0.1,0.4,0.1
	c0.9,0.2,1.9,0.3,2.8,0.3h250.8c0.9,0,1.8-0.1,2.8-0.3c0.1,0,0.3-0.1,0.4-0.1s0.3-0.1,0.4-0.1c6-1.5,10.7-6.3,10.7-10.9V162
	c0-4.5-0.5-7.8-3.1-10.5l-72.8-72.8c-2-2-4.7-3.1-7.5-3.1H130.5z M381.4,426H130.5c-0.6,0-1.1-0.2-1.5-0.4l-0.2-0.1
	c-1.4-0.7-2.3-2-2.3-3.6V330h258.7V422c0,1.5-0.9,2.9-2.3,3.6l-0.2,0.1C382.4,425.9,381.9,426,381.4,426z M385.4,319.7H126.5V92.8
	c0-4.3,1.5-6.9,4-6.9h180.4l-0.4,1.4c-0.2,0.9-0.4,1.5-0.4,2.2V161h71.6c0.7,0,1.3-0.1,2.2-0.4l1.4-0.4v1.4c0,0.1,0,0.1,0,0.2V319.7
	z M377.1,150.7h-56.5V94.2L377.1,150.7z M256.6,125c-1.2,0-4.7,0.6-6,1c-2.8,0.9-4.7,3-6.5,7c-4.3,10.1,1.9,27.7,7.9,40.7l0.1,0.4
	l-0.1,0.4c-5.4,21.4-14.3,46.7-23.7,67.4l-0.1,0.4l-0.4,0.1c-23.4,10.7-35.7,21.1-36.8,30.9c-0.4,3.4,0.4,8.5,6.5,13.1
	c1.6,1.2,3.5,1.8,5.4,1.8c5.1,0,10.3-4.1,16.6-12.7c4.6-6.5,9.6-15.4,14.8-26.4l0.1-0.4l0.4-0.1c16.8-7.3,37.5-14,55.5-17.7l0.6-0.1
	l0.4,0.4c9.7,9.3,18.3,14,25.6,14c5.2,0,9.7-2.4,13-7c3.3-4.7,4.1-8.9,2.3-12.4c-2.2-4.3-7.8-6.4-17.2-6.4c-5.7,0-12.7,0.7-20.8,2.3
	l-0.6,0.1l-0.4-0.4c-11.5-12.3-23.5-30.1-32-47.6l-0.1-0.4l0.1-0.4c8.2-34.5,4.3-39.5,2.6-41.6c-0.2-0.3-0.4-0.6-0.7-0.9
	C261.2,128.2,258.8,125,256.6,125z M202.8,280l-0.4-0.4c-3-2.3-3.3-4.1-3.1-5.3c0.5-4.6,7.7-11.3,19.7-18l3.3-1.8l-1.8,3.3
	c-10.1,18.6-15.7,21.6-17.1,22L202.8,280z M239.4,237.5l1-2.4c6.3-15,12.3-31.8,16.7-47.2l0.7-2.5l1.3,2.3
	c7,12.6,15.5,24.8,23.8,34.5l1.2,1.4l-1.7,0.4c-13.4,3.1-27.4,7.5-40.5,12.6L239.4,237.5z M314.5,236.4c-2.9,0-4.5-1.3-7.1-3.6
	c-0.9-0.7-2-1.6-3.2-2.6l-2.1-1.6l2.6-0.4c3.6-0.4,7.4-0.7,11.5-0.7c5,0,6.5,0.7,7.7,1.3l0.9,0.5l-0.3,0.9c-0.1,0.6-0.6,1.5-1.6,2.9
	l0,0C321.5,235.3,318.6,236.4,314.5,236.4z M255.3,157.3l-1.1-1.2c-5.1-5.2-5-10.8-4.1-14.6c0.8-3.5,2.9-7,3.9-7.3l0,0
	c0.7-0.2,1.2,0.4,1.5,0.6c0.3,0.3,6.5,7.5,0.4,21.1L255.3,157.3z"/>
</svg>
