<?xml version="1.0" encoding="utf-8"?>
<!-- Generator: Adobe Illustrator 25.0.1, SVG Export Plug-In . SVG Version: 6.00 Build 0)  -->
<svg version="1.1" fill="#8052FD" id="Capa_1" xmlns="http://www.w3.org/2000/svg" xmlns:xlink="http://www.w3.org/1999/xlink" x="0px" y="0px"
	 viewBox="0 0 501.2 501.2" style="enable-background:new 0 0 501.2 501.2;" xml:space="preserve">

	
	


<path d="M379.5,415H121.6c-1.4,0-2.5-1.1-2.5-2.5v-14.9c0-1.4,1.1-2.5,2.5-2.5h35.9V256.4
	c-53-12.5-94.2-35.6-122.5-68.8c-0.4-0.5-0.6-1-0.6-1.6v-10c0-1.4,1.1-2.5,2.5-2.5c0.2,0,0.5,0,0.7,0.1h426.7c1.4,0,2.5,1.1,2.5,2.5
	v10c0,0.6-0.2,1.2-0.6,1.6c-28.2,33.2-69.5,56.3-122.6,68.8v138.6h35.9c1.4,0,2.5,1.1,2.5,2.5v14.9C382,413.9,380.9,415,379.5,415z
	 M124.1,410H377v-9.9h-35.9c-1.4,0-2.5-1.1-2.5-2.5V256c-0.3-0.3-0.4-0.8-0.5-1.2c-0.1-1.3,0.7-2.4,1.9-2.7
	c52.8-12,93.8-34.6,121.8-67v-6.6H39.4v6.5c28,32.4,68.9,55,121.7,67c1.2,0.3,2.1,1.5,1.9,2.7c-0.1,0.5-0.2,0.9-0.5,1.2v141.6
	c0,1.4-1.1,2.5-2.5,2.5h-35.9V410z M289.5,400.1h-77.8c-1.4,0-2.5-1.1-2.5-2.5V275c0-1.4,1.1-2.5,2.5-2.5h77.8
	c1.4,0,2.5,1.1,2.5,2.5v122.7C292,399,290.9,400.1,289.5,400.1z M214.2,395.1H287V277.5h-72.8L214.2,395.1L214.2,395.1z
	 M331.1,393.9h-27.2c-1.4,0-2.5-1.1-2.5-2.5v-84.9c0-1.4,1.1-2.5,2.5-2.5h27.2c1.4,0,2.5,1.1,2.5,2.5v84.9
	C333.6,392.8,332.5,393.9,331.1,393.9z M306.4,388.9h22.2V309h-22.2V388.9z M197.3,393.9h-27.6c-1.4,0-2.5-1.1-2.5-2.5v-84.9
	c0-1.4,1.1-2.5,2.5-2.5h27.6c1.4,0,2.5,1.1,2.5,2.5v84.9C199.8,392.8,198.7,393.9,197.3,393.9z M172.2,388.9h22.6V309h-22.6V388.9z
	 M258.7,250.9c-3.2,0-5.8-0.1-7.8-0.1h-0.8c-3.5,0.1-11.1,0.3-21.3-0.2c-1.3-0.1-2.4-1.2-2.4-2.5l0.1-16.7c0-1.4,1.1-2.5,2.5-2.5
	h43.3c1.4,0,2.5,1.1,2.5,2.5v16.7c0,1.3-1,2.4-2.4,2.5C267.1,250.9,262.5,250.9,258.7,250.9z M250.6,245.9h0.4
	c4.1,0.1,10.5,0.2,18.8-0.1v-11.8h-38.3l-0.1,11.8c8.8,0.3,15.4,0.2,18.6,0.1H250.6z M281.6,250.2c-0.6,0-1.2-0.2-1.7-0.7
	s-0.8-1.1-0.8-1.8v-16.2c0-1.4,1.1-2.5,2.5-2.5h43.2c1.4,0,2.5,1.1,2.5,2.5v10.4c0,1.2-0.8,2.2-2,2.5c-14.9,2.9-29.5,4.9-43.5,5.8
	C281.7,250.2,281.7,250.2,281.6,250.2z M284.1,233.9v11c12.4-1,25.2-2.7,38.2-5.2v-5.8H284.1z M219.5,250.2c-0.1,0-0.1,0-0.2,0
	c-14.9-1-29.6-3-43.5-5.8c-1.2-0.2-2-1.3-2-2.4v-10.5c0-1.4,1.1-2.5,2.5-2.5h43.2c1.4,0,2.5,1.1,2.5,2.5v16.2c0,0.7-0.3,1.4-0.8,1.8
	C220.7,249.9,220.1,250.2,219.5,250.2z M178.8,239.9c12.3,2.4,25.1,4.2,38.2,5.2v-11h-38.2V239.9z M334.3,242.4
	c-0.6,0-1.1-0.2-1.6-0.6c-0.6-0.5-0.9-1.2-0.9-1.9v-8.4c0-1.4,1.1-2.5,2.5-2.5h29.5c1.2,0,2.3,0.9,2.5,2.1s-0.5,2.4-1.6,2.8
	c-9.8,3.4-19.8,6.3-29.8,8.5C334.7,242.4,334.5,242.4,334.3,242.4z M336.8,233.9v2.8c3.6-0.8,7.2-1.8,10.8-2.8H336.8z M166.8,242.4
	c-0.2,0-0.4,0-0.5-0.1c-10.2-2.3-20.2-5.1-29.7-8.5c-1.1-0.4-1.8-1.6-1.6-2.8c0.2-1.2,1.2-2.1,2.5-2.1h29.4c1.4,0,2.5,1.1,2.5,2.5
	v8.5c0,0.8-0.3,1.5-0.9,2C167.9,242.2,167.4,242.4,166.8,242.4z M153.6,233.9c3.5,1,7.1,1.9,10.7,2.8v-2.8H153.6z M369.9,226.2
	h-35.6c-1.4,0-2.5-1.1-2.5-2.5v-11.9c0-1.4,1.1-2.5,2.5-2.5h35.6c1.4,0,2.5,1.1,2.5,2.5v11.9C372.4,225.1,371.3,226.2,369.9,226.2z
	 M336.8,221.2h30.6v-6.9h-30.6V221.2z M324.8,226.2h-43.2c-1.4,0-2.5-1.1-2.5-2.5v-11.9c0-1.4,1.1-2.5,2.5-2.5h43.2
	c1.4,0,2.5,1.1,2.5,2.5v11.9C327.3,225.1,326.2,226.2,324.8,226.2z M284.1,221.2h38.2v-6.9h-38.2V221.2z M272.3,226.2H229
	c-1.4,0-2.5-1.1-2.5-2.5v-11.9c0-1.4,1.1-2.5,2.5-2.5h43.3c1.4,0,2.5,1.1,2.5,2.5v11.9C274.8,225.1,273.7,226.2,272.3,226.2z
	 M231.5,221.2h38.3v-6.9h-38.3L231.5,221.2L231.5,221.2z M219.5,226.2h-43.2c-1.4,0-2.5-1.1-2.5-2.5v-11.9c0-1.4,1.1-2.5,2.5-2.5
	h43.2c1.4,0,2.5,1.1,2.5,2.5v11.9C222,225.1,220.9,226.2,219.5,226.2z M178.8,221.2H217v-6.9h-38.2V221.2z M166.8,226.2h-35.6
	c-1.4,0-2.5-1.1-2.5-2.5v-11.9c0-1.4,1.1-2.5,2.5-2.5h35.6c1.4,0,2.5,1.1,2.5,2.5v11.9C169.3,225.1,168.2,226.2,166.8,226.2z
	 M133.7,221.2h30.6v-6.9h-30.6V221.2z M369.9,206.6h-35.6c-1.4,0-2.5-1.1-2.5-2.5v-15.1c0-1.4,1.1-2.5,2.5-2.5h35.6
	c1.4,0,2.5,1.1,2.5,2.5v15.1C372.4,205.6,371.3,206.6,369.9,206.6z M336.8,201.6h30.6v-10.1h-30.6V201.6z M324.8,206.6h-43.2
	c-1.4,0-2.5-1.1-2.5-2.5v-15.1c0-1.4,1.1-2.5,2.5-2.5h43.2c1.4,0,2.5,1.1,2.5,2.5v15.1C327.3,205.6,326.2,206.6,324.8,206.6z
	 M284.1,201.6h38.2v-10.1h-38.2V201.6z M272.3,206.6H229c-1.4,0-2.5-1.1-2.5-2.5v-15.1c0-1.4,1.1-2.5,2.5-2.5h43.3
	c1.4,0,2.5,1.1,2.5,2.5v15.1C274.8,205.6,273.7,206.6,272.3,206.6z M231.5,201.6h38.3v-10.1h-38.3L231.5,201.6L231.5,201.6z
	 M219.5,206.6h-43.2c-1.4,0-2.5-1.1-2.5-2.5v-15.1c0-1.4,1.1-2.5,2.5-2.5h43.2c1.4,0,2.5,1.1,2.5,2.5v15.1
	C222,205.6,220.9,206.6,219.5,206.6z M178.8,201.6H217v-10.1h-38.2V201.6z M166.8,206.6h-35.6c-1.4,0-2.5-1.1-2.5-2.5v-15.1
	c0-1.4,1.1-2.5,2.5-2.5h35.6c1.4,0,2.5,1.1,2.5,2.5v15.1C169.3,205.6,168.2,206.6,166.8,206.6z M133.7,201.6h30.6v-10.1h-30.6V201.6
	z"/>
</svg>
