<?xml version="1.0" encoding="utf-8"?>
<!-- Generator: Adobe Illustrator 25.0.1, SVG Export Plug-In . SVG Version: 6.00 Build 0)  -->
<svg version="1.1" fill="#8052FD" id="Capa_1" xmlns="http://www.w3.org/2000/svg" xmlns:xlink="http://www.w3.org/1999/xlink" x="0px" y="0px"
	 viewBox="0 0 512 512" style="enable-background:new 0 0 512 512;" xml:space="preserve">

<path d="M255.4,252c-2.8,0-5.4,1.8-6.3,4.6c-0.5,1.7-0.4,3.5,0.4,5c0.8,1.6,2.2,2.7,3.8,3.3l6.4,2.1l-2.4,17.4
	c-0.5,3.6,2.1,7,5.6,7.5c3.7,0.5,7-2.1,7.5-5.6l2.3-16.7c0.9-6.8-3.1-13.3-9.7-15.4l-5.6-1.8C256.8,252.2,256,252,255.4,252z
	 M97,110c-3.6,0-6.6,3-6.6,6.6v279.5c0,3.6,3,6.6,6.6,6.6h319.3c3.6,0,6.6-3,6.6-6.6V116.7c0-3.6-3-6.6-6.6-6.6H97z M409.7,389.5
	H103.7V123.3h306.1V389.5z M132.5,145.6c-3.6,0-6.6,3-6.6,6.6v208.3c0,3.6,3,6.6,6.6,6.6h248.3c3.6,0,6.6-3,6.6-6.6V152.2
	c0-3.6-3-6.6-6.6-6.6H132.5z M374.2,353.9h-235v-46.4l82.4-24.6l-4.8,34.4c-1,7.1,1.7,14.2,7.2,18.8c5.4,4.6,12.9,6.2,19.7,4.2
	l48-14.3c9.4-2.8,16.3-10.9,17.7-20.6l6.2-44.7c0.1-1.1,0.2-2.3,0.2-3.3l-0.1-2.6l58.5-17.5V353.9z M237.6,328c-1.8,0-3.6-0.7-5-1.9
	c-2.1-1.7-3-4.3-2.7-7l4.8-34.3c1.3-9.1-4.2-17.9-13-20.7l-28.4-9.1l44.5-14c7.7-2.4,15.8-2.5,23.5,0l37.1,11.7
	c2.7,0.9,4.4,3.5,4,6.3l-6.2,44.7c-0.7,4.6-3.9,8.4-8.3,9.7l-48,14.3C239.1,327.8,238.3,328,237.6,328z M139.2,293.6v-89.8h235v19.7
	l-65.7,19.6l-1.3-0.9c-1.5-1-3.1-1.7-4.8-2.3l-37.1-11.7c-10.3-3.2-21.1-3.2-31.5,0l-46.1,14.5c-5.3,1.7-8.9,6.6-8.9,12.1
	c0,5.5,3.5,10.5,8.8,12.1l19.5,6.3L139.2,293.6z M374.2,190.6h-235v-31.7h235V190.6z"/>
</svg>
