<?xml version="1.0" encoding="utf-8"?>
<!-- Generator: Adobe Illustrator 25.0.1, SVG Export Plug-In . SVG Version: 6.00 Build 0)  -->
<svg version="1.1" fill="#8052FD" id="Layer_1" xmlns="http://www.w3.org/2000/svg" xmlns:xlink="http://www.w3.org/1999/xlink" x="0px" y="0px"
	 viewBox="0 0 501.2 501.2" style="enable-background:new 0 0 501.2 501.2;" xml:space="preserve">

	
	


<g id="Layer_2_1_">
	<g id="Calque_1">
		<path d="M316.2,66.2H185c-15.4,0-27.9,12.5-28,28v312.1c0,15.4,12.5,27.9,28,28h131.2c15.4,0,27.9-12.5,28-28V94.2
			C344.2,78.8,331.6,66.2,316.2,66.2z M329.7,406.3c0,7.4-6,13.5-13.5,13.5H185c-7.4,0-13.4-6-13.5-13.5V94.2
			c0-7.4,6-13.4,13.5-13.5H206c-1.1,5.2,2.1,10.4,7.4,11.5c0.7,0.2,1.4,0.2,2.1,0.2h70.4c5.3,0,9.7-4.3,9.7-9.7
			c0-0.7-0.1-1.4-0.2-2.1h20.9c7.4,0,13.5,6,13.5,13.5V406.3z"/>
	</g>
</g>
</svg>
