<?xml version="1.0" encoding="utf-8"?>
<!-- Generator: Adobe Illustrator 25.0.1, SVG Export Plug-In . SVG Version: 6.00 Build 0)  -->
<svg version="1.1" fill="#8052FD" id="Layer_1" xmlns="http://www.w3.org/2000/svg" xmlns:xlink="http://www.w3.org/1999/xlink" x="0px" y="0px"
	 viewBox="0 0 480 480" style="enable-background:new 0 0 480 480;" xml:space="preserve">

	
	


<path d="M138.2,336.2h202.9l0.7,2c4,11.5,15.6,18.3,27.6,16.3c12-2.1,20.7-12.4,20.6-24.6V143.9
	c0-13.7-11.2-24.9-24.9-24.9c-10.4,0.1-19.9,6.7-23.4,16.6l-0.7,2H138.2l-0.7-2c-3.5-9.9-12.9-16.6-23.4-16.6
	c-13.7,0-24.8,11.2-24.8,24.9v185.9c0,13.7,11.2,24.9,24.9,24.9h0.9c10.1-0.4,19-7,22.4-16.5L138.2,336.2z M365.2,342.2
	c-6.8,0-12.3-5.5-12.3-12.3V143.9c0-6.8,5.5-12.3,12.3-12.3s12.3,5.5,12.3,12.3v185.9C377.5,336.7,372,342.2,365.2,342.2z
	 M114.2,342.2c-6.8,0-12.3-5.5-12.3-12.3V143.9c0-6.8,5.6-12.3,12.3-12.3s12.3,5.6,12.3,12.3v185.9
	C126.5,336.7,121,342.2,114.2,342.2z M340.4,323.7H139V150.3h201.3L340.4,323.7L340.4,323.7z"/>
</svg>
