<?xml version="1.0" encoding="utf-8"?>
<!-- Generator: Adobe Illustrator 25.0.1, SVG Export Plug-In . SVG Version: 6.00 Build 0)  -->
<svg version="1.1" fill="#8052FD" id="Capa_1" xmlns="http://www.w3.org/2000/svg" xmlns:xlink="http://www.w3.org/1999/xlink" x="0px" y="0px"
	 viewBox="0 0 512 512" style="enable-background:new 0 0 512 512;" xml:space="preserve">

	
	


<g>
	<g>
		<path d="M109.5,219.9c7.7,0,13.9,3.3,18.4,9.8c4.5,6.5,6.8,15.3,6.8,26.4c0,11.1-2.3,19.9-6.8,26.4
			c-4.5,6.5-10.7,9.8-18.4,9.8c-7.7,0-13.8-3.3-18.2-9.8c-4.5-6.5-6.7-15.3-6.7-26.4c0-11.1,2.3-19.9,6.7-26.4
			C95.7,223.1,101.7,219.9,109.5,219.9z M109.5,232.1c-3.5,0-6.4,2.1-8.5,6.3s-3.1,10-3.1,17.4c0,7.5,1,13.4,3.1,17.6
			c2,4.2,4.9,6.3,8.5,6.3c3.6,0,6.5-2.1,8.5-6.3c2.1-4.2,3.1-10.1,3.1-17.6c0-7.4-1-13.2-3.1-17.4
			C115.9,234.2,113.2,232.1,109.5,232.1z"/>
	</g>
	<g>
		<path d="M177.8,219.9c7.7,0,13.9,3.3,18.4,9.8c4.5,6.5,6.8,15.3,6.8,26.4c0,11.1-2.3,19.9-6.8,26.4
			c-4.5,6.5-10.7,9.8-18.4,9.8c-7.7,0-13.8-3.3-18.2-9.8c-4.5-6.5-6.7-15.3-6.7-26.4c0-11.1,2.3-19.9,6.7-26.4
			C164,223.1,170.1,219.9,177.8,219.9z M177.9,232.1c-3.5,0-6.4,2.1-8.5,6.3c-2.1,4.2-3.1,10-3.1,17.4c0,7.5,1,13.4,3.1,17.6
			c2,4.2,4.9,6.3,8.5,6.3c3.6,0,6.5-2.1,8.5-6.3c2.1-4.2,3.1-10.1,3.1-17.6c0-7.4-1-13.2-3.1-17.4
			C184.3,234.2,181.5,232.1,177.9,232.1z"/>
	</g>
	<g>
		<path d="M246.1,219.9c7.7,0,13.9,3.3,18.4,9.8c4.5,6.5,6.8,15.3,6.8,26.4c0,11.1-2.3,19.9-6.8,26.4
			c-4.5,6.5-10.7,9.8-18.4,9.8c-7.7,0-13.8-3.3-18.2-9.8s-6.7-15.3-6.7-26.4c0-11.1,2.3-19.9,6.7-26.4
			C232.4,223.1,238.5,219.9,246.1,219.9z M246.3,232.1c-3.5,0-6.4,2.1-8.5,6.3c-2.1,4.2-3.1,10-3.1,17.4c0,7.5,1,13.4,3.1,17.6
			c2,4.2,4.9,6.3,8.5,6.3s6.5-2.1,8.5-6.3c2.1-4.2,3.1-10.1,3.1-17.6c0-7.4-1-13.2-3.1-17.4C252.7,234.2,249.8,232.1,246.3,232.1z"
			/>
	</g>
	<g>
		<path d="M314.5,219.9c7.7,0,13.9,3.3,18.4,9.8c4.5,6.5,6.8,15.3,6.8,26.4c0,11.1-2.3,19.9-6.8,26.4
			c-4.5,6.5-10.7,9.8-18.4,9.8c-7.7,0-13.8-3.3-18.2-9.8s-6.7-15.3-6.7-26.4c0-11.1,2.3-19.9,6.7-26.4
			C300.8,223.1,306.8,219.9,314.5,219.9z M314.6,232.1c-3.5,0-6.4,2.1-8.5,6.3c-2.1,4.2-3.1,10-3.1,17.4c0,7.5,1,13.4,3.1,17.6
			c2,4.2,4.9,6.3,8.5,6.3c3.6,0,6.5-2.1,8.5-6.3c2.1-4.2,3.1-10.1,3.1-17.6c0-7.4-1-13.2-3.1-17.4
			C321,234.2,318.2,232.1,314.6,232.1z"/>
	</g>
	<path d="M58.5,198.6v114.8H455V198.6H58.5z M417.1,209.3c-0.2,6.6-1.2,11.9-3.1,15.7c-2.1,4.2-4.9,6.3-8.5,6.3
		s-6.4-2.1-8.5-6.3c-1.9-3.9-2.9-9.2-3-15.7H417.1z M355.5,302.7H69.2v-93.4h286.3V302.7z M393.9,295.5c0-7.5,1-13.4,3.1-17.6
		c2.1-4.2,4.9-6.3,8.5-6.3c3.6,0,6.4,2.1,8.5,6.3c2,4.2,3.1,10.1,3.1,17.6c0,2.6-0.2,5-0.4,7.2h-22.4
		C394,300.5,393.9,298.1,393.9,295.5z M444.3,302.7h-14.1c0.3-2.4,0.3-4.7,0.3-7.3c0-11.1-2.3-19.9-6.7-26.4
		c-4.5-6.5-10.6-9.8-18.2-9.8c-7.7,0-13.9,3.3-18.4,9.8c-4.5,6.5-6.8,15.3-6.8,26.4c0,2.5,0.2,5,0.3,7.3h-14.5v-93.4h14.2
		c0.3,10.3,2.4,18.6,6.7,24.7c4.5,6.5,10.6,9.8,18.2,9.8c7.7,0,13.9-3.3,18.4-9.8c4.3-6.1,6.6-14.4,6.7-24.7h13.8L444.3,302.7
		L444.3,302.7z"/>
</g>
</svg>
