<?xml version="1.0" encoding="utf-8"?>
<!-- Generator: Adobe Illustrator 25.0.1, SVG Export Plug-In . SVG Version: 6.00 Build 0)  -->
<svg version="1.1" fill="#8052FD" id="Layer_1" xmlns="http://www.w3.org/2000/svg" xmlns:xlink="http://www.w3.org/1999/xlink" x="0px" y="0px"
	 viewBox="0 0 512 512" style="enable-background:new 0 0 512 512;" xml:space="preserve">

<g id="surface1">
	<path d="M184.2,139.8h143c2.7,0,4.9-2.2,4.9-4.9c0-2.7-2.2-4.9-4.9-4.9h-143c-2.7,0-4.9,2.2-4.9,4.9
		C179.3,137.6,181.5,139.8,184.2,139.8z"/>
	<path d="M127.8,116v294.6c0,8.5,6.9,15.3,15.4,15.4h225c8.5,0,15.4-6.9,15.4-15.4V116c0-8.5-6.9-15.4-15.4-15.4h-74.7
		c-2.5-20.9-21.4-35.8-42.2-33.3c-17.5,2.1-31.3,15.8-33.3,33.3h-74.7C134.7,100.6,127.8,107.5,127.8,116z M373.7,410.5
		c0,3.1-2.5,5.6-5.6,5.6H143.2c-3.1,0-5.6-2.5-5.6-5.6V163.4h236.1L373.7,410.5z M255.7,76.7c13.9,0,25.7,10.1,27.9,23.9H228
		C230.1,86.9,241.8,76.8,255.7,76.7z M368.2,110.4c3.1,0,5.6,2.5,5.6,5.6v37.7H137.6V116c0-3.1,2.5-5.6,5.6-5.6H368.2z"/>
	<path d="M226.9,217.5h116c2.7,0,4.9-2.2,4.9-4.9c0-2.7-2.2-4.9-4.9-4.9h-116c-2.7,0-4.9,2.2-4.9,4.9
		C222,215.3,224.2,217.5,226.9,217.5z"/>
	<path d="M226.9,268.7h116c2.7,0,4.9-2.2,4.9-4.9s-2.2-4.9-4.9-4.9h-116c-2.7,0-4.9,2.2-4.9,4.9
		S224.2,268.7,226.9,268.7z"/>
	<path d="M226.9,319.8h116c2.7,0,4.9-2.2,4.9-4.9c0-2.7-2.2-4.9-4.9-4.9h-116c-2.7,0-4.9,2.2-4.9,4.9
		C222,317.6,224.2,319.8,226.9,319.8z"/>
	<path d="M226.9,370.9h116c2.7,0,4.9-2.2,4.9-4.9c0-2.7-2.2-4.9-4.9-4.9h-116c-2.7,0-4.9,2.2-4.9,4.9
		C222,368.7,224.2,370.9,226.9,370.9z"/>
	<path d="M178,220.2c0.8,1.1,2,1.8,3.3,2h0.7c1.1,0,2.1-0.4,3-1l31.2-24.4c2.4-1.4,3.2-4.4,1.8-6.7
		c-1.4-2.4-4.4-3.2-6.7-1.8c-0.4,0.2-0.8,0.5-1.1,0.9l-27.2,21.3l-4.7-6.8c-1.6-2.2-4.6-2.8-6.8-1.2c-2.2,1.6-2.8,4.6-1.2,6.8
		L178,220.2z"/>
	<path d="M178,270.6c0.8,1.1,2,1.8,3.3,2h0.7c1.1,0,2.1-0.4,3-1.1l31.2-24.4c2.2-1.6,2.7-4.7,1-6.9
		c-1.6-2.2-4.7-2.6-6.9-1c-0.1,0.1-0.2,0.1-0.2,0.2l-27.1,21.3l-4.7-6.8c-1.2-2.4-4.2-3.4-6.6-2.2c-2.4,1.2-3.4,4.2-2.2,6.6
		c0.2,0.4,0.4,0.7,0.7,1.1L178,270.6z"/>
	<path d="M178,321.2c0.8,1.1,2,1.8,3.3,2h0.7c1.1,0,2.1-0.4,3-1l31.2-24.4c2.2-1.6,2.7-4.7,1-6.9
		c-1.6-2.2-4.7-2.6-6.9-1c-0.1,0.1-0.2,0.1-0.2,0.2L183,311.3l-4.7-6.8c-1.6-2.2-4.6-2.8-6.8-1.2c-2.2,1.6-2.8,4.6-1.2,6.8
		L178,321.2z"/>
	<path d="M178,372.4c0.8,1.1,2,1.8,3.3,2h0.7c1.1,0,2.1-0.4,3-1l31.2-24.4c2.3-1.4,3-4.5,1.6-6.8
		c-1.5-2.3-4.5-3-6.8-1.5c-0.3,0.2-0.5,0.4-0.8,0.6l-27.2,21.3l-4.7-6.8c-1.6-2.2-4.6-2.8-6.8-1.2c-2.2,1.6-2.8,4.6-1.2,6.8
		L178,372.4z"/>
</g>
</svg>
