<?xml version="1.0" encoding="utf-8"?>
<!-- Generator: Adobe Illustrator 25.0.1, SVG Export Plug-In . SVG Version: 6.00 Build 0)  -->
<svg version="1.1" fill="#8052FD" id="Layer_1" xmlns="http://www.w3.org/2000/svg" xmlns:xlink="http://www.w3.org/1999/xlink" x="0px" y="0px"
	 viewBox="0 0 512 512" style="enable-background:new 0 0 512 512;" xml:space="preserve">

	
	


<path d="M275.7,330.8c-15.2,0-27.6,12.4-27.6,27.6v40.7c0,15.2,12.4,27.6,27.6,27.6h122.8c15.2,0,27.6-12.4,27.6-27.6
	v-40.7c0-15.2-12.4-27.6-27.6-27.6H344v-26.9h54.5c15.2,0,27.6-12.4,27.6-27.6v-40.7c0-15.2-12.4-27.5-27.6-27.5H344v-26.9h54.5
	c15.2,0,27.6-12.4,27.6-27.6v-40.7c0-15.2-12.4-27.6-27.6-27.6H275.7c-15.2,0-27.6,12.4-27.6,27.6v40.7c0,15.2,12.4,27.6,27.6,27.6
	h53.9v26.9h-53.8c-15.2,0-27.6,12.4-27.6,27.5v40.7c0,15.2,12.4,27.6,27.6,27.6h53.8v26.9L275.7,330.8L275.7,330.8z M398.5,412.3
	H275.7c-7.2,0-13.1-5.9-13.1-13.1v-40.7c0-7.2,5.9-13.1,13.1-13.1h122.8c7.2,0,13.1,5.9,13.1,13.1v40.7
	C411.6,406.4,405.7,412.3,398.5,412.3z M398.5,289.5H275.7c-7.2,0-13.1-5.9-13.1-13.1v-40.7c0-7.2,5.9-13.1,13.1-13.1h122.8
	c7.2,0,13.1,5.9,13.1,13.1v40.7C411.6,283.6,405.7,289.5,398.5,289.5z M398.5,166.7H275.7c-7.2,0-13.1-5.9-13.1-13.1v-40.7
	c0-7.2,5.9-13.1,13.1-13.1h122.8c7.2,0,13.1,5.9,13.1,13.1v40.7C411.6,160.8,405.7,166.7,398.5,166.7z M91.8,330.8
	c-4,0-7.2,3.2-7.2,7.2c0,26.5,21.8,48,48.7,48c4,0,7.2-3.2,7.2-7.2s-3.2-7.2-7.2-7.2c-18.5,0-34.2-15.4-34.2-33.5
	C99.1,334.1,95.8,330.8,91.8,330.8z M91.8,248.8c-4,0-7.2,3.2-7.2,7.2v40.7c0,4,3.2,7.2,7.2,7.2c4,0,7.2-3.2,7.2-7.2V256
	C99.1,252,95.8,248.8,91.8,248.8z M133.2,125.9c-26.9,0-48.7,21.5-48.7,48v41.4c0,4,3.2,7.2,7.2,7.2c4,0,7.2-3.2,7.2-7.2v-41.4
	c0-18.1,15.6-33.5,34.2-33.5h57.5l-41.2,27.5c-1.6,1.1-2.7,2.7-3.1,4.6c-0.4,1.9,0,3.8,1.1,5.4c1.1,1.6,2.7,2.7,4.6,3.1
	c1.9,0.3,3.9,0,5.4-1.1l61-40.7c2-1.4,3.2-3.6,3.2-6c0-2.4-1.2-4.7-3.2-6l-61-40.7c-3.3-2.2-7.8-1.4-10,2c-1.1,1.6-1.4,3.5-1.1,5.4
	c0.4,1.9,1.5,3.5,3,4.6l41.2,27.5L133.2,125.9L133.2,125.9z M173.9,371.6c-4,0-7.2,3.2-7.2,7.2c0,4,3.2,7.2,7.2,7.2h40.7
	c4,0,7.2-3.2,7.2-7.2s-3.2-7.2-7.2-7.2H173.9z M296.1,125.9c-4,0-7.2,3.2-7.2,7.2s3.2,7.2,7.2,7.2h82.1c4,0,7.2-3.2,7.2-7.2
	s-3.2-7.2-7.2-7.2H296.1z M296.1,248.8c-4,0-7.2,3.2-7.2,7.2s3.2,7.2,7.2,7.2h82.1c4,0,7.2-3.2,7.2-7.2s-3.2-7.2-7.2-7.2H296.1z
	 M296.1,371.6c-4,0-7.2,3.2-7.2,7.2c0,4,3.2,7.2,7.2,7.2h82.1c4,0,7.2-3.2,7.2-7.2s-3.2-7.2-7.2-7.2H296.1z"/>
</svg>
