<?xml version="1.0" encoding="utf-8"?>
<!-- Generator: Adobe Illustrator 25.0.1, SVG Export Plug-In . SVG Version: 6.00 Build 0)  -->
<svg version="1.1" fill="#8052FD" id="Layer_1" xmlns="http://www.w3.org/2000/svg" xmlns:xlink="http://www.w3.org/1999/xlink" x="0px" y="0px"
	 viewBox="0 0 49.2 49.2" style="enable-background:new 0 0 49.2 49.2;" xml:space="preserve">

	
	


<g>
	<path d="M36,39.2c-0.1,0-0.2,0-0.3-0.1c-0.2-0.1-0.4-0.3-0.4-0.6v-1.4H16.9v-1.4H36c0.4,0,0.7,0.3,0.7,0.7v0.8l3.6-2.2
		l-3.6-2.7v0.7c0,0.4-0.3,0.7-0.7,0.7H17.6v-1.4h17.7V31c0-0.3,0.1-0.5,0.4-0.6c0.2-0.1,0.5-0.1,0.7,0.1l5.4,4.1
		c0.2,0.1,0.3,0.3,0.3,0.6c0,0.2-0.1,0.4-0.3,0.5l-5.4,3.4C36.2,39.2,36.1,39.2,36,39.2z"/>
</g>
<g>
	<path d="M33.3,31H13.5c-0.8,0-1.4-0.6-1.4-1.4V18.1c0-0.8,0.6-1.4,1.4-1.4h19.7c0.8,0,1.4,0.6,1.4,1.4v11.6
		C34.6,30.4,34,31,33.3,31z M13.5,18.1L13.5,18.1v11.6h19.7V18.1H13.5z"/>
</g>
<g>
	<path d="M15.6,37.2h-2v-1.4h2V37.2z M12.2,37.2h-2v-1.4h2V37.2z M33.9,27.6H12.8v-1.4h21.1V27.6z M11.2,27.6h-2v-1.4h2
		V27.6z M33.9,24.9H12.8v-1.4h21.1V24.9z M11.2,24.6H7.6v-1.4h3.6V24.6z M11.2,18.1h-2v-1.4h2V18.1z M33.1,16.5l-1-1l0.9-0.9
		l-2.4-2.4v1.1c0,0.4-0.3,0.7-0.7,0.7h-8.2v-1.4h7.5v-2c0-0.3,0.2-0.5,0.4-0.6c0.3-0.1,0.5,0,0.7,0.1l4.1,4.1c0.3,0.3,0.3,0.7,0,1
		L33.1,16.5z M20.3,14h-2v-1.4h2V14z M16.9,14h-2v-1.4h2V14z"/>
</g>
</svg>
