<?xml version="1.0" encoding="utf-8"?>
<!-- Generator: Adobe Illustrator 25.0.1, SVG Export Plug-In . SVG Version: 6.00 Build 0)  -->
<svg version="1.1" fill="#8052FD" id="Layer_1" xmlns="http://www.w3.org/2000/svg" xmlns:xlink="http://www.w3.org/1999/xlink" x="0px" y="0px"
	 viewBox="0 0 376 376" style="enable-background:new 0 0 376 376;" xml:space="preserve">

	
	


<path d="M138.4,278l2,1.1c5.3,2.8,10.9,5,16.7,6.9l2.3,0.7v21.5c0,6,4.9,10.9,10.9,10.9h35.3c6,0,10.9-4.9,10.9-10.9
	v-21.5l2.3-0.7c5.7-1.8,11.3-4.1,16.6-6.9l2-1.1l15.2,15.2c4.2,4.2,11.2,4.2,15.5,0l25-25c4.2-4.2,4.2-11.2,0-15.5L278,237.6l1.1-2
	c2.8-5.3,5-10.9,6.8-16.7l0.7-2.3h21.5c6,0,10.9-4.9,10.9-10.9v-35.3c0-6-4.9-10.9-10.9-10.9h-21.4l-0.7-2.2
	c-1.8-5.7-4.1-11.4-6.9-16.7l-1.1-2l15.2-15.2c4.2-4.2,4.2-11.2,0-15.5l-25-25c-4.2-4.2-11.2-4.2-15.5,0L237.6,98l-2-1.1
	c-5.3-2.8-10.9-5-16.7-6.8l-2.3-0.7V67.9c0-6-4.9-10.9-10.9-10.9h-35.3c-6,0-10.9,4.9-10.9,10.9v21.5l-2.2,0.7
	c-5.7,1.8-11.3,4.1-16.6,6.9l-2,1.1l-15.3-15.2c-4.2-4.2-11.2-4.2-15.5,0l-25,25c-4.2,4.2-4.2,11.2,0,15.5L98,138.5l-1.1,2
	c-2.8,5.3-5,10.9-6.9,16.7l-0.8,2.3H67.9c-6,0-10.9,4.9-10.9,10.9v35.3c0,6,4.9,10.9,10.9,10.9h21.4l0.7,2.2
	c1.8,5.7,4.1,11.4,6.9,16.7l1.1,2l-15.2,15.2c-4.2,4.2-4.2,11.2,0,15.5l25,25c4.2,4.2,11.2,4.2,15.5,0L138.4,278z M208.8,311.2
	h-41.7v-27.6c0-1.8-1.2-3.3-2.9-3.7c-8.5-2.2-16.8-5.6-24.4-10.1c-1.6-0.9-3.5-0.6-4.7,0.6l-19.5,19.6l-2.3-2.3l-27.3-27.3
	l19.6-19.6c1.3-1.3,1.5-3.2,0.6-4.7c-4.5-7.6-7.9-15.8-10.1-24.4c-0.4-1.7-2-2.9-3.7-2.9l0,0H64.8v-41.7h27.6l0,0
	c1.8,0,3.3-1.2,3.7-2.9c2.2-8.5,5.6-16.8,10.1-24.4c0.9-1.6,0.6-3.5-0.6-4.7l-19.6-19.4l2.3-2.3l27.3-27.3l19.6,19.6
	c1.3,1.3,3.2,1.5,4.7,0.6c7.6-4.5,15.8-7.9,24.4-10.1c1.7-0.4,2.9-2,2.9-3.7V64.8h41.7v27.6c0,1.8,1.2,3.3,2.9,3.7
	c8.5,2.2,16.8,5.6,24.4,10.1c1.6,0.9,3.5,0.6,4.7-0.6l19.5-19.6l2.3,2.3l27.3,27.3l-19.6,19.6c-1.3,1.3-1.5,3.2-0.6,4.7
	c4.5,7.6,7.9,15.8,10.1,24.4c0.4,1.7,2,2.9,3.7,2.9l0,0h27.6v41.7h-27.6l0,0c-1.8,0-3.3,1.2-3.7,2.9c-2.2,8.5-5.6,16.8-10.1,24.4
	c-0.9,1.6-0.6,3.5,0.6,4.7l19.6,19.5l-2.3,2.3L260.5,290l-19.6-19.6c-1.3-1.3-3.2-1.5-4.7-0.6c-7.6,4.5-15.8,7.9-24.4,10.1
	c-1.7,0.4-2.9,2-2.9,3.7V311.2z M219.6,250.1l5.1,5.8l25.8-22.6c0.8-0.7,1.3-1.6,1.3-2.7s-0.3-2-1-2.8c-0.1-0.1-0.2-0.2-0.4-0.4
	l-25.8-22.6l-5.1,5.8l18.1,15.8H188c-20.2,0-36.7-15.4-38.4-35.3h-7.8c0.8,11.4,5.7,22,13.9,30c8.7,8.4,20.1,13.1,32.2,13.1h49.6
	L219.6,250.1z M226.4,184.8h7.8c-0.8-11.4-5.7-22-13.9-30c-8.7-8.4-20.1-13.1-32.2-13.1h-49.6l18.1-15.8l-5.1-5.8l-25.8,22.6
	c-1.6,1.4-1.8,3.9-0.4,5.5c0.1,0.1,0.2,0.2,0.4,0.4l25.8,22.6l5.1-5.8l-18.1-15.8H188C208.2,149.5,224.7,164.9,226.4,184.8z"/>
</svg>
