<?xml version="1.0" encoding="utf-8"?>
<!-- Generator: Adobe Illustrator 25.0.1, SVG Export Plug-In . SVG Version: 6.00 Build 0)  -->
<svg version="1.1" fill="#8052FD" id="Capa_1" xmlns="http://www.w3.org/2000/svg" xmlns:xlink="http://www.w3.org/1999/xlink" x="0px" y="0px"
	 viewBox="0 0 511.9 512" style="enable-background:new 0 0 511.9 512;" xml:space="preserve">

	
	


<path d="M329.8,241.3c-8,0-14.5,6.5-14.5,14.5c0,8,6.5,14.5,14.5,14.5c8,0,14.5-6.5,14.5-14.5
	C344.3,247.8,337.8,241.3,329.8,241.3L329.8,241.3z M328.5,263v-0.1c-3.3-0.6-5.9-3.5-5.9-7.1c0-3.9,3.2-7.2,7.2-7.2
	s7.2,3.2,7.2,7.2c0,3.9-3.2,7.2-7.1,7.2L328.5,263z M259.3,340.2c-2,0-3.7,1.7-3.7,3.7c0,2,1.7,3.7,3.7,3.7h15.3
	c2,0,3.7-1.7,3.7-3.7c0-2-1.7-3.7-3.7-3.7H259.3z M291.5,340.3c-0.3,0-0.5,0-0.7,0.1c-0.2,0.1-0.5,0.1-0.7,0.2s-0.5,0.2-0.7,0.3
	c-0.4,0.3-0.7,0.6-1,1c-0.3,0.4-0.5,0.9-0.5,1.3c-0.3,1.7,0.6,3.4,2.2,4.1c1.9,0.8,4-0.1,4.8-1.9c0.4-0.9,0.4-1.9,0-2.9
	c-0.2-0.5-0.5-0.9-0.8-1.3C293.4,340.6,292.5,340.3,291.5,340.3z M321.8,137.8l-12.3,12.3c-1.4,1.4-1.4,3.7,0,5.2l12.3,12.3
	c1.4,1.4,3.7,1.4,5.2,0c1.4-1.4,1.4-3.7,0-5.2l-9.7-9.7l9.7-9.7c1.3-1.5,1.1-3.8-0.3-5.1C325.3,136.6,323.2,136.6,321.8,137.8z
	 M365.7,136.7c-0.9,0-1.9,0.4-2.7,1.1c-1.4,1.4-1.4,3.7,0,5.1l9.7,9.7l-9.7,9.7c-0.7,0.7-1.1,1.6-1.1,2.6c0,1,0.4,1.9,1.1,2.6
	c0.7,0.7,1.6,1.1,2.6,1.1c1.7,0,2.3-0.6,5.7-4.2c2.1-2.1,4.8-5.1,9.3-9.2c0.7-0.7,1.1-1.6,1.1-2.5c0-1-0.4-1.9-1.1-2.6l0.9-0.9
	l-0.9,0.9l-12.3-12.3C367.5,137,366.6,136.7,365.7,136.7z M351.5,131c-1.5,0-2.9,0.9-3.5,2.4l-13.9,38c-0.4,0.9-0.3,1.9,0.1,2.9
	c0.4,0.9,1.1,1.6,2,1.9c1.9,0.7,4-0.2,4.7-2.1c0-0.1,0.1-0.1,0.1-0.2l13.9-38.1c0.7-1.9-0.3-4-2.2-4.7l0,0
	C352.3,131.1,351.9,131,351.5,131z M104.8,266.5v0.3L87.1,375.9c-1.1,6.7,0.5,13.3,4.5,18.8c3.9,5.5,9.8,9.1,16.5,10.1
	c1.3,0.2,2.7,0.3,4,0.3l0,0h163.4c5.8,0,11.4-2.1,15.8-5.7l1.1-0.9l0.8,1.2c2.4,3.4,6.3,5.5,10.5,5.5h52.5c7,0,12.7-5.7,12.7-12.7
	c0-7-5.7-12.7-12.7-12.7h-3.3v-10.3h21.4c2,0,3.7-1.7,3.7-3.7c0-2-1.7-3.7-3.7-3.7h-21.4v-67.6l0.7-0.4c1.7-1,2.3-3.3,1.3-5
	c-0.7-1.1-1.9-1.8-3.1-1.9h-43.2c-2.2,0-3.3,1.6-3.6,2.9c-0.3,1.4,0.1,3.3,2.2,4.1l0.8,0.3v67.5h-1.3c-12.9,0-23,0-31.1,0
	c-15.3,0-23,0-26.8-0.1c-4-0.1-4.7-0.3-5.3-1.3l-0.1-0.1c-1.1-0.7-1.2-1.3-1.3-8.7c-0.1-7.3-0.1-21.6-0.1-50.4
	c0-18.5,0.1-42.9,0.1-75.3c0-2.5,2.1-4.5,4.5-4.5c71.7,0.1,112.1,0,136.2,0c15.7,0,23.6,0,27.6,0c4.1,0.1,4.5,0.1,5.1,0.6
	c1.4,0.8,2.3,2.3,2.3,3.9v131.1c0,1.7-0.9,3.2-2.4,4c-1.1,0.6-1.4,0.6-5.5,0.5c-2.5,0-6.1-0.1-12.3,0c-2,0-3.7,1.7-3.7,3.7
	c0,2,1.7,3.7,3.7,3.7c3.8-0.1,7.1-0.1,9.7,0c7.6,0.1,10.7,0.2,14.4-3.5c2.2-2.2,3.5-5.3,3.5-8.4V226.3c0-6.5-5.3-11.9-11.9-11.9
	c-68.8,0.2-109.4,0.1-133.6-0.1c-35.3-0.1-35.7-0.1-38.4,1.3l-0.3,0.1c-3.9,2.1-6.2,6.1-6.2,10.5v9.5l-16.3-9.9v-5.1l0.7-0.4
	c18.2-9.3,29.4-27.8,29.2-48.3v-1.2l1.1-0.2c2.4-0.5,4.7-1.5,6.8-2.7l0.1-0.1c0.1-0.1,0.3-0.1,0.4-0.2c4.7-3.1,7.4-7.9,7.5-13.1
	c0.1-4.5-1.7-8.7-4.9-11.7l-0.5-0.5l0.1-0.7c3.9-18.3,2.6-32.8-3.8-43c-4.5-7.1-11.8-12.3-20-14.1c-0.9-0.2-1.7-0.7-2.3-1.4
	c-13.7-17-44.3-21.4-71.1-10.3c-0.9,0.4-1.6,1.1-2,2c-0.4,0.9-0.4,1.9,0,2.8c0.4,0.9,1.1,1.6,2,2c0.9,0.4,1.9,0.4,2.8,0
	c23.6-9.8,51-6.2,62.6,8.2c1.7,2,3.9,3.5,6.5,4c6.3,1.3,12,5.3,15.5,10.8c5.1,8,6.2,19.6,3.5,34.5l-0.3,1.4l-1.4-0.4
	c-1.9-0.5-5.5-1.1-6.9-0.7h-0.1c-1.7,0.2-10.4,0.9-16.3-6.7c-2.7-3.5-7.7-4.2-11.3-1.6c-11.3,8.1-43.5,21-71.3,8.7l-0.1-0.1
	c-0.6-0.3-1.3-0.5-1.9-0.5h-0.1h-0.1c-0.1,0-0.1,0-0.3,0h-0.1c-2.1,0-4.1,0.3-6.1,0.9l-1.3,0.4l-0.3-1.4
	c-4.3-18.4-0.2-34.6,11.3-45.8c1.5-1.4,1.7-3.7,0.4-5.2s-3.7-1.7-5.2-0.3c-0.1,0.1-0.1,0.1-0.2,0.2c-14.3,13.7-18.8,33.9-12.7,55.6
	l0.2,0.7l-0.5,0.5c-4.3,4.3-5.8,9.9-4.1,15.4c1.9,6.3,7.2,10.9,14.4,12.4l1,0.2l0.1,1.1c0.3,5.7,0.7,10.2,1.3,12.8
	c2,8.5,6,16.4,11.7,23c4.5,5.2,9.7,9.5,15.7,12.8l0.7,0.4v4.9l-23.6,14l-0.2,0.1l-19.2,5.3l0,0c-0.1,0.1-0.2,0.1-0.3,0.1v-0.1
	C114.3,248.3,106.9,256,104.8,266.5z M356.2,397.8h-52.5c-3,0-5.4-2.4-5.4-5.4c0-2.9,2.4-5.4,5.4-5.4h52.5c2.9,0,5.4,2.4,5.4,5.4
	S359.1,397.8,356.2,397.8z M275.4,397.8h-49.2v-22.6c0-3.1,2.6-5.7,5.7-5.7h58.7l0.7,0.7l0.1,0.4l1.1,7.1c1.5,9.5-5,18.4-14.5,19.9
	C277.3,397.8,276.3,397.8,275.4,397.8z M219,397.8h-21.6l0.4-1.6c2.2-9.7,9.9-17,19.7-18.6l1.5-0.3L219,397.8L219,397.8z
	 M189.6,397.8h-21.6v-20.4l1.5,0.3c9.7,1.7,17.4,8.9,19.6,18.6L189.6,397.8z M160.7,397.8h-48.6c-4.8,0-9.3-1.9-12.7-5.3
	s-5.3-7.9-5.3-12.7c0-0.9,0.1-1.9,0.2-2.9L112,268c2.6-12.7,12.6-15.2,23.2-17.8c3.1-0.8,6.4-1.6,9.6-2.7l0.7-0.3l18.1,14.7v32.8
	c0,2,1.7,3.7,3.7,3.7s3.7-1.7,3.7-3.7v-26.8l14.3,11.6l0.1,0.2c2.6,4.7,8.5,6.3,13.1,3.7c1.5-0.9,2.8-2.1,3.7-3.7l0.1-0.2l14.3-11.3
	v26.5c0,2,1.7,3.7,3.7,3.7s3.7-1.7,3.7-3.7v-32.4l11.1-8.9v2.7c0,44.6,0,69.7,0,83.8c0,17.6,0,18.2,0.1,18.8c0,0.1,0,0.1,0.1,0.3
	l0.3,2.3l-2.1-0.9c-4.3-1.8-7.5-5.1-10-10.1c-2-4.1-3.2-8.3-3.6-12.8v-0.1c-0.1-1.9-1.7-3.5-3.7-3.5h-44.6c-1.9,0-3.5,1.5-3.7,3.5
	c-0.4,4.5-1.6,8.8-3.5,12.9c-6.2,12.4-16.7,11.9-23,11.7c-1.6-0.1-3-0.1-4,0.1l-1.8,0.3l9.8-66.3c0.1-1-0.1-1.9-0.7-2.7
	c-0.6-0.8-1.5-1.3-2.4-1.5c-2-0.3-3.9,1.1-4.1,3.1l-10.1,67.3h-6.3c-2,0-3.7,1.7-3.7,3.7s1.7,3.7,3.7,3.7H155c3.1,0,5.7,2.5,5.7,5.7
	C160.7,375.2,160.7,397.8,160.7,397.8z M193.5,386.6l-1.1-1.8c-5.3-8.5-14.5-14.1-24.6-14.8l-0.7-0.1l-0.3-0.7
	c-0.8-1.6-1.9-3-3.3-4.2l-1.2-1l1.2-1c5.4-4.6,9.3-11.9,10.9-20.6l0.2-1.1h38.1l0.2,1.1c1.7,8.7,5.5,16.1,10.9,20.6l1.2,1l-1.2,1
	c-1.3,1.1-2.5,2.5-3.3,4.1l-0.3,0.7l-0.7,0.1c-10.1,0.7-19.3,6.2-24.6,14.8L193.5,386.6z M300.2,380.2l-0.1-1.5
	c-0.1-1.3-0.2-2-0.5-3.7c-0.1-0.9-0.3-2.2-0.7-4l-0.3-1.5h8.1v1.3h1.3v8.9h-1.3c-0.9,0-1.6,0-2.1,0c-1.2,0-1.8,0-3,0.2L300.2,380.2z
	 M345.6,379.8h-30.2v-85.2h30.2V379.8z M193.4,277.3c-0.4,0-0.9-0.1-1.2-0.4c-0.5-0.3-0.7-0.7-0.9-1.3l-9-23.2l2.5,0.7
	c5.7,1.5,11.7,1.5,17.4,0l2.5-0.7l-9.1,23.3c-0.3,0.9-1.1,1.5-2.1,1.5C193.6,277.3,193.5,277.3,193.4,277.3z M207.6,265.7l1.8-4.6
	c2.2-5.6,3.9-9.8,5.1-13c4-10.1,4-10.1,3.9-11l-0.2-2.7l16.3,9.9L207.6,265.7z M179.6,265.5l-3.9-3.2l0,0l-23-18.6l15.6-9.1l0.3,2
	c0.1,0.6,0.3,1,1.8,5c1.3,3.4,3.6,9.1,7.5,19.4L179.6,265.5z M193.7,246.9c-5.2,0-10.4-1.5-15-4.6l-0.3-0.3l-2.6-6.7v-11.2l1.7,0.5
	c10.5,3.1,21.4,3.1,31.8-0.2l1.7-0.5v12.7l-2.1,5.4l-0.3,0.2C204.1,245.5,198.9,246.9,193.7,246.9z M193,219.7
	c-13.4,0-26-5.8-35.4-16.6l0,0c-11.7-13.7-11.6-26.2-11.5-43.6c0-3.5,0.1-7.2,0-11.1v-1.9l1.8,0.6c24.8,8,55.7,0,72-11.6l1-0.7
	l0.8,1c4.4,5.5,11,8.8,18,9.2l1.3,0.1v27.2c0,10.3-3.1,20-9.1,28c-5.5,7.4-13.1,13.1-22,16.4C204.3,218.7,198.6,219.7,193,219.7z
	 M248.3,163.7V145l1.8,0.7c4.1,1.7,6.7,5,6.7,8.7c0,3.7-2.5,6.9-6.7,8.6L248.3,163.7z M138.8,163.7l-1.9-0.7
	c-4.2-1.7-6.7-4.9-6.7-8.6c0-3.7,2.6-6.9,6.7-8.5l1.9-0.7l-0.1,2c-0.1,4.3-0.1,9.7-0.1,14.6L138.8,163.7z M292.9,115
	c-6.4,0-11.7,5.3-11.7,11.7v53.9c0,6.4,5.3,11.7,11.7,11.7h93.9c2.1,0,3.2,1,5.7,3.3c1.3,1.2,3,2.9,5.5,5.1c1.6,1.5,3.6,2.2,5.7,2.1
	c2.1-0.1,4.1-1,5.5-2.6c1.3-1.5,2.1-3.3,2.1-5.3V166c0-2-1.7-3.7-3.7-3.7l0,0c-2,0-3.7,1.7-3.7,3.7v29.8l-2.1-1.7
	c-1.3-1-2.5-2.2-3.7-3.3c-3.1-3-6.1-5.9-11.3-5.9h-93.9c-2.4,0-4.3-1.9-4.3-4.3v-53.9c0-2.4,1.9-4.3,4.3-4.3h106.7
	c2.4,0,4.3,1.9,4.3,4.3v16c0,2,1.7,3.7,3.7,3.7c2,0,3.7-1.7,3.7-3.7v-16c0-6.4-5.3-11.7-11.7-11.7C399.6,115,292.9,115,292.9,115z"
	/>
</svg>
