<?xml version="1.0" encoding="utf-8"?>
<!-- Generator: Adobe Illustrator 25.0.1, SVG Export Plug-In . SVG Version: 6.00 Build 0)  -->
<svg version="1.1" fill="#8052FD" id="Capa_1" xmlns="http://www.w3.org/2000/svg" xmlns:xlink="http://www.w3.org/1999/xlink" x="0px" y="0px"
	 viewBox="0 0 512 512" style="enable-background:new 0 0 512 512;" xml:space="preserve">

	
	


<g>
	<g>
		<g>
			<path d="M256,313.1c27.6,0,57.1-1.4,57.1-19v-22.6L279,251l-2.5-2.5c6.9-5.8,11.3-14.5,11.3-24.2V218
				c0-17.5-14.2-31.7-31.7-31.7s-31.7,14.2-31.7,31.7v6.3c0,9.7,4.4,18.4,11.3,24.2l-2.5,2.5l-34.1,20.5v22.6
				C198.9,311.7,228.4,313.1,256,313.1z M237,217.9c0-10.5,8.6-19,19-19s19,8.6,19,19v6.3c0,10.5-8.6,19-19,19c-10.5,0-19-8.6-19-19
				V217.9z M211.6,278.6l28.6-17.2l7-6.7c2.8,0.8,5.8,1.3,8.8,1.3c3.1,0,6-0.5,8.8-1.3l5.7,5.7l29.9,18.2v15.5
				c0,0.1-0.5,6.3-44.4,6.3s-44.4-6.3-44.4-6.3L211.6,278.6L211.6,278.6z"/>
			<rect x="249.7" y="78.3" width="12.7" height="12.7"/>
			<rect x="97.4" y="167.2" width="12.7" height="12.7"/>
			<rect x="401.9" y="167.2" width="12.7" height="12.7"/>
			<rect x="97.4" y="332.1" width="12.7" height="12.7"/>
			<path d="M424.9,311.4c5.8-17.8,8.8-36.4,8.8-55.4c0-19.1-3-37.7-8.8-55.4c9.1-5.6,15.1-15.6,15.1-27
				c0-17.5-14.2-31.7-31.7-31.7c-4.9,0-9.5,1.1-13.6,3.1c-27-33.7-64.7-56.2-107.1-63.8C285.7,65.3,272.3,53,256,53
				s-29.7,12.4-31.5,28.2c-42.4,7.6-80,30.1-107.1,63.8c-4.2-2-8.8-3.1-13.7-3.1C86.2,141.8,72,156,72,173.5
				c0,11.4,6.1,21.5,15.1,27c-5.8,17.8-8.8,36.3-8.8,55.4s3,37.7,8.8,55.4c-9,5.6-15.1,15.6-15.1,27c0,17.5,14.2,31.7,31.7,31.7
				c4.9,0,9.5-1.1,13.6-3.1c27,33.7,64.7,56.2,107.1,63.8c1.7,15.8,15.2,28.2,31.5,28.2s29.7-12.4,31.5-28.2
				c42.4-7.6,80-30.1,107.1-63.8c4.1,2,8.8,3.1,13.6,3.1c17.5,0,31.7-14.2,31.7-31.7C440,327.1,433.9,317,424.9,311.4z M421,256
				c0,17.6-2.7,34.7-8.1,51.1c-1.5-0.2-3-0.3-4.6-0.3c-9.8,0-18.5,4.4-24.3,11.3l-35.8-19.6c6-12.9,9.4-27.4,9.4-42.5
				c0-15.1-3.3-29.6-9.4-42.5l35.8-19.6c5.8,7,14.6,11.3,24.3,11.3c1.6,0,3.1-0.1,4.6-0.3C418.3,221.3,421,238.4,421,256z
				 M167.2,256c0-49,39.8-88.8,88.8-88.8s88.8,39.8,88.8,88.8S305,344.8,256,344.8S167.2,305,167.2,256z M427.3,173.5
				c0,10.5-8.6,19-19,19c-10.5,0-19-8.6-19-19s8.6-19,19-19C418.7,154.5,427.3,163,427.3,173.5z M256,65.7c10.5,0,19,8.6,19,19
				s-8.6,19-19,19c-10.5,0-19-8.6-19-19S245.5,65.7,256,65.7z M225.6,93.8c3.3,11.1,12.5,19.6,24,22v26h12.7v-26
				c11.5-2.3,20.7-10.9,24-22c38.8,7.2,73.3,27.8,98.1,58.8c-4.9,5.6-7.9,12.9-7.9,20.9c0,3.2,0.5,6.3,1.3,9.2l-35.8,19.6
				c-17.9-28.7-49.9-47.8-86.1-47.8c-36.3,0-68.2,19.1-86.1,47.8l-35.8-19.6c0.9-2.9,1.3-6,1.3-9.2c0-8-3-15.4-7.9-20.9
				C152.3,121.6,186.8,101,225.6,93.8z M103.7,154.5c10.5,0,19,8.6,19,19s-8.6,19-19,19s-19-8.6-19-19S93.3,154.5,103.7,154.5z
				 M91,256c0-17.6,2.7-34.7,8.1-51.1c1.5,0.2,3,0.3,4.6,0.3c9.8,0,18.5-4.4,24.3-11.3l35.8,19.6c-5.9,12.9-9.4,27.4-9.4,42.5
				s3.3,29.6,9.4,42.5l-35.8,19.6c-5.7-6.9-14.4-11.3-24.2-11.3c-1.6,0-3.1,0.1-4.6,0.3C93.7,290.7,91,273.6,91,256z M84.7,338.5
				c0-10.5,8.6-19,19-19s19,8.6,19,19s-8.6,19-19,19S84.7,349,84.7,338.5z M256,446.3c-10.5,0-19-8.6-19-19c0-10.5,8.6-19,19-19
				s19,8.6,19,19C275,437.8,266.5,446.3,256,446.3z M286.4,418.2c-3.3-11.1-12.5-19.6-24-22v-26h-12.7v26c-11.5,2.3-20.7,10.9-24,22
				c-38.8-7.2-73.3-27.8-98.1-58.8c4.9-5.6,7.9-12.9,7.9-20.9c0-3.2-0.5-6.3-1.3-9.2l35.8-19.6c17.9,28.7,49.8,47.8,86.1,47.8
				s68.2-19.1,86.1-47.8l35.8,19.6c-0.9,2.9-1.3,6-1.3,9.2c0,8,3,15.4,7.9,20.9C359.7,390.4,325.2,411,286.4,418.2z M408.3,357.5
				c-10.5,0-19-8.6-19-19s8.6-19,19-19c10.5,0,19,8.6,19,19S418.7,357.5,408.3,357.5z"/>
			<rect x="401.9" y="332.1" width="12.7" height="12.7"/>
			<rect x="249.7" y="421" width="12.7" height="12.7"/>
		</g>
	</g>
</g>
</svg>
