<?xml version="1.0" encoding="utf-8"?>
<!-- Generator: Adobe Illustrator 25.0.1, SVG Export Plug-In . SVG Version: 6.00 Build 0)  -->
<svg version="1.1" fill="#8052FD" id="Layer_1" xmlns="http://www.w3.org/2000/svg" xmlns:xlink="http://www.w3.org/1999/xlink" x="0px" y="0px"
	 viewBox="0 0 511 511" style="enable-background:new 0 0 511 511;" xml:space="preserve">

	
	


<g id="Layer_2_1_">
	<g id="Layer_1-2">
		<path d="M412.9,221.1c5.1-9.1,4.8-18.4,0.4-27.5c-4.6-9.5-12.7-14.3-23-14.4c-25.3-0.3-50.6-0.2-75.9-0.1
			c-4.1,0-5.2-1.1-4.2-5.1c1.3-5.9,2.2-11.8,3.1-17.8c1.6-10.5,4.2-20.9,2.4-31.7c-2.8-16.6-9.3-31.9-16.3-47
			c-1.3-2.9-4.2-5.4-6.9-7.2c-7.1-4.6-15.1-6-23.5-5c-16.1,1.8-23.6,10.4-23.3,26.4c0.2,9.1,0.8,18.2,0.6,27.3
			c-0.1,4.4-0.5,9.2-2.4,13c-11.4,22.6-24.4,44.3-40,64.3c-4,5.1-8.2,8.1-14.9,5.4c-1.5-0.6-3.4-0.3-5-0.3H93.2
			c-14.2,0-19.6,5.4-19.6,19.6c0,35.2,0,70.4,0,105.5c0,8.5-0.1,17,0,25.5c0.2,9.2,6.1,15.9,14.6,15.9c29.9,0.2,59.9,0.2,89.8,0
			c7.8,0,12.9-5,14-12.7c0.3-1.8,0.5-3.6,0.9-6.6c3.3,1.4,6.1,2.3,8.6,3.8c6.4,3.7,13.7,5.7,21.2,5.7c42.6,0,85.2,0.2,127.8-0.2
			c8.8-0.1,18.1-1.3,26.2-4.4c15-5.8,22.3-22.6,18.6-40.1c-0.8-3.9-0.5-7.1,1.8-10.4c5.8-8.6,8-18.1,4.8-28.2
			c-1.3-4-0.7-6.9,1.6-10.3c6.1-9,8-18.8,4.8-29.5c-0.7-2.2,0.1-5,0.9-7.4C410.1,225.3,411.6,223.2,412.9,221.1z M174.9,354.1H88.1
			v-5c0-0.3,0-0.6,0-0.8c0-2,0-4,0-6V227.8v-6.3c0-0.3,0-0.6,0-0.9v-4.9h86.8V354.1z M401.6,212L401.6,212c-0.2,0.9-0.4,1.9-0.7,2.8
			l0,0l0,0c-0.3,0.9-0.6,1.8-1,2.6l0,0l0,0l0,0c-0.6,1.2-1.3,2.4-2.1,3.5l-0.1,0.2c-0.2,0.3-0.4,0.5-0.6,0.8l-0.2,0.2
			c-0.2,0.3-0.4,0.5-0.7,0.8c0,0-0.1,0.1-0.1,0.2c-0.3,0.3-0.6,0.6-0.9,0.9l0,0c-0.3,0.3-0.6,0.5-0.9,0.8l-0.3,0.2l-0.7,0.5
			l-0.3,0.2c-0.2,0.2-0.5,0.3-0.7,0.5c-0.1,0.1-0.2,0.1-0.3,0.2c-0.3,0.2-0.7,0.4-1,0.6h0l-0.3,0.2c-0.8,0.4-9.5,4.4-9.5,4.4
			l7.1,3.9c0.4,0.2,0.7,0.4,1.1,0.7l0.3,0.2c0.2,0.2,0.5,0.3,0.7,0.5l0.3,0.2c0.2,0.2,0.4,0.4,0.7,0.6l0.2,0.2
			c0.3,0.3,0.5,0.5,0.8,0.8l0,0c0.5,0.6,1,1.2,1.4,1.9l0.1,0.1c0.2,0.3,0.3,0.6,0.5,1c0,0,0,0.1,0,0.1c0.2,0.4,0.3,0.7,0.4,1.1l0,0
			c0.1,0.2,0.1,0.4,0.2,0.7l0,0l0,0.1l0,0c0.1,0.2,0.1,0.4,0.1,0.7l0,0c0,0,0,0,0,0c0.1,0.7,0.2,1.4,0.2,2.2l0,0c0,0.2,0,0.3,0,0.5
			l0,0c0,0.2,0,0.3,0,0.5l0,0v0.1c0,0.7-0.1,1.4-0.2,2c-1.3,8.2-6.1,13.9-13.8,17.2c-1.8,0.8-3.5,1.7-6,3c2,1.3,3.2,2.2,4.5,2.9
			c9.8,5.7,12,15,5,24.1c-2.6,3.4-6.7,5.6-10.2,8.2c-1.4,1-3,1.8-4.9,3c2.1,1.5,3.6,2.6,5,3.7c5.9,4.6,7.6,10.9,4.6,17.7
			c-3.6,8.1-10.1,12.6-19,13.4c-3.7,0.3-7.4,0.4-11.1,0.4c-40.3,0-80.5-0.1-120.8,0.1c-8.9,0-16.9-1.9-24.5-6.8
			c-2.2-1.1-4.6-2-6.9-2.7c-0.8-0.2-1.6-0.4-2.4-0.5l-0.2,0l-2.1-0.4c-0.3-0.1-0.5-0.1-0.8-0.2c-0.2-0.1-0.4-0.1-0.7-0.2
			c-0.9-0.1-1.7-0.2-2.6-0.2v-3.8c0,0,0,0,0-0.1c0-12.7,0-25.3,0-38c0-12.1,0-24.2,0.1-36.3l0,0v-29.3c0,0,10.5-5.4,17.6-10.6l0,0
			c0.9-0.6,1.7-1.3,2.5-2l0.2-0.2c0.8-0.7,1.6-1.4,2.4-2.1c1.3-1.4,2.6-2.8,4-4.2c0.4-0.5,0.8-1,1.3-1.6c1.8-2.3,3.7-4.6,5.2-7.1
			c11.6-18.8,23.1-37.5,34.6-56.4c3.5-5.7,5.1-12.3,4.7-19c-0.4-9.7-0.5-19.4-0.7-29.2c-0.2-9.9,3.5-13.5,13.5-13.5
			c7.7,0,13.8,2.3,16.4,10.6c3.3,10.6,7.7,20.8,10.6,31.5c3.3,12.4-0.1,24.8-2.1,37.1c-1.9,11.4-3.8,22.8-5.8,34.9h6.1
			c28.4,0,56.8,0,85.2,0c5.8,0,11.5,0.5,15.4,5.7c0.8,1.1,1.4,2.2,1.9,3.5l0,0c0,0.1,0,0.1,0.1,0.2c0.2,0.4,0.3,0.8,0.4,1.2v0.1l0,0
			c0.2,0.8,0.3,1.6,0.4,2.4l0,0c0,0,0,0.1,0,0.1c0,0.4,0.1,0.9,0.1,1.3c0,0,0,0.1,0,0.1l0,0C401.9,209.2,401.8,210.6,401.6,212
			L401.6,212z"/>
	</g>
</g>
</svg>
