<?xml version="1.0" encoding="utf-8"?>
<!-- Generator: Adobe Illustrator 25.0.1, SVG Export Plug-In . SVG Version: 6.00 Build 0)  -->
<svg version="1.1" fill="#8052FD" id="Layer_1" xmlns="http://www.w3.org/2000/svg" xmlns:xlink="http://www.w3.org/1999/xlink" x="0px" y="0px"
	 viewBox="0 0 497.8 497.8" style="enable-background:new 0 0 497.8 497.8;" xml:space="preserve">

	
	


<g id="Layer_2_1_">
	<g id="Calque_1">
		<path d="M376.1,244.7c-3.4,0-6.1,2.7-6.1,6.1l0,0v107.7c0,15.3-12.4,27.6-27.6,27.6H118.9
			c-15.3,0-27.6-12.4-27.6-27.6V222.9h135.3c3.4,0,6.1-2.7,6.1-6.1c0-3.4-2.7-6.1-6.1-6.1H91.3v-17.9c0-15.3,12.4-27.6,27.6-27.6h90
			c3.4,0,6.1-2.7,6.1-6.1c0-3.4-2.7-6.1-6.1-6.1h-90c-21.9,0-39.7,17.8-39.8,39.8v165.7c0,22,17.9,39.8,39.8,39.8h223.5
			c22,0,39.8-17.9,39.8-39.8V250.8C382.2,247.4,379.5,244.7,376.1,244.7z"/>
		<path d="M192,271.7c-2.4-2.4-6.2-2.4-8.6,0l-26.1,26.2c-3,3-3,7.9,0,10.8l26.1,26c2.2,2.5,6.1,2.7,8.6,0.5
			c2.5-2.2,2.7-6.1,0.5-8.6c-0.1-0.1-0.4-0.4-0.5-0.5l-22.9-22.9l22.9-23C194.4,277.9,194.4,274,192,271.7z"/>
		<path d="M272,334.6c2.4,2.4,6.2,2.4,8.6,0l26.1-26.2c3-3,3-7.9,0-10.8l-26.1-25.9c-2.2-2.5-6.1-2.7-8.6-0.5
			s-2.7,6.1-0.5,8.6c0.1,0.1,0.4,0.4,0.5,0.5l22.9,22.8L272,326C269.7,328.4,269.7,332.3,272,334.6z"/>
		<path d="M214.8,338.1c3,1.5,6.6,0.4,8.1-2.6l29-57.1c1.6-2.9,0.5-6.6-2.4-8.2s-6.6-0.5-8.2,2.4
			c-0.1,0.1-0.1,0.2-0.1,0.3l-29,57.1C210.6,332.9,211.8,336.6,214.8,338.1L214.8,338.1z"/>
		<path d="M366,217.9c1.3,0,2.5,0.5,3.4,1.4l49.7,48.2c3.6,3.7,9.4,3.8,13.1,0.2c3.7-3.6,3.8-9.4,0.2-13.1
			c-0.1-0.1-0.3-0.3-0.4-0.4l-49.7-48.2c-1.7-1.6-2-4.4-0.6-6.3c13.5-19.4,18.2-43.5,13-66.6c-9.7-42.6-51.2-70.7-94.3-64.1
			c-45.7,7.1-77.1,49.9-69.9,95.7c0.3,1.7,0.6,3.5,1,5.2c9.4,42.3,50.2,70.7,93.1,64.8c14-1.9,27.2-7.4,38.6-15.8
			C363.9,218.2,365,217.9,366,217.9z M313,222.9c-39.3-0.1-71.1-32-71.1-71.3c0-14.3,4.4-28.2,12.4-40.1
			c22.1-32.4,66.4-40.8,98.9-18.6s40.8,66.4,18.6,98.9c-10.6,15.6-27.1,26.4-45.7,29.8C321.9,222.5,317.5,222.9,313,222.9L313,222.9
			z"/>
	</g>
</g>
<path d="M294.5,190.2c-2.6,0-5-1-6.9-2.9L264.2,164c-2.4-2.4-2.4-6.2,0-8.6c2.4-2.4,6.2-2.4,8.6,0l21.6,21.6l53.4-53.2
	c2.4-2.4,6.2-2.4,8.6,0c2.4,2.4,2.4,6.2,0,8.6l-55,55C299.5,189.2,297.1,190.2,294.5,190.2z"/>
</svg>
