<?xml version="1.0" encoding="utf-8"?>
<!-- Generator: Adobe Illustrator 25.0.1, SVG Export Plug-In . SVG Version: 6.00 Build 0)  -->
<svg version="1.1" fill="#8052FD" id="Layer_1" xmlns="http://www.w3.org/2000/svg" xmlns:xlink="http://www.w3.org/1999/xlink" x="0px" y="0px"
	 viewBox="0 0 498.1 498.1" style="enable-background:new 0 0 498.1 498.1;" xml:space="preserve">

	
	


<g id="Layer_2_1_">
	<g id="Calque_1">
		<path d="M368.3,242.7c-3.4,0-6.1,2.7-6.1,6.1c0,0,0,0,0,0v107.9c0,15.3-12.4,27.7-27.7,27.7H110.8
			c-15.3,0-27.7-12.4-27.7-27.7V220.9h135.5c3.4,0,6.1-2.7,6.1-6.1c0-3.4-2.7-6.1-6.1-6.1H83.1v-18c0-15.3,12.4-27.7,27.7-27.7h90.1
			c3.4,0,6.1-2.7,6.1-6.1s-2.7-6.1-6.1-6.1h-90.1c-22,0-39.8,17.8-39.9,39.8v165.9c0,22,17.9,39.8,39.9,39.9h223.7
			c22,0,39.8-17.9,39.9-39.9V248.8C374.3,245.4,371.6,242.7,368.3,242.7z"/>
		<path d="M183.9,269.7c-2.4-2.4-6.2-2.4-8.6,0L149.2,296c-3,3-3,7.8,0,10.8l26.1,26c2.2,2.5,6.1,2.7,8.6,0.5
			c2.5-2.2,2.7-6.1,0.5-8.6c-0.2-0.2-0.3-0.3-0.5-0.5L161,301.4l22.9-23C186.3,276,186.3,272.1,183.9,269.7z"/>
		<path d="M264,332.8c2.4,2.4,6.2,2.4,8.6,0l26.1-26.2c3-3,3-7.8,0-10.8l-26.1-26c-2.2-2.5-6.1-2.7-8.6-0.5
			c-2.5,2.2-2.7,6.1-0.5,8.6c0.2,0.2,0.3,0.3,0.5,0.5l22.9,22.8L264,324.2C261.7,326.6,261.7,330.4,264,332.8z"/>
		<path d="M206.7,336.2c3,1.5,6.7,0.3,8.2-2.7l29-57.2c1.6-3,0.5-6.6-2.5-8.2c-3-1.6-6.6-0.5-8.2,2.5
			c0,0.1-0.1,0.2-0.1,0.3l-29,57.2C202.5,331,203.7,334.7,206.7,336.2C206.7,336.2,206.7,336.2,206.7,336.2z"/>
		<path d="M358.1,215.8c1.3,0,2.5,0.5,3.4,1.4l49.7,48.2c3.6,3.7,9.5,3.8,13.1,0.2c3.7-3.6,3.8-9.5,0.2-13.1
			c-0.1-0.1-0.3-0.3-0.4-0.4l-49.7-48.3c-1.7-1.7-2-4.3-0.6-6.3c13.5-19.4,18.3-43.6,13-66.6c-9.7-42.6-51.2-70.8-94.4-64.1
			c-45.8,7.1-77.1,50-70,95.8c0.3,1.8,0.6,3.5,1,5.2c9.4,42.3,50.3,70.8,93.2,64.9c14-1.9,27.3-7.4,38.6-15.8
			C356,216.2,357.1,215.9,358.1,215.8z M305,220.9c-39.3-0.1-71.2-32-71.1-71.4c0-14.3,4.4-28.3,12.4-40.1
			c22.2-32.5,66.5-40.9,99-18.7s40.9,66.5,18.7,99c-10.7,15.6-27.1,26.4-45.7,29.9C313.9,220.5,309.5,220.9,305,220.9L305,220.9z"/>
	</g>
</g>
</svg>
