<?xml version="1.0" encoding="utf-8"?>
<!-- Generator: Adobe Illustrator 25.0.1, SVG Export Plug-In . SVG Version: 6.00 Build 0)  -->
<svg version="1.1" fill="#8052FD" id="Layer_1" xmlns="http://www.w3.org/2000/svg" xmlns:xlink="http://www.w3.org/1999/xlink" x="0px" y="0px"
	 viewBox="0 0 512 512" style="enable-background:new 0 0 512 512;" xml:space="preserve">

	
	


<path d="M211.6,361.3h-63V87h63V361.3z M158.9,351h42.4V97.3h-42.4V351z"/>
<path d="M284.5,361.3h-63V87h63V361.3z M231.9,351h42.4V97.3h-42.4V351z"/>
<path d="M357.4,361.3h-63V87h63V361.3z M304.7,351h42.4V97.3h-42.4V351z"/>
<path d="M420.9,418h-333V312.5h42.7v63h247.6v-63h42.7V418z M98.2,407.7h312.5v-84.9h-22.2v63H120.3v-63H98.2V407.7z"/>
<path d="M83.3,208.9l31.5,20.3l-31.5,20.3V208.9 M73,190v78.3l60.7-39.2L73,190L73,190z"/>
<path d="M384.9,208.9l31.5,20.3l-31.5,20.3V208.9 M374.6,190v78.3l60.7-39.2L374.6,190L374.6,190z"/>
</svg>
