<?xml version="1.0" encoding="utf-8"?>
<!-- Generator: Adobe Illustrator 25.0.1, SVG Export Plug-In . SVG Version: 6.00 Build 0)  -->
<svg version="1.1" fill="#8052FD" id="Capa_1" xmlns="http://www.w3.org/2000/svg" xmlns:xlink="http://www.w3.org/1999/xlink" x="0px" y="0px"
	 viewBox="0 0 512 512" style="enable-background:new 0 0 512 512;" xml:space="preserve">
<g>
	<g>
		<path d="M426.1,150.3c-4,0-7.3,3.3-7.3,7.3v150.5l-80.4,80.4v-48.1c0-12.1,9.8-21.9,21.9-21.9h21.9
			c4,0,7.3-3.3,7.3-7.3s-3.3-7.3-7.3-7.3h-21.9c-20.2,0-36.6,16.4-36.6,36.6v58.5H119.1c-12.1,0-21.9-9.8-21.9-21.9V157.6
			c0-3.7,1.3-22,21.9-22h58.5c4,0,7.3-3.3,7.3-7.3c0-4-3.3-7.3-7.3-7.3h-58.5c-28.9,0-36.6,23.9-36.6,36.6v219.3
			c0,20.2,16.4,36.6,36.6,36.6h212c1,0,1.9-0.2,2.8-0.6c0.9-0.4,1.7-0.9,2.4-1.6l95-95c1.4-1.4,2.1-3.2,2.1-5.2V157.6
			C433.4,153.6,430.2,150.3,426.1,150.3z"/>
	</g>
</g>
<g>
	<g>
		<path d="M382.3,91.8h-43.9c-4,0-7.3,3.3-7.3,7.3s3.3,7.3,7.3,7.3h43.8c3.4,0.1,7.4,1.4,7.4,7.3v58.4
			c-0.1,3.4-1.4,7.4-7.3,7.4h-26.2l9.5-9.5c2.9-2.9,2.9-7.5,0-10.3c-2.9-2.9-7.5-2.9-10.3,0l-21.9,21.9c-0.7,0.7-1.2,1.5-1.6,2.4
			c-0.7,1.8-0.7,3.8,0,5.6c0.4,0.9,0.9,1.7,1.6,2.4l21.9,21.9c1.4,1.4,3.3,2.1,5.2,2.1c1.9,0,3.7-0.7,5.2-2.1
			c2.9-2.9,2.9-7.5,0-10.3l-9.5-9.5h26.2c16.1,0,21.9-13.1,21.9-21.9v-58.5C404.2,97.6,391.1,91.8,382.3,91.8z"/>
	</g>
</g>
<g>
	<g>
		<path d="M182.7,269.4l-21.9-21.9c-2.9-2.9-7.5-2.9-10.3,0s-2.9,7.5,0,10.3l9.5,9.5h-26.2c-5.9,0-7.2-4-7.3-7.3v-58.5
			c0-5.9,4-7.2,7.3-7.3h43.9c4,0,7.3-3.3,7.3-7.3s-3.3-7.3-7.3-7.3h-43.9c-8.8,0-21.9,5.8-21.9,21.9v58.5c0,8.8,5.8,21.9,21.9,21.9
			h26.2l-9.5,9.5c-2.9,2.9-2.9,7.5,0,10.3c1.4,1.4,3.3,2.1,5.2,2.1c1.9,0,3.7-0.7,5.2-2.1l21.9-21.9c0.7-0.7,1.2-1.5,1.6-2.4
			c0.7-1.8,0.7-3.8,0-5.6C184,270.9,183.4,270.1,182.7,269.4z"/>
	</g>
</g>
<g>
	<g>
		<path d="M265.3,362.3H258c-4,0-7.3,3.3-7.3,7.3s3.3,7.3,7.3,7.3h7.3c4,0,7.3-3.3,7.3-7.3
			C272.6,365.5,269.4,362.3,265.3,362.3z"/>
	</g>
</g>
<g>
	<g>
		<path d="M294.6,362.3h-7.3c-4,0-7.3,3.3-7.3,7.3s3.3,7.3,7.3,7.3h7.3c4,0,7.3-3.3,7.3-7.3S298.6,362.3,294.6,362.3z"
			/>
	</g>
</g>
<g>
	<g>
		<path d="M301.9,62.6h-87.7c-8.1,0-14.6,6.6-14.6,14.6V121c0,8.1,6.6,14.6,14.6,14.6h87.7c8.1,0,14.6-6.6,14.6-14.6
			V77.2C316.5,69.1,309.9,62.6,301.9,62.6z M301.9,121l-87.7,0V77.2h87.7V121z"/>
	</g>
</g>
<g>
	<g>
		<path d="M301.9,150.3h-87.7c-8.1,0-14.6,6.6-14.6,14.6v43.9c0,8.1,6.6,14.6,14.6,14.6h87.7c8.1,0,14.6-6.6,14.6-14.6
			v-43.9C316.5,156.8,309.9,150.3,301.9,150.3z M301.9,208.8l-87.7,0v-43.8h87.7V208.8z"/>
	</g>
</g>
<g>
	<g>
		<path d="M301.9,238h-87.7c-8.1,0-14.6,6.6-14.6,14.6v43.9c0,8.1,6.6,14.6,14.6,14.6h87.7c8.1,0,14.6-6.6,14.6-14.6
			v-43.9C316.5,244.6,309.9,238,301.9,238z M301.9,296.5l-87.7,0v-43.8h87.7V296.5z"/>
	</g>
</g>
<g>
	<g>
		<path d="M221.4,333h-87.7c-8.1,0-14.6,6.6-14.6,14.6v14.6c0,8.1,6.6,14.6,14.6,14.6h87.7c8.1,0,14.6-6.6,14.6-14.6
			v-14.6C236.1,339.6,229.5,333,221.4,333z M221.4,362.3l-87.7,0v-14.6h87.7V362.3z"/>
	</g>
</g>
<g>
	<g>
		<path d="M294.6,333H258c-4,0-7.3,3.3-7.3,7.3s3.3,7.3,7.3,7.3h36.6c4,0,7.3-3.3,7.3-7.3
			C301.9,336.3,298.6,333,294.6,333z"/>
	</g>
</g>
</svg>
