<?xml version="1.0" encoding="utf-8"?>
<!-- Generator: Adobe Illustrator 25.0.1, SVG Export Plug-In . SVG Version: 6.00 Build 0)  -->
<svg version="1.1" fill="#8052FD" id="Capa_1" xmlns="http://www.w3.org/2000/svg" xmlns:xlink="http://www.w3.org/1999/xlink" x="0px" y="0px"
	 viewBox="0 0 512 512" style="enable-background:new 0 0 512 512;" xml:space="preserve">

	
	


<g>
	<path d="M413.3,274.1l30.1-37.2c1.4-1.6,0.1-4.1-1.9-4.1h-23.4l-1.1-5.8c-14.2-76.5-80.9-132.1-158.7-132.1
		c-89,0-161.4,72.4-161.4,161.4s72.4,161.4,161.4,161.4c57.5,0,111-30.9,139.8-80.7c2.3-3.9,0.9-9-3-11.2c-1.9-1.1-4.1-1.4-6.2-0.9
		c-2.1,0.6-3.8,1.9-5,3.8c-25.8,44.7-74,72.5-125.6,72.5c-80,0-145-65-145-145c0-80,65-145,145-145c66.9,0,126.4,47.4,141.3,112.8
		l2,8.7h-26.2c-2.1,0-3.3,2.4-1.9,4.1l30.2,37.2C406.2,277.2,410.8,277.2,413.3,274.1z"/>
	<path d="M258.4,267.8c-6.3,0-11.5-5.1-11.5-11.5s5.1-11.5,11.5-11.5c6.3,0,11.5,5.1,11.5,11.5
		C269.9,262.6,264.7,267.8,258.4,267.8z M270.1,272.5l56.5,32.6c3.8,2.2,9,0.8,11.2-3c1.1-1.9,1.4-4.1,0.8-6.2
		c-0.6-2.1-1.9-3.9-3.8-5l-56.5-32.7l-0.4-3.7c-0.5-5.8-3.5-11.1-8.3-14.4l-3.1-2.1v-96.7c0-4.5-3.7-8.2-8.2-8.2
		c-4.5,0-8.2,3.7-8.2,8.2v96.7l-3.1,2.1c-5.3,3.7-8.5,9.8-8.5,16.1c0,10.8,8.8,19.7,19.7,19.7c2.8,0,5.6-0.6,8.3-1.9L270.1,272.5z"
		/>
</g>
</svg>
