<?xml version="1.0" encoding="utf-8"?>
<!-- Generator: Adobe Illustrator 25.0.1, SVG Export Plug-In . SVG Version: 6.00 Build 0)  -->
<svg version="1.1" fill="#8052FD" id="Layer_1" xmlns="http://www.w3.org/2000/svg" xmlns:xlink="http://www.w3.org/1999/xlink" x="0px" y="0px"
	 viewBox="0 0 50.6 50.3" style="enable-background:new 0 0 50.6 50.3;" xml:space="preserve">

	
	


<g>
	<path d="M16.3,18.3H9.6v-6.7H15v-1.3H9c-0.4,0-0.7,0.3-0.7,0.7V19c0,0.4,0.3,0.7,0.7,0.7H17c0.4,0,0.7-0.3,0.7-0.7v-4
		h-1.3V18.3z"/>
	<path d="M12.9,15.9l-1.5-1.5l-1,1l2,2c0.1,0.1,0.3,0.2,0.5,0.2c0,0,0,0,0,0c0.2,0,0.4-0.1,0.5-0.3l4.7-6.1l-1.1-0.8
		L12.9,15.9z"/>
	<path d="M17,20.7H9c-0.4,0-0.7,0.3-0.7,0.7v8.1c0,0.4,0.3,0.7,0.7,0.7H17c0.4,0,0.7-0.3,0.7-0.7v-8.1
		C17.7,21,17.4,20.7,17,20.7z M16.3,28.8H9.6V22h6.7V28.8z"/>
	<path d="M17,31.2H9c-0.4,0-0.7,0.3-0.7,0.7v8.1c0,0.4,0.3,0.7,0.7,0.7H17c0.4,0,0.7-0.3,0.7-0.7v-8.1
		C17.7,31.5,17.4,31.2,17,31.2z M16.3,39.3H9.6v-6.7h6.7V39.3z"/>
	<path d="M42.3,13.8v-2.2c0-0.8-0.6-1.4-1.4-1.4H20.6c-0.8,0-1.4,0.6-1.4,1.4v2.2c0,0.8,0.6,1.4,1.4,1.4H21
		c-0.2,3.7,1.6,7.1,4.9,9l2.1,1.2c0,0,0,0,0,0.1l-2.1,1.2c-3.2,1.9-5.1,5.3-4.9,9h-0.4c-0.8,0-1.4,0.6-1.4,1.4v2.2
		c0,0.8,0.6,1.4,1.4,1.4h20.3c0.8,0,1.4-0.6,1.4-1.4V37c0-0.8-0.6-1.4-1.4-1.4h-0.4c0.2-3.7-1.6-7.1-4.9-9c0,0,0,0,0,0l-2.1-1.2
		c0,0,0,0,0-0.1l2.1-1.2c3.2-1.9,5.1-5.3,4.9-9h0.4C41.7,15.2,42.3,14.6,42.3,13.8z M20.5,13.8v-2.2c0,0,0-0.1,0.1-0.1h20.3
		c0,0,0.1,0,0.1,0.1v2.2c0,0,0,0.1-0.1,0.1h-1.2h-18L20.5,13.8C20.5,13.8,20.5,13.8,20.5,13.8z M40.9,37v2.2c0,0,0,0.1-0.1,0.1H20.6
		c0,0-0.1,0-0.1-0.1V37c0,0,0-0.1,0.1-0.1h1.2h18L40.9,37C40.9,37,40.9,37,40.9,37z M34.9,23l-2.1,1.2c-0.2,0.1-0.4,0.3-0.5,0.5
		c-0.4,0.7-0.2,1.5,0.5,1.9l2.1,1.2c2.8,1.6,4.4,4.6,4.2,7.8H22.3c-0.2-3.2,1.4-6.2,4.2-7.8l2.1-1.2c0.2-0.1,0.4-0.3,0.5-0.5
		c0.4-0.7,0.2-1.5-0.5-1.9L26.5,23c-2.8-1.6-4.4-4.6-4.2-7.8h16.8C39.3,18.4,37.7,21.4,34.9,23z"/>
	<circle cx="30.7" cy="33.9" r="0.8"/>
	<circle cx="30.7" cy="30.6" r="0.8"/>
	<path d="M30.7,28.1c0.5,0,0.8-0.4,0.8-0.8c0-0.5-0.4-0.8-0.8-0.8s-0.8,0.4-0.8,0.8C29.9,27.7,30.3,28.1,30.7,28.1z"/>
</g>
</svg>
