<?xml version="1.0" encoding="utf-8"?>
<!-- Generator: Adobe Illustrator 25.0.1, SVG Export Plug-In . SVG Version: 6.00 Build 0)  -->
<svg version="1.1" fill="#8052FD" id="Capa_1" xmlns="http://www.w3.org/2000/svg" xmlns:xlink="http://www.w3.org/1999/xlink" x="0px" y="0px"
	 viewBox="0 0 512 512" style="enable-background:new 0 0 512 512;" xml:space="preserve">

	
	


<path d="M152.9,222.2h10.8v-10.8h-10.8V222.2z M289.8,379.3h10.8v-10.8h-10.8V379.3z M328.9,379.3h10.8v-10.8h-10.8
	V379.3z M368,379.3h10.8v-10.8H368V379.3z M251.1,418H418V290.9h-24.3l1.2-5.9c1.9-9.5,2.9-19.3,2.9-29c0-28.2-8.2-55.3-23.8-78.6
	l-1.8-2.7l1.8-2.7c2.7-4,4.2-8.8,4.2-13.7c0-13.5-11-24.4-24.4-24.4c-4.9,0-9.6,1.4-13.7,4.2l-2.7,1.8l-2.7-1.8
	c-23.7-15.9-50.9-24.4-78.6-24.4c-17,0-34.2,3.4-51.1,10.1l-4.4,1.8l-1.8-4.4c-7-16.4-22.9-27.1-40.4-27.1
	c-24.2,0-44.7,20.5-44.7,44.7v34.2H94v88h19.6l0.3,4.6c1.7,24.7,10,48.8,24.1,69.8l1.8,2.7l-1.8,2.7c-2.7,4-4.2,8.8-4.2,13.7
	c0,13.5,11,24.4,24.4,24.4c4.9,0,9.6-1.4,13.7-4.2l2.7-1.8l2.7,1.8c20.5,13.8,44.5,21.8,69.2,23.5l4.6,0.3V418z M408.2,408.2H260.9
	v-68.5h147.3V408.2z M251.1,388.7l-5.3-0.4c-22.5-1.7-43.4-8.9-62.3-21.3l-3.1-2l1-3.5c0.7-2.3,1-4.7,1-7.1
	c0-13.5-11-24.4-24.4-24.4c-2.4,0-4.8,0.3-7.1,1l-3.5,1l-2-3.1c-12.5-19-20.1-40.7-21.8-62.9l-0.5-5.3h98.4v-88h-19.6v-37.5l3-1.2
	c16.8-7.2,33.9-10.8,50.8-10.8c25.5,0,50.5,7.7,72.4,22.2l3.1,2l-1,3.5c-0.7,2.3-1,4.7-1,7.1c0,13.5,11,24.4,24.4,24.4
	c2.4,0,4.8-0.3,7.1-1l3.5-1l2,3.1c14.1,21.4,21.6,46.5,21.6,72.4c0,10.6-1.2,21-3.5,31.1l-0.9,3.8H251.1V388.7z M158.2,369.1
	c-8.1,0-14.7-6.6-14.7-14.7s6.6-14.7,14.7-14.7c8.1,0,14.7,6.6,14.7,14.7S166.3,369.1,158.2,369.1z M408.2,330H260.9v-29.3h147.3
	V330z M212,251.1H103.8v-68.5H212V251.1z M353.8,172.9c-8.1,0-14.7-6.6-14.7-14.7c0-8.1,6.6-14.7,14.7-14.7
	c8.1,0,14.7,6.6,14.7,14.7C368.5,166.3,361.9,172.9,353.8,172.9z M192.4,172.9h-69.1v-34.2c0-18.9,16-34.9,34.9-34.9
	c18.6,0,34.2,16,34.2,34.9V172.9z"/>
</svg>
