<?xml version="1.0" encoding="utf-8"?>
<!-- Generator: Adobe Illustrator 25.0.1, SVG Export Plug-In . SVG Version: 6.00 Build 0)  -->
<svg version="1.1" fill="#8052FD"  id="Layer_1" xmlns="http://www.w3.org/2000/svg" xmlns:xlink="http://www.w3.org/1999/xlink" x="0px" y="0px"
	 viewBox="0 0 512 512" style="enable-background:new 0 0 512 512;" xml:space="preserve">
<path d="M199.3,373.9c-4.3,0-8.2,2.7-9.8,6.6s-0.7,8.4,2.4,11.5l38.1,37.6c4,4,10.7,4,14.7,0l38.1-37.6
	c3-3,3.9-7.5,2.3-11.5c-1.6-4-5.5-6.6-9.7-6.6h-9.8V265.2c0-3.5-2.9-6.4-6.4-6.4h-10.9l32.8-32.3l32.7,32.3h-10.9
	c-3.5,0-6.4,2.9-6.4,6.4v43c0,11.6,9.5,21,21.1,21h95.1c8.9,0,17.2-5,21.5-13.1c10.1-18.8,11.3-40.9,3.5-60.6l0,0
	c-6.8-17.1-19.7-30.8-36.3-38.6l-2-0.9l0.4-2.1c2-10,1.3-20.3-1.9-29.9c-4.2-12.3-12.5-22.9-23.5-29.9s-24.2-10-37-8.5
	c-0.7,0.1-1.2,0.1-1.8,0.2l-2.8,0.4l-0.4-2.8c-3.8-25.4-20.6-47.6-44.1-58c-27.2-12.1-59.1-6.9-81.2,12.9
	c-13.2,11.9-21.7,28.2-24.2,45.8l-0.4,2.8l-2.8-0.4c-19.1-3-38.5-0.1-56,8.4c-20.7,10-37.1,27.1-46.1,48.3
	c-9.1,21.2-10.2,44.9-3.2,66.8c7,21.9,21.7,40.4,41.4,52.3c7.4,4.4,15.9,6.8,24.4,6.8h60.7c4.6,0,8.4,3.7,8.4,8.2v36.6L199.3,373.9
	L199.3,373.9z M237.3,419l-32.7-32.4h10.9c3.5,0,6.4-2.9,6.4-6.4v-43c0-11.5-9.5-20.8-21-20.8h-60.7c-6.3,0-12.4-1.7-17.8-5
	c-35-21.1-49.3-65.5-33.2-103.1l0,0c15.1-35.2,53.4-55.6,91.1-48.6l2.1,0.4l0.2,2.1c0.6,5.5,1.7,10.8,3.3,15.8
	c0.9,2.7,3.3,4.4,6.1,4.4c0.6,0,1.3-0.1,2.1-0.4c1.6-0.5,2.9-1.6,3.6-3.1c0.7-1.6,0.9-3.3,0.4-4.9c-7.7-23.5-0.7-49.5,17.7-66.1
	c18.3-16.6,44.9-20.8,67.5-10.8c20.6,9.2,34.7,28.8,37,51.2l0.2,1.9l-1.7,0.9c-5.8,2.9-11,6.6-15.4,11.1c-1.2,1.2-1.8,2.8-1.8,4.5
	c0,1.7,0.7,3.3,1.8,4.4c2.5,2.5,6.5,2.4,8.9,0c14.6-14.7,37.9-17.4,55.4-6.3c17.3,10.9,24.9,32.9,18.2,52.3l-0.1,0.8l-0.7,0.7l0,0
	l0,0l-0.6-0.6h-1.8l2.7,0.8l-0.1,1.5c0-0.1,0.1,0.1,0.1,0.4l0.6,1.8c0.1,0.1,0.1,0.2,0.1,0.2l3.1,2.8h0.7l0.4,0.4
	c16.3,5.6,29.3,18,35.7,34.2c6.4,16.3,5.4,34.5-2.8,49.9c-2.1,3.9-6.1,6.4-10.4,6.4h-95.2c-4.5,0-8.4-3.8-8.4-8.4v-36.6h9.8
	c4.2,0,8.1-2.7,9.7-6.7c1.6-3.9,0.7-8.4-2.3-11.4L288,215.6c-4.1-3.5-10.5-3.3-14.3,0.4l-38.1,37.5c-3.1,3-4.1,7.5-2.5,11.4
	c1.6,4,5.5,6.7,9.8,6.7h9.8v108.7c0,3.5,2.9,6.4,6.4,6.4h11L237.3,419z"/>
</svg>
