<?xml version="1.0" encoding="utf-8"?>
<!-- Generator: Adobe Illustrator 25.0.1, SVG Export Plug-In . SVG Version: 6.00 Build 0)  -->
<svg version="1.1" fill="#8052FD" id="Capa_1" xmlns="http://www.w3.org/2000/svg" xmlns:xlink="http://www.w3.org/1999/xlink" x="0px" y="0px"
	 viewBox="0 0 512 512" style="enable-background:new 0 0 512 512;" xml:space="preserve">

	
	


<g>
	<g>
		<g>
			<path d="M396.2,90.3L396.2,90.3h-82.4v-19c0-3.5-2.8-6.3-6.3-6.3l0,0H206.2c-3.5,0-6.3,2.8-6.3,6.3l0,0v19h-82.4
				c-3.5,0-6.3,2.8-6.3,6.3l0,0v323c0,3.5,2.8,6.3,6.3,6.3l0,0h278.8c3.5,0,6.3-2.8,6.3-6.3l0,0v-323
				C402.6,93.1,399.7,90.3,396.2,90.3z M212.5,77.6h88.7v38h-88.7V77.6z M389.9,413.2H123.8V103h76v19c0,3.5,2.8,6.3,6.3,6.3l0,0
				h101.3c3.5,0,6.3-2.8,6.3-6.3l0,0v-19h76.1V413.2z"/>
		</g>
	</g>
	<g>
		<g>
			<rect x="136.5" y="349" width="139.4" height="12.7"/>
		</g>
	</g>
	<g>
		<g>
			<rect x="288.5" y="349" width="88.7" height="12.7"/>
		</g>
	</g>
	<g>
		<g>
			<rect x="136.5" y="381.7" width="240.8" height="12.7"/>
		</g>
	</g>
	<g>
		<g>
			<path d="M180.8,248.7L180.8,248.7h-38c-3.5,0-6.3,2.8-6.3,6.3l0,0v67.5c0,3.5,2.8,6.3,6.3,6.3l0,0h38
				c3.5,0,6.3-2.8,6.3-6.3l0,0V255C187.2,251.5,184.3,248.7,180.8,248.7z M174.5,316.2h-25.3v-54.9h25.3V316.2z"/>
		</g>
	</g>
	<g>
		<g>
			<path d="M244.2,223.4L244.2,223.4h-38c-3.5,0-6.3,2.8-6.3,6.3l0,0v92.9c0,3.5,2.8,6.3,6.3,6.3l0,0h38
				c3.5,0,6.3-2.8,6.3-6.3l0,0v-92.9C250.5,226.2,247.7,223.4,244.2,223.4z M237.8,316.2h-25.3V236h25.3L237.8,316.2L237.8,316.2z"
				/>
		</g>
	</g>
	<g>
		<g>
			<path d="M307.5,198L307.5,198h-38c-3.5,0-6.3,2.8-6.3,6.3l0,0v118.2c0,3.5,2.8,6.3,6.3,6.3l0,0h38
				c3.5,0,6.3-2.8,6.3-6.3l0,0V204.4C313.8,200.9,311,198,307.5,198z M301.2,316.2h-25.3V210.7h25.3V316.2z"/>
		</g>
	</g>
	<g>
		<g>
			<path d="M370.9,172.7L370.9,172.7h-38c-3.5,0-6.3,2.8-6.3,6.3l0,0v143.5c0,3.5,2.8,6.3,6.3,6.3l0,0h38
				c3.5,0,6.3-2.8,6.3-6.3l0,0V179C377.2,175.5,374.3,172.7,370.9,172.7z M364.5,316.2h-25.3V185.3h25.3V316.2z"/>
		</g>
	</g>
	<g>
		<g>
			<path d="M369.7,128.5l-63.3,12.7c-0.8,0.1-1.6,0.4-2.3,1L248.6,179h-55.1c-1.2,0-2.4,0.4-3.3,1l-50.7,31.7l6.7,10.8
				l49.1-30.7h55.2c1.3,0,2.5-0.4,3.5-1l56-37.3l62.1-12.4L369.7,128.5z"/>
		</g>
	</g>
</g>
</svg>
