<?xml version="1.0" encoding="utf-8"?>
<!-- Generator: Adobe Illustrator 26.3.1, SVG Export Plug-In . SVG Version: 6.00 Build 0)  -->
<svg version="1.1" id="Layer_1" xmlns="http://www.w3.org/2000/svg" xmlns:xlink="http://www.w3.org/1999/xlink" x="0px" y="0px"
	 viewBox="0 0 512 512" style="enable-background:new 0 0 512 512;" xml:space="preserve">
<style type="text/css">
	.st0{fill:#8052FD;}
</style>
<path class="st0" d="M63.4,273.8c-0.1,0-0.1,0-0.2,0c-1.8,0-3.5,0.8-4.7,2.1s-1.9,3-1.9,4.8l1.1,46.8c0.1,7.5,4.9,14.3,11.9,17
	l18.5,7v0.8c0,10.3,0,19.7,0.1,28.5c0,7.7,0,14.8,0,21.6c0,10.1,8.3,18.3,18.4,18.3l33.3-0.1c10.1,0,18.3-8.2,18.3-18.3l0.1-50.9
	l18.2-6.8c7.2-2.5,12.1-9.3,12.2-16.9l2.8-119.6c0.6-7-3-13.8-9.2-17.4l-34.3-19.5l1.4-1.1c11.1-8.4,17.5-21.2,17.5-35
	c0-24.1-19.7-43.8-43.8-43.8c-24.1,0-43.8,19.7-43.8,43.8c0,13.9,6.4,26.6,17.5,35l1.4,1.1l-34.3,19.6c-5.8,3.4-9.3,9.6-9.2,16.3
	l0.2,10.6c0.1,3.7,3.2,6.6,6.9,6.6c3.7-0.1,6.6-3.2,6.6-6.9l-0.2-10.6c0-1.8,0.9-3.5,2.4-4.3l39.9-22.8c0.7-0.4,1.6-0.6,2.4-0.6
	h20.1c1,0,1.9,0.2,2.6,0.7l0,0l39.7,22.7c1.7,0.9,2.6,2.8,2.5,4.7v0.6l-2.7,119.8c0,2.3-1.6,3.9-3.2,4.4l0,0l-22.9,8.5
	c-2.6,1-4.3,3.5-4.3,6.3l-0.1,55.5c0,2.7-2.2,4.9-4.9,4.9l-33.4,0.1c-2.7,0-4.9-2.2-4.9-4.9c0-15.8,0-33.6-0.1-55.5
	c0-2.8-1.7-5.3-4.3-6.3L74.5,332c-2.2-0.9-3.1-2.9-3.2-4.5v-0.2l-1.1-46.9C70.1,276.7,67.1,273.8,63.4,273.8z M123.3,165.4
	c-16.7,0-30.3-13.6-30.3-30.3s13.6-30.3,30.3-30.3s30.3,13.6,30.3,30.3S140,165.4,123.3,165.4z M375.4,91.4
	c-24.1,0-43.8,19.7-43.8,43.8c0,14,6.8,27.3,18.2,35.5l1.3,0.9l-20.9,15.6c-3.4,2.5-5.8,6.2-6.8,10.3l-29.2,120.8
	c-2.2,9.2,2.8,18.6,11.8,21.6l34.3,11.9l0.1,49.3c-0.3,5.1,1.4,10.1,4.8,13.7c3.5,3.8,8.4,5.9,13.5,5.9l33.3-0.1
	c10.1,0,18.3-8.2,18.3-18.3l0.1-50.6l33.6-11.7c9.3-2.8,14.7-12.3,12.4-21.7l0,0l-2.2-9.2c-0.4-1.7-1.5-3.2-3-4.2
	c-1.5-0.9-3.3-1.2-5.1-0.8c-3.6,0.9-5.8,4.5-5,8.1l2.2,9.2c0.6,2.5-0.9,5.1-3.3,5.8l-0.2,0.1c-0.1,0-0.1,0-0.2,0.1l-38.2,13.3
	c-2.7,0.9-4.5,3.5-4.5,6.3l-0.1,55.4c0,2.7-2.2,4.9-4.9,4.9l-33.3,0.1c-1.8,0-3-0.9-3.6-1.5l-0.1-0.1c-0.3-0.4-1.4-1.7-1.2-3.7v-0.6
	l-0.1-54.3c0-2.8-1.7-5.4-4.5-6.3l-38.9-13.4c-2.4-0.8-3.8-3.4-3.2-5.8l29.2-120.8c0.2-1.1,0.9-2.1,1.9-2.8l24.1-18
	c0.8-0.6,1.7-0.9,2.9-0.9h20.1c1.1,0,2.1,0.3,3,1l0,0l24.1,17.9c0.9,0.7,1.7,1.8,1.9,3.2v0.2c0,0.1,0.1,0.2,0.1,0.3l11.9,49.3
	c0.4,1.7,1.5,3.2,3,4.2c1.5,0.9,3.3,1.2,5.1,0.8c3.6-0.9,5.8-4.5,5-8.1l-11.8-49.1c-0.9-4.7-3.3-8.7-7-11.4l-20.9-15.7l1.3-0.9
	c11.4-8.3,18.2-21.5,18.2-35.5C419.2,111.1,399.5,91.4,375.4,91.4z M375.3,165.4c-16.7,0-30.3-13.6-30.3-30.3s13.6-30.3,30.3-30.3
	c16.7,0,30.3,13.6,30.3,30.3S392,165.4,375.3,165.4z M243.5,55C231.1,55,221,65.1,221,77.5v357c0,12.4,10.1,22.5,22.5,22.5
	s22.5-10.1,22.5-22.5v-357C266,65.1,255.9,55,243.5,55z M243.5,443.6c-5,0-9.1-4.1-9.1-9.1v-357c0-5,4.1-9.1,9.1-9.1
	s9.1,4.1,9.1,9.1v357C252.6,439.5,248.5,443.6,243.5,443.6z M62.6,242.3c-3.7,0-6.7,3-6.7,6.7c0,3.7,3,6.7,6.7,6.7
	c3.7,0,6.7-3,6.7-6.7C69.3,245.3,66.3,242.3,62.6,242.3z M438.5,273.5c-1.7,0.5-3.2,1.7-4,3.2s-1.1,3.4-0.6,5.1
	c0.9,2.8,3.5,4.9,6.5,4.9c0.7,0,1.3-0.1,1.9-0.2c1.7-0.5,3.2-1.7,4-3.2s1.1-3.4,0.6-5.1s-1.6-3.2-3.2-4
	C442.1,273.2,440.2,273,438.5,273.5L438.5,273.5z"/>
</svg>
