<?xml version="1.0" encoding="utf-8"?>
<!-- Generator: Adobe Illustrator 25.0.1, SVG Export Plug-In . SVG Version: 6.00 Build 0)  -->
<svg version="1.1" fill="#8052FD" id="Capa_1" xmlns="http://www.w3.org/2000/svg" xmlns:xlink="http://www.w3.org/1999/xlink" x="0px" y="0px"
	 viewBox="0 0 512 512" style="enable-background:new 0 0 512 512;" xml:space="preserve">
<g>
	<path d="M255.9,382.9c70,0,126.9-56.9,126.9-126.9s-56.9-126.9-126.9-126.9S129,186.1,129,256S186,382.9,255.9,382.9z
		 M255.9,140.7c63.6,0,115.4,51.8,115.4,115.4s-51.8,115.4-115.4,115.4S140.6,319.6,140.6,256S192.3,140.7,255.9,140.7z"/>
	<path d="M255.9,169.5c3.2,0,5.8-2.6,5.8-5.8v-11.5c0-3.2-2.6-5.8-5.8-5.8c-3.2,0-5.8,2.6-5.8,5.8v11.5
		C250.2,166.9,252.8,169.5,255.9,169.5z"/>
	<path d="M255.9,342.6c-3.2,0-5.8,2.6-5.8,5.8v11.5c0,3.2,2.6,5.8,5.8,5.8c3.2,0,5.8-2.6,5.8-5.8v-11.5
		C261.7,345.1,259.1,342.6,255.9,342.6z"/>
	<path d="M348.2,261.8h11.5c3.2,0,5.8-2.6,5.8-5.8s-2.6-5.8-5.8-5.8h-11.5c-3.2,0-5.8,2.6-5.8,5.8
		S345.1,261.8,348.2,261.8z"/>
	<path d="M163.6,250.3h-11.5c-3.2,0-5.8,2.6-5.8,5.8s2.6,5.8,5.8,5.8h11.5c3.2,0,5.8-2.6,5.8-5.8
		S166.8,250.3,163.6,250.3z"/>
	<path d="M192.5,319.5c1.5,0,3-0.6,4.1-1.7l47.7-47.7c3.4,2,7.4,3.3,11.6,3.3c12.7,0,23.1-10.3,23.1-23.1
		c0-10.7-7.4-19.7-17.3-22.3v-29.7c0-3.2-2.6-5.8-5.8-5.8c-3.2,0-5.8,2.6-5.8,5.8V228c-9.9,2.6-17.3,11.5-17.3,22.3
		c0,4.3,1.2,8.2,3.3,11.6l-47.7,47.7c-2.3,2.3-2.3,5.9,0,8.2C189.5,318.9,191,319.5,192.5,319.5z M255.9,238.7
		c6.4,0,11.5,5.2,11.5,11.5c0,6.4-5.2,11.5-11.5,11.5c-6.4,0-11.5-5.2-11.5-11.5C244.4,243.9,249.6,238.7,255.9,238.7z"/>
	<path d="M141.1,140.7h45.7c3.2,0,5.8-2.6,5.8-5.8c0-3.2-2.6-5.8-5.8-5.8h-30.6c28.4-22.4,63.3-34.6,99.8-34.6
		C345,94.5,417.5,167,417.5,256c0,3.2,2.6,5.8,5.8,5.8c3.2,0,5.8-2.6,5.8-5.8C429,160.6,351.4,83,255.9,83
		c-40.3,0-78.7,13.9-109.6,39.3V88.7c0-3.2-2.6-5.8-5.8-5.8c-3.2,0-5.8,2.6-5.8,5.8v51.9h5.2C140.3,140.7,140.7,140.7,141.1,140.7z"
		/>
	<path d="M110.7,326.6c-1.4-2.9-4.8-4-7.7-2.7c-2.9,1.4-4,4.8-2.7,7.7c1,2,3.1,3.2,5.2,3.2c0.8,0,1.7-0.2,2.5-0.6
		C110.9,332.9,112.1,329.5,110.7,326.6z"/>
	<path d="M128.3,354.9c-2-2.5-5.5-3-8.1-1c-2.5,2-3,5.6-1,8.1c1.2,1.5,2.9,2.3,4.6,2.3c1.3,0,2.5-0.4,3.6-1.2
		C129.8,361,130.2,357.4,128.3,354.9z"/>
	<path d="M118.8,341.2c-1.7-2.7-5.2-3.5-8-1.8c-2.7,1.7-3.5,5.2-1.8,8c1.1,1.7,3,2.7,4.9,2.7c1,0,2.1-0.3,3.1-0.9
		C119.6,347.5,120.4,343.9,118.8,341.2z"/>
	<path d="M131.1,367.4c-2.3,2.2-2.4,5.8-0.2,8.1c1.1,1.2,2.7,1.8,4.2,1.8c1.4,0,2.9-0.5,4-1.6c2.3-2.2,2.4-5.8,0.2-8.1
		C137,365.2,133.4,365.2,131.1,367.4z"/>
	<path d="M143.2,379.6c-2.1,2.4-1.8,6.1,0.6,8.1c1.1,0.9,2.4,1.4,3.7,1.4c1.6,0,3.2-0.7,4.4-2c2.1-2.4,1.8-6.1-0.6-8.1
		C148.9,376.9,145.3,377.2,143.2,379.6z"/>
	<path d="M95.1,302.3c3.1-0.8,5-3.9,4.2-7c-0.8-3.1-3.9-5-7-4.2c-3.1,0.7-5,3.9-4.2,7c0.6,2.6,3,4.4,5.6,4.4
		C94.1,302.5,94.6,302.4,95.1,302.3z"/>
	<path d="M91.1,285.4c3.2-0.5,5.4-3.3,4.9-6.5c-0.5-3.2-3.4-5.4-6.5-4.9c-3.2,0.5-5.4,3.4-4.9,6.5c0.4,2.9,2.9,5,5.7,5
		C90.6,285.4,90.9,285.4,91.1,285.4z"/>
	<path d="M104.1,311.2c-1-3-4.4-4.6-7.4-3.5c-3,1.1-4.5,4.4-3.4,7.4c0.8,2.4,3.1,3.8,5.4,3.8c0.7,0,1.3-0.1,2-0.4
		C103.7,317.5,105.2,314.2,104.1,311.2z"/>
	<path d="M88.8,268.3c0.1,0,0.2,0,0.2,0c3.2-0.1,5.7-2.8,5.5-6c-0.1-3.2-2.8-5.7-6-5.5c-3.2,0.1-5.7,2.8-5.5,6
		C83.1,265.8,85.7,268.3,88.8,268.3z"/>
	<path d="M156.6,390.7c-1.8,2.6-1.2,6.2,1.4,8c1,0.7,2.1,1,3.3,1c1.8,0,3.6-0.9,4.7-2.5c1.8-2.6,1.2-6.2-1.4-8
		C162,387.4,158.4,388,156.6,390.7z"/>
	<path d="M365.2,374.9L365.2,374.9c-2.4,2.1-2.5,5.8-0.3,8.1c1.2,1.2,2.7,1.8,4.3,1.8c1.4,0,2.8-0.5,3.9-1.5
		c2.4-2.2,2.5-5.8,0.3-8.1C371.2,372.9,367.5,372.7,365.2,374.9z"/>
	<path d="M376.9,363c-2.1,2.4-1.9,6,0.5,8.1c1.1,1,2.5,1.4,3.8,1.4c1.6,0,3.2-0.6,4.3-2c2.1-2.4,1.9-6-0.5-8.1
		C382.6,360.4,379,360.6,376.9,363z"/>
	<path d="M387.3,349.9c-1.8,2.6-1.3,6.2,1.3,8.1c1,0.7,2.2,1.1,3.3,1.1c1.8,0,3.6-0.9,4.7-2.4c1.8-2.6,1.3-6.2-1.3-8.1
		C392.8,346.7,389.1,347.3,387.3,349.9z"/>
	<path d="M352.3,385.5c-2.5,1.9-3.1,5.5-1.2,8.1c1.1,1.6,2.8,2.3,4.6,2.3c1.2,0,2.4-0.4,3.4-1.1
		c2.6-1.9,3.1-5.5,1.2-8.1C358.5,384.1,354.9,383.6,352.3,385.5z"/>
	<path d="M338.4,394.8c-2.7,1.7-3.6,5.2-2,7.9c1,1.8,3,2.8,5,2.8c1,0,2-0.2,2.9-0.8c2.7-1.6,3.6-5.2,2-7.9
		C344.7,394.1,341.2,393.2,338.4,394.8z"/>
	<path d="M404.2,333.7c-2.8-1.6-6.3-0.6-7.9,2.2h0.1c-1.6,2.8-0.6,6.3,2.1,7.8c0.9,0.5,1.8,0.7,2.8,0.7c2,0,4-1,5-2.9
		C407.9,338.8,407,335.3,404.2,333.7z"/>
	<path d="M422.9,267.6c-3.2-0.4-6,2-6.3,5.1s2,6,5.1,6.4c0.2,0,0.4,0,0.6,0c2.9,0,5.4-2.2,5.7-5.2
		C428.4,270.7,426.1,267.9,422.9,267.6z"/>
	<path d="M420.9,284.7c-3.1-0.7-6.2,1.3-6.8,4.4c-0.7,3.1,1.3,6.2,4.4,6.8c0.4,0.1,0.8,0.1,1.2,0.1
		c2.7,0,5.1-1.8,5.6-4.6C426,288.4,424,285.4,420.9,284.7z"/>
	<path d="M417,301.6c-3-1-6.3,0.7-7.2,3.7c-1,3,0.7,6.3,3.7,7.3c0.6,0.2,1.2,0.2,1.8,0.2c2.4,0,4.7-1.6,5.5-4
		C421.7,305.8,420.1,302.6,417,301.6z"/>
	<path d="M411.5,318c-2.9-1.3-6.3,0.1-7.6,2.9c-1.3,2.9,0,6.3,2.9,7.6c0.7,0.4,1.6,0.5,2.3,0.5c2.2,0,4.3-1.3,5.3-3.5
		C415.7,322.7,414.3,319.3,411.5,318z"/>
	<path d="M323.7,402.7c-2.9,1.3-4.2,4.7-2.8,7.6c1,2.1,3.1,3.3,5.2,3.3c0.8,0,1.6-0.2,2.4-0.5c2.9-1.3,4.2-4.8,2.8-7.7
		C330,402.5,326.6,401.3,323.7,402.7z"/>
	<path d="M225.8,414.7c-3.1-0.6-6.2,1.4-6.7,4.6c-0.6,3.1,1.4,6.1,4.6,6.7c0.3,0.1,0.7,0.1,1,0.1c2.7,0,5.1-1.9,5.7-4.7
		C231,418.4,228.9,415.3,225.8,414.7z"/>
	<path d="M242.4,417c-3.2-0.3-6,2.1-6.2,5.2c-0.3,3.2,2.1,6,5.2,6.3c0-0.1,0-0.1,0-0.1c0.2,0.1,0.3,0.1,0.5,0.1
		c3,0,5.5-2.3,5.8-5.3C247.9,420,245.6,417.3,242.4,417z"/>
	<path d="M209.6,410.8c-3.1-0.9-6.3,0.8-7.2,3.8c-0.9,3.1,0.8,6.3,3.9,7.2c0.6,0.2,1.2,0.2,1.7,0.2
		c2.5,0,4.8-1.6,5.5-4.1C214.4,414.9,212.7,411.7,209.6,410.8z"/>
	<path d="M193.9,405.1c-2.9-1.2-6.3,0.2-7.5,3.1c-1.3,2.9,0.1,6.3,3.1,7.6c0.7,0.3,1.5,0.4,2.2,0.4
		c2.2,0,4.4-1.3,5.3-3.5C198.2,409.8,196.8,406.4,193.9,405.1z"/>
	<path d="M275.7,416.3c-3.2,0.4-5.4,3.3-5,6.4c0.3,2.9,2.8,5.1,5.7,5.1c0.2,0,0.5,0,0.7-0.1c0,0.1,0,0.1,0,0.1
		c3.2-0.4,5.4-3.3,5-6.5C281.8,418.2,278.9,415.9,275.7,416.3z"/>
	<path d="M308.2,408.9c-3,1-4.6,4.3-3.6,7.3c0.8,2.4,3.1,3.9,5.4,3.9c0.6,0,1.3-0.1,1.9-0.3c3-1,4.6-4.3,3.6-7.3
		C314.5,409.4,311.2,407.8,308.2,408.9z"/>
	<path d="M292.2,413.4c-3.1,0.7-5.1,3.8-4.3,6.9c0.6,2.7,3,4.4,5.6,4.4c0.5,0,0.9,0,1.3-0.1c3.1-0.7,5-3.8,4.3-6.9
		C298.3,414.7,295.3,412.8,292.2,413.4z"/>
	<path d="M259.1,417.5c-3.2,0.1-5.7,2.7-5.7,5.9c0.1,3.2,2.7,5.7,5.8,5.7c0.1,0,0.1,0,0.1,0c3.2-0.1,5.7-2.7,5.7-5.9
		C264.9,420,262.2,417.4,259.1,417.5z"/>
	<path d="M178.8,397.9c-2.8-1.6-6.3-0.5-7.8,2.3c-1.5,2.8-0.5,6.3,2.4,7.8c0.9,0.5,1.8,0.7,2.7,0.7c2.1,0,4-1.1,5.1-3.1
		C182.7,402.9,181.6,399.4,178.8,397.9z"/>
</g>
</svg>
