<?xml version="1.0" encoding="utf-8"?>
<!-- Generator: Adobe Illustrator 25.0.1, SVG Export Plug-In . SVG Version: 6.00 Build 0)  -->
<svg version="1.1" fill="#8052FD" id="Capa_1" xmlns="http://www.w3.org/2000/svg" xmlns:xlink="http://www.w3.org/1999/xlink" x="0px" y="0px"
	 viewBox="0 0 512 512" style="enable-background:new 0 0 512 512;" xml:space="preserve">

	
	


<g>
	<path d="M162.2,269.7c-0.1,0-0.1,0-0.2,0l-61.7-0.7c-8.6-0.1-15.5-6.8-15.4-14.9c0.1-8.1,7.1-14.7,15.8-14.6l61.7,0.7
		c4.1,0.1,8,1.6,10.9,4.3c3,2.8,4.6,6.6,4.6,10.6s-1.8,7.7-4.8,10.5C170.1,268.2,166.3,269.7,162.2,269.7z M100.5,247.9
		c-3.9,0-7.1,2.8-7.1,6.3c-0.1,3.5,3.2,6.4,7.1,6.4l61.7,0.7c2,0,3.9-0.6,5.2-1.9c1.3-1.2,2-2.7,2-4.3s-0.7-3.2-2-4.4
		c-1.3-1.3-3.2-2-5.2-2L100.5,247.9C100.6,247.9,100.5,247.9,100.5,247.9z"/>
	<path d="M119.8,347.1c-1.2,0-2.5-0.1-3.6-0.4c-4-1-7.3-3.4-9.2-6.9c-2-3.5-2.4-7.6-1.1-11.5c1.2-3.8,3.9-7,7.4-9
		L167,289c3.6-2,7.7-2.6,11.6-1.7c4,1,7.3,3.4,9.2,6.9c2,3.5,2.4,7.6,1.1,11.5c-1.2,3.8-3.9,7-7.4,9L127.7,345
		C125.3,346.4,122.5,347.1,119.8,347.1z M175,295.4c-1.3,0-2.6,0.4-3.9,1.1l-53.8,30.3c-1.8,1-3,2.5-3.6,4.3
		c-0.6,1.7-0.4,3.4,0.4,4.8c0.8,1.4,2.2,2.5,3.9,2.9c1.8,0.4,3.8,0.1,5.5-0.8l53.8-30.3c1.8-1,3-2.5,3.6-4.3
		c0.6-1.7,0.4-3.4-0.4-4.8c-0.8-1.4-2.2-2.5-3.9-2.9C176.1,295.4,175.6,295.4,175,295.4z"/>
	<path d="M176,405.1c-2.5,0-5-0.7-7.2-2c-3.4-2-5.8-5.4-6.7-9.4c-0.8-3.9-0.1-8,2-11.6l31.5-53.1
		c2.1-3.5,5.3-6.1,9.2-7.2c3.9-1.2,8-0.7,11.5,1.3c3.4,2,5.8,5.4,6.7,9.4c0.8,3.9,0.1,8-2,11.6l0,0l-31.5,53
		c-2.1,3.5-5.3,6.1-9.2,7.2C178.9,404.9,177.4,405.1,176,405.1z M208.9,329.7c-0.6,0-1.3,0.1-1.8,0.3c-1.8,0.6-3.4,1.8-4.3,3.4
		l-31.5,53.1c-1,1.7-1.3,3.6-1,5.5c0.4,1.7,1.3,3.1,2.7,3.9c1.4,0.8,3.1,1.1,4.8,0.5c1.8-0.6,3.4-1.8,4.3-3.4l31.5-53.1
		c1-1.7,1.3-3.6,1-5.5c-0.4-1.7-1.3-3.1-2.7-3.9C210.9,329.9,210,329.7,208.9,329.7z"/>
	<path d="M254.2,427c-0.1,0-0.1,0-0.1,0c-8.1-0.1-14.7-7.1-14.6-15.8l0.7-61.7c0.1-4.1,1.6-8,4.3-10.9
		c2.8-3,6.6-4.6,10.6-4.6c4,0.1,7.7,1.8,10.5,4.8c2.7,2.9,4.1,6.9,4.1,10.9l-0.7,61.7C268.9,420.1,262.3,427,254.2,427z
		 M254.9,342.6c-1.6,0-3.2,0.7-4.3,2c-1.3,1.3-2,3.2-2,5.2l-0.7,61.7c-0.1,4,2.8,7.2,6.3,7.3h0.1c3.5,0,6.3-3.2,6.4-7.1l0.7-61.7
		c0-2-0.6-3.9-1.9-5.2C258.2,343.3,256.6,342.6,254.9,342.6C255,342.6,254.9,342.6,254.9,342.6z"/>
	<path d="M332.9,406.9c-1.5,0-3.1-0.2-4.6-0.7c-3.8-1.2-7-3.9-9-7.4L289.1,345c-4.2-7.5-1.9-16.8,5.3-20.8
		c7.1-4,16.3-1.1,20.5,6.4l30.3,53.8c4.2,7.5,1.9,16.8-5.3,20.8C337.7,406.3,335.3,406.9,332.9,406.9z M301.2,330.7
		c-1,0-2,0.2-2.8,0.7c-3.1,1.8-4,6-2,9.4l30.3,53.8c1,1.8,2.5,3,4.3,3.6c1.7,0.6,3.4,0.4,4.8-0.4c3.1-1.8,4-6,2-9.4l-30.3-53.8
		C306.1,332.1,303.6,330.7,301.2,330.7z"/>
	<path d="M390.4,350.2c-2.9,0-5.7-0.8-8.3-2.3l-53.1-31.5c-3.5-2.1-6.1-5.3-7.2-9.2c-1.2-3.9-0.7-8,1.3-11.5
		c2-3.4,5.4-5.8,9.4-6.7c3.9-0.8,8-0.1,11.6,2l53.1,31.5c3.5,2.1,6.1,5.3,7.2,9.2c1.2,3.9,0.7,8-1.3,11.5c-2,3.4-5.4,5.8-9.4,6.7
		C392.7,350.1,391.5,350.2,390.4,350.2z M335.9,297.2c-0.5,0-1,0.1-1.5,0.1c-1.7,0.4-3.1,1.3-3.9,2.7s-1.1,3.1-0.5,4.8
		c0.6,1.8,1.8,3.4,3.4,4.3l53.1,31.5c1.7,1,3.6,1.3,5.5,1c1.7-0.4,3.1-1.3,3.9-2.7s1.1-3.1,0.5-4.8c-0.6-1.8-1.8-3.4-3.4-4.3
		l-53.1-31.5C338.7,297.6,337.3,297.2,335.9,297.2z"/>
	<path d="M411.4,272.5c-0.1,0-0.1,0-0.2,0l-61.7-0.7c-4.1-0.1-8-1.6-10.9-4.3c-3-2.8-4.6-6.6-4.6-10.6
		c0.1-4,1.8-7.7,4.8-10.5c2.9-2.7,6.9-4.1,10.9-4.1l61.7,0.7c8.6,0.1,15.6,6.8,15.4,14.9c-0.1,4-1.8,7.7-4.8,10.5
		C419.3,271,415.5,272.5,411.4,272.5z M349.7,250.7c-2,0-3.8,0.7-5.1,1.9c-1.3,1.2-2,2.7-2,4.3c0,1.6,0.7,3.2,2,4.4
		c1.3,1.3,3.2,2,5.2,2l61.7,0.7c2,0,3.9-0.6,5.3-1.9c1.3-1.2,2-2.7,2-4.3c0.1-3.5-3.2-6.4-7.1-6.4l-61.7-0.7
		C349.8,250.7,349.7,250.7,349.7,250.7z"/>
	<path d="M337,225c-1.2,0-2.5-0.1-3.6-0.4c-4-1-7.3-3.4-9.2-6.9c-2-3.5-2.4-7.6-1.1-11.5c1.2-3.8,3.9-7,7.4-9l53.8-30.3
		c3.6-2,7.7-2.6,11.6-1.7c4,1,7.3,3.4,9.2,6.9c2,3.5,2.4,7.6,1.1,11.5c-1.2,3.8-3.9,7-7.4,9L345,222.9
		C342.4,224.3,339.7,225,337,225z M392.2,173.2c-1.3,0-2.6,0.4-3.9,1.1l-53.8,30.3c-1.8,1-3,2.5-3.6,4.3c-0.6,1.7-0.4,3.4,0.4,4.8
		c0.8,1.4,2.2,2.5,3.9,2.9c1.8,0.4,3.8,0.1,5.5-0.8l53.8-30.3c1.8-1,3-2.5,3.6-4.3c0.6-1.7,0.4-3.4-0.4-4.8
		c-0.8-1.4-2.2-2.5-3.9-2.9C393.3,173.3,392.7,173.2,392.2,173.2z"/>
	<path d="M303.1,190.7c-2.5,0-5-0.6-7.2-2c-3.4-2-5.8-5.4-6.7-9.4c-0.8-3.9-0.1-8,2-11.6l31.4-53
		c4.4-7.4,13.7-10,20.7-5.9c3.4,2,5.8,5.4,6.7,9.4c0.8,3.9,0.1,8-2,11.6l-31.5,53.1C313.5,187.9,308.2,190.7,303.1,190.7z
		 M335.9,115.2c-2.4,0-4.8,1.3-6.2,3.7l-31.5,53.1c-1,1.7-1.3,3.6-1,5.5c0.4,1.7,1.3,3.1,2.7,3.9c3,1.8,7.1,0.5,9.1-2.9l31.5-53.1
		c1-1.7,1.3-3.6,1-5.5c-0.4-1.7-1.3-3.1-2.7-3.9C338,115.5,337,115.2,335.9,115.2z"/>
	<path d="M257,177.8c-0.1,0-0.1,0-0.1,0c-4-0.1-7.7-1.8-10.5-4.8c-2.7-2.9-4.1-6.9-4.1-10.9l0.7-61.7
		c0.1-8.5,6.7-15.4,14.8-15.4c0.1,0,0.1,0,0.1,0c4,0.1,7.7,1.8,10.5,4.8c2.7,2.9,4.1,6.9,4.1,10.9l-0.7,61.7
		C271.7,170.9,265.1,177.8,257,177.8z M257.7,93.4c-3.5,0-6.3,3.2-6.4,7.1l-0.7,61.7c0,2,0.6,3.9,1.9,5.2c1.2,1.3,2.7,2,4.3,2h0.1
		c3.5,0,6.3-3.2,6.4-7.1l0.7-61.7c0-2-0.6-3.9-1.9-5.2C261,94.1,259.5,93.4,257.7,93.4C257.8,93.4,257.8,93.4,257.7,93.4z"/>
	<path d="M210.7,189.7c-1.5,0-3.1-0.2-4.6-0.7c-3.8-1.2-7-3.9-9-7.4l-30.3-53.8c-4.2-7.5-1.9-16.8,5.3-20.8
		c3.5-2,7.6-2.4,11.5-1.1c3.8,1.2,7,3.9,9,7.4l30.3,53.8c4.2,7.5,1.9,16.8-5.3,20.8C215.6,189.1,213.2,189.7,210.7,189.7z
		 M179.1,113.5c-1,0-2,0.3-2.8,0.7c-3.1,1.8-4,6-2,9.4l30.3,53.8c1,1.8,2.5,3,4.3,3.6c1.7,0.6,3.4,0.4,4.8-0.4c3.1-1.8,4-6,2-9.4
		l-30.3-53.8c-1-1.8-2.5-3-4.3-3.6C180.4,113.6,179.8,113.5,179.1,113.5z"/>
	<path d="M176,223.2c-2.8,0-5.6-0.7-8.3-2.3l0,0l-53-31.5c-3.5-2.1-6.1-5.3-7.2-9.2c-1.2-3.9-0.7-8,1.3-11.5
		c2-3.4,5.4-5.8,9.4-6.7c3.9-0.8,8-0.1,11.6,2l53.1,31.5c7.4,4.4,10,13.7,5.9,20.7C186.1,220.7,181.2,223.2,176,223.2z M121.5,170.2
		c-0.5,0-1,0.1-1.5,0.1c-1.7,0.4-3.1,1.3-3.9,2.7c-0.8,1.4-1.1,3.1-0.5,4.8c0.6,1.8,1.8,3.4,3.4,4.3l53.1,31.5
		c3.4,2,7.6,1.2,9.4-1.8c1.8-3,0.5-7.1-2.9-9.1l-53.1-31.5C124.3,170.5,122.9,170.2,121.5,170.2z"/>
</g>
</svg>
