<?xml version="1.0" encoding="utf-8"?>
<!-- Generator: Adobe Illustrator 25.0.1, SVG Export Plug-In . SVG Version: 6.00 Build 0)  -->
<svg version="1.1" fill="#8052FD" id="Layer_1" xmlns="http://www.w3.org/2000/svg" xmlns:xlink="http://www.w3.org/1999/xlink" x="0px" y="0px"
	 viewBox="0 0 152 152" style="enable-background:new 0 0 152 152;" xml:space="preserve">

	
	


<g>
	<path d="M94,112.2c-8.6,6.4-16.5,10.9-18.6,11.9c-5-2.3-39.7-22.2-39.7-39.4V45.1c10.7-1,32.9-10.2,39.7-16.5
		c6.6,6.1,28,15.6,39.7,16.5v20.1c0,0.9,0.8,1.7,1.7,1.7c0.9,0,1.7-0.8,1.7-1.7V43.4c0-0.9-0.8-1.7-1.7-1.7
		c-11.5,0-36.5-11.7-40-16.6c-0.3-0.5-0.8-0.7-1.4-0.7s-1.1,0.3-1.4,0.7c-3.6,5.2-29.8,16.6-40,16.6c-0.9,0-1.7,0.8-1.7,1.7v41.3
		c0,8.7,6.9,18.5,20.5,29c9.9,7.7,20.6,13.5,22.2,13.9c0.1,0,0.3,0.1,0.4,0.1c0.1,0,0.3,0,0.4-0.1c1.4-0.4,10.8-5.7,20.2-12.7
		c0.8-0.6,0.9-1.6,0.4-2.4C95.9,111.8,94.8,111.6,94,112.2z"/>
	<path d="M135,102.5l-28.6-44.2c-0.7-1.1-1.9-1.8-3.3-1.8c-1.3,0-2.5,0.7-3.3,1.8l-28.6,44.2c-0.8,1.2-0.8,2.7-0.2,4
		c0.7,1.3,2,2,3.4,2h20.2c0.9,0,1.7-0.8,1.7-1.7c0-0.9-0.8-1.7-1.7-1.7H74.5c-0.2,0-0.3-0.1-0.4-0.2c-0.1-0.1-0.1-0.3,0-0.5
		l28.6-44.2c0.1-0.2,0.3-0.2,0.4-0.2c0.1,0,0.3,0,0.4,0.2l28.6,44.2c0.1,0.2,0.1,0.4,0,0.5c-0.1,0.1-0.2,0.2-0.4,0.2h-19.6
		c-0.9,0-1.7,0.8-1.7,1.7c0,0.9,0.8,1.7,1.7,1.7h19.6c1.4,0,2.7-0.8,3.4-2C135.8,105.2,135.8,103.7,135,102.5z"/>
	<path d="M103.5,75c-0.9,0-1.7,0.8-1.7,1.7v21.9c0,0.9,0.8,1.7,1.7,1.7c0.9,0,1.7-0.8,1.7-1.7V76.7
		C105.2,75.7,104.4,75,103.5,75z"/>
	<path d="M103.5,103.9c-0.9,0-1.7,0.8-1.7,1.7v0.3c0,0.9,0.8,1.7,1.7,1.7c0.9,0,1.7-0.8,1.7-1.7v-0.3
		C105.2,104.6,104.4,103.9,103.5,103.9z"/>
</g>
</svg>
