<?xml version="1.0" encoding="utf-8"?>
<!-- Generator: Adobe Illustrator 25.0.1, SVG Export Plug-In . SVG Version: 6.00 Build 0)  -->
<svg version="1.1" fill="#8052FD" id="Capa_1" xmlns="http://www.w3.org/2000/svg" xmlns:xlink="http://www.w3.org/1999/xlink" x="0px" y="0px"
	 viewBox="0 0 512 512" style="enable-background:new 0 0 512 512;" xml:space="preserve">

	
	


<path d="M198.1,231.8c-9,0-16.4,7.4-16.4,16.4v59.3c0,9,7.4,16.4,16.4,16.4s16.4-7.4,16.4-16.4v-59.3
	C214.5,239.1,207.2,231.8,198.1,231.8z M257.4,208c-9,0-16.4,7.4-16.4,16.4v83.1c0,9,7.4,16.4,16.4,16.4c9,0,16.4-7.4,16.4-16.4
	v-83.1C273.8,215.4,266.5,208,257.4,208z M316.8,184.3c-9,0-16.4,7.4-16.4,16.4v106.8c0,9,7.4,16.4,16.4,16.4
	c9,0,16.4-7.4,16.4-16.4V200.7C333.2,191.6,325.8,184.3,316.8,184.3z M419.8,277.1l31.5-40.9c1.8-2.2,0.2-5.4-2.6-5.4h-22.6
	l-0.4-2.4c-14.3-77.1-79-136.5-157.3-139.8c-97.6-4.1-177.8,76.1-173.7,173.7c2.9,69.6,50.1,131,116.5,151.8
	c76.5,24,156.4-9.9,194.4-75.6c1.1-2,1.5-4.3,0.9-6.4c-0.6-2.2-2-4-4-5.1c-4-2.4-9.3-1-11.5,3.1c-26.8,46.2-76.5,74.8-129.7,74.8
	c-82.6,0-149.7-67.2-149.7-149.8c0-83.6,68.8-151.4,152.8-149.7c69.5,1.4,128.1,52.1,143.6,119.8l1.2,5.5h-25.4
	c-2.8,0-4.4,3.2-2.6,5.4l31.4,40.9C414.3,279.4,417.9,279.4,419.8,277.1z"/>
</svg>
