<?xml version="1.0" encoding="utf-8"?>
<!-- Generator: Adobe Illustrator 25.0.1, SVG Export Plug-In . SVG Version: 6.00 Build 0)  -->
<svg version="1.1" fill="#8052FD" id="Layer_1" xmlns="http://www.w3.org/2000/svg" xmlns:xlink="http://www.w3.org/1999/xlink" x="0px" y="0px"
	 viewBox="0 0 472.5 472.5" style="enable-background:new 0 0 472.5 472.5;" xml:space="preserve">

	
	


<g id="Layer_2_1_">
	<g id="Calque_1">
		<path d="M164.3,72.4c-51.3,0-93,42.2-93,94.1s41.7,94.1,93,94.1s93-42.2,93-94.1S215.5,72.4,164.3,72.4z M164.3,251.5
			c-46.2,0-83.8-38.1-83.8-84.9s37.6-84.9,83.8-84.9s83.8,38.1,83.8,84.9S210.5,251.5,164.3,251.5z M340.6,164.4
			c-5.2,0-9.5,4.2-9.5,9.5s4.2,9.5,9.5,9.5c5.2,0,9.5-4.2,9.5-9.5C350.1,168.6,345.8,164.4,340.6,164.4z M297.5,164.4
			c-5.2,0-9.5,4.2-9.5,9.5s4.2,9.5,9.5,9.5c5.2,0,9.5-4.2,9.5-9.5C306.9,168.6,302.7,164.3,297.5,164.4L297.5,164.4z M340.6,243.2
			c-5.2,0-9.5,4.2-9.5,9.5s4.2,9.5,9.5,9.5c5.2,0,9.5-4.2,9.5-9.5c0,0,0,0,0,0C350.1,247.5,345.8,243.2,340.6,243.2z M297.5,243.2
			c-5.2,0-9.5,4.2-9.5,9.5s4.2,9.5,9.5,9.5c5.2,0,9.5-4.2,9.5-9.5c0,0,0,0,0,0C306.9,247.5,302.7,243.2,297.5,243.2L297.5,243.2z
			 M254.4,243.2c-5.2,0-9.5,4.2-9.5,9.5c0,5.2,4.2,9.5,9.5,9.5c5.2,0,9.5-4.2,9.5-9.5c0,0,0,0,0,0
			C263.8,247.5,259.6,243.2,254.4,243.2L254.4,243.2z M340.6,322.2c-5.2,0-9.5,4.2-9.5,9.5s4.2,9.5,9.5,9.5c5.2,0,9.5-4.2,9.5-9.5
			C350.1,326.4,345.8,322.2,340.6,322.2z M297.4,322.2c-5.2,0-9.5,4.2-9.5,9.5s4.2,9.5,9.5,9.5s9.5-4.2,9.5-9.5
			C306.9,326.4,302.7,322.2,297.4,322.2z M254.3,322.2c-5.2,0-9.5,4.2-9.5,9.5s4.2,9.5,9.5,9.5c5.2,0,9.5-4.2,9.5-9.5
			C263.8,326.4,259.6,322.2,254.3,322.2L254.3,322.2z M115,253.7v113.7c0,4.3,3.5,7.7,7.7,7.7h255.6c4.3,0,7.7-3.5,7.7-7.7V138
			c0-4.3-3.5-7.7-7.7-7.7H256.9c1,2.7,2,5.5,2.8,8.3h118V209H254.2c-1.3,2.9-2.8,5.7-4.5,8.5h127.9v70.4H123.3v-29.9
			C120.5,256.8,117.7,255.3,115,253.7z M377.7,366.8H123.3v-70.4h254.3V366.8z M164,118.6c-25.8,0-46.6,20.9-46.6,46.6
			s20.9,46.6,46.6,46.6c24.8,0,45.2-19.3,46.6-44.1l0.4-6.4l8.7,8.7c2.2,2.1,5.7,2,7.8-0.2c2-2.1,2-5.5,0-7.6l-19.1-19.1
			c-1.1-1.1-2.6-1.7-4.1-1.8h-0.2c-1.6,0-3.1,0.6-4.3,1.8l-19.1,19.1c-2.2,2.2-2.2,5.7,0,7.8c2.2,2.2,5.7,2.2,7.8,0l11.1-11.1
			l-0.2,7.2c-0.5,19.6-16.8,35.2-36.4,34.7S128,184,128.5,164.4c0.5-19.3,16.2-34.7,35.6-34.7c3.1,0,5.5-2.5,5.5-5.5
			C169.6,121.1,167.1,118.6,164,118.6L164,118.6z"/>
	</g>
</g>
</svg>
