<?xml version="1.0" encoding="utf-8"?>
<!-- Generator: Adobe Illustrator 25.0.1, SVG Export Plug-In . SVG Version: 6.00 Build 0)  -->
<svg version="1.1" fill="#8052FD" id="Layer_1" xmlns="http://www.w3.org/2000/svg" xmlns:xlink="http://www.w3.org/1999/xlink" x="0px" y="0px"
	 viewBox="0 0 512 512" style="enable-background:new 0 0 512 512;" xml:space="preserve">

	
	


<path d="M240,208.7h31.1l-55.6,55.6c-6.6,6.6-10.4,15.7-10.4,25c0,9.4,3.6,18.3,10.4,25l41.9,41.8v62.9
	c0,15.7,12.7,28.5,28.5,28.5c15.7,0,28.5-12.8,28.5-28.5v-74.7c0-7.6-2.9-14.7-8.3-20.1l-25.5-25.5l36.6-36.7v22.7
	c0,15.7,12.7,28.5,28.5,28.5h56c13.6,0,24.7-11.1,24.7-24.7s-11.1-24.7-24.7-24.7h-35V212c0-7.5-3.1-14.8-8.3-20.1l-24.1-24.1
	c-5.2-5.3-12.5-8.3-20.1-8.3h-84.3c-6.6,0-12.8,2.6-17.5,7.2l-29.9,29.9c-4.7,4.7-7.2,10.8-7.2,17.5c0,13.6,11.1,24.7,24.7,24.7
	c6.6,0,12.8-2.6,17.5-7.2L240,208.7z M285.7,435.4c-9,0-16.3-7.3-16.3-16.3v-67.8L224,305.9c-4.3-4.4-6.8-10.4-6.8-16.4
	c0-6.2,2.4-12.2,6.8-16.4l76.4-76.4h-65.3l-26.2,26.2c-2.4,2.4-5.7,3.6-8.9,3.6c-6.9,0-12.6-5.7-12.6-12.6c0-3.4,1.3-6.6,3.7-8.9
	l29.9-29.9c2.4-2.4,5.7-3.6,9-3.6h84c4.3,0,8.5,1.7,11.5,4.8l24.1,24.1c3.1,3.1,4.8,7.3,4.8,11.5v63.9h47c6.9,0,12.6,5.7,12.6,12.6
	s-5.7,12.6-12.6,12.6h-56c-9,0-16.3-7.3-16.3-16.3v-51.9l-65.9,65.9l34,34.2c3.1,3.1,4.8,7.2,4.8,11.5v74.7
	C302.1,428.1,294.8,435.4,285.7,435.4z M129.2,286.2c-15.7,0-28.5,12.7-28.5,28.5c0,7.6,2.9,14.7,8.3,20.1l44.8,44.8
	c5.3,5.4,12.5,8.3,20.1,8.3s14.8-2.9,20.1-8.3l32.6-32.6l-8.5-8.5L185.4,371c-2.9,2.9-7.1,4.7-11.4,4.7h-0.1
	c-4.4,0-8.6-1.7-11.5-4.7l-44.8-44.8c-3.1-3.1-4.8-7.2-4.8-11.5c0-9,7.3-16.3,16.3-16.3c4.3,0,8.5,1.7,11.5,4.8l33.2,33.2l22.5-22.5
	l-8.5-8.5l-14,14l-24.7-24.7C143.9,289.1,136.8,286.2,129.2,286.2z M390.3,99.6C366.4,99.6,347,119,347,143s19.4,43.4,43.4,43.4
	c23.9,0,43.4-19.4,43.4-43.4S414.3,99.6,390.3,99.6z M390.3,174.2c-17.2,0-31.3-14-31.3-31.3s14-31.3,31.3-31.3
	c17.3,0,31.3,14,31.3,31.3S407.5,174.2,390.3,174.2z M78.3,223.6h64.4v-12.1H78.3V223.6z M100.7,171.4h71.9v-12.2h-71.9V171.4z"/>
</svg>
