<?xml version="1.0" encoding="utf-8"?>
<!-- Generator: Adobe Illustrator 25.0.1, SVG Export Plug-In . SVG Version: 6.00 Build 0)  -->
<svg version="1.1" fill="#8052FD" id="Layer_1" xmlns="http://www.w3.org/2000/svg" xmlns:xlink="http://www.w3.org/1999/xlink" x="0px" y="0px"
	 viewBox="0 0 512 512" style="enable-background:new 0 0 512 512;" xml:space="preserve">

	
	


<path d="M269.7,405.8l2.6,1.9c16.5,12.1,35.7,15.5,52.8,9.4c22.9-8.2,36.1-31.6,33.9-59.7l-0.4-5.4l5.4,0.4
	c34.2,2.2,64.2-23.7,66.9-57.7c1.8-23.3-11.8-44-37.4-56.8l-7.8-3.9l7.6-4.3c11.6-6.6,20.1-14.1,25.9-23
	c10.9-16.5,14.6-36.4,10.6-55.8c-4.1-19.4-15.4-36.1-31.9-47c-8.4-5.5-17.6-9.2-27.4-10.9c-3.1-0.6-6.1-0.9-9.2-1
	c-21.5-0.9-42.6,8.2-58.2,25.1l-2.1,2.3l-2.9-1.1c-26.1-9.7-49.5,4.6-62.7,21.3l-3.8,4.8l-3.6-4.9c-13.8-18.9-35.2-28.1-55.9-24.3
	l-0.4,0.1c-15,2.9-28,11.5-36.6,24.1c-8.7,12.7-12,28.1-9.2,43.1v0.1l1.7,5.6l-5.9,0.4c-8.6,0.5-16.9,1.6-25.4,10.7
	c-18.9,20.3-19.7,50.8-2.1,74.2l2.1,2.8l-2.1,2.8c-16.1,21.4-18.1,51.7-5.2,75.4c7.5,13.7,21.9,26.3,39.6,34.5
	c15.6,7.2,33.6,8.7,50.7,4.1l2.9-0.8l2.1,2.6c1.6,1.9,3.1,3.8,6.3,7.2c9.6,10.3,22.3,16,36.6,16.6c1.5,0,23.4-0.5,39.6-11.3
	L269.7,405.8z M305.9,407.1c-8.1,0-16.1-2.2-23.4-6.6l-4.4-2.7l3.2-4.1c9.6-12.4,14.6-26.8,14.6-41.8V240.3h22.4V227H296v-10.3
	c0-14.9,5.7-28.9,16.1-39.2c9.3-9.3,21.4-14.9,34.6-15.9v-13.3c-35.6,2.4-64,32.1-64,68.4V227h-22.7v13.3h22.7V352
	c0,14.4-5.4,28.1-15.3,38.3c-9.8,10.2-23.1,16.1-37.4,16.8h-0.3h-0.3c-10.4-0.9-19.9-5.2-27.4-12.4h-0.1l-1.4-1.4
	c-3.6-3.8-5.8-6.4-7.1-8.1h-0.4l-1.4-2.4c-1.6-3-5.3-4.2-8.4-2.9c-14.2,6.2-31.5,5.2-48.7-2.7c-16.4-7.6-28.9-20.2-33.6-28.7
	c-5.4-10-8.1-22.6-7.3-34.8c0.9-13.1,5.6-24.5,13.3-32.1c2.6-2.6,2.6-6.8,0-9.4l-0.1-0.1c-8.6-8.4-13.4-19.5-13.6-31.4
	c-0.1-12.1,4.4-23.4,12.7-31.9c8.3-8.5,19.8-13.4,31.6-13.6c3.6,0,6.6-3.1,6.6-6.7c0-1.4-0.4-2.7-1.2-3.8l-3.4-4.7l-0.1-1.1
	c-3.6-23.9,12-46.1,35.4-50.5c19.1-3.6,38.1,5.5,47.4,22.6l0.2,0.4l1.9,4.6c1.4,3.4,5.3,5,8.6,3.6c1.6-0.7,3-2.1,3.6-3.7
	c4.3-10.8,12.4-19.3,22.9-23.9c10.4-4.6,22.1-5,33.1-1.3l1.1,0.4l1.9,2.1c1.1,1.4,2.8,2.1,4.5,2.3c1.8,0.1,3.5-0.4,4.9-1.6
	c0.5-0.4,0.9-0.9,1.2-1.4c8.3-12.6,20.6-21.5,34.9-25.4V107l3.7-0.8c3.9-0.8,7.9-1.2,11.6-1.3l0,0c12.1-0.1,23.9,3.4,34.2,10.1
	c13.7,9,23.1,22.6,26.4,38.6c3.3,15.9,0.1,32.1-8.8,45.8c-9.1,13.9-23.8,23.6-40.1,26.5c-3.7,0.6-6.1,4-5.6,7.6
	c0.4,2.7,2.6,4.9,5.3,5.4l0.7,0.1l0.6,0.4c0.9,0.5,1.9,0.7,2.8,0.8h0.1c13.3,1,25.4,7.1,33.9,17.2c8.6,10.1,12.8,22.9,11.7,36.2
	c-1,13.3-7.1,25.4-17.2,33.9c-10.1,8.6-22.9,12.7-36.2,11.7c-7.8-0.6-9.5-0.8-9.6-0.8c-1.8-0.2-3.5,0.3-4.9,1.4s-2.3,2.6-2.5,4.4
	c-0.1,1,0,2.1,0.4,3c4.1,11.3,3.5,23.4-1.6,34.1c-5.1,10.7-14.1,18.9-25.4,22.9C315.9,406.2,310.9,407.1,305.9,407.1z M176.2,338.5
	c6.6,7.8,15.9,12.9,26,14.4c11.4,1.7,22.6-1.4,31.6-8.6c19-15.4,22.9-43.5,8.8-64.2c-7.5-11-17.7-17.1-31.2-18.7h-0.5
	c-8.4-0.6-14.9-3.7-19.9-9.4c-4.9-5.6-7.5-13.4-7.7-22.6c-0.4-18.1,12.6-33.2,28.9-33.6h0.1c4.7-0.2,9.4,1,13.7,3.4l8.2-10.6
	c-6.7-4.2-14.5-6.4-22.4-6.1h-0.1c-23.6,0.6-42.4,21.8-41.8,47.2c0.3,12.4,4.1,23.1,10.9,31.1c7,8.1,17.3,13.1,28.9,13.9v0.1
	c13.1,1.5,15,3.1,21.8,13c9.9,14.4,7,35.6-6.1,46.3c-6.4,5.1-14,7.4-21.4,6.3c-6.3-0.9-12.1-4.2-16.8-9.4L176.2,338.5z"/>
</svg>
