<?xml version="1.0" encoding="utf-8"?>
<!-- Generator: Adobe Illustrator 26.3.1, SVG Export Plug-In . SVG Version: 6.00 Build 0)  -->
<svg version="1.1" id="Layer_1" xmlns="http://www.w3.org/2000/svg" xmlns:xlink="http://www.w3.org/1999/xlink" x="0px" y="0px"
	 viewBox="0 0 512 512" style="enable-background:new 0 0 512 512;" xml:space="preserve">
<style type="text/css">
	.st0{fill:#8052FD;}
</style>
<path class="st0" d="M414.2,148.7c10.1-15.3,16.2-33,17.5-51.5c0.2-3.2-1.6-6.2-4.5-7.5c-27.5-12.6-56.9-14-84.2-4.2
	c-26.9-13.8-57-21-87.3-21c-36.3,0-71.7,10.2-102.3,29.6c-2.6,1.6-3.4,5.1-1.7,7.8c1.6,2.6,5.1,3.4,7.8,1.7
	c28.8-18.3,62.1-27.9,96.3-27.9c25.5,0,50.6,5.4,73.7,15.7c-0.1,0.1-0.2,0.1-0.3,0.1c-2.8,1.4-4.4,4.4-4.2,7.5
	c1.3,16.3,6.6,32.2,15.1,46.2c8.4,14,20.2,26,34.1,34.9l0,0c2.5,1.6,5.7,1.6,8.3,0c9.5-6,17.8-13.4,24.8-21.9
	c18.7,29.1,28.6,62.6,28.6,97.5c0,48.1-18.7,93.4-52.8,127.4s-79.3,52.8-127.4,52.8S162.5,417,128.4,383s-52.8-79.1-52.8-127.3
	c0-53.7,23.7-104.2,65-138.6c2.4-2,2.7-5.5,0.7-7.9c-1.9-2.4-5.5-2.7-7.9-0.7c-44,36.6-69.1,90.2-69.1,147.3
	c0,51.1,19.9,99.1,56.1,135.2S204.6,447,255.7,447s99.1-19.9,135.2-56.1S447,306.8,447,255.7C447.1,217.3,435.7,180.4,414.2,148.7z
	 M378.2,169.4c-23.7-16-38.9-40.9-41.9-69c26.7-13,56.4-13.6,84-1.6C417.7,127.2,402.1,153.4,378.2,169.4z"/>
<path class="st0" d="M160.5,273v51.2c0,9.3,11.3,16.1,34.3,21c3.1,0.7,6-1.3,6.6-4.4c0.7-3.1-1.3-6-4.4-6.6
	c-19-4-24.7-8.6-25.4-10.1v-37.4c4.9,2.5,11.3,4.6,19.4,6.5c17.4,4,40.3,6.2,64.6,6.2c24.4,0,47.3-2.2,64.6-6.2
	c8.1-1.9,14.5-4,19.4-6.5V324c-0.5,1.3-6,5.9-24.2,9.8c-16.3,3.5-37.5,5.4-59.9,5.4c-12.5,0-24.4-0.5-35.7-1.7
	c-3.1-0.3-5.8,1.9-6.1,5c-0.3,3.1,1.9,5.8,5,6.1c11.6,1.2,24,1.7,36.8,1.7c24.4,0,47.3-2.2,64.6-6.2c20.6-4.8,30.6-11.3,30.6-20.1
	v-51.2c0-7-6.7-12.8-19.9-17.2c13.2-4.4,19.9-10.2,19.9-17.2v-51.1c0-8.7-10.1-15.4-30.6-20.1c-17.4-4-40.3-6.2-64.6-6.2
	s-47.3,2.2-64.6,6.2c-20.6,4.8-30.6,11.3-30.6,20.1v51.2c0,7,6.7,12.8,19.9,17.2C167.2,260.2,160.5,265.9,160.5,273z M171.7,238.4
	V201c4.9,2.5,11.3,4.6,19.4,6.5c17.4,4,40.3,6.2,64.6,6.2c15,0,29.8-0.9,43-2.5c3.1-0.4,5.2-3.2,4.9-6.2c-0.4-3.1-3.2-5.2-6.2-4.9
	c-12.7,1.6-27,2.4-41.5,2.4c-22.3,0-43.6-1.9-59.9-5.4c-17.7-3.8-23.4-8.2-24.2-9.7c0.8-1.5,6.3-5.9,24.2-9.7
	c16.3-3.5,37.5-5.4,59.9-5.4s43.6,1.9,59.9,5.4c17.7,3.8,23.4,8.2,24.2,9.7c-0.7,1.3-5.2,5.1-19.5,8.6c-3.1,0.7-4.9,3.8-4,6.8
	c0.7,3.1,3.8,4.9,6.8,4c6.9-1.7,12.5-3.7,16.8-5.8v37.4c-0.3,0.5-4.8,7.1-34.7,11.8c0,0,0,0-0.1,0c-14.6,2.3-31.6,3.5-49.3,3.5
	c-17.7,0-34.7-1.2-49.2-3.4c-0.1,0-0.1,0-0.2,0C176.4,245.5,172,239,171.7,238.4z M205.5,261.5c14.9,2.3,32.2,3.5,50.2,3.5
	s35.2-1.2,50.2-3.5c28,4.5,33.1,10.6,33.9,11.6c-0.8,1.5-6.5,5.9-24.2,9.7c-16.3,3.5-37.5,5.4-59.9,5.4s-43.6-1.9-59.9-5.4
	c-17.6-3.8-23.3-8.2-24.2-9.7C172.4,272,177.6,265.9,205.5,261.5z"/>
<path class="st0" d="M401.9,107.5c-2.4-2-5.9-1.7-7.9,0.7l-18,21.1l-8.9-8.8c-2.2-2.2-5.7-2.2-7.9,0.1s-2.2,5.7,0.1,7.9l13.1,12.9
	c2.3,2.3,6,2.2,8.2-0.3l21.9-25.7C404.5,112.9,404.3,109.4,401.9,107.5z"/>
</svg>
