<?xml version="1.0" encoding="utf-8"?>
<!-- Generator: Adobe Illustrator 25.0.1, SVG Export Plug-In . SVG Version: 6.00 Build 0)  -->
<svg version="1.1" fill="#8052FD" id="Capa_1" xmlns="http://www.w3.org/2000/svg" xmlns:xlink="http://www.w3.org/1999/xlink" x="0px" y="0px"
	 viewBox="0 0 512 512" style="enable-background:new 0 0 512 512;" xml:space="preserve">

	
	


<g>
	<g>
		<path d="M408.4,278c3.7,0,6.6-3,6.6-6.6V152.1c0-18.3-14.8-33.1-33.1-33.1H130.1c-18.3,0-33.1,14.8-33.1,33.1v185.5
			c0,18.3,14.8,33.1,33.1,33.1H203v29.6l-17,11.3c-1.9,1.2-2.9,3.3-2.9,5.5v6.6c0,7.3,6,13.2,13.2,13.2h119.2
			c7.3,0,13.2-6,13.2-13.2v-6.7c0-2.2-1.1-4.3-2.9-5.5L309,400.4v-9.7c0-3.7-3-6.6-6.6-6.6c-3.7,0-6.6,3-6.6,6.6v13.2
			c0,2.2,1.1,4.3,2.9,5.5l17,11.3v3.1H196.4v-3.1l17-11.3c1.9-1.2,2.9-3.3,2.9-5.5v-33.1h165.6c18.3,0,33.1-14.8,33.1-33.1v-33.1
			c0-3.7-3-6.6-6.6-6.6H136.8c-3.7,0-6.6,3-6.6,6.6c0,3.7,3,6.6,6.6,6.6h265v26.4c0,10.9-8.9,19.9-19.9,19.9H130.1
			c-10.9,0-19.9-8.9-19.9-19.9V152.1c0-10.9,8.9-19.9,19.9-19.9h251.7c10.9,0,19.9,8.9,19.9,19.9v119.2
			C401.8,275,404.7,278,408.4,278z"/>
	</g>
</g>
<g>
	<g>
		<path d="M348.7,152.1c-10.9,0-19.9,8.9-19.9,19.9s8.9,19.9,19.9,19.9c10.9,0,19.9-8.9,19.9-19.9
			C368.6,161.1,359.7,152.1,348.7,152.1z M348.7,178.6c-3.7,0-6.6-3-6.6-6.6s3-6.6,6.6-6.6c3.7,0,6.6,3,6.6,6.6
			S352.4,178.6,348.7,178.6z"/>
	</g>
</g>
<g>
	<g>
		<path d="M201,236.3c2.6-2.6,2.6-6.8,0-9.4c-2.6-2.6-6.8-2.6-9.4,0l-19.9,19.9c0,0,0,0.1-0.1,0.1c-2.6-1.2-5.5-2-8.5-2
			c-10.9,0-19.9,8.9-19.9,19.9s8.9,19.9,19.9,19.9c10.9,0,19.9-8.9,19.9-19.9c0-3-0.7-6-2-8.5c0,0,0.1,0,0.1-0.1L201,236.3z
			 M163.3,271.4c-3.7,0-6.6-3-6.6-6.6s3-6.6,6.6-6.6c3.7,0,6.6,3,6.6,6.6S166.9,271.4,163.3,271.4z"/>
	</g>
</g>
<g>
	<g>
		<path d="M326.9,203.2c2.6-2.6,2.6-6.8,0-9.4c-2.6-2.6-6.8-2.6-9.4,0l-39.8,39.8c0,0,0,0.1-0.1,0.1
			c-2.6-1.2-5.5-2-8.5-2c-3,0-6,0.7-8.5,2c0,0,0-0.1-0.1-0.1l-19.9-19.9c0,0-0.1,0-0.1-0.1c1.2-2.6,2-5.5,2-8.5
			c0-10.9-8.9-19.9-19.9-19.9c-10.9,0-19.9,8.9-19.9,19.9c0,10.9,8.9,19.9,19.9,19.9c3,0,6-0.7,8.5-2c0,0,0,0.1,0.1,0.1l19.9,19.9
			c0,0,0.1,0,0.1,0.1c-1.2,2.6-2,5.5-2,8.5c0,10.9,8.9,19.9,19.9,19.9c10.9,0,19.9-8.9,19.9-19.9c0-3-0.7-6-2-8.5c0,0,0.1,0,0.1-0.1
			L326.9,203.2z M222.9,211.7c-3.7,0-6.6-3-6.6-6.6c0-3.7,3-6.6,6.6-6.6c3.7,0,6.6,3,6.6,6.6C229.5,208.8,226.6,211.7,222.9,211.7z
			 M269.2,258.1c-3.7,0-6.6-3-6.6-6.6s3-6.6,6.6-6.6c3.7,0,6.6,3,6.6,6.6S272.9,258.1,269.2,258.1z"/>
	</g>
</g>
</svg>
