<?xml version="1.0" encoding="utf-8"?>
<!-- Generator: Adobe Illustrator 25.0.1, SVG Export Plug-In . SVG Version: 6.00 Build 0)  -->
<svg version="1.1" fill="#8052FD" id="Capa_1" xmlns="http://www.w3.org/2000/svg" xmlns:xlink="http://www.w3.org/1999/xlink" x="0px" y="0px"
	 viewBox="0 0 501.7 501.7" style="enable-background:new 0 0 501.7 501.7;" xml:space="preserve">

	
	


<path d="M365.8,404.5H136c-18.3,0-33.1-14.9-33.1-33.1V241c0-16.6,12.6-30.7,28.8-32.8v-9.3
	c0-65.7,53.5-119.2,119.2-119.2S370,133.2,370,198.9v9.3c16.2,2.1,28.8,16.2,28.8,32.8v130.3C398.8,389.6,384,404.5,365.8,404.5z
	 M111.7,260.1v111.3c0,13.4,10.9,24.3,24.3,24.3h229.8c8.4,0,16.1-4.3,20.5-11.3h-63.2c-2.4,0-4.4-1.9-4.4-4.4
	c0-2.5,1.9-4.4,4.4-4.4h66.6c0.3-1.4,0.4-2.8,0.4-4.3v-3H182.1c-2.4,0-4.4-1.9-4.4-4.4c0-2.5,1.9-4.4,4.4-4.4h208V241.1
	c0-13.4-10.9-24.3-24.3-24.3H136c-9.5,0-18.1,5.6-22.1,14h69.1c2.4,0,4.4,1.9,4.4,4.4c0,2.5-1.9,4.4-4.4,4.4h-71.4
	c0,0.5-0.1,1-0.1,1.5v10.3h263.3c2.4,0,4.4,1.9,4.4,4.4s-1.9,4.4-4.4,4.4L111.7,260.1L111.7,260.1z M333.1,208h28.2v-9.1
	c0-60.9-49.5-110.4-110.4-110.4S140.5,138,140.5,198.9v9.1h28.2v-9.1c0-45.3,36.9-82.2,82.2-82.2s82.2,36.9,82.2,82.2V208z
	 M177.4,208h146.8v-9.1c0-40.5-33-73.4-73.4-73.4s-73.4,33-73.4,73.4C177.4,198.9,177.4,208,177.4,208z M346.3,339.1H155.4
	c-13.5,0-24.3-12.5-24.3-27.9c0-15.4,10.9-27.9,24.3-27.9h190.9c13.5,0,24.3,12.5,24.3,27.9C370.6,326.6,359.7,339.1,346.3,339.1z
	 M155.4,292.9c-8.6,0-15.6,8.2-15.6,18.3s7,18.3,15.6,18.3h190.9c8.6,0,15.6-8.2,15.6-18.3s-7-18.3-15.6-18.3H155.4z M166.3,324
	c-6.7,0-12.2-5.4-12.2-12.2c0-6.7,5.4-12.2,12.2-12.2s12.2,5.4,12.2,12.2C178.5,318.6,173,324,166.3,324z M166.3,307.6
	c-2.3,0-4.3,1.9-4.3,4.3s1.9,4.3,4.3,4.3s4.3-1.9,4.3-4.3S168.7,307.6,166.3,307.6z M200.2,324c-6.7,0-12.2-5.4-12.2-12.2
	c0-6.7,5.4-12.2,12.2-12.2c6.7,0,12.2,5.4,12.2,12.2C212.3,318.6,206.8,324,200.2,324z M200.2,307.6c-2.3,0-4.3,1.9-4.3,4.3
	s1.9,4.3,4.3,4.3s4.3-1.9,4.3-4.3S202.5,307.6,200.2,307.6z M234,324c-6.7,0-12.2-5.4-12.2-12.2c0-6.7,5.4-12.2,12.2-12.2
	c6.7,0,12.2,5.4,12.2,12.2C246.1,318.6,240.7,324,234,324z M234,307.6c-2.3,0-4.3,1.9-4.3,4.3s1.9,4.3,4.3,4.3s4.3-1.9,4.3-4.3
	S236.3,307.6,234,307.6z M267.7,324c-6.7,0-12.2-5.4-12.2-12.2c0-6.7,5.4-12.2,12.2-12.2c6.7,0,12.2,5.4,12.2,12.2
	C279.9,318.6,274.5,324,267.7,324z M267.7,307.6c-2.3,0-4.3,1.9-4.3,4.3s1.9,4.3,4.3,4.3c2.3,0,4.3-1.9,4.3-4.3
	S270.1,307.6,267.7,307.6z M301.6,324c-6.7,0-12.2-5.4-12.2-12.2c0-6.7,5.4-12.2,12.2-12.2c6.7,0,12.2,5.4,12.2,12.2
	C313.8,318.6,308.3,324,301.6,324z M301.6,307.6c-2.3,0-4.3,1.9-4.3,4.3s1.9,4.3,4.3,4.3s4.3-1.9,4.3-4.3S303.9,307.6,301.6,307.6z
	 M335.4,324c-6.7,0-12.2-5.4-12.2-12.2c0-6.7,5.4-12.2,12.2-12.2s12.2,5.4,12.2,12.2C347.6,318.6,342.1,324,335.4,324z M335.4,307.6
	c-2.3,0-4.3,1.9-4.3,4.3s1.9,4.3,4.3,4.3s4.3-1.9,4.3-4.3S337.7,307.6,335.4,307.6z M140.9,368.3h-24.5c-2.4,0-4.4-1.9-4.4-4.4
	s1.9-4.4,4.4-4.4h24.5c2.4,0,4.4,1.9,4.4,4.4S143.4,368.3,140.9,368.3z"/>
</svg>
