<?xml version="1.0" encoding="utf-8"?>
<!-- Generator: Adobe Illustrator 25.0.1, SVG Export Plug-In . SVG Version: 6.00 Build 0)  -->
<svg version="1.1" fill="#8052FD" id="Layer_1" xmlns="http://www.w3.org/2000/svg" xmlns:xlink="http://www.w3.org/1999/xlink" x="0px" y="0px"
	 viewBox="0 0 500 500" style="enable-background:new 0 0 500 500;" xml:space="preserve">

	
	


<g id="Layer_2_1_">
	<g id="Calque_1">
		<path d="M273.9,308.8c2.2,0,4.2,1.1,5.5,2.9l66,93.8c0.7,1,2,1.2,3,0.5c0,0,0,0,0,0l16.7-11.8c1-0.7,1.2-2,0.5-3
			l-66-93.9c-1.9-2.7-1.6-6.3,0.8-8.6c22.7-22.3,35-53,33.8-84.8c-2.2-58.7-50-106.3-108.8-108.2c-62.1-2.1-114.2,46.5-116.3,108.6
			c-1.1,30.9,10.6,60.8,32.3,82.8c33.9,34.6,86.1,43.6,129.6,22.3C271.9,309,272.9,308.8,273.9,308.8z M221.6,307.2
			c-54.6,0-98.9-44.4-98.9-98.9s44.4-98.9,98.9-98.9s98.9,44.4,98.9,98.9S276.2,307.2,221.6,307.2z"/>
	</g>
</g>
</svg>
