<?xml version="1.0" encoding="utf-8"?>
<!-- Generator: Adobe Illustrator 25.0.1, SVG Export Plug-In . SVG Version: 6.00 Build 0)  -->
<svg version="1.1" fill="#8052FD" id="Layer_1" xmlns="http://www.w3.org/2000/svg" xmlns:xlink="http://www.w3.org/1999/xlink" x="0px" y="0px"
	 viewBox="0 0 158 158" style="enable-background:new 0 0 158 158;" xml:space="preserve">

	
	


<g transform="translate(3 2.556831)">
	<g>
		<path d="M106.8,128.4H44.2c-3.6,0-6.5-2.9-6.5-6.5V76c0-3.6,2.9-6.5,6.5-6.5h62.6c3.6,0,6.5,2.9,6.5,6.5v46
			C113.3,125.5,110.4,128.4,106.8,128.4z M44.2,72.8c-1.7,0-3.2,1.4-3.2,3.2v46c0,1.8,1.4,3.2,3.2,3.2h62.6c1.7,0,3.2-1.4,3.2-3.2
			V76c0-1.8-1.4-3.2-3.2-3.2H44.2z"/>
	</g>
	<g>
		<path d="M99.7,72.8c-0.9,0-1.7-0.7-1.7-1.7V49.8c0-12.2-10-22.1-22.2-22.1c-12.2,0-22.2,9.9-22.2,22.1v21.3
			c0,0.9-0.7,1.7-1.7,1.7c-0.9,0-1.7-0.7-1.7-1.7V49.8c0-14,11.4-25.4,25.5-25.4c14.1,0,25.5,11.4,25.5,25.4v21.3
			C101.3,72.1,100.6,72.8,99.7,72.8z"/>
	</g>
	<g>
		<path d="M74.8,116.5c-3.6,0-6.5-2.9-6.5-6.5v-7.8c-3.8-2.7-5.6-7.5-4.5-12.2c1-4.1,4.2-7.3,8.2-8.3c0,0,0,0,0,0
			c3.4-0.8,6.9,0,9.6,2.1c2.8,2.2,4.3,5.5,4.3,9c0,3.7-1.8,7.2-4.8,9.3v7.8C81.3,113.6,78.4,116.5,74.8,116.5z M72.9,85
			c-2.8,0.7-5.1,3-5.8,5.8c-0.9,3.6,0.6,7.2,3.7,9.1c0.5,0.3,0.8,0.8,0.8,1.4v8.7c0,1.8,1.4,3.2,3.1,3.2c1.7,0,3.1-1.5,3.1-3.2v-8.7
			c0-0.6,0.3-1.1,0.8-1.4c2.5-1.5,4-4.1,4-7c0-2.5-1.1-4.9-3.1-6.4C77.8,84.9,75.4,84.4,72.9,85L72.9,85z"/>
	</g>
</g>
</svg>
