<?xml version="1.0" encoding="utf-8"?>
<!-- Generator: Adobe Illustrator 25.0.1, SVG Export Plug-In . SVG Version: 6.00 Build 0)  -->
<svg version="1.1" fill="#8052FD" id="Layer_1" xmlns="http://www.w3.org/2000/svg" xmlns:xlink="http://www.w3.org/1999/xlink" x="0px" y="0px"
	 viewBox="0 0 512 512" style="enable-background:new 0 0 512 512;" xml:space="preserve">

	
	


<path d="M356.1,287.9l76.2-76.2l-27.9-104.2L300.3,79.6l-76.2,76.2l15.6,58.3l-25.5,25.5v-26.5l-11.6-11.6
	c1.2-2.3,1.9-4.9,1.9-7.6c0-4.4-1.7-8.5-4.8-11.6c-3.1-3.1-7.2-4.8-11.6-4.8c-4.4,0-8.5,1.7-11.6,4.8c-6.4,6.4-6.4,16.8,0,23.2
	c3.2,3.2,7.4,4.8,11.6,4.8c2.6,0,5.3-0.6,7.6-1.9l8.8,8.8v32.2l-7.7,7.7l-15.3-15.3c1.2-2.3,1.9-4.9,1.9-7.6c0-4.4-1.7-8.5-4.8-11.6
	c-6.4-6.4-16.8-6.4-23.2,0c-3.1,3.1-4.8,7.2-4.8,11.6s1.7,8.5,4.8,11.6c3.2,3.2,7.4,4.8,11.6,4.8c2.6,0,5.3-0.6,7.6-1.9l15.3,15.3
	l-7.7,7.7h-32l-8.8-8.8c1.2-2.3,1.9-4.9,1.9-7.6c0-4.4-1.7-8.5-4.8-11.6c-3.1-3.1-7.2-4.8-11.6-4.8s-8.5,1.7-11.6,4.8
	c-6.4,6.4-6.4,16.8,0,23.2c3.2,3.2,7.4,4.8,11.6,4.8c2.6,0,5.3-0.6,7.6-1.9l11.6,11.6h26.5l-72.7,72.6l12.3,45.8l45.8,12.3
	l31.7-31.7l0.4-22.1l24.8-0.5l0.5-24.8l15.3-0.3v33.1l11.6,11.6c-3.2,6.2-2.3,14,2.9,19.2c3.1,3.1,7.2,4.8,11.6,4.8
	c4.4,0,8.5-1.7,11.6-4.8c6.4-6.4,6.4-16.8,0-23.2c-3.1-3.1-7.2-4.8-11.6-4.8c-2.7,0-5.3,0.6-7.6,1.9l-8.8-8.8v-47.4l23.1,22.9
	c-1.2,2.3-1.9,4.9-1.9,7.6c0,4.4,1.7,8.5,4.8,11.6c3.1,3.1,7.2,4.8,11.6,4.8c4.4,0,8.5-1.7,11.6-4.8c6.4-6.4,6.4-16.8,0-23.2
	c-5.2-5.2-13-6.2-19.2-2.9l-22.9-22.9l47.4-0.3l8.8,8.8c-3.2,6.2-2.3,14,2.9,19.2c3.2,3.2,7.4,4.8,11.6,4.8c4.2,0,8.4-1.6,11.6-4.8
	c3.1-3.1,4.8-7.2,4.8-11.6c0-4.4-1.7-8.5-4.8-11.6c-3.1-3.1-7.2-4.8-11.6-4.8c-2.7,0-5.3,0.6-7.6,1.9l-11.6-11.6h-26.5l25.5-25.5
	L356.1,287.9z M183.4,198.7c-2.6-2.6-2.6-6.8,0-9.4c1.2-1.2,2.9-1.9,4.7-1.9c1.8,0,3.4,0.7,4.7,1.9s1.9,2.9,1.9,4.7
	c0,1.8-0.7,3.4-1.9,4.7C190.2,201.3,185.9,201.3,183.4,198.7z M162.1,238.9c-1.2-1.2-1.9-2.9-1.9-4.7c0-1.8,0.7-3.4,1.9-4.7
	c1.3-1.3,3-1.9,4.7-1.9s3.4,0.6,4.7,1.9c1.2,1.2,1.9,2.9,1.9,4.7c0,1.8-0.7,3.4-1.9,4.7C169,241.5,164.7,241.5,162.1,238.9z
	 M122,260.1c-2.6-2.6-2.6-6.8,0-9.4c1.2-1.2,2.9-1.9,4.7-1.9c1.8,0,3.4,0.7,4.7,1.9s1.9,2.9,1.9,4.7c0,1.8-0.7,3.4-1.9,4.7
	C128.7,262.7,124.5,262.7,122,260.1z M261.3,380.7c2.6,2.6,2.6,6.8,0,9.4c-1.2,1.2-2.9,1.9-4.7,1.9c-1.8,0-3.4-0.7-4.7-1.9
	c-2.6-2.6-2.6-6.8,0-9.4c1.2-1.2,2.9-1.9,4.7-1.9C258.3,378.7,260,379.4,261.3,380.7z M322.7,319.2c1.2,1.2,1.9,2.9,1.9,4.7
	s-0.7,3.4-1.9,4.7c-2.6,2.6-6.8,2.6-9.4,0c-2.6-2.6-2.6-6.8,0-9.4c1.2-1.2,2.9-1.9,4.7-1.9C319.8,317.3,321.4,318,322.7,319.2z
	 M277.8,338.6c1.7,0,3.4,0.6,4.7,1.9c2.6,2.6,2.6,6.8,0,9.4c-1.2,1.2-2.9,1.9-4.7,1.9s-3.4-0.7-4.7-1.9c-1.2-1.2-1.9-2.9-1.9-4.7
	s0.7-3.4,1.9-4.7C274.4,339.2,276.1,338.6,277.8,338.6z M258.5,297.9l-27.6,0.5l-0.5,24.8l-24.8,0.5l-0.5,24.8l-24.8,0.5l-0.5,27.6
	l-25,25l-35-9.4l-9.4-35L250.7,217l-15.6-58.3l68.1-68.2l93.3,25l25,93.3l-68.3,68.3l-58.3-15.6L258.5,297.9z"/>
<path d="M376.8,230.6c4.9,0,9.8-1.9,13.6-5.6c3.6-3.6,5.6-8.4,5.6-13.6c0-5.1-2-9.9-5.6-13.6c-3.6-3.6-8.4-5.6-13.6-5.6
	c-5.1,0-9.9,2-13.6,5.6c-6.3,6.3-7.3,15.9-3,23.2l-11.8,12h-51.6l-45.7,45.7h-10.9l110.3-110.3c3,1.8,6.3,2.6,9.7,2.6
	c4.9,0,9.8-1.9,13.6-5.6c3.6-3.6,5.6-8.4,5.6-13.6c0-5.1-2-9.9-5.6-13.6c-3.6-3.6-8.4-5.6-13.6-5.6s-9.9,2-13.6,5.6
	c-6.3,6.3-7.3,15.9-3,23.2L175.3,329.8v-10.7L279,215.4v-51.8l11.9-11.9c3,1.8,6.3,2.6,9.7,2.6c4.9,0,9.8-1.9,13.6-5.6
	c3.6-3.6,5.6-8.4,5.6-13.6c0-5.1-2-9.9-5.6-13.6c-3.6-3.6-8.4-5.6-13.6-5.6s-9.9,2-13.6,5.6c-6.3,6.3-7.3,15.9-3,23.2l-14.8,14.8
	v51.8L165.5,315.1v24.5L129.1,376l6.9,6.9l94.4-94.4h24.7l45.7-45.7h51.6l14.7-14.7C370.1,229.8,373.5,230.6,376.8,230.6z
	 M293.9,128.5c1.8-1.8,4.2-2.7,6.7-2.7s4.9,1,6.7,2.7c1.8,1.8,2.7,4.2,2.7,6.7c0,2.5-1,4.9-2.7,6.7c-3.7,3.7-9.7,3.7-13.3,0
	C290.2,138.2,290.2,132.2,293.9,128.5z M353.5,145.2c1.8-1.8,4.2-2.7,6.7-2.7s4.9,1,6.6,2.7c3.7,3.7,3.7,9.7,0,13.3
	c-3.7,3.7-9.7,3.7-13.3,0S349.8,148.8,353.5,145.2z M370.2,204.8c1.8-1.8,4.2-2.7,6.7-2.7c2.5,0,4.9,1,6.7,2.7
	c1.8,1.8,2.7,4.2,2.7,6.7c0,2.5-1,4.9-2.7,6.7c-3.7,3.7-9.7,3.7-13.3,0C366.5,214.4,366.5,208.4,370.2,204.8z"/>
<path d="M401.9,198.4l-18.7-69.7l-46.5-12.5l2.5-9.4l51.9,13.9l20.1,75.1L401.9,198.4z M330.5,114.6l-9.4-2.5l2.5-9.4
	l9.4,2.5L330.5,114.6z M314.8,110.4l-9.4-2.5l2.5-9.4l9.4,2.5L314.8,110.4z"/>
</svg>
