<?xml version="1.0" encoding="utf-8"?>
<!-- Generator: Adobe Illustrator 26.3.1, SVG Export Plug-In . SVG Version: 6.00 Build 0)  -->
<svg version="1.1" id="Layer_1" xmlns="http://www.w3.org/2000/svg" xmlns:xlink="http://www.w3.org/1999/xlink" x="0px" y="0px"
	 viewBox="0 0 512 512" style="enable-background:new 0 0 512 512;" xml:space="preserve">
<style type="text/css">
	.st0{fill:#8052FD;}
</style>
<g id="Group_760">
	<path id="Path_141" class="st0" d="M168.8,182.6c0-48.2,39.1-87.2,87.2-87.2s87.2,39.1,87.2,87.2v18.8h22.4v-18.8
		C365.7,122.1,316.6,73,256,73s-109.6,49.1-109.6,109.6v18.8h22.4L168.8,182.6z"/>
	<path id="Path_142" class="st0" d="M319.4,201.4v-16.7c0-35-28.4-63.4-63.4-63.4s-63.4,28.4-63.4,63.4v16.7h22.4v-16.7
		c0-22.6,18.4-41,41-41s41,18.4,41,41v16.7H319.4z"/>
	<path id="Path_143" class="st0" d="M368.7,212.6H143.3c-18,0.1-32.6,14.7-32.7,32.7v161c0.1,18,14.7,32.6,32.7,32.7h225.3
		c18,0,32.7-14.7,32.7-32.7v-161C401.3,227.3,386.7,212.7,368.7,212.6z M379,406.4c-0.1,5.7-4.6,10.2-10.3,10.3H143.3
		c-5.7-0.1-10.2-4.6-10.3-10.3v-161c0.1-5.7,4.6-10.2,10.3-10.3h225.3c5.7,0.1,10.2,4.6,10.3,10.3V406.4z"/>
	<path id="Path_144" class="st0" d="M256,270.9c-20.3,0-36.7,16.4-36.8,36.7c0,16,10.3,30.2,25.6,35v48.4h22.4v-48.4
		c19.3-6.2,30-26.8,23.8-46.2C286.2,281.3,272,270.9,256,270.9z M256,322.1c-7.9,0-14.4-6.4-14.4-14.4c0-7.9,6.4-14.4,14.4-14.4
		s14.4,6.4,14.4,14.4C270.4,315.6,264,322.1,256,322.1C256.1,322.1,256.1,322.1,256,322.1z"/>
</g>
</svg>
