<?xml version="1.0" encoding="utf-8"?>
<!-- Generator: Adobe Illustrator 25.0.1, SVG Export Plug-In . SVG Version: 6.00 Build 0)  -->
<svg version="1.1" fill="#8052FD" id="Capa_1" xmlns="http://www.w3.org/2000/svg" xmlns:xlink="http://www.w3.org/1999/xlink" x="0px" y="0px"
	 viewBox="0 0 512 512" style="enable-background:new 0 0 512 512;" xml:space="preserve">

	
	


<g id="Layer_1_1_">
</g>
<path d="M395.3,209.8l-0.6-0.2v-0.6c-1.7-28.6-14.1-55.4-34.8-75.3c-20.8-20-47.7-31-76-31c-35.7,0-69.9,17.2-91.5,46
	l-0.4,0.6l-0.6-0.3c-0.5-0.2-0.9-0.5-1.5-0.7c-1.3-0.6-2.7-1.3-4-1.8c-0.4-0.2-0.8-0.3-1.1-0.4c-0.4-0.2-0.8-0.3-1.2-0.5
	c-1.3-0.5-2.7-0.9-4-1.2c-0.3-0.1-0.7-0.2-1-0.2c-0.4-0.1-0.9-0.2-1.3-0.3c-1.3-0.3-2.9-0.6-4.5-0.9c-0.3,0-0.7-0.1-1-0.2
	c-0.3-0.1-0.6-0.1-0.9-0.2c-2.4-0.2-4.6-0.4-6.6-0.4c-32.3,0-58.7,26.3-58.7,58.7c0,0.4,0,0.9,0,1.3c0,0.4,0,0.9,0,1.2v0.5l-0.4,0.2
	c-27.4,15.1-45.8,46.2-45.8,77.1c0,46.3,37.7,84.1,84.1,84.1h52.5v-11.6h-52.5c-39.9,0-72.4-32.5-72.4-72.4
	c0-27.7,18.1-56.5,42.9-68.4l3.3-1.6v-3.7c0-0.5,0-0.9,0.1-1.3c0-0.4,0-0.9,0-1.3l0.1-1.1l-0.1-1.3c-0.1-0.6-0.1-1.1-0.1-1.7
	c0-26,21.1-47,47-47c2,0,4.1,0.2,6.1,0.5c0.2,0,0.6,0.1,0.8,0.1c0.2,0,0.5,0.1,0.8,0.1c1.8,0.3,3.5,0.7,5.3,1.2
	c0.1,0,0.2,0.1,0.2,0.1c0.2,0,0.3,0.1,0.5,0.1c2,0.6,3.9,1.4,5.6,2.1l1.4,0.7c1.6,0.8,3.2,1.7,4.7,2.7c13.5,8.7,21.5,23.4,21.5,39.4
	c0,3.2,2.6,5.8,5.8,5.8c3.2,0,5.8-2.6,5.8-5.8c0-17.2-7.6-33.6-20.8-44.7l-0.6-0.5l0.5-0.6c19.3-25.2,50.6-40.8,81.8-40.8
	c24.8,0,48.7,9.5,67.1,26.9c18.3,17.2,29.6,40.5,31.8,65.6l0.1,0.9l-0.9-0.1c-6.7-0.5-16.7-0.7-26.7,0.9c-1.6,0.2-2.9,1-3.9,2.3
	c-0.9,1.3-1.3,2.8-1.1,4.3c0.4,2.8,2.9,5,5.7,5c0.2,0,0.6,0,0.8-0.1c15.4-2.4,31.1,0,31.3,0c31.1,6,54.6,34.7,54.6,66.8
	c0,17.9-6.9,34.7-19.6,47.3c-12.7,12.7-29.5,19.7-47.3,19.7h-54.6v11.6h54.5c43.3,0,78.6-35.3,78.6-78.6
	C454.3,251.1,429.5,218.8,395.3,209.8z"/>
<g>
	<path d="M322.2,329.6c-0.2-8.2-6.1-15.3-13.7-17.4v-25.3c0-27.8-22.6-50.3-50.3-50.3c-27.8,0-50.3,22.6-50.3,50.3v25.3
		c-7.8,2.1-13.4,9.3-13.4,17.5v59c0,10.1,8.2,18.3,18.3,18.3h91.1c10.1,0,18.3-8.2,18.3-18.3V329.6L322.2,329.6z M303.7,395.5h-91.2
		c-3.8,0-6.6-3.1-6.6-6.6v-59c0-3.8,3.1-6.6,6.6-6.6h91.1c3.8,0,6.6,3.1,6.6,6.6v59C310.5,392.5,307.4,395.5,303.7,395.5z
		 M258,253.3c-18.6,0-33.6,15-33.6,33.6v28.2h-5.1v-28.2c0-21.4,17.5-38.8,38.8-38.8c21.4,0,38.8,17.5,38.8,38.8v28.2h-5.5v-28.2
		C291.5,268.4,276.5,253.3,258,253.3z M281.6,286.9v26.3h-47.1v-26.3c0-12.9,10.5-23.4,23.4-23.4c6.3,0,12,2.4,16.5,6.9l0.1,0.1
		C279.1,274.7,281.6,280.5,281.6,286.9z"/>
	<path d="M258.1,334.7c-9.3,0-16.7,7.5-16.7,16.7c0,4.6,2,9.1,5.3,12.2v9.3c0,6.2,5,11.2,11.2,11.2
		c6.2,0,11.2-5,11.2-11.2v-9.3c3.3-3.2,5.3-7.6,5.3-12.1c0.2-4.4-1.3-8.5-4.3-11.7C267.1,336.5,262.7,334.7,258.1,334.7z
		 M256.8,372.8v-12.1c0-1.6-0.9-2.8-2-3.5c-2-1.1-3.3-3.3-3.3-5.7c0-3.8,3.1-6.6,6.6-6.6c3.8,0,6.6,3.1,6.6,6.6
		c0,2.4-1.3,4.6-3.3,5.7c-1.3,0.6-2,2-2,3.5v12.1c0,0.6-0.6,1.3-1.3,1.3C257.5,374.1,256.8,373.5,256.8,372.8z"/>
</g>
</svg>
