<?xml version="1.0" encoding="utf-8"?>
<!-- Generator: Adobe Illustrator 25.0.1, SVG Export Plug-In . SVG Version: 6.00 Build 0)  -->
<svg version="1.1" fill="#8052FD" id="Capa_1" xmlns="http://www.w3.org/2000/svg" xmlns:xlink="http://www.w3.org/1999/xlink" x="0px" y="0px"
	 viewBox="0 0 512 512" style="enable-background:new 0 0 512 512;" xml:space="preserve">

	
	


<g>
	<path d="M294.6,184.9c0-21.3-17.3-38.6-38.6-38.6s-38.6,17.3-38.6,38.6v32.2h-32.2v122.2h141.5V217.1h-32.2
		L294.6,184.9L294.6,184.9z M230.3,184.9c0-14.2,11.5-25.7,25.7-25.7s25.7,11.5,25.7,25.7v32.2h-51.5L230.3,184.9L230.3,184.9z
		 M313.9,230v96.5H198.1V230h19.3h77.2L313.9,230L313.9,230z"/>
	<path d="M249.6,293.4v13.8c0,3.5,2.9,6.4,6.4,6.4c3.5,0,6.4-2.9,6.4-6.4v-13.8c11.1-2.9,19.3-12.9,19.3-24.8
		c0-14.2-11.5-25.7-25.7-25.7c-14.2,0-25.7,11.5-25.7,25.7C230.3,280.5,238.5,290.5,249.6,293.4z M256,255.7
		c7.1,0,12.9,5.8,12.9,12.9c0,7.1-5.8,12.9-12.9,12.9c-7.1,0-12.9-5.8-12.9-12.9S248.9,255.7,256,255.7z"/>
	<path d="M256,82c-95.7,0-173.7,78-173.7,173.7c0,90.8,70,165.5,158.8,173L212.9,457c-2.5,2.5-2.5,6.6,0,9.1
		c1.3,1.3,2.9,1.9,4.5,1.9c1.7,0,3.3-0.6,4.5-1.9l38.6-38.6c0.6-0.6,1.1-1.3,1.4-2.1c0.7-1.6,0.7-3.3,0-4.9
		c-0.3-0.8-0.8-1.5-1.4-2.1l-38.6-38.6c-2.5-2.5-6.6-2.5-9.1,0c-2.5,2.5-2.5,6.6,0,9.1l26.8,26.8c-81-8.2-144.4-76.8-144.4-160
		C95.2,167,167.3,94.9,256,94.9S416.8,167,416.8,255.7c0,42.7-16.5,82.9-46.6,113.2c-2.5,2.6-2.5,6.6,0.1,9.1
		c2.5,2.5,6.6,2.5,9.1-0.1c32.4-32.7,50.3-76.1,50.3-122.2C429.7,160,351.7,82,256,82z"/>
</g>
</svg>
