<?xml version="1.0" encoding="utf-8"?>
<!-- Generator: Adobe Illustrator 25.0.1, SVG Export Plug-In . SVG Version: 6.00 Build 0)  -->
<svg version="1.1" fill="#8052FD" id="Layer_1" xmlns="http://www.w3.org/2000/svg" xmlns:xlink="http://www.w3.org/1999/xlink" x="0px" y="0px"
	 viewBox="0 0 498.6 498.6" style="enable-background:new 0 0 498.6 498.6;" xml:space="preserve">

	
	


<g id="Layer_2_1_">
	<g id="Calque_1">
		<path d="M183.4,257.2h-9v-10.8c0-23-18.7-41.7-41.7-41.7S91,223.4,91,246.4c0,0,0,0,0,0v10.8H80.6
			c-8.8,0-16,7.1-16,16v63.1c0,8.8,7.1,16,16,16h102.7c8.8,0,16-7.1,16-16v-63.1C199.3,264.4,192.2,257.2,183.4,257.2z M103.8,246.4
			c0-16,12.9-28.9,28.9-28.9s28.9,12.9,28.9,28.9v10.8h-57.8V246.4z M186.5,336.3c0,1.8-1.4,3.2-3.2,3.2H80.6
			c-1.8,0-3.2-1.4-3.2-3.2v-63.1c0-1.8,1.4-3.2,3.2-3.2h102.7c1.8,0,3.2,1.4,3.2,3.2V336.3z"/>
		<path d="M149.8,296.5c0-9.8-7.9-17.7-17.7-17.7s-17.7,7.9-17.7,17.7c0,3.4,1,6.7,2.8,9.5c1.5,2.2,2,4.2,1.8,5.9l0,0.3
			v0.3l-0.9,7.6l-1.2,10.6h30.4l-1.2-10.7l-0.9-7.7V312v-0.3c-0.3-2,0.7-4.2,1.8-5.7C148.9,303.2,149.8,299.8,149.8,296.5z
			 M138.9,300.8c-2.8,4.3-3.9,8.6-3.2,12.5l0.9,7.7h-9l0.9-7.6c0.7-4.1-0.4-8.3-3.2-12.6c-0.8-1.3-1.3-2.8-1.3-4.3
			c0-4.5,3.6-8.1,8.1-8.1c4.5,0,8.1,3.6,8.1,8.1C140.2,298,139.8,299.5,138.9,300.8z"/>
		<path d="M431.8,175.7c1.3-1.3,2.1-3.2,2-5.1c0-1.9-0.9-3.8-2.3-5.1C340.3,81,199.3,81,108,165.5
			c-1.4,1.3-2.3,3.2-2.3,5.1c-0.1,3.9,3,7.1,6.9,7.1c1.8,0,3.5-0.6,4.8-1.8c86-79.7,218.8-79.7,304.8,0
			C424.9,178.5,429.1,178.4,431.8,175.7L431.8,175.7z M269.8,287.1c-29.4,0-53.3,23.8-53.4,53.3c0,29.4,23.8,53.3,53.3,53.4
			c29.4,0,53.3-23.8,53.4-53.3c0-14.2-5.6-27.7-15.6-37.7C297.5,292.7,283.9,287.1,269.8,287.1z M269.8,379.6
			c-21.6,0-39.2-17.6-39.1-39.2c0-21.6,17.6-39.2,39.2-39.1c21.6,0,39.2,17.6,39.1,39.2c0,10.4-4.1,20.3-11.5,27.7
			C290.2,375.5,280.2,379.6,269.8,379.6z M269.8,239.5c23.9,0,47,8.4,65.2,23.9c2.8,2.4,6.9,2.3,9.5-0.3c1.4-1.4,2.1-3.3,2.1-5.3
			c-0.1-1.9-0.9-3.7-2.4-5l0,0c-40.2-34.2-98.5-36.5-141.3-5.7c3.9,2.7,7.1,6.3,9.2,10.6C229,245.8,249.2,239.4,269.8,239.5
			L269.8,239.5z M269.8,177.8c40.2,0,79,14.8,108.8,41.8c2.9,2.6,7.3,2.3,9.9-0.6c2.6-2.9,2.3-7.3-0.6-9.9l0,0
			c-60.9-54.8-151.5-60.5-218.8-13.8c4.3,2.4,8.2,5.5,11.4,9.2C207.1,187.1,238.1,177.8,269.8,177.8L269.8,177.8z"/>
	</g>
</g>
</svg>
