<?xml version="1.0" encoding="utf-8"?>
<!-- Generator: Adobe Illustrator 25.0.1, SVG Export Plug-In . SVG Version: 6.00 Build 0)  -->
<svg version="1.1" fill="#8052FD" id="Layer_1" xmlns="http://www.w3.org/2000/svg" xmlns:xlink="http://www.w3.org/1999/xlink" x="0px" y="0px"
	 viewBox="0 0 489.5 489.5" style="enable-background:new 0 0 489.5 489.5;" xml:space="preserve">

	
	


<g>
	<g>
		<g>
			<path d="M297.8,193.6h-1.9v-25.4c0-28.2-23-51.2-51.2-51.2s-51.2,23-51.2,51.2c0,3.6,2.9,6.5,6.5,6.5
				c3.6,0,6.5-2.9,6.5-6.5c0-21.1,17.2-38.3,38.3-38.3s38.3,17.2,38.3,38.3v25.4h-91.5c-9.2,0-16.8,7.5-16.8,16.8v69.9
				c0,9.2,7.5,16.8,16.8,16.8h106.1c9.2,0,16.8-7.5,16.8-16.8v-69.9C314.5,201.1,307,193.6,297.8,193.6z M301.6,280.2
				c0,2.1-1.7,3.8-3.8,3.8H191.6c-2.1,0-3.8-1.7-3.8-3.8v-69.9c0-2.1,1.7-3.8,3.8-3.8h106.1c2.1,0,3.8,1.7,3.8,3.8L301.6,280.2
				L301.6,280.2z"/>
			<path d="M246.6,227.1c-4.7-0.9-9.6,1.7-11.6,6.2c-2.1,4.6-0.7,9.8,3.5,12.9c0.9,0.6,1,1.2,1,2.1c0,4.6,0,9.2,0,13.8
				l0,0c0,3.8,4,6.7,8,4.6c1.7-0.9,2.7-2.7,2.6-4.6l0,0c0-4.6,0-9.2,0-13.8c0-1,0.2-1.6,1.1-2.3c2.9-2.1,4.3-5,4.3-8.6
				C255.4,232.3,251.8,228.1,246.6,227.1z"/>
			<path d="M152.8,241.6h-35.7c-2.8-9.9-11.9-17.1-22.7-17.1c-13,0-23.6,10.6-23.6,23.6s10.6,23.6,23.6,23.6
				c10.7,0,19.8-7.2,22.7-17.1h35.8c3.6,0,6.5-2.9,6.5-6.5C159.3,244.5,156.4,241.6,152.8,241.6z M94.4,258.7
				c-5.9,0-10.7-4.8-10.7-10.7c0-5.9,4.8-10.7,10.7-10.7c5.9,0,10.7,4.8,10.7,10.7S100.3,258.7,94.4,258.7z"/>
			<path d="M152.8,203.7h-39.2c-7,0-12.8-5.8-12.8-12.8v-21c9.9-2.8,17.1-11.9,17.1-22.7c0-13-10.6-23.6-23.6-23.6
				s-23.6,10.6-23.6,23.6c0,10.7,7.2,19.8,17.1,22.7v21c0,14.1,11.5,25.7,25.7,25.7h39.2c3.6,0,6.5-2.9,6.5-6.5
				C159.3,206.5,156.4,203.7,152.8,203.7z M83.7,147.2c0-5.9,4.8-10.7,10.7-10.7s10.7,4.8,10.7,10.7c0,5.9-4.8,10.7-10.7,10.7
				S83.7,153.1,83.7,147.2z"/>
			<path d="M152.8,279.5h-39.2C99.5,279.5,88,291,88,305.1v21c-9.9,2.8-17.1,11.9-17.1,22.7c0,13,10.6,23.6,23.6,23.6
				s23.6-10.6,23.6-23.6c0-10.7-7.2-19.8-17.1-22.7v-21c0-7,5.8-12.8,12.8-12.8H153c3.6,0,6.5-2.9,6.5-6.5
				C159.3,282.4,156.4,279.5,152.8,279.5z M105.1,348.8c0,5.9-4.8,10.7-10.7,10.7c-5.9,0-10.7-4.8-10.7-10.7
				c0-5.9,4.8-10.7,10.7-10.7C100.3,338.2,105.1,342.9,105.1,348.8z"/>
			<path d="M395,224.5c-10.7,0-19.8,7.2-22.7,17.1h-35.8c-3.6,0-6.5,2.9-6.5,6.5c0,3.6,2.9,6.5,6.5,6.5h35.8
				c2.8,9.9,11.9,17.1,22.7,17.1c13,0,23.6-10.6,23.6-23.6S408,224.5,395,224.5z M395,258.7c-5.9,0-10.7-4.8-10.7-10.7
				c0-5.9,4.8-10.7,10.7-10.7c5.9,0,10.7,4.8,10.7,10.7C405.8,254,400.9,258.7,395,258.7z"/>
			<path d="M401.5,326.2v-21c0-14.1-11.5-25.7-25.7-25.7h-39.2c-3.6,0-6.5,2.9-6.5,6.5c0,3.6,2.9,6.5,6.5,6.5h39.2
				c7,0,12.8,5.8,12.8,12.8v21c-9.9,2.8-17.1,11.9-17.1,22.7c0,13,10.6,23.6,23.6,23.6c13,0,23.6-10.6,23.6-23.6
				C418.6,338.1,411.4,329,401.5,326.2z M395,359.6c-5.9,0-10.7-4.8-10.7-10.7c0-5.9,4.8-10.7,10.7-10.7c5.9,0,10.7,4.8,10.7,10.7
				C405.8,354.7,400.9,359.6,395,359.6z"/>
			<path d="M336.6,216.6h39.2c14.1,0,25.7-11.5,25.7-25.7v-21c9.9-2.8,17.1-11.9,17.1-22.7c0-13-10.6-23.6-23.6-23.6
				s-23.6,10.6-23.6,23.6c0,10.7,7.2,19.8,17.1,22.7v21c0,7-5.8,12.8-12.8,12.8h-39.2c-3.6,0-6.5,2.9-6.5,6.5
				C330.1,213.7,333.1,216.6,336.6,216.6z M384.4,147.2c0-5.9,4.8-10.7,10.7-10.7c5.9,0,10.7,4.8,10.7,10.7
				c0,5.9-4.8,10.7-10.7,10.7C389.1,157.9,384.4,153.1,384.4,147.2z"/>
		</g>
	</g>
</g>
</svg>
