<?xml version="1.0" encoding="utf-8"?>
<!-- Generator: Adobe Illustrator 25.0.1, SVG Export Plug-In . SVG Version: 6.00 Build 0)  -->
<svg version="1.1" fill="#8052FD" id="Layer_1" xmlns="http://www.w3.org/2000/svg" xmlns:xlink="http://www.w3.org/1999/xlink" x="0px" y="0px"
	 viewBox="0 0 512 512" style="enable-background:new 0 0 512 512;" xml:space="preserve">

	
	


<path d="M296.8,280.6h-81.5c-11.3,0-20.4-9.1-20.4-20.4v-67.9c0-11.3,9.1-20.4,20.4-20.4h81.5
	c11.3,0,20.4,9.1,20.4,20.4v67.9C317.1,271.5,308,280.6,296.8,280.6z M215.2,185.5c-3.8,0-6.8,3.1-6.8,6.8v67.9
	c0,3.8,3.1,6.8,6.8,6.8h81.5c3.8,0,6.8-3.1,6.8-6.8v-67.9c0-3.8-3.1-6.8-6.8-6.8H215.2z"/>
<path d="M296.8,185.5h-81.5c-3.8,0-6.8-3.1-6.8-6.8v-27.1c0-26.3,21.3-47.6,47.6-47.6s47.6,21.3,47.6,47.6v27.2
	C303.6,182.4,300.5,185.5,296.8,185.5z M222.1,171.9H290v-20.4c0-18.8-15.2-33.9-33.9-33.9c-18.7,0-33.9,15.2-33.9,33.9L222.1,171.9
	L222.1,171.9z"/>
<path d="M269.6,185.5h-27.2c-3.8,0-6.8-3.1-6.8-6.8v-27.1c0-11.3,9.1-20.4,20.4-20.4c11.3,0,20.4,9.1,20.4,20.4v27.2
	C276.4,182.4,273.3,185.5,269.6,185.5z M249.2,171.9h13.6v-20.4c0-3.8-3.1-6.8-6.8-6.8s-6.8,3.1-6.8,6.8L249.2,171.9L249.2,171.9z"
	/>
<path d="M256,239.8c-11.3,0-20.4-9.1-20.4-20.4c0-11.3,9.1-20.4,20.4-20.4c11.3,0,20.4,9.1,20.4,20.4
	C276.4,230.7,267.3,239.8,256,239.8z M256,212.7c-3.8,0-6.8,3.1-6.8,6.8s3.1,6.7,6.8,6.7c3.8,0,6.8-3.1,6.8-6.8
	S259.8,212.7,256,212.7z"/>
<path d="M249.2,233.1h13.6v20.4h-13.6V233.1z"/>
<path d="M256,368.9c-11.3,0-20.4-9.1-20.4-20.4s9.1-20.4,20.4-20.4c11.3,0,20.4,9.1,20.4,20.4S267.3,368.9,256,368.9z
	 M256,341.7c-3.8,0-6.8,3.1-6.8,6.8s3.1,6.8,6.8,6.8c3.8,0,6.8-3.1,6.8-6.8S259.8,341.7,256,341.7z"/>
<path d="M188.1,368.9c-11.3,0-20.4-9.1-20.4-20.4s9.1-20.4,20.4-20.4c11.3,0,20.4,9.1,20.4,20.4
	S199.3,368.9,188.1,368.9z M188.1,341.7c-3.8,0-6.8,3.1-6.8,6.8s3.1,6.8,6.8,6.8c3.8,0,6.8-3.1,6.8-6.8
	C194.9,344.7,191.8,341.7,188.1,341.7z"/>
<path d="M323.9,368.9c-11.3,0-20.4-9.1-20.4-20.4s9.1-20.4,20.4-20.4s20.4,9.1,20.4,20.4S335.1,368.9,323.9,368.9z
	 M323.9,341.7c-3.8,0-6.8,3.1-6.8,6.8s3.1,6.8,6.8,6.8s6.8-3.1,6.8-6.8S327.7,341.7,323.9,341.7z"/>
<path d="M249.2,294.2h13.6v40.8h-13.6V294.2z"/>
<path d="M312.3,346.5L292,326.2c-1.3-1.3-2-3-2-4.8v-27.2h13.6v24.3l18.4,18.4L312.3,346.5z"/>
<path d="M199.7,346.5l-9.6-9.6l18.4-18.4v-24.3H222v27.2c0,1.8-0.7,3.5-2,4.8L199.7,346.5z"/>
<path d="M154.1,362.1h-40.8c-11.3,0-20.4-9.1-20.4-20.4V124.4c0-11.3,9.1-20.4,20.4-20.4h88.3v13.6h-88.3
	c-3.8,0-6.8,3.1-6.8,6.8v217.3c0,3.8,3.1,6.8,6.8,6.8h40.8V362.1z"/>
<path d="M398.6,362.1h-40.8v-13.6h40.8c3.8,0,6.8-3.1,6.8-6.8V124.4c0-3.8-3.1-6.8-6.8-6.8h-88.3V104h88.3
	c11.3,0,20.4,9.1,20.4,20.4v217.3C419,353,409.9,362.1,398.6,362.1z"/>
<path d="M344.3,430H167.7c-11.3,0-20.4-9.1-20.4-20.4s9.1-20.4,20.4-20.4h176.6c11.3,0,20.4,9.1,20.4,20.4
	S355.5,430,344.3,430z M167.7,402.8c-3.8,0-6.8,3.1-6.8,6.8s3.1,6.8,6.8,6.8h176.6c3.8,0,6.8-3.1,6.8-6.8s-3.1-6.8-6.8-6.8H167.7z"
	/>
<path d="M181.3,375.7h13.6v20.4h-13.6V375.7z"/>
<path d="M317.1,375.7h13.6v20.4h-13.6V375.7z"/>
<path d="M99.8,300.9h95.1v13.6H99.8V300.9z"/>
<path d="M317.1,300.9h95.1v13.6h-95.1V300.9z"/>
</svg>
