<?xml version="1.0" encoding="utf-8"?>
<!-- Generator: Adobe Illustrator 25.0.1, SVG Export Plug-In . SVG Version: 6.00 Build 0)  -->
<svg version="1.1" fill="#8052FD" id="Capa_1" xmlns="http://www.w3.org/2000/svg" xmlns:xlink="http://www.w3.org/1999/xlink" x="0px" y="0px"
	 viewBox="0 0 512 512" style="enable-background:new 0 0 512 512;" xml:space="preserve">

	
	


<g>
	<g>
		<path d="M331,280c0,3.6,2.9,6.3,6.3,6.3s6.3-2.9,6.3-6.3v-5.2l52.3-52.3c3.9-3.9,1-10.8-4.5-10.8h-47.9v-45.2
			l52.3-52.3c3.9-3.9,1-10.8-4.5-10.8h-47.9v-0.4c0-14.7-12-26.7-26.7-26.7H195c-14.7,0-26.7,12-26.7,26.7v0.4h-47.9
			c-5.5,0-8.5,6.9-4.5,10.8l52.3,52.3v45.2h-47.9c-5.5,0-8.5,6.9-4.5,10.8l52.3,52.3v45.2h-47.9c-5.5,0-8.5,6.9-4.5,10.8l52.3,52.3
			v31.3c0,14.7,12,26.7,26.7,26.7h27.6v61.4c0,3.6,2.9,6.3,6.3,6.3s6.3-2.9,6.3-6.3v-61.4h41.5v61.4c0,3.6,2.9,6.3,6.3,6.3
			s6.3-2.9,6.3-6.3v-61.4H317c14.7,0,26.7-12,26.7-26.7v-31.3l52.3-52.3c3.9-3.9,1-10.8-4.5-10.8h-47.9v-11.3c0-3.6-2.9-6.3-6.3-6.3
			s-6.3,2.9-6.3,6.3v17.7v54.2v33.9c0,7.7-6.3,14-14,14H195c-7.7,0-14-6.3-14-14V102.8c0-7.7,6.3-14,14-14h122c7.7,0,14,6.3,14,14
			V280z M376.2,332.8l-32.6,32.6v-32.6H376.2z M135.8,115.9h32.6v32.6L135.8,115.9z M135.8,224.3h32.6v32.6L135.8,224.3z
			 M135.8,332.8h32.6v32.6L135.8,332.8z M376.2,224.3l-32.6,32.6v-32.6H376.2z M376.2,115.9l-32.6,32.6v-32.6H376.2z"/>
		<path d="M256,103.3c-26,0-47,21.1-47,47c0,5.3,0.9,10.7,2.7,15.6c0.9,2.5,3.3,4.2,6,4.2l0,0c0.1,0,0.2,0,0.3,0
			c5.4,15.8,20.5,27.1,38,27.1c17.6,0,32.6-11.3,38-27.1c0.1,0,0.2,0,0.3,0c2.7,0,5.1-1.7,6-4.2c1.8-5.1,2.7-10.3,2.7-15.6
			C303,124.3,282,103.3,256,103.3z M256,115.9c17.1,0,31.2,12.5,33.9,28.8c-8.7-9-20.8-14.5-33.9-14.5c-13.1,0-25.2,5.4-33.9,14.5
			C224.8,128.5,238.9,115.9,256,115.9z M256,184.6c-15.2,0-27.6-12.3-27.6-27.6v-0.1c6.4-8.6,16.6-13.9,27.6-13.9
			s21.1,5.3,27.6,13.9v0.1C283.6,172.2,271.2,184.6,256,184.6z"/>
		<path d="M256,211.6c-26,0-47,21.1-47,47c0,5.3,0.9,10.7,2.7,15.6c0.9,2.5,3.3,4.2,6,4.2l0,0c0.1,0,0.2,0,0.3,0
			c5.4,15.8,20.5,27.1,38,27.1c17.6,0,32.6-11.3,38-27.1c0.1,0,0.2,0,0.3,0c2.7,0,5.1-1.7,6-4.2c1.8-5.1,2.7-10.3,2.7-15.6
			C303,232.8,282,211.6,256,211.6z M256,224.3c17.1,0,31.2,12.5,33.9,28.8c-8.7-9-20.8-14.5-33.9-14.5c-13.1,0-25.2,5.4-33.9,14.5
			C224.8,236.8,238.9,224.3,256,224.3z M256,293c-15.2,0-27.6-12.3-27.6-27.6v-0.1c6.3-8.5,16.5-13.9,27.6-13.9
			c11,0,21.1,5.3,27.6,13.9v0.1C283.6,280.6,271.2,293,256,293z"/>
		<path d="M256,320.1c-26,0-47,21.1-47,47c0,5.3,0.9,10.7,2.7,15.6c0.9,2.5,3.3,4.2,6,4.2l0,0c0.1,0,0.2,0,0.3,0
			c5.4,15.8,20.5,27.1,38,27.1c17.6,0,32.6-11.3,38-27.1c0.1,0,0.2,0,0.3,0c2.7,0,5.1-1.7,6-4.2c1.8-5.1,2.7-10.3,2.7-15.6
			C303,341.2,282,320.1,256,320.1z M256,401.5c-15.2,0-27.6-12.3-27.6-27.6v-0.1c6.3-8.5,16.5-13.9,27.6-13.9
			c11,0,21.1,5.3,27.6,13.9v0.1C283.6,389,271.2,401.5,256,401.5z M256,347.2c-13,0-25.2,5.4-33.9,14.5
			c2.6-16.3,16.8-28.8,33.9-28.8s31.2,12.5,33.9,28.8C281.2,352.6,269,347.2,256,347.2z"/>
	</g>
</g>
</svg>
