<?xml version="1.0" encoding="utf-8"?>
<!-- Generator: Adobe Illustrator 25.0.1, SVG Export Plug-In . SVG Version: 6.00 Build 0)  -->
<svg version="1.1" fill="#8052FD" id="Layer_1" xmlns="http://www.w3.org/2000/svg" xmlns:xlink="http://www.w3.org/1999/xlink" x="0px" y="0px"
	 viewBox="0 0 512 512" style="enable-background:new 0 0 512 512;" xml:space="preserve">

	
	


<path d="M400.8,111.3H187c-15.3-15.6-38.4-20.3-58.6-12.1C108.2,107.4,95,127,95,148.8c0,21.8,13.2,41.4,33.4,49.7
	c20.2,8.2,43.3,3.5,58.6-12.1h213.9c8.9,0,16.1-7.2,16.1-16.1v-42.9C416.9,118.5,409.7,111.3,400.8,111.3z M148.7,191.7
	c-23.7,0-42.9-19.2-42.9-42.9s19.2-42.9,42.9-42.9c23.7,0,42.9,19.2,42.9,42.9C191.6,172.5,172.4,191.7,148.7,191.7z M406.2,170.3
	c0,3-2.4,5.4-5.4,5.4H195.1c9.7-16.6,9.7-37.1,0-53.6h205.7c3,0,5.4,2.4,5.4,5.4V170.3z"/>
<path d="M229.2,143.5h82.3c3,0,5.4-2.4,5.4-5.4c0-3-2.4-5.4-5.4-5.4h-82.3c-3,0-5.4,2.4-5.4,5.4
	C223.8,141.1,226.2,143.5,229.2,143.5z"/>
<path d="M390.1,154.2H229.2c-3,0-5.4,2.4-5.4,5.4c0,3,2.4,5.4,5.4,5.4h160.9c3,0,5.4-2.4,5.4-5.4
	C395.5,156.6,393.1,154.2,390.1,154.2z"/>
<path d="M363.3,202.5c-14.4,0-28.2,5.8-38.2,16.1H111.2c-8.9,0-16.1,7.2-16.1,16.1v42.9c0,8.9,7.2,16.1,16.1,16.1H325
	c17,17.4,43.7,21.1,64.8,9.1s31.6-36.8,25.3-60.4C409,218.8,387.6,202.4,363.3,202.5z M111.2,282.9c-3,0-5.4-2.4-5.4-5.4v-42.9
	c0-3,2.4-5.4,5.4-5.4h205.7c-9.7,16.6-9.7,37.1,0,53.6H111.2z M363.3,299c-23.7,0-42.9-19.2-42.9-42.9s19.2-42.9,42.9-42.9
	s42.9,19.2,42.9,42.9C406.2,279.8,387,299,363.3,299z"/>
<path d="M387.6,230.1c-1.6-1-3.6-1.1-5.2-0.2l-4,2c-2,1-4.3,0.6-5.9-1l-5.4-5.4c-2.1-2.1-5.5-2.1-7.6,0l-5.4,5.4
	c-1.6,1.6-3.9,1.9-5.9,1l-4-2c-1.7-0.9-3.7-0.8-5.3,0.2c-1.6,1-2.6,2.7-2.6,4.6v21.5c-0.8,7.3,1.8,14.6,6.9,19.9
	c0.3,0.2,0.5,0.5,0.8,0.7l16.1,10.7c1.8,1.2,4.2,1.2,6,0l16.1-10.7c0.3-0.2,0.6-0.4,0.8-0.7c6.7-6.7,6.9-8.2,6.9-19.9v-21.5
	C390.1,232.8,389.1,231.1,387.6,230.1z M379.4,256.1c0,8.2,0,8.5-3.4,11.9l-12.7,8.5l-12.6-8.4c-2.8-3.3-4.1-7.7-3.5-12v-13.3
	c5.2,1.1,10.7-0.5,14.5-4.3l1.6-1.6l1.6,1.6c3.8,3.8,9.2,5.4,14.5,4.3V256.1z"/>
<path d="M121.9,250.7h82.3c3,0,5.4-2.4,5.4-5.4c0-3-2.4-5.4-5.4-5.4h-82.3c-3,0-5.4,2.4-5.4,5.4
	C116.5,248.3,118.9,250.7,121.9,250.7z"/>
<path d="M282.8,261.5H121.9c-3,0-5.4,2.4-5.4,5.4c0,3,2.4,5.4,5.4,5.4h160.9c3,0,5.4-2.4,5.4-5.4
	C288.2,263.9,285.8,261.5,282.8,261.5z"/>
<path d="M400.8,325.9H187c-15.3-15.6-38.4-20.4-58.6-12.1C108.2,322,95,341.6,95,363.4c0,21.8,13.2,41.4,33.4,49.7
	c20.2,8.2,43.3,3.5,58.6-12.1h213.9c8.9,0,16.1-7.2,16.1-16.1v-42.9C416.9,333.1,409.7,325.9,400.8,325.9z M148.7,406.3
	c-23.7,0-42.9-19.2-42.9-42.9c0-23.7,19.2-42.9,42.9-42.9c23.7,0,42.9,19.2,42.9,42.9C191.6,387.1,172.4,406.3,148.7,406.3z
	 M406.2,384.9c0,3-2.4,5.4-5.4,5.4H195.1c9.7-16.6,9.7-37.1,0-53.6h205.7c3,0,5.4,2.4,5.4,5.4V384.9z"/>
<path d="M229.2,358h82.3c3,0,5.4-2.4,5.4-5.4c0-3-2.4-5.4-5.4-5.4h-82.3c-3,0-5.4,2.4-5.4,5.4
	C223.8,355.6,226.2,358,229.2,358z"/>
<path d="M390.1,368.8H229.2c-3,0-5.4,2.4-5.4,5.4c0,3,2.4,5.4,5.4,5.4h160.9c3,0,5.4-2.4,5.4-5.4
	C395.5,371.2,393.1,368.8,390.1,368.8z"/>
<path d="M173,122.8c-1.6-1-3.6-1.1-5.2-0.2l-4,2c-2,1-4.3,0.6-5.9-1l-5.4-5.4c-2.1-2.1-5.5-2.1-7.6,0l-5.4,5.4
	c-1.6,1.6-3.9,1.9-5.9,1l-4-2c-1.7-0.9-3.7-0.8-5.3,0.2c-1.6,1-2.6,2.7-2.6,4.6v21.5c-0.8,7.3,1.8,14.6,6.9,19.9
	c0.3,0.2,0.5,0.5,0.8,0.7l16.1,10.7c1.8,1.2,4.2,1.2,6,0l16.1-10.7c0.3-0.2,0.6-0.4,0.8-0.7c6.7-6.7,6.9-8.2,6.9-19.9v-21.5
	C175.5,125.5,174.6,123.8,173,122.8z M164.8,148.8c0,8.2,0,8.5-3.4,11.9l-12.7,8.5l-12.6-8.4c-2.8-3.3-4.1-7.7-3.5-11.9v-13.3
	c5.2,1.1,10.7-0.5,14.5-4.3l1.6-1.6l1.6,1.6c3.8,3.8,9.2,5.4,14.5,4.3V148.8z"/>
<path d="M173,337.4c-1.6-1-3.6-1.1-5.2-0.2l-4,2c-2,1-4.3,0.6-5.9-1l-5.4-5.4c-2.1-2.1-5.5-2.1-7.6,0l-5.4,5.4
	c-1.6,1.6-3.9,1.9-5.9,1l-4-2c-1.7-0.9-3.7-0.8-5.3,0.2c-1.6,1-2.6,2.7-2.6,4.6v21.5c-0.8,7.3,1.8,14.6,6.9,19.9
	c0.3,0.2,0.5,0.5,0.8,0.7l16.1,10.7c1.8,1.2,4.2,1.2,6,0l16.1-10.7c0.3-0.2,0.6-0.4,0.8-0.7c6.7-6.7,6.9-8.2,6.9-19.9v-21.5
	C175.5,340.1,174.6,338.4,173,337.4z M164.8,363.4c0,8.2,0,8.5-3.4,11.9l-12.7,8.5l-12.6-8.4c-2.8-3.3-4.1-7.7-3.5-11.9v-13.3
	c5.2,1.1,10.7-0.5,14.5-4.3l1.6-1.6l1.6,1.6c3.8,3.8,9.2,5.4,14.5,4.3V363.4z"/>
</svg>
