<?xml version="1.0" encoding="utf-8"?>
<!-- Generator: Adobe Illustrator 25.0.1, SVG Export Plug-In . SVG Version: 6.00 Build 0)  -->
<svg version="1.1" fill="#8052FD" id="Layer_1" xmlns="http://www.w3.org/2000/svg" xmlns:xlink="http://www.w3.org/1999/xlink" x="0px" y="0px"
	 viewBox="0 0 495 495" style="enable-background:new 0 0 495 495;" xml:space="preserve">

	
	


<g id="Layer_2_1_">
	<g id="Calque_1">
		<path d="M400.8,401.7h-306c-7.3,0-13.2-5.9-13.2-13.2v-19.5c0-7.3,5.9-13.2,13.2-13.2h306c7.3,0,13.2,5.9,13.2,13.2
			v19.5C413.9,395.8,408,401.7,400.8,401.7z M94.8,365.4c-2,0-3.6,1.6-3.6,3.7c0,0,0,0,0,0v19.5c0,2,1.6,3.6,3.6,3.6h306
			c2,0,3.6-1.6,3.6-3.6v-19.5c0-2-1.6-3.6-3.6-3.6L94.8,365.4z"/>
		<path d="M384.7,267.9h-274c-7.3,0-13.2,5.9-13.2,13.2v54.7c0,7.3,5.9,13.2,13.2,13.2h274c7.3,0,13.2-5.9,13.2-13.2
			v-54.7C397.9,273.8,392,268,384.7,267.9z M388.4,335.8c0,2-1.6,3.6-3.6,3.6h-274c-2,0-3.6-1.6-3.6-3.6v-54.7c0-2,1.6-3.6,3.6-3.6
			h274c2,0,3.6,1.6,3.6,3.6V335.8z M186,289.3h-61.7c-2.9,0-5.3,2.4-5.3,5.3c0,2.9,2.4,5.3,5.3,5.3c0,0,0,0,0,0H186
			c2.9,0,5.3-2.4,5.3-5.3C191.3,291.7,188.9,289.3,186,289.3z M365.7,288.8c-4.4,0-8,3.6-8,8c0,4.4,3.6,8,8,8c4.4,0,8-3.6,8-8
			C373.7,292.4,370.1,288.8,365.7,288.8L365.7,288.8z M339.7,288.8c-4.4,0-8,3.6-8,8c0,4.4,3.6,8,8,8c4.4,0,8-3.6,8-8
			C347.8,292.4,344.2,288.8,339.7,288.8z M313.8,288.8c-4.4,0-8,3.6-8,8c0,4.4,3.6,8,8,8s8-3.6,8-8
			C321.8,292.4,318.2,288.8,313.8,288.8z M287.8,288.8c-4.4,0-8,3.6-8,8c0,4.4,3.6,8,8,8s8-3.6,8-8
			C295.9,292.4,292.3,288.8,287.8,288.8L287.8,288.8L287.8,288.8z M261.9,288.8c-4.4,0-8,3.6-8,8c0,4.4,3.6,8,8,8s8-3.6,8-8
			C270,292.4,266.4,288.8,261.9,288.8C261.9,288.8,261.9,288.8,261.9,288.8L261.9,288.8z"/>
		<path d="M384.7,180h-274c-7.3,0-13.2,5.9-13.2,13.2v54.7c0,7.3,5.9,13.2,13.2,13.2h274c7.3,0,13.2-5.9,13.2-13.2
			v-54.7C397.9,185.9,392,180,384.7,180z M388.4,247.9c0,2-1.6,3.6-3.6,3.6h-274c-2,0-3.6-1.6-3.6-3.6v-54.7c0-2,1.6-3.6,3.6-3.6
			h274c2,0,3.6,1.6,3.6,3.6V247.9z M186,201.4h-61.7c-2.9-0.1-5.4,2.2-5.5,5.1s2.2,5.4,5.1,5.5c0.1,0,0.3,0,0.4,0H186
			c2.9-0.1,5.2-2.6,5.1-5.5C191,203.7,188.8,201.5,186,201.4z M365.7,200.9c-4.4,0-8,3.6-8,8c0,4.4,3.6,8,8,8c4.4,0,8-3.6,8-8
			C373.7,204.5,370.1,200.9,365.7,200.9C365.7,200.9,365.7,200.9,365.7,200.9L365.7,200.9z M339.7,200.9c-4.4,0-8,3.6-8,8
			c0,4.4,3.6,8,8,8c4.4,0,8-3.6,8-8C347.8,204.5,344.2,200.9,339.7,200.9C339.7,200.9,339.7,200.9,339.7,200.9L339.7,200.9z"/>
		<path d="M384.7,92.1h-274c-7.3,0-13.2,5.9-13.2,13.2v54.7c0,7.3,5.9,13.2,13.2,13.2h274c7.3,0,13.2-5.9,13.2-13.2
			v-54.7C397.9,98,392,92.1,384.7,92.1z M388.4,159.9c0,2-1.6,3.6-3.6,3.6h-274c-2,0-3.6-1.6-3.6-3.6v-54.7c0-2,1.6-3.6,3.6-3.6h274
			c2,0,3.6,1.6,3.6,3.6V159.9z M186,113.5h-61.7c-2.9-0.1-5.4,2.2-5.5,5.1c-0.1,2.9,2.2,5.4,5.1,5.5c0.1,0,0.3,0,0.4,0H186
			c2.9-0.1,5.2-2.6,5.1-5.5C191,115.8,188.8,113.6,186,113.5z M365.7,113c-4.4,0-8,3.6-8,8c0,4.4,3.6,8,8,8c4.4,0,8-3.6,8-8
			S370.1,113,365.7,113L365.7,113z M339.7,113c-4.4,0-8,3.6-8,8c0,4.4,3.6,8,8,8c4.4,0,8-3.6,8-8C347.8,116.6,344.2,113,339.7,113
			L339.7,113z M313.8,113c-4.4,0-8,3.6-8,8c0,4.4,3.6,8,8,8s8-3.6,8-8C321.8,116.6,318.2,113,313.8,113L313.8,113z M287.8,113
			c-4.4,0-8,3.6-8,8c0,4.4,3.6,8,8,8s8-3.6,8-8C295.9,116.6,292.3,113,287.8,113L287.8,113L287.8,113z M261.9,113c-4.4,0-8,3.6-8,8
			c0,4.4,3.6,8,8,8s8-3.6,8-8C270,116.6,266.4,113,261.9,113C261.9,113,261.9,113,261.9,113L261.9,113z"/>
	</g>
</g>
</svg>
