<?xml version="1.0" encoding="utf-8"?>
<!-- Generator: Adobe Illustrator 25.0.1, SVG Export Plug-In . SVG Version: 6.00 Build 0)  -->
<svg version="1.1" fill="#8052FD" id="Layer_1" xmlns="http://www.w3.org/2000/svg" xmlns:xlink="http://www.w3.org/1999/xlink" x="0px" y="0px"
	 viewBox="0 0 472.7 472.7" style="enable-background:new 0 0 472.7 472.7;" xml:space="preserve">

	
	


<g id="Layer_2_1_">
	<g id="Calque_1">
		<path d="M234.4,252.4c-3.8,0-6.9-3.1-6.9-6.9V107.9c0-3.8,3.1-6.9,6.9-6.9c3.8,0,6.9,3.1,6.9,6.9v137.6
			C241.3,249.3,238.2,252.4,234.4,252.4z"/>
		<path d="M234.4,372.2c-71.7-0.1-129.8-58.2-129.8-129.9c0-47.5,25.9-91.1,67.6-113.9c3.3-1.9,7.5-0.7,9.4,2.7
			c1.9,3.3,0.7,7.5-2.7,9.4c-0.1,0-0.1,0.1-0.1,0.1c-37.2,20.3-60.4,59.4-60.4,101.8c0,63.9,52,116,116,116s116-52,116-116
			c0-42.4-23.2-81.5-60.4-101.8c-3.3-1.9-4.5-6.1-2.7-9.4c1.8-3.3,6-4.5,9.3-2.7c62.9,34.4,86.1,113.3,51.7,176.2
			C325.6,346.3,281.9,372.2,234.4,372.2z"/>
	</g>
</g>
</svg>
