<?xml version="1.0" encoding="utf-8"?>
<!-- Generator: Adobe Illustrator 25.0.1, SVG Export Plug-In . SVG Version: 6.00 Build 0)  -->
<svg version="1.1" fill="#8052FD" id="Layer_1" xmlns="http://www.w3.org/2000/svg" xmlns:xlink="http://www.w3.org/1999/xlink" x="0px" y="0px"
	 viewBox="0 0 474 474" style="enable-background:new 0 0 474 474;" xml:space="preserve">

	
	


<path d="M291.7,196.4l-52.4-16.8c-1.1-0.4-2.4-0.4-3.6,0l-52.4,16.8c-2.4,0.7-4.1,2.9-4.1,5.4v71.4
	c0.1,2.5,1.7,4.7,4.1,5.4l52.4,16.8c0.6,0.2,1.2,0.3,1.8,0.3c0.6,0,1.2-0.1,1.8-0.3l52.4-16.8c2.4-0.7,4.1-2.9,4.1-5.4v-71.4
	C295.7,199.3,294.1,197.1,291.7,196.4z M237.5,191l33.8,10.9l-33.8,10.9l-33.8-10.9L237.5,191z M190.6,209.6l41.2,13.2v59.4
	l-41.2-13.2V209.6z M243.2,282.2v-59.4l41.2-13.2V269L243.2,282.2z"/>
<rect x="232.6" y="135.8" width="11.9" height="11.9"/>
<rect x="269.2" y="143.5" width="11.9" height="11.9"/>
<rect x="300" y="164.5" width="11.9" height="11.9"/>
<rect x="320.4" y="195.8" width="11.9" height="11.9"/>
<rect x="327.4" y="232.5" width="11.9" height="11.9"/>
<rect x="319.7" y="269.1" width="11.9" height="11.9"/>
<rect x="267.4" y="320.4" width="11.9" height="11.9"/>
<rect x="298.7" y="300" width="11.9" height="11.9"/>
<rect x="164.5" y="163.2" width="11.9" height="11.9"/>
<rect x="195.8" y="142.8" width="11.9" height="11.9"/>
<rect x="143.5" y="194.1" width="11.9" height="11.9"/>
<rect x="135.8" y="230.6" width="11.9" height="11.9"/>
<rect x="142.8" y="267.4" width="11.9" height="11.9"/>
<rect x="163.3" y="298.6" width="11.9" height="11.9"/>
<rect x="194.1" y="319.7" width="11.9" height="11.9"/>
<rect x="230.6" y="327.3" width="11.9" height="11.9"/>
<g>
	<g>
		<path d="M404.3,216.4l-20.5-5.8c-1.3-6.8-3.1-13.6-5.4-20.1l14.8-15.1c1.6-1.7,2.1-4.2,1.1-6.3
			c-4.8-10.7-10.7-20.8-17.5-30.3c-1.4-1.9-3.8-2.8-6-2.2l-20.5,5.3c-4.5-5.3-9.5-10.2-14.7-14.7l5.3-20.5c0.6-2.3-0.3-4.6-2.2-6
			c-9.5-6.8-19.6-12.7-30.3-17.5c-2.1-1-4.6-0.5-6.3,1.1L286.9,99c-6.6-2.3-13.3-4.1-20.1-5.4l-5.8-20.5c-0.7-2.5-2.9-4.1-5.5-4.1
			h-33.7c-2.6,0-4.8,1.7-5.5,4.1l-5.8,20.5c-6.8,1.3-13.6,3.1-20.1,5.4l-15.1-14.8c-1.6-1.6-4.2-2.1-6.3-1.1
			c-10.7,4.8-20.8,10.7-30.3,17.5c-1.9,1.4-2.8,3.8-2.2,6l5.3,20.5c-5.3,4.5-10.2,9.5-14.7,14.7l-20.5-5.3c-2.3-0.6-4.6,0.3-6,2.2
			c-6.8,9.5-12.7,19.6-17.5,30.3c-0.9,2.1-0.5,4.6,1.1,6.3l14.8,15.1c-2.3,6.6-4.1,13.3-5.4,20.1l-20.5,5.8
			c-2.5,0.7-4.1,2.9-4.1,5.5v33.8c0,2.6,1.7,4.8,4.1,5.5l20.5,5.8c1.3,6.8,3.1,13.6,5.4,20.1l-14.9,15.1c-1.6,1.7-2.1,4.2-1.1,6.3
			c4.8,10.7,10.7,20.8,17.5,30.3c1.4,1.9,3.8,2.8,6,2.2l20.5-5.3c4.5,5.3,9.5,10.2,14.7,14.7l-5.3,20.5c-0.6,2.3,0.3,4.6,2.2,6
			c9.5,6.8,19.6,12.7,30.3,17.5c2.1,0.9,4.6,0.5,6.3-1.1l15.1-14.8c6.6,2.3,13.3,4.1,20.1,5.4l5.8,20.5c0.7,2.5,2.9,4.1,5.5,4.1
			h33.8c2.6,0,4.8-1.7,5.5-4.1l5.8-20.5c6.8-1.3,13.6-3.1,20.1-5.4l15.1,14.8c1.7,1.6,4.2,2.1,6.3,1.1c10.7-4.8,20.8-10.7,30.3-17.5
			c1.9-1.4,2.8-3.8,2.2-6l-5.3-20.5c5.3-4.5,10.2-9.5,14.7-14.7l20.5,5.3c2.3,0.6,4.6-0.3,6-2.2c6.8-9.5,12.7-19.6,17.5-30.3
			c0.9-2.1,0.5-4.6-1.1-6.3L378.6,287c2.3-6.6,4.1-13.3,5.4-20.1l20.5-5.8c2.5-0.7,4.1-2.9,4.1-5.5v-33.8
			C408.5,219.3,406.8,217,404.3,216.4z M397.2,251.4l-19.8,5.5c-2.1,0.6-3.7,2.3-4.1,4.5c-1.4,8.5-3.6,16.9-6.7,25
			c-0.8,2.1-0.3,4.4,1.3,6l14.6,14.9c-3.6,7.5-7.7,14.7-12.5,21.6l-20.2-5.2c-2.1-0.6-4.4,0.2-5.8,1.9c-5.5,6.7-11.7,12.8-18.3,18.3
			c-1.7,1.4-2.4,3.7-1.9,5.8l5.2,20.2c-6.9,4.7-14.1,8.9-21.6,12.5L292.5,368c-1.6-1.6-3.9-2.1-6-1.3c-8.1,3-16.5,5.3-25,6.7
			c-2.2,0.4-3.9,1.9-4.5,4.1l-5.5,19.8h-25.2l-5.5-19.8c-0.6-2.1-2.3-3.7-4.5-4.1c-8.5-1.4-16.9-3.6-25-6.7c-2.1-0.8-4.4-0.3-6,1.3
			l-14.9,14.6c-7.5-3.6-14.7-7.7-21.6-12.5l5.2-20.2c0.6-2.1-0.2-4.4-1.9-5.8c-6.7-5.5-12.8-11.7-18.3-18.3
			c-1.4-1.7-3.7-2.4-5.8-1.9l-20.2,5.2c-4.7-6.9-8.9-14.1-12.5-21.6l14.6-14.9c1.6-1.6,2.1-3.9,1.3-6c-3-8.1-5.3-16.5-6.7-25
			c-0.4-2.2-1.9-3.9-4.1-4.5l-19.6-5.6v-25.2l19.8-5.5c2.1-0.6,3.7-2.3,4.1-4.5c1.4-8.5,3.6-16.9,6.7-25c0.8-2.1,0.3-4.4-1.3-6
			l-14.6-14.9c3.6-7.5,7.7-14.7,12.5-21.6l20.2,5.2c2.1,0.6,4.4-0.2,5.8-1.9c5.5-6.7,11.7-12.8,18.3-18.3c1.7-1.4,2.4-3.7,1.9-5.8
			l-5.2-20.2c6.9-4.7,14.1-8.9,21.6-12.5l14.9,14.6c1.6,1.6,3.9,2.1,6,1.3c8.1-3,16.5-5.3,25-6.7c2.2-0.4,3.9-1.9,4.5-4.1l5.5-19.6
			h25.2l5.5,19.8c0.6,2.1,2.3,3.7,4.5,4.1c8.5,1.4,16.9,3.6,25,6.7c2.1,0.8,4.4,0.3,6-1.3l14.9-14.6c7.5,3.6,14.7,7.7,21.6,12.5
			l-5.2,20.2c-0.6,2.1,0.2,4.4,1.9,5.8c6.7,5.5,12.8,11.7,18.3,18.3c1.4,1.7,3.7,2.4,5.8,1.9l20.2-5.2c4.7,6.9,8.9,14.1,12.5,21.6
			L368,185.1c-1.6,1.6-2.1,3.9-1.3,6c3,8.1,5.3,16.5,6.7,25c0.4,2.2,1.9,3.9,4.1,4.5l19.8,5.5L397.2,251.4L397.2,251.4z"/>
	</g>
</g>
</svg>
