<?xml version="1.0" encoding="utf-8"?>
<!-- Generator: Adobe Illustrator 25.0.1, SVG Export Plug-In . SVG Version: 6.00 Build 0)  -->
<svg version="1.1" fill="#8052FD" id="Layer_1" xmlns="http://www.w3.org/2000/svg" xmlns:xlink="http://www.w3.org/1999/xlink" x="0px" y="0px"
	 viewBox="0 0 489.4 489.4" style="enable-background:new 0 0 489.4 489.4;" xml:space="preserve">

	
	


<path d="M147.7,265.4c5.7,0,8.7,1.5,9.8,2.2l0.2,0.1l8.6,10.6v-50.4h15.4l0.9-3.9c6.8-27.1,2.9-43.9-3-69.1l0,0
	c-1.8-8-3.5-15.8-5.2-23.8c-4.4-22.1,1.2-36.3,6.9-44.6l-8.1-5.9c-7,9.9-13.9,26.7-8.7,52.5c1.6,8.1,3.3,15.3,4.8,21.7l0.5,2.5
	c5.2,22.7,8.7,37.7,4.1,59.6l-0.2,0.9h-14l0.3-1.4c1.3-5.7,2-11.5,2.2-17.1l-10-0.2c-0.2,7.4-1.5,14.7-3.9,21.9l-2.6,6.9h10.6v28.4
	l-1.4-0.3c-5.2-1.1-11.8-0.8-18.9,0.7l-1.6,0.3l15.3-106.4l-9.9-1.5L122,271.5l7.7-2.5C137.5,266.3,143.4,265.4,147.7,265.4z
	 M92,293.9h14.6v72.4c0.1,37.4,30.6,67.9,68,68h21c23.5,0,45-11.9,57.6-31.7c12.5-19.4,14.1-43.5,4.2-64.4c-0.2-0.4-0.3-0.7-0.5-1
	s-0.3-0.7-0.5-1c-7.1-14.1-8.1-36.8-2.7-60.6c5.2-22.8,15.1-41.4,25.7-48.6c5.8-3.9,15.1-11.4,12.9-18.7c-2.2-6.9-12-6.9-15.7-6.9
	c-14.9,0-26.9,5.5-34.4,10.2l-1.8,1.1v-16.7l1.2,0.1c4.9,0.3,9.7,0.4,14.1,0.2c9.6-0.5,17.4-8.2,17.6-17.5
	c0.3-9.9-7.6-18.2-17.5-18.5h-19.5l-0.3-0.2c-2.4-1.5-3.9-4.2-3.9-7.1c0-4.1,3.2-7.3,7.2-7.4c1.8,0,3.6,0.7,5,1.9
	c4.3,4.1,9.9,6.2,15.7,6.2c9.6,0,18-6.5,20.7-15.6l0.2-0.8h6.9l1.4-2.8c9.7-19.6-0.5-30.1-0.9-30.6l-1-1l-30.8-7.6l-0.2-0.8
	c-1.6-10.1-8.2-18.4-17.6-22.4l-0.2-0.1l-16.6-9.7l-0.2-0.2c-3.7-4.2-13.9-13.9-16.2-16.1l-3.6-3.5l-3.5,3.7
	c-1.6,1.9-2.9,3.9-3.8,5.9l-0.3,0.6h-0.7c-11.3,0.5-22,3-32.2,7.5l-0.5,0.2l-21.7-10.8v21.9l-0.5,0.3
	c-30.1,20.4-32.4,63.9-32.4,76.8c0,10.6-10.3,29.8-15.7,38.6l-4.9,7.7h19.4l-0.5,1.5c-2.7,7.9-8.6,21.3-14.3,32.5l-3.6,7.3h19.3
	l-0.2,1.3c-1.9,13.3-9.9,24.7-21.5,30.4l-4.5,2.3L92,293.9z M195.6,424.1h-21c-31.9,0-57.9-26-57.9-57.9v-82.4H98.3l-4.7-9.4
	l0.8-0.5c13.9-9.3,22.3-25.3,22.3-42.8v-5h-13.6l0.8-1.6c8.2-17.3,12.7-29.6,12.7-34.6v-5h-12.7l0.9-1.7
	c4.4-8.2,11.8-23.5,11.8-34.5c0-22.2,4.9-40.6,14.6-54.6c7.1-10.2,14.3-14.4,15.6-15.2l2.8-1.4V65.9l11.5,5.8l2.2-1.2
	c8.2-3.9,16.8-6.4,25.7-7.3l1.7-0.2l-0.5,1.6c-0.9,3.4-1.2,7.1-1,10.8l0.1,0.2c0.1,0.5,0.2,1.3,0.6,3.8
	c11.3,63.2,15.9,113.1,13.1,140.6c-1.4,13.6-3.9,23.1-7.6,28.1l-0.8,1.1L182,236.6l-7.2,7.1l18.3,18.3l3.2-1.6
	c9.1-4.5,14.4-17,16.7-39.3c0.8-9.9,1.1-20,0.7-29.9l-0.1-1.8l1.7,0.7c4.5,1.9,9.2,3.4,14.1,4.3l0.9,0.2v26.4l-0.3,0.3
	c-12,14-19.7,43.2-22.9,65.7l-0.2,1.8l-1.5-1.1c-9.8-6.9-23.5-8.2-37.5-3.5l-0.2,0.1l-0.4,0.2c-7.7,3.9-12.1,8.6-12.9,13.9
	c-0.4,2.2-0.2,4.4,0.7,6.4l0.4,0.9l-0.8,0.5c-1.8,1.1-3.5,2.5-5.1,4c-4.8,4.7-6.3,10.5-4.3,16.4l0.2,0.7l-0.5,0.5
	c-5.8,5.6-7.5,14.7-5.2,27.1l9.9-2c-1.2-6.6-1.5-14.6,2.9-18.3c3.7-3,9.7-2.9,14.1-2.1l1.5,0.2l-0.6,1.4
	c-6.9,14.9-0.5,32.7,14.3,39.6c14.9,6.9,32.7,0.5,39.6-14.3c7-14.9,0.6-32.7-14.3-39.6c-3.2-1.5-6.8-2.5-10.2-2.8h-0.4l-0.3-0.2
	c-7.6-7-19.9-14.3-31.3-13.6l-3,0.2l2.5-2.5c-0.1-0.2-0.1-0.4-0.1-0.6v-0.2c0.2-1.4,2.2-3.8,7.1-6.3l0.2-0.1
	c15.5-5,24.9,0.1,28.1,2.5c3.2,2.2,5.4,5.4,5.9,8.2h10.2c0.3-22.3,10.2-64.7,23.3-77.8c0.2-0.2,15.3-15,37.8-15c1.1,0,2.1,0,2.9,0.1
	l2.4,0.2l-1.7,1.7c-1.9,1.9-4.1,3.6-6.3,5.2c-12.9,8.6-24.1,29.1-30,54.6c-5.9,26-4.5,51.2,3.5,67.4c0.2,0.2,0.3,0.5,0.5,0.8
	c0.2,0.2,0.2,0.5,0.4,0.8l0.1,0.1c8.3,17.7,6.9,38.2-3.6,54.7C234.2,414,215.7,424.1,195.6,424.1z M194.2,366.4
	c-10.9,0-19.7-8.9-19.7-19.7s8.9-19.7,19.7-19.7s19.7,8.9,19.7,19.7S205,366.4,194.2,366.4z M174.9,323.9l-0.5-0.2
	c-6.9-1.8-13.4-2.4-18.6-1.5l-1.6,0.3l0.3-1.6c0.3-1.5,1.1-2.8,2.2-3.8c5.8-5.7,14.2-5.5,24.4,0.8l1.8,1.1l-1.8,0.9
	c-1.8,1-3.7,2.2-5.5,3.5L174.9,323.9z M250,186.2c-10.5,0-25.3-1.4-35.6-8.1l-1.2,1.2l-0.2-2.5c-1.8-26.6-6.2-59.9-13.2-99
	c-0.2-1.3-0.5-2.5-0.5-3.1l-0.1-0.3c-0.5-5.2,2.3-12.4,3.5-15.3l0.7-1.5l1.2,1.2c4.4,4.2,8.9,8.9,10.4,10.6l0.6,0.7l18.6,10.9
	l0.4,0.2c5.2,2.1,9.2,6.2,11,11.4l0.5,1.5h-18v10.1h23l30.7,7.7l0.2,0.5c1.1,2.1,2.5,6.6-0.2,14l-0.3,0.8h-10v5
	c0,6.4-5.2,11.6-11.5,11.6c-0.8,0-1.6-0.1-2.4-0.2l-0.8-0.2l-0.1-0.8c-1.2-15-10.1-22.7-27.1-23.4h-0.5l-6-6l-7.2,7.2l8.9,8.9h2.1
	c8.6,0,13.4,1.5,16.3,4.8l2.2,2.5l-3.2-0.5c-9.4-1.6-18.4,4.7-20.1,14.1c-0.2,1-0.3,2-0.3,3c0,7.6,4.9,14.7,11.6,17.1l0.8,0.3h20.9
	c4.4,0,7.9,3.5,7.9,7.9v0.2c-0.3,4.4-3.7,7.7-8,7.8C253.8,186.1,252,186.2,250,186.2z M302.6,161.9c3,0,6.2,0.2,9.8,0.3l0.6-10
	c-3.5-0.2-6.9-0.4-10.4-0.4V161.9z M372.8,176.4c3,1.4,5.9,2.8,8.6,4.2l4.9-8.9c-2.9-1.5-6.1-3.2-9.4-4.6L372.8,176.4z M326.7,163.5
	c2.9,0.4,6.1,0.9,9.6,1.5l1.9-9.9c-3-0.5-6.2-1.1-10.2-1.6L326.7,163.5z M350.2,168.3c3.5,1,6.6,1.9,9.3,2.9l3.4-9.5
	c-3.5-1.2-6.9-2.3-10-3.2L350.2,168.3z M393.5,188.1c2.4,1.7,5.1,3.6,7.7,5.7l6.4-7.8c-3.1-2.4-5.8-4.5-8.5-6.2L393.5,188.1z
	 M437.1,243c1.2,3.3,2.2,6.3,3,9.1l9.7-2.7c-0.9-3.3-2.1-6.7-3.3-10L437.1,243z M426.6,221.8c1.6,2.5,3.2,5.2,4.8,8.2l8.9-4.5
	c-1.8-3.3-3.5-6.4-5.3-9.2L426.6,221.8z M411.7,203.4c2.2,2.2,4.3,4.5,6.4,7.1l7.9-6.3c-2.2-2.7-4.5-5.4-7.1-7.9L411.7,203.4z
	 M443.2,265.9c0.5,3,0.9,6.1,1.2,9.6l10-0.8c-0.3-3.5-0.8-7.1-1.3-10.5L443.2,265.9z M386.5,275.9c0.2,2.8,0.5,6.1,0.6,9.6l10.1-0.2
	c0-3.7-0.2-7.2-0.6-10.6L386.5,275.9z M372.1,231.2c1.6,2.7,3.1,5.5,4.5,8.3l9.2-4.2c-1.6-3.5-3.3-6.6-5-9.4L372.1,231.2z
	 M294.4,186.6c3.2,0,6.3,0.2,9.5,0.5l1.2-10c-3.4-0.4-6.9-0.6-10.6-0.6V186.6z M339.3,198.5c2.5,1.4,5.1,3.1,7.9,5.1l6-8.1
	c-3.1-2.2-6.1-4.1-9-5.8L339.3,198.5z M317.6,189.7c3.1,0.8,6,1.8,8.9,2.9l3.7-9.4c-3.5-1.3-6.9-2.5-10.2-3.2L317.6,189.7z
	 M357.8,212.7c2.3,2.3,4.4,4.6,6.3,6.9l7.9-6.2c-2.4-2.9-4.7-5.5-7.2-7.9L357.8,212.7z M381.9,252.7c0.9,2.9,1.8,5.9,2.5,9.2
	l9.9-2.2c-0.8-3.4-1.8-6.8-2.9-10.2L381.9,252.7z"/>
</svg>
