<?xml version="1.0" encoding="utf-8"?>
<!-- Generator: Adobe Illustrator 26.3.1, SVG Export Plug-In . SVG Version: 6.00 Build 0)  -->
<svg version="1.1" id="Capa_1" xmlns="http://www.w3.org/2000/svg" xmlns:xlink="http://www.w3.org/1999/xlink" x="0px" y="0px"
	 viewBox="0 0 512 512" style="enable-background:new 0 0 512 512;" xml:space="preserve" fill="#8052FD">
<g>
	
			<path d="M384.2,128.9c-34.1-34.1-79.3-52.8-127.4-52.8s-93.4,18.7-127.4,52.8C95.3,163,76.6,208.2,76.6,256.3
				s18.7,93.4,52.8,127.4s79.3,52.8,127.4,52.8s93.4-18.7,127.4-52.8S437,304.4,437,256.3S418.3,162.9,384.2,128.9z M256.8,421.8
				c-91.2,0-165.5-74.3-165.5-165.5S165.6,90.8,256.8,90.8s165.5,74.3,165.5,165.5S348.1,421.8,256.8,421.8z"/>
		
	
			<path d="M342.9,198.5c-4.2-4.2-10.8-4.2-14.9,0l-93.2,93.2l-49.1-49.1c-4.2-4.2-10.8-4.2-14.9,0s-4.2,10.8,0,14.9
				l56.5,56.5c2,2,4.8,3.1,7.5,3.1c2.7,0,5.4-1.1,7.5-3.1L343,213.4C347,209.3,347,202.6,342.9,198.5z"/>
		
</g>
</svg>
