<?xml version="1.0" encoding="utf-8"?>
<!-- Generator: Adobe Illustrator 25.0.1, SVG Export Plug-In . SVG Version: 6.00 Build 0)  -->
<svg version="1.1" fill="#8052FD" id="Capa_1" xmlns="http://www.w3.org/2000/svg" xmlns:xlink="http://www.w3.org/1999/xlink" x="0px" y="0px"
	 viewBox="0 0 512 512" style="enable-background:new 0 0 512 512;" xml:space="preserve">

	
	


<path d="M410.4,322.8H103V153.6l0,0h307.3V322.8z M103,333.2h307.3v10.4H295.7c-1.1,0-2.1,0.3-3,1l-5.5,3.9H226
	l-5.5-3.9c-0.9-0.6-1.9-1-3-1h-46h-5.5H103V333.2z M421.3,353.9v8.6c0.1,4.8-3.7,8.6-8.5,8.6H100.6c-4.8,0-8.6-3.9-8.6-8.6v-8.6
	h74.1h5.5h44.3l5.5,3.9c0.9,0.6,1.9,1,3,1h64.5c1.1,0,2.1-0.3,3-1l5.5-3.9H421.3z M103,143.2v-1.7c0-4.8,3.9-8.6,8.6-8.6h289.8
	c4.8,0,8.6,3.9,8.6,8.6v1.7H103z M111.7,122.5c-10.5,0-19,8.5-19,19v202h-5.9c-2.8,0-5.2,2.3-5.2,5.2v13.8c0,10.5,8.5,19,19,19
	h312.2c10.5,0,19-8.5,19-19v-13.8c0-2.8-2.3-5.2-5.2-5.2h-5.9v-202c0-10.5-8.5-19-19-19H111.7z"/>
<path d="M221.9,171.8l-16.1,16.1c-1.9,1.9-1.9,5,0,6.8l16.1,16.1l6.8-6.8l-12.6-12.6l12.6-12.6L221.9,171.8z M289.2,204
	l6.8,6.8l16.1-16.1c1.9-1.9,1.9-5,0-6.8l-16.1-16.1l-6.8,6.8l12.6,12.6L289.2,204z M243.7,216.5l9,3.6l21.6-53.9l-9-3.6L243.7,216.5
	z M215.5,240.3h31.8v-9.7h-31.8V240.3z M204.4,262.4h20.7v-9.7h-20.7V262.4z M237.6,262.4h20.7v-9.7h-20.7V262.4z M182.3,284.5h64.9
	v-9.7h-64.9V284.5z M193.4,240.3h9.7v-9.7h-9.7V240.3z M198.9,306.6h64.9V297h-64.9V306.6z M276.2,306.6h9.7V297h-9.7V306.6z
	 M270.7,262.4h20.7v-9.7h-20.7V262.4z M259.7,284.5h20.7v-9.7h-20.7V284.5z M292.8,284.5h20.7v-9.7h-20.7V284.5z M259.7,240.3h42.8
	v-9.7h-42.8V240.3z M298.3,306.6h31.8V297h-31.8V306.6z"/>
</svg>
