<?xml version="1.0" encoding="utf-8"?>
<!-- Generator: Adobe Illustrator 25.0.1, SVG Export Plug-In . SVG Version: 6.00 Build 0)  -->
<svg version="1.1" fill="#8052FD" id="Capa_1" xmlns="http://www.w3.org/2000/svg" xmlns:xlink="http://www.w3.org/1999/xlink" x="0px" y="0px"
	 viewBox="0 0 512 512" style="enable-background:new 0 0 512 512;" xml:space="preserve">

	
	


<g>
	<g>
		<g>
			<path d="M360.3,137.9c-27.8-24.1-63.3-37.5-100.1-37.5C176,100.4,107.9,168.7,108,252.8
				c0.1,84.1,68.4,152.2,152.4,152.2c11.6,0,23.1-1.3,34.3-4l-2.6-11c-75.8,17.8-151.7-29.4-169.5-105.2
				C105,208.9,152.1,133,228,115.3s151.8,29.4,169.5,105.2c10.3,44.2-1.2,90.6-31,124.8l8.5,7.4
				C430.3,289.4,423.7,193.2,360.3,137.9z"/>
		</g>
	</g>
	<g>
		<g>
			<path d="M260.2,128.6c-68.6,0-124.1,55.6-124.1,124.1s55.6,124.1,124.1,124.1c68.5-0.1,124-55.6,124.1-124.1
				C384.3,184.1,328.7,128.6,260.2,128.6z M260.2,365.5c-62.3,0-112.8-50.5-112.8-112.8s50.5-112.8,112.8-112.8S373,190.3,373,252.7
				C372.9,315,322.4,365.5,260.2,365.5z"/>
		</g>
	</g>
	<g>
		<g>
			<path d="M309.1,211.7l11.4-11.4l-7.9-8l-11.9,11.9c-29.8-22.4-72.2-16.5-94.6,13.4c-8.9,11.8-13.6,26-13.6,40.8h11.3
				c-0.1-31.1,25.1-56.4,56.3-56.4c11.7,0,23.1,3.6,32.6,10.3l-21.1,21.1c-3.4-2-7.4-3.2-11.4-3.2c-12.5,0-22.5,10.1-22.5,22.5
				s10.1,22.5,22.5,22.5s22.5-10.1,22.5-22.5c0-4-1.1-7.9-3.2-11.4l21.6-21.6c9.9,10.4,15.4,24.3,15.4,38.7h11.3
				C327.9,241,321.1,224.3,309.1,211.7z M260.2,264c-6.2,0-11.3-5-11.3-11.3c0-6.2,5-11.3,11.3-11.3c6.2,0,11.3,5,11.3,11.3
				C271.4,258.9,266.4,264,260.2,264z"/>
		</g>
	</g>
	<g>
		<g>
			<rect x="254.5" y="156.8" width="11.3" height="11.3"/>
		</g>
	</g>
	<g>
		<g>
			
				<rect x="209.4" y="168.8" transform="matrix(0.8661 -0.4999 0.4999 0.8661 -58.4338 130.8699)" width="11.3" height="11.3"/>
		</g>
	</g>
	<g>
		<g>
			
				<rect x="176.4" y="201.9" transform="matrix(0.4999 -0.8661 0.8661 0.4999 -88.7159 261.4423)" width="11.3" height="11.3"/>
		</g>
	</g>
	<g>
		<g>
			<rect x="164.3" y="247.1" width="11.3" height="11.3"/>
		</g>
	</g>
	<g>
		<g>
			<rect x="344.8" y="247.1" width="11.3" height="11.3"/>
		</g>
	</g>
	<g>
		<g>
			
				<rect x="332.7" y="201.9" transform="matrix(0.8661 -0.4999 0.4999 0.8661 -58.4475 196.9334)" width="11.3" height="11.3"/>
		</g>
	</g>
	<g>
		<g>
			
				<rect x="299.6" y="168.8" transform="matrix(0.4999 -0.8661 0.8661 0.4999 1.538 351.6651)" width="11.3" height="11.3"/>
		</g>
	</g>
	<g>
		<g>
			<path d="M242.2,309.1c-2.4-6.7-8.7-11.2-15.9-11.3c-9.3-0.1-16.9,7.5-17,16.9s7.5,16.9,16.9,17
				c7.2,0,13.6-4.5,16-11.3h34.9v11.3h11.3v-11.3h11.3v11.3H311v-22.5H242.2L242.2,309.1z M226.3,320.4c-3.1,0-5.6-2.5-5.6-5.6
				c0-3.1,2.5-5.6,5.6-5.6s5.6,2.5,5.6,5.6C231.9,317.9,229.4,320.4,226.3,320.4z"/>
		</g>
	</g>
	<g>
		<g>
			<path d="M401.2,359.8h-67.7c-3.1,0-5.6,2.5-5.6,5.6v67.7c0,3.1,2.5,5.6,5.6,5.6h67.7c3.1,0,5.6-2.5,5.6-5.6v-67.6
				C406.8,362.4,404.3,359.8,401.2,359.8z M395.6,427.5h-56.4v-56.4h56.4L395.6,427.5L395.6,427.5z"/>
		</g>
	</g>
	<g>
		<g>
			<path d="M373,393.7V405h-11.3v-11.3H373v-11.3H356c-3.1,0-5.6,2.5-5.6,5.6v22.5c0,3.1,2.5,5.6,5.6,5.6h22.5
				c3.1,0,5.6-2.5,5.6-5.6v-16.9L373,393.7L373,393.7z"/>
		</g>
	</g>
	<g>
		<g>
			<rect x="418.1" y="371.1" width="11.3" height="11.3"/>
		</g>
	</g>
	<g>
		<g>
			<rect x="418.1" y="393.7" width="11.3" height="11.3"/>
		</g>
	</g>
	<g>
		<g>
			<rect x="418.1" y="416.3" width="11.3" height="11.3"/>
		</g>
	</g>
	<g>
		<g>
			<rect x="305.3" y="371.1" width="11.3" height="11.3"/>
		</g>
	</g>
	<g>
		<g>
			<rect x="305.3" y="393.7" width="11.3" height="11.3"/>
		</g>
	</g>
	<g>
		<g>
			<rect x="305.3" y="416.3" width="11.3" height="11.3"/>
		</g>
	</g>
</g>
</svg>
