<?xml version="1.0" encoding="utf-8"?>
<!-- Generator: Adobe Illustrator 25.0.1, SVG Export Plug-In . SVG Version: 6.00 Build 0)  -->
<svg version="1.1" fill="#8052FD" id="Layer_1" xmlns="http://www.w3.org/2000/svg" xmlns:xlink="http://www.w3.org/1999/xlink" x="0px" y="0px"
	 viewBox="0 0 512 512" style="enable-background:new 0 0 512 512;" xml:space="preserve">

	
	


<path d="M458.9,385.1h-21.6C430,290.3,351,217.2,256,217.2S81.9,290.3,74.7,385.1H53.1c-3.9,0-7,3.1-7,7
	c0,3.9,3.1,7,7,7h405.8c3.9,0,7-3.1,7-7C465.8,388.2,462.8,385.1,458.9,385.1z M119.2,371.1h17.9c3.9,0,7-3.1,7-7c0-3.9-3.1-7-7-7
	h-14.3c3.6-11.6,8.8-22.6,15.2-33l16.2,10.7c3.2,2.1,7.5,1.3,9.7-2c2.1-3.2,1.3-7.5-2-9.7l-15.7-10.5c6.1-7.8,13-14.9,20.6-21.2
	c0.1,0.2,0.2,0.4,0.4,0.6l14,14c2.7,2.6,7.1,2.6,9.8-0.1c2.7-2.7,2.7-7.1,0.1-9.8l-13.1-13.1c9.2-6.1,19.1-11.2,29.4-15.1
	c0,0.1,0,0.2,0.1,0.4l7,21c1.2,3.7,5.2,5.7,8.9,4.4c3.7-1.2,5.7-5.2,4.4-8.9l-7-21c0-0.1-0.1-0.1-0.1-0.1c9.3-2.4,18.8-3.9,28.4-4.3
	v20.7c0,3.9,3.1,7,7,7s7-3.1,7-7v-20.7c9.6,0.5,19.1,1.9,28.4,4.3c0,0.1-0.1,0.1-0.1,0.1l-7,21c-1.2,3.7,0.7,7.6,4.4,8.9
	c3.7,1.2,7.6-0.7,8.9-4.4l7-21c0-0.1,0-0.2,0-0.4c10.4,3.9,20.3,8.9,29.4,15.1l-13.1,13.1c-1.8,1.7-2.5,4.3-1.9,6.8
	c0.7,2.5,2.5,4.3,5,5c2.5,0.7,5.1-0.1,6.8-1.9l14-14c0.2-0.2,0.2-0.4,0.4-0.6c7.6,6.3,14.5,13.4,20.6,21.2l-15.8,10.6
	c-3.2,2.1-4.1,6.5-2,9.7c2.1,3.2,6.5,4.1,9.7,2l16.2-10.7c6.5,10.2,11.6,21.3,15.2,33h-14.3c-3.9,0-7,3.1-7,7c0,3.9,3.1,7,7,7h17.9
	c0.9,4.6,1.6,9.3,2.1,14h-72.1c-3.9-12.7-11.5-24-21.6-32.6l23.1-25.7c2.5-2.9,2.2-7.2-0.6-9.8c-2.8-2.5-7.2-2.4-9.8,0.4l-24.4,27.1
	c-18.4-9.9-40.3-11.2-59.6-3.3c-19.3,7.9-34.2,23.9-40.5,43.9h-72.2C117.6,380.4,118.3,375.8,119.2,371.1z M256,350.1
	c8.2,0,16.2,1.8,23.7,5.2L253,385.1h-48.8C212.6,363.9,233.2,350,256,350.1z M271.7,385.1l19.9-22.1c7.2,5.9,12.8,13.5,16.2,22.1
	H271.7z M409.1,385.1c-7.1-79.2-73.5-139.9-153.1-139.9s-145.9,60.7-153.1,139.9H88.7C96,298.2,168.8,231.5,256,231.5
	s159.9,66.7,167.3,153.6H409.1z"/>
<path d="M395.9,413.1H116c-3.9,0-7,3.1-7,7c0,3.9,3.1,7,7,7h279.8c3.9,0,7-3.1,7-7C402.8,416.2,399.8,413.1,395.9,413.1
	z"/>
<path d="M430.9,413.1h-7c-3.9,0-7,3.1-7,7c0,3.9,3.1,7,7,7h7c3.9,0,7-3.1,7-7C437.8,416.2,434.7,413.1,430.9,413.1z"/>
<path d="M88.1,413.1h-7c-3.9,0-7,3.1-7,7c0,3.9,3.1,7,7,7h7c3.9,0,7-3.1,7-7C95.1,416.2,91.9,413.1,88.1,413.1z"/>
<path d="M263,98.2c0-3.9-3.1-7-7-7s-7,3.1-7,7v63c0,3.9,3.1,7,7,7s7-3.1,7-7V98.2z"/>
<path d="M256,182.2c-3.9,0-7,3.1-7,7v7c0,3.9,3.1,7,7,7s7-3.1,7-7v-7C263,185.4,259.8,182.2,256,182.2z"/>
<path d="M147.3,113.3c-3.3,2-4.3,6.4-2.1,9.7l48.9,77c2,3.3,6.4,4.3,9.7,2.1c3.3-2,4.2-6.4,2.1-9.7l-48.9-77
	C154.9,112.3,150.6,111.3,147.3,113.3z"/>
<path d="M355,115.5l-48.9,77c-2,3.3-1.1,7.6,2.1,9.7s7.6,1.1,9.7-2.1l48.9-77c2-3.3,1.1-7.6-2.1-9.7
	C361.4,111.3,357.1,112.3,355,115.5z"/>
</svg>
