<?xml version="1.0" encoding="utf-8"?>
<!-- Generator: Adobe Illustrator 25.0.1, SVG Export Plug-In . SVG Version: 6.00 Build 0)  -->
<svg version="1.1" fill="#8052FD" id="Layer_1" xmlns="http://www.w3.org/2000/svg" xmlns:xlink="http://www.w3.org/1999/xlink" x="0px" y="0px"
	 viewBox="0 0 512 512" style="enable-background:new 0 0 512 512;" xml:space="preserve">

	
	


<g>
	<path d="M423.2,171.9h-83.1c-2.8-2.6-5.6-5.1-8.7-7.5c0.1-2.1,0.2-4.1,0.2-6.1c0-56.4-66.8-100.5-69.7-102.4
		c-2-1.3-4.6-1.3-6.6,0c-2.8,1.9-69.6,46-69.6,102.4c0,2.1,0.1,4.1,0.2,6.1c-3.1,2.4-5.9,4.8-8.7,7.5H89.1
		c-6.7,0-12.2,5.4-12.2,12.2v206.7c0,6.7,5.4,12.2,12.2,12.2h334.1c6.7,0,12.2-5.4,12.2-12.2V184.1
		C435.4,177.4,429.9,171.9,423.2,171.9z M354.8,234.8c-17.1,5-34.8,7.2-52.7,6.6c15.5-17.3,25.3-39,28-62.1c1.1,1,2.2,2,3.2,3.1
		C342.5,191.7,351,219.7,354.8,234.8z M258.7,68.5c13.1,9.4,60.8,46.7,60.8,89.8c0,2.4-0.1,4.8-0.2,7.3
		c-1.5,29.7-13.1,56.6-30.4,71.5c-5.3-15.5-16.7-25.9-30.2-25.9c-13.5,0-24.9,10.5-30.2,25.9c-17.3-15-28.9-41.8-30.4-71.7
		c-0.1-2.4-0.2-4.8-0.2-7.2C197.8,115.2,245.5,77.9,258.7,68.5z M279.9,257.1c0,14.2-14.6,27.1-21.3,32.3
		c-6.7-5.2-21.3-18.1-21.3-32.3c0-18.2,9.8-33.7,21.3-33.7C270.1,223.4,279.9,238.8,279.9,257.1z M187.2,179.3
		c2.7,23.1,12.5,44.8,28,62.1c-17.8,0.6-35.6-1.6-52.7-6.6c3.8-15.1,12.3-43.1,21.4-52.5C185,181.2,186.2,180.3,187.2,179.3z
		 M423.2,390.8H89.1V184.1h78.8c-8.3,17-14.5,34.9-18.6,53.4c-0.6,2.9,0.9,5.9,3.8,7c17.9,6.1,36.7,9.2,55.6,9.2
		c5.6,0,11.1-0.4,16.6-0.9c-0.1,1.4-0.1,2.8-0.1,4.3c0,25,28.9,44.1,30.1,44.9c2,1.3,4.6,1.3,6.6,0c1.2-0.8,30.1-19.9,30.1-44.9
		c0-1.5-0.1-2.9-0.1-4.3c5.5,0.6,11,0.9,16.6,0.9c18.9,0.1,37.7-3.1,55.6-9.2c2.8-1.1,4.4-4.1,3.8-7c-4.1-18.5-10.3-36.4-18.6-53.4
		H423v206.7H423.2z"/>
	<path d="M107.7,359.4h66.9v12.2h-66.9V359.4z"/>
	<path d="M180.7,359.4h48.7v12.2h-48.7V359.4z"/>
	<path d="M343.7,269.3c-30.2,0-54.7,24.5-54.7,54.7s24.5,54.7,54.7,54.7c30.2,0,54.7-24.5,54.7-54.7
		C398.5,293.8,374,269.3,343.7,269.3z M385.9,317.9h-36v-36C368.5,284.6,383.1,299.3,385.9,317.9z M343.7,366.5
		c-22.2-0.1-40.5-17.4-42.1-39.5c-1.6-22.2,14.1-41.8,36.1-45.1v42c0,3.3,2.7,6.1,6.1,6.1h42C382.8,350.9,364.9,366.5,343.7,366.5z"
		/>
	<path d="M258.7,184.1c20.2,0,36.5-16.3,36.5-36.5v-12.2c0-20.2-30.5-34.4-34-36c-1.6-0.7-3.3-0.7-5,0
		c-3.5,1.6-34,15.8-34,36v12.2C222.2,167.8,238.5,184.1,258.7,184.1z M234.3,135.5c0-8.6,14-18.5,24.3-23.7
		c10.3,5.1,24.3,15,24.3,23.7v12.2c0,13.5-10.9,24.3-24.3,24.3c-13.4,0-24.3-10.9-24.3-24.3V135.5z"/>
	<path d="M113.8,252c-3.3,0-6.1,2.7-6.1,6.1v85.1c0,3.3,2.7,6.1,6.1,6.1h18.2c3.3,0,6.1-2.7,6.1-6.1v-85.1
		c0-3.3-2.7-6.1-6.1-6.1L113.8,252L113.8,252z M125.9,337.2h-6.1v-73h6.1V337.2z"/>
	<path d="M157.4,349.4h18.2c3.3,0,6.1-2.7,6.1-6.1v-48.7c0-3.3-2.7-6.1-6.1-6.1h-18.2c-3.3,0-6.1,2.7-6.1,6.1v48.7
		C151.3,346.6,154,349.4,157.4,349.4z M163.5,300.7h6.1v36.5h-6.1C163.5,337.2,163.5,300.7,163.5,300.7z"/>
	<path d="M201,349.4h18.2c3.3,0,6.1-2.7,6.1-6.1v-36.5c0-3.3-2.7-6.1-6.1-6.1H201c-3.3,0-6.1,2.7-6.1,6.1v36.5
		C194.9,346.6,197.7,349.4,201,349.4z M207.1,312.9h6.1v24.3h-6.1V312.9z"/>
</g>
</svg>
