<?xml version="1.0" encoding="utf-8"?>
<!-- Generator: Adobe Illustrator 25.0.1, SVG Export Plug-In . SVG Version: 6.00 Build 0)  -->
<svg version="1.1" fill="#8052FD" id="Capa_1" xmlns="http://www.w3.org/2000/svg" xmlns:xlink="http://www.w3.org/1999/xlink" x="0px" y="0px"
	 viewBox="0 0 512 512" style="enable-background:new 0 0 512 512;" xml:space="preserve">

	
	


<g>
	<g>
		<g>
			<path d="M399.3,230.1c-2.8-7.8-10.2-13-18.5-13s-15.7,5.3-18.4,13.1h-40.5v-26.2h26.2c3.6,0,6.6-3,6.6-6.6l0,0V170
				c10.2-3.6,15.6-14.8,11.9-25c-3.6-10.2-14.8-15.6-25-11.9c-10.2,3.7-15.6,14.8-11.9,25c2,5.6,6.4,10,11.9,11.9v20.8h-19.7v-13.1
				c0-3.6-3-6.6-6.6-6.6l0,0h-13.1v-33.9c10.2-3.6,15.6-14.8,11.9-25c-3.6-10.2-14.8-15.6-25-11.9c-10.2,3.6-15.6,14.8-11.9,25
				c2,5.6,6.4,10,11.9,11.9v33.9H263V66.6c0-3.6-3-6.6-6.6-6.6l0,0c-80.8,0-144.1,58.5-144.1,133.2c0,35.5,14,82.4,36.7,122.6
				c4.1,7.2,9.4,14.7,15,22.8c11.9,16.9,25.1,36,26.5,52.6c-5.1,3.6-8,9.4-7.9,15.5c0,4.4,1.6,8.7,4.4,12.2c-3.9,3.8-6,9.1-6,14.5
				c0,10.8,8.8,19.7,19.7,19.7H312c10.9-0.1,19.7-9,19.7-19.9c0-0.1,0-0.2,0-0.2c0-5.3-2.2-10.5-6-14.1c2.8-3.6,4.4-8,4.4-12.6
				c0-10.4-8.4-18.8-18.8-18.7c-0.3,0-0.5,0-0.9,0H263V262.8h13.1v19.7c0,3.6,3,6.6,6.6,6.6l0,0h19.7v7.7
				c-10.2,3.6-15.6,14.8-11.9,25c3.6,10.2,14.8,15.6,25,11.9c10.2-3.6,15.6-14.8,11.9-25c-2-5.6-6.4-10-11.9-11.9v-14.3
				c0-3.6-3-6.6-6.6-6.6l0,0h-19.7v-13.1h26.2c3.6,0,6.6-3,6.6-6.6l0,0v-13.1h40.5c3.7,10.2,14.8,15.5,25,11.9
				C397.6,251.4,403,240.3,399.3,230.1z M348.1,145c3.6,0,6.6,3,6.6,6.6c0,3.6-3,6.6-6.6,6.6s-6.6-3-6.6-6.6
				C341.5,147.9,344.5,145,348.1,145z M174.8,331c-5.5-7.7-10.5-15.1-14.4-21.7c-21.3-37.7-35-83.3-35-116.1
				c0-65.3,54.1-116.9,124.4-119.9V119c-1.7,0.2-3.5,0.3-5.4,0.5c-2.8,0.3-5.1,2.4-5.6,5.1l-2,9.5c-1.6,0.4-3.3,0.9-4.9,1.3
				l-6.6-7.3c-1.9-2.1-4.8-2.7-7.4-1.6c-7.3,3.2-14.3,7.2-20.6,12c-2.3,1.7-3.1,4.6-2.3,7.3l3,9.1c-1.2,1.2-2.4,2.3-3.6,3.6l-9.1-3
				c-2.7-0.9-5.5,0.1-7.3,2.3c-4.8,6.3-8.9,13.3-12,20.6c-1.1,2.6-0.5,5.5,1.6,7.4l7.3,6.6c-0.5,1.6-0.9,3.3-1.3,4.8l-10.2,2
				c-3,0.6-5.2,3.3-5.2,6.4V228c0,3.1,2.2,5.8,5.3,6.4l10.2,2c0.4,1.6,0.9,3.3,1.3,4.8l-7.3,6.6c-2.1,1.9-2.7,4.8-1.6,7.4
				c3.2,7.3,7.2,14.3,12,20.6c1.7,2.3,4.6,3.1,7.3,2.3l9.1-3c1.2,1.2,2.3,2.4,3.6,3.6l-3,9.1c-0.9,2.7,0.1,5.6,2.3,7.3
				c6.3,4.8,13.3,8.9,20.6,12c2.6,1.1,5.5,0.5,7.4-1.6l6.6-7.3c1.6,0.5,3.3,0.9,4.9,1.3l2,9.5c0.5,2.7,2.8,4.8,5.6,5.1
				c1.9,0.2,3.7,0.4,5.4,0.5v72.6h-46.4C200.8,368.2,187.1,348.6,174.8,331z M197.5,217c0.1,30,22.5,55.2,52.4,58.5v22.5l-1.1-5.1
				c-0.5-2.6-2.7-4.6-5.2-5.1c-3.9-0.7-7.7-1.7-11.4-3c-0.7-0.2-1.5-0.4-2.2-0.4c-1.9,0-3.7,0.8-4.8,2.2l-6.2,6.9
				c-3.4-1.7-6.7-3.7-9.8-5.8l2.8-8.7c0.9-2.6,0.1-5.3-2-7c-3-2.6-5.9-5.4-8.3-8.3c-1.7-2-4.5-2.8-7-2l-8.7,2.8
				c-2.2-3.1-4.1-6.5-5.8-9.8l6.9-6.2c2-1.8,2.7-4.6,1.8-7.1c-1.3-3.7-2.3-7.5-3-11.4c-0.5-2.7-2.5-4.8-5.1-5.2l-9.1-1.8v-11.6
				l9.1-1.8c2.7-0.5,4.7-2.6,5.1-5.2c0.7-3.9,1.7-7.7,3-11.4c0.9-2.5,0.2-5.3-1.8-7.1l-6.9-6.2c1.7-3.4,3.7-6.7,5.8-9.8l8.7,2.8
				c2.5,0.9,5.3,0.1,7-2c2.6-3,5.4-5.9,8.3-8.4c2-1.7,2.8-4.5,2-7l-2.8-8.7c3.1-2.2,6.5-4.1,9.8-5.8l6.2,6.9c1.8,2,4.6,2.7,7.1,1.8
				c3.7-1.3,7.5-2.3,11.4-3c2.7-0.5,4.7-2.5,5.2-5.1l1.1-5.1v22.5C220,161.9,197.5,187,197.5,217z M249.8,171.7v90.7
				c-25-3.6-42.4-26.8-38.9-51.8C213.9,190.4,229.7,174.6,249.8,171.7z M318.6,433.4c0,3.6-3,6.6-6.6,6.6H200.8
				c-3.7-0.1-6.6-3.1-6.6-6.8c0-0.1,0-0.2,0-0.2c0-3.6,3-6.6,6.6-6.6h111.3c3.7,0.1,6.6,3.1,6.6,6.8
				C318.7,433.2,318.7,433.3,318.6,433.4z M310.4,400.6c3.3-0.3,6.2,2.1,6.6,5.5c0,0.2,0,0.5,0,0.7c0,3.6-3,6.6-6.6,6.6h-108
				c-3.7-0.1-6.6-3.1-6.6-6.8c0-0.1,0-0.2,0-0.2c0.2-3.3,2.9-5.8,6.2-5.6c0.2,0,0.2,0,0.4,0L310.4,400.6L310.4,400.6z M308.8,308.7
				c3.6,0,6.6,3,6.6,6.6s-3,6.6-6.6,6.6s-6.6-3-6.6-6.6C302.3,311.7,305.2,308.7,308.8,308.7z M295.7,112.2c3.6,0,6.6,3,6.6,6.6
				c0,3.6-3,6.6-6.6,6.6s-6.6-3-6.6-6.6C289.2,115.2,292.1,112.2,295.7,112.2z M308.8,249.8H263v-65.5h45.9V249.8z M380.8,243.2
				c-3.6,0-6.6-3-6.6-6.6c0-3.6,3-6.6,6.6-6.6s6.6,3,6.6,6.6S384.4,243.2,380.8,243.2z"/>
		</g>
	</g>
	<g>
		<g>
			<path d="M319.6,359.4c-2.3,4.1-4.4,8.4-6.1,12.8l12.2,4.8c1.6-3.9,3.4-7.6,5.4-11.3L319.6,359.4z"/>
		</g>
	</g>
	<g>
		<g>
			<path d="M334.3,336.3c-2.6,3.7-5.1,7.5-7.6,11.2l11,7.1c2.3-3.7,4.8-7.3,7.3-10.9L334.3,336.3z"/>
		</g>
	</g>
	<g>
		<g>
			<path d="M349.2,314.6c-2.2,3.5-4.7,7.1-7.3,10.8l10.8,7.5c2.7-3.9,5.3-7.6,7.6-11.3L349.2,314.6z"/>
		</g>
	</g>
	<g>
		<g>
			<path d="M361.5,291.8c-1.9,3.9-3.8,7.8-5.9,11.6l11.5,6.2c2.1-4,4.2-8,6.2-12.2L361.5,291.8z"/>
		</g>
	</g>
	<g>
		<g>
			<path d="M371.7,267.7c-1.6,4.1-3.1,8.1-4.8,12.1L379,285c1.8-4.2,3.4-8.4,5.1-12.6L371.7,267.7z"/>
		</g>
	</g>
	<g>
		<g>
			<path d="M400.5,191.9l-13.1,0.1v1.2c0,3.7-0.2,7.6-0.5,11.5l13,1.1c0.4-4.4,0.5-8.6,0.5-12.6L400.5,191.9z"/>
		</g>
	</g>
	<g>
		<g>
			<path d="M397.2,164.1l-12.7,3c0.9,4.1,1.7,8.3,2.2,12.4l13-1.6C399,173.3,398.2,168.7,397.2,164.1z"/>
		</g>
	</g>
	<g>
		<g>
			<path d="M387.7,137.6l-11.8,5.7c1.9,3.7,3.5,7.6,4.9,11.6l12.3-4.4C391.6,146.1,389.8,141.8,387.7,137.6z"/>
		</g>
	</g>
	<g>
		<g>
			<path d="M372.7,113.9l-10.2,8.1c2.7,3.3,5.1,6.7,7.3,10.3l11.1-7C378.3,121.4,375.6,117.6,372.7,113.9z"/>
		</g>
	</g>
	<g>
		<g>
			<path d="M353.1,93.9l-8.3,10.1c3.3,2.7,6.4,5.5,9.4,8.6l9.4-9.2C360.2,100,356.7,96.9,353.1,93.9z"/>
		</g>
	</g>
	<g>
		<g>
			<path d="M330,78.3l-6.2,11.5c3.7,2,7.4,4.2,10.8,6.6l7.3-10.8C338.1,82.9,334,80.5,330,78.3z"/>
		</g>
	</g>
	<g>
		<g>
			<path d="M304.3,67.4l-4,12.5c4.1,1.3,8.1,2.8,11.9,4.4l5.1-12C313.1,70.4,308.8,68.9,304.3,67.4z"/>
		</g>
	</g>
	<g>
		<g>
			<path d="M277.1,61.4l-1.6,13c4.2,0.5,8.4,1.2,12.6,2.2l2.8-12.8C286.4,62.8,281.7,62,277.1,61.4z"/>
		</g>
	</g>
</g>
</svg>
