<?xml version="1.0" encoding="utf-8"?>
<!-- Generator: Adobe Illustrator 25.0.1, SVG Export Plug-In . SVG Version: 6.00 Build 0)  -->
<svg version="1.1" fill="#8052FD" id="Layer_1" xmlns="http://www.w3.org/2000/svg" xmlns:xlink="http://www.w3.org/1999/xlink" x="0px" y="0px"
	 viewBox="0 0 161 161" style="enable-background:new 0 0 161 161;" xml:space="preserve">

	
	


<g transform="translate(3 3)">
	<g>
		<path d="M79.4,132H52.3c-1,0-1.8-0.8-1.8-1.8c0-1,0.8-1.8,1.8-1.8h27.1c1,0,1.8,0.8,1.8,1.8
			C81.2,131.1,80.4,132,79.4,132z"/>
	</g>
	<g>
		<path d="M32.5,118.1c-1,0-1.8-0.8-1.8-1.8c0-1.1,0.9-1.9,1.9-1.9h27c1,0,1.8,0.8,1.8,1.8c0,1-0.8,1.8-1.8,1.8H33.1
			C32.9,118,32.7,118.1,32.5,118.1z M34.3,116.3C34.3,116.3,34.3,116.3,34.3,116.3C34.3,116.3,34.3,116.3,34.3,116.3z"/>
	</g>
	<g>
		<path d="M50.1,104.8H22.9c-1,0-1.8-0.8-1.8-1.8s0.8-1.8,1.8-1.8h27.1c1,0,1.8,0.8,1.8,1.8S51.1,104.8,50.1,104.8z"/>
	</g>
	<g>
		<path d="M79.8,132.3c-1.1,0-1.9-0.9-1.9-1.9c0-1,0.8-1.8,1.8-1.8c0.2,0,0.4,0,0.6,0.1c24.8-0.3,45-20.6,45-45.5
			c0-25.1-20.4-45.5-45.5-45.5c-25.1,0-45.5,20.4-45.5,45.5c0,1-0.8,1.8-1.8,1.8c-1,0-1.8-0.8-1.8-1.8c0-27.1,22-49.1,49.1-49.1
			c27.1,0,49.1,22,49.1,49.1C128.9,110.3,106.9,132.3,79.8,132.3z M81.5,130.4C81.5,130.4,81.5,130.4,81.5,130.4
			C81.5,130.4,81.5,130.4,81.5,130.4z"/>
	</g>
	<g>
		<path d="M78.8,121.3c-1.1,0-1.9-0.9-1.9-1.9c0-1,0.8-1.8,1.8-1.8c0.2,0,0.4,0,0.6,0.1c18.9-0.3,34.2-15.8,34.2-34.8
			c0-4.6-0.9-9.1-2.6-13.3c-0.4-0.9,0.1-2,1-2.4c0.9-0.4,2,0.1,2.4,1c1.9,4.7,2.9,9.6,2.9,14.7C117.2,104.1,99.9,121.3,78.8,121.3z
			 M80.5,119.4L80.5,119.4L80.5,119.4z"/>
	</g>
	<g>
		<path d="M44.9,50.9c-0.5,0-0.9-0.2-1.3-0.5l-5.1-5.1c-0.7-0.7-0.7-1.9,0-2.6c0.7-0.7,1.9-0.7,2.6,0l5.1,5.1
			c0.7,0.7,0.7,1.9,0,2.6C45.9,50.7,45.4,50.9,44.9,50.9z"/>
	</g>
	<g>
		<path d="M36.9,48.7c-0.5,0-0.9-0.2-1.3-0.5c-0.7-0.7-0.7-1.9,0-2.6l7.3-7.3c0.7-0.7,1.9-0.7,2.6,0
			c0.7,0.7,0.7,1.9,0,2.6l-7.3,7.3C37.8,48.5,37.3,48.7,36.9,48.7z"/>
	</g>
	<g>
		<path d="M84.5,37.7c-1,0-1.8-0.8-1.8-1.8v-6.2h-6.6v6.2c0,1-0.8,1.8-1.8,1.8s-1.8-0.8-1.8-1.8v-8.1
			c0-1,0.8-1.8,1.8-1.8h10.3c1,0,1.8,0.8,1.8,1.8v8.1C86.4,36.9,85.5,37.7,84.5,37.7z"/>
	</g>
	<g>
		<path d="M89,28.9H69.8c-1.8,0-3.2-1.4-3.2-3.1v-7.7c0-1.7,1.4-3.1,3.2-3.1H89c1.8,0,3.2,1.4,3.2,3.1v7.7
			C92.2,27.5,90.8,28.9,89,28.9z M70.2,25.3h18.3v-6.6H70.2V25.3z"/>
	</g>
	<g>
		<path d="M79,91.3c-2.3,0-4.5-0.9-6.2-2.6c-3.4-3.4-3.4-9,0-12.4c1.7-1.7,3.9-2.6,6.2-2.6c2.4,0,4.6,0.9,6.2,2.6
			c1.7,1.7,2.6,3.9,2.6,6.2c0,2.4-0.9,4.6-2.6,6.2C83.5,90.4,81.3,91.3,79,91.3z M79,77.3c-1.4,0-2.7,0.5-3.6,1.5c-2,2-2,5.3,0,7.3
			c2,2,5.3,2,7.3,0c1-1,1.5-2.3,1.5-3.6c0-1.4-0.5-2.7-1.5-3.6C81.7,77.9,80.4,77.3,79,77.3z"/>
	</g>
	<g>
		<path d="M83.8,79.5c-0.5,0-0.9-0.2-1.3-0.5c-0.7-0.7-0.7-1.9,0-2.6l19.1-19.1c0.7-0.7,1.9-0.7,2.6,0
			c0.7,0.7,0.7,1.9,0,2.6L85.1,79C84.7,79.3,84.3,79.5,83.8,79.5z"/>
	</g>
	<g>
		<path d="M69.9,93.5c-0.5,0-0.9-0.2-1.3-0.5c-0.7-0.7-0.7-1.9,0-2.6l4.4-4.4c0.7-0.7,1.9-0.7,2.6,0
			c0.7,0.7,0.7,1.9,0,2.6l-4.4,4.4C70.8,93.3,70.3,93.5,69.9,93.5z"/>
	</g>
</g>
</svg>
