<?xml version="1.0" encoding="utf-8"?>
<!-- Generator: Adobe Illustrator 26.3.1, SVG Export Plug-In . SVG Version: 6.00 Build 0)  -->
<svg version="1.1" id="Layer_1" xmlns="http://www.w3.org/2000/svg" xmlns:xlink="http://www.w3.org/1999/xlink" x="0px" y="0px"
	 viewBox="0 0 512 512" style="enable-background:new 0 0 512 512;" xml:space="preserve">
<style type="text/css">
	.st0{fill:#8052FD;}
</style>
<g id="Layer_2_00000010997659300427846370000002719400868487580083_">
	<g id="Capa_1">
		<path class="st0" d="M450.9,234.5L372.1,98.1c-6.8-11.9-23.6-21.6-37.3-21.6H177.2c-13.7,0-30.5,9.7-37.3,21.6L61.1,234.4
			c-6.8,11.9-6.8,31.2,0,43.1l78.8,136.5c6.8,11.9,23.6,21.6,37.3,21.6h157.6c13.7,0,30.5-9.7,37.3-21.6l78.8-136.5
			C457.7,265.7,457.7,246.4,450.9,234.5z M239,151.9c-0.3-9,6.7-16.5,15.6-16.8c9-0.3,16.5,6.7,16.8,15.6V249
			c0.3,9-6.7,16.5-15.6,16.8c-9,0.3-16.5-6.7-16.8-15.6V151.9z M255.2,359c-60.8,0-110.1-49.3-110.1-110.1
			c0-34.8,16.5-67.5,44.3-88.3c6.2-5,15.3-4.1,20.3,2.1c5,6.2,4.1,15.3-2.1,20.3c-0.3,0.3-0.7,0.5-1,0.7
			c-36.1,26.7-43.7,77.6-17,113.7s77.6,43.7,113.7,17c36.1-26.7,43.7-77.6,17-113.7c-4.8-6.5-10.6-12.2-17.1-17
			c-6.6-4.6-8.2-13.6-3.6-20.2c4.6-6.6,13.6-8.2,20.2-3.6c0.2,0.1,0.4,0.3,0.6,0.4l0,0c48.9,36.1,59.4,105.1,23.2,154
			C323,342.4,290.1,359,255.2,359L255.2,359z"/>
	</g>
</g>
</svg>
