<?xml version="1.0" encoding="utf-8"?>
<!-- Generator: Adobe Illustrator 25.0.1, SVG Export Plug-In . SVG Version: 6.00 Build 0)  -->
<svg version="1.1" fill="#8052FD" id="Layer_1" xmlns="http://www.w3.org/2000/svg" xmlns:xlink="http://www.w3.org/1999/xlink" x="0px" y="0px"
	 viewBox="0 0 512 512" style="enable-background:new 0 0 512 512;" xml:space="preserve">

	
	

<path d="M104.8,272.2v27h10.8v-27c5.9,0,10.8-4.8,10.8-10.8h27v-10.8h-27.1c0-5.9-4.8-10.8-10.8-10.8v-27h-10.8v27
	c-6,0.1-10.8,4.9-10.8,10.9v10.8C94,267.4,98.8,272.2,104.8,272.2z M104.8,250.6h10.8v10.8h-10.8V250.6z"/>
<path d="M104.8,126.4v27h10.8v-27c0.9,0,1.8-0.1,2.8-0.4l58.2,58.2l7.7-7.7l-58.2-58.2c0.3-0.9,0.4-1.8,0.4-2.8h27
	v-10.8h-27.1c0-6-4.8-10.8-10.8-10.8h-10.8c-6,0-10.8,4.8-10.8,10.8v10.8C94,121.6,98.8,126.4,104.8,126.4z M104.8,104.8h10.8v10.8
	h-10.8V104.8z"/>
<path d="M261.4,153.4v-27c5.9,0,10.8-4.8,10.8-10.8h27v-10.8h-27c0-6-4.8-10.8-10.8-10.8h-10.8
	c-5.9,0-10.8,4.8-10.8,10.8h-27v10.8h27c0,5.9,4.8,10.8,10.8,10.8v27L261.4,153.4L261.4,153.4z M250.6,104.8h10.8v10.8h-10.8V104.8z
	"/>
<path d="M407.2,94h-10.8c-5.9,0-10.8,4.8-10.8,10.8h-27v10.8h27c0,0.9,0.1,1.8,0.4,2.8l-58.2,58.2l7.7,7.7l58.2-58.2
	c0.9,0.3,1.8,0.4,2.8,0.4v27h10.8v-27.1c5.9,0,10.8-4.8,10.8-10.8v-10.8C418,98.8,413.2,94,407.2,94z M396.4,115.6v-10.8h10.8v10.8
	L396.4,115.6L396.4,115.6z"/>
<path d="M250.6,358.6v27c-5.9,0-10.8,4.8-10.8,10.8h-27v10.8h27c0,5.9,4.8,10.8,10.8,10.8h10.8
	c5.9,0,10.8-4.8,10.8-10.8h27v-10.8h-27c0-5.9-4.8-10.8-10.8-10.8v-27H250.6z M261.4,407.2h-10.8v-10.8h10.8V407.2z"/>
<path d="M407.2,385.6v-27h-10.8v27c-0.9,0-1.8,0.1-2.8,0.4l-58.2-58.2l-7.7,7.7l58.2,58.2c-0.3,0.9-0.4,1.8-0.4,2.8h-27
	v10.8h27c0,5.9,4.8,10.8,10.8,10.8h10.8c5.9,0,10.8-4.8,10.8-10.8v-10.8C418,390.4,413.2,385.6,407.2,385.6z M396.4,407.2v-10.8
	h10.8v10.8H396.4z"/>
<path d="M407.2,239.8v-27h-10.8v27c-5.9,0-10.8,4.8-10.8,10.8h-27v10.8h27c0,5.9,4.8,10.8,10.8,10.8v27h10.8v-27
	c5.9,0,10.8-4.8,10.8-10.8v-10.8C418,244.6,413.2,239.8,407.2,239.8z M396.4,261.4v-10.8h10.8v10.8H396.4z"/>
<path d="M104.8,418h10.8c5.9,0,10.8-4.8,10.8-10.8h27v-10.8h-27.1c0-0.9-0.1-1.8-0.4-2.8l58.2-58.2l-7.7-7.7l-58.2,58.2
	c-0.9-0.3-1.8-0.4-2.8-0.4v-27h-10.8v27c-5.9,0-10.8,4.8-10.8,10.8v10.8C94,413.2,98.8,418,104.8,418z M104.8,396.4h10.8v10.8h-10.8
	V396.4z"/>
<path d="M104.8,337h10.8v10.8h-10.8V337z"/>
<path d="M104.8,310h10.8v10.8h-10.8V310z"/>
<path d="M164.2,256c0,50.7,41.1,91.8,91.8,91.8s91.8-41.1,91.8-91.8s-41.1-91.8-91.8-91.8
	C205.3,164.3,164.2,205.3,164.2,256z M187,213.9c9.4,3.2,19.2,5.6,29,6.9c-1.8,9.9-2.8,19.8-3.1,29.8h-37.7
	C176.1,237.6,180.1,224.9,187,213.9z M187,298.2c-6.8-11.1-10.8-23.7-11.7-36.8h37.7c0.2,10,1.3,20,3.1,29.9
	C206.1,292.6,196.4,294.9,187,298.2z M193.4,307.3c8.2-2.5,16.6-4.4,25.1-5.5c2.7,11.4,7.5,22.1,14.2,31.8
	C217.2,328.9,203.6,319.7,193.4,307.3z M250.6,335.6c-8.2-4-16.2-16.6-21.3-35.1c6.8-0.6,14-1.1,21.3-1.2V335.6z M250.6,288.5
	c-8.2,0.1-16.2,0.6-23.9,1.4c-1.8-9.4-2.8-18.9-3-28.5h11.5c2,7.6,7.8,13.5,15.4,15.4V288.5z M223.7,250.6c0.3-9.6,1.3-19.1,3-28.5
	c7.7,0.8,15.6,1.3,23.9,1.4v11.6c-7.5,2-13.5,7.8-15.4,15.4H223.7L223.7,250.6z M261.4,335.6v-36.3c7.3,0.1,14.5,0.6,21.3,1.2
	C277.6,319,269.6,331.7,261.4,335.6z M261.4,288.5v-11.6c7.6-2,13.5-7.9,15.4-15.4h11.5c-0.3,9.6-1.3,19.1-3,28.5
	C277.6,289.1,269.6,288.7,261.4,288.5z M279.4,333.5c6.6-9.6,11.5-20.4,14.2-31.8c8.5,1.1,16.8,3,25.1,5.5
	C308.4,319.7,294.8,328.9,279.4,333.5z M325,298.2c-9.4-3.2-19.2-5.6-29-6.9c1.8-9.9,2.8-19.8,3.1-29.9h37.7
	C335.9,274.4,331.9,287,325,298.2z M325,213.9c6.8,11.1,10.8,23.7,11.7,36.8h-37.7c-0.3-10-1.3-20-3.1-29.8
	C305.9,219.4,315.6,217.1,325,213.9L325,213.9z M318.6,204.7c-8.2,2.5-16.6,4.4-25.1,5.5c-2.7-11.4-7.5-22.1-14.2-31.8
	C294.8,183.2,308.4,192.3,318.6,204.7z M261.4,176.4c8.2,4,16.2,16.6,21.3,35.1c-6.8,0.6-14,1.1-21.3,1.2V176.4z M261.4,223.5
	c8.2-0.1,16.2-0.6,23.9-1.4c1.8,9.4,2.8,18.9,3,28.5h-11.5c-2-7.5-7.8-13.4-15.4-15.4V223.5z M266.8,256c0,5.9-4.8,10.8-10.8,10.8
	c-5.9,0-10.8-4.8-10.8-10.8c0-5.9,4.8-10.8,10.8-10.8C261.9,245.2,266.8,250.1,266.8,256z M250.6,176.4v36.3
	c-7.3-0.1-14.5-0.6-21.3-1.2C234.4,193,242.5,180.3,250.6,176.4z M232.6,178.5c-6.6,9.6-11.5,20.4-14.2,31.8
	c-8.5-1.1-16.8-3-25.1-5.5C203.6,192.3,217.2,183.2,232.6,178.5z"/>
<path d="M104.8,164.2h10.8V175h-10.8V164.2z"/>
<path d="M104.8,191.2h10.8V202h-10.8V191.2z"/>
<path d="M164.2,104.8H175v10.8h-10.8V104.8z"/>
<path d="M191.2,104.8H202v10.8h-10.8V104.8z"/>
<path d="M337,104.8h10.8v10.8H337V104.8z"/>
<path d="M310,104.8h10.8v10.8H310V104.8z"/>
<path d="M396.4,164.2h10.8V175h-10.8V164.2z"/>
<path d="M396.4,191.2h10.8V202h-10.8V191.2z"/>
<path d="M396.4,337h10.8v10.8h-10.8V337z"/>
<path d="M396.4,310h10.8v10.8h-10.8V310z"/>
<path d="M337,396.4h10.8v10.8H337V396.4z"/>
<path d="M310,396.4h10.8v10.8H310V396.4z"/>
<path d="M164.2,396.4H175v10.8h-10.8V396.4z"/>
<path d="M191.2,396.4H202v10.8h-10.8V396.4z"/>
</svg>
