<?xml version="1.0" encoding="utf-8"?>
<!-- Generator: Adobe Illustrator 25.0.1, SVG Export Plug-In . SVG Version: 6.00 Build 0)  -->
<svg version="1.1" fill="#8052FD" id="Capa_1" xmlns="http://www.w3.org/2000/svg" xmlns:xlink="http://www.w3.org/1999/xlink" x="0px" y="0px"
	 viewBox="0 0 512 512" style="enable-background:new 0 0 512 512;" xml:space="preserve">

	
	


<g>
	<g>
		<g>
			<path d="M131.3,349.4c-9.4,0-17,7.6-17,17s7.6,17,17,17s17-7.6,17-17C148.3,356.9,140.7,349.4,131.3,349.4z
				 M131.3,372c-3.1,0-5.6-2.5-5.6-5.6c0-3.1,2.5-5.6,5.6-5.6c3.1,0,5.6,2.5,5.6,5.6C137,369.5,134.4,372,131.3,372z"/>
		</g>
	</g>
	<g>
		<g>
			<path d="M420.4,122.6L420.4,122.6h-17c-70.4,0-118-19.3-130.7-53c-0.9-2.2-3-3.6-5.4-3.7c-2.4,0-4.5,1.5-5.3,3.8
				c-12.4,35.1-54.5,52.9-125,52.9h-22.6c-3.1,0-5.6,2.5-5.6,5.6l0,0V236H91.6c-3.1,0-5.6,2.5-5.6,5.6l0,0v158.7
				c0,3.1,2.5,5.6,5.6,5.6l0,0h285.1c27.2,0,49.2-22.1,49.3-49.3V128.2C426,125.2,423.5,122.6,420.4,122.6z M159.6,394.7H97.3V247.3
				h62.4L159.6,394.7L159.6,394.7z M392,381.9c-1.1,7.6-7.7,13.1-15.3,12.8H171V247.3h73.7c2.4,0,4.5-1.5,5.3-3.8l21.9-61.3
				c3.4-9.5,13.8-14.4,23.3-11c8.7,3.1,13.7,12.3,11.6,21.3l-11,47.8c-0.7,3.1,1.2,6.1,4.3,6.8c0.4,0.1,0.9,0.1,1.3,0.1h75.3
				c7.6-0.3,14.2,5.2,15.3,12.8c0.7,7.6-4.6,14.3-12.2,15.4c-3.2,0.4-5.4,3.4-5,6.6c0.3,2.6,2.4,4.6,5,5c7.8,1.1,13.2,8.2,12.1,16
				c-1,7-6.9,12.2-13.9,12.2c-3.1,0-5.6,2.5-5.6,5.6c0,3.1,2.5,5.6,5.6,5.6c7.8,0.1,14.1,6.4,14.1,14.3c-0.1,7-5.2,13-12.2,13.9
				c-3.2,0.5-5.4,3.4-5,6.6c0.3,2.6,2.4,4.6,5,5C387.4,367.5,392.8,374.3,392,381.9z M414.7,356.7c0,10.3-4.2,20.1-11.6,27.2
				c0.1-0.3,0.2-0.7,0.2-1.1c0.8-8.6-2.7-16.9-9.4-22.3c11-8.8,12.6-24.8,3.8-35.8c-1.1-1.4-2.5-2.7-3.9-3.9
				c11-8.8,12.7-24.8,3.9-35.8c-1.1-1.5-2.5-2.7-3.9-3.9c6.6-5.4,10.2-13.7,9.4-22.3c-1.7-13.4-13.1-23.3-26.6-23.1h-68.2l9.4-40.9
				c3.7-15.9-6.2-31.8-22.2-35.5c-1-0.2-2-0.4-3-0.5c-13.8-1.8-27,6.3-31.5,19.4L240.7,236H120V134h17c68.3,0,112.2-16.5,130.6-49.1
				c25.9,42.4,94.9,49.1,135.8,49.1h11.4L414.7,356.7L414.7,356.7z"/>
		</g>
	</g>
	<g>
		<g>
			<path d="M252.3,118.3c-21,17.5-47.4,27-74.7,27H137c-3.1,0-5.6,2.5-5.6,5.6l0,0v56.7h11.4v-51h35.1
				c30,0,58.9-10.5,81.9-29.6L252.3,118.3z"/>
		</g>
	</g>
	<g>
		<g>
			<path d="M397.7,145.3L397.7,145.3H357c-27.3,0-53.7-9.6-74.7-27l-7.2,8.7c23,19.1,52,29.6,81.9,29.6H392v51h11.4V151
				C403.4,147.8,400.8,145.3,397.7,145.3z"/>
		</g>
	</g>
</g>
</svg>
