<?xml version="1.0" encoding="utf-8"?>
<!-- Generator: Adobe Illustrator 25.0.1, SVG Export Plug-In . SVG Version: 6.00 Build 0)  -->
<svg version="1.1" fill="#8052FD" id="Layer_1" xmlns="http://www.w3.org/2000/svg" xmlns:xlink="http://www.w3.org/1999/xlink" x="0px" y="0px"
	 viewBox="0 0 512 512" style="enable-background:new 0 0 512 512;" xml:space="preserve">

	
	


<g id="surface1">
	<path d="M106,415.1h276.9c12.8,0,23.1-10.3,23.1-23.1v-17.3c0-3.2-2.6-5.7-5.7-5.7h-11.6v-92.4h-11.6v92.3h-11.6v-92.3
		H354v92.3h-73.6c-6.2,0-11.8,3.4-14.5,9c-0.8,1.6-2.4,2.6-4.2,2.6h-33.3c-1.8,0-3.4-1-4.2-2.6c-2.7-5.5-8.4-9-14.5-9h-75V224.7
		c0-3.2,2.6-5.7,5.7-5.7h103.8v-11.6H140.6c-9.5,0-17.3,7.8-17.3,17.3v144.2h-11.5V213.1c0-9.5,7.8-17.3,17.3-17.3h115.4v-11.6
		H129.1c-16,0-28.8,12.9-28.9,28.9v155.8H88.7c-3.2,0-5.7,2.6-5.7,5.7V392C82.9,404.7,93.3,415.1,106,415.1z M94.5,380.5h115.4
		c1.8,0,3.4,1,4.2,2.6c2.7,5.5,8.3,9,14.5,9h33.3c6.2,0,11.8-3.4,14.5-9c0.8-1.6,2.4-2.6,4.2-2.6h114.1V392
		c0,6.4-5.1,11.6-11.6,11.6H106c-6.4,0-11.6-5.1-11.6-11.6L94.5,380.5L94.5,380.5z"/>
	<path d="M157.9,282.4v46.2c0,3.2,2.6,5.7,5.7,5.7h161.5c3.2,0,5.7-2.6,5.7-5.7v-46.2c0-3.2-2.6-5.7-5.7-5.7H163.7
		C160.5,276.6,157.9,279.2,157.9,282.4z M169.5,288.2h150v34.6h-150V288.2z"/>
	<path d="M181,299.7h11.6v11.6H181V299.7z"/>
	<path d="M204.1,299.7h11.6v11.6h-11.6V299.7z"/>
	<path d="M227.1,299.7h11.6v11.6h-11.6V299.7z"/>
	<path d="M250.3,299.7h11.6v11.6h-11.6V299.7z"/>
	<path d="M411.8,155.7v-17.5c0-38.3-31-69.2-69.2-69.2s-69.2,31-69.2,69.2v17.5c-9.8,1-17.2,9.3-17.3,19.2v70.9
		c0,10.7,8.7,19.4,19.4,19.4h134.3c10.7,0,19.4-8.7,19.4-19.4v-70.9C429,165,421.6,156.7,411.8,155.7z M284.9,138.2
		c0-31.8,25.8-57.7,57.7-57.7s57.7,25.8,57.7,57.7v17.3h-11.6v-17.3c0-25.5-20.7-46.2-46.2-46.2c-25.5,0-46.2,20.7-46.2,46.2v17.3
		h-11.6v-17.3H284.9z M307.9,155.5v-17.3c0-19.1,15.5-34.6,34.6-34.6c19.1,0,34.6,15.5,34.6,34.6v17.3H307.9z M417.5,245.7
		c0,4.3-3.5,7.8-7.8,7.8H275.4c-4.3,0-7.8-3.5-7.8-7.8v-70.8c0-4.3,3.5-7.8,7.8-7.8h134.3c4.3,0,7.8,3.5,7.8,7.8L417.5,245.7
		L417.5,245.7z"/>
	<path d="M342.5,190.1c-8.5,0-15.6,6-17,14.3c-1.4,8.3,3.3,16.4,11.3,19.2v12.6h11.6v-12.6c7.9-2.8,12.7-10.9,11.3-19.2
		C358.2,196.1,351,190.1,342.5,190.1z M342.5,213.1c-3.2,0-5.7-2.6-5.7-5.7s2.6-5.7,5.7-5.7c3.2,0,5.7,2.6,5.7,5.7
		S345.7,213.1,342.5,213.1z"/>
	<path d="M186.8,161.2h11.6v11.6h-11.6V161.2z"/>
	<path d="M186.8,138.2h11.6v11.6h-11.6V138.2z"/>
	<path d="M186.8,115.1h11.6v11.6h-11.6V115.1z"/>
	<path d="M186.8,92h11.6v11.6h-11.6V92z"/>
	<path d="M209.8,92h11.6v11.6h-11.6V92z"/>
	<path d="M232.9,92h11.6v11.6h-11.6V92z"/>
	<path d="M256,92h11.6v11.6H256V92z"/>
</g>
</svg>
