<?xml version="1.0" encoding="utf-8"?>
<!-- Generator: Adobe Illustrator 25.0.1, SVG Export Plug-In . SVG Version: 6.00 Build 0)  -->
<svg version="1.1" fill="#8052FD" id="Layer_1" xmlns="http://www.w3.org/2000/svg" xmlns:xlink="http://www.w3.org/1999/xlink" x="0px" y="0px"
	 viewBox="0 0 496 496" style="enable-background:new 0 0 496 496;" xml:space="preserve">

	
	


<path d="M241.7,51.3h12.7v38.1h-12.7V51.3z"/>
<path d="M113.4,109.7l9-9l26.9,26.9l-9,9L113.4,109.7z"/>
<path d="M64,229h38.1v12.7H64V229z"/>
<path d="M393.9,229H432v12.7h-38.1V229z"/>
<path d="M346.7,127.6l26.9-26.9l9,9l-26.9,26.9L346.7,127.6z"/>
<path d="M335.5,335.6c29.1-25.3,45.8-61.9,45.8-100.3c0-37-14.8-71.2-41.6-96.7c-26.8-25.4-61.9-38.2-98.9-36.4
	c-69.2,3.6-124.5,60.8-126,130.1c-0.9,39.2,15.5,76.6,45,102.6c3,2.6,5.6,5.6,7.9,8.6c-8.5,1.9-14.8,9.5-14.8,18.6
	c0,4.9,1.9,9.3,4.9,12.7c-3,3.4-4.9,7.8-4.9,12.7c0,10.5,8.6,19,19,19h14c11.9,23.3,35.8,38.1,62.2,38.1c26.3,0,50.3-14.8,62.2-38.1
	h14c10.5,0,19-8.6,19-19c0-4.9-1.9-9.3-4.9-12.7c3-3.4,4.9-7.8,4.9-12.7c0-9.1-6.4-16.7-15.1-18.6
	C330.3,340.7,332.7,338.1,335.5,335.6z M127.4,232.7c1.3-62.7,51.4-114.4,114-117.7c33.5-1.7,65.3,9.9,89.5,32.9
	c24.3,23,37.6,54.1,37.6,87.5c0,34.8-15.1,67.9-41.4,90.8c-5.6,4.8-10.2,10.6-13.7,17.1H182.4c-3.7-6.6-8.4-12.5-14.3-17.7
	C141.6,302,126.7,268.1,127.4,232.7z M248,432c-19.4,0-36.9-9.8-47.3-25.4h94.7C284.9,422.2,267.3,432,248,432z M324.1,393.9H171.9
	c-3.5,0-6.3-2.9-6.3-6.3s2.9-6.3,6.3-6.3h152.3c3.5,0,6.3,2.9,6.3,6.3S327.6,393.9,324.1,393.9z M330.5,362.2c0,3.5-2.9,6.3-6.3,6.3
	H171.9c-3.5,0-6.3-2.9-6.3-6.3c0-3.5,2.9-6.3,6.3-6.3h152.3C327.6,355.9,330.5,358.7,330.5,362.2z"/>
<path d="M171.9,260.7c0,10.5,8.6,19,19,19h19v-12c0-3.4,2.3-6.4,5.2-6.9c1.9-0.3,3.8,0.2,5.2,1.4c1.4,1.2,2.2,3,2.2,4.8
	v12.7h107.9c10.5,0,19-8.6,19-19v-19h-19c-1.9,0-3.6-0.8-4.8-2.2c-1.2-1.4-1.7-3.3-1.4-5.2c0.5-2.9,3.5-5.2,6.9-5.2h18.4v-19
	c0-10.5-8.6-19-19-19h-12.7v-5.6c0-9.6-6.8-18-15.9-19.4c-5.6-0.9-11.2,0.6-15.5,4.3s-6.7,8.9-6.7,14.5v6.3h-57.1v12.1
	c0,3.4-2.3,6.4-5.2,6.9c-1.9,0.3-3.8-0.2-5.2-1.4c-1.4-1.2-2.2-3-2.2-4.8v-12.7h-19c-10.5,0-19,8.6-19,19v6.3h-5.6
	c-9.6,0-18,6.8-19.4,15.9c-0.9,5.6,0.6,11.2,4.3,15.5c3.6,4.3,8.9,6.7,14.5,6.7h6.3L171.9,260.7L171.9,260.7z M260.7,203.6h31.7v-19
	c0-1.9,0.8-3.6,2.2-4.8c1.4-1.2,3.3-1.7,5.2-1.4c2.9,0.5,5.2,3.5,5.2,6.9v18.4h25.4c3.5,0,6.3,2.9,6.3,6.3v6.3h-5.6
	c-9.6,0-18,6.8-19.4,15.9c-0.9,5.6,0.6,11.2,4.3,15.5c3.6,4.3,8.9,6.7,14.5,6.7h6.3v6.3c0,3.5-2.9,6.3-6.3,6.3h-69.8v-12.7h6.3
	c5.6,0,10.9-2.5,14.5-6.7c3.6-4.3,5.2-9.9,4.3-15.5c-1.5-9-9.8-15.9-19.4-15.9h-5.8V203.6z M165.5,241.7c-1.9,0-3.6-0.8-4.8-2.2
	c-1.2-1.4-1.7-3.3-1.4-5.2c0.5-2.9,3.5-5.2,6.9-5.2h18.4v-19c0-3.5,2.9-6.3,6.3-6.3h6.3c0,5.6,2.5,10.9,6.7,14.5
	c4.3,3.6,9.9,5.2,15.5,4.3c8.9-1.4,15.5-9.4,15.9-18.8H248V229h18.3c3.4,0,6.4,2.3,6.9,5.2c0.3,1.9-0.2,3.8-1.4,5.2
	c-1.2,1.4-2.9,2.2-4.8,2.2h-19V267h-12.7c0-5.6-2.5-10.9-6.7-14.5c-4.3-3.6-9.9-5.2-15.5-4.3c-8.9,1.4-15.5,9.4-15.9,18.8h-6.3
	c-3.5,0-6.3-2.9-6.3-6.3v-19H165.5z"/>
</svg>
