<?xml version="1.0" encoding="utf-8"?>
<svg version="1.1" fill="#8052FD" id="Capa_1" xmlns="http://www.w3.org/2000/svg" xmlns:xlink="http://www.w3.org/1999/xlink" x="0px" y="0px"
	 viewBox="0 0 392.1 392.1" style="enable-background:new 0 0 392.1 392.1;" xml:space="preserve">
<g>
	<path d="M286.6,179.4L286.6,179.4v10.8h-23.9c2.8-2.1,5.4-4.5,7.8-7.1c9.7-11.1,12.8-24.5,13.8-34.4h31.7V73.3h-75.5
		v75.4h32c-0.8,7.9-3.5,18.3-10.7,26.6c-6.5,7.4-15.9,12-27.8,13.8v-31.3h-75.4v32.4h-52.9v-10.8H72.2v33.3h33.3V202h27.7
		c-15,11.6-21.2,29.4-23.6,41.4H75.9v75.4h75.4v-75.4h-29.9c3.1-14,12-34.8,37-40.1v30h75.4V202h52.8v10.7h33.3v-33.3H286.6z
		 M247.9,80.8h60.3v60.3h-60.3V80.8z M143.7,311.3H83.4v-60.3h60.3V311.3z M226.2,225.7h-60.3v-60.3h60.3V225.7z"/>
</g>
</svg>
