<?xml version="1.0" encoding="utf-8"?>
<!-- Generator: Adobe Illustrator 25.0.1, SVG Export Plug-In . SVG Version: 6.00 Build 0)  -->
<svg version="1.1" fill="#8052FD" id="Layer_1" xmlns="http://www.w3.org/2000/svg" xmlns:xlink="http://www.w3.org/1999/xlink" x="0px" y="0px"
	 viewBox="0 0 106 106" style="enable-background:new 0 0 106 106;" xml:space="preserve">

	
	


<g>
	<g>
		<path d="M37.8,71c-1.7,0-3.5-0.7-4.8-2c-1.3-1.3-2-3-2-4.8s0.7-3.5,2-4.8c0.4-0.4,1.1-0.4,1.5,0l8.1,8.1
			c0.4,0.4,0.4,1.1,0,1.5C41.3,70.3,39.6,71,37.8,71z M33.8,61.7c-0.5,0.7-0.7,1.6-0.7,2.5c0,1.3,0.5,2.4,1.4,3.3
			c0.9,0.9,2.1,1.4,3.3,1.4c0.9,0,1.8-0.2,2.5-0.7L33.8,61.7z"/>
	</g>
	<g>
		<path d="M75.2,45.1c-4.7,0-9.3-1.8-12.9-5.4c-6.7-6.7-7.2-17.3-1.1-24.6c0.4-0.5,1.1-0.9,1.8-0.9
			c0.7,0,1.4,0.2,1.9,0.7l22.2,22.2l0,0c0.5,0.5,0.8,1.2,0.7,1.9c0,0.7-0.4,1.4-0.9,1.8C83.5,43.7,79.4,45.1,75.2,45.1z M63.1,16.3
			C63.1,16.3,63.1,16.3,63.1,16.3c-0.1,0-0.2,0-0.3,0.1c-5.4,6.5-4.9,15.8,1,21.8c6,6,15.3,6.4,21.8,1c0.1-0.1,0.1-0.2,0.1-0.3
			c0-0.1,0-0.2-0.1-0.3L63.4,16.4C63.3,16.3,63.2,16.3,63.1,16.3z"/>
	</g>
	<g>
		<path d="M43.6,71.7c-0.3,0-0.5-0.1-0.7-0.3L30.6,59.1c-0.2-0.2-0.3-0.5-0.3-0.7c0-0.3,0.1-0.5,0.3-0.7L52,36.2
			c0.4-0.4,1.1-0.4,1.5,0l12.2,12.2c0.4,0.4,0.4,1.1,0,1.5L44.3,71.4C44.1,71.6,43.9,71.7,43.6,71.7z M32.9,58.4l10.8,10.8
			l19.9-19.9L52.8,38.5L32.9,58.4z"/>
	</g>
	<g>
		<path d="M79.1,28.2c-1.3,0-2.7-0.5-3.7-1.5c-1-1-1.5-2.3-1.5-3.7c0-1.4,0.5-2.7,1.5-3.7c2.1-2,5.4-2,7.4,0
			c1,1,1.5,2.3,1.5,3.7c0,1.4-0.5,2.7-1.5,3.7l0,0c0,0,0,0,0,0C81.7,27.7,80.4,28.2,79.1,28.2z M79.1,19.8c-0.8,0-1.6,0.3-2.2,0.9
			c-0.6,0.6-0.9,1.4-0.9,2.2c0,0.8,0.3,1.6,0.9,2.2c1.2,1.2,3.2,1.2,4.5,0v0c0.6-0.6,0.9-1.4,0.9-2.2c0-0.8-0.3-1.6-0.9-2.2
			C80.7,20.1,79.9,19.8,79.1,19.8z"/>
	</g>
	<g>
		<path d="M58.8,44.3L58.8,44.3c-0.3,0-0.5-0.1-0.7-0.3L58,43.9c-0.4-0.4-0.4-1.1,0-1.5l4.1-4.1
			c0.2-0.2,0.5-0.3,0.7-0.3h0c0.3,0,0.5,0.1,0.7,0.3l0.1,0.1c0.4,0.4,0.4,1.1,0,1.5L59.6,44C59.4,44.2,59.1,44.3,58.8,44.3z"/>
	</g>
	<g>
		<path d="M59.3,64c-0.3,0-0.5-0.1-0.7-0.3l-4.1-4.1c-0.4-0.4-0.4-1.1,0-1.5l0.1-0.1c0.4-0.4,1.1-0.4,1.5,0l4.1,4.1
			c0.4,0.4,0.4,1.1,0,1.5l-0.1,0.1C59.9,63.9,59.6,64,59.3,64z"/>
	</g>
	<g>
		<path d="M62.2,79.4L62.2,79.4c-0.3,0-0.5-0.1-0.7-0.3l-8-8c-0.5-0.5-0.7-1.1-0.7-1.7c0-0.7,0.3-1.3,0.7-1.7l10-10
			c1-1,2.5-1,3.5,0c0,0,0,0,0,0l8,8c0.4,0.4,0.4,1.1,0,1.5l-12,12C62.7,79.3,62.5,79.4,62.2,79.4z M65.2,59.1c-0.1,0-0.2,0-0.3,0.1
			l-10,10c-0.1,0.1-0.1,0.2-0.1,0.3s0,0.2,0.1,0.3l7.2,7.2l10.5-10.5l-7.2-7.2C65.4,59.1,65.3,59.1,65.2,59.1z"/>
	</g>
	<g>
		<path d="M71.2,87.8c-0.7,0-1.3-0.3-1.7-0.7l-8-8c-0.2-0.2-0.3-0.5-0.3-0.7s0.1-0.5,0.3-0.7l12-12
			c0.4-0.4,1.1-0.4,1.5,0l8,8c0.5,0.5,0.7,1.1,0.7,1.7c0,0.7-0.3,1.3-0.7,1.7l-10,10C72.5,87.6,71.8,87.8,71.2,87.8z M63.7,78.4
			l7.2,7.2c0.1,0.1,0.2,0.1,0.3,0.1c0.1,0,0.2,0,0.3-0.1l10-10c0.1-0.1,0.1-0.2,0.1-0.3c0-0.1,0-0.2-0.1-0.3c0,0,0,0,0,0l-7.2-7.2
			L63.7,78.4z"/>
	</g>
	<g>
		<path d="M43.2,47.8c-0.3,0-0.5-0.1-0.7-0.3l-4.1-4.1c-0.4-0.4-0.4-1.1,0-1.5l0.1-0.1c0.4-0.4,1.1-0.4,1.5,0l4.1,4.1
			c0.4,0.4,0.4,1.1,0,1.5l-0.1,0.1C43.7,47.7,43.5,47.8,43.2,47.8z"/>
	</g>
	<g>
		<path d="M23.6,40.8L23.6,40.8c-0.3,0-0.5-0.1-0.7-0.3l-8-8c-0.5-0.5-0.7-1.1-0.7-1.7c0-0.7,0.3-1.3,0.7-1.7l10-10
			c1-1,2.5-1,3.5,0c0,0,0,0,0,0l8,8c0.4,0.4,0.4,1.1,0,1.5l-12,12C24.2,40.7,23.9,40.8,23.6,40.8z M26.6,20.5c-0.1,0-0.2,0-0.3,0.1
			l-10,10c-0.1,0.1-0.1,0.2-0.1,0.3c0,0.1,0,0.2,0.1,0.3l7.2,7.2l10.5-10.5l-7.2-7.2C26.8,20.5,26.7,20.5,26.6,20.5z"/>
	</g>
	<g>
		<path d="M32.6,49.2c-0.6,0-1.3-0.2-1.7-0.7l-8-8c-0.2-0.2-0.3-0.5-0.3-0.7c0-0.3,0.1-0.5,0.3-0.7l12-12
			c0.4-0.4,1.1-0.4,1.5,0l8,8c0.5,0.5,0.7,1.1,0.7,1.7c0,0.7-0.3,1.3-0.7,1.7l-10,10C33.9,49,33.2,49.2,32.6,49.2z M25.1,39.8
			l7.2,7.2c0.1,0.1,0.4,0.1,0.5,0l10-10c0.1-0.1,0.1-0.2,0.1-0.3c0-0.1,0-0.2-0.1-0.3c0,0,0,0,0,0l-7.2-7.2L25.1,39.8z"/>
	</g>
</g>
</svg>
