<?xml version="1.0" encoding="utf-8"?>
<!-- Generator: Adobe Illustrator 25.0.1, SVG Export Plug-In . SVG Version: 6.00 Build 0)  -->
<svg version="1.1" fill="#8052FD" id="Capa_1" xmlns="http://www.w3.org/2000/svg" xmlns:xlink="http://www.w3.org/1999/xlink" x="0px" y="0px"
	 viewBox="0 0 512 512" style="enable-background:new 0 0 512 512;" xml:space="preserve">

	
	


<g>
	<g>
		<g>
			<path d="M385.5,88.6L385.5,88.6c-2-2.8-5.8-3.4-8.5-1.4c-2.7,2-3.4,5.7-1.4,8.5c36.4,51,36.4,119.4,0,170.4
				c-2,2.7-1.3,6.6,1.4,8.5c0,0,0,0,0.1,0c2.7,2,6.6,1.3,8.5-1.4C425,218,425,143.8,385.5,88.6z"/>
			<path d="M135.1,87.1L135.1,87.1c-2.7-2-6.6-1.3-8.5,1.4c-39.4,55.2-39.4,129.4,0,184.6c2,2.7,5.8,3.4,8.5,1.3
				c2.7-2,3.4-5.7,1.4-8.5c-36.4-50.9-36.4-119.4,0-170.3C138.4,92.9,137.8,89.1,135.1,87.1z"/>
			<path d="M173.9,117.1c2.1-2.7,1.6-6.5-1.1-8.6l0,0c-2.7-2.1-6.5-1.6-8.6,1c-32.7,41.9-32.7,100.6,0,142.5
				c2.1,2.7,5.9,3.1,8.6,1c2.7-2.1,3.1-5.9,1-8.6C144.7,207.2,144.7,154.6,173.9,117.1z"/>
			<path d="M339.1,108.5L339.1,108.5c-2.7,2.1-3.1,5.9-1,8.6c29.2,37.5,29.2,90,0,127.5c-2.1,2.7-1.6,6.5,1,8.6
				c2.7,2.1,6.5,1.6,8.6-1c32.7-41.9,32.7-100.6,0-142.5C345.6,106.9,341.8,106.5,339.1,108.5z"/>
			<path d="M300.6,139c22.2,23.5,22.2,60.2,0,83.7c-2.3,2.4-2.2,6.4,0.3,8.7l0,0c2.4,2.3,6.4,2.2,8.7-0.3l0,0
				c26.6-28.2,26.6-72.3,0-100.5c-2.3-2.4-6.2-2.7-8.7-0.3C298.4,132.6,298.2,136.4,300.6,139C300.5,138.9,300.6,139,300.6,139z"/>
			<path d="M207,233.1c3.4,0,6.2-2.7,6.2-6.1c0-1.5-0.6-3.1-1.7-4.2c-22.2-23.5-22.2-60.2,0-83.7
				c2.3-2.4,2.2-6.3-0.2-8.7c-2.4-2.3-6.3-2.2-8.7,0.2l-0.1,0.1c-26.6,28.2-26.6,72.3,0,100.5C203.7,232.4,205.3,233.1,207,233.1z"
				/>
			<path d="M335.4,436.4L275.8,204c12.9-10.9,14.5-30.2,3.6-43.1c-10.9-12.9-30.2-14.5-43.1-3.6
				c-12.9,10.9-14.5,30.2-3.6,43.1c1.1,1.3,2.3,2.4,3.6,3.6l-59.6,232.3c-0.8,3.3,1.1,6.6,4.4,7.5l0,0c0.5,0.1,1,0.2,1.5,0.2
				c2.8,0,5.2-1.9,5.9-4.6l2-8c0.3-0.1,0.7-0.2,1-0.3l114.4-60.2l17.5,68.5c0.7,2.7,3.1,4.6,5.9,4.6c0.5,0,1-0.1,1.5-0.2
				C334.3,443,336.2,439.7,335.4,436.4L335.4,436.4z M276.4,255.6l-33.3-29.2l4.2-16.4c2.8,0.9,5.7,1.4,8.7,1.4
				c2.9-0.1,5.9-0.5,8.7-1.4L276.4,255.6z M256,162.5c10.1,0,18.4,8.3,18.4,18.4s-8.3,18.4-18.4,18.4s-18.4-8.3-18.4-18.4
				C237.6,170.8,245.9,162.5,256,162.5z M239.7,239.8l36.8,32.2l-54.5,36.3L239.7,239.8z M194.6,415.6l22-85.6l74.7,34.8
				L194.6,415.6z M225.6,320.7l57.6-38.4l19,74.2L225.6,320.7z"/>
		</g>
	</g>
</g>
</svg>
