<?xml version="1.0" encoding="utf-8"?>
<!-- Generator: Adobe Illustrator 25.0.1, SVG Export Plug-In . SVG Version: 6.00 Build 0)  -->
<svg version="1.1" fill="#8052FD" id="Layer_1" xmlns="http://www.w3.org/2000/svg" xmlns:xlink="http://www.w3.org/1999/xlink" x="0px" y="0px"
	 viewBox="0 0 511.9 511.9" style="enable-background:new 0 0 511.9 511.9;" xml:space="preserve">

	
	


<path d="M345.6,260.5c-46.9,0-85,38.2-85,85s38.2,85,85,85s85-38.2,85-85S392.5,260.5,345.6,260.5z M345.6,420
	c-41.1,0-74.5-33.4-74.5-74.5s33.4-74.5,74.5-74.5s74.5,33.4,74.5,74.5S386.7,420,345.6,420z M339.2,358.1h10.5v-52h-10.5V358.1z
	 M339.2,385h10.5v-10.5h-10.5V385z M174.2,326.1l7.3,7.3l77.1-77.1v-77.5H248v73.5L174.2,326.1z M253.3,76.9
	c-46.8,0-91,18.6-124.5,52.3S77,207.4,77,254.4c0,46.8,18.4,91.1,51.8,124.5c31.9,31.9,73.7,50.2,118.3,51.7v-10.6
	c-22.4-0.9-45.1-6.5-66-16.4l-6.1-2.9l10.5-17.6l-8.8-5.2l-10.4,17.4l-5.3-3.5c-16.1-10.7-30.4-25-43.7-43.7l-3.7-5.3l16.4-10.5
	l-5.3-9l-17.4,10.4l-3-5.9c-8.6-17.3-13.9-36.5-16.6-60.2l-0.7-6.8h46.3v-10.5h-45l0.4-6.5c1.2-20.4,6.7-40.8,16.6-60.5l3-5.9
	l17.4,10.4l5.3-8.9l-18.5-11.6l3.5-5.3c10.7-16.1,25-30.4,43.7-43.7l5.3-3.7l10.5,16.4l9.2-5.4l-9.3-17.4l5.6-2.8
	c17.3-8.6,36.5-13.9,60.2-16.6L248,88v46.3h10.5V89.4l6.5,0.4c20.4,1.2,40.8,6.7,60.5,16.6l5.9,3L321,126.8l8.8,5.2l10.4-17.4
	l5.3,3.5c16.1,10.7,30.4,25,43.7,43.7l4,5.5l-16.4,9.4l5.1,8.7l17.6-10.5l2.9,6.1c9.9,21,15.6,43.7,16.4,66h10.6
	c-1.5-44.6-19.7-86.4-51.7-118.3C344.4,95.3,300.2,76.9,253.3,76.9z"/>
</svg>
