<?xml version="1.0" encoding="utf-8"?>
<!-- Generator: Adobe Illustrator 25.0.1, SVG Export Plug-In . SVG Version: 6.00 Build 0)  -->
<svg version="1.1" fill="#8052FD" id="Layer_1" xmlns="http://www.w3.org/2000/svg" xmlns:xlink="http://www.w3.org/1999/xlink" x="0px" y="0px"
	 viewBox="0 0 511 511" style="enable-background:new 0 0 511 511;" xml:space="preserve">

	
	


<g>

	<path d="M275.4,484.6c-2.5,0-4.4,1.9-4.4,4.4c0,2.5,1.9,4.4,4.4,4.4h134.1c2.5,0,4.4-1.9,4.4-4.4
		c0-2.5-1.9-4.4-4.4-4.4H399l-0.7-0.9c-47.6-62.8-94.1-131.5-111.8-207.5l-0.7-2.7H303c6.9,0,12.5-5.6,12.5-12.5v-28
		c0-6.9-5.6-12.5-12.5-12.5h-23.5v-49.5c0-2.5-1.9-4.4-4.4-4.4s-4.4,1.9-4.4,4.4v6.4H236v-35h34.6v6.4c0,2.5,1.9,4.4,4.4,4.4
		s4.4-1.9,4.4-4.4v-46.7h6.1c2.5,0,4.4-1.9,4.4-4.4V68.5c0-2.5-1.9-4.4-4.4-4.4h-27.9V49.2c0-2.5-1.9-4.4-4.4-4.4
		c-2.5,0-4.4,1.9-4.4,4.4v14.9h-27.9c-2.5,0-4.4,1.9-4.4,4.4v29.2c0,2.5,1.9,4.4,4.4,4.4h6.1v118.6h-23.4c-6.9,0-12.5,5.6-12.5,12.5
		v28c0,6.9,5.6,12.5,12.5,12.5h17.3l-0.7,2.7c-5.4,23.4-13.8,46.8-25.5,71.8c-0.5,1.1-0.6,2.3-0.2,3.4c0.4,1.2,1.2,2,2.3,2.6
		c0.6,0.3,1.2,0.4,1.9,0.4c1.7,0,3.3-1,4.1-2.6l0.2-0.3c2.4-5,4.3-9.5,6.2-13.7l1.2-2.9l35,30.7l-65.1,28.7l3.4-5.8
		c2.6-4.5,5.2-9.3,7.9-14.2c0.5-1.1,0.7-2.2,0.4-3.4s-1.1-2-2.1-2.6c-0.7-0.4-1.4-0.5-2.1-0.5c-1.7,0-3.1,0.9-3.9,2.3
		c-22.8,42.9-52.1,83.3-75,113.5l-0.6,0.9H97.5c-2.5,0-4.4,1.9-4.4,4.4c0,2.5,1.9,4.4,4.4,4.4h134.1c2.5,0,4.4-1.9,4.4-4.4
		c0-2.5-1.9-4.4-4.4-4.4h-13.1v-41.1c0.4-19,16.1-34.5,35.1-34.5h0.5c19.1,0.4,34.2,15.6,34.5,34.6v41.1H275.4z M387.8,484.6h-81.4
		l53.1-38.9l1.3,1.8c7.1,10.2,15.3,21.5,24.3,33.6L387.8,484.6z M200.5,484.6h-81.4l2.7-3.5c10.2-13.7,17.4-23.6,24.3-33.6l1.3-1.8
		L200.5,484.6z M297.3,480.3v-36.8c0-6.6-1.5-13.2-4.2-18.9l-2.5-4.8l60.6,21.1L297.3,480.3z M209.4,480.2l-53.8-39.5l60.3-21
		l-2.1,4.8c-2.8,5.9-4.3,12.5-4.3,19V480.2z M157.5,430.8l3.5-5.4c3-4.6,6.3-9.6,10.2-15.9l0.4-0.4l0.4-0.5h50L157.5,430.8z
		 M349.2,430.7L285,408.4h49.9l0.6,1.1c3.3,5.1,6.7,10.5,10.2,15.8L349.2,430.7z M316.5,399.6h-58.7v-25.8L316.5,399.6z
		 M249.1,399.6h-58.7l58.7-25.8V399.6z M326.5,394.2l-64.9-28.6l35.1-30.6l1.2,2.9c7.3,17.1,15.9,34.1,25.3,50.4L326.5,394.2z
		 M257.8,357.2v-25h28.7L257.8,357.2z M249,357.2l-28.7-25H249L249,357.2L249,357.2z M291.7,323.3h-25.7l20-15.8l1.1,2.8
		c1,2.9,1.9,5.8,3,8.7L291.7,323.3z M240.8,323.3H215l1.2-2.9c1.2-2.8,2.1-5.8,3.1-8.5l0.5-1.4l0.9-3.1L240.8,323.3z M249,319.4
		l-22.2-18.5l22.2-21.4V319.4z M257.8,318.6v-39.1l22.3,21.3L257.8,318.6z M226.3,288.8l2-8.4c0.4-1.8,0.9-3.5,1.2-5.2l0.2-0.8
		l0.3-1h16.5l-8.5,4.1L226.3,288.8z M280.5,288.8l-16.2-15.3h12.4l0.4,1.7c0.2,0.8,0.4,1.6,0.5,2.3c0.4,1.3,0.6,2.7,1,4L280.5,288.8
		z M303,264.7h-99.3c-1.9,0-3.6-1.7-3.6-3.6v-28c0-2,1.6-3.6,3.6-3.6H303c1.9,0,3.6,1.7,3.6,3.6v28C306.7,263,305,264.7,303,264.7z
		 M270.7,220.6h-34.6v-34.2h34.6V220.6L270.7,220.6z M270.7,133.7h-34.6v-31.6h34.6V133.7L270.7,133.7z M281.3,93.3h-55.7V72.9h55.7
		V93.3L281.3,93.3z M219,239.9c-2.2,0-4,1.8-4,4v6.3c0,2.2,1.8,4,4,4c2.2,0,4-1.8,4-4v-6.3C223,241.7,221.2,239.9,219,239.9z
		 M253.4,239.9c-2.2,0-4,1.8-4,4v6.3c0,2.2,1.8,4,4,4c2.2,0,4-1.8,4-4v-6.3C257.4,241.7,255.6,239.9,253.4,239.9z M287.9,239.9
		c-2.2,0-4,1.8-4,4v6.3c0,2.2,1.8,4,4,4s4-1.8,4-4v-6.3C291.9,241.7,290.1,239.9,287.9,239.9z"/>
</g>
</svg>
