<?xml version="1.0" encoding="utf-8"?>
<!-- Generator: Adobe Illustrator 25.0.1, SVG Export Plug-In . SVG Version: 6.00 Build 0)  -->
<svg version="1.1" fill="#8052FD" id="Layer_1" xmlns="http://www.w3.org/2000/svg" xmlns:xlink="http://www.w3.org/1999/xlink" x="0px" y="0px"
	 viewBox="0 0 512 512" style="enable-background:new 0 0 512 512;" xml:space="preserve">

	
	


<g>
	<path d="M169.8,415.4h6.4c34.9,0,65.8-20.8,78.9-53.1c1.2-3,4.1-4.9,7.3-4.9h92.5c29.2,0,52.2-22.3,52.2-50.8V160.7
		c0-28.8-23.4-52.2-52.2-52.2H157.2c-28.8,0-52.2,23.4-52.2,52.2v145.9c0,28.5,22.9,50.8,52.2,50.8h7.3c2.9,0,5.2,2.3,5.2,5.2
		L169.8,415.4L169.8,415.4z M182.5,402.4v-39.8c0-9.9-8.1-17.9-17.9-17.9h-7.4c-22.1,0-39.5-16.7-39.5-38V160.8
		c0-21.8,17.7-39.5,39.5-39.5h197.6c21.8,0,39.5,17.7,39.5,39.5v145.9c0,21.3-17.3,38-39.5,38h-92.5c-8.5,0-15.9,5.1-19.1,12.8
		c-10.2,25.1-33.2,42.3-60,44.8L182.5,402.4z M234,264.8h38.3l-2,22.6c-0.1,1.8,0.4,3.5,1.6,4.8c1.2,1.3,2.8,2,4.6,2h0.1
		c3.3,0,5.9-2.5,6.3-5.7l2.1-23.7h23.6c3.3,0,6-2.5,6.3-5.7V259c0.1-1.8-0.4-3.5-1.6-4.8c-1.2-1.3-2.8-2-4.6-2h-22.5l3.3-38.3h23.6
		c3.3,0,6-2.5,6.3-5.7V208c0.1-1.8-0.4-3.5-1.6-4.8c-1.2-1.3-2.8-2-4.6-2h-22.5l2-22.6c0.1-1.8-0.4-3.5-1.6-4.8
		c-1.2-1.3-2.8-2-4.6-2h-0.1c-3.3,0-5.9,2.5-6.3,5.7l-2.1,23.7h-38.3l2-22.6c0.1-1.8-0.4-3.5-1.6-4.8s-2.8-2-4.6-2h-0.1
		c-3.3,0-5.9,2.5-6.3,5.7l-2.1,23.7h-23.6c-3.3,0-6,2.5-6.3,5.7v0.1c-0.1,1.8,0.4,3.5,1.6,4.8c1.2,1.3,2.8,2,4.6,2h22.5l-3.3,38.3
		h-23.6c-3.3,0-6,2.5-6.3,5.7v0.1c-0.1,1.8,0.4,3.5,1.6,4.8c1.2,1.3,2.8,2,4.6,2h22.5l-2,22.6c-0.1,1.8,0.4,3.5,1.6,4.8
		c1.2,1.3,2.8,2,4.6,2h0.1c3.3,0,5.9-2.5,6.3-5.7L234,264.8z M273.5,252.1h-38.3l3.3-38.3h38.3L273.5,252.1z"/>
</g>
</svg>
