<?xml version="1.0" encoding="utf-8"?>
<!-- Generator: Adobe Illustrator 26.3.1, SVG Export Plug-In . SVG Version: 6.00 Build 0)  -->
<svg version="1.1" id="Capa_1" xmlns="http://www.w3.org/2000/svg" xmlns:xlink="http://www.w3.org/1999/xlink" x="0px" y="0px"
	 viewBox="0 0 512 512" style="enable-background:new 0 0 512 512;" xml:space="preserve">
<style type="text/css">
	.st0{fill-rule:evenodd;clip-rule:evenodd;fill:#8052FD;}
</style>
<path class="st0" d="M310.8,87.4c2.9-1.2,6.3-0.5,8.6,1.7l47.2,47.2c3.1,3.1,3.1,8.1,0,11.1l-15.7,15.7l-11.1-11.1l10.2-10.2
	l-28.2-28.2v12.5c0,4.3-3.5,7.9-7.9,7.9h-94.4v-15.7H306V94.7C306,91.5,307.9,88.6,310.8,87.4z M140.7,118.3h23.6V134h-23.6V118.3z
	 M180.1,118.3h23.6V134h-23.6V118.3z M74.6,165.5h23.6v15.7H74.6V165.5z M109.2,181.2c0-8.7,7-15.7,15.7-15.7h228.2
	c8.7,0,15.7,7,15.7,15.7V315c0,8.7-7,15.7-15.7,15.7H125c-8.7,0-15.7-7-15.7-15.7V181.2z M353.2,181.2H125v63h228.2V181.2z
	 M353.2,259.9H125v15.7h228.2V259.9z M353.2,291.4H125V315h228.2V291.4z M56.5,240.3h41.7V256H56.5V240.3z M74.6,275.7h23.6v15.7
	H74.6V275.7z M381.1,323.7c2.7-1.3,5.9-1,8.2,0.7l63,47.2c2.1,1.6,3.3,4,3.1,6.6c-0.1,2.6-1.5,5-3.7,6.3l-63,39.3
	c-2.4,1.5-5.5,1.6-8,0.2c-2.5-1.4-4.1-4-4.1-6.9v-15.7H164.3v-15.7h220.3c4.3,0,7.9,3.5,7.9,7.9v9.4l41.2-25.7l-41.2-30.9v7.9
	c0,4.3-3.5,7.9-7.9,7.9H172.2v-15.7h204.6v-15.7C376.8,327.8,378.5,325.1,381.1,323.7z M85.6,385.8h23.6v15.7H85.6V385.8z
	 M125,385.8h23.6v15.7H125V385.8z"/>
</svg>
