<?xml version="1.0" encoding="utf-8"?>
<!-- Generator: Adobe Illustrator 25.0.1, SVG Export Plug-In . SVG Version: 6.00 Build 0)  -->
<svg version="1.1" fill="#8052FD" id="Capa_1" xmlns="http://www.w3.org/2000/svg" xmlns:xlink="http://www.w3.org/1999/xlink" x="0px" y="0px"
	 viewBox="0 0 209.9 209.9" style="enable-background:new 0 0 209.9 209.9;" xml:space="preserve">

	
	


<g>
	<g>
		<path d="M93.3,150.9c-5.8-1.3-11.2-3.6-16.1-6.8c-1-0.7-2.4-0.4-3.1,0.7c-0.7,1-0.4,2.4,0.7,3.1
			c5.4,3.5,11.3,6,17.6,7.5c0.2,0.1,0.3,0.1,0.5,0.1c1,0,2-0.7,2.2-1.8C95.3,152.4,94.5,151.2,93.3,150.9z"/>
	</g>
</g>
<g>
	<g>
		<path d="M62.3,128.8c-3.1-5.1-5.3-10.6-6.4-16.4c-0.3-1.2-1.4-2-2.6-1.8c-1.2,0.3-2,1.4-1.8,2.6
			c1.2,6.4,3.6,12.4,7,17.9c0.4,0.7,1.2,1,1.9,1c0.4,0,0.8-0.1,1.2-0.3C62.6,131.2,62.9,129.8,62.3,128.8z"/>
	</g>
</g>
<g>
	<g>
		<path d="M62.4,72.6c-1-0.7-2.4-0.4-3.1,0.7C56,78.4,53.5,84.1,52,90c-0.3,1.2,0.5,2.4,1.6,2.7
			c0.2,0.1,0.3,0.1,0.5,0.1c1,0,1.9-0.7,2.2-1.7c1.3-5.5,3.6-10.7,6.8-15.4C63.8,74.7,63.4,73.3,62.4,72.6z"/>
	</g>
</g>
<g>
	<g>
		<path d="M95.4,52c-0.3-1.2-1.4-2-2.7-1.7c-6,1.3-11.7,3.6-17,6.9c-1,0.7-1.4,2-0.7,3.1c0.4,0.7,1.2,1,1.9,1
			c0.4,0,0.8-0.1,1.2-0.3c4.8-3,10-5.1,15.5-6.4C94.9,54.5,95.6,53.3,95.4,52z"/>
	</g>
</g>
<g>
	<g>
		<path d="M132.4,57.2c-5.2-3.2-10.8-5.5-16.8-6.8c-1.2-0.3-2.4,0.5-2.7,1.7c-0.3,1.2,0.5,2.4,1.7,2.7
			c5.4,1.2,10.6,3.3,15.4,6.2c0.4,0.2,0.8,0.3,1.2,0.3c0.7,0,1.5-0.4,1.9-1C133.8,59.2,133.5,57.8,132.4,57.2z"/>
	</g>
</g>
<g>
	<g>
		<path d="M156.4,90.2c-1.4-6.1-4-11.9-7.5-17.1c-0.7-1-2.1-1.3-3.1-0.7c-1,0.7-1.3,2.1-0.7,3.1
			c3.2,4.8,5.5,10.1,6.8,15.7c0.3,1,1.2,1.7,2.2,1.7c0.2,0,0.3,0,0.5-0.1C156,92.7,156.7,91.5,156.4,90.2z"/>
	</g>
</g>
<g>
	<g>
		<g>
			<path d="M104.2,92.1c-5.9,0-10.8,4.8-10.8,10.8s4.8,10.8,10.8,10.8s10.8-4.8,10.8-10.8S110.1,92.1,104.2,92.1z
				 M104.2,109.1c-3.5,0-6.2-2.8-6.2-6.2s2.8-6.2,6.2-6.2c3.4,0,6.2,2.8,6.2,6.2S107.6,109.1,104.2,109.1z"/>
			<path d="M130.8,95.7h-1.1c-0.6-2.1-1.4-4.1-2.5-6L128,89c1.8-1.8,1.8-4.8,0-6.6l-3.3-3.3c-1.8-1.8-4.8-1.8-6.6,0
				l-0.8,0.8c-1.9-1-3.9-1.9-6-2.5v-1.1c0-2.6-2.1-4.7-4.7-4.7h-4.8c-2.6,0-4.7,2.1-4.7,4.7v1.1c-2.1,0.6-4.1,1.4-6,2.5L90.3,79
				c-0.9-0.9-2.1-1.4-3.3-1.4s-2.4,0.5-3.3,1.4l-3.3,3.3c-0.9,0.9-1.4,2.1-1.4,3.3s0.5,2.4,1.4,3.3l0.8,0.8c-1,1.9-1.9,3.9-2.5,6
				h-1.1c-2.6,0-4.7,2.1-4.7,4.7v4.8c0,2.6,2.1,4.7,4.7,4.7h1.1c0.6,2.1,1.4,4.1,2.5,6l-0.8,0.8c-0.9,0.9-1.4,2.1-1.4,3.3
				c0,1.2,0.5,2.4,1.4,3.3l3.3,3.3c1.8,1.8,4.8,1.8,6.6,0L91,126c1.9,1,3.9,1.9,6,2.5v1.1c0,2.6,2.1,4.7,4.7,4.7h4.8
				c2.6,0,4.7-2.1,4.7-4.7v-1.1c2.1-0.6,4.1-1.4,6-2.5l0.8,0.8c1.8,1.8,4.8,1.8,6.6,0l3.3-3.3c1.8-1.8,1.8-4.8,0-6.6l-0.8-0.8
				c1-1.9,1.9-3.9,2.5-6h1.1c2.6,0,4.7-2.1,4.7-4.7v-4.8C135.5,97.9,133.4,95.7,130.8,95.7z M131.1,105.2c0,0.1-0.1,0.2-0.2,0.2H128
				c-1,0-2,0.7-2.2,1.8c-0.6,2.8-1.6,5.4-3.2,7.7c-0.6,0.9-0.5,2.1,0.3,2.8l2,2c0.1,0.1,0.1,0.3,0,0.3l-3.3,3.3
				c-0.1,0.1-0.3,0.1-0.3,0l-2-2c-0.7-0.7-1.9-0.9-2.8-0.3c-2.4,1.6-5,2.6-7.7,3.2c-1,0.2-1.8,1.1-1.8,2.2v2.9
				c0,0.1-0.1,0.2-0.2,0.2h-4.8c-0.1,0-0.2-0.1-0.2-0.2v-2.9c0-1-0.7-2-1.8-2.2c-2.8-0.6-5.4-1.6-7.7-3.2c-0.4-0.3-0.8-0.4-1.2-0.4
				c-0.6,0-1.2,0.2-1.6,0.7l-2,2c-0.1,0.1-0.3,0.1-0.3,0l-3.3-3.3c-0.1-0.1-0.1-0.3,0-0.3l2-2c0.7-0.7,0.9-1.9,0.3-2.8
				c-1.6-2.4-2.6-5-3.2-7.7c-0.2-1-1.1-1.8-2.2-1.8h-2.9c-0.1,0-0.2-0.1-0.2-0.2v-4.8c0-0.1,0.1-0.2,0.2-0.2h2.9c1,0,2-0.7,2.2-1.8
				c0.6-2.8,1.6-5.4,3.2-7.7c0.6-0.9,0.5-2.1-0.3-2.8l-2-2c-0.1-0.1-0.1-0.3,0-0.3l3.3-3.3c0.1-0.1,0.3-0.1,0.3,0l2,2
				c0.7,0.7,1.9,0.9,2.8,0.3c2.4-1.6,5-2.6,7.7-3.2c1-0.2,1.8-1.1,1.8-2.2v-2.9c0-0.1,0.1-0.2,0.2-0.2h4.8c0.1,0,0.2,0.1,0.2,0.2
				v2.8c0,1,0.7,2,1.8,2.2c2.8,0.6,5.4,1.6,7.7,3.2c0.9,0.6,2.1,0.5,2.8-0.3l2-2c0.1-0.1,0.3-0.1,0.3,0l3.3,3.3
				c0.1,0.1,0.1,0.3,0,0.3l-2,2c-0.7,0.7-0.9,1.9-0.3,2.8c1.6,2.4,2.6,5,3.2,7.7c0.2,1,1.1,1.8,2.2,1.8h2.9c0.1,0,0.2,0.1,0.2,0.2
				V105.2z"/>
		</g>
	</g>
</g>
<g>
	<g>
		<path d="M104.2,35.7c-7.4,0-13.4,6-13.4,13.4s6,13.4,13.4,13.4c7.4,0,13.4-6,13.4-13.4
			C117.6,41.7,111.6,35.7,104.2,35.7z M104.2,58.1c-4.9,0-9-4-9-9s4-9,9-9c5,0,9,4,9,9C113.1,54.1,109.1,58.1,104.2,58.1z"/>
	</g>
</g>
<g>
	<g>
		<path d="M104.2,140.9c-7.4,0-13.4,6-13.4,13.4s6,13.4,13.4,13.4c7.4,0,13.4-6,13.4-13.4S111.6,140.9,104.2,140.9z
			 M104.2,163.3c-4.9,0-9-4-9-9c0-5,4-9,9-9c5,0,9,4,9,9C113.1,159.3,109.1,163.3,104.2,163.3z"/>
	</g>
</g>
<g>
	<g>
		<path d="M156.8,88.3c-7.4,0-13.4,6-13.4,13.4s6,13.4,13.4,13.4c7.4,0,13.4-6,13.4-13.4S164.2,88.3,156.8,88.3z
			 M156.8,110.7c-4.9,0-9-4-9-9c0-5,4-9,9-9c5,0,9,4,9,9C165.8,106.7,161.7,110.7,156.8,110.7z"/>
	</g>
</g>
<g>
	<g>
		<path d="M51.6,88.3c-7.4,0-13.4,6-13.4,13.4c0,7.3,6,13.4,13.4,13.4s13.4-6,13.4-13.4C65,94.3,59,88.3,51.6,88.3z
			 M51.6,110.7c-4.9,0-9-4-9-9c0-5,4.1-8.9,9-8.9s9,4,9,9C60.5,106.8,56.5,110.7,51.6,110.7z"/>
	</g>
</g>
<g>
	<g>
		<path d="M150.9,55c-2.6-2.6-5.9-3.9-9.5-3.9c-3.6,0-7,1.4-9.5,3.9c-5.2,5.2-5.2,13.8,0,19c2.6,2.6,5.9,3.9,9.5,3.9
			c3.6,0,7-1.4,9.5-3.9c2.6-2.6,3.9-5.9,3.9-9.5C154.8,61,153.4,57.6,150.9,55z M147.7,70.9c-3.5,3.5-9.2,3.5-12.7,0
			c-3.5-3.5-3.5-9.2,0-12.7c1.8-1.8,4.1-2.6,6.4-2.6s4.6,0.9,6.4,2.6C151.2,61.7,151.2,67.4,147.7,70.9z"/>
	</g>
</g>
<g>
	<g>
		<path d="M76.5,129.5c-2.6-2.6-5.9-3.9-9.5-3.9c-3.6,0-7,1.4-9.5,3.9c-2.6,2.6-3.9,5.9-3.9,9.5c0,3.6,1.4,7,3.9,9.5
			c2.6,2.6,6,3.9,9.5,3.9c3.5,0,6.9-1.3,9.5-3.9C81.7,143.2,81.7,134.7,76.5,129.5z M73.3,145.3c-3.5,3.5-9.2,3.5-12.7,0
			c-3.5-3.5-3.5-9.2,0-12.7c1.8-1.8,4.1-2.6,6.4-2.6c2.3,0,4.6,0.9,6.4,2.6C76.8,136.1,76.8,141.8,73.3,145.3z"/>
	</g>
</g>
<g>
	<g>
		<path d="M76.5,55c-5.2-5.2-13.8-5.2-19,0c-2.6,2.6-3.9,5.9-3.9,9.5s1.4,7,3.9,9.5C60,76.6,63.4,78,67,78
			c3.6,0,7-1.4,9.5-3.9C81.7,68.8,81.7,60.2,76.5,55z M73.3,70.9c-3.5,3.5-9.2,3.5-12.7,0c-3.5-3.5-3.5-9.2,0-12.7
			c1.8-1.8,4.1-2.6,6.4-2.6c2.3,0,4.6,0.9,6.4,2.6C76.8,61.7,76.8,67.4,73.3,70.9z"/>
	</g>
</g>
<g>
	<g>
		<path d="M153.4,149.9c-1.2,0-2.2,1-2.2,2.2v4.5c0,1.2,1,2.2,2.2,2.2s2.2-1,2.2-2.2v-4.5
			C155.7,150.9,154.7,149.9,153.4,149.9z"/>
	</g>
</g>
<g>
	<g>
		<path d="M153.4,127.5c-1.2,0-2.2,1-2.2,2.2v11.2c0,1.2,1,2.2,2.2,2.2s2.2-1,2.2-2.2v-11.2
			C155.7,128.5,154.7,127.5,153.4,127.5z"/>
	</g>
</g>
<g>
	<g>
		<path d="M153.4,111.8c-1.2,0-2.2,1-2.2,2.2v4.5c0,1.2,1,2.2,2.2,2.2s2.2-1,2.2-2.2V114
			C155.7,112.8,154.7,111.8,153.4,111.8z"/>
	</g>
</g>
<g>
	<g>
		<path d="M160.1,149.9c-1.2,0-2.2,1-2.2,2.2v4.5c0,1.2,1,2.2,2.2,2.2c1.2,0,2.2-1,2.2-2.2v-4.5
			C162.3,150.9,161.4,149.9,160.1,149.9z"/>
	</g>
</g>
<g>
	<g>
		<path d="M160.1,127.5c-1.2,0-2.2,1-2.2,2.2v11.2c0,1.2,1,2.2,2.2,2.2c1.2,0,2.2-1,2.2-2.2v-11.2
			C162.3,128.5,161.4,127.5,160.1,127.5z"/>
	</g>
</g>
<g>
	<g>
		<path d="M160.1,111.8c-1.2,0-2.2,1-2.2,2.2v4.5c0,1.2,1,2.2,2.2,2.2c1.2,0,2.2-1,2.2-2.2V114
			C162.3,112.8,161.4,111.8,160.1,111.8z"/>
	</g>
</g>
<g>
	<g>
		<path d="M175.2,152.8c-0.9-0.9-2.2-1-3.1-0.1L156.8,167l-15.3-14.2c-0.9-0.9-2.3-0.8-3.1,0.1
			c-0.9,0.9-0.8,2.3,0.1,3.1l16.8,15.7c0.5,0.4,1,0.6,1.5,0.6c0.5,0,1.1-0.2,1.5-0.6l16.8-15.7C176,155.2,176.1,153.7,175.2,152.8z"
			/>
	</g>
</g>
</svg>
