<?xml version="1.0" encoding="utf-8"?>
<!-- Generator: Adobe Illustrator 25.0.1, SVG Export Plug-In . SVG Version: 6.00 Build 0)  -->
<svg version="1.1" fill="#8052FD" id="Layer_1" xmlns="http://www.w3.org/2000/svg" xmlns:xlink="http://www.w3.org/1999/xlink" x="0px" y="0px"
	 viewBox="0 0 158.5 158.5" style="enable-background:new 0 0 158.5 158.5;" xml:space="preserve">

	
	


<g transform="translate(3 3)">
	<g>
		<path d="M112.7,56.2c0,0-0.1,0-0.1,0c-1.8,0-3.9-1.1-5.4-2.8l-0.4-0.4c-2.7-2.9-3.2-6.7-1.2-8.6l5.6-5.3
			c1.3-1.2,3-1.9,4.8-1.8c1.9,0,3.7,0.9,5,2.3l0.4,0.4c2.7,2.8,2.6,7.2-0.1,9.8l-5.6,5.3C114.8,55.8,113.8,56.2,112.7,56.2z
			 M115.6,40.8c-0.8,0-1.6,0.3-2.2,0.9l-5.6,5.3c-0.4,0.4-0.2,2.1,1.3,3.7l0.4,0.4l0,0c1.1,1.2,2.3,1.6,3,1.7c0.1,0,0.4,0,0.5-0.1
			l5.5-5.3c1.3-1.3,1.3-3.5,0-4.9l-0.4-0.4C117.6,41.2,116.7,40.8,115.6,40.8C115.7,40.8,115.7,40.8,115.6,40.8z"/>
	</g>
	<g>
		<path d="M63.3,131.1c-0.4,0-0.9-0.2-1.2-0.5c-0.7-0.7-0.7-1.8,0-2.5c0.2-0.2,4.3-4.4,6.6-6.6c0.4-0.3,0.8-0.5,1.3-0.5
			c15,1.1,21.5-7.9,24-11.3c0.3-0.5,0.6-0.8,0.9-1.1c0.6-0.7,1.7-0.8,2.5-0.2c0.7,0.6,0.8,1.7,0.2,2.5c-0.1,0.2-0.4,0.5-0.7,0.9
			c-2.7,3.8-9.9,13.7-26.3,12.8c-2.3,2.2-5.9,5.9-6,6C64.2,130.9,63.8,131.1,63.3,131.1z"/>
	</g>
	<g>
		<path d="M113,99.6c-1.6,0-3.4-0.8-4.9-2.1c0,0,0,0,0,0l-0.4-0.3c-2.8-2.4-3.6-6-1.8-8l4.7-5.5
			c1.1-1.3,2.7-2.1,4.4-2.2c1.8-0.1,3.5,0.5,4.8,1.6l0.4,0.3c2.7,2.4,3.1,6.6,0.8,9.3l-4.7,5.5c-0.7,0.8-1.7,1.3-2.8,1.4
			C113.3,99.6,113.2,99.6,113,99.6z M110.4,94.9c1.1,0.9,2.1,1.2,2.7,1.2c0.1,0,0.3,0,0.4-0.1l4.7-5.5c1.1-1.3,0.9-3.3-0.4-4.4
			l-0.4-0.3c-0.6-0.6-1.4-0.8-2.3-0.8c-0.8,0.1-1.5,0.4-2,1l-4.7,5.5c-0.3,0.3-0.1,1.8,1.5,3.1L110.4,94.9z"/>
	</g>
	<g>
		<path d="M63.3,115.7c-0.2,0-0.4,0-0.6-0.1c-0.9-0.3-1.4-1.3-1.1-2.2c5.1-14.5-0.3-26.8-4.2-31.8
			c-0.4-0.5-0.5-1.1-0.3-1.6c1.8-5.6,2.6-9.5,3.3-16.4c0.3-2.8-0.7-5.7-2.7-8.6c-0.6-0.8-1.6-0.9-2.3-0.8c-0.3,0-1.3,0.3-1.6,1.2
			c-1.4,4.3-2.3,7.5-3.1,10.1c-1.4,4.8-2.3,7.7-3.9,11.8c-1.4,3.8-1.6,8.6-1.7,12.5c-0.1,3.1-0.1,5.6-0.8,7.1
			c-0.3,0.6-3.5,5.7-5.4,8.7c-0.5,0.8-1.6,1.1-2.4,0.5c-0.8-0.5-1.1-1.6-0.5-2.4c2.3-3.7,4.9-7.9,5.2-8.4c0.4-0.8,0.4-3.3,0.5-5.6
			c0.1-4.1,0.2-9.3,1.9-13.6c1.5-3.9,2.3-6.6,3.8-11.5c0.8-2.6,1.8-5.8,3.1-10.2c0.6-1.9,2.3-3.3,4.4-3.6c2.3-0.4,4.4,0.5,5.7,2.2
			c2.6,3.6,3.7,7.3,3.4,10.9c-0.6,6.8-1.4,10.9-3.2,16.3c4.3,6,9.5,19.1,4.2,34.4C64.7,115.2,64,115.7,63.3,115.7z"/>
	</g>
	<g>
		<path d="M113.3,84.9c-1.6,0-3.5-0.7-5.1-2l-0.4-0.3c-1.7-1.4-2.8-3.3-2.9-5.1c-0.1-1.2,0.2-2.2,1-3l4.9-5.5
			c2.4-2.7,6.7-3,9.5-0.6l0.4,0.3c1.4,1.2,2.3,2.8,2.4,4.6c0.1,1.7-0.4,3.4-1.6,4.7l-4.9,5.5C115.8,84.5,114.7,84.9,113.3,84.9z
			 M115.8,70.2c-0.9,0-1.8,0.3-2.4,1l-4.9,5.5c-0.1,0.1-0.1,0.4-0.1,0.5c0,0.6,0.5,1.7,1.7,2.6l0.4,0.3c0,0,0,0,0,0
			c1.5,1.3,3.2,1.4,3.5,1l4.9-5.5c0.5-0.6,0.8-1.3,0.7-2.1c-0.1-0.9-0.5-1.6-1.2-2.2l-0.4-0.3C117.4,70.5,116.6,70.2,115.8,70.2z"/>
	</g>
	<g>
		<path d="M113.3,70.2c-1.6,0-3.5-0.7-5.1-2l-0.4-0.3c-1.7-1.4-2.8-3.3-2.9-5.1c-0.1-1.2,0.2-2.2,1-3l4.9-5.5
			c2.4-2.7,6.7-3,9.5-0.6l0.4,0.3c1.4,1.2,2.3,2.8,2.4,4.6c0.1,1.7-0.4,3.4-1.6,4.7l-4.9,5.5C115.8,69.8,114.7,70.2,113.3,70.2z
			 M115.9,55.5c-0.9,0-1.8,0.3-2.4,1l-4.9,5.5c-0.1,0.1-0.1,0.4-0.1,0.5c0,0.6,0.5,1.7,1.7,2.6l0.4,0.3c0,0,0,0,0,0
			c1.5,1.3,3.2,1.4,3.5,1l4.9-5.5c0.5-0.6,0.8-1.3,0.7-2.1c-0.1-0.9-0.5-1.6-1.2-2.2l-0.4-0.3C117.4,55.8,116.6,55.5,115.9,55.5z"/>
	</g>
	<g>
		<path d="M87.1,104.2h-7c-1,0-1.8-0.8-1.8-1.8s0.8-1.8,1.8-1.8h7c1,0,1.8,0.8,1.8,1.8S88.1,104.2,87.1,104.2z"/>
	</g>
	<g>
		<path d="M56.3,54.1c-1,0-1.8-0.8-1.8-1.8V29.2c0-4.8,3.9-8.7,8.8-8.7h39.8c4.8,0,8.8,3.9,8.8,8.7v11.6
			c0,1-0.8,1.8-1.8,1.8s-1.8-0.8-1.8-1.8V29.2c0-2.9-2.4-5.2-5.3-5.2H63.3c-2.9,0-5.3,2.3-5.3,5.2v23.2
			C58.1,53.3,57.3,54.1,56.3,54.1z"/>
	</g>
	<g>
		<path d="M103.5,111.5H65.4c-1,0-1.8-0.8-1.8-1.8s0.8-1.8,1.8-1.8h38.1c2.7,0,5-2.4,5-5.4v-4.8c0-1,0.8-1.8,1.8-1.8
			s1.8,0.8,1.8,1.8v4.8C112,107.5,108.2,111.5,103.5,111.5z"/>
	</g>
	<g>
		<path d="M63.3,132.5c-0.4,0-0.9-0.2-1.2-0.5l-29.6-29.6l-9.4,9.4l17.7,17.7c0.7,0.7,0.7,1.8,0,2.5
			c-0.7,0.7-1.8,0.7-2.5,0l-19-19c-0.3-0.3-0.5-0.8-0.5-1.2c0-0.5,0.2-0.9,0.5-1.2l11.9-11.8c0.7-0.7,1.8-0.7,2.5,0l30.8,30.8
			c0.7,0.7,0.7,1.8,0,2.5C64.2,132.3,63.7,132.5,63.3,132.5z"/>
	</g>
	<g>
		<path d="M34.6,115.7c-0.4,0-0.9-0.2-1.2-0.5l-2.1-2.1c-0.7-0.7-0.7-1.8,0-2.5c0.7-0.7,1.8-0.7,2.5,0l2.1,2.1
			c0.7,0.7,0.7,1.8,0,2.5C35.5,115.5,35,115.7,34.6,115.7z"/>
	</g>
	<g>
		<path d="M96.2,59H72.4c-1,0-1.8-0.8-1.8-1.8v-21c0-1,0.8-1.8,1.8-1.8h16.7c1,0,1.8,0.8,1.8,1.8S90,38,89.1,38H74.2
			v17.5h20.3v-9.9c0-1,0.8-1.8,1.8-1.8s1.8,0.8,1.8,1.8v11.7C98,58.2,97.2,59,96.2,59z"/>
	</g>
	<g>
		<path d="M84.2,52.7c-0.1,0-0.1,0-0.2,0c-0.5-0.1-1-0.3-1.3-0.8l-4.8-7.1c-0.5-0.8-0.3-1.9,0.5-2.4
			c0.8-0.5,1.9-0.3,2.4,0.5l3.6,5.4L95,37.8c0.7-0.7,1.8-0.7,2.5,0c0.7,0.7,0.7,1.8,0,2.5l-12,11.9C85.1,52.5,84.7,52.7,84.2,52.7z"
			/>
	</g>
	<g>
		<path d="M96.2,92.6H72.4c-1,0-1.8-0.8-1.8-1.8v-21c0-1,0.8-1.8,1.8-1.8h16.7c1,0,1.8,0.8,1.8,1.8s-0.8,1.8-1.8,1.8
			H74.2v17.5h20.3v-9.9c0-1,0.8-1.8,1.8-1.8s1.8,0.8,1.8,1.8v11.7C98,91.8,97.2,92.6,96.2,92.6z"/>
	</g>
	<g>
		<path d="M84.2,85.6c-0.1,0-0.1,0-0.2,0c-0.5-0.1-1-0.3-1.3-0.8l-4.8-7.1c-0.5-0.8-0.3-1.9,0.5-2.4
			c0.8-0.5,1.9-0.3,2.4,0.5l3.6,5.4L95,70.7c0.7-0.7,1.8-0.7,2.5,0c0.7,0.7,0.7,1.8,0,2.5l-12,11.9C85.1,85.4,84.7,85.6,84.2,85.6z"
			/>
	</g>
</g>
</svg>
