<?xml version="1.0" encoding="utf-8"?>
<!-- Generator: Adobe Illustrator 25.0.1, SVG Export Plug-In . SVG Version: 6.00 Build 0)  -->
<svg version="1.1" fill="#8052FD" id="Capa_1" xmlns="http://www.w3.org/2000/svg" xmlns:xlink="http://www.w3.org/1999/xlink" x="0px" y="0px"
	 viewBox="0 0 512 512" style="enable-background:new 0 0 512 512;" xml:space="preserve">

	
	


<g id="Layer_1_1_">
</g>
<g>
	<path d="M212.4,217.3h87.1c9.2,0,16.7-7.5,16.7-16.6v-56.1c-0.2-7.6-5.7-14.3-13-16V103c0-26-21.3-47.2-47.4-47.2
		s-47.4,21.2-47.4,47.2v25.5c-7.3,1.7-12.9,8.5-12.9,16.1v56.1C195.7,209.9,203.2,217.3,212.4,217.3z M299.4,138.4
		c3.6,0,6.4,3,6.4,6.3v56.1c0.2,3.3-2.9,6.3-6.4,6.3h-87.1c-3.6,0-6.4-3-6.4-6.3v-56.1c0-3.6,3-6.3,6.4-6.3H299.4z M255.8,70.9
		c-17.7,0-32.1,14.3-32.1,31.9v27.7h-4.8v-27.8h-0.2c0-20.3,16.7-37,37.1-37c20.4,0,37.1,16.6,37.1,37v27.7h-5.2v-27.7
		C287.8,85.2,273.5,70.9,255.8,70.9z M277.6,102.8v25.1h-43.5v-25.1c0-11.9,9.8-21.6,21.7-21.6c5.7,0,11,2.2,15.1,6.4l0.1,0.1
		C275.3,91.7,277.6,96.9,277.6,102.8z"/>
	<path d="M244.4,176.9v8.5c0,6.2,5.2,11.3,11.4,11.3s11.4-5.2,11.4-11.3v-8.6c3.2-3.3,5.1-7.6,5.1-11.7
		c0.2-4.3-1.4-8.5-4.5-11.6c-3.1-3.3-7.3-5.1-12-5.1c-9.2,0-16.7,7.5-16.7,16.6C239.2,169.5,241.1,173.9,244.4,176.9z M259.2,170.6
		c-1.3,0.6-1.9,1.9-1.9,3.4v11.5c0,0.6-0.6,1.2-1.3,1.2c-0.6,0-1.3-0.6-1.3-1.2V174c0-1.6-0.8-2.8-1.9-3.4c-1.9-1.1-3.1-3.1-3.1-5.4
		c0-3.6,3-6.3,6.4-6.3c3.6,0,6.4,3,6.4,6.3C262.3,167.2,261,169.2,259.2,170.6z"/>
	<path d="M420.1,314.5c-2.4-30.4-26-53.9-54.2-53.9c-16.9,0-33.1,8.4-43.6,22.5c-0.2-0.1-0.2-0.1-0.4-0.2
		c-0.2-0.1-0.5-0.2-0.7-0.3c-0.5-0.2-1-0.5-1.6-0.6c-0.2-0.1-0.3-0.1-0.5-0.2c-0.4-0.2-0.8-0.3-1.4-0.5c-0.2-0.1-0.5-0.2-0.6-0.2
		H317l-0.2-0.2l-0.4-0.1c-0.2-0.1-0.5-0.1-0.6-0.2c-0.5-0.2-1-0.3-1.7-0.3l0,0c-0.2-0.1-0.5-0.2-0.9-0.2c-1.2-0.2-2.3-0.2-3.3-0.2
		c-16.5,0-29.9,14.3-29.9,31.9l0,0c-13,8.2-21.6,24.1-21.6,40.2C258.3,377,277,397,300,397h108.3c21.6,0,39.3-18.8,39.3-41.9
		C448,336.6,436.6,319.8,420.1,314.5z M408.8,386H300.6c-17.2,0-31.1-15.1-31.1-33.6c0-12.9,7.8-26.2,18.6-31.9l2.9-1.6v-6.6
		c0-11.6,8.7-21,19.4-21c0.8,0,1.7,0,2.5,0.2h0.3l0.2,0.1l0.3,0.1c0.8,0.2,1.4,0.3,2.1,0.5l0.3,0.1h0.2c0.1,0,0.2,0.1,0.3,0.1
		c0.5,0.2,0.9,0.4,1.3,0.6l0.1,0.1l0.1,0.2l0.8,0.5c0.6,0.3,1.3,0.7,1.9,1.1c5.4,3.8,8.9,10.6,8.9,17.6c0,3.1,2.4,5.6,5.4,5.6
		s5.4-2.5,5.4-5.6c0-8.7-3.3-16.9-9.1-22.8c8.5-11,21.6-17.9,34.8-17.9c21.7,0,40.2,17.9,43.1,41.3c-3-0.1-6.7-0.1-10.4,0.6h-0.1
		c-2.9,0.7-4.7,3.3-4.3,6.3c0.2,2.7,2.5,4.9,5.1,4.9h0.5h0.4c3.8-0.7,8.2-0.7,13.2-0.1c0.2,0,0.3,0,0.4,0.1
		c13.2,2.7,23.2,16,23.2,30.8c0,8.2-3.3,16.3-9,22C422.9,383,416,386,408.8,386z"/>
	<path d="M226.2,314.5c-2.4-30.4-26-53.9-54.2-53.9c-16.9,0-33.1,8.4-43.6,22.5c-0.2-0.1-0.2-0.1-0.4-0.2
		c-0.2-0.1-0.5-0.2-0.7-0.3c-0.5-0.2-1-0.5-1.6-0.6c-0.2-0.1-0.3-0.1-0.5-0.2c-0.4-0.2-0.8-0.3-1.4-0.5c-0.2-0.1-0.5-0.2-0.6-0.2
		h-0.1l-0.2-0.2l-0.4-0.1c-0.2-0.1-0.5-0.1-0.6-0.2c-0.5-0.2-1-0.3-1.7-0.3l0,0c-0.2-0.1-0.5-0.2-0.9-0.2c-1.2-0.2-2.3-0.2-3.3-0.2
		c-16.5,0-29.9,14.3-29.9,31.9l0,0c-13,8.2-21.6,24.1-21.6,40.2c0,24.6,18.8,44.6,41.8,44.6h108.3c21.6,0,39.3-18.8,39.3-41.9
		C254,336.6,242.5,319.8,226.2,314.5z M140.9,318c3,0,5.4-2.5,5.4-5.6c0-8.7-3.3-16.9-9.1-22.8c8.5-11,21.7-17.9,34.9-17.9
		c21.7,0,40.2,17.9,43.1,41.3c-3-0.1-6.7-0.1-10.4,0.6h-0.1c-2.9,0.7-4.7,3.3-4.3,6.3c0.2,2.7,2.5,4.9,5.1,4.9h0.5h0.4
		c3.8-0.7,8.2-0.7,13.2-0.1c0.2,0,0.3,0,0.4,0.1c13.2,2.7,23.2,16,23.2,30.8c0,8.2-3.3,16.3-9,22c-5.4,5.4-12.3,8.3-19.4,8.3H106.6
		c-17.2,0-31.1-15.1-31.1-33.6c0-12.9,7.8-26.2,18.6-31.9l2.9-1.6v-6.6c0-11.6,8.7-21,19.4-21c0.8,0,1.7,0,2.5,0.2h0.3l0.2,0.1
		l0.3,0.1c0.8,0.2,1.4,0.3,2.1,0.5l0.3,0.1h0.2c0.1,0,0.2,0.1,0.3,0.1c0.5,0.2,0.9,0.4,1.3,0.6l0.1,0.1l0.1,0.2l0.8,0.5
		c0.6,0.3,1.3,0.7,1.9,1.1c5.4,3.8,8.9,10.6,8.9,17.6C135.5,315.4,137.9,318,140.9,318z"/>
	<path d="M335.1,183.7c3.6,0,6.5-3,6.5-6.5c0-3.5-3-6.4-6.5-6.4c-3.6,0-6.5,2.8-6.5,6.4
		C328.6,180.7,331.4,183.5,335.1,183.7z"/>
	<path d="M355.9,182.5l1,0.5c0.5,0.2,0.9,0.3,1.3,0.4c0.5,0.2,1,0.2,1.3,0.2c1.6,0,3.2-0.7,4.2-1.7c1.3-1.3,2-2.8,2-4.5
		c0-0.4,0-0.8-0.2-1.3c0-0.6-0.2-1-0.4-1.3l-0.5-0.9l-0.2-0.2c0-0.1-0.1-0.1-0.2-0.2c-0.1-0.2-0.2-0.4-0.5-0.6
		c-1.5-1.4-3.6-2.1-5.7-1.7c-0.7,0-1.1,0.2-1.4,0.4l-1.1,0.5l-0.1,0.2c0,0.1-0.2,0.2-0.2,0.2c-0.1,0.1-0.2,0.2-0.3,0.2
		c-0.4,0.2-0.8,0.6-1,1.1l-0.5,1c-0.1,0.2-0.2,0.5-0.2,0.7c0,0.2-0.1,0.3-0.1,0.5c-0.2,0.5-0.2,1.1-0.2,1.4c0,1.7,0.7,3.3,2,4.5
		C355.2,182,355.6,182.3,355.9,182.5z"/>
	<path d="M380.3,231.3l1,0.5c0.5,0.2,0.9,0.3,1.3,0.4c0.5,0.2,1,0.2,1.3,0.2c1.7,0,3.3-0.7,4.5-2c1.3-1.3,2-2.8,2-4.5
		c0-1.4-0.6-3.3-2-4.2c-1.3-1.2-2.8-1.9-4.5-1.9c-0.4,0-0.8,0-1.3,0.2c-0.6,0-1,0.2-1.3,0.4l-0.9,0.5l-0.2,0.2
		c-0.1,0-0.1,0.1-0.2,0.2c-0.2,0.1-0.4,0.2-0.6,0.5c-1.2,1.1-1.9,2.7-1.9,4.5c0,1.7,0.7,3.3,1.7,4.5
		C379.5,230.7,379.9,231.1,380.3,231.3z"/>
	<path d="M384,207.8c3.5,0,6.3-2.8,6.5-6.5c0-3.6-3-6.5-6.5-6.5c-3.5,0-6.4,3-6.4,6.5C377.6,205,380.4,207.8,384,207.8z
		"/>
	<path d="M378.2,179.8l0.5,1.1l0.2,0.1c0.1,0,0.2,0.2,0.2,0.2c0.1,0.1,0.2,0.2,0.2,0.3c0.2,0.4,0.6,0.8,1.1,1l1,0.5
		c0.2,0.1,0.5,0.2,0.7,0.2c0.2,0,0.3,0.1,0.5,0.2c0.5,0.2,1.1,0.2,1.4,0.2c1.7,0,3.3-0.7,4.5-2c0.2-0.2,0.5-0.5,0.8-0.9l0.5-1
		c0.2-0.5,0.3-0.9,0.4-1.3c0.2-0.5,0.2-1,0.2-1.3c0-1.7-0.6-3.3-1.7-4.2c-1.3-1.3-2.8-2-4.5-2c-0.4,0-0.8,0-1.3,0.2
		c-0.6,0-1,0.2-1.3,0.4l-0.9,0.5l-0.2,0.2c-0.1,0-0.1,0.1-0.2,0.2c-0.2,0.1-0.4,0.2-0.6,0.5c-1.4,1.5-2.1,3.6-1.7,5.7
		C377.9,179.1,378.1,179.4,378.2,179.8z"/>
	<path d="M380.1,255.7l1,0.5c0.5,0.2,0.9,0.3,1.3,0.4c0.5,0.2,1,0.2,1.3,0.2c1.7,0,3.3-0.7,4.5-2s2-2.8,2-4.5
		c0-1.7-0.8-3.4-2-4.2c-1.3-1.2-2.8-1.9-4.5-1.9c-0.4,0-0.8,0-1.3,0.2c-0.6,0-1,0.2-1.3,0.4l-0.9,0.5l-0.2,0.2
		c-0.1,0-0.1,0.1-0.2,0.2c-0.2,0.1-0.4,0.2-0.6,0.5c-1.2,1.1-1.9,2.7-1.9,4.5c0,1.7,0.7,3.3,1.8,4.5
		C379.4,255.2,379.8,255.5,380.1,255.7z"/>
	<path d="M176.9,183.7L176.9,183.7L176.9,183.7c3.7-0.2,6.5-3,6.5-6.5s-2.9-6.4-6.5-6.4c-3.6,0-6.5,2.9-6.5,6.4
		C170.3,180.8,173.2,183.7,176.9,183.7z"/>
	<path d="M148.2,181.7c0.9,0.8,2.3,1.7,3.8,1.7c0.2,0,0.3,0,0.4,0c0.4,0,0.8,0,1.2-0.2c0.6-0.1,1.1-0.3,1.3-0.4l0.9-0.5
		c0.4-0.2,0.8-0.5,0.9-0.8c1.3-1.3,2-2.8,2-4.5c0-0.5,0-0.9-0.2-1.4c-0.1-0.1-0.1-0.2-0.1-0.5c-0.1-0.2-0.1-0.5-0.2-0.8l-0.5-0.9
		c-0.2-0.4-0.6-0.8-1-1.1c-0.1-0.1-0.2-0.2-0.3-0.2c-0.1-0.1-0.2-0.2-0.2-0.2l-0.1-0.2l-1.2-0.6l-0.2-0.1c-0.3-0.2-0.7-0.3-1.2-0.3
		c-2-0.3-4.1,0.3-5.7,1.8c-0.2,0.2-0.4,0.5-0.5,0.6c-0.1,0.1-0.1,0.2-0.2,0.2l-0.1,0.1l-0.5,1.1l-0.1,0.2c-0.2,0.3-0.3,0.7-0.3,1.1
		c-0.2,0.5-0.2,1-0.2,1.3C146.2,178.9,146.8,180.4,148.2,181.7L148.2,181.7z"/>
	<path d="M128.2,232.2c0.4,0,0.8,0,1.3-0.2c0.6-0.1,1.1-0.3,1.3-0.4l0.9-0.5c0.4-0.2,0.8-0.5,1-1
		c1.1-1.1,1.7-2.7,1.7-4.5c0-1.7-0.7-3.4-1.8-4.5c-0.2-0.2-0.5-0.4-0.6-0.5c-0.1-0.1-0.2-0.1-0.2-0.2l-0.1-0.1l-1.1-0.5l-0.2-0.1
		c-0.3-0.2-0.7-0.3-1.1-0.3c-0.5-0.2-1-0.2-1.3-0.2c-1.7,0-3.3,0.6-4.5,1.9c-1.3,0.9-1.9,2.7-2,4.2c0,1.7,0.7,3.3,2,4.5
		C124.9,231.6,126.4,232.2,128.2,232.2z"/>
	<path d="M128.1,207.9c3.6,0,6.4-2.9,6.4-6.5c0-3.6-2.9-6.5-6.4-6.5c-3.6,0-6.5,2.9-6.5,6.5l0,0
		C121.7,205.1,124.5,207.8,128.1,207.9z"/>
	<path d="M122.3,179.5l0.5,0.9c0.2,0.4,0.5,0.8,0.8,0.9c1.3,1.3,2.8,2,4.5,2c0.5,0,1,0,1.4-0.2c0.1-0.1,0.2-0.1,0.5-0.1
		c0.2-0.1,0.5-0.1,0.8-0.2l0.9-0.5c0.4-0.2,0.8-0.6,1.1-1c0.1-0.1,0.2-0.2,0.2-0.3c0.1-0.1,0.2-0.2,0.2-0.2l0.2-0.1l0.6-1.2l0.1-0.2
		c0.2-0.3,0.3-0.7,0.3-1.2c0.3-2-0.3-4.1-1.8-5.7c-0.2-0.2-0.5-0.4-0.6-0.5c-0.1-0.1-0.2-0.1-0.2-0.2l-0.1-0.1l-1.1-0.5l-0.2-0.1
		c-0.3-0.2-0.7-0.3-1.1-0.3c-0.5-0.2-1-0.2-1.3-0.2c-1.7,0-3.3,0.7-4.5,2l0,0c-1.1,1.2-1.7,2.7-1.6,4.2c0,0.4,0,0.8,0.2,1.3
		C122,178.8,122.3,179.4,122.3,179.5z"/>
	<path d="M128.3,256.5c0.4,0,0.8,0,1.3-0.2c0.6-0.1,1.1-0.3,1.3-0.4l0.9-0.5c0.4-0.2,0.8-0.5,1-1
		c1.1-1.1,1.7-2.7,1.7-4.5c0-1.7-0.7-3.4-1.8-4.5c-0.2-0.2-0.5-0.4-0.6-0.5c-0.1-0.1-0.2-0.1-0.2-0.2l-0.1-0.1l-1.1-0.5l-0.2-0.1
		c-0.3-0.2-0.7-0.3-1.1-0.3c-0.5-0.2-1-0.2-1.3-0.2c-1.7,0-3.3,0.7-4.5,1.9c-1.1,0.9-1.9,2.5-2,4.2c0,1.7,0.7,3.3,2,4.5
		C125.1,255.8,126.6,256.5,128.3,256.5z"/>
</g>
</svg>
