<?xml version="1.0" encoding="utf-8"?>
<!-- Generator: Adobe Illustrator 25.0.1, SVG Export Plug-In . SVG Version: 6.00 Build 0)  -->
<svg version="1.1" fill="#8052FD" id="Layer_1" xmlns="http://www.w3.org/2000/svg" xmlns:xlink="http://www.w3.org/1999/xlink" x="0px" y="0px"
	 viewBox="0 0 496 496" style="enable-background:new 0 0 496 496;" xml:space="preserve">

	
	


<g>
	<path d="M422.9,141.1h-82.7c-5.4,0-9.9,4.4-9.9,9.9v58.3c0,5.4,4.4,9.9,9.9,9.9H376v57.4c0,10.7-4.9,22.6-13,31.8
		c-8.3,9.4-19.1,14.8-30.5,15.6v-58.2c0-5.5-4.4-10-10-10h-69.8V219h35.9c5.4,0,9.9-4.4,9.9-9.9v-58.3c0-5.4-4.4-9.9-9.9-9.9h-82.5
		c-5.4,0-9.9,4.4-9.9,9.9v58.3c0,5.4,4.4,9.9,9.9,9.9H242v36.7h-69.8c-5.5,0-10,4.4-10,10v58.1c-11.1-0.9-21.6-6.3-29.7-15.5
		c-8.1-9.2-12.9-21.2-12.9-31.9v-57.4h36.1c5.4,0,9.9-4.4,9.9-9.9V151c0-5.4-4.4-9.9-9.9-9.9H73.1c-5.4,0-9.9,4.4-9.9,9.9v58.3
		c0,5.4,4.4,9.9,9.9,9.9h35.7v57.4c0,26.5,22.6,56.1,53.5,58.1v35.8c0,5.5,4.4,10,10,10h150.3c5.5,0,10-4.4,10-10v-35.7
		c31.3-1.6,54.3-31.4,54.3-58.1v-57.4H423c5.4,0,9.9-4.4,9.9-9.9V151C432.8,145.5,428.4,141.1,422.9,141.1z M207,151.9h80.8v9.5H207
		V151.9z M207,208.3v-36.1h80.8v36.1H207z M74,151.9h80.8v9.5H74V151.9z M74,208.3v-36.1h80.8v36.1H74z M321.6,266.5v19.9H173.1
		v-19.9H321.6L321.6,266.5z M173.1,369.5v-72.3h148.5v72.3L173.1,369.5L173.1,369.5z M422,208.3h-80.8v-36.1H422L422,208.3
		L422,208.3z M422,161.4h-80.8v-9.5H422L422,161.4L422,161.4z"/>
	<path d="M248.2,339.6c-1.2,0-2.2-0.3-3.2-1.1l-10.9-8.1l-10.9,8.1c-2,1.4-4.6,1.4-6.5-0.1l-10.3-8l-11.6,8.2l-6.2-8.8
		l14.9-10.4c2-1.3,4.5-1.3,6.4,0.2l10.2,7.9l10.9-8c1.9-1.4,4.4-1.4,6.3,0l10.9,8l10.2-7.9c1.9-1.5,4.4-1.5,6.4-0.2l13.5,9.4h24.9
		v10.8h-26.7c-1.1,0-2.1-0.3-3-1l-11.6-8.2l-10.3,8C250.6,339.3,249.4,339.6,248.2,339.6z"/>
</g>
</svg>
