<?xml version="1.0" encoding="utf-8"?>
<!-- Generator: Adobe Illustrator 25.0.1, SVG Export Plug-In . SVG Version: 6.00 Build 0)  -->
<svg version="1.1" fill="#8052FD" id="Capa_1" xmlns="http://www.w3.org/2000/svg" xmlns:xlink="http://www.w3.org/1999/xlink" x="0px" y="0px"
	 viewBox="0 0 512 512" style="enable-background:new 0 0 512 512;" xml:space="preserve">

	
	


<g>
	<g>
		<g>
			<g>
				<path d="M218.7,340.3c-3.9,0-7.2,3.2-7.2,7.2s3.2,7.2,7.2,7.2s7.2-3.2,7.2-7.2C225.8,343.5,222.5,340.3,218.7,340.3
					z"/>
				<path d="M244.8,340.3c-3.9,0-7.2,3.2-7.2,7.2s3.2,7.2,7.2,7.2c3.9,0,7.2-3.2,7.2-7.2
					C252,343.5,248.8,340.3,244.8,340.3z"/>
				<path d="M297.3,338.1v16.7c0,4.3,6.6,4.3,6.6,0v-16.7C303.9,333.8,297.3,333.8,297.3,338.1z"/>
				<path d="M327,334.7c-1.8,0-3.3,1.5-3.3,3.3v16.7c0,1.8,1.5,3.3,3.3,3.3c1.8,0,3.3-1.5,3.3-3.3V338
					C330.3,336.3,328.8,334.7,327,334.7z"/>
			</g>
			<path d="M310,338.1v16.7c0,4.3,6.6,4.3,6.6,0v-16.7C316.6,333.8,310,333.8,310,338.1z"/>
		</g>
		<g>
			<path d="M154.2,299.9c-3.9,0-7.2,3.2-7.2,7.2s3.2,7.2,7.2,7.2s7.2-3.2,7.2-7.2S158,299.9,154.2,299.9z"/>
			<path d="M180.2,299.9c-3.9,0-7.2,3.2-7.2,7.2s3.2,7.2,7.2,7.2c3.9,0,7.2-3.2,7.2-7.2S184.2,299.9,180.2,299.9z"/>
			<path d="M232.8,297.7v16c0,4.3,6.6,4.3,6.6,0v-16C239.4,293.4,232.8,293.4,232.8,297.7z"/>
			<path d="M245.5,297.7v16c0,4.3,6.6,4.3,6.6,0v-16C252.1,293.4,245.5,293.4,245.5,297.7z"/>
			<path d="M262.5,294.5c-1.8,0-3.3,1.5-3.3,3.3v15.9c0,1.8,1.5,3.3,3.3,3.3c1.8,0,3.3-1.5,3.3-3.3v-16
				C265.8,295.9,264.3,294.5,262.5,294.5z"/>
		</g>
		<g>
			<g>
				<path d="M283.2,380.6c-3.9,0-7.2,3.2-7.2,7.2s3.2,7.2,7.2,7.2s7.2-3.2,7.2-7.2S287.1,380.6,283.2,380.6z"/>
				<path d="M309.3,380.6c-3.9,0-7.2,3.2-7.2,7.2s3.2,7.2,7.2,7.2c3.9,0,7.2-3.2,7.2-7.2S313.3,380.6,309.3,380.6z"/>
				<path d="M361.9,379.9v16c0,4.3,6.6,4.3,6.6,0v-16C368.4,375.5,361.9,375.5,361.9,379.9z"/>
				<path d="M391.6,376.6c-1.8,0-3.3,1.5-3.3,3.3v16c0,1.8,1.5,3.3,3.3,3.3c1.8,0,3.3-1.5,3.3-3.3v-16
					C394.9,378.1,393.3,376.6,391.6,376.6z"/>
				<path d="M406.2,362.4c-27,0-109.5,0-136.3,0c-3,0-6.3,1.3-8.1,3.3c-2.2,2.2-3.4,5-3.4,8.2V402
					c0,3.2,1.3,6.2,3.4,8.2c2.4,2.3,4.3,3.3,8.1,3.3h136.3c3.8,0,6.3-1.7,8.1-3.3c2.2-2.1,3.4-5,3.4-8.2v-28.2
					c0-3.2-1.3-6.1-3.4-8.2C411.8,363.7,409.5,362.4,406.2,362.4z M411.1,402c0,2.7-2.3,5-5,5c-24.9,0-105.1,0-136.3,0
					c-2.7,0-5-2.3-5-5v-28.2c0-2.7,2.3-5,5-5h136.3c2.7,0,5,2.3,5,5V402z"/>
			</g>
			<path d="M374.5,379.9v16c0,4.3,6.6,4.3,6.6,0v-16C381.2,375.5,374.5,375.5,374.5,379.9z"/>
		</g>
		<path d="M261,366.6c-22,0-42.9,0-55.6,0c-2.7,0-5-2.3-5-5v-28.2c0-2.7,2.3-5,5-5h136.3c2.7,0,5,2.3,5,5v28.2
			c0,0.2,0,0.5-0.1,0.7c2.2,0,4.4,0,6.5,0c0-0.2,0-0.4,0-0.6v-28.2c0-3.2-1.3-6.1-3.4-8.2c-2.4-2.1-4.7-3.3-8.1-3.3
			c-27,0-109.5,0-136.3,0c-3,0-6.3,1.3-8.1,3.3c-2.2,2.2-3.4,5-3.4,8.2v28.2c0,3.2,1.3,6.2,3.4,8.2c2.4,2.3,4.3,3.3,8.1,3.3h53.1
			C258.6,370.7,259.5,368.5,261,366.6z"/>
	</g>
	<g>
		<path d="M189.7,232.9h-45.9c-2.1,0-3.9,1.8-3.9,3.9v44.9c0.3,0,0.6-0.1,0.9-0.1c2,0,4.3,0,6.9,0v-40.8h38.1v40.8
			c2.6,0,5.1,0,7.7,0v-44.9C193.6,234.7,191.8,232.9,189.7,232.9z"/>
		<path d="M285.2,285c-2.2-1.8-4.4-3.1-7.4-3.3v-73.3c0-2.1-1.8-3.9-3.9-3.9h-46.4c-2.1,0-3.9,1.8-3.9,3.9v73.2
			c-31.8,0-67,0-82.8,0c-3,0-6.3,1.3-8.1,3.3c-2.2,2.2-3.4,5-3.4,8.2v28.2c0,3.2,1.3,6.2,3.4,8.2c2.4,2.3,4.3,3.3,8.1,3.3h53.1
			c0.1-2.4,1.1-4.7,2.6-6.5c-18.8,0-44.7,0-55.8,0c-2.7,0-5-2.3-5-5V293c0-2.7,2.3-5,5-5H277c2.7,0,5,2.3,5,5v28.2
			c0,0.3,0,0.6-0.1,0.9c2.2,0,4.4,0,6.6,0c0-0.3,0.1-0.5,0.1-0.8v-28.2C288.6,289.9,287.3,287,285.2,285z M231.4,212.3H270v69.3
			c-9.9,0-23.6,0-38.6,0V212.3L231.4,212.3z"/>
		<path d="M330.2,120l-25.3-5.1l-1.6,7.7l15.3,3l-145.1,85.1l4,6.8l146.3-85.8l-3.4,16.9l7.7,1.6l5.1-25.3
			C333.6,122.5,332.2,120.4,330.2,120z"/>
		<path d="M399.2,97H108.2c-2.1,0-3.9,1.8-3.9,3.9v194.9c0,2.1,1.8,3.9,3.9,3.9h21.2V293c0-0.4,0-0.8,0.1-1.2h-17.4
			v-187h283.2v187.3h-30.7v-127c0-2.1-1.8-3.9-3.9-3.9h-46.7c-2.1,0-3.9,1.8-3.9,3.9v127h-21.7v7.4h110.9c2.1,0,3.9-1.8,3.9-3.9
			V100.9C403.1,98.8,401.4,97,399.2,97z M317.9,169.1h38.8v123.1h-38.8V169.1z"/>
	</g>
</g>
<g>
	<path d="M159.1,343.5c-0.2,0-0.4,0-0.6-0.1c-0.2-0.1-0.4-0.1-0.6-0.2c-0.2-0.1-0.4-0.2-0.6-0.3
		c-0.2-0.1-0.4-0.3-0.5-0.4c-0.1-0.1-0.3-0.3-0.4-0.5c-0.1-0.1-0.2-0.4-0.3-0.6c-0.1-0.2-0.1-0.4-0.2-0.6s-0.1-0.4-0.1-0.6
		s0-0.4,0.1-0.6c0.1-0.2,0.1-0.4,0.2-0.6c0.1-0.2,0.2-0.4,0.3-0.6c0.1-0.1,0.3-0.4,0.4-0.5s0.3-0.3,0.5-0.4c0.1-0.1,0.4-0.2,0.6-0.3
		c0.2-0.1,0.4-0.1,0.6-0.2c0.4-0.1,0.9-0.1,1.3,0c0.2,0.1,0.4,0.1,0.6,0.2c0.2,0.1,0.4,0.1,0.6,0.3c0.1,0.1,0.4,0.3,0.5,0.4
		c0.1,0.1,0.3,0.4,0.4,0.5c0.1,0.1,0.2,0.4,0.3,0.6c0.1,0.2,0.1,0.4,0.2,0.6c0,0.2,0.1,0.4,0.1,0.6s0,0.4-0.1,0.6s-0.1,0.4-0.2,0.6
		c-0.1,0.2-0.1,0.4-0.3,0.6c-0.1,0.1-0.3,0.4-0.4,0.5c-0.1,0.1-0.3,0.3-0.5,0.4c-0.1,0.1-0.4,0.2-0.6,0.3s-0.4,0.1-0.6,0.2
		C159.5,343.5,159.3,343.5,159.1,343.5z"/>
	<path d="M159.1,354c-0.2,0-0.4,0-0.6-0.1c-0.2-0.1-0.4-0.1-0.6-0.2c-0.2-0.1-0.4-0.2-0.6-0.3c-0.2-0.1-0.4-0.3-0.5-0.4
		s-0.3-0.3-0.4-0.5c-0.1-0.1-0.2-0.4-0.3-0.6c-0.1-0.2-0.1-0.4-0.2-0.6s-0.1-0.4-0.1-0.6s0-0.4,0.1-0.6c0.1-0.2,0.1-0.4,0.2-0.6
		c0.1-0.2,0.2-0.4,0.3-0.6c0.1-0.1,0.3-0.4,0.4-0.5s0.3-0.3,0.5-0.4c0.1-0.1,0.4-0.2,0.6-0.3c0.2-0.1,0.4-0.1,0.6-0.2
		c1.1-0.2,2.2,0.1,3,0.9c0.1,0.1,0.3,0.4,0.4,0.5c0.1,0.1,0.2,0.4,0.3,0.6s0.1,0.4,0.2,0.6c0.1,0.2,0.1,0.4,0.1,0.6s0,0.4-0.1,0.6
		c-0.1,0.2-0.1,0.4-0.2,0.6c-0.1,0.2-0.1,0.4-0.3,0.6s-0.3,0.4-0.4,0.5C160.8,353.7,159.9,354,159.1,354z"/>
	<path d="M169.8,350.8c0-1.8,1.5-3.3,3.3-3.3l0,0c1.8,0,3.3,1.5,3.3,3.3l0,0c0,1.8-1.5,3.3-3.3,3.3l0,0
		C171.2,354,169.8,352.6,169.8,350.8z"/>
	<path d="M187,354c-0.9,0-1.7-0.4-2.3-1c-0.1-0.1-0.3-0.3-0.4-0.5c-0.1-0.1-0.2-0.4-0.3-0.6s-0.1-0.4-0.2-0.6
		s-0.1-0.4-0.1-0.6s0-0.4,0.1-0.6s0.1-0.4,0.2-0.6c0.1-0.2,0.2-0.4,0.3-0.6c0.1-0.1,0.3-0.4,0.4-0.5c0.8-0.8,1.9-1.1,2.9-0.9
		c0.2,0,0.4,0.1,0.6,0.2c0.2,0.1,0.4,0.2,0.6,0.3c0.1,0.1,0.4,0.3,0.5,0.4s0.3,0.4,0.4,0.5c0.1,0.1,0.2,0.4,0.3,0.6s0.1,0.4,0.2,0.6
		s0.1,0.4,0.1,0.6s0,0.4-0.1,0.6s-0.1,0.4-0.2,0.6c-0.1,0.2-0.2,0.4-0.3,0.6c-0.1,0.2-0.3,0.4-0.4,0.5s-0.3,0.3-0.5,0.4
		c-0.1,0.1-0.4,0.2-0.6,0.3c-0.2,0.1-0.4,0.1-0.6,0.2C187.4,354,187.2,354,187,354z"/>
</g>
<g>
	<path d="M223.3,382.7c-0.9,0-1.7-0.4-2.3-1c-0.1-0.1-0.3-0.4-0.4-0.5c-0.1-0.1-0.2-0.4-0.3-0.6
		c-0.1-0.2-0.1-0.4-0.2-0.6s-0.1-0.4-0.1-0.6s0-0.4,0.1-0.6s0.1-0.4,0.2-0.6c0.1-0.2,0.2-0.4,0.3-0.6c0.1-0.1,0.3-0.4,0.4-0.5
		c0.8-0.8,1.9-1.1,3-0.9c0.2,0.1,0.4,0.1,0.6,0.2c0.2,0.1,0.4,0.2,0.6,0.3c0.1,0.1,0.4,0.3,0.5,0.4c0.1,0.1,0.3,0.4,0.4,0.5
		c0.1,0.1,0.2,0.4,0.3,0.6c0.1,0.2,0.1,0.4,0.2,0.6s0.1,0.4,0.1,0.6s0,0.4-0.1,0.6s-0.1,0.4-0.2,0.6c-0.1,0.2-0.2,0.4-0.3,0.6
		c-0.1,0.1-0.3,0.4-0.4,0.5c-0.1,0.1-0.4,0.3-0.5,0.4s-0.4,0.2-0.6,0.3c-0.2,0.1-0.4,0.1-0.6,0.2
		C223.7,382.7,223.5,382.7,223.3,382.7z"/>
	<path d="M223.3,393.2c-0.9,0-1.7-0.4-2.3-0.9c-0.1-0.1-0.3-0.4-0.4-0.5c-0.1-0.1-0.2-0.4-0.3-0.6
		c-0.1-0.2-0.1-0.4-0.2-0.6s-0.1-0.4-0.1-0.6s0-0.4,0.1-0.6s0.1-0.4,0.2-0.6c0.1-0.2,0.2-0.4,0.3-0.6c0.1-0.1,0.3-0.4,0.4-0.5
		c0.6-0.6,1.4-1,2.3-1c0.9,0,1.7,0.4,2.3,1c0.1,0.1,0.3,0.4,0.4,0.5s0.2,0.4,0.3,0.6c0.1,0.2,0.1,0.4,0.2,0.6s0.1,0.4,0.1,0.6
		s0,0.4-0.1,0.6s-0.1,0.4-0.2,0.6c-0.1,0.2-0.2,0.4-0.3,0.6c-0.1,0.1-0.3,0.4-0.4,0.5C225,392.9,224.1,393.2,223.3,393.2z"/>
	<path d="M233.9,390c0-1.8,1.5-3.3,3.3-3.3l0,0c1.8,0,3.3,1.5,3.3,3.3l0,0c0,1.8-1.5,3.3-3.3,3.3l0,0
		C235.4,393.2,233.9,391.7,233.9,390z"/>
	<path d="M251.1,393.2c-0.2,0-0.4,0-0.6-0.1c-0.2-0.1-0.4-0.1-0.6-0.2c-0.2-0.1-0.4-0.2-0.6-0.3
		c-0.2-0.1-0.4-0.3-0.5-0.4c-0.1-0.1-0.3-0.4-0.4-0.5s-0.2-0.4-0.3-0.6c-0.1-0.2-0.1-0.4-0.2-0.6c-0.1-0.2-0.1-0.4-0.1-0.6
		s0-0.4,0.1-0.6c0.1-0.2,0.1-0.4,0.2-0.6c0.1-0.2,0.2-0.4,0.3-0.6c0.1-0.1,0.3-0.4,0.4-0.5c0.1-0.1,0.3-0.3,0.5-0.4
		c0.1-0.1,0.4-0.2,0.6-0.3c0.2-0.1,0.4-0.1,0.6-0.2c1.1-0.2,2.2,0.1,3,0.9c0.1,0.1,0.3,0.4,0.4,0.5c0.1,0.1,0.2,0.4,0.3,0.6
		c0.1,0.2,0.1,0.4,0.2,0.6c0.1,0.2,0.1,0.4,0.1,0.6s0,0.4-0.1,0.6s-0.1,0.4-0.2,0.6c-0.1,0.2-0.2,0.4-0.3,0.6
		c-0.1,0.1-0.3,0.4-0.4,0.5C252.8,392.9,252,393.2,251.1,393.2z"/>
</g>
</svg>
