<?xml version="1.0" encoding="utf-8"?>
<!-- Generator: Adobe Illustrator 25.0.1, SVG Export Plug-In . SVG Version: 6.00 Build 0)  -->
<svg version="1.1" fill="#8052FD" id="Capa_1" xmlns="http://www.w3.org/2000/svg" xmlns:xlink="http://www.w3.org/1999/xlink" x="0px" y="0px"
	 viewBox="0 0 512 512" style="enable-background:new 0 0 512 512;" xml:space="preserve">

	
	


<g>
	<g>
		<path d="M429.4,286.3c-0.4-7.7-4.3-14.8-10.5-19.4c-10.1-7.5-24.1-6.7-33.3,1.8l-56,52.1c0.3-11.4-7.2-21.5-18.5-24.5
			L242.9,279c-12-3-24.5-2.6-36.2,1.2l-47.2,15.3v-13.6c0-3.7-3-6.8-6.8-6.8H89.3c-3.7,0-6.8,3-6.8,6.8v120.7c0,3.7,3,6.8,6.8,6.8
			h63.3c3.7,0,6.8-3,6.8-6.8v-92.8l51.4-16.7c9.3-3,19.2-3.3,28.8-0.9l68.3,17.3c5.3,1.4,8.7,6.3,8.2,11.7
			c-0.5,5.6-5.3,9.9-10.9,9.9h-54.4c-3.7,0-6.8,3-6.8,6.8c0,3.7,3,6.8,6.8,6.8h21.3c0.3,0,0.5,0.1,0.7,0.1h33.6
			c11.2,0,21.9-4.2,30.1-11.9l58.2-54.2c4.4-4.1,11.1-4.5,16-0.9c3,2.2,4.8,5.6,5,9.3c0.2,3.7-1.2,7.3-4,9.8l-80.1,74.6
			c-5.6,5.1-12.7,8-20.3,8h-105c-3.7,0-6.8,3-6.8,6.8c0,3.7,3,6.8,6.8,6.8h105c11,0,21.5-4.1,29.5-11.6l80.2-74.7
			C426.8,301.6,429.8,294.1,429.4,286.3z M145.8,395.9H96.1V288.8h49.7V395.9L145.8,395.9z"/>
	</g>
</g>
<g>
	<g>
		<path d="M183.8,381.6c-1.3-1.3-3-2-4.8-2c-1.8,0-3.5,0.7-4.8,2c-1.3,1.3-2,3-2,4.8c0,1.8,0.7,3.5,2,4.8
			c1.3,1.3,3,2,4.8,2c1.8,0,3.5-0.7,4.8-2c1.3-1.3,2-3,2-4.8C185.8,384.6,185.1,382.9,183.8,381.6z"/>
	</g>
</g>
<g>
	<g>
		<path d="M125.8,374.6c-1.3-1.3-3-2-4.8-2s-3.5,0.7-4.8,2c-1.3,1.3-2,3-2,4.8c0,1.8,0.7,3.5,2,4.8c1.3,1.3,3,2,4.8,2
			c1.8,0,3.5-0.7,4.8-2c1.3-1.3,2-3,2-4.8C127.8,377.6,127,375.8,125.8,374.6z"/>
	</g>
</g>
<g>
	<g>
		<path d="M230,62.6h-7.4c-32.9,0-59.7,26.8-59.7,59.7v17.6c-21.3,2-37.9,20-37.9,41.8c0,23.2,18.8,42,42,42h2.7
			c3.7,0,6.8-3,6.8-6.8v-94.6c0-25.5,20.7-46.1,46.1-46.1h7.4c3.7,0,6.8-3,6.8-6.8C236.8,65.6,233.7,62.6,230,62.6z M162.9,198.4
			v11.4c-13.8-2-24.4-13.8-24.4-28.2c0-14.4,10.6-26.1,24.4-28.2V198.4z"/>
	</g>
</g>
<g>
	<g>
		<path d="M256.3,62.6H256c-3.7,0-6.8,3-6.8,6.8c0,3.7,3,6.8,6.8,6.8h0.3c3.7,0,6.8-3,6.8-6.8
			C263,65.6,260,62.6,256.3,62.6z"/>
	</g>
</g>
<g>
	<g>
		<path d="M349.1,139.9v-17.6c0-32.9-26.8-59.7-59.7-59.7h-7.6c-3.7,0-6.8,3-6.8,6.8c0,3.7,3,6.8,6.8,6.8h7.6
			c25.5,0,46.1,20.7,46.1,46.1v113.6c0,2.3-1.9,4.2-4.2,4.2h-50.4c-2.6-6.4-8.9-10.8-16.3-10.8h-15.5c-9.7,0-17.6,7.9-17.6,17.6l0,0
			c0,9.7,7.9,17.6,17.6,17.6h15.5c7.3,0,13.6-4.5,16.3-10.8h50.4c9.8,0,17.7-7.9,17.7-17.7v-12.4c21.3-2,37.9-20,37.9-41.8
			S370.3,142,349.1,139.9z M264.7,250.9h-15.5c-2.2,0-4.1-1.8-4.1-4.1l0,0c0-2.2,1.8-4.1,4.1-4.1h15.5c2.2,0,4.1,1.8,4.1,4.1
			C268.7,249.1,266.9,250.9,264.7,250.9z M349.1,209.9v-11.4v-44.9c13.8,2,24.4,13.8,24.4,28.2S362.8,207.9,349.1,209.9z"/>
	</g>
</g>
<g>
	<g>
		<path d="M315.6,137.6h-6.3c-0.9-2.7-2-5.4-3.3-7.9l4.5-4.5c1.3-1.3,2-3,2-4.8c0-1.8-0.7-3.5-2-4.8l-15.1-15.1
			c-2.6-2.6-6.9-2.6-9.6,0l-4.5,4.5c-2.6-1.3-5.2-2.4-7.9-3.3v-6.3c0-3.7-3-6.8-6.8-6.8h-21.3c-3.7,0-6.8,3-6.8,6.8v6.4
			c-2.7,0.9-5.4,2-7.9,3.3l-4.5-4.5c-2.6-2.6-6.9-2.6-9.6,0l-15.1,15.1c-1.3,1.3-2,3-2,4.8c0,1.8,0.7,3.5,2,4.8l4.5,4.5
			c-1.3,2.6-2.4,5.1-3.3,7.9h-6.4c-3.7,0-6.8,3-6.8,6.8v21.3c0,3.7,3,6.8,6.8,6.8h6.4c0.9,2.7,2,5.4,3.3,7.9l-4.5,4.5
			c-1.3,1.3-2,3-2,4.8c0,1.8,0.7,3.5,2,4.8l15.1,15.1c2.6,2.6,6.9,2.6,9.6,0l4.5-4.5c2.5,1.3,5.1,2.4,7.9,3.3v6.4
			c0,3.7,3,6.8,6.8,6.8h21.3c3.7,0,6.8-3,6.8-6.8v-6.4c2.7-0.9,5.4-2,7.9-3.3l4.5,4.5c2.6,2.6,6.9,2.6,9.6,0l15.1-15.1
			c1.3-1.3,2-3,2-4.8c0-1.8-0.7-3.5-2-4.8l-4.5-4.5c1.3-2.6,2.4-5.1,3.3-7.9h6.4c3.7,0,6.8-3,6.8-6.8v-21.3
			C322.4,140.7,319.3,137.6,315.6,137.6z M308.8,159h-4.7c-3.2,0-6,2.2-6.6,5.4c-1.1,4.8-3,9.4-5.6,13.6c-1.7,2.7-1.4,6.2,0.9,8.5
			l3.4,3.4l-5.5,5.5l-3.4-3.4c-2.2-2.2-5.8-2.6-8.4-0.9c-4.2,2.6-8.7,4.5-13.6,5.6c-3.1,0.7-5.4,3.5-5.4,6.6v4.8h-7.8v-4.8
			c0-3.2-2.2-5.9-5.3-6.6c-4.8-1.1-9.4-3-13.6-5.6c-2.7-1.7-6.2-1.4-8.5,0.9l-3.4,3.4l-5.5-5.5l3.4-3.4c2.2-2.2,2.6-5.8,0.9-8.5
			c-2.6-4.2-4.5-8.7-5.6-13.6c-0.7-3.1-3.5-5.3-6.6-5.3h-4.8v-7.8h4.7c3,0,5.8-2,6.6-5c0-0.1,0.1-0.2,0.1-0.3
			c1.1-4.8,3-9.4,5.6-13.6c1.7-2.7,1.4-6.2-0.9-8.4l-3.4-3.4l5.5-5.5l3.4,3.4c2.2,2.2,5.8,2.6,8.5,0.9c4.1-2.6,8.7-4.5,13.5-5.6
			c3.1-0.6,5.4-3.4,5.4-6.6v-4.7h7.8v4.7c0,3.1,2.2,5.9,5.3,6.6h0.1c4.8,1.1,9.4,3,13.6,5.6c2.7,1.7,6.2,1.4,8.4-0.9l3.3-3.3
			l5.5,5.5l-3.3,3.3c-2.2,2.2-2.6,5.8-0.9,8.5c2.6,4.1,4.5,8.7,5.6,13.5c0.6,3.1,3.4,5.4,6.6,5.4h4.7V159L308.8,159z"/>
	</g>
</g>
<g>
	<g>
		<path d="M256,129.4c-14.2,0-25.7,11.5-25.7,25.7s11.5,25.7,25.7,25.7c14.2,0,25.7-11.5,25.7-25.7
			S270.2,129.4,256,129.4z M256,167.2c-6.7,0-12.2-5.5-12.2-12.2c0-6.7,5.5-12.2,12.2-12.2s12.2,5.5,12.2,12.2
			C268.2,161.8,262.7,167.2,256,167.2z"/>
	</g>
</g>
<g>
	<g>
		<path d="M121,301c-3.7,0-6.8,3-6.8,6.8v46.7c0,3.7,3,6.8,6.8,6.8c3.7,0,6.8-3,6.8-6.8v-46.7
			C127.8,304.1,124.7,301,121,301z"/>
	</g>
</g>
</svg>
