<?xml version="1.0" encoding="utf-8"?>
<!-- Generator: Adobe Illustrator 25.0.1, SVG Export Plug-In . SVG Version: 6.00 Build 0)  -->
<svg version="1.1" fill="#8052FD" id="Layer_1" xmlns="http://www.w3.org/2000/svg" xmlns:xlink="http://www.w3.org/1999/xlink" x="0px" y="0px"
	 viewBox="0 0 512 512" style="enable-background:new 0 0 512 512;" xml:space="preserve">

	
	


<g>
	<path d="M420.1,381.4H263.9v-4.3c0-43.1,35.1-78.2,78.2-78.2s78.1,35.1,78.1,78.2V381.4z M272.7,372.8h138.7
		c-2.3-36.3-32.5-65.2-69.3-65.2C305.1,307.6,274.9,336.5,272.7,372.8z M248.1,381.4H87l161.1-194.6V381.4z M105.4,372.8h134.1
		V210.9L105.4,372.8z M263.9,325.2V130.6H425L263.9,325.2z M272.5,139.2v161.9l134.1-161.9H272.5z M170,213
		c-43,0-78.1-35.1-78.1-78.1v-4.3h156.3v4.3C248.1,178,213.1,213,170,213z M100.7,139.2c2.3,36.3,32.5,65.1,69.3,65.1
		s67.1-28.9,69.4-65.2h-66L100.7,139.2L100.7,139.2z"/>
</g>
</svg>
