<?xml version="1.0" encoding="UTF-8"?><svg id="Layer_2" xmlns="http://www.w3.org/2000/svg" viewBox="0 0 26.94552 25.0426"><defs><style>.cls-1{fill:#783cbe;}</style></defs><g id="Layer_1-2"><g><path class="cls-1" d="M21.30538,13.34631c.23682,1.33179,1.39648,2.34766,2.79541,2.34766,1.56836,0,2.84473-1.27637,2.84473-2.8457,0-1.56836-1.27637-2.84473-2.84473-2.84473-1.44873,0-2.63477,1.09192-2.81006,2.49316h-4.61279V6.91077l1.39062-1.0127h1.44629c.04785,0,.0918-.0127,.13477-.02734,.12598,1.45312,1.33496,2.60156,2.82031,2.60156,1.56934,0,2.8457-1.27637,2.8457-2.84473s-1.27637-2.84473-2.8457-2.84473c-1.38135,0-2.53418,.99121-2.78955,2.29919-.05078-.02161-.10693-.03357-.16553-.03357h-1.58496c-.08984,0-.17773,.02832-.25,.08105l-1.67676,1.22168c-.11035,.08008-.1748,.20801-.1748,.34375v5.80176h-2.18848l.01074-10.9668c0-.13086-.06055-.25488-.16406-.33594C11.27755-.52087,8.63204-.18201,6.99142,.91565c-1.3291,.8877-2.01465,2.22949-1.88281,3.60742-.58008-.04199-1.14453,.0459-1.67285,.26367-.2168,.08984-.32031,.33789-.23047,.55469,.08984,.21777,.34277,.32227,.55469,.23047,.53076-.21741,1.10938-.26343,1.72852-.13586,.21143,.401,.49072,.76831,.82812,1.08557-.04395,.56531-.90088,1.42822-1.4043,1.62744-.21875,.08691-.3252,.33398-.23926,.55176,.06641,.16699,.22656,.26855,.39551,.26855,.05176,0,.10547-.00977,.15625-.0293,.55713-.2207,1.4873-1.02026,1.81885-1.87537,.46533,.28503,.98242,.49915,1.54053,.599,.02539,.00488,.05078,.00684,.07617,.00684,.20117,0,.38086-.14453,.41699-.34961,.04199-.23145-.1123-.45215-.34277-.49316-1.41309-.2533-2.55322-1.3252-2.7832-2.6106-.01416-.99084,.51367-1.92786,1.51172-2.59546,1.3457-.90137,3.49512-1.19727,5.33789,.12109l-.00195,2.9115c-.41016,.54028-1.50928,.66492-2.47656,.27502-.33496-.13477-1.41211-.65918-1.24316-1.74414,.03613-.23242-.12305-.44922-.35449-.48535-.22363-.03711-.4502,.12207-.48535,.35449-.17676,1.13281,.5,2.15332,1.76465,2.66309,.45312,.18359,.97461,.28711,1.48633,.28711,.46875,0,.91895-.10095,1.30762-.29663l-.00342,4.3396c-.37207-.15259-.87354-.33276-1.24268-.39062-1.58301-.24805-2.74609,.34473-3.52051,1.82715-.47754,.91211-.8916,1.59766-1.5459,1.40137-.34961-.10352-.52637-.41113-.78711-.90527-.11133-.2113-.2334-.43408-.3833-.6427,.44287-.15222,.86768-.42651,1.2085-.82019,.15332-.17773,.13477-.44629-.04297-.59961s-.44727-.13379-.59961,.04297c-.35547,.41113-.84082,.66406-1.27148,.66406h-.01855c-.29492-.00586-.54492-.13184-.74121-.37598-.14648-.18262-.41602-.21094-.59766-.06445-.18262,.14746-.21191,.41504-.06445,.59766,.26855,.33301,.60547,.55054,.99023,.64258,.01758,.01233,.03027,.02917,.0498,.03906,.32422,.16406,.51562,.52832,.71875,.91406,.27539,.52051,.58691,1.1123,1.29688,1.32227,.16895,.05078,.32812,.07324,.47852,.07324,1.07129,0,1.68457-1.17188,2.09961-1.96484,.57422-1.09961,1.36719-1.50098,2.59863-1.31152,.37354,.05896,1.09082,.33777,1.37402,.47607l-.00342,4.22314c-.63867-.15381-1.19775-.1239-1.66064,.10547-.5498,.27344-.95215,.80762-1.19531,1.58789-.23828,.76758-.00293,1.44824,.20508,2.04785,.18848,.54297,.35059,1.0127,.18457,1.49805-.18652,.54395-.57422,.77246-1.13672,.67969-.22363-.03906-.4502,.11719-.48828,.34961-.03809,.23145,.11816,.4502,.34961,.48828,.12891,.02148,.25391,.03223,.375,.03223,.80176,0,1.42578-.45801,1.70508-1.27441,.26074-.7627,.02344-1.44727-.18555-2.05176-.18945-.54492-.35254-1.0166-.19629-1.51758,.1709-.5498,.42676-.91211,.76074-1.07812,.31836-.15942,.75342-.15015,1.28223,.01245l-.00488,6.29419c.0752,.50879-.0957,.93066-.50684,1.25391-.85156,.66699-2.52246,.75-3.8916,.19141-.81055-.33228-2.20605-1.17896-2.46338-3.11792-.06396-.77686,.39258-1.10547,1.20459-1.61646,1.16211-.73145,2.6084-1.6416,.91211-4.77832-.1123-.20703-.36914-.28125-.57617-.17188-.20605,.1123-.2832,.37012-.17188,.57617,1.31836,2.43652,.46387,2.97461-.61719,3.6543-.68555,.43176-1.51514,.96313-1.5957,2.0354-1.12842,.21863-2.16895-.11987-2.81836-.94946-.67188-.85828-.75195-2.01709-.23828-3.07227,.01367-.0166,.03418-.0249,.0459-.04395,.23242-.38184,.82324-.54199,1.75684-.48828,.36621,.02344,.80859,.24121,1.13086,.40039,.19238,.0957,.35254,.16992,.45605,.19824,.22656,.0625,.46191-.07031,.52344-.29492,.06348-.22656-.06934-.46094-.29492-.52344-.07129-.01953-.17676-.07715-.30762-.1416-.3877-.19141-.91895-.45312-1.45508-.48633-.91699-.06152-1.61133,.08875-2.08496,.42749-.60986-.55176-.98145-1.50806-.93945-2.55835,.04297-1.08887,.50977-2.01758,1.2168-2.42188,.11328-.06445,.19043-.17773,.20898-.30664,.01953-.12793-.02148-.25879-.11035-.35352-.38965-.41602-.49512-1.17383-.27539-1.97949,.06152-.22656-.07129-.45996-.29785-.52246-.23047-.06055-.45996,.07227-.52246,.29785-.24609,.90234-.17285,1.76172,.18848,2.39453C.51388,10.59241,.05197,11.62561,.00411,12.83069c-.05273,1.31836,.4043,2.52637,1.20898,3.24902-.61621,1.33008-.48145,2.79297,.37793,3.89062,.8252,1.05469,2.16895,1.52148,3.56641,1.28223,.3418,1.53613,1.36035,2.71582,2.9082,3.34863,.72266,.2959,1.49414,.44141,2.22852,.44141,.97168,0,1.87598-.25488,2.50879-.75,.65039-.51074,.94336-1.2373,.82715-1.98535l.00879-8.96094h2.18945v5.55469c0,.12891,.05859,.25098,.15918,.33203l1.84082,1.47461c.0752,.06055,.16895,.09277,.26562,.09277h1.4209c.05664,0,.11084-.01208,.16064-.03247,.18359,1.39282,1.36572,2.47485,2.80713,2.47485,1.56934,0,2.8457-1.27637,2.8457-2.8457,0-1.56836-1.27637-2.84473-2.8457-2.84473-1.42676,0-2.60059,1.06006-2.80273,2.43176-.05078-.02136-.10645-.03333-.16504-.03333h-1.27148l-1.56543-1.25391v-5.35059h4.62744Zm2.79541-2.49316c1.09961,0,1.99512,.89551,1.99512,1.99512,0,1.10059-.89551,1.99609-1.99512,1.99609-1.10059,0-1.99609-.89551-1.99609-1.99609,0-1.09961,.89551-1.99512,1.99609-1.99512Zm-1.63086-7.2207c1.10059,0,1.99609,.89551,1.99609,1.99512s-.89551,1.99512-1.99609,1.99512c-1.09961,0-1.99512-.89551-1.99512-1.99512s.89551-1.99512,1.99512-1.99512Zm.0127,14.76953c1.10059,0,1.99609,.89551,1.99609,1.99512,0,1.10059-.89551,1.99609-1.99609,1.99609-1.09961,0-1.99512-.89551-1.99512-1.99609,0-1.09961,.89551-1.99512,1.99512-1.99512Z"/><path class="cls-1" d="M2.16085,6.61536c.24561,.0188,.45996-.16516,.479-.41089,.01855-.24561-.16504-.45996-.41113-.47864-.24512-.0188-.45996,.16516-.47852,.41077s.16504,.45996,.41064,.47876Z"/></g></g></svg>