<?xml version="1.0" encoding="UTF-8"?><svg id="Layer_2" xmlns="http://www.w3.org/2000/svg" viewBox="0 0 24.76713 24.94848"><defs><style>.cls-1{fill:#783cbe;}</style></defs><g id="Layer_1-2"><g><path class="cls-1" d="M23.83895,11.51976c-.51172-.2627-1.09717-.23657-1.57275,.01587l-2.2251-2.37231c-.00293-.00317-.00732-.00415-.01025-.00732l1.54199-1.40894c.01367,.00732,.0249,.01758,.03857,.02466,.24316,.125,.50684,.18848,.77246,.18848,.17578,0,.35254-.02832,.52441-.08398,.43262-.13965,.78418-.43945,.99219-.84473,.20605-.4043,.24316-.86523,.10352-1.29785-.14062-.43262-.44043-.78418-.84473-.99121s-.86816-.24219-1.29785-.10352c-.43262,.13965-.78418,.44043-.99023,.84473-.20703,.4043-.24414,.86426-.10449,1.29688,.04443,.1377,.10986,.26331,.18506,.38245l-3.75537,3.43201h-3.60547l.00488-4.71875h2.27051c.1084,0,.21289-.04102,.29102-.11523l1.54102-1.44971c.23389,.12158,.49561,.19678,.77734,.19678,.93848,0,1.70117-.7627,1.70117-1.70117,0-.9375-.7627-1.7002-1.70117-1.7002s-1.70117,.7627-1.70117,1.7002c0,.34717,.10547,.66956,.28418,.93896l-1.36133,1.28076h-2.10107l.00342-3.5c0-.13086-.06055-.25488-.16406-.33594C11.23543-.51832,8.60067-.18238,6.96492,.91234c-1.32422,.88477-2.00684,2.2207-1.87598,3.59375-.58301-.04102-1.1416,.04688-1.66602,.2627-.2168,.08984-.31934,.33789-.22949,.55566,.08984,.2168,.33887,.32129,.55566,.22949,.52539-.21704,1.10352-.26221,1.71777-.13623,.20996,.39941,.48828,.7655,.82422,1.08154-.04443,.56323-.89697,1.42188-1.39746,1.61914-.21875,.08691-.3252,.33398-.23926,.55176,.06641,.16699,.22656,.26855,.39551,.26855,.05176,0,.10547-.00977,.15625-.0293,.55518-.21985,1.48096-1.01514,1.81152-1.86743,.46338,.28345,.97852,.49658,1.53418,.59595,.02539,.00488,.05078,.00684,.0752,.00684,.20215,0,.38184-.14453,.41797-.34961,.04199-.23145-.1123-.45215-.34277-.49316-1.40869-.25244-2.54346-1.32031-2.77051-2.60046-.01416-.98584,.51172-1.91809,1.50586-2.58313,1.33984-.89648,3.48047-1.19043,5.3125,.12109l-.00195,2.89893c-.40527,.53638-1.5,.6615-2.46387,.27295-.33301-.13379-1.40527-.65625-1.2373-1.73633,.03613-.23242-.12305-.44922-.35449-.48535-.22559-.03906-.44922,.12207-.48535,.35449-.17578,1.12891,.49805,2.14648,1.75879,2.65527,.45117,.18262,.97168,.28613,1.48047,.28613,.46582,0,.91406-.10034,1.30078-.29443l-.00293,4.31592c-.37012-.15088-.87402-.33057-1.23535-.3877-1.56738-.24609-2.73535,.34375-3.51074,1.82422-.47461,.90723-.8916,1.58789-1.53613,1.39258-.34668-.10352-.52344-.41016-.78223-.90137-.11133-.21021-.23242-.43164-.38135-.63904,.43994-.15186,.86328-.42493,1.20264-.81604,.15332-.17773,.13477-.44629-.04297-.59961-.17773-.1543-.44727-.13477-.59961,.04297-.35938,.41504-.86914,.66113-1.28418,.66016-.29297-.00488-.54102-.13086-.7373-.37402-.14648-.18262-.41504-.21191-.59766-.06445s-.21191,.41504-.06445,.59766c.2666,.33081,.60205,.547,.9834,.6394,.01855,.01343,.03271,.03149,.05371,.04224,.32227,.16211,.51367,.52441,.71582,.9082,.27344,.51953,.58496,1.10742,1.29199,1.31836,.16797,.05078,.32715,.07324,.47656,.07324,1.06738,0,1.67871-1.16699,2.09375-1.95898,.57324-1.09473,1.36816-1.49414,2.58594-1.30566,.37646,.05896,1.0874,.33691,1.36768,.4751l-.00342,4.20239c-.63477-.15283-1.19287-.12415-1.65332,.10571-.54785,.27246-.94824,.80566-1.19043,1.58301-.23828,.76562-.00293,1.44336,.2041,2.04102,.1875,.54004,.34863,1.00684,.18359,1.49023-.18457,.54102-.56055,.7666-1.13184,.67676-.2168-.03809-.44922,.11719-.4873,.35059-.03809,.23145,.11816,.4502,.35059,.4873,.12695,.02148,.25195,.03223,.37207,.03223,.80078,0,1.42285-.45703,1.70117-1.27148,.25977-.75977,.02344-1.44238-.18555-2.04395-.1875-.54297-.34961-1.01172-.19434-1.51074,.16992-.54688,.42383-.9082,.75684-1.07324,.31885-.15942,.74902-.14795,1.27393,.01245l-.00439,6.26782c.07422,.50684-.09473,.92578-.50488,1.24707-.85156,.66602-2.51562,.74805-3.87402,.19043-.80762-.33032-2.19727-1.17297-2.45264-3.10327-.06299-.77295,.39062-1.10059,1.19873-1.60864,1.1582-.72852,2.59961-1.63672,.90918-4.7627-.1123-.20801-.36914-.28027-.57617-.17188-.20605,.1123-.2832,.37012-.17188,.57617,1.3125,2.42676,.46289,2.96191-.61426,3.63965-.68359,.42993-1.50977,.95923-1.58984,2.02686-1.12646,.21899-2.15869-.12085-2.80469-.94678-.66846-.854-.74805-2.00781-.23633-3.05859,.01367-.01611,.03369-.02429,.04492-.04297,.23242-.37988,.81836-.53809,1.74805-.48535,.36426,.02344,.80469,.24121,1.12695,.39941,.19141,.09473,.35059,.16895,.4541,.19727,.22168,.0625,.45996-.06934,.52344-.29492s-.06836-.46094-.29492-.52344c-.07031-.01953-.17578-.07617-.30664-.14062-.38574-.19141-.91504-.45215-1.4502-.48535-.91357-.05859-1.60449,.0896-2.07617,.42542-.60596-.54944-.97607-1.50037-.93457-2.54553,.04297-1.08496,.50684-2.00879,1.21094-2.41211,.2041-.11719,.27441-.37598,.1582-.58008-.3623-.63477-.46582-1.16602-.37109-1.89551,.03027-.23242-.13477-.44629-.36719-.47656-.23047-.01953-.44531,.13477-.47656,.36719-.10156,.78516-.0166,1.41211,.29492,2.07715C.53035,10.51098,.05281,11.55785,.00399,12.78344c-.05176,1.31348,.40332,2.51562,1.2041,3.23633-.61328,1.32422-.47949,2.78125,.37695,3.87598,.81934,1.04785,2.15039,1.51953,3.55273,1.27734,.34082,1.53027,1.35547,2.70508,2.89648,3.33594,.71973,.29492,1.48926,.43945,2.2207,.43945,.96875,0,1.87012-.25391,2.5-.74805,.64941-.50879,.94043-1.2334,.8252-1.97852l.00195-2.13086h2.13477l1.36133,1.28223c-.17871,.26929-.28418,.59155-.28418,.93848,0,.9375,.7627,1.7002,1.70117,1.7002,.9375,0,1.7002-.7627,1.7002-1.7002,0-.93848-.7627-1.70117-1.7002-1.70117-.28174,0-.54395,.07544-.77832,.19702l-1.54004-1.45093c-.07812-.07422-.18262-.11523-.29102-.11523h-2.30273l.00293-3.48999,4.30957-.02466,2.59961,2.44995c-.12549,.23706-.20312,.50293-.20312,.78931,0,.93848,.7627,1.70117,1.70117,1.70117,.9375,0,1.7002-.7627,1.7002-1.70117s-.7627-1.70117-1.7002-1.70117c-.34375,0-.66211,.104-.92969,.27954l-2.70898-2.55298c-.07812-.07422-.18262-.11523-.29102-.11523h-.00195l-4.47461,.02551,.00342-3.45715h3.771c.10645,0,.20801-.03906,.28711-.11133l1.76074-1.60889c.00537,.00659,.00684,.01477,.0127,.021l2.22168,2.3689c-.03125,.04834-.06689,.09253-.09375,.14478-.42578,.83594-.09375,1.8623,.74121,2.29004,.24707,.12598,.51074,.18555,.77051,.18555,.62012,0,1.21777-.33887,1.51758-.92676,.20801-.4043,.24414-.86523,.10449-1.29785s-.43945-.78418-.84473-.99023ZM18.47567,1.95629c.46973,0,.85156,.38184,.85156,.85059,0,.46973-.38184,.85156-.85156,.85156s-.85156-.38184-.85156-.85156c0-.46875,.38184-.85059,.85156-.85059Zm.87012,20.35547c0,.46875-.38184,.85059-.85059,.85059-.46973,0-.85156-.38184-.85156-.85059,0-.46973,.38184-.85156,.85156-.85156,.46875,0,.85059,.38184,.85059,.85156Zm3.49805-3.3457c0,.46973-.38184,.85156-.85059,.85156-.46973,0-.85156-.38184-.85156-.85156s.38184-.85156,.85156-.85156c.46875,0,.85059,.38184,.85059,.85156Zm-1.21582-13.0957c.10254-.20312,.2793-.35254,.49512-.42285,.08594-.02832,.1748-.04199,.2627-.04199,.13281,0,.26465,.03223,.38672,.09375v.00098c.20215,.10254,.35254,.2793,.42285,.49512,.06934,.2168,.05078,.44727-.05176,.64941-.10449,.20215-.28027,.35254-.49707,.42285-.21582,.06934-.44629,.05176-.64844-.05273-.20312-.10254-.35254-.2793-.42285-.49512-.07031-.2168-.05176-.44727,.05273-.64941Zm2.19434,7.55078c-.21289,.41699-.72656,.58203-1.14453,.37109-.41797-.21387-.58398-.72852-.37109-1.14648,.10449-.20215,.28027-.35156,.49707-.42188,.08594-.02832,.17383-.04199,.26172-.04199,.13281,0,.26465,.03223,.38672,.09375v.00098c.20312,.10254,.35254,.2793,.42285,.49512s.05176,.44629-.05273,.64941Z"/><path class="cls-1" d="M2.13485,6.70336c.24805,.01904,.46436-.1665,.4834-.41431,.01855-.2478-.16699-.46411-.41455-.48315-.24805-.0188-.46436,.16663-.48291,.41455-.01904,.2478,.1665,.46399,.41406,.48291Z"/></g></g></svg>