<?xml version="1.0" encoding="UTF-8"?><svg id="Layer_2" xmlns="http://www.w3.org/2000/svg" viewBox="0 0 25.33496 25.02952"><defs><style>.cls-1{fill:#783cbe;}</style></defs><g id="Layer_1-2"><g><path class="cls-1" d="M2.74219,11.29905c.93848,0,1.70117-.7627,1.70117-1.70117,0-.20728-.04248-.40369-.11084-.58765l4.01025-2.66479c.29785,.25659,.68115,.41748,1.10449,.41748,.58789,0,1.10645-.29956,1.41211-.75391l3.85645,1.3811c-.00439,.0481-.01465,.09424-.01465,.14331,0,.93848,.76367,1.70117,1.70215,1.70117s1.70117-.7627,1.70117-1.70117c0-.27759-.07324-.53613-.19141-.76782l1.67969-1.56226c.17188-.16016,.18164-.42871,.02246-.60059-.16016-.17285-.43066-.18262-.60059-.02246l-1.65918,1.54321c-.27197-.18433-.59961-.29224-.95215-.29224-.58789,0-1.10645,.29956-1.4126,.75391l-3.85645-1.38147c.00391-.04761,.01416-.09338,.01416-.14197,0-.93848-.7627-1.70215-1.70117-1.70215s-1.70215,.76367-1.70215,1.70215c0,.20728,.04248,.40356,.11084,.58728l-4.00977,2.66455c-.29785-.25671-.68066-.41785-1.104-.41785-.93848,0-1.70215,.76367-1.70215,1.70215s.76367,1.70117,1.70215,1.70117Zm13.66113-4.61816c.46973,0,.85156,.38281,.85156,.85254s-.38184,.85156-.85156,.85156-.85254-.38184-.85254-.85156,.38281-.85254,.85254-.85254Zm-6.95605-2.47168c.46973,0,.85156,.38281,.85156,.85254s-.38184,.85156-.85156,.85156-.85254-.38184-.85254-.85156,.38281-.85254,.85254-.85254ZM2.74219,8.74534c.46973,0,.85156,.38281,.85156,.85254s-.38184,.85156-.85156,.85156-.85254-.38184-.85254-.85156,.38281-.85254,.85254-.85254Z"/><path class="cls-1" d="M22.08984,3.16038c.26758,.16016,.56836,.24316,.87305,.24316,.13867,0,.27734-.01758,.41602-.05176,.90918-.22754,1.46484-1.15332,1.2373-2.06348v-.00098c-.22656-.90918-1.15039-1.46191-2.06445-1.2373-.91016,.22754-1.46484,1.15332-1.2373,2.0625,.11035,.44141,.38574,.81348,.77539,1.04785Zm.14551-1.89746c.11621-.19531,.30273-.33301,.52246-.38867,.06934-.0166,.13867-.02539,.20703-.02539,.38184,0,.73047,.25879,.82715,.64551,.11328,.45605-.16406,.91895-.61914,1.0332-.45801,.10742-.9209-.16406-1.03418-.62109-.05469-.21973-.02051-.44922,.09668-.64355Z"/><path class="cls-1" d="M11.49902,9.91038H7.31348c-.23438,0-.4248,.19043-.4248,.4248v14.26953c0,.23438,.19043,.4248,.4248,.4248h4.18555c.23438,0,.4248-.19043,.4248-.4248V10.33518c0-.23438-.19043-.4248-.4248-.4248Zm-.4248,14.26953h-3.33594V10.75999h3.33594v13.41992Z"/><path class="cls-1" d="M4.61035,13.85374H.4248c-.23438,0-.4248,.19043-.4248,.4248v10.32617c0,.23438,.19043,.4248,.4248,.4248H4.61035c.23438,0,.4248-.19043,.4248-.4248V14.27854c0-.23438-.19043-.4248-.4248-.4248Zm-.4248,10.32617H.84961V14.70335h3.33594v9.47656Z"/><path class="cls-1" d="M18.8125,24.60471V12.24534c0-.23438-.19043-.4248-.4248-.4248h-4.18555c-.23438,0-.4248,.19043-.4248,.4248v12.35938c0,.23438,.19043,.4248,.4248,.4248h4.18555c.23438,0,.4248-.19043,.4248-.4248Zm-.84961-.4248h-3.33594V12.67014h3.33594v11.50977Z"/><path class="cls-1" d="M20.36133,7.24827V24.52561c0,.23438,.19043,.4248,.4248,.4248h4.12402c.23438,0,.4248-.19043,.4248-.4248V7.24827c0-.23438-.19043-.4248-.4248-.4248h-4.12402c-.23438,0-.4248,.19043-.4248,.4248Zm.84961,.4248h3.27441V24.10081h-3.27441V7.67307Z"/><path class="cls-1" d="M20.53711,4.08152c.23926,.01831,.44727-.16064,.46582-.39941,.01807-.23889-.16064-.44727-.39941-.46558s-.44727,.16064-.46582,.39941c-.01807,.23877,.16064,.44727,.39941,.46558Z"/></g></g></svg>