<?xml version="1.0" encoding="UTF-8"?><svg id="Layer_2" xmlns="http://www.w3.org/2000/svg" viewBox="0 0 27.23242 17.18066"><defs><style>.cls-1{fill:#783cbe;}</style></defs><g id="Layer_1-2"><g><path class="cls-1" d="M24.39844,9.28809c.01855-.1748,.02734-.34375,.02734-.51172,0-2.79883-2.2373-5.08398-5.01758-5.16113-.71777-2.14453-2.73535-3.61523-5.01953-3.61523-.15137,0-.2998,.00586-.44727,.01855l-.25195,.02734c-.23242,.0293-.39844,.24121-.36914,.47461,.0293,.23242,.24512,.39551,.47461,.36914l.21875-.02344c2.11719-.17871,4.12109,1.22168,4.66895,3.29004,.05176,.19141,.40527,.31055,.58008,.30664,2.37793,0,4.31348,1.93555,4.31348,4.31348,0,.24023-.02344,.48633-.07031,.75293-.04102,.22656,.10645,.44434,.33203,.49023,1.47461,.30273,2.54492,1.61621,2.54492,3.12305,0,1.75781-1.43066,3.18848-3.18848,3.18848H5.69629c-2.67188,0-4.84668-2.1748-4.84668-4.84668,0-2.13086,1.37012-3.98828,3.40918-4.62109,.16504-.05176,.28223-.19727,.29688-.36816,.20996-2.34082,2.1416-4.10645,4.49414-4.10645,.48242,0,.96582,.08008,1.43457,.23828,.03027,.00977,.06055,.01562,.08984,.01855,1.79785,.64062,2.99902,2.33887,2.99902,4.25488l-.00049,.24707-.67627-.66602c-.16602-.16504-.43652-.16406-.60059,.00488-.16504,.16699-.16309,.43555,.00488,.60059l1.39746,1.37598c.08203,.08203,.19043,.12207,.29785,.12207,.10938,0,.21973-.04199,.30273-.12695l1.37598-1.39746c.16504-.16699,.16309-.43555-.00488-.60059-.16602-.16504-.43652-.16406-.60059,.00488l-.64697,.65674,.00049-.22119c0-2.3125-1.47266-4.3584-3.71875-5.1084-.0332-.01074-.06641-.01758-.09961-.01953-.50879-.15527-1.03125-.2334-1.55469-.2334-2.70117,0-4.93652,1.95898-5.30859,4.60156-2.24902,.81836-3.74121,2.93262-3.74121,5.34375,0,3.14062,2.55566,5.69629,5.69629,5.69629H23.19434c2.22656,0,4.03809-1.81152,4.03809-4.03809,0-1.77344-1.16992-3.33496-2.83398-3.85449Z"/><path class="cls-1" d="M11.67139,.70496c-.09814,.23254,.01123,.50061,.24365,.59851s.50049-.01111,.59863-.24365c.09814-.23267-.01123-.50061-.24365-.59863-.23291-.0979-.50049,.01123-.59863,.24377Z"/></g></g></svg>