<?xml version="1.0" encoding="UTF-8"?><svg id="Layer_2" xmlns="http://www.w3.org/2000/svg" viewBox="0 0 25.19824 26.42969"><defs><style>.cls-1{fill:#783cbe;}</style></defs><g id="Layer_1-2"><g><path class="cls-1" d="M18.46777,14.42969c-.06738-.15332-.2168-.25195-.38379-.25391l-4.63477-.05176,2.42188-4.84961c.06641-.13086,.05859-.28809-.01855-.41309s-.21387-.20117-.36133-.20117h-4.37891c-.23438,0-.4248,.19043-.4248,.4248s.19043,.4248,.4248,.4248h3.69141l-2.41797,4.8418c-.06543,.13086-.05957,.28613,.01758,.41113,.07617,.125,.21094,.20117,.35742,.20312l4.37695,.04883-8.17676,9.13965,2.22559-6.4707c.04395-.12988,.02344-.27344-.05664-.38574-.0791-.11133-.20801-.17773-.3457-.17773l-3.04199,.00098,2.46777-6.28613c.08594-.21875-.02148-.46484-.24023-.55078-.21875-.08691-.46582,.02148-.55078,.24023l-2.69531,6.86621c-.05176,.13086-.03516,.27832,.04395,.39453,.08008,.11621,.21094,.18555,.35156,.18555l3.06934-.00098-2.71582,7.89648c-.06543,.19141,.0127,.40332,.1875,.50488,.06641,.04004,.14062,.05859,.21484,.05859,.11719,0,.2334-.04883,.31641-.1416l10.2041-11.4043c.11133-.12402,.13965-.30176,.07227-.4541Z"/><path class="cls-1" d="M5.75,15.84961h-1.61426c-1.81152,0-3.28613-1.44824-3.28613-3.22852,0-1.22559,.7002-2.33105,1.82715-2.88672,.15918-.07812,.25293-.24707,.23535-.42285-.01172-.11328-.01758-.22852-.01758-.34375,0-.37402,.05762-.74121,.1709-1.09082,.07227-.22266-.0498-.46289-.27344-.53516s-.46387,.0498-.53516,.27344c-.14062,.43457-.21191,.88965-.21191,1.35254,0,.04688,.00098,.09375,.00195,.14062-1.26953,.73438-2.04688,2.05566-2.04688,3.5127,0,2.24902,1.85547,4.07812,4.13574,4.07812h1.61426c.23438,0,.4248-.19043,.4248-.4248s-.19043-.4248-.4248-.4248Z"/><path class="cls-1" d="M22.85547,8.95215c.06445-.40039,.09668-.80957,.09668-1.21973,0-4.26367-3.51953-7.73242-7.84668-7.73242-3.14551,0-5.99414,1.87793-7.21777,4.71387-.96777-.29395-2.03125-.25684-2.98047,.11035-.21875,.08496-.32812,.33105-.24316,.5498,.08496,.21973,.33105,.32715,.5498,.24316,.88086-.33984,1.87793-.33301,2.75488,.02734,.10938,.04492,.22656,.04297,.33301-.00391,.10547-.0459,.18848-.13379,.22852-.24219,.99902-2.7207,3.6416-4.54883,6.5752-4.54883,3.8584,0,6.99707,3.08789,6.99707,6.88281,0,.46973-.04785,.9375-.14258,1.38965-.04297,.20508,.07031,.41113,.2666,.48438,1.26855,.47852,2.12207,1.69043,2.12207,3.01465,0,1.78027-1.47461,3.22852-3.28613,3.22852h-2.15723c-.23438,0-.4248,.19043-.4248,.4248s.19043,.4248,.4248,.4248h2.15723c2.28027,0,4.13574-1.8291,4.13574-4.07812,0-1.55859-.92773-2.99121-2.34277-3.66895Z"/><path class="cls-1" d="M3.12598,6.17261c-.01855,.24365,.16357,.45642,.40771,.4751,.24365,.01855,.45605-.16382,.4751-.40771,.01855-.24365-.16406-.4563-.40771-.4751-.24365-.01855-.45654,.16394-.4751,.40771Z"/></g></g></svg>