<?xml version="1.0" encoding="UTF-8"?><svg id="Layer_2" xmlns="http://www.w3.org/2000/svg" viewBox="0 0 27.66717 24.91992"><defs><style>.cls-1{fill:#783cbe;}</style></defs><g id="Layer_1-2"><g><path class="cls-1" d="M10.57914,8.37793c.53027-.5918,.47656-1.50684-.11816-2.04199-.5957-.53516-1.51172-.48828-2.04297,.10156-.53027,.5918-.47656,1.50684,.11816,2.04199,.12988,.11646,.27686,.19946,.42969,.26123v3.93408c0,.10742,.04102,.21191,.11426,.29004l2.54883,2.72656,.01514,3.48621c-.28955,.06458-.55957,.19031-.76123,.41516-.25781,.28711-.38672,.65723-.36426,1.04395,.02246,.38477,.19336,.73926,.48145,.99805,.27051,.24219,.6123,.37305,.97168,.37305,.02734,0,.05371,0,.08105-.00195,.38379-.02051,.73535-.18945,.99023-.47363,.25781-.28711,.38672-.65723,.36426-1.04395-.02246-.38477-.19336-.73926-.48145-.99805-.12988-.11621-.27637-.20312-.43213-.26636l-.01611-3.70337c0-.10742-.04102-.20996-.11426-.28809l-2.54785-2.72559v-3.68823c.28516-.06152,.55469-.20837,.76367-.44067Zm1.83105,12.58691c-.10352,.11523-.24707,.18359-.4043,.19238-.1416,.00684-.31641-.0459-.4375-.15527-.12012-.10742-.19141-.25488-.20117-.41504-.00977-.1582,.04297-.30957,.14844-.42578,.10449-.11719,.25-.18555,.4082-.19336,.00977-.00098,.01953-.00098,.0293-.00098,.14941,0,.29199,.05469,.4043,.15625,.12012,.10742,.19141,.25488,.20117,.41504,.00977,.1582-.04297,.30957-.14844,.42676Zm-3.35938-13.95898c.11523-.12793,.27441-.19336,.43652-.19336,.14355,0,.28906,.05176,.40527,.15625,.24707,.22168,.27148,.59863,.05371,.84082-.21777,.24023-.59473,.25879-.8418,.03711s-.27148-.59863-.05371-.84082Z"/><path class="cls-1" d="M15.30375,15.23242c-.07324,.07812-.11426,.18066-.11426,.28809l-.01611,3.70532c-.15576,.06299-.30322,.14917-.43213,.2644-.59473,.53516-.64844,1.4502-.11816,2.04199,.25781,.28711,.6123,.45508,.99902,.47461,.02441,.00098,.04785,.00098,.07227,.00098,.35938,0,.70117-.13086,.97168-.37305,.28809-.25879,.45898-.61328,.48145-.99707,.02344-.38672-.10547-.75781-.36328-1.04492-.20166-.22485-.47168-.35059-.76123-.41516l.01514-3.48621,2.54883-2.72656c.07324-.07812,.11426-.18262,.11426-.29004v-3.93408c.15283-.06177,.2998-.14478,.42969-.26123,.28809-.25879,.45898-.61328,.48145-.99805,.02246-.38672-.10645-.75684-.36426-1.04395-.25781-.28613-.6123-.45508-.99902-.47363-.40234-.01172-.75586,.11426-1.04395,.37207-.28809,.25879-.45898,.61328-.48145,.99805-.02246,.38672,.10645,.75684,.36426,1.04395,.20947,.23242,.47803,.37927,.76367,.44067v3.68823l-2.54785,2.72559Zm.99609,5.35449c-.00977,.15918-.08203,.30664-.20215,.41504-.12012,.10742-.28223,.16504-.43359,.15527-.1582-.00781-.30371-.07617-.4082-.19336-.21777-.24219-.19336-.61914,.05371-.84082,.1123-.10156,.25488-.15625,.4043-.15625,.00977,0,.01953,0,.0293,.00098,.1582,.00781,.30371,.07617,.4082,.19336,.10547,.11621,.15723,.26758,.14844,.42578Zm1.27246-13.20312c.00977-.16016,.08105-.30762,.20117-.41504,.1123-.10156,.25586-.15625,.40527-.15625,.00977,0,.01953,0,.0293,.00098,.1582,.00684,.30273,.0752,.40723,.19238,.10547,.11621,.1582,.26758,.14844,.42578-.00977,.16016-.08105,.30762-.20117,.41504-.24609,.2207-.62305,.20508-.8418-.03711-.10547-.11621-.1582-.26758-.14844-.42578Z"/><path class="cls-1" d="M14.93265,5.32812c.53027-.5918,.47754-1.50684-.11719-2.04199-.28906-.25879-.66602-.39551-1.04297-.37207-.38672,.01855-.74219,.18652-1,.47363s-.38672,.65723-.36426,1.04395c.02246,.38477,.19336,.73926,.48145,.99805,.15723,.14062,.34229,.23145,.53711,.29346v4.99463c0,.00403,.00195,.00732,.00244,.01135-.24316,.07324-.4751,.18701-.65674,.38806-.53027,.5918-.47754,1.50684,.11719,2.04199,.27051,.24316,.61328,.37402,.97266,.37402,.02734,0,.05371-.00098,.08105-.00195,.38281-.02148,.73438-.18945,.98926-.47363,.25781-.28711,.38672-.65723,.36426-1.04395-.02246-.38477-.19336-.73926-.48145-.99805-.16064-.14429-.3457-.23853-.53906-.29883V5.71631c.24756-.0752,.479-.19165,.65625-.38818Zm-1.52734-1.37207c.10449-.11719,.24902-.18555,.40723-.19336,.00977,0,.01953-.00098,.0293-.00098,.14941,0,.29199,.05566,.40527,.15723,.24707,.22168,.27051,.59863,.05273,.84082-.10449,.11719-.24902,.18555-.40723,.19238-.16113,.01074-.31543-.04785-.43457-.15527-.12012-.10742-.19141-.25488-.20117-.41504-.00977-.1582,.04297-.30957,.14844-.42578Zm.89453,8.53418c-.10352,.11523-.24609,.18359-.40332,.19238-.15234-.00488-.31641-.04688-.43848-.15625-.24707-.22168-.27051-.59863-.05273-.84082,.11523-.12793,.27441-.19336,.43652-.19336,.14355,0,.28906,.05176,.40527,.15625,.12012,.10742,.19141,.25488,.20117,.41504,.00977,.1582-.04297,.30957-.14844,.42676Z"/><path class="cls-1" d="M1.81449,11.12598c.02051,.00293,.04199,.00391,.0625,.00391,.20703,0,.38867-.15234,.41992-.36328,.37598-2.5791,1.63672-4.98633,3.54883-6.7793,.1709-.16016,.17969-.42871,.01855-.60059-.16016-.16992-.42969-.17969-.60059-.01855-2.05176,1.92285-3.4043,4.50684-3.80859,7.27539-.0332,.23242,.12695,.44824,.35938,.48242Z"/><path class="cls-1" d="M25.7393,13.92285c-.22656-.03613-.44922,.12207-.48633,.35352-.8916,5.6748-5.71484,9.79395-11.46875,9.79395-5.58301,0-10.31689-3.92114-11.3833-9.36157l.60498,.46509c.18457,.1416,.4502,.10938,.5957-.07812,.14355-.18555,.1084-.45312-.07812-.5957l-1.60547-1.23438c-.1875-.14355-.49121-.05859-.63477,.12891L.08793,14.94824c-.14258,.18555-.1084,.45215,.07812,.5957,.07715,.05957,.16797,.08789,.25879,.08789,.12695,0,.25293-.05664,.33691-.16602l.73877-.95996c.00098,.01624-.00439,.03149-.00146,.04785,1.0166,6.00684,6.18359,10.36621,12.28516,10.36621,6.1748,0,11.35156-4.4209,12.30859-10.51074,.03613-.23242-.12207-.4502-.35352-.48633Z"/><path class="cls-1" d="M27.47367,9.25586c-.19434-.12695-.45898-.07227-.58789,.125l-.78809,1.21448C25.18705,4.54236,19.93217,0,13.78422,0c-1.97266,0-3.86035,.44824-5.60938,1.33203-.20996,.10547-.29395,.36133-.1875,.57031,.10449,.20996,.36133,.29492,.57031,.1875,1.62988-.82227,3.38867-1.24023,5.22656-1.24023,5.71729,0,10.60596,4.21729,11.46826,9.83948l-1.05127-.71838c-.19727-.13477-.45898-.08398-.59082,.11035-.13281,.19434-.08301,.45898,.11035,.59082l1.95508,1.33594c.07129,.04883,.15527,.07422,.24023,.07422,.02832,0,.05566-.00293,.08398-.00781,.1123-.02246,.20996-.08984,.27246-.18555l1.32617-2.04492c.12793-.19727,.07129-.45996-.125-.58789Z"/><path class="cls-1" d="M6.86723,3.03076c.23486,0,.42529-.19019,.42529-.42493s-.19043-.42493-.42529-.42493c-.23438,0-.4248,.19019-.4248,.42493s.19043,.42493,.4248,.42493Z"/></g></g></svg>