<?xml version="1.0" encoding="UTF-8"?><svg id="Layer_2" xmlns="http://www.w3.org/2000/svg" viewBox="0 0 27.53125 24.93262"><defs><style>.cls-1{fill:#783cbe;}</style></defs><g id="Layer_1-2"><g><path class="cls-1" d="M20.29297,13.00879h-4.40527c-.23438,0-.4248,.19043-.4248,.4248v10.77734c0,.39844,.32324,.72168,.72168,.72168h3.81152c.39844,0,.72168-.32324,.72168-.72168V13.43359c0-.23438-.19043-.4248-.4248-.4248Zm-.4248,11.07422h-3.55566V13.8584h3.55566v10.22461Z"/><path class="cls-1" d="M27.10645,17.85449h-4.40625c-.23438,0-.4248,.19043-.4248,.4248v5.92285c0,.39844,.32324,.72168,.72168,.72168h3.8125c.39844,0,.72168-.32324,.72168-.72168v-5.92285c0-.23438-.19043-.4248-.4248-.4248Zm-.4248,6.21973h-3.55664v-5.37012h3.55664v5.37012Z"/><path class="cls-1" d="M13.48047,14.12891h-4.40625c-.23438,0-.4248,.19043-.4248,.4248v9.65723c0,.39844,.32422,.72168,.72266,.72168h3.81152c.39844,0,.72168-.32324,.72168-.72168V14.55371c0-.23438-.19043-.4248-.4248-.4248Zm-.4248,9.9541h-3.55664V14.97852h3.55664v9.10449Z"/><path class="cls-1" d="M6.66797,10.34473H2.26172c-.23438,0-.4248,.19043-.4248,.4248v13.43164c0,.39844,.32324,.72168,.72168,.72168h3.8125c.39844,0,.72168-.32324,.72168-.72168V10.76953c0-.23438-.19043-.4248-.4248-.4248Zm-.4248,13.72852H2.68652V11.19434h3.55664v12.87891Z"/><path class="cls-1" d="M10.25,8.92773c-.13672,.19043-.09277,.45605,.09863,.59277l1.78223,1.27539c.11133,.0791,.25293,.10156,.38086,.05762l5.84277-1.94238,7.17773,5.62988h-1.41992c-.23438,0-.4248,.19043-.4248,.4248s.19043,.4248,.4248,.4248h2.48926c.23438,0,.4248-.19043,.4248-.4248v-2.58887c0-.23438-.19043-.4248-.4248-.4248s-.4248,.19043-.4248,.4248v1.58936l-7.47656-5.86475c-.11328-.08789-.25977-.11523-.39648-.06934l-5.85449,1.94629-1.60645-1.14941c-.18652-.13574-.45605-.09375-.59277,.09863Z"/><path class="cls-1" d="M4.59668,4.06055c-.5293-.17188-.5293-.34473-.5293-.41797,0-.21362,.17139-.38647,.38281-.39453,.00537,.00024,.00977,.00293,.01465,.00293,.00391,0,.00732-.0022,.01123-.0022,.16943,.00513,.31689,.11255,.36865,.27466,.06934,.22363,.30762,.35059,.53223,.27832,.22363-.06934,.34863-.30859,.27832-.53223-.11865-.38037-.40723-.66589-.76562-.79541v-.11279c0-.23438-.19043-.4248-.4248-.4248s-.4248,.19043-.4248,.4248v.12012c-.47705,.17529-.82227,.62427-.82227,1.16113,0,.57227,.375,.98535,1.11523,1.22656,.5293,.17188,.5293,.30859,.5293,.41895,0,.21875-.17871,.39746-.39746,.39746-.17578,0-.33301-.11816-.38281-.28711-.06543-.22363-.30078-.36133-.52734-.28711-.22461,.06543-.35352,.30176-.28711,.52734,.11328,.38574,.40869,.68213,.77246,.81616v.11938c0,.23438,.19043,.4248,.4248,.4248s.4248-.19043,.4248-.4248v-.12512c.47705-.17517,.82227-.62415,.82227-1.16101,0-.86328-.81055-1.12793-1.11523-1.22754Z"/><path class="cls-1" d="M4.46484,0C2.00293,0,0,2.00293,0,4.46484s2.00293,4.46387,4.46484,4.46387,4.46484-2.00195,4.46484-4.46387S6.92676,0,4.46484,0Zm0,8.0791c-1.99316,0-3.61523-1.62109-3.61523-3.61426S2.47168,.84961,4.46484,.84961s3.61523,1.62207,3.61523,3.61523-1.62207,3.61426-3.61523,3.61426Z"/><path class="cls-1" d="M9.10107,8.70654c.26953-.02075,.47119-.25574,.45068-.52515-.021-.26929-.25586-.47095-.52539-.45044-.26904,.02063-.4707,.25562-.4502,.52502s.25537,.47107,.5249,.45056Z"/></g></g></svg>