<?xml version="1.0" encoding="UTF-8"?><svg id="Layer_2" xmlns="http://www.w3.org/2000/svg" viewBox="0 0 23.81348 24.94336"><defs><style>.cls-1{fill:#783cbe;}</style></defs><g id="Layer_1-2"><g><path class="cls-1" d="M19.12305,9.38184c2.58594,0,4.69043-2.10449,4.69043-4.69043,0-2.58691-2.10449-4.69141-4.69043-4.69141-.40234,0-.80469,.05176-1.19434,.15332-.22754,.05957-.36328,.29102-.30371,.51855,.05957,.22656,.28613,.36621,.51855,.30371,.31934-.08301,.64941-.12598,.97949-.12598,2.11816,0,3.84082,1.72363,3.84082,3.8418s-1.72266,3.84082-3.84082,3.84082-3.84082-1.72266-3.84082-3.84082c0-.59277,.13086-1.15918,.3877-1.68555,.10352-.21094,.01562-.46484-.19531-.56836-.20996-.10352-.46484-.0166-.56836,.19531-.31445,.64355-.47363,1.33594-.47363,2.05859,0,2.58594,2.10449,4.69043,4.69043,4.69043Z"/><path class="cls-1" d="M19.08984,6.16309c-.27051,0-.49023-.21973-.49023-.49023,0-.23438-.19043-.4248-.4248-.4248s-.4248,.19043-.4248,.4248c0,.58862,.38672,1.07446,.91504,1.25391v.17773c0,.23438,.19043,.4248,.4248,.4248s.4248-.19043,.4248-.4248v-.17773c.52832-.17944,.91504-.66528,.91504-1.25391,0-.92383-.87695-1.21094-1.20801-1.31934-.62207-.20215-.62207-.41797-.62207-.50977,0-.26538,.2124-.47925,.47559-.4873,.00537,.00024,.00977,.00293,.01465,.00293s.00928-.00269,.01465-.00293c.26318,.00806,.47559,.22192,.47559,.4873,0,.23438,.19043,.4248,.4248,.4248s.4248-.19043,.4248-.4248c0-.58862-.38672-1.07446-.91504-1.25391v-.1709c0-.23438-.19043-.4248-.4248-.4248s-.4248,.19043-.4248,.4248v.1709c-.52832,.17944-.91504,.66528-.91504,1.25391,0,.61426,.40625,1.05762,1.20801,1.31836,.62207,.20312,.62207,.38086,.62207,.51074,0,.27051-.21973,.49023-.49023,.49023Z"/><path class="cls-1" d="M16.50879,1.84485c.24512-.0636,.39209-.31384,.32861-.55896s-.31396-.39233-.55908-.32874-.39209,.31384-.32861,.55896,.31396,.39233,.55908,.32874Z"/><path class="cls-1" d="M11.29395,11.59961c.10645,.08301,.24414,.10938,.37695,.07422l3.90723-1.10156,2.51318,2.53882-1.37549-.0105h-.00293c-.2334,0-.42285,.1875-.4248,.42188s.18652,.42578,.42188,.42773l2.48145,.01953h.00293c.11133,0,.21875-.04395,.29785-.12207,.08105-.0791,.12598-.18652,.12695-.2998l.01855-2.41016c.00195-.23438-.18652-.42578-.42188-.42773h-.00293c-.2334,0-.42285,.1875-.4248,.42188l-.01172,1.46387-2.77051-2.7998c-.10742-.10938-.26465-.15234-.41699-.11035l-3.94141,1.11133L3.2793,4.26367c-.18555-.14355-.45117-.11328-.59668,.07324-.14453,.18555-.11133,.45215,.07324,.59668l8.53809,6.66602Z"/><path class="cls-1" d="M8.34082,16.59082c-.23438,0-.4248,.19043-.4248,.4248v7.50293c0,.23438,.19043,.4248,.4248,.4248h4.83496c.23438,0,.4248-.19043,.4248-.4248v-7.50293c0-.23438-.19043-.4248-.4248-.4248h-4.83496Zm4.41016,7.50293h-3.98535v-6.65332h3.98535v6.65332Z"/><path class="cls-1" d="M16.25684,14.79883c-.23438,0-.4248,.19043-.4248,.4248v9.2793c0,.23438,.19043,.4248,.4248,.4248h4.83496c.23438,0,.4248-.19043,.4248-.4248V15.22363c0-.23438-.19043-.4248-.4248-.4248h-4.83496Zm4.41016,9.2793h-3.98535V15.64844h3.98535v8.42969Z"/><path class="cls-1" d="M5.68457,24.50293V8.86816c0-.23438-.19043-.4248-.4248-.4248H.4248c-.23438,0-.4248,.19043-.4248,.4248v15.63477c0,.23438,.19043,.4248,.4248,.4248H5.25977c.23438,0,.4248-.19043,.4248-.4248Zm-.84961-.4248H.84961V9.29297h3.98535v14.78516Z"/></g></g></svg>