<?xml version="1.0" encoding="UTF-8"?><svg id="Layer_2" xmlns="http://www.w3.org/2000/svg" viewBox="0 0 26.03027 24.96484"><defs><style>.cls-1{fill:#783cbe;}</style></defs><g id="Layer_1-2"><g><path class="cls-1" d="M23.39551,18.90356v-3.71509c0-.23438-.19043-.4248-.4248-.4248H13.49072l.02295-2.44922c.00195-.23438-.18652-.42676-.4209-.42871h-.00391c-.2334,0-.42285,.1875-.4248,.4209l-.02344,2.45703H3.0752c-.23438,0-.4248,.19043-.4248,.4248v3.71338c-1.4917,.19897-2.65039,1.46606-2.65039,3.01123,0,1.68262,1.36914,3.05176,3.05176,3.05176s3.05176-1.36914,3.05176-3.05176c0-1.52905-1.13428-2.78735-2.60352-3.00635v-3.29346H12.63281l-.03076,3.29065c-1.48291,.20764-2.63135,1.47083-2.63135,3.00916,0,1.68262,1.36914,3.05176,3.05273,3.05176,1.68262,0,3.05176-1.36914,3.05176-3.05176,0-1.53601-1.14502-2.79797-2.62354-3.00842l.03076-3.29138h9.06348v3.29175c-1.47656,.2124-2.61914,1.47363-2.61914,3.00806,0,1.68262,1.36914,3.05176,3.05176,3.05176s3.05176-1.36914,3.05176-3.05176c0-1.53979-1.15039-2.80396-2.63477-3.00952Zm-18.1416,3.00952c0,1.21387-.98828,2.20215-2.20215,2.20215s-2.20215-.98828-2.20215-2.20215,.98828-2.20215,2.20215-2.20215,2.20215,.98828,2.20215,2.20215Zm9.97168,0c0,1.21387-.98828,2.20215-2.20215,2.20215-1.21484,0-2.20312-.98828-2.20312-2.20215s.98828-2.20215,2.20312-2.20215c1.21387,0,2.20215,.98828,2.20215,2.20215Zm7.75293,2.20215c-1.21387,0-2.20215-.98828-2.20215-2.20215s.98828-2.20215,2.20215-2.20215,2.20215,.98828,2.20215,2.20215-.98828,2.20215-2.20215,2.20215Z"/><path class="cls-1" d="M6.45117,.4248V8.76465c0,.23438,.19043,.4248,.4248,.4248h11.97266c.23438,0,.4248-.19043,.4248-.4248V2.17285c0-.23438-.19043-.4248-.4248-.4248h-4.91406L12.58203,.15039c-.08105-.0957-.19922-.15039-.32422-.15039H6.87598c-.23438,0-.4248,.19043-.4248,.4248Zm.84961,.4248h4.75977l1.35254,1.59766c.08105,.0957,.19922,.15039,.32422,.15039h4.68652v5.74219H7.30078V.84961Z"/><path class="cls-1" d="M12.70166,10.34497c-.11182,.22046-.02393,.48999,.19629,.60193s.48975,.02405,.60205-.19641c.11182-.22046,.02393-.48987-.19678-.60181-.22021-.11206-.48975-.02405-.60156,.19629Z"/></g></g></svg>