<?xml version="1.0" encoding="UTF-8"?><svg id="Layer_2" xmlns="http://www.w3.org/2000/svg" viewBox="0 0 26.66176 25.04492"><defs><style>.cls-1{fill:#783cbe;}</style></defs><g id="Layer_1-2"><g><path class="cls-1" d="M10.66797,11.24805h-3.28906c-.51758,0-.93848,.4209-.93848,.93848v12.13672c0,.39844,.32324,.72168,.72168,.72168h3.72168c.39844,0,.72266-.32324,.72266-.72168V12.18652c0-.51758-.4209-.93848-.93848-.93848Zm.08887,12.94727h-3.4668V12.18652c0-.04883,.04004-.08887,.08887-.08887h3.28906c.04883,0,.08887,.04004,.08887,.08887v12.00879Z"/><path class="cls-1" d="M.72168,25.04492h3.72168c.39844,0,.72266-.32324,.72266-.72168v-8.07031c0-.51758-.4209-.93848-.93848-.93848H.93848c-.51758,0-.93848,.4209-.93848,.93848v8.07031c0,.39844,.32324,.72168,.72168,.72168Zm.12793-8.79199c0-.04883,.04004-.08887,.08887-.08887h3.28906c.04883,0,.08887,.04004,.08887,.08887v7.94238H.84961v-7.94238Z"/><path class="cls-1" d="M17.1084,13.21777h-3.28906c-.51758,0-.93848,.4209-.93848,.93848v10.16699c0,.39844,.32324,.72168,.72168,.72168h3.72168c.39844,0,.72266-.32324,.72266-.72168V14.15625c0-.51758-.4209-.93848-.93848-.93848Zm.08887,10.97754h-3.4668V14.15625c0-.0498,.03906-.08887,.08887-.08887h3.28906c.04883,0,.08887,.04004,.08887,.08887v10.03906Z"/><path class="cls-1" d="M24.4873,24.19434V6.97461l1.31738,.00293c.32422,0,.61621-.17969,.76367-.46875,.14648-.28809,.11914-.62988-.07129-.8916L22.67871,.36914c-.16699-.23047-.4375-.36914-.72168-.36914h-.00195c-.28418,0-.55469,.1377-.72266,.36816l-3.81445,5.24219c-.19141,.26367-.21777,.60742-.07031,.89746,.14844,.29004,.44238,.46973,.76562,.46973l1.63086,.00586h.00195c.23438,0,.42383-.18945,.4248-.42285,.00098-.23535-.18848-.42578-.42285-.42676l-1.64258-.02344L21.99023,.86816l3.81543,5.25977-1.74219-.00391h-.00098c-.1123,0-.2207,.04492-.2998,.12402-.08008,.08008-.125,.1875-.125,.30078V24.08594h-3.4668l.00293-14.02539c0-.23438-.19043-.4248-.4248-.4248s-.4248,.19043-.4248,.4248l-.00293,14.13379c0,.40918,.33301,.74121,.74219,.74121h3.68164c.40918,0,.74219-.33203,.74219-.74121Z"/><circle class="cls-1" cx="19.77734" cy="8.29272" r=".44629"/></g></g></svg>