<?xml version="1.0" encoding="UTF-8"?><svg id="Layer_2" xmlns="http://www.w3.org/2000/svg" viewBox="0 0 26.99219 24.97461"><defs><style>.cls-1{fill:#783cbe;}</style></defs><g id="Layer_1-2"><g><path class="cls-1" d="M11.52441,11.54004H7.3291c-.23438,0-.4248,.19043-.4248,.4248v12.28809c0,.39844,.32324,.72168,.72168,.72168h3.60156c.39844,0,.72168-.32324,.72168-.72168V11.96484c0-.23438-.19043-.4248-.4248-.4248Zm-.4248,12.58496h-3.3457V12.38965h3.3457v11.73535Z"/><path class="cls-1" d="M4.62012,15.49219H.4248c-.23438,0-.4248,.19043-.4248,.4248v8.33594c0,.39844,.32324,.72168,.72168,.72168h3.60156c.39844,0,.72168-.32324,.72168-.72168V15.91699c0-.23438-.19043-.4248-.4248-.4248Zm-.4248,8.63281H.84961v-7.7832h3.3457v7.7832Z"/><path class="cls-1" d="M14.53027,24.97461h3.60156c.39844,0,.72168-.32324,.72168-.72168V13.87891c0-.23438-.19043-.4248-.4248-.4248h-4.19531c-.23438,0-.4248,.19043-.4248,.4248v10.37402c0,.39844,.32324,.72168,.72168,.72168Zm.12793-10.6709h3.3457v9.82129h-3.3457V14.30371Z"/><path class="cls-1" d="M25.75781,24.25293V10.38086c0-.23438-.19043-.4248-.4248-.4248h-4.19531c-.23438,0-.4248,.19043-.4248,.4248v13.87207c0,.39844,.32324,.72168,.72168,.72168h3.60156c.39844,0,.72168-.32324,.72168-.72168Zm-.84961-.12793h-3.3457V10.80566h3.3457v13.31934Z"/><path class="cls-1" d="M1.83984,12.97949c.09863,0,.19727-.03418,.27832-.10352l6.53516-5.6543,6.21582,3.12988c.13965,.07031,.30957,.05859,.43848-.03418l1.69727-1.21484c.19141-.13672,.23535-.40234,.09863-.59277-.1377-.19238-.40625-.23535-.59277-.09863l-1.48828,1.06543-6.24023-3.14258c-.15332-.07617-.33887-.05469-.46973,.05859L1.56152,12.2334c-.17773,.15332-.19629,.42188-.04297,.59961,.08398,.09668,.20215,.14648,.32129,.14648Z"/><path class="cls-1" d="M22.58887,4.67676c.49023,.15918,.49023,.28125,.49023,.37891,0,.19727-.16113,.3584-.3584,.3584-.1582,0-.2998-.10645-.34375-.25781-.06641-.22461-.2959-.35547-.52734-.28906-.22461,.06543-.35449,.30176-.28906,.52734,.10791,.36902,.38867,.65222,.73535,.78467v.10107c0,.23438,.19043,.4248,.4248,.4248s.4248-.19043,.4248-.4248v-.10254c.45557-.1731,.7832-.60669,.7832-1.12207,0-.83691-.78223-1.0918-1.0752-1.1875-.49121-.16016-.49121-.31348-.49121-.37891,0-.19299,.15479-.34912,.34619-.35596,.00439,.00012,.00781,.00244,.01221,.00244,.00342,0,.00586-.00171,.00928-.00183,.15088,.00427,.2876,.10364,.3335,.24792,.07031,.22363,.30957,.35156,.53223,.27832,.22363-.06934,.34863-.30859,.27832-.53223-.11377-.36401-.3877-.63599-.72852-.76367v-.09473c0-.23438-.19043-.4248-.4248-.4248s-.4248,.19043-.4248,.4248v.09766c-.45557,.1731-.7832,.60669-.7832,1.12207,0,.55371,.36133,.95312,1.07617,1.1875Z"/><path class="cls-1" d="M22.7207,8.54297c2.35547,0,4.27148-1.91602,4.27148-4.27148S25.07617,0,22.7207,0s-4.27148,1.91602-4.27148,4.27148,1.91602,4.27148,4.27148,4.27148Zm0-7.69336c1.88672,0,3.42188,1.53516,3.42188,3.42188s-1.53516,3.42188-3.42188,3.42188-3.42188-1.53516-3.42188-3.42188,1.53516-3.42188,3.42188-3.42188Z"/><path class="cls-1" d="M18.18115,8.31079c.25635,.01953,.47998-.17236,.5-.42896,.01953-.25647-.17236-.48035-.4292-.5-.25635-.01953-.48047,.17249-.5,.42896-.01953,.25659,.17285,.48035,.4292,.5Z"/></g></g></svg>