<?xml version="1.0" encoding="UTF-8"?><svg id="Layer_2" xmlns="http://www.w3.org/2000/svg" viewBox="0 0 21.6468 22.44922"><defs><style>.cls-1{fill:#783cbe;}</style></defs><g id="Layer_1-2"><g><path class="cls-1" d="M10.8107,6.16113c-4.1084,0-8.47559-1.08008-8.47559-3.08105S6.7023,0,10.8107,0s8.47461,1.0791,8.47461,3.08008c0,.50195-.29004,1.2373-1.6709,1.89453-.20898,.10254-.46289,.01172-.56641-.20117-.10059-.21191-.01074-.46582,.20117-.56641,.75391-.3584,1.18652-.76953,1.18652-1.12695,0-.93164-2.90137-2.23047-7.625-2.23047C6.08609,.84961,3.18473,2.14844,3.18473,3.08008s2.90137,2.23145,7.62598,2.23145c1.24707,0,2.4375-.09277,3.54102-.27637,.22363-.04102,.4502,.11816,.48828,.34961,.03906,.23145-.11719,.4502-.34961,.48828-1.14844,.19141-2.38672,.28809-3.67969,.28809Z"/><path class="cls-1" d="M10.80973,9.89941c-3.89355,0-8.04395-.96094-8.44238-2.79688-.0498-.22949,.0957-.45508,.3252-.50488,.22754-.05469,.45508,.0957,.50488,.3252,.22363,1.02734,3.33496,2.12695,7.6123,2.12695,4.72754,0,7.00879-1.03125,7.56738-1.99609,.11914-.20312,.37598-.27051,.58105-.15527,.20312,.11816,.27246,.37793,.15527,.58105-.8916,1.53809-3.91797,2.41992-8.30371,2.41992Z"/><path class="cls-1" d="M10.80973,13.47168c-3.89355,0-8.04395-.96094-8.44238-2.79688-.0498-.22949,.0957-.45508,.3252-.50488,.22754-.05469,.45508,.0957,.50488,.3252,.22363,1.02734,3.33496,2.12695,7.6123,2.12695,4.72754,0,7.00879-1.03125,7.56738-1.99609,.11914-.20312,.37598-.27051,.58105-.15527,.20312,.11816,.27246,.37793,.15527,.58105-.8916,1.53809-3.91797,2.41992-8.30371,2.41992Z"/><path class="cls-1" d="M3.81559,15.93457c-.1123,0-.22461-.04395-.30859-.13184l-.90137-.94922c-.17383-.18164-.27051-.42285-.27051-.67871V3.08008c0-.23438,.19043-.4248,.4248-.4248s.4248,.19043,.4248,.4248V14.1748c.00098,.00098,.03711,.09277,.03809,.09277l.90137,.94922c.16113,.1709,.1543,.43945-.01562,.60156-.08301,.07812-.1875,.11621-.29297,.11621Z"/><path class="cls-1" d="M17.80484,15.93457c-.10547,0-.20996-.03809-.29297-.11621-.16992-.16211-.17676-.43066-.01562-.60156l.93945-1.04199V3.08008c0-.23438,.19043-.4248,.4248-.4248s.4248,.19043,.4248,.4248V14.1748c0,.25586-.09668,.49707-.27246,.68066l-.89941,.94727c-.08398,.08789-.19629,.13184-.30859,.13184Z"/><circle class="cls-1" cx="15.98322" cy="5.07929" r=".4236"/><g><path class="cls-1" d="M1.34,19.18945c-.54883,0-.92383-.04883-.97266-.05566-.23242-.03223-.39551-.24609-.36328-.47852,.03125-.23145,.23828-.39941,.47852-.36328,.03613,.00293,3.5625,.45703,5.01367-1.66699,.13086-.19531,.39453-.24609,.58984-.11133,.19434,.13184,.24414,.39648,.11133,.58984-1.23242,1.80664-3.54395,2.08594-4.85742,2.08594Z"/><path class="cls-1" d="M20.3068,19.18945c-1.31348,0-3.62402-.2793-4.85742-2.08594-.13281-.19336-.08301-.45801,.11133-.58984,.19336-.13379,.45801-.08398,.58984,.11133,1.45117,2.12402,4.97852,1.66992,5.01367,1.66699,.24121-.03418,.44629,.13184,.47852,.36328,.03223,.23242-.13086,.44629-.36328,.47852-.04883,.00684-.42383,.05566-.97266,.05566Z"/><path class="cls-1" d="M10.54801,19.18457c-3.09277,0-4.9082-2.0166-4.93555-2.04785-.1543-.17578-.13574-.44336,.04004-.59766,.17773-.15527,.44531-.1377,.59961,.03809,.14453,.16211,3.58301,3.93457,9.24805-.03711,.19141-.13281,.45703-.08887,.59277,.10449,.13379,.19238,.08691,.45801-.10449,.59277-2.08301,1.45801-3.91699,1.94727-5.44043,1.94727Z"/></g><g><path class="cls-1" d="M1.34,22.44922c-.54883,0-.92383-.04883-.97266-.05566-.23242-.03223-.39551-.24609-.36328-.47852,.03125-.23242,.23828-.40137,.47852-.36328,.03613,.00391,3.5625,.45703,5.01367-1.66699,.13086-.19531,.39453-.24609,.58984-.11133,.19434,.13184,.24414,.39648,.11133,.58984-1.23242,1.80664-3.54395,2.08594-4.85742,2.08594Z"/><path class="cls-1" d="M20.3068,22.44922c-1.31348,0-3.62402-.2793-4.85742-2.08594-.13281-.19336-.08301-.45801,.11133-.58984,.19336-.13379,.45801-.08301,.58984,.11133,1.45117,2.12402,4.97852,1.6709,5.01367,1.66699,.24121-.03711,.44629,.13184,.47852,.36328,.03223,.23242-.13086,.44629-.36328,.47852-.04883,.00684-.42383,.05566-.97266,.05566Z"/><path class="cls-1" d="M10.54801,22.44434c-3.09277,0-4.9082-2.0166-4.93555-2.04785-.1543-.17578-.13574-.44336,.04004-.59766,.17773-.15527,.44531-.1377,.59961,.03809,.14453,.16211,3.58301,3.93457,9.24805-.03711,.19141-.13379,.45703-.08789,.59277,.10449,.13379,.19238,.08691,.45801-.10449,.59277-2.08301,1.45801-3.91699,1.94727-5.44043,1.94727Z"/></g></g></g></svg>