<?xml version="1.0" encoding="UTF-8"?><svg id="Layer_2" xmlns="http://www.w3.org/2000/svg" viewBox="0 0 24.96582 25.03223"><defs><style>.cls-1{fill:#783cbe;}</style></defs><g id="Layer_1-2"><g><path class="cls-1" d="M5.89746,2.94043C7.8584,1.57227,10.16406,.84961,12.56543,.84961c2.88379,0,5.58203,1.03162,7.71191,2.91699l-1.27344-.03027c-.22266,.01758-.42773,.18066-.43457,.41504-.00586,.23438,.17969,.42871,.41504,.43457l2.36719,.05664h.00977c.05322,0,.10693-.0105,.15723-.03076,.02148-.00842,.03809-.0249,.05811-.03674,.02588-.0155,.05371-.02698,.07666-.04871,.00098-.00098,.00098-.0022,.00195-.00317,.00098-.00073,.00195-.00098,.00293-.00171,.0166-.01648,.02539-.03845,.03906-.05713,.01904-.02637,.04199-.05078,.0542-.07996,.00586-.01367,.00537-.02917,.00977-.04333,.01172-.03882,.02344-.07764,.02393-.11792,0-.00183,.00098-.00342,.00098-.00537V1.78027c0-.23438-.19043-.4248-.4248-.4248s-.4248,.19043-.4248,.4248v1.44275C18.63721,1.14343,15.70508,0,12.56543,0c-2.57617,0-5.0498,.77539-7.1543,2.24316-.19238,.13477-.23926,.39941-.10547,.5918,.13477,.19238,.40039,.23926,.5918,.10547Z"/><path class="cls-1" d="M4.3999,4.26672c.24854-.06445,.39795-.31812,.3335-.56665s-.31836-.39783-.56641-.33337c-.24902,.06445-.39795,.31812-.3335,.56665s.31787,.39783,.56641,.33337Z"/><path class="cls-1" d="M4.44238,11.8916l1.48438,.66797c-.00195,.70703,.1084,1.40234,.32715,2.07715l-1.20801,1.09277c-.13965,.12598-.17969,.3291-.09863,.49902,.39062,.81738,.90723,1.56348,1.53613,2.21777,.12988,.13477,.33691,.16797,.50098,.08301l1.44824-.74414c.55273,.44434,1.16504,.79297,1.82715,1.04004l.10156,1.625c.01172,.1875,.14551,.3457,.32812,.3877,.63379,.14551,1.27637,.21973,1.91992,.21973,.25684,0,.51465-.0127,.77148-.03613,.18652-.0166,.34082-.1543,.37793-.33887l.32129-1.59668c.69336-.15527,1.34863-.41699,1.95312-.78027l1.33301,.93359c.15332,.1084,.36133,.10059,.50879-.01465,.35254-.28125,.68555-.59082,.99023-.92285,.30469-.33398,.58398-.69336,.83008-1.06738,.10254-.15723,.09082-.36328-.03027-.50684l-1.0459-1.24512c.30859-.63477,.51172-1.31055,.60547-2.01465l1.56152-.46094c.18066-.05273,.30469-.21777,.30469-.40625,.00293-.90332-.1377-1.7998-.41992-2.66406-.05957-.17871-.25781-.29395-.41504-.29297l-1.62695,.04199c-.30469-.63672-.70605-1.21582-1.19629-1.72852l.61328-1.50781c.07129-.17383,.01953-.37305-.12695-.49121-.70801-.57031-1.49707-1.01953-2.34473-1.33594-.17871-.06445-.37402-.00879-.4873,.1416l-.98242,1.2998c-.69043-.15918-1.39551-.20508-2.09766-.14355l-.7959-1.41992c-.09082-.16309-.27246-.24805-.46387-.20703-.88672,.19824-1.72949,.53516-2.50586,1.00195-.16113,.09668-.23926,.28711-.19336,.46973l.40332,1.57617c-.27539,.21973-.53516,.46094-.77344,.7207-.23926,.26367-.45703,.54199-.64844,.83105l-1.60645-.2627c-.17871-.02344-.36914,.06543-.4502,.23438-.39551,.81348-.65625,1.68262-.77637,2.58398-.02539,.18555,.0752,.36621,.24609,.44336Zm1.16309-2.37012l1.56543,.25586c.17188,.02148,.34277-.05273,.43359-.20215,.19629-.3291,.43262-.64551,.70117-.94043,.26465-.28906,.55957-.55176,.87695-.78223,.14062-.10254,.20508-.28027,.16211-.44922l-.39258-1.53613c.5293-.28906,1.09082-.51367,1.6748-.66992l.77539,1.38477c.08496,.15137,.24609,.2373,.42773,.21289,.78125-.10254,1.56641-.05078,2.33105,.15918,.16602,.04297,.34766-.01562,.45117-.15332l.95703-1.26562c.55566,.2334,1.08105,.5332,1.56738,.89258l-.59766,1.46973c-.06543,.16113-.02637,.34668,.09961,.4668,.57227,.5498,1.01953,1.19531,1.3291,1.91992,.06738,.15918,.22461,.27637,.40137,.25781l1.58496-.04004c.16406,.58203,.25879,1.17969,.28125,1.78125l-1.52148,.44922c-.16699,.04883-.28711,.19531-.30273,.36914-.07227,.79102-.29883,1.54297-.67285,2.23633-.08301,.15332-.06348,.3418,.04883,.47559l1.01953,1.21289c-.17578,.24414-.36621,.47949-.56934,.70215-.20215,.2207-.41992,.43164-.64844,.62891l-1.29883-.90918c-.14355-.10156-.33301-.10156-.47852-.00684-.65527,.43359-1.38477,.72461-2.16797,.86621-.17188,.03027-.30664,.16309-.3418,.33398l-.3125,1.55566c-.60547,.03125-1.20605-.01074-1.7998-.12305l-.09961-1.58301c-.01074-.17383-.12695-.32422-.29199-.37793-.75-.24414-1.43262-.63184-2.02832-1.1543-.13086-.11523-.31934-.13672-.47461-.05859l-1.41211,.72559c-.40039-.45312-.74414-.94922-1.02637-1.4834l1.17676-1.06445c.12891-.11719,.17383-.30078,.11328-.46387-.27734-.74316-.39941-1.51953-.36328-2.30664,.00781-.17383-.0918-.33594-.25-.40723l-1.44727-.65137c.10449-.59668,.27832-1.1748,.51953-1.72754Z"/><path class="cls-1" d="M12.60156,16.15039c.05371,0,.10742-.00195,.16113-.00391,.95508-.04199,1.83594-.45312,2.48145-1.1582s.97754-1.61914,.93555-2.57324c-.04199-.95508-.45312-1.83594-1.1582-2.48145-.7041-.64453-1.62988-.9668-2.57324-.93555-.95508,.04199-1.83594,.45312-2.48145,1.1582s-.97754,1.61914-.93555,2.57324c.04199,.95508,.45312,1.83594,1.1582,2.48145,.66504,.6084,1.5166,.93945,2.41211,.93945Zm-2.00781-5.41992c.49219-.53711,1.16406-.85059,1.8916-.88281,.04102-.00195,.08203-.00293,.12305-.00293,.68262,0,1.33203,.25195,1.83887,.71582,.53711,.49219,.85059,1.16406,.88281,1.8916s-.2207,1.4248-.71289,1.96191-1.16406,.85059-1.8916,.88281c-.72852,.03906-1.42383-.2207-1.96191-.71289-.53711-.49219-.85059-1.16406-.88281-1.8916s.2207-1.4248,.71289-1.96191Z"/><path class="cls-1" d="M22.83398,5.56934c-.13086-.19434-.39648-.24316-.59082-.11426-.19434,.13184-.24512,.39551-.11426,.59082,1.2998,1.92383,1.9873,4.17188,1.9873,6.50293,0,6.41504-5.21875,11.63379-11.63379,11.63379C6.06836,24.18262,.84961,18.96387,.84961,12.54883c0-2.61621,.84863-5.08789,2.4541-7.14746,.14453-.18555,.11133-.45312-.07324-.59668-.18555-.14453-.45312-.11328-.59668,.07324C.91016,7.08887,0,9.74121,0,12.54883c0,6.88379,5.59961,12.4834,12.48242,12.4834,6.88379,0,12.4834-5.59961,12.4834-12.4834,0-2.50098-.7373-4.91406-2.13184-6.97949Z"/></g></g></svg>