<?xml version="1.0" encoding="UTF-8"?><svg id="Layer_2" xmlns="http://www.w3.org/2000/svg" viewBox="0 0 25.47638 25.06695"><defs><style>.cls-1{fill:#783cbe;}</style></defs><g id="Layer_1-2"><g><path class="cls-1" d="M18.50862,11.71881c-.25195-.08105-.52246,.05762-.60352,.30981-.08105,.25232,.05762,.52246,.30957,.60352,.25244,.08118,.52246-.05762,.604-.30981,.08105-.2522-.05762-.52246-.31006-.60352Z"/><path class="cls-1" d="M25.19368,12.99176l-2.4873-.88281c-.07422-1.15137-.34766-2.27148-.8125-3.33789l1.80469-1.9248c.12891-.1377,.15234-.3418,.05762-.50488-.68652-1.18164-1.55273-2.2373-2.57324-3.13965-.13965-.12402-.34668-.14355-.50586-.04199l-2.24219,1.39551c-.9502-.66113-1.99609-1.14746-3.11523-1.44727l-.37988-2.61133c-.02734-.18555-.17285-.33105-.3584-.35938-1.35352-.2002-2.71875-.18066-4.05859,.05371-.18555,.0332-.32715,.18262-.34863,.36914l-.30664,2.62207c-.55273,.16504-1.09082,.37891-1.60449,.63477-.51465,.25684-1.00879,.55859-1.47168,.90039l-2.2793-1.33203c-.16504-.0957-.36914-.07129-.50488,.05664-.99609,.93164-1.83203,2.0127-2.4834,3.21094-.08984,.16504-.06055,.36914,.07129,.50195l1.85742,1.87402c-.43262,1.0752-.67383,2.20215-.7168,3.35938l-2.46387,.95215c-.1748,.06738-.28516,.24219-.27051,.42969,.10742,1.35938,.43164,2.68652,.96191,3.94434,.07324,.17285,.24414,.2666,.4375,.25781l2.62402-.28516c.57129,1.0127,1.30176,1.9043,2.17773,2.65625l-.79102,2.51855c-.05664,.17871,.01172,.37402,.16797,.47949,1.13477,.76465,2.37305,1.34082,3.68066,1.70996,.03809,.01074,.07715,.01562,.11523,.01562,.14258,0,.2793-.07227,.35938-.19727l1.41406-2.22949c1.14551,.18555,2.2998,.16992,3.43652-.0459l1.47461,2.18652c.10547,.15625,.2998,.22656,.47949,.16797,.64648-.20215,1.28125-.45801,1.8877-.75977,.60059-.2998,1.18652-.65332,1.74219-1.05078,.15332-.10938,.21582-.30664,.1543-.48438l-.86035-2.49414c.85645-.77734,1.5625-1.69043,2.10449-2.71777l2.63184,.20996c.18848,.00879,.3623-.09473,.43066-.27051,.49121-1.2666,.77539-2.60156,.8457-3.96777,.00879-.1875-.10547-.35938-.28223-.42188Zm-1.24609,3.78711l-2.5957-.20703c-.18359-.01074-.33887,.08008-.41602,.23633-.54883,1.11719-1.30371,2.09277-2.24316,2.89941-.13281,.11328-.18262,.2959-.125,.46094l.84766,2.45898c-.44141,.29883-.89941,.56738-1.36719,.7998-.47266,.23535-.96289,.44141-1.46289,.6123l-1.4541-2.15625c-.09766-.14551-.26855-.2168-.44434-.17773-1.20605,.26562-2.43945,.28418-3.66602,.04883-.16992-.03125-.3457,.04395-.43848,.19043l-1.39355,2.19824c-1.00977-.31445-1.97266-.76172-2.87012-1.33301l.7793-2.4834c.05273-.16602-.00195-.34766-.1377-.45703-.95996-.77832-1.74121-1.73145-2.32227-2.83398-.08105-.15332-.2373-.23535-.42188-.22461l-2.58887,.28125c-.38672-.98926-.6377-2.02051-.74902-3.0752l2.42871-.93848c.16211-.0625,.27051-.21875,.27148-.39258,.01172-1.24023,.26855-2.44629,.76562-3.58496,.06934-.15918,.03516-.3457-.08789-.46875l-1.83203-1.84766c.53125-.91895,1.18066-1.75879,1.93555-2.50293l2.24707,1.3125c.15137,.08887,.33984,.0752,.47656-.03223,.4834-.37891,1.00781-.70898,1.55957-.98438,.54883-.27441,1.12891-.49414,1.72363-.6543,.16797-.04492,.29199-.1875,.31152-.36035l.30273-2.58496c1.04688-.15527,2.10645-.16992,3.16406-.04199l.37402,2.5752c.02539,.17188,.15332,.31152,.32227,.35156,1.20801,.28809,2.32715,.80762,3.32422,1.54492,.1416,.10547,.33008,.11035,.47754,.01855l2.21094-1.37598c.77539,.72266,1.44824,1.54395,2.00586,2.44824l-1.78027,1.89844c-.12012,.12695-.14941,.31445-.0752,.47168,.53125,1.12891,.82324,2.32617,.86719,3.56152,.00586,.17383,.11816,.32617,.28223,.38477l2.45312,.87012c-.08203,1.06055-.30371,2.09863-.65918,3.09375Z"/><path class="cls-1" d="M18.43001,13.45269c-.21875-.03906-.45117,.11719-.4873,.35059-.22656,1.38184-.97754,2.59277-2.11523,3.40918-1.1377,.81738-2.52441,1.1416-3.90723,.91602-1.38184-.22656-2.59277-.97754-3.40918-2.11523-.81738-1.1377-1.14258-2.52441-.91602-3.90723,.22656-1.38184,.97754-2.59277,2.11523-3.40918,1.13672-.81641,2.52539-1.1416,3.90723-.91602,1.09229,.17944,2.07324,.68945,2.85059,1.46716l-1.35742-.25623c-.24902-.0459-.45312,.10938-.49707,.33887-.04297,.23145,.1084,.45312,.33887,.49707l2.26465,.42676c.02637,.00488,.05273,.00684,.0791,.00684,.08691,0,.17188-.02637,.24414-.07715,.09375-.06543,.15723-.16602,.1748-.2793l.38379-2.3418c.03809-.23145-.11816-.4502-.35059-.4873-.21973-.03711-.4502,.11719-.4873,.35059l-.19922,1.21606c-.90283-.90076-2.04053-1.49194-3.30762-1.69946-1.60254-.26758-3.21875,.11426-4.54004,1.06348s-2.19434,2.35645-2.45703,3.96289c-.26367,1.60547,.11426,3.21777,1.06348,4.54004,.94922,1.32129,2.35645,2.19434,3.96289,2.45703,.33301,.05566,.66699,.08203,.99902,.08203,1.26367,0,2.49316-.39355,3.54102-1.14551,1.32129-.94922,2.19434-2.35645,2.45703-3.96289,.03809-.23145-.11816-.4502-.35059-.4873Z"/></g></g></svg>