<?xml version="1.0" encoding="UTF-8"?><svg id="Layer_2" xmlns="http://www.w3.org/2000/svg" viewBox="0 0 25.06781 24.96062"><defs><style>.cls-1{fill:#783cbe;}</style></defs><g id="Layer_1-2"><g><path class="cls-1" d="M5.94629,8.25456l-.92285,.33789c-.17676,.06445-.29004,.2373-.27832,.4248,.03613,.61133,.1709,1.21191,.40039,1.78516,.07031,.17383,.24414,.29785,.43262,.26465l.97949-.08691c.21191,.36133,.47168,.68945,.77441,.98047l-.31152,.93359c-.05957,.17871,.00488,.37402,.15918,.48242,.50098,.35254,1.05469,.62207,1.64453,.7998,.18457,.05176,.375-.01562,.47754-.17285l.54199-.82129c.41602,.06055,.83398,.0625,1.25,.00586l.53516,.82617c.0791,.12305,.21484,.19336,.35645,.19336,.04004,0,.08008-.00586,.12012-.01758,.59082-.17383,1.14648-.43848,1.65039-.78613,.15527-.10645,.2207-.30273,.16309-.48145l-.30469-.93555c.30664-.28711,.56934-.61328,.78516-.97363l.97852,.09668c.20117,.02832,.36523-.08887,.43555-.2627,.11523-.28223,.20898-.57617,.27832-.87305,.06836-.2959,.11426-.60059,.13574-.90723,.01367-.1875-.09863-.36133-.27441-.42676l-.9209-.34668c-.0332-.41797-.125-.82617-.27344-1.21973l.68555-.70605c.13086-.13477,.1582-.33887,.06641-.50293-.29785-.53418-.67969-1.01758-1.13477-1.43555-.13965-.12695-.34473-.14648-.50488-.05176l-.84375,.50488c-.34766-.2334-.72461-.41602-1.12402-.5459l-.12402-.97656c-.02344-.18555-.16699-.33496-.35156-.36523-.6084-.10254-1.22559-.10449-1.8291-.00977-.18555,.0293-.33008,.17676-.35547,.3623l-.13281,.97656c-.40039,.12598-.77832,.30566-1.12891,.53711l-.83984-.51172c-.15918-.09473-.36426-.07715-.50488,.04688-.45898,.41309-.84473,.89258-1.14746,1.42578-.09277,.16309-.06738,.36816,.06152,.50391l.67969,.71094c-.07422,.19434-.13574,.39551-.18359,.59863-.04785,.20508-.08105,.41211-.10059,.61914Zm1.09082-1.60449l-.64551-.67578c.17188-.26074,.36816-.50488,.58691-.72852l.7998,.48633c.14648,.08984,.33789,.08105,.47656-.02441,.40137-.30176,.85254-.5166,1.3418-.63867,.16895-.04102,.29492-.18262,.31836-.35449l.12598-.92871c.31055-.02734,.62305-.02832,.93555,.00586l.11816,.92871c.02246,.17285,.14746,.31445,.31641,.3584,.48926,.125,.93848,.34277,1.33594,.64844,.13867,.10645,.32715,.11719,.47656,.02832l.80273-.47949c.2168,.22656,.41113,.47168,.58105,.73438l-.65234,.6709c-.12109,.125-.1543,.31152-.08301,.46973,.20703,.46094,.31641,.94824,.3252,1.4502,.00293,.17383,.1123,.3291,.27539,.38965l.875,.3291c-.02051,.15625-.04883,.30957-.08398,.46094s-.07812,.30273-.12793,.45117l-.92969-.0918c-.18164-.0293-.34082,.07324-.41992,.22852-.23047,.44727-.54395,.83594-.93262,1.15625-.13477,.11133-.1875,.29395-.13379,.45996l.28906,.88965c-.26758,.16016-.5498,.29492-.84473,.40234l-.50879-.78516c-.0791-.12207-.21387-.19336-.35645-.19336-.02734,0-.05566,.00293-.08301,.00781-.49121,.09766-.99121,.09668-1.48633-.00684-.17578-.03613-.34668,.03711-.44141,.18164l-.51562,.78125c-.29395-.10938-.5752-.24609-.8418-.40918l.2959-.8877c.05469-.16504,.00391-.34766-.12891-.45898-.38477-.3252-.69531-.71777-.92188-1.16602-.07812-.15625-.24219-.25977-.41699-.23145l-.93164,.08301c-.09766-.29785-.16602-.60352-.20508-.91309l.87793-.32129c.16406-.06055,.27539-.21387,.2793-.38867,.00586-.24609,.03809-.49512,.0957-.74023,.05664-.24414,.1377-.48242,.24121-.70801,.07227-.1582,.04102-.34473-.0791-.4707Z"/><path class="cls-1" d="M9.91895,11.11296c.19141,.04395,.38184,.06543,.56934,.06543,1.13965,0,2.17383-.7832,2.44336-1.93945,.15137-.65332,.04004-1.32617-.31348-1.89453-.35449-.56934-.90918-.96582-1.56152-1.11816-.64941-.15039-1.32324-.04102-1.89453,.3125-.56934,.35449-.96582,.90918-1.11816,1.56152-.15137,.65332-.04004,1.32617,.31348,1.89453,.35449,.56934,.90918,.96582,1.56152,1.11816Zm-1.04688-2.81934c.10059-.43164,.36328-.79883,.73926-1.0332,.2666-.16504,.56641-.25,.87207-.25,.12695,0,.25391,.01465,.37988,.04395,.43164,.10059,.79883,.3623,1.0332,.73926,.2334,.37598,.30762,.82031,.20703,1.25195-.20605,.89062-1.09961,1.44824-1.99121,1.23926-.43164-.10059-.79883-.3623-1.0332-.73926-.2334-.37598-.30762-.82031-.20703-1.25195Z"/><path class="cls-1" d="M10.44336,17.13737c2.12549,0,4.18604-.80884,5.76855-2.24609l.93311,.93237c-.22217,.34912-.31494,.77808-.25732,1.24536,.06934,.5625,.34863,1.11328,.78516,1.5498l3.72754,3.72461c.4375,.43652,.98828,.71582,1.55078,.78418,.09277,.01172,.18262,.01758,.27148,.01758,.49316,0,.93164-.17188,1.25488-.49609l.0918-.09082c.00098,0,.00098-.00098,.00195-.00098,.38379-.38379,.55371-.92676,.47949-1.5293-.06934-.5625-.34863-1.11328-.78516-1.5498l-3.72754-3.72461c-.4375-.43652-.98828-.71582-1.55078-.78418-.46826-.05884-.89355,.03345-1.23975,.25342l-.92578-.92493c.51904-.57617,.97119-1.22839,1.32861-1.95837,2.07715-4.24219,.31641-9.38379-3.92578-11.46094C10.28809-1.04915,5.55957,.28777,3.2207,3.98405c-.125,.19824-.06641,.46094,.13184,.58691,.20117,.12305,.46191,.06738,.58691-.13184C6.0459,1.1071,10.30371-.09602,13.85156,1.64226c3.82031,1.87109,5.40723,6.50195,3.53516,10.32422-1.87207,3.82031-6.5,5.40625-10.32422,3.53516-2.99707-1.46777-4.70703-4.67383-4.25293-7.97949,.03223-.23242-.13086-.44629-.36328-.47852-.23145-.0332-.44629,.13086-.47852,.36328-.50391,3.66895,1.39355,7.22852,4.72168,8.8584,1.20898,.5918,2.49023,.87207,3.75391,.87207Zm8.27637-1.33496c.05273,0,.10742,.00293,.16406,.00977,.37012,.0459,.75391,.24316,1.05273,.54297l3.72754,3.72461c.2998,.29883,.49707,.68262,.54297,1.05273,.04199,.33594-.04199,.62793-.23535,.82227l-.09375,.09277c-.19434,.19336-.47852,.28027-.82324,.2373-.37012-.0459-.75391-.24316-1.05273-.54297l-3.72754-3.72461c-.2998-.29883-.49707-.68262-.54297-1.05273-.04199-.33691,.04297-.62891,.23535-.82227l.04834-.04785c.00049-.00049,.00098-.00049,.00146-.00098,.00049-.00037,.00049-.00098,.00098-.00134l.04297-.0426c.16211-.16113,.3916-.24707,.65918-.24707Z"/><path class="cls-1" d="M2.91699,6.19231c.2334-.06055,.37354-.29883,.31299-.53235s-.29883-.37366-.53223-.31323c-.2334,.06055-.37402,.29895-.31348,.53235,.06055,.23364,.29932,.37378,.53271,.31323Z"/><path class="cls-1" d="M14.25684,24.53581v-4.11719c0-.23438-.19043-.4248-.4248-.4248h-3.56934c-.23438,0-.4248,.19043-.4248,.4248v4.11719c0,.23438,.19043,.4248,.4248,.4248h3.56934c.23438,0,.4248-.19043,.4248-.4248Zm-.84961-.4248h-2.71973v-3.26758h2.71973v3.26758Z"/><path class="cls-1" d="M15.18164,24.96062h3.56934c.23438,0,.4248-.19043,.4248-.4248v-2.05859c0-.23438-.19043-.4248-.4248-.4248h-3.56934c-.23438,0-.4248,.19043-.4248,.4248v2.05859c0,.23438,.19043,.4248,.4248,.4248Zm.4248-2.05859h2.71973v1.20898h-2.71973v-1.20898Z"/><path class="cls-1" d="M8.91309,18.72331h-3.56934c-.23438,0-.4248,.19043-.4248,.4248v5.3877c0,.23438,.19043,.4248,.4248,.4248h3.56934c.23438,0,.4248-.19043,.4248-.4248v-5.3877c0-.23438-.19043-.4248-.4248-.4248Zm-.4248,5.3877h-2.71973v-4.53809h2.71973v4.53809Z"/><path class="cls-1" d="M3.99316,17.01335H.4248c-.23438,0-.4248,.19043-.4248,.4248v7.09766c0,.23438,.19043,.4248,.4248,.4248H3.99316c.23438,0,.4248-.19043,.4248-.4248v-7.09766c0-.23438-.19043-.4248-.4248-.4248Zm-.4248,7.09766H.84961v-6.24805H3.56836v6.24805Z"/></g></g></svg>