<?xml version="1.0" encoding="UTF-8"?><svg id="Layer_2" xmlns="http://www.w3.org/2000/svg" viewBox="0 0 28.46541 24.9545"><defs><style>.cls-1{fill:#783cbe;}</style></defs><g id="Layer_1-2"><g><path class="cls-1" d="M4.26416,13.89225c.47217,.99329,1.10205,1.91333,1.89111,2.70288,1.89648,1.89551,4.38672,2.84375,6.87695,2.84375,2.35596,0,4.70654-.86035,6.56006-2.55835l1.25732,1.25732c-.19775,.32556-.28174,.71887-.23828,1.14185,.05566,.53613,.31152,1.05762,.72754,1.47266l3.62793,3.4707c.40918,.40918,.93066,.66504,1.4668,.7207,.07324,.00684,.14551,.01074,.2168,.01074,.4834,0,.91602-.1709,1.23535-.49121l.08789-.08691c.00098,0,.00098-.00098,.00195-.00195,.73828-.73926,.63086-2.0498-.24707-2.92773l-3.62793-3.46875c-.40918-.40918-.92969-.66504-1.46582-.7207-.44336-.04736-.854,.05261-1.18994,.27271l-1.25049-1.25024c1.64941-1.79749,2.56152-4.10681,2.56152-6.56055,0-1.14868-.2085-2.2627-.58789-3.31152l.84521-.65918c.00635,.00378,.01074,.00903,.01709,.0127,.29297,.17578,.62012,.26562,.95215,.26562,.15137,0,.30371-.01855,.4541-.05664,.48145-.12012,.8877-.41992,1.14258-.8457,.25586-.42578,.33008-.92578,.20898-1.40723-.02393-.09692-.06104-.18677-.09912-.276l1.39307-1.12354-.10449,1.13684c-.02148,.2334,.15039,.44043,.38379,.46191,.01367,.00195,.02637,.00195,.04004,.00195,.2168,0,.40234-.16504,.42188-.38574l.20215-2.19629c.02148-.2334-.15039-.44043-.38379-.46191l-2.19629-.20215c-.23047-.03027-.44141,.14941-.46191,.38379-.02148,.2334,.15039,.44043,.38379,.46191l1.21387,.11157-1.39551,1.12549c-.44043-.37329-1.0459-.54077-1.65039-.3894-.99414,.24902-1.59961,1.25977-1.35059,2.25293,.04688,.18823,.12891,.36011,.22754,.52075l-.58203,.45361c-.47266-1.00684-1.11182-1.93945-1.92188-2.74976C16.46777-.59725,10.96875-.96053,7.11621,2.0004c-.33496,.25684-.6582,.54102-.96094,.84277-.66895,.66992-1.23633,1.42969-1.68262,2.25684-.01953,.03613-.18164,.34473-.19922,.38086-.10547,.20996-.02051,.46582,.18945,.57031s.46582,.02148,.57031-.18945c.01758-.03516,.16797-.32324,.18652-.35645,.4082-.75586,.92578-1.44922,1.53711-2.06055,.27539-.27637,.57129-.53516,.87695-.77051C11.15039-.02694,16.16797,.30411,19.30664,3.44474c1.67676,1.67578,2.59961,3.90332,2.59961,6.27441,0,2.37012-.92285,4.59863-2.59961,6.27441-3.45898,3.46191-9.09082,3.45996-12.5498,0-1.7334-1.73242-2.67871-4.13184-2.59375-6.5752l.02246-.34766c.00977-.2334-.1709-.43066-.4043-.44238-.24219-.00977-.43262,.16895-.44531,.40332l-.02246,.35059c-.04395,1.27222,.17334,2.52917,.6084,3.70471l-.84473,.63428c-.32715-.28699-.75049-.46692-1.21875-.46692-1.02441,0-1.8584,.83301-1.8584,1.85742s.83398,1.85742,1.8584,1.85742,1.85742-.83301,1.85742-1.85742c0-.24878-.05078-.48535-.14014-.70239l.68848-.51709ZM23.12207,3.64982c.13867-.23145,.3584-.39453,.61914-.45996,.08203-.02051,.16406-.03027,.24414-.03027,.45215,0,.86426,.30664,.97852,.76367v.00098c.06543,.26074,.02539,.53223-.11328,.7627s-.3584,.39355-.62012,.45898c-.26367,.06543-.5332,.02441-.7627-.11328-.23047-.13867-.39355-.3584-.45898-.62012-.06543-.26074-.02539-.53223,.11328-.7627Zm-.70215,14.44629c.04199,0,.08398,.00195,.12695,.00684,.34277,.03516,.68066,.2041,.95898,.4834l3.62793,3.46875c.53027,.53027,.64062,1.31641,.24121,1.71777l-.08887,.08887c-.18359,.18457-.45801,.26465-.76562,.23633-.34277-.03516-.68066-.20508-.95898-.48242l-3.62793-3.4707c-.27148-.27148-.44141-.60938-.47656-.95215-.03125-.30957,.05273-.58105,.23828-.76758l.08594-.08594c.1582-.15918,.38184-.24316,.63867-.24316ZM1.8584,16.11954c-.55566,0-1.00879-.45215-1.00879-1.00781s.45312-1.00781,1.00879-1.00781,1.00781,.45215,1.00781,1.00781-.45215,1.00781-1.00781,1.00781Z"/><path class="cls-1" d="M13.03223,16.71915c3.86035,0,7-3.13965,7-7,0-.60278-.08447-1.18494-.22852-1.74341-.00439-.03113-.01172-.0603-.02344-.09021-.80859-2.97217-3.52295-5.16638-6.74805-5.16638-3.86035,0-7.00098,3.13965-7.00098,7,0,.57422,.07031,1.14746,.20898,1.70117,.77832,3.12012,3.57129,5.29883,6.79199,5.29883Zm0-.84961c-2.75293,0-5.13672-1.81909-5.89502-4.44189,.02246-.01294,.0498-.00842,.06982-.02588l1.77588-1.52661c.32422,.27686,.73975,.45044,1.19873,.45044,.66064,0,1.23779-.34888,1.56738-.86975l2.75684,.87024c-.00635,.06042-.01855,.11914-.01855,.18115,0,1.02441,.83301,1.85742,1.85742,1.85742s1.8584-.83301,1.8584-1.85742c0-.30481-.08105-.58838-.21143-.84253l1.11377-.86865c.0459,.302,.07715,.60864,.07715,.9231,0,3.3916-2.75879,6.15039-6.15039,6.15039Zm-2.85059-6.39355c-.55566,0-1.00781-.45215-1.00781-1.00781s.45215-1.00781,1.00781-1.00781,1.00781,.45215,1.00781,1.00781-.45215,1.00781-1.00781,1.00781Zm7.17188,1.03125c0,.55566-.45312,1.00781-1.00879,1.00781s-1.00781-.45215-1.00781-1.00781,.45215-1.00781,1.00781-1.00781,1.00879,.45215,1.00879,1.00781ZM13.03223,3.56876c2.75049,0,5.08398,1.81445,5.86816,4.3092l-1.45898,1.1377c-.30811-.22717-.68555-.36584-1.09668-.36584-.66113,0-1.23828,.34937-1.56738,.87061l-2.75684-.87012c.00635-.06079,.01855-.11975,.01855-.18213,0-1.02441-.83301-1.85742-1.85742-1.85742s-1.85742,.83301-1.85742,1.85742c0,.25708,.05273,.5022,.14746,.7251l-1.53711,1.32129c-.03418-.26343-.05371-.52881-.05371-.79541,0-3.3916,2.75977-6.15039,6.15137-6.15039Z"/><path class="cls-1" d="M4.01514,7.75919c.24707,0,.44678-.19958,.44678-.44641s-.19971-.44641-.44678-.44641c-.24658,0-.44629,.19958-.44629,.44641s.19971,.44641,.44629,.44641Z"/></g></g></svg>