<svg width="48" height="48" xmlns="http://www.w3.org/2000/svg" xmlns:xlink="http://www.w3.org/1999/xlink" xml:space="preserve" overflow="hidden"><g transform="translate(-1016 -468)"><path d="M1028 514 1027 514C1024.24 514 1022 511.757 1022 509 1022 506.243 1024.24 504 1027 504L1056 504 1056 470 1027 470C1025.35 470 1024 471.346 1024 473L1024 503C1024 503.553 1023.55 504 1023 504 1022.45 504 1022 503.553 1022 503L1022 473C1022 470.243 1024.24 468 1027 468L1056 468C1057.1 468 1058 468.897 1058 470L1058 504C1058 505.103 1057.1 506 1056 506L1027 506C1025.35 506 1024 507.346 1024 509 1024 510.654 1025.35 512 1027 512L1028 512C1028.55 512 1029 512.447 1029 513 1029 513.553 1028.55 514 1028 514Z" fill="#793CBD"/><path d="M1055 510 1036 510C1035.45 510 1035 509.553 1035 509 1035 508.447 1035.45 508 1036 508L1055 508C1055.55 508 1056 508.447 1056 509 1056 509.553 1055.55 510 1055 510Z" fill="#793CBD"/><path d="M1032 516C1031.85 516 1031.69 515.965 1031.55 515.895L1030 515.118 1028.45 515.894C1028.14 516.048 1027.77 516.033 1027.47 515.85 1027.18 515.667 1027 515.347 1027 515L1027 509C1027 508.447 1027.45 508 1028 508L1032 508C1032.55 508 1033 508.447 1033 509L1033 515C1033 515.347 1032.82 515.668 1032.53 515.851 1032.36 515.95 1032.18 516 1032 516ZM1030 513C1030.15 513 1030.31 513.035 1030.45 513.105L1031 513.382 1031 510 1029 510 1029 513.382 1029.55 513.106C1029.69 513.035 1029.85 513 1030 513Z" fill="#793CBD"/><path d="M1057 514 1032 514C1031.45 514 1031 513.553 1031 513 1031 512.447 1031.45 512 1032 512L1057 512C1057.55 512 1058 512.447 1058 513 1058 513.553 1057.55 514 1057 514Z" fill="#793CBD"/><path d="M1040 494C1039.45 494 1039 493.553 1039 493L1039 485 1038 485C1037.45 485 1037 484.552 1037 484 1037 483.448 1037.45 483 1038 483L1040 483C1040.55 483 1041 483.448 1041 484L1041 493C1041 493.553 1040.55 494 1040 494Z" fill="#793CBD"/><path d="M1042 494 1038 494C1037.45 494 1037 493.553 1037 493 1037 492.448 1037.45 492 1038 492L1042 492C1042.55 492 1043 492.448 1043 493 1043 493.553 1042.55 494 1042 494Z" fill="#793CBD"/><path d="M1039 479 1041 479 1041 481 1039 481Z" fill="#793CBD"/><path d="M1043 496 1045 496 1045 498 1043 498Z" fill="#793CBD"/><path d="M1039 496 1041 496 1041 498 1039 498Z" fill="#793CBD"/><path d="M1035 496 1037 496 1037 498 1035 498Z" fill="#793CBD"/><path d="M1052 502 1028 502C1026.9 502 1026 501.103 1026 500L1026 474C1026 472.897 1026.9 472 1028 472L1053 472C1053.55 472 1054 472.448 1054 473 1054 473.552 1053.55 474 1053 474L1028 474 1028 500 1052 500 1052 477C1052 476.448 1052.45 476 1053 476 1053.55 476 1054 476.448 1054 477L1054 500C1054 501.103 1053.1 502 1052 502Z" fill="#793CBD"/></g></svg>