<svg width="45" height="48" xmlns="http://www.w3.org/2000/svg" xmlns:xlink="http://www.w3.org/1999/xlink" xml:space="preserve" overflow="hidden"><defs><clipPath id="clip0"><rect x="90" y="190" width="45" height="48"/></clipPath></defs><g clip-path="url(#clip0)" transform="translate(-90 -190)"><path d="M41.2032 37.3804C40.8843 34.0032 38.0785 31.4052 34.6868 31.3466 32.5657 31.3566 30.5809 32.3933 29.3607 34.1282 29.1215 34.0858 28.8788 34.0643 28.6359 34.0641 26.7144 34.0829 25.0276 35.3469 24.47 37.1855 22.8824 38.1355 21.9082 39.847 21.9019 41.697 21.8651 44.5446 24.1397 46.885 26.9873 46.9289L35.8328 46.9479C35.882 46.9481 35.9296 46.945 35.9733 46.9418 36.0242 46.9452 36.0749 46.9485 36.1276 46.9487L39.666 46.9565C42.3483 46.9269 44.5009 44.7324 44.4788 42.05 44.4936 39.9543 43.1786 38.0797 41.2032 37.3804ZM39.6688 45.3143 36.0957 45.3042 35.9562 45.2991 26.9892 45.2869C25.0484 45.2456 23.5069 43.6418 23.5423 41.7007 23.5441 40.3357 24.3142 39.088 25.5335 38.4743L25.8912 38.2996 25.9756 37.9098C26.2342 36.6431 27.3389 35.7265 28.6314 35.7063 28.9162 35.7073 29.1989 35.7545 29.4686 35.8459L30.1059 36.0616 30.4423 35.4787C31.3004 33.9421 32.9224 32.9896 34.6825 32.9886 37.4182 33.0511 39.6018 35.2899 39.5959 38.0264L39.6035 38.6939 40.2591 38.8224C42.0312 39.2147 43.1496 40.9689 42.7572 42.741 42.4339 44.202 41.1642 45.2601 39.6688 45.3145Z" fill="#793CBD" transform="matrix(1 0 0 1.02222 90.2606 190)"/><path d="M20.5337 33.661C19.8548 33.6596 19.1893 33.6461 18.5372 33.6207 18.1383 33.605 17.7532 33.5787 17.3642 33.5548 17.1236 33.5403 16.8757 33.5307 16.6392 33.5131 16.1221 33.4749 15.6198 33.4254 15.1232 33.3725 15.0296 33.3625 14.9319 33.3558 14.8392 33.3458 14.2704 33.282 13.7161 33.2099 13.1764 33.1296L13.1345 33.1237C10.7322 32.7941 8.37538 32.1916 6.10972 31.3276L6.0802 31.316C5.73649 31.1774 5.41424 31.034 5.10743 30.8879L4.99923 30.8367C4.72366 30.703 4.46854 30.5662 4.22419 30.427 4.1668 30.3941 4.1062 30.3618 4.05036 30.3281 3.83803 30.2029 3.64461 30.0752 3.4593 29.9467 3.38878 29.8973 3.31584 29.8478 3.24866 29.7984 3.09196 29.6823 2.95193 29.5653 2.81756 29.4478 2.74464 29.3828 2.67088 29.3185 2.60452 29.2535 2.49465 29.1466 2.39807 29.0388 2.3072 28.9311 2.24325 28.8555 2.18185 28.7789 2.12788 28.7033 2.05901 28.606 1.9959 28.5047 1.93887 28.3999 1.89567 28.3208 1.85664 28.2391 1.82195 28.1559 1.78283 28.0593 1.75122 27.9598 1.72739 27.8583 1.69111 27.7285 1.66965 27.5949 1.66341 27.4601L1.67801 20.7222C1.70096 20.7437 1.72966 20.7643 1.75344 20.7856 1.93205 20.9427 2.11402 21.1 2.31892 21.2514 5.40737 23.6005 11.588 25.4317 20.5516 25.4509 29.4774 25.4703 35.6503 23.6808 38.7613 21.3625 38.9985 21.1895 39.2263 21.0042 39.4439 20.8072L39.4447 20.8072 39.4741 28.1061C39.4731 28.5595 39.8397 28.928 40.2932 28.929 40.7466 28.9299 41.1151 28.5631 41.116 28.1098L41.0925 18.1066 41.0935 17.6961 41.1147 7.84418 41.1157 7.43363C41.1123 7.29129 41.0714 7.1524 40.9968 7.03112 40.0536 3.50703 32.9851 0.0270498 20.6068 0.000156697 8.22852-0.0267364 1.14494 3.42263 0.187448 6.94266 0.111732 7.06336 0.0697498 7.20215 0.0658714 7.34459L0.0649116 7.75514 0.04364 17.6071 0.0426803 18.0176 0.0222313 27.4589 0.0214087 27.8695 0 37.7214C-6.99641e-06 37.8501 0.0321732 37.9766 0.0936067 38.0894 1.02008 42.0594 9.32512 43.871 16.8105 44.4488L16.8729 44.4513C17.3263 44.4523 17.6946 44.0854 17.6956 43.632 17.6965 43.2023 17.3658 42.8446 16.9373 42.8119 7.81413 42.1073 2.03559 39.8605 1.66857 37.5919 1.66199 37.5557 1.65328 37.5199 1.6425 37.4844L1.65744 30.5766C1.6804 30.598 1.70909 30.6185 1.73289 30.6399 1.91148 30.7972 2.09345 30.9543 2.29835 31.1059 5.38598 33.4524 11.5666 35.2836 20.5302 35.303 20.9837 35.304 21.3521 34.9373 21.3531 34.4839 21.354 34.0304 20.9872 33.662 20.5337 33.661ZM20.6033 1.64218C31.7319 1.66633 39.479 4.92778 39.4729 7.84061 39.4666 10.7534 31.7052 13.9813 20.5764 13.9572 9.44781 13.933 1.70061 10.6716 1.70694 7.75872 1.71326 4.84589 9.47459 1.61803 20.6033 1.64218ZM1.69942 10.8702C1.79768 10.96 1.91005 11.048 2.01657 11.137 2.07635 11.1889 2.13123 11.2382 2.1935 11.2876 2.43942 11.4819 2.70506 11.6737 2.99283 11.8607 3.05259 11.8995 3.11991 11.9374 3.1822 11.9761 3.4232 12.1268 3.67791 12.2746 3.94635 12.4195 4.04558 12.4731 4.1448 12.5258 4.24738 12.5786 4.54673 12.7319 4.86138 12.8809 5.19134 13.0256 5.2455 13.0495 5.29476 13.0743 5.34963 13.0973 5.73434 13.2616 6.1429 13.4185 6.56794 13.5696 6.68523 13.6118 6.80824 13.6515 6.92887 13.6927 7.26683 13.8076 7.61664 13.9181 7.97827 14.0242 8.1087 14.0622 8.23663 14.1019 8.37041 14.1392 8.85039 14.2732 9.34606 14.4008 9.86633 14.5184 9.93771 14.5351 10.0148 14.5492 10.087 14.5649 10.5457 14.6661 11.0217 14.7599 11.5109 14.8471 11.6767 14.8771 11.8449 14.9053 12.0139 14.9336 12.4792 15.011 12.958 15.0824 13.4502 15.1478 13.5766 15.1644 13.6973 15.1828 13.8254 15.1994 14.436 15.2747 15.068 15.3393 15.7172 15.3949 15.8773 15.4084 16.044 15.4185 16.2066 15.4304 16.7261 15.4692 17.2575 15.5016 17.8006 15.5275 17.9985 15.5369 18.1955 15.5463 18.3975 15.5534 19.106 15.5796 19.8268 15.5975 20.5731 15.5992 21.3192 15.6009 22.0412 15.5851 22.7488 15.5628 22.95 15.5566 23.147 15.5473 23.3457 15.5395 23.8892 15.516 24.4208 15.486 24.9402 15.4494 25.1028 15.4373 25.2687 15.4287 25.4295 15.4159 26.0792 15.3639 26.7115 15.3013 27.3224 15.2287 27.4505 15.2134 27.5714 15.1948 27.6979 15.1786 28.1897 15.1157 28.6686 15.0464 29.135 14.9707 29.3042 14.9433 29.4725 14.9157 29.6384 14.8865 30.1279 14.8014 30.6044 14.7097 31.0636 14.6105 31.1358 14.595 31.213 14.5813 31.2845 14.565 31.8051 14.4495 32.3013 14.3241 32.7819 14.1923 32.9159 14.1556 33.044 14.1173 33.1745 14.0789 33.5368 13.9747 33.8872 13.8657 34.2253 13.752 34.3462 13.7112 34.4694 13.6721 34.5869 13.6305 35.0125 13.4804 35.4225 13.3252 35.807 13.1636 35.8622 13.1406 35.9114 13.1153 35.9656 13.0924 36.2968 12.9486 36.6122 12.801 36.9117 12.6495 37.0143 12.5971 37.1146 12.5449 37.2133 12.4917 37.4821 12.3486 37.7375 12.2019 37.9794 12.0516 38.0419 12.0133 38.1092 11.9756 38.1692 11.9371 38.4579 11.7515 38.725 11.5616 38.9709 11.3674 39.0326 11.3183 39.0878 11.2692 39.1479 11.2201 39.2547 11.1317 39.3673 11.0441 39.466 10.9548L39.4515 17.6927C39.4449 17.8274 39.4227 17.961 39.3857 18.0906 39.3616 18.192 39.3295 18.2913 39.2897 18.3876 39.2551 18.471 39.2159 18.5524 39.1718 18.6312 39.115 18.736 39.0514 18.8371 38.9814 18.9337 38.9272 19.0091 38.8655 19.0854 38.8014 19.1607 38.71 19.2681 38.6128 19.3754 38.5025 19.482 38.4359 19.5466 38.3627 19.6106 38.2886 19.6752 38.1539 19.7924 38.0131 19.9087 37.856 20.0241 37.7886 20.074 37.7163 20.1222 37.6448 20.1714 37.4589 20.2991 37.2648 20.426 37.0521 20.5502 36.9961 20.5837 36.9362 20.6156 36.8778 20.6485 36.6328 20.7858 36.3771 20.9214 36.101 21.0548L35.9925 21.1055C35.6843 21.25 35.3621 21.3922 35.018 21.5293L34.9884 21.5409C32.7193 22.3957 30.3598 22.988 27.9561 23.3063L27.914 23.312C27.3737 23.3903 26.819 23.46 26.2502 23.521 26.1574 23.5306 26.0598 23.537 25.966 23.5466 25.4693 23.5972 24.9667 23.6438 24.4494 23.6804 24.213 23.6972 23.965 23.7057 23.7245 23.7192 23.3353 23.7413 22.95 23.766 22.5512 23.7797 21.8992 23.7989 21.2342 23.8107 20.5553 23.8091 19.8762 23.8075 19.2114 23.793 18.5587 23.7687 18.1597 23.7531 17.7747 23.7266 17.3856 23.7029 17.1451 23.6884 16.8972 23.6788 16.6607 23.661 16.1436 23.623 15.6412 23.5737 15.1447 23.5208 15.0511 23.5106 14.9534 23.5039 14.8607 23.4937 14.2919 23.4303 13.7376 23.3582 13.1979 23.2775L13.1559 23.2716C10.7536 22.9422 8.39685 22.3397 6.13125 21.4757L6.10171 21.4641C5.75802 21.3254 5.43575 21.1819 5.12894 21.0359L5.02062 20.9848C4.74507 20.8512 4.49007 20.7143 4.2457 20.5751 4.18833 20.5422 4.12759 20.51 4.07188 20.4761 3.85956 20.3508 3.666 20.2233 3.48082 20.0948 3.41031 20.0454 3.33737 19.9961 3.27006 19.9467 3.11356 19.8304 2.97346 19.7136 2.83895 19.5959 2.76603 19.5308 2.69238 19.4666 2.62592 19.4017 2.51624 19.2947 2.41957 19.1869 2.32859 19.0792 2.26476 19.0035 2.20343 18.927 2.14939 18.8514 2.0805 18.7541 2.01739 18.6528 1.96037 18.548 1.91702 18.4688 1.87795 18.3873 1.84334 18.3039 1.80412 18.2074 1.7725 18.108 1.74877 18.0065 1.7124 17.8766 1.69094 17.743 1.68482 17.6082Z" fill="#793CBD" transform="matrix(1 0 0 1.02222 90.2606 190)"/><path d="M20.8665 43.8441C20.8665 44.3039 20.4938 44.6766 20.0341 44.6766 19.5743 44.6766 19.2016 44.3039 19.2016 43.8441 19.2016 43.3844 19.5743 43.0117 20.0341 43.0117 20.4938 43.0117 20.8665 43.3844 20.8665 43.8441Z" fill="#793CBD" transform="matrix(1 0 0 1.02222 90.2606 190)"/></g></svg>