<svg width="39" height="39" xmlns="http://www.w3.org/2000/svg" xmlns:xlink="http://www.w3.org/1999/xlink" xml:space="preserve" overflow="hidden"><g transform="translate(-302 -282)"><path d="M341 296.468C341 291.477 337.103 287.39 332.194 287.064L332.194 282 302 282 302 315.968 328.419 315.968 328.419 317.855C328.419 319.589 329.83 321 331.565 321 333.299 321 334.71 319.589 334.71 317.855L334.71 308.419 333.452 308.419 333.452 305.713C337.753 304.837 341 301.025 341 296.468ZM339.742 296.468C339.742 300.977 336.073 304.645 331.565 304.645 327.056 304.645 323.387 300.977 323.387 296.468 323.387 291.959 327.056 288.29 331.565 288.29 336.073 288.29 339.742 291.959 339.742 296.468ZM328.419 308.419 328.419 314.71 303.258 314.71 303.258 283.258 330.935 283.258 330.935 287.064C326.026 287.39 322.129 291.477 322.129 296.468 322.129 301.025 325.376 304.837 329.677 305.713L329.677 308.419ZM333.452 317.855C333.452 318.895 332.605 319.742 331.565 319.742 330.524 319.742 329.677 318.895 329.677 317.855L329.677 309.677 333.452 309.677ZM332.194 308.419 330.935 308.419 330.935 305.871C331.144 305.885 331.352 305.903 331.565 305.903 331.777 305.903 331.985 305.885 332.194 305.871Z" stroke="#793CBD" stroke-width="0.0786479" fill="#793CBD"/><path d="M324.645 296.468C324.645 300.283 327.749 303.387 331.565 303.387 335.38 303.387 338.484 300.283 338.484 296.468 338.484 292.653 335.38 289.548 331.565 289.548 327.749 289.548 324.645 292.653 324.645 296.468ZM337.226 296.468C337.226 299.59 334.686 302.129 331.565 302.129 328.443 302.129 325.903 299.59 325.903 296.468 325.903 293.346 328.443 290.806 331.565 290.806 334.686 290.806 337.226 293.346 337.226 296.468Z" stroke="#793CBD" stroke-width="0.0786479" fill="#793CBD"/><path d="M332.194 317.855C332.194 318.202 331.912 318.484 331.565 318.484 331.217 318.484 330.935 318.202 330.935 317.855 330.935 317.507 331.217 317.226 331.565 317.226 331.912 317.226 332.194 317.507 332.194 317.855Z" stroke="#793CBD" stroke-width="0.0786479" fill="#793CBD"/><path d="M329.398 297.831 328.699 298.878 331.18 300.531 334.644 293.604 333.518 293.042 330.691 298.695Z" stroke="#793CBD" stroke-width="0.0786479" fill="#793CBD"/><path d="M313.274 303 312.113 302.516 311.226 304.645 304.516 304.645 304.516 313.452 314.581 313.452 314.581 304.645 312.589 304.645ZM313.323 305.903 313.323 312.194 305.774 312.194 305.774 305.903 310.702 305.903 309.329 309.197 308.107 307.975 307.217 308.864 309.769 311.416 312.065 305.903Z" stroke="#793CBD" stroke-width="0.0786479" fill="#793CBD"/><path d="M313.274 291.048 312.113 290.564 311.226 292.694 304.516 292.694 304.516 301.5 314.581 301.5 314.581 292.694 312.589 292.694ZM313.323 293.952 313.323 300.242 305.774 300.242 305.774 293.952 310.702 293.952 309.329 297.246 308.107 296.023 307.217 296.912 309.769 299.464 312.065 293.952Z" stroke="#793CBD" stroke-width="0.0786479" fill="#793CBD"/><path d="M319.613 287.032 320.871 287.032 320.871 288.29 319.613 288.29Z" stroke="#793CBD" stroke-width="0.0786479" fill="#793CBD"/><path d="M304.516 287.032 318.355 287.032 318.355 288.29 304.516 288.29Z" stroke="#793CBD" stroke-width="0.0786479" fill="#793CBD"/><path d="M315.839 304.645 323.387 304.645 323.387 305.903 315.839 305.903Z" stroke="#793CBD" stroke-width="0.0786479" fill="#793CBD"/><path d="M315.839 307.161 323.387 307.161 323.387 308.419 315.839 308.419Z" stroke="#793CBD" stroke-width="0.0786479" fill="#793CBD"/><path d="M315.839 309.677 323.387 309.677 323.387 310.935 315.839 310.935Z" stroke="#793CBD" stroke-width="0.0786479" fill="#793CBD"/><path d="M315.839 312.194 323.387 312.194 323.387 313.452 315.839 313.452Z" stroke="#793CBD" stroke-width="0.0786479" fill="#793CBD"/><path d="M315.839 292.694 320.871 292.694 320.871 293.952 315.839 293.952Z" stroke="#793CBD" stroke-width="0.0786479" fill="#793CBD"/><path d="M315.839 295.21 320.871 295.21 320.871 296.468 315.839 296.468Z" stroke="#793CBD" stroke-width="0.0786479" fill="#793CBD"/><path d="M315.839 297.726 320.871 297.726 320.871 298.984 315.839 298.984Z" stroke="#793CBD" stroke-width="0.0786479" fill="#793CBD"/><path d="M315.839 300.242 320.871 300.242 320.871 301.5 315.839 301.5Z" stroke="#793CBD" stroke-width="0.0786479" fill="#793CBD"/><path d="M304.516 284.516 320.871 284.516 320.871 285.774 304.516 285.774Z" stroke="#793CBD" stroke-width="0.0786479" fill="#793CBD"/></g></svg>