<?xml version="1.0" encoding="UTF-8"?><svg id="Layer_2" xmlns="http://www.w3.org/2000/svg" viewBox="0 0 17.94758 25.05371"><defs><style>.cls-1{fill:#783cbe;}</style></defs><g id="Layer_1-2"><g><path class="cls-1" d="M2.02338,4.48419c.24707,0,.44629-.19958,.44629-.44641s-.19922-.44635-.44629-.44635c-.24658,0-.44629,.19952-.44629,.44635s.19971,.44641,.44629,.44641Z"/><path class="cls-1" d="M13.26361,22.0918l-8.58008-.04297h-.00195c-.2334,0-.42383,.18848-.4248,.42285s.1875,.42578,.42285,.42676l8.58008,.04297h.00195c.2334,0,.42383-.18848,.4248-.42285s-.1875-.42578-.42285-.42676Z"/><path class="cls-1" d="M17.92865,8.99707C17.92865,4.04004,13.91107,.00391,8.97162,0,6.69037,.00195,4.51752,.86426,2.85248,2.42969c-.1709,.16016-.17969,.42969-.01855,.60059s.42969,.17969,.60059,.01855C4.94135,1.63281,6.90814,.85156,8.97162,.84961c4.46973,.00391,8.10742,3.65918,8.1123,8.21191,.00293,.02441,.31152,2.43945-2.88867,6.02539-1.52637,2.19531-1.61914,5.07617-1.62207,5.19824-.00586,.23438,.17871,.42969,.41406,.43555h.01074c.22949,0,.41895-.18262,.4248-.41406,.00098-.02637,.08789-2.74609,1.43848-4.69434,3.46875-3.88184,3.08008-6.57031,3.06738-6.61523Z"/><path class="cls-1" d="M5.10834,20.7207c.00781,0,.01562,0,.02441-.00098,.23438-.0127,.41309-.21387,.40039-.44824-.00879-.1416-.21582-3.49316-1.81738-5.22656C.54779,11.50098,.85834,9.08496,.86615,8.99609c0-1.14648,.23242-2.25586,.69043-3.2959,.09473-.21484-.00293-.46484-.21777-.55957-.20996-.0918-.46582,.00293-.55957,.21777C.27338,6.50684,.01654,7.73047,.02143,8.92773c-.01758,.1123-.4082,2.80273,3.06543,6.68848,1.39746,1.51367,1.5957,4.67188,1.59766,4.7041,.0127,.22559,.2002,.40039,.42383,.40039Z"/><path class="cls-1" d="M12.29877,24.2041H5.64447c-.23438,0-.4248,.19043-.4248,.4248s.19043,.4248,.4248,.4248h6.6543c.23438,0,.4248-.19043,.4248-.4248s-.19043-.4248-.4248-.4248Z"/><path class="cls-1" d="M2.99018,10.54785c-.24316,.73242-.11328,1.53418,.35742,2.07031,.33496,.38281,.77441,.57715,1.2832,.54785,.19531,.70703,.65918,1.25684,1.31445,1.54102,.29883,.12891,.61328,.19238,.91504,.19238,.40039,0,.77832-.11133,1.06934-.33008,.37402-.28125,.55762-.71484,.50586-1.19336l.00879-9.63574c0-.11914-.0498-.2334-.1377-.31348-.76074-.69629-1.80664-.82129-2.66113-.31836-.66797,.3916-1.06836,1.07324-1.09375,1.79883-.49316,.0498-.93945,.33398-1.25391,.81738-.34277,.5293-.50684,1.31055-.29395,1.89941-.27246,.32715-.43945,.80078-.46191,1.33691-.02637,.61914,.1416,1.19727,.44824,1.58691Zm.77734-2.4834c.09863-.06641,.16504-.1709,.18262-.28809,.01855-.11719-.01367-.23633-.08789-.3291-.16992-.21387-.14258-.81055,.14844-1.25977,.14893-.22791,.41211-.45941,.79102-.4173,.28125,.52313,.75928,.92401,1.3252,1.04425,.0293,.00586,.05957,.00879,.08789,.00879,.19727,0,.37305-.13672,.41602-.33691,.04883-.22949-.09863-.45508-.32812-.50391-.42676-.09052-.78027-.48608-.87988-.95288-.02393-.55896,.30664-.98529,.65234-1.18774,.49609-.28906,1.05176-.24805,1.51953,.09766l-.00293,3.40735c-.0625-.02045-.125-.0401-.18262-.0509-.52441-.09766-1.23535-.00684-1.68164,.99121-.06348,.14258-.21094,.47656-.27148,.52246l-.14648,.39941,.1416-.40039c-.22461-.08008-.46387,.03711-.54199,.25879-.07812,.2207,.03711,.46387,.25879,.54199,.10547,.03809,.2041,.05469,.2959,.05469,.58398,0,.88672-.68457,1.05371-1.06348,.20898-.46582,.44043-.52441,.73633-.46875,.07178,.01355,.21875,.07367,.33691,.12915l-.00488,5.1394c0,.01758,.00098,.03516,.00293,.05371,.02441,.19141-.0293,.33008-.16895,.43555-.26367,.19824-.73242,.21094-1.13672,.03711-.29395-.12793-.80078-.46582-.89258-1.30078-.00049-.00446-.00391-.008-.00439-.01239,.05225-.2674,.16064-.36884,.34912-.52277,.14062-.11523,.31543-.25684,.47852-.48242,.1377-.19043,.0957-.45605-.09375-.59375-.18848-.13574-.4541-.0957-.59375,.09375-.09863,.13672-.20508,.22363-.32812,.32324-.2207,.1803-.47754,.40643-.60889,.88025-.28613,.01587-.4834-.11713-.60205-.25427-.24561-.27997-.37012-.79688-.14307-1.34137,.00049-.00104,.00195-.00134,.00244-.00238,.04004-.0752,.20605-.10742,.4375-.0918,.27832,.02539,.43848-.15918,.45605-.3916,.01758-.23438-.1582-.43848-.3916-.45605-.33691-.02576-.58057,.02997-.77295,.11609-.12695-.22919-.19971-.5517-.18506-.89343,.01855-.4248,.16602-.79102,.37695-.93262Z"/><path class="cls-1" d="M14.64643,5.72559c-.31445-.48438-.76074-.76855-1.25488-.81836-.02441-.72559-.4248-1.40723-1.0918-1.79883-.85645-.5-1.90137-.37793-2.66211,.31836-.08789,.08008-.1377,.19434-.1377,.31348l.00781,9.63574c-.05176,.47949,.13184,.91309,.50684,1.19336,.29102,.21875,.66895,.33008,1.06836,.33008,.30176,0,.61621-.06348,.91504-.19336,.65625-.2832,1.11914-.83301,1.31445-1.54004,.50488,.03809,.94727-.16504,1.2832-.54688,.4707-.53711,.60156-1.33887,.3584-2.07129,.30664-.38965,.47461-.96777,.44824-1.58691-.02246-.53613-.18945-1.00977-.46191-1.33691,.21289-.58887,.04883-1.37012-.29395-1.89844Zm-.69043,6.33301c-.11963,.13574-.31543,.26904-.60205,.25311-.13184-.47369-.38818-.69983-.60889-.88007-.12305-.09961-.22949-.18652-.32812-.32324-.1377-.19043-.40332-.23047-.59375-.09375-.18945,.1377-.23145,.40332-.09375,.59375,.16309,.22559,.33789,.36719,.47852,.48242,.18848,.15393,.29688,.25537,.34912,.52277-.00049,.00439-.00391,.00793-.00439,.01239-.0918,.83496-.59863,1.17285-.89258,1.30078-.40527,.1748-.87305,.16016-1.13574-.03711-.14062-.10547-.19434-.24414-.16992-.43652,.00195-.01758,.00293-.03516,.00293-.05273l-.00439-5.1391c.11572-.0542,.2627-.11536,.33643-.12946,.29883-.05762,.5293,.00293,.74902,.49805,.15527,.35254,.45703,1.03418,1.04102,1.03418,.0918,0,.19141-.0166,.29688-.05469,.22168-.07812,.35254-.31836,.27441-.53906-.07715-.2207-.30176-.33301-.52734-.25586-.09668-.05078-.24512-.38574-.32129-.55957-.42969-.9668-1.1416-1.05371-1.66797-.95898-.05664,.01068-.11914,.02979-.18164,.05035l-.00293-3.4068c.47168-.34766,1.02734-.38574,1.51953-.09766,.34668,.20288,.67676,.63043,.65137,1.19116-.10059,.46521-.4541,.85919-.87988,.94946-.22949,.04883-.37695,.27441-.32812,.50391,.04297,.2002,.21875,.33691,.41602,.33691,.02832,0,.05859-.00293,.08789-.00879,.56641-.12024,1.04492-.52112,1.32617-1.04425,.38086-.04181,.64307,.18958,.79102,.41827,.29102,.44824,.31836,1.04492,.14844,1.25879-.07422,.09277-.10645,.21191-.08789,.3291,.01758,.11719,.08398,.22168,.18262,.28809,.21094,.1416,.3584,.50781,.37695,.93262,.01465,.34222-.05811,.66528-.18555,.89447-.19434-.08765-.43896-.14392-.77246-.11713-.23438,.01758-.41016,.22168-.39258,.45508s.20801,.41699,.45508,.39258c.23828-.0166,.40039,.0166,.43945,.0918,.00049,.00098,.00146,.00122,.00195,.0022,.22656,.54468,.10205,1.06256-.14355,1.34253Z"/></g></g></svg>