<?xml version="1.0" encoding="UTF-8"?><svg id="Layer_2" xmlns="http://www.w3.org/2000/svg" viewBox="0 0 22.53015 22.29492"><defs><style>.cls-1{fill:#783cbe;}</style></defs><g id="Layer_1-2"><g><path class="cls-1" d="M17.20947,20.32227h-3.43359c-.47168,0-.91113-.25391-1.14844-.66211l-1.71777-2.97363c-.23633-.4082-.23633-.91699,0-1.32617l1.71777-2.97461c.23633-.40918,.67676-.66309,1.14941-.66309h3.43262c.47266,0,.91309,.25391,1.14941,.66406l1.7168,2.97266c.23633,.41016,.23633,.91895,0,1.32715l-1.7168,2.97363c-.2373,.4082-.67676,.66211-1.14941,.66211Zm-3.8457-1.08789c.08496,.14648,.24316,.23828,.41211,.23828h3.43359c.16992,0,.32812-.0918,.41309-.23828l1.7168-2.97363c.08496-.14648,.08496-.3291,0-.47656l-1.7168-2.97266c-.08496-.14746-.24316-.23926-.41309-.23926h-3.43262c-.16992,0-.32812,.0918-.41309,.23828l-1.71777,2.97461c-.08496,.14648-.08496,.3291,0,.47559l1.71777,2.97363Z"/><path class="cls-1" d="M8.75342,15.38086h-3.43359c-.47168,0-.91211-.25391-1.14844-.66406l-1.7168-2.97168c-.2373-.40918-.2373-.91797-.00098-1.32715l1.71777-2.97461c.23633-.40918,.67676-.66309,1.14941-.66309h3.43262c.47266,0,.91309,.25391,1.14941,.66406l1.7168,2.97266c.23633,.41016,.23633,.91797,0,1.32715l-1.7168,2.97363c-.23633,.40918-.67676,.66309-1.14941,.66309Zm-3.43262-7.75098c-.16992,0-.32812,.0918-.41309,.23828l-1.71777,2.97461c-.08496,.14648-.08496,.3291,0,.47656l1.71777,2.97363c.08496,.14648,.24316,.23828,.41211,.23828h3.43359c.16992,0,.32812-.0918,.41309-.23828l1.7168-2.97363c.08496-.14648,.08496-.33008,0-.47754l-1.7168-2.97266c-.08496-.14746-.24316-.23926-.41309-.23926h-3.43262Z"/><path class="cls-1" d="M17.20947,10.57129h-3.43359c-.47168,0-.91211-.25391-1.14844-.66309l-1.71777-2.97266c-.23633-.41016-.23633-.91797,0-1.32715l1.71777-2.97461c.23633-.40918,.67676-.66309,1.14941-.66309h3.43262c.47266,0,.91309,.25391,1.14941,.66406l1.7168,2.97266c.23633,.41016,.23633,.91797,0,1.32715l-1.7168,2.97363c-.23633,.40918-.67676,.66309-1.14941,.66309Zm-3.43262-7.75098c-.16992,0-.32812,.0918-.41309,.23828l-1.71777,2.97461c-.08496,.14648-.08496,.33008,0,.47754l1.71777,2.97266c.08496,.14648,.24316,.23828,.41211,.23828h3.43359c.16992,0,.32812-.0918,.41309-.23828l1.7168-2.97363c.08496-.14648,.08496-.33008,0-.47754l-1.7168-2.97266c-.08496-.14746-.24316-.23926-.41309-.23926h-3.43262Z"/><path class="cls-1" d="M18.34814,22.29492h-5.70996c-.47266,0-.91309-.25391-1.14941-.66406l-2.33105-4.03906c-.08496-.14746-.24316-.23926-.41309-.23926H4.18213c-.47168,0-.91211-.25391-1.14941-.66309L.17725,11.74414c-.23633-.41016-.23633-.91797,0-1.32715L2.77197,5.92285c.39746-.68652,1.13672-1.11328,1.93066-1.11328h4.11719c.16992,0,.32812-.0918,.41309-.23828L11.48877,.66309c.23633-.40918,.67676-.66309,1.14941-.66309h5.70996c.47266,0,.91309,.25391,1.14941,.66406l2.85449,4.94238c.23633,.41016,.23633,.91797,0,1.32715l-.22656,.39453c-.11719,.2041-.375,.27441-.58008,.15625-.20312-.11621-.27344-.37598-.15625-.58008l.22656-.39453c.08496-.14746,.08496-.33105,0-.47852l-2.85449-4.94238c-.08496-.14746-.24316-.23926-.41309-.23926h-5.70996c-.16992,0-.32812,.0918-.41309,.23828l-2.25586,3.9082c-.23633,.40918-.67676,.66309-1.14941,.66309H4.70264c-.49121,0-.94922,.26465-1.19434,.68945L.91357,10.8418c-.08496,.14648-.08496,.33008,0,.47754l2.85547,4.94434c.08496,.14746,.24316,.23926,.41309,.23926h4.5625c.47266,0,.91309,.25391,1.14941,.66406l2.33105,4.03906c.08496,.14746,.24316,.23926,.41309,.23926h5.70996c.16992,0,.32812-.0918,.41309-.23828l2.85547-4.94629c.08496-.14648,.08496-.3291,0-.47656l-2.2959-3.97363c-.23633-.41016-.23633-.91797,0-1.32715l.31738-.5498c.11719-.20215,.37695-.27051,.58105-.15527,.20312,.11816,.27246,.37793,.15527,.58105l-.31738,.54883c-.08496,.14648-.08496,.33008,0,.47754l2.29492,3.97266c.2373,.40918,.2373,.91797,.00098,1.32715l-2.85547,4.94629c-.23633,.40918-.67676,.66309-1.14941,.66309Z"/><path class="cls-1" d="M20.93828,8.23094c.24682,0,.44638,.19956,.44638,.44636,0,.24684-.19956,.44639-.44638,.44639s-.44638-.19956-.44638-.44639c0-.2468,.19956-.44636,.44638-.44636h0Z"/></g></g></svg>