<?xml version="1.0" encoding="UTF-8"?><svg id="Layer_2" xmlns="http://www.w3.org/2000/svg" viewBox="0 0 24.25109 25.04999"><defs><style>.cls-1{fill:#783cbe;}</style></defs><g id="Layer_1-2"><g><path class="cls-1" d="M22.35065,19.22187c-.74902-.30078-1.57129-.29004-2.3125,.0293-.11182,.04797-.21191,.11359-.31592,.17352l-2.47021-3.13629c.43555-.4071,.79834-.8988,1.03613-1.4718,.08984-.2168-.0127-.46582-.22949-.55566-.21582-.08984-.46484,.0127-.55566,.22949-.72852,1.75293-2.83008,2.6416-4.59375,1.93555-.87988-.35156-1.57031-1.02441-1.94336-1.89551s-.38477-1.83496-.0332-2.71582c.35156-.87891,1.02441-1.56934,1.89551-1.94336,.87061-.3728,1.83252-.38452,2.71289-.03369,.00049,.00012,.00049,.00037,.00098,.00049,.00049,.00018,.00098,.00012,.00146,.00031,.8335,.33307,1.39697,.85437,1.7749,1.6413,.10156,.21191,.35645,.30469,.56641,.19922,.21191-.10059,.30078-.35449,.19922-.56641-.40527-.84747-1.021-1.4549-1.84473-1.87274l1.31738-3.29321c.23486,.05725,.47119,.09564,.70605,.09564,1.2002,0,2.33789-.71973,2.80957-1.89941v-.00098c.2998-.74902,.28906-1.57031-.02832-2.3125-.31836-.74121-.90625-1.31445-1.65527-1.61328-1.5498-.61816-3.30957,.13574-3.92676,1.68359-.56445,1.41187,.02441,2.99231,1.30615,3.72931l-1.32031,3.30078c-.97607-.28503-2.0083-.24548-2.95459,.16132-1.08008,.46289-1.91406,1.31836-2.34961,2.4082-.2373,.5932-.3291,1.21649-.30029,1.83612l-3.9375,.56824c-.25244-.85913-.86963-1.60223-1.76416-1.95905-.74902-.30078-1.57129-.29004-2.3125,.02832s-1.31445,.90625-1.61328,1.65527c-.61816,1.54688,.13672,3.30859,1.68359,3.92676,.36621,.14648,.74414,.21582,1.11719,.21582,1.2002,0,2.33789-.71973,2.80957-1.89941v-.00098c.14746-.36957,.21191-.75098,.21045-1.12634l3.9292-.56702c.05762,.23242,.12256,.46405,.21875,.68848,.46289,1.08008,1.31836,1.91406,2.40918,2.34961,.51172,.2041,1.04492,.30078,1.5752,.30078,.85352,0,1.69482-.25238,2.41309-.70428l2.46436,3.12885c-.26318,.2757-.47607,.60034-.62158,.96509-.61816,1.54688,.13672,3.30859,1.68359,3.92676,.36328,.14551,.74316,.21777,1.12207,.21777,.4043,0,.80762-.08203,1.19043-.24609,.74121-.31836,1.31445-.90625,1.61426-1.65527v-.00098c.61816-1.5459-.13672-3.30762-1.68457-3.92578ZM16.25104,2.21503c.21582-.53906,.62695-.96094,1.16016-1.18945,.27539-.11816,.56445-.17676,.85547-.17676,.27246,0,.5459,.05176,.80664,.15625,.53809,.21484,.96094,.62695,1.18945,1.16016,.22852,.53223,.23535,1.12305,.02051,1.66113-.44336,1.11176-1.71045,1.65247-2.81934,1.21143-.00049-.00012-.00049-.00037-.00098-.00049-.00049-.00018-.00098-.00006-.00146-.00024-1.11182-.44452-1.65479-1.71088-1.21045-2.82202ZM5.03717,15.55585c-.44434,1.11133-1.71094,1.65625-2.82227,1.20996-.53906-.21582-.96094-.62695-1.18945-1.16016s-.23535-1.12305-.02051-1.66211c.21484-.53809,.62695-.96094,1.16016-1.18945,.27441-.11816,.56445-.17676,.85449-.17676,.27344,0,.5459,.05176,.80762,.15625,1.11035,.44336,1.65332,1.70996,1.20996,2.82227Zm18.20898,7.27637v.00098c-.21582,.53809-.62793,.96094-1.16016,1.18945-.53418,.22852-1.12305,.23633-1.66113,.02051-.53906-.21582-.96094-.62793-1.19043-1.16016-.22852-.5332-.23535-1.12305-.02051-1.66211,.21484-.53809,.62695-.95996,1.16016-1.18945,.27441-.11719,.56445-.17676,.85547-.17676,.27246,0,.54492,.05176,.80566,.15625,.53906,.21582,.96094,.62793,1.19043,1.16016,.22852,.5332,.23535,1.12305,.02051,1.66113Z"/><path class="cls-1" d="M17.72369,12.97321c0,.24689,.19922,.44641,.44629,.44641,.24658,0,.44629-.19952,.44629-.44641,0-.24677-.19971-.44635-.44629-.44635-.24707,0-.44629,.19958-.44629,.44635Z"/></g></g></svg>