<?xml version="1.0" encoding="UTF-8"?><svg id="Layer_2" xmlns="http://www.w3.org/2000/svg" viewBox="0 0 25.0127 25.01367"><defs><style>.cls-1{fill:#783cbe;}</style></defs><g id="Layer_1-2"><g><path class="cls-1" d="M25.0127,8.47949c0-.64355-.11328-1.47754-.30273-2.22852-.05664-.22754-.29102-.36523-.51562-.30859-.22852,.05762-.36621,.28809-.30859,.51562,.17383,.68848,.27734,1.44336,.27734,2.02148,0,2.62543-1.3335,4.94507-3.35791,6.31842-.48535-2.32214-1.92725-4.29095-3.88916-5.49231,.02637-.27203,.04199-.54724,.04199-.82611,0-2.8609-1.42773-5.3902-3.60449-6.92664,.96973-.44696,2.04492-.70325,3.18066-.70325,2.24023,0,4.35938,.98047,5.81348,2.68848,.15234,.17871,.41992,.2002,.59863,.04785,.17871-.15137,.2002-.41992,.04785-.59863-1.61523-1.89844-3.96973-2.9873-6.45996-2.9873-1.45703,0-2.8291,.36975-4.02783,1.01965-1.19922-.6499-2.5708-1.01965-4.02783-1.01965C3.80371,0,0,3.80371,0,8.47949c0,3.05933,1.63379,5.73718,4.06934,7.2287-.02637,.27197-.04199,.54718-.04199,.82599,0,4.67578,3.80371,8.47949,8.47852,8.47949,4.67578,0,8.47949-3.80371,8.47949-8.47949,0-.27881-.01562-.55402-.04199-.82599,2.43555-1.49152,4.06934-4.16937,4.06934-7.2287Zm-4.99268,6.77863c-1.0459,.54047-2.22949,.85126-3.48584,.85126-1.13574,0-2.21094-.25635-3.18066-.70331,1.72363-1.2168,2.97803-3.05499,3.42432-5.19012,1.68848,1.14545,2.88818,2.95172,3.24219,5.04218Zm-11.00098-5.50214c1.04639-.54077,2.22998-.85168,3.48682-.85168s2.44043,.31079,3.48682,.85138c-.37061,2.18811-1.67285,4.05835-3.48682,5.19202-1.81396-1.13361-3.11621-3.0036-3.48682-5.19171Zm2.63965,5.65002c-.96973,.44702-2.04443,.70337-3.18018,.70337-1.25635,0-2.43994-.31079-3.48584-.85126,.354-2.09021,1.55322-3.89624,3.24121-5.04175,.44678,2.13489,1.70117,3.9729,3.4248,5.18964Zm4.44971-6.92651c0,.12842-.01318,.25354-.01953,.38043-1.08984-.51117-2.30127-.80524-3.58301-.80524s-2.49316,.29413-3.58301,.80548c-.00635-.12695-.01953-.2522-.01953-.38068,0-2.72778,1.44385-5.11902,3.60254-6.4682,2.15869,1.34918,3.60254,3.74042,3.60254,6.4682ZM.84961,8.47949C.84961,4.27246,4.27246,.84961,8.47852,.84961c1.13574,0,2.21045,.25629,3.18018,.70331-2.17676,1.53644-3.60498,4.06573-3.60498,6.92657,0,.27899,.01562,.55438,.04199,.82654-1.96143,1.20148-3.40283,3.17004-3.88818,5.49188-2.02441-1.37335-3.35791-3.69299-3.35791-6.31842Zm19.28613,8.05469c0,4.20703-3.42285,7.62988-7.62988,7.62988-4.20605,0-7.62891-3.42285-7.62891-7.62988,0-.12836,.01318-.25348,.01953-.38031,1.08984,.51105,2.30078,.80511,3.58203,.80511,1.45703,0,2.82861-.36975,4.02783-1.01965,1.19873,.6499,2.5708,1.01965,4.02783,1.01965,1.28125,0,2.49219-.29407,3.58203-.80511,.00635,.12683,.01953,.25195,.01953,.38031Z"/><path class="cls-1" d="M23.65332,5.16547c.24707,0,.44629-.19958,.44629-.44641,0-.24677-.19922-.44635-.44629-.44635s-.44629,.19958-.44629,.44635c0,.24683,.19922,.44641,.44629,.44641Z"/></g></g></svg>