<?xml version="1.0" encoding="UTF-8"?><svg id="Layer_2" xmlns="http://www.w3.org/2000/svg" viewBox="0 0 25.49201 24.13672"><defs><style>.cls-1{fill:#783cbe;}</style></defs><g id="Layer_1-2"><g><path class="cls-1" d="M12.74552,9.51758c-.04785,0-.0957-.00781-.14062-.02344L.28458,5.16016c-.22168-.07812-.33789-.32129-.26074-.54199,.07812-.22168,.32422-.33496,.54199-.26074l12.17969,4.28516,12.18066-4.28516c.21484-.07422,.46387,.03906,.54199,.26074,.07715,.2207-.03906,.46387-.26074,.54199l-12.32129,4.33398c-.04492,.01562-.09277,.02344-.14062,.02344Z"/><path class="cls-1" d="M.4252,5.18359c-.17578,0-.33984-.10938-.40137-.28418-.07715-.2207,.03906-.46387,.26074-.54199L12.60489,.02344c.08984-.03125,.19141-.03125,.28125,0l12.32129,4.33398c.22168,.07812,.33789,.32129,.26074,.54199-.07812,.2207-.32617,.33496-.54199,.26074L12.74552,.875,.56583,5.16016c-.0459,.01562-.09375,.02344-.14062,.02344Z"/><path class="cls-1" d="M12.74552,16.24023c-6.31543,0-8.01465-3.03027-8.08301-3.15918-.0332-.06152-.05078-.13086-.05078-.20117V6.68262c0-.23438,.19043-.4248,.4248-.4248s.4248,.19043,.4248,.4248v6.07422c.30762,.44531,2.08398,2.63379,7.28418,2.63379,5.19336,0,6.97363-2.18359,7.28516-2.63379V6.68262c0-.23438,.19043-.4248,.4248-.4248s.4248,.19043,.4248,.4248v6.19727c0,.07031-.01758,.13965-.05078,.20117-.06934,.12891-1.76855,3.15918-8.08398,3.15918Z"/><g><circle class="cls-1" cx="22.5116" cy="17.86134" r=".4656"/><path class="cls-1" d="M22.51114,16.46973c-.23438,0-.4248-.19043-.4248-.4248V6.1748L12.84708,2.86621c-.2207-.0791-.33594-.32227-.25684-.54395,.08008-.22168,.32227-.33398,.54395-.25684l9.52051,3.41016c.16895,.06055,.28125,.2207,.28125,.40039v10.16895c0,.23438-.19043,.4248-.4248,.4248Z"/><path class="cls-1" d="M22.51114,24.13672c-1.3584,0-2.46289-1.10449-2.46289-2.46289s1.10449-2.46289,2.46289-2.46289,2.46387,1.10449,2.46387,2.46289-1.10547,2.46289-2.46387,2.46289Zm0-4.07617c-.88965,0-1.61328,.72363-1.61328,1.61328s.72363,1.61328,1.61328,1.61328,1.61426-.72363,1.61426-1.61328-.72461-1.61328-1.61426-1.61328Z"/></g></g></g></svg>