<?xml version="1.0" encoding="UTF-8"?><svg id="Layer_2" xmlns="http://www.w3.org/2000/svg" viewBox="0 0 24.97716 24.97559"><defs><style>.cls-1{fill:#783cbe;}</style></defs><g id="Layer_1-2"><g><path class="cls-1" d="M23.79395,17.61426c-1.18359-1.21875-2.99805-1.87598-4.10449-1.87598h-4.59961c-1.33984,0-2.42969-.85059-2.43945-1.89844,.00977-1.04785,1.09961-1.89844,2.43945-1.89844h1.09961c.23438,0,.4248-.19043,.4248-.4248s-.19043-.4248-.4248-.4248h-1.09961c-1.79492,0-3.25977,1.21387-3.28906,2.71484v.06543c.0293,1.50195,1.49414,2.71582,3.33008,2.71582h4.55859c.94531,0,2.51074,.60547,3.49414,1.61816,.64941,.66895,.96582,1.41895,.94238,2.22949-.07031,2.3877-2.96777,3.69043-4.43652,3.69043H6.56543c1.43018-1.56464,4.63574-5.58911,4.63574-10.25391,0-2.96094-1.4707-6.12402-5.60059-6.12402S0,10.91113,0,13.87207c0,5.87305,5.0918,10.74609,5.30859,10.9502,.08203,.07812,.1875,.11621,.29199,.11621,.00049,0,.00049-.00018,.00098-.00018,.05273,.02325,.10986,.03729,.1709,.03729h13.91699c1.84961,0,5.19727-1.50879,5.28613-4.51465,.03027-1.03418-.37793-2.01855-1.18164-2.84668ZM.84961,13.87207c0-1.58594,.46289-5.27441,4.75098-5.27441s4.75098,3.68848,4.75098,5.27441c0,4.7207-3.67578,8.91309-4.75098,10.03809-1.0752-1.12402-4.75098-5.31055-4.75098-10.03809Z"/><path class="cls-1" d="M19.56445,11.63477c.08203,.07715,.1875,.11523,.29199,.11523s.20996-.03809,.29199-.11621c.14648-.1377,3.58496-3.42969,3.58496-7.40723,0-2.04297-1.01855-4.22656-3.87695-4.22656-2.85938,0-3.87793,2.18359-3.87793,4.22656,0,3.97754,3.43945,7.26953,3.58594,7.4082Zm.29199-10.78516c2.73242,0,3.02734,2.36133,3.02734,3.37695,0,2.96191-2.2168,5.61816-3.02734,6.48926-.81055-.87109-3.02832-3.52734-3.02832-6.48926,0-1.01562,.29492-3.37695,3.02832-3.37695Z"/><path class="cls-1" d="M22.31348,4.18066c0-1.35547-1.10254-2.45801-2.45703-2.45801-1.35547,0-2.45801,1.10254-2.45801,2.45801,0,1.35449,1.10254,2.45703,2.45801,2.45703,1.35449,0,2.45703-1.10254,2.45703-2.45703Zm-4.06543,0c0-.88672,.72168-1.6084,1.6084-1.6084,.88574,0,1.60742,.72168,1.60742,1.6084,0,.88574-.72168,1.60742-1.60742,1.60742-.88672,0-1.6084-.72168-1.6084-1.60742Z"/><path class="cls-1" d="M9.07324,13.80273c0-1.91504-1.55762-3.47266-3.47266-3.47266-1.91406,0-3.47168,1.55762-3.47168,3.47266s1.55762,3.47266,3.47168,3.47266c1.91504,0,3.47266-1.55762,3.47266-3.47266Zm-6.09473,0c0-1.44629,1.17676-2.62305,2.62207-2.62305,1.44629,0,2.62305,1.17676,2.62305,2.62305s-1.17676,2.62305-2.62305,2.62305c-1.44531,0-2.62207-1.17676-2.62207-2.62305Z"/><path class="cls-1" d="M17.48633,11.5163c0,.24689,.19971,.44641,.44629,.44641,.24707,0,.44629-.19952,.44629-.44641,0-.24677-.19922-.44635-.44629-.44635-.24658,0-.44629,.19958-.44629,.44635Z"/></g></g></svg>