<?xml version="1.0" encoding="UTF-8"?><svg id="Layer_2" xmlns="http://www.w3.org/2000/svg" viewBox="0 0 15.77051 24.4043"><defs><style>.cls-1{fill:#783cbe;}</style></defs><g id="Layer_1-2"><g><g><path class="cls-1" d="M7.88477,24.4043c-.10449,0-.20996-.03809-.29199-.11621-.14453-.13672-3.57227-3.40332-5.78809-8.1582-.09863-.21289-.00684-.46582,.20605-.56543,.21387-.09668,.46582-.00684,.56543,.20605,1.77637,3.81445,4.43164,6.71094,5.30859,7.6084,1.36328-1.40039,7.03613-7.65332,7.03613-14.73926,0-1.82715-.50781-7.79004-7.03613-7.79004C1.35742,.84961,.84961,6.8125,.84961,8.63965c0,1.28711,.18848,2.62793,.55957,3.98438,.06152,.22656-.07129,.45996-.29785,.52246-.23145,.05859-.46094-.07227-.52246-.29785-.39062-1.42969-.58887-2.8457-.58887-4.20898C0,3.22949,2.94727,0,7.88477,0s7.88574,3.22949,7.88574,8.63965c0,8.38477-7.28418,15.35645-7.59375,15.64844-.08203,.07812-.1875,.11621-.29199,.11621Z"/><path class="cls-1" d="M7.88477,13.35742c-2.65625,0-4.81738-2.16113-4.81738-4.81738S5.22852,3.72266,7.88477,3.72266s4.81738,2.16113,4.81738,4.81738-2.16113,4.81738-4.81738,4.81738Zm0-8.78516c-2.1875,0-3.96777,1.78027-3.96777,3.96777s1.78027,3.96777,3.96777,3.96777,3.96777-1.78027,3.96777-3.96777-1.78027-3.96777-3.96777-3.96777Z"/></g><circle class="cls-1" cx="1.57415" cy="14.38879" r=".43266"/></g></g></svg>