<?xml version="1.0" encoding="UTF-8"?><svg id="Layer_2" xmlns="http://www.w3.org/2000/svg" viewBox="0 0 30.54121 25.03876"><defs><style>.cls-1{fill:#783cbe;}</style></defs><g id="Layer_1-2"><g><path class="cls-1" d="M10.26957,17.11982c-.06934,0-.13965-.0166-.20508-.05273L.21977,11.65595c-.2041-.1123-.2793-.36816-.16895-.57324L4.56059,2.70576c.11035-.20703,.37012-.28613,.5752-.17285,.20703,.11133,.28418,.36914,.17285,.5752L.99907,11.11396l9.10254,5.00391,1.86621-3.39453c.05957-.1084,.16406-.18555,.28516-.21094,.12012-.02441,.24902,.00391,.3457,.0791,.41602,.31934,.69238,.73926,.7041,.75684,.15332,.28906,.35938,.49805,.61621,.63965,.34668,.19141,.74805,.23438,1.12891,.12402,.38086-.11133,.69629-.36328,.8877-.71094,.19141-.34863,.23535-.75,.125-1.13086-.11133-.38086-.36328-.69531-.71094-.88672-.25586-.13965-.54688-.20215-.83203-.17871-.03809,.00586-.56152-.00684-1.05469-.18945-.11621-.04297-.20703-.13379-.25098-.25-.04297-.11523-.0332-.24512,.02637-.35352l1.86426-3.39355-3.41113-1.87598c-.10254-.05566-.17676-.15234-.20605-.26562-.0293-.11426-.01074-.23438,.05176-.33301,.32422-.5127,.85352-.8623,.87598-.87695,.29004-.15625,.5-.3623,.63867-.61621,.19141-.34668,.23535-.74707,.125-1.12695-.11035-.38184-.36328-.69727-.71094-.88867-.34668-.19043-.74902-.23633-1.13086-.125-.37988,.11035-.69434,.3623-.88574,.70898-.13965,.25488-.20215,.54199-.17871,.83203,.00098,.06543-.00977,.7002-.27051,1.24902-.05078,.10742-.14453,.18848-.25781,.22363-.11523,.03418-.23633,.02051-.33887-.03809l-2.18457-1.26465c-.20312-.11816-.27246-.37793-.15527-.58105,.11816-.20312,.37598-.27148,.58105-.15527l1.72949,1.00098c.04395-.22461,.04785-.4043,.04785-.40723-.03516-.41699,.0625-.86914,.2832-1.26855,.2998-.5459,.79395-.94238,1.39355-1.11621,.59766-.17383,1.23047-.10352,1.77637,.19727,.54688,.2998,.94434,.7959,1.11816,1.39551,.17383,.59863,.10449,1.22852-.19629,1.77344-.21875,.39844-.54785,.72266-.9502,.9375h0c.00195,0-.1377,.0957-.2959,.24805l3.33398,1.83301c.20508,.1123,.28027,.37109,.16699,.57715l-1.80176,3.2793c.1416,.01953,.23926,.02148,.24121,.02148,.41797-.04004,.86816,.0625,1.26758,.2832,.5459,.2998,.94336,.79492,1.11719,1.39355,.1748,.59961,.10449,1.23047-.19629,1.77734-.2998,.5459-.79492,.94336-1.39453,1.11816-.59766,.17285-1.23047,.10449-1.77637-.19629-.40234-.2207-.72656-.5498-.9375-.95215v.00098c-.00098,0-.04785-.06738-.12695-.16113l-1.80273,3.28027c-.07715,.14062-.22266,.21973-.37207,.21973Z"/><path class="cls-1" d="M24.70512,25.03876c-.06934,0-.13965-.0166-.20508-.05273l-9.84473-5.41016c-.09863-.05371-.17188-.14551-.20312-.25391-.03125-.10742-.01855-.22363,.03613-.32324l2.07031-3.7666c.08691-.15918,.26562-.24707,.44824-.21289,.10742,.01953,.20117,.0791,.26367,.16309,.37402,.30469,.61816,.6709,.62891,.6875,.15723,.28906,.36523,.49707,.62012,.63477,.72266,.39062,1.62402,.12109,2.01367-.59863,.38965-.7207,.12109-1.62402-.59863-2.01367-.25781-.13867-.54688-.20117-.83203-.17383-.06152-.00293-.56152-.00293-1.05566-.17969-.13477-.04785-.23633-.16016-.27051-.29883-.0332-.13867,.00391-.28516,.10059-.38965l2.02246-3.69629c.1123-.20605,.37012-.28223,.57715-.16699l3.33301,1.83105c.0459-.23047,.0498-.41602,.0498-.41895-.0332-.41699,.06348-.86914,.28223-1.26758,.30078-.54688,.7959-.94336,1.39453-1.11719,.59766-.1748,1.23047-.10449,1.77734,.19727,.5459,.2998,.94336,.79492,1.11719,1.39355s.10547,1.22852-.19531,1.77441c-.21875,.39941-.54785,.72363-.9502,.93848h0c.00195,0-.1377,.0957-.2959,.24805l3.33008,1.83008c.09961,.05371,.17285,.14551,.20508,.25391,.03125,.1084,.01855,.22461-.03613,.32422l-5.41113,9.84473c-.07715,.14062-.22266,.21973-.37207,.21973Zm-9.26758-6.00293l9.09961,5.00098,5.00195-9.09961-3.40918-1.87402c-.10254-.05566-.17676-.15234-.20605-.26562-.0293-.11426-.01074-.23438,.05176-.33301,.32422-.5127,.85352-.8623,.87598-.87695,.29004-.15625,.5-.3623,.63867-.61621,.19141-.34766,.23535-.74805,.12402-1.12891-.11035-.38086-.36328-.69531-.70996-.88672-.34766-.19043-.74902-.23633-1.13086-.125-.38086,.11035-.69531,.3623-.88672,.70898-.13867,.25391-.20117,.54199-.17871,.83301,.00098,.06445-.00977,.69922-.26953,1.24707-.0498,.10645-.1416,.18652-.25293,.22266-.11328,.03516-.2334,.02441-.33594-.03223l-3.41016-1.87402-1.60254,2.91602c.13672,.0166,.22949,.01758,.23145,.01758,.41309-.04199,.86621,.05664,1.27051,.27441,1.13184,.6123,1.55469,2.0332,.94238,3.16602-.6123,1.13184-2.03418,1.55371-3.16602,.94238-.40137-.2168-.72656-.54395-.94336-.94531h0c-.00098,0-.05273-.07324-.13965-.17285l-1.59473,2.90137Z"/><circle class="cls-1" cx="5.81296" cy="1.39167" r=".45122"/></g></g></svg>