<?xml version="1.0" encoding="UTF-8"?><svg id="Layer_2" xmlns="http://www.w3.org/2000/svg" viewBox="0 0 22.77704 27.45117"><defs><style>.cls-1{fill:#783cbe;}</style></defs><g id="Layer_1-2"><g><path class="cls-1" d="M22.77519,14.58307c.00146-.00903-.00098-.01758,0-.02673,.00635-.06281-.00391-.12506-.02637-.18628-.00391-.01019,0-.02124-.00439-.03119-.00391-.00836-.01318-.01202-.01758-.02008-.00732-.01447-.00928-.03052-.01855-.04437l-3.30273-4.82617c-.00879-.01288-.02393-.01862-.03418-.03033-.01855-.02203-.03271-.04706-.05664-.06537-.01172-.00916-.02588-.01129-.03809-.01904-.01953-.01202-.03809-.02087-.05908-.02966-.04248-.01807-.08496-.02844-.12939-.03198-.01172-.00098-.02148-.00818-.0332-.00818h-7.46777c-.02148-.00391-.04199-.0047-.06396-.00531-.02686-.00067-.05225,.00092-.07861,.00531H3.99443c-.0127,0-.02344,.00739-.03613,.00848-.03809,.00323-.07373,.01263-.11035,.02631-.02246,.00842-.04395,.01544-.06445,.02753-.00977,.00562-.021,.00647-.03027,.01288-.02686,.01855-.04395,.04443-.06494,.0675-.01074,.01129-.02539,.01672-.03467,.02917L.08134,14.24512c-.01318,.01764-.01709,.03839-.02734,.05725-.0083,.0141-.02441,.02124-.03125,.0365-.00635,.01367-.00146,.02869-.00586,.04272-.00684,.02325-.00732,.04633-.01025,.07013-.01855,.12238-.00049,.2478,.0835,.3432l10.97363,12.51172c.00635,.0072,.01611,.01007,.02246,.01678,.01367,.01355,.02637,.02631,.04199,.03802,.01074,.00812,.02197,.01154,.0332,.01855,.00146,.00079,.00293,.0014,.00439,.0022,.02148,.01331,.0415,.02704,.06543,.03619,.00879,.00342,.01465,.01038,.02393,.01324,.04297,.01367,.08594,.01953,.12793,.01953,.04297,0,.08789-.00684,.13086-.02051,.0083-.00275,.01416-.00934,.02246-.01251,.02344-.00928,.04346-.0235,.06543-.03693,.00098-.00055,.00195-.00098,.00293-.00159,.01172-.00745,.02393-.01117,.03516-.01978,.01514-.0116,.02783-.02393,.04102-.03729,.00635-.00641,.01562-.00909,.02148-.01593l10.97461-12.51172c.00537-.00616,.00488-.01501,.00977-.02142,.04492-.05707,.07715-.12061,.08838-.19043ZM3.98222,10.41785l2.53662,3.672H1.25419l2.72803-3.672Zm.82178-.30457h5.771l-3.20898,3.70837-2.56201-3.70837Zm6.69434,.23193l2.9541,3.74463h-6.19434l3.24023-3.74463Zm.90137-.23193h5.79102l-2.86426,3.71039-2.92676-3.71039Zm6.63428,.29742l2.51807,3.67914h-5.3584l2.84033-3.67914ZM7.01933,14.93945l3.32373,10.25677L1.34794,14.93945H7.01933Zm5.37744,10.2868l1.22266-3.87567c.07031-.22363-.05371-.46289-.27734-.5332-.22949-.07031-.46191,.05371-.5332,.27734l-1.43115,4.53644-3.46484-10.69171h6.83691l-.87939,2.78906c-.07031,.22363,.05371,.46289,.27734,.5332,.04297,.01367,.08594,.01953,.12793,.01953,.18066,0,.34863-.11523,.40527-.29688l.95996-3.04492h5.77832l-9.02246,10.2868Z"/><circle class="cls-1" cx="13.74443" cy="19.53485" r=".44632"/><path class="cls-1" d="M11.52958,5.74805c.23438,0,.4248-.19043,.4248-.4248V.4248c0-.23438-.19043-.4248-.4248-.4248s-.4248,.19043-.4248,.4248V5.32324c0,.23438,.19043,.4248,.4248,.4248Z"/><path class="cls-1" d="M4.73955,7.7627c.08301,.08301,.19238,.12402,.30078,.12402s.21777-.04102,.30078-.12402c.16602-.16602,.16602-.43555,0-.60156l-2.34961-2.34863c-.16602-.16602-.43555-.16602-.60156,0s-.16602,.43555,0,.60156l2.34961,2.34863Z"/><path class="cls-1" d="M18.15458,7.88672c.1084,0,.21777-.04102,.30078-.12402l2.34863-2.34863c.16602-.16602,.16602-.43555,0-.60156s-.43555-.16602-.60156,0l-2.34863,2.34863c-.16602,.16602-.16602,.43555,0,.60156,.08301,.08301,.19238,.12402,.30078,.12402Z"/></g></g></svg>