<?xml version="1.0" encoding="UTF-8"?><svg id="Layer_2" xmlns="http://www.w3.org/2000/svg" viewBox="0 0 23.11544 21.47273"><defs><style>.cls-1{fill:#783cbe;}</style></defs><g id="Layer_1-2"><g><path class="cls-1" d="M17.29952,21.47273c-1.12012,0-2.24512-.46289-3.10938-1.32617-1.00586-1.00586-1.48047-2.42188-1.27246-3.74902l-1.68848-1.60156c-.1709-.16211-.17773-.43066-.0166-.60059,.16113-.17285,.42969-.17871,.60059-.0166l1.85742,1.76074c.1084,.10254,.15527,.25488,.12305,.40137-.24805,1.11328,.13477,2.34082,.99805,3.2041,.82031,.82227,1.96582,1.19629,3.01953,1.0332l-1.83105-1.83008c-.49512-.49609-.51758-1.28027-.04883-1.74902l.65723-.65723c.46777-.46777,1.25293-.44727,1.74902,.04883l1.87402,1.87402c.21094-1.0791-.16016-2.26953-1.01465-3.12402-.8623-.86328-2.09277-1.24512-3.20508-.99902-.1377,.03223-.28223-.00977-.38379-.10645l-1.85742-1.76074c-.1709-.16211-.17773-.43066-.0166-.60059,.16211-.17285,.42969-.17871,.60059-.0166l1.7002,1.61133c1.33008-.2168,2.75391,.26172,3.76367,1.27051,1.26855,1.26953,1.66992,3.15527,.99707,4.69238-.05664,.12793-.17285,.2207-.31055,.24707-.13672,.02539-.2793-.01855-.37988-.11719l-2.36914-2.36914c-.08301-.08398-.19043-.13281-.30078-.13672-.05957-.01465-.16406,.00488-.24512,.08789l-.65723,.65723c-.08203,.08203-.09082,.18848-.08789,.24512,.00391,.11035,.05273,.21777,.13672,.30078l2.34473,2.34375c.10059,.10059,.14453,.24609,.11621,.38574-.0293,.13965-.125,.25586-.25781,.30859-.47754,.19336-.98145,.28809-1.48535,.28809Z"/><path class="cls-1" d="M6.84445,10.23543c-.1084,0-.21777-.04102-.30078-.12402l-1.4668-1.46777c-1.33496,.21094-2.75-.26562-3.75684-1.27051C.0505,6.10359-.34989,4.21785,.32296,2.67976c.05664-.12793,.17285-.2207,.31055-.24707,.13672-.02637,.2793,.01855,.37988,.11719l2.36914,2.36914c.08301,.08398,.19043,.13281,.30078,.13672,.0498,.00684,.16211-.00488,.24414-.08789l.65723-.65723c.07324-.07324,.08887-.16406,.08887-.22754,0-.11426-.0498-.23047-.13672-.31738L2.1921,1.42097c-.10059-.10156-.14453-.24609-.11621-.38574,.0293-.13965,.125-.25586,.25781-.30859,1.53711-.62207,3.33789-.21582,4.59473,1.03809,1.00684,1.00684,1.48145,2.42676,1.27051,3.75684l1.54395,1.54297c.16602,.16602,.16602,.43555,0,.60156s-.43555,.16602-.60156,0l-1.70215-1.70215c-.10254-.10254-.14551-.25098-.11426-.39258,.24707-1.11426-.13477-2.34277-.99805-3.20508-.82031-.82129-1.96484-1.19531-3.01953-1.0332l1.83008,1.83105c.24512,.24512,.38672,.58008,.38672,.91895,0,.31738-.12012,.6123-.33887,.8291l-.65625,.65723c-.46777,.46875-1.25098,.44727-1.74805-.04883L.90695,3.64656c-.21094,1.0791,.16016,2.27051,1.01465,3.125,.8623,.86328,2.08789,1.24609,3.20508,.99805,.14258-.03223,.28906,.0127,.39258,.11426l1.62598,1.62598c.16602,.16602,.16602,.43555,0,.60156-.08301,.08301-.19238,.12402-.30078,.12402Z"/><path class="cls-1" d="M2.88839,21.17878c-.57129,0-1.15137-.29004-1.72559-.86328-.48926-.48438-.7334-1.00586-.72168-1.54883,.01562-.75195,.51855-1.23145,.57617-1.2832l1.25781-1.40527c.1582-.17285,.42773-.18652,.60059-.03223,.1748,.15723,.18848,.42578,.03223,.60059l-1.28809,1.43555c-.03027,.03027-.3252,.31348-.3291,.71094-.00391,.29785,.15527,.60645,.47168,.91895,.42383,.4248,.82129,.62793,1.17676,.61523,.34473-.02051,.55078-.26562,.55273-.26758L14.96847,7.88191c.14941-.2373,.41797-.3252,1.69141-.2666,.86816,.04199,1.28809,.39746,1.48828,.68945,.22754,.33301,.25488,.69238,.22559,.92676,.20898,.31348,1.00586,1.11426,1.37012,1.40527,.53516-.42188,2.03613-2.00586,2.46777-2.53906-.24902-.36328-1.0625-1.10547-1.35645-1.22266-.64648,.11621-1.27344-.46973-1.39648-.5918-.25781-.25781-.31348-.76855-.33594-1.74707-.00195-.08105-.00391-.15137-.00586-.20703-.25488-.3916-1.87793-1.92285-2.15625-2.09375-.00684,.01465-.13184,.08105-.20703,.12109-.13086,.06934-.26562,.14062-.41895,.16309-.2666,.03711-.45215-.125-.71484-.34766-.40039-.34082-1.06934-.91016-2.23242-1.1875-.99512-.23438-2.66211-.22266-3.34668,.52246,.18164,.14453,.66895,.34863,1.00684,.49023,.21484,.09082,.4375,.18359,.65234,.2832,1.04297,.4834,1.7002,1.13086,1.95215,1.9248,.32324,1.01367-.15723,1.87012-.17773,1.90625-.02051,.03516-.04492,.06641-.07324,.09375L5.13644,14.24226c-.16797,.16309-.4375,.16016-.60059-.00879-.16406-.16797-.16016-.43652,.00879-.60059L12.75753,5.64558c.06738-.14648,.26074-.64355,.08203-1.19336-.18066-.55273-.68457-1.02344-1.49707-1.40039-.20508-.09473-.41797-.18457-.62402-.27051-.79688-.33398-1.42578-.59863-1.55176-1.09863-.03906-.15723-.04297-.39746,.16406-.65332C10.26632-.12883,12.38448-.12688,13.58468,.15828c1.36133,.32324,2.1582,1.00195,2.58594,1.36621,.04883,.04199,.0918,.0791,.12891,.11035,.01953-.00977,.03906-.02051,.05566-.0293,.2334-.12305,.62207-.33203,1.02148-.11035,.12598,.06934,2.5332,2.10742,2.58398,2.7002,.00488,.06934,.00781,.18262,.01172,.32129,.00586,.25391,.02344,1.02637,.11523,1.2002,.21094,.20312,.51367,.35547,.62207,.32031,.71582-.2041,2.04004,1.37402,2.05371,1.39062,.24707,.30078,.4541,.62305,.29785,.93555-.01758,.03516-2.72461,3.35449-3.43848,3.17578-.44336-.10938-1.80566-1.55273-2.02832-1.95605-.03223-.05957-.13281-.24121-.06348-.44922,.00684-.03125,.01855-.21191-.09668-.36523-.13477-.17969-.41699-.28516-.81543-.30371-.63867-.03027-.91895-.01172-1.03223,.00098L4.13644,20.61336c-.01855,.02637-.42383,.51855-1.14551,.5625-.03418,.00195-.06836,.00293-.10254,.00293Z"/><circle class="cls-1" cx="3.65827" cy="15.14769" r=".4182"/></g></g></svg>