<?xml version="1.0" encoding="UTF-8"?><svg id="Layer_2" xmlns="http://www.w3.org/2000/svg" viewBox="0 0 26.34134 25.01562"><defs><style>.cls-1{fill:#783cbe;}</style></defs><g id="Layer_1-2"><g><path class="cls-1" d="M24.70876,19.96387c-.06641-.91309-.8252-1.63672-1.75098-1.64746-.2002-.74805-.88379-1.30078-1.69434-1.30078-.50879,0-.99316,.22266-1.32812,.61133-.15332,.17773-.13281,.44629,.04492,.59961,.17578,.15039,.44531,.13281,.59961-.04492,.17285-.20117,.42188-.31641,.68359-.31641,.49805,0,.90332,.40527,.90137,.92285,0,.13184,.06152,.25684,.16602,.33691,.10547,.08008,.23926,.10645,.36816,.07422,.62305-.17188,1.16504,.30762,1.16504,.89551,0,.04102-.00391,.08105-.00879,.12012-.02539,.21094,.1084,.4082,.31348,.46289,.83203,.21875,1.38574,1.00195,1.31641,1.86133-.07227,.91211-.87793,1.62695-1.83301,1.62695h-5.13477c-.49805-.00586-.93555-.25586-1.20117-.6875-.27441-.44434-.30176-.98828-.07422-1.45508l1.21973-2.5c.44336-1.13184,.21387-2.39746-.59961-3.30469l-1.1001-1.22589c1.79688-4.61292,.77246-8.50934-.59766-11.15662-.00537-.02893-.00586-.05811-.01807-.08624-.02441-.05792-.06152-.10571-.10498-.14551C14.85964,1.41486,13.48708,.13892,13.45583,.11133c-.16211-.14844-.4082-.14844-.57031,0-.06299,.05658-1.44629,1.33893-2.63086,3.5509-.02148,.02802-.04541,.05371-.05957,.08777-.00586,.01306-.00439,.02673-.0083,.03998-.06006,.11481-.12256,.22021-.18115,.3399-.34375,.70117-.62891,1.42578-.84766,2.1543-.06738,.22461,.06055,.46191,.28516,.5293,.22559,.06543,.46094-.06152,.5293-.28516,.20508-.68359,.47266-1.36426,.79688-2.02344,.01123-.02277,.02295-.04309,.03418-.06567,.44189,.13025,1.24805,.30884,2.36719,.30884,1.10303,0,1.9043-.17401,2.3501-.30377,1.24951,2.51984,2.12598,6.16656,.35938,10.47729-.00049,.00128-.00195,.00195-.00244,.00323l-1.29492,3.20898c-.04297,.1084-.04004,.23047,.00879,.33691s.13965,.1875,.25098,.22559c.60156,.20117,.98535,.81738,.91309,1.46387-.02539,.2334,.14258,.44336,.37598,.46973,.2168,.01562,.44336-.1416,.46973-.37598,.09863-.88672-.34082-1.74023-1.0791-2.17676l.88867-2.20215,.81836,.91211c.59766,.66602,.7666,1.5957,.45508,2.39453l-1.20605,2.46875c-.35645,.73047-.31348,1.58008,.11426,2.27441,.41602,.6748,1.13184,1.08203,1.9502,1.09082h5.10938c1.39551,0,2.57324-1.05762,2.68066-2.4082,.09277-1.15527-.57617-2.21777-1.62402-2.64355ZM13.17067,3.89844c-.88477,0-1.54492-.12329-1.95264-.22809,.74561-1.29224,1.53906-2.21033,1.95264-2.64398,.40967,.4325,1.1958,1.35114,1.93994,2.64716-.40918,.10413-1.06494,.22491-1.93994,.22491Z"/><path class="cls-1" d="M15.25759,9.04785c0-1.15039-.93652-2.08691-2.08691-2.08691s-2.08691,.93652-2.08691,2.08691,.93652,2.08691,2.08691,2.08691,2.08691-.93652,2.08691-2.08691Zm-3.32422,0c0-.68262,.55469-1.2373,1.2373-1.2373s1.2373,.55469,1.2373,1.2373-.55469,1.2373-1.2373,1.2373-1.2373-.55469-1.2373-1.2373Z"/><path class="cls-1" d="M14.29079,18.95312h-.00781c-.23438,.00391-.4209,.19727-.41699,.43262,.01855,1.05273-.21484,2.35742-.69531,3.88867-.48047-1.53027-.71387-2.83496-.69629-3.88965,.00391-.23438-.18262-.42773-.41797-.43164-.19434,.00391-.42773,.18359-.43164,.41797-.02441,1.41797,.36133,3.22363,1.14648,5.36621,.06152,.16699,.2207,.27832,.39941,.27832s.33789-.11133,.39941-.27832c.78516-2.14355,1.1709-3.94922,1.14551-5.36719-.00391-.23145-.19336-.41699-.4248-.41699Z"/><path class="cls-1" d="M11.74977,18.46973c.04883-.10645,.05176-.22852,.00879-.33691l-1.29492-3.20801c0-.00043-.00049-.00067-.00098-.0011v-.00085c-.69336-1.68945-1.01758-3.33105-.99316-5.02051,.00391-.23438-.18359-.42773-.41895-.43066-.25098,.02441-.42773,.18359-.43066,.41895-.0249,1.71918,.29834,3.38983,.96387,5.09747l-1.10449,1.23065c-.81348,.90723-1.04297,2.17285-.58594,3.33594l1.20605,2.46875c.22754,.4668,.2002,1.01074-.07422,1.45508-.26562,.43164-.70312,.68164-1.22656,.6875H2.68923c-.95508,0-1.76074-.71484-1.83301-1.62695-.06934-.85938,.48438-1.64258,1.31641-1.86133,.20508-.05469,.33887-.25195,.31348-.46289-.00488-.03906-.00879-.0791-.00879-.12012,0-.58789,.54004-1.06738,1.16504-.89551,.12891,.03027,.2627-.00391,.36719-.08398s.16504-.21484,.16504-.34668c0-.49805,.40527-.90332,.90332-.90332,.26172,0,.51074,.11523,.68359,.31641,.15332,.17773,.41992,.19727,.59961,.04492,.17773-.15234,.19824-.4209,.04492-.59961-.33398-.38867-.81836-.61133-1.32812-.61133-.80664,0-1.4873,.54688-1.68945,1.30078-.92871,.00879-1.68945,.7334-1.75586,1.64746-1.04785,.42578-1.7168,1.48828-1.62402,2.64355,.10742,1.35059,1.28516,2.4082,2.68066,2.4082H7.83376c.7832-.00879,1.49902-.41602,1.91504-1.09082,.42773-.69434,.4707-1.54395,.11426-2.27441l-1.19238-2.4375c-.3252-.83008-.15625-1.75977,.44141-2.42578l.81836-.91211,.88867,2.20215c-.73828,.43652-1.17773,1.29004-1.0791,2.17676,.02637,.23438,.24902,.3916,.46973,.37598,.2334-.02637,.40137-.23633,.37598-.46973-.07227-.64648,.31152-1.2627,.91406-1.46582,.11035-.03711,.20117-.11816,.25-.22461Z"/><circle class="cls-1" cx="9.14528" cy="8.12885" r=".44632"/></g></g></svg>