<?xml version="1.0" encoding="UTF-8"?><svg id="Layer_2" xmlns="http://www.w3.org/2000/svg" viewBox="0 0 27.0569 27.05831"><defs><style>.cls-1{fill:#783cbe;}</style></defs><g id="Layer_1-2"><g><path class="cls-1" d="M27.02539,3.15206c-.06445-.1582-.21875-.2627-.38965-.26367l-1.84814-.01703,.32764-.3277c.16602-.16602,.16602-.43555,0-.60156s-.43555-.16602-.60156,0l-.32764,.3277-.01709-1.84821c-.00098-.1709-.10547-.3252-.26367-.38965-.15918-.06543-.3418-.02832-.46191,.09277l-3.75,3.75c-.08008,.08105-.125,.19043-.12402,.30469l.02393,2.68323-.82275,.82269c-.00732-.00787-.01074-.01801-.01855-.02545-2.07129-1.90918-4.76074-2.96094-7.57324-2.96094C5.01465,4.69894,0,9.71358,0,15.87862s5.01465,11.17969,11.17871,11.17969c6.16504,0,11.17969-5.01465,11.17969-11.17969,0-1.70117-.37305-3.33398-1.1084-4.85449-.10254-.21094-.35938-.2959-.56836-.19727-.21094,.10254-.29883,.35645-.19727,.56836,.67969,1.40332,1.02441,2.91211,1.02441,4.4834,0,5.69629-4.63379,10.33008-10.33008,10.33008C5.4834,26.2087,.84961,21.57491,.84961,15.87862S5.4834,5.54854,11.17871,5.54854c2.59766,0,5.08154,.97095,6.99463,2.73407l-1.44141,1.44128c-1.46191-1.31879-3.39014-2.12946-5.50928-2.12946-4.54395,0-8.24121,3.69629-8.24121,8.24023s3.69727,8.24023,8.24121,8.24023,8.24121-3.69629,8.24121-8.24023c0-2.11926-.81104-4.04779-2.13037-5.50928l2.86133-2.86121,2.68311,.0238h.00391c.1123,0,.2207-.04492,.30078-.12402l3.75-3.75c.12109-.12109,.15723-.30273,.09277-.46191Zm-3.69727-1.70996l.01562,1.66992-2.9082,2.9082-.01465-1.66992,2.90723-2.9082Zm-4.71387,14.39258c0,4.0752-3.31641,7.39062-7.3916,7.39062s-7.3916-3.31543-7.3916-7.39062,3.31641-7.39062,7.3916-7.39062c1.88477,0,3.60156,.71503,4.90869,1.88043l-1.43604,1.43616c-.93994-.802-2.14307-1.30487-3.47266-1.30487-2.9668,0-5.37988,2.41309-5.37988,5.37891s2.41309,5.37891,5.37988,5.37891,5.37988-2.41309,5.37988-5.37891c0-1.32971-.50293-2.53271-1.30566-3.4726l1.43604-1.4361c1.16602,1.30695,1.88135,3.0238,1.88135,4.90869Zm-5.72266,0c0,.91992-.74902,1.66895-1.66895,1.66895s-1.66797-.74902-1.66797-1.66895,.74805-1.66895,1.66797-1.66895c.30566,0,.58838,.08856,.83496,.23254l-1.13574,1.13562c-.16602,.16602-.16602,.43555,0,.60156,.08301,.08301,.19238,.12402,.30078,.12402s.21777-.04102,.30078-.12402l1.13574-1.13562c.14404,.24658,.23242,.52942,.23242,.83484Zm-.21826-2.05206c-.41113-.29138-.90967-.46649-1.45068-.46649-1.38867,0-2.51758,1.12988-2.51758,2.51855s1.12891,2.51855,2.51758,2.51855,2.51855-1.12988,2.51855-2.51855c0-.54095-.17529-1.03961-.46631-1.4505l1.42139-1.42151c.6499,.78418,1.05664,1.77661,1.05664,2.87201,0,2.49707-2.03223,4.5293-4.53027,4.5293s-4.53027-2.03223-4.53027-4.5293,2.03223-4.5293,4.53027-4.5293c1.09521,0,2.08789,.40649,2.87207,1.05585l-1.42139,1.42139Zm10.03369-7.14618l-1.66992-.01465,2.9082-2.9082,1.66992,.01562-2.9082,2.90723Z"/><path class="cls-1" d="M19.354,9.6014c0,.26788,.2168,.4845,.48438,.4845,.26807,0,.48486-.21661,.48486-.4845,0-.26782-.2168-.48444-.48486-.48444-.26758,0-.48438,.21661-.48438,.48444Z"/></g></g></svg>