<?xml version="1.0" encoding="UTF-8"?><svg id="Layer_2" xmlns="http://www.w3.org/2000/svg" viewBox="0 0 23.88672 24.9248"><defs><style>.cls-1{fill:#783cbe;}</style></defs><g id="Layer_1-2"><g><path class="cls-1" d="M11.99609,9.89258c-1.41895,0-2.57324,1.1543-2.57324,2.57422,0,1.41895,1.1543,2.57324,2.57324,2.57324,1.41992,0,2.57422-1.1543,2.57422-2.57324,0-1.41992-1.1543-2.57422-2.57422-2.57422Zm0,4.29785c-.9502,0-1.72363-.77344-1.72363-1.72363,0-.95117,.77344-1.72461,1.72363-1.72461,.95117,0,1.72461,.77344,1.72461,1.72461,0,.9502-.77344,1.72363-1.72461,1.72363Z"/><path class="cls-1" d="M23.88672,14.98535c0-1.06934-.86914-1.93848-1.93848-1.93848-.23633,0-.46045,.04865-.66992,.1264-.21387-.29559-.43018-.57135-.6499-.82794,2.25146-2.62726,2.88965-5.02991,1.76318-6.78772-1.0498-1.62366-3.1377-2.1095-6.0332-1.43848-.09961-.263-.20703-.52014-.32422-.77106,.37695-.35382,.61621-.85272,.61621-1.40961,0-1.06934-.87012-1.93848-1.93945-1.93848-.45312,0-.86523,.1626-1.19531,.42389-.48584-.24109-1.00488-.37018-1.55176-.37018-1.85352,0-3.35938,1.41241-4.38037,4.06372-2.78027-.64154-4.82129-.21802-5.90479,1.24976-.13965,.18848-.09961,.4541,.08984,.59375,.18848,.1416,.45508,.10059,.59375-.08984,1.05859-1.43536,3.18799-1.34314,4.94141-.95105-.40332,1.27826-.69482,2.7431-.86035,4.37878-.98145,.79114-1.84229,1.59418-2.57373,2.39276-.90576-1.07538-1.53125-2.09601-1.82764-3.03143-.07129-.22363-.31055-.34863-.53418-.27637-.22363,.07129-.34766,.31055-.27637,.53418,.33984,1.07043,1.0459,2.22021,2.07031,3.41827-.23975,.28223-.46045,.56439-.66309,.84637-.21777-.08484-.45264-.13574-.7002-.13574-1.06934,0-1.93848,.86914-1.93848,1.93848,0,.7475,.4292,1.38965,1.05029,1.71301-.11816,.85779,.01221,1.63947,.42041,2.32019,.67578,1.11523,1.94043,1.68555,3.66113,1.68555,.7041,0,1.49805-.11438,2.34668-.30731,1.02441,2.95734,2.53271,4.52802,4.39062,4.52802,.03516,0,.07031-.00098,.10547-.00195,1.86426-.04877,3.38428-1.62756,4.4209-4.54498,.89795,.21014,1.72949,.33405,2.45898,.33405,1.7041,0,2.93359-.57031,3.61426-1.69531,.41357-.68848,.54004-1.47778,.41113-2.34174,.59717-.33063,1.00684-.95953,1.00684-1.68951Zm-2.20996-8.96777c1.1709,1.82819-.37451,4.22656-1.61084,5.69159-.74121-.81207-1.60059-1.61768-2.56934-2.39929-.15479-1.61322-.44922-3.11078-.85205-4.38959,1.81494-.40631,4.00879-.4848,5.03223,1.09729Zm-5.84277,13.3443c-.91943-.26288-1.89209-.62616-2.90674-1.08789,1.23779-.66229,2.45752-1.42603,3.60547-2.25867-.16309,1.20709-.40039,2.33978-.69873,3.34656Zm-7.78662,.01868c-.29346-1.02161-.52441-2.16986-.6792-3.39117,1.16113,.8446,2.396,1.61707,3.65088,2.28473-1.03076,.46716-2.03662,.84149-2.97168,1.10645Zm2.98096-13.14795c-1.25732,.68713-2.48975,1.47858-3.64307,2.34076,.16748-1.27209,.4165-2.42303,.74219-3.44135,.90332,.25519,1.87402,.62286,2.90088,1.10059Zm-3.78271,8.61292c-.13867-1.70154-.13525-3.45624,.00928-5.1051,1.45361-1.15247,3.07373-2.20007,4.71045-3.04932,1.64551,.84967,3.26709,1.89935,4.71875,3.05768,.14307,1.65735,.13623,3.41455-.01904,5.11267-1.45947,1.11957-3.07178,2.13556-4.69092,2.95636-1.6333-.82349-3.25977-1.84381-4.72852-2.97229ZM15.82031,5.13135c.32471,1.01794,.57471,2.18671,.73779,3.45172-1.1543-.86755-2.39111-1.66217-3.65576-2.35083,1.02539-.47668,2.00146-.8443,2.91797-1.10089Zm1.76514,5.35638c.70752,.60889,1.34229,1.22864,1.9082,1.85443-.57568,.61096-1.21631,1.21454-1.92383,1.80298,.0791-1.22162,.08447-2.45605,.01562-3.65741ZM14.71094,.84961c.60059,0,1.08984,.48828,1.08984,1.08887s-.48926,1.08887-1.08984,1.08887-1.08887-.48828-1.08887-1.08887,.48828-1.08887,1.08887-1.08887Zm-2.74707,.05371c.34814,0,.67725,.08929,.99463,.2193-.11621,.24884-.18604,.52344-.18604,.81586,0,1.06934,.86914,1.93848,1.93848,1.93848,.20459,0,.39795-.04047,.58301-.09937,.0835,.18085,.16016,.36591,.2334,.55426-1.11328,.31689-2.30615,.78491-3.56299,1.40552-1.26318-.62396-2.45459-1.09344-3.55713-1.40851,.64941-1.65179,1.75977-3.42554,3.55664-3.42554ZM6.35156,10.47833c-.07129,1.19513-.07227,2.42523-.00391,3.64575-.70117-.58215-1.33789-1.18207-1.91211-1.79144,.55957-.61761,1.19678-1.23792,1.91602-1.85431ZM1.93848,13.89648c.60059,0,1.08887,.48828,1.08887,1.08887s-.48828,1.08887-1.08887,1.08887-1.08887-.48828-1.08887-1.08887,.48828-1.08887,1.08887-1.08887Zm.25977,4.68262c-.28857-.4812-.39062-1.04126-.32422-1.6618,.02197,.00073,.04248,.00653,.06445,.00653,1.06934,0,1.93848-.86914,1.93848-1.93848,0-.51489-.20508-.98041-.5332-1.32782,.16553-.229,.34473-.45898,.53809-.69043,.75293,.7934,1.59766,1.57019,2.54883,2.31049,.15234,1.55762,.42627,3.03021,.79395,4.31683-1.61719,.3634-4.05469,.58551-5.02637-1.01532Zm9.75195,5.49414c-.02441,.00098-.04883,.00098-.07324,.00098-1.87207,0-3.00635-2.26434-3.57812-3.88135,1.15332-.32922,2.40723-.81335,3.67578-1.42615,1.26025,.61047,2.4668,1.07916,3.60107,1.40479-.58057,1.59888-1.73047,3.85156-3.62549,3.90173Zm9.79102-5.49512c-.93994,1.55084-3.19873,1.43188-5.08545,.99835,.37451-1.26965,.65674-2.72443,.81885-4.26471,.96191-.75104,1.8252-1.53198,2.58154-2.32751,.1709,.20416,.34033,.42133,.50635,.6496-.34082,.34949-.55273,.82556-.55273,1.3515,0,1.06934,.86914,1.93848,1.93848,1.93848,.03809,0,.07373-.00903,.11133-.01123,.07129,.62042-.02832,1.18201-.31836,1.66553Zm.20703-2.50391c-.60059,0-1.08887-.48828-1.08887-1.08887s.48828-1.08887,1.08887-1.08887,1.08887,.48828,1.08887,1.08887-.48828,1.08887-1.08887,1.08887Z"/><circle class="cls-1" cx="1.46973" cy="7.17944" r=".44632"/></g></g></svg>