<?xml version="1.0" encoding="UTF-8"?><svg id="Layer_2" xmlns="http://www.w3.org/2000/svg" viewBox="0 0 20.63477 21.78223"><defs><style>.cls-1{fill:#783cbe;}</style></defs><g id="Layer_1-2"><g><path class="cls-1" d="M20.62988,8.9668c0-.16406-.09473-.31348-.24219-.38379l-3.22607-1.53314,3.23096-1.53717c.14844-.07031,.24219-.21973,.24219-.38379s-.09375-.31348-.24219-.38379L10.50293,.04102c-.11523-.05469-.25-.05469-.36523,0L.24805,4.74512c-.14844,.07031-.24219,.21973-.24219,.38379s.09375,.31348,.24219,.38379l3.22656,1.53516L.25293,8.58301c-.14844,.07031-.24219,.21973-.24219,.38379s.09375,.31348,.24219,.38379l3.22314,1.5365L.25293,12.42285c-.14844,.07031-.24219,.21973-.24219,.38379s.09375,.31348,.24219,.38379l3.22217,1.53607L.24219,16.26367c-.14844,.07031-.24219,.21973-.24219,.38379s.09375,.31348,.24219,.38379l9.89062,4.70996c.05762,.02734,.12012,.04102,.18262,.04102s.125-.01367,.18262-.04102l3.37988-1.61035c.21191-.10059,.30176-.35449,.20117-.56641-.10059-.21289-.35547-.30078-.56641-.20117l-3.19727,1.52344L1.41406,16.64746l3.0498-1.44971,5.66895,2.70264c.05762,.02734,.12012,.04102,.18262,.04102s.125-.01367,.18262-.04102l5.67139-2.70105,3.04639,1.44812-2.52637,1.20703c-.21094,.10254-.29883,.35742-.19727,.56836,.07422,.15137,.22559,.23926,.38281,.23926,.0625,0,.12598-.01367,.18555-.04199l3.32715-1.58887c.14844-.07031,.24219-.21973,.24219-.38379s-.09473-.31348-.24219-.38379l-3.229-1.53534,3.229-1.5379c.14844-.07031,.24219-.21973,.24219-.38379s-.09473-.31348-.24219-.38379l-3.229-1.53448,3.229-1.53778c.14844-.07031,.24219-.21973,.24219-.38379ZM10.32031,.89551l8.90039,4.2334-3.18213,1.51392c-.02295,.0072-.04297,.01965-.06445,.0307l-5.65381,2.68976L1.41992,5.12891,10.32031,.89551Zm8.89551,11.91113l-3.18652,1.51782c-.00879,.00293-.01611,.00824-.0249,.01178l-5.68896,2.70966L1.42383,12.80664l3.04004-1.44861,5.66895,2.70251c.05762,.02734,.12012,.04102,.18262,.04102s.125-.01367,.18262-.04102l5.67139-2.70111,3.04639,1.4472Zm-3.18506-2.32281c-.0127,.00427-.02393,.01178-.03613,.01727l-5.6792,2.70496L1.42383,8.9668l3.04004-1.44855,5.67383,2.69952c.05762,.02734,.12012,.04102,.18262,.04102s.125-.01367,.18262-.04102l5.66895-2.69708,3.04395,1.44611-3.18506,1.51703Z"/><path class="cls-1" d="M15.31299,18.59186c-.24707,0-.44629,.19952-.44629,.44635s.19922,.44641,.44629,.44641c.24658,0,.44629-.19958,.44629-.44641s-.19971-.44635-.44629-.44635Z"/></g></g></svg>