<?xml version="1.0" encoding="UTF-8"?><svg id="Layer_2" xmlns="http://www.w3.org/2000/svg" viewBox="0 0 24.88965 24.89062"><defs><style>.cls-1{fill:#783cbe;}</style></defs><g id="Layer_1-2"><g><path class="cls-1" d="M22.82715,10.38184c-.99219,0-1.82178,.70416-2.01855,1.63867h-2.83105c-.09229-1.21173-.57324-2.31458-1.32031-3.18536l2.00195-2.00226c.34131,.22241,.73389,.33411,1.12695,.33411,.52832,0,1.05664-.20117,1.45898-.60254,.38965-.39062,.60449-.90918,.60449-1.45996s-.21484-1.06934-.60449-1.45801v-.00098h-.00098c-.77734-.7793-2.13672-.7793-2.91797,0-.70068,.70142-.78955,1.78522-.26807,2.58551l-2.00244,2.00256c-.87109-.7475-1.97363-1.22809-3.18555-1.32043v-2.83118c.93457-.19659,1.63867-1.02649,1.63867-2.01849,0-1.1377-.92578-2.06348-2.06348-2.06348s-2.06348,.92578-2.06348,2.06348c0,.992,.7041,1.8219,1.63867,2.01849v3.23444c0,.23438,.19043,.4248,.4248,.4248,2.59375,0,4.7041,2.11035,4.7041,4.7041,0,2.59473-2.11035,4.70508-4.7041,4.70508-2.59473,0-4.70508-2.11035-4.70508-4.70508,0-1.25586,.48926-2.4375,1.37891-3.32617,.16602-.16602,.16602-.43555,0-.60156-.00098-.00085-.00195-.0011-.00293-.00195l-2.28418-2.28436c.521-.79974,.43213-1.88409-.26855-2.58575-.6416-.6416-1.64648-.78613-2.44238-.35547-.17676,.0957-.33691,.21582-.47656,.35547-.80371,.80469-.80371,2.11328,0,2.91895,.40234,.40234,.93066,.60352,1.45898,.60352,.39355,0,.78613-.11212,1.12744-.33459l2.01514,2.01501c-.77002,.89752-1.22412,1.99353-1.31396,3.17212h-2.8501c-.19678-.93451-1.02637-1.63867-2.01855-1.63867-1.1377,0-2.06348,.92578-2.06348,2.06348s.92578,2.06348,2.06348,2.06348c.99219,0,1.82178-.70416,2.01855-1.63867h2.83008c.09229,1.21161,.57324,2.31451,1.32031,3.18542l-2.00195,2.00275c-.79883-.52106-1.88379-.43341-2.58594,.26886-.80469,.80469-.80469,2.11426,0,2.91895,.40234,.40234,.93066,.60352,1.45898,.60352,.5293,0,1.05762-.20117,1.45996-.60352,.70166-.70154,.79053-1.78638,.26904-2.58636l2.00146-2.00262c.87109,.74799,1.97461,1.22894,3.18652,1.32135v2.8302c-.93457,.19659-1.63867,1.02649-1.63867,2.01849,0,1.1377,.92578,2.06348,2.06348,2.06348s2.06348-.92578,2.06348-2.06348c0-.992-.7041-1.8219-1.63867-2.01849v-2.8302c1.21191-.09235,2.31445-.57312,3.18506-1.32068l2.00195,2.00201c-.52148,.79993-.43213,1.88477,.27002,2.5863,.40234,.40234,.93066,.60254,1.45898,.60254s1.05664-.20117,1.45801-.60254h.00098c.38965-.38965,.60449-.9082,.60449-1.45996,0-.55078-.21484-1.06934-.60449-1.45898-.70166-.69983-1.78467-.78864-2.58545-.26825l-2.00293-2.00269c.74756-.87097,1.22852-1.97418,1.3208-3.1861h2.83105c.19678,.93451,1.02637,1.63867,2.01855,1.63867,1.1377,0,2.0625-.92578,2.0625-2.06348s-.9248-2.06348-2.0625-2.06348Zm-3.89941-6.13477c.22949-.22949,.53418-.35645,.8584-.35645s.62793,.12695,.85742,.35645,.35645,.5332,.35645,.85742-.12695,.62891-.35645,.8584c-.47217,.47229-1.24219,.47131-1.71484,.00171-.00049-.00049-.00049-.00122-.00098-.00171-.00049-.00037-.00098-.00043-.00098-.00079-.47119-.47485-.47119-1.24286,.00098-1.71503Zm-7.69629-2.18359c0-.66895,.54492-1.21387,1.21387-1.21387s1.21387,.54492,1.21387,1.21387-.54492,1.21387-1.21387,1.21387-1.21387-.54492-1.21387-1.21387Zm-6.98535,3.90039c-.47266-.47461-.47266-1.24414,.00098-1.71875,.08105-.08203,.1748-.15137,.2793-.20801,.17969-.09766,.37695-.14453,.57422-.14453,.31543,0,.62891,.12207,.86133,.35449,.47266,.47266,.47266,1.24219,0,1.71582s-1.24316,.47461-1.71582,.00098Zm-2.18262,7.69531c-.66895,0-1.21387-.54492-1.21387-1.21387s.54492-1.21387,1.21387-1.21387,1.21387,.54492,1.21387,1.21387-.54492,1.21387-1.21387,1.21387Zm3.89844,6.98535c-.47266,.47559-1.24316,.47363-1.71582,0-.47363-.47266-.47363-1.24316,0-1.71582,.23633-.2373,.54688-.35547,.8584-.35547,.31055,0,.62109,.11816,.85742,.35547,.47363,.47266,.47363,1.24316,0,1.71582Zm7.69727,2.18262c0,.66895-.54492,1.21387-1.21387,1.21387s-1.21387-.54492-1.21387-1.21387,.54492-1.21387,1.21387-1.21387,1.21387,.54492,1.21387,1.21387Zm6.98438-3.89844c.22949,.22949,.35645,.53418,.35645,.85742,0,.32422-.12695,.62891-.35645,.8584-.47266,.47266-1.24316,.47266-1.71582,0-.47314-.47229-.47314-1.242-.00195-1.71466,.00098-.00049,.00146-.00067,.00195-.00116,.00049-.00037,.00049-.00079,.00098-.00116,.23682-.23535,.54639-.35333,.85742-.35333,.31055,0,.62109,.11816,.85742,.35449Zm2.18359-5.26953c-.66895,0-1.21387-.54492-1.21387-1.21387s.54492-1.21387,1.21387-1.21387,1.21289,.54492,1.21289,1.21387-.54395,1.21387-1.21289,1.21387Z"/><path class="cls-1" d="M10.34277,8.19183c.2417,.0141,.44873-.17041,.46289-.41205s-.17041-.44897-.41211-.46307c-.2417-.01404-.44873,.17041-.46289,.41205-.01416,.2417,.17041,.44897,.41211,.46307Z"/></g></g></svg>