<?xml version="1.0" encoding="UTF-8"?><svg id="Layer_2" xmlns="http://www.w3.org/2000/svg" viewBox="0 0 15.62669 25.03906"><defs><style>.cls-1{fill:#783cbe;}</style></defs><g id="Layer_1-2"><g><path class="cls-1" d="M8.61894,16.4873c-2.41797,0-4.40332-1.9502-4.43848-4.37598-.0166-1.18555,.42871-2.30664,1.25488-3.15625,.82617-.85059,1.93457-1.32812,3.12012-1.34473,.02148,0,.04297-.00098,.06543-.00098,1.02832,0,2.02832,.35938,2.82324,1.01465,.18066,.14941,.20703,.41797,.05762,.59863-.15039,.18262-.41895,.20703-.59863,.05762-.65625-.54102-1.49121-.81152-2.33594-.82031-.95801,.01367-1.85449,.39941-2.52246,1.08691s-1.02832,1.59375-1.01465,2.55273c.02832,1.96094,1.63379,3.53711,3.58887,3.53711h.05176c.85156-.0127,1.67188-.32812,2.31055-.88672,.17871-.15527,.44629-.13672,.59961,.03906,.15527,.17676,.1377,.44531-.03906,.59961-.79102,.69238-1.80566,1.08203-2.85938,1.09766-.02051,0-.04199,.00098-.06348,.00098Z"/><g><path class="cls-1" d="M8.13164,11.65234H3.61211c-.23438,0-.4248-.19043-.4248-.4248s.19043-.4248,.4248-.4248h4.51953c.23438,0,.4248,.19043,.4248,.4248s-.19043,.4248-.4248,.4248Z"/><path class="cls-1" d="M8.13164,13.31445H3.61211c-.23438,0-.4248-.19043-.4248-.4248s.19043-.4248,.4248-.4248h4.51953c.23438,0,.4248,.19043,.4248,.4248s-.19043,.4248-.4248,.4248Z"/></g><path class="cls-1" d="M1.91093,25.03906c-1.04199,0-1.88965-.84766-1.88965-1.88965V9.08105c0-.23438,.19043-.4248,.4248-.4248s.4248,.19043,.4248,.4248v14.06836c0,.57324,.4668,1.04004,1.04004,1.04004H13.79765c-.01562-.00781,.96484-.25781,.93945-.94238,.10059-1.1123-.02246-8.00781-.02344-8.07715V1.88965c0-.57324-.4668-1.04004-1.04004-1.04004H1.91093c-.57324,0-1.04004,.4668-1.04004,1.04004v3.70996c0,.23438-.19043,.4248-.4248,.4248s-.4248-.19043-.4248-.4248V1.88965C.02129,.84766,.86894,0,1.91093,0H13.67363c1.04199,0,1.88965,.84766,1.88965,1.88965V15.16211c.00488,.27832,.125,7.00488,.02148,8.10938,.04395,1.0752-1.04297,1.61621-1.69238,1.75781l-11.98145,.00977Z"/><path class="cls-1" d="M13.22343,20.81543H2.25371c-.23438,0-.4248-.19043-.4248-.4248s.19043-.4248,.4248-.4248H13.22343c.23438,0,.4248,.19043,.4248,.4248s-.19043,.4248-.4248,.4248Z"/><path class="cls-1" d="M13.22343,3.77148H2.25371c-.23438,0-.4248-.19043-.4248-.4248s.19043-.4248,.4248-.4248H13.22343c.23438,0,.4248,.19043,.4248,.4248s-.19043,.4248-.4248,.4248Z"/><path class="cls-1" d="M0,7.31565c0-.2468,.19956-.44636,.44638-.44636H.44638c.24682,0,.44638,.19956,.44638,.44636,0,.24684-.19956,.44639-.44638,.44639s-.44638-.19956-.44638-.44639"/></g></g></svg>