<?xml version="1.0" encoding="UTF-8"?><svg id="Layer_2" xmlns="http://www.w3.org/2000/svg" viewBox="0 0 25.52246 24.99414"><defs><style>.cls-1{fill:#783cbe;}</style></defs><g id="Layer_1-2"><g><g><path class="cls-1" d="M20.31641,15.52734c-2.58789,0-5.20703-.6875-5.20703-2.00195,.00098-2.62988,10.41406-2.63086,10.41309,0,0,1.31445-2.61914,2.00195-5.20605,2.00195Zm0-3.15527c-2.70312,0-4.35742,.74707-4.35742,1.15332s1.6543,1.15234,4.35742,1.15234c2.70215,0,4.35645-.74609,4.35645-1.15234s-1.6543-1.15332-4.35645-1.15332Z"/><path class="cls-1" d="M20.31641,18.68359c-2.58789,0-5.20703-.6875-5.20703-2.00293,0-.23438,.19043-.4248,.4248-.4248s.4248,.19043,.4248,.4248c0,.40625,1.6543,1.15332,4.35742,1.15332,2.70215,0,4.35645-.74707,4.35645-1.15332,0-.23438,.19043-.4248,.4248-.4248s.4248,.19043,.4248,.4248c0,1.31543-2.61914,2.00293-5.20605,2.00293Z"/><path class="cls-1" d="M20.31641,21.83887c-2.58789,0-5.20703-.6875-5.20703-2.00293,0-.23438,.19043-.4248,.4248-.4248s.4248,.19043,.4248,.4248c0,.40625,1.6543,1.15332,4.35742,1.15332,2.70215,0,4.35645-.74707,4.35645-1.15332,0-.23438,.19043-.4248,.4248-.4248s.4248,.19043,.4248,.4248c0,1.31543-2.61914,2.00293-5.20605,2.00293Z"/><path class="cls-1" d="M20.31641,24.99414c-2.58789,0-5.20703-.6875-5.20703-2.00293V13.52539c0-.23438,.19043-.4248,.4248-.4248s.4248,.19043,.4248,.4248v9.46582c0,.40625,1.6543,1.15332,4.35742,1.15332,2.70215,0,4.35645-.74707,4.35645-1.15332V13.52539c0-.23438,.19043-.4248,.4248-.4248s.4248,.19043,.4248,.4248v9.46582c0,1.31543-2.61914,2.00293-5.20605,2.00293Z"/></g><path class="cls-1" d="M12.89551,20.94043h-4.52441c-2.71875,0-4.92969-2.21094-4.92969-4.92969v-1.43555c0-.23438,.19043-.4248,.4248-.4248s.4248,.19043,.4248,.4248v1.43555c0,2.25,1.83008,4.08008,4.08008,4.08008h4.52441c.23438,0,.4248,.19043,.4248,.4248s-.19043,.4248-.4248,.4248Z"/><path class="cls-1" d="M20.55078,10.37207c-.23438,0-.4248-.19043-.4248-.4248v-1.95996c0-2.24902-1.83008-4.0791-4.0791-4.0791h-4.80859c-.23438,0-.4248-.19043-.4248-.4248s.19043-.4248,.4248-.4248h4.80859c2.71777,0,4.92871,2.21094,4.92871,4.92871v1.95996c0,.23438-.19043,.4248-.4248,.4248Z"/><circle class="cls-1" cx="9.3848" cy="3.55781" r=".47679"/><path class="cls-1" d="M6.90137,13.37598H.95898c-.5293,0-.95898-.42871-.95898-.95508V.95508C0,.42871,.42969,0,.95898,0H6.90137c.5293,0,.95996,.42871,.95996,.95508V12.4209c0,.52637-.43066,.95508-.95996,.95508ZM.84961,6.75195v5.66895c0,.05664,.0498,.10547,.10938,.10547H6.90137c.05957,0,.11035-.04883,.11035-.10547V.95508c0-.05566-.05176-.10547-.11035-.10547H.95898c-.05957,0-.10938,.04883-.10938,.10547V6.75195Z"/><path class="cls-1" d="M4.26465,11.77051h-.66895c-.23438,0-.4248-.19043-.4248-.4248s.19043-.4248,.4248-.4248h.66895c.23438,0,.4248,.19043,.4248,.4248s-.19043,.4248-.4248,.4248Z"/><path class="cls-1" d="M7.24023,2.60254H.42969C.19531,2.60254,.00488,2.41211,.00488,2.17773s.19043-.4248,.4248-.4248H7.24023c.23438,0,.4248,.19043,.4248,.4248s-.19043,.4248-.4248,.4248Z"/></g></g></svg>