<?xml version="1.0" encoding="UTF-8"?><svg id="Layer_2" xmlns="http://www.w3.org/2000/svg" viewBox="0 0 23.61328 25.03418"><defs><style>.cls-1{fill:#783cbe;}</style></defs><g id="Layer_1-2"><g><g><path class="cls-1" d="M7.09863,14.23535c-3.91602-.0127-7.09863-3.20508-7.09863-7.11816S3.18262,.01074,7.0957,0c1.50586,.00391,2.94141,.47168,4.1543,1.35156,.18945,.1377,.23145,.40332,.09375,.59375-.13867,.19141-.40234,.23145-.59375,.09375-1.06738-.77441-2.33105-1.18555-3.6543-1.18945C3.65234,.85938,.84961,3.6709,.84961,7.11719c0,3.44531,2.80273,6.25781,6.24805,6.26855,1.25195-.00488,2.45898-.37695,3.49121-1.07715,.19043-.13086,.45801-.08203,.58984,.11328,.13184,.19336,.08105,.45801-.11328,.58984-1.17188,.7959-2.54297,1.21875-3.9668,1.22363Z"/><path class="cls-1" d="M7.09668,14.22363c-.06934,0-.13867-.0166-.20117-.05078-2.32031-1.24609-4.00391-4.21387-4.00391-7.05566S4.5752,1.30859,6.89551,.0625c.125-.06836,.27734-.06836,.40234,0,2.32031,1.24707,4.00391,4.21387,4.00391,7.05469,0,2.8418-1.68359,5.80859-4.00391,7.05566-.0625,.03418-.13184,.05078-.20117,.05078ZM7.09668,.9248c-1.95605,1.16699-3.35547,3.72949-3.35547,6.19238,0,2.46387,1.39941,5.02539,3.35547,6.19336,1.95605-1.16797,3.35547-3.73047,3.35547-6.19336S9.05273,2.09277,7.09668,.9248Z"/><path class="cls-1" d="M10.87891,7.54199H.48047c-.23438,0-.4248-.19043-.4248-.4248s.19043-.4248,.4248-.4248H10.87891c.23438,0,.4248,.19043,.4248,.4248s-.19043,.4248-.4248,.4248Z"/><path class="cls-1" d="M7.09668,14.22363c-.23438,0-.4248-.19043-.4248-.4248V.4248c0-.23438,.19043-.4248,.4248-.4248s.4248,.19043,.4248,.4248V13.79883c0,.23438-.19043,.4248-.4248,.4248Z"/></g><g><path class="cls-1" d="M22.39648,25.03418H13.59277c-.6709,0-1.2168-.5459-1.2168-1.21777V5.39648c0-.6709,.5459-1.2168,1.2168-1.2168h8.80371c.6709,0,1.2168,.5459,1.2168,1.2168V23.81641c0,.67188-.5459,1.21777-1.2168,1.21777ZM13.59277,5.0293c-.20215,0-.36719,.16504-.36719,.36719V23.81641c0,.20312,.16504,.36816,.36719,.36816h8.80371c.20215,0,.36719-.16504,.36719-.36816V5.39648c0-.20215-.16504-.36719-.36719-.36719H13.59277Z"/><path class="cls-1" d="M17.99414,23.70703c-.75586,0-1.37012-.61523-1.37012-1.37109s.61426-1.37109,1.37012-1.37109,1.37109,.61523,1.37109,1.37109-.61523,1.37109-1.37109,1.37109Zm0-1.89258c-.28711,0-.52051,.23438-.52051,.52148s.2334,.52148,.52051,.52148,.52148-.23438,.52148-.52148-.23438-.52148-.52148-.52148Z"/><path class="cls-1" d="M23.06348,7.75684H13.07422c-.23438,0-.4248-.19043-.4248-.4248s.19043-.4248,.4248-.4248h9.98926c.23438,0,.4248,.19043,.4248,.4248s-.19043,.4248-.4248,.4248Z"/><path class="cls-1" d="M18.49023,6.38965h-.99121c-.23438,0-.4248-.19043-.4248-.4248s.19043-.4248,.4248-.4248h.99121c.23438,0,.4248,.19043,.4248,.4248s-.19043,.4248-.4248,.4248Z"/><path class="cls-1" d="M23.11035,20.65137H12.98242c-.23438,0-.4248-.19043-.4248-.4248s.19043-.4248,.4248-.4248h10.12793c.23438,0,.4248,.19043,.4248,.4248s-.19043,.4248-.4248,.4248Z"/></g><circle class="cls-1" cx="12.22273" cy="3.0778" r=".45528"/></g></g></svg>