<?xml version="1.0" encoding="UTF-8"?><svg id="Layer_2" xmlns="http://www.w3.org/2000/svg" viewBox="0 0 15.62684 25.03906"><defs><style>.cls-1{fill:#783cbe;}</style></defs><g id="Layer_1-2"><g><path class="cls-1" d="M15.56299,1.88965c0-1.04199-.84766-1.88965-1.88965-1.88965H1.91162C.86963,0,.02197,.84766,.02197,1.88965v3.28223c0,.23438,.19043,.4248,.4248,.4248s.4248-.19043,.4248-.4248V1.88965c0-.57324,.4668-1.04004,1.04004-1.04004H13.67334c.57324,0,1.04004,.4668,1.04004,1.04004V15.16992c.00098,.06934,.125,6.96484,.02344,8.07812,.02637,.68359-.95508,.93359-.93945,.94141H1.91162c-.57324,0-1.04004-.4668-1.04004-1.04004V8.7207c0-.23438-.19043-.4248-.4248-.4248s-.4248,.19043-.4248,.4248v14.42871c0,1.04199,.84766,1.88965,1.88965,1.88965l11.98047-.00977c.64941-.1416,1.7373-.68262,1.69238-1.75781,.10449-1.10352-.0166-7.83105-.02148-8.10938V1.88965Z"/><path class="cls-1" d="M2.25342,20.81543H13.22314c.23438,0,.4248-.19043,.4248-.4248s-.19043-.4248-.4248-.4248H2.25342c-.23438,0-.4248,.19043-.4248,.4248s.19043,.4248,.4248,.4248Z"/><path class="cls-1" d="M13.64795,3.34668c0-.23438-.19043-.4248-.4248-.4248H2.25342c-.23438,0-.4248,.19043-.4248,.4248s.19043,.4248,.4248,.4248H13.22314c.23438,0,.4248-.19043,.4248-.4248Z"/><path class="cls-1" d="M7.53027,8.06152c.00977,.00073,.01855,.00586,.02881,.00586s.01904-.00513,.02881-.00586c.72705,.01636,1.31592,.60693,1.31592,1.33789,0,.23438,.19043,.4248,.4248,.4248s.4248-.19043,.4248-.4248c0-1.06445-.76221-1.95203-1.76953-2.15039v-.60449c0-.23438-.19043-.4248-.4248-.4248s-.4248,.19043-.4248,.4248v.60449c-1.00684,.19836-1.76855,1.08594-1.76855,2.15039,0,1.49902,1.55176,2.00684,2.06152,2.17383,1.07617,.35156,1.47656,.7207,1.47656,1.36426,0,.74121-.60352,1.34473-1.34473,1.34473s-1.34375-.60352-1.34375-1.34473c0-.23438-.19043-.4248-.4248-.4248s-.4248,.19043-.4248,.4248c0,1.06445,.76172,1.95288,1.76855,2.15137v.61621c0,.23438,.19043,.4248,.4248,.4248s.4248-.19043,.4248-.4248v-.61621c1.00732-.19849,1.76953-1.08691,1.76953-2.15137,0-1.3291-1.10254-1.85938-2.0625-2.17285-1.30762-.42773-1.47559-.9541-1.47559-1.36523,0-.73096,.58789-1.32153,1.31494-1.33789Z"/><path class="cls-1" d="M.44678,7.36743c.24658,0,.44629-.19958,.44629-.44641s-.19971-.44641-.44629-.44641c-.24707,0-.44678,.19958-.44678,.44641s.19971,.44641,.44678,.44641Z"/></g></g></svg>