<?xml version="1.0" encoding="UTF-8"?><svg id="Layer_2" xmlns="http://www.w3.org/2000/svg" viewBox="0 0 15.62689 25.03906"><defs><style>.cls-1{fill:#783cbe;}</style></defs><g id="Layer_1-2"><g><path class="cls-1" d="M3.18848,12.88867c0,.23438,.19043,.4248,.4248,.4248h.77197c.55029,1.83264,2.23486,3.17383,4.23389,3.17383,.02148,0,.04297-.00098,.06348-.00098,1.05371-.01562,2.06836-.40527,2.85938-1.09766,.17676-.1543,.19434-.42285,.03906-.59961-.15332-.17578-.4209-.19434-.59961-.03906-.63867,.55859-1.45898,.87402-2.31055,.88672-1.52148,.026-2.86279-.95056-3.39209-2.32324h2.85303c.23438,0,.4248-.19043,.4248-.4248s-.19043-.4248-.4248-.4248h-3.05859c-.01465-.12146-.04102-.23938-.04297-.36426-.00195-.15173,.021-.29883,.03711-.44727h3.06445c.23438,0,.4248-.19043,.4248-.4248s-.19043-.4248-.4248-.4248h-2.87305c.1709-.46289,.43213-.89136,.78613-1.25586,.66797-.6875,1.56445-1.07324,2.52246-1.08691,.875,.00781,1.67969,.2793,2.33594,.82031,.18164,.14941,.45117,.12402,.59863-.05762,.14941-.18066,.12305-.44922-.05762-.59863-.8125-.66895-1.85449-1.02344-2.88867-1.01367-1.18555,.0166-2.29395,.49414-3.12012,1.34473-.51172,.526-.85693,1.16272-1.05713,1.84766h-.76514c-.23438,0-.4248,.19043-.4248,.4248s.19043,.4248,.4248,.4248h.60547c-.01318,.15295-.04004,.30322-.03809,.45898,.00195,.12085,.0293,.23425,.04053,.35254h-.60791c-.23438,0-.4248,.19043-.4248,.4248Z"/><path class="cls-1" d="M15.56348,1.88965c0-1.04199-.84766-1.88965-1.88965-1.88965H1.91113C.86914,0,.02148,.84766,.02148,1.88965v3.28223c0,.23438,.19043,.4248,.4248,.4248s.4248-.19043,.4248-.4248V1.88965c0-.57324,.4668-1.04004,1.04004-1.04004H13.67383c.57324,0,1.04004,.4668,1.04004,1.04004V15.16992c.00098,.06934,.12402,6.96484,.02344,8.07715,.02539,.68457-.95508,.93457-.93945,.94238H1.91113c-.57324,0-1.04004-.4668-1.04004-1.04004V8.68359c0-.23438-.19043-.4248-.4248-.4248s-.4248,.19043-.4248,.4248v14.46582c0,1.04199,.84766,1.88965,1.88965,1.88965l11.98145-.00977c.64941-.1416,1.73633-.68262,1.69238-1.75781,.10352-1.10449-.0166-7.83105-.02148-8.10938V1.88965Z"/><path class="cls-1" d="M2.25391,20.81543H13.22363c.23438,0,.4248-.19043,.4248-.4248s-.19043-.4248-.4248-.4248H2.25391c-.23438,0-.4248,.19043-.4248,.4248s.19043,.4248,.4248,.4248Z"/><path class="cls-1" d="M13.64844,3.34668c0-.23438-.19043-.4248-.4248-.4248H2.25391c-.23438,0-.4248,.19043-.4248,.4248s.19043,.4248,.4248,.4248H13.22363c.23438,0,.4248-.19043,.4248-.4248Z"/><path class="cls-1" d="M.44678,7.36743c.24658,0,.44629-.19958,.44629-.44641s-.19971-.44641-.44629-.44641c-.24707,0-.44678,.19958-.44678,.44641s.19971,.44641,.44678,.44641Z"/></g></g></svg>