<?xml version="1.0" encoding="UTF-8"?><svg id="Layer_2" xmlns="http://www.w3.org/2000/svg" viewBox="0 0 28.69557 29.37526"><defs><style>.cls-1{fill:#783cbe;}</style></defs><g id="Layer_1-2"><g><path class="cls-1" d="M28.27441,2.97877l-1.93164-.01727,.35645-.36456c.16406-.16797,.16113-.43652-.00684-.60059-.16504-.16406-.43555-.16113-.60059,.00684l-.35742,.36597-.01758-1.948c-.00098-.1709-.10547-.32422-.26367-.38965-.15918-.06445-.3418-.02832-.46191,.09277l-3.86816,3.86816c-.08008,.08105-.125,.19043-.12402,.30469l.02588,2.89154-.97852,1.00134c-1.97754-1.71796-4.4585-2.6969-7.06885-2.7923v-.71387c0-.23438-.19043-.4248-.4248-.4248s-.4248,.19043-.4248,.4248v.71613c-5.96533,.22369-10.7666,5.02698-10.9873,10.99286H.4248c-.23438,0-.4248,.19043-.4248,.4248s.19043,.4248,.4248,.4248h.71582c.2207,5.96588,5.02197,10.76819,10.9873,10.99188v.71613c0,.23438,.19043,.4248,.4248,.4248s.4248-.19043,.4248-.4248v-.71558c5.9707-.21777,10.77734-5.02264,10.99805-10.99243h.71582c.23438,0,.4248-.19043,.4248-.4248s-.19043-.4248-.4248-.4248h-.71777c-.05664-1.56171-.41016-3.07031-1.0957-4.50879l-.39062,.16797-.3623,.22852c.61768,1.29547,.94287,2.67871,.99902,4.1123h-.37988c-.23438,0-.4248,.19043-.4248,.4248s.19043,.4248,.4248,.4248h.38184c-.21973,5.50104-4.64648,9.92603-10.14844,10.14282v-.38208c0-.23438-.19043-.4248-.4248-.4248s-.4248,.19043-.4248,.4248v.38153c-5.49658-.22272-9.91797-4.64514-10.1377-10.14227h.38184c.23438,0,.4248-.19043,.4248-.4248s-.19043-.4248-.4248-.4248h-.38184c.21973-5.49725,4.64111-9.92047,10.1377-10.14319v.38147c0,.23438,.19043,.4248,.4248,.4248s.4248-.19043,.4248-.4248v-.38373c2.3877,.0943,4.65771,.98785,6.47363,2.55164l-1.47021,1.50494c-1.52393-1.27087-3.43066-1.97363-5.42236-1.97363-4.67969,0-8.4873,3.80762-8.4873,8.4873s3.80762,8.4873,8.4873,8.4873,8.4873-3.80762,8.4873-8.4873c0-1.73633-.52344-3.40723-1.51367-4.83203-.13281-.19434-.40137-.24121-.59082-.10645-.19336,.13379-.24121,.39844-.10645,.59082,.89062,1.28223,1.36133,2.78516,1.36133,4.34766,0,4.21094-3.42676,7.6377-7.6377,7.6377s-7.6377-3.42676-7.6377-7.6377,3.42676-7.6377,7.6377-7.6377c1.91504,0,3.74805,.71484,5.16211,2.01367,.17285,.15723,.44141,.14844,.60059-.02637,.00977-.0108,.01318-.0246,.02148-.03613,.0166-.01245,.03613-.01904,.05078-.03418l3.3457-3.42407,2.65918,.02466h.00391c.1123,0,.2207-.04492,.30078-.12402l3.86816-3.86914c.12109-.12109,.15723-.30371,.09277-.46191-.06543-.1582-.21875-.2627-.38965-.26367Zm-6.42383,1.48926l3.02539-3.02637,.01562,1.76074-3.02539,3.02539-.01562-1.75977Zm2.37695,2.37793l-1.66504-.01569,2.95703-3.02606,1.73438,.01538-3.02637,3.02637Z"/><path class="cls-1" d="M12.49512,16.7737c1.60547,0,2.91113-1.30566,2.91113-2.91113s-1.30566-2.91211-2.91113-2.91211-2.91211,1.30664-2.91211,2.91211,1.30664,2.91113,2.91211,2.91113Zm0-4.97363c1.13672,0,2.06152,.92578,2.06152,2.0625s-.9248,2.06152-2.06152,2.06152-2.0625-.9248-2.0625-2.06152,.92578-2.0625,2.0625-2.0625Z"/><path class="cls-1" d="M16.62207,21.98268c.23438,0,.4248-.19043,.4248-.4248v-1.86719c0-1.34375-.95312-2.52148-2.26758-2.80078-.12305-.02344-.24707,.00195-.34473,.07715-1.14453,.87109-2.7334,.86914-3.87988,0-.09668-.0752-.22461-.10059-.34473-.07715-1.31445,.2793-2.26758,1.45703-2.26758,2.80078v1.86719c0,.23438,.19043,.4248,.4248,.4248s.4248-.19043,.4248-.4248v-1.86719c0-.88379,.58691-1.66602,1.41895-1.92383,1.36914,.9375,3.2002,.9375,4.56738,0,.83203,.25781,1.41895,1.04004,1.41895,1.92383v1.86719c0,.23438,.19043,.4248,.4248,.4248Z"/><path class="cls-1" d="M21.07617,10.56856c0,.24683,.19922,.44641,.44629,.44641s.44629-.19958,.44629-.44641c0-.24677-.19922-.44635-.44629-.44635s-.44629,.19958-.44629,.44635Z"/></g></g></svg>