<?xml version="1.0" encoding="UTF-8"?><svg id="Layer_2" xmlns="http://www.w3.org/2000/svg" viewBox="0 0 28.34668 20.8623"><defs><style>.cls-1{fill:#783cbe;}</style></defs><g id="Layer_1-2"><g><path class="cls-1" d="M16.25977,17.14258H1.93164c-.59668,0-1.08203-.48535-1.08203-1.08203v-7.90918H18.91016c.23438,0,.4248-.19043,.4248-.4248s-.19043-.4248-.4248-.4248H.84961v-2.64258h3.16992c.23438,0,.4248-.19043,.4248-.4248s-.19043-.4248-.4248-.4248H.84961V1.93262c0-.59668,.48535-1.08301,1.08203-1.08301H23.99609c.59668,0,1.08301,.48633,1.08301,1.08301v1.87695H7.5498c-.23438,0-.4248,.19043-.4248,.4248s.19043,.4248,.4248,.4248H25.07812v1.52344c0,.00171,.00098,.00311,.00098,.00482v.18756c0,.23438,.19043,.4248,.4248,.4248s.4248-.19043,.4248-.4248V1.93262c0-1.06543-.86719-1.93262-1.93262-1.93262H1.93164C.86621,0,0,.86719,0,1.93262v14.12793c0,1.06543,.86621,1.93164,1.93164,1.93164h14.32812c.23438,0,.4248-.19043,.4248-.4248s-.19043-.4248-.4248-.4248Z"/><path class="cls-1" d="M2.5127,10.43652c-.23438,0-.4248,.19043-.4248,.4248s.19043,.4248,.4248,.4248H10.58887c.23438,0,.4248-.19043,.4248-.4248s-.19043-.4248-.4248-.4248H2.5127Z"/><path class="cls-1" d="M26.79297,11.45087v-.77313c0-2.09668-1.70508-3.80273-3.80176-3.80273s-3.80176,1.70605-3.80176,3.80273v.77319c-.88037,.15131-1.55371,.9151-1.55371,1.83716v5.70508c0,1.03027,.83887,1.86914,1.87012,1.86914h6.97168c1.03027,0,1.86914-.83887,1.86914-1.86914v-5.70508c0-.92224-.67383-1.68616-1.55371-1.83722Zm-3.80176-3.72626c1.62793,0,2.95215,1.3252,2.95215,2.95312v.74121h-5.9043v-.74121c0-1.62793,1.32422-2.95312,2.95215-2.95312Zm4.50586,11.26855c0,.5625-.45703,1.01953-1.01953,1.01953h-6.97168c-.5625,0-1.02051-.45703-1.02051-1.01953v-5.70508c0-.5625,.45801-1.01953,1.02051-1.01953h6.97168c.5625,0,1.01953,.45703,1.01953,1.01953v5.70508Z"/><path class="cls-1" d="M22.99121,13.81934c-.94922,0-1.7207,.77148-1.7207,1.7207,0,.56738,.27246,1.08398,.72656,1.4043v.52441c0,.54785,.44629,.99316,.99414,.99316s.99414-.44531,.99414-.99316v-.52441c.4541-.32031,.72656-.83691,.72656-1.4043,0-.94922-.77148-1.7207-1.7207-1.7207Zm.38184,2.50195c-.14551,.07129-.2373,.21973-.2373,.38184v.76562c0,.15625-.28906,.15625-.28906,0v-.76562c0-.16211-.0918-.31055-.2373-.38184-.30176-.14746-.48926-.44727-.48926-.78125,0-.48047,.39062-.87109,.87109-.87109s.87109,.39062,.87109,.87109c0,.33398-.1875,.63379-.48926,.78125Z"/><path class="cls-1" d="M5.33984,4.23389c0,.24683,.19971,.44641,.44678,.44641,.24658,0,.44629-.19958,.44629-.44641,0-.24677-.19971-.44635-.44629-.44635-.24707,0-.44678,.19958-.44678,.44635Z"/></g></g></svg>