<?xml version="1.0" encoding="UTF-8"?><svg id="Layer_2" xmlns="http://www.w3.org/2000/svg" viewBox="0 0 23.08301 27.44629"><defs><style>.cls-1{fill:#783cbe;}</style></defs><g id="Layer_1-2"><g><path class="cls-1" d="M22.63574,19.12988c-.23438,0-.4248,.19043-.4248,.4248v6.58905l-7.73486-6.10931,7.73486-6.10901v2.10193c0,.23438,.19043,.4248,.4248,.4248s.4248-.19043,.4248-.4248v-2.98145c0-.00781-.00391-.01434-.00439-.02209-.00098-.01819-.00342-.03522-.00684-.0531-.00391-.0224-.00928-.04346-.01709-.06525-.00537-.0152-.01074-.02942-.01758-.04376-.00732-.01471-.0166-.02759-.02539-.0415-.00732-.0119-.00977-.0257-.01855-.03699-.00586-.00769-.01514-.01111-.02148-.01825-.01172-.0127-.02344-.0235-.03613-.03473-.00537-.00488-.00781-.01172-.01367-.01636l-2.82324-2.22736V.4248c0-.23438-.19043-.4248-.4248-.4248H3.40918c-.23438,0-.4248,.19043-.4248,.4248V10.48193L.16211,12.71387c-.00537,.00421-.00732,.01044-.0127,.01483-.01562,.01379-.0293,.02814-.04297,.04413-.00439,.00458-.00977,.00653-.01367,.01135-.00684,.00891-.0083,.01984-.01465,.02911-.01025,.01532-.02197,.02911-.02979,.04547-.00928,.01831-.01562,.03705-.02197,.0567-.00537,.01666-.00879,.03271-.01221,.0498-.00342,.01788-.00732,.03479-.0083,.05292-.00098,.00964-.00586,.01788-.00586,.02771v13.97559c0,.01837,.0083,.034,.01074,.05176,.00342,.02985,.00732,.05835,.01758,.08716,.00879,.02618,.02246,.04871,.03613,.07227,.00977,.01715,.01367,.03644,.02637,.05249,.00586,.00745,.01465,.01068,.021,.01764,.01807,.02008,.03906,.03497,.06055,.05133,.02295,.01709,.04443,.03473,.06934,.04675,.02295,.01117,.04785,.01624,.07324,.02313,.02783,.00763,.05518,.01544,.08447,.01715,.00879,.00055,.0166,.00513,.02539,.00513H22.63574c.06201,0,.12012-.01495,.17383-.03906,.01562-.00696,.02734-.01965,.04199-.02856,.03662-.02228,.0708-.04639,.09863-.07819,.00586-.00629,.01416-.00861,.01953-.01532,.0127-.01599,.0166-.03516,.02637-.05225,.01367-.02368,.02734-.04633,.03662-.07263,.00977-.02875,.01367-.05719,.01709-.08691,.00244-.01782,.01074-.03351,.01074-.05188v-7.4668c0-.23438-.19043-.4248-.4248-.4248Zm-2.55957-7.55939l1.87256,1.47742-1.87256,1.47906v-2.95648ZM3.83398,.84961h15.39258V15.198l-5.43701,4.29419-1.99561-1.57617c-.1543-.12109-.37305-.12109-.52734,0l-1.99414,1.57501L3.83398,15.19629V.84961Zm-.84961,10.71539v2.96039l-1.87305-1.47913,1.87305-1.48126ZM.84961,13.92395l7.73633,6.10931L.84961,26.14374V13.92395Zm.7998,12.67273l9.88086-7.80469,9.88086,7.80469H1.64941Z"/><path class="cls-1" d="M22.63672,17.35083c-.24658,0-.44629,.19958-.44629,.44641s.19971,.44635,.44629,.44635c.24707,0,.44629-.19952,.44629-.44635s-.19922-.44641-.44629-.44641Z"/></g></g></svg>