<?xml version="1.0" encoding="UTF-8"?><svg id="Layer_2" xmlns="http://www.w3.org/2000/svg" viewBox="0 0 23.47852 27.5166"><defs><style>.cls-1{fill:#783cbe;}</style></defs><g id="Layer_1-2"><g><path class="cls-1" d="M23.46729,12.77618c-.00391-.02185-.00928-.04236-.01709-.0636-.00488-.01465-.00977-.02856-.0166-.04248-.0083-.01752-.01904-.03296-.02979-.04932-.00635-.00958-.00781-.02081-.01514-.02997-.00586-.00708-.01416-.01013-.02002-.01672-.01074-.01227-.02148-.02368-.03369-.03467-.00684-.00629-.01025-.01495-.01758-.02087l-7.37598-5.82422c-.18555-.14551-.45215-.11426-.59766,.07031s-.11328,.45215,.07031,.59766l6.95459,5.49158-8.3291,6.5766-2.0376-1.60919c-.1543-.12109-.37305-.12109-.52734,0l-2.03613,1.60822L1.11035,12.85352l6.95312-5.49121c.18359-.14551,.21582-.41309,.07031-.59766-.14746-.18457-.41406-.21582-.59766-.07031L.16113,12.51855c-.00732,.00592-.01074,.01465-.01758,.02094-.0127,.01135-.02344,.02338-.03467,.03619-.00537,.00598-.01318,.00879-.01807,.01514-.00635,.0083-.00781,.01849-.01367,.0271-.01172,.01733-.02344,.03363-.03223,.05231-.00732,.01471-.01172,.02979-.01709,.04541-.00684,.01892-.01172,.03717-.01562,.05658s-.00635,.0379-.00781,.05774c-.00049,.00793-.00439,.01459-.00439,.02258v14.23926c0,.01746,.00781,.03223,.00977,.04913,.00391,.03052,.00781,.05988,.01807,.08936,.00977,.0271,.02344,.05054,.03809,.07477,.00928,.01611,.01318,.0343,.0249,.04944,.00488,.00623,.0127,.0083,.01807,.01416,.03076,.03503,.06738,.06219,.10791,.08569,.01123,.00647,.02051,.01642,.03223,.02179,.0542,.02478,.11279,.04047,.17578,.04047H23.05371c.01025,0,.01855-.00513,.02832-.0058,.02441-.00165,.04639-.00842,.06934-.01404,.03125-.00751,.06104-.01416,.08887-.02802,.02051-.01007,.03809-.0249,.05713-.03833,.02539-.01849,.05029-.03619,.07129-.05981,.00537-.00635,.01367-.00934,.01904-.01611,.01172-.01508,.01562-.03314,.0249-.04919,.01465-.02435,.02832-.04791,.03809-.0752,.01025-.02942,.01416-.05859,.01807-.08899,.00195-.01691,.00977-.03186,.00977-.04932V12.85254c0-.008-.00391-.01471-.00439-.02264-.00098-.01837-.00342-.03558-.00684-.05371ZM.84961,13.73212l7.90234,6.23962L.84961,26.21307V13.73212Zm.79834,12.93488l10.09033-7.96973,10.09229,7.96973H1.64795Zm20.98096-.45386l-7.90234-6.24042,7.90234-6.23987v12.48029Z"/><path class="cls-1" d="M7.80078,5.44824h1.3291V14.98145c0,.23438,.19043,.4248,.4248,.4248s.4248-.19043,.4248-.4248V5.02344c0-.23438-.19043-.4248-.4248-.4248h-.83008l3.01562-3.52051,3.01465,3.52051h-.83008c-.23438,0-.4248,.19043-.4248,.4248v5.24219c0,.23438,.19043,.4248,.4248,.4248s.4248-.19043,.4248-.4248V5.44824h1.3291c.16602,0,.31641-.09668,.38574-.24707s.04492-.32812-.0625-.4541L12.06348,.14844c-.08105-.09473-.19922-.14844-.32324-.14844s-.24219,.05371-.32324,.14844l-3.93945,4.59863c-.10742,.12598-.13184,.30371-.0625,.4541s.21973,.24707,.38574,.24707Z"/><path class="cls-1" d="M13.9248,13.34375c-.23438,0-.4248,.19043-.4248,.4248v1.21289c0,.23438,.19043,.4248,.4248,.4248s.4248-.19043,.4248-.4248v-1.21289c0-.23438-.19043-.4248-.4248-.4248Z"/><path class="cls-1" d="M13.91455,11.55896c-.24707,0-.44678,.19952-.44678,.44635s.19971,.44635,.44678,.44635c.24658,0,.44629-.19952,.44629-.44635s-.19971-.44635-.44629-.44635Z"/></g></g></svg>