<?xml version="1.0" encoding="UTF-8"?><svg id="Layer_2" xmlns="http://www.w3.org/2000/svg" viewBox="0 0 28.33984 17.66309"><defs><style>.cls-1{fill:#783cbe;}</style></defs><g id="Layer_1-2"><g><path class="cls-1" d="M28.3125,.28845c-.00977-.02716-.02295-.05078-.03711-.07513-.00928-.01538-.01221-.03278-.02344-.0473-.00586-.00763-.01465-.01105-.021-.01819-.01904-.02197-.0415-.03894-.06494-.05658-.02197-.01648-.04248-.03308-.06641-.04486-.02197-.01074-.04541-.01617-.06934-.02307-.03027-.00891-.06006-.01672-.0918-.01855-.0083-.00049-.01514-.00476-.02344-.00476H.44629c-.00781,0-.01465,.00409-.02246,.00452-.03369,.00171-.06543,.01001-.09766,.01978-.02148,.00647-.04297,.01129-.0625,.02087-.02588,.01251-.04834,.03027-.07129,.04822-.02246,.01697-.04346,.0332-.06201,.05408-.00635,.00726-.01514,.01074-.021,.01855-.01123,.01459-.01416,.03198-.02344,.04749-.01416,.02423-.02734,.04773-.03662,.07477-.01025,.02954-.01514,.05878-.01807,.08936-.00195,.01624-.00977,.03046-.00977,.04718V8.4502c0,.23438,.19043,.4248,.4248,.4248s.4248-.19043,.4248-.4248V1.28693l9.81885,7.5437L.87109,16.3728v-4.39526c0-.23438-.19043-.4248-.4248-.4248s-.4248,.19043-.4248,.4248v5.25977c0,.03479,.01172,.06573,.02002,.09814,.00293,.01263-.00391,.02515,.00049,.0376,.00195,.00531,.00781,.00769,.00977,.01288,.02686,.07117,.07324,.12933,.13086,.17645,.01367,.01093,.02686,.01868,.0415,.02789,.06543,.04156,.13867,.07184,.22217,.07184,.00195,0,.00293-.00098,.00488-.00098H27.90527c.00342,.00006,.00635,.00195,.00977,.00195,.08545,0,.16016-.03156,.22656-.07495,.01123-.0072,.021-.01294,.03174-.02112,.06152-.04858,.10986-.10999,.1377-.18518,.00098-.0036,.00537-.00513,.00635-.00879,.00293-.00854-.00195-.01715,.00049-.02576,.00977-.03564,.02197-.07037,.02197-.10901V.4248c0-.01678-.00781-.03101-.00977-.0473-.00342-.03052-.00781-.05957-.01758-.08905ZM1.69678,.84961H26.66455L14.18066,10.44043,1.69678,.84961Zm-.00146,15.96191l9.69238-7.44513,2.53418,1.94708c.07617,.05859,.16797,.08789,.25879,.08789s.18262-.0293,.25879-.08789l2.5332-1.94635,9.69141,7.4444H1.69531Zm25.79492-.43719l-9.81982-7.54297L27.49023,1.28693v15.0874Z"/><path class="cls-1" d="M.44629,10.66534c.24658,0,.44629-.19958,.44629-.44641s-.19971-.44635-.44629-.44635c-.24707,0-.44629,.19952-.44629,.44635s.19922,.44641,.44629,.44641Z"/></g></g></svg>