<?xml version="1.0" encoding="UTF-8"?><svg id="Layer_2" xmlns="http://www.w3.org/2000/svg" viewBox="0 0 26.05664 24.93585"><defs><style>.cls-1{fill:#783cbe;}</style></defs><g id="Layer_1-2"><g><path class="cls-1" d="M23.84375,8.28204V.4251c0-.1582-.08789-.30371-.22754-.37695-.14062-.07227-.31055-.06348-.43945,.02832l-7.52539,5.22852c-.11426,.0791-.18262,.20898-.18262,.34863v.77148h-3.74121c-.23438,0-.4248,.19043-.4248,.4248s.19043,.4248,.4248,.4248h3.74121V15.61944h-4.08105c-.15137,0-.29199,.08105-.36816,.21191-.07617,.13184-.07617,.29395,0,.42578l3.04492,5.27246c.22852,.39648,.0918,.90625-.30469,1.13477l-2.26855,1.31055c-.19336,.11035-.41406,.13867-.63086,.08105-.21484-.05762-.39355-.19434-.50293-.38574l-4.52734-7.83887c-.07617-.13086-.2168-.21191-.36816-.21191h-1.3125c-1.81934,0-3.2998-1.48047-3.2998-3.2998v-1.74609c0-1.81934,1.48047-3.29883,3.2998-3.29883h4.00977c.23438,0,.4248-.19043,.4248-.4248s-.19043-.4248-.4248-.4248H4.14941C1.86133,6.4251,0,8.28643,0,10.57354v1.74609c0,2.28809,1.86133,4.14941,4.14941,4.14941h1.06738l4.4043,7.62598c.22266,.38672,.58398,.66504,1.01855,.78125,.14648,.04004,.29492,.05957,.44141,.05957,.29102,0,.57715-.07617,.83496-.22461l2.26953-1.31055c.80078-.46387,1.07715-1.49316,.61523-2.2959l-2.67676-4.63574h3.34473v.68359c0,.14355,.07227,.27637,.19141,.35547l7.52539,4.93945c.07031,.0459,.15234,.06934,.2334,.06934,.06934,0,.13867-.0166,.20215-.05078,.13672-.07422,.22266-.21777,.22266-.37402v-7.46729c1.25195-.17004,2.21289-1.0675,2.21289-2.15381v-2.03418c0-1.08716-.96094-1.98474-2.21289-2.15479Zm-.84961,13.02295l-6.67578-4.38184V5.87628L22.99414,1.2376V21.30499Zm2.21289-8.83398c0,.6167-.59229,1.14771-1.36328,1.29541v-4.62592c.771,.14795,1.36328,.67963,1.36328,1.29633v2.03418Z"/><path class="cls-1" d="M9.92334,7.29601c.24707,0,.44678-.19952,.44678-.44635s-.19971-.44641-.44678-.44641c-.24658,0-.44629,.19958-.44629,.44641s.19971,.44635,.44629,.44635Z"/></g></g></svg>