<?xml version="1.0" encoding="UTF-8"?><svg id="Layer_2" xmlns="http://www.w3.org/2000/svg" viewBox="0 0 25.99834 25.33381"><defs><style>.cls-1{fill:#783cbe;}</style></defs><g id="Layer_1-2"><g><path class="cls-1" d="M23.16919,25.33381c.49121,0,.9834-.18652,1.35742-.56055l.08887-.08887c.74805-.74902,.74805-1.96582-.00977-2.72461l-4.24609-3.97559c-.66016-.66028-1.68604-.73572-2.43262-.23047l-.63916-.6394c2.2793-2.59302,2.18896-6.55493-.28564-9.03052-2.33887-2.33789-6.07715-2.58203-8.69434-.57227-.22656,.17383-.44434,.36523-.65137,.57227-.39258,.39062-.7334,.8291-1.01465,1.30371-.12012,.20215-.05371,.46289,.14844,.58203,.20215,.12109,.46289,.05469,.58203-.14844,.24512-.41309,.54297-.79492,.88477-1.13574,.18066-.18164,.37109-.34766,.56836-.5,2.28125-1.75293,5.53809-1.53906,7.5752,.5,2.24512,2.24512,2.24512,5.89844,0,8.14355-2.24609,2.24609-5.90137,2.24414-8.14355,0-1.08789-1.08691-1.6875-2.5332-1.6875-4.07227,0-.23438-.19043-.4248-.4248-.4248s-.4248,.19043-.4248,.4248c0,1.7666,.6875,3.42578,1.93555,4.67383,1.28906,1.28809,2.98145,1.93262,4.67285,1.93262,1.55908,0,3.11377-.55396,4.35791-1.64722l.63965,.64014c-.50537,.74683-.4292,1.77344,.24072,2.44263l4.24512,3.97461c.37402,.37402,.86621,.56055,1.35742,.56055Zm-5.01172-6.65918l.04199-.04199c.00098-.00098,.00195-.0011,.00293-.00195s.00098-.00208,.00195-.00293l.04199-.04199c.20703-.20703,.47852-.31152,.75293-.31152,.27637,0,.55469,.10645,.76953,.32129l4.24512,3.97559c.20117,.2002,.31152,.46875,.31152,.75586s-.11035,.55566-.31152,.75586l-.08887,.08887c-.40039,.40234-1.10059,.41211-1.52246-.00977l-4.24512-3.97461c-.41699-.41699-.41699-1.0957,0-1.5127Z"/><path class="cls-1" d="M12.32837,17.55451c2.64551,0,4.79785-2.15234,4.79785-4.79785s-2.15234-4.79688-4.79785-4.79688-4.79688,2.15137-4.79688,4.79688,2.15137,4.79785,4.79688,4.79785Zm0-8.74512c2.17676,0,3.94824,1.77051,3.94824,3.94727s-1.77148,3.94824-3.94824,3.94824-3.94727-1.77148-3.94727-3.94824,1.77051-3.94727,3.94727-3.94727Z"/><path class="cls-1" d="M5.92993,11.04963c-.01416,.24072,.16943,.44702,.41016,.46118,.24072,.01392,.44678-.16968,.46094-.4104,.01416-.2406-.16943-.44702-.41016-.46106s-.44727,.16968-.46094,.41028Z"/><path class="cls-1" d="M10.30884,15.3758c.23438,0,.4248-.19043,.4248-.4248v-3.49121c0-.23438-.19043-.4248-.4248-.4248s-.4248,.19043-.4248,.4248v3.49121c0,.23438,.19043,.4248,.4248,.4248Z"/><path class="cls-1" d="M12.32837,15.3758c.23438,0,.4248-.19043,.4248-.4248v-4.47168c0-.23438-.19043-.4248-.4248-.4248s-.4248,.19043-.4248,.4248v4.47168c0,.23438,.19043,.4248,.4248,.4248Z"/><path class="cls-1" d="M14.34888,15.3758c.23438,0,.4248-.19043,.4248-.4248v-2.27734c0-.23438-.19043-.4248-.4248-.4248s-.4248,.19043-.4248,.4248v2.27734c0,.23438,.19043,.4248,.4248,.4248Z"/><path class="cls-1" d="M20.21704,5.5301c0,.23438,.19043,.4248,.4248,.4248s.4248-.19043,.4248-.4248c0-.60547,.49316-1.09863,1.09863-1.09863h.11523c.60547,0,1.09766,.49316,1.09766,1.09863,0,.23438,.19043,.4248,.4248,.4248s.4248-.19043,.4248-.4248c0-.69653-.37012-1.30432-.9209-1.6488,.34033-.39465,.46045-.95715,.25391-1.47327-.29395-.7373-1.13379-1.09961-1.87305-.80371h-.00098c-.35645,.14258-.63672,.41602-.78906,.76953-.15137,.35449-.15625,.74609-.01367,1.10352,.06152,.15356,.1499,.28674,.25293,.40503-.55029,.34473-.91992,.9519-.91992,1.64771Zm1.46191-2.82031c.0625-.14551,.17773-.25781,.32324-.31641,.30469-.11914,.64941,.02637,.76953,.3291s-.02734,.64746-.33008,.76855c-.29883,.11719-.64648-.02637-.76855-.3291-.05859-.14648-.05664-.30762,.00586-.45215Z"/><path class="cls-1" d="M20.73462,7.24396c.47852,.20508,.98242,.30762,1.4873,.30762,.47363,0,.94824-.08984,1.40039-.27148,.93652-.37305,1.6709-1.08984,2.06836-2.01562,.39746-.92676,.41016-1.95215,.03613-2.88867-.37402-.93555-1.08984-1.66992-2.0166-2.06738s-1.95215-.41211-2.88867-.03613c-1.93066,.77148-2.875,2.97168-2.10352,4.90527,.37402,.93555,1.09082,1.66992,2.0166,2.06641Zm.40332-6.18262c.35059-.14062,.71777-.20996,1.08496-.20996,.3916,0,.78223,.0791,1.15234,.23828,.71777,.30762,1.27246,.87695,1.5625,1.60254,.29004,.72461,.28027,1.51855-.02832,2.23633-.30762,.71777-.87695,1.27246-1.60254,1.5625-1.49805,.59668-3.20117-.13379-3.7998-1.62891-.59766-1.49805,.13379-3.20215,1.63086-3.80078Z"/><path class="cls-1" d="M1.76782,5.76057c0,.23438,.19043,.4248,.4248,.4248s.4248-.19043,.4248-.4248c0-.60547,.49316-1.09863,1.09863-1.09863h.11523c.60547,0,1.09863,.49316,1.09863,1.09863,0,.23438,.19043,.4248,.4248,.4248s.4248-.19043,.4248-.4248c0-.70056-.375-1.31079-.93164-1.65405,.09668-.11157,.19092-.22668,.25098-.36646,.15137-.35352,.15625-.74512,.0127-1.10156-.14258-.3584-.41602-.63867-.77051-.79004-.35254-.15234-.74414-.15723-1.10254-.01367-.35742,.14258-.6377,.41602-.79004,.77051-.15137,.35449-.15625,.74609-.0127,1.10156,.06055,.15222,.15576,.28149,.25977,.40161-.55469,.34387-.92773,.95312-.92773,1.6521Zm1.46191-2.82031c.0625-.14551,.17773-.25781,.32422-.31641,.07129-.02832,.14551-.04199,.21973-.04199,.0791,0,.1582,.01562,.2334,.04785,.14453,.0625,.25684,.17676,.31543,.32422,.05859,.14648,.05664,.30664-.00488,.45117-.0625,.14551-.17773,.25781-.3252,.31641s-.30762,.05566-.45117-.00488c-.14551-.0625-.25781-.17773-.31641-.3252-.05859-.14648-.05664-.30664,.00488-.45117Z"/><path class="cls-1" d="M2.28638,7.47443c.47754,.20508,.98145,.30762,1.48633,.30762,.47363,0,.94824-.08984,1.40039-.27148,.93652-.37305,1.6709-1.08984,2.06836-2.01562,.39746-.92676,.41016-1.95215,.03613-2.88867-.37402-.93555-1.08984-1.66992-2.0166-2.06738-.92578-.39844-1.95117-.41211-2.88867-.03613C.44068,1.27521-.50268,3.47541,.26978,5.40803c.37402,.93555,1.08984,1.66992,2.0166,2.06641Zm.40234-6.18262c.72461-.29004,1.52051-.28027,2.2373,.02832,.71777,.30762,1.27246,.87695,1.5625,1.60254,.29004,.72461,.28027,1.51855-.02832,2.23633-.30762,.71777-.87695,1.27246-1.60254,1.5625-1.49609,.59766-3.2002-.13281-3.79883-1.62988-.59863-1.49609,.13281-3.20117,1.62988-3.7998Z"/><path class="cls-1" d="M5.42261,21.33405c.09668-.11133,.19043-.22632,.25049-.36548,.15137-.35449,.15625-.74609,.01367-1.10352-.29492-.73633-1.13574-1.09863-1.87305-.80371h-.00098c-.7373,.29492-1.09668,1.13574-.80273,1.87305,.06152,.15381,.1499,.28711,.25244,.40552-.55029,.34436-.91943,.95129-.91943,1.64722,0,.23438,.19043,.4248,.4248,.4248s.4248-.19043,.4248-.4248c0-.60547,.49219-1.09766,1.09766-1.09766h.11523c.60547,0,1.09863,.49219,1.09863,1.09766,0,.23438,.19043,.4248,.4248,.4248s.4248-.19043,.4248-.4248c0-.70044-.375-1.31006-.93115-1.65308Zm-1.29443-1.48364c.2998-.11816,.64844,.02734,.76953,.33105,.05859,.14551,.05664,.30664-.00586,.45117-.0625,.14551-.17773,.25781-.32324,.31641-.30469,.11914-.64941-.02734-.76953-.3291-.12012-.30273,.02734-.64746,.3291-.76953Z"/><path class="cls-1" d="M5.83618,17.76643c-.92773-.39746-1.95215-.41211-2.8877-.03613-.93652,.37305-1.6709,1.08984-2.06836,2.01562-.39746,.92676-.41016,1.95215-.03613,2.88867,.37402,.93555,1.08984,1.66992,2.0166,2.06738,.47754,.20508,.98242,.30762,1.48633,.30762,.47461,0,.94824-.08984,1.40234-.27148,1.93066-.77246,2.875-2.97266,2.10352-4.90527-.37402-.93555-1.09082-1.66992-2.0166-2.06641Zm-.40332,6.18262c-.72461,.29004-1.51953,.28027-2.2373-.02832-.71777-.30762-1.27246-.87695-1.5625-1.60254-.29004-.72461-.28027-1.51855,.02832-2.23633,.30762-.71777,.87695-1.27246,1.60156-1.5625h.00098c.35449-.1416,.7207-.20898,1.08105-.20898,1.16113,0,2.26172,.69629,2.71875,1.83789,.59766,1.49707-.13379,3.20215-1.63086,3.80078Z"/><path class="cls-1" d="M8.219,2.31428c1.70898-.4248,3.44531,.62695,3.86719,2.33789,.04785,.19434,.22168,.32324,.41309,.32324,.0332,0,.06738-.00391,.10156-.01172,.22852-.05664,.36719-.28711,.31152-.51465-.53418-2.16699-2.73047-3.48926-4.89648-2.96094-.22852,.05664-.36719,.28711-.31152,.51465s.28516,.36426,.51465,.31152Z"/><path class="cls-1" d="M23.38013,8.17561c-.08984,.84863-.50488,1.6123-1.16895,2.14844-.66211,.53613-1.49609,.78711-2.34473,.69238-.22461-.0127-.44238,.14453-.46777,.37793-.02441,.2334,.14453,.44238,.37793,.46777,.14551,.01562,.29004,.02246,.43457,.02246,.9209,0,1.80859-.31152,2.53516-.89941,.83984-.67969,1.36523-1.64551,1.47949-2.71973,.02441-.2334-.14453-.44238-.37793-.46777-.21777-.00684-.44238,.14453-.46777,.37793Z"/><path class="cls-1" d="M4.45337,13.23322c.22168-.07812,.33691-.32031,.25879-.54199s-.31934-.33789-.54199-.25879c-2.10254,.74316-3.20898,3.05859-2.46484,5.16211,.06152,.1748,.22559,.2832,.40039,.2832,.04688,0,.09473-.00781,.1416-.02441,.22168-.07812,.33691-.32031,.25879-.54199-.58691-1.66211,.28613-3.49121,1.94727-4.07812Z"/></g></g></svg>