<?xml version="1.0" encoding="UTF-8"?><svg id="Layer_2" xmlns="http://www.w3.org/2000/svg" viewBox="0 0 27.07327 20.64941"><defs><style>.cls-1{fill:#783cbe;}</style></defs><g id="Layer_1-2"><g><path class="cls-1" d="M26.64844,5.12988H12.93359c-.23438,0-.4248,.19043-.4248,.4248s.19043,.4248,.4248,.4248h13.14355l-.74707,2.48438H7.52734l-.80518-2.48438h2.67041c.23438,0,.4248-.19043,.4248-.4248s-.19043-.4248-.4248-.4248h-2.93164L5.11816,.31055c-.05078-.18359-.21875-.31055-.40918-.31055H.4248c-.23438,0-.4248,.19043-.4248,.4248s.19043,.4248,.4248,.4248h3.96094l1.34277,4.81934c.00049,.00214,.00293,.00311,.00342,.00525,.00146,.00378,.00049,.00757,.00146,.01135l3.24512,10.01074c.05664,.17578,.21973,.29395,.4043,.29395h14.25586c.1875,0,.35254-.12305,.40723-.30273l3.00977-10.01074c.03809-.12793,.01367-.26758-.06641-.37598-.08008-.10742-.20605-.1709-.34082-.1709Zm-3.32617,10.01074H9.69141l-.69287-2.1377h14.96631l-.64258,2.1377Zm.89844-2.9873H8.72314l-.92041-2.83984H25.07471l-.854,2.83984Z"/><path class="cls-1" d="M10.55078,16.94336c-1.02148,0-1.85254,.83105-1.85254,1.85352,0,1.02148,.83105,1.85254,1.85254,1.85254s1.85254-.83105,1.85254-1.85254c0-1.02246-.83105-1.85352-1.85254-1.85352Zm0,2.85645c-.55273,0-1.00293-.4502-1.00293-1.00293,0-.55371,.4502-1.00391,1.00293-1.00391s1.00293,.4502,1.00293,1.00391c0,.55273-.4502,1.00293-1.00293,1.00293Z"/><path class="cls-1" d="M22.21094,16.94336c-1.02148,0-1.85254,.83105-1.85254,1.85352,0,1.02148,.83105,1.85254,1.85254,1.85254s1.85254-.83105,1.85254-1.85254c0-1.02246-.83105-1.85352-1.85254-1.85352Zm0,2.85645c-.55273,0-1.00293-.4502-1.00293-1.00293,0-.55371,.4502-1.00391,1.00293-1.00391s1.00293,.4502,1.00293,1.00391c0,.55273-.4502,1.00293-1.00293,1.00293Z"/><path class="cls-1" d="M11.16992,6.00092c.24707,0,.44678-.19952,.44678-.44635s-.19971-.44635-.44678-.44635c-.24658,0-.44629,.19952-.44629,.44635s.19971,.44635,.44629,.44635Z"/></g></g></svg>