<?xml version="1.0" encoding="UTF-8"?><svg id="Layer_2" xmlns="http://www.w3.org/2000/svg" viewBox="0 0 27.07229 22.62695"><defs><style>.cls-1{fill:#783cbe;}</style></defs><g id="Layer_1-2"><g><path class="cls-1" d="M26.64746,7.10742h-5.69922c-.23438,0-.4248,.19043-.4248,.4248s.19043,.4248,.4248,.4248h5.12793l-2.75488,9.16113H9.69043L6.72119,7.95703h5.25732c.23438,0,.4248-.19043,.4248-.4248s-.19043-.4248-.4248-.4248H6.45996l-1.34277-4.81934c-.05078-.18359-.21875-.31055-.40918-.31055H.4248c-.23438,0-.4248,.19043-.4248,.4248s.19043,.4248,.4248,.4248h3.95996l1.34277,4.81934c.00049,.00214,.00293,.00311,.00342,.00525,.00146,.00378,.00049,.00757,.00146,.01135l3.24512,10.01074c.05664,.17578,.21973,.29395,.4043,.29395h14.25586c.1875,0,.35254-.12305,.40723-.30273l3.00977-10.01074c.03809-.12793,.01367-.26758-.06641-.37598-.08008-.10742-.20605-.1709-.34082-.1709Z"/><path class="cls-1" d="M10.5498,18.9209c-1.02148,0-1.85156,.83105-1.85156,1.85352,0,1.02148,.83008,1.85254,1.85156,1.85254,1.02246,0,1.85352-.83105,1.85352-1.85254,0-1.02246-.83105-1.85352-1.85352-1.85352Zm0,2.85645c-.55273,0-1.00195-.4502-1.00195-1.00293,0-.55371,.44922-1.00391,1.00195-1.00391,.55371,0,1.00391,.4502,1.00391,1.00391,0,.55273-.4502,1.00293-1.00391,1.00293Z"/><path class="cls-1" d="M22.20996,18.9209c-1.02148,0-1.85156,.83105-1.85156,1.85352,0,1.02148,.83008,1.85254,1.85156,1.85254,1.02246,0,1.85352-.83105,1.85352-1.85254,0-1.02246-.83105-1.85352-1.85352-1.85352Zm0,2.85645c-.55273,0-1.00195-.4502-1.00195-1.00293,0-.55371,.44922-1.00391,1.00195-1.00391,.55371,0,1.00391,.4502,1.00391,1.00391,0,.55273-.4502,1.00293-1.00391,1.00293Z"/><path class="cls-1" d="M12.90137,9.86914h1.02539c.23438,0,.4248-.19043,.4248-.4248v-3.61621c0-.23438-.19043-.4248-.4248-.4248s-.4248,.19043-.4248,.4248v3.19141h-1.52344c-.16602,0-.31641,.09668-.38574,.24707s-.04492,.32812,.0625,.4541l4.37598,5.11133c.08105,.09473,.19922,.14844,.32324,.14844s.24219-.05371,.32324-.14844l4.37695-5.11133c.10742-.12598,.13184-.30371,.0625-.4541s-.21973-.24707-.38574-.24707h-1.52246V.4248c0-.23438-.19043-.4248-.4248-.4248s-.4248,.19043-.4248,.4248V9.44434c0,.23438,.19043,.4248,.4248,.4248h1.02344l-3.45312,4.0332-3.45312-4.0332Z"/><path class="cls-1" d="M13.92676,2.72656c.23438,0,.4248-.19043,.4248-.4248V.4248c0-.23438-.19043-.4248-.4248-.4248s-.4248,.19043-.4248,.4248v1.87695c0,.23438,.19043,.4248,.4248,.4248Z"/><circle class="cls-1" cx="13.92725" cy="4.07446" r=".44632"/></g></g></svg>