<?xml version="1.0" encoding="UTF-8"?><svg id="Layer_2" xmlns="http://www.w3.org/2000/svg" viewBox="0 0 27.07229 21.37109"><defs><style>.cls-1{fill:#783cbe;}</style></defs><g id="Layer_1-2"><g><path class="cls-1" d="M26.64746,5.85156h-2.19141V3.35059c0-.23438-.19043-.4248-.4248-.4248h-3.94531V.4248c0-.23438-.19043-.4248-.4248-.4248h-6.74121c-.23438,0-.4248,.19043-.4248,.4248V6.27637c0,.23438,.19043,.4248,.4248,.4248,.00244,0,.00439-.00134,.00684-.0014,.00244,.00006,.00439,.0014,.00684,.0014h13.14258l-.74707,2.48438H7.52686l-.80566-2.48438h2.67041c.23438,0,.4248-.19043,.4248-.4248s-.19043-.4248-.4248-.4248h-2.93164L5.11816,1.03223c-.05078-.18359-.21875-.31055-.40918-.31055H.4248c-.23438,0-.4248,.19043-.4248,.4248s.19043,.4248,.4248,.4248h3.96094l1.3418,4.81934c.00049,.00214,.00293,.00311,.00342,.00525,.00146,.00378,.00049,.00757,.00146,.01135l3.24609,10.01074c.05664,.17578,.21973,.29395,.4043,.29395h14.25586c.1875,0,.35254-.12305,.40723-.30273l3.00879-10.01074c.03809-.12891,.01367-.26758-.06641-.37598-.08008-.10742-.20605-.1709-.34082-.1709Zm-9.70801-2.50098v2.50098h-3.59473V.84961h5.8916V2.92578h-1.87207c-.23438,0-.4248,.19043-.4248,.4248Zm6.66699,2.50098h-5.81738V3.77539h5.81738v2.07617Zm-.28418,10.01074H9.69141l-.69336-2.1377h14.9668l-.64258,2.1377Zm.89795-2.9873H8.72266l-.92041-2.83984H25.07422l-.854,2.83984Z"/><path class="cls-1" d="M10.55078,17.66504c-1.02148,0-1.85254,.83105-1.85254,1.85352,0,1.02148,.83105,1.85254,1.85254,1.85254s1.85254-.83105,1.85254-1.85254c0-1.02246-.83105-1.85352-1.85254-1.85352Zm0,2.85645c-.55273,0-1.00293-.4502-1.00293-1.00293,0-.55371,.4502-1.00391,1.00293-1.00391s1.00293,.4502,1.00293,1.00391c0,.55273-.4502,1.00293-1.00293,1.00293Z"/><path class="cls-1" d="M22.21094,17.66504c-1.02148,0-1.85254,.83105-1.85254,1.85352,0,1.02148,.83105,1.85254,1.85254,1.85254s1.85254-.83105,1.85254-1.85254c0-1.02246-.83105-1.85352-1.85254-1.85352Zm0,2.85645c-.55273,0-1.00293-.4502-1.00293-1.00293,0-.55371,.4502-1.00391,1.00293-1.00391s1.00293,.4502,1.00293,1.00391c0,.55273-.4502,1.00293-1.00293,1.00293Z"/><circle class="cls-1" cx="11.16992" cy="6.27625" r=".44632"/></g></g></svg>