<svg width="101" height="100" xmlns="http://www.w3.org/2000/svg" xmlns:xlink="http://www.w3.org/1999/xlink" xml:space="preserve" overflow="hidden"><defs><clipPath id="clip0"><rect x="242" y="294" width="101" height="100"/></clipPath></defs><g clip-path="url(#clip0)" transform="translate(-242 -294)"><path d="M29.8218 100C28.899 100.001 28.15 99.2534 28.1491 98.3306 28.1489 98.1448 28.1797 97.9598 28.2403 97.7843L38.473 68.0335 26.9682 68.0354C26.0448 68.0354 25.2961 67.2869 25.2961 66.3636 25.296 66.1543 25.3352 65.9473 25.4117 65.7524L35.5963 39.8084C35.94 38.9513 36.9135 38.535 37.7707 38.8788 38.6192 39.219 39.0372 40.1776 38.7093 41.0308L29.4221 64.6899 40.8175 64.6879C41.7408 64.6875 42.4897 65.436 42.4897 66.3593 42.4901 66.5447 42.459 66.7285 42.3988 66.9036L34.0955 91.0432 64.6785 56.8669 48.2847 56.6803C47.3614 56.6709 46.6208 55.9145 46.6306 54.9912 46.6334 54.7374 46.6936 54.4879 46.8069 54.2612L55.8983 36.0652 42.0568 36.0652C41.1335 36.0607 40.3885 35.3086 40.3932 34.3853 40.3976 33.4683 41.1398 32.726 42.0568 32.7216L58.604 32.7216C59.5277 32.7214 60.2766 33.4701 60.277 34.3938 60.277 34.6531 60.2168 34.9089 60.1011 35.1409L50.9943 53.3658 68.4003 53.5634C69.3235 53.5732 70.0638 54.3293 70.0544 55.2521 70.0504 55.6575 69.8989 56.0479 69.6281 56.3497L31.069 99.4427C30.7516 99.7973 30.298 100 29.8218 100Z" transform="matrix(1.05208 0 0 1 242.343 294)"/><path d="M21.7952 63.2294 15.694 63.2294C7.09032 63.2798 0.0695778 56.356 4.2396e-07 47.7526 0.0067915 42.2512 2.95669 37.174 7.73264 34.4435 7.72689 34.2802 7.72496 34.115 7.72496 33.9497 7.72366 32.2079 7.99533 30.4766 8.53013 28.8189 8.81852 27.9415 9.76367 27.464 10.6411 27.7524 11.5129 28.0389 11.991 28.9745 11.7123 29.8489 11.2847 31.1738 11.0675 32.5575 11.0686 33.9497 11.0686 34.3879 11.0955 34.8202 11.1359 35.2487 11.2027 35.9405 10.8347 36.6014 10.2116 36.9091 6.03148 38.9066 3.36298 43.1198 3.34364 47.7526 3.41203 54.5099 8.93647 59.9373 15.694 59.8858L21.7952 59.8858C22.7185 59.8901 23.4634 60.6422 23.4589 61.5659 23.4544 62.4828 22.7122 63.2251 21.7952 63.2294Z" transform="matrix(1.05208 0 0 1 242.343 294)"/><path d="M79.6534 63.2294 71.5042 63.2294C70.5809 63.2337 69.8288 62.4891 69.8241 61.5659 69.8198 60.6426 70.5648 59.8901 71.4881 59.8858 71.4936 59.8858 71.4987 59.8858 71.5042 59.8858L79.6538 59.8858C86.3296 60.0298 91.8578 54.735 92.0019 48.0596 92.114 42.8742 88.9062 38.1953 84.0293 36.4302 83.2568 36.14 82.8117 35.3299 82.9801 34.5223 83.339 32.7979 83.5201 31.0414 83.5201 29.2802 83.2517 14.6896 71.2059 3.07941 56.6154 3.34803 45.7821 3.54747 36.1685 10.3403 32.3625 20.4849 32.0457 21.3513 31.0865 21.7968 30.2201 21.48 30.1987 21.4722 30.1775 21.464 30.1565 21.4553 26.8409 20.1079 23.1373 20.07 19.7948 21.3493 18.9341 21.6836 17.9653 21.2569 17.631 20.3962 17.2967 19.5355 17.7234 18.5667 18.5841 18.2324 22.1838 16.8468 26.1412 16.6935 29.8372 17.7964 36.4517 2.74235 54.0176-4.09922 69.0713 2.51524 79.7219 7.19481 86.6712 17.6487 86.8637 29.2802 86.8637 30.8117 86.7429 32.3409 86.5024 33.8534 94.2081 37.4879 97.508 46.681 93.8736 54.3863 91.2852 59.874 85.7204 63.3349 79.6538 63.2294Z" transform="matrix(1.05208 0 0 1 242.343 294)"/><path d="M15.2188 23.5158C15.2188 24.4395 14.4699 25.1884 13.5462 25.1884 12.6225 25.1884 11.8736 24.4395 11.8736 23.5158 11.8736 22.592 12.6225 21.8432 13.5462 21.8432 14.4699 21.8432 15.2188 22.592 15.2188 23.5158Z" transform="matrix(1.05208 0 0 1 242.343 294)"/></g></svg>