<svg width="101" height="67" xmlns="http://www.w3.org/2000/svg" xmlns:xlink="http://www.w3.org/1999/xlink" xml:space="preserve" overflow="hidden"><defs><clipPath id="clip0"><rect x="593" y="137" width="101" height="67"/></clipPath></defs><g clip-path="url(#clip0)" transform="translate(-593 -137)"><path d="M51.9077 32.0007C51.4632 32.002 51.0363 31.8273 50.7204 31.5149L45.5489 26.4249C44.8837 25.7693 44.8761 24.6986 45.5314 24.0334 46.1871 23.3682 47.2578 23.3604 47.923 24.0159L51.8882 27.9208 55.7933 23.9576C56.4446 23.2893 57.514 23.2756 58.1825 23.927 58.8509 24.5783 58.8644 25.6481 58.2131 26.3165 58.2095 26.3202 58.2059 26.324 58.202 26.3278L53.112 31.4954C52.7953 31.8197 52.3608 32.002 51.9077 32.0007Z" transform="matrix(1 0 0 1.03651 593 137.432)"/><path d="M85.9422 63.8068 21.1951 63.8068C9.49735 63.8147 0.00796754 54.3382-2.53712e-05 42.6405-0.00609111 33.7633 5.52434 25.8241 13.8535 22.7532 15.4422 11.8593 25.5612 4.31605 36.455 5.90466 37.4447 6.04901 38.4221 6.2676 39.379 6.55864 39.5196 6.56994 39.6582 6.59998 39.7909 6.648 48.0221 9.32439 53.5966 16.9926 53.6038 25.6478L53.5998 27.8664C53.5978 28.7986 52.8415 29.5532 51.9097 29.5527L51.9037 29.5527C50.9707 29.5497 50.2167 28.7914 50.2195 27.8586L50.2231 25.6478C50.2318 18.6349 45.8226 12.3767 39.2158 10.0244 39.1004 10.0109 38.9865 9.98617 38.8758 9.95072 30.2232 7.02001 20.833 11.6586 17.9023 20.3112 17.4798 21.5585 17.2079 22.8518 17.0921 24.1636 17.0301 24.8461 16.5632 25.4242 15.909 25.6284 6.52009 28.5386 1.26808 38.509 4.17827 47.8979 6.48933 55.354 13.3891 60.434 21.1951 60.4265L85.9422 60.4265C92.3929 60.4245 97.6205 55.1941 97.6189 48.7434 97.6173 43.2051 93.7265 38.429 88.3024 37.3082 87.4048 37.1253 86.8167 36.2597 86.9775 35.3578 88.5483 26.7943 82.8794 18.5792 74.3157 17.0087 73.3516 16.8319 72.3733 16.7454 71.3929 16.7503 70.6258 16.7503 69.332 16.2646 69.1358 15.5264 67.234 8.37225 60.7615 3.38939 53.3587 3.38034 52.8944 3.38034 52.436 3.40366 51.9813 3.44249 51.7095 3.46194 51.4509 3.48912 51.1947 3.52409 50.284 3.66126 49.4345 3.03421 49.2972 2.12355 49.2949 2.10734 49.2929 2.09109 49.2909 2.07481 49.1667 1.15005 49.8153 0.29962 50.7399 0.175063 51.0586 0.132292 51.3793 0.0973189 51.7036 0.0701444 52.2419 0.0233152 52.7973 0 53.3587 0 61.7999 0.00884782 69.3005 5.38612 72.0188 13.3776 82.3821 13.7288 90.6049 22.2257 90.6164 32.595 90.6164 33.1984 90.5858 33.8014 90.5249 34.4017 98.4473 36.9338 102.817 45.4089 100.285 53.3316 98.2909 59.571 92.4924 63.806 85.9418 63.8068Z" transform="matrix(1 0 0 1.03651 593 137.432)"/><path d="M46.5539 3.38257C46.5539 4.31645 45.7969 5.07351 44.863 5.07351 43.9291 5.07351 43.172 4.31645 43.172 3.38257 43.172 2.44868 43.9291 1.69162 44.863 1.69162 45.7969 1.69162 46.5539 2.44868 46.5539 3.38257Z" transform="matrix(1 0 0 1.03651 593 137.432)"/></g></svg>