<svg width="112" height="107" xmlns="http://www.w3.org/2000/svg" xmlns:xlink="http://www.w3.org/1999/xlink" xml:space="preserve" overflow="hidden"><g transform="translate(-242 -117)"><path d="M55.5579 19.4292C42.6054 19.4292 29.4963 16.066 29.4963 9.64205 29.4963-3.21403 81.6193-3.21403 81.6193 9.64205 81.6193 16.066 68.5099 19.4292 55.5579 19.4292ZM55.5579 3.40606C41.819 3.40606 33.0514 7.10027 33.0514 9.64205 33.0514 12.1838 41.819 15.8739 55.5579 15.8739 69.2966 15.8739 78.0641 12.1838 78.0641 9.64205 78.0641 7.10027 69.2966 3.40623 55.5579 3.40623Z" transform="matrix(1.00796 0 0 1 242 117.044)"/><path d="M55.5579 35.4563C42.6054 35.4563 29.4963 32.0931 29.4963 25.6651 29.5011 24.6834 30.3008 23.8914 31.2826 23.8961 32.2576 23.9009 33.0468 24.6901 33.0516 25.6651 33.0516 28.2069 41.8191 31.9011 55.5579 31.9011 69.2966 31.9011 78.0641 28.2069 78.0641 25.6651 78.0687 24.6834 78.8688 23.8914 79.8505 23.8961 80.8255 23.9009 81.6147 24.6901 81.6193 25.6651 81.6193 32.0931 68.5099 35.4563 55.5579 35.4563Z" transform="matrix(1.00796 0 0 1 242 117.044)"/><path d="M55.5579 51.4792C42.6054 51.4792 29.4963 48.1161 29.4963 41.6923 29.4916 40.7106 30.2836 39.9108 31.2653 39.906 32.2471 39.9013 33.0468 40.6933 33.0516 41.6751 33.0516 41.6808 33.0516 41.6866 33.0516 41.6923 33.0516 44.2341 41.8191 47.924 55.5579 47.924 69.2966 47.924 78.0641 44.2341 78.0641 41.6923 78.0595 40.7106 78.8512 39.9108 79.8329 39.906 80.815 39.9013 81.6147 40.6933 81.6193 41.6751 81.6193 41.6808 81.6193 41.6866 81.6193 41.6923 81.6193 48.1161 68.5099 51.4792 55.5579 51.4792Z" transform="matrix(1.00796 0 0 1 242 117.044)"/><path d="M55.5579 67.5065C42.6054 67.5065 29.4963 64.1433 29.4963 57.7155L29.4963 9.64205C29.4916 8.66031 30.2836 7.86056 31.2653 7.85579 32.2471 7.85106 33.0468 8.64303 33.0516 9.62481 33.0516 9.63054 33.0516 9.63632 33.0516 9.64205L33.0516 57.7155C33.0516 60.2572 41.8191 63.9513 55.5579 63.9513 69.2966 63.9513 78.0641 60.2572 78.0641 57.7155L78.0641 9.64205C78.0595 8.66031 78.8512 7.86056 79.8329 7.85579 80.815 7.85106 81.6147 8.64303 81.6193 9.62481 81.6193 9.63054 81.6193 9.63632 81.6193 9.64205L81.6193 57.7155C81.6193 64.1433 68.5099 67.5065 55.5579 67.5065Z" transform="matrix(1.00796 0 0 1 242 117.044)"/><path d="M55.5579 106.912C49.7644 106.912 45.0676 102.216 45.0676 96.4226 45.0676 90.6291 49.7644 85.9323 55.5575 85.9323 61.351 85.9323 66.0477 90.6291 66.0477 96.4226 66.0419 102.214 61.3489 106.907 55.5579 106.912ZM55.5579 89.4879C51.7278 89.4875 48.6228 92.5925 48.6228 96.4226 48.6228 100.252 51.7278 103.357 55.5575 103.357 59.3876 103.357 62.4925 100.253 62.4925 96.4226 62.4884 92.5946 59.3859 89.4921 55.5579 89.4879Z" transform="matrix(1.00796 0 0 1 242 117.044)"/><path d="M55.5579 89.4879C54.5758 89.4879 53.7803 88.692 53.7799 87.7103 53.7799 87.7103 53.7799 87.7103 53.7799 87.7103L53.7799 65.7289C53.7753 64.7472 54.5674 63.9475 55.5491 63.9429 56.5308 63.9379 57.3305 64.73 57.3355 65.7117 57.3355 65.7176 57.3355 65.723 57.3355 65.7289L57.3355 87.7099C57.3355 88.692 56.5396 89.4875 55.5579 89.4879 55.5579 89.4879 55.5579 89.4879 55.5579 89.4879Z" transform="matrix(1.00796 0 0 1 242 117.044)"/><path d="M46.8452 98.2002 26.2311 98.2002C25.2493 98.1956 24.4573 97.3955 24.4621 96.4138 24.4668 95.4388 25.256 94.6496 26.2311 94.645L46.8452 94.645C47.8269 94.64 48.6266 95.4321 48.6316 96.4138 48.6362 97.3955 47.8445 98.1956 46.8624 98.2002 46.857 98.2002 46.8511 98.2002 46.8452 98.2002Z" transform="matrix(1.00796 0 0 1 242 117.044)"/><path d="M12.1205 98.2002 1.7776 98.2002C0.795848 98.1956 0.00384053 97.3955 0.00860382 96.4138 0.0133345 95.4388 0.802576 94.6496 1.7776 94.645L12.1205 94.645C13.1022 94.64 13.902 95.4321 13.9067 96.4138 13.9115 97.3955 13.1195 98.1956 12.1377 98.2002 12.132 98.2002 12.1262 98.2002 12.1205 98.2002Z" transform="matrix(1.00796 0 0 1 242 117.044)"/><path d="M109.338 98.2002 64.2701 98.2002C63.2884 98.2048 62.4888 97.4131 62.4838 96.4309 62.4791 95.4492 63.2713 94.6496 64.253 94.645 64.2588 94.645 64.2643 94.645 64.2701 94.645L109.338 94.645C110.319 94.6496 111.112 95.4492 111.107 96.4309 111.102 97.4064 110.313 98.1956 109.338 98.2002Z" transform="matrix(1.00796 0 0 1 242 117.044)"/><path d="M20.9947 96.2937C20.9947 97.2718 20.2018 98.0647 19.2237 98.0647 18.2456 98.0647 17.4527 97.2718 17.4527 96.2937 17.4527 95.3156 18.2456 94.5227 19.2237 94.5227 20.2018 94.5227 20.9947 95.3156 20.9947 96.2937Z" transform="matrix(1.00796 0 0 1 242 117.044)"/></g></svg>