<svg width="103" height="92" xmlns="http://www.w3.org/2000/svg" xmlns:xlink="http://www.w3.org/1999/xlink" xml:space="preserve" overflow="hidden"><defs><clipPath id="clip0"><rect x="766" y="533" width="103" height="92"/></clipPath></defs><g clip-path="url(#clip0)" transform="translate(-766 -533)"><path d="M6.70828 38.361C5.79395 38.3596 5.05385 37.6173 5.05525 36.703 5.05541 36.5939 5.06633 36.4852 5.08789 36.3783 5.73752 33.2112 6.72343 30.1225 8.02883 27.1646 8.60184 25.8668 9.23239 24.6025 9.92053 23.3718 13.8401 16.3608 19.5357 10.5049 26.4352 6.39217L27.2264 5.93111C28.0166 5.47601 29.0261 5.74767 29.4813 6.53788 29.9364 7.3281 29.6647 8.33764 28.8745 8.79278 28.8703 8.79519 28.8661 8.79756 28.8619 8.79994L28.1314 9.22683C21.7284 13.0429 16.4424 18.4768 12.8045 24.9827 12.167 26.123 11.582 27.2949 11.0495 28.4985 9.8397 31.24 8.9263 34.103 8.32485 37.0386 8.16798 37.8071 7.49263 38.3596 6.70828 38.361Z" transform="matrix(1 0 0 1.00971 767.664 533)"/><path d="M93.4465 43.2087C92.5932 43.2076 91.8809 42.5563 91.8036 41.7061 89.9205 19.8979 71.6109 3.18823 49.7217 3.30143 46.9166 3.30187 44.1184 3.57832 41.3676 4.12678L40.7509 4.25578C39.8611 4.45563 38.9778 3.89635 38.7781 3.0066 38.5782 2.11686 39.1375 1.23358 40.0274 1.03374 40.0383 1.03127 40.0492 1.02891 40.0604 1.02667L40.7109 0.889852C43.6781 0.297586 46.6962-0.000475014 49.7217 8.33807e-09 73.323-0.121729 93.0645 17.8958 95.0937 41.41 95.1749 42.3185 94.505 43.1209 93.5969 43.2033Z" transform="matrix(1 0 0 1.00971 767.664 533)"/><path d="M49.7217 91.1154C26.3188 91.1939 6.69176 73.4679 4.39365 50.1779 4.29375 49.2714 4.94769 48.4553 5.85425 48.3555 6.76085 48.2556 7.5768 48.9096 7.6767 49.8162 7.67787 49.8266 7.67892 49.8371 7.67989 49.8476 10.047 73.0681 30.7898 89.973 54.0101 87.6057 71.7007 85.8023 86.37 73.1182 90.7089 55.8738 90.9285 54.9886 91.8238 54.4492 92.709 54.6684 93.5938 54.8879 94.1335 55.7832 93.9139 56.6684 93.9132 56.6715 93.9124 56.675 93.9116 56.6781 88.8231 76.9337 70.6068 91.1298 49.7217 91.1154Z" transform="matrix(1 0 0 1.00971 767.664 533)"/><path d="M93.5188 43.6226C93.1551 43.6233 92.801 43.5033 92.5131 43.281L86.6673 38.7843C85.9441 38.2279 85.8093 37.1907 86.3658 36.4676 86.9222 35.7446 87.9593 35.6095 88.6825 36.1659L93.2188 39.6571 96.7102 35.1185C97.2631 34.393 98.2999 34.2532 99.0254 34.8064 99.7508 35.3596 99.8907 36.3962 99.3374 37.1217 99.3347 37.1257 99.3316 37.1296 99.3284 37.1335L94.8298 42.9795C94.5166 43.3859 94.0321 43.6237 93.5188 43.6226Z" transform="matrix(1 0 0 1.00971 767.664 533)"/><path d="M1.64992 57.2322C0.738394 57.2326-0.000656466 56.4935-0.000795228 55.5819-0.000850753 55.2174 0.119907 54.8631 0.342612 54.5739L4.6971 48.9123C4.98492 48.5373 5.39988 48.2801 5.86397 48.1896 6.30893 48.1029 6.77018 48.1872 7.15608 48.425L13.0038 52.9236C13.7275 53.4793 13.8639 54.516 13.3083 55.24 12.7528 55.9635 11.7157 56.0999 10.992 55.5446 10.9909 55.5435 10.9899 55.5427 10.9888 55.5419L6.45045 52.0505 2.96099 56.5891C2.64809 56.996 2.1633 57.2338 1.64992 57.2322Z" transform="matrix(1 0 0 1.00971 767.664 533)"/><path d="M35.7396 4.52464C35.7396 5.45383 34.9864 6.20709 34.0572 6.20709 33.128 6.20709 32.3748 5.45383 32.3748 4.52464 32.3748 3.59546 33.128 2.8422 34.0572 2.8422 34.9864 2.8422 35.7396 3.59546 35.7396 4.52464Z" transform="matrix(1 0 0 1.00971 767.664 533)"/><path d="M34.6167 32.0561C33.2834 32.0577 31.9969 31.5648 31.006 30.6727L31.0041 30.671C29.9416 29.7225 29.2987 28.3912 29.2167 26.9692 29.0536 24.0186 31.3133 21.4944 34.264 21.3313 35.6934 21.2523 37.095 21.7494 38.1552 22.7115 40.3647 24.6862 40.5601 28.0764 38.5915 30.2915 37.5784 31.419 36.1325 32.0609 34.6167 32.0561ZM33.2127 28.2158C34.0397 28.9875 35.3357 28.9427 36.1074 28.1157 36.8791 27.2887 36.8343 25.9926 36.0073 25.221 35.9875 25.2025 35.9673 25.1844 35.9468 25.1667 35.5271 24.8095 34.9913 24.6178 34.4403 24.6279 33.325 24.6785 32.462 25.6235 32.5125 26.7387 32.5131 26.7504 32.5137 26.7621 32.5144 26.7738 32.547 27.328 32.7981 27.8466 33.2127 28.2158Z" transform="matrix(1 0 0 1.00971 767.664 533)"/><path d="M43.593 79.9666C40.7315 79.9646 38.3657 77.7361 38.1933 74.8797 38.103 73.4578 38.5901 72.0597 39.544 71.0016 41.5557 68.8003 44.9705 68.6468 47.1715 70.6581 48.209 71.6059 48.8358 72.9212 48.9193 74.324 49.0988 77.2551 46.8688 79.777 43.9377 79.9569 43.8231 79.9639 43.708 79.9674 43.593 79.967ZM43.5173 72.5385C42.9398 72.5357 42.3884 72.7794 42.0014 73.208 41.6388 73.6109 41.4547 74.1437 41.4908 74.6842 41.5588 75.8399 42.5508 76.7212 43.7061 76.6532 44.2416 76.6217 44.744 76.3862 45.1112 75.9953 45.4734 75.5923 45.6576 75.06 45.6214 74.5191 45.5526 73.4073 44.6313 72.54 43.5173 72.5385Z" transform="matrix(1 0 0 1.00971 767.664 533)"/><path d="M43.9462 72.4569C43.0373 72.4569 42.2994 71.7224 42.2955 70.8136L42.2326 56.9004 32.9812 47.0017C32.6952 46.6962 32.5364 46.2933 32.5372 45.8748L32.5372 30.8589C32.5328 29.9472 33.2683 29.2045 34.1799 29.2001 35.0916 29.1957 35.8342 29.9312 35.8386 30.8428 35.8387 30.8482 35.8387 30.8535 35.8386 30.8589L35.8386 45.2239 45.0883 55.1187C45.3723 55.4222 45.5309 55.8221 45.5324 56.2382L45.5969 70.7984C45.6024 71.7088 44.8687 72.451 43.9587 72.4569 43.9571 72.4569 43.9552 72.4569 43.9536 72.4569Z" transform="matrix(1 0 0 1.00971 767.664 533)"/><path d="M66.1187 32.0561C64.6029 32.0609 63.1569 31.419 62.1439 30.2915 60.1722 28.0607 60.3825 24.6541 62.6133 22.6825 64.8193 20.7327 68.1817 20.9137 70.1658 23.0891 71.1213 24.1474 71.609 25.5464 71.5188 26.9692 71.3463 29.8256 68.9802 32.0543 66.1187 32.0561ZM66.1949 24.6279C65.6746 24.6281 65.1733 24.8207 64.7867 25.1686 63.9559 25.9357 63.9038 27.2313 64.6709 28.0623 65.4379 28.8935 66.7334 28.9454 67.5646 28.1783 67.959 27.8143 68.1949 27.3099 68.2209 26.7738 68.2571 26.2321 68.0725 25.6989 67.7088 25.2958 67.3218 24.8681 66.7715 24.6252 66.1945 24.6279Z" transform="matrix(1 0 0 1.00971 767.664 533)"/><path d="M57.1425 79.9666C54.1527 79.9685 51.7276 77.5465 51.7256 74.5571 51.7237 71.5674 54.1457 69.1423 57.1351 69.1403 60.1248 69.1384 62.55 71.5604 62.5519 74.5498 62.5531 76.0889 61.8987 77.5558 60.7532 78.5832 59.7619 79.4746 58.4757 79.9678 57.1425 79.9666ZM57.2182 72.5365C56.6979 72.5373 56.1967 72.7308 55.8104 73.079 55.3962 73.4474 55.1455 73.9657 55.1141 74.5191 55.0779 75.0611 55.2625 75.5943 55.6262 75.9972 56.4193 76.8401 57.7456 76.8805 58.5888 76.0874 58.9785 75.7206 59.2132 75.2185 59.2447 74.6842 59.3162 73.5721 58.4726 72.6123 57.3605 72.5408 57.3131 72.5377 57.2657 72.5361 57.2182 72.5365Z" transform="matrix(1 0 0 1.00971 767.664 533)"/><path d="M56.7893 72.4569 56.7819 72.4569C55.8714 72.4541 55.1358 71.7139 55.1386 70.8035 55.1386 70.8019 55.1386 70.8003 55.1386 70.7984L55.2031 56.2382C55.2046 55.8221 55.3632 55.4222 55.6472 55.1187L64.8989 45.2239 64.8989 30.8589C64.8943 29.9472 65.6299 29.2045 66.5415 29.2001 67.4531 29.1957 68.1957 29.9312 68.2003 30.8428 68.2003 30.8482 68.2003 30.8535 68.2003 30.8589L68.2003 45.8748C68.2011 46.2929 68.0422 46.6962 67.7562 47.0017L58.5029 56.9 58.4399 70.8136C58.4364 71.7224 57.6981 72.4569 56.7893 72.4569Z" transform="matrix(1 0 0 1.00971 767.664 533)"/><path d="M50.4352 40.3969C49.5239 40.3977 48.7852 39.6598 48.7845 38.7487 48.7845 38.7478 48.7845 38.747 48.7845 38.7462L48.7845 19.799C48.7887 18.8873 49.5313 18.1518 50.4429 18.1563 51.3487 18.1607 52.0816 18.8936 52.0859 19.799L52.0859 38.7462C52.0866 39.6571 51.3487 40.3962 50.4375 40.3969 50.4367 40.3969 50.4359 40.3969 50.4352 40.3969Z" transform="matrix(1 0 0 1.00971 767.664 533)"/><path d="M50.4767 49.1C47.6145 49.0996 45.2472 46.8703 45.0751 44.0135 44.9845 42.5913 45.4718 41.1931 46.4258 40.135 48.3998 37.9057 51.8069 37.6986 54.0362 39.6722 56.2654 41.6462 56.4729 45.0533 54.499 47.2826 53.4789 48.4347 52.0155 49.0961 50.4767 49.1ZM50.399 41.6719C49.8216 41.6699 49.2702 41.9132 48.8832 42.3418 48.5206 42.7448 48.3364 43.2771 48.3726 43.818 48.4258 44.9484 49.3856 45.8219 50.5164 45.7683 51.6472 45.7151 52.5203 44.7553 52.4671 43.6249 52.415 42.5236 51.5014 41.6606 50.399 41.6719Z" transform="matrix(1 0 0 1.00971 767.664 533)"/><path d="M50.4767 20.947C47.6145 20.9463 45.2472 18.7173 45.0751 15.8601 44.9845 14.4383 45.4718 13.0401 46.4258 11.9821 48.4386 9.78145 51.8543 9.62921 54.0548 11.6419 55.0911 12.5898 55.7175 13.9042 55.8007 15.3062 55.981 18.2355 53.7529 20.7565 50.8234 20.9369 50.708 20.944 50.5925 20.9474 50.4767 20.947ZM50.3971 13.5188C49.82 13.5167 49.2698 13.7603 48.8832 14.1886 48.5206 14.5915 48.3364 15.1239 48.3726 15.6647 48.441 16.8206 49.4334 17.7024 50.5894 17.6341 51.1237 17.6025 51.6258 17.3677 51.993 16.9777 52.3555 16.5748 52.5393 16.0423 52.5032 15.5015 52.4336 14.3888 51.5119 13.5213 50.3971 13.5188Z" transform="matrix(1 0 0 1.00971 767.664 533)"/></g></svg>