<svg width="102" height="102" xmlns="http://www.w3.org/2000/svg" xmlns:xlink="http://www.w3.org/1999/xlink" xml:space="preserve" overflow="hidden"><g transform="translate(-1106 -295)"><path d="M1149.57 367.795C1140.74 367.819 1132.26 364.307 1126.03 358.043 1119.52 351.508 1115.99 342.572 1116.3 333.352L1118.09 333.188 1119.86 333.286C1119.55 341.582 1122.69 349.635 1128.55 355.523 1140.16 367.132 1158.98 367.13 1170.59 355.518 1182.2 343.906 1182.2 325.083 1170.59 313.474 1160.04 302.932 1143.32 301.831 1131.49 310.898 1130.45 311.695 1129.47 312.557 1128.55 313.479 1126.51 315.52 1124.77 317.846 1123.4 320.384L1122.76 321.603C1122.32 322.482 1121.25 322.837 1120.37 322.396 1119.49 321.955 1119.14 320.885 1119.58 320.007 1119.58 319.993 1119.59 319.98 1119.6 319.967L1120.26 318.699C1121.8 315.854 1123.74 313.247 1126.03 310.96 1127.06 309.93 1128.16 308.967 1129.31 308.076 1143.91 296.89 1164.81 299.653 1175.99 314.247 1187.18 328.842 1184.41 349.741 1169.82 360.926 1164.01 365.38 1156.89 367.794 1149.57 367.795Z"/><path d="M1177.98 364.694C1177.51 364.696 1177.05 364.509 1176.72 364.175L1170.59 358.043C1169.9 357.347 1169.9 356.219 1170.59 355.523 1171.29 354.827 1172.42 354.827 1173.11 355.523L1179.24 361.655C1179.94 362.35 1179.94 363.478 1179.24 364.173 1178.91 364.507 1178.45 364.695 1177.98 364.694Z"/><path d="M1195.7 386.465C1193.46 386.422 1191.33 385.497 1189.77 383.892L1177.49 372.135C1176.06 370.748 1175.15 368.912 1174.92 366.936 1174.68 365.03 1175.31 363.117 1176.64 361.733L1176.93 361.438C1178.33 360.11 1180.24 359.475 1182.15 359.708 1184.11 359.939 1185.93 360.836 1187.32 362.248L1199.61 374.004C1202.69 376.656 1203.06 381.29 1200.45 384.403L1200.16 384.697C1198.97 385.859 1197.37 386.495 1195.7 386.465ZM1181.37 363.23C1180.66 363.206 1179.97 363.466 1179.46 363.954L1179.17 364.248C1178.59 364.873 1178.33 365.727 1178.46 366.568 1178.61 367.717 1179.14 368.783 1179.97 369.591L1192.26 381.347C1193.56 382.991 1195.9 383.357 1197.64 382.186L1197.92 381.895 1197.93 381.887C1199.1 380.17 1198.75 377.84 1197.12 376.549L1184.83 364.792C1183.92 363.845 1182.68 363.285 1181.37 363.23Z"/><path d="M1113.14 373.023 1113 373.023C1109.06 372.948 1105.93 369.694 1106 365.754 1106.08 361.814 1109.33 358.68 1113.27 358.755 1117.21 358.829 1120.34 362.081 1120.27 366.02 1120.2 369.906 1117.03 373.021 1113.14 373.023ZM1113.13 362.314C1111.16 362.315 1109.56 363.918 1109.56 365.893 1109.56 366.818 1109.92 367.706 1110.56 368.372 1111.22 369.056 1112.12 369.45 1113.07 369.464 1114.02 369.51 1114.95 369.147 1115.62 368.466 1117.04 367.095 1117.08 364.83 1115.71 363.408 1115.05 362.724 1114.15 362.331 1113.2 362.314Z"/><path d="M1119 395.255 1118.87 395.255C1114.92 395.18 1111.79 391.924 1111.87 387.982 1111.9 386.091 1112.69 384.292 1114.05 382.979 1115.45 381.721 1117.25 381.013 1119.13 380.987 1123.07 381.064 1126.2 384.314 1126.13 388.252L1126.13 388.252C1126.06 392.139 1122.89 395.251 1119 395.255ZM1118.99 384.546C1117.05 384.545 1115.46 386.105 1115.42 388.052 1115.39 390.026 1116.96 391.656 1118.93 391.697 1120.89 391.681 1122.49 390.138 1122.57 388.187 1122.61 386.214 1121.04 384.586 1119.06 384.546ZM1124.35 388.22 1124.35 388.22Z"/><path d="M1193.16 320.458C1192.45 320.456 1191.75 320.351 1191.08 320.147 1187.31 319.002 1185.18 315.015 1186.32 311.243 1187.47 307.471 1191.45 305.342 1195.23 306.488 1197.04 307.038 1198.56 308.284 1199.45 309.953L1199.45 309.953C1201.3 313.437 1199.98 317.764 1196.5 319.619 1195.47 320.167 1194.32 320.455 1193.16 320.458ZM1193.15 309.741C1191.17 309.744 1189.57 311.348 1189.58 313.323 1189.58 315.297 1191.19 316.895 1193.16 316.891 1195.13 316.887 1196.73 315.284 1196.73 313.309 1196.73 312.723 1196.58 312.147 1196.31 311.631 1195.69 310.461 1194.47 309.732 1193.15 309.741Z"/><path d="M1179.86 324.516C1178.88 324.518 1178.08 323.724 1178.08 322.741 1178.08 322.139 1178.38 321.577 1178.89 321.248L1187.97 315.324C1188.79 314.785 1189.89 315.014 1190.43 315.835 1190.97 316.657 1190.74 317.76 1189.92 318.299 1189.92 318.3 1189.91 318.301 1189.91 318.302L1180.83 324.226C1180.54 324.415 1180.21 324.516 1179.86 324.516Z"/><path d="M1134.19 351.326C1133.21 351.327 1132.41 350.531 1132.41 349.55 1132.41 349.188 1132.52 348.834 1132.73 348.536L1141.3 336.068C1141.85 335.255 1142.96 335.046 1143.77 335.601 1144.58 336.155 1144.79 337.263 1144.24 338.075 1144.24 338.08 1144.23 338.084 1144.23 338.089L1135.66 350.557C1135.32 351.039 1134.78 351.326 1134.19 351.326Z"/><path d="M1117.84 362.956C1116.86 362.957 1116.06 362.161 1116.06 361.178 1116.06 360.544 1116.39 359.958 1116.94 359.638L1125.5 354.631C1126.35 354.138 1127.44 354.427 1127.94 355.278 1128.43 356.126 1128.14 357.211 1127.3 357.707L1118.74 362.714C1118.46 362.872 1118.15 362.956 1117.84 362.956Z"/><path d="M1149.57 358.562C1141.88 358.549 1134.65 354.869 1130.11 348.655 1122.29 337.908 1124.67 322.858 1135.41 315.04 1146.16 307.222 1161.21 309.596 1169.03 320.343 1176.85 331.09 1174.47 346.14 1163.72 353.958 1159.61 356.95 1154.66 358.562 1149.57 358.562ZM1149.57 313.999C1138.25 313.999 1129.07 323.178 1129.07 334.501 1129.07 345.824 1138.25 355.003 1149.57 355.003 1160.89 355.003 1170.07 345.824 1170.07 334.501 1170.06 323.183 1160.89 314.011 1149.57 313.999Z"/><path d="M1198.4 309.057C1197.42 309.057 1196.62 308.26 1196.63 307.277 1196.63 306.874 1196.76 306.484 1197.01 306.169L1202.5 299.26C1203.11 298.492 1204.23 298.368 1205 298.983 1205.77 299.595 1205.89 300.709 1205.29 301.478L1199.8 308.387C1199.46 308.812 1198.95 309.059 1198.4 309.057Z"/><path d="M1206.22 308.477C1205.32 308.475 1204.57 307.812 1204.45 306.926L1203.62 300.516 1197.21 301.347C1196.24 301.469 1195.35 300.776 1195.22 299.799 1195.1 298.829 1195.79 297.943 1196.75 297.812L1204.93 296.753C1205.9 296.641 1206.79 297.323 1206.92 298.291L1207.98 306.468C1208.11 307.443 1207.42 308.337 1206.45 308.464 1206.37 308.473 1206.3 308.477 1206.22 308.477Z"/><path d="M1120.76 326.984C1120.76 327.963 1119.97 328.757 1118.99 328.757 1118.01 328.757 1117.22 327.963 1117.22 326.984 1117.22 326.005 1118.01 325.211 1118.99 325.211 1119.97 325.211 1120.76 326.005 1120.76 326.984Z"/><path d="M1145.74 342.756C1145.01 342.757 1144.35 342.306 1144.08 341.623L1140.08 331.351C1139.73 330.435 1140.18 329.402 1141.09 329.044L1151.37 325.048C1152.29 324.696 1153.31 325.149 1153.67 326.062L1157.67 336.334C1158.03 337.25 1157.58 338.283 1156.66 338.641L1146.39 342.638C1146.18 342.716 1145.96 342.757 1145.74 342.756ZM1144.05 331.72 1146.75 338.674 1153.71 335.966 1151 329.012Z"/><path d="M1155.43 332.427C1154.44 332.426 1153.65 331.627 1153.65 330.644 1153.65 329.838 1154.19 329.133 1154.97 328.926L1168.51 325.322C1169.46 325.073 1170.44 325.644 1170.68 326.596 1170.93 327.542 1170.37 328.51 1169.43 328.766L1155.89 332.37C1155.74 332.409 1155.58 332.428 1155.43 332.427Z"/><path d="M1116.52 385.192C1115.65 385.191 1114.9 384.555 1114.77 383.691L1112.87 371.681C1112.71 370.71 1113.38 369.799 1114.35 369.644 1115.31 369.503 1116.22 370.16 1116.38 371.124L1118.28 383.135C1118.44 384.106 1117.77 385.017 1116.8 385.172 1116.71 385.185 1116.62 385.192 1116.52 385.192Z"/></g></svg>