<svg width="86" height="93" xmlns="http://www.w3.org/2000/svg" xmlns:xlink="http://www.w3.org/1999/xlink" xml:space="preserve" overflow="hidden"><g transform="translate(-72 -131)"><path d="M38.7425 89.3419 1.64599 89.3419C0.737169 89.3419 0.000408758 88.6051 0.000387364 87.6964 0.000387364 87.6964 0.000387364 87.6964 0.000387364 87.6964L0.000387382 23.8311C0.00479699 22.9223 0.745141 22.1891 1.65399 22.1935 2.55661 22.1978 3.28724 22.9285 3.29162 23.8311L3.29162 86.0507 38.7425 86.0507C39.6513 86.0461 40.3916 86.7794 40.3958 87.6882 40.4005 88.597 39.6672 89.3373 38.7584 89.3419 38.7529 89.3419 38.7475 89.3419 38.7425 89.3419Z" transform="matrix(1 0 0 1.03438 72 131.293)"/><path d="M65.8251 44.2216C64.9175 44.2228 64.1807 43.4879 64.1795 42.5803 64.1795 42.5799 64.1795 42.5799 64.1795 42.5799L64.1075 3.65243 17.1016 3.30437 17.1715 16.0305C17.1768 16.9382 16.4453 17.6783 15.5376 17.6836 15.5337 17.6837 15.5298 17.6837 15.5259 17.6837L1.64599 17.6837C0.737138 17.6793 0.00394266 16.9389 0.00835227 16.0301 0.0127316 15.1275 0.743367 14.3968 1.64599 14.3924L13.8708 14.3924 13.8009 1.65497C13.7974 1.21511 13.9712 0.792375 14.2832 0.482252 14.5925 0.175138 15.0106 0.00251531 15.4465 0.00189811L15.4578 0.00189817 65.7628 0.372545C66.6661 0.377655 67.396 1.11096 67.3971 2.01439L67.4703 42.5721C67.4738 43.4798 66.7413 44.2181 65.8337 44.2216 65.8321 44.2216 65.8302 44.2216 65.8286 44.2216Z" transform="matrix(1 0 0 1.03438 72 131.293)"/><path d="M1.64599 17.6837C0.737126 17.6836 0.000446822 16.9467 0.000567937 16.0378 0.000624476 15.6136 0.164546 15.2057 0.458118 14.8994L14.2586 0.50871C14.8924-0.142592 15.9342-0.156794 16.5855 0.476988 17.2299 1.10408 17.2516 2.13236 16.6342 2.78609L2.83386 17.1768C2.52377 17.5009 2.09456 17.6841 1.64599 17.6837Z" transform="matrix(1 0 0 1.03438 72 131.293)"/><path d="M1.64599 27.3228C0.737146 27.3228 0.000387364 26.5861 0.000387364 25.6772 0.000387364 25.6772 0.000387364 25.6772 0.000387364 25.6772L0.000387382 16.038C0.00479699 15.1292 0.745141 14.396 1.65399 14.4004 2.55661 14.4048 3.28724 15.1354 3.29162 16.038L3.29162 25.6772C3.29165 26.586 2.55491 27.3228 1.64606 27.3228 1.64604 27.3228 1.64601 27.3228 1.64599 27.3228Z" transform="matrix(1 0 0 1.03438 72 131.293)"/><path d="M36.6409 58.4722 9.96111 58.4722C9.05227 58.4765 8.3119 57.7436 8.30749 56.8348 8.30311 55.926 9.03627 55.1853 9.94515 55.181 9.95045 55.181 9.9558 55.181 9.96111 55.181L36.6409 55.181C37.5497 55.1768 38.2901 55.9097 38.2945 56.8185 38.2989 57.7277 37.5657 58.468 36.6569 58.4722 36.6515 58.4722 36.6462 58.4722 36.6409 58.4722Z" transform="matrix(1 0 0 1.03438 72 131.293)"/><path d="M36.6409 67.1391 9.96111 67.1391C9.05227 67.1438 8.3119 66.4105 8.30749 65.5017 8.30311 64.5929 9.03627 63.8522 9.94515 63.8479 9.95045 63.8479 9.9558 63.8479 9.96111 63.8479L36.6409 63.8479C37.5497 63.8437 38.2901 64.5766 38.2945 65.4858 38.2989 66.3946 37.5657 67.1349 36.6569 67.1391 36.6515 67.1391 36.6462 67.1391 36.6409 67.1391Z" transform="matrix(1 0 0 1.03438 72 131.293)"/><path d="M30.5067 75.3145 9.96111 75.3145C9.05227 75.3187 8.3119 74.5854 8.30749 73.6766 8.30311 72.7678 9.03627 72.0275 9.94515 72.0233 9.95045 72.0233 9.9558 72.0233 9.96111 72.0233L30.5067 72.0233C31.4156 72.0275 32.1488 72.7678 32.1444 73.6766 32.14 74.5792 31.4093 75.3098 30.5067 75.3145Z" transform="matrix(1 0 0 1.03438 72 131.293)"/><path d="M54.7956 89.3419 45.0506 89.3419C44.1418 89.3419 43.405 88.6051 43.405 87.6964 43.405 87.6964 43.405 87.6964 43.405 87.6964L43.405 67.2906C43.405 66.3818 44.1418 65.645 45.0506 65.645 45.0506 65.645 45.0506 65.645 45.0506 65.645L54.7956 65.645C55.7044 65.645 56.4412 66.3818 56.4412 67.2906 56.4412 67.2906 56.4412 67.2906 56.4412 67.2906L56.4412 87.6964C56.4412 88.6051 55.7048 89.3419 54.796 89.3419 54.796 89.3419 54.7956 89.3419 54.7956 89.3419ZM46.6962 86.0507 53.15 86.0507 53.15 68.9362 46.6962 68.9362Z" transform="matrix(1 0 0 1.03438 72 131.293)"/><path d="M69.5762 89.3419 59.8308 89.3419C58.922 89.3419 58.1852 88.6051 58.1852 87.6964 58.1852 87.6964 58.1852 87.6964 58.1852 87.6964L58.1852 60.9918C58.1852 60.083 58.922 59.3462 59.8308 59.3462 59.8308 59.3462 59.8308 59.3462 59.8308 59.3462L69.5762 59.3462C70.485 59.3462 71.2214 60.083 71.2218 60.9918 71.2218 60.9918 71.2218 60.9918 71.2218 60.9918L71.2214 87.6964C71.2218 88.6051 70.485 89.3419 69.5762 89.3419 69.5762 89.3419 69.5762 89.3419 69.5762 89.3419ZM61.4764 86.0507 67.9302 86.0507 67.9302 62.6374 61.4764 62.6374Z" transform="matrix(1 0 0 1.03438 72 131.293)"/><path d="M84.3544 89.3419 74.6094 89.3419C73.7006 89.3419 72.9638 88.6051 72.9638 87.6964 72.9638 87.6964 72.9638 87.6964 72.9638 87.6964L72.9638 52.5178C72.9638 51.609 73.7002 50.8722 74.609 50.8722 74.609 50.8722 74.6094 50.8722 74.6094 50.8722L84.3544 50.8722C85.2632 50.8722 86 51.609 86 52.5178 86 52.5178 86 52.5178 86 52.5178L86 87.6964C86 88.6051 85.2636 89.3419 84.3548 89.3419 84.3544 89.3419 84.3544 89.3419 84.3544 89.3419ZM76.255 86.0507 82.7088 86.0507 82.7088 54.1634 76.255 54.1634Z" transform="matrix(1 0 0 1.03438 72 131.293)"/><path d="M35.8994 47.6038C25.7392 47.6038 17.5027 39.3673 17.5027 29.2069 17.5027 19.0466 25.7392 10.8101 35.8994 10.8101 46.0597 10.8101 54.2963 19.0466 54.2963 29.2069 54.2862 39.3631 46.0555 47.5938 35.8994 47.6038ZM35.8994 14.1011C27.5568 14.1011 20.7938 20.8641 20.7937 29.2068 20.7937 37.5494 27.5567 44.3123 35.8994 44.3123 44.2421 44.3126 51.0051 37.5495 51.0051 29.2068 50.9965 20.8678 44.2387 14.1097 35.8994 14.1012Z" transform="matrix(1 0 0 1.03438 72 131.293)"/><path d="M35.8994 30.8524C34.9906 30.8524 34.2538 30.1157 34.2538 29.2068 34.2538 29.2068 34.2538 29.2068 34.2538 29.2068L34.2538 12.4555C34.2494 11.5467 34.9826 10.8063 35.8914 10.8019 36.8003 10.7975 37.5406 11.5307 37.545 12.4396 37.5451 12.4449 37.5451 12.4502 37.545 12.4555L37.545 29.2068C37.5451 30.1156 36.8083 30.8524 35.8995 30.8524 35.8995 30.8524 35.8995 30.8524 35.8994 30.8524Z" transform="matrix(1 0 0 1.03438 72 131.293)"/><path d="M35.8994 30.8524C34.9902 30.8522 34.2532 30.115 34.2533 29.2057 34.2535 28.5445 34.6492 27.9474 35.2582 27.6898L49.8704 21.5121C50.7091 21.1606 51.6741 21.5557 52.0258 22.3946 52.3756 23.2298 51.9855 24.1909 51.1527 24.5461L36.5407 30.7238C36.3375 30.8084 36.1195 30.8521 35.8994 30.8524Z" transform="matrix(1 0 0 1.03438 72 131.293)"/><path d="M64.166 52.517 64.166 52.6266C64.1784 53.4955 64.8931 54.1897 65.762 54.1773L65.7686 54.1773C66.6352 54.1928 67.3514 53.5048 67.3708 52.6386L67.3708 52.5166C67.3367 51.6315 66.5918 50.9415 65.7066 50.9756 64.8691 51.0078 64.1977 51.6795 64.1656 52.517Z" transform="matrix(1 0 0 1.03438 72 131.293)"/></g></svg>