<svg width="95" height="101" xmlns="http://www.w3.org/2000/svg" xmlns:xlink="http://www.w3.org/1999/xlink" xml:space="preserve" overflow="hidden"><defs><clipPath id="clip0"><rect x="766" y="120" width="95" height="101"/></clipPath></defs><g clip-path="url(#clip0)" transform="translate(-766 -120)"><path d="M82.1184 59.22 12.8817 59.22C5.78449 59.2363 0.0177985 53.4963 0.00141416 46.3991-0.01219 40.506 3.98406 35.3591 9.69655 33.9121 9.66668 33.5202 9.6521 33.1243 9.65279 32.7244 9.48651 28.6129 10.7883 24.5765 13.3253 21.3368 13.9138 20.5827 15.0021 20.4485 15.7562 21.0369 16.5103 21.6254 16.6446 22.7138 16.0561 23.4678 16.0557 23.4684 16.0552 23.469 16.0548 23.4695 13.9939 26.1006 12.95 29.3863 13.1144 32.7244 13.121 33.5079 13.1855 34.29 13.3074 35.064 13.4469 36.0096 12.7935 36.8892 11.8479 37.0288 11.8311 37.0313 11.8143 37.0335 11.7974 37.0355 6.64369 37.6181 2.93808 42.2685 3.52071 47.4222 4.05873 52.1815 8.09214 55.773 12.8817 55.7584L82.1184 55.7584C87.3129 55.7661 91.5307 51.5613 91.5384 46.3669 91.5433 43.2036 89.9576 40.2498 87.319 38.5057 86.6638 38.0657 86.388 37.2397 86.6463 36.4944 89.3717 28.7564 85.3083 20.2743 77.5702 17.549 76.2725 17.0919 74.9174 16.8174 73.5439 16.7332 72.9001 16.6913 72.3326 16.296 72.0698 15.7065 67.4751 5.31984 55.3302 0.624628 44.9433 5.21945 40.1679 7.33206 36.3749 11.1823 34.334 15.989 34.0083 16.7442 33.1988 17.1688 32.3923 17.0076 30.4574 16.6162 28.4677 16.5786 26.5193 16.8965 25.5755 17.0525 24.6839 16.4139 24.5279 15.47 24.3719 14.5262 25.0105 13.6346 25.9543 13.4786 27.8613 13.1675 29.8035 13.1359 31.7196 13.3849 37.5982 1.48692 52.0091-3.39271 63.9071 2.48595 68.6334 4.82126 72.4609 8.64609 74.7992 13.3711 84.0073 14.5035 90.9317 22.3148 90.9513 31.5924 90.9505 33.2198 90.7309 34.8397 90.299 36.4087 95.7908 40.9186 96.5866 49.0267 92.0766 54.5185 89.6292 57.4985 85.9744 59.224 82.1184 59.2196Z" transform="matrix(1 0 0 1.01886 766 120.288)"/><path d="M47.896 72.5452C43.6061 72.5563 39.4895 70.8523 36.4626 67.812 35.7858 67.1365 35.7849 66.0401 36.4606 65.3633 37.1363 64.6866 38.2328 64.6858 38.9096 65.3613 43.941 70.1613 51.8559 70.1605 56.8862 65.3593 57.5621 64.6837 58.6577 64.6837 59.3332 65.3593 60.0088 66.0352 60.0088 67.1308 59.3332 67.8063 56.3068 70.8503 52.1884 72.5567 47.896 72.5452Z" transform="matrix(1 0 0 1.01886 766 120.288)"/><path d="M47.896 86.1508C39.9948 86.1737 32.4131 83.0335 26.8416 77.4313 26.1681 76.7533 26.1717 75.6577 26.8496 74.9842 27.5244 74.3139 28.6138 74.3139 29.2886 74.9842 39.5688 85.2594 56.2314 85.2573 66.509 74.9801 67.1858 74.3046 68.2826 74.3054 68.9582 74.9821 69.6341 75.6589 69.6329 76.7553 68.9561 77.4313 63.3824 83.0335 55.7987 86.1733 47.896 86.1508Z" transform="matrix(1 0 0 1.01886 766 120.288)"/><path d="M47.896 98.5651C36.7006 98.5961 25.9581 94.1472 18.0622 86.2107 17.3854 85.5348 17.3845 84.4384 18.0602 83.7616 18.7359 83.0849 19.8324 83.0841 20.5092 83.7596 35.6361 98.8849 60.1595 98.8849 75.2865 83.7596 75.9624 83.0841 77.058 83.0841 77.7336 83.7596 78.4095 84.4355 78.4095 85.5311 77.7336 86.2067 69.8378 94.1464 59.0933 98.5965 47.896 98.5651Z" transform="matrix(1 0 0 1.01886 766 120.288)"/><path d="M21.0578 17.6303C21.0578 18.5826 20.2857 19.3546 19.3334 19.3546 18.3811 19.3546 17.609 18.5826 17.609 17.6303 17.609 16.6779 18.3811 15.9059 19.3334 15.9059 20.2857 15.9059 21.0578 16.6779 21.0578 17.6303Z" transform="matrix(1 0 0 1.01886 766 120.288)"/></g></svg>