<svg width="48" height="48" xmlns="http://www.w3.org/2000/svg" xmlns:xlink="http://www.w3.org/1999/xlink" xml:space="preserve" overflow="hidden"><g transform="translate(-659 -261)"><path d="M664 297.5 702 297.5 702 272 664 272ZM665 296.5 665 289.5 676.5 289.5 676.5 296.5ZM688.5 281.5 688.5 288.5 677.5 288.5 677.5 281.5ZM677.5 280.5 677.5 273 688.5 273 688.5 280.5ZM689.5 281.5 701 281.5 701 288.5 689.5 288.5ZM676.5 288.5 665 288.5 665 281.5 676.5 281.5ZM677.5 296.5 677.5 289.5 688.5 289.5 688.5 296.5ZM689.5 296.5 689.5 289.5 701 289.5 701 296.5ZM701 280.5 689.5 280.5 689.5 273 701 273ZM676.5 273 676.5 280.5 665 280.5 665 273Z" fill="#793CBD"/></g></svg>