<?xml version="1.0" encoding="UTF-8"?><svg id="Layer_2" xmlns="http://www.w3.org/2000/svg" viewBox="0 0 27.07601 21.41602"><defs><style>.cls-1{fill:#783cbe;}</style></defs><g id="Layer_1-2"><g><path class="cls-1" d="M9.93236,4.37012h5.49512c.22656,.73315,.90332,1.27051,1.70996,1.27051,.99121,0,1.79688-.80566,1.79688-1.79688s-.80566-1.79688-1.79688-1.79688c-.88086,0-1.6123,.63684-1.76562,1.47363h-5.43945c-1.78809,0-3.24512,1.20898-3.27539,2.70508v.06543c.03027,1.49609,1.48828,2.70508,3.31641,2.70508h4.53809c.00684,0,.01172-.0033,.01758-.0036,.00684,.00031,.0127,.0036,.01855,.0036,1.33203,0,2.41699,.8457,2.42578,1.8877-.00879,1.04199-1.09375,1.8877-2.42578,1.8877h-5.34961l.57324-.57227c.16602-.16602,.16602-.43555,0-.60156s-.43555-.16602-.60156,0l-1.28223,1.28223c-.16602,.16602-.16602,.43555,0,.60156l1.28223,1.28223c.08301,.08301,.19238,.12402,.30078,.12402s.21777-.04102,.30078-.12402c.16602-.16602,.16602-.43555,0-.60156l-.54199-.54102h5.31836c1.78809,0,3.24707-1.20996,3.27539-2.70508v-.06445c-.02832-1.4928-1.4834-2.70062-3.30859-2.70441-.00098,0-.00195-.00067-.00293-.00067h-4.5791c-1.33203,0-2.41602-.8457-2.42578-1.88867,.00977-1.04199,1.09375-1.8877,2.42578-1.8877Zm7.20508-1.47363c.52246,0,.94727,.4248,.94727,.94727s-.4248,.94727-.94727,.94727c-.48438,0-.87012-.36969-.92578-.83868,0-.0025,.00098-.00452,.00098-.00702,0-.03857-.0127-.07324-.02246-.10876,.00488-.51892,.42773-.94006,.94727-.94006Z"/><path class="cls-1" d="M3.23412,13.13379c0,.99121,.80566,1.79688,1.79688,1.79688s1.79785-.80566,1.79785-1.79688-.80664-1.79688-1.79785-1.79688-1.79688,.80566-1.79688,1.79688Zm1.79688-.94727c.52246,0,.94824,.4248,.94824,.94727s-.42578,.94727-.94824,.94727-.94727-.4248-.94727-.94727,.4248-.94727,.94727-.94727Z"/><path class="cls-1" d="M26.82983,15.65234c-.0625-.17676-.23047-.27051-.4209-.2832l-.64844,.03223c-.13086-.23438-.28906-.45117-.47168-.64844l.23047-.60742c.06641-.1748,.00977-.37402-.13867-.48828-.36719-.28027-.77441-.5-1.21094-.65137-.17383-.05957-.375,.00098-.48438,.15332l-.37988,.52734c-.26367-.04395-.53418-.05469-.80078-.03613l-.33105-.55762c-.09473-.16113-.28516-.24219-.46777-.19531-.44727,.11035-.87305,.29199-1.26367,.53906-.15918,.10059-.2334,.29297-.18262,.47461l.17578,.62402c-.09961,.08984-.19434,.18652-.28223,.28711-.08887,.10156-.1709,.20801-.24609,.31738l-.64258-.08887c-.18359-.02637-.36719,.07324-.44531,.24414-.19238,.4209-.31445,.86719-.36426,1.32715-.01953,.18555,.08496,.36328,.25781,.43652l.59668,.25195c.0166,.26855,.06445,.53223,.14355,.78906l-.4707,.44629c-.13672,.12988-.17188,.33301-.08691,.50098,.20996,.41309,.48242,.78711,.81055,1.11133,.13281,.13281,.33887,.16211,.50195,.07129l.56934-.30957c.2207,.15527,.45703,.28223,.70605,.38086l.05566,.64648c.0166,.18652,.1543,.34082,.33789,.37891,.29004,.05957,.58496,.08984,.87891,.08984,.16504,0,.3291-.00879,.49316-.02832,.1875-.02051,.33789-.16211,.37109-.34766l.1123-.63965c.25879-.07617,.50586-.18164,.73828-.31445l.54004,.3584c.15527,.10449,.36328,.09277,.50781-.02734,.17383-.14551,.33887-.30566,.49121-.48047,.1543-.17578,.29102-.36133,.41113-.55371,.09961-.15918,.08301-.36523-.04102-.50684l-.42871-.48633c.10156-.24902,.17285-.50781,.21289-.77441l.61719-.19824c.17871-.05664,.29883-.22461,.29492-.41211-.00879-.45996-.09082-.91504-.24609-1.35254Zm-1.18848,1.23828c-.16602,.05273-.2832,.20215-.29395,.37695-.02344,.35254-.11621,.69043-.27637,1.00293-.0791,.15527-.05566,.34375,.05957,.47461l.3916,.44434c-.04785,.06348-.09863,.12598-.15234,.1875s-.1084,.12012-.16504,.17578l-.49316-.32715c-.14648-.09766-.33691-.0957-.47754,.00488-.28809,.19922-.61035,.33691-.95801,.40918-.16992,.03516-.30176,.1709-.33301,.3418l-.10254,.58398c-.16016,0-.32227-.00293-.4834-.02246l-.05078-.58984c-.01562-.17285-.13477-.31934-.30176-.37012-.33496-.10059-.64355-.26758-.91602-.49414-.13281-.11133-.32227-.13086-.47559-.04688l-.52051,.2832c-.10449-.12305-.19922-.25391-.28516-.39062l.42969-.40723c.12695-.12012,.16699-.30469,.10254-.4668-.13086-.32812-.19434-.67285-.18652-1.02539,.00391-.17383-.09863-.33203-.25977-.40039l-.5459-.23047c.03223-.1582,.07422-.31348,.12793-.46582l.58691,.08105c.1748,.02539,.34277-.05957,.42871-.21094,.08398-.14941,.18555-.29297,.30273-.42676,.11523-.13184,.24414-.25293,.38184-.3584,.13965-.10547,.19922-.28516,.15234-.45312l-.16016-.57031c.14355-.07324,.29199-.13672,.44336-.18945l.30273,.50977c.08789,.14844,.24805,.22559,.43164,.20312,.34961-.05469,.69922-.03906,1.04102,.04688,.16797,.04199,.3457-.02344,.44824-.16406l.34668-.48145c.14746,.06641,.28906,.14258,.42578,.22852l-.21094,.55566c-.06152,.16211-.01758,.34668,.11035,.46387,.26172,.23926,.46777,.52246,.61328,.8418,.07227,.1582,.24609,.25195,.40723,.24902l.59277-.0293c.04004,.15625,.06836,.31543,.08594,.47461l-.56445,.18164Z"/><path class="cls-1" d="M22.62084,15.14648c-.51953,.03516-.99414,.27051-1.33691,.66309-.70703,.80957-.62305,2.04492,.18652,2.75195,.36914,.32129,.8252,.47949,1.28027,.47949,.54492,0,1.08594-.22559,1.47168-.66699,.34277-.3916,.51172-.89355,.47656-1.41406-.03613-.51953-.27148-.99414-.66406-1.33691s-.89844-.51172-1.41406-.47656Zm.96094,2.66895c-.39746,.45801-1.0957,.50391-1.55273,.10547-.45605-.39941-.50293-1.0957-.10449-1.55273,.19336-.2207,.46094-.35352,.75391-.37402,.30566-.01074,.57812,.07715,.79785,.26953,.22168,.19336,.35449,.46094,.37402,.75391,.02051,.29297-.0752,.57617-.26855,.79785Z"/><path class="cls-1" d="M17.33568,17.21289l-15.08691-.06836c-.76758,0-1.3916-.6123-1.3916-1.36523V5.21191c0-.23438-.19043-.4248-.4248-.4248S.00756,4.97754,.00756,5.21191V15.7793c0,1.22168,1.00488,2.21484,2.23926,2.21484l15.08496,.06836h.00195c.2334,0,.42383-.18848,.4248-.42285s-.18848-.42578-.42285-.42676Z"/><path class="cls-1" d="M.38158,2.25098c.23242,.05176,.45605-.09375,.50684-.32324,.1377-.625,.70996-1.07812,1.36035-1.07812H21.51928c.76758,0,1.3916,.6123,1.3916,1.36523V11.51855c0,.23438,.19043,.4248,.4248,.4248s.4248-.19043,.4248-.4248V2.21484c0-1.22168-1.00488-2.21484-2.24121-2.21484H2.24877C1.20287,0,.28197,.7334,.05834,1.74414c-.05078,.22949,.09375,.45605,.32324,.50684Z"/><path class="cls-1" d="M.40697,3.92822c.23828,.01385,.44238-.16797,.45605-.40619,.01465-.23822-.16797-.44257-.40625-.45648-.2373-.01385-.44238,.16797-.45605,.40619s.16797,.44257,.40625,.45648Z"/></g></g></svg>