<?xml version="1.0" encoding="UTF-8"?><svg id="Layer_2" xmlns="http://www.w3.org/2000/svg" viewBox="0 0 30.79785 25.07031"><defs><style>.cls-1{fill:#783cbe;}</style></defs><g id="Layer_1-2"><g><path class="cls-1" d="M25.9375,13.15723c-2.67969,0-4.85938,2.17969-4.85938,4.85938s2.17969,4.86035,4.85938,4.86035,4.86035-2.18066,4.86035-4.86035-2.18066-4.85938-4.86035-4.85938Zm-2.41162,8.04285c.03271-.06018,.05615-.12579,.05615-.1991,0-1.31348,1.06934-2.38281,2.38281-2.38281s2.38281,1.06934,2.38281,2.38281c0,.06085,.01367,.1181,.03711,.17047-.67969,.52826-1.52197,.8559-2.44727,.8559-.90869,0-1.73828-.31555-2.41162-.82727Zm2.47314-3.47449c-.58008,0-1.05273-.47266-1.05273-1.05273,0-.58105,.47266-1.05371,1.05273-1.05371,.58105,0,1.05371,.47266,1.05371,1.05371,0,.58008-.47266,1.05273-1.05371,1.05273Zm3.13818,2.68353c-.19531-1.04987-.89844-1.91882-1.8457-2.34821,.37354-.34753,.61084-.83905,.61084-1.38806,0-1.0498-.85352-1.90332-1.90332-1.90332-1.04883,0-1.90234,.85352-1.90234,1.90332,0,.53619,.2251,1.01923,.58301,1.36536-.98633,.42957-1.70996,1.33771-1.89355,2.42896-.52979-.67987-.8584-1.5235-.8584-2.45056,0-2.21094,1.79883-4.00977,4.00977-4.00977,2.21191,0,4.01074,1.79883,4.01074,4.00977,0,.90002-.30859,1.72266-.81104,2.39252Z"/><path class="cls-1" d="M7.36914,10.33105c-.23438,0-.4248,.19043-.4248,.4248v5.89062c0,.23438,.19043,.4248,.4248,.4248h2.95605c.23438,0,.4248-.19043,.4248-.4248v-5.89062c0-.23438-.19043-.4248-.4248-.4248h-2.95605Zm2.53125,5.89062h-2.10645v-5.04102h2.10645v5.04102Z"/><path class="cls-1" d="M15.22754,11.81738h-2.95605c-.23438,0-.4248,.19043-.4248,.4248v4.4043c0,.23438,.19043,.4248,.4248,.4248h2.95605c.23438,0,.4248-.19043,.4248-.4248v-4.4043c0-.23438-.19043-.4248-.4248-.4248Zm-.4248,4.4043h-2.10645v-3.55469h2.10645v3.55469Z"/><path class="cls-1" d="M20.12891,8.64551h-2.95605c-.23438,0-.4248,.19043-.4248,.4248v7.57617c0,.23438,.19043,.4248,.4248,.4248h2.95605c.23438,0,.4248-.19043,.4248-.4248v-7.57617c0-.23438-.19043-.4248-.4248-.4248Zm-.4248,7.57617h-2.10645v-6.72656h2.10645v6.72656Z"/><path class="cls-1" d="M21.70898,4.24976c.25195,.21814,.57129,.35278,.91406,.35278,.11328,0,.22754-.01367,.3418-.04199,.75098-.18848,1.20996-.95312,1.02246-1.7041v-.00098c-.09082-.36426-.31836-.67188-.64062-.86426-.32324-.19434-.7002-.25195-1.06445-.1582-.36426,.09082-.67188,.31836-.86523,.64062-.19092,.31903-.24658,.69385-.15869,1.05676l-3.86084,1.92346c-.23828-.18549-.53369-.30054-.8584-.30054-.43164,0-.81348,.19965-1.07178,.50671l-3.82275-1.47821c.00098-.01892,.00586-.03674,.00586-.05585,0-.77539-.63086-1.40527-1.40625-1.40527s-1.40527,.62988-1.40527,1.40527c0,.1571,.03174,.30566,.07959,.44684l-3.44873,2.7934c-.25781-.29047-.62988-.47754-1.04785-.47754-.77539,0-1.40527,.63086-1.40527,1.40625s.62988,1.40527,1.40527,1.40527,1.40625-.62988,1.40625-1.40527c0-.03973-.0083-.07715-.01172-.11603l3.604-2.91901c.23193,.16931,.51514,.27234,.82373,.27234,.45264,0,.85156-.21851,1.10889-.55164l3.79102,1.46613c-.00293,.0379-.01123,.07422-.01123,.11285,0,.77539,.63086,1.40625,1.40625,1.40625s1.40625-.63086,1.40625-1.40625c0-.13885-.02637-.27039-.06396-.39722l3.81104-1.89966c.00635-.00323,.01025-.0094,.0166-.01294ZM4.42188,8.85059c-.30664,0-.55566-.24902-.55566-.55566s.24902-.55664,.55566-.55664,.55664,.25,.55664,.55664-.25,.55566-.55664,.55566Zm5.82227-4.16797c-.30664,0-.55566-.25-.55566-.55664s.24902-.55566,.55566-.55566,.55664,.24902,.55664,.55566-.25,.55664-.55664,.55664Zm11.90234-1.77246c.07617-.12695,.19727-.2168,.3418-.25293,.04492-.01074,.09082-.0166,.13672-.0166,.09863,0,.19727,.02637,.28418,.0791,.12793,.07617,.21777,.19824,.25391,.34277,.07324,.29688-.1084,.59961-.40527,.67383-.29492,.06934-.59961-.10742-.6748-.4043-.03516-.14453-.01367-.29395,.06348-.42188Zm-5.60742,4.20605c-.30664,0-.55664-.25-.55664-.55664s.25-.55664,.55664-.55664,.55664,.25,.55664,.55664-.25,.55664-.55664,.55664Z"/><path class="cls-1" d="M19.73926,19.50879c.23438,0,.4248-.19043,.4248-.4248s-.19043-.4248-.4248-.4248H1.78809c-.50586,0-.91699-.41113-.91699-.91699V7.01855c0-.23438-.19043-.4248-.4248-.4248s-.4248,.19043-.4248,.4248v10.72363c0,.97461,.79199,1.7666,1.7666,1.7666H9.79395v2.62695h-1.47461c-.67773,0-1.22852,.55078-1.22852,1.22754v.47949c0,.67676,.55078,1.22754,1.22852,1.22754h10.5c.67773,0,1.22852-.55078,1.22852-1.22754v-.47949c0-.67676-.55078-1.22754-1.22852-1.22754h-1.47461v-2.62695h2.39453Zm-.54102,3.85449v.47949c0,.20801-.16992,.37793-.37891,.37793H8.31934c-.20898,0-.37891-.16992-.37891-.37793v-.47949c0-.20801,.16992-.37793,.37891-.37793h10.5c.20898,0,.37891,.16992,.37891,.37793Zm-2.70312-1.22754h-5.85156v-2.62695h5.85156v2.62695Z"/><path class="cls-1" d="M.44629,3.89453c.23438,0,.4248-.19043,.4248-.4248V1.7666c0-.50586,.41113-.91699,.91699-.91699H25.76758c.50586,0,.91699,.41113,.91699,.91699V11.58691c0,.23438,.19043,.4248,.4248,.4248s.4248-.19043,.4248-.4248V1.7666c0-.97461-.79199-1.7666-1.7666-1.7666H1.78809C.81348,0,.02148,.79199,.02148,1.7666v1.70312c0,.23438,.19043,.4248,.4248,.4248Z"/><path class="cls-1" d="M.44629,5.7005c.24658,0,.44629-.19952,.44629-.44635s-.19971-.44641-.44629-.44641c-.24707,0-.44629,.19958-.44629,.44641s.19922,.44635,.44629,.44635Z"/></g></g></svg>