<?xml version="1.0" encoding="UTF-8"?><svg id="Layer_2" xmlns="http://www.w3.org/2000/svg" viewBox="0 0 32.58554 25.375"><defs><style>.cls-1{fill:#783cbe;}</style></defs><g id="Layer_1-2"><g><path class="cls-1" d="M31.87451,18.32617l-.82227,.04102c-.16602-.30469-.37109-.58496-.61035-.83789l.29199-.77148c.06641-.1748,.00977-.37305-.13867-.4873-.42969-.33008-.9082-.58789-1.4209-.76562-.17578-.06055-.37402,0-.48438,.15332l-.48145,.66895c-.34473-.05957-.69043-.07617-1.03613-.0459l-.4209-.70898c-.0957-.16113-.28809-.24316-.46777-.19531-.5293,.13086-1.02832,.34375-1.48438,.63281-.1582,.10059-.23242,.29395-.18164,.47461l.22266,.79395c-.12988,.11523-.25293,.23828-.36621,.36914-.11426,.13086-.2207,.26953-.31738,.41309l-.81543-.11426c-.18359-.02832-.36719,.07422-.44531,.24414-.22461,.49121-.36914,1.01465-.42871,1.55566-.02051,.1875,.08496,.36523,.25781,.43848l.75879,.32031c.01855,.34766,.08008,.68945,.18555,1.02051l-.59863,.56738c-.13574,.12988-.1709,.33301-.08594,.50098,.24512,.4834,.56445,.92285,.9502,1.30469,.13379,.13281,.33594,.16211,.50195,.07129l.72461-.39355c.2832,.20312,.58789,.36816,.91309,.49121l.07031,.82129c.0166,.1875,.1543,.3418,.33789,.37988,.3418,.07031,.68652,.10645,1.03223,.10645,.19336-.00098,.38672-.01172,.58008-.03418,.18652-.02148,.33691-.16309,.37012-.34766l.14258-.8125c.33691-.09375,.65625-.23047,.95508-.40723l.68555,.45605c.15625,.10449,.3623,.09375,.50781-.02734,.2041-.16992,.39844-.35742,.5791-.56543,.17969-.20605,.33887-.42285,.48047-.64746,.10059-.15918,.08398-.36621-.04102-.50781l-.54492-.61816c.13574-.32031,.22754-.65527,.27539-1.00098l.78516-.25195c.17871-.05664,.29883-.22461,.29492-.41309-.01074-.53809-.10742-1.07227-.28809-1.58691-.0625-.17773-.20898-.28906-.42285-.28418Zm-.89258,1.81152c-.16602,.05273-.28223,.20215-.29395,.37598-.0293,.43262-.14355,.84668-.33887,1.22949-.0791,.15527-.05566,.34375,.06055,.47461l.50977,.5791c-.07031,.0957-.14453,.18945-.22461,.28125s-.16309,.17871-.24902,.26172l-.64355-.42773c-.14551-.09766-.33496-.0957-.47852,.00488-.35059,.24414-.74512,.41309-1.17188,.50098-.16992,.03516-.30273,.1709-.33301,.3418l-.13379,.76172c-.24219,.00781-.48242-.00195-.7207-.0332l-.06641-.76953c-.01562-.17383-.13477-.32129-.30176-.37109-.41211-.12305-.78906-.32617-1.12109-.60352-.13379-.11133-.32129-.13086-.47559-.04688l-.67969,.36914c-.1582-.18164-.30078-.37695-.4248-.58301l.56152-.53223c.12598-.12012,.16602-.30469,.10156-.4668-.16016-.39941-.2373-.82227-.22852-1.25488,.00391-.17383-.09961-.33301-.25977-.40039l-.71191-.2998c.04395-.2373,.1084-.46973,.19141-.69531l.76465,.10645c.16992,.02441,.3418-.05957,.42773-.21094,.10449-.18457,.23047-.36035,.37305-.52441,.13965-.16016,.29688-.30762,.46777-.4375,.13867-.10547,.19824-.28516,.15137-.45312l-.20898-.74414c.21191-.1123,.43359-.20703,.66309-.28223l.39453,.66504c.08789,.14844,.25488,.22461,.43164,.20312,.4248-.06738,.85547-.04883,1.27344,.05664,.16895,.04297,.3457-.02246,.44824-.16406l.45215-.62695c.2207,.0957,.43359,.20996,.63477,.3418l-.27441,.72363c-.06152,.16309-.01758,.34668,.11133,.46387,.31934,.29199,.57227,.63867,.75,1.03027,.07227,.1582,.2168,.25293,.4082,.24902l.77051-.03906c.06348,.23438,.10645,.47168,.12988,.70996l-.73633,.23633Z"/><path class="cls-1" d="M27.35986,18.06152c-.59766,.04004-1.14453,.31152-1.53809,.7627-.81348,.93164-.7168,2.35254,.21484,3.16602,.42383,.37012,.9502,.55176,1.47363,.55176,.62598,0,1.24902-.25977,1.69238-.7666,.8125-.93164,.71582-2.35156-.21582-3.16602-.45117-.39355-1.02734-.58984-1.62695-.54785Zm1.20215,3.1543c-.50488,.58008-1.38867,.63965-1.9668,.13379-.57812-.50488-.6377-1.3877-.13281-1.9668,.24414-.28027,.58398-.44824,.95508-.47363,.38184-.01855,.73145,.09668,1.01074,.34082,.57812,.50586,.63867,1.3877,.13379,1.96582Z"/><path class="cls-1" d="M20.60303,20.52637l-17.99023-.08203c-.95996,0-1.74121-.7666-1.74121-1.70898V6.13281c0-.23438-.19043-.4248-.4248-.4248s-.4248,.19043-.4248,.4248v12.60254c0,1.41113,1.16211,2.55859,2.58887,2.55859l17.98828,.08203h.00195c.2334,0,.42383-.18848,.4248-.42285s-.18848-.42578-.42285-.42676Z"/><path class="cls-1" d="M.40576,3.03125c.22656,.03125,.44141-.14648,.46387-.38184l.04102-.4502c.17285-.78223,.88867-1.34961,1.70215-1.34961H25.59229c.96094,0,1.74219,.7666,1.74219,1.70898V13.65332c0,.23438,.19043,.4248,.4248,.4248s.4248-.19043,.4248-.4248V2.55859c0-1.41113-1.16211-2.55859-2.5918-2.55859H2.61279C1.40381,0,.33838,.84766,.07275,2.06641l-.04883,.50098c-.02246,.2334,.14844,.44141,.38184,.46387Z"/><path class="cls-1" d="M5.43896,12.11328c-.23438,0-.4248,.19043-.4248,.4248v4.2002c0,.23438,.19043,.4248,.4248,.4248h2.73828c.23438,0,.4248-.19043,.4248-.4248v-4.2002c0-.23438-.19043-.4248-.4248-.4248h-2.73828Zm2.31348,4.2002h-1.88867v-3.35059h1.88867v3.35059Z"/><path class="cls-1" d="M10.27588,9.72559c-.23438,0-.4248,.19043-.4248,.4248v6.58789c0,.23438,.19043,.4248,.4248,.4248h2.73828c.23438,0,.4248-.19043,.4248-.4248v-6.58789c0-.23438-.19043-.4248-.4248-.4248h-2.73828Zm2.31348,6.58789h-1.88867v-5.73828h1.88867v5.73828Z"/><path class="cls-1" d="M17.85107,10.7666h-2.73828c-.23438,0-.4248,.19043-.4248,.4248v5.54688c0,.23438,.19043,.4248,.4248,.4248h2.73828c.23438,0,.4248-.19043,.4248-.4248v-5.54688c0-.23438-.19043-.4248-.4248-.4248Zm-.4248,5.54688h-1.88867v-4.69727h1.88867v4.69727Z"/><path class="cls-1" d="M19.95068,8.59863c-.23438,0-.4248,.19043-.4248,.4248v7.71484c0,.23438,.19043,.4248,.4248,.4248h2.7373c.23438,0,.4248-.19043,.4248-.4248v-7.71484c0-.23438-.19043-.4248-.4248-.4248h-2.7373Zm2.3125,7.71484h-1.8877v-6.86523h1.8877v6.86523Z"/><path class="cls-1" d="M23.72412,5.3916c.75293-.18848,1.21191-.95508,1.02344-1.70801s-.95703-1.20996-1.70801-1.02441c-.36426,.09082-.67188,.31934-.86523,.6416-.19238,.32196-.24854,.69818-.1582,1.06213l-4.00684,2.38336c-.23633-.18011-.52783-.2912-.84766-.2912-.4248,0-.80127,.19269-1.05957,.49066l-4.03516-2.2204c.00146-.02661,.00781-.05188,.00781-.07886,0-.77637-.63184-1.40723-1.4082-1.40723s-1.40723,.63086-1.40723,1.40723c0,.15582,.03125,.3031,.07812,.44336l-3.82227,2.81738c-.2583-.29828-.63477-.49121-1.05957-.49121-.77637,0-1.4082,.63184-1.4082,1.4082s.63184,1.4082,1.4082,1.4082,1.4082-.63184,1.4082-1.4082c0-.03784-.0083-.07343-.01123-.11053l3.9834-2.93622c.2334,.17206,.51904,.27722,.83057,.27722,.44238,0,.83301-.20929,1.09131-.52948l4.00879,2.20593c-.00391,.04382-.01318,.08624-.01318,.13116,0,.77637,.63184,1.4082,1.4082,1.4082s1.40723-.63184,1.40723-1.4082c0-.1463-.02881-.28467-.07031-.41742l3.97852-2.36676c.00195-.0011,.00293-.00305,.00439-.00415,.06055,.05194,.10645,.11768,.17627,.15942,.22168,.13281,.46973,.20117,.72168,.20117,.11426,0,.23047-.01465,.34473-.04297ZM4.45557,9.38281c-.30762,0-.55859-.25098-.55859-.55859s.25098-.55859,.55859-.55859,.55859,.25098,.55859,.55859-.25098,.55859-.55859,.55859Zm6.21094-4.17773c-.30762,0-.55762-.25098-.55762-.55859s.25-.55762,.55762-.55762,.55859,.25,.55859,.55762-.25098,.55859-.55859,.55859Zm6.49512,3.21582c-.30762,0-.55859-.25098-.55859-.55859s.25098-.55762,.55859-.55762,.55762,.25,.55762,.55762-.25,.55859-.55762,.55859Zm5.93359-3.91602c-.12793-.07715-.21875-.19922-.25488-.34473-.03613-.14453-.01367-.29395,.06348-.42188,.07617-.12793,.19824-.21875,.34277-.25488,.04492-.01074,.08984-.0166,.13477-.0166,.25,0,.47852,.16992,.54199,.42383,.03613,.14453,.01367,.29395-.06348,.42188-.07617,.12793-.19824,.21875-.34277,.25488-.14551,.0332-.29492,.01172-.42188-.0625Z"/><path class="cls-1" d="M.44678,4.8114c.24658,0,.44629-.19958,.44629-.44641,0-.24677-.19971-.44635-.44629-.44635-.24707,0-.44678,.19958-.44678,.44635,0,.24683,.19971,.44641,.44678,.44641Z"/></g></g></svg>