<?xml version="1.0" encoding="UTF-8"?><svg id="Layer_2" xmlns="http://www.w3.org/2000/svg" viewBox="0 0 31.66309 24.99414"><defs><style>.cls-1{fill:#783cbe;}</style></defs><g id="Layer_1-2"><g><path class="cls-1" d="M31.00098,16.25098l-.80176,.02051c-.15527-.2998-.34668-.57715-.57422-.8291l.30273-.74316c.07129-.17383,.01953-.37305-.12695-.49121-.41504-.33398-.87793-.59766-1.37695-.78418-.17773-.06445-.37402-.00879-.4873,.1416l-.48438,.64062c-.33105-.06543-.66699-.08984-1.00684-.06836l-.3916-.7002c-.0918-.16406-.2832-.24707-.46484-.20703-.52148,.11816-1.0166,.31543-1.4707,.58789-.16113,.09668-.23926,.28711-.19336,.46973l.19922,.77734c-.12793,.1084-.25,.22656-.36426,.35156-.11523,.125-.2207,.25684-.31738,.39355l-.79102-.12988c-.18945-.03125-.36816,.06445-.45117,.23242-.2334,.47852-.38672,.98926-.45703,1.51855-.02344,.18652,.07617,.36621,.24707,.44336l.73145,.3291c.00977,.33887,.0625,.67188,.15723,.99609l-.5957,.53906c-.13965,.12598-.17969,.3291-.09863,.49805,.22949,.48047,.5332,.91895,.90234,1.30371,.13086,.13477,.33594,.16895,.50098,.08301l.71289-.36719c.27051,.2041,.56445,.37109,.87598,.49902l.05078,.80078c.01172,.1875,.14551,.3457,.32812,.3877,.37402,.08594,.75293,.12891,1.12988,.12891,.15039,0,.30078-.00684,.4502-.02051,.18652-.0166,.34082-.1543,.37793-.33887l.1582-.78711c.32812-.08496,.6416-.20996,.9375-.375l.65625,.45996c.15234,.1084,.35938,.10254,.50781-.01465,.20508-.16211,.39941-.3418,.58203-.54102,.18164-.19824,.34375-.4082,.4873-.62598,.10352-.15723,.0918-.36328-.0293-.50781l-.51562-.61426c.1377-.30762,.23535-.63086,.29004-.9668l.77051-.22559c.18066-.05371,.30469-.21875,.30469-.40723,.00098-.53125-.08203-1.05762-.24707-1.56445-.05957-.17871-.27539-.30176-.41504-.29297Zm-.91895,1.75293c-.16699,.0498-.28711,.19629-.30273,.36914-.03906,.42383-.16016,.8252-.35938,1.19434-.08301,.15332-.06348,.3418,.04883,.47559l.48242,.57422c-.07031,.09082-.14355,.17871-.22168,.26367-.0791,.08691-.16113,.16797-.24512,.24609l-.61426-.42969c-.14355-.10059-.33301-.10352-.47852-.00684-.35156,.23145-.74023,.38672-1.15625,.46191-.17188,.03027-.30664,.16309-.3418,.33398l-.14844,.73633c-.23633,.01074-.46094-.0127-.69043-.04785l-.04688-.74805c-.01074-.17383-.12598-.32324-.29199-.37793-.39941-.12988-.76367-.33789-1.08203-.61621-.13086-.11523-.31934-.13574-.47461-.05859l-.66797,.34375c-.14746-.17871-.27832-.36816-.39355-.56836l.55664-.50391c.12891-.11719,.17383-.30078,.11328-.46387-.14746-.39551-.21289-.81055-.19434-1.23242,.00684-.17383-.0918-.33496-.25-.40625l-.68457-.30859c.04785-.22559,.11426-.44727,.19922-.66211l.73926,.12109c.1748,.02637,.34473-.05176,.43359-.2002,.10645-.17676,.23242-.34668,.37598-.50293,.14258-.15527,.2998-.2959,.46777-.41797,.14062-.10254,.20508-.28027,.16211-.44922l-.18652-.72656c.20605-.10352,.4209-.18848,.64258-.25586l.36621,.6543c.08496,.15039,.25,.24023,.42676,.21289,.41797-.05371,.83691-.02734,1.24609,.08594,.16504,.04199,.34668-.01562,.45117-.15332l.45312-.59961c.20996,.09668,.41016,.21094,.60059,.3418l-.2832,.69629c-.06543,.16113-.02637,.34668,.09961,.4668,.30566,.29395,.54492,.63867,.70801,1.02441,.06836,.16016,.26367,.2373,.40234,.25879l.75-.01953c.05566,.22461,.0918,.45312,.1084,.68359l-.71973,.21094Z"/><path class="cls-1" d="M25.05273,16.60059c-.82227,.89844-.75977,2.29688,.1377,3.11914,.42285,.38672,.95703,.57812,1.48926,.57812,.59863,0,1.19434-.24121,1.62891-.71582,.39844-.43457,.60352-.99805,.57715-1.58789-.02539-.58887-.2793-1.13281-.71387-1.53027-.89746-.81934-2.29688-.76074-3.11914,.13672Zm2.62891,2.40723c-.24414,.26758-.5791,.42285-.94141,.43945-.3623,.01562-.70801-.11035-.97559-.35449-.55273-.50586-.59082-1.36621-.08496-1.91797,.50391-.55273,1.36523-.59082,1.91797-.08398,.26758,.24414,.42285,.5791,.43945,.94043,.01562,.3623-.11035,.70898-.35547,.97656Z"/><path class="cls-1" d="M20.61621,18.58203H1.78223c-.50195,0-.91113-.40918-.91113-.91211V6.18652c0-.23438-.19043-.4248-.4248-.4248s-.4248,.19043-.4248,.4248v11.4834c0,.97168,.79004,1.76172,1.76074,1.76172h7.9707v2.63574h-1.46289c-.67773,0-1.22852,.55078-1.22852,1.22852v.4707c0,.67676,.55078,1.22754,1.22852,1.22754h10.4502c.67676,0,1.22754-.55078,1.22754-1.22754v-.4707c0-.67773-.55078-1.22852-1.22754-1.22852h-1.46387v-2.63574h3.33984c.23438,0,.4248-.19043,.4248-.4248s-.19043-.4248-.4248-.4248Zm-1.49805,4.71387v.4707c0,.20801-.16992,.37793-.37793,.37793H8.29004c-.20898,0-.37891-.16992-.37891-.37793v-.4707c0-.20898,.16992-.37891,.37891-.37891h10.4502c.20801,0,.37793,.16992,.37793,.37891Zm-2.69141-1.22852h-5.82422v-2.63574h5.82422v2.63574Z"/><path class="cls-1" d="M.44629,3.08301c.23438,0,.4248-.19043,.4248-.4248v-.89746c0-.50195,.40918-.91113,.91113-.91113H25.66211c.50195,0,.91113,.40918,.91113,.91113V11.84766c0,.23438,.19043,.4248,.4248,.4248s.4248-.19043,.4248-.4248V1.76074c0-.9707-.79004-1.76074-1.76074-1.76074H1.78223C.81152,0,.02148,.79004,.02148,1.76074v.89746c0,.23438,.19043,.4248,.4248,.4248Z"/><path class="cls-1" d="M16.23145,11.40723h2.34668c1.16211,0,2.10742-.94531,2.10742-2.10742,0-.59766-.25293-1.16016-.69043-1.55664,.05273-.22168,.0791-.44531,.0791-.66895,0-1.45801-1.07715-2.68652-2.49414-2.90137-.65234-1.24121-1.94336-2.03027-3.35645-2.03027-1.41211,0-2.69238,.77832-3.3457,2.00879-.09668-.00977-.19531-.01367-.29297-.01367-.11914,0-2.9209,.03516-3.10645,3.08105v.00098c-.00195,.02832-.00293,.05664-.00293,.08398-.85254,.27637-1.45508,1.07324-1.45508,1.99609,0,1.16211,.94531,2.10742,2.10742,2.10742h3.16602v1.34375l-1.03223,.80634c-.21826-.13275-.47168-.21356-.74512-.21356-.79492,0-1.44141,.64648-1.44141,1.44141s.64648,1.44141,1.44141,1.44141,1.44141-.64648,1.44141-1.44141c0-.2113-.04834-.41058-.13037-.59155l1.15283-.90063c.10352-.08105,.16309-.2041,.16309-.33496v-1.55078h1.1416v3.05103c-.59424,.17798-1.03125,.72327-1.03125,1.37476,0,.79492,.64648,1.44141,1.44141,1.44141,.7959,0,1.44238-.64648,1.44238-1.44141,0-.64087-.42285-1.17883-1.00293-1.36578v-3.06h1.24707v1.55078c0,.11523,.04688,.22559,.12891,.30566l.87549,.84686c-.10791,.20221-.17529,.42963-.17529,.67462,0,.79492,.64648,1.44141,1.44141,1.44141s1.44141-.64648,1.44141-1.44141-.64648-1.44141-1.44141-1.44141c-.23975,0-.4624,.06427-.66113,.16809l-.75977-.7345v-1.37012Zm-6.71484,3.96973c-.32617,0-.5918-.26562-.5918-.5918s.26562-.5918,.5918-.5918,.5918,.26562,.5918,.5918-.26562,.5918-.5918,.5918Zm4.17871,1.04785c-.32617,0-.5918-.26562-.5918-.5918s.26562-.5918,.5918-.5918c.32715,0,.59277,.26562,.59277,.5918s-.26562,.5918-.59277,.5918Zm-6.8252-7.125c0-.63281,.47852-1.16699,1.11328-1.24121,.11328-.0127,.21582-.08301,.28516-.1748,.07031-.09082,.09863-.21777,.08203-.33105-.01465-.10254-.02832-.2002-.02441-.28125,.13574-2.21973,2.04199-2.28418,2.25879-2.28418,.1543,0,.30762,.01562,.45508,.0459,.19434,.03809,.39648-.06445,.47754-.25,.46191-1.08789,1.52344-1.79102,2.70605-1.79102,1.16016,0,2.21582,.6875,2.6875,1.75098,.06445,.14453,.2041,.24121,.36133,.25098,1.09473,.07031,1.95215,.98438,1.95215,2.08008,0,.22949-.04004,.45996-.11816,.6875-.06348,.18262,.00488,.38477,.16602,.49219,.35254,.23535,.56348,.62598,.56348,1.0459,0,.69336-.56445,1.25781-1.25781,1.25781H8.12793c-.69336,0-1.25781-.56445-1.25781-1.25781Zm11.37402,5.48535c0,.32617-.26562,.5918-.5918,.5918s-.5918-.26562-.5918-.5918,.26562-.5918,.5918-.5918,.5918,.26562,.5918,.5918Z"/><path class="cls-1" d="M.44629,4.86511c.24707,0,.44629-.19958,.44629-.44641,0-.24677-.19922-.44635-.44629-.44635s-.44629,.19958-.44629,.44635c0,.24683,.19922,.44641,.44629,.44641Z"/></g></g></svg>