<?xml version="1.0" encoding="UTF-8"?><svg id="Layer_2" xmlns="http://www.w3.org/2000/svg" viewBox="0 0 31.39649 25.03125"><defs><style>.cls-1{fill:#783cbe;}</style></defs><g id="Layer_1-2"><g><path class="cls-1" d="M30.73926,15.93066l-.78125,.02051c-.15137-.29199-.33789-.56152-.55762-.80664l.29395-.72363c.07129-.17383,.01953-.37402-.12695-.49121-.40723-.32715-.86133-.58594-1.35156-.76953-.17578-.06348-.37402-.00781-.4873,.1416l-.47168,.62402c-.32422-.06348-.65137-.08691-.97852-.06641l-.38184-.68164c-.09277-.16309-.27246-.24707-.46387-.20703-.51074,.11426-.99707,.30859-1.44434,.57715-.16113,.09668-.23926,.28711-.19336,.46973l.19336,.75684c-.12402,.10547-.24316,.21973-.35547,.3418-.11035,.12207-.21387,.24902-.30664,.38184l-.77148-.12598c-.17969-.03125-.36816,.06445-.4502,.2334-.22949,.4707-.38086,.97266-.44824,1.49023-.02539,.18652,.0752,.36621,.24609,.44336l.71289,.32031c.00879,.32812,.06055,.65234,.15234,.96875l-.58008,.52441c-.13965,.12695-.17969,.3291-.09863,.49902,.22559,.4707,.52344,.90039,.88574,1.27832,.12988,.13574,.33496,.16895,.50098,.08301l.69531-.35645c.26367,.19727,.54883,.36035,.85156,.48438l.04883,.78027c.01172,.1875,.14453,.3457,.32812,.3877,.36523,.08398,.73535,.12695,1.10449,.12695,.14941,0,.29883-.00781,.44727-.02148,.1875-.0166,.34082-.15527,.37793-.33887l.1543-.76562c.31934-.08203,.62402-.2041,.91113-.36426l.63867,.44824c.15527,.10645,.36035,.10156,.50781-.01562,.20117-.15918,.39258-.33594,.57129-.53125,.17871-.19434,.33789-.40039,.47852-.61426,.10352-.15723,.0918-.36328-.0293-.50781l-.50195-.59863c.13379-.2998,.22852-.61426,.28223-.93945l.75-.21973c.18066-.05371,.30469-.21875,.30469-.40723,.00098-.52246-.08008-1.03906-.24219-1.53613-.05957-.17871-.22754-.31348-.41504-.29297Zm-.90332,1.71875c-.16699,.0498-.28711,.19629-.30273,.36914-.03809,.41309-.15625,.80566-.35156,1.16699-.08301,.15332-.06348,.3418,.04883,.47559l.46875,.55859c-.06738,.08594-.13867,.1709-.21387,.25391-.0752,.08203-.15332,.16016-.2334,.23438l-.59668-.41797c-.14258-.09961-.33203-.10156-.47852-.00586-.34277,.22656-.72363,.37793-1.13086,.45215-.17188,.03027-.30664,.16309-.3418,.33398l-.14355,.71484c-.21777,.00293-.44141-.0127-.66113-.0459l-.0459-.72754c-.01074-.17383-.12695-.32422-.29199-.37793-.39062-.12695-.74707-.3291-1.05957-.60254-.13086-.11426-.31836-.13477-.47363-.05762l-.64844,.33301c-.14062-.1709-.26758-.35352-.37793-.54492l.54102-.48926c.12891-.11719,.17383-.30078,.11328-.46387-.14453-.3877-.20898-.79199-.18945-1.20312,.00781-.17383-.0918-.33594-.25-.40723l-.66504-.2998c.0459-.21582,.10938-.42871,.19043-.63477l.71973,.11719c.17285,.0293,.34375-.05176,.43359-.20117,.10254-.17188,.22559-.33691,.36523-.49023,.13965-.15234,.29297-.28906,.45703-.40723,.1416-.10254,.20605-.28027,.16309-.4502l-.18066-.70605c.19824-.09863,.40332-.18066,.61523-.24609l.35645,.63672c.08496,.15039,.25098,.24023,.42773,.21289,.40918-.05566,.81738-.02637,1.2168,.08301,.16602,.04297,.34473-.01562,.45117-.15332l.44043-.58203c.2002,.09375,.39258,.20312,.5752,.32812l-.27441,.67578c-.06543,.16113-.02637,.3457,.09961,.4668,.29785,.28711,.53125,.62402,.69336,1.00195,.06738,.16113,.22363,.24902,.40137,.25781l.72852-.01855c.05273,.21484,.08691,.43457,.10352,.65527l-.69922,.20508Z"/><path class="cls-1" d="M26.40918,15.57324c-.58008,.02539-1.11523,.27539-1.50684,.70312-.80859,.88379-.74805,2.26074,.13477,3.06934,.4043,.36914,.9209,.57031,1.46484,.57031,.03223,0,.06543-.00098,.09766-.00293,.58008-.02539,1.11523-.27539,1.50684-.70312,.80859-.88281,.74805-2.25879-.13477-3.06836-.42871-.39258-.99316-.60059-1.5625-.56836Zm1.07031,3.0625c-.23828,.26074-.56445,.41309-.91699,.42871-.37012,.02148-.69141-.10742-.95117-.3457-.53711-.49219-.57422-1.33008-.08203-1.86816,.23828-.26074,.56445-.41309,.91699-.42871,.35938-.00098,.69043,.10742,.95117,.34668,.53711,.49219,.57422,1.33008,.08203,1.86719Z"/><path class="cls-1" d="M21.84277,4.39258c.2207,.13281,.46777,.20117,.71875,.20117,.11426,0,.22949-.01465,.34277-.04297,.36426-.09082,.67188-.31836,.86426-.63965,.19336-.32129,.24902-.69922,.15723-1.0625-.09082-.36328-.31738-.66992-.63965-.8623-.32129-.19336-.70117-.25-1.06152-.1582-.36426,.09082-.6709,.31738-.86328,.63965-.19189,.31873-.24658,.6922-.15869,1.05286l-3.85059,1.91882c-.2373-.18445-.53174-.29883-.85498-.29883-.43018,0-.81104,.19891-1.06885,.50488l-3.81152-1.47437c.00049-.01862,.00537-.03613,.00537-.05493,0-.77344-.62988-1.40332-1.40332-1.40332s-1.40332,.62988-1.40332,1.40332c0,.15643,.03174,.30438,.0791,.44507l-3.43848,2.78503c-.25684-.28912-.62744-.47522-1.04395-.47522-.77344,0-1.40332,.62988-1.40332,1.40332s.62988,1.40332,1.40332,1.40332,1.40332-.62988,1.40332-1.40332c0-.03967-.0083-.07703-.01172-.11584l3.59326-2.91046c.23145,.16876,.51416,.27142,.82178,.27142,.45117,0,.84863-.21783,1.10547-.54974l3.78076,1.46222c-.00293,.03754-.01123,.07361-.01123,.11194,0,.77344,.62988,1.40332,1.40332,1.40332s1.40332-.62988,1.40332-1.40332c0-.13818-.02637-.2691-.06348-.39539l3.7998-1.89368c.01123-.00568,.01807-.01593,.02881-.02246,.06055,.05225,.10693,.11823,.17725,.16016ZM4.41211,8.82812c-.30566,0-.55371-.24805-.55371-.55371s.24805-.55371,.55371-.55371,.55371,.24805,.55371,.55371-.24805,.55371-.55371,.55371Zm5.80664-4.1582c-.30566,0-.55371-.24805-.55371-.55371s.24805-.55371,.55371-.55371,.55371,.24805,.55371,.55371-.24805,.55371-.55371,.55371Zm11.87109-1.76562c.07617-.12695,.19727-.21582,.33984-.25195,.04492-.01074,.08984-.0166,.13477-.0166,.24805,0,.47461,.16797,.53711,.41895v.00098c.03613,.14355,.01367,.29199-.06152,.41797-.07617,.12695-.19727,.2168-.34082,.25293-.29004,.07227-.59766-.10547-.67188-.40234-.03516-.14355-.01367-.29297,.0625-.41992Zm-5.59277,4.19336c-.30566,0-.55371-.24805-.55371-.55371s.24805-.55371,.55371-.55371,.55371,.24805,.55371,.55371-.24805,.55371-.55371,.55371Z"/><path class="cls-1" d="M10.2998,17.0293c.23438,0,.4248-.19043,.4248-.4248v-5.87598c0-.23438-.19043-.4248-.4248-.4248h-2.94824c-.23438,0-.4248,.19043-.4248,.4248v5.87598c0,.23438,.19043,.4248,.4248,.4248h2.94824Zm-2.52344-5.87598h2.09863v5.02637h-2.09863v-5.02637Z"/><path class="cls-1" d="M15.18848,17.0293c.23438,0,.4248-.19043,.4248-.4248v-4.39355c0-.23438-.19043-.4248-.4248-.4248h-2.94824c-.23438,0-.4248,.19043-.4248,.4248v4.39355c0,.23438,.19043,.4248,.4248,.4248h2.94824Zm-2.52344-4.39355h2.09863v3.54395h-2.09863v-3.54395Z"/><path class="cls-1" d="M20.07715,17.0293c.23438,0,.4248-.19043,.4248-.4248v-7.55664c0-.23438-.19043-.4248-.4248-.4248h-2.94824c-.23438,0-.4248,.19043-.4248,.4248v7.55664c0,.23438,.19043,.4248,.4248,.4248h2.94824Zm-2.52344-7.55664h2.09863v6.70703h-2.09863v-6.70703Z"/><path class="cls-1" d="M20.64648,18.61035H1.78418c-.50293,0-.91309-.41016-.91309-.91309V6.98535c0-.23438-.19043-.4248-.4248-.4248s-.4248,.19043-.4248,.4248v10.71191c0,.97168,.79102,1.7627,1.7627,1.7627h7.98438v2.6416h-1.46777c-.67676,0-1.22754,.55078-1.22754,1.22852v.47363c0,.67676,.55078,1.22754,1.22754,1.22754h10.46875c.67676,0,1.22754-.55078,1.22754-1.22754v-.47363c0-.67773-.55078-1.22852-1.22754-1.22852h-1.46777v-2.6416h3.34473c.23438,0,.4248-.19043,.4248-.4248s-.19043-.4248-.4248-.4248Zm-1.49902,4.71973v.47363c0,.20801-.16992,.37793-.37793,.37793H8.30078c-.20801,0-.37793-.16992-.37793-.37793v-.47363c0-.20898,.16992-.37891,.37793-.37891h10.46875c.20801,0,.37793,.16992,.37793,.37891Zm-2.69531-1.22852h-5.83398v-2.6416h5.83398v2.6416Z"/><path class="cls-1" d="M.44629,3.88574c.23438,0,.4248-.19043,.4248-.4248V1.76367c0-.50391,.41016-.91406,.91309-.91406H25.70117c.50293,0,.91309,.41016,.91309,.91406V11.86523c0,.23438,.19043,.4248,.4248,.4248s.4248-.19043,.4248-.4248V1.76367c0-.97266-.79102-1.76367-1.7627-1.76367H1.78418C.8125,0,.02148,.79102,.02148,1.76367v1.69727c0,.23438,.19043,.4248,.4248,.4248Z"/><path class="cls-1" d="M.44629,5.66772c.24707,0,.44629-.19952,.44629-.44641,0-.24677-.19922-.44635-.44629-.44635-.24658,0-.44629,.19958-.44629,.44635,0,.24689,.19971,.44641,.44629,.44641Z"/></g></g></svg>