<?xml version="1.0" encoding="UTF-8"?><svg id="Layer_2" xmlns="http://www.w3.org/2000/svg" viewBox="0 0 27.5332 25.00098"><defs><style>.cls-1{fill:#783cbe;}</style></defs><g id="Layer_1-2"><g><path class="cls-1" d="M4.30664,7.63379c.12402,.48242,.3252,.94141,.59766,1.36426,.10156,.15723,.29492,.23047,.47559,.17773l.70312-.20312c.20605,.22656,.4375,.42676,.69336,.5957l-.0957,.72656c-.02441,.18555,.07715,.36621,.24902,.44238,.45605,.2041,.93945,.33301,1.4375,.38379,.01465,.00098,.02832,.00195,.04297,.00195,.1709,0,.32715-.10254,.39258-.2627l.2793-.67676c.30664-.01953,.60742-.07617,.89941-.1709l.50781,.52637c.13086,.13574,.33691,.16797,.50098,.08301,.21777-.11328,.43066-.24414,.63281-.39453,.2041-.15039,.3916-.31445,.56445-.49121,.13086-.13477,.1582-.33887,.06738-.50293l-.35449-.63965c.17578-.25195,.31738-.52246,.42578-.80957l.72949-.06934c.18652-.01758,.33984-.15625,.37695-.33984,.09668-.48926,.11523-.98926,.05371-1.4873-.02344-.18652-.16602-.33594-.35156-.36719l-.72168-.12109c-.08691-.29297-.20996-.57324-.36719-.83789l.40039-.6123c.10254-.15723,.09082-.36328-.03027-.50684-.32324-.38281-.70312-.70898-1.12891-.9707-.16309-.09863-.36719-.08008-.50684,.0459l-.54492,.48926c-.28418-.11523-.58008-.19434-.88379-.23633l-.22949-.69531c-.05957-.17773-.22168-.31836-.41504-.29102-.50098,.01465-.99316,.10742-1.46191,.27734-.17676,.06348-.29004,.23633-.2793,.42383l.04102,.73145c-.13281,.0752-.26172,.1582-.38281,.24902-.12305,.08984-.24023,.18945-.35254,.29492l-.68652-.25391c-.17285-.06445-.375-.00684-.4873,.14258-.30078,.40039-.53418,.84375-.69336,1.31836-.05957,.17773,.00488,.37305,.1582,.48145l.59766,.42285c-.0498,.30273-.06055,.6084-.03418,.91406l-.62695,.37793c-.16016,.09766-.23828,.28809-.19238,.46973Zm1.49512-.2627c.14941-.09082,.22852-.26172,.19922-.43359-.06348-.38477-.04883-.77344,.04297-1.15234,.04102-.16992-.02539-.34668-.16797-.44727l-.55371-.39258c.07812-.18262,.1709-.3584,.27734-.52734l.63574,.23535c.16016,.05957,.34668,.01562,.46289-.11328,.12793-.1416,.27051-.27246,.43066-.39062,.15527-.11523,.32227-.21484,.49805-.2959,.15723-.07422,.25488-.23633,.24414-.41016l-.03809-.67676c.19141-.05273,.3877-.08984,.58594-.11133l.21289,.64453c.05469,.16504,.2041,.28027,.37793,.29004,.38867,.02344,.76367,.12402,1.11426,.29883,.15723,.0752,.34375,.05078,.47363-.06445l.50488-.45312c.16016,.11719,.31152,.24707,.45215,.38867l-.37109,.56836c-.0957,.14551-.09277,.33496,.00781,.47656,.22656,.32129,.38184,.67676,.46289,1.05664,.03711,.1709,.17383,.30176,.3457,.33008l.66797,.1123c.00879,.19922,.00195,.39844-.02051,.5957l-.67676,.06445c-.17383,.01562-.31934,.13672-.36816,.30469-.1084,.375-.28906,.71875-.53711,1.02051-.11035,.13477-.12695,.32324-.04297,.47559l.3291,.59277c-.07422,.06445-.15234,.12695-.2334,.18652-.08008,.05957-.16211,.11523-.24609,.16797l-.4707-.48828c-.12012-.12695-.30664-.16406-.46777-.09766-.34668,.14258-.71191,.21484-1.08691,.21484-.01758,0-.04102,.00195-.05176,0-.17188,0-.32715,.10352-.39258,.2627l-.25879,.62793c-.19629-.03711-.38867-.08789-.57715-.1543l.08887-.67285c.02246-.17188-.0625-.34082-.21484-.42578-.34082-.18945-.63477-.44238-.87402-.75098-.10742-.13867-.28516-.19824-.4541-.14844l-.65234,.18848c-.09375-.17578-.17383-.3584-.23926-.5459l.58105-.35059Z"/><path class="cls-1" d="M8.53027,8.53027c.10547,.01562,.20996,.02344,.31445,.02344,.44336,0,.875-.1416,1.23828-.41016,.92578-.68555,1.12207-1.99609,.4375-2.92285-.68555-.92676-1.99609-1.12109-2.92383-.4375-.92578,.68555-1.12207,1.99609-.43652,2.92285,.33203,.44824,.81836,.74121,1.37012,.82422Zm-.42773-3.06348c.2207-.16406,.47949-.24316,.73535-.24316,.38086,0,.75586,.17383,.99902,.50293,.40625,.54883,.29004,1.32715-.25977,1.7334-.2666,.19629-.58691,.28125-.9209,.22949-.32715-.04883-.61621-.22266-.8125-.48926-.40625-.5498-.29102-1.32715,.25879-1.7334Z"/><path class="cls-1" d="M17.94629,9.38867c-1.38574,0-2.5127,1.12695-2.5127,2.5127s1.12695,2.5127,2.5127,2.5127,2.5127-1.12695,2.5127-2.5127-1.12695-2.5127-2.5127-2.5127Zm0,4.17578c-.91699,0-1.66309-.74609-1.66309-1.66309s.74609-1.66309,1.66309-1.66309,1.66309,.74609,1.66309,1.66309-.74609,1.66309-1.66309,1.66309Z"/><path class="cls-1" d="M22.73633,8.93555c-.32617-.51562-.72949-.97168-1.19727-1.35645-.14551-.11914-.35156-.12891-.50684-.02344l-.80371,.54102c-.17871-.10449-.3623-.19727-.5498-.27637-.18945-.08008-.38477-.14746-.58398-.20117l-.1748-.95215c-.03418-.18555-.18555-.32617-.37207-.34668-.60352-.06348-1.20996-.03418-1.80566,.09277-.18359,.04004-.31934,.19531-.33496,.38184l-.07715,.96484c-.38574,.14648-.74707,.34277-1.0791,.58887l-.85547-.45801c-.16309-.08594-.36816-.05762-.50195,.0752-.42969,.43262-.78418,.92773-1.05371,1.46973-.08301,.16797-.04688,.37109,.08984,.49902l.70703,.66309c-.12793,.39453-.19922,.7998-.21387,1.21094l-.88965,.38184c-.17383,.07422-.27734,.25293-.25488,.44043,.07031,.60547,.23535,1.19043,.49023,1.73926,.07812,.16992,.25879,.26758,.44629,.24219l.95898-.13867c.22852,.34473,.50098,.65332,.81445,.92188l-.25684,.93359c-.0498,.18164,.02637,.37402,.18555,.47363,.25781,.15918,.52832,.2998,.80371,.41602,.27051,.11426,.56055,.20996,.8623,.28418,.0332,.00879,.06738,.0127,.10156,.0127,.14844,0,.28906-.07812,.36719-.20996l.48828-.83594c.41309,.03516,.82324,.01465,1.22754-.06348l.57129,.7832c.11133,.15234,.31055,.21191,.48535,.15039,.56934-.20117,1.10352-.49219,1.58691-.86523,.14844-.11523,.2041-.31445,.13672-.49023l-.34863-.90332c.2832-.29883,.52344-.63281,.71582-.99902l.96777,.04199c.22363-.01074,.3584-.1084,.41992-.28516,.2002-.57617,.30566-1.17578,.31445-1.78125,.00293-.1875-.11816-.35547-.29785-.41113l-.88086-.27734c-.01953-.26074-.09375-.54199-.16211-.75488-.05469-.1709-.12988-.33301-.19824-.46191l.61914-.70996c.12305-.1416,.13965-.34766,.03906-.50684Zm.0166,3.42383c-.02441,.30371-.07812,.60547-.16016,.90137l-.91895-.04004c-.21777-.00879-.33496,.0918-.40625,.25098-.2041,.4541-.49121,.85547-.85449,1.19141-.12695,.11816-.16992,.30176-.10742,.46484l.33105,.85742c-.25488,.17188-.52344,.31934-.80371,.43945l-.54199-.74414c-.10254-.14062-.28125-.20801-.4502-.16113-.4834,.12305-.97461,.14844-1.46387,.0752-.1709-.03027-.3418,.05566-.43066,.20508l-.46289,.79395c-.14453-.0459-.28906-.09766-.43164-.1582-.1416-.05957-.28027-.12598-.41309-.19727l.24316-.88672c.0459-.16797-.01562-.34766-.15527-.45215-.39453-.29688-.7207-.66602-.96973-1.09863-.08594-.15039-.25684-.23438-.42871-.20898l-.91113,.13184c-.11035-.28418-.19336-.5791-.24805-.88086l.84473-.3623c.16113-.06836,.2627-.22852,.25781-.40332-.01465-.49316,.07129-.97852,.25488-1.44238,.06348-.16211,.02246-.34668-.10449-.46582l-.67188-.63086c.15332-.26367,.33203-.5127,.5332-.74316l.81152,.43457c.14941,.08008,.34082,.0625,.47363-.0498,.38184-.32031,.81445-.55664,1.28809-.70215,.16602-.05078,.28516-.19824,.29883-.37207l.07324-.91699c.30371-.04395,.61426-.05859,.91406-.04688l.16602,.9043c.03125,.17188,.16406,.30664,.33496,.34082,.24121,.04785,.47754,.12109,.70508,.2168,.22461,.09473,.44238,.21289,.64746,.35254,.14453,.09766,.33398,.09668,.47656,.00098l.7627-.51367c.22363,.20898,.42578,.43848,.60645,.68652l-.60449,.69336c-.12598,.14453-.13965,.35547-.0332,.51562,.00195,.00195,.17773,.26758,.2627,.53418,.10449,.32812,.12109,.61328,.12012,.71387-.0166,.07422-.0127,.15332,.0127,.22852,.04883,.14355,.16797,.24512,.30664,.27734l.84668,.2666Z"/><path class="cls-1" d="M25.7666,0H1.78809C.81348,0,.02148,.79199,.02148,1.7666v.86426c0,.23438,.19043,.4248,.4248,.4248s.4248-.19043,.4248-.4248v-.86426c0-.50586,.41113-.91699,.91699-.91699H25.7666c.50586,0,.91699,.41113,.91699,.91699v15.97559c0,.50586-.41113,.91699-.91699,.91699H1.78809c-.50586,0-.91699-.41113-.91699-.91699V6.14648c0-.23438-.19043-.4248-.4248-.4248s-.4248,.19043-.4248,.4248v11.5957c0,.97461,.79199,1.7666,1.7666,1.7666H10.12305v2.63281h-1.36328c-.68457,0-1.24219,.55762-1.24219,1.24219v.375c0,.68457,.55762,1.24219,1.24219,1.24219h10.03516c.68457,0,1.24219-.55762,1.24219-1.24219v-.375c0-.68457-.55762-1.24219-1.24219-1.24219h-1.3623v-2.63281h8.33398c.97461,0,1.7666-.79199,1.7666-1.7666V1.7666c0-.97461-.79199-1.7666-1.7666-1.7666Zm-6.5791,23.38379v.375c0,.2168-.17578,.39258-.39258,.39258H8.75977c-.2168,0-.39258-.17578-.39258-.39258v-.375c0-.2168,.17578-.39258,.39258-.39258h10.03516c.2168,0,.39258,.17578,.39258,.39258Zm-2.60449-1.24219h-5.61035v-2.63281h5.61035v2.63281Z"/><path class="cls-1" d="M.44678,4.82159c.24658,0,.44629-.19958,.44629-.44641s-.19971-.44635-.44629-.44635c-.24707,0-.44678,.19952-.44678,.44635s.19971,.44641,.44678,.44641Z"/></g></g></svg>