<?xml version="1.0" encoding="UTF-8"?><svg id="Layer_2" xmlns="http://www.w3.org/2000/svg" viewBox="0 0 27.5293 24.99805"><defs><style>.cls-1{fill:#783cbe;}</style></defs><g id="Layer_1-2"><g><path class="cls-1" d="M14.00244,10.5824c.28564,.0166,.53027-.20129,.54736-.48676,.0166-.28546-.20166-.5304-.48682-.54706-.28564-.0166-.53076,.20129-.54736,.48682-.0166,.28546,.20166,.53033,.48682,.547Z"/><path class="cls-1" d="M25.7627,0H1.78711C.81348,0,.02148,.79199,.02148,1.7666v1.0127c0,.23438,.19043,.4248,.4248,.4248s.4248-.19043,.4248-.4248V1.7666c0-.50586,.41113-.91699,.91602-.91699H25.7627c.50586,0,.91699,.41113,.91699,.91699v15.97363c0,.50488-.41113,.91602-.91699,.91602H1.78711c-.50488,0-.91602-.41113-.91602-.91602V6.29785c0-.23438-.19043-.4248-.4248-.4248s-.4248,.19043-.4248,.4248v11.44238c0,.97363,.79199,1.76562,1.76562,1.76562H10.12109v2.63281h-1.3623c-.68555,0-1.24316,.55762-1.24316,1.24219v.37402c0,.68555,.55762,1.24316,1.24316,1.24316h10.0332c.68457,0,1.24219-.55762,1.24219-1.24316v-.37402c0-.68457-.55762-1.24219-1.24219-1.24219h-1.3623v-2.63281h8.33301c.97461,0,1.7666-.79199,1.7666-1.76562V1.7666c0-.97461-.79199-1.7666-1.7666-1.7666Zm-6.57812,23.38086v.37402c0,.2168-.17578,.39355-.39258,.39355H8.75879c-.2168,0-.39355-.17676-.39355-.39355v-.37402c0-.2168,.17676-.39258,.39355-.39258h10.0332c.2168,0,.39258,.17578,.39258,.39258Zm-2.60449-1.24219h-5.60938v-2.63281h5.60938v2.63281Z"/><path class="cls-1" d="M13.99219,13.10156c1.64648,0,2.98535-1.33887,2.98535-2.98535s-1.33887-2.98535-2.98535-2.98535-2.98535,1.33887-2.98535,2.98535,1.33887,2.98535,2.98535,2.98535Zm0-5.12109c1.17773,0,2.13574,.95801,2.13574,2.13574s-.95801,2.13574-2.13574,2.13574-2.13574-.95801-2.13574-2.13574,.95801-2.13574,2.13574-2.13574Z"/><path class="cls-1" d="M13.99219,14.25879c4.07031,0,7.28809-3.70801,7.42383-3.86621,.13574-.15918,.13574-.39355,0-.55273-.13574-.1582-3.35352-3.86621-7.42383-3.86621-4.07129,0-7.28906,3.70898-7.42383,3.86621-.13574,.15918-.13574,.39355,0,.55273,.13477,.15723,3.35254,3.86621,7.42383,3.86621Zm0-7.43555c3.0625,0,5.70703,2.45508,6.52051,3.29297-.81348,.83789-3.45801,3.29297-6.52051,3.29297-3.06348,0-5.70703-2.45508-6.52051-3.29297,.81348-.83789,3.45703-3.29297,6.52051-3.29297Z"/><path class="cls-1" d="M.44629,4.99969c.24658,0,.44629-.19958,.44629-.44641s-.19971-.44635-.44629-.44635c-.24707,0-.44629,.19952-.44629,.44635s.19922,.44641,.44629,.44641Z"/></g></g></svg>