<?xml version="1.0" encoding="UTF-8"?><svg id="Layer_2" xmlns="http://www.w3.org/2000/svg" viewBox="0 0 34.677 22.71973"><defs><style>.cls-1{fill:#783cbe;}</style></defs><g id="Layer_1-2"><g><path class="cls-1" d="M33.49902,12.01465c-.12891-.14258-.30957-.22656-.50977-.2373-.2334,.00098-.47949,.0791-.66895,.25098l-1.43213,1.29559c0,.00018-.00049,.00012-.00049,.00031l-7.4707,6.66895c-.00928,.00836-.01318,.02002-.02148,.02899-.02002,.02087-.03613,.04376-.05176,.06885-.01465,.02386-.02734,.04718-.03711,.07306-.00439,.0119-.01318,.02069-.0166,.0332l-.54688,1.98438c-.03809,.14062-.00293,.29102,.09473,.39844,.08203,.08984,.19629,.13965,.31543,.13965,.02344,0,.04785-.00195,.07129-.00586l2.0293-.34668c.0127-.00208,.02197-.00989,.03369-.013,.0293-.00751,.05664-.01837,.08398-.03229,.02344-.01184,.04492-.02411,.06543-.03973,.00928-.00696,.02002-.00964,.02881-.01752l7.54883-6.74707c.00391-.00354,.00537-.00861,.00928-.01227,.00732-.00562,.01709-.00305,.02393-.00922l1.29492-1.17285c.38379-.34668,.44531-.88281,.1416-1.2207l-.98535-1.08789Zm-9.42188,8.52966l7.13086-6.36548,.91895,.99329-7.13574,6.37775-1.25098,.21381,.33691-1.21936Zm8.68506-5.93689l-.93555-1.01111,1.04053-1.01233,.90527,1.1084-1.01025,.91504Z"/><path class="cls-1" d="M21.15332,20.62793l-18.53027-.08203c-.96582,0-1.75195-.77148-1.75195-1.71973V7.27734c0-.23438-.19043-.4248-.4248-.4248s-.4248,.19043-.4248,.4248v11.54883c0,1.41699,1.16699,2.56934,2.59961,2.56934l18.52832,.08203h.00195c.2334,0,.42383-.18848,.4248-.42285s-.18848-.42578-.42285-.42676Z"/><path class="cls-1" d="M.49512,4.17383c.23438,0,.4248-.19043,.4248-.4248l-.00977-1.54102c.17383-.78711,.89453-1.3584,1.71289-1.3584H25.71582c.9668,0,1.75293,.77246,1.75293,1.7207V13.71875c0,.23438,.19043,.4248,.4248,.4248s.4248-.19043,.4248-.4248V2.57031c0-1.41699-1.16699-2.57031-2.60254-2.57031H2.62305C1.40918,0,.33887,.85156,.07031,2.11621v1.63281c0,.23438,.19043,.4248,.4248,.4248Z"/><path class="cls-1" d="M5.46289,12.17383c-.23438,0-.4248,.19043-.4248,.4248v4.2207c0,.23438,.19043,.4248,.4248,.4248h2.75195c.23438,0,.4248-.19043,.4248-.4248v-4.2207c0-.23438-.19043-.4248-.4248-.4248h-2.75195Zm2.32715,4.2207h-1.90234v-3.37109h1.90234v3.37109Z"/><path class="cls-1" d="M10.32422,9.77441c-.23438,0-.4248,.19043-.4248,.4248v6.62012c0,.23438,.19043,.4248,.4248,.4248h2.75195c.23438,0,.4248-.19043,.4248-.4248v-6.62012c0-.23438-.19043-.4248-.4248-.4248h-2.75195Zm2.32715,6.62012h-1.90234v-5.77051h1.90234v5.77051Z"/><path class="cls-1" d="M17.93652,10.82031h-2.75098c-.23438,0-.4248,.19043-.4248,.4248v5.57422c0,.23438,.19043,.4248,.4248,.4248h2.75098c.23438,0,.4248-.19043,.4248-.4248v-5.57422c0-.23438-.19043-.4248-.4248-.4248Zm-.4248,5.57422h-1.90137v-4.72461h1.90137v4.72461Z"/><path class="cls-1" d="M20.0459,8.6416c-.23438,0-.4248,.19043-.4248,.4248v7.75293c0,.23438,.19043,.4248,.4248,.4248h2.75195c.23438,0,.4248-.19043,.4248-.4248v-7.75293c0-.23438-.19043-.4248-.4248-.4248h-2.75195Zm2.32715,7.75293h-1.90234v-6.90332h1.90234v6.90332Z"/><path class="cls-1" d="M23.83691,5.41406c.36621-.09082,.6748-.31934,.86914-.64355s.25098-.7041,.15918-1.07031c-.18945-.75391-.95898-1.21777-1.71387-1.02734-.36621,.0918-.6748,.32031-.86816,.64355-.19434,.32379-.25049,.70312-.15918,1.06787l-4.02881,2.39618c-.23779-.18121-.53076-.29315-.85205-.29315-.42578,0-.8042,.19385-1.06348,.49341l-4.05811-2.23206c.00146-.02722,.0083-.05304,.0083-.08069,0-.7793-.63379-1.41309-1.41309-1.41309s-1.41309,.63379-1.41309,1.41309c0,.15692,.03174,.3053,.0791,.44641l-3.84375,2.83234c-.25977-.29968-.6377-.49359-1.06445-.49359-.77832,0-1.41211,.63379-1.41211,1.41309,0,.77832,.63379,1.41211,1.41211,1.41211,.7793,0,1.41309-.63379,1.41309-1.41211,0-.03876-.0083-.07526-.01123-.11322l4.00537-2.95123c.23438,.17334,.52148,.2793,.83496,.2793,.44482,0,.83691-.21051,1.09619-.53247l4.03174,2.21741c-.00439,.04462-.01367,.08777-.01367,.13342,0,.7793,.63379,1.41309,1.41211,1.41309,.7793,0,1.41309-.63379,1.41309-1.41309,0-.14783-.0293-.28766-.07178-.42169l3.99854-2.37811c.00244-.00153,.00391-.00421,.00635-.0058,.06104,.05255,.10791,.11877,.17822,.16107,.22266,.13379,.47168,.20215,.72461,.20215,.11426,0,.23047-.01367,.34473-.04297ZM4.47461,9.42871c-.30957,0-.5625-.25293-.5625-.5625,0-.31055,.25293-.56348,.5625-.56348,.31055,0,.56348,.25293,.56348,.56348,0,.30957-.25293,.5625-.56348,.5625Zm6.24219-4.19727c-.31055,0-.56348-.25293-.56348-.56348s.25293-.56348,.56348-.56348,.56348,.25293,.56348,.56348-.25293,.56348-.56348,.56348Zm6.52637,3.23145c-.31055,0-.5625-.25293-.5625-.56348,0-.30957,.25195-.5625,.5625-.5625s.56348,.25293,.56348,.5625c0,.31055-.25293,.56348-.56348,.56348Zm5.96191-3.93652c-.12891-.07715-.2207-.2002-.25684-.34668-.03613-.14551-.01367-.29688,.06348-.42578s.2002-.21973,.3457-.25684c.0459-.01074,.0918-.0166,.13672-.0166,.25195,0,.48242,.1709,.54688,.42676,.03613,.14551,.01367,.29688-.06348,.42578s-.2002,.2207-.34668,.25684c-.14648,.03711-.29785,.01367-.42578-.06348Z"/><path class="cls-1" d="M.44629,5.9455c.24658,0,.44629-.19952,.44629-.44635s-.19971-.44641-.44629-.44641c-.24707,0-.44629,.19958-.44629,.44641s.19922,.44635,.44629,.44635Z"/></g></g></svg>