<?xml version="1.0" encoding="UTF-8"?><svg id="Layer_2" xmlns="http://www.w3.org/2000/svg" viewBox="0 0 28.35352 24.95117"><defs><style>.cls-1{fill:#783cbe;}</style></defs><g id="Layer_1-2"><g><path class="cls-1" d="M22.9375,8.93848h.99414c.23438,0,.4248-.19043,.4248-.4248s-.19043-.4248-.4248-.4248h-.99414c-.23438,0-.4248,.19043-.4248,.4248s.19043,.4248,.4248,.4248Z"/><path class="cls-1" d="M20.30859,8.93848h.99316c.23438,0,.4248-.19043,.4248-.4248s-.19043-.4248-.4248-.4248h-.99316c-.23438,0-.4248,.19043-.4248,.4248s.19043,.4248,.4248,.4248Z"/><path class="cls-1" d="M17.67871,8.93848h.99414c.23438,0,.4248-.19043,.4248-.4248s-.19043-.4248-.4248-.4248h-.99414c-.23438,0-.4248,.19043-.4248,.4248s.19043,.4248,.4248,.4248Z"/><path class="cls-1" d="M19.32227,19.91309H9.43164c-.23438,0-.4248,.19043-.4248,.4248s.19043,.4248,.4248,.4248h9.89062c.23438,0,.4248-.19043,.4248-.4248s-.19043-.4248-.4248-.4248Z"/><path class="cls-1" d="M17.56641,21.62793h-6.37891c-.23438,0-.4248,.19043-.4248,.4248s.19043,.4248,.4248,.4248h6.37891c.23438,0,.4248-.19043,.4248-.4248s-.19043-.4248-.4248-.4248Z"/><path class="cls-1" d="M26.48633,0H1.88965C.85938,0,.02148,.83789,.02148,1.86719v2.27246c0,.01489,.00684,.02747,.0083,.04193l-.0083,1.04889c-.00195,.23535,.18652,.42676,.4209,.42871h.00391c.2334,0,.42285-.1875,.4248-.4209l.0127-1.51074,26.61523,.00781,.00488,14.82129c0,.6814-.48682,1.25085-1.13086,1.38013V11.0957l-.00488-1.06122c.00049-.0083,.00488-.01532,.00488-.02374v-1.89746c0-.89844-.73047-1.62891-1.62891-1.62891H3.73828c-.89844,0-1.62988,.73047-1.62988,1.62891v1.89746c0,.02216,.00928,.04114,.0127,.06238l-.00977,9.87476c-.69629-.08423-1.24023-.67236-1.24023-1.39124V8.75098c0-.23438-.19043-.4248-.4248-.4248s-.4248,.19043-.4248,.4248v9.80566c0,1.18738,.92383,2.15277,2.08887,2.24078l-.00195,2.26019c0,1.04395,.87695,1.89355,1.95508,1.89355H24.41797c1.07812,0,1.95508-.84961,1.95508-1.89355v-2.27118c1.11328-.13855,1.98047-1.07965,1.98047-2.2298l-.00537-14.38965c.00049-.00952,.00537-.01764,.00537-.02734V1.86719c0-1.0293-.83789-1.86719-1.86719-1.86719ZM3.73828,7.33398H24.74414c.42969,0,.7793,.34961,.7793,.7793v1.47839l-22.56543-.00562v-1.47278c0-.42969,.35059-.7793,.78027-.7793ZM24.41797,24.10156H4.06348c-.60938,0-1.10547-.46875-1.10547-1.04395V11.10254l.00781-.66699,22.55469,.00586,.00293,12.61621c0,.5752-.49609,1.04395-1.10547,1.04395ZM.87109,2.87805V1.86719c0-.56055,.45703-1.01758,1.01855-1.01758H26.48633c.56055,0,1.01758,.45703,1.01758,1.01758v1.01843l-26.63281-.00757Z"/><path class="cls-1" d="M26.12207,1.44238h-1.19043c-.23438,0-.4248,.19043-.4248,.4248s.19043,.4248,.4248,.4248h1.19043c.23438,0,.4248-.19043,.4248-.4248s-.19043-.4248-.4248-.4248Z"/><path class="cls-1" d="M22.97266,1.44238h-1.19043c-.23438,0-.4248,.19043-.4248,.4248s.19043,.4248,.4248,.4248h1.19043c.23438,0,.4248-.19043,.4248-.4248s-.19043-.4248-.4248-.4248Z"/><path class="cls-1" d="M19.82324,1.44238h-1.18945c-.23438,0-.4248,.19043-.4248,.4248s.19043,.4248,.4248,.4248h1.18945c.23438,0,.4248-.19043,.4248-.4248s-.19043-.4248-.4248-.4248Z"/><path class="cls-1" d="M.44678,7.43073c.24658,0,.44629-.19952,.44629-.44641,0-.24677-.19971-.44635-.44629-.44635-.24707,0-.44678,.19958-.44678,.44635,0,.24689,.19971,.44641,.44678,.44641Z"/><path class="cls-1" d="M11.55811,15.13654c0,1.44641,1.17676,2.62311,2.62402,2.62311s2.62402-1.1767,2.62402-2.62311c0-1.44745-1.17676-2.62415-2.62402-2.62415s-2.62402,1.1767-2.62402,2.62415Zm4.40674,0c0,.9823-.79932,1.78192-1.78271,1.78192s-1.78271-.79962-1.78271-1.78192c0-.98334,.79932-1.78296,1.78271-1.78296s1.78271,.79962,1.78271,1.78296Z"/><path class="cls-1" d="M14.18213,11.51648c-3.52832,0-6.31299,3.21008-6.42969,3.34637-.13428,.15765-.13428,.38965,0,.5473,.1167,.13629,2.90137,3.34637,6.42969,3.34637s6.31299-3.21008,6.42969-3.34637c.13428-.15765,.13428-.38965,0-.5473-.1167-.13629-2.90137-3.34637-6.42969-3.34637Zm0,6.39886c-2.56982,0-4.79834-2.02948-5.53369-2.77881,.73535-.74939,2.96387-2.77887,5.53369-2.77887s4.79883,2.02948,5.53369,2.77887c-.73486,.74933-2.96387,2.77881-5.53369,2.77881Z"/><path class="cls-1" d="M13.76074,14.79871c-.16162,.21918-.11523,.52814,.104,.69006,.21924,.16187,.52832,.11542,.68994-.10382,.16211-.21924,.11572-.52814-.10352-.69006-.21924-.16187-.52832-.11542-.69043,.10382Z"/></g></g></svg>