<?xml version="1.0" encoding="UTF-8"?><svg id="Layer_2" xmlns="http://www.w3.org/2000/svg" viewBox="0 0 25.09277 25.09277"><defs><style>.cls-1{fill:#783cbe;}</style></defs><g id="Layer_3"><g><g><path class="cls-1" d="M12.5459,25.09277C5.62793,25.09277,0,19.46484,0,12.5459c0-1.98828,.45117-3.89062,1.34277-5.65332,.10449-.20898,.3623-.29395,.57031-.1875,.20996,.10547,.29395,.36133,.1875,.57031-.83008,1.64355-1.25098,3.41602-1.25098,5.27051,0,6.4502,5.24707,11.69727,11.69629,11.69727,6.4502,0,11.69727-5.24707,11.69727-11.69727C24.24316,6.09668,18.99609,.84961,12.5459,.84961c-3.24512,0-6.26074,1.29785-8.49219,3.65332-.16406,.17188-.43164,.17676-.60059,.0166-.1709-.16113-.17773-.43066-.0166-.60059C5.83008,1.3916,9.06543,0,12.5459,0c6.91895,0,12.54688,5.62793,12.54688,12.5459,0,6.91895-5.62793,12.54688-12.54688,12.54688Z"/><path class="cls-1" d="M2.24036,5.40557c.10328-.22206,.36642-.31866,.5885-.2154,.22201,.10326,.31865,.3664,.21537,.58846-.10328,.22207-.36642,.31866-.5885,.2154-.22201-.10326-.31865-.3664-.21537-.58846h0Z"/></g><g><path class="cls-1" d="M15.69629,19.74023h-6.2998c-2.1084,0-3.82422-1.71484-3.82422-3.82324v-6.30078c0-2.1084,1.71582-3.82422,3.82422-3.82422h6.2998c2.1084,0,3.82422,1.71582,3.82422,3.82422v6.30078c0,2.1084-1.71582,3.82324-3.82422,3.82324ZM9.39648,6.59277c-1.66699,0-3.02344,1.35645-3.02344,3.02344v6.30078c0,1.66699,1.35645,3.02246,3.02344,3.02246h6.2998c1.66699,0,3.02344-1.35547,3.02344-3.02246v-6.30078c0-1.66699-1.35645-3.02344-3.02344-3.02344h-6.2998Z"/><path class="cls-1" d="M12.53027,16.09473c-1.84375,0-3.34473-1.50098-3.34473-3.34473s1.50098-3.34473,3.34473-3.34473,3.34473,1.50098,3.34473,3.34473-1.50098,3.34473-3.34473,3.34473Zm0-5.88867c-1.40332,0-2.54395,1.14062-2.54395,2.54395s1.14062,2.54395,2.54395,2.54395,2.54395-1.14062,2.54395-2.54395-1.14062-2.54395-2.54395-2.54395Z"/><path class="cls-1" d="M15.99422,8.9138c0-.25034,.20242-.45277,.45278-.45277h0c.25036,0,.45278,.20242,.45278,.45277,0,.25038-.20242,.4528-.45278,.4528s-.45278-.20242-.45278-.4528"/></g></g></g></svg>