<?xml version="1.0" encoding="UTF-8"?><svg id="Layer_2" xmlns="http://www.w3.org/2000/svg" viewBox="0 0 25.0918 25.09277"><defs><style>.cls-1{fill:#783cbe;}</style></defs><g id="Layer_3"><g><g><path class="cls-1" d="M12.5459,25.09277C5.62793,25.09277,0,19.46484,0,12.5459c0-1.98828,.45117-3.89062,1.34277-5.65332,.10547-.20898,.3623-.29395,.57031-.1875,.20996,.10547,.29395,.36133,.1875,.57031-.83008,1.64355-1.25098,3.41602-1.25098,5.27051,0,6.4502,5.24707,11.69727,11.69629,11.69727s11.69629-5.24707,11.69629-11.69727C24.24219,6.09668,18.99512,.84961,12.5459,.84961c-3.24414,0-6.26074,1.29785-8.49316,3.65332-.16406,.17188-.43262,.17676-.60059,.0166-.1709-.16113-.17773-.43066-.0166-.60059C5.83008,1.3916,9.06543,0,12.5459,0c6.91797,0,12.5459,5.62793,12.5459,12.5459,0,6.91895-5.62793,12.54688-12.5459,12.54688Z"/><path class="cls-1" d="M2.24002,5.40557c.10328-.22206,.36642-.31866,.5885-.2154,.22201,.10326,.31865,.3664,.21537,.58846-.10328,.22207-.36642,.31866-.5885,.2154-.22201-.10326-.31865-.3664-.21537-.58846h0Z"/></g><path class="cls-1" d="M10.06641,17.66797h-2.77832c-.2207,0-.40039-.17969-.40039-.40039v-7.51855c0-.2207,.17969-.40039,.40039-.40039h2.77832c.2207,0,.40039,.17969,.40039,.40039v7.51855c0,.2207-.17969,.40039-.40039,.40039Zm-2.37793-.80078h1.97754v-6.71777h-1.97754v6.71777Z"/><path class="cls-1" d="M8.67773,9.02148c-.82324,0-1.49316-.66992-1.49316-1.49316,0-.82227,.66992-1.49219,1.49316-1.49219,.82227,0,1.49219,.66992,1.49219,1.49219,0,.82324-.66992,1.49316-1.49219,1.49316Zm0-2.18457c-.38184,0-.69238,.30957-.69238,.69141s.31055,.69238,.69238,.69238,.69141-.31055,.69141-.69238-.30957-.69141-.69141-.69141Z"/><path class="cls-1" d="M18.54785,17.66797h-2.2041c-.2207,0-.40039-.17969-.40039-.40039v-4.46289c.00488-.20703-.0459-.8418-.89453-.87891-.32324,.00098-.58008,.08691-.74609,.25781-.24316,.25098-.24414,.625-.24414,.62793l.00098,4.45605c0,.2207-.17969,.40039-.40039,.40039h-2.29688c-.2207,0-.40039-.17969-.40039-.40039v-7.51855c0-.21875,.17676-.39746,.39551-.40039l2.08789-.02344c.23047-.06641,.50293,.12988,.50293,.38672v.13184c1.07031-.61816,2.48926-.90625,3.8252-.16504,1.1748,.79688,1.1748,1.86719,1.1748,3.10742v4.48145c0,.2207-.17969,.40039-.40039,.40039Zm-1.80371-.80078h1.40332v-4.08105c0-1.37012-.06836-1.93457-.79199-2.42676-1.25391-.68945-2.66406-.17188-3.55566,.55371-.11816,.09668-.28613,.11816-.42383,.05078-.13965-.06641-.22852-.20703-.22852-.36133v-.47461l-1.38477,.0166v6.72266h1.49609v-4.04395c-.00195-.06055-.00586-.70703,.46973-1.19629,.32324-.33203,.77246-.50098,1.33789-.50098,1.43555,.0625,1.69629,1.24512,1.67676,1.69531l.00098,4.0459Z"/></g></g></svg>