<?xml version="1.0" encoding="UTF-8"?><svg id="Layer_2" xmlns="http://www.w3.org/2000/svg" viewBox="0 0 331.18778 331.18778"><defs><style>.cls-1{fill:#fff;}.cls-2{opacity:.2;}</style></defs><g id="Layer_1-2"><g id="Component_18_10"><path id="Path_393" class="cls-2" d="M165.59389,0c91.45498,0,165.59389,74.13891,165.59389,165.59389s-74.13892,165.59389-165.59389,165.59389S0,257.04887,0,165.59389,74.13891,0,165.59389,0Z"/><g id="Group_99"><rect id="Rectangle_1" class="cls-1" x="95.15439" y="130.48109" width="36.12707" height="100.95708"/><path id="Path_392" class="cls-1" d="M149.92449,130.45394h27.88198v14.02016s4.29171-14.14482,30.06215-14.14482c21.27871,0,36.4995,8.27936,36.4995,31.04885v70.02585h-29.77916s.1655-58.88956,.33101-60.7181c-.01474-9.21763-7.49943-16.67832-16.71706-16.664-.03748,0-.07454,.00084-.1116,.00084-10.10452-.8911-19.01852,6.578-19.90962,16.68253-.07201,.81699-.08928,1.63818-.05138,2.4577v58.22671h-28.20625l.00042-100.93573Z"/><circle id="Ellipse_37" class="cls-1" cx="113.21793" cy="98.54907" r="18.06353"/></g></g></g></svg>