<?xml version="1.0" encoding="UTF-8"?><svg id="Layer_2" xmlns="http://www.w3.org/2000/svg" viewBox="0 0 331.18778 331.18778"><defs><style>.cls-1{fill:#fff;}.cls-2{fill:#783cbe;}</style></defs><g id="Layer_1-2"><g id="Component_20_10"><circle id="Ellipse_35" class="cls-2" cx="165.59389" cy="165.59389" r="165.59389"/><g id="Group_95"><path id="Path_388" class="cls-1" d="M243.50533,92.98084c-7.87423-8.52108-19.05179-13.21412-30.64878-12.86796-23.08618,.75887-44.52408,14.88263-42.04701,51.05829,0,0-34.76741,10.59808-88.87549-40.86701,0,0-17.40097,28.37849,13.37163,55.115-6.99492,1.19432-14.1844-.24341-20.18209-4.0365,0,0-6.20994,23.96297,33.42233,42.12281,0,0-13.36489,3.78088-19.42238,0,0,0,3.53241,25.48071,39.1008,31.53189,0,0-18.29123,18.16026-61.54603,17.65659,0,0,89.95863,46.03508,152.3326-13.10968,26.52258-25.73128,40.52758-61.73512,38.36299-98.62501,8.95569-3.37575,16.39195-9.8708,20.94096-18.29123-7.58787,2.43917-15.49074,3.75687-23.4593,3.91227,0,0,16.40037-10.23212,17.65617-22.32773-8.53456,5.83766-18.66772,8.88704-29.00639,8.72828Z"/></g></g></g></svg>