<?xml version="1.0" encoding="UTF-8"?><svg id="Layer_2" xmlns="http://www.w3.org/2000/svg" viewBox="0 0 18.78746 19.84698"><defs><style>.cls-1{fill:#783cbe;}</style></defs><g id="Layer_1-2"><g><path class="cls-1" d="M18.66602,7.10674c-.02246-.57422-.31934-1.10352-.88184-1.58008,.16113-.32129,.33398-.82617,.24316-1.41016-.10156-.65137-.49609-1.23242-1.17383-1.72754-.04395-.60938-.38281-2.05762-2.59375-2.29395-2.54297-.26953-6.50781,.08887-8.55078,.39648l-.19043,.03125c-.23047,.04395-.38184,.2666-.33789,.49707,.04297,.23047,.26074,.38574,.49609,.33887l.15918-.02734c1.99902-.30078,5.86816-.65723,8.33398-.39062,1.90625,.20312,1.85254,1.4873,1.83984,1.62891-.0166,.15723,.05664,.31152,.18848,.39844,.58008,.38379,.91309,.81152,.9873,1.27148,.10059,.61426-.29199,1.12305-.29395,1.12598-.07422,.0918-.10645,.20996-.08984,.32715,.0166,.11621,.08105,.2207,.17773,.28809,.53809,.375,.82031,.76367,.83691,1.15527,.02637,.5791-.52441,1.04785-.52832,1.05176-.10742,.08789-.16504,.22266-.1543,.36133,.01074,.1377,.08789,.2627,.20801,.33301,.50098,.2959,.6875,.67578,.55469,1.12891-.19336,.66016-.99219,1.23926-1.70703,1.23926-.01562,0-.03125-.00098-.04785-.00098l-4.37793-.04102c-.50879-.01367-.89941,.11523-1.1543,.4043-.3418,.38574-.2793,.87305-.27344,.87305,0,.27246,.22461,2.75,.26855,3.23926,.19043,2.33105-.91797,2.97461-.98535,3.0127-.19434,.11816-.67871,.33496-.94531,.2373-.04492-.01562-.09961-.04688-.14844-.13867,.63281-5.28711-2.82031-8.30762-4.74902-9.16992l-.15234-.06934c-.30176-.1416-.7168-.33496-1.18066-.36816-.56641-.04102-1.18359-.05762-1.59375-.0459V2.41338l1.11719-.26172,.03906,5.78125c.00098,.23438,.19238,.43652,.42773,.42188,.23438-.00098,.42383-.19336,.42188-.42773l-.04199-6.31348c-.00098-.12891-.06055-.25098-.16211-.33105-.10059-.0791-.23047-.10645-.35938-.08008L.32812,1.66241c-.19238,.04492-.32812,.2168-.32812,.41406v7.53613c0,.11426,.0459,.22461,.12793,.30371,.08105,.08105,.18066,.11621,.30762,.12109,.00781-.00098,1.06543-.02539,1.94629,.03906,.30859,.02246,.61328,.16504,.88281,.29004l.16504,.07617c.05078,.02246,5.0293,2.32227,4.23828,8.39941-.00781,.06641-.00098,.13379,.02148,.19629,.16309,.46289,.47168,.65625,.70117,.73828,.1416,.0498,.28906,.07031,.43457,.07031,.58984,0,1.1543-.33398,1.20996-.36816,.06738-.03516,1.65527-.8916,1.41602-3.82617-.10254-1.12695-.26465-2.98242-.26953-3.22852-.00098-.00098-.01758-.16016,.06641-.25098,.07715-.08398,.25391-.12598,.49512-.11523l4.37891,.04102c1.11035,.03418,2.2793-.78906,2.58984-1.84863,.19727-.66992,.00293-1.31348-.52148-1.79395,.2373-.30762,.49902-.78125,.47559-1.34961Z"/><path class="cls-1" d="M3.89307,1.64666c.22559,.06598,.46191-.06329,.52783-.28888,.06592-.22552-.06348-.46191-.28857-.52795-.22559-.06598-.46191,.06329-.52832,.28888-.06592,.22552,.06348,.46191,.28906,.52795Z"/></g></g></svg>