<?xml version="1.0" encoding="UTF-8"?><svg id="Layer_2" xmlns="http://www.w3.org/2000/svg" viewBox="0 0 15.0718 25.60645"><defs><style>.cls-1{fill:#783cbe;}</style></defs><g id="Layer_1-2"><g><path class="cls-1" d="M14.563,5.16211c-.33008-.33301-.76855-.5166-1.23535-.51855h-.00488c-.34375,0-.6626,.10309-.93359,.27509l.00195-.56708c.00293-.96387-.7793-1.75195-1.74414-1.75586h-.00488c-.34375,0-.66309,.10309-.93457,.27515l.00293-1.11499c.00293-.96387-.78027-1.75195-1.74414-1.75586-.48535,.01172-.90527,.17871-1.23828,.50879-.33301,.33105-.5166,.76953-.51758,1.23438l-.00391,1.12439c-.27441-.17334-.58984-.27045-.92188-.27185h-.00488c-.96191,0-1.74707,.78125-1.75098,1.74414l-.02441,7.0166-.23535-.41016c-.23242-.40527-.6084-.69531-1.06055-.81836-.45215-.12207-.92578-.06152-1.32812,.16895-.82031,.46973-1.11621,1.50586-.67871,2.33594,.09863,.37695,.71289,2.69043,1.62402,5.07422,.06543,.16992,.22656,.27344,.39746,.27344,.05078,0,.10156-.00879,.15137-.02734,.21973-.08398,.3291-.33008,.24609-.54883-.97363-2.5459-1.60254-5.00977-1.6084-5.03418-.00977-.03711-.02441-.07324-.04297-.10645-.24707-.43066-.09766-.98242,.33301-1.22852,.42969-.25,.98145-.09863,1.22852,.33301l1.02344,1.78711c.0957,.16699,.29102,.25098,.47754,.2002,.18652-.0498,.31641-.2168,.31641-.40918l.03027-8.60254c.00195-.49609,.40625-.89844,.90137-.89844h.00195c.23926,.00098,.46484,.0957,.63477,.26758,.16992,.1709,.26367,.39746,.2627,.63672l-.02051,5.98535c-.00098,.17651,.10645,.3277,.26025,.39221,.05566,.02747,.1167,.04596,.18311,.04626h.00195c.23438,0,.42383-.18945,.4248-.42285l.03125-8.60449c.00098-.23828,.0957-.46387,.2666-.63379,.1709-.16895,.39453-.2627,.63281-.2627h.00293c.49707,.00195,.89941,.40723,.89844,.9043l-.02148,8.59375c-.00049,.12372,.0542,.23297,.13867,.31091,.06543,.07251,.15723,.11096,.26123,.10999,.0083,.00049,.01514,.00488,.02393,.00488h.00098c.00244,0,.00488-.0014,.00732-.00146,.00537-.00055,.00928,.00226,.01416,.00146,.2334,0,.42383-.18848,.4248-.42285l.03027-6.00781c.00195-.49512,.40527-.89746,.90137-.89746h.00195c.49609,.00195,.89844,.40723,.89746,.90332l-.02148,5.99805c-.00098,.23535,.18848,.42578,.42285,.42676h.00195c.00342,0,.00586-.00183,.00928-.00189,.00342,.00012,.00586,.00189,.00928,.00189h.00293c.2334,0,.42285-.1875,.4248-.42188l.03027-3.96094c.00195-.49512,.40625-.89746,.90137-.89746h.00195c.49707,.00195,.89941,.40723,.89746,.90332l-.02051,4.76953-.10938,5.03125c-.11816,.80859-1.40527,6.08398-3.66699,6.08398-.02539,0-.05176-.00098-.07715-.00195l-4.74805-.01758c-.29395-.00098-.89355-.52832-1.57031-1.70215-.11621-.2041-.37988-.27441-.58008-.15625-.2041,.11719-.27344,.37695-.15625,.58008,.25195,.43713,.56543,.90735,.91309,1.29736l-.7334-.00146h-.00098c-.2334,0-.42383,.18848-.4248,.42285l-.01172,2.45801c-.00098,.11328,.04395,.22168,.12305,.30176,.08008,.08008,.1875,.125,.30078,.125l9.64062,.01953h.00098c.23438,0,.42383-.18848,.4248-.42285l.01074-2.45801c.00098-.11328-.04395-.22168-.12305-.30176-.08008-.08008-.18848-.125-.30078-.125l-.81104-.00165c1.87109-1.80267,2.63721-6.00836,2.63721-6.03937l.1123-5.08008,.02051-4.77734c.00195-.46582-.17871-.90625-.50879-1.23828Zm-1.88477,19.59375l-8.79102-.01758,.00781-1.6084,8.79004,.01758-.00684,1.6084Z"/><path class="cls-1" d="M3.36036,19.17749c0-.24683-.19922-.44635-.44629-.44635-.24658,0-.44629,.19952-.44629,.44635s.19971,.44641,.44629,.44641c.24707,0,.44629-.19958,.44629-.44641Z"/></g></g></svg>