<?xml version="1.0" encoding="UTF-8"?><svg id="Layer_2" xmlns="http://www.w3.org/2000/svg" viewBox="0 0 26.7221 22.28402"><defs><style>.cls-1{fill:#783cbe;}</style></defs><g id="Layer_1-2"><g><path class="cls-1" d="M26.10172,12.80355c.20508,.1084,.46484,.02832,.57227-.18164,.1084-.20801,.02734-.46484-.18164-.57227l-2.75488-1.42773c-.12988-.06836-.28809-.06348-.41602,.01367-.12695,.07715-.2041,.21484-.2041,.36328v.36359l-1.5459-.80377c.07422-.73755-.29053-1.29364-.64453-1.6145,.27148-.84082-.07227-1.47949-.42676-1.82715,.15527-.95215-.23047-1.58105-.62988-1.92188,.14941-.38184,.1543-.81055,.00391-1.20605-.2041-.53809-.66113-.93555-1.22168-1.0625l-.72559-.16504c-.38379-.08551-.77295-.09753-1.15918-.06366-.84375-1.06433-1.79199-1.81079-2.44824-2.24786C13.82047,.11801,13.21501-.00211,12.62223,.11508c-.90625,.17676-1.59961,.06445-2.02344-.06152-.43457-.12891-.88965-.02148-1.22266,.2832-.23047,.21075-.36426,.48981-.39844,.7876-.50439,.13654-.86377,.3894-1.05469,.76611-.20898,.41302-.16357,.85352-.07568,1.18127-.11377,.05194-.22266,.11505-.32178,.1947-.31934,.25781-.51953,.61816-.5791,1.04102-.03027,.21484-.01172,.42773,.04883,.625-.40234,.16992-.60645,.44336-.70898,.67676-.1582,.35742-.15332,.80859,.01367,1.20703,.05469,.13177,.13965,.23499,.22266,.33899-.25439,.23755-.45459,.58215-.4082,1.05652,.02832,.29199,.15625,.56146,.3501,.77863l-2.82959,2.09332v-.08484c0-.14844-.07715-.28613-.2041-.36328-.12598-.07715-.28418-.08203-.41602-.01367L.25993,12.04965c-.20898,.10742-.29004,.36426-.18164,.57227,.10742,.20996,.36523,.29004,.57227,.18164l2.13477-1.10547v8.40918L.22379,21.4852c-.20703,.11133-.28418,.36816-.17285,.5752,.07617,.14258,.22266,.22363,.37402,.22363,.06836,0,.1377-.01562,.20117-.05078l2.78516-1.49805c.1377-.07422,.22363-.21777,.22363-.37402v-.88916l2.19629-1.4292c.19727-.12793,.25293-.3916,.125-.58789-.12891-.19922-.39355-.25098-.58789-.125l-1.7334,1.12799v-6.31641l3.62549-2.68201,1.13525,.31573c.12988,.03613,.2627,.05371,.39551,.05371,.26758,0,.53223-.07129,.76367-.21094,.3291-.19922,.55469-.50977,.63379-.87695,.02734-.12799,.0293-.25623,.01904-.38379,.15967-.02246,.31738-.06067,.46631-.13281,.38184-.18652,.66602-.51074,.7998-.91406l.11426-.34375c.63281,.03516,1.31055-.39453,1.5127-1.06543,.15088-.50397,.02539-1.01978-.28857-1.39282,.04443-.12103,.07275-.24469,.08838-.37146l3.74023-.58337c.36523-.05664,.73633-.04395,1.09961,.03711l.72363,.16406c.28223,.06445,.5127,.26465,.61621,.53613,.08154,.21552,.0498,.43774-.04883,.64294l-2.39551,.21936c-.2334,.02148-.40527,.22754-.38379,.46191,.01953,.2207,.20508,.38574,.42188,.38574,.01367,0,.02637,0,.04004-.00195l2.50244-.22919c.17334,.10809,.5415,.43719,.44287,1.16547l-2.57617,.6438c-.22754,.05664-.36523,.28711-.30859,.51562,.04785,.19238,.22168,.32129,.41211,.32129,.03418,0,.06836-.00391,.10352-.0127l2.63379-.65826c.15381,.15857,.3623,.50214,.14795,1.04156l-2.28076,1.21631c-.20703,.11035-.28516,.36816-.1748,.5752,.07617,.14355,.22363,.22461,.375,.22461,.06738,0,.13672-.01562,.2002-.0498l2.18164-1.16339c.1792,.16321,.42285,.47821,.34375,.95929-1.68262,1.29199-3.50684,2.41504-5.4248,3.34082l-.79199,.38184-3.29199,.31934c-.95898,.09277-1.88867,.34277-2.76367,.74219-.21387,.09766-.30762,.34961-.20996,.56348,.07129,.15625,.22559,.24805,.38672,.24805,.05957,0,.11914-.01172,.17676-.03809,.78906-.36133,1.62793-.58594,2.49219-.66992l3.2334-.31323c.78467,.43665,5.67383,3.14752,8.59375,4.46173v.77631c0,.15723,.08594,.30078,.22461,.375l2.75488,1.47266c.06348,.03418,.13184,.0498,.2002,.0498,.15137,0,.29785-.08105,.375-.22461,.11035-.20703,.03223-.46387-.1748-.5752l-2.53027-1.35254V11.69809l2.13477,1.10547ZM9.94938,.96371c.11133-.10156,.26172-.1377,.4082-.0957,.51367,.15234,1.35449,.28906,2.42676,.08105,.37305-.06934,.75293,.00195,1.06348,.20801,.51807,.34503,1.23145,.90808,1.91309,1.67346l-2.97559,.46411c-.01611-.03827-.02246-.07861-.04102-.11609-.25977-.52344-.75781-.87305-1.33203-.93652-1.16504-.12634-1.5332-.7832-1.59131-.90497-.03369-.19617,.07764-.32648,.12842-.37335Zm-1.26758,1.30957c.08984-.1748,.29785-.27637,.5127-.33496,.27051,.3916,.8877,1.01465,2.12598,1.14941,.28418,.03125,.53223,.20605,.66211,.46875,.07422,.14984,.09814,.30878,.08008,.46722l-2.99316-1.00433c-.12354-.04144-.24902-.06464-.37354-.07825-.06592-.19897-.11621-.46808-.01416-.66785Zm.43457,6.61621c-.14746,.08887-.3291,.11133-.49219,.06738l-1.21484-.33789c-.24707-.06934-.42773-.26562-.44922-.49023-.02686-.27521,.19922-.42419,.33887-.48999l1.98828,.58765,.01611,.0058c.05225,.11157,.07812,.21967,.0542,.33014-.0293,.13477-.11523,.25098-.24121,.32715Zm1.55078-1.84668c-.06152,.18359-.19043,.33203-.36523,.41699-.16992,.08496-.36719,.0957-.55176,.0293l-2.42578-.72754c-.0957-.03613-.18262-.13574-.24023-.27344-.07617-.18164-.08398-.3916-.02051-.53516,.02539-.05762,.0957-.2168,.43555-.29199,.13672,.10547,.29395,.18945,.46875,.24512l2.78418,.88086-.08496,.25586Zm1.61914-1.38574c-.10059,.33691-.45703,.53516-.79688,.43652l-1.07227-.30371-2.19336-.69434c-.10449-.0332-.19629-.0918-.26855-.16797-.00391-.00488-.00781-.00977-.0127-.01367-.11816-.13184-.17969-.30957-.1543-.48828,.03027-.21191,.11914-.375,.27148-.49805,.1875-.15332,.47363-.19336,.73828-.10254l3.07422,1.03223c.33301,.11133,.51465,.46289,.41406,.7998Zm3.25293,9.05682l.12207-.05878c1.93555-.93353,3.77246-2.0675,5.47461-3.36487l1.86621,.97034c.03662,.01892,.07617,.02039,.11523,.02808v6.3642c-2.46289-1.14044-6.06543-3.104-7.57812-3.93896Z"/><path class="cls-1" d="M7.08952,16.21597c-.25977-.01996-.48584,.17413-.50586,.43359s.17432,.48676,.43359,.50671c.25928,.01886,.48584-.17517,.50537-.43463,.02002-.25952-.17383-.48566-.43311-.50568Z"/></g></g></svg>