<?xml version="1.0" encoding="UTF-8"?>
<svg width="91px" height="62px" viewBox="0 0 91 62" version="1.1" xmlns="http://www.w3.org/2000/svg" xmlns:xlink="http://www.w3.org/1999/xlink">
    <title>Group 13</title>
    <g id="Microsites" stroke="none" stroke-width="1" fill="none" fill-rule="evenodd">
        <g id="aws-ICONS" transform="translate(0.824000, 0.296000)" fill-rule="nonzero">
            <g id="Group-13">
                <path d="M23.104,17.12 C21.5893333,17.12 20.3786667,16.688 19.472,15.824 C18.5653333,14.96 18.112,13.8026667 18.112,12.352 C18.112,10.7946667 18.6666667,9.552 19.776,8.624 C20.8853333,7.696 22.3786667,7.232 24.256,7.232 C25.4506667,7.232 26.7946667,7.41333333 28.288,7.776 L28.288,5.664 C28.288,4.512 28.0266667,3.70133333 27.504,3.232 C26.9813333,2.76266667 26.0906667,2.528 24.832,2.528 C23.36,2.528 21.92,2.74133333 20.512,3.168 C20.0213333,3.31733333 19.712,3.392 19.584,3.392 C19.328,3.392 19.2,3.2 19.2,2.816 L19.2,1.952 C19.2,1.67466667 19.2426667,1.472 19.328,1.344 C19.4133333,1.216 19.584,1.09866667 19.84,0.992 C20.5013333,0.693333333 21.3386667,0.453333333 22.352,0.272 C23.3653333,0.0906666667 24.3733333,0 25.376,0 C27.4026667,0 28.896,0.421333333 29.856,1.264 C30.816,2.10666667 31.296,3.392 31.296,5.12 L31.296,16.064 C31.296,16.4906667 31.0826667,16.704 30.656,16.704 L29.28,16.704 C28.8746667,16.704 28.64,16.5013333 28.576,16.096 L28.416,15.04 C27.648,15.7013333 26.8,16.2133333 25.872,16.576 C24.944,16.9386667 24.0213333,17.12 23.104,17.12 Z M23.872,14.72 C24.576,14.72 25.312,14.5813333 26.08,14.304 C26.848,14.0266667 27.584,13.6213333 28.288,13.088 L28.288,9.824 C27.136,9.54666667 26.0053333,9.408 24.896,9.408 C22.4853333,9.408 21.28,10.336 21.28,12.192 C21.28,13.0026667 21.504,13.6266667 21.952,14.064 C22.4,14.5013333 23.04,14.72 23.872,14.72 Z" id="Shape" fill="#F59E0B"></path>
                <path d="M39.552,16.704 C39.232,16.704 39.0026667,16.6453333 38.864,16.528 C38.7253333,16.4106667 38.592,16.1706667 38.464,15.808 L33.728,1.664 C33.6,1.28 33.536,1.03466667 33.536,0.928 C33.536,0.629333333 33.696,0.48 34.016,0.48 L35.84,0.48 C36.1813333,0.48 36.4213333,0.538666667 36.56,0.656 C36.6986667,0.773333333 36.8213333,1.01333333 36.928,1.376 L40.416,13.472 L43.616,1.376 C43.7226667,1.01333333 43.8506667,0.773333333 44,0.656 C44.1493333,0.538666667 44.384,0.48 44.704,0.48 L46.176,0.48 C46.496,0.48 46.7306667,0.538666667 46.88,0.656 C47.0293333,0.773333333 47.1573333,1.01333333 47.264,1.376 L50.496,13.632 L54.08,1.376 C54.1866667,1.01333333 54.3093333,0.773333333 54.448,0.656 C54.5866667,0.538666667 54.8266667,0.48 55.168,0.48 L56.896,0.48 C57.216,0.48 57.376,0.629333333 57.376,0.928 C57.376,1.03466667 57.312,1.28 57.184,1.664 L52.32,15.808 C52.192,16.1706667 52.0586667,16.4106667 51.92,16.528 C51.7813333,16.6453333 51.552,16.704 51.232,16.704 L49.664,16.704 C49.344,16.704 49.1093333,16.64 48.96,16.512 C48.8106667,16.384 48.6826667,16.1386667 48.576,15.776 L45.376,4 L42.208,15.776 C42.1013333,16.1386667 41.9733333,16.384 41.824,16.512 C41.6746667,16.64 41.44,16.704 41.12,16.704 L39.552,16.704 Z" id="Path" fill="#F59E0B"></path>
                <path d="M64.48,17.184 C62.688,17.184 61.0773333,16.8853333 59.648,16.288 C59.392,16.1813333 59.216,16.064 59.12,15.936 C59.024,15.808 58.976,15.6053333 58.976,15.328 L58.976,14.432 C58.976,14.048 59.104,13.856 59.36,13.856 C59.5093333,13.856 59.776,13.92 60.16,14.048 C61.568,14.496 63.0293333,14.72 64.544,14.72 C65.5893333,14.72 66.384,14.5173333 66.928,14.112 C67.472,13.7066667 67.744,13.12 67.744,12.352 C67.744,11.84 67.5786667,11.424 67.248,11.104 C66.9173333,10.784 66.3146667,10.464 65.44,10.144 L62.72,9.12 C60.352,8.24533333 59.168,6.752 59.168,4.64 C59.168,3.25333333 59.7066667,2.13333333 60.784,1.28 C61.8613333,0.426666667 63.2746667,0 65.024,0 C66.4106667,0 67.7653333,0.245333333 69.088,0.736 C69.344,0.821333333 69.5253333,0.933333333 69.632,1.072 C69.7386667,1.21066667 69.792,1.41866667 69.792,1.696 L69.792,2.56 C69.792,2.944 69.6533333,3.136 69.376,3.136 C69.2266667,3.136 68.9813333,3.08266667 68.64,2.976 C67.5093333,2.63466667 66.3573333,2.464 65.184,2.464 C63.136,2.464 62.112,3.15733333 62.112,4.544 C62.112,5.09866667 62.2826667,5.536 62.624,5.856 C62.9653333,6.176 63.6373333,6.528 64.64,6.912 L67.136,7.872 C68.3946667,8.36266667 69.3013333,8.944 69.856,9.616 C70.4106667,10.288 70.688,11.1573333 70.688,12.224 C70.688,13.7386667 70.1226667,14.944 68.992,15.84 C67.8613333,16.736 66.3573333,17.184 64.48,17.184 Z" id="Path" fill="#F59E0B"></path>
                <path d="M0.704,60.704 C0.234666667,60.704 0,60.4693333 0,60 L0,39.232 C0,38.7626667 0.234666667,38.528 0.704,38.528 L3.2,38.528 C3.66933333,38.528 3.904,38.7626667 3.904,39.232 L3.904,60 C3.904,60.4693333 3.66933333,60.704 3.2,60.704 L0.704,60.704 Z" id="Path" fill="#555555"></path>
                <path d="M19.04,61.088 C15.4986667,61.088 12.8266667,60.1493333 11.024,58.272 C9.22133333,56.3946667 8.32,53.6213333 8.32,49.952 C8.32,46.176 9.25333333,43.2693333 11.12,41.232 C12.9866667,39.1946667 15.6693333,38.176 19.168,38.176 C20.8106667,38.176 22.3146667,38.3786667 23.68,38.784 C24.0213333,38.8906667 24.24,39.0133333 24.336,39.152 C24.432,39.2906667 24.48,39.52 24.48,39.84 L24.48,41.536 C24.48,41.9626667 24.32,42.176 24,42.176 C23.872,42.176 23.4986667,42.112 22.88,41.984 C21.6,41.7066667 20.48,41.568 19.52,41.568 C17.1093333,41.568 15.3173333,42.1973333 14.144,43.456 C12.9706667,44.7146667 12.384,46.656 12.384,49.28 L12.384,50.048 C12.384,52.6506667 12.9653333,54.576 14.128,55.824 C15.2906667,57.072 17.0666667,57.696 19.456,57.696 C20.6293333,57.696 21.9093333,57.5253333 23.296,57.184 C23.5733333,57.12 23.7813333,57.072 23.92,57.04 C24.0586667,57.008 24.16,56.992 24.224,56.992 C24.608,56.992 24.8,57.216 24.8,57.664 L24.8,59.296 C24.8,59.616 24.7466667,59.8506667 24.64,60 C24.5333333,60.1493333 24.3093333,60.2773333 23.968,60.384 C22.5173333,60.8533333 20.8746667,61.088 19.04,61.088 Z" id="Path" fill="#555555"></path>
                <path d="M37.28,57.984 C39.4346667,57.984 41.0773333,57.2746667 42.208,55.856 C43.3386667,54.4373333 43.904,52.3626667 43.904,49.632 C43.904,46.9013333 43.3386667,44.8266667 42.208,43.408 C41.0773333,41.9893333 39.4346667,41.28 37.28,41.28 C35.1253333,41.28 33.4826667,41.9893333 32.352,43.408 C31.2213333,44.8266667 30.656,46.9013333 30.656,49.632 C30.656,52.3626667 31.2213333,54.4373333 32.352,55.856 C33.4826667,57.2746667 35.1253333,57.984 37.28,57.984 Z M37.28,61.248 C35.0826667,61.248 33.184,60.7733333 31.584,59.824 C29.984,58.8746667 28.768,57.5253333 27.936,55.776 C27.104,54.0266667 26.688,51.9786667 26.688,49.632 C26.688,47.2213333 27.1253333,45.1413333 28,43.392 C28.8746667,41.6426667 30.1066667,40.3093333 31.696,39.392 C33.2853333,38.4746667 35.1466667,38.016 37.28,38.016 C39.4773333,38.016 41.376,38.4906667 42.976,39.44 C44.576,40.3893333 45.792,41.7386667 46.624,43.488 C47.456,45.2373333 47.872,47.2853333 47.872,49.632 C47.872,52.0426667 47.4346667,54.1226667 46.56,55.872 C45.6853333,57.6213333 44.4533333,58.9546667 42.864,59.872 C41.2746667,60.7893333 39.4133333,61.248 37.28,61.248 Z" id="Shape" fill="#555555"></path>
                <path d="M52.864,60.704 C52.3946667,60.704 52.16,60.4693333 52.16,60 L52.16,39.232 C52.16,38.7626667 52.3946667,38.528 52.864,38.528 L55.68,38.528 C55.936,38.528 56.144,38.5813333 56.304,38.688 C56.464,38.7946667 56.6293333,38.9866667 56.8,39.264 L66.496,55.264 L66.496,39.232 C66.496,38.7626667 66.7306667,38.528 67.2,38.528 L69.312,38.528 C69.7813333,38.528 70.016,38.7626667 70.016,39.232 L70.016,60 C70.016,60.4693333 69.7813333,60.704 69.312,60.704 L66.496,60.704 C66.0266667,60.704 65.6746667,60.4906667 65.44,60.064 L55.68,43.968 L55.68,60 C55.68,60.4693333 55.4453333,60.704 54.976,60.704 L52.864,60.704 Z" id="Path" fill="#555555"></path>
                <path d="M80.992,61.248 C80.0533333,61.248 79.088,61.1626667 78.096,60.992 C77.104,60.8213333 76.224,60.5973333 75.456,60.32 C75.1146667,60.2133333 74.8906667,60.0853333 74.784,59.936 C74.6773333,59.7866667 74.624,59.552 74.624,59.232 L74.624,57.664 C74.624,57.472 74.6666667,57.3173333 74.752,57.2 C74.8373333,57.0826667 74.9546667,57.024 75.104,57.024 C75.3173333,57.024 75.68,57.0986667 76.192,57.248 C76.8746667,57.44 77.664,57.6053333 78.56,57.744 C79.456,57.8826667 80.2666667,57.952 80.992,57.952 C82.5066667,57.952 83.6693333,57.68 84.48,57.136 C85.2906667,56.592 85.696,55.808 85.696,54.784 C85.696,54.0586667 85.4506667,53.4613333 84.96,52.992 C84.4693333,52.5226667 83.6053333,52.0533333 82.368,51.584 L79.52,50.496 C77.728,49.8133333 76.4266667,48.9973333 75.616,48.048 C74.8053333,47.0986667 74.4,45.9093333 74.4,44.48 C74.4,42.496 75.0986667,40.9226667 76.496,39.76 C77.8933333,38.5973333 79.776,38.016 82.144,38.016 C83.744,38.016 85.4613333,38.2933333 87.296,38.848 C87.6373333,38.9546667 87.8613333,39.0826667 87.968,39.232 C88.0746667,39.3813333 88.128,39.616 88.128,39.936 L88.128,41.472 C88.128,41.664 88.0853333,41.8186667 88,41.936 C87.9146667,42.0533333 87.7973333,42.112 87.648,42.112 C87.456,42.112 87.0933333,42.0373333 86.56,41.888 C85.088,41.504 83.7226667,41.312 82.464,41.312 C79.6266667,41.312 78.208,42.2613333 78.208,44.16 C78.208,44.8853333 78.464,45.4826667 78.976,45.952 C79.488,46.4213333 80.3946667,46.8906667 81.696,47.36 L84.416,48.352 C86.208,49.0133333 87.504,49.8133333 88.304,50.752 C89.104,51.6906667 89.504,52.8853333 89.504,54.336 C89.504,56.4906667 88.7466667,58.1813333 87.232,59.408 C85.7173333,60.6346667 83.6373333,61.248 80.992,61.248 Z" id="Path" fill="#555555"></path>
                <path d="M70.8647672,19.7055735 C68.8101072,19.7352241 66.38457,20.2006929 64.5501183,21.5090885 C63.9831397,21.9246689 64.0809586,22.4795604 64.7058868,22.4004919 C66.7957801,22.1430486 71.4002213,21.588157 72.2207872,22.6579352 C73.0413531,23.7074755 71.3047204,28.1268405 70.522633,30.0894339 C70.2889803,30.6824477 70.7961549,30.9220064 71.3228006,30.4659506 C74.7580512,27.533356 75.6565014,21.4097822 74.953689,20.5179083 C74.6027464,20.0825608 72.9194272,19.6754521 70.8647672,19.7055735 Z M13.6343176,20.708766 C13.1766776,20.7667604 12.9693326,21.3267058 13.4526439,21.7691627 C21.6022892,29.2194369 32.389659,33.704 44.3633382,33.704 C52.9064453,33.704 62.8417259,30.9892645 69.6796673,25.8747627 C70.8017987,25.030845 69.8262899,23.7479699 68.6824367,24.2729188 C61.0136343,27.5575988 52.6768848,29.1574429 45.0905267,29.1574429 C33.845517,29.1574429 22.9737282,26.0212485 14.1600853,20.8417531 C13.9675506,20.7262643 13.787358,20.6897679 13.6348113,20.708766 L13.6343176,20.708766 Z" id="Shape" fill="#FF9900"></path>
            </g>
        </g>
    </g>
</svg>