<?xml version="1.0" encoding="UTF-8"?><svg id="Layer_2" xmlns="http://www.w3.org/2000/svg" viewBox="0 0 25.1064 25.02734"><defs><style>.cls-1{fill:#783cbe;}</style></defs><g id="Layer_1-2"><g><path class="cls-1" d="M24.43788,7.78027c-.04199-.4502-.34961-.82812-.78516-.96289l-.20703-.06348c-.42578-.13184-.88965,.04395-1.12109,.42871-.07812,.12891-.11816,.27637-.11621,.42578l.00488,.43805c-.25977-.00031-.51904,.07819-.72949,.2514-.1748,.14551-.29785,.34863-.34766,.59082l-.39062,2.35437-4.31445,5.26672c-.1377,.17285-.23438,.37598-.29102,.67773l-.02197,3.94531h-.33545c-.23438,0-.4248,.19043-.4248,.4248v1.77344c0,.22192,.17236,.39886,.38965,.41766v.85382c0,.23438,.19043,.4248,.4248,.4248s.4248-.19043,.4248-.4248v-.84668h3.98828v.84668c0,.23438,.19043,.4248,.4248,.4248s.4248-.19043,.4248-.4248v-.9491c.09375-.078,.15723-.19098,.15723-.32239v-1.77344c0-.21277-.15967-.38171-.36377-.41248l.08838-1.02893c.01172-.14746,.08301-.28711,.23926-.42773l2.98535-3.4541c.2041-.17285,.34961-.40234,.41895-.65723l.07324-.26074c.06641-.23633,.08691-.47949,.06348-.72168l-.65918-6.81445Zm-2.16113,5.69629l-.25684,.14893,.25342-.43726,.00342,.28833Zm-.25098-4.52344c.05225-.04425,.12061-.0589,.19775-.05231l.02197,1.89709c-.16309-.11804-.35107-.16089-.53809-.1629l.26367-1.58911c.00781-.03711,.02734-.07031,.05469-.09277Zm-1.2832,13.0293v.92383h-4.53516v-.92383h4.53516Zm3.47266-6.89648l-.07422,.26367c-.02539,.09375-.07715,.17578-.19629,.2832l-2.9873,3.45508c-.28125,.24219-.45898,.59277-.48828,.95898l-.09375,1.08594h-3.40869l.01318-3.85254c.01855-.08594,.05859-.16895,.1123-.23535l4.54004-5.54199c.02734-.03613,.08008-.04199,.11426-.01758l.26562,.19434c.06152,.04492,.0791,.12891,.04199,.19434l-1.55957,2.6875-.68945,1.05762c-.12793,.19727-.07227,.45996,.12402,.58887,.19824,.12598,.45898,.07324,.58887-.12402l.63135-.9715,1.76807-1.0246c.13281-.07715,.21387-.21973,.21191-.37305l-.07715-6.0918c.03027-.0498,.09668-.07324,.14453-.05664l.20605,.06348c.10449,.03223,.17871,.12305,.18945,.23145l.65918,6.81543c.01367,.13867,.00098,.27637-.03613,.40918Z"/><path class="cls-1" d="M9.32362,21.13281h-.33643l-.03076-4.03418c-.0459-.21191-.14258-.41504-.2832-.59277l-4.31152-5.26135-.39453-2.37439c-.04688-.22363-.16992-.42676-.34473-.57227-.20605-.17139-.46143-.25006-.72998-.24524l.00537-.44324c.00195-.15039-.03809-.29785-.11523-.42578-.2334-.38574-.69531-.55957-1.12109-.42969l-.20996,.06348c-.43359,.13477-.74121,.5127-.7832,.96191L.00917,14.59473c-.02344,.24121-.00195,.4834,.06445,.72168l.07129,.25586c.07031,.25977,.21582,.48926,.37402,.61719l3.07617,3.54297c.1123,.09668,.18262,.23633,.19434,.3877l.08887,1.02509c-.2041,.03094-.36328,.19983-.36328,.41241v1.77344c0,.13098,.06299,.24377,.15625,.32172v.94977c0,.23438,.19043,.4248,.4248,.4248s.4248-.19043,.4248-.4248v-.84668h3.98828v.84668c0,.23438,.19043,.4248,.4248,.4248s.4248-.19043,.4248-.4248v-.85382c.21729-.0188,.38965-.19574,.38965-.41766v-1.77344c0-.23438-.19043-.4248-.4248-.4248Zm-4.95898,1.77344v-.92383h4.53418v.92383H4.36464Zm-1.28516-13.9541c.02832,.02344,.04785,.05664,.05273,.0752l.26758,1.60748c-.18799,.00177-.37646,.04492-.53906,.16357l.02197-1.90277c.0708-.00354,.14062,.00964,.19678,.05652Zm-.24658,4.2359l.25342,.43738-.25684-.14886,.00342-.28851Zm-1.71729,2.39984c-.07324-.0625-.125-.14453-.15137-.24121l-.07227-.25879c-.03809-.13574-.05078-.27441-.03711-.41113l.65918-6.81641c.01074-.10742,.08496-.19824,.1875-.23047l.20898-.06348c.05469-.0166,.11426,.00684,.1377,.03223l-.07129,6.11621c-.00195,.15332,.0791,.2959,.21191,.37305l1.76514,1.02295,.63428,.97314c.12891,.19629,.38965,.24805,.58887,.12402,.19629-.12891,.25195-.3916,.12402-.58887l-.67871-1.03809-1.56934-2.70605c-.03809-.06641-.02051-.15039,.04102-.19531l.26562-.19336c.03711-.02637,.08594-.01855,.11816,.02148l4.5332,5.53125c.06055,.07715,.09863,.15234,.10547,.15234l.02197,3.94141h-3.40723l-.09424-1.08301c-.0293-.37012-.20703-.7207-.44434-.91797l-3.07715-3.54395Z"/><path class="cls-1" d="M7.37636,11.2041h10.35352c.23438,0,.4248-.19043,.4248-.4248v-3.98535c0-.23438-.19043-.4248-.4248-.4248s-.4248,.19043-.4248,.4248v3.56055H7.80116V.84961h2.37305v1.65332c0,.23438,.19043,.4248,.4248,.4248h3.9082c.23438,0,.4248-.19043,.4248-.4248V.84961h2.37305V3.20215c0,.23438,.19043,.4248,.4248,.4248s.4248-.19043,.4248-.4248V.4248c0-.23438-.19043-.4248-.4248-.4248H7.37636c-.23438,0-.4248,.19043-.4248,.4248V10.7793c0,.23438,.19043,.4248,.4248,.4248ZM14.08241,.84961v1.22852h-3.05859V.84961h3.05859Z"/><circle class="cls-1" cx="17.73036" cy="5.00092" r=".4487"/></g></g></svg>