<?xml version="1.0" encoding="UTF-8"?><svg id="Layer_2" xmlns="http://www.w3.org/2000/svg" viewBox="0 0 26.11188 25.7033"><defs><style>.cls-1{fill:#783cbe;}</style></defs><g id="Layer_1-2"><g><path class="cls-1" d="M22.4313,10.36855c-.01303-.001-.31473-.02305-.99231-.05012h-.01704c-.23354,0-.427,.18443-.43602,.41898-.00902,.24056,.17842,.44303,.41898,.45306,.65352,.02506,.9452,.04711,.95823,.04811,1.29702,.10424,2.08085,.3869,2.61911,.9452,.16539,.1714,.2566,.39693,.2576,.63448,0,.22753-.09221,.45306-.26762,.65252-.41998,.47711-1.34113,.97227-2.53591,1.00735-.83394,.05312-3.09722,.17741-6.08018,.18443-.17541,0-.33278,.10525-.40093,.26662l-1.60374,3.79585c-.05713,.13431-.0421,.28867,.03809,.41096,.08119,.12128,.21751,.19445,.36385,.19445h.001l.78182-.06014,.002,1.22085-1.64584,.00401c-.17541,0-.33278,.10525-.40093,.26662l-1.16872,2.76545c-.19345,.45807-.53425,.83294-.96224,1.0705l1.00334-9.44201c.01303-.12329-.05413-.24657-.13732-.33779-.08319-.09221-.22853-.14434-.35182-.14434h-.00501c-.44804,0-4.92047-.18042-5.75041-.30672l-1.19078-.24257c-.17441-.03608-.36385,.0441-.46007,.20147l-1.56765,2.59004c-.07918,.1293-.21149,.2155-.37688,.23555l.51019-2.98295c.04009-.23154-.11226-.45306-.3428-.50017l-1.52255-.31072c-.12028-.02506-.22452-.09221-.29569-.18944l.002-.59338c.07016-.09422,.1734-.16037,.29068-.18443l1.52255-.31874c.23054-.04811,.38089-.27063,.34079-.50217l-.52422-2.98696c.15236,.01103,.29569,.09923,.37788,.23354l1.57968,2.58803c.09522,.15636,.27264,.23354,.46107,.19947l1.16872-.24457c.89509-.14133,5.29334-.32877,5.59404-.32977h.23455c.12429,0,.24257-.05212,.32476-.14534,.08319-.09221,.12229-.2155,.10925-.33879L11.31137,1.10395c.429,.23555,.7718,.60942,.96826,1.06649l1.18075,2.76444c.06816,.16037,.22653,.26462,.40093,.26462h.001l1.64483-.06214,.00301,1.22185-.78082,.001c-.14634,0-.28266,.07317-.36285,.19546-.08119,.12229-.09522,.27765-.03709,.41196l1.61978,3.79184c.05814,.13532,.17942,.23254,.32476,.2576,.13832,.02506,.95623,.05212,1.61777,.07016,.23555-.02005,.44103-.18343,.44804-.42399s-.18343-.44103-.42399-.44804c-.46809-.01303-.98129-.03007-1.26896-.0431l-1.25693-2.94086,.18042-.001c.44804,0,.81189-.36485,.81189-.8139l-.00301-1.27998c0-.21751-.0852-.42198-.23856-.57534s-.35683-.23655-.62947-.23655h-.00501l-1.35716,.002-1.06749-2.49983c-.34781-.81189-1.0284-1.43535-1.86635-1.71199l-.27965-.09221c-.13932-.04711-.29469-.01904-.41096,.07518-.11527,.09322-.17541,.23956-.15937,.3869l1.06949,9.67957c-1.01637,.03508-4.6308,.19947-5.49982,.33679l-.88807,.18543-1.42031-2.32542c-.24657-.40294-.67257-.64651-1.16371-.65252l-.48012,.002c-.1283,.001-.24958,.05814-.33177,.15636s-.11727,.22853-.09522,.35483l.54126,3.08219-1.10959,.23254c-.40795,.0852-.74975,.34781-.93819,.72068-.03007,.06014-.04611,.1273-.04611,.19445l-.00301,.83394c0,.06816,.01504,.13532,.04511,.19646,.18944,.37888,.53425,.6455,.94821,.7297l1.10959,.22653-.52723,3.08018c-.02205,.12629,.01403,.2566,.09622,.35483,.08319,.09823,.20548,.15436,.33378,.15436l.47611-.001c.01303,0,.11126-.00501,.12429-.00702,.42599-.03809,.8139-.28065,1.03942-.65052l1.41029-2.32843,.91012,.18443c.80187,.12329,4.16671,.26863,5.47978,.30972l-1.0294,9.68658c-.01504,.14734,.04511,.29268,.16037,.3859,.07918,.06315,.17541,.09622,.27364,.09622,.04611,0,.09322-.00702,.13832-.02205l.27865-.09322c.83695-.28065,1.51453-.90711,1.85933-1.72101l1.05646-2.49983,1.4153-.00401c.44804,0,.8129-.36485,.8129-.8149l-.00301-1.27898c0-.21751-.0852-.42198-.23856-.57534s-.35683-.23655-.62947-.23655h-.1283l1.23488-2.92382c2.86468-.01303,5.03173-.13331,5.89575-.18844,1.46943-.04009,2.58001-.72469,3.08519-1.29903,.31273-.35483,.48413-.79185,.48413-1.22886-.001-.46508-.17942-.90511-.50217-1.23889-.88306-.91714-2.16204-1.12763-3.17841-1.20982ZM2.48179,17.39593l.03007-.17842,.03709,.36986-.06716-.19145Z"/><path class="cls-1" d="M19.6032,11.14705c.24858,.01898,.46508-.16701,.48413-.41541,.01904-.24845-.16689-.46521-.41547-.48419s-.46508,.16695-.48413,.41541c-.01904,.24839,.16689,.46515,.41547,.48419Z"/></g></g></svg>