<?xml version="1.0" encoding="UTF-8"?><svg id="Layer_2" xmlns="http://www.w3.org/2000/svg" viewBox="0 0 30.13049 21.18705"><defs><style>.cls-1{fill:#783cbe;}</style></defs><g id="Layer_1-2"><g><path class="cls-1" d="M29.7697,17.7608h-8.93763V1.88689c0-.19906-.16173-.36079-.36079-.36079s-.36079,.16173-.36079,.36079V15.21827c-.52584-.9888-1.63807-1.40775-1.69115-1.42698-.03898-.0141-.08045-.02156-.12275-.02156h-1.62314l-.34462-2.72168v-.0001L14.97152,.32761c-.02322-.17998-.17666-.31517-.3583-.31517H5.67725c-.17417,0-.32347,.12358-.35498,.29527L3.28526,11.31464l-.03566,.00005c-1.94121,.4514-1.80809,2.94868-1.71479,3.74366-.92064,.59349-1.53481,1.62262-1.53481,2.797,0,1.83712,1.49458,3.3317,3.3317,3.3317,1.62314,0,2.97465-1.16686,3.26908-2.70468h7.20584c-.00995,.08859-.02696,.17506-.02696,.26624,0,1.34446,1.09398,2.43844,2.43927,2.43844,1.34446,0,2.43844-1.09398,2.43844-2.43844,0-.09118-.017-.17765-.02696-.26624h.70126c.11777,0,.22809-.05723,.29527-.15344,.20984-.2991,.36079-.58929,.48354-.87486v.66751c0,.19906,.16173,.36079,.36079,.36079h9.29842c.19906,0,.36079-.16173,.36079-.36079s-.16173-.36079-.36079-.36079ZM5.97749,.73402H14.29473l1.12384,8.87594-2.66321-4.05603,1.12716-1.15976c.13934-.14266,.13602-.37157-.00746-.51008-.14183-.13768-.37157-.13602-.51008,.00746l-2.68643,2.76439c-.13934,.14266-.13602,.37157,.00746,.51008,.06967,.06801,.1609,.10202,.25131,.10202,.09372,0,.18827-.03649,.25877-.10948l1.0438-1.07397,3.3852,5.15587,.32015,2.52926h-5.36291v-2.10336c0-.19906-.16173-.36079-.36079-.36079l-6.20185,.00814L5.97749,.73402ZM3.3317,20.46547c-1.43901,0-2.61013-1.17111-2.61013-2.61013s1.17111-2.61013,2.61013-2.61013c1.43984,0,2.61095,1.17111,2.61095,2.61013s-1.17111,2.61013-2.61095,2.61013Zm12.88724,0c-.94718,0-1.71769-.77051-1.71769-1.71686,0-.94718,.77051-1.71769,1.71769-1.71769,.94635,0,1.71686,.77051,1.71686,1.71769,0,.94635-.77051,1.71686-1.71686,1.71686Zm2.92115-2.70468h-.69587c-.38028-.85335-1.2329-1.45145-2.22528-1.45145-.99321,0-1.84583,.5981-2.22611,1.45145H6.6547c-.05142-1.79249-1.51739-3.23715-3.323-3.23715-.38857,0-.756,.07952-1.1031,.20227-.06096-.80364-.03774-2.426,1.1031-2.69877h6.52905v2.10336c0,.19906,.16173,.36079,.36079,.36079h8.00538c.22726,.09621,1.10559,.5134,1.36271,1.3287,.17583,.55736,.02488,1.2101-.44954,1.9408Z"/><circle class="cls-1" cx="20.47128" cy=".37323" r=".37323"/></g></g></svg>