<svg width="46" height="42" xmlns="http://www.w3.org/2000/svg" xmlns:xlink="http://www.w3.org/1999/xlink" xml:space="preserve" overflow="hidden"><defs><clipPath id="clip0"><rect x="240" y="221" width="46" height="42"/></clipPath></defs><g clip-path="url(#clip0)" transform="translate(-240 -221)"><path d="M30.9093 33.2765C30.8411 33.1656 30.7477 33.0723 30.6369 33.004 31.7438 29.9216 30.2452 24.8978 30.2281 24.8467L28.2356 20.8276C27.6641 19.6783 26.2716 19.2065 25.1192 19.7718 24.7496 19.9414 24.4364 20.2132 24.2166 20.5551 24.0274 20.4208 23.8211 20.312 23.6035 20.2316 23.0412 20.0548 22.4327 20.0974 21.9005 20.3508 21.6187 20.4904 21.3692 20.6876 21.1682 20.9298 20.8756 20.5594 20.4868 20.2765 20.0442 20.1124 19.4552 19.9199 18.8145 19.9625 18.2561 20.2316 17.9865 20.3683 17.7442 20.5529 17.5408 20.7765L15.2077 16.2125C14.6466 15.063 13.2599 14.5861 12.1104 15.1472 12.104 15.1503 12.0976 15.1535 12.0913 15.1566 10.942 15.7282 10.4702 17.1207 11.0354 18.2731L14.4414 25.2213C13.3812 24.6287 12.0433 24.9557 11.376 25.9707 11.033 26.4673 10.9041 27.081 11.0184 27.6737 11.1328 28.2453 11.4542 28.7547 11.921 29.1042 13.624 31.0115 18.2731 36.0354 21.4918 37.3978 21.4327 37.5512 21.4327 37.7211 21.4918 37.8746L22.752 40.4461C22.8407 40.6208 22.9931 40.7549 23.1777 40.8208L23.3991 40.8208C23.5373 40.8857 23.6927 40.9037 23.8419 40.8719L31.8971 36.8869C32.2506 36.7048 32.3942 36.2739 32.2206 35.9161ZM12.9768 28.1675 12.8406 28.0483C12.6421 27.9221 12.506 27.7181 12.4659 27.4863 12.4164 27.258 12.4593 27.0192 12.5851 26.8222 12.7113 26.6236 12.9154 26.4875 13.1471 26.4475L13.3344 26.4475C13.5029 26.4484 13.6678 26.4955 13.8113 26.5837L15.8889 27.9802C16.1525 28.1733 16.5109 28.1733 16.7745 27.9802 17.0116 27.7643 17.0805 27.4192 16.9448 27.1287L12.3297 17.7622C12.2453 17.5488 12.2453 17.3114 12.3297 17.0981 12.4085 16.8786 12.5664 16.6964 12.7725 16.5872 13.2149 16.3775 13.7438 16.5589 13.9646 16.9959L17.1662 23.4843 17.1662 23.4843C17.3482 23.8378 17.7791 23.9814 18.1369 23.8079 18.4923 23.6353 18.6405 23.2074 18.468 22.852 18.4654 22.847 18.463 22.8421 18.4605 22.8372L18.4605 22.8372C18.2523 22.3997 18.4344 21.876 18.8692 21.6621 19.0868 21.5693 19.3327 21.5693 19.5504 21.6621 19.7667 21.7462 19.9472 21.9027 20.0613 22.1049L20.8106 23.6376 20.8106 23.6376C20.9865 23.9976 21.4191 24.1493 21.7813 23.9782 22.1367 23.8056 22.2849 23.3777 22.1124 23.0223 22.1098 23.0173 22.1074 23.0124 22.1049 23.0075L22.1049 23.0075C21.8925 22.5669 22.0776 22.0376 22.5182 21.8252 22.7241 21.7261 22.9604 21.7103 23.1777 21.7813 23.4029 21.8503 23.5885 22.011 23.6886 22.2241L24.0974 23.0585 24.0974 23.0585C24.2699 23.414 24.6978 23.5621 25.0533 23.3896 25.0582 23.387 25.0631 23.3847 25.0681 23.3821 25.4281 23.2062 25.5798 22.7736 25.4087 22.4114L25.4087 22.4114C25.3242 22.198 25.3242 21.9606 25.4087 21.7472 25.4875 21.5277 25.6454 21.3455 25.8515 21.2363 26.0708 21.1525 26.3133 21.1525 26.5326 21.2363 26.7522 21.3152 26.9344 21.4731 27.0435 21.6791L27.0435 21.6791 28.9509 25.4087C29.2574 26.3283 30.6539 32.7315 28.2867 33.7704L23.1777 36.3249C21.8664 36.9039 16.8937 32.5442 12.9768 28.1164ZM23.8419 39.1689 23.2118 37.9086 30.0238 34.5027 30.6539 35.7799Z" fill="#793CBD" transform="matrix(1 0 0 1.02717 240.418 221)"/><path d="M19.0565 19.2609 19.2779 19.2609C19.5897 19.2668 19.8678 19.0654 19.9591 18.767 21.3232 14.6537 19.12 10.2093 15.0204 8.80448 13.042 8.13571 10.8786 8.2828 9.00884 9.2132 8.48938 9.49148 8.00366 9.82863 7.56129 10.218 7.25935 10.4672 7.20685 10.9098 7.44208 11.2227 7.68181 11.5367 8.13067 11.5969 8.44464 11.3572 8.45114 11.3522 8.45755 11.3471 8.46388 11.3419 8.83372 11.0508 9.23331 10.7997 9.65598 10.5926 12.8499 9.03108 16.705 10.3544 18.2665 13.5484 19.0046 15.058 19.1231 16.7965 18.5967 18.3923 18.4954 18.758 18.6972 19.1391 19.0565 19.2609Z" fill="#793CBD" transform="matrix(1 0 0 1.02717 240.418 221)"/><path d="M4.61511 15.9911C4.56806 17.3053 4.84899 18.6103 5.43255 19.7888 6.32759 21.6876 7.94729 23.1478 9.92846 23.8419L10.218 23.8419C10.5281 23.8424 10.8032 23.643 10.8992 23.348 11.033 22.9765 10.8403 22.5665 10.4686 22.4327 10.4646 22.4313 10.4605 22.4298 10.4564 22.4284 8.85639 21.8644 7.54566 20.6883 6.81198 19.1587 6.34108 18.1951 6.11305 17.1311 6.14781 16.0592 6.14825 15.6548 5.82075 15.3266 5.41632 15.3262 5.40469 15.3261 5.39308 15.3264 5.38146 15.3269 4.99785 15.3308 4.67348 15.6119 4.61511 15.9911Z" fill="#793CBD" transform="matrix(1 0 0 1.02717 240.418 221)"/><path d="M25.017 11.6825 40.0885 11.6825C40.4817 11.7202 40.831 11.4319 40.8686 11.0387 40.8708 11.0149 40.872 10.9911 40.8719 10.9673 40.8822 10.563 40.5629 10.2268 40.1586 10.2164 40.1353 10.2158 40.1118 10.2163 40.0885 10.218L25.017 10.218C24.6192 10.2272 24.3016 10.5524 24.3017 10.9503 24.2924 11.3452 24.6049 11.6729 24.9998 11.6823 25.0056 11.6825 25.0112 11.6825 25.017 11.6825Z" fill="#793CBD" transform="matrix(1 0 0 1.02717 240.418 221)"/><path d="M25.017 14.8501 40.0885 14.8501C40.4836 14.8501 40.8037 14.5299 40.8037 14.1349 40.8037 13.7398 40.4836 13.4196 40.0885 13.4196L25.017 13.4196C24.6219 13.4196 24.3017 13.7398 24.3017 14.1349 24.3017 14.5299 24.6219 14.8501 25.017 14.8501Z" fill="#793CBD" transform="matrix(1 0 0 1.02717 240.418 221)"/><path d="M25.017 18.0347 34.7411 18.0347C35.1408 18.0962 35.5147 17.822 35.5762 17.4223 35.6377 17.0226 35.3635 16.6487 34.9638 16.5872 34.8899 16.5758 34.8148 16.5758 34.7411 16.5872L25.017 16.5872C24.6173 16.6487 24.3431 17.0226 24.4046 17.4223 24.4531 17.7382 24.7011 17.9862 25.017 18.0347Z" fill="#793CBD" transform="matrix(1 0 0 1.02717 240.418 221)"/><path d="M42.1491 0 2.98024 0C1.3288 0.0186614-0.000105435 1.36276-1.51256e-15 3.0143L0 6.64168C0 6.64168 0 6.64168 0 6.64168L0 7.97001 0 7.97001 0 29.6832C0 31.696 1.63166 33.3276 3.64441 33.3276L11.6144 33.3276C12.0141 33.3891 12.388 33.1149 12.4495 32.7152 12.511 32.3155 12.2368 31.9415 11.8371 31.88 11.7633 31.8686 11.6882 31.8686 11.6144 31.88L3.64441 31.88C2.43111 31.88 1.44755 30.8964 1.44755 29.6832L1.44755 6.0286 43.7159 6.0286 43.7159 29.6832C43.7159 30.8964 42.7322 31.88 41.519 31.88L33.9066 31.88C33.5069 31.9415 33.2327 32.3155 33.2942 32.7152 33.3428 33.0311 33.5907 33.2791 33.9066 33.3276L41.519 33.3276C43.5318 33.3276 45.1634 31.696 45.1634 29.6832L45.1634 3.0143C45.1634 1.34955 43.8138-3.24821e-08 42.1491-3.24821e-08ZM1.44755 4.58105 1.44755 3.0143C1.44755 2.14901 2.14901 1.44755 3.0143 1.44755L42.1832 1.44755C43.0485 1.44755 43.7499 2.14901 43.7499 3.0143L43.7499 4.59808Z" fill="#793CBD" transform="matrix(1 0 0 1.02717 240.418 221)"/><path d="M6.93119 13.1301C6.93119 12.7068 6.58808 12.3637 6.16484 12.3637 5.74159 12.3637 5.39849 12.7068 5.39849 13.1301 5.39849 13.5533 5.74159 13.8964 6.16484 13.8964 6.58808 13.8964 6.93119 13.5533 6.93119 13.1301Z" fill="#793CBD" transform="matrix(1 0 0 1.02717 240.418 221)"/></g></svg>