<?xml version="1.0" encoding="UTF-8"?><svg id="Layer_2" xmlns="http://www.w3.org/2000/svg" viewBox="0 0 17.33065 24.98563"><defs><style>.cls-1{fill:#783cbe;}</style></defs><g id="Layer_1-2"><g><path class="cls-1" d="M16.17769,5.5579c-.23047,.0459-.37988,.27051-.33398,.5,.86426,4.32031,1.28711,10.05469-1.60645,12.83789-1.71777,1.65344-4.4834,2.06708-8.19092,1.26691l1.30176-2.87415c.00098-.00214,.00195-.00409,.00293-.00623l.53467-1.18097,2.39746-1.45947c.20117-.12207,.26465-.38379,.14258-.58398-.12402-.20312-.38867-.26367-.58398-.14258l-1.3335,.81183,3.01904-6.66534c.09766-.21387,.00293-.46582-.21094-.5625-.21582-.09863-.46582-.00195-.5625,.21094l-1.55957,3.44342-.89648-2.02936c-.09375-.21484-.34668-.30859-.56055-.2168-.21484,.09473-.31152,.3457-.2168,.56055l1.20312,2.72418-1.74268,3.84827-1.52783-3.77948c-.08691-.21777-.33594-.32422-.55273-.23438-.21777,.08789-.32324,.33496-.23438,.55273l1.83105,4.52954-1.23047,2.71613C2.00484,17.30906,.52876,14.7407,.90913,12.18583,1.80562,6.16886,12.46333,1.74192,14.49312,.95078c.11572,.34564,.31445,.9599,.54102,1.76239,.05371,.18652,.22363,.30859,.40918,.30859,.03809,0,.07715-.00488,.11621-.01562,.22559-.06445,.35645-.29883,.29297-.52539-.36719-1.29492-.65527-2.09766-.66797-2.13184-.04102-.11371-.12646-.19775-.22949-.24304-.11182-.09589-.26611-.1358-.41699-.08118C13.99117,.22196,1.12984,4.94071,.06929,12.05985c-.43701,2.92688,1.19531,5.80743,4.83545,8.56384l-1.70361,3.76135c-.09766,.21387-.00293,.46582,.21094,.5625,.05762,.02637,.11719,.03809,.17578,.03809,.16113,0,.31641-.09277,.38672-.24902l1.71094-3.77734c1.33984,.30115,2.5752,.45898,3.69336,.45898,2.30078,0,4.125-.6377,5.44727-1.90918,3.17188-3.05078,2.75684-9.08887,1.85156-13.61719-.04688-.22949-.27344-.38574-.5-.33398Z"/><path class="cls-1" d="M15.80952,3.82938c-.11426,.01855-.21484,.08105-.2832,.17578-.06738,.09473-.09375,.20996-.07422,.32422,.01855,.11426,.08105,.21484,.17578,.2832,.02344,.0166,.05371,.01385,.0791,.02551,.03516,.01617,.07031,.02911,.10938,.03522,.02246,.00348,.04102,.02032,.06348,.02032,.02441,0,.04785-.00195,.07227-.00586,.23633-.03906,.39648-.2627,.35742-.5-.00342-.02161-.02393-.03296-.03027-.05322-.01855-.05939-.04834-.1106-.08838-.15485-.021-.02368-.03564-.04675-.06152-.06519-.05566-.04047-.12256-.06116-.19287-.07068-.02002-.00293-.03516-.02032-.05566-.02032-.02344,0-.04688,.00195-.07129,.00586Z"/></g></g></svg>