<?xml version="1.0" encoding="UTF-8"?><svg id="Layer_2" xmlns="http://www.w3.org/2000/svg" viewBox="0 0 23.51962 25.01514"><defs><style>.cls-1{fill:#783cbe;}</style></defs><g id="Layer_1-2"><g><path class="cls-1" d="M11.77374,13.021c1.07324,0,2.35254-.85547,2.35254-4.93164,0-3.41797-1.88379-7.67969-1.96484-7.85938-.13672-.30664-.63867-.30664-.77539,0-.08105,.17969-1.96387,4.44141-1.96387,7.85938,0,4.07617,1.27832,4.93164,2.35156,4.93164Zm0-11.48926c.55371,1.44238,1.50293,4.25391,1.50293,6.55762,0,2.63184-.53418,4.08203-1.50293,4.08203s-1.50195-1.4502-1.50195-4.08203c0-2.30371,.94922-5.11523,1.50195-6.55762Z"/><path class="cls-1" d="M17.61261,14.34521c-1.41895-.82422-2.59961-1.27246-3.50879-1.33398-1.10449-.0752-1.67578,.44238-1.93652,.89258-.53906,.92773-.44043,2.46387,3.08496,4.50977,2.95605,1.7168,7.58691,2.22559,7.7832,2.24707,.01465,.00098,.03027,.00195,.04492,.00195,.15039,0,.29102-.0791,.36719-.21191,.08496-.14453,.0752-.3252-.02246-.46191-.11523-.15918-2.85547-3.92773-5.8125-5.64355Zm-1.93457,3.33398c-2.27637-1.32227-3.26172-2.51074-2.77637-3.34961,.18555-.31934,.50879-.47559,.9834-.47559,.05273,0,.10645,.00195,.16211,.00488,.77734,.05273,1.83398,.46289,3.13965,1.2207,1.99219,1.15723,3.94727,3.38867,4.91797,4.5918-1.52637-.24609-4.43359-.83594-6.42676-1.99219Z"/><path class="cls-1" d="M11.38312,13.90576c-.53418-.93066-1.90918-1.61914-5.4502,.40332C2.96515,16.00439,.19855,19.75439,.08233,19.91357c-.09961,.13477-.10938,.31641-.02637,.46191,.07617,.13281,.21777,.21387,.36914,.21387,.01367,0,.02832-.00098,.04199-.00195,.19629-.01953,4.83105-.49707,7.7998-2.19238,3.53906-2.02148,3.64746-3.55664,3.11621-4.48926ZM1.4046,19.60498c.97852-1.19629,2.94922-3.41504,4.9502-4.55762,2.28516-1.30566,3.80957-1.56152,4.29004-.71973s-.51465,2.02344-2.7998,3.3291c-2.00098,1.14258-4.91211,1.71289-6.44043,1.94824Z"/><path class="cls-1" d="M18.95538,4.43018c-.18555-.14355-.4541-.10938-.5957,.07812-.14355,.18652-.1084,.45312,.07812,.5957,2.57031,1.97266,4.11035,4.95898,4.22461,8.19336,.0459,1.29004-.13477,2.56055-.53711,3.77637-.07422,.22266,.04688,.46387,.26953,.53711,.04492,.01465,.08984,.02148,.13379,.02148,.17871,0,.34473-.1123,.40332-.29102,.43457-1.3125,.62988-2.68262,.58008-4.07324-.12305-3.48926-1.78418-6.71094-4.55664-8.83789Z"/><path class="cls-1" d="M16.18097,23.22314c-2.95996,1.31836-6.31836,1.25-9.2168-.19141-1.15625-.57422-2.1875-1.33789-3.06445-2.27148-.16211-.1709-.42871-.17969-.60059-.01855-.1709,.16113-.17969,.42969-.01855,.60059,.94629,1.00684,2.05859,1.83203,3.30469,2.45117,1.6377,.81348,3.41113,1.22168,5.18652,1.22168,1.61621,0,3.23535-.33789,4.75488-1.0166,.21484-.09473,.31055-.34668,.21484-.56055-.0957-.21484-.34961-.31152-.56055-.21484Z"/><path class="cls-1" d="M.57452,12.41846c.01758,.00195,.03516,.00293,.05273,.00293,.21094,0,.39453-.15723,.4209-.37305,.39453-3.2168,2.18457-6.05957,4.91309-7.7998,1.08789-.69531,2.27441-1.18457,3.52539-1.45605,.22949-.0498,.375-.27539,.3252-.50488s-.27246-.37891-.50488-.3252c-1.35059,.29199-2.62988,.82031-3.80273,1.56934C2.56085,5.40869,.62921,8.4751,.20441,11.94482c-.02832,.2334,.1377,.44531,.37012,.47363Z"/><path class="cls-1" d="M.61358,14.34229c.00977,.00098,.01855,.00098,.02734,.00098,.23438,0,.43066-.18359,.44531-.41992,.01367-.24609-.1748-.45801-.41992-.47266-.00879-.00098-.01758-.00098-.02637-.00098-.10938,0-.21387,.04004-.29688,.11328-.08887,.0791-.1416,.18848-.14844,.30762-.00781,.11914,.03223,.2334,.11133,.32227,.08008,.08984,.18848,.14258,.30762,.14941Z"/></g></g></svg>