<?xml version="1.0" encoding="UTF-8"?><svg id="Layer_2" xmlns="http://www.w3.org/2000/svg" viewBox="0 0 25.50488 25.0127"><defs><style>.cls-1{fill:#783cbe;}</style></defs><g id="Layer_1-2"><g><path class="cls-1" d="M25.07617,24.16309h-6.34082v-3.20197c.06445-.03156,.13135-.05713,.19434-.09198,.64062,.35449,1.36426,.54102,2.11035,.54102,2.46191,0,4.46484-2.00293,4.46484-4.46484,0-2.35059-1.83301-4.28125-4.14844-4.44434,.15723-.38867,.23828-.80273,.23828-1.22559,0-1.81152-1.47363-3.28516-3.28516-3.28516-.40869,0-.79541,.08411-1.15674,.22095,0-.01868,.00146-.03723,.00146-.05591C17.1543,3.58203,15.12793,0,12.54004,0S7.9248,3.58203,7.9248,8.15527c0,.05023,.00342,.10095,.00439,.15131-.50146-.12714-1.02295-.20209-1.56299-.20209-3.51074,0-6.36621,2.85547-6.36621,6.36621,0,3.36737,2.62891,6.12451,5.94141,6.34473v3.34766H.49219c-.23438,0-.4248,.19043-.4248,.4248s.19043,.4248,.4248,.4248H25.07617c.23438,0,.4248-.19043,.4248-.4248s-.19043-.4248-.4248-.4248Zm-7.19043,0h-4.92188v-5.0069c.77148,1.33972,2.20215,2.25397,3.85645,2.25397,.36279,0,.72021-.04584,1.06543-.13202v2.88495Zm2.85938-12.8877c0,.50391-.15723,.99316-.45312,1.41504-.09473,.13379-.10352,.31152-.02148,.4541,.08008,.14355,.24121,.23047,.40137,.21387,.11914-.00879,.23926-.01855,.36816-.01855,1.99316,0,3.61523,1.61719,3.61523,3.60547,0,1.99316-1.62207,3.61523-3.61523,3.61523-.67383,0-1.32422-.18848-1.88184-.54395-.06934-.04395-.14941-.06641-.22852-.06641-.06738,0-.13281,.0246-.19434,.05646v-2.09357c.04443-.02039,.0874-.04547,.12402-.08203l1.64453-1.64551c.16602-.16602,.16602-.43555,0-.60156s-.43555-.16602-.60156,0l-1.16699,1.16766v-2.54559c0-.23438-.19043-.4248-.4248-.4248s-.4248,.19043-.4248,.4248v6.18597c-.34131,.10803-.69922,.16852-1.06543,.16852-1.99414,0-3.61621-1.62207-3.61621-3.61523,0-1.70996,1.21973-3.19531,2.89941-3.5332,.14258-.0293,.26074-.12891,.31348-.26562,.05176-.13574,.03027-.28906-.05664-.40625-.03369-.04504-.05908-.09448-.08936-.1413-.00146-.00366-.00439-.00659-.00635-.01019-.25146-.39221-.39062-.8399-.39062-1.31335,0-1.34277,1.09277-2.43555,2.43555-2.43555s2.43555,1.09277,2.43555,2.43555Zm-11.9707-3.12012c0-3.95996,1.72461-7.30566,3.76562-7.30566s3.76465,3.3457,3.76465,7.30566c0,.18262-.00781,.36566-.01465,.54858-.76465,.60199-1.26562,1.52496-1.26562,2.57153,0,.51367,.11523,1.00879,.33789,1.45898-1.03027,.3551-1.86816,1.07928-2.39844,1.99359v-5.60632l1.7627-1.8902c.16016-.17188,.15137-.44043-.02051-.60059-.17188-.15918-.44238-.15137-.60059,.02051l-1.1416,1.22418v-2.29449c0-.23438-.19043-.4248-.4248-.4248s-.4248,.19043-.4248,.4248v6.17096c-.67676-1.42542-1.86279-2.56219-3.32715-3.16669-.00537-.14337-.0127-.28687-.0127-.43005ZM.84961,14.4707c0-3.04199,2.47461-5.5166,5.5166-5.5166s5.5166,2.47461,5.5166,5.5166c0,.43671-.05615,.85968-.15283,1.26733-.00098,.00366-.00342,.00629-.00439,.01001-.00049,.00287,.00049,.00568,0,.00854-.5498,2.289-2.52588,4.02435-4.93457,4.20923v-1.92285l2.67578-2.67578c.16602-.16602,.16602-.43555,0-.60156s-.43555-.16602-.60156,0l-2.07422,2.07422v-3.9248c0-.23438-.19043-.4248-.4248-.4248s-.4248,.19043-.4248,.4248v1.12457l-.99414-.99469c-.16602-.16602-.43555-.16602-.60156,0s-.16602,.43555,0,.60156l1.5957,1.59662v4.72272c-2.84375-.21826-5.0918-2.5965-5.0918-5.49512Zm5.94141,6.34473c2.35498-.15656,4.35889-1.59528,5.32324-3.62604v6.97369H6.79102v-3.34766Z"/><path class="cls-1" d="M22.1543,5.94727c1.63965,0,2.97266-1.33301,2.97266-2.97168C25.12695,1.33594,23.79395,.00293,22.1543,.00293c-1.63867,0-2.97168,1.33301-2.97168,2.97266,0,1.63867,1.33301,2.97168,2.97168,2.97168Zm0-5.09473c1.1709,0,2.12305,.95215,2.12305,2.12305,0,1.16992-.95215,2.12207-2.12305,2.12207-1.16992,0-2.12207-.95215-2.12207-2.12207,0-1.1709,.95215-2.12305,2.12207-2.12305Z"/><path class="cls-1" d="M12.53467,4.25562c.24707,0,.44678-.19952,.44678-.44635s-.19971-.44635-.44678-.44635c-.24658,0-.44629,.19952-.44629,.44635s.19971,.44635,.44629,.44635Z"/></g></g></svg>