<?xml version="1.0" encoding="UTF-8"?><svg id="Layer_2" xmlns="http://www.w3.org/2000/svg" viewBox="0 0 23.18555 25.12305"><defs><style>.cls-1{fill:#783cbe;}</style></defs><g id="Layer_1-2"><g><path class="cls-1" d="M11.59277,3.93652c.23438,0,.4248-.19043,.4248-.4248V.4248c0-.23438-.19043-.4248-.4248-.4248s-.4248,.19043-.4248,.4248V3.51172c0,.23438,.19043,.4248,.4248,.4248Z"/><path class="cls-1" d="M7.55273,5.01953c.07227,0,.14551-.01855,.21289-.05664,.20312-.11719,.27246-.37695,.15527-.58105l-1.54395-2.67383c-.11816-.20215-.37793-.26953-.58105-.15527-.20312,.11719-.27246,.37695-.15527,.58105l1.54395,2.67383c.0791,.13574,.22168,.21191,.36816,.21191Z"/><path class="cls-1" d="M4.80762,7.18359l-2.67383-1.54297c-.20215-.11523-.46289-.04688-.58105,.15527-.11719,.2041-.04785,.46387,.15527,.58105l2.67383,1.54297c.06738,.03809,.14062,.05664,.21289,.05664,.14648,0,.28906-.07617,.36816-.21191,.11719-.2041,.04785-.46387-.15527-.58105Z"/><path class="cls-1" d="M22.76074,11.16797h-5.48926c-.21875-2.94525-2.67871-5.27539-5.67871-5.27539-3.14355,0-5.7002,2.55664-5.7002,5.7002,0,.23438,.19043,.4248,.4248,.4248s.4248-.19043,.4248-.4248c0-2.6748,2.17578-4.85059,4.85059-4.85059s4.85059,2.17578,4.85059,4.85059c0,.23438,.19043,.4248,.4248,.4248,.02051,0,.03809-.00885,.05762-.01166,.01953,.00281,.03711,.01166,.05762,.01166h5.77734c.23438,0,.4248-.19043,.4248-.4248s-.19043-.4248-.4248-.4248Z"/><path class="cls-1" d="M2.64258,11.16797H.4248c-.23438,0-.4248,.19043-.4248,.4248s.19043,.4248,.4248,.4248H2.64258c.23438,0,.4248-.19043,.4248-.4248s-.19043-.4248-.4248-.4248Z"/><path class="cls-1" d="M18.59082,7.97656c.07227,0,.14551-.01855,.21289-.05664l2.67383-1.54297c.20312-.11719,.27246-.37695,.15527-.58105-.11816-.20215-.37793-.27051-.58105-.15527l-2.67383,1.54297c-.20312,.11719-.27246,.37695-.15527,.58105,.0791,.13574,.22168,.21191,.36816,.21191Z"/><path class="cls-1" d="M15.41992,4.96289c.06738,.03809,.14062,.05664,.21289,.05664,.14648,0,.28906-.07617,.36816-.21191l1.54395-2.67383c.11719-.2041,.04785-.46387-.15527-.58105-.20508-.11426-.46289-.04688-.58105,.15527l-1.54395,2.67383c-.11719,.2041-.04785,.46387,.15527,.58105Z"/><path class="cls-1" d="M17.0127,18.6875h-1.98828v-7.25c0-.23438-.19043-.4248-.4248-.4248h-6.0127c-.23438,0-.4248,.19043-.4248,.4248v7.25h-1.98828c-.1709,0-.3252,.10156-.3916,.25879s-.03223,.33984,.08691,.46191l5.41895,5.58594c.08008,.08301,.18945,.12891,.30469,.12891s.22461-.0459,.30469-.12891l5.41992-5.58594c.11914-.12207,.15332-.30469,.08691-.46191s-.2207-.25879-.3916-.25879Zm-5.41992,5.40039l-4.41406-4.55078h1.4082c.23438,0,.4248-.19043,.4248-.4248v-7.25h5.16309v7.25c0,.23438,.19043,.4248,.4248,.4248h1.4082l-4.41504,4.55078Z"/><path class="cls-1" d="M4.13721,11.3111c-.16797,.17596-.16162,.45483,.01416,.62292,.17627,.16803,.45508,.16156,.62305-.0144s.16162-.4549-.01416-.62292c-.17627-.16803-.45508-.16162-.62305,.0144Z"/></g></g></svg>