<?xml version="1.0" encoding="UTF-8"?><svg id="Layer_2" xmlns="http://www.w3.org/2000/svg" viewBox="0 0 23.08542 25.04785"><defs><style>.cls-1{fill:#783cbe;}</style></defs><g id="Layer_1-2"><g><path class="cls-1" d="M11.16453,20.44824c3.82324,0,6.93359-3.05664,6.93359-6.81348C18.09812,10.01758,11.78562,.58691,11.51706,.1875c-.0791-.11719-.21094-.1875-.35156-.1875h-.00098c-.14062,0-.27246,.06934-.35156,.18652-.01074,.01465-1.0293,1.51953-2.17188,3.35645-.12402,.19922-.06348,.46094,.13574,.58496,.20117,.12598,.46094,.06348,.58496-.13574,.72949-1.1709,1.40625-2.20508,1.7998-2.79883,1.34375,2.06055,6.08691,9.54297,6.08691,12.44141,0,3.28809-2.72949,5.96387-6.08398,5.96387s-6.08398-2.67578-6.08398-5.96387c0-1.21582,.81641-3.34277,2.42578-6.32324,.11133-.20703,.03418-.46484-.17188-.57617-.20605-.1084-.46289-.03516-.57617,.17188-1.70117,3.15039-2.52734,5.35059-2.52734,6.72754,0,3.75684,3.11035,6.81348,6.93359,6.81348Z"/><path class="cls-1" d="M6.95652,13.30859c-.23438,0-.4248,.19043-.4248,.4248,0,2.48828,2.05859,4.5127,4.58887,4.5127,.23438,0,.4248-.19043,.4248-.4248s-.19043-.4248-.4248-.4248c-2.06152,0-3.73926-1.64355-3.73926-3.66309,0-.23438-.19043-.4248-.4248-.4248Z"/><path class="cls-1" d="M17.53757,18.12109c-.21973-.0791-.46289,.04102-.54004,.2627s.04102,.46387,.2627,.54004c1.18066,.4082,1.59961,.84766,1.59961,1.09961,0,.78125-2.99805,1.91699-7.69531,1.91699-4.69824,0-7.69629-1.13574-7.69629-1.91699,0-.23535,.35254-.62305,1.33984-1.00391,.21875-.08496,.32812-.33105,.24316-.5498-.08398-.21777-.3291-.32715-.5498-.24316-1.24902,.48242-1.88281,1.08691-1.88281,1.79688,0,1.81641,4.29883,2.7666,8.5459,2.7666,4.24609,0,8.54492-.9502,8.54492-2.7666,0-.76465-.73047-1.4043-2.17188-1.90234Z"/><path class="cls-1" d="M3.42917,16.61328c-.08789-.21777-.33496-.32227-.55273-.23633-1.20801,.4834-2.13574,1.05762-2.75781,1.70801-.16309,.16992-.15723,.43848,.0127,.60059,.08203,.0791,.18848,.11816,.29395,.11816,.1123,0,.22363-.04395,.30664-.13086,.53027-.55469,1.38086-1.0752,2.46094-1.50684,.21777-.08691,.32324-.33398,.23633-.55273Z"/><path class="cls-1" d="M13.66355,24.08789c-2.50781,.22461-5.14648,.10352-7.4502-.34473-.2334-.05078-.45312,.10645-.49805,.33594-.04492,.23047,.10547,.45312,.33594,.49805,1.60449,.3125,3.3252,.4707,5.11328,.4707,.86523,0,1.73145-.03809,2.5752-.11426,.2334-.02051,.40625-.22656,.38477-.46094-.01953-.2334-.21973-.41406-.46094-.38477Z"/><path class="cls-1" d="M19.20749,16.28223c-.22168-.08398-.46582,.02734-.54785,.24707-.08301,.21973,.02734,.46484,.24707,.54785,2.11523,.7998,3.3291,1.87402,3.3291,2.94629,0,.85645-.76953,1.55566-1.41406,1.99023-.19531,.13184-.24609,.39551-.11523,.58984,.08203,.12207,.2168,.1875,.35254,.1875,.08203,0,.16504-.02344,.2373-.07227,1.1709-.79004,1.78906-1.72168,1.78906-2.69531,0-1.4668-1.37695-2.7959-3.87793-3.74121Z"/><path class="cls-1" d="M8.05955,5.91394c.2627,.01532,.48828-.18524,.50342-.44788,.01562-.2627-.18506-.48804-.44775-.50336-.2627-.01526-.48779,.18524-.50342,.44794-.01514,.26263,.18506,.48798,.44775,.5033Z"/></g></g></svg>