<?xml version="1.0" encoding="UTF-8"?><svg id="Layer_2" xmlns="http://www.w3.org/2000/svg" viewBox="0 0 20.06483 26.26172"><defs><style>.cls-1{fill:#783cbe;}</style></defs><g id="Layer_1-2"><g><path class="cls-1" d="M.93593,5.83496c.2168,.09961,.4668,.00293,.5625-.21094C2.81386,2.72363,5.70839,.84961,8.8744,.84961c4.46191,0,8.0918,3.63086,8.0918,8.09277v3.64355c0,.23438,.19043,.4248,.4248,.4248s.4248-.19043,.4248-.4248v-3.64355C17.81581,4.01172,13.80507,0,8.8744,0,5.37636,0,2.17714,2.06934,.72499,5.27246c-.09766,.21387-.00293,.46582,.21094,.5625Z"/><path class="cls-1" d="M17.29335,14.04004c-.37012,.08789-.64648,.0625-.82129-.0752-.22168-.1748-.34082-.56641-.34473-1.13281-.00781-1.15332-.09961-3.88965-.09961-3.88965,0-3.94434-3.20898-7.1543-7.15332-7.1543C5.71913,1.78809,2.89491,3.90332,2.00722,6.93359c-.06543,.22461,.06348,.46094,.28906,.52734,.23145,.06934,.46191-.06348,.52734-.28906,.78125-2.66895,3.26953-4.53418,6.05078-4.53418,3.47559,0,6.30371,2.82812,6.30371,6.31934,0,0,.0918,2.73145,.09961,3.88086,.00488,.8457,.22949,1.44922,.66895,1.79492,.26074,.20508,.58008,.30859,.95508,.30859,.18262,0,.37891-.02441,.58691-.07324,.22852-.05371,.37012-.2832,.31641-.51172s-.27637-.37109-.51172-.31641Z"/><path class="cls-1" d="M8.8744,5.36426c-1.91797,0-3.0127,1.00977-3.66602,3.41211-.00098,.00684-.13574,.66406-.6875,1.28418-.4541,.51074-1.71973,1.64844-3.67871,1.19238-.23242-.05469-.45703,.08984-.51074,.31738-.05273,.22852,.08887,.45703,.31738,.51074,2.40527,.55762,3.95312-.83203,4.50684-1.45605,.71582-.80469,.88184-1.65625,.88086-1.65918,.54688-2.00586,1.31641-2.75195,2.83789-2.75195,1.50391,0,2.72754,1.22363,2.72754,2.72168-.00879,.54004-.04492,5.31152,1.1748,6.57031,.08398,.08594,.19434,.12891,.30566,.12891,.10645,0,.21289-.04004,.2959-.11914,.16797-.16406,.17285-.43262,.00977-.60156-.73633-.75879-.96484-4.06152-.93652-5.97168,0-1.97266-1.60449-3.57812-3.57715-3.57812Z"/><path class="cls-1" d="M.72792,14.35645c.15234,.00586,.30273,.00879,.44922,.00879,6.07129,0,6.74805-5.32129,6.75684-5.42285,0-.51855,.42188-.94043,.94043-.94043,.51758,0,.93945,.42188,.93945,.94043,0,.23438,.19043,.4248,.4248,.4248s.4248-.19043,.4248-.4248c0-.9873-.80273-1.79004-1.78906-1.79004-.9873,0-1.79004,.80273-1.78711,1.74121-.02344,.19824-.61133,4.87109-6.32422,4.61328-.22168,.01367-.43164,.17285-.44238,.40723-.00977,.23438,.17285,.43262,.40723,.44238Z"/><path class="cls-1" d="M.70351,15.59082c-.2334,.02344-.4043,.23145-.38086,.46484,.02148,.21973,.20703,.38281,.42188,.38281,.01465,0,.02832,0,.04297-.00195,3.41406-.33984,5.86328-1.4082,7.27734-3.17676,1.45117-1.81445,1.24121-3.68457,1.23145-3.76367-.02832-.23145-.24316-.39551-.47168-.36914-.23242,.02734-.39844,.23828-.37207,.4707,.00195,.0166,.16895,1.61816-1.06445,3.14746-1.26855,1.57324-3.51758,2.53027-6.68457,2.8457Z"/><path class="cls-1" d="M9.61952,14.3291c.11719-.2041,.04785-.46387-.15527-.58105-.2041-.11523-.46387-.04785-.58105,.15527-1.75879,3.04688-8.42578,3.63379-8.49316,3.63867-.2334,.01953-.40723,.22461-.38867,.45898,.01855,.22168,.2041,.38965,.42383,.38965,.01074,0,.02344,0,.03516-.00098,.29199-.02441,7.17773-.62891,9.15918-4.06055Z"/><path class="cls-1" d="M10.60878,10.09473c-.21973-.07129-.46289,.05469-.53223,.27734-.02734,.08691-.65527,2.13086,.36035,3.43457,.08301,.1084,.20898,.16406,.33496,.16406,.0918,0,.18359-.0293,.26074-.08984,.18555-.14355,.21875-.41113,.07422-.5957-.73926-.9502-.22461-2.6416-.21973-2.6582,.07031-.22363-.05469-.46191-.27832-.53223Z"/><path class="cls-1" d="M9.7914,16.37891c-.16406-.16699-.43164-.17285-.60156-.01172-2.62012,2.51758-8.23242,3.22363-8.28809,3.23047-.2334,.02832-.39941,.24023-.37109,.47266,.02637,.21582,.20898,.37402,.4209,.37402,.01758,0,.03418-.00098,.05176-.00293,.24219-.0293,5.94922-.74512,8.77637-3.46094,.16895-.16309,.17383-.43164,.01172-.60156Z"/><path class="cls-1" d="M18.87245,18.85406v-.51129c0-1.66406-1.35449-3.01855-3.01855-3.01855-.12695,0-.24805,.02222-.37109,.03754-1.47705-1.79565-1.24609-6.34937-1.24316-6.41937,0-2.95898-2.40625-5.36621-5.36523-5.36621-2.03809,0-3.79004,.98242-4.57324,2.56445-.08398,.16992-.17188,.3584-.26465,.55664-.47559,1.01758-1.12598,2.41113-1.99219,2.68164-.32422,.10254-.68359,.03809-1.08398-.19824-.20215-.11719-.46387-.05078-.58203,.15234-.11816,.20215-.0498,.46289,.15234,.58203,.61035,.35742,1.20605,.44824,1.7666,.27539,1.22461-.38184,1.93652-1.9082,2.50977-3.13379,.08984-.19238,.1748-.37402,.25586-.53906,.63867-1.29004,2.09863-2.0918,3.81152-2.0918,2.49023,0,4.51562,2.02637,4.51562,4.49316-.01074,.19415-.23145,4.49908,1.21289,6.68512-.57764,.26526-1.0498,.70844-1.3623,1.25769-1.32129-.75256-2.13232-1.71582-2.14062-1.72601-.14941-.18164-.41797-.2041-.59766-.05762-.18164,.14941-.20801,.41602-.05859,.59766,.03906,.0473,.95361,1.1416,2.47803,1.98254-.05176,.22083-.08545,.44818-.08545,.68445v.51129c-.06689,.01532-.13135,.03668-.19434,.06049-1.14746-.64148-1.78955-1.34949-1.7959-1.35693-.1543-.1748-.42285-.19141-.59961-.03711-.17578,.15527-.19238,.42285-.03809,.59863,.02832,.03241,.62012,.69678,1.70703,1.3595-.17041,.24719-.27148,.54578-.27148,.86804v.26514c-1.42578-.82788-2.25439-1.71283-2.26367-1.72314-.08008-.08691-.19434-.13672-.3125-.13672-.0918-.01172-.23633,.05078-.31738,.1416-1.56934,1.76074-6.8291,2.48535-6.88184,2.49316-.23242,.03125-.39551,.24512-.36426,.47754,.02832,.21289,.21094,.36816,.41992,.36816,.01953,0,.03809-.00098,.05762-.00391,.21582-.02832,5.05664-.69531,7.08496-2.45703,.43555,.40607,1.33008,1.14203,2.57715,1.80292v.99475c-1.25537-.62714-2.52539-1.38-2.54004-1.38849-.1543-.0918-.35254-.07715-.49023,.04004-.91699,.77051-4.26465,1.55762-5.47754,1.7959-.23047,.04492-.37988,.26855-.33496,.49902,.04004,.20215,.21777,.34277,.41699,.34277,.02637,0,.05469-.00195,.08203-.00781,.44043-.08691,4.1377-.83301,5.6123-1.79688,.49316,.28571,1.64844,.94196,2.73145,1.46002v.71948c-3.82178-1.64929-6.2915,.05963-6.39941,.1369-.19043,.13672-.23438,.40234-.09668,.59277,.13672,.18945,.40039,.23438,.59277,.09668,.02148-.01648,2.35205-1.6344,5.9873,.14581,.20215,.61102,.77246,1.05634,1.4502,1.05634h5.35254c.8457,0,1.53418-.68848,1.53418-1.53418v-4.38086c0-.72784-.51123-1.33636-1.19238-1.49261Zm-3.01855-2.68024c1.19629,0,2.16895,.97266,2.16895,2.16895v.46973h-4.33691v-.46973c0-1.19629,.97266-2.16895,2.16797-2.16895Zm3.36133,8.55371c0,.37695-.30762,.68457-.68457,.68457h-5.35254c-.37695,0-.68457-.30762-.68457-.68457v-4.38086c0-.37695,.30762-.68457,.68457-.68457h5.35254c.37695,0,.68457,.30762,.68457,.68457v4.38086Z"/><path class="cls-1" d="M.63075,7.91583c.25977,.01984,.48633-.17456,.50635-.4342,.01953-.25964-.1748-.48621-.43408-.5061-.25977-.01984-.48633,.17456-.50635,.4342-.01953,.25964,.1748,.48627,.43408,.5061Z"/></g></g></svg>