<?xml version="1.0" encoding="UTF-8"?><svg id="Layer_2" xmlns="http://www.w3.org/2000/svg" viewBox="0 0 17.68358 25.22559"><defs><style>.cls-1{fill:#783cbe;}</style></defs><g id="Layer_1-2"><g><path class="cls-1" d="M8.808,0C5.33632,0,2.16151,2.05371,.72011,5.23242c-.09766,.21387-.00293,.46582,.21094,.5625,.21582,.09863,.46582,.00195,.5625-.21094C2.79823,2.70801,5.66933,.84961,8.808,.84961c4.4248,0,8.02539,3.60059,8.02539,8.02539v3.61621c0,.23438,.19043,.4248,.4248,.4248s.4248-.19043,.4248-.4248v-3.61621C17.683,3.98145,13.70155,0,8.808,0Z"/><path class="cls-1" d="M17.16151,13.93066c-.36719,.08496-.64062,.06152-.8125-.07422-.21973-.17285-.33691-.56055-.34082-1.12207-.00781-1.14355-.09863-3.85938-.09863-3.85938,0-3.91504-3.18555-7.10059-7.10156-7.10059C5.67616,1.77441,2.87343,3.87402,1.99159,6.88086c-.06543,.22461,.06348,.46094,.28906,.52734,.22461,.06934,.46191-.06348,.52734-.28906,.77539-2.64648,3.24316-4.49512,6-4.49512,3.44727,0,6.25195,2.80469,6.25195,6.26562,0,0,.09082,2.71094,.09863,3.85059,.00488,.83984,.22852,1.44043,.66406,1.78418,.25977,.2041,.57812,.30664,.95117,.30664,.18066,0,.375-.02441,.58105-.07227,.22852-.05371,.37109-.28223,.31738-.51074-.05371-.22949-.28809-.37207-.51074-.31738Z"/><path class="cls-1" d="M17.16737,15.8584c-.61621,.13379-1.11523,.02539-1.53223-.33105-1.46387-1.24707-1.5791-5.20801-1.5-6.65234,0-2.93652-2.38965-5.32617-5.32715-5.32617-2.02344,0-3.7627,.97559-4.54004,2.5459-.08398,.16895-.1709,.35547-.2627,.55176-.4707,1.00977-1.11621,2.3916-1.97461,2.65918-.32227,.09961-.6748,.03711-1.07227-.19629-.20312-.11816-.46387-.05078-.58203,.15234-.11816,.20215-.0498,.46289,.15234,.58105,.60742,.35547,1.19824,.44824,1.75488,.27441,1.2168-.37891,1.92383-1.89355,2.49219-3.11133,.08887-.19043,.17285-.37109,.25391-.53418,.63281-1.27832,2.08008-2.07324,3.77832-2.07324,2.46875,0,4.47754,2.00781,4.47754,4.45312-.01172,.22559-.28613,5.54688,1.79785,7.32227,.46094,.39355,.99609,.59082,1.59668,.59082,.21484,0,.4375-.02539,.66895-.07617,.22949-.0498,.375-.27637,.32422-.50586-.04883-.22852-.27051-.375-.50586-.32422Z"/><path class="cls-1" d="M8.808,5.32227c-1.90527,0-2.99121,1.00293-3.63965,3.38867-.00098,.00586-.13477,.65723-.68164,1.27148-.45117,.50488-1.70703,1.63574-3.64648,1.18164-.22949-.05762-.45801,.08887-.51074,.31738s.08887,.45703,.31738,.51074c2.38574,.55566,3.92383-.8252,4.47461-1.44531,.71094-.79883,.87598-1.64355,.875-1.64648,.54199-1.98828,1.30371-2.72852,2.81152-2.72852,1.49121,0,2.7041,1.21289,2.7041,2.69629-.00879,.53613-.04492,5.27148,1.16602,6.52246,.08398,.08594,.19434,.12891,.30566,.12891,.10645,0,.21289-.04004,.2959-.11914,.16797-.16406,.17285-.43262,.00977-.60156-.72949-.75195-.95605-4.0293-.92773-5.92383,0-1.95898-1.59375-3.55273-3.55371-3.55273Z"/><path class="cls-1" d="M.72597,14.25098c.15137,.00586,.29883,.00879,.44434,.00879,6.02832,0,6.69922-5.2832,6.70801-5.38477,0-.51172,.41699-.92871,.92969-.92871s.92969,.41699,.92969,.92871c0,.23438,.19043,.4248,.4248,.4248s.4248-.19043,.4248-.4248c0-.98047-.79785-1.77832-1.7793-1.77832s-1.7793,.79785-1.77637,1.72949c-.02344,.19629-.65625,4.82715-6.27051,4.5752-.21191,.00293-.43262,.17285-.44238,.40723s.17285,.43262,.40723,.44238Z"/><path class="cls-1" d="M.70155,15.46875c-.2334,.02344-.4043,.23145-.38086,.46484,.02148,.21973,.20703,.38281,.42188,.38281,.01465,0,.02832,0,.04297-.00195,3.38867-.33691,5.81836-1.39746,7.22266-3.15332,1.44043-1.80078,1.23145-3.6582,1.22168-3.73633-.0293-.23438-.25-.39941-.47363-.37012-.2334,.02832-.39844,.24121-.37012,.47363,.00195,.01562,.17773,1.57715-1.04199,3.10254-1.25586,1.56934-3.49023,2.52441-6.64258,2.83789Z"/><path class="cls-1" d="M17.10976,17.56055c-3.52734,.50977-6.06543-2.51172-6.09082-2.54102-.14941-.18164-.41699-.20605-.59766-.05859-.18164,.14941-.20801,.41602-.05859,.59766,.10547,.12891,2.43262,2.91309,5.91699,2.91309,.30859,0,.62695-.02246,.95312-.06934,.23242-.03418,.39258-.25,.35938-.48242-.03418-.23145-.23926-.3916-.48242-.35938Z"/><path class="cls-1" d="M9.55019,14.22168c.11719-.2041,.04785-.46387-.15527-.58105-.20312-.11523-.46289-.04785-.58105,.15527-1.74414,3.02148-8.35742,3.60352-8.42383,3.6084-.2334,.01953-.40723,.22461-.38867,.45898,.01855,.22168,.2041,.38965,.42383,.38965,.01074,0,.02344,0,.03516-.00098,.29004-.02441,7.12305-.62402,9.08984-4.03027Z"/><path class="cls-1" d="M10.53065,10.01562c-.22168-.07227-.46191,.05469-.53223,.27734-.02734,.08594-.65039,2.11621,.35645,3.41113,.08398,.10742,.20996,.16406,.33594,.16406,.0918,0,.18359-.0293,.26074-.08887,.18555-.14453,.21875-.41113,.0752-.59668-.73242-.94141-.22266-2.61816-.21777-2.63477,.07031-.22363-.05469-.46191-.27832-.53223Z"/><path class="cls-1" d="M9.72108,16.25098c-.16309-.16699-.43066-.17285-.60156-.01172-2.59863,2.49805-8.16602,3.19824-8.22168,3.20508-.2334,.02832-.39941,.24023-.37109,.47266,.02637,.21582,.20898,.37402,.4209,.37402,.01758,0,.03418-.00098,.05176-.00293,.24023-.0293,5.9043-.74023,8.70996-3.43555,.16895-.16309,.17383-.43164,.01172-.60156Z"/><path class="cls-1" d="M16.5121,19.80664c-3.58887,0-5.72266-2.36133-5.74414-2.38477-.1543-.1748-.42188-.19141-.59961-.03711-.17578,.15527-.19238,.42285-.03809,.59863,.0957,.10938,2.39648,2.67285,6.38184,2.67285,.23438,0,.4248-.19043,.4248-.4248s-.19043-.4248-.4248-.4248Z"/><path class="cls-1" d="M15.32753,21.78516c-3.64844-.52344-5.99121-3.01758-6.01465-3.04297-.08008-.08691-.19434-.13672-.3125-.13672-.0791,.01367-.23633,.05078-.31738,.1416-1.55664,1.74609-6.77344,2.46484-6.82617,2.47266-.23242,.03125-.39551,.24512-.36426,.47754,.03027,.2334,.25293,.39746,.47754,.36426,.21484-.02832,5.01367-.69043,7.02832-2.43555,.78613,.7334,3.00684,2.54199,6.20801,3.00098,.02051,.00293,.04102,.00391,.06152,.00391,.20801,0,.38965-.15234,.41992-.36426,.0332-.23242-.12793-.44824-.36035-.48145Z"/><path class="cls-1" d="M13.66542,23.20215c-.46387,.07812-2.75781-1.07617-4.62793-2.18652-.15527-.0918-.35156-.07812-.49023,.04004-.90918,.76465-4.22949,1.54492-5.43262,1.78125-.23047,.04492-.37988,.26855-.33496,.49902,.0459,.22852,.2627,.38379,.49902,.33496,.43652-.08594,4.10156-.82617,5.56641-1.78223,1.2998,.76172,3.82422,2.16113,4.8291,2.16113,.05664,0,.1084-.00488,.15527-.01367,.22656-.04492,.36621-.26074,.32715-.48828-.04004-.22754-.26367-.38672-.49121-.3457Z"/><path class="cls-1" d="M12.36073,24.42578c-4.24902-2.27148-7.04102-.33105-7.15625-.24609-.18945,.13574-.2334,.40039-.09766,.59082,.13574,.19141,.40039,.2334,.5918,.10059,.09961-.07129,2.49902-1.70703,6.26172,.30469,.06348,.03418,.13184,.0498,.2002,.0498,.15137,0,.29785-.08105,.375-.22461,.11035-.20703,.03223-.46387-.1748-.5752Z"/><path class="cls-1" d="M.66298,7.85718c.25781,.01965,.48242-.17322,.50244-.43079,.01953-.25763-.17334-.48242-.43115-.50214-.25732-.01971-.48242,.17316-.50195,.43079s.17334,.48242,.43066,.50214Z"/></g></g></svg>