<?xml version="1.0" encoding="UTF-8"?><svg id="Layer_2" xmlns="http://www.w3.org/2000/svg" viewBox="0 0 19.4096 25.05747"><defs><style>.cls-1{fill:#783cbe;}</style></defs><g id="Layer_1-2"><g><path class="cls-1" d="M19.07492,2.72642c-.0293-.16211-.14941-.29199-.30859-.33496L9.83663,.01273c-.03662-.0097-.07373-.01276-.11279-.01208-.05371-.00281-.10449,.00342-.15332,.01996l-3.59912,.9646c-.22656,.06055-.36133,.29395-.2998,.52051,.05078,.18945,.22266,.31445,.41016,.31445,.03613,0,.07324-.00488,.11035-.01465l3.52393-.94446,8.56494,2.28137c.3125,2.11853,1.98486,16.37097-8.57617,21.02063C-.84842,19.51713,.81662,5.26188,1.12863,3.14243l1.60449-.42578c.22656-.06055,.36133-.29297,.30176-.52051-.06152-.22754-.29395-.36523-.52051-.30176l-1.87109,.49707c-.15918,.04297-.2793,.17285-.30859,.33496-.03125,.16992-2.97656,17.11914,9.2041,22.29785,.05371,.02246,.11035,.0332,.16602,.0332s.1123-.01074,.16602-.0332C22.05148,19.84556,19.10617,2.89634,19.07492,2.72642Z"/><path class="cls-1" d="M2.71847,4.72251c-.08203,.56055-1.91504,13.78027,6.82422,17.39551,.05273,.02246,.10742,.03223,.16211,.03223,.05566,0,.11133-.01074,.16602-.0332,8.88281-3.76465,6.84082-17.26367,6.81934-17.40039-.02637-.16406-.14648-.29785-.30664-.3418l-6.56543-1.81543c-.0083-.00232-.01562-.00006-.02393-.00189-.02979-.00641-.05908-.00714-.08984-.00696-.03076-.00018-.06055,.00061-.09033,.00708-.00732,.00177-.01465-.00043-.02246,.00177l-6.56543,1.81543c-.16211,.04395-.2832,.18066-.30762,.34766Zm.80762,.39551l6.17871-1.70892,6.18164,1.7099c.22852,1.85956,1.22852,12.81354-6.18408,16.12939C2.42306,18.0568,3.31564,7.00053,3.52609,5.11802Z"/><path class="cls-1" d="M4.3254,2.29124c.24561,.0188,.46045-.16516,.479-.41089s-.16504-.46014-.41113-.47894c-.24561-.0188-.45996,.16516-.47852,.41089-.01904,.24573,.16504,.46014,.41064,.47894Z"/></g></g></svg>