<?xml version="1.0" encoding="UTF-8"?><svg id="Layer_2" xmlns="http://www.w3.org/2000/svg" viewBox="0 0 19.0957 25.17676"><defs><style>.cls-1{fill:#783cbe;}</style></defs><g id="Layer_1-2"><g><path class="cls-1" d="M11.98291,14.01837l-3.23389,3.23315-1.16748-1.1673c-.49512-.49512-1.30225-.49512-1.79834,0-.49512,.49615-.49512,1.30316,0,1.79828l2.06689,2.06696c.23975,.23981,.55908,.37158,.89893,.37158,.33936,0,.65967-.13177,.89941-.37158l4.13281-4.13287c.49512-.49609,.49512-1.3031,0-1.79822-.49609-.49615-1.30322-.49615-1.79834,0Zm1.28467,1.28461l-4.13281,4.13281c-.10303,.10297-.23975,.15955-.38574,.15955-.14551,0-.28223-.05658-.38525-.15955l-2.06689-2.06689c-.21191-.2121-.21191-.55792,0-.771,.10693-.10602,.24609-.15955,.38623-.15955,.13965,0,.27881,.05353,.38574,.15955l1.42334,1.42358c.06836,.06897,.16064,.10706,.25684,.10706,.09668,0,.18896-.03809,.25684-.10706l3.49072-3.4895c.21191-.21307,.55811-.21307,.771,0,.21289,.21204,.21289,.55792,0,.771Z"/><path class="cls-1" d="M14.95605,3.7832c.01172,0,.02246,0,.03418-.00098,.24121-.01953,.42188-.23047,.4043-.47168-.00879-.11621-.0625-.22363-.15234-.2998s-.2002-.1123-.31934-.10449c-.11719,.00977-.22363,.06348-.2998,.15234s-.11328,.20215-.10449,.31934c.00879,.11621,.0625,.22266,.15234,.2998,.08008,.06836,.18066,.10547,.28516,.10547Z"/><path class="cls-1" d="M14.97363,8.42871H4.12305c-.15088,0-.29395,.02869-.44043,.04456v-1.80627C3.68262,3.43262,6.31445,.80078,9.54883,.80078c1.52148,0,2.96582,.58594,4.06738,1.65137,.16016,.15234,.41211,.14941,.56641-.00977,.15332-.15918,.14844-.41211-.00977-.56641-1.25195-1.20898-2.89453-1.87598-4.62402-1.87598C5.87305,0,2.88184,2.99121,2.88184,6.66699v1.97357c-1.66455,.5304-2.88184,2.07306-2.88184,3.91119v8.50195c0,2.27344,1.84961,4.12305,4.12305,4.12305H14.97363c2.27246,0,4.12207-1.84961,4.12207-4.12305V12.55176c0-2.27344-1.84961-4.12305-4.12207-4.12305Zm3.32129,12.625c0,1.83203-1.48926,3.32227-3.32129,3.32227H4.12305c-1.83203,0-3.32227-1.49023-3.32227-3.32227V12.55176c0-1.83203,1.49023-3.32227,3.32227-3.32227H14.97363c1.83203,0,3.32129,1.49023,3.32129,3.32227v8.50195Z"/></g></g></svg>