<?xml version="1.0" encoding="UTF-8"?><svg id="Layer_2" xmlns="http://www.w3.org/2000/svg" viewBox="0 0 19.02637 25.08301"><defs><style>.cls-1{fill:#783cbe;}</style></defs><g id="Layer_1-2"><g><path class="cls-1" d="M14.91797,8.39648H4.10938c-.19336,0-.37793,.03113-.56445,.05707v-1.81C3.54492,3.42188,6.16602,.80078,9.3877,.80078c1.51465,0,2.95312,.58398,4.05078,1.64453,.16016,.15137,.41211,.14941,.56641-.00977,.15332-.15918,.14844-.41211-.00977-.56641-1.24805-1.20508-2.88379-1.86914-4.60742-1.86914C5.72461,0,2.74414,2.98047,2.74414,6.64355v2.00391c-1.59326,.56592-2.74414,2.07275-2.74414,3.85742v8.46973c0,2.26562,1.84375,4.1084,4.10938,4.1084H14.91797c2.26562,0,4.1084-1.84277,4.1084-4.1084V12.50488c0-2.26562-1.84277-4.1084-4.1084-4.1084Zm3.30762,12.57812c0,1.82422-1.4834,3.30762-3.30762,3.30762H4.10938c-1.82422,0-3.30859-1.4834-3.30859-3.30762V12.50488c0-1.82422,1.48438-3.30762,3.30859-3.30762H14.91797c1.82422,0,3.30762,1.4834,3.30762,3.30762v8.46973Z"/><path class="cls-1" d="M11.22363,13.41797c-.69238-.53418-1.58789-.71289-2.44922-.48828-.96875,.25098-1.74414,1.04395-1.97559,2.02051-.28906,1.21289,.22656,2.4375,1.26172,3.06641v1.17773c0,.7998,.65234,1.45117,1.45312,1.45117,.7998,0,1.45117-.65137,1.45117-1.45117v-1.17773c.83496-.50586,1.34473-1.39941,1.34473-2.38672,0-.87109-.39648-1.67773-1.08594-2.21191Zm-.83496,4.00293c-.1377,.06738-.22461,.20703-.22461,.35938v1.41406c0,.3584-.29199,.65039-.65039,.65039-.36035,0-.65234-.29199-.65234-.65039v-1.41406c0-.15234-.08691-.29199-.22461-.35938-.8457-.41504-1.28125-1.35449-1.05957-2.28516,.16113-.68164,.72266-1.25684,1.39746-1.43164,.17773-.0459,.35742-.06836,.53516-.06836,.44336,0,.87109,.14258,1.22363,.41504,.49316,.38184,.77539,.95703,.77539,1.5791,0,.76562-.42871,1.45215-1.12012,1.79102Z"/><path class="cls-1" d="M14.77539,3.77051c.01074,0,.02148,0,.0332-.00098,.24023-.01953,.4209-.23047,.40234-.4707-.00879-.11621-.0625-.22266-.15137-.29883-.08984-.07617-.20117-.11133-.31836-.10352-.11621,.00977-.22266,.06348-.29883,.15137-.0752,.08887-.1123,.20215-.10352,.31836s.0625,.22266,.15137,.29883c.08008,.06836,.17969,.10547,.28516,.10547Z"/></g></g></svg>