<?xml version="1.0" encoding="UTF-8"?><svg id="Layer_2" xmlns="http://www.w3.org/2000/svg" viewBox="0 0 19.41012 25.0575"><defs><style>.cls-1{fill:#783cbe;}</style></defs><g id="Layer_1-2"><g><path class="cls-1" d="M19.07568,2.72645c-.0293-.16211-.14941-.29199-.30859-.33496L9.83642,.01276c-.03662-.00977-.07373-.01276-.11328-.01208-.05566-.00299-.10791,.00391-.1582,.02136l-3.59277,.9632c-.22656,.06055-.36133,.29395-.2998,.52051,.05078,.18945,.22266,.31445,.41016,.31445,.03613,0,.07324-.00488,.11035-.01465l3.52295-.94446,8.56494,2.28137c.31299,2.11957,1.97705,16.37567-8.57715,21.02112C-.84766,19.51624,.81689,5.26185,1.12841,3.14246l1.60449-.42578c.22656-.06055,.36133-.29297,.30176-.52051-.06152-.22754-.29004-.36523-.52051-.30176l-1.87109,.49707c-.15918,.04297-.2793,.17285-.30859,.33496-.03125,.16992-2.97559,17.11914,9.2041,22.29785,.05371,.02246,.11035,.0332,.16602,.0332s.1123-.01074,.16602-.0332C22.05127,19.84559,19.10693,2.89637,19.07568,2.72645Z"/><path class="cls-1" d="M2.71826,4.72254c-.08203,.56055-1.91406,13.78027,6.82422,17.39551,.05273,.02246,.10742,.03223,.16211,.03223,.05566,0,.11133-.01074,.16602-.0332,8.88379-3.76465,6.8418-17.26367,6.82031-17.40039-.02637-.16406-.14648-.29785-.30664-.3418l-6.56641-1.81543c-.00732-.00208-.01465,0-.02197-.00171-.02979-.00653-.06006-.00732-.09131-.00708-.03174-.00024-.06201,.00061-.0918,.00714-.00732,.00165-.01416-.00043-.02148,.00165l-6.56543,1.81543c-.16211,.04395-.2832,.18066-.30762,.34766Zm.80762,.39551l6.17871-1.70892,6.18262,1.7099c.22852,1.85956,1.22852,12.81354-6.18457,16.12939C2.42383,18.05683,3.3164,7.00055,3.52588,5.11805Z"/><path class="cls-1" d="M4.32568,2.29126c.24561,.0188,.45996-.16516,.47852-.41089,.01904-.24573-.16504-.46014-.41064-.47894s-.45996,.16516-.479,.41089c-.01855,.24573,.16504,.46014,.41113,.47894Z"/><path class="cls-1" d="M9.26367,15.46509c.33984,0,.66016-.13177,.8999-.37158l4.13281-4.13281c.49512-.49615,.49512-1.30316,0-1.79828-.49609-.49615-1.30322-.49615-1.79834,0l-3.23438,3.23315-1.16699-1.16724c-.49512-.49512-1.30225-.49512-1.79834,0-.49512,.49609-.49512,1.3031,0,1.79822l2.06689,2.06696c.23975,.23981,.55908,.37158,.89844,.37158Zm-2.45166-3.72314c.10693-.10602,.24609-.15955,.38574-.15955,.14014,0,.2793,.05353,.38623,.15955l1.42334,1.42358c.06836,.06897,.16064,.10706,.25635,.10706,.09717,0,.18945-.03809,.25732-.10706l3.49072-3.48944c.21191-.21307,.55811-.21307,.771,0,.21289,.21204,.21289,.55786,0,.77094l-4.13281,4.13281c-.10303,.10297-.23975,.15961-.38623,.15961-.14502,0-.28174-.05664-.38477-.15961l-2.06689-2.06689c-.21191-.21204-.21191-.55792,0-.771Z"/></g></g></svg>