<?xml version="1.0" encoding="UTF-8"?><svg id="Layer_2" xmlns="http://www.w3.org/2000/svg" viewBox="0 0 32.53174 24.62988"><defs><style>.cls-1{fill:#783cbe;}</style></defs><g id="Layer_1-2"><g><path class="cls-1" d="M21.07764,20.47461l-18.4707-.08203c-.95703,0-1.73535-.76465-1.73535-1.7041V6.11816c0-.23438-.19043-.4248-.4248-.4248s-.4248,.19043-.4248,.4248v12.57031c0,1.4082,1.15918,2.55371,2.58301,2.55371l18.46875,.08203h.00195c.2334,0,.42383-.18848,.4248-.42285s-.18848-.42578-.42285-.42676Z"/><path class="cls-1" d="M.40479,3.02051c.22754,.03418,.44238-.14746,.46484-.38086l.04102-.44434c.17188-.7793,.88477-1.3457,1.69629-1.3457H25.52881c.95703,0,1.73633,.76465,1.73633,1.7041V13.27441c0,.23438,.19043,.4248,.4248,.4248s.4248-.19043,.4248-.4248V2.55371c0-1.4082-1.16016-2.55371-2.58594-2.55371H2.60693C1.3999,0,.3374,.8457,.07275,2.06152l-.04883,.49414c-.02344,.2334,.14746,.44141,.38086,.46484Z"/><path class="cls-1" d="M5.42627,12.08301c-.23438,0-.4248,.19043-.4248,.4248v4.18945c0,.23438,.19043,.4248,.4248,.4248h2.73047c.23438,0,.4248-.19043,.4248-.4248v-4.18945c0-.23438-.19043-.4248-.4248-.4248h-2.73047Zm2.30566,4.18945h-1.88086v-3.33984h1.88086v3.33984Z"/><path class="cls-1" d="M10.25146,9.70117c-.23438,0-.4248,.19043-.4248,.4248v6.57129c0,.23438,.19043,.4248,.4248,.4248h2.73047c.23438,0,.4248-.19043,.4248-.4248v-6.57129c0-.23438-.19043-.4248-.4248-.4248h-2.73047Zm2.30566,6.57129h-1.88086v-5.72168h1.88086v5.72168Z"/><path class="cls-1" d="M17.80713,10.73926h-2.73145c-.23438,0-.4248,.19043-.4248,.4248v5.5332c0,.23438,.19043,.4248,.4248,.4248h2.73145c.23438,0,.4248-.19043,.4248-.4248v-5.5332c0-.23438-.19043-.4248-.4248-.4248Zm-.4248,5.5332h-1.88184v-4.68359h1.88184v4.68359Z"/><path class="cls-1" d="M23.05713,16.69727v-7.69531c0-.23438-.19043-.4248-.4248-.4248h-2.73145c-.23438,0-.4248,.19043-.4248,.4248v7.69531c0,.23438,.19043,.4248,.4248,.4248h2.73145c.23438,0,.4248-.19043,.4248-.4248Zm-.84961-.4248h-1.88184v-6.8457h1.88184v6.8457Z"/><path class="cls-1" d="M22.42529,5.06274c.06055,.05176,.10645,.11725,.17578,.15894,.2207,.13281,.46875,.20117,.7207,.20117,.11426,0,.22949-.01465,.34375-.04297,.36426-.09082,.6709-.31934,.86426-.64062,.19238-.32227,.24902-.7002,.15723-1.06445-.09082-.36328-.31738-.6709-.63965-.86426-.32324-.19336-.7002-.25-1.06445-.1582-.75098,.18817-1.20898,.95062-1.02295,1.70056l-3.99463,2.37598c-.23633-.17963-.52734-.29041-.84668-.29041-.42383,0-.7998,.19208-1.05762,.48938l-4.02246-2.21411c.00146-.026,.00781-.05066,.00781-.07703,0-.77539-.62988-1.40625-1.40527-1.40625s-1.40527,.63086-1.40527,1.40625c0,.15497,.03125,.30145,.07764,.44092l-3.81104,2.80847c-.25781-.29681-.6333-.48865-1.05664-.48865-.77539,0-1.40625,.62988-1.40625,1.40527s.63086,1.40527,1.40625,1.40527,1.40527-.62988,1.40527-1.40527c0-.03778-.0083-.07324-.01123-.11029l3.97168-2.927c.2334,.17169,.51807,.27655,.82959,.27655,.44189,0,.83154-.20856,1.08936-.52802l3.99609,2.19952c-.00439,.04358-.01318,.08563-.01318,.13025,0,.77539,.62988,1.40527,1.40527,1.40527s1.40625-.62988,1.40625-1.40527c0-.14636-.02881-.28479-.07031-.41748l3.96582-2.35889c.00195-.00122,.00293-.00336,.00488-.00464ZM4.4458,9.3584c-.30664,0-.55664-.24902-.55664-.55566s.25-.55566,.55664-.55566,.55566,.24902,.55566,.55566-.24902,.55566-.55566,.55566Zm6.19531-4.16602c-.30664,0-.55566-.24902-.55566-.55566s.24902-.55664,.55566-.55664,.55566,.25,.55566,.55664-.24902,.55566-.55566,.55566Zm12.54785-1.71582c.04492-.01074,.09082-.0166,.13574-.0166,.09961,0,.19727,.02734,.28516,.08008,.12695,.07617,.2168,.19727,.25293,.34082v.00098c.07422,.29688-.10645,.59863-.40332,.67383-.14551,.03418-.29492,.0127-.42188-.06348s-.2168-.19727-.25293-.3418c-.07422-.29688,.10742-.59863,.4043-.67383Zm-6.07031,4.92285c-.30664,0-.55566-.24902-.55566-.55566s.24902-.55566,.55566-.55566,.55664,.24902,.55664,.55566-.25,.55566-.55664,.55566Z"/><path class="cls-1" d="M27.65088,14.86719c-2.69141,0-4.88086,2.18945-4.88086,4.88086,0,2.69238,2.18945,4.88184,4.88086,4.88184s4.88086-2.18945,4.88086-4.88184c0-2.69141-2.18945-4.88086-4.88086-4.88086Zm-2.42676,8.07971c.03369-.06061,.05762-.12677,.05762-.20081,0-1.32129,1.0752-2.39648,2.39648-2.39648s2.39648,1.0752,2.39648,2.39648c0,.06146,.01416,.11902,.03809,.17175-.68359,.53223-1.53076,.86243-2.46191,.86243-.91455,0-1.74902-.31799-2.42676-.83337Zm2.48926-3.48987c-.58496,0-1.06055-.47559-1.06055-1.05957s.47559-1.05957,1.06055-1.05957c.58398,0,1.05957,.47559,1.05957,1.05957s-.47559,1.05957-1.05957,1.05957Zm3.15137,2.6991c-.19531-1.05743-.90283-1.9328-1.85693-2.36407,.37598-.34888,.61475-.84271,.61475-1.39459,0-1.05273-.85645-1.90918-1.90918-1.90918-1.05371,0-1.91016,.85645-1.91016,1.90918,0,.53906,.22656,1.02435,.58691,1.37183-.99316,.43152-1.72168,1.3465-1.9043,2.44586-.53418-.68414-.86621-1.53357-.86621-2.4671,0-2.22266,1.80859-4.03125,4.03125-4.03125s4.03125,1.80859,4.03125,4.03125c0,.90607-.31104,1.73413-.81738,2.40808Z"/><path class="cls-1" d="M.44629,4.8114c.24658,0,.44629-.19958,.44629-.44641,0-.24677-.19971-.44635-.44629-.44635s-.44629,.19958-.44629,.44635c0,.24683,.19971,.44641,.44629,.44641Z"/></g></g></svg>