<?xml version="1.0" encoding="UTF-8"?><svg id="Layer_2" xmlns="http://www.w3.org/2000/svg" viewBox="0 0 32.20517 25.42871"><defs><style>.cls-1{fill:#783cbe;}</style></defs><g id="Layer_1-2"><g><path class="cls-1" d="M11.7998,5.05762h6.62793c.24121,.87219,1.03418,1.51758,1.98242,1.51758,1.13867,0,2.06445-.92578,2.06445-2.06445s-.92578-2.06543-2.06445-2.06543c-1.03516,0-1.88672,.76813-2.03467,1.7627h-6.57568c-2.0918,0-3.79785,1.40918-3.83105,3.15234v.07227c.0332,1.74316,1.73926,3.15234,3.88086,3.15234h5.42285c.00781,0,.01416-.00397,.02148-.00439,.00781,.00043,.01465,.00439,.02246,.00439,1.6377,0,2.9707,1.04785,2.98145,2.33887-.01074,1.29102-1.34375,2.33887-2.98145,2.33887h-6.59326l.82568-.8252c.16602-.16602,.16602-.43555,0-.60156s-.43555-.16602-.60156,0l-1.53223,1.53223c-.16602,.16602-.16602,.43555,0,.60156l1.53223,1.5332c.08301,.08301,.19238,.12402,.30078,.12402s.21777-.04102,.30078-.12402c.16602-.16602,.16602-.43555,0-.60156l-.78906-.78906h6.55664c2.0918,0,3.79785-1.40918,3.83105-3.15234v-.07227c-.0332-1.74042-1.73389-3.14716-3.87109-3.15155-.00146,0-.00244-.00079-.00391-.00079h-5.47266c-1.6377,0-2.9707-1.04785-2.98145-2.33887,.01074-1.29102,1.34375-2.33887,2.98145-2.33887Zm8.61035-1.7627c.66992,0,1.21484,.5459,1.21484,1.21582s-.54492,1.21484-1.21484,1.21484c-.62354,0-1.12061-.47839-1.18945-1.08392,0-.00311,.00195-.00574,.00195-.00885,0-.04651-.0127-.08923-.02637-.1311,.00488-.66553,.54736-1.20679,1.21387-1.20679Z"/><path class="cls-1" d="M3.87793,15.61328c0,1.13867,.92578,2.06445,2.06445,2.06445s2.06543-.92578,2.06543-2.06445-.92676-2.06543-2.06543-2.06543-2.06445,.92676-2.06445,2.06543Zm2.06445-1.21582c.66992,0,1.21582,.5459,1.21582,1.21582s-.5459,1.21484-1.21582,1.21484-1.21484-.54492-1.21484-1.21484,.54492-1.21582,1.21484-1.21582Z"/><path class="cls-1" d="M31.49414,18.36621l-.8252,.04102c-.16699-.30469-.37109-.58691-.6123-.84082l.29297-.77344c.06641-.1748,.00977-.37305-.13867-.4873-.43066-.33105-.90918-.58887-1.42285-.7666-.1748-.05957-.375,.00098-.48438,.15332l-.4834,.6709c-.34473-.05957-.69434-.07617-1.04004-.0459l-.42188-.71191c-.09473-.16113-.28125-.24316-.46875-.19531-.52832,.13184-1.02832,.3457-1.48633,.63477-.1582,.10059-.23242,.29297-.18164,.47363l.22363,.79688c-.13086,.11621-.25391,.23926-.36816,.37012-.11426,.13184-.2207,.26953-.31641,.41406l-.81934-.11426c-.18262-.02734-.36719,.07422-.44531,.24414-.22559,.49609-.37012,1.02051-.42871,1.55957-.01953,.18652,.08496,.36426,.25781,.4375l.76074,.32129c.01758,.34863,.08008,.69141,.18652,1.02441l-.60059,.56934c-.13574,.12988-.1709,.33301-.08594,.50098,.24512,.4834,.56543,.92383,.95215,1.30664,.13184,.13281,.33789,.16113,.50195,.07129l.72559-.39453c.28418,.2041,.59082,.36914,.91699,.49316l.07031,.82324c.0166,.1875,.1543,.3418,.33789,.37988,.3418,.07031,.6875,.10645,1.0332,.10645,.19434,0,.3877-.01172,.58105-.03418,.18652-.02148,.33691-.16309,.37012-.34766l.14355-.81445c.33789-.09473,.65918-.23145,.95898-.40918l.6875,.45703c.15625,.10449,.3623,.09375,.50781-.02734,.2041-.16992,.39746-.3584,.5791-.56543,.18164-.20801,.3418-.42578,.48242-.65137,.09961-.15918,.08301-.36426-.04102-.50586l-.54688-.62012c.13574-.32227,.22852-.6582,.27637-1.00391l.78711-.25293c.17871-.05664,.29883-.22461,.29492-.41309-.01074-.53906-.10742-1.07422-.28809-1.58984-.0625-.17676-.20605-.27539-.42285-.28418Zm-.89551,1.81543c-.16602,.05273-.2832,.20215-.29395,.37695-.02832,.43164-.14258,.8457-.33887,1.23242-.0791,.15527-.05469,.34277,.05957,.47363l.5127,.58105c-.07031,.09668-.14551,.19043-.22559,.28223-.08105,.0918-.16406,.17969-.25,.2627l-.64551-.42871c-.14551-.09766-.33594-.0957-.47754,.00488-.35352,.24512-.74902,.41406-1.17578,.50195-.1709,.03516-.30273,.16992-.33398,.3418l-.13477,.76465c-.23828,.00879-.48047-.00098-.72266-.0332l-.06641-.77148c-.01562-.17383-.13477-.32031-.30176-.37109-.41309-.12402-.79199-.32812-1.125-.60547-.13281-.11133-.32227-.13086-.47559-.04688l-.68164,.37012c-.1582-.18262-.30078-.37793-.42578-.58496l.5625-.53418c.12598-.12012,.16602-.30469,.10156-.4668-.16113-.40234-.23828-.8252-.22852-1.25684,.00391-.1748-.09863-.33301-.25977-.40137l-.71387-.30176c.04395-.23828,.10742-.47168,.19141-.69824l.76758,.10645c.17383,.02637,.3418-.05859,.42773-.20996,.10547-.18555,.23145-.3623,.37305-.52539,.14062-.16016,.29883-.30859,.46973-.44043,.1377-.10547,.19727-.28418,.15039-.45117l-.20898-.74609c.21289-.11426,.43555-.20898,.66602-.28516l.39551,.66797c.08984,.14941,.2666,.22656,.43164,.20312,.42871-.06738,.85645-.04883,1.27734,.05664,.16504,.04297,.3457-.02246,.44824-.16406l.45312-.62988c.22266,.09668,.43555,.21094,.6377,.34375l-.27539,.72559c-.06152,.16211-.01758,.34668,.11035,.46387,.32129,.29395,.5752,.64258,.75293,1.0332,.07227,.15918,.22754,.24219,.4082,.24902l.77344-.03906c.06348,.23535,.10645,.47363,.12988,.71289l-.73926,.2373Z"/><path class="cls-1" d="M26.96973,18.10156c-.59961,.04004-1.14648,.31152-1.54102,.76367s-.58984,1.03027-.54883,1.62988c.04004,.59863,.31152,1.14551,.76367,1.54102,.41211,.36035,.93164,.55469,1.47461,.55469,.05176,0,.10352-.00195,.15527-.00586,.59863-.04004,1.14551-.31152,1.54102-.76367,.39453-.45215,.58984-1.03125,.54883-1.62988-.04004-.59961-.31152-1.14648-.76367-1.54102s-1.0332-.59766-1.62988-.54883Zm1.2041,3.16113c-.24512,.28027-.58594,.44922-.95801,.47461-.36914,.02344-.73145-.0957-1.01367-.3418-.28027-.24512-.44922-.58594-.47461-.95801s.0957-.73242,.3418-1.01367c.24512-.28125,.58496-.44922,.95703-.47461,.03223-.00195,.06445-.00293,.09668-.00293,.33789,0,.66113,.12012,.91797,.34473,.28125,.24512,.44922,.58496,.47461,.95703,.02539,.37305-.0957,.7334-.3418,1.01465Z"/><path class="cls-1" d="M20.64648,20.57129l-18.0293-.08203c-.96289,0-1.74609-.76855-1.74609-1.71387V6.14551c0-.23438-.19043-.4248-.4248-.4248s-.4248,.19043-.4248,.4248v12.62988c0,1.41406,1.16406,2.56348,2.59375,2.56348l18.02734,.08203h.00195c.2334,0,.42383-.18848,.4248-.42285s-.18848-.42578-.42285-.42676Z"/><path class="cls-1" d="M.4082,3.08105c.22266,.03418,.44043-.15137,.46094-.38477l.04102-.49316c.17383-.78418,.8916-1.35352,1.70703-1.35352H25.64746c.96289,0,1.74609,.76855,1.74609,1.71387V13.68164c0,.23438,.19043,.4248,.4248,.4248s.4248-.19043,.4248-.4248V2.56348c0-1.41406-1.16406-2.56348-2.5957-2.56348H2.61719C1.40625,0,.33984,.84961,.07227,2.07324l-.04883,.54688c-.02148,.23438,.15137,.44043,.38477,.46094Z"/><path class="cls-1" d="M.44629,4.86511c.24707,0,.44629-.19958,.44629-.44641,0-.24677-.19922-.44635-.44629-.44635s-.44629,.19958-.44629,.44635c0,.24683,.19922,.44641,.44629,.44641Z"/></g></g></svg>