<?xml version="1.0" encoding="UTF-8"?><svg id="Layer_2" xmlns="http://www.w3.org/2000/svg" viewBox="0 0 29.78551 25.0498"><defs><style>.cls-1{fill:#783cbe;}</style></defs><g id="Layer_1-2"><g><path class="cls-1" d="M28.70898,10.88184c-.12402-.13672-.29785-.21777-.49023-.22656-.21191-.0166-.45605,.07617-.63379,.2373l-.09961,.09015V1.76465c0-.97266-.79199-1.76465-1.76465-1.76465H1.78613C.81348,0,.02148,.79199,.02148,1.76465v1.69922c0,.23438,.19043,.4248,.4248,.4248s.4248-.19043,.4248-.4248V1.76465c0-.50488,.41016-.91504,.91504-.91504H25.7207c.50488,0,.91504,.41016,.91504,.91504V11.56641c0,.05542,.01221,.10773,.03174,.15631l-.38184,.34528c0,.00018-.00049,.00018-.00049,.00037l-6.77832,6.05078c-.00879,.00806-.0127,.01929-.021,.02795-.02051,.02136-.03662,.04486-.05273,.07062-.01416,.02362-.02686,.04657-.03662,.07208-.00439,.01196-.01318,.02087-.0166,.03345l-.08301,.30176H1.78613c-.50488,0-.91504-.41016-.91504-.91406V6.97168c0-.23438-.19043-.4248-.4248-.4248s-.4248,.19043-.4248,.4248v10.73926c0,.97266,.79199,1.76367,1.76465,1.76367h7.99023v2.64453h-1.46973c-.67676,0-1.22754,.55078-1.22754,1.22754v.47559c0,.67676,.55078,1.22754,1.22754,1.22754h10.47852c.67676,0,1.22754-.55078,1.22754-1.22754v-.47559c0-.67676-.55078-1.22754-1.22754-1.22754h-1.46973v-2.64453h1.74707l-.17871,.64941c-.03809,.14062-.00293,.29102,.09473,.39844,.08203,.08984,.19629,.13965,.31543,.13965,.02344,0,.04785-.00195,.07227-.00586l1.84082-.31543c.07471-.01294,.13672-.04938,.19141-.09424,.00586-.00458,.01416-.00238,.01953-.00732l6.84961-6.12109c.00391-.0036,.00537-.00873,.00928-.01245,.00635-.005,.01514-.00269,.021-.00806l1.17383-1.06445c.35938-.32227,.41895-.84375,.13281-1.16309l-.89551-.98828Zm-9.5459,12.46484v.47559c0,.20801-.16992,.37793-.37793,.37793H8.30664c-.20801,0-.37793-.16992-.37793-.37793v-.47559c0-.20801,.16992-.37793,.37793-.37793h10.47852c.20801,0,.37793,.16992,.37793,.37793Zm-2.69727-1.22754h-5.83984v-2.64453h5.83984v2.64453Zm3.50732-2.74799c.09326-.07794,.15576-.19061,.15576-.32135,0-.04956-.0127-.09564-.02832-.13989l.06641-.23962,6.43213-5.742,.78027,.84283-6.43701,5.75238-1.06152,.18158,.09229-.33392Zm8.0415-6.16461l-.78223-.84552,.91895-.82489,.75098,.86621-.8877,.8042Z"/><path class="cls-1" d="M7.35742,10.31152c-.23438,0-.4248,.19043-.4248,.4248v5.88086c0,.23438,.19043,.4248,.4248,.4248h2.9502c.23438,0,.4248-.19043,.4248-.4248v-5.88086c0-.23438-.19043-.4248-.4248-.4248h-2.9502Zm2.52539,5.88086h-2.10059v-5.03125h2.10059v5.03125Z"/><path class="cls-1" d="M15.2002,11.79492h-2.9502c-.23438,0-.4248,.19043-.4248,.4248v4.39746c0,.23438,.19043,.4248,.4248,.4248h2.9502c.23438,0,.4248-.19043,.4248-.4248v-4.39746c0-.23438-.19043-.4248-.4248-.4248Zm-.4248,4.39746h-2.10059v-3.54785h2.10059v3.54785Z"/><path class="cls-1" d="M17.14258,8.62988c-.23438,0-.4248,.19043-.4248,.4248v7.5625c0,.23438,.19043,.4248,.4248,.4248h2.9502c.23438,0,.4248-.19043,.4248-.4248v-7.5625c0-.23438-.19043-.4248-.4248-.4248h-2.9502Zm2.52539,7.5625h-2.10059v-6.71289h2.10059v6.71289Z"/><path class="cls-1" d="M4.41504,6.87598c-.77344,0-1.40332,.62988-1.40332,1.4043s.62988,1.4043,1.40332,1.4043c.77441,0,1.4043-.62988,1.4043-1.4043,0-.03943-.0083-.07648-.01172-.11511l3.59668-2.91284c.23145,.16864,.51416,.27112,.82227,.27112,.45166,0,.8501-.21808,1.10693-.55054l3.7832,1.46393c-.00293,.03729-.01123,.073-.01123,.11102,0,.77441,.62988,1.4043,1.4043,1.4043s1.4043-.62988,1.4043-1.4043c0-.13818-.02637-.26917-.06396-.39539l3.80322-1.89465c.00684-.00348,.01074-.00995,.01758-.01373,.25195,.21747,.5708,.35162,.91309,.35162,.11133,0,.22559-.01367,.33887-.04199,.36426-.09082,.6709-.31836,.86426-.63965,.19238-.32227,.24902-.7002,.15723-1.06348-.18848-.75098-.95215-1.21094-1.70312-1.02148-.74805,.18781-1.20459,.94647-1.02246,1.69482l-3.85303,1.91949c-.23779-.18445-.53223-.29889-.85596-.29889-.43115,0-.8125,.19928-1.07031,.50562l-3.81396-1.47601c.00049-.01868,.00537-.03619,.00537-.05499,0-.77344-.62988-1.40332-1.4043-1.40332s-1.4043,.62988-1.4043,1.40332c0,.15704,.03174,.30548,.07959,.44653l-3.44092,2.78674c-.25732-.28986-.62842-.47644-1.0459-.47644ZM22.44727,2.65332c.04492-.01074,.09082-.0166,.13574-.0166,.09863,0,.19727,.02734,.28418,.08008,.12695,.07617,.2168,.19727,.25293,.33984v.00098c.03613,.14355,.01367,.29199-.0625,.41895s-.19629,.2168-.33984,.25293c-.29102,.07227-.59863-.10645-.67383-.40332-.07324-.29688,.10742-.59863,.40332-.67285Zm-5.9375,3.34082c.30566,0,.55469,.24805,.55469,.55371s-.24902,.55469-.55469,.55469-.55469-.24902-.55469-.55469,.24902-.55371,.55469-.55371Zm-6.2832-2.42871c.30566,0,.55469,.24805,.55469,.55371s-.24902,.55469-.55469,.55469-.55469-.24902-.55469-.55469,.24902-.55371,.55469-.55371Zm-5.81152,5.26953c-.30566,0-.55371-.24902-.55371-.55469s.24805-.55469,.55371-.55469,.55469,.24902,.55469,.55469-.24902,.55469-.55469,.55469Z"/><path class="cls-1" d="M.44678,5.65387c.24658,0,.44629-.19958,.44629-.44641s-.19971-.44635-.44629-.44635c-.24707,0-.44678,.19952-.44678,.44635s.19971,.44641,.44678,.44641Z"/></g></g></svg>