<?xml version="1.0" encoding="UTF-8"?><svg id="Layer_2" xmlns="http://www.w3.org/2000/svg" viewBox="0 0 32.2872 25.49123"><defs><style>.cls-1{fill:#783cbe;}</style></defs><g id="Layer_1-2"><g><path class="cls-1" d="M22.57227,9.73438c1.1416,0,2.06934-.92773,2.06934-2.06934s-.92773-2.06934-2.06934-2.06934-2.06934,.92773-2.06934,2.06934c0,.49878,.18457,.95062,.479,1.30823l-3.34619,3.92328c-.22363-.08295-.4624-.13483-.71484-.13483-.31982,0-.61914,.07886-.88965,.20868l-3.17822-3.98987c.29834-.35864,.48486-.81329,.48486-1.31549,0-1.1416-.92773-2.06934-2.06836-2.06934-1.1416,0-2.06934,.92773-2.06934,2.06934,0,.5343,.2085,1.01703,.54199,1.38446l-3.30957,3.88062c-.25049-.10779-.52588-.1684-.81543-.1684-1.1416,0-2.06934,.92773-2.06934,2.06934,0,1.14062,.92773,2.06836,2.06934,2.06836s2.06934-.92773,2.06934-2.06836c0-.54443-.21533-1.03644-.55957-1.40613l3.30225-3.87244c.25732,.11499,.54053,.18188,.84033,.18188,.33154,0,.64062-.08575,.91895-.22504l3.17041,3.97943c-.31201,.3623-.50732,.82758-.50732,1.34229,0,1.14062,.92773,2.06836,2.06934,2.06836s2.06934-.92773,2.06934-2.06836c0-.58008-.24121-1.10321-.62646-1.47919l3.28076-3.84692c.28027,.14191,.59277,.22943,.92773,.22943ZM5.61719,16.0498c-.67285,0-1.21973-.54688-1.21973-1.21875,0-.67285,.54688-1.21973,1.21973-1.21973s1.21973,.54688,1.21973,1.21973c0,.67188-.54688,1.21875-1.21973,1.21875ZM10.0498,7.66504c0-.67285,.54688-1.21973,1.21973-1.21973,.67188,0,1.21875,.54688,1.21875,1.21973s-.54688,1.21973-1.21875,1.21973c-.67285,0-1.21973-.54688-1.21973-1.21973Zm6.87109,8.38477c-.67285,0-1.21973-.54688-1.21973-1.21875,0-.67285,.54688-1.21973,1.21973-1.21973s1.21973,.54688,1.21973,1.21973c0,.67188-.54688,1.21875-1.21973,1.21875Zm5.65137-9.60449c.67285,0,1.21973,.54688,1.21973,1.21973s-.54688,1.21973-1.21973,1.21973-1.21973-.54688-1.21973-1.21973,.54688-1.21973,1.21973-1.21973Z"/><path class="cls-1" d="M31.57422,18.41406l-.82715,.04102c-.16699-.30664-.37305-.58984-.61426-.84375l.29395-.77637c.06641-.1748,.00977-.37402-.13867-.4873-.43457-.33301-.91504-.5918-1.42773-.76855-.18262-.06152-.375,.00098-.4834,.15332l-.48535,.67285c-.34473-.05957-.69727-.07617-1.04297-.0459l-.42383-.71387c-.09473-.16113-.28516-.24219-.46777-.19531-.53027,.13184-1.03223,.3457-1.49023,.63574-.15918,.10059-.2334,.29395-.18262,.47461l.22461,.79883c-.12988,.11523-.25293,.23926-.36914,.37109-.11426,.13184-.22168,.27051-.31836,.41602l-.82129-.11426c-.17969-.02539-.36621,.07422-.44531,.24414-.22656,.49609-.37109,1.02148-.42969,1.56348-.01953,.1875,.08496,.36426,.25781,.4375l.76367,.32227c.01758,.34961,.08008,.69336,.18652,1.02734l-.60254,.57129c-.13574,.12988-.1709,.33301-.08594,.5,.24414,.48438,.56543,.92578,.9541,1.31055,.13184,.13281,.33594,.16211,.50195,.07129l.72852-.39551c.28516,.20508,.59277,.37109,.91992,.49512l.07129,.82715c.0166,.18652,.1543,.3418,.33789,.37891,.34277,.07031,.68945,.10645,1.03516,.10547,.19434,0,.38867-.01074,.58301-.0332,.18652-.02148,.33691-.16309,.37012-.34766l.14453-.81738c.33887-.09473,.66016-.23242,.96094-.41016l.69043,.45898c.15527,.10449,.36328,.09375,.50879-.02832,.20312-.1709,.39746-.3584,.58008-.56641,.18066-.20801,.3418-.42578,.4834-.65234,.09961-.16016,.08301-.36523-.04102-.50684l-.54883-.62207c.13574-.32129,.22852-.65918,.27734-1.00781l.79004-.25391c.17871-.05664,.29883-.22461,.29492-.41309-.01074-.53906-.1084-1.0752-.29004-1.59277-.06348-.17676-.20312-.27734-.42285-.28418Zm-.89648,1.82031c-.16602,.05273-.28223,.20215-.29395,.37598-.0293,.43555-.14355,.85156-.33984,1.23535-.0791,.15527-.05566,.34375,.05957,.47461l.51465,.58301c-.07129,.09766-.14648,.19238-.22656,.28418-.08105,.09277-.16602,.18066-.25293,.26465l-.64746-.43066c-.14551-.09766-.33594-.09473-.47754,.00488-.35449,.24609-.75,.41504-1.17773,.50293-.1709,.03418-.30273,.16992-.33398,.3418l-.13574,.7666c-.24707,.01367-.48633,0-.72754-.03223l-.06641-.77539c-.01562-.17285-.13477-.32031-.30176-.37012-.41406-.12402-.79395-.3291-1.12793-.60742-.13281-.11133-.32227-.13086-.47559-.04688l-.68457,.37109c-.15918-.18359-.30273-.37988-.42773-.58789l.56445-.53613c.12598-.12012,.16602-.30469,.10156-.46582-.15918-.39844-.23828-.83496-.22852-1.26172,.00391-.1748-.09863-.33398-.25977-.40137l-.7168-.30273c.04395-.23926,.1084-.47363,.19238-.70215l.77051,.10742c.1709,.02637,.3418-.06055,.42773-.21094,.10645-.18555,.23145-.3623,.37402-.52441,.14355-.16406,.30176-.31348,.4707-.44238,.13867-.10547,.19824-.28516,.15137-.45312l-.21094-.74805c.21484-.11426,.43848-.20996,.66992-.28613l.39746,.66992c.08789,.14844,.25098,.22559,.43164,.20312,.42676-.06836,.85938-.04883,1.28027,.05664,.16895,.04199,.3457-.02246,.44824-.16406l.45605-.63184c.22266,.09668,.43652,.21191,.64062,.3457l-.27637,.72852c-.06152,.16211-.01758,.34668,.11133,.46387,.32031,.29395,.57422,.64258,.75391,1.03613,.07324,.15918,.21387,.24219,.4082,.24902l.77539-.03906c.06445,.23633,.1084,.47559,.13184,.7168l-.74219,.23828Z"/><path class="cls-1" d="M27.03906,18.14746c-.60059,.04102-1.14941,.3125-1.54492,.7666-.39551,.45215-.59082,1.03223-.5498,1.63281,.04004,.60059,.3125,1.14844,.76562,1.54492,.42578,.37207,.95312,.55371,1.47949,.55371,.62793,0,1.25293-.26074,1.69824-.76953,.39551-.45312,.59082-1.0332,.55078-1.63379-.04102-.60059-.31348-1.14844-.7666-1.54395-.45215-.39551-1.03223-.58008-1.63281-.55078Zm1.20801,3.16992c-.50684,.58203-1.39355,.64258-1.97852,.13379-.58203-.50879-.64258-1.39648-.13379-1.97852,.24609-.28223,.58789-.45117,.96191-.47656,.37305-.0293,.73438,.0957,1.0166,.34277,.28223,.24609,.45117,.58691,.47656,.96094s-.0957,.73535-.34277,1.01758Z"/><path class="cls-1" d="M20.69922,20.62402l-18.07617-.08203c-.96582,0-1.75195-.77148-1.75195-1.71973V6.16016c0-.23438-.19043-.4248-.4248-.4248s-.4248,.19043-.4248,.4248v12.66211c0,1.41699,1.16699,2.56934,2.59961,2.56934l18.07422,.08203h.00195c.2334,0,.42383-.18848,.4248-.42285s-.18848-.42578-.42285-.42676Z"/><path class="cls-1" d="M.4043,3.03516c.2168,.02832,.44141-.14648,.46484-.38086l.04199-.44727c.17383-.78613,.89355-1.35742,1.71191-1.35742H25.71289c.96582,0,1.75195,.77148,1.75195,1.71973V13.71582c0,.23438,.19043,.4248,.4248,.4248s.4248-.19043,.4248-.4248V2.56934c0-1.41699-1.16699-2.56934-2.60156-2.56934H2.62305C1.40918,0,.34082,.85059,.07324,2.07324l-.0498,.49707c-.02344,.2334,.14648,.44141,.38086,.46484Z"/><path class="cls-1" d="M.44678,4.82166c.24658,0,.44629-.19958,.44629-.44641,0-.24677-.19971-.44635-.44629-.44635-.24707,0-.44678,.19958-.44678,.44635,0,.24683,.19971,.44641,.44678,.44641Z"/></g></g></svg>