<?xml version="1.0" encoding="UTF-8"?><svg id="Layer_2" xmlns="http://www.w3.org/2000/svg" viewBox="0 0 27.58008 25.04297"><defs><style>.cls-1{fill:#783cbe;}</style></defs><g id="Layer_1-2"><g><path class="cls-1" d="M25.81152,0H1.79004C.81445,0,.02148,.79297,.02148,1.76855v1.18457c0,.23438,.19043,.4248,.4248,.4248s.4248-.19043,.4248-.4248V1.76855c0-.50684,.41211-.91895,.91895-.91895H25.81152c.50684,0,.91895,.41211,.91895,.91895V17.77246c0,.50684-.41211,.91895-.91895,.91895H1.79004c-.50684,0-.91895-.41211-.91895-.91895V6.50781c0-.23438-.19043-.4248-.4248-.4248s-.4248,.19043-.4248,.4248v11.26465c0,.97559,.79297,1.76855,1.76855,1.76855H10.14062v2.63867h-1.36719c-.68555,0-1.24316,.55762-1.24316,1.24219v.37891c0,.68457,.55762,1.24219,1.24316,1.24219h10.05566c.68457,0,1.24219-.55762,1.24219-1.24219v-.37891c0-.68457-.55762-1.24219-1.24219-1.24219h-1.36719v-2.63867h8.34961c.97559,0,1.76855-.79297,1.76855-1.76855V1.76855c0-.97559-.79297-1.76855-1.76855-1.76855Zm-6.58984,23.42188v.37891c0,.2168-.17578,.39258-.39258,.39258H8.77344c-.2168,0-.39355-.17578-.39355-.39258v-.37891c0-.2168,.17676-.39258,.39355-.39258h10.05566c.2168,0,.39258,.17578,.39258,.39258Zm-2.60938-1.24219h-5.62207v-2.63867h5.62207v2.63867Z"/><path class="cls-1" d="M9.19727,10.38086c-.23438,0-.4248,.19043-.4248,.4248s.19043,.4248,.4248,.4248h1.21777c.05566,.59552,.20215,1.15112,.42725,1.65179l-1.46826,.44098c-.13965,.04199-.24805,.15234-.28711,.29297l-.29883,1.06836c-.06348,.22559,.06836,.45996,.29492,.52344,.03809,.01074,.07617,.01562,.11426,.01562,.18652,0,.35645-.12305,.40918-.31055l.23633-.84277,1.35547-.40723c.02393-.0072,.04199-.02319,.06348-.03406,.65576,.94073,1.60986,1.54871,2.68457,1.54871,1.09229,0,2.05957-.62823,2.71533-1.5957l1.3208,.39648,.23633,.84277c.05273,.18848,.22266,.31055,.40918,.31055,.03809,0,.07617-.00488,.11426-.01562,.22656-.06348,.3584-.29785,.29492-.52344l-.29883-1.06836c-.03906-.14062-.14746-.25098-.28711-.29297l-1.37305-.41223c.2207-.51007,.36035-1.07513,.40723-1.67957h1.14258c.23438,0,.4248-.19043,.4248-.4248s-.19043-.4248-.4248-.4248h-1.1333c-.04834-.61792-.19922-1.20673-.43701-1.73767l1.40234-.45471c.13867-.04492,.24414-.15723,.28027-.29785l.29883-1.15332c.05957-.22754-.07715-.45898-.30469-.51758-.22754-.06348-.45898,.07812-.51758,.30469l-.24023,.92773-1.33838,.43359c-.22656-.32562-.49268-.60913-.78955-.84338,.19336-.33313,.30176-.70862,.30176-1.09607,0-1.21582-.98828-2.2041-2.2041-2.2041s-2.2041,.98828-2.2041,2.2041c0,.38806,.1084,.76355,.30225,1.09637-.32471,.25629-.61133,.57227-.85156,.93622l-1.34424-.43494-.24023-.92871c-.05859-.22656-.29199-.36816-.51758-.30469-.22754,.05859-.36426,.29004-.30469,.51758l.29883,1.1543c.03613,.14062,.1416,.25293,.28027,.29785l1.42725,.46216c-.22461,.53143-.3623,1.11713-.3999,1.72925h-1.19531Zm4.74902-5.87988c.74707,0,1.35449,.60742,1.35449,1.35449,0,.22949-.06055,.4541-.17285,.65332-.76758-.3418-1.59766-.3418-2.36328,0-.1123-.19922-.17285-.42383-.17285-.65332,0-.74707,.60742-1.35449,1.35449-1.35449Zm-1.09326,2.91821c.00049-.00024,.00098,0,.00146-.00024,.70898-.42188,1.47266-.42188,2.18555,0,.97314,.57306,1.60449,1.83374,1.62598,3.22406-.00439,.02423-.01465,.04639-.01465,.07184,0,.02362,.00977,.04401,.01367,.06659-.02783,1.96082-1.23389,3.54669-2.71875,3.54669-1.50195,0-2.72363-1.62109-2.72363-3.61328,0-1.41876,.64062-2.71246,1.63037-3.29565Z"/><circle class="cls-1" cx=".44629" cy="4.74365" r=".44632"/></g></g></svg>