<?xml version="1.0" encoding="UTF-8"?><svg id="Layer_2" xmlns="http://www.w3.org/2000/svg" viewBox="0 0 27.04875 21.38672"><defs><style>.cls-1{fill:#783cbe;}</style></defs><g id="Layer_1-2"><g><path class="cls-1" d="M26.38167,15.34668l-.64648,.03223c-.13086-.2334-.28906-.44922-.47168-.64648l.23047-.60547c.06641-.17578,.00977-.375-.13867-.48926-.36816-.28125-.77539-.50098-1.21094-.65039-.18164-.0625-.375,.00098-.4834,.15332l-.37891,.52539c-.2627-.04199-.5293-.05664-.79883-.03516l-.33008-.55664c-.09473-.16113-.28516-.24316-.46777-.19531-.44824,.11035-.87305,.29199-1.2627,.53809-.15918,.10059-.2334,.29297-.18262,.47461l.1748,.62305c-.09961,.09082-.19336,.1875-.28027,.28613-.08789,.10156-.16992,.20703-.24609,.31738l-.64062-.08887c-.18848-.0293-.36719,.07324-.44531,.24414-.19141,.41895-.31445,.86426-.36523,1.32324-.02051,.1875,.08496,.36523,.25781,.43848l.59668,.25098c.0166,.26855,.06445,.53223,.14258,.78809l-.46973,.44629c-.13574,.12891-.1709,.33203-.08594,.5,.20801,.41113,.47949,.78418,.80762,1.11035,.13281,.13184,.33887,.16113,.50293,.07129l.56836-.30957c.21973,.1543,.45508,.28125,.70508,.37988l.05469,.64453c.0166,.1875,.1543,.3418,.33789,.37988,.29004,.05957,.58203,.08984,.875,.08984,.16504,0,.33105-.00977,.49609-.0293,.18652-.02148,.33691-.16309,.37012-.34766l.1123-.63672c.25879-.07617,.50488-.18164,.7373-.31445l.53809,.35742c.1543,.10449,.36328,.09375,.50684-.02734,.1748-.14453,.33887-.30469,.49316-.48047,.15332-.17676,.29004-.36133,.41016-.55273,.09961-.15918,.08301-.36523-.04199-.50684l-.42773-.48438c.10156-.24902,.17285-.50684,.21289-.77246l.61621-.19824c.17871-.05664,.29883-.22559,.29492-.41309-.00977-.45898-.0918-.91309-.24512-1.34961-.0625-.17773-.23633-.2832-.42188-.28418Zm-.7666,1.52051c-.16602,.05273-.2832,.20215-.29395,.37598-.02344,.35254-.11621,.68945-.27637,1.00195-.0791,.15527-.05566,.34375,.06055,.47461l.39062,.44238c-.04785,.06348-.09863,.12598-.15137,.18652-.05371,.06152-.1084,.12012-.16602,.17676l-.49121-.32715c-.14551-.09863-.33594-.0957-.47754,.00488-.28711,.19922-.6084,.33594-.95703,.4082-.16992,.03516-.30176,.16992-.33301,.3418l-.10254,.58203c-.16797,.00684-.32129-.00293-.48145-.02148l-.0498-.58789c-.01562-.17383-.13477-.32031-.30176-.37109-.33691-.10156-.64453-.26758-.91504-.49316-.13281-.11133-.32227-.13086-.47559-.04688l-.51953,.2832c-.10352-.12402-.19824-.25391-.2832-.38965l.42871-.4082c.12598-.11914,.16602-.30469,.10156-.46582-.12891-.32031-.19336-.67383-.18555-1.02344,.00391-.17383-.09961-.33301-.25977-.40039l-.54492-.22949c.03223-.1582,.07422-.3125,.12793-.46387l.58496,.08105c.16895,.02637,.34277-.05957,.42871-.21094,.08496-.15137,.1875-.29492,.30371-.42773,.11621-.13379,.24512-.25391,.38184-.3584,.13672-.10645,.19629-.28516,.14941-.45215l-.15918-.56836c.14258-.07324,.29102-.13574,.44238-.18848l.30176,.50879c.08887,.14844,.25098,.22461,.43164,.20312,.3457-.05566,.69727-.03906,1.03906,.0459,.16797,.04199,.3457-.02246,.44824-.16406l.3457-.48047c.14648,.06641,.28809,.14258,.4248,.22852l-.21094,.55371c-.06152,.16309-.01758,.34766,.11133,.46582,.26172,.23828,.4668,.52051,.61133,.83789,.07227,.15918,.23828,.25195,.40723,.25l.59082-.0293c.04004,.15625,.06836,.31445,.08691,.47363l-.56348,.18164Z"/><path class="cls-1" d="M22.59846,15.12402c-.51855,.03516-.99316,.27051-1.33496,.66309-.3418,.3916-.51172,.89355-.47656,1.41309,.03516,.51855,.27051,.99316,.66309,1.33496,.3584,.3125,.80762,.48047,1.27832,.48047,.04492,0,.08887-.00098,.13477-.00391,.51855-.03516,.99316-.27051,1.33496-.66309,.3418-.3916,.51172-.89355,.47656-1.41309-.03516-.51855-.27051-.99316-.66309-1.33496-.39258-.34277-.9043-.5127-1.41309-.47656Zm.95898,2.66602c-.19238,.2207-.45996,.35352-.75195,.37305-.29297,.02344-.5752-.0752-.79688-.26855-.2207-.19238-.35352-.45996-.37305-.75195-.02051-.29297,.0752-.5752,.26855-.79688,.19238-.2207,.45996-.35352,.75195-.37305,.02539-.00195,.05078-.00293,.07617-.00293,.26562,0,.51855,.09473,.7207,.27148,.2207,.19238,.35352,.45996,.37305,.75195,.02051,.29297-.0752,.5752-.26855,.79688Z"/><path class="cls-1" d="M17.32112,17.18848l-15.06543-.06836c-.7666,0-1.38965-.61133-1.38965-1.3623V5.2041c0-.23438-.19043-.4248-.4248-.4248s-.4248,.19043-.4248,.4248V15.75781c0,1.21973,1.00488,2.21191,2.2373,2.21191l15.06348,.06836h.00195c.2334,0,.42383-.18848,.4248-.42285s-.18848-.42578-.42285-.42676Z"/><path class="cls-1" d="M.39046,2.24902c.23828,.05176,.45605-.09375,.50684-.32324,.1377-.62305,.70898-1.07617,1.3584-1.07617H21.49885c.7666,0,1.38965,.61133,1.38965,1.3623V11.50195c0,.23438,.19043,.4248,.4248,.4248s.4248-.19043,.4248-.4248V2.21191c0-1.21973-1.00488-2.21191-2.23926-2.21191H2.25569C1.21077,0,.29085,.73242,.06721,1.74219c-.05078,.22949,.09375,.45605,.32324,.50684Z"/><path class="cls-1" d="M.41585,3.93262c.00879,.00098,.01758,.00098,.02637,.00098,.23145,0,.42578-.18164,.43945-.41504,.00781-.11816-.03125-.23145-.11035-.31934-.07812-.08887-.18652-.14062-.30371-.14746-.00879-.00098-.01758-.00098-.02637-.00098C.21077,3.05078,.01546,3.23242,.00081,3.46582c-.01465,.24414,.17188,.45312,.41504,.4668Z"/><path class="cls-1" d="M14.58674,12.21094c.08398,.11035,.21094,.16797,.33887,.16797,.08984,0,.17969-.02832,.25684-.08594l4.03906-3.05957c.10742-.08203,.16992-.20996,.16797-.3457s-.06836-.26172-.17871-.33984l-4.13574-2.92871c-.19238-.13477-.45605-.08984-.59277,.10059-.13574,.19238-.09082,.45703,.10059,.59277l3.66309,2.59375-3.57715,2.70898c-.18652,.1416-.22363,.4082-.08203,.5957Z"/><path class="cls-1" d="M8.9471,5.71387c-.1377-.19043-.40625-.22949-.59375-.0918l-4.08789,2.99512c-.10938,.08008-.17383,.20703-.17383,.34277s.06445,.2627,.17383,.34277l4.08789,2.99512c.0752,.05566,.16309,.08203,.25098,.08203,.13086,0,.25977-.05957,.34277-.17383,.13867-.18945,.09766-.45508-.0918-.59375l-3.62012-2.65234,3.62012-2.65234c.18945-.13867,.23047-.4043,.0918-.59375Z"/><path class="cls-1" d="M12.33089,4.79395l-2.16602,8.11328c-.06055,.22656,.07422,.45898,.30078,.51953,.03613,.01074,.07324,.01465,.10938,.01465,.18848,0,.36035-.125,.41016-.31543l2.16602-8.11328c.06055-.22656-.07422-.45898-.30078-.51953-.22754-.06934-.46094,.07324-.51953,.30078Z"/></g></g></svg>