<?xml version="1.0" encoding="UTF-8"?><svg id="Layer_2" xmlns="http://www.w3.org/2000/svg" viewBox="0 0 28.4375 24.84375"><defs><style>.cls-1{fill:#783cbe;}</style></defs><g id="Layer_1-2"><g><path class="cls-1" d="M23.0332,8.78125h.99707c.23438,0,.4248-.19043,.4248-.4248s-.19043-.4248-.4248-.4248h-.99707c-.23438,0-.4248,.19043-.4248,.4248s.19043,.4248,.4248,.4248Z"/><path class="cls-1" d="M20.39648,8.78125h.99609c.23438,0,.4248-.19043,.4248-.4248s-.19043-.4248-.4248-.4248h-.99609c-.23438,0-.4248,.19043-.4248,.4248s.19043,.4248,.4248,.4248Z"/><path class="cls-1" d="M17.75879,8.78125h.99609c.23438,0,.4248-.19043,.4248-.4248s-.19043-.4248-.4248-.4248h-.99609c-.23438,0-.4248,.19043-.4248,.4248s.19043,.4248,.4248,.4248Z"/><path class="cls-1" d="M26.56641,0H1.89355C.86133,0,.02148,.83984,.02148,1.87207v2.2793c0,.01349,.00635,.0249,.00781,.03809l-.00781,.97754c-.00195,.23438,.18652,.42578,.42188,.42773h.00293c.2334,0,.42285-.1875,.4248-.42188l.01172-1.43652,26.7002,.00781,.00488,14.86816c0,.6748-.47607,1.2395-1.10938,1.37927V10.94727l-.00488-1.06512c.00049-.0083,.00488-.01532,.00488-.02374v-1.90332c0-.90039-.73242-1.63281-1.63379-1.63281H3.77441c-.90039,0-1.63281,.73242-1.63281,1.63281v1.90332c0,.02216,.00928,.04114,.0127,.06238l-.00977,10.09137c-.71289-.07184-1.27344-.6687-1.27344-1.39984V8.69434c0-.23438-.19043-.4248-.4248-.4248s-.4248,.19043-.4248,.4248v9.91797c0,1.19958,.94092,2.17462,2.12207,2.24933l-.00195,2.08466c0,1.0459,.87891,1.89746,1.95996,1.89746H24.51855c1.08105,0,1.95996-.85156,1.95996-1.89746v-2.10101c1.10352-.15015,1.95898-1.08893,1.95898-2.23297l-.00537-14.43359c.00049-.00952,.00537-.01764,.00537-.02734V1.87207c0-1.03223-.83887-1.87207-1.87109-1.87207ZM3.77441,7.17188H24.84473c.43262,0,.78418,.35156,.78418,.7832v1.48425l-22.6377-.00562v-1.47864c0-.43164,.35156-.7832,.7832-.7832ZM24.51855,23.99414H4.10156c-.6123,0-1.11035-.46973-1.11035-1.04785V10.9541l.00781-.6709,22.62695,.00586,.00293,12.65723c0,.57812-.49805,1.04785-1.11035,1.04785ZM.87109,2.88684V1.87207c0-.56348,.45898-1.02246,1.02246-1.02246H26.56641c.56348,0,1.02148,.45898,1.02148,1.02246v1.02234l-26.7168-.00757Z"/><path class="cls-1" d="M26.2002,1.44727h-1.19336c-.23438,0-.4248,.19043-.4248,.4248s.19043,.4248,.4248,.4248h1.19336c.23438,0,.4248-.19043,.4248-.4248s-.19043-.4248-.4248-.4248Z"/><path class="cls-1" d="M23.04199,1.44727h-1.19434c-.23438,0-.4248,.19043-.4248,.4248s.19043,.4248,.4248,.4248h1.19434c.23438,0,.4248-.19043,.4248-.4248s-.19043-.4248-.4248-.4248Z"/><path class="cls-1" d="M19.88281,1.44727h-1.19336c-.23438,0-.4248,.19043-.4248,.4248s.19043,.4248,.4248,.4248h1.19336c.23438,0,.4248-.19043,.4248-.4248s-.19043-.4248-.4248-.4248Z"/><path class="cls-1" d="M22.70703,15.22754h-6.69727c-.23438,0-.4248,.19043-.4248,.4248s.19043,.4248,.4248,.4248h6.69727c.23438,0,.4248-.19043,.4248-.4248s-.19043-.4248-.4248-.4248Z"/><path class="cls-1" d="M22.70703,17.55664h-6.69727c-.23438,0-.4248,.19043-.4248,.4248s.19043,.4248,.4248,.4248h6.69727c.23438,0,.4248-.19043,.4248-.4248s-.19043-.4248-.4248-.4248Z"/><path class="cls-1" d="M20.3291,19.88672h-4.31934c-.23438,0-.4248,.19043-.4248,.4248s.19043,.4248,.4248,.4248h4.31934c.23438,0,.4248-.19043,.4248-.4248s-.19043-.4248-.4248-.4248Z"/><path class="cls-1" d="M8.86816,12.03223c-2.94629,0-5.34277,2.39648-5.34277,5.3418s2.39648,5.3418,5.34277,5.3418c2.94531,0,5.3418-2.39648,5.3418-5.3418s-2.39648-5.3418-5.3418-5.3418Zm0,4.24512c.60449,0,1.0957,.49219,1.0957,1.09668s-.49121,1.09668-1.0957,1.09668-1.09668-.49219-1.09668-1.09668,.49219-1.09668,1.09668-1.09668Zm0,5.58887c-2.47754,0-4.49316-2.01562-4.49316-4.49219,0-2.33118,1.79248-4.23151,4.06836-4.44922v2.5528c-.86914,.19476-1.52148,.96948-1.52148,1.89642,0,1.07324,.87305,1.94629,1.94629,1.94629,1.07227,0,1.94531-.87305,1.94531-1.94629,0-.92682-.65234-1.70135-1.52051-1.8963v-2.55292c2.27539,.21783,4.06738,2.1181,4.06738,4.44922,0,2.47656-2.01562,4.49219-4.49219,4.49219Z"/><path class="cls-1" d="M.44629,7.37701c.24658,0,.44629-.19952,.44629-.44641,0-.24677-.19971-.44635-.44629-.44635-.24707,0-.44629,.19958-.44629,.44635,0,.24689,.19922,.44641,.44629,.44641Z"/></g></g></svg>