<?xml version="1.0" encoding="UTF-8"?><svg id="Layer_2" xmlns="http://www.w3.org/2000/svg" viewBox="0 0 26.52246 24.00781"><defs><style>.cls-1{fill:#783cbe;}</style></defs><g id="Layer_1-2"><g><path class="cls-1" d="M18.14844,19.54492c-.03516-.07178-.09375-.12463-.16016-.1662,.64746-1.81305-.22949-4.76172-.24316-4.78888l-1.16602-2.36133c-.16113-.32715-.44141-.57129-.78809-.68945-.34766-.11719-.71875-.09277-1.04395,.06836-.2168,.10645-.39746,.26562-.5293,.46094-.1084-.07812-.23047-.14062-.36133-.18457-.34668-.12012-.71973-.09375-1.04492,.06738-.17188,.08496-.31836,.20215-.43555,.33984-.16406-.2207-.3916-.38574-.6582-.47656-.34863-.11719-.71875-.09473-1.04297,.06934-.16211,.0791-.30469,.18848-.4209,.32031l-1.3252-2.68555c-.33301-.6748-1.15723-.9541-1.83301-.62012-.32617,.16113-.57129,.44043-.68848,.78809-.11816,.34668-.09375,.71777,.06836,1.04492l2.0127,4.07617c-.61816-.3418-1.40625-.15918-1.80273,.4375-.20215,.30273-.27441,.66699-.20312,1.02637,.06738,.33887,.25586,.63379,.53223,.83691,.99365,1.12421,3.72412,4.0766,5.61816,4.87341-.02148,.09204-.01807,.19055,.02637,.28186l.74121,1.50684c.05078,.10156,.13867,.17871,.24512,.21484,.04492,.01562,.09082,.02246,.13672,.02246,.06445,0,.12988-.01465,.18848-.04395l4.72656-2.34473c.20996-.10449,.2959-.3584,.19238-.56836l-.74121-1.50586Zm-10.53027-3.03711c-.02344-.02734-.05176-.05176-.08203-.07227-.11426-.07617-.19238-.19336-.21973-.33008s0-.27441,.07617-.3877c.07617-.11523,.19336-.19336,.33008-.2207,.03516-.00684,.07031-.00977,.10449-.00977,.10156,0,.19922,.0293,.28418,.08594l1.21973,.81445c.16309,.10645,.37109,.09375,.5166-.03418,.14453-.12695,.18555-.33496,.10059-.50781l-2.71094-5.49121c-.06055-.12305-.07031-.26367-.02539-.39551s.1377-.23828,.25977-.29883c.26172-.125,.56934-.02051,.69531,.23535l1.88379,3.81738c.00098,.00098,.00098,.00195,.00195,.00293v.00098c.10352,.20996,.36133,.2959,.56836,.19238,.21094-.10352,.29785-.3584,.19336-.56836v-.00195c-.12598-.25586-.02051-.56738,.23633-.69336,.12402-.06055,.26465-.06836,.39453-.02539,.13281,.04492,.23828,.13672,.2998,.25977l.44531,.90332v.00098c.10449,.20996,.35645,.2959,.56934,.19238,.20996-.10352,.29688-.3584,.19238-.56836v-.00098c-.12598-.25586-.02051-.56738,.23633-.69434,.12402-.06055,.26465-.06738,.39551-.02441,.13184,.04492,.23828,.1377,.29883,.25977l.24219,.49121v.00098c.10352,.20996,.35938,.29688,.56934,.19238,.20996-.10352,.29688-.3584,.19238-.56836v-.00195c-.06055-.12305-.06934-.2627-.02441-.39453,.04395-.13184,.13672-.2373,.26074-.29883,.12305-.06055,.26367-.07031,.39551-.02441,.13184,.04395,.2373,.13672,.29883,.25977v.00098l1.14551,2.3125c.1748,.5459,1.01562,4.30469-.39453,4.91602l-3.03027,1.49609c-.70117,.33984-3.62305-2.21777-5.91992-4.82227Zm6.35742,6.50488l-.36621-.74414,3.96484-1.96582,.36621,.74316-3.96484,1.9668Z"/><path class="cls-1" d="M11.18652,11.30664c.04492,.01465,.08984,.02148,.13477,.02148,.17773,0,.34375-.1123,.40332-.29004,.38867-1.16602,.30273-2.41309-.24023-3.51172-.54688-1.10742-1.49219-1.93652-2.66211-2.33301-1.16895-.39648-2.42578-.31348-3.53125,.23242-.2998,.14746-.58594,.33008-.85059,.54102-.18359,.14648-.21289,.41406-.06641,.59766,.14746,.18359,.41797,.21191,.59766,.06641,.21582-.17285,.44922-.32129,.69531-.44238,.90332-.44727,1.92871-.51465,2.88281-.19043,.95508,.32422,1.72656,1.00098,2.17285,1.90527,.44336,.89648,.5127,1.91406,.19531,2.86523-.07422,.22266,.0459,.46387,.26855,.53809Z"/><path class="cls-1" d="M2.71484,9.39062c-.03223,.76465,.13184,1.53613,.47461,2.23145,.54395,1.09961,1.48145,1.9248,2.6416,2.32422,.0459,.0166,.09277,.02344,.13867,.02344,.17676,0,.34082-.11035,.40137-.28613,.07715-.22266-.04102-.46387-.2627-.54004-.94727-.32617-1.71289-1.00098-2.15723-1.89746-.2793-.56738-.41309-1.19727-.38672-1.82031,.00977-.23438-.17285-.43262-.40723-.44238-.21973-.00781-.43164,.17285-.44238,.40723Z"/><path class="cls-1" d="M14.69043,6.86426h8.85254c.23438,0,.4248-.19043,.4248-.4248s-.19043-.4248-.4248-.4248H14.69043c-.23438,0-.4248,.19043-.4248,.4248s.19043,.4248,.4248,.4248Z"/><path class="cls-1" d="M14.69043,8.72461h8.85254c.23438,0,.4248-.19043,.4248-.4248s-.19043-.4248-.4248-.4248H14.69043c-.23438,0-.4248,.19043-.4248,.4248s.19043,.4248,.4248,.4248Z"/><path class="cls-1" d="M14.69043,10.58594h5.70996c.23438,0,.4248-.19043,.4248-.4248s-.19043-.4248-.4248-.4248h-5.70996c-.23438,0-.4248,.19043-.4248,.4248s.19043,.4248,.4248,.4248Z"/><path class="cls-1" d="M24.74902,0H1.77246C.79492,0,0,.79492,0,1.77246V3.89551c0,.01306,.00635,.02405,.00732,.0368l-.00586,.77271c0,.00275-.00146,.00507-.00146,.00787v12.71582c0,1.17871,.95801,2.1377,2.13672,2.1377H6.82031c.23438,0,.4248-.19043,.4248-.4248s-.19043-.4248-.4248-.4248H2.13672c-.70996,0-1.28711-.57812-1.28711-1.28809V4.9209l.01074-1.38281,24.80762,.00684,.00488,13.88379c0,.70996-.57812,1.28809-1.28809,1.28809h-4.47363c-.23438,0-.4248,.19043-.4248,.4248s.19043,.4248,.4248,.4248h4.47363c1.17871,0,2.1377-.95898,2.1377-2.1377l-.00537-13.50586c.00049-.00952,.00537-.01764,.00537-.02734V1.77246c0-.97754-.7959-1.77246-1.77344-1.77246ZM.84961,2.6886v-.91614c0-.50879,.41406-.92285,.92285-.92285H24.74902c.50977,0,.92383,.41406,.92383,.92285v.92273l-24.82324-.00659Z"/><path class="cls-1" d="M4.06885,7.70868c0-.24683-.19922-.44641-.44629-.44641-.24658,0-.44629,.19958-.44629,.44641s.19971,.44635,.44629,.44635c.24707,0,.44629-.19952,.44629-.44635Z"/></g></g></svg>