<?xml version="1.0" encoding="UTF-8"?><svg id="Layer_2" xmlns="http://www.w3.org/2000/svg" viewBox="0 0 25.37086 25.06775"><defs><style>.cls-1{fill:#783cbe;}</style></defs><g id="Layer_1-2"><g><path class="cls-1" d="M24.9867,9.72498l-3.20166-.31232,2.12158-3.75995c.11426-.20312,.04492-.45996-.15625-.57617l-4.0957-2.38086c-.2041-.11719-.46191-.05078-.58105,.15332-.11816,.20312-.0498,.46289,.15332,.58105l3.7334,2.16992-2.02148,3.58301-7.69336-4.57812,1.83398-3.58691,.99902,.58105c.2002,.11621,.46094,.0498,.58105-.15332,.11816-.20312,.0498-.46289-.15332-.58105L15.11951,.05799c-.10254-.05957-.22168-.07324-.33398-.04102-.11133,.0332-.20508,.11035-.25781,.21484l-1.8418,3.60175L10.84412,.23181c-.05273-.10449-.14648-.18164-.25781-.21484-.11621-.03223-.23438-.01855-.33398,.04102L1.62049,5.07654c-.20117,.11621-.27051,.37305-.15625,.57617l2.12158,3.75995-3.20166,.31232c-.18457,.01758-.33594,.15332-.375,.33398-.03809,.18164,.04492,.36719,.20605,.45801l3.61914,2.05457v7.05774c0,.0694,.02051,.13226,.05029,.19019,.00879,.01733,.02051,.03082,.03174,.04688,.02734,.03955,.05957,.07269,.09863,.10095,.01025,.00763,.01514,.02051,.02637,.02722l8.42676,5.01367c.00195,.00116,.00439,.00061,.00635,.00177,.06445,.03699,.13721,.0578,.21143,.0578,.07227,0,.14453-.01855,.20996-.05566,.00098-.00061,.00146-.00183,.00244-.00244,.00195-.00098,.00391-.00049,.00537-.00146l8.42578-5.01367c.12793-.07617,.20703-.21582,.20703-.36523v-7.05774l3.61914-2.05457c.16113-.09082,.24414-.27637,.20605-.45801-.03906-.18066-.19043-.31641-.375-.33398Zm-4.73926,.03619l-7.57568,4.37158-7.54932-4.37097,7.56348-4.50098,7.56152,4.50037ZM10.29236,1.01795l1.83398,3.58691-7.69434,4.57812-2.02148-3.58301L10.29236,1.01795ZM4.19471,10.2074l6.96777,4.03418-2.49609,.0957L1.80213,10.4408l2.39258-.2334Zm.48926,9.18066v-6.33423l3.66797,2.08228c.06445,.03711,.13672,.05566,.20996,.05566h.0166l3.68262-.14172v8.84583l-7.57715-4.50781Zm16.00293,0l-7.57617,4.50732V15.05658l3.68262,.13519h.01562c.07324,0,.14551-.01855,.20996-.05566l3.66797-2.08228v6.33423Zm-3.98242-5.0498l-2.52637-.09277,6.99805-4.03809,2.39258,.2334-6.86426,3.89746Z"/><path class="cls-1" d="M17.85193,2.59564c.24707,0,.44727-.20038,.44727-.44751,0-.24719-.2002-.44751-.44727-.44751-.24756,0-.44775,.20032-.44775,.44751,0,.24713,.2002,.44751,.44775,.44751Z"/></g></g></svg>