<?xml version="1.0" encoding="UTF-8"?><svg id="Layer_2" xmlns="http://www.w3.org/2000/svg" viewBox="0 0 33.57635 20.53027"><defs><style>.cls-1{fill:#783cbe;}</style></defs><g id="Layer_1-2"><g><path class="cls-1" d="M33.57628,10.875c-.00049-.0058-.00391-.01044-.00439-.01617-.01318-.38934-.1001-.7926-.27783-1.20355-.92871-2.16992-6.82129-3.38379-8.74609-3.55762-1.22803-.11377-2.41943-.17749-3.57275-.21002L12.89561,.08008c-.07227-.05273-.15918-.08008-.24805-.08008H5.95323c-.16797,0-.32031,.09863-.38867,.25195-.06836,.1543-.03906,.33301,.07324,.45801l5.19189,5.73859c-1.3999,.19696-2.3916,.39056-2.84814,.48602L5.06749,2.80176c-.0752-.10547-.19434-.17188-.32324-.17871L.44932,2.37891c-.14551-.01855-.25488,.04395-.34082,.14062-.08691,.0957-.12402,.22656-.10254,.35352,.16016,.94727,1.62793,9.28125,3.88867,10.38867l.11914,.05957c.70557,.34698,1.86963,.9043,4.89844,1.19281l-4.82129,5.30524c-.11328,.125-.14258,.30469-.07422,.45801,.06836,.1543,.2207,.25293,.38867,.25293h6.69434c.09082,0,.17969-.0293,.25195-.08301l1.53711-1.13477c.18945-.13965,.22949-.40527,.08984-.59375-.13867-.18945-.40527-.22949-.59375-.08984l-1.4248,1.05176H5.36632l4.71143-5.18488c.01025-.00885,.01758-.0199,.02686-.02972l3.19336-3.51392c.1582-.17383,.14551-.44238-.02832-.60059-.17383-.15723-.44238-.14551-.60059,.02832l-3.03955,3.34473c-3.36426-.25189-4.49561-.79974-5.23975-1.16602l-.12305-.06055c-.80371-.39386-1.6167-2.41315-2.27441-4.70605h1.45215c.23438,0,.4248-.19043,.4248-.4248s-.19043-.4248-.4248-.4248H1.75792c-.13379-.50824-.25977-1.02045-.37549-1.52539H3.88585c.23438,0,.4248-.19043,.4248-.4248s-.19043-.4248-.4248-.4248H1.19542c-.09619-.45392-.18311-.89465-.25879-1.30957l3.55371,.20215,2.95898,4.19531c.10059,.1416,.28223,.20703,.44531,.16895,.07324-.01855,7.44043-1.7207,16.57617-.88086,.57227,.05182,1.27832,.16486,2.03076,.32336-.64111,.81592-1.55762,2.31866-.59814,3.32898,.66113,.69531,2.67383,.86035,4.44238,.86035,.91943,0,1.76855-.04431,2.33203-.08258-.03174,.12543-.07422,.2478-.13477,.36481-.41699,.80371-1.51562,1.41309-3.17773,1.76172-2.30273,.48322-5.10742,.67169-9.47119,.64148l3.53467-2.60925c.18945-.13965,.22949-.40527,.08984-.59375-.1377-.18945-.40527-.22852-.59375-.08984l-7.70605,5.68848c-.18945,.13965-.22949,.40527-.08984,.59375,.08301,.11328,.21191,.17285,.3418,.17285,.08789,0,.17676-.02637,.25195-.08301l3.10938-2.29535c.06006,.03418,.12598,.05908,.2002,.06,.6123,.00781,1.19531,.01172,1.75195,.01172,3.93848,0,6.5498-.20215,8.75488-.66504,1.94824-.4082,3.21289-1.14941,3.75879-2.20312,.19922-.38501,.28711-.80444,.27686-1.24268,0-.00391,.00195-.00732,.00146-.01123ZM11.85557,6.31476L6.91124,.84961h5.59961l6.97656,5.01453c-2.99023-.00885-5.62012,.20428-7.63184,.45062Zm14.66406,3.69501c-.56689-.59668,.37207-1.91571,.91113-2.52875,2.26465,.56836,4.6499,1.49939,5.08301,2.51019,.07861,.18207,.13086,.35779,.16699,.52948-2.34375,.1626-5.56885,.11163-6.16113-.51093Z"/><path class="cls-1" d="M14.07432,17.50854c-.24707,0-.44678,.19958-.44678,.44635,0,.24683,.19971,.44641,.44678,.44641,.24658,0,.44629-.19958,.44629-.44641,0-.24677-.19971-.44635-.44629-.44635Z"/></g></g></svg>