<?xml version="1.0" encoding="UTF-8"?><svg id="Layer_2" xmlns="http://www.w3.org/2000/svg" viewBox="0 0 35.90142 21.80859"><defs><style>.cls-1{fill:#783cbe;}</style></defs><g id="Layer_1-2"><g><path class="cls-1" d="M34.96777,19.46875c-1.54297,0-2.32227,.40234-3.0752,.79199-.69336,.35938-1.34766,.69824-2.68457,.69824s-1.99121-.33887-2.68457-.69824c-.75293-.38965-1.53223-.79199-3.0752-.79199-1.54199,0-2.32031,.40234-3.07324,.79297-.69238,.3584-1.34668,.69727-2.68262,.69727s-1.99023-.33887-2.68359-.69727c-.75293-.39062-1.53125-.79297-3.07422-.79297s-2.32129,.40332-3.07324,.79297c-.69238,.3584-1.34668,.69727-2.68164,.69727-1.33594,0-1.99023-.33887-2.68262-.69824-.75195-.38965-1.53027-.79199-3.07227-.79199-.23438,0-.4248,.19043-.4248,.4248s.19043,.4248,.4248,.4248c1.33496,0,1.98926,.33887,2.68164,.69727,.75195,.38965,1.53027,.79297,3.07324,.79297,1.54199,0,2.32031-.40234,3.07227-.79199,.69238-.35938,1.34668-.69824,2.68262-.69824s1.99023,.33887,2.68359,.69727c.75293,.39062,1.53125,.79297,3.07422,.79297,1.54199,0,2.32031-.40234,3.07324-.79297,.69238-.3584,1.34668-.69727,2.68262-.69727,1.33691,0,1.99121,.33887,2.68457,.69824,.75293,.38965,1.53223,.79199,3.0752,.79199s2.32227-.40234,3.0752-.79199c.69336-.35938,1.34766-.69824,2.68457-.69824,.23438,0,.4248-.19043,.4248-.4248s-.19043-.4248-.4248-.4248Z"/><path class="cls-1" d="M33.08398,15.80957c-.20605-.1084-.46484-.03027-.57422,.17773l-1.78906,3.39941c-.10938,.20801-.0293,.46484,.17773,.57422,.06348,.0332,.13086,.04883,.19824,.04883,.15234,0,.2998-.08203,.37598-.22656l1.78906-3.39941c.10938-.20801,.0293-.46484-.17773-.57422Z"/><path class="cls-1" d="M35.47656,10.83594h-3.72461v-1.61523c0-1.18066-1.32812-2.14062-2.95996-2.14062h-2.45508v-2.27539c0-.23438-.19043-.4248-.4248-.4248h-3.59277c0-.0072,.00391-.01324,.00391-.02051V.4248c0-.23438-.19043-.4248-.4248-.4248h-5.44531c-.23438,0-.4248,.19043-.4248,.4248V7.08008h-1.44922c-1.63184,0-2.95996,.95996-2.95996,2.14062v2.33105H4.71875c-.89746,0-1.62695,.65234-1.62695,1.45508v1.69238c0,.19824,.04492,.38715,.12549,.55957H1.97949c-.15527,0-.29785,.08398-.37305,.2207-.07422,.13574-.06836,.30176,.01465,.43262l2.68945,4.20996c.08105,.12695,.21875,.19629,.3584,.19629,.0791,0,.1582-.02148,.22852-.06641,.19824-.12695,.25586-.38965,.12988-.58691l-2.27246-3.55664h1.57422c.12549,.02783,.25488,.04688,.38965,.04688,.06738,0,.12891-.01898,.18506-.04688H14.5791c.09668,0,.18945-.03223,.26465-.09277l2.03516-1.62109h7.6875c.12695,0,.24707-.05664,.32812-.15527l2.10156-2.55371h7.77637l-.76367,1.45117c-.10938,.20801-.0293,.46484,.17773,.57422,.20703,.1084,.46484,.03125,.57422-.17773l1.0918-2.07422c.06934-.13184,.06445-.29004-.01172-.41797-.07715-.12695-.21582-.20508-.36426-.20508Zm-9.98926-3.75586h-5.71289v-1.85059h5.71289v1.85059ZM16.87793,.84961h4.5957v3.50977c0,.00726,.00391,.01331,.00391,.02051h-2.12793c-.23438,0-.4248,.19043-.4248,.4248v2.27539h-2.04688V.84961Zm9.91699,9.98633c-.12695,0-.24707,.05664-.32812,.15527l-2.10156,2.55371h-7.63477c-.09668,0-.18945,.03223-.26465,.09277l-2.03516,1.62109H4.42969c-.28271-.09167-.48828-.31006-.48828-.55957v-1.69238c0-.32812,.35645-.60547,.77734-.60547H14.40137c.23438,0,.4248-.19043,.4248-.4248s-.19043-.4248-.4248-.4248h-1.93262v-2.33105c0-.69922,.9668-1.29102,2.11035-1.29102h14.21289c1.14355,0,2.11035,.5918,2.11035,1.29102v1.61523h-4.10742Z"/><circle class="cls-1" cx="33.64941" cy="14.71191" r=".43359"/></g></g></svg>