<?xml version="1.0" encoding="UTF-8"?><svg id="Layer_2" xmlns="http://www.w3.org/2000/svg" viewBox="0 0 28.53049 16.98584"><defs><style>.cls-1{fill:#783cbe;}</style></defs><g id="Layer_1-2"><g><path class="cls-1" d="M27.01081,4.08913c-.14748-.16305-.39939-.17588-.56244-.02748-.16305,.14748-.17588,.39939-.02748,.56244,.84641,.93343,1.31266,2.14166,1.31266,3.40395v.27023h-4.27142V3.00198c.17175,.02021,.34168,.04271,.52671,.09418,.03572,.01008,.07237,.01466,.10717,.01466,.17496,0,.33526-.11542,.38381-.2913,.05954-.21252-.06504-.43236-.27664-.49099-.55419-.15481-1.00579-.16672-1.538-.16672h-1.92548V.39847c0-.21985-.17862-.39847-.39847-.39847H10.13489c-.21985,0-.39847,.17862-.39847,.39847s.17862,.39847,.39847,.39847h9.80787v1.7543c0,.00321-.00183,.00584-.00183,.00905s.00183,.00584,.00183,.00905v7.05991h-1.02595c-.00321-.00006-.00595-.00183-.00916-.00183H4.91813c-.21985,0-.39847,.17862-.39847,.39847s.17862,.39847,.39847,.39847h.91236c.00321,.00006,.00595,.00183,.00916,.00183h14.50158c.21985,0,.39847-.17862,.39847-.39847V2.95876h1.92548v5.73798c0,.21985,.17862,.39847,.39847,.39847h4.66989v4.83478h-1.1006c-.01237-.08634-.00824-.1721-.02885-.25832-.22717-.94167-.98198-1.69648-1.92457-1.92457-.92702-.22168-1.87327,.03939-2.53647,.69984-.40763,.40832-.64259,.92965-.72641,1.48304H11.6303c-.01237-.08634-.00824-.1721-.02885-.25832-.22717-.94167-.98198-1.69648-1.92457-1.92457-.9261-.22259-1.87419,.03756-2.53556,.69984-.40763,.40786-.64305,.92925-.72732,1.48304h-1.49587c-.21985,0-.39847,.17862-.39847,.39847s.17862,.39847,.39847,.39847h1.49358c.01237,.08571,.00824,.1709,.02885,.25649,.22809,.94259,.98381,1.69831,1.92457,1.92457,.21801,.05221,.43694,.07786,.65313,.07786,.70259,0,1.37587-.27114,1.88243-.77679,.40763-.40752,.64259-.92868,.72687-1.48213h9.7868c.01237,.08571,.00824,.1709,.02885,.25649,.22809,.94259,.98381,1.69831,1.92457,1.92457,.21801,.05221,.43694,.07786,.65313,.07786,.70259,0,1.37587-.27114,1.88243-.77679,.40763-.40752,.64259-.92868,.72687-1.48213h1.50182c.21985,0,.39847-.17862,.39847-.39847v-6.30042c0-1.46014-.53954-2.85983-1.51968-3.9389ZM10.33642,15.64478c-.46259,.46351-1.12946,.64671-1.78442,.48824-.64305-.15481-1.18076-.69251-1.33648-1.33648-.15756-.65404,.02565-1.32182,.49007-1.78625,.35359-.35359,.82625-.54412,1.32091-.54412,.15298,0,.3087,.01832,.46351,.05588,.64397,.15572,1.18167,.69251,1.33648,1.33648,.15756,.65496-.02565,1.32274-.49007,1.78625Zm15.00265,0c-.46351,.46351-1.12763,.64671-1.78442,.48824-.64305-.15481-1.18076-.69251-1.33648-1.33648-.15756-.65404,.02473-1.32182,.48916-1.78533,.35359-.3545,.82717-.54503,1.32182-.54503,.15298,0,.3087,.01832,.46351,.05588,.64397,.15572,1.18167,.69251,1.33648,1.33648,.15756,.65496-.02565,1.32274-.49007,1.78625Z"/><path class="cls-1" d="M4.91813,2.9725h7.06621c.21985,0,.39847-.17862,.39847-.39847s-.17862-.39847-.39847-.39847H4.91813c-.21985,0-.39847,.17862-.39847,.39847s.17862,.39847,.39847,.39847Z"/><path class="cls-1" d="M9.27658,7.57277c0-.21985-.17862-.39847-.39847-.39847H1.81281c-.21985,0-.39847,.17862-.39847,.39847s.17862,.39847,.39847,.39847h7.0653c.21985,0,.39847-.17862,.39847-.39847Z"/><path class="cls-1" d="M10.69,5.21309c0-.21985-.17862-.39847-.39847-.39847H.39847c-.21985,0-.39847,.17862-.39847,.39847s.17862,.39847,.39847,.39847H10.29153c.21985,0,.39847-.17862,.39847-.39847Z"/><path class="cls-1" d="M25.49296,3.796c.01099,.00092,.02107,.00092,.03114,.00092,.21618,0,.4003-.16763,.41771-.38565,.00824-.11175-.02656-.21985-.09985-.30504-.07237-.08427-.17404-.13557-.28488-.14382-.11542-.00916-.21893,.02656-.30412,.09985-.08427,.07237-.13557,.17404-.14473,.28488-.00824,.11175,.02656,.21893,.09985,.30412,.07237,.08427,.17404,.13557,.28488,.14473Z"/></g></g></svg>