<?xml version="1.0" encoding="UTF-8"?><svg id="Layer_2" xmlns="http://www.w3.org/2000/svg" viewBox="0 0 23.29102 24.88379"><defs><style>.cls-1{fill:#783cbe;}</style></defs><g id="Layer_1-2"><g><path class="cls-1" d="M18.59082,14.06788h-4.99219c-.23047,0-.41602,.18634-.41602,.41571v4.57648h-4.57617c-.22949,0-.41602,.1864-.41602,.41577v4.99219c0,.23053,.18652,.41577,.41602,.41577h9.98438c.22949,0,.41602-.18524,.41602-.41577V14.48359c0-.22937-.18652-.41571-.41602-.41571Zm-2.91309,.83258h.83252v.83179h-.83252v-.83179Zm-1.66211,0h.83057v1.24756c0,.23047,.18652,.41571,.41602,.41571h1.66406c.23047,0,.41553-.18524,.41553-.41571v-1.24756h.83301v4.15961h-4.15918v-4.15961Zm1.66211,4.99225h.83252v.83167h-.83252v-.83167Zm-4.99219,0h.83301v.83167h-.83301v-.83167Zm-1.66211,0h.83105v1.24744c0,.23047,.18604,.41571,.41553,.41571h1.66406c.23047,0,.41553-.18524,.41553-.41571v-1.24744h.83301v4.15961h-4.15918v-4.15961Zm9.15137,4.15961h-4.15918v-4.15961h.83057v1.24744c0,.23047,.18652,.41571,.41602,.41571h1.66406c.23047,0,.41553-.18524,.41553-.41571v-1.24744h.83301v4.15961Z"/><path class="cls-1" d="M11.91406,.0918c-.15527-.12305-.38086-.12305-.53809,.00391l-2.02148,1.63477c-.18262,.14746-.21094,.41504-.0625,.59766s.41504,.21289,.59766,.0625l1.75781-1.42188,10.79395,8.69434v14.28809h-1.83203V11.10645c0-.23438-.19043-.4248-.4248-.4248H11.64746c-.0127,0-.02637,0-.03906,.00195H3.10645c-.23438,0-.4248,.19043-.4248,.4248v12.84473H.84961V9.66504L7.10254,4.62891c.18262-.14746,.21191-.41504,.06445-.59766-.14648-.18359-.41602-.21191-.59766-.06445L.1582,9.13087c-.10059,.08105-.1582,.20215-.1582,.33105v14.91602c0,.23438,.19043,.4248,.4248,.4248H3.10645c.23438,0,.4248-.19043,.4248-.4248V11.53321H11.64355c.0127,0,.02637,0,.03906-.00195h8.07715v12.84473c0,.23438,.19043,.4248,.4248,.4248h2.68164c.23438,0,.4248-.19043,.4248-.4248V9.45997c0-.12891-.05762-.25-.1582-.33105L11.91406,.0918Z"/><path class="cls-1" d="M8.26172,3.69294c.24658,0,.44629-.19958,.44629-.44641s-.19971-.44635-.44629-.44635c-.24707,0-.44629,.19952-.44629,.44635s.19922,.44641,.44629,.44641Z"/></g></g></svg>