<?xml version="1.0" encoding="UTF-8"?><svg id="Layer_2" xmlns="http://www.w3.org/2000/svg" viewBox="0 0 25.05957 25.06152"><defs><style>.cls-1{fill:#783cbe;}</style></defs><g id="Layer_1-2"><g><path class="cls-1" d="M23.14844,6.69629c-.20996,.10547-.29395,.36133-.1875,.57031,.82812,1.6416,1.24902,3.41211,1.24902,5.26367,0,6.44141-5.24023,11.68164-11.68066,11.68164S.84961,18.97168,.84961,12.53027C.84961,6.08984,6.08887,.84961,12.5293,.84961c3.24121,0,6.25293,1.2959,8.48145,3.64844,.16211,.17188,.42969,.17871,.60059,.0166,.1709-.16113,.17773-.43066,.0166-.60059C19.2373,1.38965,16.00586,0,12.5293,0,5.62012,0,0,5.62109,0,12.53027c0,6.91016,5.62012,12.53125,12.5293,12.53125s12.53027-5.62109,12.53027-12.53125c0-1.98535-.45117-3.88574-1.34082-5.64648-.10352-.20996-.35742-.29297-.57031-.1875Z"/><path class="cls-1" d="M22.42139,6.07251c.06787,0,.1377-.0144,.2041-.04541,.11768-.05444,.20752-.15308,.25293-.27393,.04443-.12305,.03857-.25513-.0166-.37146-.05322-.11865-.15088-.2085-.27393-.25281-.12305-.04541-.25391-.03882-.37256,.0155-.24268,.11194-.34814,.40247-.23486,.64636,.08203,.17749,.25684,.28174,.44092,.28174Z"/><path class="cls-1" d="M4.89062,14.02441c0,.23438,.19043,.4248,.4248,.4248h1.27832c.29541,1.09448,.87256,2.0957,1.70703,2.90625,1.20117,1.16699,2.77637,1.80566,4.44629,1.80566,.03223,0,.06445,0,.0957-.00098,1.51367-.02051,2.97461-.58203,4.11426-1.5791,.17676-.1543,.19434-.42285,.03906-.59961-.1543-.17676-.41992-.19434-.59961-.03906-.98633,.86328-2.25293,1.34961-3.56543,1.36816-1.49414,.00879-2.87793-.53418-3.9375-1.56445-.66455-.64551-1.12158-1.43799-1.39404-2.29688h4.52783c.23438,0,.4248-.19043,.4248-.4248s-.19043-.4248-.4248-.4248H7.29932c-.03662-.24609-.07959-.49097-.0835-.74414-.00439-.29639,.03125-.58618,.07275-.87402h4.73877c.23438,0,.4248-.19043,.4248-.4248s-.19043-.4248-.4248-.4248H7.48828c.25488-.81934,.67676-1.58105,1.29199-2.21484,1.03027-1.06055,2.41211-1.65625,3.89062-1.67773,1.27344,.01172,2.59277,.42969,3.60449,1.26562,.18066,.15234,.44824,.125,.59766-.05664,.15039-.18066,.125-.44824-.05664-.59766-1.14258-.94434-2.58203-1.46191-4.06445-1.46191-.03125,0-.0625,0-.09277,.00098-2.92041,.04211-5.35498,2.05054-6.07324,4.74219h-1.27051c-.23438,0-.4248,.19043-.4248,.4248s.19043,.4248,.4248,.4248h1.10645c-.03613,.29053-.06006,.58472-.05566,.88574,.00342,.24707,.0249,.49097,.05615,.73242h-1.10693c-.23438,0-.4248,.19043-.4248,.4248Z"/></g></g></svg>