<?xml version="1.0" encoding="UTF-8"?><svg id="Layer_2" xmlns="http://www.w3.org/2000/svg" viewBox="0 0 25.58778 24.99805"><defs><style>.cls-1{fill:#783cbe;}</style></defs><g id="Layer_1-2"><g><path class="cls-1" d="M12.73938,13.06641c3.60254,0,6.5332-2.93066,6.5332-6.5332S16.34192,0,12.73938,0c-1.18555,0-2.34668,.32031-3.35742,.92773-.20117,.12109-.2666,.38184-.14551,.58301,.12207,.20215,.38379,.26465,.58301,.14551,.87891-.52734,1.88867-.80664,2.91992-.80664,3.13379,0,5.68359,2.5498,5.68359,5.68359s-2.5498,5.68359-5.68359,5.68359-5.68359-2.5498-5.68359-5.68359c0-.87598,.19336-1.71484,.5752-2.49414,.10352-.20996,.01562-.46484-.19531-.56836-.2041-.10059-.46387-.01758-.56836,.19531-.43848,.89551-.66113,1.86035-.66113,2.86719,0,3.60254,2.93066,6.5332,6.5332,6.5332Z"/><path class="cls-1" d="M12.69153,8.82422c-.4873,0-.88477-.39746-.88477-.88574,0-.23438-.19043-.4248-.4248-.4248s-.4248,.19043-.4248,.4248c0,.80957,.55908,1.4856,1.30957,1.67639v.37244c0,.23438,.19043,.4248,.4248,.4248s.4248-.19043,.4248-.4248v-.37231c.75098-.19067,1.31055-.86682,1.31055-1.67651,0-1.05566-.85742-1.4707-1.60352-1.71387-.90039-.29395-1.0166-.63867-1.0166-.90527,0-.47974,.38525-.86719,.86084-.88086,.0083,.00049,.01514,.00488,.02393,.00488s.01562-.00439,.02393-.00488c.47656,.01367,.86182,.40112,.86182,.88086,0,.23438,.19043,.4248,.4248,.4248s.4248-.19043,.4248-.4248c0-.80969-.55957-1.48584-1.31055-1.67651v-.36353c0-.23438-.19043-.4248-.4248-.4248s-.4248,.19043-.4248,.4248v.36353c-.75049,.19092-1.30957,.86694-1.30957,1.67651,0,.79004,.53906,1.36621,1.60254,1.71387,.84766,.27539,1.01758,.55078,1.01758,.90527,0,.48828-.39746,.88574-.88574,.88574Z"/><path class="cls-1" d="M23.5597,14.22754c-.35156,.11816-.57617,.25977-.72754,.35547l-.5249,.35571c-.16016-.4978-.54492-.90674-1.05713-1.08716-.31543-.11035-.66211-.11035-1.01172,.0166l-2.77344,1.28906c-.01172-.00122-.021-.00464-.03223-.00586l-10.13379-1.27539c-.34082-.04297-.68457-.00684-1.02734,.1084l-5.21973,2.12695c-.21777,.08887-.32227,.33691-.2334,.55371,.08887,.21777,.33398,.32129,.55371,.2334l5.19531-2.11719c.19824-.06738,.41211-.08789,.62598-.06152l10.14355,1.27637c.35938,.03613,.61914,.15527,.77246,.35547,.24902,.32422,.17773,.78809,.17188,.82715-.02344,.2666-.43359,.56738-.78223,.57422l-5.3623,.06836-2.25098-.08008c-.26758-.01953-.43164,.17578-.43945,.41016s.1748,.43066,.41016,.43945l2.14844,.07568,3.26074,1.7915c.14062,.07617,.31152,.06934,.44336-.02051l7.60742-5.15527c.10254-.06543,.25879-.16309,.5166-.25,.22461-.07031,.69434,.15625,.85742,.43066,.10547,.18555,.08594,.64746-.67773,1.21289l-8.38184,6.92285c-.2334,.17285-.49219,.2998-.77051,.37695l-.46484,.12793c-.22949,.06641-.47266,.06055-.70312-.0166l-9.71777-3.22363c-.55371-.18164-1.14551-.13965-1.72852,.1582L.17395,22.54004c-.18945,.13867-.23047,.4043-.0918,.59375,.13965,.19141,.40723,.23145,.59375,.0918l2.01172-1.48145c.32031-.16113,.68164-.18652,1.01953-.07422l9.71875,3.22363c.21094,.07031,.42871,.10449,.64648,.10449,.18555,0,.37109-.02539,.55176-.07617l.46191-.12695c.37988-.10449,.7334-.27734,1.06934-.52734l8.38086-6.92188c1.28809-.95215,1.13086-1.94922,.87988-2.32422-.33203-.5625-1.19238-1.0166-1.85645-.79395Zm-3.00098,.42676c.13184-.04492,.27734-.04688,.41113,0,.33984,.11914,.56934,.44238,.56934,.80273v.0022l-2.39502,1.62305c.01367-.28259-.01709-.79529-.35303-1.2395-.07129-.09412-.15283-.17749-.2417-.25293l2.00928-.93555Zm-5.11133,4.93359l-1.70654-.9375,3.14893-.03992-1.44238,.97742Z"/><path class="cls-1" d="M8.33899,2.83875c.23242-.06018,.37158-.29749,.31152-.52991s-.29736-.37207-.52979-.31177-.37207,.29761-.31201,.53003c.06055,.23242,.29785,.37195,.53027,.31165Z"/></g></g></svg>