<?xml version="1.0" encoding="UTF-8"?><svg id="Layer_2" xmlns="http://www.w3.org/2000/svg" viewBox="0 0 28.41992 23.48145"><defs><style>.cls-1{fill:#783cbe;}</style></defs><g id="Layer_1-2"><g><path class="cls-1" d="M27.71777,8.52539c0-.8252-.67578-1.49609-1.50684-1.49609h-1.38672l-.00098-1.32129c-.11816-1.02051-.98145-2.9502-3.40723-2.9502h-.00293c-2.4209,0-3.28906,2.00879-3.41211,3.11914v1.15234h-1.36719c-.08496,0-.16357,.02673-.24561,.04053-.01807-.96021-.80078-1.73682-1.76514-1.73682h-1.84326l-.00342-1.78027c-.26074-1.22949-1.45996-3.55273-4.13574-3.55273-.38379,0-.62695,.01367-.96484,.0957-.22852,.05469-.36816,.28418-.31348,.5127,.05566,.22656,.2832,.36914,.5127,.31348,.25781-.0625,.43652-.07227,.76562-.07227,2.64941,0,3.27832,2.7627,3.29492,2.79102v1.69238H5.31787l-.00049-1.51562c.00098-.00488,.03711-.50195,.3418-1.11328,.10547-.20996,.01953-.46484-.19043-.56934-.2041-.10547-.46289-.02051-.56934,.19043-.3877,.77539-.42871,1.41406-.43066,1.46582v1.54199h-1.80762c-.97559,0-1.76953,.79395-1.76855,1.74316l-.89258,14.63574c0,.97559,.79297,1.76953,1.76855,1.76953H15.5127c.96436,0,1.74854-.77686,1.76514-1.76172h9.64697c.8252,0,1.49609-.6709,1.49512-1.52148l-.70215-11.67285Zm-8.87012-2.59863c.01172-.09473,.30566-2.31934,2.56543-2.31934h.00293c2.26562,0,2.55273,2.11035,2.56055,2.14941v1.27246h-5.12793l-.00098-1.10254Zm-3.33496,16.70508H1.76855c-.50684,0-.91895-.41309-.91992-.89355L1.74121,7.10254c0-.50684,.41309-.91992,.91992-.91992h1.80762v1.85645c0,.23438,.19043,.4248,.4248,.4248s.4248-.19043,.4248-.4248l-.00049-1.85645h6.61768v1.85645c0,.23438,.19043,.4248,.4248,.4248s.4248-.19043,.4248-.4248l-.00391-1.85645h1.8418c.50684,0,.91895,.41309,.91992,.94531l.03027,.49438c-.00195,.01538,.00293,.03052,.00293,.04614l.85645,14.04346c0,.50684-.41309,.91992-.91992,.91992Zm11.41211-1.76172h-9.69336l-.79053-12.96143c.06006-.01868,.125-.02979,.19287-.02979h1.36719v1.39746c0,.23438,.19043,.4248,.4248,.4248s.4248-.19043,.4248-.4248l-.00098-1.39746h5.12695v1.39746c0,.23438,.19043,.4248,.4248,.4248s.4248-.19043,.4248-.4248l-.00098-1.39746h1.38574c.3623,0,.65723,.29004,.6582,.67188l.70215,11.67285c0,.35645-.29004,.64648-.64648,.64648Z"/><path class="cls-1" d="M6.65576,1.56921c.15479-.16516,.14648-.42468-.01855-.57947-.16553-.15491-.4248-.14648-.57959,.0188s-.14648,.42468,.01855,.57959c.16553,.15479,.4248,.14636,.57959-.01892Z"/><path class="cls-1" d="M8.61426,11.63623c.00928,.00061,.01709,.00537,.02637,.00537s.01709-.00476,.02637-.00537c.62305,.01489,1.12598,.52063,1.12598,1.146,0,.23438,.19043,.4248,.4248,.4248s.4248-.19043,.4248-.4248c0-.95752-.67725-1.75781-1.57715-1.95337v-.50171c0-.23438-.19043-.4248-.4248-.4248s-.4248,.19043-.4248,.4248v.50171c-.8999,.19556-1.57617,.99585-1.57617,1.95337,0,1.37109,1.40723,1.8291,1.86914,1.98047,1.06934,.34863,1.28418,.70703,1.28418,1.17285,0,.63477-.5166,1.15137-1.15234,1.15137-.63477,0-1.15137-.5166-1.15137-1.15137,0-.23438-.19043-.4248-.4248-.4248s-.4248,.19043-.4248,.4248c0,.95752,.67627,1.75781,1.57617,1.95337v.51245c0,.23438,.19043,.4248,.4248,.4248s.4248-.19043,.4248-.4248v-.51245c.8999-.19556,1.57715-.99585,1.57715-1.95337,0-1.21484-.99902-1.69727-1.87012-1.98145-1.13672-.37012-1.2832-.82031-1.2832-1.17188,0-.62537,.50293-1.1311,1.125-1.146Z"/></g></g></svg>