<?xml version="1.0" encoding="UTF-8"?><svg id="Layer_2" xmlns="http://www.w3.org/2000/svg" viewBox="0 0 28.41992 23.48145"><defs><style>.cls-1{fill:#783cbe;}</style></defs><g id="Layer_1-2"><g><path class="cls-1" d="M26.21094,7.0293h-1.38672l-.00098-1.32129c-.11816-1.02051-.98145-2.9502-3.40723-2.9502h-.00293c-2.4209,0-3.28906,2.00879-3.41211,3.11914v1.15234h-1.36719c-.08496,0-.16357,.02673-.24561,.04053-.01807-.96021-.80078-1.73682-1.76514-1.73682h-1.84326l-.00342-1.78027c-.26074-1.22949-1.45996-3.55273-4.13574-3.55273-.38379,0-.62695,.01367-.96484,.0957-.22852,.05469-.36816,.28418-.31348,.5127,.05469,.22656,.28125,.36914,.5127,.31348,.25781-.0625,.43652-.07227,.76562-.07227,2.64941,0,3.27832,2.7627,3.29492,2.79102v1.69238H5.31787l-.00049-1.51562c.00098-.00488,.03711-.50195,.3418-1.11328,.10547-.20996,.01953-.46484-.19043-.56934-.20605-.10547-.46387-.02051-.56934,.19043-.3877,.77539-.42871,1.41406-.43066,1.46582v1.54199h-1.80762c-.97559,0-1.76953,.79395-1.76855,1.74316l-.89258,14.63574c0,.97559,.79297,1.76953,1.76855,1.76953H15.5127c.96436,0,1.74854-.77686,1.76514-1.76172h9.64697c.8252,0,1.49609-.6709,1.49512-1.52148l-.70215-11.67285c0-.8252-.67578-1.49609-1.50684-1.49609Zm-7.36328-1.10254c.01172-.09473,.30566-2.31934,2.56543-2.31934h.00293c2.26562,0,2.55273,2.11035,2.56055,2.14941v1.27246h-5.12793l-.00098-1.10254Zm-3.33496,16.70508H1.76855c-.50684,0-.91895-.41309-.91992-.89355L1.74121,7.10254c0-.50684,.41309-.91992,.91992-.91992h1.80762v1.85645c0,.23438,.19043,.4248,.4248,.4248s.4248-.19043,.4248-.4248l-.00049-1.85645h6.61768v1.85645c0,.23438,.19043,.4248,.4248,.4248s.4248-.19043,.4248-.4248l-.00391-1.85645h1.8418c.50684,0,.91895,.41309,.91992,.94531l.03027,.49438c-.00195,.01538,.00293,.03052,.00293,.04614l.85645,14.04346c0,.50684-.41309,.91992-.91992,.91992Zm11.41211-1.76172h-9.69336l-.79053-12.96143c.06006-.01868,.125-.02979,.19287-.02979h1.36719v1.39746c0,.23438,.19043,.4248,.4248,.4248s.4248-.19043,.4248-.4248l-.00098-1.39746h5.12695v1.39746c0,.23438,.19043,.4248,.4248,.4248s.4248-.19043,.4248-.4248l-.00098-1.39746h1.38574c.3623,0,.65723,.29004,.6582,.67188l.70215,11.67285c0,.35645-.29004,.64648-.64648,.64648Z"/><path class="cls-1" d="M6.65576,1.56921c.15479-.16516,.14648-.42468-.01855-.57947-.16553-.15491-.4248-.14648-.57959,.0188s-.14648,.42468,.01855,.57959c.16553,.15479,.4248,.14636,.57959-.01892Z"/><path class="cls-1" d="M11.49219,17.375c-.56152,.49121-1.28223,.76855-2.0293,.7793-.81934-.02344-1.6377-.30371-2.24121-.89062-.32129-.31226-.56104-.68347-.72266-1.08691h2.48438c.23438,0,.4248-.19043,.4248-.4248s-.19043-.4248-.4248-.4248h-2.68555c-.00928-.09302-.02979-.18372-.03125-.27832-.00195-.12061,.01904-.23535,.03076-.35254h2.68604c.23438,0,.4248-.19043,.4248-.4248s-.19043-.4248-.4248-.4248h-2.49414c.45605-1.15137,1.56982-1.97595,2.88281-1.99512,.7373,.00195,1.47559,.24512,2.05176,.7207,.18164,.14941,.44824,.125,.59863-.05762,.14941-.18066,.12305-.44922-.05762-.59863-.7168-.59082-1.61914-.91504-2.54688-.91504-.01953,0-.03906,.00098-.05762,.00098-1.78125,.02515-3.25977,1.2251-3.75342,2.84473h-.6499c-.23438,0-.4248,.19043-.4248,.4248s.19043,.4248,.4248,.4248h.49121c-.00928,.12183-.0332,.23975-.03125,.36426,.00146,.09058,.02246,.177,.02979,.2666h-.48975c-.23438,0-.4248,.19043-.4248,.4248s.19043,.4248,.4248,.4248h.65332c.19482,.63477,.5293,1.22046,1.01855,1.69629,.75293,.73047,1.74023,1.13184,2.78711,1.13184,.01953,0,.03906-.00098,.05859-.00098,.94922-.01367,1.86523-.36523,2.57812-.99023,.17676-.1543,.19434-.42285,.03906-.59961-.15332-.17578-.42188-.19434-.59961-.03906Z"/></g></g></svg>