<?xml version="1.0" encoding="UTF-8"?><svg id="Layer_2" xmlns="http://www.w3.org/2000/svg" viewBox="0 0 25.07324 25.07422"><defs><style>.cls-1{fill:#783cbe;}</style></defs><g id="Layer_1-2"><g><path class="cls-1" d="M23.16113,6.7002c-.20996,.10547-.29395,.36133-.1875,.57031,.8291,1.64062,1.25,3.41211,1.25,5.26562,0,6.44531-5.24316,11.68848-11.6875,11.68848S.84961,18.98145,.84961,12.53613C.84961,6.0918,6.0918,.84961,12.53613,.84961c3.24219,0,6.25586,1.29688,8.48633,3.65039,.16211,.17188,.42969,.17773,.60059,.0166s.17773-.43066,.0166-.60059C19.24707,1.39062,16.01367,0,12.53613,0,5.62402,0,0,5.62402,0,12.53613c0,6.91406,5.62402,12.53809,12.53613,12.53809,6.91309,0,12.53711-5.62402,12.53711-12.53809,0-1.9873-.45117-3.88867-1.3418-5.64844-.10449-.20996-.35938-.29199-.57031-.1875Z"/><path class="cls-1" d="M22.61914,5.98969c.22217-.10315,.31836-.36609,.21533-.58801-.10303-.22186-.36621-.31836-.58789-.21521-.22217,.10321-.31836,.36615-.21533,.58801,.10352,.22186,.36621,.31842,.58789,.21521Z"/><path class="cls-1" d="M5.31152,8.99707c0,1.39844,1.1377,2.53516,2.53613,2.53516s2.53516-1.13672,2.53516-2.53516c0-.46552-.13477-.8963-.35449-1.27155l.94824,.9483c.08301,.08301,.19238,.12402,.30078,.12402s.21777-.04102,.30078-.12402c.16602-.16602,.16602-.43555,0-.60156l-3.88672-3.88672c-.16602-.16602-.43555-.16602-.60156,0s-.16602,.43555,0,.60156l2.0293,2.02936c-.375-.21967-.80615-.35455-1.27148-.35455-1.39844,0-2.53613,1.13672-2.53613,2.53516Zm4.22168,0c0,.92969-.75586,1.68555-1.68555,1.68555s-1.68652-.75586-1.68652-1.68555,.75684-1.68555,1.68652-1.68555,1.68555,.75586,1.68555,1.68555Z"/><path class="cls-1" d="M12.53711,21.77051c2.3877,0,4.33008-1.94238,4.33008-4.33008s-1.94238-4.33008-4.33008-4.33008c-2.38867,0-4.33105,1.94238-4.33105,4.33008s1.94238,4.33008,4.33105,4.33008Zm0-7.81055c1.91895,0,3.48047,1.56152,3.48047,3.48047s-1.56152,3.48047-3.48047,3.48047c-1.91992,0-3.48145-1.56152-3.48145-3.48047s1.56152-3.48047,3.48145-3.48047Z"/><path class="cls-1" d="M19.76172,8.99707c0-1.39844-1.13672-2.53516-2.53516-2.53516-.35645,0-.69482,.07538-1.00293,.20862l1.88379-1.8844c.16602-.16602,.16602-.43555,0-.60156s-.43555-.16602-.60156,0l-3.88574,3.88672c-.16602,.16602-.16602,.43555,0,.60156,.08301,.08301,.19238,.12402,.30078,.12402s.21777-.04102,.30078-.12402l.67627-.67657c-.13232,.30731-.20752,.6452-.20752,1.00079,0,1.39844,1.1377,2.53516,2.53613,2.53516s2.53516-1.13672,2.53516-2.53516Zm-4.22168,0c0-.92969,.75684-1.68555,1.68652-1.68555s1.68555,.75586,1.68555,1.68555-.75586,1.68555-1.68555,1.68555-1.68652-.75586-1.68652-1.68555Z"/></g></g></svg>