<?xml version="1.0" encoding="UTF-8"?><svg id="Layer_2" xmlns="http://www.w3.org/2000/svg" viewBox="0 0 25.13184 25.13281"><defs><style>.cls-1{fill:#783cbe;}</style></defs><g id="Layer_1-2"><g><path class="cls-1" d="M23.2168,6.7168c-.20996,.10547-.29395,.36133-.1875,.57031,.83105,1.64648,1.25293,3.42285,1.25293,5.2793,0,6.46094-5.25586,11.7168-11.7168,11.7168C6.10547,24.2832,.84961,19.02734,.84961,12.56641S6.10547,.84961,12.56543,.84961c3.24902,0,6.27051,1.2998,8.50781,3.66016,.16211,.17188,.43066,.17676,.60059,.0166,.1709-.16113,.17773-.43066,.0166-.60059C19.29102,1.39355,16.05078,0,12.56543,0,5.63672,0,0,5.63672,0,12.56641s5.63672,12.56641,12.56543,12.56641c6.92969,0,12.56641-5.63672,12.56641-12.56641,0-1.99121-.45215-3.89551-1.34473-5.66211-.10449-.20898-.35938-.29199-.57031-.1875Z"/><path class="cls-1" d="M22.67285,6.00391c.22217-.10345,.31885-.367,.21533-.58942-.10303-.22241-.3667-.31921-.58936-.21576-.22217,.10339-.31934,.367-.21582,.58942s.36719,.31915,.58984,.21576Z"/><path class="cls-1" d="M6.40234,18.22852h12.08496c.23438,0,.4248-.19043,.4248-.4248s-.19043-.4248-.4248-.4248H6.40234c-.23438,0-.4248,.19043-.4248,.4248s.19043,.4248,.4248,.4248Z"/><path class="cls-1" d="M10.60742,10.06641c0-.23438-.19043-.4248-.4248-.4248H4.6748c-.23438,0-.4248,.19043-.4248,.4248s.19043,.4248,.4248,.4248h5.50781c.23438,0,.4248-.19043,.4248-.4248Z"/><path class="cls-1" d="M20.79688,10.06641c0-.23438-.19043-.4248-.4248-.4248h-5.50781c-.23438,0-.4248,.19043-.4248,.4248s.19043,.4248,.4248,.4248h5.50781c.23438,0,.4248-.19043,.4248-.4248Z"/></g></g></svg>