<svg width="92" height="98" xmlns="http://www.w3.org/2000/svg" xmlns:xlink="http://www.w3.org/1999/xlink" xml:space="preserve" overflow="hidden"><defs><clipPath id="clip0"><rect x="70" y="103" width="92" height="98"/></clipPath></defs><g clip-path="url(#clip0)" transform="translate(-70 -103)"><path d="M35.8334 42.2682C24.1614 42.2682 14.6994 32.8061 14.6994 21.1341 14.6994 9.46203 24.1614 5.97102e-07 35.8334 5.97102e-07 47.5056 5.97102e-07 56.9673 9.46203 56.9673 21.1341 56.954 32.8006 47.5 42.2549 35.8334 42.2682ZM35.8334 3.42396C26.0524 3.42396 18.1233 11.353 18.1233 21.1341 18.1233 30.9151 26.0524 38.8442 35.8334 38.8442 45.6143 38.8442 53.5434 30.9151 53.5434 21.1341 53.5317 11.358 45.6095 3.43588 35.8334 3.42396Z" transform="matrix(1 0 0 1.02083 70 103.329)"/><path d="M62.609 95.355 8.71732 95.355C3.90526 95.3494 0.0057293 91.4499-3.78185e-08 86.638L0 71.5802C0.114613 66.5161 1.7069 61.5954 4.58102 57.4239 5.11173 56.6401 6.17719 56.4354 6.96087 56.9657 7.7379 57.492 7.94718 58.5455 7.43025 59.3289 4.94582 62.9431 3.55489 67.1964 3.42384 71.5802L3.42384 86.6376C3.42681 89.5598 5.79499 91.9279 8.7172 91.9311L62.609 91.9311C65.6859 91.9283 68.1801 89.4353 68.1841 86.3584 68.1841 85.4129 68.9506 84.6464 69.8961 84.6464 70.8415 84.6464 71.608 85.4129 71.608 86.3584 71.6028 91.3258 67.5768 95.3514 62.609 95.355Z" transform="matrix(1 0 0 1.02083 70 103.329)"/><path d="M64.7441 59.1165C64.2081 59.1182 63.7019 58.8671 63.3787 58.4395 62.5526 57.3538 61.6406 56.3366 60.6512 55.3972 57.5996 52.4577 53.7796 50.4399 49.6315 49.5767 40.4825 47.9074 31.1071 47.909 21.9586 49.5807 20.2054 49.8636 18.4979 50.3798 16.8816 51.1153 16.0185 51.5022 15.0051 51.1161 14.6181 50.2529 14.2347 49.3977 14.6103 48.3926 15.4609 47.9985 17.3414 47.1401 19.328 46.5364 21.3682 46.2039 30.9423 44.4412 40.7585 44.448 50.3303 46.2237 55.1018 47.213 59.497 49.5311 63.0088 52.9103 64.1319 53.9787 65.1676 55.1353 66.1058 56.3693 66.6773 57.1229 66.5298 58.1973 65.7762 58.7688 65.4792 58.9936 65.1169 59.1161 64.7441 59.1165Z" transform="matrix(1 0 0 1.02083 70 103.329)"/><path d="M78.2846 83.7453C77.3395 83.7477 76.5714 82.9832 76.569 82.0382 76.5674 81.5155 76.8052 81.0206 77.2142 80.695L87.5432 72.4463 77.2142 64.1932C76.4751 63.6032 76.3542 62.5256 76.9446 61.7864 77.5346 61.0477 78.6122 60.9268 79.3509 61.5172L91.3564 71.1079C92.0955 71.6987 92.2156 72.7767 91.6248 73.5159 91.5458 73.615 91.4556 73.7049 91.3564 73.7843L79.3509 83.3713C79.0487 83.6139 78.6723 83.7457 78.2846 83.7453Z" transform="matrix(1 0 0 1.02083 70 103.329)"/><path d="M60.0019 83.7453C59.6143 83.7457 59.2379 83.6135 58.9352 83.3713L46.9317 73.7843C46.1926 73.1935 46.0725 72.1154 46.6633 71.3767 46.7423 71.2776 46.8326 71.1873 46.9317 71.1079L58.9352 61.5172C59.6743 60.9268 60.7515 61.0477 61.3419 61.7864 61.9319 62.5256 61.8114 63.6032 61.0723 64.1932L50.7454 72.4463 61.0723 80.695C61.8114 81.2837 61.9335 82.3606 61.3448 83.1001 61.0191 83.5087 60.5246 83.7465 60.0015 83.7453Z" transform="matrix(1 0 0 1.02083 70 103.329)"/><path d="M65.1024 83.7453C64.1573 83.7461 63.3904 82.9808 63.3892 82.0358 63.3892 81.8064 63.4351 81.5796 63.5242 81.368L71.608 62.1898C71.9869 61.3234 72.9968 60.928 73.8632 61.3069 74.7136 61.6788 75.1134 62.6602 74.7644 63.5202L66.6805 82.6983C66.4125 83.3326 65.7911 83.7449 65.1024 83.7453Z" transform="matrix(1 0 0 1.02083 70 103.329)"/><path d="M66.395 57.4993C66.395 58.4304 65.6401 59.1852 64.709 59.1852 63.7779 59.1852 63.0231 58.4304 63.0231 57.4993 63.0231 56.5682 63.7779 55.8134 64.709 55.8134 65.6401 55.8134 66.395 56.5682 66.395 57.4993Z" transform="matrix(1 0 0 1.02083 70 103.329)"/><path d="M12.0958 53.1291C12.0958 54.0602 11.341 54.8151 10.4099 54.8151 9.47879 54.8151 8.72397 54.0602 8.72397 53.1291 8.72397 52.198 9.47879 51.4432 10.4099 51.4432 11.341 51.4432 12.0958 52.198 12.0958 53.1291Z" transform="matrix(1 0 0 1.02083 70 103.329)"/></g></svg>