<svg width="84" height="101" xmlns="http://www.w3.org/2000/svg" xmlns:xlink="http://www.w3.org/1999/xlink" xml:space="preserve" overflow="hidden"><defs><clipPath id="clip0"><rect x="247" y="263" width="84" height="101"/></clipPath></defs><g clip-path="url(#clip0)" transform="translate(-247 -263)"><path d="M37.0015 43.646C24.949 43.646 15.1786 33.8755 15.1786 21.823 15.1786 9.77047 24.949 6.16566e-07 37.0015 6.16566e-07 49.0542 6.16566e-07 58.8243 9.77047 58.8243 21.823 58.8106 33.8698 49.0484 43.6323 37.0015 43.646ZM37.0015 3.53557C26.9017 3.53557 18.7141 11.7231 18.7141 21.823 18.7141 31.9228 26.9017 40.1104 37.0015 40.1104 47.1013 40.1104 55.2888 31.9228 55.2888 21.823 55.2768 11.7282 47.0963 3.54788 37.0015 3.53557Z" fill="#010101" transform="matrix(1 0 0 1.00198 247 264.171)"/><path d="M64.652 98.4634 9.00149 98.4634C4.03256 98.4576 0.00591606 94.431-3.90513e-08 89.4623L0 73.9115C0.117272 68.669 1.77049 63.5758 4.75474 59.2634 5.29901 58.4532 6.39703 58.2376 7.2073 58.7819 8.01753 59.3262 8.23313 60.4244 7.68886 61.2346 5.11399 64.9728 3.67194 69.3743 3.53557 73.9119L3.53557 89.4623C3.53867 92.4797 5.98406 94.9249 9.00149 94.9278L64.652 94.9278C67.83 94.9245 70.4055 92.3494 70.4105 89.1714 70.4151 88.1951 71.2104 87.4078 72.1866 87.4124 73.1566 87.4169 73.9415 88.2018 73.9461 89.1714 73.9398 94.3016 69.7822 98.4584 64.652 98.4634Z" fill="#010101" transform="matrix(1 0 0 1.00198 247 264.171)"/><path d="M12.6017 54.8598C12.6017 55.8212 11.8223 56.6007 10.8608 56.6007 9.89934 56.6007 9.11992 55.8212 9.11992 54.8598 9.11992 53.8983 9.89934 53.1189 10.8608 53.1189 11.8223 53.1189 12.6017 53.8983 12.6017 54.8598Z" fill="#010101" transform="matrix(1 0 0 1.00198 247 264.171)"/><path d="M65.2495 59.2796C64.7431 59.2804 64.2604 59.0636 63.9246 58.6841 63.575 58.2859 63.2096 57.8976 62.8355 57.5222L62.307 57.0058C59.1539 53.9672 55.2068 51.8802 50.9202 50.9855 41.473 49.2702 31.794 49.2714 22.3472 50.9897 20.5382 51.2839 18.7765 51.8182 17.1089 52.5785 16.2201 52.9851 15.1703 52.5939 14.764 51.705 14.3578 50.8161 14.749 49.7662 15.6378 49.3601 17.5794 48.4733 19.6309 47.8499 21.7376 47.5066 31.6236 45.6851 41.7597 45.6905 51.6438 47.5228 56.5701 48.5482 61.1069 50.9431 64.7335 54.4316L65.3469 55.0308C65.7697 55.4511 66.1759 55.8922 66.5741 56.3392 67.2212 57.0707 67.153 58.1885 66.421 58.8356 66.0976 59.1215 65.6811 59.2796 65.2495 59.2796Z" fill="#010101" transform="matrix(1 0 0 1.00198 247 264.171)"/><path d="M71.8491 66.8996C70.8716 66.8975 70.0805 66.1039 70.0822 65.1264 70.0839 64.339 70.6053 63.647 71.3614 63.4289L76.1732 62.0532 74.621 57.087C74.3293 56.1556 74.8478 55.164 75.7791 54.8723 76.7105 54.5805 77.7021 55.0991 77.9939 56.0304L80.087 62.7277C80.3792 63.6595 79.8611 64.652 78.9293 64.9445 78.9156 64.9487 78.9019 64.9529 78.8881 64.957L72.3373 66.8301C72.1783 66.8758 72.0143 66.8991 71.8491 66.8996Z" transform="matrix(1 0 0 1.00198 247 264.171)"/><path d="M67.5333 90.1123C58.439 90.1098 51.0687 82.7349 51.0717 73.641 51.0742 64.5467 58.4486 57.1764 67.5429 57.1789 71.9078 57.1802 76.0938 58.9142 79.1803 62.0003 79.869 62.6945 79.8652 63.8151 79.1711 64.5038 78.4812 65.1888 77.3671 65.1888 76.6772 64.5038 71.6273 59.4548 63.4406 59.4552 58.3916 64.5047 53.3425 69.5545 53.3429 77.7412 58.3928 82.7903 63.4423 87.8393 71.629 87.8389 76.678 82.789 79.1029 80.3642 80.4649 77.075 80.4645 73.6456 80.4649 72.5566 80.3284 71.4717 80.0583 70.4168 79.8157 69.4696 80.3871 68.5054 81.3342 68.2628 82.2813 68.0206 83.246 68.5916 83.4882 69.5391 85.7403 78.3663 80.4104 87.3479 71.5832 89.6 70.2599 89.9379 68.8991 90.1098 67.5333 90.1123Z" transform="matrix(1 0 0 1.00198 247 264.171)"/></g></svg>