<?xml version="1.0" encoding="UTF-8"?><svg id="Layer_2" xmlns="http://www.w3.org/2000/svg" viewBox="0 0 25.11816 25.11914"><defs><style>.cls-1{fill:#783cbe;}</style></defs><g id="Layer_1-2"><g><path class="cls-1" d="M23.2041,6.71289c-.20996,.10547-.29395,.36133-.1875,.57031,.83008,1.64453,1.25195,3.41992,1.25195,5.27637,0,6.45703-5.25293,11.70996-11.70898,11.70996C6.10254,24.26953,.84961,19.0166,.84961,12.55957S6.10254,.84961,12.55957,.84961c3.24707,0,6.2666,1.29883,8.50195,3.65723,.16211,.17188,.43066,.17773,.60059,.0166,.1709-.16113,.17773-.43066,.0166-.60059C19.28125,1.39258,16.04297,0,12.55957,0,5.63379,0,0,5.63379,0,12.55957s5.63379,12.55957,12.55957,12.55957c6.9248,0,12.55859-5.63379,12.55859-12.55957,0-1.99121-.45215-3.89551-1.34375-5.65918-.10449-.20898-.3584-.29395-.57031-.1875Z"/><path class="cls-1" d="M7.8877,7.29199c.93164,0,1.68945,.75781,1.68945,1.68945,0,.23438,.19043,.4248,.4248,.4248s.4248-.19043,.4248-.4248c0-1.40039-1.13867-2.53906-2.53906-2.53906s-2.53906,1.13867-2.53906,2.53906c0,.23438,.19043,.4248,.4248,.4248s.4248-.19043,.4248-.4248c0-.93164,.75781-1.68945,1.68945-1.68945Z"/><path class="cls-1" d="M19.39844,9.40625c.23438,0,.4248-.19043,.4248-.4248,0-1.40039-1.13965-2.53906-2.54004-2.53906s-2.53906,1.13867-2.53906,2.53906c0,.23438,.19043,.4248,.4248,.4248s.4248-.19043,.4248-.4248c0-.93164,.75781-1.68945,1.68945-1.68945s1.69043,.75781,1.69043,1.68945c0,.23438,.19043,.4248,.4248,.4248Z"/><path class="cls-1" d="M22.66064,6.00055c.22217-.10339,.31885-.36676,.21533-.58911-.10303-.22229-.3667-.31897-.58887-.21564-.22217,.10339-.31885,.36682-.21582,.58911,.10352,.22229,.36719,.31903,.58936,.21564Z"/><path class="cls-1" d="M12.55957,20.15332c3.02051,0,5.62891-2.0459,6.34277-4.97461,.05566-.22852-.08398-.45801-.3125-.51367-.22852-.05273-.45801,.08398-.51367,.3125-.62012,2.54688-2.88867,4.32617-5.5166,4.32617s-4.89746-1.7793-5.51758-4.32617c-.05664-.22852-.28223-.36621-.51367-.3125-.22852,.05566-.36816,.28516-.3125,.51367,.71387,2.92871,3.32227,4.97461,6.34375,4.97461Z"/></g></g></svg>