<?xml version="1.0" encoding="UTF-8"?><svg id="Layer_2" xmlns="http://www.w3.org/2000/svg" viewBox="0 0 21.28936 24.91513"><defs><style>.cls-1{fill:#783cbe;}</style></defs><g id="Layer_1-2"><g><path class="cls-1" d="M20.05137,5.47763c-.21582,.09277-.31641,.34277-.22363,.55762,.49609,1.1582,.69141,2.41016,.58105,3.72168-.31543,3.77734-2.67969,6.77832-4.60742,8.62988-1.00098,.96191-.72168,2.37695-.71289,2.41504l.58008,3.75293c.03223,.20996,.21289,.36035,.41895,.36035,.02246,0,.04395-.00098,.06543-.00488,.23242-.03613,.3916-.25293,.35547-.48438l-.58398-3.77441c-.00195-.01074-.2002-1.01074,.4668-1.65137,2.03223-1.9541,4.52637-5.13086,4.86523-9.17188,.12207-1.45215-.0957-2.83984-.64746-4.12695-.09277-.21582-.34277-.31543-.55762-.22363Z"/><path class="cls-1" d="M5.44004,19.62021l-3.02148-.62988,.04004-2.32227,.37305-.41895c.0791-.08887,.11719-.20605,.10547-.3252-.01172-.11816-.07324-.22656-.16895-.29785l-.47559-.35547,.07031-1.54785c.00684-.14844-.06445-.28906-.1875-.37207l-1.09961-.73926c1.54004-1.68457,2.3584-3.09277,2.56934-4.43457l.0166-.29688c.01758-.33789,.04102-.82129,.07422-1.0127,.34082-1.93848,1.48633-3.61816,3.22461-4.72949,1.75-1.11816,3.88965-1.5293,6.02637-1.15137,1.94434,.3418,3.67188,1.18359,4.99609,2.43359,.16992,.16016,.43945,.15137,.60156-.01758,.16016-.1709,.15332-.44043-.01758-.60156-1.44629-1.36426-3.3252-2.28125-5.43359-2.65234-2.34766-.41211-4.7002,.04004-6.63086,1.27344-1.94141,1.24023-3.22168,3.12207-3.60449,5.29883-.03613,.20996-.05957,.62988-.08496,1.11523l-.01172,.24609c-.19434,1.22168-1.04688,2.5918-2.68359,4.31055-.08691,.09082-.12891,.21484-.11523,.33887,.01367,.125,.08203,.2373,.18555,.30664l1.31445,.88477-.06934,1.53418c-.00586,.14062,.05762,.27539,.1709,.36035l.28516,.21289-.16992,.19043c-.06738,.0752-.10547,.17285-.10742,.27441l-.04883,2.83203c-.00391,.2041,.13867,.38184,.33789,.42383l3.3125,.68652c.98242,.3418,1.03906,1.65234,1.04395,1.7207l.38867,2.40039c.03418,.20801,.21484,.35645,.41895,.35645,.02344,0,.0459-.00195,.06934-.00488,.23145-.03809,.38867-.25586,.35156-.48828l-.38379-2.34375c-.00195-.07715-.06836-1.9082-1.66211-2.45801Z"/><path class="cls-1" d="M19.43223,4.77462c.24316-.01862,.42529-.23077,.40674-.47394s-.23096-.42523-.47412-.40662c-.24316,.01855-.4248,.23077-.40625,.47394s.23047,.42517,.47363,.40662Z"/><path class="cls-1" d="M12.38242,5.0831v-1.33496c0-.23438-.19043-.4248-.4248-.4248s-.4248,.19043-.4248,.4248v1.33496c0,.23438,.19043,.4248,.4248,.4248s.4248-.19043,.4248-.4248Z"/><path class="cls-1" d="M14.58457,4.02646c-.20312-.11426-.46289-.04688-.58105,.15527l-.66797,1.15625c-.11719,.20312-.04785,.46387,.15527,.58105,.06738,.03809,.14062,.05664,.21289,.05664,.14648,0,.28906-.07617,.36816-.21191l.66797-1.15625c.11719-.20312,.04785-.46387-.15527-.58105Z"/><path class="cls-1" d="M14.61484,7.04208c.0791,.13574,.22168,.21191,.36816,.21191,.07227,0,.14551-.01855,.21289-.05664l1.15527-.66699c.20312-.11719,.27246-.37695,.15527-.58105-.11816-.20215-.37793-.27148-.58105-.15527l-1.15527,.66699c-.20312,.11719-.27246,.37695-.15527,.58105Z"/><path class="cls-1" d="M7.12949,8.15146c-.23438,0-.4248,.19043-.4248,.4248s.19043,.4248,.4248,.4248h1.2998c.23438,0,.4248-.19043,.4248-.4248s-.19043-.4248-.4248-.4248h-1.2998Z"/><path class="cls-1" d="M17.21055,8.57626c0-.23438-.19043-.4248-.4248-.4248h-1.33984c-.23438,0-.4248,.19043-.4248,.4248s.19043,.4248,.4248,.4248h1.33984c.23438,0,.4248-.19043,.4248-.4248Z"/><path class="cls-1" d="M9.30039,7.04208c.11719-.2041,.04785-.46387-.15527-.58105l-1.15527-.66699c-.20312-.11621-.46289-.04688-.58105,.15527-.11719,.2041-.04785,.46387,.15527,.58105l1.15527,.66699c.06738,.03809,.14062,.05664,.21289,.05664,.14648,0,.28906-.07617,.36816-.21191Z"/><path class="cls-1" d="M9.84238,5.76278c.0791,.13672,.22168,.21289,.36816,.21289,.07227,0,.14551-.01855,.21191-.05664,.2041-.11719,.27344-.37695,.15625-.58008l-.66699-1.15625c-.11816-.2041-.37793-.27051-.58008-.15625-.2041,.11719-.27344,.37695-.15625,.58008l.66699,1.15625Z"/><path class="cls-1" d="M11.95762,11.28134c1.49121,0,2.70508-1.21387,2.70508-2.70508s-1.21387-2.70508-2.70508-2.70508-2.70508,1.21387-2.70508,2.70508,1.21387,2.70508,2.70508,2.70508Zm0-4.56055c1.02344,0,1.85547,.83203,1.85547,1.85547s-.83203,1.85547-1.85547,1.85547-1.85547-.83203-1.85547-1.85547,.83203-1.85547,1.85547-1.85547Z"/><path class="cls-1" d="M11.95762,11.71005c-.23438,0-.4248,.19043-.4248,.4248v1.33398c0,.23438,.19043,.4248,.4248,.4248s.4248-.19043,.4248-.4248v-1.33398c0-.23438-.19043-.4248-.4248-.4248Z"/><path class="cls-1" d="M10.42344,11.29892c-.2041-.11523-.46387-.04785-.58105,.15527l-.66699,1.15527c-.11719,.2041-.04785,.46387,.15527,.58105,.06738,.03809,.14062,.05664,.21289,.05664,.14648,0,.28906-.07617,.36816-.21191l.66699-1.15527c.11719-.2041,.04785-.46387-.15527-.58105Z"/><path class="cls-1" d="M9.30039,10.17489c-.11816-.20312-.37891-.27148-.58105-.15527l-1.15527,.66797c-.20312,.11816-.27246,.37793-.15527,.58105,.0791,.13574,.22168,.21191,.36816,.21191,.07227,0,.14551-.01855,.21289-.05664l1.15527-.66797c.20312-.11816,.27246-.37793,.15527-.58105Z"/><path class="cls-1" d="M14.77012,10.75595l1.15527,.66797c.06738,.03809,.14062,.05664,.21289,.05664,.14648,0,.28906-.07617,.36816-.21191,.11719-.20312,.04785-.46289-.15527-.58105l-1.15527-.66797c-.20508-.11621-.46289-.04785-.58105,.15527-.11719,.20312-.04785,.46289,.15527,.58105Z"/><path class="cls-1" d="M14.07187,11.45419c-.11816-.20312-.37598-.27051-.58105-.15527-.20312,.11816-.27246,.37793-.15527,.58105l.66797,1.15527c.0791,.13574,.22168,.21191,.36816,.21191,.07227,0,.14551-.01855,.21289-.05664,.20312-.11816,.27246-.37793,.15527-.58105l-.66797-1.15527Z"/></g></g></svg>