<?xml version="1.0" encoding="UTF-8"?><svg id="Layer_2" xmlns="http://www.w3.org/2000/svg" viewBox="0 0 20.16895 24.94336"><defs><style>.cls-1{fill:#783cbe;}</style></defs><g id="Layer_1-2"><g><path class="cls-1" d="M13.0918,18.33856c2.18262-.62762,5.48682-2.14685,5.83789-3.22333,.35742-1.0918-.2041-3.5127-1.62695-9.38867C15.74609,.26367,10.57422,.00195,10.50586,0l-.86914,.00098c-.05078,.00293-5.08398,.35742-6.58984,5.72363-.06348,.22656,.06836,.46094,.29395,.52441,.23242,.06445,.46094-.06738,.52441-.29395C5.2041,1.18359,9.50488,.86035,9.66113,.84961h.82715c.18848,.00781,4.6123,.25195,5.99219,5.09277,1.16699,4.81934,1.9375,8.00293,1.64062,8.9082-.20068,.61694-3.69189,2.34821-5.81641,2.8194v-1.62958c1.98193-.97156,3.17041-3.22375,3.49365-5.37207,.17432,.08704,.3418,.18781,.52197,.26233,.21289,.0918,.46582-.0127,.55469-.23047,.08984-.2168-.0127-.46484-.23047-.55469-3.64551-1.50977-6.21387-6.19434-6.23926-6.24121-.08105-.14941-.24609-.23145-.41406-.2207-.16992,.01562-.31348,.13184-.36523,.29395-1.03613,3.26758-6.07227,6.25586-6.12305,6.28613-.20215,.11816-.27051,.37891-.15137,.58105,.0791,.13477,.2207,.20996,.36621,.20996,.07324,0,.14746-.01855,.21484-.05859,.04102-.02411,.2627-.15631,.59326-.37134,.38965,2.06995,1.53223,4.14215,3.21436,5.19598v1.84955c-2.11279-.46887-5.48535-2.18103-5.69434-2.8197-.22266-.68262,.05176-1.83594,.86523-5.25977l.07129-.30176c.05469-.22852-.08691-.45801-.31445-.51172-.23047-.05273-.45898,.08594-.51172,.31445l-.07227,.30273c-.90137,3.79004-1.14258,4.80957-.84668,5.71973,.36133,1.10431,3.71826,2.65741,5.85352,3.25922-2.19287,.40417-7.09082,1.7923-7.09082,6.14508,0,.23438,.19043,.4248,.4248,.4248s.4248-.19043,.4248-.4248c0-3.45026,3.89648-4.76349,6.01562-5.22412l2.89648,3.37256c.08105,.09375,.17188,.14355,.32227,.14746,.12012,0,.23535-.05078,.31641-.14062l3.07715-3.42712c2.19336,.37646,5.8418,1.55695,5.8418,5.27185,0,.23438,.19043,.4248,.4248,.4248s.4248-.19043,.4248-.4248c0-4.60144-4.78271-5.84729-7.07715-6.17999ZM5.29834,10.09857c1.47949-1.04797,3.76074-2.90765,4.8042-5.039,.78564,1.24738,2.56201,3.73505,4.96533,5.21606-.04883,.05774-.08789,.1236-.09912,.20288-.35547,2.50781-2.01562,5.20801-4.82129,5.20801-2.80908,0-4.51807-3.25031-4.84912-5.58795Zm4.79248,11.64752l-2.25879-2.6311c.22412-.03308,.3623-.04767,.37207-.04858,.21875-.02051,.38574-.20312,.38574-.42285v-2.39697c.48633,.18347,1.00537,.28955,1.55762,.28955,.46387,0,.89795-.06592,1.30762-.17755v2.28497c0,.23047,.18359,.41895,.41406,.4248,.04688,.00122,.26904,.01099,.58887,.04077l-2.36719,2.63696Z"/><path class="cls-1" d="M2.87402,7.92676c.0498,.01855,.10156,.02734,.15332,.02734,.06445,0,.12891-.01465,.18945-.04199,.1084-.05078,.19043-.14062,.23145-.25293,.04199-.1123,.03613-.23438-.01367-.34375-.05078-.1084-.14062-.19141-.25391-.23242-.11035-.04102-.2334-.03418-.34277,.01465-.1084,.05078-.19141,.14062-.23242,.25391-.04102,.1123-.03613,.23438,.01465,.34277s.14062,.19141,.25391,.23242Z"/></g></g></svg>