<?xml version="1.0" encoding="UTF-8"?><svg id="Layer_2" xmlns="http://www.w3.org/2000/svg" viewBox="0 0 20.16895 24.94336"><defs><style>.cls-1{fill:#783cbe;}</style></defs><g id="Layer_1-2"><g><path class="cls-1" d="M19.53418,21.50586c1.54004-2.35449-2.19336-15.64648-2.23145-15.7793C15.74512,.26367,10.57422,.00195,10.50586,0l-.86914,.00098c-.05078,.00293-5.08398,.35742-6.58984,5.72363-.06348,.22656,.06836,.46094,.29395,.52441,.23242,.06445,.46094-.06738,.52441-.29395C5.2041,1.18359,9.50488,.86035,9.66113,.84961h.82715c.18848,.00781,4.6123,.25195,5.99707,5.11035,1.53467,5.37341,3.18457,13.48816,2.36621,15.01221-1.91113-2.13458-5.3584-2.62292-6.54688-2.72607v-2.20569c1.98193-.97156,3.17041-3.22375,3.49365-5.37207,.17432,.08704,.3418,.18781,.52197,.26233,.21484,.0918,.46582-.0127,.55469-.23047,.08984-.2168-.0127-.46484-.23047-.55469-3.64551-1.50977-6.21387-6.19434-6.23926-6.24121-.08105-.14941-.24512-.23145-.41406-.2207-.16992,.01562-.31348,.13184-.36523,.29395-1.03613,3.26758-6.07227,6.25586-6.12305,6.28613-.20215,.11816-.27051,.37891-.15137,.58105,.0791,.13477,.2207,.20996,.36621,.20996,.07324,0,.14746-.01855,.21484-.05859,.04102-.02411,.2627-.15631,.59326-.37134,.38965,2.06995,1.53223,4.14215,3.21436,5.19598v2.44586c-1.17578,.16248-4.66504,.82355-6.52979,2.99127-.02344-.02521-.04346-.05273-.07373-.07233-.8877-.57812,.89062-7.93652,1.55957-10.70703l.28613-1.18945c.05469-.22852-.08691-.45801-.31445-.51172-.23438-.05273-.45801,.08594-.51172,.31445l-.28613,1.1875C.15332,17.38477-.50293,21.13184,.67383,21.89844c.01709,.01111,.03809,.00818,.05615,.01654-.44629,.72314-.72998,1.57666-.72998,2.60358,0,.23438,.19043,.4248,.4248,.4248s.4248-.19043,.4248-.4248c0-3.45026,3.89648-4.76349,6.01562-5.22412l2.89648,3.37256c.08008,.09375,.17773,.14355,.32227,.14746,.12012,0,.23535-.05078,.31641-.14062l3.07715-3.42712c2.19336,.37646,5.8418,1.55695,5.8418,5.27185,0,.23438,.19043,.4248,.4248,.4248s.4248-.19043,.4248-.4248c0-1.14148-.30566-2.0661-.78369-2.83197,.05127-.05182,.10205-.10864,.14893-.18073ZM5.29834,10.09857c1.47949-1.04797,3.76074-2.90765,4.8042-5.039,.78564,1.24738,2.56152,3.73492,4.96484,5.21594-.04785,.05774-.08691,.12366-.09863,.203-.35547,2.50781-2.01562,5.20801-4.82129,5.20801-2.80908,0-4.51807-3.25031-4.84912-5.58795Zm4.79248,11.64752l-2.25879-2.6311c.22412-.03308,.3623-.04767,.37207-.04858,.21875-.02051,.38574-.20312,.38574-.42285v-2.39697c.48633,.18347,1.00537,.28955,1.55762,.28955,.46387,0,.89795-.06592,1.30762-.17755v2.28497c0,.23047,.18359,.41895,.41406,.4248,.04688,.00122,.26904,.01099,.58887,.04077l-2.36719,2.63696Z"/><path class="cls-1" d="M2.87402,7.92676c.0498,.01855,.10156,.02734,.15332,.02734,.06445,0,.12891-.01465,.18945-.04199,.1084-.05078,.19043-.14062,.23145-.25293,.04199-.1123,.03613-.23438-.01367-.34375-.05078-.1084-.14062-.19141-.25391-.23242-.11035-.04102-.23242-.03418-.34277,.01465-.1084,.05078-.19141,.14062-.23242,.25391-.04102,.1123-.03613,.23438,.01465,.34277s.14062,.19141,.25391,.23242Z"/></g></g></svg>