<?xml version="1.0" encoding="UTF-8"?><svg id="Layer_2" xmlns="http://www.w3.org/2000/svg" viewBox="0 0 22.11719 24.91406"><defs><style>.cls-1{fill:#783cbe;}</style></defs><g id="Layer_1-2"><g><path class="cls-1" d="M9.35645,11.01758c3.03809,0,5.50879-2.4707,5.50879-5.50879S12.39453,0,9.35645,0,3.84766,2.4707,3.84766,5.50879s2.4707,5.50879,5.50879,5.50879ZM9.35645,.84961c2.56934,0,4.65918,2.08984,4.65918,4.65918s-2.08984,4.65918-4.65918,4.65918-4.65918-2.08984-4.65918-4.65918S6.78711,.84961,9.35645,.84961Z"/><path class="cls-1" d="M18.27344,22.15625c-.23438,0-.4248,.19043-.4248,.4248,0,.81738-.66504,1.4834-1.48242,1.4834H2.25879c-.77734,0-1.40918-.63184-1.40918-1.40918v-3.94238c0-1.04883,.38574-2.22461,1.05664-3.22656,.13086-.19434,.0791-.45898-.11621-.58887-.19336-.12988-.45801-.08105-.58887,.11621-.77441,1.1543-1.20117,2.46875-1.20117,3.69922v3.94238c0,1.24512,1.0127,2.25879,2.25879,2.25879h14.10742c1.28613,0,2.33203-1.04688,2.33203-2.33301,0-.23438-.19043-.4248-.4248-.4248Z"/><path class="cls-1" d="M2.69629,14.3233c.24268,.01855,.45508-.16339,.47363-.40643s-.16357-.45508-.40625-.47369c-.24316-.01855-.45557,.16339-.47412,.40643-.01855,.24298,.16357,.45508,.40674,.47369Z"/><path class="cls-1" d="M21.72656,16.53906c-.01172,0-.02246-.00098-.03418-.00098-.04883,.00098-.10352,0-.33105-.0166-.08984-.00684-.2002-.05762-.37305-.1377-.02051-.00879-2.01172-.93164-1.69141-3.38184,.00781-.06641,.00098-.13379-.02148-.19727-.08008-.22559-.24023-.39062-.45117-.46582-.4043-.14258-.8457,.10547-.90234,.1416-.08789,.0459-.85645,.48535-.74121,1.89062,0,.00098,.08301,.91699,.11035,1.29199l-1.88086-.0166c-.60352-.00391-1.19824,.41211-1.36133,.9707-.0918,.31152-.03223,.61816,.15332,.86816-.08496,.15332-.15234,.34668-.14355,.57129,.00781,.19531,.07812,.46289,.33594,.7334-.05566,.15918-.0918,.36035-.05664,.58594,.04883,.31836,.22266,.59961,.5166,.83887,.06738,.40918,.37207,1.00195,1.32617,1.10449,.28027,.0293,.59961,.04199,.93457,.04199,1.00586,0,2.1543-.11328,2.83008-.21484,.0293-.00488,.06543-.01074,1.86133-.51465,.18359-.05176,.31055-.21875,.31055-.40918v-3.25977c0-.22168-.16992-.40527-.39062-.42383Zm-.45898,3.36133c-.48828,.13672-1.38574,.3877-1.4541,.40625-.81836,.12402-2.50195,.27734-3.54297,.16699-.54297-.05762-.58789-.33301-.58203-.43945,.0166-.15723-.05664-.31055-.18848-.39844-.13086-.08691-.29395-.22363-.32129-.38477-.02734-.15625,.07617-.2998,.07617-.2998,.07422-.0918,.10645-.20996,.08984-.32715-.0166-.11621-.08105-.2207-.17773-.28809-.16016-.11133-.25488-.22461-.25879-.31152-.00488-.09863,.0957-.21875,.14062-.25879,.10742-.08789,.16504-.22266,.1543-.36035-.01074-.13867-.08789-.2627-.20703-.33301-.16602-.09863-.14551-.16895-.13184-.21484,.0498-.16797,.25098-.36816,.52539-.36133l1.88574,.0166c.35645,.01465,.57812-.12988,.68945-.25488,.21484-.24316,.18359-.53809,.17871-.53809,0-.11816-.11621-1.42188-.11621-1.4209-.06836-.83008,.28418-1.06152,.31152-1.07812,.02148-.0127,.05273-.02734,.08594-.04102-.16504,2.27832,1.35742,3.59473,2.28125,4.00977,.14062,.06543,.33105,.15332,.56152,.17676v2.53418Z"/><path class="cls-1" d="M4.40137,13.33496c.42188-.19238,.86719-.32812,1.33301-.4043,2.32617-.4375,5.2373-.43652,7.25293-.00098,.92773,.18555,1.78516,.59766,2.54883,1.22461,.0791,.06445,.1748,.0957,.26953,.0957,.12305,0,.24512-.05273,.3291-.15527,.14844-.18164,.12207-.44922-.05957-.59863-.87305-.71484-1.85547-1.18652-2.91406-1.39844-2.14453-.46387-5.12207-.46484-7.57324-.00488-.53027,.08691-1.04883,.24512-1.54004,.46875-.21289,.09766-.30762,.34961-.20996,.56348,.09668,.21387,.34766,.30762,.56348,.20996Z"/></g></g></svg>