<?xml version="1.0" encoding="UTF-8"?><svg id="Layer_2" xmlns="http://www.w3.org/2000/svg" viewBox="0 0 33.2373 23.47168"><defs><style>.cls-1{fill:#783cbe;}</style></defs><g id="Layer_1-2"><g><path class="cls-1" d="M5.75391,14.2002c1.90723,0,3.45801-1.55078,3.45801-3.45801s-1.55078-3.45801-3.45801-3.45801-3.45801,1.55078-3.45801,3.45801,1.55078,3.45801,3.45801,3.45801Zm0-6.06641c1.43848,0,2.6084,1.16992,2.6084,2.6084s-1.16992,2.6084-2.6084,2.6084-2.6084-1.16992-2.6084-2.6084,1.16992-2.6084,2.6084-2.6084Z"/><path class="cls-1" d="M8.05176,15.4834c-1.29883-.2832-3.10059-.2832-4.6084,0-.10449,.01562-.14453,.02246-.25684,.05078-.22754,.05664-.36523,.28711-.30859,.51562,.05762,.22754,.28711,.36914,.51562,.30859,.0791-.01953,.10742-.02441,.22266-.04199,1.36914-.25781,3.08008-.25879,4.26172-.00098,1.58008,.31641,2.77148,1.60938,2.77148,3.00684v2.58594c0,.39355-.32031,.71387-.71289,.71387H1.51953c-.36914,0-.66992-.30078-.66992-.66992v-2.62988c0-.33105,.07129-.68164,.20508-1.0127,.08789-.21777-.01758-.46582-.23535-.55371-.2168-.08496-.46484,.01855-.55371,.23535-.17578,.4375-.26562,.88574-.26562,1.33105v2.62988c0,.83789,.68164,1.51953,1.51953,1.51953H9.93652c.86133,0,1.5625-.70117,1.5625-1.56348v-2.58594c0-1.79492-1.48438-3.44629-3.44727-3.83887Z"/><circle class="cls-1" cx="1.73193" cy="16.75647" r=".44632"/><path class="cls-1" d="M27.49316,14.2002c1.90723,0,3.45801-1.55078,3.45801-3.45801s-1.55078-3.45801-3.45801-3.45801-3.45898,1.55078-3.45898,3.45801,1.55176,3.45801,3.45898,3.45801Zm0-6.06641c1.43848,0,2.6084,1.16992,2.6084,2.6084s-1.16992,2.6084-2.6084,2.6084-2.60938-1.16992-2.60938-2.6084,1.1709-2.6084,2.60938-2.6084Z"/><path class="cls-1" d="M29.79004,15.4834c-1.2959-.28223-3.09961-.28223-4.53906-.00879-2.46777,.14941-3.51172,2.81348-3.51172,3.84766v2.62988c0,.83789,.68066,1.51953,1.51855,1.51953h8.41699c.86133,0,1.5625-.70117,1.5625-1.56348v-2.58594c0-1.79492-1.48438-3.44629-3.44727-3.83887Zm2.59766,6.4248c0,.39355-.32031,.71387-.71289,.71387h-8.41699c-.36914,0-.66895-.30078-.66895-.66992v-2.62988c0-.78027,.83398-2.88574,2.76562-3.00586,.68555-.12891,1.45703-.19336,2.20508-.19336,.74512,0,1.4668,.06445,2.05664,.19238,1.58008,.31641,2.77148,1.60938,2.77148,3.00684v2.58594Z"/><path class="cls-1" d="M24.3252,5.81836c0-3.20801-3.31445-5.81836-7.38965-5.81836s-7.38965,2.61035-7.38965,5.81836c0,1.58789,.8252,3.10742,2.27148,4.20117v2.83398c0,.17188,.10352,.32715,.26172,.39258,.05273,.02148,.1084,.03223,.16309,.03223,.11035,0,.21875-.04297,.30078-.12402l1.86621-1.86621c.80957,.23145,1.6582,.34863,2.52637,.34863,4.0752,0,7.38965-2.61035,7.38965-5.81836Zm-7.38965,4.96875c-.87012,0-1.7168-.12988-2.51855-.38477-.15039-.04883-.31836-.00781-.42969,.10449l-1.31934,1.32031v-2.02344c0-.1377-.06641-.26758-.17969-.34668-1.33008-.93945-2.09277-2.26562-2.09277-3.63867,0-2.73926,2.93359-4.96875,6.54004-4.96875s6.54004,2.22949,6.54004,4.96875-2.93359,4.96875-6.54004,4.96875Z"/><path class="cls-1" d="M19.72852,3.32422l-3.22363,3.93555-2.375-2.64941c-.15723-.1748-.4248-.18945-.60059-.03223-.17383,.15625-.18848,.42578-.03223,.60059l2.70605,3.01758c.08105,.08984,.19531,.14062,.31641,.14062h.00977c.12402-.00293,.24023-.05957,.31934-.15527l3.53809-4.31836c.14844-.18164,.12207-.44922-.05957-.59863-.18066-.14746-.44922-.12207-.59863,.05957Z"/></g></g></svg>