<?xml version="1.0" encoding="UTF-8"?><svg id="Layer_2" xmlns="http://www.w3.org/2000/svg" viewBox="0 0 24.0689 26.45117"><defs><style>.cls-1{fill:#783cbe;}</style></defs><g id="Layer_1-2"><g><path class="cls-1" d="M22.14462,22.91309l-6.34668-2.85156c-.11914-.5672-.16309-1.13116-.20068-1.81152,.63428-.64648,1.1709-1.34253,1.50342-1.99512l.93408-2.77386c.6499,.84021,1.59229,.90601,1.62061,.90668,1.78516,0,3.35059-1.56543,3.35059-3.35059,0-1.70972-1.29053-3.10779-2.94531-3.31061-.20117-4.2934-3.74023-7.7265-8.07422-7.7265S4.11337,3.43311,3.9122,7.7265c-1.65576,.20276-2.94629,1.60083-2.94629,3.31061,0,1.84766,1.50293,3.35059,3.35059,3.35059h.00098c.04102,0,.81543-.00879,1.41699-.60938,.11768-.11737,.21875-.24902,.30664-.3924l.93359,2.92853c.31055,.59991,.84375,1.28906,1.47705,1.93341-.04443,.71362-.11865,1.26709-.25439,1.86346l-.42871,.31055-5.80469,2.48633c-.74805,.30859-1.3252,.90723-1.59766,1.67969-.11035,.31348-.23438,.66797-.35938,1.36328-.04199,.23145,.11133,.45215,.34277,.49316,.02539,.00488,.05078,.00684,.07617,.00684,.20117,0,.37988-.14355,.41699-.34961,.11328-.62793,.2207-.93555,.33789-1.26953,.17969-.50684,.58301-.92188,1.1123-1.14062l5.88672-2.53125,.12354-.08685c.07324-.0213,.13965-.05627,.19092-.11023l2.85449,3.80743c.00781,.01013,.01953,.01385,.02783,.02313,.01025,.01184,.01562,.02655,.02783,.03741,.00928,.0083,.02246,.00507,.03223,.01245,.0752,.05725,.16016,.09692,.25195,.09692,.08008,0,.15527-.03046,.22461-.07489,.00928-.00598,.02148-.00323,.03027-.01007,.01221-.00928,.01855-.02301,.02979-.03333,.00928-.00891,.02197-.01239,.03076-.02234l3.53369-3.92316,6.27197,2.81769c.53125,.21777,.9375,.63477,1.11621,1.14355,.06055,.17285,.16211,.5332,.2998,1.26758,.03906,.2041,.2168,.3457,.41797,.3457,.02539,0,.05176-.00195,.0791-.00684,.23047-.04395,.38184-.26562,.33887-.49707-.11914-.63086-.23145-1.09863-.33301-1.39062-.25977-.73828-.84082-1.33887-1.58398-1.64355Zm-10.42578,.93463l-2.6875-3.58435c.09521-.42462,.16357-.84106,.21191-1.29236,.07227,.05963,.14355,.13074,.21582,.18622,.54297,.41992,1.07812,.50195,1.64648,.58789l.11328,.01758c.26855,.04102,.46484,.06055,.80664,.06055,.34082,0,.53809-.01953,.81055-.06055l.10742-.01758c.56738-.08594,1.10254-.16699,1.64844-.58691,.06836-.0528,.13525-.11951,.20361-.17566,.03564,.43384,.08838,.84106,.17529,1.25464l-3.25195,3.61053ZM6.40048,11.71387c-.00195-.0069-.00781-.0116-.01025-.01831-.00977-.02686-.02588-.04913-.04053-.07306-.01465-.02338-.02734-.04755-.04541-.06732-.01807-.01923-.04004-.03241-.06104-.0481-.02295-.01672-.04395-.03473-.06934-.04663-.02197-.01025-.0459-.01392-.06934-.02039-.03076-.00842-.06006-.01721-.09229-.01862-.00586-.00024-.01123-.00348-.01709-.00348-.02051,0-.03809,.00885-.05811,.01172-.02393,.0033-.04736,.00024-.0708,.00781-.00684,.0022-.01172,.00769-.01855,.01025-.02588,.00983-.04785,.02527-.07129,.03986-.02441,.01489-.04883,.02765-.06934,.04657-.01807,.01685-.03027,.03748-.04492,.05719-.01807,.02393-.03711,.04626-.0498,.07336-.00977,.02081-.01318,.0437-.01953,.06616-.00879,.03125-.01758,.06146-.01904,.09436,0,.00616-.00342,.01129-.00342,.01752,0,1.62695-1.12695,1.69336-1.25293,1.69531-1.37988,0-2.50195-1.12207-2.50195-2.50098,0-1.37988,1.12207-2.50195,2.50195-2.50195,.23438,0,.4248-.19043,.4248-.4248v-.00098C4.74228,4.10645,7.99228,.84961,11.98642,.84961s7.24414,3.25684,7.24414,7.25977v.00098c0,.23438,.19043,.4248,.4248,.4248,1.37891,0,2.50098,1.12207,2.50098,2.50195,0,1.33203-1.16895,2.50098-2.48047,2.50098-.05566-.00293-1.38184-.09082-1.39844-2.10156,.00195-.46484,.125-1.28809,.20703-1.83301,.03027-.20312,.05566-.37695,.07324-.54688,0-1.53418-.3457-2.80859-1.02734-3.78906-1.08203-1.55762-2.95898-2.34668-5.57812-2.34668h-.00879c-5.39453,0-6.35742,3.38184-6.45117,5.39844-.01074,.23438,.1709,.43359,.40527,.44434,.2627,.00879,.43262-.17188,.44434-.40527,.09668-2.09277,1.14746-4.58789,5.60156-4.58789h.00879c2.32422,0,3.9668,.66699,4.88086,1.98145,.58008,.83594,.875,1.94727,.87793,3.25293-.01367,.1123-.03906,.27832-.06738,.47266-.09082,.60352-.21387,1.42871-.21582,1.95996,.00293,.33862,.0376,.63654,.09521,.90204l-1.20166,3.58429c-.30566,.58984-.88867,1.3252-1.55957,1.96582-.22559,.21484-.45703,.41602-.68848,.59473-.37207,.28613-.74316,.34277-1.25879,.4209l-.10938,.01758c-.22559,.0332-.3916,.05078-.67969,.05078-.28906,0-.4541-.01758-.67676-.05078l-.11523-.01758c-.51465-.07812-.88574-.13477-1.25488-.4209-.23145-.17773-.46289-.37988-.68945-.59473-.6709-.64062-1.25391-1.375-1.53125-1.89941l-1.35742-4.27637Z"/><path class="cls-1" d="M5.99716,9.63708c-.24658,0-.44629,.19958-.44629,.44635,0,.24683,.19971,.44641,.44629,.44641,.24707,0,.44629-.19958,.44629-.44641,0-.24677-.19922-.44635-.44629-.44635Z"/></g></g></svg>