<?xml version="1.0" encoding="UTF-8"?><svg id="Layer_2" xmlns="http://www.w3.org/2000/svg" viewBox="0 0 25.53374 24.96094"><defs><style>.cls-1{fill:#783cbe;}</style></defs><g id="Layer_1-2"><g><path class="cls-1" d="M23.50399,21.25098l-6.75977-3.03613c-.12939-.60986-.17529-1.2005-.21729-1.95636,.67383-.68384,1.24561-1.42328,1.59717-2.11005l.49219-1.36035c.02441-.06934,.06445-.13086,.11621-.17969,.78613-.7207,1.29395-1.99316,1.15723-2.89453-.04102-.26984-.14307-.50128-.29004-.69153,.01123-1.64203,.04492-2.25848,.0752-2.52625,0-1.625-.36523-2.97559-1.08691-4.0127-1.14453-1.64844-3.13281-2.4834-5.9082-2.4834h-.00879c-1.27734,0-1.72754,.28027-2.08984,.50488-.21289,.13281-.33008,.20605-.63867,.20703-2.65137,.00781-4.1084,1.84961-4.10254,5.18652,0,.23438,.19043,.42383,.4248,.42383h.00098c.23438,0,.4248-.19043,.42383-.42578-.00293-1.97266,.55859-4.32617,3.25586-4.33496,.55078-.00195,.83398-.17871,1.08496-.33496,.29785-.18555,.60645-.37695,1.64062-.37695h.00879c2.48047,0,4.2334,.71289,5.20996,2.11816,.62109,.89258,.93555,2.08008,.93848,3.47559-.03906,.3114-.06299,1.06714-.07422,2.20007-.06885,.02606-.13721-.00482-.20898-.11023-.21582-.30957-.3584-.6377-.43652-1.00195-.06934-.33203-.39062-.55078-.71484-.5-3.81934,.58203-6.75488-1.48145-7.56641-2.12793-.18457-.14648-.43164-.19922-.65527-.1416-.28809,.07031-.49609,.27344-.54395,.53125-.08105,.44824-.19336,.87891-.33203,1.2793-.31641,.91016-.69922,1.56445-1.29883,2.20508-.02734,.00293-.10547-.03125-.15234-.07031-.12598-.1123-.31055-.13965-.46387-.06641-.41211,.19531-.68066,.57715-.75586,1.07422-.13574,.90234,.37207,2.17383,1.15234,2.89062,.05566,.05176,.09668,.11328,.12207,.18359l.5127,1.41016c.33154,.64032,.90039,1.37408,1.57373,2.05823-.04785,.7699-.12744,1.36395-.27393,2.00623l-.46875,.33887-6.17285,2.64258c-.78809,.32715-1.39551,.95801-1.68457,1.7793-.11621,.33008-.24805,.70508-.37891,1.43652-.04199,.23145,.11133,.45215,.34277,.49316,.02539,.00488,.05078,.00684,.07617,.00684,.20117,0,.37988-.14355,.41699-.34961,.12012-.66406,.23438-.99023,.3623-1.35449,.19141-.54492,.62598-.99219,1.19531-1.22852l6.25488-2.6875,.13477-.09497c.08545-.02405,.1582-.07111,.2124-.13831l3.05713,4.078c.00732,.01007,.01953,.01373,.02783,.02295,.01025,.0119,.01562,.02673,.02783,.0376,.00928,.0083,.02246,.00507,.03223,.01245,.0752,.05725,.16016,.09692,.25195,.09692,.08008,0,.15527-.03046,.22461-.07489,.00928-.00598,.02148-.00323,.03027-.01007,.01221-.00928,.01855-.02301,.02979-.03333,.00928-.00891,.02197-.01239,.03076-.02234l3.76855-4.18518,6.68555,3.00256c.57129,.23438,1.00977,.68359,1.20215,1.23047,.06445,.18555,.17285,.57129,.31934,1.35156,.03906,.2041,.2168,.34668,.41797,.34668,.02539,0,.05176-.00195,.07812-.00684,.23145-.04395,.38281-.26562,.33984-.49609-.12598-.66895-.24414-1.16504-.35254-1.47559-.27344-.77734-.88672-1.41016-1.66992-1.73145Zm-11.07422,1.01172l-2.88428-3.84778c.10596-.46979,.18115-.92871,.2334-1.43231,.08936,.07471,.17773,.16132,.26709,.23029,.57227,.44238,1.1377,.52832,1.7334,.61914l.125,.01855c.2832,.04297,.49219,.06445,.85352,.06445,.36035,0,.56934-.02148,.85156-.06445l.12012-.01855c.59961-.09082,1.16504-.17578,1.73926-.61914,.08643-.06665,.16992-.14941,.25586-.22076,.03809,.48669,.0957,.93823,.19238,1.39746l-3.4873,3.87311ZM7.69833,12.49902c-.07227-.19629-.18555-.36914-.3418-.5166-.56836-.52148-.98438-1.52148-.89062-2.14062,.02148-.14453,.06641-.24023,.11719-.30664,.31738,.13965,.72559,.15625,1.05176-.19434,.66895-.71582,1.10645-1.46094,1.46387-2.48926,.13086-.37598,.23926-.77441,.32324-1.18652,1.00977,.77441,4.01953,2.74414,7.90137,2.23438,.1084,.40234,.28027,.77051,.52441,1.12012,.30566,.43848,.72852,.52344,1.04102,.46875,.06836,.06445,.13281,.16992,.16016,.35254,.09375,.61914-.32227,1.62012-.89355,2.14453-.1543,.14453-.26855,.31738-.33887,.51465l-.46875,1.30859c-.3291,.63379-.9502,1.41699-1.66309,2.09668-.24023,.22852-.48828,.44434-.73535,.63477-.39941,.30859-.81738,.37207-1.35254,.45312l-.1123,.01758c-.24121,.03516-.41895,.05469-.72656,.05469-.30859,0-.48633-.01953-.72754-.05469l-.12012-.01855c-.52832-.08105-.94629-.14453-1.34473-.45117-.24707-.19141-.49414-.40723-.73535-.63574-.71387-.68066-1.33496-1.46387-1.64062-2.0459l-.49121-1.36035Z"/><path class="cls-1" d="M5.99228,7.81055c.0332,.02722,.06543,.04651,.10449,.06305,.02344,.01013,.04736,.01483,.07227,.02063,.0332,.00775,.0625,.02765,.09668,.02765,.06152,0,.12402-.01367,.18359-.04102,.10645-.04883,.1875-.13672,.22754-.24707,.04004-.10938,.03516-.22852-.01465-.33496-.04883-.10645-.13672-.1875-.24707-.22754-.10938-.04199-.22852-.03613-.33496,.01367-.21973,.10254-.31543,.36426-.21387,.58301,.0166,.03552,.04932,.05426,.07324,.08295,.01709,.02087,.03223,.04272,.05273,.05963Z"/></g></g></svg>