<svg width="84" height="100" xmlns="http://www.w3.org/2000/svg" xmlns:xlink="http://www.w3.org/1999/xlink" xml:space="preserve" overflow="hidden"><defs><clipPath id="clip0"><rect x="562" y="264" width="84" height="100"/></clipPath></defs><g clip-path="url(#clip0)" transform="translate(-562 -264)"><path d="M35.7058 42.1177C24.0754 42.1177 14.647 32.6892 14.647 21.0588 14.647 9.42834 24.0754 5.94975e-07 35.7058 5.94975e-07 47.3364 5.94975e-07 56.7645 9.42834 56.7645 21.0588 56.7512 32.6837 47.3308 42.1044 35.7058 42.1177ZM35.7058 3.41176C25.9596 3.41176 18.0588 11.3126 18.0588 21.0588 18.0588 30.805 25.9596 38.7058 35.7058 38.7058 45.4519 38.7058 53.3527 30.805 53.3527 21.0588 53.3411 11.3175 45.4471 3.42364 35.7058 3.41176Z" fill="#010101" transform="matrix(1 0 0 1.04167 562 264.513)"/><path d="M62.388 95.0154 8.68628 95.0154C3.89135 95.0098 0.00570889 91.1242-3.76838e-08 86.3295L0 71.3233C0.113165 66.2644 1.70849 61.3496 4.58824 57.1881 5.11345 56.4063 6.17302 56.1982 6.95492 56.7235 7.73677 57.2487 7.94482 58.3085 7.41961 59.0903 4.93491 62.6976 3.54336 66.945 3.41176 71.3237L3.41176 86.3295C3.41475 89.2413 5.77451 91.6009 8.68628 91.6037L62.388 91.6037C64.5055 91.6037 67.039 90.1528 67.7919 86.0841 67.9642 85.1573 68.8553 84.5453 69.7821 84.7176 70.7089 84.8899 71.3209 85.781 71.1486 86.7078 70.7242 91.2816 66.9779 94.8339 62.388 95.0154Z" fill="#010101" transform="matrix(1 0 0 1.04167 562 264.513)"/><path d="M12.1605 52.9387C12.1605 53.8665 11.4084 54.6186 10.4806 54.6186 9.55277 54.6186 8.80064 53.8665 8.80064 52.9387 8.80064 52.0109 9.55277 51.2588 10.4806 51.2588 11.4084 51.2588 12.1605 52.0109 12.1605 52.9387Z" fill="#010101" transform="matrix(1 0 0 1.04167 562 264.513)"/><path d="M63.757 58.1117C63.2136 58.1121 62.7024 57.8535 62.3804 57.4158 62.1844 57.1471 61.9884 56.9054 61.8041 56.6962 61.5038 56.352 61.1857 56.0244 60.8512 55.7135L60.1256 55.0096C57.0829 52.0774 53.274 50.0635 49.1371 49.2001 40.0208 47.5448 30.6806 47.5461 21.5647 49.2041 19.8191 49.4884 18.1192 50.0041 16.5098 50.7373 15.6521 51.1297 14.639 50.7522 14.247 49.8944 13.855 49.0367 14.2325 48.0235 15.0902 47.6316 16.9645 46.7779 18.9439 46.1763 20.9764 45.843 30.5162 44.0853 40.2974 44.0906 49.8354 45.8587 54.5892 46.8481 58.9671 49.1592 62.4667 52.5255L63.0586 53.1038C63.5232 53.5298 63.9642 53.9808 64.3802 54.4546 64.6155 54.7289 64.8741 55.0449 65.1331 55.3959 65.6917 56.1533 65.5303 57.2202 64.7729 57.7788 64.4786 57.9961 64.1224 58.1125 63.7566 58.1113Z" fill="#010101" transform="matrix(1 0 0 1.04167 562 264.513)"/><path d="M68.1646 74.0548C64.4424 74.0536 61.4263 71.0358 61.4275 67.3136 61.4283 63.5915 64.4464 60.5753 68.1686 60.5765 71.8895 60.5773 74.9057 63.5943 74.9057 67.3157 74.9017 71.0366 71.8855 74.0516 68.1646 74.0548ZM68.1646 63.9883C66.327 63.9891 64.838 65.4797 64.8392 67.3177 64.84 69.1552 66.3306 70.6442 68.1686 70.6431 70.0054 70.6418 71.494 69.1524 71.494 67.3157 71.492 65.4781 70.0021 63.9891 68.1646 63.9883Z" fill="#010101" transform="matrix(1 0 0 1.04167 562 264.513)"/><path d="M76.2742 84.0743C75.3358 84.0747 74.5736 83.3169 74.5684 82.3785L74.5487 78.9921C74.5411 78.0524 75.2968 77.2842 76.2365 77.2766 76.2389 77.2766 76.2409 77.2766 76.2429 77.2766 77.14 77.2251 77.9086 77.911 77.9596 78.8081 77.9628 78.8627 77.9632 78.9178 77.9608 78.9724L77.9801 82.3588C77.9881 83.2985 77.2324 84.0667 76.2927 84.0743 76.2903 84.0743 76.2883 84.0743 76.2863 84.0743Z" fill="#010101" transform="matrix(1 0 0 1.04167 562 264.513)"/><path d="M76.2666 84.151C75.3245 84.151 74.5607 83.3872 74.5607 82.4451 74.5607 82.4451 74.5607 82.4451 74.5607 82.4451L74.5607 78.8607C74.5286 78.0708 74.2716 77.3071 73.8194 76.6585 73.6094 76.3714 73.3701 76.1068 73.1059 75.8687 72.569 75.3823 71.9124 75.0474 71.2036 74.8981 69.1837 74.5298 67.1137 74.5302 65.0942 74.9001 64.7549 74.9483 64.4256 75.0495 64.1176 75.2 63.463 75.5723 62.896 76.0815 62.4547 76.6919 62.0194 77.3304 61.7732 78.0789 61.7451 78.8507L61.7451 82.4351C61.7403 83.3772 60.9729 84.1373 60.0308 84.1329 59.0952 84.1281 58.3378 83.3707 58.3334 82.4351L58.3334 78.8507C58.3619 77.3858 58.8189 75.9614 59.6469 74.7527 60.4613 73.6046 61.5471 72.6758 62.8077 72.0489 63.347 71.8032 63.9168 71.6313 64.5019 71.5373 66.9442 71.0968 69.446 71.102 71.8863 71.553 73.1802 71.818 74.38 72.4244 75.3607 73.3099 75.8518 73.7423 76.2891 74.2331 76.6625 74.7704 77.4886 75.9771 77.9436 77.3986 77.9725 78.8607L77.9725 82.4451C77.9725 83.3872 77.2087 84.151 76.2666 84.151 76.2666 84.151 76.2666 84.151 76.2666 84.151Z" fill="#010101" transform="matrix(1 0 0 1.04167 562 264.513)"/><path d="M68.008 86.8431C59.1763 86.8427 52.0171 79.6823 52.0175 70.8507 52.0183 62.0194 59.1783 54.8602 68.01 54.8606 76.8409 54.8614 83.9996 62.0202 84 70.8507 83.9904 79.6791 76.836 86.8335 68.008 86.8431ZM68.008 58.2723C61.0604 58.2731 55.4288 63.9055 55.4292 70.8531 55.43 77.8002 61.0624 83.4318 68.0096 83.4314 74.9571 83.431 80.5887 77.7986 80.5883 70.8511 80.5798 63.9067 74.9519 58.28 68.008 58.2723Z" fill="#010101" transform="matrix(1 0 0 1.04167 562 264.513)"/></g></svg>