<?xml version="1.0" encoding="UTF-8"?><svg id="Layer_2" xmlns="http://www.w3.org/2000/svg" viewBox="0 0 23.35742 25.21777"><defs><style>.cls-1{fill:#783cbe;}</style></defs><g id="Layer_1-2"><g><path class="cls-1" d="M9.46875,11.14551c3.07324,0,5.57324-2.5,5.57324-5.57227,0-3.07324-2.5-5.57324-5.57324-5.57324S3.89551,2.5,3.89551,5.57324c0,3.07227,2.5,5.57227,5.57324,5.57227ZM9.46875,.84961c2.60449,0,4.72363,2.11914,4.72363,4.72363,0,2.60352-2.11914,4.72266-4.72363,4.72266s-4.72363-2.11914-4.72363-4.72266C4.74512,2.96875,6.86426,.84961,9.46875,.84961Z"/><path class="cls-1" d="M18.49805,22.43652c-.23438,0-.4248,.19043-.4248,.4248,0,.83105-.67578,1.50684-1.50684,1.50684H2.28125c-.78906,0-1.43164-.64258-1.43164-1.43262v-3.99121c0-1.06348,.39062-2.25586,1.07129-3.27148,.12988-.19434,.07812-.45898-.11719-.58984-.19336-.12695-.45898-.08008-.58984,.11719-.7832,1.16797-1.21387,2.49805-1.21387,3.74414v3.99121c0,1.25879,1.02344,2.28223,2.28125,2.28223h14.28516c1.2998,0,2.35645-1.05664,2.35645-2.35645,0-.23438-.19043-.4248-.4248-.4248Z"/><path class="cls-1" d="M13.30566,12.25098c-2.1709-.4707-5.18359-.47168-7.66699-.00488-.49023,.08008-.97168,.2207-1.43164,.41797-.21582,.09277-.31543,.34277-.22266,.55859,.06934,.16113,.22656,.25684,.39062,.25684,.05664,0,.11328-.01074,.16797-.03418,.39551-.1709,.81055-.29102,1.24219-.36133,2.35449-.44336,5.30469-.44336,7.34766-.00098,.24609,.04883,.48633,.11426,.71875,.19434,.21777,.0752,.46387-.04199,.54004-.26465,.07617-.22168-.04199-.46289-.26465-.54004-.26758-.0918-.54492-.16699-.82129-.22168Z"/><path class="cls-1" d="M19.24609,11.13281c-1.86719,0-3.84473,.46368-4.06738,1.46112-.02637,.05524-.04395,.1153-.04395,.18048v7.29785c0,1.12793,2.13086,1.6416,4.11133,1.6416s4.11133-.51367,4.11133-1.6416v-7.29785c0-.06519-.01709-.12531-.04346-.18054-.22314-.99744-2.20068-1.46106-4.06787-1.46106Zm3.26172,6.50488c-.04492,.2373-1.20898,.79395-3.26172,.79395s-3.2168-.55664-3.26172-.79199v-1.38721c.80273,.40295,2.05664,.59619,3.26172,.59619s2.45898-.19324,3.26172-.59613v1.38519Zm0-2.43262c-.04492,.2373-1.20898,.79395-3.26172,.79395s-3.2168-.55664-3.26172-.79199v-1.38721c.80273,.40295,2.05664,.59619,3.26172,.59619s2.45898-.19324,3.26172-.59613v1.38519Zm-3.26172-3.22266c2.04688,0,3.20996,.55371,3.26172,.79199-.05176,.23828-1.21484,.79199-3.26172,.79199-2.05273,0-3.2168-.55664-3.26172-.79004,.04492-.2373,1.20898-.79395,3.26172-.79395Zm0,8.88184c-2.05273,0-3.2168-.55664-3.26172-.79199v-1.38721c.80273,.40295,2.05664,.59619,3.26172,.59619s2.45898-.19324,3.26172-.59613v1.38519c-.04492,.2373-1.20898,.79395-3.26172,.79395Z"/><path class="cls-1" d="M2.72461,14.49359c.24316,.01862,.45557-.16345,.47412-.40668,.01855-.24316-.16357-.45538-.40674-.474s-.45557,.16345-.47412,.40668c-.01855,.24316,.16357,.45538,.40674,.474Z"/></g></g></svg>