<?xml version="1.0" encoding="UTF-8"?><svg id="Layer_2" xmlns="http://www.w3.org/2000/svg" viewBox="0 0 25.13867 25.13965"><defs><style>.cls-1{fill:#783cbe;}</style></defs><g id="Layer_1-2"><g><path class="cls-1" d="M23.22266,6.71875c-.20996,.10547-.29395,.36133-.1875,.57031,.83203,1.64648,1.25391,3.42285,1.25391,5.28027,0,6.46289-5.25781,11.7207-11.71973,11.7207S.84961,19.03223,.84961,12.56934C.84961,6.10742,6.10742,.84961,12.56934,.84961c3.25098,0,6.27246,1.2998,8.50977,3.66016,.16211,.17188,.42969,.17773,.60059,.0166s.17773-.43066,.0166-.60059C19.29688,1.39355,16.05566,0,12.56934,0,5.63867,0,0,5.63867,0,12.56934c0,6.93164,5.63867,12.57031,12.56934,12.57031s12.56934-5.63867,12.56934-12.57031c0-1.99219-.45215-3.89746-1.3457-5.66309-.10547-.20996-.36035-.29297-.57031-.1875Z"/><path class="cls-1" d="M10.43555,7.98438c0-.23438-.19043-.4248-.4248-.4248s-.4248,.19043-.4248,.4248c0,.93262-.75977,1.69141-1.69238,1.69141s-1.69141-.75879-1.69141-1.69141c0-.23438-.19043-.4248-.4248-.4248s-.4248,.19043-.4248,.4248c0,1.40137,1.13965,2.54102,2.54102,2.54102s2.54199-1.13965,2.54199-2.54102Z"/><path class="cls-1" d="M19.83887,7.98438c0-.23438-.19043-.4248-.4248-.4248s-.4248,.19043-.4248,.4248c0,.93262-.75977,1.69141-1.69238,1.69141s-1.69141-.75879-1.69141-1.69141c0-.23438-.19043-.4248-.4248-.4248s-.4248,.19043-.4248,.4248c0,1.40137,1.13965,2.54102,2.54102,2.54102s2.54199-1.13965,2.54199-2.54102Z"/><path class="cls-1" d="M22.67871,6.00513c.22266-.10345,.31934-.36713,.21582-.5896s-.36719-.31927-.58936-.21582c-.22266,.10345-.31934,.36713-.21582,.5896s.36719,.31927,.58936,.21582Z"/><path class="cls-1" d="M6.53906,20.1416c.2334,.05273,.45801-.08398,.51367-.3125,.61914-2.54688,2.8877-4.32617,5.5166-4.32617s4.89746,1.7793,5.5166,4.32617c.04785,.19434,.22168,.32422,.41309,.32422,.0332,0,.06641-.00391,.10059-.01172,.22754-.05566,.36816-.28516,.3125-.51367-.71191-2.92871-3.32031-4.97461-6.34277-4.97461s-5.63086,2.0459-6.34277,4.97461c-.05566,.22852,.08496,.45801,.3125,.51367Z"/></g></g></svg>