<svg width="84" height="101" xmlns="http://www.w3.org/2000/svg" xmlns:xlink="http://www.w3.org/1999/xlink" xml:space="preserve" overflow="hidden"><defs><clipPath id="clip0"><rect x="66" y="269" width="84" height="101"/></clipPath></defs><g clip-path="url(#clip0)" transform="translate(-66 -269)"><path d="M37.2551 43.95C25.1187 43.95 15.2801 34.1114 15.2802 21.9749 15.2802 9.83848 25.1187-2.25789e-05 37.2552 5.63992e-07 49.3916 2.37068e-05 59.2302 9.83856 59.2302 21.975 59.2164 34.1057 49.3858 43.9362 37.2551 43.95ZM37.2551 3.56019C27.0849 3.56022 18.8403 11.8048 18.8404 21.975 18.8404 32.1452 27.085 40.3898 37.2552 40.3897 47.4255 40.3897 55.6701 32.1451 55.6701 21.975 55.6575 11.8099 47.42 3.57257 37.2551 3.56019Z" fill="#010101" transform="matrix(1 0 0 1.00198 66 269.827)"/><path d="M65.0984 99.1491 9.06418 99.1491C4.06064 99.1432 0.00595726 95.0886-3.93232e-08 90.0853L0 74.4262C0.117285 69.1476 1.78054 64.019 4.78374 59.6761 5.3318 58.8602 6.43748 58.6432 7.25339 59.1913 8.06925 59.7394 8.28636 60.8452 7.7383 61.6611 5.14554 65.4249 3.69473 69.8579 3.56019 74.4266L3.56019 90.0853C3.56331 93.1237 6.02573 95.586 9.06418 95.5889L65.0984 95.5889C67.308 95.5889 69.9517 94.0749 70.7412 89.8292 70.921 88.8621 71.8508 88.2235 72.818 88.4033 73.7855 88.583 74.4237 89.5129 74.2444 90.48 73.7981 95.2529 69.8885 98.9588 65.0984 99.1491Z" fill="#010101" transform="matrix(1 0 0 1.00198 66 269.827)"/><path d="M12.6863 55.2418C12.6863 56.21 11.9015 56.9948 10.9333 56.9948 9.96518 56.9948 9.18033 56.21 9.18033 55.2418 9.18033 54.2737 9.96518 53.4888 10.9333 53.4888 11.9015 53.4888 12.6863 54.2737 12.6863 55.2418Z" fill="#010101" transform="matrix(1 0 0 1.00198 66 269.827)"/><path d="M66.5265 60.6399C65.9596 60.6403 65.4261 60.3704 65.0901 59.9137 64.8856 59.6333 64.6848 59.3811 64.4925 59.1628 64.1707 58.7969 63.8308 58.4483 63.4738 58.1168L62.7372 57.4028C59.5625 54.3421 55.5879 52.2407 51.2706 51.3406 41.7578 49.6133 32.0113 49.615 22.4988 51.3448 20.6772 51.6414 18.9033 52.1795 17.2239 52.9446 16.3284 53.3528 15.2718 52.9572 14.864 52.0617 14.457 51.1679 14.85 50.1132 15.7426 49.7038 17.6985 48.8125 19.7639 48.1852 21.8849 47.8374 31.8397 46.0033 42.0463 46.0087 51.9993 47.8538 56.9599 48.8863 61.5286 51.2978 65.1802 54.8106L65.7982 55.414C66.2822 55.8578 66.7423 56.3271 67.1769 56.8195 67.4266 57.1099 67.6923 57.4397 67.963 57.8059 68.5454 58.5962 68.3774 59.7096 67.5867 60.2925 67.2795 60.5188 66.9078 60.6407 66.5265 60.6395Z" fill="#010101" transform="matrix(1 0 0 1.00198 66 269.827)"/><path d="M78.9217 90.2835 63.0154 90.2835C60.2137 90.2801 57.9434 88.0089 57.9408 85.2072L57.9413 72.1898C57.9434 69.3881 60.2133 67.1169 63.0154 67.1136L78.9217 67.1136C81.7242 67.1165 83.9958 69.3873 84 72.1898L84 85.2072C83.9958 88.0098 81.7242 90.2805 78.9217 90.2835ZM63.0154 70.6737C62.1794 70.6758 61.5023 71.3538 61.5014 72.1898L61.5014 85.2072C61.5023 86.0436 62.1794 86.7216 63.0154 86.7233L78.9217 86.7233C79.7589 86.7216 80.4373 86.0441 80.4398 85.2072L80.4398 72.1898C80.4373 71.353 79.7589 70.6754 78.9217 70.6737Z" fill="#010101" transform="matrix(1 0 0 1.00198 66 269.827)"/><path d="M78.6761 70.6737C77.6931 70.6737 76.896 69.8767 76.896 68.8937 76.896 68.8937 76.896 68.8937 76.896 68.8937L76.896 66.2357C76.8872 62.9634 74.2272 60.3176 70.9549 60.326 67.6944 60.3348 65.0536 62.9756 65.0452 66.2357L65.0452 68.8937C65.0402 69.8767 64.2394 70.67 63.2563 70.6654 62.28 70.6603 61.4897 69.87 61.4846 68.8937L61.4846 66.2357C61.496 60.9969 65.7517 56.7592 70.9905 56.7701 76.2138 56.7809 80.4453 61.0128 80.4562 66.2357L80.4562 68.8937C80.4562 69.8767 79.6592 70.6737 78.6761 70.6737 78.6761 70.6737 78.6761 70.6737 78.6761 70.6737Z" fill="#010101" transform="matrix(1 0 0 1.00198 66 269.827)"/></g></svg>