<?xml version="1.0" encoding="UTF-8"?><svg id="Layer_2" xmlns="http://www.w3.org/2000/svg" viewBox="0 0 25.12402 25.125"><defs><style>.cls-1{fill:#783cbe;}</style></defs><g id="Layer_1-2"><g><path class="cls-1" d="M9.0332,19.34222c.06152,.0022,.11914,.00439,.1792,.00439,1.31494,0,2.28662-.67371,3.22607-1.32745,.89941-.62482,1.73438-1.20624,2.86523-1.18958,1.2373,.02893,2.50244,.81604,3.76465,2.34137,.16748,.20123,.46338,.23126,.66455,.06232,.20264-.16571,.22998-.46362,.06348-.66376-1.44287-1.74774-2.94824-2.65045-4.47266-2.68384-.02881-.0011-.06006-.0011-.08984-.0011-1.37549,0-2.37061,.69043-3.3335,1.35748-.89355,.62036-1.71533,1.20959-2.82373,1.15515-1.17822-.05341-2.36133-.83722-3.51758-2.32916-.16016-.20459-.45459-.24353-.66357-.08344-.20605,.159-.24365,.45697-.0835,.66266,1.33301,1.72101,2.75488,2.62823,4.22119,2.69495Z"/><path class="cls-1" d="M23.20898,6.71387c-.20996,.10547-.29395,.36133-.1875,.57031,.83105,1.64648,1.25293,3.42188,1.25293,5.27734,0,6.45898-5.25488,11.71387-11.71289,11.71387S.84961,19.02051,.84961,12.56152C.84961,6.10352,6.10352,.84961,12.56152,.84961c3.24902,0,6.26953,1.2998,8.50488,3.6582,.16211,.17188,.43066,.17773,.60059,.0166,.1709-.16113,.17773-.43066,.0166-.60059C19.28516,1.39355,16.0459,0,12.56152,0,5.63477,0,0,5.63477,0,12.56152c0,6.92773,5.63477,12.56348,12.56152,12.56348s12.5625-5.63574,12.5625-12.56348c0-1.98926-.45215-3.89355-1.34473-5.66016-.10449-.20898-.3584-.29297-.57031-.1875Z"/><path class="cls-1" d="M22.66553,6.00146c.22217-.10339,.31885-.36688,.21533-.58923-.10303-.22235-.3667-.31903-.58887-.21564-.22266,.10339-.31934,.36688-.21582,.58923s.36719,.31903,.58936,.21564Z"/><path class="cls-1" d="M20.90918,10.30957c0-.23438-.19043-.4248-.4248-.4248h-2.32812v-2.32324c0-.23438-.19043-.4248-.4248-.4248s-.4248,.19043-.4248,.4248v2.32324h-2.3291c-.23438,0-.4248,.19043-.4248,.4248s.19043,.4248,.4248,.4248h2.3291v2.33301c0,.23438,.19043,.4248,.4248,.4248s.4248-.19043,.4248-.4248v-2.33301h2.32812c.23438,0,.4248-.19043,.4248-.4248Z"/><path class="cls-1" d="M7.54492,7.13086c-.23438,0-.4248,.19043-.4248,.4248v2.3291h-2.3291c-.23438,0-.4248,.19043-.4248,.4248s.19043,.4248,.4248,.4248h2.3291v2.32812c0,.23438,.19043,.4248,.4248,.4248s.4248-.19043,.4248-.4248v-2.32812h2.32812c.23438,0,.4248-.19043,.4248-.4248s-.19043-.4248-.4248-.4248h-2.32812v-2.3291c0-.23438-.19043-.4248-.4248-.4248Z"/></g></g></svg>