<svg width="106" height="101" xmlns="http://www.w3.org/2000/svg" xmlns:xlink="http://www.w3.org/1999/xlink" xml:space="preserve" overflow="hidden"><g transform="translate(-901 -416)"><path d="M30.155 36.0756 28.0737 36.0756C25.7301 36.0756 23.8303 34.1758 23.8303 31.8322 23.8303 29.4887 25.7301 27.5888 28.0737 27.5888L30.155 27.5888C32.4985 27.5888 34.3983 29.4887 34.3983 31.8322 34.3983 34.1758 32.4985 36.0756 30.155 36.0756ZM28.0737 31.0182C27.6242 31.0182 27.2597 31.3827 27.2597 31.8322 27.2597 32.2817 27.6242 32.6462 28.0737 32.6462L30.155 32.6462C30.6045 32.6462 30.9689 32.2817 30.9689 31.8322 30.9689 31.3827 30.6045 31.0182 30.155 31.0182Z" transform="matrix(1.00914 0 0 1 901 416.964)"/><path d="M42.611 36.0756 40.5318 36.0756C38.1883 36.0617 36.2998 34.1507 36.3137 31.8071 36.3274 29.484 38.2067 27.6038 40.5298 27.589L42.611 27.589C44.9545 27.589 46.8545 29.4888 46.8545 31.8324 46.8545 34.1759 44.9545 36.0757 42.611 36.0757ZM40.5298 31.0182C40.0802 31.0187 39.7162 31.3836 39.7168 31.8332 39.7173 32.2827 40.0822 32.6467 40.5318 32.6462L42.611 32.6462C43.0606 32.6462 43.4251 32.2817 43.4251 31.8322 43.4251 31.3827 43.0606 31.0182 42.611 31.0182Z" transform="matrix(1.00914 0 0 1 901 416.964)"/><path d="M38.003 32.8788 32.6817 32.8788C31.7347 32.8742 30.9707 32.1028 30.9753 31.1557 30.9799 30.2153 31.7411 29.4539 32.6817 29.4494L38.003 29.4494C38.95 29.454 39.7139 30.2254 39.7093 31.1724 39.7048 32.1129 38.9435 32.8742 38.003 32.8788Z" transform="matrix(1.00914 0 0 1 901 416.964)"/><path d="M24.7901 32.6482C24.6287 32.6474 24.4682 32.6242 24.3132 32.5792L20.6769 31.5267C19.7634 31.2752 19.2269 30.3308 19.4784 29.4173 19.73 28.5039 20.6744 27.9674 21.5878 28.2189 21.6022 28.2229 21.6165 28.227 21.6308 28.2314L25.2671 29.2838C26.1774 29.5478 26.7014 30.4997 26.4374 31.41 26.2248 32.1431 25.5535 32.6478 24.7901 32.6482Z" transform="matrix(1.00914 0 0 1 901 416.964)"/><path d="M45.8946 32.6482C44.9468 32.6473 44.1791 31.8783 44.1803 30.9305 44.1807 30.1752 44.6752 29.5091 45.3981 29.2899L48.9538 28.2138C49.8608 27.9411 50.8174 28.4555 51.0903 29.3626 51.3619 30.2676 50.8509 31.2221 49.9472 31.4973L46.3915 32.5734C46.2304 32.6231 46.0629 32.6483 45.8946 32.6482Z" transform="matrix(1.00914 0 0 1 901 416.964)"/><path d="M46.4859 55.1501C46.1453 55.1501 45.8127 55.0484 45.5301 54.8583 44.4738 54.1471 43.7811 53.0096 43.6342 51.7442L43.5176 50.7472C43.1971 48.1272 43.943 45.4881 45.5874 43.4231 47.2973 41.3419 48.2277 38.7297 48.2184 36.0362 48.1175 32.6526 47.753 29.282 47.1285 25.955 46.9719 25.021 47.602 24.1368 48.5356 23.9801 49.4697 23.8234 50.3541 24.4534 50.5107 25.3873 51.1799 28.9311 51.5597 32.5234 51.6457 36.1288 51.6401 39.5795 50.4396 42.9218 48.2478 45.5874 47.1871 46.9332 46.7112 48.6487 46.9275 50.3488L47.0438 51.3482C47.0732 51.6183 47.2206 51.8613 47.4458 52.0122 48.2317 52.541 48.4404 53.6066 47.9116 54.3925 47.5923 54.8668 47.0579 55.1509 46.4859 55.1501Z" transform="matrix(1.00914 0 0 1 901 416.964)"/><path d="M57.9054 36.1091C57.2697 36.1095 56.6856 35.7583 56.3877 35.1966 54.6589 31.4932 53.6712 27.4872 53.4807 23.4046L53.3015 21.7983C53.0589 18.7766 52.3602 15.809 51.23 12.9962 48.1724 7.03784 41.9995 3.32988 35.303 3.42939 34.356 3.4248 33.592 2.65338 33.5966 1.70638 33.6012 0.765868 34.3625 0.00456383 35.303 6.11123e-07 43.3638-0.146612 50.7864 4.36899 54.3618 11.5949 55.6406 14.725 56.4325 18.0324 56.711 21.4022L56.8923 23.034C57.0444 26.6824 57.9026 30.2666 59.4191 33.5883 59.8627 34.4265 59.543 35.4658 58.705 35.9095 58.4584 36.0399 58.1843 36.1084 57.9054 36.1091Z" transform="matrix(1.00914 0 0 1 901 416.964)"/><path d="M16.8079 48.0686C11.3977 48.0585 6.36452 45.2956 3.45115 40.7369 2.97435 39.9183 3.25134 38.8683 4.06981 38.3915 4.27196 38.2737 4.49606 38.1986 4.72831 38.1707 7.54259 37.9009 10.0015 36.1558 11.1849 33.5883 12.7001 30.2695 13.5587 26.689 13.7136 23.044L13.8949 21.4022C14.1716 18.0332 14.9626 14.7265 16.2403 11.5969 19.8167 4.36968 27.2406-0.146723 35.303 6.46705e-09 36.25-0.00459467 37.0214 0.759378 37.026 1.70638 37.0306 2.65338 36.2666 3.4248 35.3196 3.42939 35.3141 3.42942 35.3085 3.42942 35.303 3.42939 28.605 3.32971 22.4305 7.0384 19.3721 12.9982 18.2422 15.8102 17.5451 18.7773 17.3046 21.7983L17.1233 23.4164C16.9317 27.4951 15.9442 31.497 14.2163 35.1966 12.9269 37.8257 10.6886 39.8681 7.95273 40.912 10.9267 43.9386 15.2298 45.2552 19.3879 44.4104 20.3219 44.2506 21.2087 44.8778 21.3687 45.8119 21.5287 46.7459 20.9014 47.6327 19.9674 47.7925 18.924 47.9742 17.867 48.0666 16.8079 48.0686Z" transform="matrix(1.00914 0 0 1 901 416.964)"/><path d="M35.303 63.5007C34.9328 63.5015 34.5725 63.3816 34.2761 63.16L23.0892 54.8111C22.3359 54.2363 22.1912 53.1594 22.766 52.4062 23.3326 51.6635 24.389 51.5105 25.1429 52.0619L35.303 59.6459 41.6216 54.9277C42.3805 54.3606 43.455 54.5156 44.0221 55.2745 44.5892 56.0333 44.4342 57.1078 43.6754 57.6749L36.3298 63.16C36.0335 63.3816 35.6732 63.5015 35.303 63.5007Z" transform="matrix(1.00914 0 0 1 901 416.964)"/><path d="M47.7828 87.9461 7.27857 87.9461C3.26022 87.9425 0.0036053 84.6859 1.35808e-07 80.6676L0 67.8152C0.00459471 66.8683 0.776016 66.1042 1.72301 66.1086 2.66352 66.1135 3.42483 66.8748 3.42939 67.8152L3.42939 80.6676C3.43161 82.7924 5.15363 84.5144 7.27857 84.5168L47.7828 84.5168C49.9076 84.5144 51.6296 82.7924 51.632 80.6676L51.632 54.135C51.6372 48.8242 55.9413 44.5202 61.252 44.515L89.8872 44.515C90.8342 44.5105 91.6056 45.2746 91.6104 46.2216 91.6148 47.1685 90.8507 47.9399 89.9038 47.9443 89.8981 47.9443 89.8929 47.9443 89.8872 47.9443L61.252 47.9443C57.8348 47.9483 55.0654 50.7177 55.0613 54.135L55.0613 80.6676C55.0577 84.6859 51.8011 87.9425 47.7828 87.9461Z" transform="matrix(1.00914 0 0 1 901 416.964)"/><path d="M7.75556 60.4754C6.80837 60.4778 6.0385 59.7121 6.03604 58.7648 6.03422 58.0523 6.4731 57.413 7.13863 57.1583 8.01966 56.8216 21.343 52.6233 22.8587 52.1466 23.3829 51.8604 23.5307 51.6203 23.5603 51.3502L23.6766 50.3492C23.8676 48.5728 23.3404 46.7935 22.2122 45.4082 20.1212 42.7906 18.9759 39.5438 18.9621 36.1939 19.0996 31.9206 19.59 27.666 20.4284 23.4736 21.1665 19.3845 23.8895 15.9301 27.6931 14.2576 31.0461 12.7644 34.9827 13.6768 37.337 16.4926 37.944 17.2415 38.4466 17.9806 38.9472 18.7217 39.5373 19.6522 40.2059 20.5305 40.9455 21.3469 42.9315 23.3495 45.757 24.2781 48.5437 23.8441 49.4761 23.6989 50.3536 24.326 50.5183 25.2553 50.6741 26.189 50.0432 27.0721 49.1096 27.2278 49.1088 27.2279 49.108 27.2281 49.1072 27.2282 45.2088 27.8527 41.2495 26.5512 38.4821 23.7357 37.5998 22.7778 36.805 21.7429 36.1071 20.6434 35.6597 19.985 35.2163 19.3248 34.7157 18.7079 33.3433 17.0548 31.0375 16.5189 29.0768 17.3973 26.3161 18.6107 24.3394 21.1171 23.8028 24.0846 22.9945 28.0426 22.5218 32.0617 22.3897 36.0992 22.3882 38.7081 23.2736 41.2398 24.9007 43.2794 26.5978 45.3763 27.3849 48.0658 27.0865 50.7472L26.9702 51.7462C26.766 53.4887 25.5386 54.9398 23.854 55.4299 17.9984 57.2749 9.00124 60.1226 8.35864 60.3652 8.16594 60.4379 7.96161 60.4754 7.75556 60.4754Z" transform="matrix(1.00914 0 0 1 901 416.964)"/><path d="M88.8765 91.4958C83.5731 91.4958 79.2739 87.1966 79.2739 81.8935 79.2739 76.59 83.5731 72.2912 88.8765 72.2912 94.1796 72.2912 98.4788 76.59 98.4788 81.8935 98.4735 87.1945 94.1776 91.4905 88.8765 91.4958ZM88.8765 75.7206C85.467 75.7206 82.7036 78.4843 82.7036 81.8935 82.7036 85.3027 85.467 88.0664 88.8765 88.0664 92.2857 88.0664 95.0494 85.3027 95.0494 81.8935 95.0454 78.486 92.2841 75.7242 88.8765 75.7206Z" transform="matrix(1.00914 0 0 1 901 416.964)"/><path d="M81.3082 99.0717C80.4622 99.0717 79.7425 98.455 79.6129 97.6194L78.8819 92.9029 74.1674 92.1735C73.2317 92.0294 72.5899 91.1539 72.7344 90.2182 72.7901 89.8578 72.9593 89.5244 73.2172 89.2664L79.9895 82.4945C80.6588 81.8253 81.7442 81.8253 82.4134 82.4945 83.083 83.1638 83.083 84.2492 82.4134 84.9188L78.0343 89.2999 80.6475 89.704C81.3865 89.8182 81.9662 90.3983 82.0804 91.1369L82.4865 93.7525 87.664 88.577C88.3356 87.9098 89.421 87.913 90.0883 88.5847 90.7523 89.2531 90.7523 90.3325 90.0883 91.0009L82.52 98.5692C82.1991 98.8913 81.7627 99.0721 81.3082 99.0717Z" transform="matrix(1.00914 0 0 1 901 416.964)"/><path d="M96.4464 99.0717C95.9919 99.0721 95.556 98.8921 95.2343 98.5712L87.664 91.0029C86.9935 90.3337 86.9927 89.2475 87.662 88.577 88.3316 87.9062 89.4178 87.9054 90.0883 88.575L95.2678 93.7525 95.6719 91.1369C95.7861 90.3983 96.3657 89.8182 97.1048 89.704L99.7164 89.2999 95.3389 84.9305C94.6684 84.2613 94.6676 83.1747 95.3368 82.5042 96.0065 81.8338 97.0927 81.833 97.7631 82.5022L104.537 89.2644C105.208 89.9345 105.208 91.0211 104.537 91.6911 104.28 91.9486 103.947 92.1178 103.587 92.1735L98.8707 92.9029 98.1417 97.6194C98.0134 98.4558 97.2929 99.073 96.4468 99.0717Z" transform="matrix(1.00914 0 0 1 901 416.964)"/><path d="M84.3178 64.4763 63.4377 64.4763C62.4908 64.4812 61.7194 63.7171 61.7146 62.7701 61.7101 61.8232 62.4742 61.0518 63.4212 61.047 63.4268 61.047 63.4321 61.047 63.4377 61.047L84.3178 61.047C85.2647 61.0518 86.0284 61.8232 86.024 62.7701 86.0195 63.7106 85.2583 64.4719 84.3178 64.4763Z" transform="matrix(1.00914 0 0 1 901 416.964)"/><path d="M89.8872 71.2543C88.9411 71.2551 88.1734 70.4886 88.1726 69.5424 88.1726 69.5416 88.1726 69.5404 88.1726 69.5396L88.1726 61.1612C88.177 60.2142 88.9488 59.4506 89.8957 59.455 90.8362 59.4594 91.5975 60.2207 91.6019 61.1612L91.6019 69.5396C91.6027 70.4857 90.8362 71.2535 89.8901 71.2543 89.8893 71.2543 89.8881 71.2543 89.8872 71.2543Z" transform="matrix(1.00914 0 0 1 901 416.964)"/><path d="M60.3196 59.013C59.3722 59.0126 58.6045 58.2445 58.6049 57.2971 58.6049 56.8458 58.7829 56.4131 59.0998 56.0922 60.2732 54.9124 60.7466 53.2062 60.3495 51.5904 60.1218 50.6709 60.6829 49.7409 61.6028 49.5133 62.5227 49.2856 63.4527 49.8471 63.6803 50.7666 64.0706 52.3638 63.9758 54.0409 63.4083 55.5837L93.7227 55.5816C95.2997 53.4629 94.8605 50.4675 92.7422 48.8904 91.9172 48.2761 90.9161 47.9443 89.8872 47.9443 88.9403 47.9399 88.1766 47.1685 88.181 46.2212 88.1855 45.2807 88.9468 44.5194 89.8872 44.515 94.4226 44.5154 98.0986 48.1921 98.0982 52.7271 98.0982 54.891 97.244 56.9669 95.7215 58.5044 95.3994 58.8293 94.9606 59.0118 94.5033 59.011ZM94.5033 57.2963 94.5033 57.2963Z" transform="matrix(1.00914 0 0 1 901 416.964)"/><path d="M75.3973 41.1566C74.4511 41.1575 73.6834 40.3909 73.6826 39.4445 73.6826 39.4436 73.6826 39.4427 73.6826 39.4419L73.6826 30.6635C73.687 29.7165 74.4584 28.9525 75.4057 28.9571 76.3462 28.9617 77.1075 29.723 77.1119 30.6635L77.1119 39.4419C77.1128 40.3881 76.3462 41.1558 75.3997 41.1566 75.3989 41.1566 75.3981 41.1566 75.3973 41.1566Z" transform="matrix(1.00914 0 0 1 901 416.964)"/><path d="M82.3173 41.1587C81.3684 41.1558 80.6018 40.3849 80.6043 39.4363 80.6051 39.1624 80.6713 38.8927 80.7976 38.6496L84.9838 30.6221C85.4185 29.7803 86.4535 29.4502 87.2951 29.8849 88.137 30.3196 88.4668 31.3544 88.0325 32.1962 88.0305 32.1997 88.0289 32.2032 88.0269 32.2067L83.8407 40.2342C83.5452 40.8022 82.9575 41.1587 82.3169 41.1587Z" transform="matrix(1.00914 0 0 1 901 416.964)"/><path d="M68.4772 41.1587C67.837 41.1587 67.2493 40.8022 66.9539 40.2342L62.7677 32.2067C62.333 31.3648 62.6631 30.33 63.5047 29.8953 64.3427 29.4627 65.3724 29.7873 65.8108 30.6221L69.9969 38.6496C70.4341 39.4915 70.1059 40.5282 69.2639 40.9653 69.0209 41.0917 68.7513 41.1579 68.4772 41.1587Z" transform="matrix(1.00914 0 0 1 901 416.964)"/><path d="M75.5232 80.6991 58.6287 80.6991C57.6818 80.6943 56.9177 79.9229 56.9225 78.976 56.927 78.0355 57.6882 77.2742 58.6287 77.2698L75.5232 77.2698C76.4706 77.2742 77.2343 78.0456 77.2298 78.9925 77.2254 79.933 76.4641 80.6947 75.5232 80.6991Z" transform="matrix(1.00914 0 0 1 901 416.964)"/><path d="M35.303 75.7206C34.3567 75.7214 33.589 74.9549 33.5883 74.0083 33.5883 74.0075 33.5883 74.0067 33.5883 74.0059L33.5883 61.786C33.5837 60.8391 34.3477 60.0677 35.2947 60.0633 36.2417 60.0584 37.0131 60.8225 37.0177 61.7695 37.0177 61.7751 37.0177 61.7808 37.0177 61.786L37.0177 74.0059C37.0184 74.952 36.2519 75.7198 35.3056 75.7206 35.3047 75.7206 35.3038 75.7206 35.303 75.7206Z" transform="matrix(1.00914 0 0 1 901 416.964)"/><path d="M3.42289 61.1616C3.42289 62.1051 2.65806 62.8699 1.71459 62.8699 0.771128 62.8699 0.00629675 62.1051 0.00629675 61.1616 0.00629675 60.2181 0.771128 59.4533 1.71459 59.4533 2.65806 59.4533 3.42289 60.2181 3.42289 61.1616Z" transform="matrix(1.00914 0 0 1 901 416.964)"/></g></svg>