<?xml version="1.0" encoding="UTF-8"?><svg id="Layer_2" xmlns="http://www.w3.org/2000/svg" viewBox="0 0 21.96766 24.15039"><defs><style>.cls-1{fill:#783cbe;}</style></defs><g id="Layer_1-2"><g><path class="cls-1" d="M20.78027,20.25l-8.94824-5.37891,.07812-4.98242h4.49121c1.12598,0,1.97559-.77441,1.97559-1.80078,0-1.0498-.86719-1.87207-1.97559-1.87207H5.32324c-.23438,0-.4248,.19043-.4248,.4248s.19043,.4248,.4248,.4248h11.07812c.6416,0,1.12598,.43945,1.12598,1.02246,0,.65332-.58398,.95117-1.12598,.95117h-4.90918c-.23242,0-.4209,.18652-.4248,.41797l-.07227,4.58789h-3.72168v-4.58105c0-.23438-.19043-.4248-.4248-.4248H1.93945c-.54199,0-1.08984-.29395-1.08984-.95117,0-.59277,.45801-1.02246,1.08984-1.02246,.23438,0,.4248-.19043,.4248-.4248s-.19043-.4248-.4248-.4248c-1.10547,0-1.93945,.80469-1.93945,1.87207,0,1.04395,.81543,1.80078,1.93945,1.80078H6.42383v4.15039H2.48438c-1.01074,0-1.66406,.76758-1.66406,1.95703v6.30859c0,.56934,.19824,1.07031,.55859,1.41016,.30273,.28613,.69141,.43555,1.12988,.43555,.03809,0,.07617-.00098,.11523-.00391,.9043-.05273,1.56152-.82715,1.56152-1.8418v-4.77734h5.08203l9.7998,5.63672c.58105,.33496,1.2207,.44629,1.75586,.30078,.4043-.1084,.72852-.35645,.93652-.7168,.20703-.3584,.26074-.75586,.15527-1.14941-.13965-.52148-.55566-1.01465-1.13477-1.34863Zm.24316,2.07324c-.0957,.16602-.2334,.27051-.41992,.32129-.31152,.08301-.73438,.00098-1.11133-.2168l-9.89941-5.69336c-.06445-.03711-.1377-.05664-.21191-.05664H3.76074c-.23438,0-.4248,.19043-.4248,.4248v5.20215c0,.55859-.31348,.96777-.76172,.99414-.26562,.01172-.45605-.05371-.6123-.20215-.18848-.17773-.29199-.45898-.29199-.79199v-6.30859c0-.33301,.0791-1.10742,.81445-1.10742h3.90479c.00977,.00073,.01855,.00586,.02881,.00586h4.56396l-.00342,.20801c-.00293,.15137,.07617,.29297,.20605,.37109l9.16504,5.50879c.38477,.22266,.66309,.53516,.74414,.83594,.04688,.17578,.02441,.34082-.07031,.50488Z"/><path class="cls-1" d="M9.13379,5.03418c1.3877,0,2.5166-1.12891,2.5166-2.5166,0-1.38867-1.12891-2.51758-2.5166-2.51758-1.38867,0-2.51758,1.12891-2.51758,2.51758,0,1.3877,1.12891,2.5166,2.51758,2.5166Zm0-4.18457c.91895,0,1.66699,.74805,1.66699,1.66797,0,.91895-.74805,1.66699-1.66699,1.66699-.91992,0-1.66797-.74805-1.66797-1.66699,0-.91992,.74805-1.66797,1.66797-1.66797Z"/><path class="cls-1" d="M3.64453,7.0871c.24707,0,.44678-.19952,.44678-.44635s-.19971-.44635-.44678-.44635c-.24658,0-.44629,.19952-.44629,.44635s.19971,.44635,.44629,.44635Z"/></g></g></svg>