<?xml version="1.0" encoding="UTF-8"?><svg id="Layer_2" xmlns="http://www.w3.org/2000/svg" viewBox="0 0 28.33057 6.81787"><defs><style>.cls-1{fill:#783cbe;}</style></defs><g id="Layer_1-2"><g><path class="cls-1" d="M8.07617,2.98389H1.45117L3.70996,.72607c.16602-.16602,.16602-.43555,0-.60156S3.27441-.0415,3.1084,.12451L.12402,3.10791c-.0791,.08008-.12402,.18848-.12402,.30078s.04492,.2207,.12402,.30078l2.98438,2.98438c.08301,.08301,.19238,.12402,.30078,.12402s.21777-.04102,.30078-.12402c.16602-.16602,.16602-.43555,0-.60156L1.45117,3.8335h6.625c.23438,0,.4248-.19043,.4248-.4248s-.19043-.4248-.4248-.4248Z"/><path class="cls-1" d="M25.22266,.12451c-.16602-.16602-.43555-.16602-.60156,0s-.16602,.43555,0,.60156l2.25879,2.25781H11.4834c-.23438,0-.4248,.19043-.4248,.4248s.19043,.4248,.4248,.4248h15.39648l-2.25879,2.25879c-.16602,.16602-.16602,.43555,0,.60156,.08301,.08301,.19238,.12402,.30078,.12402s.21777-.04102,.30078-.12402l2.9834-2.98438c.16602-.16602,.16602-.43555,0-.60156L25.22266,.12451Z"/><path class="cls-1" d="M9.78027,2.97412h-.01465c-.11621,.00391-.22363,.05273-.30273,.1377-.08008,.08398-.12207,.19434-.11816,.31055s.05273,.22461,.1377,.30371c.08105,.07617,.18555,.11816,.29688,.11816,.00488,0,.00977,0,.01465-.00098,.11621-.00391,.22363-.05176,.30273-.13672,.16406-.17578,.15527-.45117-.01953-.61426-.08105-.07715-.18652-.11816-.29688-.11816Z"/></g></g></svg>