<?xml version="1.0" encoding="UTF-8"?><svg id="Layer_2" xmlns="http://www.w3.org/2000/svg" viewBox="0 0 24.85352 24.85449"><defs><style>.cls-1{fill:#783cbe;}</style></defs><g id="Layer_1-2"><g><path class="cls-1" d="M12.42676,0c-1.66992,0-3.29102,.32617-4.81934,.96973-.25195,.10645-.49902,.21973-.74219,.34082-.20996,.10547-.2959,.36035-.19141,.57031,.10645,.21094,.36328,.29492,.57031,.19141,.22754-.11328,.45898-.2207,.69336-.31934,1.42285-.59961,2.93359-.90332,4.48926-.90332,6.38379,0,11.57715,5.19434,11.57715,11.57812s-5.19336,11.57715-11.57715,11.57715S.84961,18.81152,.84961,12.42773c0-2.93945,1.48438-6.2998,3.69336-8.36133,.17188-.16016,.18066-.42871,.02051-.60059-.16113-.17188-.42871-.17969-.60059-.02051C1.55566,5.69141,0,9.21777,0,12.42773c0,6.85254,5.57422,12.42676,12.42676,12.42676s12.42676-5.57422,12.42676-12.42676S19.2793,0,12.42676,0Z"/><path class="cls-1" d="M9.62012,17.68848l8.89355-5.13379c.13086-.07617,.21191-.21582,.21191-.36816,0-.15137-.08105-.29199-.21191-.36816L9.62012,6.68359c-.13281-.07617-.29297-.07617-.42578,0-.13086,.07617-.21191,.2168-.21191,.36816v10.26855c0,.15137,.08105,.29199,.21191,.36816,.06641,.03809,.13965,.05664,.21289,.05664s.14648-.01855,.21289-.05664Zm.21191-9.90039l7.61914,4.39844-7.61914,4.39746V7.78809Z"/><path class="cls-1" d="M5.61084,3.10406c.24707,0,.44629-.19952,.44629-.44635s-.19922-.44641-.44629-.44641c-.24658,0-.44629,.19958-.44629,.44641s.19971,.44635,.44629,.44635Z"/></g></g></svg>