<?xml version="1.0" encoding="UTF-8"?><svg id="Layer_2" xmlns="http://www.w3.org/2000/svg" viewBox="0 0 30.42676 25.05049"><defs><style>.cls-1{fill:#783cbe;}</style></defs><g id="Layer_1-2"><g><path class="cls-1" d="M22.92773,.02022c-1.86426-.13672-3.56836,.42383-4.79199,1.56055-.28125,.22754-.5293,.4834-.73828,.75781-.85645,1.12109-1.34277,2.29297-1.44336,3.46582-.03516,.28516-.05566,.57422-.05566,.86816,0,3.81641,3.10547,6.9209,6.92188,6.9209,.49316,0,.95508-.08301,1.40137-.16406,.1543-.02734,.30664-.05566,.45996-.0791,.25391-.03906,.43652-.01758,.5166,.06152,.0498,.04883,.15723,.21973,.08203,.75586-.11426,.82227-.56348,1.64453-1.18555,2.7168-1.11328,1.9209-3.17871,3.74023-6.13965,5.40625-.02051,.01074-.03906,.02344-.05566,.03711-.4375,.26758-.70605,.74121-.70605,1.25098,0,.81152,.66113,1.47168,1.47363,1.47168,.20898,0,.39453-.03125,.57422-.10059,2.70996-1.22559,5.27148-3.26367,7.61523-6.05762,2.36914-2.82324,3.57031-5.92285,3.57031-9.21191C30.42676,5.29171,28.08008,.39717,22.92773,.02022Zm3.27832,18.3252c-2.26172,2.69629-4.72266,4.65723-7.29297,5.82031-.04102,.01562-.11719,.03516-.24609,.03516-.34961,0-.62402-.27344-.62402-.62207,0-.22656,.12207-.42969,.32715-.54199,.01855-.00977,.03711-.02246,.05371-.03516,3.06738-1.7334,5.22266-3.64844,6.40625-5.69141,.6709-1.15625,1.15625-2.0498,1.29199-3.02539,.0957-.68359-.01074-1.16699-.32715-1.47852-.2832-.28027-.70312-.38184-1.24414-.2959-.15918,.02441-.31934,.05371-.48047,.08301-.42773,.07715-.83301,.15039-1.25,.15039-3.34863,0-6.07227-2.72363-6.07227-6.07129,0-.25879,.01855-.5127,.05176-.7793,.08789-1.02539,.5166-2.04785,1.27344-3.04004,.1709-.22461,.36719-.4248,.61914-.63086,1.07031-.99219,2.5459-1.46973,4.17285-1.35449,5.30859,.38867,6.71191,5.93457,6.71191,8.8125,0,3.08398-1.13477,6-3.37109,8.66504Z"/><path class="cls-1" d="M7.02832,.02022C5.16113-.1165,3.45898,.44405,2.23633,1.58077c-.28125,.22754-.5293,.4834-.73828,.75781C.64258,3.4587,.15625,4.63057,.05566,5.80342c-.03613,.28516-.05566,.57422-.05566,.86914,0,3.81641,3.10449,6.9209,6.9209,6.9209,.23438,0,.4248-.19043,.4248-.4248s-.19043-.4248-.4248-.4248C3.57324,12.74385,.84961,10.02022,.84961,6.67257c0-.25781,.01758-.51172,.05176-.7793,.08789-1.02637,.5166-2.04883,1.27246-3.04004,.1709-.22461,.36719-.4248,.61914-.63086,1.07031-.99219,2.55664-1.46973,4.17285-1.35449,5.30859,.38867,6.71191,5.93457,6.71191,8.8125,0,3.08398-1.13477,6-3.37109,8.66504-2.2627,2.69629-4.72266,4.6582-7.29297,5.82031-.04102,.01562-.11719,.03516-.24609,.03516-.34961,0-.62402-.27344-.62402-.62207,0-.22656,.12207-.42969,.32715-.54199,.01855-.00977,.03711-.02246,.05371-.03516,3.06738-1.7334,5.22266-3.64844,6.40625-5.69141,.41699-.7168,.78125-1.3623,1.02344-2.00195,.08301-.21973-.02734-.46484-.24707-.54785-.22363-.08398-.46484,.02734-.54785,.24707-.21973,.57812-.56641,1.19238-.96387,1.87695-1.11328,1.9209-3.17871,3.74023-6.13965,5.40625-.02051,.01074-.03906,.02344-.05566,.03711-.4375,.26758-.70605,.74121-.70605,1.25098,0,.81152,.66113,1.47168,1.47363,1.47168,.20898,0,.39453-.03125,.57422-.10059,2.70898-1.22559,5.27148-3.26367,7.61523-6.05762,2.36914-2.82324,3.57031-5.92285,3.57031-9.21191C14.52734,5.29171,12.18066,.39717,7.02832,.02022Z"/><path class="cls-1" d="M9.39697,13.40322c0-.24683-.19922-.44635-.44629-.44635-.24658,0-.44629,.19952-.44629,.44635s.19971,.44641,.44629,.44641c.24707,0,.44629-.19958,.44629-.44641Z"/></g></g></svg>