<?xml version="1.0" encoding="UTF-8"?><svg id="Layer_2" xmlns="http://www.w3.org/2000/svg" viewBox="0 0 24.9375 25.01758"><defs><style>.cls-1{fill:#783cbe;}</style></defs><g id="Layer_1-2"><g><path class="cls-1" d="M24.5127,12.08203H12.89355V1.21075c1.32324,.84589,2.53369,2.02924,3.51953,3.49628,.14355,.21387,.2832,.43457,.41602,.65723,.12207,.20117,.38281,.2666,.58301,.14746,.20117-.12012,.26758-.38086,.14746-.58301-.14062-.23633-.28809-.46875-.44141-.69629-.87305-1.29993-1.91602-2.39819-3.05908-3.25684,.97217,.13586,1.92236,.38092,2.83545,.75879,.10156,.04199,.2041,.08594,.30469,.13184,.2168,.09961,.46582,.00195,.5625-.21094,.09766-.21387,.00293-.46582-.21094-.5625-.11035-.0498-.2207-.09766-.33105-.14355C15.71143,.3244,14.11426,.00507,12.46924,.00006c-.00049,0-.00049-.00006-.00049-.00006V.00006c-.00049,0-.00098-.00006-.00098-.00006-2.49609,.00781-4.90332,.74805-6.96191,2.14258-.19434,.13086-.24512,.39551-.11328,.58984,.08203,.12109,.21582,.18652,.35156,.18652,.08203,0,.16504-.02344,.23828-.07324,1.47656-.99921,3.14746-1.63416,4.89795-1.87897-1.40869,1.0603-2.6626,2.50287-3.62891,4.18756-.10938-.02307-.22217-.03613-.33838-.03613-.90234,0-1.63672,.73438-1.63672,1.63672,0,.52985,.26123,1.00684,.67578,1.31061-.43896,1.34192-.67188,2.68982-.71484,4.01654H.86816c.09277-2.52136,.99756-4.96649,2.59082-6.9248,.14746-.18262,.12012-.4502-.06152-.59863-.18164-.14551-.44922-.11914-.59863,.06152C.99414,6.84082,0,9.6416,0,12.50684c0,.5293,.0332,1.06445,.09961,1.5918,.05469,.42773,.13086,.85059,.22754,1.26367,.0459,.19629,.2207,.32812,.41406,.32812,.03223,0,.06445-.00293,.09668-.01074,.22852-.05371,.37109-.28223,.31738-.51074-.09082-.38574-.16113-.7793-.21191-1.17676-.04443-.35144-.0542-.70648-.06689-1.06055H12.04395v10.88239c-.93311-.59412-1.80518-1.35132-2.59277-2.27985-.15234-.18066-.42188-.2002-.59863-.0498-.17969,.15234-.20117,.41992-.0498,.59863,.64209,.75745,1.3418,1.4035,2.08008,1.95703-.57861-.08594-1.1499-.21429-1.70996-.38672-.22754-.06836-.46191,.05762-.53125,.28125-.06934,.22461,.05664,.46191,.28125,.53125,1.146,.3526,2.33643,.53418,3.53906,.54749,.00244,.00006,.00439,.00134,.00684,.00134h.00098c.00391,0,.00732-.00061,.01123-.00061,.03027,.00031,.06006,.00348,.09033,.00354h.00098c.02051,0,.03809-.00879,.05762-.01154,6.80078-.10907,12.30762-5.67822,12.30762-12.49921,0-.23438-.19043-.4248-.4248-.4248ZM6.91309,5.96777c.43359,0,.78711,.35352,.78711,.78711,0,.54102-.61914,.93164-1.09277,.72559-.29199-.12402-.48145-.4082-.48145-.72559,0-.43359,.35352-.78711,.78711-.78711Zm-.82568,6.11426c.04199-1.22217,.2583-2.46588,.66064-3.70667,.05518,.00549,.10889,.01624,.16504,.01624,.90234,0,1.63672-.73438,1.63672-1.63672,0-.48022-.21191-.90851-.54248-1.20819,1.05518-1.83051,2.46631-3.34607,4.03662-4.35083V12.08203H6.0874Zm12.7627,.84961c-.04248,1.24005-.26465,2.49988-.67627,3.75397-.06738-.00848-.13379-.02057-.20312-.02057-.90234,0-1.63672,.73438-1.63672,1.63672,0,.49011,.22119,.92554,.56348,1.22577-1.0625,1.82684-2.44238,3.27478-4.00391,4.26996V12.93164h5.95654Zm-1.6665,5.37012c0-.43359,.35352-.78711,.78711-.78711s.78711,.35352,.78711,.78711-.35352,.78711-.78711,.78711-.78711-.35352-.78711-.78711Zm-3.09863,5.73206c1.38672-1.04285,2.60498-2.44202,3.57422-4.11877,.00146-.0025,.00098-.00531,.00244-.00781,.10059,.01929,.20312,.03125,.30908,.03125,.90234,0,1.63672-.73438,1.63672-1.63672,0-.52716-.25488-.99188-.64307-1.29144,.45166-1.35968,.69189-2.72925,.73535-4.07867h4.3667c-.20605,5.66492-4.47705,10.3125-9.98145,11.10217Z"/><path class="cls-1" d="M4.11035,19.31836c1.37988,0,2.50195-1.12207,2.50195-2.50195s-1.12207-2.50195-2.50195-2.50195c-1.37891,0-2.50098,1.12207-2.50098,2.50195s1.12207,2.50195,2.50098,2.50195Zm0-4.1543c.91113,0,1.65234,.74121,1.65234,1.65234s-.74121,1.65234-1.65234,1.65234c-.91016,0-1.65137-.74121-1.65137-1.65234s.74121-1.65234,1.65137-1.65234Z"/><path class="cls-1" d="M6.03418,19.46387c-.12305-.02344-.24805,.00195-.3457,.07715-.93359,.70703-2.22168,.70703-3.15527,0-.09766-.0752-.22559-.09961-.3457-.07715-1.12891,.24121-1.94824,1.25391-1.94824,2.4082v1.55859c0,.82715,.67285,1.5,1.5,1.5H6.48242c.82715,0,1.5-.67285,1.5-1.5v-1.55859c0-1.1543-.81934-2.16699-1.94824-2.4082Zm1.09863,3.9668c0,.3584-.29199,.65039-.65039,.65039H1.73926c-.3584,0-.65039-.29199-.65039-.65039v-1.55859c0-.69629,.45508-1.31348,1.10449-1.5293,1.15234,.77148,2.68262,.77148,3.83496,0,.64941,.21582,1.10449,.83301,1.10449,1.5293v1.55859Z"/><path class="cls-1" d="M20.68262,5.60645c1.37891,0,2.50098-1.12207,2.50098-2.50195s-1.12207-2.50195-2.50098-2.50195c-1.37988,0-2.50195,1.12207-2.50195,2.50195s1.12207,2.50195,2.50195,2.50195Zm0-4.1543c.91016,0,1.65137,.74121,1.65137,1.65234s-.74121,1.65234-1.65137,1.65234c-.91113,0-1.65234-.74121-1.65234-1.65234s.74121-1.65234,1.65234-1.65234Z"/><path class="cls-1" d="M22.25977,5.8291c-.93359,.70703-2.22168,.70703-3.15527,0-.09766-.0752-.22266-.09961-.3457-.07715-1.12891,.24121-1.94824,1.25391-1.94824,2.4082v1.55859c0,.82715,.67285,1.5,1.5,1.5h4.74414c.82715,0,1.49902-.67285,1.49902-1.5v-1.55859c0-1.1543-.81934-2.16699-1.94824-2.4082-.12012-.02344-.24805,.00195-.3457,.07715Zm1.44434,2.33105v1.55859c0,.3584-.29102,.65039-.64941,.65039h-4.74414c-.3584,0-.65039-.29199-.65039-.65039v-1.55859c0-.69629,.45508-1.31348,1.10449-1.5293,1.15234,.77148,2.68262,.77148,3.83496,0,.64941,.21582,1.10449,.83301,1.10449,1.5293Z"/><path class="cls-1" d="M4.45117,4.03815c.23682-.0614,.37891-.30322,.31787-.54004-.06152-.23688-.30322-.37909-.54004-.31769s-.37939,.30316-.31787,.54004c.06152,.23682,.30322,.37909,.54004,.31769Z"/></g></g></svg>