<?xml version="1.0" encoding="UTF-8"?><svg id="Layer_2" xmlns="http://www.w3.org/2000/svg" viewBox="0 0 29.03931 26.68457"><defs><style>.cls-1{fill:#783cbe;}</style></defs><g id="Layer_1-2"><g><path class="cls-1" d="M16.74121,23.31934c-.86865,.34753-1.77246,.57404-2.69385,.70294,.34326-.25763,.68164-.52771,1.00537-.8299,.17188-.16016,.18066-.42871,.02051-.60059s-.42871-.17969-.60059-.02051c-.50391,.46997-1.03955,.8653-1.58789,1.21606V1.20612c2.48682,1.58569,4.49414,4.36694,5.43066,7.61029,.06348,.21875,.12109,.43848,.17383,.6582,.05273,.22949,.29004,.37207,.51074,.31543,.22852-.05371,.37012-.2832,.31543-.51074-.05469-.2334-.11621-.4668-.18359-.69922-.90381-3.12836-2.75879-5.85767-5.0874-7.60437,5.65283,.79462,10.02588,5.6582,10.02588,11.52234l-.00195,.22754c-.00293,.23535,.18457,.42773,.41895,.43066h.00586c.23242,0,.42188-.18652,.4248-.41895l.00195-.23926C24.91992,5.62836,19.33203,.0213,12.46045,.00006c-.00049,0-.00049-.00006-.00049-.00006V.00006c-.00049,0-.00098-.00006-.00098-.00006-2.81055,.00879-5.46191,.92773-7.66895,2.65918-.18457,.14453-.2168,.41113-.07129,.59668,.1416,.18457,.41113,.2168,.59668,.07129,1.63281-1.2807,3.53027-2.07562,5.55225-2.35645-3.23242,2.44043-5.48682,6.8028-5.63574,11.07947l-4.36719,.02094c.07568-2.08575,.69727-4.10254,1.81885-5.85138,.00195-.00293,.05566-.08496,.05762-.08789,.125-.19824,.04004-.41992-.15723-.5459-.19336-.12305-.48535-.0293-.61133,.16895C.68164,7.7666,0,10.09766,0,12.49805v.00256c.00146,6.86902,5.58984,12.474,12.46094,12.49646,1.58691-.00488,3.13281-.30371,4.59668-.88867,.21777-.08691,.32324-.33398,.23633-.55273-.08691-.21777-.33301-.32129-.55273-.23633Zm-4.70605,.48059c-3.38965-2.16528-5.81396-6.57819-5.95557-10.90417l5.95557-.02856v10.93274ZM12.03516,1.19617V12.01758l-5.95361,.02856c.15967-4.30865,2.57812-8.69373,5.95361-10.84998ZM.87109,12.92072l4.35938-.02087c.13379,4.28699,2.38867,8.66785,5.62695,11.11847C5.35059,23.23456,1.07666,18.58655,.87109,12.92072Z"/><path class="cls-1" d="M21.32715,14.34766c-.62988-.62988-1.46777-.97656-2.3584-.97656-.23438,0-.4248,.19043-.4248,.4248s.19043,.4248,.4248,.4248c.66406,0,1.28809,.25879,1.75684,.72754,.46875,.4707,.72754,1.09375,.72754,1.75684,0,.23438,.19043,.4248,.4248,.4248s.4248-.19043,.4248-.4248c0-.88965-.34668-1.72656-.97559-2.35742Z"/><path class="cls-1" d="M26.1416,21.49023c-.5459-.54651-1.38477-.62164-2.01709-.23102l-1.0376-1.03772c1.82129-2.13513,1.74658-5.34503-.27051-7.3631-1.02832-1.02734-2.39453-1.59375-3.84766-1.59375s-2.81934,.56641-3.84668,1.59375c-2.12109,2.12109-2.12109,5.57324,0,7.69434,1.02734,1.02734,2.39355,1.59375,3.84668,1.59375,1.30859,0,2.5332-.48065,3.51758-1.32245l1.03662,1.0368c-.15869,.25629-.24707,.55096-.24658,.86084,0,.4375,.16992,.84863,.4834,1.16211l2.41504,2.32324c.31836,.31836,.73828,.47754,1.15723,.47754s.83887-.15918,1.1582-.47754l.07227-.07227v-.00098c.63672-.6377,.63672-1.67676-.00586-2.32129l-2.41504-2.32227Zm-10.41797-1.53906c-1.79004-1.78906-1.79004-4.70215,0-6.49121,.86621-.86719,2.01953-1.34473,3.24512-1.34473,1.22656,0,2.37891,.47754,3.24609,1.34473,1.78906,1.79004,1.78906,4.70215,0,6.49121-.86719,.86719-2.01953,1.34473-3.24609,1.34473-1.22559,0-2.37891-.47754-3.24512-1.34473Zm12.2373,5.58301l-.07129,.07129c-.30859,.30566-.80762,.30664-1.12012-.00586l-2.41504-2.32324c-.14746-.14746-.22852-.34473-.22852-.55566s.08105-.40918,.22949-.55664l.07227-.07227c.15234-.15332,.35254-.22949,.55371-.22949,.20312,0,.40723,.07812,.56445,.23535l2.41504,2.32129c.30664,.30762,.30664,.80762,0,1.11523Z"/><path class="cls-1" d="M3.61914,4.8288c.24707,0,.44629-.19952,.44629-.44641,0-.24677-.19922-.44635-.44629-.44635-.24658,0-.44629,.19958-.44629,.44635,0,.24689,.19971,.44641,.44629,.44641Z"/></g></g></svg>