<?xml version="1.0" encoding="UTF-8"?><svg id="Layer_2" xmlns="http://www.w3.org/2000/svg" viewBox="0 0 24.93945 25.0166"><defs><style>.cls-1{fill:#783cbe;}</style></defs><g id="Layer_1-2"><g><path class="cls-1" d="M12.47021,.00006c-.00049,0-.00049-.00006-.00049-.00006V.00006c-.00049,0-.00098-.00006-.00098-.00006C9.30273,.01074,6.28711,1.20508,3.97656,3.3623c-.17188,.16016-.18066,.42871-.02051,.60059s.42871,.17969,.60059,.02051c1.75928-1.6427,3.96045-2.67395,6.31348-3.00635-3.2373,2.44775-5.49268,6.82227-5.63379,11.10693H.87842c.07178-1.97186,.61963-3.8941,1.63525-5.58105,.12109-.2002,.05566-.46191-.14551-.58301-.19922-.11914-.46094-.05664-.58301,.14551-1.16797,1.93945-1.78516,4.16797-1.78516,6.44336,0,6.875,5.59277,12.48535,12.4707,12.50781,6.87598-.02246,12.46875-5.63281,12.46875-12.50781C24.93945,5.63422,19.34766,.02325,12.47021,.00006Zm11.59814,12.08392h-4.36426c-.14111-4.28369-2.39551-8.65717-5.63184-11.10529,5.51123,.78375,9.78955,5.43475,9.99609,11.10529Zm-12.02344,11.73547c-3.38574-2.1626-5.80859-6.56555-5.95947-10.88586h5.95947v10.88586Zm.84961-10.88586h5.96045c-.15088,4.32037-2.57471,8.72321-5.96045,10.88586V12.93359Zm0-.84961V1.19714c3.38574,2.16272,5.80957,6.56647,5.96045,10.88684h-5.96045Zm-.84961-10.88684V12.08398H6.08545c.15088-4.32031,2.57373-8.72412,5.95947-10.88684ZM.87109,12.93359H5.23633c.14111,4.28363,2.39551,8.65643,5.63135,11.10437C5.35645,23.25433,1.07764,18.60339,.87109,12.93359Zm13.20068,11.10461c3.23682-2.44812,5.49121-6.82159,5.63232-11.10461h4.36426c-.20654,5.67035-4.48584,10.32166-9.99658,11.10461Z"/><path class="cls-1" d="M3.0166,5.39062c.02637,.00488,.05273,.00684,.07812,.00684,.21289,0,.40332-.15234,.44238-.36914,.04297-.24414-.12012-.47656-.3623-.51953-.12109-.02051-.23633,.00586-.33496,.07324-.09863,.06836-.16406,.1709-.18457,.28906-.02148,.11719,.00488,.23633,.07324,.33398,.06836,.09863,.1709,.16406,.28809,.18555Z"/></g></g></svg>