<?xml version="1.0" encoding="UTF-8"?><svg id="Layer_2" xmlns="http://www.w3.org/2000/svg" viewBox="0 0 24.99316 24.99316"><defs><style>.cls-1{fill:#783cbe;}</style></defs><g id="Layer_1-2"><g><path class="cls-1" d="M24.69678,9.81787c-.00342-.03693-.01465-.07056-.02734-.1048C23.44336,4.35046,18.76318,.30304,13.10059,.03058c-.04932-.01129-.09717-.01337-.146-.00739-.15283-.00562-.30322-.02319-.45752-.02319-3.01074,0-5.63965,.92285-7.81445,2.74414-.03516,.02936-.05908,.06586-.08203,.10248-.00195,.00348-.00586,.00531-.00781,.00885-.00049,.00049,0,.0011-.00049,.00159-.08008,.13641-.07617,.30499,.0127,.44141,.00537,.00873,.0083,.01843,.01416,.02673,.00439,.00549,.00537,.01227,.00977,.01758,.01904,.02295,.04492,.03583,.06738,.05365,.01465,.01233,.0249,.02869,.04199,.03912,.03125,.01953,.74902,.47656,.84277,1.91113,.02734,.41602-.05566,.72949-.24609,.93066-.27637,.29297-.71777,.29297-.71875,.29297-.1748-.00879-.34375,.10547-.40723,.27246l-.8877,2.31152-1.35547,.74512c-.10938,.05957-.18652,.16406-.21191,.28516s.00391,.24805,.0791,.34668l.53418,.69238h-.69238l-.64258-.63513c.28223-1.52838,.89795-3.02515,1.85352-4.46741,.12988-.19531,.07617-.45898-.12012-.58887-.19434-.12891-.45801-.07715-.58887,.12012C1.13525,7.22345,.46973,8.86029,.17676,10.5365c-.03125,.06537-.04443,.1347-.04004,.20526-.09082,.58075-.13672,1.1662-.13672,1.75531,0,.50995,.04004,1.01001,.09961,1.50415-.00391,.05774,.00293,.11682,.02441,.17456,.00049,.00189,.00244,.00305,.00293,.00488,.43896,3.23682,2.1123,6.08344,4.54102,8.04181,.02734,.02728,.05713,.0495,.0918,.06873,2.13037,1.68646,4.81543,2.70197,7.7373,2.70197,6.89062,0,12.49609-5.60547,12.49609-12.49609,0-.92029-.10693-1.815-.29639-2.6792Zm-.86279,.05377l-.28906,1.12738-.58789,.43262-.22461-1.41309c-.01172-.07227-.04199-.14062-.08691-.19824l-1.00488-1.26562c-.08984-.11133-.23438-.17969-.37109-.1582l-1.23242,.11133c-.15332,.01367-.28711,.1084-.34961,.24902-.0625,.13965-.04492,.30273,.0459,.42676l.12793,.17188-1.85059,1.04688c-.12012-.80957-.43457-2.16699-1.2373-3.00391-1.03613-1.08203-3.23828-1.66797-5.90723-1.56445-.86621,.0332-1.5127,.29688-1.91992,.78223-.07422,.08887-.13574,.17871-.1875,.26953l-.76074-1.18359,.6123-1.8623,3.43555-1.01758c.10742-.03125,.19824-.10449,.25195-.20312l.94531-1.73175c5.18408,.33105,9.4502,4.05975,10.59082,8.98425ZM1.00439,14.30267l1.2417-.46088,2.08496,1.60645c.0918,.07031,.20508,.09863,.32129,.08398,.0127-.00293,1.37109-.18066,1.53516,.49805,.09668,.40039,.10645,.60059,.10352,.68848-.00684,.00684-.01367,.01465-.02051,.02344-.08008,.09863-.1123,.22949-.08594,.35449,.13672,.65234,.08496,1.3623-.05273,1.41797-.61182,.24274-1.09717,1.5567-1.40332,2.63519-1.94873-1.75134-3.30078-4.14404-3.72412-6.84717Zm11.49268,9.84088c-2.65039,0-5.08936-.90002-7.04883-2.39685,.31738-1.19879,.76611-2.30615,.99805-2.44299,.80859-.32129,.69922-1.60742,.6084-2.1709,.12891-.25781,.11426-.65918-.04102-1.30176-.25684-1.06641-1.49121-1.23926-2.30078-1.16211l-2.13379-1.64453c-.11816-.08887-.27246-.1123-.40723-.06152l-1.2749,.47314c-.0249-.31061-.04736-.62201-.04736-.93896,0-.28699,.01318-.573,.03662-.85822l.31494,.31134c.08008,.0791,.18652,.12305,.29883,.12305h1.73145c.16211,0,.30957-.0918,.38184-.2373,.07129-.14551,.05371-.31836-.04492-.44727l-.75879-.9834,1.05664-.58105c.08887-.04785,.15625-.12598,.19238-.21973l.84863-2.20996c.28223-.0459,.7002-.17383,1.03613-.52344,.36621-.38184,.5293-.91309,.48535-1.5791-.07324-1.13171-.48145-1.81195-.81494-2.19202C7.52148,1.63306,9.71191,.89484,12.29102,.8573l-.65527,1.20032-3.48047,1.03027c-.13281,.03906-.23926,.1416-.28223,.27441l-.74512,2.2666c-.04004,.12207-.02344,.25488,.0459,.3623l1.41504,2.20117c.10742,.16797,.31836,.23633,.50488,.16895,.1875-.06934,.30078-.25879,.27344-.45605,0-.00488-.04297-.41602,.23145-.74316,.24609-.29395,.68359-.45508,1.30078-.47852,2.38281-.09766,4.4043,.40723,5.26074,1.30273,.95508,.99707,1.07227,3.10449,1.07324,3.12598,.00781,.14648,.09082,.28027,.21973,.35059,.13184,.07129,.28809,.06934,.41406-.00195l2.83008-1.60156c.10645-.06055,.18164-.16309,.20703-.28125,.02051-.10059,.00586-.20312-.04297-.29199l.25586-.02246,.79297,.99805,.31738,1.99316c.02344,.14648,.12109,.27051,.25879,.32715,.05176,.02148,.10645,.03125,.16113,.03125,.08984,0,.17773-.02832,.25195-.08301l1.20117-.8855c.02051,.28253,.04297,.56464,.04297,.85229,0,6.42188-5.22461,11.64648-11.64648,11.64648Z"/><path class="cls-1" d="M19.55371,15.31152c-.80273-.08594-1.73828,1.29688-2.22363,2.11523-.03809,.06543-.05859,.14062-.05859,.2168v.90527l-.33398,.96191c-.02441,.05371-.2334,.53418,.03809,.95801,.2002,.3125,.57617,.4707,1.11621,.4707,.12695,.01074,.25879-.05664,.34082-.16113,.22559-.28418,.51172-.58594,.63672-.67285,.11328-.01074,.22852-.05566,.30371-.12305,.41602-.37402,1.36035-2.78809,.86426-4.08984-.17969-.46973-.50488-.56543-.68359-.58105Zm-.56055,4.7959c-.0459,0-.10059-.00977-.15918-.03906,.04688,.02344,.10254,.03613,.16016,.03906h-.00098Zm-.13379-.83887c-.21191,.05957-.50488,.27148-.9541,.81055-.14648-.01855-.20508-.05664-.21387-.06836-.00977-.01953-.00195-.09668,.0332-.18164l.37305-1.06934c.01562-.04492,.02344-.0918,.02344-.13965v-.8584c.49805-.81543,1.13672-1.56543,1.32129-1.56641,.32422,.84863-.29297,2.59473-.58301,3.07324Z"/><path class="cls-1" d="M16.70703,16.45312c.74316-.5293,1.85059-1.4668,1.66895-2.2373-.16602-.70215-.79297-.63379-1.05957-.6084-.32129,.03613-.40723,.02441-.51074-.15039-.37402-.62891-.99414-2.60938-1.20117-3.32031-.04688-.15918-.18164-.27734-.3457-.30078l-2.25586-.33496c-.20703-.04004-.39648,.08789-.46387,.2793l-.08008,.22852c-.40234-.30762-.64941-.61816-.61133-.71582,.05078-.13281,.0332-.28223-.04883-.39844-.08301-.11621-.19629-.16504-.3584-.18066-3.11719,.0791-3.30957,.35156-3.4248,.5127-.18164,.25293-.38477,.8291-.47168,1.08984-.37695,.36523-1.7002,1.82812-.95703,3.76758,.6875,1.79785,2.83105,1.57617,3.9502,1.18359,.08398,.01367,.16992,.04395,.18848,.06445,.00098,.00098,.00977,.0459-.03809,.15918-.31152,.73926,.20508,1.19336,.51367,1.46484,.14258,.12598,.30469,.26855,.31055,.36035,.02051,.3623-.24902,.95605-.42383,1.24512-.06445,.10645-.0791,.23535-.04004,.35352,.4043,1.23047,1.15625,3.34766,1.63867,3.70996,.11328,.08496,.24512,.12695,.39551,.12695,.50879,0,1.22559-.4834,2.13965-1.44336,.05957-.0625,.09863-.14062,.1123-.22559l.125-.78516c.36914-.3457,1.41113-1.39746,1.51465-2.32324,.07324-.64453-.10352-1.18262-.2666-1.52148Zm-1.92676,3.31348c-.07324,.06543-.12207,.1543-.1377,.25098l-.12695,.79883c-.51074,.51855-1.10547,.98633-1.36035,1.07422-.25879-.36621-.81445-1.78906-1.24121-3.06348,.16895-.31641,.47949-.9834,.44531-1.55957-.02539-.44727-.34277-.72559-.59668-.9502-.34961-.30762-.34863-.36035-.29199-.49609,.18945-.4502,.08984-.76074-.02734-.94238-.27539-.42871-.83789-.46582-.94824-.46875-.0498,.00098-.10938,.00781-.16113,.02734-.09668,.03516-2.37012,.86719-2.9541-.65723-.625-1.63477,.75293-2.85352,.81152-2.9043,.05859-.05176,.10352-.11914,.12793-.19336,.09961-.31348,.24805-.70801,.3457-.8916,.31738-.09277,1.37207-.17578,2.37207-.21387,.21484,.71973,1.19238,1.31934,1.43066,1.45605,.10938,.06348,.24219,.07422,.36035,.03027s.21094-.13867,.25293-.25781l.14453-.41309,1.64062,.24414c.20996,.69336,.79199,2.55469,1.20898,3.25586,.39258,.6582,1.00293,.59375,1.32812,.56055,.0498-.00488,.11719-.01172,.1416-.02734-.0459,.27344-.81836,1.00586-1.63574,1.54297-.09863,.06543-.16602,.16797-.18555,.28418-.01953,.11719,.00977,.23633,.08203,.33008,.00391,.00488,.40723,.55566,.32422,1.2959-.06348,.55859-.86133,1.45508-1.34961,1.8877Z"/><path class="cls-1" d="M3.48047,4.86005c.24707,0,.44629-.19958,.44629-.44641s-.19922-.44635-.44629-.44635c-.24658,0-.44629,.19952-.44629,.44635s.19971,.44641,.44629,.44641Z"/></g></g></svg>