<?xml version="1.0" encoding="UTF-8"?><svg id="Layer_2" xmlns="http://www.w3.org/2000/svg" viewBox="0 0 19.3446 25.0459"><defs><style>.cls-1{fill:#783cbe;}</style></defs><g id="Layer_1-2"><g><path class="cls-1" d="M17.49987,4.20605h-3.12061c-.17773-.48468-.65137-.83887-1.22412-.83887h-.09863c.00586-.07617,.00879-.15137,.00879-.22559,0-1.73242-1.51562-3.1416-3.37891-3.1416-1.86426,0-3.37988,1.40918-3.37988,3.1416,0,.07422,.00293,.14941,.00879,.22559h-.09863c-.57275,0-1.04639,.35419-1.22412,.83887H1.77722C.81237,4.20605,.02722,4.99023,.02722,5.95508v2.0498c0,.23438,.19043,.4248,.4248,.4248s.4248-.19043,.4248-.4248v-2.0498c0-.49609,.4043-.89941,.90039-.89941h3.12988v.63867c0,.68262,.58691,1.23828,1.30957,1.23828h6.93848c.72266,0,1.30957-.55566,1.30957-1.23828v-.63867h3.03516c.54883,0,.99512,.44629,.99512,.99512V24.19629H.87683V11.44336c0-.23438-.19043-.4248-.4248-.4248s-.4248,.19043-.4248,.4248v13.17773c0,.23438,.19043,.4248,.4248,.4248H18.9198c.23438,0,.4248-.19043,.4248-.4248V6.05078c0-1.01758-.82715-1.84473-1.84473-1.84473Zm-3.88477,1.48828c0,.21094-.21094,.38867-.45996,.38867H6.21667c-.24902,0-.45996-.17773-.45996-.38867v-1.08887c0-.21094,.21094-.38867,.45996-.38867h.60352c.13184,0,.25684-.06152,.33691-.16602s.10742-.24023,.07422-.36816c-.05078-.18848-.0752-.36523-.0752-.54102,0-1.26367,1.13477-2.29199,2.53027-2.29199,1.39453,0,2.5293,1.02832,2.5293,2.29199,0,.17578-.02441,.35254-.0752,.54102-.0332,.12793-.00586,.26367,.07422,.36816s.20508,.16602,.33691,.16602h.60352c.24902,0,.45996,.17773,.45996,.38867v1.08887Z"/><path class="cls-1" d="M3.47937,14.15723c.08105,.0752,.18457,.1123,.28809,.1123s.20605-.03711,.28809-.1123l2.66016-2.44629c.17285-.1582,.18359-.42773,.02441-.60059-.15625-.17188-.42676-.18262-.60059-.02441l-2.37207,2.18164-.53906-.49707c-.17285-.1582-.44043-.14844-.60059,.02441-.15918,.17285-.14844,.44141,.02441,.60059l.82715,.76172Z"/><path class="cls-1" d="M2.65222,17.42676l.82715,.76074c.08203,.0752,.18457,.1123,.28809,.1123s.20605-.03711,.28809-.1123l2.66016-2.44629c.17285-.1582,.18359-.42773,.02441-.60059-.15625-.17188-.42676-.18262-.60059-.02441l-2.37207,2.18164-.53906-.49609c-.17188-.1582-.44238-.14746-.60059,.02441-.15918,.17285-.14844,.44238,.02441,.60059Z"/><path class="cls-1" d="M2.65222,21.45703l.82715,.76074c.08203,.0752,.18457,.1123,.28809,.1123s.20605-.03711,.28809-.1123l2.66016-2.44629c.17285-.1582,.18359-.42773,.02441-.60059-.15625-.17188-.42676-.18262-.60059-.02441l-2.37207,2.18164-.53906-.49609c-.17188-.1582-.44238-.14746-.60059,.02441-.15918,.17285-.14844,.44238,.02441,.60059Z"/><path class="cls-1" d="M8.71765,12.22754h7.50684c.23438,0,.4248-.19043,.4248-.4248s-.19043-.4248-.4248-.4248h-7.50684c-.23438,0-.4248,.19043-.4248,.4248s.19043,.4248,.4248,.4248Z"/><path class="cls-1" d="M8.71765,16.50293h7.50684c.23438,0,.4248-.19043,.4248-.4248s-.19043-.4248-.4248-.4248h-7.50684c-.23438,0-.4248,.19043-.4248,.4248s.19043,.4248,.4248,.4248Z"/><path class="cls-1" d="M8.71765,20.96875h7.50684c.23438,0,.4248-.19043,.4248-.4248s-.19043-.4248-.4248-.4248h-7.50684c-.23438,0-.4248,.19043-.4248,.4248s.19043,.4248,.4248,.4248Z"/><path class="cls-1" d="M.71667,10.05371c.18213-.15613,.20312-.43018,.04688-.61218-.15625-.18195-.43018-.20288-.6123-.04681-.18164,.15613-.20264,.43024-.04688,.61218,.15625,.18195,.43066,.20288,.6123,.04681Z"/></g></g></svg>