<?xml version="1.0" encoding="UTF-8"?><svg id="Layer_2" xmlns="http://www.w3.org/2000/svg" viewBox="0 0 25.13317 24.93555"><defs><style>.cls-1{fill:#783cbe;}</style></defs><g id="Layer_1-2"><g><path class="cls-1" d="M7.34961,14.10693c.44043,0,.87061,.0769,1.2793,.229,.23828,.08807,.50244-.03253,.59082-.27051,.08838-.23792-.03271-.50238-.27051-.59076-.51172-.18994-1.0498-.28632-1.59961-.28632-2.53271,0-4.59326,2.0603-4.59326,4.59308,0,2.53247,2.06055,4.59277,4.59326,4.59277s4.59277-2.0603,4.59277-4.59277c0-.25372-.20557-.45935-.45898-.45935-.25391,0-.45947,.20563-.45947,.45935,0,2.026-1.64844,3.67413-3.67432,3.67413-2.02637,0-3.6748-1.64813-3.6748-3.67413,0-2.02612,1.64844-3.6745,3.6748-3.6745Z"/><path class="cls-1" d="M12.21094,13.80664c-.18066-.17773-.47217-.17419-.64893,.00769l-4.60693,4.71643-1.20898-1.51074c-.15869-.19836-.44824-.22968-.646-.07166-.19775,.15863-.22998,.44757-.07129,.64569l1.5332,1.91602c.07227,.09015,.17529,.14948,.28857,.16693,.01562,.00244,.03174,.00397,.04736,.00482,.13135,.00647,.25928-.04358,.35107-.13788l4.96973-5.08795c.17773-.1814,.17383-.47217-.00781-.64935Z"/><path class="cls-1" d="M15.6543,7.6416H3.08691c-.23438,0-.4248,.19043-.4248,.4248s.19043,.4248,.4248,.4248H15.6543c.23438,0,.4248-.19043,.4248-.4248s-.19043-.4248-.4248-.4248Z"/><path class="cls-1" d="M16.0791,10.86914c0-.23438-.19043-.4248-.4248-.4248H3.08691c-.23438,0-.4248,.19043-.4248,.4248s.19043,.4248,.4248,.4248H15.6543c.23438,0,.4248-.19043,.4248-.4248Z"/><path class="cls-1" d="M19.28711,19.7002c-.23438,0-.4248,.19043-.4248,.4248l-.02148,3.96094-17.99121-.02148V5.60742H5.56152c.23438,0,.4248-.19043,.4248-.4248V.85028l12.87598,.02081V10.85547c0,.23438,.19043,.4248,.4248,.4248s.4248-.19043,.4248-.4248V.87109c0-.48047-.39062-.87109-.87109-.87109H5.56152c-.01611,0-.02979,.00745-.04541,.00922-.01904,.00201-.03564,.00641-.05469,.01099-.06299,.01581-.12061,.04254-.16895,.08325-.00586,.00494-.01416,.00452-.02002,.00983L.13574,4.87109c-.00195,.00165-.00195,.00433-.00342,.00598-.05273,.05042-.08691,.11536-.1084,.18707-.00537,.01886-.0083,.03577-.01123,.0553-.00342,.02148-.0127,.04077-.0127,.06317V24.06445c0,.48047,.39062,.87109,.87109,.87109H18.84082c.48047,0,.87109-.39062,.87109-.87109v-3.93945c0-.23438-.19043-.4248-.4248-.4248ZM5.13672,1.39746v3.36035H1.50879L5.13672,1.39746Z"/><path class="cls-1" d="M24.05566,10.64746c-.15527-.15527-.38477-.22949-.60645-.19629-.19238,.02539-.37891,.11914-.52539,.26465l-1.04883,1.04785c-.00781,.00757-.01025,.0177-.01709,.0257-.00049,.00073-.00146,.00092-.00244,.00165l-7.4043,7.48242c-.0083,.00824-.01074,.01917-.01855,.02789-.01855,.02216-.0332,.04639-.04736,.07245-.01318,.02429-.0249,.04773-.03271,.07361-.00391,.01141-.01221,.0202-.01465,.0321l-.37988,1.70508c-.03125,.14258,.01172,.29004,.11426,.39355,.08105,.08008,.18945,.12402,.30078,.12402,.03125,0,.06152-.00293,.09277-.00977l1.7041-.37988c.01221-.00281,.02148-.01117,.0332-.01495,.02637-.00812,.0498-.01978,.07373-.03302,.02686-.01459,.05127-.02985,.07373-.04938,.00879-.00757,.02002-.0105,.02832-.01886l7.33203-7.41516c.00098-.00079,.00195-.00104,.00293-.00183l1.16016-1.16113c.13965-.13965,.22949-.31934,.25293-.50391,.02832-.22168-.04102-.43555-.19043-.58496l-.88086-.88184Zm-8.91406,9.1358l7.01416-7.08807,.71387,.72906-7.00586,7.08508-.93018,.20746,.20801-.93353Zm8.32666-6.96173l-.71484-.73004,.77588-.76727,.71777,.71777-.77881,.77954Z"/><circle class="cls-1" cx="19.28711" cy="12.57739" r=".44632"/></g></g></svg>