<?xml version="1.0" encoding="UTF-8"?><svg id="Layer_2" xmlns="http://www.w3.org/2000/svg" viewBox="0 0 19.56494 25.01855"><defs><style>.cls-1{fill:#783cbe;}</style></defs><g id="Layer_1-2"><g><path class="cls-1" d="M3.6001,7.53809H15.65283c.23438,0,.4248-.19043,.4248-.4248s-.19043-.4248-.4248-.4248H3.6001c-.23438,0-.4248,.19043-.4248,.4248s.19043,.4248,.4248,.4248Z"/><path class="cls-1" d="M3.6001,10.23633H15.65283c.23438,0,.4248-.19043,.4248-.4248s-.19043-.4248-.4248-.4248H3.6001c-.23438,0-.4248,.19043-.4248,.4248s.19043,.4248,.4248,.4248Z"/><path class="cls-1" d="M3.6001,12.93457H15.65283c.23438,0,.4248-.19043,.4248-.4248s-.19043-.4248-.4248-.4248H3.6001c-.23438,0-.4248,.19043-.4248,.4248s.19043,.4248,.4248,.4248Z"/><path class="cls-1" d="M3.6001,15.63281H15.65283c.23438,0,.4248-.19043,.4248-.4248s-.19043-.4248-.4248-.4248H3.6001c-.23438,0-.4248,.19043-.4248,.4248s.19043,.4248,.4248,.4248Z"/><path class="cls-1" d="M3.6001,18.33105H15.65283c.23438,0,.4248-.19043,.4248-.4248s-.19043-.4248-.4248-.4248H3.6001c-.23438,0-.4248,.19043-.4248,.4248s.19043,.4248,.4248,.4248Z"/><path class="cls-1" d="M3.6001,21.02832H15.65283c.23438,0,.4248-.19043,.4248-.4248s-.19043-.4248-.4248-.4248H3.6001c-.23438,0-.4248,.19043-.4248,.4248s.19043,.4248,.4248,.4248Z"/><path class="cls-1" d="M18.67139,0H5.83936c-.0127,0-.02295,.00604-.03516,.00714-.01904,.00153-.03516,.00684-.05371,.0108-.05762,.01276-.10938,.0354-.15576,.06903-.00928,.00671-.02197,.00604-.03076,.01361L.17139,4.67969c-.13574,.11523-.18457,.30371-.12402,.4707,.06152,.16699,.22168,.27832,.39941,.27832H5.83936c.23438,0,.4248-.19043,.4248-.4248V.84979l12.45117,.0047-.04395,23.31445-17.7998-.00391V8.83594c0-.23438-.19043-.4248-.4248-.4248s-.4248,.19043-.4248,.4248v15.3291c0,.4707,.40039,.85352,.89258,.85352H18.67139c.49316,0,.89355-.38281,.89355-.85352V.85449c0-.47168-.40039-.85449-.89355-.85449ZM5.41455,4.5791H1.604L5.41455,1.34277v3.23633Z"/><path class="cls-1" d="M.44629,7.55945c.24707,0,.44629-.19958,.44629-.44641s-.19922-.44635-.44629-.44635c-.24658,0-.44629,.19952-.44629,.44635s.19971,.44641,.44629,.44641Z"/></g></g></svg>