<?xml version="1.0" encoding="UTF-8"?><svg id="Layer_2" xmlns="http://www.w3.org/2000/svg" viewBox="0 0 25.02734 25.02832"><defs><style>.cls-1{fill:#783cbe;}</style></defs><g id="Layer_1-2"><g><path class="cls-1" d="M23.11719,6.6875c-.20996,.10547-.29395,.36133-.1875,.57031,.82812,1.63965,1.24805,3.40723,1.24805,5.25586,0,6.43164-5.23242,11.66504-11.66406,11.66504S.84961,18.94531,.84961,12.51367,6.08203,.84961,12.51367,.84961c3.23633,0,6.24316,1.29395,8.46875,3.64355,.16211,.1709,.43066,.17871,.60059,.0166,.1709-.16113,.17773-.43066,.0166-.60059C19.21191,1.3877,15.98535,0,12.51367,0,5.61328,0,0,5.61328,0,12.51367s5.61328,12.51465,12.51367,12.51465,12.51367-5.61426,12.51367-12.51465c0-1.98242-.4502-3.87988-1.33984-5.63867-.10449-.20996-.36035-.29297-.57031-.1875Z"/><path class="cls-1" d="M22.3916,6.0647c.06787,0,.1377-.0144,.2041-.04541,.11719-.0542,.20703-.15271,.25244-.27344,.04443-.12292,.03857-.25464-.0166-.37097-.05322-.11853-.15088-.20813-.27344-.25244-.12305-.04541-.25391-.0387-.37207,.0155-.24268,.11182-.34766,.40198-.23486,.64551,.08203,.17725,.25684,.28125,.44043,.28125Z"/><path class="cls-1" d="M12.51367,19.87402c.23438,0,.4248-.19043,.4248-.4248v-1.14551c1.52637-.20972,2.70996-1.50879,2.70996-3.0918,0-1.88086-1.51855-2.62793-3.00293-3.11035-1.6709-.54688-2.41699-1.25879-2.41699-2.30566,0-1.23914,.99658-2.24585,2.23047-2.27563,.01855,.00244,.03516,.01099,.05469,.01099,.021,0,.03857-.00903,.05859-.01196,.97803,.02515,1.82617,.65698,2.12109,1.59399,.06934,.22266,.30664,.34961,.5332,.27734,.22363-.07031,.34766-.30859,.27734-.5332-.36914-1.17407-1.37256-1.99768-2.56543-2.15845v-1.11987c0-.23438-.19043-.4248-.4248-.4248s-.4248,.19043-.4248,.4248v1.12891c-1.52637,.20947-2.70996,1.50659-2.70996,3.08789,0,2.12988,2.25977,2.87012,3.00293,3.11426,1.73926,.56543,2.41699,1.20996,2.41699,2.30176,0,1.25977-1.02539,2.28516-2.28516,2.28516-1.00781,0-1.90918-.67578-2.19238-1.64258-.06641-.22559-.30762-.35645-.52734-.28906-.22559,.06641-.35449,.30273-.28906,.52734,.34912,1.18896,1.37939,2.05078,2.58398,2.21851v1.13794c0,.23438,.19043,.4248,.4248,.4248Z"/></g></g></svg>