<?xml version="1.0" encoding="UTF-8"?><svg id="Layer_2" xmlns="http://www.w3.org/2000/svg" viewBox="0 0 22.95966 25.08301"><defs><style>.cls-1{fill:#783cbe;}</style></defs><g id="Layer_1-2"><g><path class="cls-1" d="M17.19989,13.39746c.06445,.16992,.22559,.27344,.39648,.27344,.05078,0,.10156-.00879,.15137-.02734,.21973-.08398,.3291-.33008,.24512-.54883-1.32715-3.47253-4.90332-6.55322-5.64014-7.16235l-.17773-1.48584c0-.01245,.00439-.02612,.00342-.03833l1.48633-3.83008c.05078-.12988,.0332-.27734-.0459-.39355-.0791-.11523-.20996-.18457-.35059-.18457H5.80536c-.1377,0-.26758,.06641-.34668,.17969-.08008,.1123-.09961,.25684-.05371,.38672l1.35352,3.83398c-.00146,.02002,.00439,.04309,.00488,.06409l-.125,1.40076C5.74189,6.7915-.45001,13.4021,.02606,18.92773c.16211,1.87988,1.08008,3.42578,2.72949,4.5957,1.27832,.90625,3.29004,1.35645,6.10254,1.35645,1.22559,0,2.60449-.08594,4.13965-.25586,.2334-.02637,.40137-.23633,.37598-.46973-.02637-.2334-.24121-.38965-.46973-.37598-4.8418,.53809-7.99805,.22754-9.65625-.94824-1.43555-1.01855-2.23535-2.35547-2.375-3.97461C.45966,14.06555,5.74433,8.07007,7.05439,6.66455c.37598,.27661,1.08203,.57471,2.41406,.57471,1.37842,0,2.11035-.28247,2.4873-.52905,.93066,.79492,4.07764,3.63757,5.24414,6.68726ZM6.40595,.84961h6.24121l-1.30566,3.36621c-.00195,.00574-.00098,.01208-.00293,.01782-.00977,.02954-.01172,.06055-.01514,.09229-.00195,.02148-.01123,.04224-.01025,.06372-.11719,.06836-.55176,.24609-1.84473,.24609-1.30078,0-1.72461-.17383-1.8457-.24805,.00098-.03125-.00879-.06189-.01416-.09302-.00391-.02051-.00293-.04211-.00928-.06152-.00098-.00195-.00049-.00391-.00098-.00562L6.40595,.84961Zm3.0625,5.54004c-1.33691,0-1.83691-.33008-1.9834-.45996l.05908-.66309c.44189,.146,1.07129,.21875,1.92432,.21875,.86865,0,1.50537-.0752,1.94775-.22656l.0874,.73145c-.2041,.1377-.75879,.39941-2.03516,.39941Z"/><path class="cls-1" d="M9.75653,19.87012c.23438,0,.4248-.19043,.4248-.4248v-.49878c.88574-.19531,1.55176-.98425,1.55176-1.92798,0-1.19922-.98535-1.6748-1.84473-1.95605-1.11523-.36328-1.25879-.80469-1.25879-1.14746,0-.61169,.49219-1.10669,1.10059-1.12158,.00928,.00061,.01709,.00537,.02637,.00537,.01074,0,.02002-.00537,.03076-.00623,.4375,.01221,.83008,.27283,1.00537,.67712,.09277,.21582,.34668,.31543,.55859,.2207,.21484-.09277,.31445-.34277,.2207-.55859-.25537-.59009-.78027-.99487-1.39062-1.13062v-.5022c0-.23438-.19043-.4248-.4248-.4248s-.4248,.19043-.4248,.4248v.48804c-.88574,.19531-1.55176,.98425-1.55176,1.92798,0,1.35449,1.38867,1.80664,1.84473,1.95605,1.04785,.3418,1.25879,.69238,1.25879,1.14746,0,.62109-.50586,1.12695-1.12695,1.12695-.46582,0-.87793-.28027-1.04883-.71484-.08594-.21777-.33008-.32227-.55176-.23926-.21777,.08691-.3252,.33301-.23926,.55176,.24658,.62378,.78174,1.04907,1.41504,1.18823v.51392c0,.23438,.19043,.4248,.4248,.4248Z"/><path class="cls-1" d="M18.69599,16.16797c-.43652,0-4.26465,.04004-4.26465,1.43262v6.04883c0,1.39355,3.82812,1.43359,4.26465,1.43359s4.26367-.04004,4.26367-1.43359v-6.04883c0-1.39258-3.82715-1.43262-4.26367-1.43262Zm3.42334,5.4093c-.15967,.2312-1.42725,.63953-3.42334,.63953-2.00684,0-3.28027-.41309-3.41504-.58301v-1.09131c1.15381,.48608,3.11035,.50732,3.41504,.50732,.30566,0,2.26807-.02148,3.4209-.51025l.00244,1.03772Zm-.00488-2.01257c-.17041,.23169-1.43311,.6355-3.41846,.6355-2.00684,0-3.28027-.41309-3.41504-.58301v-1.09058c1.15381,.48633,3.11035,.50757,3.41504,.50757,.30518,0,2.2627-.02124,3.41602-.50854l.00244,1.03906Zm-3.41846-2.54712c1.84082,0,3.06348,.34766,3.36816,.58301-.30371,.23633-1.52637,.58398-3.36816,.58398s-3.06543-.34766-3.36914-.58398c.30469-.23535,1.52734-.58301,3.36914-.58301Zm0,7.21582c-2.00781,0-3.28027-.41309-3.41504-.58398v-1.09033c1.15381,.48608,3.11035,.50732,3.41504,.50732,.30566,0,2.27344-.02148,3.42529-.51245l.00244,1.03491c-.14844,.23145-1.4209,.64453-3.42773,.64453Z"/><path class="cls-1" d="M17.59296,14.85803c-.01855,.24438,.16455,.45764,.40869,.47632,.24463,.01868,.45801-.16431,.47656-.40869s-.16455-.45764-.40869-.47632c-.24463-.01868-.45752,.16431-.47656,.40869Z"/></g></g></svg>