<?xml version="1.0" encoding="UTF-8"?><svg id="Layer_2" xmlns="http://www.w3.org/2000/svg" viewBox="0 0 23.80893 24.99707"><defs><style>.cls-1{fill:#783cbe;}</style></defs><g id="Layer_1-2"><g><path class="cls-1" d="M23.38413,21.7627c-.23438,0-.4248,.19043-.4248,.4248v.98145c0,.17969-.12109,.33691-.29395,.38281-2.97559,.79395-6.12207,.79492-9.09961,0-.17285-.0459-.29395-.20312-.29395-.38281v-.98145c0-.23438-.19043-.4248-.4248-.4248s-.4248,.19043-.4248,.4248v.98145c0,.56445,.37988,1.05957,.9248,1.20508,1.55957,.41504,3.16406,.62305,4.76855,.62305s3.20898-.20801,4.76855-.62305c.54492-.14551,.9248-.64062,.9248-1.20508v-.98145c0-.23438-.19043-.4248-.4248-.4248Z"/><path class="cls-1" d="M23.38413,18.74902c-.23438,0-.4248,.19043-.4248,.4248v.98145c0,.17871-.12109,.33594-.29395,.38281-2.97559,.79199-6.12207,.79395-9.09961-.00098-.17285-.0459-.29395-.20312-.29395-.38184v-.98145c0-.23438-.19043-.4248-.4248-.4248s-.4248,.19043-.4248,.4248v.98145c0,.56348,.37988,1.05859,.9248,1.20312,1.55957,.41699,3.16406,.625,4.76855,.625s3.20898-.20801,4.76855-.62402c.54492-.14551,.9248-.64062,.9248-1.2041v-.98145c0-.23438-.19043-.4248-.4248-.4248Z"/><path class="cls-1" d="M23.38413,15.73535c-.23438,0-.4248,.19043-.4248,.4248v.98145c0,.17871-.12109,.33594-.29395,.38281-2.97559,.79199-6.12207,.79395-9.09961-.00098-.17285-.0459-.29395-.20312-.29395-.38184v-.98145c0-.23438-.19043-.4248-.4248-.4248s-.4248,.19043-.4248,.4248v.98145c0,.56348,.37988,1.05859,.9248,1.20312,1.55957,.41699,3.16406,.625,4.76855,.625s3.20898-.20801,4.76855-.62402c.54492-.14551,.9248-.64062,.9248-1.2041v-.98145c0-.23438-.19043-.4248-.4248-.4248Z"/><path class="cls-1" d="M18.11557,12.45898c-2.74219,0-5.69336,.59961-5.69336,1.91699s2.95117,1.91699,5.69336,1.91699,5.69336-.59961,5.69336-1.91699-2.95117-1.91699-5.69336-1.91699Zm0,2.98438c-3.14648,0-4.84375-.75781-4.84375-1.06738s1.69727-1.06738,4.84375-1.06738,4.84375,.75781,4.84375,1.06738-1.69727,1.06738-4.84375,1.06738Z"/><path class="cls-1" d="M2.6185,10.68848c0,.23438,.19043,.4248,.4248,.4248h.58057c.18359,.58252,.49268,1.12012,.94287,1.55762,.70117,.68066,1.62109,1.05469,2.59766,1.05469,.01758,0,.03613-.00098,.05469-.00098,.88379-.0127,1.7373-.33984,2.40234-.9209,.17578-.15527,.19434-.42383,.04004-.60059-.1543-.17578-.42285-.19238-.60059-.04004-.5127,.44922-1.1709,.70215-1.85352,.71191-.75391-.00684-1.49609-.27734-2.04883-.81445-.28174-.27368-.49805-.59595-.64648-.94727h2.25195c.23438,0,.4248-.19043,.4248-.4248s-.19043-.4248-.4248-.4248h-2.45312c-.00684-.07593-.02441-.14954-.02539-.22656-.00146-.10022,.0166-.19531,.02539-.29297h2.45312c.23438,0,.4248-.19043,.4248-.4248s-.19043-.4248-.4248-.4248h-2.25732c.42871-1.02905,1.43555-1.7616,2.61865-1.77832,.66211-.02539,1.34668,.22266,1.87305,.6582,.17969,.15039,.44824,.12402,.59863-.05762,.14941-.18066,.12305-.44922-.05762-.59863-.68262-.56348-1.56934-.85742-2.42676-.85156-1.65137,.02271-3.02441,1.12976-3.49219,2.62793h-.57715c-.23438,0-.4248,.19043-.4248,.4248s.19043,.4248,.4248,.4248h.41895c-.00684,.10217-.02783,.20044-.02637,.30469,.00098,.073,.01904,.14258,.02441,.21484h-.41699c-.23438,0-.4248,.19043-.4248,.4248Z"/><path class="cls-1" d="M12.95932,12.55957V1.63086c0-.89941-.73145-1.63086-1.63184-1.63086H1.64292C.7435,0,.01206,.73145,.01206,1.63086v2.70215c0,.23438,.19043,.4248,.4248,.4248s.4248-.19043,.4248-.4248V1.63086c0-.43066,.35059-.78125,.78125-.78125H11.32749c.43164,0,.78223,.35059,.78223,.78125V12.55957c0,.23438,.19043,.4248,.4248,.4248s.4248-.19043,.4248-.4248Z"/><path class="cls-1" d="M11.43295,19.91797H1.64292c-.43066,0-.78125-.35059-.78125-.78125V7.8877c0-.23438-.19043-.4248-.4248-.4248S.01206,7.65332,.01206,7.8877v11.24902c0,.89941,.73145,1.63086,1.63086,1.63086H11.43295c.23438,0,.4248-.19043,.4248-.4248s-.19043-.4248-.4248-.4248Z"/><path class="cls-1" d="M17.2728,5.17383l1.26465,2.53809-1.94873,2.47839-.08838-.87878c-.02344-.23535-.25781-.41016-.46484-.38086-.23438,.02344-.4043,.23145-.38086,.46484l.18555,1.84961c.01074,.1123,.06641,.21582,.1543,.28711,.07617,.0625,.1709,.0957,.26855,.0957,.01367,0,.02832-.00098,.04199-.00195l1.81836-.18262c.23438-.02344,.4043-.23145,.38086-.46484-.02441-.23535-.25781-.41016-.46484-.38086l-.74854,.07495,2.08057-2.64624c.10156-.12891,.12012-.30469,.04688-.45215l-1.26562-2.54102,2.9668-3.85156c.14258-.18652,.1084-.45312-.07715-.59668-.1875-.14355-.45312-.10938-.59668,.07715l-3.12891,4.0625c-.09863,.12891-.11621,.30371-.04395,.44922Z"/><path class="cls-1" d="M1.92417,17.28906H10.95737c.23438,0,.4248-.19043,.4248-.4248s-.19043-.4248-.4248-.4248H1.92417c-.23438,0-.4248,.19043-.4248,.4248s.19043,.4248,.4248,.4248Z"/><path class="cls-1" d="M11.38217,2.83105c0-.23438-.19043-.4248-.4248-.4248H1.92417c-.23438,0-.4248,.19043-.4248,.4248s.19043,.4248,.4248,.4248H10.95737c.23438,0,.4248-.19043,.4248-.4248Z"/><path class="cls-1" d="M16.92905,3.75879c.98438,0,1.78418-.7998,1.78418-1.7832,0-.98438-.7998-1.78418-1.78418-1.78418-.9834,0-1.7832,.7998-1.7832,1.78418,0,.9834,.7998,1.7832,1.7832,1.7832Zm0-2.71777c.51562,0,.93457,.41895,.93457,.93457,0,.51465-.41895,.93359-.93457,.93359-.51465,0-.93359-.41895-.93359-.93359,0-.51562,.41895-.93457,.93359-.93457Z"/><path class="cls-1" d="M19.59702,5.11523c0,.98438,.7998,1.78418,1.78418,1.78418,.9834,0,1.7832-.7998,1.7832-1.78418,0-.9834-.7998-1.7832-1.7832-1.7832-.98438,0-1.78418,.7998-1.78418,1.7832Zm1.78418-.93359c.51465,0,.93359,.41895,.93359,.93359,0,.51562-.41895,.93457-.93359,.93457-.51562,0-.93457-.41895-.93457-.93457,0-.51465,.41895-.93359,.93457-.93359Z"/><path class="cls-1" d="M.40268,6.53345c.24023,.01831,.44971-.16138,.46777-.40149,.01855-.24011-.16113-.44958-.40137-.4679-.23975-.01831-.44922,.16138-.46777,.40137-.01855,.24011,.16162,.44958,.40137,.46802Z"/></g></g></svg>