<?xml version="1.0" encoding="UTF-8"?><svg id="Layer_2" xmlns="http://www.w3.org/2000/svg" viewBox="0 0 16.06445 24.95787"><defs><style>.cls-1{fill:#783cbe;}</style></defs><g id="Layer_1-2"><g><path class="cls-1" d="M8.0083,16.32505c.0083,.00049,.01514,.00488,.02393,.00488s.01562-.00439,.02393-.00488c.55762,.01367,1.0083,.46655,1.0083,1.02637,0,.23438,.19043,.4248,.4248,.4248s.4248-.19043,.4248-.4248c0-.89062-.62402-1.63477-1.45703-1.82837v-.44019c0-.23438-.19043-.4248-.4248-.4248s-.4248,.19043-.4248,.4248v.44019c-.83301,.1936-1.45703,.93774-1.45703,1.82837,0,1.28906,1.31738,1.71973,1.75,1.86133,.96875,.31543,1.16406,.63672,1.16406,1.05273,0,.56836-.46289,1.03125-1.03223,1.03125s-1.03223-.46289-1.03223-1.03125c0-.23438-.19043-.4248-.4248-.4248s-.4248,.19043-.4248,.4248c0,.89062,.62402,1.63477,1.45703,1.82837v.44995c0,.23438,.19043,.4248,.4248,.4248s.4248-.19043,.4248-.4248v-.44995c.83301-.1936,1.45703-.93774,1.45703-1.82837,0-1.14355-.93555-1.5957-1.75-1.86133-1.03125-.33691-1.16406-.73926-1.16406-1.05273,0-.55981,.45068-1.0127,1.0083-1.02637Z"/><path class="cls-1" d="M.76562,4.73423c.23633,.04883,.43555-.16504,.44824-.39941,.05664-.96484,.24219-1.68262,.36328-2.06445,3.44043,.62793,5.58594,1.87305,6.37988,3.7041,.75586,1.74487,.09766,3.64258-.39453,4.67456-.45215-1.07178-1.40039-3.00903-3.11621-5.25562-.14258-.18652-.40918-.22266-.5957-.08008s-.22266,.40918-.08008,.5957c1.7583,2.30225,2.68994,4.29407,3.08496,5.25977-2.80566-.32483-4.59863-1.54932-5.30859-3.66602-.0752-.22266-.31934-.34082-.53809-.26855-.22266,.0752-.34277,.31641-.26855,.53809,.61035,1.81836,2.27246,4.04199,6.72949,4.31543,.00879,.00098,.01758,.00098,.02637,.00098,.04199,0,.08496-.00586,.12793-.01953,.01562-.00488,.02686-.01636,.04102-.02271,.02051-.00903,.03857-.01929,.05713-.03149,.03857-.02466,.07031-.05371,.09814-.08838,.00879-.01025,.02148-.01514,.0293-.02637,.08887-.13281,2.16992-3.29492,.88965-6.25879C7.79883,3.4647,5.31836,2.02818,1.36816,1.37193c-.18652-.03125-.37988,.07031-.45801,.24707-.01855,.04199-.44922,1.0332-.54395,2.66699-.01367,.23438,.16504,.43457,.39941,.44824Z"/><path class="cls-1" d="M8.33008,3.58873c1.00781-.96973,2.87598-2.20508,6.10352-2.69043,.29004,1.13281,1.0498,4.8291-.59375,7.45215-.94531,1.50977-2.55273,2.43945-4.77637,2.76074-.23242,.03418-.39355,.24902-.36035,.48145,.03125,.21191,.21289,.36426,.41992,.36426,.02051,0,.04102-.00098,.06152-.00391,2.48438-.36035,4.29395-1.4209,5.37793-3.1543,2.16113-3.45508,.65039-8.29785,.58594-8.50195-.06348-.19629-.25195-.32031-.45996-.29297-3.68164,.47461-5.81055,1.87793-6.94824,2.97168-.16895,.16309-.17383,.43164-.01172,.60156,.16504,.16992,.43262,.17383,.60156,.01172Z"/><path class="cls-1" d="M14.86816,12.53013H1.19629c-.66016,0-1.19629,.53613-1.19629,1.19629,0,.53333,.35645,.96985,.83887,1.12402l2.00098,9.07715c.13184,.59668,.67188,1.03027,1.2832,1.03027h7.81836c.61133,0,1.15137-.43359,1.2832-1.03027l2.00098-9.07715c.48291-.15417,.83887-.59058,.83887-1.12402,0-.66016-.53613-1.19629-1.19629-1.19629Zm-2.47363,11.21387c-.04688,.21094-.2373,.36426-.45312,.36426H4.12305c-.21582,0-.40625-.15332-.45312-.36426L1.7251,14.92271h3.08643c.23438,0,.4248-.19043,.4248-.4248s-.19043-.4248-.4248-.4248H1.19629c-.19141,0-.34668-.15527-.34668-.34668s.15527-.34668,.34668-.34668H14.86816c.19141,0,.34668,.15527,.34668,.34668s-.15527,.34668-.34668,.34668c-.01318,0-.02441,.00635-.0376,.00757-.0293,.00269-.05664,.00854-.08447,.01709-.02539,.00781-.04932,.01636-.07275,.02856-.0249,.01306-.04639,.02869-.06836,.04639-.02051,.0166-.03906,.03308-.05615,.05298-.01807,.02124-.03223,.04395-.04639,.0686-.01318,.02429-.02441,.04834-.0332,.0752-.00391,.01294-.01318,.02295-.01611,.03662l-2.05859,9.33789Z"/><circle class="cls-1" cx=".79004" cy="6.09153" r=".44635"/></g></g></svg>