<?xml version="1.0" encoding="UTF-8"?><svg id="Layer_2" xmlns="http://www.w3.org/2000/svg" viewBox="0 0 25.09277 25.09375"><defs><style>.cls-1{fill:#783cbe;}</style></defs><g id="Layer_1-2"><g><path class="cls-1" d="M23.17969,6.70605c-.20996,.10547-.29395,.36133-.1875,.57031,.83008,1.64355,1.25098,3.41602,1.25098,5.26953,0,6.4502-5.24707,11.69824-11.69727,11.69824C6.09668,24.24414,.84961,18.99609,.84961,12.5459,.84961,6.09668,6.09668,.84961,12.5459,.84961c3.24414,0,6.26074,1.29785,8.49316,3.65332,.16211,.17188,.42969,.17676,.60059,.0166,.1709-.16113,.17773-.43066,.0166-.60059C19.26172,1.3916,16.02637,0,12.5459,0,5.62793,0,0,5.62793,0,12.5459c0,6.91895,5.62793,12.54785,12.5459,12.54785,6.91895,0,12.54688-5.62891,12.54688-12.54785,0-1.98828-.45117-3.88965-1.34277-5.65234-.10352-.20898-.3584-.29395-.57031-.1875Z"/><path class="cls-1" d="M22.63672,5.99475c.22217-.10327,.31885-.36646,.21582-.5885-.10352-.22205-.3667-.31866-.58887-.21539-.22168,.10327-.31836,.36639-.21533,.58844,.10352,.22211,.3667,.31866,.58838,.21545Z"/><path class="cls-1" d="M10.39062,9.00391c0-1.39844-1.1377-2.53613-2.53711-2.53613s-2.53711,1.1377-2.53711,2.53613c0,1.39941,1.1377,2.53711,2.53711,2.53711s2.53711-1.1377,2.53711-2.53711Zm-4.22461,0c0-.92969,.75684-1.68652,1.6875-1.68652s1.6875,.75684,1.6875,1.68652c0,.93066-.75684,1.6875-1.6875,1.6875s-1.6875-.75684-1.6875-1.6875Z"/><path class="cls-1" d="M17.23926,6.46777c-1.39941,0-2.53711,1.1377-2.53711,2.53613,0,1.39941,1.1377,2.53711,2.53711,2.53711s2.53711-1.1377,2.53711-2.53711c0-1.39844-1.1377-2.53613-2.53711-2.53613Zm0,4.22363c-.93066,0-1.6875-.75684-1.6875-1.6875,0-.92969,.75684-1.68652,1.6875-1.68652s1.6875,.75684,1.6875,1.68652c0,.93066-.75684,1.6875-1.6875,1.6875Z"/><path class="cls-1" d="M12.59961,21.02441c3.60449,0,6.53613-2.93164,6.53613-6.53613,0-.23438-.19043-.4248-.4248-.4248H6.4873c-.23438,0-.4248,.19043-.4248,.4248,0,3.60449,2.93262,6.53613,6.53711,6.53613Zm5.6709-6.11133c-.21875,2.9375-2.67871,5.26172-5.6709,5.26172-2.99316,0-5.45312-2.32422-5.67188-5.26172h11.34277Z"/></g></g></svg>