<?xml version="1.0" encoding="UTF-8"?><svg id="Layer_2" xmlns="http://www.w3.org/2000/svg" viewBox="0 0 27.84766 25.28125"><defs><style>.cls-1{fill:#783cbe;}</style></defs><g id="Layer_1-2"><g><path class="cls-1" d="M20.96777,5.1084c1.40918,0,2.55469-1.14551,2.55469-2.55371,0-1.40918-1.14551-2.55469-2.55469-2.55469-1.4082,0-2.55371,1.14551-2.55371,2.55469,0,1.4082,1.14551,2.55371,2.55371,2.55371Zm0-4.25879c.94043,0,1.70508,.76465,1.70508,1.70508,0,.93945-.76465,1.7041-1.70508,1.7041-.93945,0-1.7041-.76465-1.7041-1.7041,0-.94043,.76465-1.70508,1.7041-1.70508Z"/><path class="cls-1" d="M18.49121,11.21387c.0791,.11328,.20898,.18066,.34766,.18066l5.82422-.00879c.45605-.09375,1.31934-.51562,1.31934-1.44043,0-.90625-.77051-1.36035-1.17773-1.47363-.03711-.01074-.07617-.01562-.11426-.01562h-4.30273l-2.68164-3.82812c-.56934-.5332-2.00781-1.28027-3.36816-.28711-1.41992,1.03809-5.62988,4.2998-5.74316,4.40234-.03027,.03809-.75391,.95117-.5791,2.13281,.12207,.82812,.64258,1.56152,1.54785,2.17871,1.80371,1.23047,2.79297,1.86328,3.21094,2.125l-.7959,5.83691c.0293,.56641,.41211,1.67871,1.6543,1.83301,.08887,.01074,.1748,.0166,.25684,.0166,1.07812,0,1.61426-.8916,1.76074-1.44824l.88672-6.73047c.13379-.38965,.18457-1.19141-.47656-1.71875-.43652-.35059-1.67285-1.15137-2.38379-1.60645l3.21777-2.42676,1.59668,2.27832Zm-5.81641-.16016c-.11133,.08398-.1748,.2168-.16895,.35645s.08008,.26758,.19824,.3418c.02246,.01465,2.24805,1.41699,2.8252,1.87988,.35059,.28027,.21875,.7334,.18457,.8623l-.89355,6.75391c-.02637,.08887-.26855,.85352-1.08301,.75781-.82617-.10254-.90332-.94043-.91309-.95312l.8291-6.03223c.02344-.16895-.05664-.33496-.20312-.42188-.00879-.00586-.96582-.58105-3.4082-2.24707-.69727-.47461-1.0957-1.01074-1.18457-1.59082-.10742-.70508,.27148-1.30273,.375-1.45117,.46484-.35938,4.27734-3.31055,5.60742-4.2832,1.1123-.80762,2.21289,.15625,2.22754,.15625v-.00098l2.75098,3.94238c.0791,.11426,.20996,.18164,.34863,.18164h4.45508c.14062,.05273,.51074,.23145,.51074,.63965,0,.45117-.58789,.5957-.55859,.59961h-5.51465l-1.72168-2.45801c-.06543-.09375-.16699-.15723-.28125-.17578-.11426-.0166-.22949,.01074-.32227,.08105l-4.05957,3.06152Z"/><path class="cls-1" d="M22.67383,14.93359c-2.85254,0-5.17383,2.32129-5.17383,5.17383s2.32129,5.17383,5.17383,5.17383,5.17383-2.32129,5.17383-5.17383-2.32129-5.17383-5.17383-5.17383Zm0,9.49805c-2.38379,0-4.32422-1.94043-4.32422-4.32422s1.94043-4.32422,4.32422-4.32422,4.32422,1.94043,4.32422,4.32422-1.94043,4.32422-4.32422,4.32422Z"/><path class="cls-1" d="M5.17383,14.93359c-.55859,0-1.10742,.08789-1.63086,.26172-.22266,.07422-.34375,.31445-.26953,.53711s.31641,.34375,.53711,.26953c.4375-.14453,.89551-.21875,1.36328-.21875,2.38379,0,4.32422,1.94043,4.32422,4.32422s-1.94043,4.32422-4.32422,4.32422S.84961,22.49121,.84961,20.10742c0-.76172,.20117-1.51074,.58105-2.16602,.11719-.20312,.04785-.46289-.15527-.58105-.2002-.11523-.46289-.04688-.58105,.15527-.4541,.78418-.69434,1.68066-.69434,2.5918,0,2.85254,2.32129,5.17383,5.17383,5.17383s5.17383-2.32129,5.17383-5.17383-2.32129-5.17383-5.17383-5.17383Z"/><path class="cls-1" d="M2.19141,16.96783c.24707,0,.44678-.19958,.44678-.44641,0-.24677-.19971-.44635-.44678-.44635-.24658,0-.44629,.19958-.44629,.44635,0,.24683,.19971,.44641,.44629,.44641Z"/></g></g></svg>