<?xml version="1.0" encoding="UTF-8"?><svg id="Layer_2" xmlns="http://www.w3.org/2000/svg" viewBox="0 0 25.08105 25.08203"><defs><style>.cls-1{fill:#783cbe;}</style></defs><g id="Layer_1-2"><g><path class="cls-1" d="M23.16797,6.70312c-.20996,.10547-.29395,.36133-.1875,.57031,.83008,1.64258,1.25098,3.41406,1.25098,5.26758,0,6.44629-5.24512,11.69141-11.69141,11.69141S.84961,18.9873,.84961,12.54102,6.09375,.84961,12.54004,.84961c3.24219,0,6.25684,1.29688,8.48926,3.65137,.16211,.17188,.43066,.17676,.60059,.0166,.1709-.16211,.17773-.43066,.0166-.60059C19.25195,1.39062,16.01758,0,12.54004,0,5.625,0,0,5.62598,0,12.54102s5.625,12.54102,12.54004,12.54102,12.54102-5.62598,12.54102-12.54102c0-1.9873-.45117-3.88867-1.34277-5.65039-.10449-.20996-.35938-.29297-.57031-.1875Z"/><path class="cls-1" d="M10.41211,8.96777c0-1.39844-1.1377-2.53516-2.53613-2.53516s-2.53613,1.13672-2.53613,2.53516,1.1377,2.53613,2.53613,2.53613,2.53613-1.1377,2.53613-2.53613Zm-4.22266,0c0-.92969,.75684-1.68555,1.68652-1.68555s1.68652,.75586,1.68652,1.68555-.75684,1.68652-1.68652,1.68652-1.68652-.75684-1.68652-1.68652Z"/><path class="cls-1" d="M19.79297,8.96777c0-1.39844-1.13672-2.53516-2.53516-2.53516-1.39941,0-2.53711,1.13672-2.53711,2.53516s1.1377,2.53613,2.53711,2.53613c1.39844,0,2.53516-1.1377,2.53516-2.53613Zm-2.53516,1.68652c-.93066,0-1.6875-.75684-1.6875-1.68652s.75684-1.68555,1.6875-1.68555c.92969,0,1.68555,.75586,1.68555,1.68555s-.75586,1.68652-1.68555,1.68652Z"/><path class="cls-1" d="M22.62598,5.99207c.22217-.10321,.31885-.36621,.21533-.58813-.10303-.22198-.36621-.31854-.58789-.21533-.22217,.10321-.31885,.36621-.21533,.5882,.10303,.22198,.36621,.31848,.58789,.21527Z"/><path class="cls-1" d="M6.52148,20.11133c.23145,.05273,.45703-.08398,.51367-.3125,.61914-2.54688,2.8877-4.32617,5.5166-4.32617s4.89746,1.7793,5.5166,4.32617c.04785,.19434,.22168,.32422,.41309,.32422,.0332,0,.06641-.00391,.10059-.01172,.22754-.05566,.36816-.28516,.3125-.51367-.71191-2.92871-3.32031-4.97461-6.34277-4.97461s-5.63086,2.0459-6.34277,4.97461c-.05566,.22852,.08496,.45801,.3125,.51367Z"/></g></g></svg>