<?xml version="1.0" encoding="UTF-8"?><svg id="Layer_2" xmlns="http://www.w3.org/2000/svg" viewBox="0 0 25.0752 25.07715"><defs><style>.cls-1{fill:#783cbe;}</style></defs><g id="Layer_1-2"><g><path class="cls-1" d="M23.16309,6.70117c-.20996,.10547-.29395,.36133-.1875,.57031,.8291,1.64062,1.25,3.41309,1.25,5.2666,0,6.44531-5.24316,11.68945-11.6875,11.68945C6.09277,24.22754,.84961,18.9834,.84961,12.53809S6.09277,.84961,12.53809,.84961c3.24121,0,6.25488,1.29688,8.48633,3.65039,.16211,.17188,.43066,.17773,.60059,.0166,.1709-.16211,.17773-.43066,.0166-.60059C19.24805,1.39062,16.01465,0,12.53809,0,5.62402,0,0,5.62402,0,12.53809s5.62402,12.53906,12.53809,12.53906c6.91309,0,12.53711-5.625,12.53711-12.53906,0-1.98828-.45117-3.88965-1.3418-5.64941-.10449-.20996-.35938-.29395-.57031-.1875Z"/><path class="cls-1" d="M10.41016,8.96582c0-1.39844-1.1377-2.53516-2.53613-2.53516s-2.53613,1.13672-2.53613,2.53516,1.1377,2.53516,2.53613,2.53516,2.53613-1.13672,2.53613-2.53516Zm-4.22266,0c0-.92969,.75684-1.68555,1.68652-1.68555s1.68652,.75586,1.68652,1.68555-.75684,1.68555-1.68652,1.68555-1.68652-.75586-1.68652-1.68555Z"/><path class="cls-1" d="M19.78906,8.96582c0-1.39844-1.13672-2.53516-2.53516-2.53516s-2.53613,1.13672-2.53613,2.53516,1.1377,2.53516,2.53613,2.53516,2.53516-1.13672,2.53516-2.53516Zm-2.53516,1.68555c-.92969,0-1.68652-.75586-1.68652-1.68555s.75684-1.68555,1.68652-1.68555,1.68555,.75586,1.68555,1.68555-.75586,1.68555-1.68555,1.68555Z"/><path class="cls-1" d="M22.62109,5.99072c.22217-.10315,.31836-.36615,.21533-.58807-.10303-.22186-.36621-.31842-.58789-.21521-.22217,.10315-.31836,.36615-.21533,.58801,.10303,.22192,.36621,.31848,.58789,.21527Z"/><path class="cls-1" d="M12.53711,20.13672c3.02148,0,5.62988-2.0459,6.34375-4.97461,.05566-.22852-.08398-.45801-.3125-.51367-.23242-.05273-.45703,.08398-.51367,.3125-.62012,2.54688-2.88965,4.32617-5.51758,4.32617-2.62891,0-4.89746-1.7793-5.5166-4.32617-.05566-.22852-.28613-.36621-.51367-.3125-.22754,.05566-.36816,.28516-.3125,.51367,.71289,2.92871,3.32031,4.97461,6.34277,4.97461Z"/></g></g></svg>