<?xml version="1.0" encoding="UTF-8"?><svg id="Layer_2" xmlns="http://www.w3.org/2000/svg" viewBox="0 0 21.28607 24.90564"><defs><style>.cls-1{fill:#783cbe;}</style></defs><g id="Layer_1-2"><g><path class="cls-1" d="M.88509,9.7533c-.11523-1.37305,.04492-2.40625,.56934-3.6875,.08887-.21777-.01562-.46582-.23242-.55469-.21582-.08691-.46484,.01562-.55469,.23242C.09505,7.14294-.08757,8.32459,.03743,9.82361c.33984,4.04102,2.83203,7.2168,4.86426,9.16895,.6582,.63281,.46777,1.64258,.46191,1.67188l-.58008,3.75098c-.03613,.23242,.12305,.44922,.35449,.48535,.02246,.00391,.04395,.00488,.06641,.00488,.20605,0,.38672-.15039,.41895-.35938l.57617-3.73047c.0127-.05957,.29199-1.47461-.70898-2.43652-1.92676-1.85059-4.28906-4.84961-4.60547-8.62598Z"/><path class="cls-1" d="M18.48861,8.11951l-.01367-.25391c-.02441-.48242-.04883-.93262-.08691-1.14648-.38281-2.17578-1.66211-4.05664-3.60254-5.29688C12.85579,.18982,10.50228-.26428,8.15755,.1488c-2.10742,.37109-3.98535,1.28809-5.44629,2.66699l-.06934,.07324c-.16309,.16895-.12988,.41016,.04004,.57227,.16992,.16309,.46387,.12793,.62793-.04102,1.32422-1.25098,3.05176-2.0918,4.99414-2.43359,2.13867-.37598,4.27344,.03223,6.02344,1.15137,1.73828,1.11133,2.88281,2.79004,3.22363,4.72852,.03125,.18066,.06055,.74121,.0752,1.04199l.01855,.30371c.20801,1.30664,1.02539,2.71094,2.56445,4.39453l-1.09863,.73926c-.12305,.08301-.19434,.22363-.1875,.37207l.07031,1.54688-.47559,.35547c-.0957,.07129-.15723,.17969-.16895,.29785-.01172,.11914,.02637,.2373,.10547,.32617l.37305,.41699,.04004,2.32227-3.07227,.64355c-1.54102,.53516-1.60742,2.36523-1.60449,2.38672l-.3877,2.39941c-.03711,.23145,.12012,.44922,.35254,.4873,.02246,.00293,.04492,.00488,.06836,.00488,.2041,0,.38477-.14844,.41895-.35742l.39258-2.45508c0-.01367,.04688-1.31836,.98633-1.64844l3.36328-.70117c.19922-.04199,.3418-.21973,.33789-.42383l-.04883-2.83105c-.00195-.10156-.04004-.19922-.10742-.27539l-.16895-.18848,.28418-.21289c.11328-.08496,.17676-.21973,.1709-.36035l-.06934-1.5332,1.31445-.88477c.10352-.06934,.17188-.18164,.18555-.30664,.01367-.12402-.02832-.24805-.11523-.33887-1.63672-1.71777-2.49023-3.08691-2.67969-4.26855Z"/><path class="cls-1" d="M1.84017,4.81104c.24316-.01862,.42529-.23077,.40674-.47394s-.23096-.42523-.47412-.40662c-.24316,.01855-.4248,.23077-.40625,.47394s.23047,.42517,.47363,.40662Z"/></g></g></svg>