<?xml version="1.0" encoding="UTF-8"?><svg id="Layer_2" xmlns="http://www.w3.org/2000/svg" viewBox="0 0 9.78418 25.06152"><defs><style>.cls-1{fill:#783cbe;}</style></defs><g id="Layer_1-2"><g><path class="cls-1" d="M4.8916,5.58691c1.53906,0,2.79102-1.25195,2.79102-2.7959,0-1.53906-1.25195-2.79102-2.79102-2.79102-1.53809,0-2.79004,1.25195-2.79004,2.79688,0,1.53809,1.25195,2.79004,2.79004,2.79004ZM4.8916,.84961c1.07031,0,1.94141,.87109,1.94141,1.94727,0,1.07031-.87109,1.94043-1.94141,1.94043s-1.94043-.87012-1.94043-1.94629c0-1.07031,.87012-1.94141,1.94043-1.94141Z"/><path class="cls-1" d="M5.78516,6.3418h-1.78711c-.51953,0-1.02148,.09766-1.49121,.29004-.2168,.08887-.32129,.33789-.23242,.55469s.33887,.32129,.55469,.23242c.36719-.15137,.76074-.22754,1.16895-.22754h1.78711c1.73633,0,3.14941,1.41309,3.14941,3.14941v3.57422c0,.31934-.07715,1.3623-1.06445,1.3623h-.07129v-3.54688c0-.23438-.19043-.4248-.4248-.4248s-.4248,.19043-.4248,.4248v10.9209c0,.86035-.55176,1.56055-1.23047,1.56055h-.40234v-7.51758c0-.23438-.19043-.4248-.4248-.4248s-.4248,.19043-.4248,.4248v7.51758h-.40234c-.67773,0-1.22949-.7002-1.22949-1.56055V11.73047c0-.23438-.19043-.4248-.4248-.4248s-.4248,.19043-.4248,.4248v3.52405c-.64355-.10834-1.13574-.66577-1.13574-1.33948v-3.57422c0-.20898,.02051-.41797,.06055-.62109,.0459-.23047-.10449-.45312-.33496-.49902-.23438-.05273-.4541,.10449-.49902,.33496-.05078,.25684-.07617,.52051-.07617,.78516v3.57422c0,1.1424,.87354,2.07416,1.98535,2.18909v6.54724c0,1.3291,.93262,2.41016,2.0791,2.41016h1.6543c1.14746,0,2.08008-1.08105,2.08008-2.41016v-6.52441h.07129c1.14453,0,1.91406-.88867,1.91406-2.21191v-3.57422c0-2.20508-1.79395-3.99902-3.99902-3.99902Z"/><path class="cls-1" d="M1.17627,8.43591c.25635,.01489,.47607-.18073,.49121-.43695,.01465-.25629-.18066-.47614-.43701-.49103-.25635-.01495-.47607,.18066-.49121,.43695-.01465,.25623,.18066,.47607,.43701,.49103Z"/></g></g></svg>