<?xml version="1.0" encoding="UTF-8"?><svg id="Layer_2" xmlns="http://www.w3.org/2000/svg" viewBox="0 0 25.09473 25.09668"><defs><style>.cls-1{fill:#783cbe;}</style></defs><g id="Layer_1-2"><g><path class="cls-1" d="M23.18164,6.70703c-.20996,.10547-.29395,.36133-.1875,.57031,.83008,1.6416,1.25098,3.41406,1.25098,5.27051,0,6.45117-5.24707,11.69922-11.69727,11.69922S.84961,18.99902,.84961,12.54785C.84961,6.09766,6.09766,.84961,12.54785,.84961c3.24414,0,6.26074,1.29785,8.49414,3.6543,.16211,.17188,.43066,.17773,.60059,.0166,.1709-.16113,.17773-.43066,.0166-.60059C19.26367,1.3916,16.02832,0,12.54785,0,5.62891,0,0,5.62891,0,12.54785c0,6.91992,5.62891,12.54883,12.54785,12.54883s12.54688-5.62891,12.54688-12.54883c0-1.99023-.45117-3.89258-1.34277-5.65332-.10449-.20996-.36426-.29297-.57031-.1875Z"/><path class="cls-1" d="M22.63965,5.99542c.22217-.10327,.31836-.36646,.21533-.5885-.10303-.22211-.3667-.31873-.58838-.21545-.22217,.10327-.31885,.36646-.21582,.58856,.10352,.22205,.3667,.31866,.58887,.21539Z"/><path class="cls-1" d="M6.39355,18.20215h12.06738c.23438,0,.4248-.19043,.4248-.4248s-.19043-.4248-.4248-.4248H6.39355c-.23438,0-.4248,.19043-.4248,.4248s.19043,.4248,.4248,.4248Z"/><path class="cls-1" d="M5.31738,8.97266c0,1.39941,1.13867,2.53711,2.53809,2.53711,1.39844,0,2.53613-1.1377,2.53613-2.53711,0-.36639-.08154-.71277-.22168-1.02759l.73633,.73657c.08301,.08301,.19238,.12402,.30078,.12402s.21777-.04102,.30078-.12402c.16602-.16602,.16602-.43555,0-.60156l-3.88965-3.89062c-.16602-.16602-.43555-.16602-.60156,0s-.16602,.43555,0,.60156l1.86572,1.86627c-.31445-.14026-.66064-.22174-1.02686-.22174-1.39941,0-2.53809,1.1377-2.53809,2.53711Zm2.53809,1.6875c-.93066,0-1.68848-.75684-1.68848-1.6875s.75781-1.6875,1.68848-1.6875c.92969,0,1.68652,.75684,1.68652,1.6875s-.75684,1.6875-1.68652,1.6875Z"/><path class="cls-1" d="M19.77832,8.97266c0-1.39941-1.1377-2.53711-2.53613-2.53711-.39893,0-.77197,.10083-1.1084,.26562l1.91016-1.91016c.16602-.16602,.16602-.43555,0-.60156s-.43555-.16602-.60156,0l-3.88965,3.88965c-.16602,.16602-.16602,.43555,0,.60156,.08301,.08301,.19238,.12402,.30078,.12402s.21777-.04102,.30078-.12402l.81494-.81482c-.16455,.33588-.26514,.70825-.26514,1.10681,0,1.39941,1.13867,2.53711,2.53809,2.53711,1.39844,0,2.53613-1.1377,2.53613-2.53711Zm-2.53613,1.6875c-.93066,0-1.68848-.75684-1.68848-1.6875s.75781-1.6875,1.68848-1.6875c.92969,0,1.68652,.75684,1.68652,1.6875s-.75684,1.6875-1.68652,1.6875Z"/></g></g></svg>