<?xml version="1.0" encoding="UTF-8"?><svg id="Layer_2" xmlns="http://www.w3.org/2000/svg" viewBox="0 0 21.42195 25.07123"><defs><style>.cls-1{fill:#783cbe;}</style></defs><g id="Layer_1-2"><g><path class="cls-1" d="M14.73781,9.14448c.32715-.11621,.58887-.35254,.7373-.66504,.14551-.30762,.16406-.65137,.05078-.9668l-.12988-.36719c-.09668-.27344-.28711-.50488-.53418-.65527-.01465-.21582-.05859-.42871-.13184-.63574-.41797-1.18066-1.69727-1.81934-2.89941-1.5-.8877-.89062-2.24023-1.20312-3.45996-.77051-.63965,.22754-1.19531,.64453-1.58887,1.18848-.4043-.01855-.80273,.04297-1.18945,.18066-1.62402,.57617-2.48438,2.3457-1.91699,3.94531,.25293,.71094,.76855,1.30566,1.43457,1.66504,.0127,.07227,.03125,.14453,.05566,.21484l.13086,.36621c.11426,.32129,.34863,.57812,.66211,.72266,.17285,.08105,.3584,.12109,.54492,.12109,.14648,0,.29297-.02441,.43457-.0752l1.62402-.57587,.2627,1.47821c.02441,.13867,.11523,.25488,.24316,.31348,.12793,.05664,.27637,.04785,.39551-.02441l.91504-.55664,.47656,4.28125c.02441,.21191,.2002,.37305,.41309,.37793h.00977c.20898,0,.3877-.15234,.41992-.35938l1.09766-7.01337,1.94238-.68976Zm-8.08398,1.96777c-.1084,.04004-.23047,.0332-.33789-.01562-.10352-.04785-.18164-.13281-.21875-.2373l-.12988-.36426c-.01953-.05469-.02734-.11328-.02246-.17285,.01367-.18066-.08887-.35059-.25586-.42285-.5752-.24707-1.00586-.7041-1.21289-1.28516-.41016-1.15723,.21777-2.44043,1.40137-2.86035,.34668-.12402,.7002-.16309,1.06543-.11523,.16699,.02148,.33105-.05762,.41699-.20215,.29492-.48535,.75488-.85938,1.29492-1.05176,.98047-.34766,2.07227-.05176,2.71973,.73145,.11523,.13867,.38184,.1582,.5498,.09863,.82715-.28906,1.7207,.125,2.00488,.9248,.06836,.19336,.09668,.39355,.08496,.5957-.0127,.19629,.1123,.37598,.30078,.43262,.13379,.04102,.23633,.13574,.28027,.26074l.12988,.36816c.03711,.10352,.03027,.21582-.01758,.31738-.05176,.1084-.1416,.18945-.25488,.22949l-1.52686,.54218c0-.14014-.05615-.27533-.17529-.35565-.13672-.0918-.31641-.09473-.45703-.00977l-1.35742,.8252-.39355-3.05566c-.01855-.14258-.1084-.26562-.23828-.32812-.12793-.0625-.2832-.05469-.4043,.01953l-1.81836,1.10645c-.15039,.0918-.22852,.26465-.19727,.4375l.52686,2.96399-1.75732,.62292Zm4.69531,2.46875l-.19922-1.78906c-.0166-.14453-.10547-.27051-.23535-.33496-.05957-.02832-.12305-.04297-.1875-.04297-.07715,0-.15332,.02051-.2207,.06152l-.9541,.58008-.78027-4.39258,1.01074-.61523,.39355,3.05566c.01855,.14258,.1084,.26562,.2373,.32812,.13086,.06348,.28223,.05469,.40527-.01953l1.13379-.68945-.60352,3.8584Z"/><path class="cls-1" d="M.88039,9.81733c-.11133-1.32129,.08594-2.58203,.58594-3.74609,.09277-.21582-.00781-.46582-.22266-.55859-.21777-.09375-.4668,.00684-.55859,.22266C.13039,7.02924-.08933,8.4267,.03274,9.88764c.3418,4.06934,2.85059,7.26465,4.89551,9.22949,.66504,.6377,.47266,1.65723,.4668,1.6875l-.58398,3.77734c-.03613,.23145,.12305,.44824,.35547,.48438,.02148,.00391,.04297,.00488,.06543,.00488,.20605,0,.38672-.15039,.41895-.36035l.58008-3.75586c.0127-.05957,.29395-1.4834-.71387-2.45117-1.93945-1.86328-4.31836-4.88184-4.63672-8.68652Z"/><path class="cls-1" d="M18.605,8.17182l-.01367-.25586c-.02441-.48438-.04883-.9375-.08691-1.1543-.38574-2.18945-1.67285-4.08301-3.62695-5.33105C12.93508,.18842,10.56008-.2647,8.20656,.14936c-2.12109,.37305-4.01172,1.2959-5.46777,2.66895-.16992,.16113-.17871,.43066-.01758,.60156,.16113,.16895,.43066,.17871,.60156,.01758,1.33398-1.25977,3.07422-2.10645,5.03027-2.4502,2.1543-.37793,4.30371,.03223,6.06738,1.15918,1.75,1.11914,2.90332,2.80957,3.24609,4.7627,.03223,.18262,.05957,.72559,.07617,1.0498l.01855,.30566c.20996,1.31641,1.03418,2.73145,2.58398,4.42578l-1.1084,.74609c-.12305,.08301-.19434,.22363-.1875,.37207l.07031,1.55957-.47949,.3584c-.0957,.07129-.15723,.17969-.16895,.29785-.01172,.11914,.02637,.2373,.10547,.32617l.37598,.4209,.04004,2.3418-3.0957,.64844c-1.5498,.53809-1.61621,2.37891-1.61328,2.40137l-.39062,2.41602c-.03711,.23145,.12012,.44922,.35254,.4873,.02246,.00293,.04492,.00488,.06836,.00488,.2041,0,.38477-.14844,.41895-.35742l.39551-2.4707c0-.01367,.05664-1.33398,.99512-1.66406l3.38672-.70605c.19922-.04199,.3418-.21973,.33789-.42285l-.04883-2.85059c-.00195-.10254-.04004-.2002-.10742-.27637l-.17188-.19238,.28809-.21582c.11328-.08496,.17676-.21875,.1709-.36035l-.06934-1.5459,1.32422-.8916c.10352-.07031,.17188-.18164,.18555-.30664,.01367-.12402-.0293-.24805-.11523-.33887-1.64844-1.72949-2.50684-3.1084-2.69922-4.2998Z"/><path class="cls-1" d="M1.86623,4.80256c.24463,.01868,.4585-.16455,.47705-.40924,.01855-.24475-.16455-.45831-.40918-.47699-.24463-.01874-.4585,.16449-.47705,.40924-.01855,.24469,.16455,.45825,.40918,.47699Z"/></g></g></svg>