<?xml version="1.0" encoding="UTF-8"?><svg id="Layer_2" xmlns="http://www.w3.org/2000/svg" viewBox="0 0 19.78027 27.49061"><defs><style>.cls-1{fill:#783cbe;}</style></defs><g id="Layer_1-2"><g><path class="cls-1" d="M12.95068,21.01996c2.07471-.54053,5.25244-1.76929,5.60889-2.711,.3623-.95605-.19043-3.00977-1.59375-7.99512-.19531-.58997-.44824-1.10699-.74023-1.56262l2.39746-4.73523c.08691-.1709,.04883-.37793-.09277-.50586C14.12207-.5133,9.57129-.35705,6.52832,.48182c-.19629,.05469-.3877,.1123-.57812,.17188-.22363,.07129-.34766,.31055-.27637,.53418,.07031,.22363,.3125,.34863,.53418,.27637,.17871-.05762,.36035-.11133,.54688-.16211,4.02539-1.11133,7.71289-.22754,10.96289,2.62109l-2.06348,4.07532c-2.08496-2.39594-5.29834-2.54352-5.35059-2.54504h-.84082c-.04248,.00159-3.44629,.15369-5.52295,2.76929L1.47266,3.92908c.27832-.21387,.76074-.56055,1.40234-.94531,.20215-.12012,.26758-.38086,.14648-.58203-.11914-.20215-.37988-.2666-.58203-.14648-1.11523,.66699-1.7666,1.22266-1.79395,1.24609-.15527,.13281-.19434,.35742-.0918,.53418l2.8584,4.97357c-.23145,.39819-.44043,.83087-.60352,1.3233-1.39746,4.96777-1.9502,7.02246-1.58789,7.97656,.35156,.92792,3.53027,2.21826,5.62695,2.74756-2.20166,.42328-6.84766,1.81207-6.84766,6.00928,0,.23438,.19043,.4248,.4248,.4248s.4248-.19043,.4248-.4248c0-3.37115,3.80859-4.65662,5.88428-5.10852l2.8335,3.29993c.08008,.09375,.1875,.12891,.32227,.14746,.12012,0,.23535-.05078,.31641-.14062l3.01172-3.35437c2.14648,.36865,5.71289,1.52356,5.71289,5.15613,0,.23438,.19043,.4248,.4248,.4248s.4248-.19043,.4248-.4248c0-4.44269-4.54004-5.69562-6.82959-6.04584ZM5.20996,12.94037c1.44727-1.026,3.67383-2.84216,4.7002-4.92438,.77246,1.22601,2.50684,3.64783,4.85059,5.09528-.04492,.05615-.08154,.11969-.09277,.19574-.34668,2.4541-1.9707,5.0957-4.71582,5.0957-2.74463,0-4.41602-3.17572-4.74219-5.46234Zm-3.19434,5.06683c-.27734-.73047,.51465-3.54688,1.60547-7.42578,1.34668-4.06934,5.68652-4.27148,5.85547-4.27832h.8125c.18359,.00684,4.52344,.20898,5.86426,4.25977,1.09668,3.89746,1.88867,6.71289,1.61328,7.44141-.26367,.53577-3.63428,1.96289-5.69141,2.354v-1.59485c1.93848-.95288,3.10156-3.1543,3.42041-5.25604,.16748,.08337,.32861,.18024,.50146,.25177,.21582,.09082,.46484-.0127,.55469-.23047,.08984-.2168-.0127-.46484-.23047-.55469-3.56836-1.47754-6.08398-6.06543-6.1084-6.11133-.08203-.14941-.23242-.23828-.41406-.2207-.16992,.01562-.31348,.13184-.36523,.29395-1.01562,3.19922-5.94629,6.12598-5.99609,6.15527-.20312,.11816-.27051,.37891-.15137,.58105,.0791,.13477,.2207,.20996,.36621,.20996,.07324,0,.14746-.01855,.21484-.05859,.04004-.02332,.25244-.15027,.5708-.35712,.38477,2.02405,1.50342,4.0481,3.14697,5.08069v1.81012c-2.02002-.39032-5.31592-1.81415-5.56934-2.3501Zm7.88086,6.32812l-2.19629-2.55743c.21143-.03101,.33936-.04425,.34863-.0451,.21875-.02051,.38574-.20312,.38574-.42285v-2.33807c.47412,.17749,.97949,.28046,1.51758,.28046,.45117,0,.87402-.06329,1.27344-.17108v2.2287c0,.23047,.18359,.41895,.41406,.4248,.04492,.00116,.25537,.01038,.55762,.03802l-2.30078,2.56256Z"/><path class="cls-1" d="M9.83887,1.6449c-.23438,0-.4248,.19043-.4248,.4248v.70312h-.81055c-.23438,0-.4248,.19043-.4248,.4248s.19043,.4248,.4248,.4248h.81055v.70312c0,.23438,.19043,.4248,.4248,.4248s.4248-.19043,.4248-.4248v-.70312h.81055c.23438,0,.4248-.19043,.4248-.4248s-.19043-.4248-.4248-.4248h-.81055v-.70312c0-.23438-.19043-.4248-.4248-.4248Z"/><path class="cls-1" d="M4.3335,2.23304c.25537,.01495,.47461-.18024,.48975-.43585,.01465-.25562-.18018-.47491-.43604-.48981-.25537-.01489-.4751,.18024-.48975,.43585-.01514,.25562,.18018,.47491,.43604,.48981Z"/></g></g></svg>