<svg width="67" height="67" xmlns="http://www.w3.org/2000/svg" xmlns:xlink="http://www.w3.org/1999/xlink" xml:space="preserve" overflow="hidden"><defs><clipPath id="clip0"><rect x="895" y="184" width="67" height="67"/></clipPath></defs><g clip-path="url(#clip0)" transform="translate(-895 -184)"><path d="M62.1002 41.5535 60.2594 41.5535C60.0434 41.2244 59.8084 40.9079 59.5556 40.6061 59.319 40.295 59.0658 39.997 58.7976 39.7127L59.4473 37.9802C59.5964 37.5571 59.454 37.0858 59.0954 36.8162 58.1173 36.1026 57.029 35.5541 55.8739 35.1919 55.4449 35.039 54.9665 35.1946 54.7099 35.5709L53.6541 37.0869C52.8818 36.9783 52.0984 36.9783 51.3261 37.0869L50.3786 35.4897C50.1347 35.1126 49.6745 34.9375 49.2416 35.0566 48.0402 35.366 46.8973 35.8687 45.8578 36.5455 45.4807 36.7894 45.3055 37.2496 45.4246 37.6824L45.9661 39.4691C45.3832 39.984 44.8729 40.576 44.4501 41.2287L42.6093 40.9851C42.1634 40.9239 41.7317 41.1675 41.5535 41.5806 41.0489 42.6851 40.7287 43.8648 40.6061 45.0727 40.5584 45.5235 40.8113 45.9523 41.2287 46.1285L42.9612 46.8323C42.9961 47.6071 43.142 48.3729 43.3943 49.1063L42.0679 50.4057C41.7449 50.7137 41.6575 51.1948 41.8513 51.5968 42.1434 52.1455 42.4785 52.6707 42.8529 53.1669 43.2227 53.6663 43.6301 54.1368 44.0711 54.5745 44.403 54.8831 44.8978 54.9381 45.2893 54.7099L46.8865 53.8166C47.5278 54.2724 48.2292 54.6371 48.9709 54.8994L49.1333 56.7402C49.1739 57.1861 49.5056 57.5507 49.9455 57.6335 50.6753 57.7859 51.4197 57.8585 52.1653 57.8501 52.6612 57.8777 53.1582 57.8777 53.6541 57.8501 54.0978 57.7951 54.4514 57.4527 54.5204 57.0109L54.8182 55.1701C55.5364 54.9156 56.2185 54.5699 56.8485 54.1414L58.4186 55.1701C58.7694 55.4411 59.2589 55.4411 59.6097 55.1701 60.5455 54.3953 61.3579 53.4825 62.019 52.463 62.2854 52.1006 62.2854 51.6073 62.019 51.2448L60.7737 49.8642C61.0699 49.1447 61.2702 48.3892 61.3693 47.6174L63.1289 47.0489C63.5477 46.8967 63.8208 46.4926 63.8057 46.0473 63.7759 44.8072 63.5379 43.5809 63.1018 42.4198 63.0336 41.9201 62.6045 41.5489 62.1002 41.5535ZM60.097 45.7224C59.6996 45.8453 59.4197 46.2008 59.3931 46.6158 59.3252 47.5567 59.0769 48.4755 58.6622 49.3228 58.48 49.6996 58.5442 50.149 58.8246 50.4598L59.9887 51.7321C59.6752 52.1536 59.3314 52.5516 58.96 52.9232L57.4982 51.9758C57.1536 51.7473 56.7058 51.7473 56.3612 51.9758 55.5567 52.5602 54.6319 52.9579 53.6541 53.1398 53.2535 53.2462 52.9484 53.5721 52.8691 53.979L52.5984 55.6844C52.0759 55.725 51.5507 55.725 51.0283 55.6844L50.92 54.1414C50.8718 53.7324 50.584 53.3916 50.1891 53.2752 49.2478 53.0055 48.3724 52.5448 47.6174 51.9216 47.2728 51.6931 46.825 51.6931 46.4804 51.9216L44.9644 52.7608 44.4772 52.1382C44.3175 51.9324 44.1726 51.7151 44.044 51.4885L45.2893 50.2974C45.5833 50.0074 45.6694 49.5667 45.5059 49.1875 45.1266 48.289 44.942 47.3201 44.9644 46.3451 44.981 45.9287 44.7305 45.5478 44.3418 45.3976L42.7176 44.7208C42.7176 44.2065 42.9612 43.7192 43.1236 43.2048L44.8562 43.4214C45.2682 43.498 45.6799 43.2866 45.8578 42.9071 46.338 42.0579 46.982 41.3126 47.7527 40.7143 48.0773 40.4572 48.2159 40.0303 48.1046 39.6315L47.6174 37.899C48.0749 37.6391 48.5551 37.4215 49.0521 37.2493L49.9455 38.7382C50.1664 39.0825 50.5702 39.2631 50.9741 39.1984 51.9303 39.0086 52.9146 39.0086 53.8707 39.1984 54.2727 39.2937 54.692 39.1323 54.9265 38.7923L55.9281 37.3846C56.4151 37.5739 56.8783 37.8191 57.3087 38.1156L56.7402 39.7127C56.5721 40.1017 56.6828 40.5549 57.0109 40.8226 57.3701 41.151 57.6966 41.5137 57.9855 41.9055 58.2792 42.2942 58.5331 42.7113 58.7434 43.1507 58.9237 43.5229 59.3046 43.7557 59.718 43.7463L61.4505 43.7463C61.5807 44.2541 61.6803 44.7695 61.7483 45.2893Z" fill="#793CBD" transform="matrix(1.04167 0 0 1 895.268 184)"/><path d="M52.9232 41.0933C51.5724 40.9076 50.2026 41.2574 49.1063 42.0679 47.998 42.8854 47.266 44.115 47.076 45.4788 46.8624 46.831 47.2148 48.2113 48.0505 49.2958 48.8366 50.4433 50.0605 51.2167 51.4343 51.4343 51.6864 51.4611 51.9403 51.4611 52.1923 51.4343 53.2992 51.4238 54.3764 51.0743 55.2784 50.4327 57.5664 48.7167 58.0382 45.4747 56.3341 43.1778 55.5047 42.0733 54.2843 41.3275 52.9232 41.0933ZM54.1414 48.7273C52.7573 49.7616 50.7974 49.4834 49.756 48.1046 48.7186 46.7119 48.9964 44.7435 50.3786 43.6921 50.9316 43.2991 51.5949 43.0906 52.2735 43.0966L52.7337 43.0966C53.5553 43.2097 54.2968 43.6488 54.7911 44.3147 55.2838 44.9839 55.4885 45.822 55.3596 46.6428 55.2659 47.4785 54.8236 48.2357 54.1414 48.7273Z" fill="#793CBD" transform="matrix(1.04167 0 0 1 895.268 184)"/><path d="M25.1758 29.7778C33.3687 29.7775 40.0102 23.1354 40.01 14.9424 40.0094 6.7494 33.3676 0.107942 25.1745 0.108283 17.0346 0.108622 10.4153 6.66806 10.341 14.8077 10.2663 23.0004 16.8471 29.7025 25.0398 29.7772 25.0851 29.7775 25.1304 29.7778 25.1758 29.7778ZM25.1758 2.30101C32.098 2.30103 37.7095 7.91258 37.7095 14.8348 37.7095 21.757 32.098 27.3685 25.1757 27.3685 18.2535 27.3685 12.642 21.7569 12.642 14.8347 12.642 14.8257 12.642 14.8167 12.642 14.8077 12.642 7.90045 18.2414 2.301 25.1487 2.30098 25.1577 2.30098 25.1667 2.30099 25.1758 2.30101Z" fill="#793CBD" transform="matrix(1.04167 0 0 1 895.268 184)"/><path d="M49.1333 59.5556C48.5053 59.5556 47.9964 60.0645 47.9964 60.6925 47.9964 62.8904 46.2148 64.6719 44.017 64.6719L6.11798 64.6719C4.02487 64.6719 2.32808 62.9751 2.32808 60.882L2.32808 50.3244C2.37533 47.2362 3.31551 44.2276 5.03515 41.6618 5.38894 41.1431 5.25516 40.4358 4.73637 40.082 4.72776 40.076 4.71907 40.0703 4.7103 40.0646 4.18521 39.7146 3.47677 39.8467 3.11313 40.3624 1.12896 43.3099 0.0471114 46.7717-6.45417e-08 50.3244L0 60.9091C0 64.2729 2.72699 67 6.09091 67L43.9899 67C47.4585 67 50.2703 64.1882 50.2703 60.7196 50.2852 60.0918 49.7884 59.5707 49.1607 59.5558 49.1515 59.5556 49.1425 59.5556 49.1333 59.5556Z" fill="#793CBD" transform="matrix(1.04167 0 0 1 895.268 184)"/><path d="M7.25495 38.5216C7.90354 38.5684 8.46986 38.0866 8.52727 37.4388 8.58845 36.7988 8.11924 36.2304 7.47928 36.1692 7.46767 36.1681 7.45606 36.1673 7.44444 36.1665 6.78736 36.1979 6.28008 36.7558 6.31137 37.4128 6.33717 37.9539 6.72488 38.4095 7.25495 38.5216Z" fill="#793CBD" transform="matrix(1.04167 0 0 1 895.268 184)"/><path d="M11.857 35.8687C12.9923 35.3443 14.1949 34.98 15.4303 34.7859 21.8738 33.6067 28.4778 33.6067 34.9212 34.7859 37.441 35.2913 39.795 36.4171 41.7701 38.0614 41.9731 38.2371 42.2327 38.3332 42.501 38.3321 42.8237 38.3197 43.1228 38.16 43.3131 37.899 43.7084 37.4128 43.6355 36.6984 43.1507 36.3018 40.9282 34.4044 38.2669 33.0923 35.4085 32.4848 28.6709 31.238 21.7618 31.238 15.0242 32.4848 13.5732 32.726 12.1616 33.1632 10.8283 33.7842 10.2548 34.0401 9.9974 34.7125 10.2533 35.2859 10.2554 35.2907 10.2576 35.2953 10.2598 35.3002 10.5179 35.889 11.2045 36.157 11.7932 35.899 11.8148 35.8895 11.836 35.8795 11.857 35.8687Z" fill="#793CBD" transform="matrix(1.04167 0 0 1 895.268 184)"/></g></svg>