<?xml version="1.0" encoding="UTF-8"?><svg id="Layer_2" xmlns="http://www.w3.org/2000/svg" viewBox="0 0 22.08173 25.18555"><defs><style>.cls-1{fill:#783cbe;}</style></defs><g id="Layer_1-2"><g><path class="cls-1" d="M9.01096,12.21094c.02734,0,.05566-.00195,.08301-.00781l1.92871-.38574,1.92773,.38574c.22461,.04492,.45312-.10449,.5-.33398,.0459-.22949-.10352-.4541-.33398-.5l-2.01074-.40234c-.05469-.00977-.11133-.00977-.16602,0l-2.01172,.40234c-.23047,.0459-.37988,.27051-.33398,.5,.04102,.20215,.21777,.3418,.41699,.3418Z"/><path class="cls-1" d="M12.95042,13.8125c.22461,.0459,.45312-.10449,.5-.33398,.0459-.22949-.10352-.4541-.33398-.5l-2.01074-.40234c-.05469-.00977-.11133-.00977-.16602,0l-2.01172,.40234c-.23047,.0459-.37988,.27051-.33398,.5,.04102,.20215,.21777,.3418,.41699,.3418,.02734,0,.05566-.00195,.08301-.00781l1.92871-.38574,1.92773,.38574Z"/><path class="cls-1" d="M21.26682,21.35645c-.40137-1.40527-1.59961-2.43164-3.05078-2.61426-.41699-.05176-1.21191-.10742-2.02148-.16504-.75098-.05237-1.49951-.10553-1.97168-.15735-.19189-.57617-.29053-1.1756-.32715-1.78406h3.96582c.23438,0,.4248-.19043,.4248-.4248V7.26367c0-1.94043-.75586-3.76367-2.12793-5.13574-1.37305-1.37207-3.19629-2.12793-5.13574-2.12793-1.16602,0-2.32422,.28223-3.34863,.81641-.20801,.1084-.28906,.36523-.18066,.57324s.36426,.28613,.57324,.18066c.9043-.47168,1.92676-.7207,2.95605-.7207,1.71191,0,3.32227,.66797,4.53418,1.87988,1.21191,1.21094,1.87988,2.82129,1.87988,4.53418V15.78613h-3.54395c.00684-.10864,.0127-.21661,.02441-.32599,1.41016-.38458,2.14795-.93353,2.19336-.96893,.00342-.00281,.00488-.00745,.0083-.01038,.04541-.03754,.08398-.08276,.11084-.1366,.00293-.00647,.00293-.01385,.00586-.02051,.01709-.03918,.03271-.07965,.03711-.12451l.4043-3.91992v-.80371c0-.01617-.00977-.02966-.01172-.04553,.00293-.01947,.01172-.0368,.01172-.05701v-2.33887c0-.11914-.0498-.2334-.13867-.31445-.55664-.50684-.92188-1.04199-1.08496-1.58594-.00586-.02246-.05859-.21484-.39746-1.5918-.03418-.13672-.13379-.24805-.26562-.29688-.13184-.04785-.28125-.02832-.39551,.05273-1.58398,1.13672-3.31152,2.06641-5.13379,2.76465-1.14453,.43848-2.33984,.78613-3.55371,1.03418-.19824,.04004-.33984,.21387-.33984,.41602v1.86035c0,.0202,.00879,.03748,.01172,.05695-.00195,.01587-.01172,.02942-.01172,.04559l.00195,.84766,.40234,3.87598c.00439,.04486,.02002,.08533,.03711,.12451,.00293,.00665,.00293,.01404,.00586,.02051,.02686,.05383,.06543,.09906,.11084,.1366,.00342,.00293,.00488,.00757,.0083,.01038,.04541,.03546,.78467,.58521,2.19727,.96979,.01074,.1084,.01611,.21655,.02246,.32513h-3.54492V7.26367c0-1.21582,.3418-2.39941,.98828-3.42383,.125-.19824,.06641-.46094-.13281-.58594-.19531-.125-.45898-.06543-.58594,.13281-.73242,1.16016-1.11914,2.5-1.11914,3.87695v8.94727c0,.23438,.19043,.4248,.4248,.4248h3.96484c-.03662,.60132-.13477,1.19659-.32471,1.77313-.01514-.00055-.0293-.00665-.04443-.00555l-3.9502,.33887c-1.45312,.18359-2.65039,1.20898-3.05664,2.63574L.01096,24.66504c-.05273,.22852,.08984,.45703,.31836,.50977,.03223,.00781,.06445,.01074,.0957,.01074,.19336,0,.36816-.13281,.41406-.3291l.75684-3.2666c.30664-1.07715,1.22559-1.86426,2.32227-2.00195l3.93359-.33691c.09473-.0083,.1748-.05255,.24072-.11121,.23975,.26654,.47412,.53229,.72412,.82605,.50586,.59375,1.0791,1.2666,1.90137,2.11426,.08008,.08301,.18945,.12891,.30469,.12891,.07031,.00781,.22949-.04785,.30957-.13379,1.00879-1.0752,1.50195-1.64551,2.01758-2.24316,.1665-.19293,.34326-.39685,.53223-.6134,.0293,.01044,.05615,.02539,.08789,.02942,.46191,.05762,1.32129,.11816,2.16504,.17773,.79102,.05566,1.56836,.10938,1.97559,.16016,1.1123,.13965,2.03125,.92676,2.33496,1.98828l.79785,3.28711c.04688,.19434,.2207,.32422,.41309,.32422,.0332,0,.06641-.00391,.10059-.01172,.22754-.05566,.36816-.28516,.3125-.51367l-.80273-3.30371Zm-6.21094-10.896l.77344-.3374-.29541,2.92694c-.38623-.81482-.48096-1.91199-.47803-2.58954Zm-5.49023-3.60498c1.69531-.64844,3.31152-1.49219,4.81348-2.50977,.23438,.94727,.25879,1.02832,.25879,1.02832,.19434,.64844,.59375,1.26758,1.18945,1.84375v1.97919l-1.10254,.48035c-.01562-.00317-.02881-.01178-.04492-.01324l-3.69434-.31348-3.62109,.31348c-.01611,.00146-.0293,.01007-.04492,.01324l-1.10254-.48035v-1.33954c1.14258-.25098,2.26758-.58691,3.34863-1.00195Zm-3.05859,6.20013l-.29004-2.77631v-.15527l.77148,.33643c.00293,.67926-.09277,1.77972-.48145,2.59515Zm1.33008-2.58002l3.14844-.27734,3.22168,.27832c0,.79395,.10547,2.52734,.96191,3.59668-.64746,.34277-2.03516,.90918-4.14648,.90918s-3.5-.56641-4.14746-.90918c.85742-1.07031,.96191-2.80371,.96191-3.59766Zm4.86914,8.80078c-.45508,.52734-.89062,1.0332-1.6875,1.88965-.64258-.68066-1.12402-1.24512-1.55469-1.75098-.27393-.32208-.5293-.6134-.79199-.90326,.229-.74951,.36133-1.51996,.36133-2.30084,0-.18512-.02637-.3714-.03906-.55768,.59277,.10571,1.26221,.17877,2.02832,.17877,.7666,0,1.43652-.07318,2.02979-.17908-.01367,.18634-.0415,.37518-.0415,.55798,0,.78625,.13232,1.55579,.36182,2.30042-.24561,.27875-.4624,.52856-.6665,.76501Z"/><circle class="cls-1" cx="6.49436" cy="2.31689" r=".44632"/></g></g></svg>