<?xml version="1.0" encoding="UTF-8"?><svg id="Layer_2" xmlns="http://www.w3.org/2000/svg" viewBox="0 0 22.42676 24.98145"><defs><style>.cls-1{fill:#783cbe;}</style></defs><g id="Layer_1-2"><g><path class="cls-1" d="M9.38184,11.0459c3.0459,0,5.52344-2.47754,5.52344-5.52246,0-3.0459-2.47754-5.52344-5.52344-5.52344S3.8584,2.47754,3.8584,5.52344c0,3.04492,2.47754,5.52246,5.52344,5.52246ZM9.38184,.84961c2.57715,0,4.67383,2.09668,4.67383,4.67383,0,2.57617-2.09668,4.67285-4.67383,4.67285s-4.67383-2.09668-4.67383-4.67285C4.70801,2.94629,6.80469,.84961,9.38184,.84961Z"/><path class="cls-1" d="M18.32324,22.21875c-.23438,0-.4248,.19043-.4248,.4248,0,.82031-.66797,1.48828-1.48828,1.48828H2.26465c-.78027,0-1.41504-.63477-1.41504-1.41406v-3.95312c0-1.05078,.38672-2.23047,1.06055-3.23633,.13086-.19434,.0791-.45898-.11621-.58887-.19238-.12988-.45996-.08008-.58887,.11621-.77734,1.1582-1.20508,2.47559-1.20508,3.70898v3.95312c0,1.24805,1.01562,2.26367,2.26465,2.26367h14.14551c1.28906,0,2.33789-1.04883,2.33789-2.33789,0-.23438-.19043-.4248-.4248-.4248Z"/><path class="cls-1" d="M2.70264,14.36267c.24365,.01862,.45654-.16382,.4751-.40753s-.16406-.45636-.40771-.47498c-.24365-.01868-.45605,.16382-.47461,.40747-.01904,.24371,.16357,.45642,.40723,.47504Z"/><path class="cls-1" d="M22.07715,20.6377h-.18262v-4.21582c0-.35449-.28809-.64258-.64258-.64258h-6.52832c-.35547,0-.64355,.28809-.64355,.64258v4.21582h-.18262c-.19336,0-.34961,.15625-.34961,.34961s.15625,.34961,.34961,.34961h8.17969c.19336,0,.34961-.15625,.34961-.34961s-.15625-.34961-.34961-.34961Zm-7.35352-4.15918l6.47168-.05664v4.21582h-6.41602v-3.75l-.05566-.40918Z"/><path class="cls-1" d="M15.41504,19.47168c.0752,0,.15137-.02344,.21582-.07422l.95312-.74609,1.80273,.79102c.12402,.05371,.26953,.03223,.37305-.05859l1.75098-1.55566c.14453-.12891,.15723-.34961,.0293-.49414-.12891-.14551-.35059-.15918-.49414-.0293l-1.58301,1.40723-1.78906-.78516c-.11719-.05078-.25586-.03418-.35645,.04492l-1.11816,.875c-.15234,.11914-.17871,.33887-.05957,.49121,.06836,.08789,.17188,.13379,.27539,.13379Z"/><path class="cls-1" d="M4.31348,13.31934c.42578-.19336,.87305-.33008,1.33789-.40527,2.33203-.43848,5.25195-.43945,7.27344-.00098,1.06641,.21387,2.07129,.74414,2.9043,1.53223l.13867,.13672c.0957,.09473,.1875,.19434,.27637,.29492,.08398,.09473,.20117,.14355,.31836,.14355,.09961,0,.2002-.03516,.28125-.10645,.17578-.15527,.19238-.42383,.03711-.59961-.10059-.11426-.2041-.22559-.31152-.33398l-.1543-.15039c-.95117-.90039-2.09961-1.50586-3.31641-1.74902-2.14844-.46484-5.13379-.4668-7.59375-.00488-.5293,.08691-1.04883,.24414-1.54297,.46973-.21387,.09668-.30859,.34961-.21094,.5625,.09668,.21484,.35254,.30762,.5625,.21094Z"/></g></g></svg>