<?xml version="1.0" encoding="UTF-8"?><svg id="Layer_2" xmlns="http://www.w3.org/2000/svg" viewBox="0 0 25.53273 24.96094"><defs><style>.cls-1{fill:#783cbe;}</style></defs><g id="Layer_1-2"><g><path class="cls-1" d="M23.50298,21.25098l-6.75977-3.03613c-.12939-.60986-.17529-1.2005-.21729-1.95636,.67383-.68384,1.24561-1.42328,1.59717-2.11005l.49219-1.36035c.02441-.06934,.06445-.13086,.11621-.17871,.78516-.72168,1.29395-1.99219,1.15723-2.89453-.05811-.38519-.23438-.69751-.50098-.91089,.02832-.50513,.13232-1.21832,.20703-1.72095,.03223-.2207,.06055-.4082,.0791-.58691,0-1.625-.36523-2.97559-1.08691-4.0127-1.14453-1.64844-3.13281-2.4834-5.9082-2.4834h-.00879c-2.2666,0-4.02051,.60547-5.21387,1.7998-1.46191,1.46387-1.61816,3.35352-1.61719,4.09766,0,.23535,.19043,.4248,.4248,.4248,.23535,0,.4248-.19043,.4248-.4248-.00098-.63867,.13184-2.25781,1.36914-3.49707,1.02734-1.0293,2.5791-1.55078,4.6123-1.55078h.00879c2.48047,0,4.2334,.71289,5.20996,2.11816,.62109,.89258,.93555,2.08008,.93848,3.47656-.01465,.12207-.04199,.30176-.07324,.5127-.09375,.63123-.22217,1.49115-.22656,2.04657,0,.00183,0,.0036-.00049,.00549,0,.00403-.00049,.0094-.00049,.01337,0,.02051,.00879,.03815,.01123,.05786,.00488,.03314,.00732,.06604,.01953,.09705,.00977,.02557,.02637,.0462,.04053,.06903,.01465,.02313,.02637,.0473,.04541,.0675,.02344,.02515,.05322,.04248,.08203,.06128,.01562,.01013,.02686,.02478,.04443,.03302,.09863,.04688,.23535,.14258,.2793,.43359,.09277,.61816-.32324,1.61914-.89453,2.14355-.1543,.14453-.26855,.31738-.33887,.51465l-.46875,1.30859c-.3291,.63379-.9502,1.41699-1.66309,2.09668-.24023,.22852-.48633,.44336-.73535,.63477-.39941,.30859-.81738,.37207-1.35156,.45312l-.11328,.01758c-.24121,.03516-.41895,.05469-.72656,.05469-.30859,0-.48633-.01953-.72754-.05469l-.11914-.01855c-.5293-.08105-.94727-.14453-1.3457-.45117-.24707-.19141-.49414-.40723-.73535-.63574-.71387-.68066-1.33496-1.46387-1.64062-2.0459l-.49121-1.36328c-.07324-.19531-.18652-.36719-.3418-.51367-.56738-.52148-.98438-1.52148-.89062-2.14062,.04395-.29004,.18066-.38672,.2793-.43359,.21289-.10059,.30273-.35352,.20215-.56543-.09961-.21191-.35254-.30273-.56543-.20215-.41309,.19531-.68066,.57715-.75684,1.07422-.13574,.90234,.37207,2.17383,1.15234,2.89062,.05566,.05176,.09668,.11426,.12305,.18359l.51172,1.41016c.33154,.64032,.90039,1.37427,1.57373,2.05835-.04688,.76471-.12646,1.3587-.27393,2.0061l-.46875,.33887-6.17285,2.64258c-.78711,.32617-1.39453,.95703-1.68457,1.77832-.11621,.33105-.24805,.70605-.37793,1.43848-.04199,.23047,.1123,.45117,.34375,.49219,.02441,.00488,.0498,.00684,.0752,.00684,.20117,0,.38086-.14453,.41699-.35059,.11914-.66406,.2334-.98926,.36035-1.35254,.19336-.5459,.62793-.99316,1.19629-1.22949l6.25488-2.6875,.13477-.09503c.08594-.02411,.1582-.07111,.21289-.13831l3.05762,4.07806c.00684,.00916,.01758,.01239,.0249,.02081,.01123,.01263,.01709,.02826,.02979,.03973,.00977,.00879,.02393,.00537,.03418,.01312,.07422,.05634,.1582,.09515,.24854,.0957,.00049,0,.00098,.00055,.00146,.00055l.00049-.00012,.00049,.00012c.00049,0,.00098-.00055,.00146-.00055,.0791-.00049,.15332-.03015,.22119-.07373,.01025-.00629,.02246-.00342,.03223-.01068,.01318-.00983,.01953-.02423,.03125-.03528,.00879-.00818,.02002-.01135,.02832-.02039l3.76855-4.18518,6.68555,3.00256c.57129,.23438,1.00977,.68359,1.20215,1.23145,.06445,.18164,.17188,.56348,.31934,1.35059,.03906,.2041,.2168,.34668,.41797,.34668,.02539,0,.05176-.00195,.07812-.00684,.23145-.04395,.38281-.26562,.33984-.49609-.12695-.6748-.24609-1.17188-.35254-1.47559-.27344-.77734-.88672-1.41016-1.66992-1.73145Zm-11.72461-3.41895l.125,.01855c.2832,.04297,.49219,.06445,.85352,.06445,.36035,0,.56934-.02148,.85059-.06348l.12207-.01953c.59863-.09082,1.16406-.17578,1.73828-.61816,.08643-.06665,.16992-.14966,.25586-.22113,.03809,.48645,.0957,.93781,.19238,1.39685l-3.48682,3.87256-2.88428-3.84656c.10596-.47253,.18115-.93176,.23291-1.43286,.08984,.07465,.17773,.16125,.26709,.23016,.57227,.44238,1.13867,.52832,1.7334,.61914Z"/><path class="cls-1" d="M6.10943,7.9043c.05078,.01855,.10254,.02832,.1543,.02832,.06445,0,.12891-.01465,.18945-.04199,.1084-.05078,.19043-.14062,.23145-.25293,.04199-.1123,.03613-.23438-.01367-.34375-.05078-.1084-.14062-.19141-.25293-.23242-.11328-.04102-.23438-.03613-.34375,.01367-.22461,.10547-.32227,.37305-.21777,.59766,.05078,.1084,.14062,.19043,.25293,.23145Z"/></g></g></svg>