<?xml version="1.0" encoding="UTF-8"?><svg id="Layer_2" xmlns="http://www.w3.org/2000/svg" viewBox="0 0 28.33789 28.79395"><defs><style>.cls-1{fill:#783cbe;}</style></defs><g id="Layer_1-2"><g><path class="cls-1" d="M2.75537,18.88324c.29395,.02246,.55029-.19763,.57275-.4917,.02246-.29401-.19727-.5506-.49121-.57306-.29443-.02246-.55078,.19763-.57324,.4917-.02246,.29401,.19775,.5506,.4917,.57306Z"/><path class="cls-1" d="M25.87891,14.08789c-.08008-.0791-.18848-.12402-.30078-.12402-.11328,0-.2207,.04492-.30078,.125l-1.22363,1.22266c-.16602,.16602-.16602,.43457,0,.60059,.16602,.16797,.43555,.16699,.60156,.00098l.4585-.45862c-.19775,2.53564-2.30078,4.54456-4.88623,4.54456-.23438,0-.4248,.19043-.4248,.4248s.19043,.4248,.4248,.4248c3.0752,0,5.58838-2.41699,5.75781-5.45056l.53809,.53845c.08301,.08301,.19238,.12402,.30078,.12402s.21777-.04102,.2998-.12402c.16699-.16602,.16699-.43457,.00098-.60059l-1.24609-1.24805Z"/><path class="cls-1" d="M23.81348,5.93848c1.6377,0,2.96973-1.33203,2.96973-2.96875,0-1.6377-1.33203-2.96973-2.96973-2.96973-1.63672,0-2.96875,1.33203-2.96875,2.96973,0,1.63672,1.33203,2.96875,2.96875,2.96875Zm0-5.08887c1.16895,0,2.12012,.95117,2.12012,2.12012,0,1.16797-.95117,2.11914-2.12012,2.11914-1.16797,0-2.11914-.95117-2.11914-2.11914,0-1.16895,.95117-2.12012,2.11914-2.12012Z"/><path class="cls-1" d="M27.74316,8.04688c-.00781-.0127-.21191-.31641-.57617-.64551-.31543-.27246-.82129-.65039-1.56445-.79297-1.01465-.21973-2.41895-.21973-3.56836-.00488-.26855,.04395-.39453,.08203-.75684,.22949-.78027,.33301-1.37402,1.16309-1.40527,1.20703-.38086,.56934-.59082,1.21973-.59082,1.8291v1.8125c0,.69922,.56934,1.26855,1.26855,1.26855h6.48633c.71777,0,1.30176-.58398,1.30176-1.30469l-.00391-1.77051c0-.61133-.20996-1.26074-.59082-1.82812Zm-.25879,3.64062v.0166c-.02832,.22363-.21875,.39648-.44824,.39648h-6.48633c-.23047,0-.41895-.18848-.41895-.41895v-1.8125c0-.43652,.16309-.93164,.44141-1.34668,.00488-.00684,.48242-.66992,1.03223-.90527,.3125-.12695,.37207-.14258,.57617-.17578,.52148-.09766,1.10938-.14648,1.67969-.14648,.56836,0,1.11914,.04883,1.57227,.14551,.5459,.10547,.91699,.37793,1.1709,.59668,.27441,.24805,.43164,.47949,.43359,.48242,.28223,.41992,.44434,.91016,.44727,1.34668-.00391,.02344-.00586,.04785-.00586,.07227l.00586,1.74902Z"/><path class="cls-1" d="M9.47461,15.42578c3.0752,0,5.57715-2.50195,5.57715-5.57812,0-3.0752-2.50195-5.57715-5.57715-5.57715-3.07617,0-5.57812,2.50195-5.57812,5.57715,0,3.07617,2.50195,5.57812,5.57812,5.57812Zm0-10.30566c2.60645,0,4.72754,2.12109,4.72754,4.72754,0,2.60742-2.12109,4.72852-4.72754,4.72852-2.60742,0-4.72852-2.12109-4.72852-4.72852,0-2.60645,2.12109-4.72754,4.72852-4.72754Z"/><path class="cls-1" d="M18.98926,23.27637c0-1.25-.43262-2.58496-1.21875-3.75781-.01758-.02637-.43359-.64551-1.17773-1.31934-.00977-.00781-.01855-.01562-.02832-.02344-.65527-.5625-1.69531-1.33105-3.20996-1.61914-2.17773-.47168-5.2041-.47266-7.69824-.00488-.4707,.07715-.70996,.13672-1.28711,.36426-.21875,.08594-.32617,.33301-.24023,.55078,.08496,.21875,.33398,.32715,.55078,.24023,.5127-.20117,.69824-.24805,1.12305-.31738,2.36621-.44531,5.32715-.44531,7.38281,0,1.3418,.25488,2.2666,.94922,2.8457,1.44824,.00391,.00391,.00781,.00684,.01172,.01074,.64844,.59082,1.0166,1.13574,1.02051,1.1416,.68359,1.02051,1.07617,2.21777,1.07617,3.28613v.08337c-.00244,.01892-.01074,.03571-.01074,.0553l.01074,1.5791v1.52246c0,.00116,.00049,.00208,.00049,.00323-.04736,.79236-.70117,1.4245-1.50537,1.4245H2.28906c-.79395,0-1.43945-.64551-1.43945-1.43945v-3.24023c0-1.03516,.35352-2.15723,.99414-3.16016,.12598-.19727,.06836-.45996-.12988-.58691-.19531-.12402-.45996-.06934-.58691,.12988-.72656,1.1377-1.12695,2.42188-1.12695,3.61719v3.24023c0,1.2627,1.02637,2.28906,2.28906,2.28906h14.3457c1.30371,0,2.36426-1.06055,2.36426-2.36719l-.00977-1.43695v-1.71344Z"/></g></g></svg>