<?xml version="1.0" encoding="UTF-8"?><svg id="Layer_2" xmlns="http://www.w3.org/2000/svg" viewBox="0 0 23.14453 25.20508"><defs><style>.cls-1{fill:#783cbe;}</style></defs><g id="Layer_1-2"><g><path class="cls-1" d="M9.46484,11.14062c3.07129,0,5.57031-2.49902,5.57031-5.57031S12.53613,0,9.46484,0,3.89453,2.49902,3.89453,5.57031s2.49902,5.57031,5.57031,5.57031ZM9.46484,.84961c2.60254,0,4.7207,2.11816,4.7207,4.7207s-2.11816,4.7207-4.7207,4.7207-4.7207-2.11816-4.7207-4.7207S6.8623,.84961,9.46484,.84961Z"/><path class="cls-1" d="M18.48926,22.4248c-.23438,0-.4248,.19043-.4248,.4248,0,.83008-.67578,1.50586-1.50586,1.50586H2.28125c-.78906,0-1.43164-.64258-1.43164-1.43164v-3.98926c0-1.0625,.39062-2.25391,1.07129-3.26953,.12988-.19434,.07812-.45898-.11719-.58984-.19238-.12793-.45801-.0791-.58984,.11719-.7832,1.16797-1.21387,2.49707-1.21387,3.74219v3.98926c0,1.25781,1.02344,2.28125,2.28125,2.28125h14.27734c1.29883,0,2.35547-1.05664,2.35547-2.35547,0-.23438-.19043-.4248-.4248-.4248Z"/><path class="cls-1" d="M13.29883,12.24414c-2.16699-.46875-5.17969-.46973-7.66309-.00391-.48926,.08008-.9707,.2207-1.42871,.41699-.21582,.09277-.31641,.34277-.22363,.55762,.06934,.16113,.22559,.25781,.39062,.25781,.05566,0,.11328-.01074,.16699-.03418,.39551-.16895,.81055-.29102,1.24219-.36133,2.35156-.44043,5.2998-.44336,7.3418-.00098,.24707,.0498,.4873,.11523,.7207,.19434,.22168,.0752,.46289-.04395,.53906-.26562,.0752-.22266-.04297-.46387-.26562-.53906-.2666-.09082-.54199-.16602-.82031-.22168Z"/><path class="cls-1" d="M2.72363,14.48627c.24316,.01862,.45557-.16339,.47412-.40643s-.16357-.4552-.40674-.47375c-.24316-.01862-.45508,.16339-.47363,.40643-.01855,.2431,.16357,.4552,.40625,.47375Z"/><path class="cls-1" d="M18.64258,12.40253c-.00049,0-.00049-.00018-.00098-.00018,0,0,0,.00006-.00049,.00006l-.00049-.00006c-2.48242,.00781-4.50195,2.0332-4.50195,4.51562s2.01953,4.50781,4.50195,4.51562h.00195c2.48242-.00781,4.50195-2.0332,4.50195-4.51562,0-2.48175-2.01855-4.50653-4.50195-4.51544Zm3.66064,4.11505h-.96582c-.09473-1.10181-.56592-2.19299-1.27002-3.02295,1.21631,.51361,2.08691,1.66205,2.23584,3.02295Zm-4.06201-2.94598v2.94598h-1.49658c.11279-1.13019,.68262-2.24609,1.49658-2.94598Zm0,3.74677v2.94696c-.81396-.70001-1.38379-1.81659-1.49658-2.94696h1.49658Zm.80078,2.94696v-2.94696h1.49658c-.11279,1.13037-.68262,2.24695-1.49658,2.94696Zm0-3.74774v-2.94598c.81396,.69989,1.38379,1.8158,1.49658,2.94598h-1.49658Zm-1.82568-3.02332c-.70459,.83008-1.17578,1.92133-1.27051,3.02332h-.96582c.14893-1.36133,1.02002-2.50995,2.23633-3.02332Zm-2.23633,3.8241h.96582c.09473,1.10144,.56543,2.19226,1.26904,3.02246-1.21582-.51373-2.08594-1.66168-2.23486-3.02246Zm5.08838,3.02246c.70361-.8302,1.17432-1.92102,1.26904-3.02246h.96582c-.14893,1.36078-1.01904,2.50873-2.23486,3.02246Z"/></g></g></svg>