<?xml version="1.0" encoding="UTF-8"?><svg id="Layer_2" xmlns="http://www.w3.org/2000/svg" viewBox="0 0 33.2373 23.47168"><defs><style>.cls-1{fill:#783cbe;}</style></defs><g id="Layer_1-2"><g><path class="cls-1" d="M5.75391,14.2002c1.90723,0,3.45801-1.55078,3.45801-3.45801s-1.55078-3.45801-3.45801-3.45801-3.45801,1.55078-3.45801,3.45801,1.55078,3.45801,3.45801,3.45801Zm0-6.06641c1.43848,0,2.6084,1.16992,2.6084,2.6084s-1.16992,2.6084-2.6084,2.6084-2.6084-1.16992-2.6084-2.6084,1.16992-2.6084,2.6084-2.6084Z"/><path class="cls-1" d="M8.05176,15.4834c-1.29688-.2832-3.10156-.2832-4.61133,0-.10156,.0166-.14258,.02246-.25391,.05078-.22754,.05664-.36621,.28711-.30859,.51562,.05664,.22754,.28809,.36914,.51562,.30859,.0791-.01953,.10742-.02441,.22168-.04199,1.36816-.25684,3.08008-.25977,4.2627-.00098,1.58008,.31641,2.77148,1.60938,2.77148,3.00684v2.58594c0,.39355-.32031,.71387-.71387,.71387H1.51855c-.36914,0-.66895-.30078-.66895-.66992v-2.62988c0-.33301,.07031-.68359,.2041-1.01172,.08887-.21777-.0166-.46582-.2334-.55371-.21777-.08789-.4668,.01562-.55371,.2334-.17676,.43555-.2666,.88379-.2666,1.33203v2.62988c0,.83789,.68066,1.51953,1.51855,1.51953H9.93555c.8623,0,1.56348-.70117,1.56348-1.56348v-2.58594c0-1.79492-1.48438-3.44629-3.44727-3.83887Z"/><circle class="cls-1" cx="1.73193" cy="16.75647" r=".44632"/><path class="cls-1" d="M27.49219,14.2002c1.90723,0,3.45898-1.55078,3.45898-3.45801s-1.55176-3.45801-3.45898-3.45801-3.45801,1.55078-3.45801,3.45801,1.55078,3.45801,3.45801,3.45801Zm0-6.06641c1.43848,0,2.60938,1.16992,2.60938,2.6084s-1.1709,2.6084-2.60938,2.6084-2.6084-1.16992-2.6084-2.6084,1.16992-2.6084,2.6084-2.6084Z"/><path class="cls-1" d="M29.79004,15.4834c-1.29883-.2832-3.10156-.2832-4.53906-.00879-2.46777,.14941-3.5127,2.81348-3.5127,3.84766v2.62988c0,.83789,.68164,1.51953,1.51953,1.51953h8.41699c.86133,0,1.5625-.70117,1.5625-1.56348v-2.58594c0-1.79492-1.48438-3.44629-3.44727-3.83887Zm2.59766,6.4248c0,.39355-.32031,.71387-.71289,.71387h-8.41699c-.36914,0-.66992-.30078-.66992-.66992v-2.62988c0-.78027,.83496-2.88574,2.7666-3.00586,.68555-.12891,1.45703-.19336,2.2041-.19336,.74512,0,1.46777,.06348,2.05762,.19238,1.58008,.31641,2.77148,1.60938,2.77148,3.00684v2.58594Z"/><path class="cls-1" d="M24.3252,5.81836c0-3.20801-3.31445-5.81836-7.38965-5.81836s-7.38965,2.61035-7.38965,5.81836c0,1.58789,.8252,3.10742,2.27148,4.20117v2.83398c0,.17188,.10352,.32715,.26172,.39258,.05273,.02148,.1084,.03223,.16309,.03223,.11035,0,.21875-.04297,.30078-.12402l1.86621-1.86621c.80957,.23145,1.6582,.34863,2.52637,.34863,4.0752,0,7.38965-2.61035,7.38965-5.81836Zm-7.38965,4.96875c-.87012,0-1.7168-.12988-2.51855-.38477-.15234-.04883-.31738-.00781-.42969,.10449l-1.32031,1.32031v-2.02344c0-.1377-.06641-.26758-.17969-.34668-1.3291-.94043-2.0918-2.26562-2.0918-3.63867,0-2.73926,2.93359-4.96875,6.54004-4.96875s6.54004,2.22949,6.54004,4.96875-2.93359,4.96875-6.54004,4.96875Z"/><path class="cls-1" d="M19.27148,3.10059c-.16602-.16602-.43555-.16602-.60156,0l-2.05127,2.05127-2.05127-2.05127c-.16602-.16602-.43555-.16602-.60156,0s-.16602,.43555,0,.60156l2.05127,2.05127-2.05127,2.05127c-.16602,.16602-.16602,.43555,0,.60156,.08301,.08301,.19238,.12402,.30078,.12402s.21777-.04102,.30078-.12402l2.05127-2.05127,2.05127,2.05127c.08301,.08301,.19238,.12402,.30078,.12402s.21777-.04102,.30078-.12402c.16602-.16602,.16602-.43555,0-.60156l-2.05127-2.05127,2.05127-2.05127c.16602-.16602,.16602-.43555,0-.60156Z"/></g></g></svg>