<?xml version="1.0" encoding="UTF-8"?><svg id="Layer_2" xmlns="http://www.w3.org/2000/svg" viewBox="0 0 18.89941 25.15137"><defs><style>.cls-1{fill:#783cbe;}</style></defs><g id="Layer_1-2"><g><g><path d="M9.45801,11.13281c3.06934,0,5.56543-2.49707,5.56543-5.56641S12.52734,0,9.45801,0,3.8916,2.49707,3.8916,5.56641s2.49707,5.56641,5.56641,5.56641ZM9.45801,.84961c2.60059,0,4.71582,2.11621,4.71582,4.7168s-2.11523,4.7168-4.71582,4.7168-4.7168-2.11621-4.7168-4.7168S6.85742,.84961,9.45801,.84961Z"/><path d="M13.28906,12.19531c-2.16504-.46973-5.1748-.47168-7.65625-.00488-.70605,.11523-1.21875,.27246-1.82812,.55957-.21191,.10059-.30273,.35352-.20312,.56641,.10156,.21289,.35938,.30273,.56641,.20312,.53809-.25488,.97168-.38672,1.61133-.49121,2.35449-.44238,5.30078-.44238,7.33594-.00098,2.81348,.56348,4.93457,2.87988,4.93457,5.38672v4.38281c0,.83008-.6748,1.50488-1.50391,1.50488H2.2793c-.78809,0-1.42969-.6416-1.42969-1.43066v-4.45703c0-.94141,.3125-1.93457,.87891-2.79688,.12891-.19629,.07422-.45996-.12207-.58887-.19531-.12695-.45703-.07422-.58887,.12207-.66602,1.01367-1.01758,2.1416-1.01758,3.26367v4.45703c0,1.25781,1.02246,2.28027,2.2793,2.28027h14.2666c1.29785,0,2.35352-1.05566,2.35352-2.35449v-4.38281c0-2.9043-2.41406-5.57812-5.61035-6.21875Z"/><path d="M2.56592,14.58423c.24658,0,.44629-.19958,.44629-.44641,0-.24677-.19971-.44635-.44629-.44635-.24707,0-.44629,.19958-.44629,.44635,0,.24683,.19922,.44641,.44629,.44641Z"/></g><g><path class="cls-1" d="M9.45801,11.13281c3.06934,0,5.56543-2.49707,5.56543-5.56641S12.52734,0,9.45801,0,3.8916,2.49707,3.8916,5.56641s2.49707,5.56641,5.56641,5.56641ZM9.45801,.84961c2.60059,0,4.71582,2.11621,4.71582,4.7168s-2.11523,4.7168-4.71582,4.7168-4.7168-2.11621-4.7168-4.7168S6.85742,.84961,9.45801,.84961Z"/><path class="cls-1" d="M13.28906,12.19531c-2.16504-.46973-5.1748-.47168-7.65625-.00488-.70605,.11523-1.21875,.27246-1.82812,.55957-.21191,.10059-.30273,.35352-.20312,.56641,.10156,.21289,.35938,.30273,.56641,.20312,.53809-.25488,.97168-.38672,1.61133-.49121,2.35449-.44238,5.30078-.44238,7.33594-.00098,2.81348,.56348,4.93457,2.87988,4.93457,5.38672v4.38281c0,.83008-.6748,1.50488-1.50391,1.50488H2.2793c-.78809,0-1.42969-.6416-1.42969-1.43066v-4.45703c0-.94141,.3125-1.93457,.87891-2.79688,.12891-.19629,.07422-.45996-.12207-.58887-.19531-.12695-.45703-.07422-.58887,.12207-.66602,1.01367-1.01758,2.1416-1.01758,3.26367v4.45703c0,1.25781,1.02246,2.28027,2.2793,2.28027h14.2666c1.29785,0,2.35352-1.05566,2.35352-2.35449v-4.38281c0-2.9043-2.41406-5.57812-5.61035-6.21875Z"/><path class="cls-1" d="M2.56592,14.58423c.24658,0,.44629-.19958,.44629-.44641,0-.24677-.19971-.44635-.44629-.44635-.24707,0-.44629,.19958-.44629,.44635,0,.24683,.19922,.44641,.44629,.44641Z"/></g></g></g></svg>