<?xml version="1.0" encoding="UTF-8"?><svg id="Layer_2" xmlns="http://www.w3.org/2000/svg" viewBox="0 0 29.66699 22.0498"><defs><style>.cls-1{fill:#783cbe;}</style></defs><g id="Layer_1-2"><g><circle class="cls-1" cx="15.3552" cy="21.62626" r=".42076"/><path class="cls-1" d="M13.66992,22.0498H2.53418c-1.39746,0-2.53418-1.13672-2.53418-2.53418v-3.90527c0-3.14258,2.55566-5.69824,5.69824-5.69824h3.08594c3.1416,0,5.69727,2.55566,5.69727,5.69824v4.24121c0,.23438-.19043,.4248-.4248,.4248s-.4248-.19043-.4248-.4248v-4.24121c0-2.67383-2.1748-4.84863-4.84766-4.84863h-3.08594c-2.67383,0-4.84863,2.1748-4.84863,4.84863v3.90527c0,.92871,.75586,1.68457,1.68457,1.68457H13.66992c.23438,0,.4248,.19043,.4248,.4248s-.19043,.4248-.4248,.4248Z"/><path class="cls-1" d="M27.13281,22.0498h-10.09473c-.23438,0-.4248-.19043-.4248-.4248s.19043-.4248,.4248-.4248h10.09473c.92871,0,1.68457-.75586,1.68457-1.68457v-3.05078c0-2.67285-2.1748-4.84766-4.84863-4.84766h-2.05273c-2.67285,0-4.84766,2.1748-4.84766,4.84766,0,.23438-.19043,.4248-.4248,.4248s-.4248-.19043-.4248-.4248c0-3.1416,2.55566-5.69727,5.69727-5.69727h2.05273c3.14258,0,5.69824,2.55566,5.69824,5.69727v3.05078c0,1.39746-1.13672,2.53418-2.53418,2.53418Z"/><path class="cls-1" d="M7.26465,8.65723c-2.38672,0-4.32812-1.94141-4.32812-4.32812S4.87793,0,7.26465,0s4.3291,1.94238,4.3291,4.3291-1.94238,4.32812-4.3291,4.32812ZM7.26465,.84961c-1.91797,0-3.47852,1.56055-3.47852,3.47949,0,1.91797,1.56055,3.47852,3.47852,3.47852,1.91895,0,3.47949-1.56055,3.47949-3.47852,0-1.91895-1.56055-3.47949-3.47949-3.47949Z"/><path class="cls-1" d="M22.72559,9.5127c-2.18555,0-3.96387-1.77832-3.96387-3.96387s1.77832-3.96387,3.96387-3.96387,3.96387,1.77832,3.96387,3.96387-1.77832,3.96387-3.96387,3.96387Zm0-7.07812c-1.7168,0-3.11426,1.39746-3.11426,3.11426s1.39746,3.11426,3.11426,3.11426,3.11426-1.39746,3.11426-3.11426-1.39746-3.11426-3.11426-3.11426Z"/></g></g></svg>