<?xml version="1.0" encoding="UTF-8"?><svg id="Layer_2" xmlns="http://www.w3.org/2000/svg" viewBox="0 0 23.57438 24.75195"><defs><style>.cls-1{fill:#783cbe;}</style></defs><g id="Layer_1-2"><g><path class="cls-1" d="M22.94043,15.35254l-.68359,.04102c-.07129-.12598-.15039-.24707-.23535-.36035-.08594-.11621-.17969-.22656-.27832-.3291l.23535-.64355c.05762-.15527,.00586-.33008-.12695-.42871-.36621-.27539-.77441-.48828-1.21191-.63379-.1582-.05566-.33008,.00391-.4248,.13965l-.39355,.56055c-.28516-.04688-.5752-.05859-.86035-.02832l-.35547-.58594c-.08594-.1416-.25684-.20801-.41504-.16895-.44336,.11621-.86426,.30176-1.25,.55273-.13867,.08984-.20215,.26074-.15625,.41992l.19238,.6582c-.21387,.19336-.40039,.41211-.55762,.65234l-.67969-.08691c-.1748-.02051-.32422,.06836-.39062,.2207-.18652,.41992-.30371,.86426-.34863,1.32031-.0166,.16504,.07715,.32129,.23047,.38379l.63477,.26074c.01855,.28809,.07324,.57129,.16309,.84473l-.49121,.47559c-.11914,.11523-.14844,.29492-.07227,.44238,.10449,.2002,.22559,.39551,.36426,.58105,.13867,.1875,.29102,.3584,.45215,.51562,.11914,.11621,.30176,.14062,.44434,.05859l.59766-.33398c.23633,.16504,.49121,.29785,.7627,.39844l.06641,.68262c.01562,.16504,.13867,.2998,.30078,.33203,.27051,.05273,.5459,.0791,.82129,.0791,.18164,0,.36328-.01172,.54492-.03418,.16504-.02051,.2959-.14746,.32324-.31055l.11133-.67676c.27539-.08203,.53809-.19824,.78613-.34766l.5752,.37402c.1377,.09082,.31836,.07812,.44727-.02832,.35059-.29883,.64941-.64844,.8877-1.03906,.08594-.1416,.06934-.32324-.04199-.44629l-.45898-.50977c.1084-.26758,.18164-.5459,.21875-.83105l.64941-.2168c.15723-.05176,.26172-.20117,.25684-.36719-.01465-.46289-.10156-.91406-.25977-1.34277-.05762-.15527-.2373-.2627-.37402-.24414Zm-.74121,1.53711c-.14648,.04883-.24805,.18164-.25586,.33496-.02051,.36035-.1123,.70801-.27246,1.03418-.06836,.1377-.04492,.30273,.05762,.41699l.42773,.47461c-.1123,.15625-.23828,.30371-.37598,.44043l-.53711-.34863c-.12988-.08398-.29688-.08105-.4209,.00879-.29688,.20996-.62598,.35547-.97852,.43262-.14941,.03223-.26465,.15332-.29004,.30469l-.10352,.63086c-.19043,.00977-.38574,.00293-.58008-.01855l-.06152-.63672c-.01465-.15332-.12109-.28125-.26953-.32422-.34961-.10059-.66895-.26758-.94824-.49609-.11816-.09668-.28711-.11133-.41992-.03613l-.55762,.31152c-.06348-.07227-.12402-.14746-.18262-.22656-.05859-.07812-.11328-.15723-.16309-.23828l.45801-.44434c.11035-.10742,.14453-.27148,.08594-.41309-.13867-.33301-.20703-.68652-.20312-1.05078,.00098-.15332-.09082-.29297-.23242-.35059l-.5918-.24219c.03418-.19043,.08301-.37793,.14746-.56055l.63379,.08105c.16699,.02148,.30273-.05664,.37598-.19043,.1748-.31543,.4082-.58887,.69434-.8125,.12109-.09473,.17285-.25391,.12988-.40137l-.17969-.61426c.16992-.0918,.34668-.16992,.5293-.2334l.33203,.5459c.0791,.13086,.2334,.19629,.38281,.17578,.35938-.0625,.71875-.04785,1.07031,.03516,.14844,.0332,.30469-.02344,.39355-.14941l.36719-.52246c.17871,.0752,.35059,.16504,.51367,.26855l-.21973,.59961c-.05371,.14453-.0127,.30664,.10254,.40918,.13184,.11719,.25391,.25098,.36328,.39746,.10547,.1416,.19824,.29688,.27637,.46191,.06445,.13867,.22949,.23145,.36133,.21387l.6377-.03906c.05176,.18555,.08789,.37598,.10938,.56934l-.60645,.20215Z"/><path class="cls-1" d="M19.55469,15.18457c-.50293-.07324-1.00879,.05371-1.41699,.3584-.40918,.30469-.67578,.75-.74902,1.25488-.07422,.50391,.05273,1.00684,.35742,1.41602,.30371,.40918,.75,.67578,1.25488,.75,.09375,.01367,.1875,.02051,.28125,.02051,.40723,0,.80273-.12988,1.13574-.37793,.84473-.62891,1.02051-1.82715,.3916-2.67188-.30469-.40918-.75-.67578-1.25488-.75Zm.41602,2.82031c-.24902,.18457-.55176,.26172-.86133,.2168-.30566-.04492-.57715-.20605-.76172-.45508-.38184-.5127-.27539-1.24023,.2373-1.62207,.20312-.15039,.44336-.22949,.69043-.22949,.05664,0,.11426,.00391,.1709,.01172,.30664,.04492,.57715,.20703,.76172,.45508,.18457,.24902,.26172,.55469,.2168,.86133s-.20605,.57715-.4541,.76172Z"/><path class="cls-1" d="M9.29688,10.94922c3.01855,0,5.47461-2.45605,5.47461-5.47461S12.31543,0,9.29688,0,3.82227,2.45605,3.82227,5.47461s2.45605,5.47461,5.47461,5.47461ZM9.29688,.84961c2.5498,0,4.625,2.0752,4.625,4.625s-2.0752,4.625-4.625,4.625-4.625-2.0752-4.625-4.625S6.74707,.84961,9.29688,.84961Z"/><path class="cls-1" d="M18.15332,22.00684c-.23438,0-.4248,.19043-.4248,.4248,0,.81055-.65918,1.4707-1.46973,1.4707H2.24707c-.77051,0-1.39746-.62695-1.39746-1.39746v-3.91504c0-1.04004,.38281-2.20801,1.05078-3.2041,.12988-.19434,.07812-.45898-.11719-.58984-.19238-.12695-.45996-.08008-.58984,.11719-.76953,1.14844-1.19336,2.4541-1.19336,3.67676v3.91504c0,1.23926,1.00781,2.24707,2.24707,2.24707h14.01172c1.2793,0,2.31934-1.04102,2.31934-2.32031,0-.23438-.19043-.4248-.4248-.4248Z"/><path class="cls-1" d="M2.68115,14.22955c.24121,.01849,.45166-.16223,.47021-.40363s-.16211-.45203-.40332-.47046c-.2417-.01849-.45215,.16223-.4707,.40363s.16211,.45203,.40381,.47046Z"/><path class="cls-1" d="M4.37598,13.25098c.41992-.19238,.86133-.32617,1.32324-.40137,2.30762-.43359,5.19922-.43555,7.20312-.00098,.91895,.18359,1.77051,.59277,2.53125,1.21582,.0791,.06445,.1748,.0957,.26953,.0957,.12305,0,.24512-.05273,.3291-.15527,.14844-.18164,.12207-.44922-.05957-.59863-.87012-.71191-1.84668-1.17969-2.89746-1.38965-2.12695-.46094-5.08398-.46191-7.52246-.00488-.52637,.08594-1.04102,.24219-1.53027,.46582-.21289,.09766-.30762,.34961-.20996,.56348,.09668,.21387,.34863,.30664,.56348,.20996Z"/></g></g></svg>