<?xml version="1.0" encoding="UTF-8"?><svg id="Layer_2" xmlns="http://www.w3.org/2000/svg" viewBox="0 0 24.0918 24.97266"><defs><style>.cls-1{fill:#783cbe;}</style></defs><g id="Layer_1-2"><g><path class="cls-1" d="M9.37793,11.04297c3.04492,0,5.52148-2.47656,5.52148-5.52148S12.42285,0,9.37793,0C6.33398,0,3.85742,2.47656,3.85742,5.52148s2.47656,5.52148,5.52051,5.52148ZM9.37793,.84961c2.57617,0,4.67188,2.0957,4.67188,4.67188s-2.0957,4.67188-4.67188,4.67188c-2.5752,0-4.6709-2.0957-4.6709-4.67188S6.80273,.84961,9.37793,.84961Z"/><path class="cls-1" d="M18.31641,22.21094c-.23438,0-.4248,.19043-.4248,.4248,0,.82031-.66699,1.4873-1.4873,1.4873H2.26367c-.7793,0-1.41406-.63477-1.41406-1.41406v-3.95117c0-1.04785,.38477-2.22461,1.05566-3.22852,.12988-.19531,.07812-.45898-.11719-.58984-.19434-.12695-.45801-.07812-.58984,.11719-.77246,1.15723-1.19824,2.47168-1.19824,3.70117v3.95117c0,1.24805,1.01562,2.26367,2.26367,2.26367h14.14062c1.28906,0,2.33691-1.04785,2.33691-2.33691,0-.23438-.19043-.4248-.4248-.4248Z"/><path class="cls-1" d="M4.39551,13.36621c.42578-.19336,.87305-.33008,1.33691-.40527,2.33301-.4375,5.25293-.43848,7.27051-.00098,1.06738,.21387,2.07129,.74414,2.90527,1.53418,.22705,.21594,.43262,.45477,.62646,.69983,.05225,.16797,.20068,.29596,.38721,.31018,.24316,.01862,.45605-.16376,.47461-.40735,.00635-.0813-.01611-.15533-.0498-.22369-.01318-.03119-.02246-.0636-.04395-.09186-.24316-.32129-.51562-.625-.81055-.9043-.94922-.90039-2.09863-1.50586-3.31543-1.74902-2.14453-.46582-5.12891-.46582-7.59082-.00488-.5293,.08691-1.04785,.24414-1.54199,.46973-.21387,.09668-.30859,.34961-.21094,.5625,.09668,.21582,.35156,.30859,.5625,.21094Z"/><path class="cls-1" d="M20.78223,16.13672c-.18457-.14551-.44922-.11621-.59766,.06641-.14648,.18359-.11621,.45117,.06641,.59766l2.73535,2.18359-2.73535,2.18457c-.18262,.14648-.21289,.41406-.06641,.59766,.08398,.10449,.20801,.15918,.33203,.15918,.09375,0,.18652-.03027,.26562-.09277l3.15039-2.5166c.10059-.08105,.15918-.20312,.15918-.33203s-.05859-.25195-.15918-.33203l-3.15039-2.51562Z"/><path class="cls-1" d="M16.05273,16.20312c-.14746-.18359-.41309-.21289-.59766-.06641l-3.14941,2.51562c-.10059,.08105-.15918,.20312-.15918,.33203s.05859,.25098,.15918,.33203l3.14941,2.5166c.0791,.0625,.17188,.09277,.26562,.09277,.12402,0,.24805-.05469,.33203-.15918,.14648-.18359,.11621-.45117-.06641-.59766l-2.73438-2.18457,2.73438-2.18359c.18262-.14648,.21289-.41406,.06641-.59766Z"/><path class="cls-1" d="M19.34473,16.07715c-.21484-.08887-.46484,.00977-.55664,.22656l-2.12109,5.03223c-.09082,.21582,.00977,.46582,.22656,.55664,.05371,.02246,.10938,.0332,.16504,.0332,.16602,0,.32324-.09766,.3916-.25977l2.12109-5.03223c.09082-.21582-.00977-.46582-.22656-.55664Z"/><path class="cls-1" d="M2.67383,14.35748c.24365,.01862,.45605-.16376,.47461-.40735,.01904-.24365-.16357-.45618-.40723-.47485-.24365-.01862-.45605,.16376-.47461,.40741-.01855,.24359,.16357,.45618,.40723,.47479Z"/></g></g></svg>