<?xml version="1.0" encoding="UTF-8"?><svg id="Layer_2" xmlns="http://www.w3.org/2000/svg" viewBox="0 0 28.54754 18.25699"><defs><style>.cls-1{fill:#783cbe;}</style></defs><g id="Layer_1-2"><g><path class="cls-1" d="M26.68848,.08902c-.65234-.17676-1.32715-.08789-1.91113,.24512-.58301,.33496-1.00098,.87695-1.17676,1.52539-.17578,.64941-.08887,1.32812,.24512,1.91113,.33496,.58301,.87695,1.00098,1.52539,1.17676,.21973,.05957,.44043,.08789,.65723,.08789,1.10938,0,2.12793-.73926,2.43066-1.8584,.17578-.64941,.08789-1.32812-.24609-1.91113s-.87598-1.00098-1.52441-1.17676Zm.9502,2.86523c-.24023,.8877-1.16113,1.40918-2.04492,1.17285-.42969-.11621-.78906-.39355-1.00977-.7793-.22168-.38672-.2793-.83594-.16309-1.26562s.39355-.78906,.7793-1.00977c.25586-.14746,.53906-.22168,.82617-.22168,.14648,0,.29395,.01953,.43945,.05859,.42969,.11621,.78809,.39355,1.00977,.7793,.22168,.38672,.2793,.83594,.16309,1.26562Z"/><path class="cls-1" d="M7.94531,10.37711c0-.23438-.19043-.4248-.4248-.4248H.4248c-.23438,0-.4248,.19043-.4248,.4248s.19043,.4248,.4248,.4248H7.52051c.23438,0,.4248-.19043,.4248-.4248Z"/><path class="cls-1" d="M6.59766,8.59488h3.41895c.23438,0,.4248-.19043,.4248-.4248s-.19043-.4248-.4248-.4248h-3.41895c-.23438,0-.4248,.19043-.4248,.4248s.19043,.4248,.4248,.4248Z"/><path class="cls-1" d="M4.45312,12.18082H2.16113c-.23438,0-.4248,.19043-.4248,.4248s.19043,.4248,.4248,.4248h2.29199c.23438,0,.4248-.19043,.4248-.4248s-.19043-.4248-.4248-.4248Z"/><path class="cls-1" d="M25.96875,8.34684l-1.62207,.01367c-.08301-.54492-.25195-1.55566-.43652-2.14062-.03125-.10059-.05859-.21973-.08887-.34863-.09668-.41504-.2168-.93262-.53223-1.3252-.38086-.47168-1.0625-1.00488-1.72559-1.13477-.53711-.10547-5.29102-.8125-5.49316-.8418-.10254-.02051-.20605,.00586-.29199,.06152l-3.30762,2.11816c-.36426,.19043-.63379,.51172-.75781,.9043-.125,.39453-.08789,.81445,.10254,1.18066,.18945,.36719,.51074,.6377,.90527,.7627,.38721,.12213,.79541,.08716,1.15625-.09204,.00586-.0025,.01172-.00189,.01758-.00464,.26465-.13184,2.0293-1.29395,2.66406-1.71289l.83398,.19922-2.78027,2.31055L6.29102,15.00113l-.14941,.12598c-.36426,.28613-.6084,.73828-.6543,1.21191-.04199,.44531,.09473,.87402,.38477,1.20801,.33398,.38281,.81348,.58203,1.28613,.58203,.34277,0,.68164-.10547,.95801-.32129,.33887-.24609,1.95508-1.55957,3.38086-2.71777,.45703-.37152,.91895-.74695,1.27197-1.03223,.00635-.00464,.01367-.00568,.02002-.01074,.27441-.22461,1.6582-1.32812,2.20312-1.76172l1.72363,.94141-2.25879,2.03125c-.04297,.02344-.08203,.05371-.11621,.0918-.57422,.63672-.7998,1.62598-.00977,2.40137,.34473,.33691,.74414,.50586,1.1582,.50586,.44141,0,.89844-.19141,1.3252-.57422,.07227-.07227,.2627-.24707,.52148-.4873,.9209-.84961,2.63379-2.43164,3.21094-3.15723,.71875-.9043,.49121-1.59375,.29199-1.92285-.21484-.35645-.91602-.86328-1.13574-1.01758l-.68848-.45215,2.09082-1.83691,.61523,2.3418c.04883,.18652,.21777,.31641,.41113,.31641h.00293l3.73145-.02637c.01465,.00195,.03027,.00293,.04492,.00293,.87793-.00879,1.56445-.66016,1.58301-1.5127,.00977-.41309-.1416-.80566-.42773-1.10449-.28516-.2998-.66992-.46973-1.09766-.47949Zm.45996,2.05371c-.12402,.11816-.2832,.18555-.45312,.19238-.01758-.00195-.04395,.00391-.05762-.00293l-3.45898,.02441-.70508-2.68262c-.03711-.1416-.14551-.25391-.28613-.29785s-.29297-.00977-.40332,.08496l-3.02832,2.66016c-.09863,.08789-.15137,.2168-.1416,.34863s.08008,.25098,.19043,.32422l1.14062,.74902c.36133,.25293,.80273,.61523,.88574,.75293,.15137,.25098,.07422,.57227-.23047,.95508-.53516,.6748-2.28223,2.28711-3.12109,3.0625-.26953,.24902-.46777,.43164-.52832,.49219-.48047,.43262-.91895,.45898-1.30469,.08008-.45508-.44531-.19043-.9248-.02148-1.14551l2.8252-2.54102c.10254-.09277,.1543-.22852,.1377-.36621-.01562-.13672-.09766-.25684-.21875-.32324l-2.49805-1.36328c-.15039-.08301-.33496-.06543-.46777,.04004,0,0-1.07227,.854-1.80762,1.44238-.10938,.07794-.54199,.42834-1.91504,1.54395-1.34766,1.09473-3.02441,2.45605-3.35645,2.69824-.30566,.24121-.81738,.1748-1.0918-.14062-.17383-.19922-.19336-.41895-.17871-.56836,.02344-.24219,.15039-.48145,.34277-.63281l8.47363-6.83203,3.43945-2.8584c.12402-.10352,.17871-.26758,.14258-.42383-.03711-.15723-.15918-.2793-.31543-.31641l-1.84082-.43848c-.11328-.02832-.23535-.00586-.33301,.05859-1.19531,.79102-2.55762,1.67676-2.72754,1.76172-.00049,.00024-.00049,.00061-.00098,.00085-.00146,.00061-.00293,.00049-.00391,.0011-.16602,.08691-.3584,.10156-.5332,.0459-.17773-.05566-.32227-.17773-.4082-.34375-.08594-.16504-.10254-.35449-.0459-.53223,.05273-.16797,.16406-.30664,.31543-.39355,.01953-.00879,.03906-.01953,.05859-.03125l3.20508-2.05273c.84766,.12695,4.83301,.72168,5.29688,.8125,.38184,.07422,.89746,.42578,1.22754,.83398,.19336,.24121,.28613,.63672,.36719,.98535,.03516,.15137,.06836,.29102,.10547,.41016,.23438,.74316,.45801,2.35547,.45996,2.37109,.0293,.21094,.20898,.36719,.4209,.36719h.00391l1.97852-.0166c.38477,.00879,.69043,.33008,.68164,.71484-.00391,.18652-.08105,.36035-.21582,.48926Z"/><path class="cls-1" d="M4.82959,8.61655c.24707,0,.44629-.19958,.44629-.44641s-.19922-.44635-.44629-.44635c-.24658,0-.44629,.19952-.44629,.44635s.19971,.44641,.44629,.44641Z"/></g></g></svg>