<?xml version="1.0" encoding="UTF-8"?><svg id="Layer_2" xmlns="http://www.w3.org/2000/svg" viewBox="0 0 24.85254 24.06348"><defs><style>.cls-1{fill:#783cbe;}</style></defs><g id="Layer_1-2"><g><path class="cls-1" d="M16.86523,24.06348H6.58887c-.23438,0-.4248-.19043-.4248-.4248V4.53906c0-.23438,.19043-.4248,.4248-.4248h10.27637c.23438,0,.4248,.19043,.4248,.4248V23.63867c0,.23438-.19043,.4248-.4248,.4248Zm-9.85156-.84961h9.42676V4.96387H7.01367V23.21387Z"/><path class="cls-1" d="M24.42773,24.06348h-7.5625c-.23438,0-.4248-.19043-.4248-.4248V14.08887c0-.23438,.19043-.4248,.4248-.4248h7.5625c.23438,0,.4248,.19043,.4248,.4248v9.5498c0,.23438-.19043,.4248-.4248,.4248Zm-7.1377-.84961h6.71289V14.51367h-6.71289v8.7002Z"/><path class="cls-1" d="M6.58887,24.06348H.4248c-.23438,0-.4248-.19043-.4248-.4248v-7.5625c0-.23438,.19043-.4248,.4248-.4248H6.58887c.23438,0,.4248,.19043,.4248,.4248v7.5625c0,.23438-.19043,.4248-.4248,.4248Zm-5.73926-.84961H6.16406v-6.71289H.84961v6.71289Z"/><path class="cls-1" d="M15.09277,4.96387c-.23438,0-.4248-.19043-.4248-.4248V.84961h-4.62695c-.23438,0-.4248-.19043-.4248-.4248s.19043-.4248,.4248-.4248h5.05176c.23438,0,.4248,.19043,.4248,.4248V4.53906c0,.23438-.19043,.4248-.4248,.4248Z"/><path class="cls-1" d="M8.36133,4.96387c-.23438,0-.4248-.19043-.4248-.4248V2.1084c0-.23438,.19043-.4248,.4248-.4248s.4248,.19043,.4248,.4248v2.43066c0,.23438-.19043,.4248-.4248,.4248Z"/><g><path class="cls-1" d="M15.32422,7.96582h-7.19531c-.23438,0-.4248-.19043-.4248-.4248s.19043-.4248,.4248-.4248h7.19531c.23438,0,.4248,.19043,.4248,.4248s-.19043,.4248-.4248,.4248Z"/><path class="cls-1" d="M15.32422,10.2793h-7.19531c-.23438,0-.4248-.19043-.4248-.4248s.19043-.4248,.4248-.4248h7.19531c.23438,0,.4248,.19043,.4248,.4248s-.19043,.4248-.4248,.4248Z"/><path class="cls-1" d="M15.32422,12.5918h-7.19531c-.23438,0-.4248-.19043-.4248-.4248s.19043-.4248,.4248-.4248h7.19531c.23438,0,.4248,.19043,.4248,.4248s-.19043,.4248-.4248,.4248Z"/><path class="cls-1" d="M15.32422,14.9043h-7.19531c-.23438,0-.4248-.19043-.4248-.4248s.19043-.4248,.4248-.4248h7.19531c.23438,0,.4248,.19043,.4248,.4248s-.19043,.4248-.4248,.4248Z"/><path class="cls-1" d="M15.32422,17.21777h-7.19531c-.23438,0-.4248-.19043-.4248-.4248s.19043-.4248,.4248-.4248h7.19531c.23438,0,.4248,.19043,.4248,.4248s-.19043,.4248-.4248,.4248Z"/><path class="cls-1" d="M15.32422,19.53027h-7.19531c-.23438,0-.4248-.19043-.4248-.4248s.19043-.4248,.4248-.4248h7.19531c.23438,0,.4248,.19043,.4248,.4248s-.19043,.4248-.4248,.4248Z"/></g><path class="cls-1" d="M22.72266,17.21777h-4.11621c-.23438,0-.4248-.19043-.4248-.4248s.19043-.4248,.4248-.4248h4.11621c.23438,0,.4248,.19043,.4248,.4248s-.19043,.4248-.4248,.4248Z"/><path class="cls-1" d="M22.72266,19.28906h-4.11621c-.23438,0-.4248-.19043-.4248-.4248s.19043-.4248,.4248-.4248h4.11621c.23438,0,.4248,.19043,.4248,.4248s-.19043,.4248-.4248,.4248Z"/><path class="cls-1" d="M4.86133,19.2959H1.93262c-.23438,0-.4248-.19043-.4248-.4248s.19043-.4248,.4248-.4248h2.92871c.23438,0,.4248,.19043,.4248,.4248s-.19043,.4248-.4248,.4248Z"/><circle class="cls-1" cx="8.36135" cy=".42485" r=".42322"/></g></g></svg>