<?xml version="1.0" encoding="UTF-8"?><svg id="Layer_2" xmlns="http://www.w3.org/2000/svg" viewBox="0 0 26.93262 24.9873"><defs><style>.cls-1{fill:#783cbe;}</style></defs><g id="Layer_1-2"><g><path class="cls-1" d="M17.20703,7.74512c.17773-.15332,.19824-.42188,.04492-.59961-.70215-.81543-1.64258-1.26367-2.64648-1.26367-1.00488,0-1.94336,.45117-2.64258,1.27051-.15234,.17773-.13086,.44629,.04785,.59863,.0791,.06836,.17773,.10156,.27539,.10156,.12012,0,.23926-.05078,.32324-.14941,1.07031-1.25293,2.92188-1.25293,3.99805-.00293,.15234,.17773,.4209,.19727,.59961,.04492Z"/><path class="cls-1" d="M18.34863,5.67773c.08398,.09766,.20312,.14746,.32227,.14746,.09863,0,.19727-.0332,.27734-.10254,.17773-.15332,.19824-.42188,.04492-.59961-1.16797-1.35645-2.72656-2.10352-4.3877-2.10352s-3.21973,.74707-4.3877,2.10352c-.15332,.17773-.13281,.44629,.04492,.59961,.17676,.15234,.44531,.13281,.59961-.04492,1.00391-1.16602,2.33301-1.80859,3.74316-1.80859s2.73926,.64258,3.74316,1.80859Z"/><path class="cls-1" d="M9.02246,3.54004c1.49805-1.73438,3.48047-2.69043,5.58301-2.69043,2.10156,0,4.08496,.95605,5.58398,2.69043,.08398,.09766,.20215,.14746,.32129,.14746,.09863,0,.19727-.03418,.27734-.10352,.17773-.15332,.19727-.42188,.04395-.59863-1.66211-1.92578-3.87402-2.98535-6.22656-2.98535-2.35352,0-4.56445,1.05957-6.22559,2.98535-.15332,.17773-.13379,.44531,.04395,.59863,.17578,.15234,.44434,.13379,.59863-.04395Z"/><path class="cls-1" d="M24.78516,12.53235v-1.33313c0-1.37695-.88428-2.51733-2.04102-2.74719v-2.78699c0-.23438-.19043-.4248-.4248-.4248s-.4248,.19043-.4248,.4248v2.78699c-1.15674,.22986-2.04102,1.37024-2.04102,2.74719v1.33325c-1.19678,.09717-2.14648,1.21765-2.14648,2.59644v1.14355h-1.30859v-.74609c0-.94995-.5874-1.74268-1.37402-1.9585v-1.76807c0-.23438-.19043-.4248-.4248-.4248s-.4248,.19043-.4248,.4248v1.76807c-.78711,.21582-1.375,1.00854-1.375,1.9585v.77441c-.81592,.13635-1.44629,.9198-1.44629,1.87207v2.12109h-2.39355v-2.74414c0-1.2251-.3916-2.3363-1.01855-3.21997v-1.63159c0-1.43872-.68359-2.68799-1.69238-3.37952,.00537-.02795,.0166-.05383,.0166-.08337v-1.13672c0-.94128-.58154-1.72681-1.36133-1.94226V3.88184c0-.23438-.19043-.4248-.4248-.4248s-.4248,.19043-.4248,.4248v2.27466c-.77881,.21558-1.36035,1.00098-1.36035,1.94214v1.13672c0,.02954,.01123,.05542,.0166,.08325-1.00879,.69141-1.69238,1.94067-1.69238,3.37964v1.63147c-.62695,.88367-1.01855,1.99487-1.01855,3.22009v7.0127c0,.23438,.19043,.4248,.4248,.4248s.4248-.19043,.4248-.4248v-7.0127c0-2.36328,1.62891-4.28613,3.62988-4.28613,2.00195,0,3.63086,1.92285,3.63086,4.28613v7.0127c0,.23438,.19043,.4248,.4248,.4248s.4248-.19043,.4248-.4248v-3.41895h2.39355v3.41895c0,.23438,.19043,.4248,.4248,.4248s.4248-.19043,.4248-.4248v-6.38965c0-.5791,.37988-1.05078,.8457-1.05078h4.6582v7.44043c0,.23438,.19043,.4248,.4248,.4248s.4248-.19043,.4248-.4248V15.12891c0-.97363,.65527-1.76562,1.46094-1.76562h4.60449c.80566,0,1.46094,.79199,1.46094,1.76562v9.43359c0,.23438,.19043,.4248,.4248,.4248s.4248-.19043,.4248-.4248V15.12891c0-1.37915-.9502-2.5-2.14746-2.59656ZM3.54395,8.09863c0-.6377,.41992-1.15625,.93555-1.15625,.5166,0,.93652,.51855,.93652,1.15625v.81201c-.2998-.09692-.60986-.16553-.93652-.16553-.32617,0-.63574,.06848-.93555,.16528v-.81177Zm.93555,4.31543c-.97656,0-1.87451,.37012-2.61133,.98096v-.69678c0-1.71094,1.17188-3.10352,2.61133-3.10352,1.44043,0,2.6123,1.39258,2.6123,3.10352v.69702c-.7373-.61084-1.63525-.9812-2.6123-.9812Zm10.12012,1.94043c.52344,0,.94922,.52539,.94922,1.17188v.74609h-1.89941v-.74609c0-.64648,.42676-1.17188,.9502-1.17188Zm7.71973-5.10156c.89062,0,1.61621,.87305,1.61621,1.94629v1.31445h-3.23242v-1.31445c0-1.07324,.72559-1.94629,1.61621-1.94629Z"/><path class="cls-1" d="M14.59961,8.66992c-.25879,0-.47949,.2002-.5,.46191-.02051,.27539,.18652,.51562,.46191,.53809,.0127,0,.02539,.00098,.03711,.00098,.25879,0,.47949-.2002,.5-.46191,.02051-.27539-.18652-.5166-.46094-.53809-.0127,0-.02539-.00098-.03809-.00098Z"/></g></g></svg>