<?xml version="1.0" encoding="UTF-8"?><svg id="Layer_2" xmlns="http://www.w3.org/2000/svg" viewBox="0 0 28.69171 25.00745"><defs><style>.cls-1{fill:#783cbe;}</style></defs><g id="Layer_1-2"><g><path class="cls-1" d="M14.55196,.05237c-.12695-.06934-.28027-.07031-.41113,0L6.99923,3.98108c-.20508,.11328-.28027,.37109-.16699,.57715,.11328,.20508,.37012,.28125,.57715,.16699L14.34493,.90979l12.27832,6.80762H2.0461l2.05078-1.15527c.2041-.11523,.27637-.37402,.16113-.5791-.11719-.2041-.375-.27539-.5791-.16113L.21603,7.7721c-.16797,.09473-.25098,.29102-.20215,.47754,.04883,.1875,.21777,.31738,.41113,.31738H1.97872v1.47754c0,.23438,.19043,.4248,.4248,.4248h.63574c-.00537,.02783-.0166,.05359-.0166,.08301v11.71191h-.23535c-1.25684,0-2.2793,1.02148-2.2793,2.31836,0,.23438,.19043,.4248,.4248,.4248H27.68673c.23438,0,.44336-.21094,.44336-.44531,0-1.26758-1.03027-2.29785-2.29688-2.29785h-.21582V10.55237c0-.02942-.01123-.05518-.0166-.08301h.63477c.23438,0,.4248-.19043,.4248-.4248v-1.47754h1.60645c.19336,0,.36328-.13086,.41113-.31836,.04883-.1875-.03516-.38379-.20508-.47852L14.55196,.05237ZM3.85567,10.46936h2.08105c-.00537,.02783-.0166,.05359-.0166,.08301v11.71191H3.87228V10.55237c0-.02942-.01123-.05518-.0166-.08301Zm18.01367,11.79492h-5.51855V10.55237c0-.02942-.01123-.05518-.0166-.08301h5.55176c-.00537,.02783-.0166,.05359-.0166,.08301v11.71191Zm-6.36816-11.71191v11.71191h-2.04785V10.55237c0-.02942-.01123-.05518-.0166-.08301h2.08105c-.00537,.02783-.0166,.05359-.0166,.08301Zm-2.89746,0v11.71191H6.76974V10.55237c0-.02942-.01123-.05518-.0166-.08301h5.86719c-.00537,.02783-.0166,.05359-.0166,.08301Zm14.61914,13.60547H1.41036c.16895-.60156,.72168-1.04395,1.37695-1.04395H25.83321c.65723,0,1.21387,.44141,1.38965,1.04395Zm-2.45508-13.60547v11.71191h-2.04883V10.55237c0-.02942-.01123-.05518-.0166-.08301h2.08203c-.00537,.02783-.0166,.05359-.0166,.08301Zm1.04297-.93262H2.82833v-1.05273H25.81075v1.05273Z"/><path class="cls-1" d="M5.50899,5.7467c.06836,0,.1377-.01367,.2041-.04395,.24414-.11426,.35059-.40625,.23828-.65137-.11328-.24316-.4043-.35059-.65039-.23828-.24316,.11523-.35059,.40625-.23828,.65137,.08398,.17773,.26074,.28223,.44629,.28223Z"/></g></g></svg>