<?xml version="1.0" encoding="UTF-8"?><svg id="Layer_2" xmlns="http://www.w3.org/2000/svg" viewBox="0 0 24.60449 25.02305"><defs><style>.cls-1{fill:#783cbe;}</style></defs><g id="Layer_1-2"><g><path class="cls-1" d="M12.57129,.07481c-.14062-.11328-.38965-.08691-.54102,.00586l-2.2959,1.8877c-.18164,.14844-.20801,.41699-.05859,.59766,.14941,.18359,.41797,.20703,.59766,.05859l2.03027-1.67383,11.45117,9.22363v13.99609h-1.98828V11.71446c0-.23438-.19043-.4248-.4248-.4248H12.30469c-.01562,0-.03125,.00098-.04785,.00293H3.26367c-.23438,0-.4248,.19043-.4248,.4248v12.45605H.84961V10.17735L7.47754,4.83848c.18262-.14746,.21191-.41504,.06445-.59766-.14648-.18359-.41504-.21191-.59766-.06445L.1582,9.64317c-.10059,.08105-.1582,.20215-.1582,.33105v14.62402c0,.23438,.19043,.4248,.4248,.4248H3.26367c.23438,0,.4248-.19043,.4248-.4248V12.14219H12.2998c.01562,0,.03125-.00098,.04785-.00293h8.56934v12.45605c0,.23438,.19043,.4248,.4248,.4248h2.83789c.23438,0,.4248-.19043,.4248-.4248V9.97129c0-.12891-.05762-.25-.1582-.33105L12.57129,.07481Z"/><path class="cls-1" d="M19.2334,23.87657h-5.99414c-.23438,0-.4248,.19043-.4248,.4248s.19043,.4248,.4248,.4248h5.99414c.23438,0,.4248-.19043,.4248-.4248s-.19043-.4248-.4248-.4248Z"/><path class="cls-1" d="M19.2334,21.39317h-5.99414c-.23438,0-.4248,.19043-.4248,.4248s.19043,.4248,.4248,.4248h5.99414c.23438,0,.4248-.19043,.4248-.4248s-.19043-.4248-.4248-.4248Z"/><path class="cls-1" d="M19.2334,18.90977h-5.99414c-.23438,0-.4248,.19043-.4248,.4248s.19043,.4248,.4248,.4248h5.99414c.23438,0,.4248-.19043,.4248-.4248s-.19043-.4248-.4248-.4248Z"/><path class="cls-1" d="M19.2334,16.42637h-5.99414c-.23438,0-.4248,.19043-.4248,.4248s.19043,.4248,.4248,.4248h5.99414c.23438,0,.4248-.19043,.4248-.4248s-.19043-.4248-.4248-.4248Z"/><path class="cls-1" d="M11.16016,23.87657H5.16602c-.23438,0-.4248,.19043-.4248,.4248s.19043,.4248,.4248,.4248h5.99414c.23438,0,.4248-.19043,.4248-.4248s-.19043-.4248-.4248-.4248Z"/><path class="cls-1" d="M11.16016,21.39317H5.16602c-.23438,0-.4248,.19043-.4248,.4248s.19043,.4248,.4248,.4248h5.99414c.23438,0,.4248-.19043,.4248-.4248s-.19043-.4248-.4248-.4248Z"/><path class="cls-1" d="M11.16016,18.90977H5.16602c-.23438,0-.4248,.19043-.4248,.4248s.19043,.4248,.4248,.4248h5.99414c.23438,0,.4248-.19043,.4248-.4248s-.19043-.4248-.4248-.4248Z"/><path class="cls-1" d="M11.16016,16.42637H5.16602c-.23438,0-.4248,.19043-.4248,.4248s.19043,.4248,.4248,.4248h5.99414c.23438,0,.4248-.19043,.4248-.4248s-.19043-.4248-.4248-.4248Z"/><path class="cls-1" d="M8.58105,3.80674c.24707,0,.44678-.19958,.44678-.44641s-.19971-.44641-.44678-.44641c-.24658,0-.44629,.19958-.44629,.44641s.19971,.44641,.44629,.44641Z"/></g></g></svg>