<?xml version="1.0" encoding="UTF-8"?><svg id="Layer_2" xmlns="http://www.w3.org/2000/svg" viewBox="0 0 26.56836 25.01367"><defs><style>.cls-1{fill:#783cbe;}</style></defs><g id="Layer_1-2"><g><path class="cls-1" d="M17.3125,16.39453l-3.68359-2.36487v-3.35291c0-.23438-.19043-.4248-.4248-.4248s-.4248,.19043-.4248,.4248v3.35022l-3.58203,2.25232c-.19824,.125-.25781,.38672-.13281,.58594,.08008,.12793,.21875,.19824,.35938,.19824,.07812,0,.15625-.02051,.22656-.06543l3.55127-2.23303,3.65186,2.34436c.07129,.0459,.15039,.06738,.22949,.06738,.13965,0,.27637-.06836,.35742-.19531,.12695-.19727,.06934-.45996-.12793-.58691Z"/><path class="cls-1" d="M13.20312,8.9043c1.625,0,3.05762-.81543,3.83203-2.18164,.11523-.20508,.04395-.46387-.16016-.58008-.2041-.11426-.46484-.04395-.58008,.16016-.63086,1.11328-1.75781,1.75195-3.0918,1.75195-1.98633,0-3.60254-1.61621-3.60254-3.60254s1.61621-3.60254,3.60254-3.60254c1.40625,0,2.69238,.82617,3.27734,2.10254l.0459,.09863c.03027,.06348,.05859,.12305,.08398,.19629,.07617,.22266,.32227,.34082,.54004,.26465,.22266-.07715,.34082-.31836,.26465-.54004-.03711-.10742-.07715-.19336-.16113-.37207-.72363-1.5791-2.31348-2.59961-4.05078-2.59961-2.45508,0-4.45215,1.99707-4.45215,4.45215s1.99707,4.45215,4.45215,4.45215Z"/><path class="cls-1" d="M22.11621,16.11035c-2.4541,0-4.45117,1.99707-4.45117,4.45117,0,2.45508,1.99707,4.45215,4.45117,4.45215,2.45508,0,4.45215-1.99707,4.45215-4.45215,0-2.4541-1.99707-4.45117-4.45215-4.45117Zm0,8.05371c-1.98535,0-3.60156-1.61621-3.60156-3.60254,0-1.98535,1.61621-3.60156,3.60156-3.60156,1.98633,0,3.60254,1.61621,3.60254,3.60156,0,1.98633-1.61621,3.60254-3.60254,3.60254Z"/><path class="cls-1" d="M4.45215,16.11035c-2.45508,0-4.45215,1.99707-4.45215,4.45117,0,2.45508,1.99707,4.45215,4.45215,4.45215s4.45215-1.99707,4.45215-4.45215c0-2.4541-1.99707-4.45117-4.45215-4.45117Zm0,8.05371c-1.98633,0-3.60254-1.61621-3.60254-3.60254,0-1.98535,1.61621-3.60156,3.60254-3.60156s3.60254,1.61621,3.60254,3.60156c0,1.98633-1.61621,3.60254-3.60254,3.60254Z"/><path class="cls-1" d="M17.16895,4.39606c-.24707,0-.44629,.19958-.44629,.44635,0,.24689,.19922,.44641,.44629,.44641s.44629-.19952,.44629-.44641c0-.24677-.19922-.44635-.44629-.44635Z"/></g></g></svg>