<?xml version="1.0" encoding="UTF-8"?><svg id="Layer_2" xmlns="http://www.w3.org/2000/svg" viewBox="0 0 23.02148 23.2627"><defs><style>.cls-1{fill:#783cbe;}</style></defs><g id="Layer_5"><g><path class="cls-1" d="M4.70673,18.94255c.01855-.24365-.16357-.45642-.40771-.4751-.24365-.01855-.45605,.16382-.4751,.40771-.01855,.24365,.16406,.4563,.40771,.4751,.24365,.01855,.45654-.16394,.4751-.40771Z"/><path class="cls-1" d="M19.54199,16.25586c-1.94043,0-3.98047-1.23633-5.97559-3.6416-.92578-1.11621-1.62988-2.22656-2.03711-2.9209-1.07324,1.99902-4.39258,7.29688-9.11914,6.47266-1.39648-.24512-2.41016-.9873-2.41016-1.76562,0-1.9082,6.75488-2.37305,8.8252-2.4707,.06445-.00293,.13184,.00977,.18945,.03516,1.3252-1.66602,2.09277-3.31934,2.10938-3.35547,.06738-.14746,.21387-.24414,.37695-.24805,.17188-.01758,.31445,.08594,.3877,.23145,.00879,.0166,.84766,1.6416,2.17969,3.29199h.03906c1.48828,.0752,8.91406,.54785,8.91406,2.51562,0,.64062-.7002,1.19043-2.08301,1.63477-.45801,.14746-.92383,.2207-1.39648,.2207Zm-4.7002-3.47656c1.53809,1.64941,3.64746,3.15039,5.83691,2.44727,1.20898-.38867,1.48535-.75098,1.49316-.82715-.11426-.4043-2.44922-1.2998-7.33008-1.62012Zm-6.55176,.03027c-5.04102,.29102-7.36816,1.18262-7.44043,1.59277,0,.1709,.52539,.71875,1.70703,.92578,2.29199,.40039,4.26074-.93652,5.7334-2.51855Z"/><path class="cls-1" d="M11.51074,23.2627C5.16406,23.2627,0,19.48145,0,14.83301c0-.23438,.19043-.4248,.4248-.4248s.4248,.19043,.4248,.4248c0,4.17969,4.78223,7.58008,10.66113,7.58008s10.66113-3.40039,10.66113-7.58008c0-.23438,.19043-.4248,.4248-.4248s.4248,.19043,.4248,.4248c0,4.64844-5.16406,8.42969-11.51074,8.42969Z"/><path class="cls-1" d="M11.51074,7.44629c-.99023,0-2.14551-.69434-2.14551-2.65039,0-1.60742,1.70801-4.48145,1.78125-4.60254,.15234-.25781,.57617-.25781,.72852,0,.07324,.12109,1.78125,2.99512,1.78125,4.60254,0,1.95605-1.15527,2.65039-2.14551,2.65039Zm0-6.16895c-.54199,1.01074-1.2959,2.61523-1.2959,3.51855,0,1.12793,.48438,1.80078,1.2959,1.80078s1.2959-.67285,1.2959-1.80078c0-.90332-.75391-2.50781-1.2959-3.51855Z"/><path class="cls-1" d="M19.42773,19.25977c-2.35449,0-4.46191-1.20996-5.90625-2.32812-.97363-.75391-1.70508-1.50391-2.10742-1.94922-.7373,.89062-2.66504,2.93652-5.44629,3.83887-.22656,.07031-.46289-.05078-.53516-.27344s.0498-.46289,.27344-.53516c3.25586-1.05664,5.3252-3.91699,5.3457-3.94531,.07812-.10938,.20215-.1748,.33496-.17871,.14453,.01758,.26074,.05566,.34375,.15918,.00879,.01172,.90332,1.12207,2.31055,2.21191,1.57617,1.21973,4.00098,2.56348,6.56934,2.03027,.18457-.03906,.35742-.07812,.51562-.11914,.22949-.05957,.45898,.0791,.51758,.30664,.05762,.22754-.0791,.45898-.30664,.51758-.16992,.04297-.35449,.08594-.55371,.12695-.45898,.09473-.91113,.1377-1.35547,.1377Z"/></g></g></svg>