<?xml version="1.0" encoding="UTF-8"?><svg id="Layer_2" xmlns="http://www.w3.org/2000/svg" viewBox="0 0 17.88117 24.95996"><defs><style>.cls-1{fill:#783cbe;}</style></defs><g id="Layer_1-2"><g><path class="cls-1" d="M6.40707,13.98828c-.16211,0-.31055-.0918-.38184-.23828l-1.79004-3.67285h-1.1377c-.23438,0-.4248-.19043-.4248-.4248s.19043-.4248,.4248-.4248h1.40332c.16211,0,.31055,.09277,.38184,.23828l1.45605,2.98633,2.21289-6.4668c.05566-.16211,.20312-.27539,.375-.28613,.16211-.02051,.33203,.08203,.4082,.23535,.71387,1.44043,1.78027,3.5752,2.3291,4.63672,.21094-.35254,.52734-.86035,1.00293-1.59961,.07812-.12207,.21289-.19531,.35742-.19531h1.01465c.23438,0,.4248,.19043,.4248,.4248s-.19043,.4248-.4248,.4248h-.78223c-.53418,.83691-1.08301,1.72949-1.17285,1.93164-.03711,.1543-.1582,.28027-.31738,.31738-.36914,.08105-.39062,.09473-2.74023-4.64941l-2.2168,6.47559c-.05566,.16309-.2041,.27539-.37598,.28613-.00879,.00098-.01758,.00098-.02637,.00098Z"/><path class="cls-1" d="M13.21274,22.85645h-.00195l-8.54785-.04395c-.23535-.00098-.42383-.19238-.42285-.42676s.19141-.42285,.4248-.42285h.00195l8.54785,.04395c.23535,.00098,.42383,.19238,.42285,.42676s-.19141,.42285-.4248,.42285Z"/><path class="cls-1" d="M12.94907,20.64355h-.01172c-.23438-.00684-.41895-.20117-.41309-.43652,.00293-.12109,.0957-2.99121,1.61719-5.17871,3.1875-3.57129,2.87891-5.97656,2.87598-6.00098-.00488-4.53418-3.62695-8.17383-8.07812-8.17773-2.05664,.00195-4.01562,.78027-5.51562,2.19043-.1709,.16113-.43848,.15234-.60059-.01855-.16113-.1709-.15234-.43945,.01855-.60059C4.49985,.86133,6.66489,.00195,8.9393,0c4.91992,.00391,8.92285,4.02441,8.92285,8.96289,.0127,.04395,.40137,2.72461-3.05566,6.59082-1.34082,1.93457-1.43164,4.64941-1.43262,4.67676-.00684,.23047-.19531,.41309-.4248,.41309Z"/><path class="cls-1" d="M5.09067,20.64355c-.22363,0-.41113-.1748-.42383-.40039-.00195-.03125-.2002-3.17871-1.5918-4.68457C-.38492,11.68652,.00375,9.00684,.02133,8.89453c-.00488-1.19141,.25098-2.41113,.75488-3.55664,.09473-.21484,.34766-.31055,.55957-.21777,.21484,.09375,.3125,.34473,.21777,.55957-.45605,1.03711-.6875,2.1416-.6875,3.2832-.00781,.08887-.31641,2.49316,2.83887,6.02441,1.59473,1.72559,1.80176,5.06641,1.80957,5.20703,.01367,.23438-.16504,.43555-.39941,.44824-.00879,.00098-.0166,.00098-.02441,.00098Z"/><path class="cls-1" d="M12.25375,24.95996H5.62485c-.23438,0-.4248-.19043-.4248-.4248s.19043-.4248,.4248-.4248h6.62891c.23438,0,.4248,.19043,.4248,.4248s-.19043,.4248-.4248,.4248Z"/><path class="cls-1" d="M2.01328,3.49769c.24682,0,.44638,.19956,.44638,.44636,0,.24684-.19956,.44639-.44638,.44639s-.44638-.19956-.44638-.44639c0-.2468,.19956-.44636,.44638-.44636h0Z"/></g></g></svg>