<?xml version="1.0" encoding="UTF-8"?><svg id="Layer_2" xmlns="http://www.w3.org/2000/svg" viewBox="0 0 22.79391 21.58203"><defs><style>.cls-1{fill:#783cbe;}</style></defs><g id="Layer_1-2"><g><path class="cls-1" d="M16.17673,5.00586c-.01855-.3125-.15723-.59863-.38965-.80469l-.20508-.18262c-.48242-.42969-1.22266-.38379-1.6377,.08398l-.48242,.49902c-.16309,.16797-.1582,.4375,.01074,.60059,.16895,.16406,.43945,.16016,.60059-.01074l.49414-.51172c.05664-.0625,.13379-.10059,.21973-.10547,.07617-.00098,.16602,.02246,.23047,.0791l.20508,.18262c.0625,.05664,.10059,.13379,.10547,.21973,.00488,.08496-.02344,.16602-.0791,.22949l-2.45605,2.76251-1.02051-.92267c-.17285-.15723-.44238-.14258-.60059,.03027-.00146,.00165-.00195,.00378-.00342,.00543-.00635,.00647-.01514,.00909-.021,.01605L.29489,19.45605c-.20703,.23242-.31055,.53223-.29297,.84473,.01855,.3125,.15723,.59863,.38965,.80469l.20508,.18262c.22168,.19727,.49902,.29395,.77441,.29395,.32227,0,.64355-.13184,.87402-.39062L15.88376,5.85059c.20703-.23242,.31055-.53223,.29297-.84473ZM1.61032,20.62598c-.11523,.13184-.31641,.14453-.44922,.02734l-.20508-.18262c-.0625-.05664-.10059-.13379-.10547-.21973-.00488-.08496,.02344-.16699,.08008-.23145L10.4028,9.30237l.71191,.63293L1.61032,20.62598ZM11.67917,9.30048l-.71387-.63458,.55225-.62494,.71045,.64233-.54883,.61719Z"/><path class="cls-1" d="M17.58005,11.56152c-.98535,0-1.76074-.78809-1.76562-1.79492-.00098-.23438-.19043-.42285-.4248-.42285s-.42383,.18848-.4248,.42285c-.00488,.9873-.81152,1.79102-1.79785,1.79102-.23438,0-.4248,.19043-.4248,.4248s.19043,.4248,.4248,.4248c.98438,0,1.75977,.78809,1.76465,1.79492,.00098,.23438,.19043,.42285,.4248,.42285,.2334,0,.42383-.18848,.4248-.42285,.00586-.9873,.8125-1.79102,1.79883-1.79102,.23438,0,.4248-.19043,.4248-.4248s-.19043-.4248-.4248-.4248Zm-2.21289,1.19824c-.19824-.31152-.45801-.57617-.76465-.77734,.30957-.20117,.57422-.46484,.77734-.77246,.19727,.31152,.45801,.57617,.76465,.77734-.30957,.2002-.5752,.46387-.77734,.77246Z"/><path class="cls-1" d="M22.36911,3.11816c-1.35059,0-2.41406-1.0791-2.4209-2.45703-.00098-.23438-.19141-.42285-.4248-.42285-.23438,0-.42383,.18945-.4248,.42285-.00586,1.35156-1.11035,2.45117-2.46191,2.45117-.23438,0-.4248,.19043-.4248,.4248s.19043,.4248,.4248,.4248c1.34961,0,2.41309,1.08008,2.41992,2.45801,.00098,.23438,.19043,.42285,.4248,.42285s.42383-.18848,.4248-.42285c.00684-1.35156,1.11133-2.45215,2.46289-2.45215,.23438,0,.4248-.19043,.4248-.4248s-.19043-.4248-.4248-.4248Zm-2.87695,1.6748c-.29004-.52734-.7168-.96191-1.23438-1.25684,.52246-.29492,.95703-.72754,1.25586-1.24805,.28906,.52734,.71582,.96094,1.23438,1.25586-.52246,.29492-.95801,.72852-1.25586,1.24902Z"/><path class="cls-1" d="M6.84762,3.31836c1.12598,0,2.0127,.90137,2.01855,2.05078,.00098,.23438,.19141,.42285,.4248,.42285,.23438,0,.42383-.18945,.4248-.42285,.00488-1.12793,.92578-2.0459,2.05371-2.0459,.23438,0,.4248-.19043,.4248-.4248s-.19043-.4248-.4248-.4248c-1.12598,0-2.0127-.90039-2.01758-2.05078-.00098-.2334-.19043-.42285-.4248-.42285-.2334,0-.42383,.18848-.4248,.42285-.00586,1.12793-.92773,2.0459-2.05469,2.0459-.23438,0-.4248,.19043-.4248,.4248s.19043,.4248,.4248,.4248Zm2.47559-1.38965c.23633,.3916,.5625,.72266,.94727,.96387-.39355,.23828-.72656,.56836-.96973,.95898-.23438-.3916-.55762-.71973-.94336-.95898,.39258-.24023,.72461-.57129,.96582-.96387Z"/><path class="cls-1" d="M12.57516,6.57501c.24658,0,.44629-.19952,.44629-.44635s-.19971-.44641-.44629-.44641c-.24707,0-.44629,.19958-.44629,.44641s.19922,.44635,.44629,.44635Z"/></g></g></svg>