<?xml version="1.0" encoding="UTF-8"?><svg id="Layer_2" xmlns="http://www.w3.org/2000/svg" viewBox="0 0 25.96952 26.1005"><defs><style>.cls-1{fill:#783cbe;}</style></defs><g id="Layer_1-2"><g id="Layer_2-2"><g id="Layer_1-2"><path class="cls-1" d="M.42501,26.1005C.19003,26.10025-.00025,25.90957,0,25.67459c.00005-.04543,.00737-.09055,.02169-.13366L5.23946,9.91935c.06944-.20928,.28764-.33047,.502-.27881,1.24404,.36155,2.4256,.91084,3.5039,1.62891,1.11907,.71538,2.15635,1.55126,3.09327,2.49267,1.91815,1.80837,3.33769,4.08071,4.12158,6.59766,.05081,.21425-.07008,.4319-.27881,.502L.55978,26.07902c-.04349,.0143-.08899,.02155-.13477,.02148ZM5.91525,10.57999L1.09786,25.00285l14.42237-4.81692c-.80669-2.20097-2.09972-4.19151-3.78272-5.82324-.89286-.89733-1.88153-1.69394-2.94824-2.37549-.8986-.58176-1.86343-1.05417-2.87402-1.40721Z"/><path class="cls-1" d="M7.5964,8.80119c-.23498-.00007-.42541-.19061-.42534-.4256,.00002-.05076,.00911-.10111,.02687-.14867,.56053-1.68894,.19023-3.54825-.97461-4.89356-.15479-.17636-.1373-.44482,.03906-.59961,.17636-.15479,.44482-.1373,.59961,.03907h0c1.37102,1.58173,1.80153,3.77138,1.13139,5.75443-.06264,.16485-.22062,.27387-.39697,.27393Z"/><path class="cls-1" d="M12.23312,9.56828c-.03628,.00007-.07241-.00469-.10743-.01416-.22689-.05876-.36318-.29033-.30441-.51722,.00007-.00029,.00015-.00057,.00022-.00085,.1416-.5459,.25781-1.10205,.34472-1.65234,.46478-2.28403,.15679-4.65777-.87549-6.74756-.11648-.20389-.04563-.4636,.15826-.58008,.20253-.11571,.46046-.04664,.57807,.15478,1.1313,2.2581,1.47586,4.82939,.979,7.30567-.0918,.57763-.21338,1.16064-.36231,1.7334-.04846,.18722-.21724,.31808-.41063,.31836Z"/><path class="cls-1" d="M23.20382,20.13956c-.10315,.00018-.20282-.03732-.28027-.10546-1.34516-1.16512-3.20454-1.53562-4.89356-.9751-.22012,.08168-.46477-.03055-.54645-.25067-.08102-.21835,.02873-.46125,.24616-.54474,1.98316-.66927,4.17243-.23866,5.75439,1.13183,.17636,.15473,.1939,.42313,.03917,.59949-.08068,.09196-.1971,.14468-.31944,.14465Z"/><path class="cls-1" d="M25.54366,14.73429c-.07458-.00011-.14783-.01981-.2124-.05713-4.00342-2.314-9.75391-.1167-9.812-.09326-.21857,.08549-.46505-.0224-.55054-.24096s.0224-.46505,.24096-.55054h0c.251-.09766,6.18408-2.37159,10.54736,.14843,.20333,.11758,.27286,.37773,.15528,.58106-.0761,.1316-.21664,.21257-.36867,.2124Z"/><path class="cls-1" d="M19.87472,25.35343c-.80564-.00095-1.45797-.65482-1.45702-1.46046,.00095-.80564,.65482-1.45797,1.46046-1.45702,.80564,.00095,1.45797,.65482,1.45702,1.46046-.00045,.38653-.1543,.75707-.42775,1.03026l-.00049,.00049c-.27374,.27363-.64517,.42702-1.03222,.42627Zm0-2.06787c-.33642,.0006-.60865,.27382-.60804,.61024,.0006,.33642,.27382,.60865,.61024,.60804,.33642-.00061,.60865-.27382,.60804-.61024-.00029-.1615-.06471-.31628-.17908-.4303-.11446-.11408-.26955-.17802-.43115-.17774Z"/><path class="cls-1" d="M2.09151,7.54679c-.74362-.00013-1.34633-.60306-1.3462-1.34668s.60306-1.34633,1.34668-1.3462c.74362,.00013,1.34633,.60306,1.3462,1.34668h0c-.00092,.7433-.60339,1.34555-1.34668,1.3462Zm0-1.84326c-.27439,.00014-.49672,.22269-.49658,.49708,.00014,.27439,.22269,.49672,.49708,.49658,.2742-.00014,.49645-.22239,.49658-.49659-.00019-.27445-.22263-.49688-.49708-.49707Z"/><path class="cls-1" d="M18.50265,9.60343c-.19495,.00055-.36509-.13209-.41211-.32129l-.32178-1.27881-1.23682-.46c-.21999-.08199-.33185-.3268-.24986-.54678,.03262-.08751,.09314-.16184,.17223-.21152l1.11719-.70166,.05517-1.31836c.01013-.23461,.20853-.41658,.44314-.40645,.0932,.00403,.18249,.03859,.25411,.09837l1.0122,.8457,1.27051-.35449c.22603-.06316,.46046,.06887,.52362,.2949,.02514,.08999,.01993,.18575-.01484,.27248l-.49121,1.22412,.73,1.09912c.0894,.13485,.09469,.30869,.01367,.44873-.07813,.14318-.23411,.22597-.39648,.21045l-1.31592-.08886-.81982,1.03369c-.08064,.1016-.20329,.16078-.33301,.16066Zm-.86719-2.55664l.63916,.23779c.13101,.04901,.22958,.15927,.26367,.29493l.16651,.66064,.42334-.53418c.08285-.11472,.22119-.17578,.36178-.15967l.67969,.0459-.377-.56787c-.07714-.11663-.09228-.26365-.04053-.39355l.25391-.63233-.65674,.18311c-.1347,.0379-.27943,.00683-.38672-.083l-.52295-.437-.02832,.68115c-.00604,.13967-.08033,.26746-.19873,.3418l-.57707,.36228Z"/><circle class="cls-1" cx="11.78488" cy="10.60339" r=".43412"/></g></g></g></svg>