<?xml version="1.0" encoding="UTF-8"?><svg id="Layer_2" xmlns="http://www.w3.org/2000/svg" viewBox="0 0 24.47015 25.07231"><defs><style>.cls-1{fill:#783cbe;}</style></defs><g id="Layer_1-2"><g><path class="cls-1" d="M21.43559,21.26299c.29834-.3288,.58301-.66803,.83594-1.0188,3.04199-4.21094,2.91602-9.99121-.30762-14.05859-.10352-.12988-.20898-.25781-.31836-.38379-.1543-.17773-.4209-.19336-.59961-.04102-.17676,.1543-.19531,.42285-.04102,.59961,.10156,.11621,.19922,.23438,.29395,.35352,2.9873,3.76953,3.10352,9.12891,.2832,13.03223-.29395,.4082-.62402,.80371-.98145,1.17676-.00732,.00781-.00977,.01819-.0166,.02643-.02002,.02411-.03516,.04956-.04883,.0769-.01123,.02209-.02246,.04315-.02979,.06647-.00879,.02856-.01221,.05713-.01514,.08698-.00195,.02423-.00439,.0473-.00244,.07159,.00244,.03015,.01025,.05853,.01904,.08807,.00732,.0235,.01416,.04578,.02539,.06799,.00586,.01172,.00684,.02472,.01367,.03607l.61816,.99023-6.02734-.42285,2.26465-5.60352,.37793,.60547c.00146,.00262,.00439,.00397,.00635,.00653,.01367,.02081,.03418,.03638,.05176,.05475,.02246,.02374,.04297,.04907,.06982,.06665,.00146,.00104,.00244,.00287,.00391,.00391,.00391,.00262,.00928,.0014,.01367,.00391,.05859,.0351,.12402,.05219,.19189,.05603,.00732,.00043,.01416,.00647,.02197,.00647,.00684,0,.01318-.00464,.02002-.005,.05322-.00238,.10498-.01569,.15576-.03925,.01074-.00482,.02148-.00629,.03174-.01196,.00586-.00348,.01318-.00348,.01904-.00726,.05518-.0343,.09668-.08044,.12939-.13165,.00098-.00092,.00195-.00122,.00244-.00214,1.55176-2.44238,1.36523-5.59082-.46289-7.83398-.14844-.18066-.41602-.20898-.59766-.06055-.18164,.14746-.20898,.41602-.06055,.59766,1.44531,1.77466,1.70215,4.19324,.7334,6.21985l-.42969-.68665c-.08398-.13574-.23438-.21094-.39746-.19824-.15918,.01465-.29688,.11621-.35645,.26465l-2.7959,6.91797c-.05176,.12598-.03906,.26855,.0332,.38477,.07227,.11523,.19531,.18848,.33105,.19824l7.44336,.52246c.00977,.00098,.01953,.00098,.0293,.00098,.14844,0,.28711-.07715,.36426-.20605,.08203-.13672,.08105-.30859-.00391-.44434l-.8916-1.42749Z"/><path class="cls-1" d="M6.41899,4.6729c.08496,0,.16992-.02539,.24414-.07715,2.26758-1.5957,5.01074-2.2627,7.71875-1.86621,.01172,.00177,.02295-.00262,.03467-.00189,.02979,.00201,.05762-.00055,.08643-.00476,.02441-.00372,.04736-.00708,.07031-.01489,.03076-.00995,.05762-.02441,.08545-.04108,.01855-.01129,.03613-.02185,.05273-.03583,.02441-.02032,.04443-.04376,.06396-.06958,.01514-.01978,.02881-.03918,.04053-.06165,.00586-.0116,.01611-.01971,.021-.03204l.44922-1.11035,3.20215,5.12598-5.86523,1.46094,.26074-.64453c.00049-.00171,.00049-.00348,.00098-.00519,.01025-.02618,.01074-.05548,.01562-.0838,.00488-.02814,.01367-.05591,.0127-.0838,0-.00177,.00098-.00317,.00098-.00494-.00049-.01086-.00684-.01923-.0083-.02979-.01758-.14929-.10791-.28601-.25732-.34619-.05811-.02203-.1167-.03027-.17383-.02832-.00195-.00006-.00342-.00092-.00488-.00098-2.02734,.0957-3.88086,1.10547-5.08301,2.77148-.16504,.22656-.31348,.46191-.44531,.70215-.11328,.20605-.03809,.46484,.16699,.57715,.06543,.03613,.13574,.05273,.20508,.05273,.14941,0,.29492-.0791,.37207-.21973,.11621-.21094,.24512-.41504,.38965-.61426,.91406-1.26593,2.25684-2.09668,3.75391-2.34625l-.30664,.75934c-.05957,.14844-.03125,.31738,.07422,.43848,.08105,.09375,.19922,.14551,.32031,.14551,.03418,0,.06836-.00391,.10254-.0127l7.24121-1.80469c.13184-.03223,.24023-.12695,.29102-.25293,.05176-.12598,.03906-.26855-.0332-.38477L15.56548,.19927c-.08398-.13477-.2207-.20898-.39746-.19824-.15918,.01465-.29688,.11621-.35645,.26465l-.64307,1.58997c-2.81494-.32288-5.64258,.38867-7.99365,2.0448-.19238,.13477-.23828,.40039-.10352,.5918,.08301,.11816,.21484,.18066,.34766,.18066Z"/><path class="cls-1" d="M1.90727,10.76763c.03906,.01074,.07812,.01562,.11621,.01562,.18555,0,.35547-.12207,.40918-.30859,.34375-1.21387,.89551-2.35059,1.63867-3.37891l.15918-.21582c.14258-.18652,.10645-.45312-.08105-.59473-.18555-.1416-.45312-.10742-.59473,.08105l-.17188,.23047c-.80176,1.11035-1.39648,2.33691-1.76855,3.64551-.06348,.22559,.06738,.46094,.29297,.52539Z"/><path class="cls-1" d="M14.02739,24.15532c-2.67578,.29688-5.34473-.4043-7.52637-1.98047-1.6709-1.20703-2.9541-2.85254-3.70898-4.75781-.00586-.01434-.01758-.02374-.02441-.03705-.01172-.02179-.0249-.04108-.04004-.06024-.02051-.02631-.04199-.0495-.06738-.06989-.0166-.01343-.03369-.02405-.05225-.03491-.02734-.01599-.0542-.0293-.08447-.039-.0249-.00836-.04932-.01276-.0752-.01648-.02637-.00348-.05127-.00531-.07764-.00397-.01416,.00061-.02783-.00421-.0415-.00214l-1.14844,.18555,2.73047-5.39258,4.2832,4.2627-.76953,.12305c-.11719,.0188-.21533,.08484-.27881,.17511-.0083,.01172-.01123,.02588-.01807,.03833-.02002,.03522-.03955,.07062-.04883,.1106-.00684,.02838-.00293,.05798-.00391,.08722-.00049,.02551-.00732,.04993-.00293,.07605,.00049,.00183,.00146,.00317,.00195,.005,.00879,.05316,.02734,.10565,.05762,.15417,.45996,.73535,1.05273,1.36914,1.76367,1.88379,1.06836,.77148,2.32617,1.20898,3.63574,1.26562h.01855c.22656,0,.41504-.17871,.4248-.40625,.00977-.23535-.17188-.43359-.40625-.44336-1.14355-.04883-2.24121-.43066-3.1748-1.10547-.43652-.31586-.80225-.69989-1.13232-1.11359l.89209-.14325c.1582-.02539,.28809-.1377,.33691-.28906,.04883-.15234,.00879-.31934-.10449-.43262l-5.29004-5.2627c-.09668-.09668-.23242-.13574-.36719-.11914-.13477,.02148-.25,.10645-.31152,.22754L.04595,17.69829c-.07227,.14258-.05859,.31445,.03613,.44336,.08008,.11035,.20801,.17383,.34277,.17383,.02246,0,.04492-.00195,.06738-.00488l1.66016-.26721c.82959,1.91949,2.14404,3.58691,3.85059,4.82092,1.99805,1.44336,4.37891,2.20801,6.81641,2.20801,.43262,0,.86719-.02441,1.30176-.07324,.2334-.02539,.40137-.23633,.375-.46875-.02539-.23438-.25195-.40332-.46875-.375Z"/><circle class="cls-1" cx="5.09087" cy="5.34642" r=".44632"/></g></g></svg>