<?xml version="1.0" encoding="UTF-8"?><svg id="Layer_2" xmlns="http://www.w3.org/2000/svg" viewBox="0 0 29.26689 20.48118"><defs><style>.cls-1{fill:#783cbe;}</style></defs><g id="Layer_1-2"><g><path class="cls-1" d="M21.80483,12.44043c.11523-.11328,.15723-.28223,.10742-.43555-.0498-.1543-.18262-.2666-.34277-.29004l-4.43457-.64453-1.9834-4.01758c-.14258-.28906-.61914-.28906-.76172,0l-1.9834,4.01758-4.43457,.64453c-.16016,.02344-.29297,.13574-.34277,.29004-.0498,.15332-.00781,.32227,.10742,.43555l3.20801,3.12695-.75684,4.41602c-.02734,.16016,.03809,.32129,.16895,.41602s.30566,.10938,.44824,.03223l3.96582-2.08496,3.96484,2.08496c.0625,.0332,.13086,.04883,.19824,.04883,.08789,0,.17578-.02734,.25-.08105,.13086-.09473,.19629-.25586,.16895-.41602l-.75684-4.41602,3.20898-3.12695Zm-6.83594,5.0498c-.125-.06641-.27148-.06641-.39648,0l-3.40137,1.78809,.64941-3.78711c.02344-.13867-.02246-.2793-.12207-.37695l-2.75195-2.68164,3.80371-.55273c.1377-.02051,.25781-.10742,.31934-.23242l1.70117-3.44629,1.70117,3.44629c.06152,.125,.18164,.21191,.31934,.23242l3.80371,.55273-2.75293,2.68164c-.09961,.09766-.14551,.23828-.12207,.37695l.64941,3.78711-3.40039-1.78809Z"/><path class="cls-1" d="M29.24624,15.44434c-.0498-.1543-.18262-.2666-.34277-.29004l-2.41309-.35059-1.0791-2.18652c-.14258-.28906-.61914-.28906-.76172,0l-1.0791,2.18652-2.41309,.35059c-.16016,.02344-.29297,.13574-.34277,.29004-.0498,.15332-.00781,.32227,.10742,.43555l1.74512,1.70117-.41113,2.40332c-.02734,.15918,.03809,.32031,.16895,.41504,.13184,.09473,.30566,.10938,.44824,.03223l2.15723-1.13379,2.15723,1.13379c.0625,.0332,.13086,.04883,.19824,.04883,.08789,0,.17578-.02734,.25-.08105,.13086-.09473,.19629-.25586,.16895-.41602l-.41211-2.40234,1.74609-1.70117c.11523-.11328,.15723-.28223,.10742-.43555Zm-2.60742,1.68359c-.09961,.09766-.14551,.23828-.12207,.37695l.30469,1.77344-1.59277-.83691c-.125-.06641-.27148-.06641-.39648,0l-1.59277,.83789,.30371-1.77539c.02344-.1377-.02246-.27832-.12207-.37598l-1.28906-1.25586,1.78223-.25879c.1377-.02051,.25781-.10742,.31934-.23242l.79688-1.61523,.79688,1.61523c.06152,.125,.18164,.21191,.31934,.23242l1.78223,.25879-1.29004,1.25586Z"/><path class="cls-1" d="M8.10854,15.1543l-2.41211-.35059-1.0791-2.18652c-.14258-.28906-.61914-.28906-.76172,0l-1.0791,2.18652-2.41309,.35059c-.16016,.02344-.29297,.13574-.34277,.29004-.0498,.15332-.00781,.32227,.10742,.43555l1.74512,1.70117-.41211,2.40234c-.02734,.16016,.03809,.32129,.16895,.41602,.07422,.05371,.16211,.08105,.25,.08105,.06738,0,.13574-.01562,.19727-.04883l2.15918-1.13379,2.15723,1.13379c.14551,.07715,.31836,.0625,.44824-.03223,.13086-.09473,.19629-.25586,.16895-.41602l-.41211-2.40234,1.74512-1.70117c.11523-.11328,.15723-.28223,.10742-.43555-.0498-.1543-.18262-.2666-.34277-.29004Zm-2.26367,1.97363c-.09961,.09766-.14551,.23828-.12207,.37695l.30469,1.77344-1.59277-.83691c-.125-.06641-.27246-.06641-.39551,0l-1.59473,.83789,.30469-1.77441c.02344-.13867-.02246-.2793-.12207-.37695l-1.28906-1.25586,1.78223-.25879c.1377-.02051,.25781-.10742,.31934-.23242l.79688-1.61523,.79688,1.61523c.06152,.125,.18164,.21191,.31934,.23242l1.78125,.25879-1.28906,1.25586Z"/><path class="cls-1" d="M14.7355,5.49414c.23438,0,.4248-.19043,.4248-.4248V.4248c0-.23438-.19043-.4248-.4248-.4248s-.4248,.19043-.4248,.4248V5.06934c0,.23438,.19043,.4248,.4248,.4248Z"/><path class="cls-1" d="M19.67104,8.74121c.1084,0,.21777-.04102,.30078-.12402l3.76172-3.76172c.16602-.16602,.16602-.43555,0-.60156s-.43555-.16602-.60156,0l-3.76172,3.76172c-.16602,.16602-.16602,.43555,0,.60156,.08301,.08301,.19238,.12402,.30078,.12402Z"/><path class="cls-1" d="M8.27944,7.39941c.08301,.08301,.19238,.12402,.30078,.12402s.21777-.04102,.30078-.12402c.16602-.16602,.16602-.43555,0-.60156l-2.22754-2.22852c-.16602-.16602-.43555-.16602-.60156,0s-.16602,.43555,0,.60156l2.22754,2.22852Z"/><path class="cls-1" d="M9.82925,8.79327c.24658,0,.44629-.19958,.44629-.44641,0-.24677-.19971-.44635-.44629-.44635-.24707,0-.44629,.19958-.44629,.44635,0,.24683,.19922,.44641,.44629,.44641Z"/></g></g></svg>