<?xml version="1.0" encoding="UTF-8"?><svg id="Layer_2" xmlns="http://www.w3.org/2000/svg" viewBox="0 0 27.50353 25.05963"><defs><style>.cls-1{fill:#783cbe;}</style></defs><g id="Layer_1-2"><g><path class="cls-1" d="M25.13193,11.0899c-.02539-.2334-.2334-.39551-.4707-.37305-.2334,.02637-.40039,.2373-.37305,.4707,.02441,.21094,.04297,.42578,.05664,.63965,.38477,6.42773-4.56738,11.97363-11.03906,12.36133-3.14453,.17871-6.15723-.84961-8.50488-2.91895-2.34863-2.06934-3.74414-4.92383-3.93066-8.03711C.48545,6.80475,5.4376,1.25885,11.90928,.87115c3.90918-.21875,7.66016,1.47168,10.04102,4.55957,.14453,.18652,.41211,.21973,.59668,.07715,.18555-.14355,.21973-.41016,.07715-.59668C20.07041,1.59967,16.04697-.23138,11.8585,.0235,4.91904,.43854-.39053,6.38776,.02256,13.28326c.19922,3.34082,1.69727,6.4043,4.21582,8.62402,2.32422,2.04785,5.26172,3.15234,8.34277,3.15234,.25781,0,.51562-.00781,.77539-.02344,6.93945-.41504,12.24902-6.36426,11.83594-13.26074-.01367-.23047-.03418-.45898-.06055-.68555Z"/><path class="cls-1" d="M26.7794,3.461l-14.63379,14.4248-5.86621-5.87207c-.16602-.16602-.43555-.16602-.60156,0s-.16602,.43555,0,.60156l6.16504,6.16992c.08301,.08301,.19238,.12402,.30078,.12402,.10742,0,.21582-.04102,.29883-.12207L27.37705,4.06647c.16699-.16504,.16895-.43359,.00391-.60156-.16504-.16699-.43457-.16895-.60156-.00391Z"/><path class="cls-1" d="M24.92881,9.44971c0-.24677-.19922-.44635-.44629-.44635-.24658,0-.44629,.19958-.44629,.44635,0,.24689,.19971,.44641,.44629,.44641,.24707,0,.44629-.19952,.44629-.44641Z"/></g></g></svg>