<?xml version="1.0" encoding="UTF-8"?><svg id="Layer_2" xmlns="http://www.w3.org/2000/svg" viewBox="0 0 29.25195 25.04102"><defs><style>.cls-1{fill:#783cbe;}</style></defs><g id="Layer_1-2"><g><path class="cls-1" d="M14.62598,0c-2.95215,0-5.3291,.62793-7.48145,1.97559-.19922,.125-.25879,.38672-.13477,.58594,.125,.19922,.38867,.25977,.58594,.13477,2.01074-1.25977,4.24512-1.84668,7.03027-1.84668,7.59668,0,13.77637,6.17969,13.77637,13.77539,0,3.50977-1.30859,6.8252-3.69434,9.38379l-6.93848-6.9375c.54785-.7002,.84473-1.55469,.84473-2.44629,0-2.19824-1.78906-3.9873-3.98828-3.9873-2.19824,0-3.9873,1.78906-3.9873,3.9873,0,.89258,.29688,1.74609,.84375,2.44629l-6.93848,6.9375c-2.38574-2.55957-3.69434-5.875-3.69434-9.38379,0-3.69922,1.44727-7.17285,4.0752-9.7793,.16602-.16504,.16699-.43457,.00195-.60156-.16504-.16602-.43457-.16602-.60156-.00195C1.53613,7.00977,0,10.69727,0,14.625c0,3.87695,1.50391,7.53125,4.23633,10.29004,.0791,.08008,.1875,.12598,.30078,.12598h.00098c.1123,0,.2207-.04492,.30078-.12402l7.52441-7.52441c.16309-.16406,.16602-.42871,.00586-.5957-.56836-.58984-.88086-1.36133-.88086-2.17188,0-1.73047,1.40723-3.1377,3.1377-3.1377s3.13867,1.40723,3.13867,3.1377c0,.80957-.31348,1.58105-.88184,2.17188-.16016,.16699-.15723,.43164,.00586,.5957l7.52441,7.52441c.08008,.0791,.18848,.12402,.30078,.12402h.00098c.11328,0,.22168-.04492,.30078-.12598,2.73242-2.75781,4.23633-6.41211,4.23633-10.29004C29.25195,6.56055,22.69043,0,14.62598,0Z"/><path class="cls-1" d="M5.92676,3.80737c.24658,0,.44629-.19958,.44629-.44641,0-.24677-.19971-.44635-.44629-.44635-.24707,0-.44678,.19958-.44678,.44635,0,.24683,.19971,.44641,.44678,.44641Z"/></g></g></svg>