<?xml version="1.0" encoding="UTF-8"?><svg id="Layer_2" xmlns="http://www.w3.org/2000/svg" viewBox="0 0 26.29697 24.85449"><defs><style>.cls-1{fill:#783cbe;}</style></defs><g id="Layer_1-2"><g><path class="cls-1" d="M13.87022,0c-1.66992,0-3.29102,.32617-4.81934,.96973-.25195,.10645-.49902,.21973-.74219,.34082-.20996,.10547-.2959,.36035-.19141,.57031,.10645,.21094,.36426,.29492,.57031,.19141,.22754-.11328,.45898-.2207,.69336-.31934,1.42285-.59961,2.93359-.90332,4.48926-.90332,6.38379,0,11.57715,5.19434,11.57715,11.57812s-5.19336,11.57715-11.57715,11.57715S2.29307,18.81152,2.29307,12.42773c0-1.88354,.48047-3.71442,1.34717-5.36609l.84326,2.25476c.06445,.1709,.22656,.27637,.39844,.27637,.0498,0,.09961-.00879,.14844-.02637,.2207-.08301,.33203-.32715,.25-.54688l-1.21582-3.25098c-.04395-.11523-.13477-.20703-.25-.25-.11523-.04102-.24121-.03223-.35156,.02539L.22178,7.30664c-.20605,.1123-.28223,.37012-.16992,.57617s.37207,.28125,.57617,.16992l2.11523-1.14996c-.84863,1.70923-1.2998,3.59613-1.2998,5.52496,0,6.85254,5.57422,12.42676,12.42676,12.42676s12.42676-5.57422,12.42676-12.42676S20.72275,0,13.87022,0Z"/><path class="cls-1" d="M7.11631,3.01562c.00488,0,.00879,0,.01367-.00098,.12012-.00293,.23242-.05371,.31543-.1416,.08203-.08789,.125-.20215,.12109-.32227-.00391-.12109-.05469-.23242-.14258-.31445-.17871-.16797-.46484-.15918-.63574,.02051-.08203,.08789-.125,.20215-.12109,.32227,.00391,.12109,.05371,.23242,.1416,.31445,.08398,.0791,.19238,.12207,.30762,.12207Z"/></g></g></svg>