<?xml version="1.0" encoding="UTF-8"?><svg id="Layer_2" xmlns="http://www.w3.org/2000/svg" viewBox="0 0 25.06055 25.52637"><defs><style>.cls-1{fill:#783cbe;}</style></defs><g id="Layer_1-2"><g><path class="cls-1" d="M24.05273,9.25098c-.22559,.06445-.35645,.2998-.29102,.52539,.25879,.90546,.38574,1.84601,.41992,2.7959h-1.95508c-.23438,0-.4248,.19043-.4248,.4248s.19043,.4248,.4248,.4248h1.96289c-.20654,5.69513-4.50098,10.35327-10.03613,11.12842,2.70508-2.03772,4.77979-5.42969,5.4502-9.08936l.08398-.57324c.04004-.23145-.11426-.45117-.3457-.49219-.22559-.03516-.45117,.1123-.49219,.34375-.00488,.03223-.02539,.1709-.04492,.30762l-.03809,.26465c-.68848,3.76086-2.94043,7.20923-5.8125,9.02771V13.42188h4.69336c.23438,0,.4248-.19043,.4248-.4248s-.19043-.4248-.4248-.4248h-4.69336V1.64246c.3833,.24207,.76123,.50409,1.12305,.80383,.17969,.14941,.44824,.12598,.59863-.05566,.14941-.18066,.125-.44922-.05566-.59863-.15137-.12524-.31006-.23248-.46582-.34875,.22119,.03082,.44385,.05444,.66113,.09778,.23535,.04785,.4541-.10449,.5-.33398,.0459-.23047-.10352-.4541-.33398-.5-.79834-.15906-1.62256-.23901-2.4502-.23914l-.00049-.00006c-.00049,0-.00098-.00006-.00146-.00006-2.85254,0-5.64355,.9834-7.85938,2.77051-.18262,.14746-.21191,.41504-.06445,.59766,.08398,.10449,.20703,.1582,.33105,.1582,.09375,0,.18848-.03027,.2666-.09375,1.66553-1.34277,3.61084-2.17334,5.69238-2.46155-3.24951,2.4505-5.51025,6.83228-5.65137,11.13342H.8667c.08447-2.25793,.83496-4.47443,2.19971-6.43262,.13379-.19238,.08691-.45801-.10547-.5918s-.45801-.08691-.5918,.10547C.81934,7.87793,0,10.41797,0,12.99707c0,6.90833,5.61963,12.52771,12.52881,12.52917l.00049,.00012s0-.00006,.00049-.00006h.00049v0c.00049,0,.00098,.00006,.00098,.00006,6.90918,0,12.5293-5.62012,12.5293-12.5293,0-1.1748-.16211-2.33789-.48242-3.45508-.06348-.22461-.29492-.36133-.52539-.29102Zm-11.94824,15.10272c-3.41504-2.15887-5.86035-6.58118-6.01123-10.93182h6.01123v10.93182ZM12.10449,1.64032V12.57227H6.09326c.15088-4.35156,2.59619-8.77386,6.01123-10.93195ZM.87109,13.42188H5.24414c.14111,4.29547,2.39648,8.67242,5.64014,11.12518C5.36035,23.76288,1.07715,19.10974,.87109,13.42188Z"/><path class="cls-1" d="M19.60156,13.20215c.08203,.07715,.1875,.11523,.29199,.11523s.20996-.03809,.29199-.11621c.16602-.15723,4.08105-3.9043,4.08105-8.42773,0-2.30762-1.14844-4.77344-4.37305-4.77344-3.22559,0-4.37402,2.46582-4.37402,4.77344,0,4.52344,3.91602,8.27051,4.08203,8.42871Zm.29199-12.35254c3.17969,0,3.52344,2.74414,3.52344,3.92383,0,3.4668-2.63184,6.5625-3.52344,7.51172-.89355-.94824-3.52441-4.03906-3.52441-7.51172,0-1.17969,.34375-3.92383,3.52441-3.92383Z"/><path class="cls-1" d="M22.64258,4.7207c0-1.5166-1.2334-2.75-2.74902-2.75-1.5166,0-2.75,1.2334-2.75,2.75s1.2334,2.75,2.75,2.75c1.51562,0,2.74902-1.2334,2.74902-2.75Zm-4.64941,0c0-1.04785,.85254-1.90039,1.90039-1.90039,1.04688,0,1.89941,.85254,1.89941,1.90039s-.85254,1.90039-1.89941,1.90039c-1.04785,0-1.90039-.85254-1.90039-1.90039Z"/><path class="cls-1" d="M3.63672,5.16309c.02637,.00488,.05273,.00684,.07812,.00684,.21191,0,.40137-.15234,.44043-.36816,.04297-.24219-.11914-.47461-.36133-.51855-.02637-.00488-.05273-.00684-.07812-.00684-.21191,0-.40137,.15234-.44043,.36816-.04297,.24219,.11914,.47461,.36133,.51855Z"/></g></g></svg>