<?xml version="1.0" encoding="UTF-8"?><svg id="Layer_2" xmlns="http://www.w3.org/2000/svg" viewBox="0 0 24.97266 24.97266"><defs><style>.cls-1{fill:#783cbe;}</style></defs><g id="Layer_1-2"><g><path class="cls-1" d="M9.4873,14.0918h.03516c1.5918,0,2.89648-1.28418,2.91699-2.88086,.01855-1.60742-1.27441-2.93164-2.88184-2.95215h-.03613c-.76562,0-1.4873,.29297-2.03613,.8291-.55762,.54395-.87012,1.27344-.87891,2.05273-.00293,.23438,.18457,.42676,.41992,.42969,.23047-.0166,.42676-.18457,.42969-.41992,.00684-.55176,.22852-1.06836,.62305-1.4541,.38867-.37988,.90039-.58789,1.44238-.58789h.02539c1.13965,.01465,2.05566,.95312,2.04297,2.0918-.01465,1.13965-.98926,2.02539-2.125,2.04297-.99805,.06348-2.89355,.75293-2.91895,2.9043-.00293,.23438,.18457,.42676,.41992,.42969l4.98145,.06152h.00488c.23242,0,.42188-.18652,.4248-.41992,.00293-.23438-.18457-.42676-.41992-.42969l-4.51953-.05566c.29199-1.49707,2.00195-1.63672,2.0498-1.6416Z"/><path class="cls-1" d="M18.00684,8.3623h-.00488c-.23242,0-.42188,.18652-.4248,.41992l-.04443,3.62372-3.01025-.0368,.04395-3.62402c.00293-.23438-.18457-.42676-.41992-.42969h-.00488c-.23242,0-.42188,.18652-.4248,.41992l-.0498,4.04883c-.00195,.1123,.04199,.2207,.12109,.30176,.07812,.08105,.18555,.12695,.29883,.12793l3.43555,.04169-.03711,3.0257c-.00293,.23438,.18457,.42676,.41992,.42969h.00488c.23242,0,.42188-.18652,.4248-.41992l.04199-3.44653c0-.00128,.00098-.00238,.00098-.00366s-.00049-.00238-.00049-.00366l.04932-4.04517c.00293-.23438-.18457-.42676-.41992-.42969Z"/><path class="cls-1" d="M24.83496,10.62695l-.05469-.33496c-.03906-.21973-.08301-.4375-.13379-.6543-.06445-.27051-.13574-.53809-.21582-.80078l-.08203-.25977c-.07324-.22363-.31445-.34277-.53613-.27246-.22266,.07324-.34473,.3125-.27246,.53613l.07715,.24414c.0752,.24512,.14258,.49512,.20117,.74707,.04688,.20215,.08887,.4043,.125,.60742l.05176,.31445c.0459,.31152,.08008,.62598,.10156,.94238,.0166,.26172,.02637,.52441,.02637,.79004,0,6.41602-5.2207,11.63672-11.63672,11.63672S.84961,18.90234,.84961,12.48633,6.07031,.84961,12.48633,.84961c3.29639,0,6.36719,1.37976,8.57031,3.79004h-1.90918c-.23438,0-.4248,.19043-.4248,.4248s.19043,.4248,.4248,.4248h3.04395c.23438,0,.4248-.19043,.4248-.4248V2.16797c0-.23438-.19043-.4248-.4248-.4248s-.4248,.19043-.4248,.4248v1.99359C19.39648,1.51624,16.06543,0,12.48633,0,5.60156,0,0,5.60156,0,12.48633s5.60156,12.48633,12.48633,12.48633,12.48633-5.60156,12.48633-12.48633c0-.2832-.00977-.56543-.02832-.84668-.02344-.33984-.05957-.67773-.10938-1.0127Z"/><path class="cls-1" d="M23.29004,7.51361c.24658,0,.44629-.19958,.44629-.44641s-.19971-.44635-.44629-.44635c-.24707,0-.44629,.19952-.44629,.44635s.19922,.44641,.44629,.44641Z"/></g></g></svg>