<?xml version="1.0" encoding="UTF-8"?><svg id="Layer_2" xmlns="http://www.w3.org/2000/svg" viewBox="0 0 25.66943 21.46582"><defs><style>.cls-1{fill:#783cbe;}</style></defs><g id="Layer_1-2"><g><path class="cls-1" d="M23.17627,0H4.50244c-1.375,0-2.49414,1.11816-2.49414,2.49316v1.95215c0,.23438,.19043,.4248,.4248,.4248s.4248-.19043,.4248-.4248v-1.95215c0-.90625,.73828-1.64355,1.64453-1.64355H23.17627c.90625,0,1.64355,.7373,1.64355,1.64355V14.17285c0,.90625-.7373,1.64355-1.64355,1.64355H6.44287c-.12598,0-.24512,.05566-.32617,.15234l-3.25879,3.90039V8.99146l1.28223,1.28296c.08301,.08301,.19238,.12402,.30078,.12402s.21777-.04102,.30078-.12402c.16602-.16602,.16602-.43555,0-.60156l-2.00781-2.00781c-.16602-.16602-.43555-.16602-.60156,0L.12451,9.67285c-.16602,.16602-.16602,.43555,0,.60156s.43555,.16602,.60156,0l1.28223-1.28296v12.04956c0,.17871,.11133,.33887,.28027,.39941,.04688,.01758,.0957,.02539,.14453,.02539,.12305,0,.24414-.05371,.32617-.15234l3.88281-4.64746H23.17627c1.375,0,2.49316-1.11816,2.49316-2.49316V2.49316c0-1.375-1.11816-2.49316-2.49316-2.49316Z"/><path class="cls-1" d="M10.80811,8.92969c0-.76074-.61816-1.37891-1.37891-1.37891s-1.37891,.61816-1.37891,1.37891,.61816,1.37891,1.37891,1.37891,1.37891-.61816,1.37891-1.37891Zm-1.9082,0c0-.29199,.2373-.5293,.5293-.5293s.5293,.2373,.5293,.5293-.2373,.5293-.5293,.5293-.5293-.2373-.5293-.5293Z"/><path class="cls-1" d="M15.45264,8.92969c0-.76074-.61816-1.37891-1.37793-1.37891-.76074,0-1.37891,.61816-1.37891,1.37891s.61816,1.37891,1.37891,1.37891c.75977,0,1.37793-.61816,1.37793-1.37891Zm-1.90723,0c0-.29199,.2373-.5293,.5293-.5293,.29102,0,.52832,.2373,.52832,.5293s-.2373,.5293-.52832,.5293c-.29199,0-.5293-.2373-.5293-.5293Z"/><path class="cls-1" d="M20.09814,8.92969c0-.76074-.61816-1.37891-1.37891-1.37891s-1.37891,.61816-1.37891,1.37891,.61816,1.37891,1.37891,1.37891,1.37891-.61816,1.37891-1.37891Zm-1.9082,0c0-.29199,.2373-.5293,.5293-.5293s.5293,.2373,.5293,.5293-.2373,.5293-.5293,.5293-.5293-.2373-.5293-.5293Z"/><path class="cls-1" d="M2.87988,6.20874c0-.24677-.19971-.44635-.44678-.44635-.24658,0-.44629,.19958-.44629,.44635,0,.24689,.19971,.44641,.44629,.44641,.24707,0,.44678-.19952,.44678-.44641Z"/></g></g></svg>