<?xml version="1.0" encoding="UTF-8"?><svg id="Layer_2" xmlns="http://www.w3.org/2000/svg" viewBox="0 0 24.97168 24.97168"><defs><style>.cls-1{fill:#783cbe;}</style></defs><g id="Layer_1-2"><g><g><path class="cls-1" d="M12.48633,13.26367c-2.5332,0-4.59375-2.06055-4.59375-4.59375,0-2.53223,2.06055-4.59277,4.59375-4.59277,2.53223,0,4.59277,2.06055,4.59277,4.59277,0,2.5332-2.06055,4.59375-4.59277,4.59375Zm0-8.33691c-2.06445,0-3.74414,1.67969-3.74414,3.74316,0,2.06445,1.67969,3.74414,3.74414,3.74414,2.06348,0,3.74316-1.67969,3.74316-3.74414,0-2.06348-1.67969-3.74316-3.74316-3.74316Z"/><path class="cls-1" d="M19.4043,22.37109c-.23438,0-.4248-.19043-.4248-.4248v-3.12891c0-1.65625-1.13184-3.11621-2.71777-3.53906-2.25,1.60352-5.30078,1.60352-7.55078,0-1.58594,.42285-2.71875,1.88281-2.71875,3.53906v3.12891c0,.23438-.19043,.4248-.4248,.4248s-.4248-.19043-.4248-.4248v-3.12891c0-2.11816,1.50293-3.97363,3.57324-4.41406,.12207-.02246,.24707,.00195,.34473,.07715,2.02539,1.53516,4.82617,1.53516,6.85156,0,.09766-.0752,.22266-.10059,.34473-.07715,2.07031,.43945,3.57227,2.2959,3.57227,4.41406v3.12891c0,.23438-.19043,.4248-.4248,.4248Z"/></g><g><path class="cls-1" d="M12.48633,24.97168C5.60156,24.97168,0,19.37109,0,12.48633S5.60156,0,12.48633,0c3.84863,0,7.4248,1.73535,9.81152,4.7627,.14551,.18359,.11328,.45117-.07129,.59668-.18262,.14355-.4502,.11426-.59668-.07129C19.40625,2.46777,16.07324,.84961,12.48633,.84961,6.07031,.84961,.84961,6.07031,.84961,12.48633s5.2207,11.63574,11.63672,11.63574,11.63574-5.21973,11.63574-11.63574c0-.26562-.00879-.52832-.02637-.78809-.02051-.32031-.05469-.63477-.10059-.94434l-.05176-.3125c-.03613-.20605-.0791-.41016-.125-.61035-.05859-.25195-.12598-.50098-.20117-.74609l-.07617-.24316c-.07422-.22266,.04785-.46289,.27051-.53613,.22168-.07324,.46387,.04785,.53613,.27051l.08301,.26074c.08008,.2627,.15137,.5293,.21582,.80176,.0498,.2168,.09473,.43457,.13379,.6543l.05469,.33496c.0498,.33398,.08594,.67188,.1084,1.01367,.01953,.27734,.02832,.55957,.02832,.84473,0,6.88477-5.60059,12.48535-12.48535,12.48535Z"/><path class="cls-1" d="M22.19043,5.48926h-3.04297c-.23438,0-.4248-.19043-.4248-.4248s.19043-.4248,.4248-.4248h2.61816V2.16699c0-.23438,.19043-.4248,.4248-.4248s.4248,.19043,.4248,.4248v2.89746c0,.23438-.19043,.4248-.4248,.4248Z"/></g><path class="cls-1" d="M23.28967,6.62017c.24682,0,.44638,.19956,.44638,.44636,0,.24684-.19956,.44639-.44638,.44639s-.44638-.19956-.44638-.44639c0-.2468,.19956-.44636,.44638-.44636h0Z"/></g></g></svg>