<?xml version="1.0" encoding="UTF-8"?><svg id="Layer_2" xmlns="http://www.w3.org/2000/svg" viewBox="0 0 24.98926 24.93408"><defs><style>.cls-1{fill:#783cbe;}</style></defs><g id="Layer_1-2"><g><path class="cls-1" d="M4.18652,14.95459c1.48438,0,2.69141-1.20703,2.69141-2.69141s-1.20703-2.69141-2.69141-2.69141-2.69141,1.20703-2.69141,2.69141,1.20703,2.69141,2.69141,2.69141Zm0-4.5332c1.01562,0,1.8418,.82617,1.8418,1.8418s-.82617,1.8418-1.8418,1.8418-1.8418-.82617-1.8418-1.8418,.82617-1.8418,1.8418-1.8418Z"/><path class="cls-1" d="M8.37305,17.78076c0-1.24219-.88184-2.33105-2.0957-2.58984-.12012-.02344-.24609,.00195-.3457,.07715-1.03125,.78027-2.45703,.78125-3.49219,0-.09766-.07422-.2207-.09961-.34473-.07715-1.21387,.25879-2.09473,1.34766-2.09473,2.58984v1.70117c0,.88086,.7168,1.59766,1.59766,1.59766H6.77539c.88086,0,1.59766-.7168,1.59766-1.59766v-1.70117Zm-.84961,1.70117c0,.41211-.33594,.74805-.74805,.74805H1.59766c-.41211,0-.74805-.33594-.74805-.74805v-1.70117c0-.7832,.51562-1.47656,1.24902-1.71191,1.25391,.84766,2.92285,.84766,4.1748,0,.7334,.23535,1.25,.92871,1.25,1.71191v1.70117Z"/><path class="cls-1" d="M20.80273,14.95459c1.48438,0,2.69141-1.20703,2.69141-2.69141s-1.20703-2.69141-2.69141-2.69141-2.69141,1.20703-2.69141,2.69141,1.20703,2.69141,2.69141,2.69141Zm0-4.5332c1.01562,0,1.8418,.82617,1.8418,1.8418s-.82617,1.8418-1.8418,1.8418-1.8418-.82617-1.8418-1.8418,.82617-1.8418,1.8418-1.8418Z"/><path class="cls-1" d="M22.89355,15.19092c-.12207-.02344-.24609,.00195-.3457,.07715-1.03125,.78125-2.45898,.78125-3.49023,0-.09961-.07422-.2207-.09961-.3457-.07715-1.21387,.25879-2.0957,1.34766-2.0957,2.58984v1.70117c0,.88086,.7168,1.59766,1.59766,1.59766h5.17773c.88086,0,1.59766-.7168,1.59766-1.59766v-1.70117c0-1.24219-.88184-2.33105-2.0957-2.58984Zm1.24609,4.29102c0,.41211-.33594,.74805-.74805,.74805h-5.17773c-.41211,0-.74805-.33594-.74805-.74805v-1.70117c0-.7832,.5166-1.47656,1.25-1.71191,1.25195,.84766,2.92188,.84766,4.17383,0,.7334,.23535,1.25,.92871,1.25,1.71191v1.70117Z"/><path class="cls-1" d="M12.49414,18.80908c1.48438,0,2.69141-1.20703,2.69141-2.69141s-1.20703-2.69141-2.69141-2.69141-2.69141,1.20703-2.69141,2.69141,1.20703,2.69141,2.69141,2.69141Zm0-4.5332c1.01562,0,1.8418,.82617,1.8418,1.8418s-.82617,1.8418-1.8418,1.8418-1.8418-.82617-1.8418-1.8418,.82617-1.8418,1.8418-1.8418Z"/><path class="cls-1" d="M14.58594,19.04541c-.12109-.02539-.24707,.00293-.3457,.07715-1.0332,.7832-2.45801,.7832-3.49121,0-.09863-.07422-.22363-.10156-.3457-.07715-1.21387,.25879-2.0957,1.34766-2.0957,2.58984v1.70117c0,.88086,.7168,1.59766,1.59863,1.59766h5.17676c.88184,0,1.59863-.7168,1.59863-1.59766v-1.70117c0-1.24219-.88184-2.33105-2.0957-2.58984Zm1.24609,4.29102c0,.41211-.33594,.74805-.74902,.74805h-5.17676c-.41309,0-.74902-.33594-.74902-.74805v-1.70117c0-.7832,.5166-1.47656,1.25-1.71191,1.25391,.84961,2.9209,.84961,4.1748,0,.7334,.23535,1.25,.92871,1.25,1.71191v1.70117Z"/><path class="cls-1" d="M12.34961,5.62646c.75781,0,1.37402-.61621,1.37402-1.37402s-.61621-1.37402-1.37402-1.37402-1.37402,.61621-1.37402,1.37402,.61621,1.37402,1.37402,1.37402Zm0-1.89844c.28906,0,.52441,.23535,.52441,.52441s-.23535,.52441-.52441,.52441-.52441-.23535-.52441-.52441,.23535-.52441,.52441-.52441Z"/><path class="cls-1" d="M14.40527,6.69482c-.18262,.14648-.21289,.41406-.06641,.59766,.08398,.10449,.20703,.15918,.33203,.15918,.09277,0,.18652-.03027,.26562-.09277,.93555-.74707,1.47168-1.86133,1.47168-3.05664,0-1.19434-.53516-2.30859-1.46875-3.05566-.18164-.14551-.45117-.11719-.59766,.06641s-.11719,.45117,.06641,.59766c.73145,.58496,1.15039,1.45703,1.15039,2.3916,0,.93555-.41992,1.80762-1.15332,2.39258Z"/><path class="cls-1" d="M9.76172,7.35889c.0791,.0625,.17188,.09277,.26562,.09277,.125,0,.24805-.05469,.33203-.15918,.14648-.18359,.11621-.45117-.06641-.59766-.7334-.58496-1.15332-1.45703-1.15332-2.39258,0-.93457,.41895-1.80664,1.15039-2.3916,.18359-.14648,.21289-.41406,.06641-.59766-.14746-.18262-.41602-.21094-.59766-.06641-.93359,.74707-1.46875,1.86133-1.46875,3.05566,0,1.19531,.53613,2.30957,1.47168,3.05664Z"/><path class="cls-1" d="M17.55566,4.30225c0,1.30273-.49512,2.54004-1.39258,3.48438-.16211,.16992-.15527,.43945,.01465,.60059,.08203,.07812,.1875,.11719,.29297,.11719,.1123,0,.22461-.04395,.30762-.13184,1.0498-1.10254,1.62695-2.54785,1.62695-4.07031,0-1.57812-.61426-3.06152-1.72949-4.17773-.16602-.16602-.43555-.16602-.60156,0s-.16602,.43555,0,.60156c.95508,.95508,1.48145,2.22461,1.48145,3.57617Z"/><path class="cls-1" d="M8.22754,8.50439c.10547,0,.21094-.03906,.29297-.11719,.16992-.16113,.17676-.43066,.01465-.60059-.89746-.94434-1.39258-2.18164-1.39258-3.48438,0-.7832,.17383-1.53223,.5166-2.22852,.10352-.21094,.0166-.46484-.19434-.56934-.21289-.10156-.46582-.01758-.56836,.19434-.40039,.81348-.60352,1.68945-.60352,2.60352,0,1.52246,.57715,2.96777,1.62695,4.07031,.08301,.08789,.19531,.13184,.30762,.13184Z"/><path class="cls-1" d="M8.44092,1.03516c.24658,0,.44629-.19952,.44629-.44635s-.19971-.44641-.44629-.44641-.44629,.19958-.44629,.44641,.19971,.44635,.44629,.44635Z"/></g></g></svg>