<?xml version="1.0" encoding="UTF-8"?><svg id="Layer_2" xmlns="http://www.w3.org/2000/svg" viewBox="0 0 24.97363 24.97461"><defs><style>.cls-1{fill:#783cbe;}</style></defs><g id="Layer_1-2"><g><path class="cls-1" d="M22.68262,10.08044c-.90332-3.84296-3.875-6.83411-7.70605-7.76758-.05762-1.28351-1.11182-2.31287-2.40918-2.31287-1.33398,0-2.41992,1.08594-2.41992,2.41992s1.08594,2.41992,2.41992,2.41992c1.07373,0,1.97607-.70844,2.2915-1.67877,3.45117,.87396,6.12646,3.56775,6.97461,7.02814-.98096,.3089-1.69971,1.21655-1.69971,2.2981,0,1.08081,.71777,1.98798,1.69775,2.29742-.84668,3.46063-3.51709,6.1532-6.97217,7.02863-.31543-.97076-1.21777-1.67957-2.29199-1.67957-1.0874,0-1.99902,.72614-2.30273,1.71527-3.48145-.82867-6.26416-3.59033-7.12061-7.06494,.979-.31012,1.6958-1.21674,1.6958-2.29681,0-1.08411-.72168-1.99353-1.70654-2.30029,.59766-2.47467,2.03223-4.3974,4.396-5.85498,.2002-.12305,.2627-.38477,.13867-.58398-.12402-.20117-.38672-.26367-.58398-.13867-2.5957,1.59882-4.16162,3.72327-4.7998,6.47174-1.27002,.07202-2.28418,1.11871-2.28418,2.40619,0,1.28607,1.01221,2.33154,2.27979,2.40576,.91797,3.91882,3.95801,6.93512,7.88379,7.82037,.08398,1.2594,1.12451,2.26117,2.40381,2.26117,1.29688,0,2.35107-1.02893,2.40918-2.31299,3.83496-.93481,6.80078-3.92444,7.70459-7.76727,1.27393-.06787,2.29248-1.1167,2.29248-2.40704,0-1.28973-1.01758-2.3382-2.29102-2.40686ZM12.56738,3.99023c-.86621,0-1.57031-.7041-1.57031-1.57031s.7041-1.57031,1.57031-1.57031,1.57031,.7041,1.57031,1.57031-.7041,1.57031-1.57031,1.57031ZM.84961,12.4873c0-.86621,.7041-1.57031,1.57031-1.57031s1.57031,.7041,1.57031,1.57031-.7041,1.57031-1.57031,1.57031-1.57031-.7041-1.57031-1.57031Zm11.71777,11.6377c-.86621,0-1.57031-.70508-1.57031-1.57129s.7041-1.57031,1.57031-1.57031,1.57031,.7041,1.57031,1.57031-.7041,1.57129-1.57031,1.57129Zm9.98633-10.06738c-.86621,0-1.57031-.7041-1.57031-1.57031s.7041-1.57031,1.57031-1.57031,1.57031,.7041,1.57031,1.57031-.7041,1.57031-1.57031,1.57031Z"/><path class="cls-1" d="M12.55273,12.05371c1.57812,0,2.86133-1.2832,2.86133-2.86133s-1.2832-2.86133-2.86133-2.86133-2.86133,1.2832-2.86133,2.86133,1.2832,2.86133,2.86133,2.86133Zm0-4.87305c1.10938,0,2.01172,.90234,2.01172,2.01172s-.90234,2.01172-2.01172,2.01172-2.01172-.90234-2.01172-2.01172,.90234-2.01172,2.01172-2.01172Z"/><path class="cls-1" d="M9.77051,18.19238h5.56543c.92969,0,1.68555-.75586,1.68555-1.68555v-1.82812c0-1.32129-.93652-2.47852-2.22852-2.75293-.11914-.02441-.24707,.00293-.34473,.07715-1.12109,.84961-2.66992,.84961-3.79102,0-.09766-.07422-.2207-.10059-.34473-.07715-1.29199,.27441-2.22852,1.43262-2.22852,2.75293v1.82812c0,.92969,.75684,1.68555,1.68652,1.68555Zm-.83691-3.51367c0-.86133,.57129-1.62305,1.38086-1.87598,1.3418,.91602,3.13477,.91602,4.47656,0,.80957,.25293,1.38086,1.01465,1.38086,1.87598v1.82812c0,.46094-.375,.83594-.83594,.83594h-5.56543c-.46094,0-.83691-.375-.83691-.83594v-1.82812Z"/><path class="cls-1" d="M8.84375,3.7547c.24707,0,.44629-.19952,.44629-.44641,0-.24677-.19922-.44635-.44629-.44635-.24658,0-.44629,.19958-.44629,.44635,0,.24689,.19971,.44641,.44629,.44641Z"/></g></g></svg>