<?xml version="1.0" encoding="UTF-8"?><svg id="Layer_2" xmlns="http://www.w3.org/2000/svg" viewBox="0 0 23.07839 24.97374"><defs><style>.cls-1{fill:#783cbe;}</style></defs><g id="Layer_1-2"><g><path class="cls-1" d="M22.59051,14.7155c.00146-.00916,.00684-.01654,.00781-.02594,.65039-5.57715-.62695-8.6416-1.8125-10.22949-.1416-.19043-.40723-.22559-.59473-.08691-.18848,.14062-.22754,.40723-.08691,.59473,.97852,1.3103,2.0166,3.74152,1.78418,8.03235-.10645-.09467-.22363-.18011-.35156-.25403-.49023-.2832-1.06836-.35547-1.61719-.21094-.55176,.14844-1.01172,.50098-1.2959,.99219l-4.76172,8.24805c-.28418,.49121-.3584,1.06543-.21094,1.61719s.5,1.01172,.99121,1.2959c.33496,.19336,.70117,.28516,1.06348,.28516,.67139,0,1.31641-.33087,1.72607-.90472,.71289-.20013,3.98193-1.24298,5.19971-3.83453,.66406-1.41412,.58545-3.02478-.21875-4.78668,.10449-.23767,.16357-.48376,.17773-.7323Zm-5.77148,8.76801c-.16992,.29492-.44727,.50586-.7793,.59473-.33008,.09082-.67676,.04492-.97168-.12598-.2959-.16992-.50684-.44727-.5957-.7793-.08984-.33203-.04492-.67676,.12598-.97168l4.76172-8.24805c.16992-.2959,.44727-.50781,.7793-.59668,.1123-.03027,.22559-.04492,.33789-.04492,.2207,0,.43848,.05762,.63379,.1709,.61328,.35352,.82422,1.13965,.4707,1.75195l-4.7627,8.24902Zm5.04395-3.61328c-.76855,1.64026-2.58252,2.59424-3.7417,3.05859l3.76514-6.52222c.45703,1.28235,.4541,2.44562-.02344,3.46362Z"/><path class="cls-1" d="M17.7077,2.58605c.19141,.13086,.45801,.08203,.59082-.1123,.13184-.19434,.08105-.45898-.1123-.59082-.18066-.12207-.30371-.19727-.4873-.30371C14.75262-.1454,11.6452-.00185,11.56121,.00597c-.20117-.00879-5.04004-.22656-8.33887,3.28516C.81903,5.84972-.10285,9.68468,.48016,14.68956c.00098,.00934,.00635,.01678,.00781,.02594,.01416,.25293,.07324,.49921,.17676,.73383-.80322,1.76129-.88184,3.37146-.21777,4.78516,1.21143,2.57788,4.45215,3.62329,5.18848,3.83136,.28613,.40582,.69531,.70312,1.18359,.83368,.18457,.0498,.37207,.07422,.55762,.07422,.36914,0,.73242-.09668,1.05957-.28516,.49121-.28418,.84375-.74414,.99121-1.2959s.07324-1.12598-.21094-1.61719L4.45379,13.52745c-.28418-.49121-.74414-.84375-1.29492-.99219-.55078-.14551-1.12598-.07324-1.61621,.21094-.12646,.07294-.24268,.15814-.34961,.25281-.20312-3.96014,.68018-7.02515,2.64258-9.11902C6.85809,.6544,11.47137,.84679,11.56121,.85558c.0293-.00586,2.97949-.14062,5.70898,1.45801,.16504,.09668,.27637,.16211,.4375,.27246ZM1.37078,14.26183c.08887-.33203,.30078-.60938,.59668-.7793,.19531-.11328,.41309-.1709,.63379-.1709,.1123,0,.22559,.01465,.33691,.04492,.33203,.08887,.60938,.30078,.7793,.59668l4.7627,8.24805c.1709,.29492,.21582,.63965,.12598,.97168-.08887,.33203-.2998,.60938-.5957,.7793-.29492,.16992-.6416,.21484-.97168,.12598-.33203-.08887-.60938-.2998-.7793-.59473L1.49676,15.23448c-.1709-.29492-.21582-.64062-.12598-.97266Zm-.1792,2.14532l3.76562,6.52161c-1.15918-.46436-2.97314-1.41833-3.7417-3.05853-.47754-1.01782-.48047-2.18097-.02393-3.46307Z"/><path class="cls-1" d="M19.26483,3.86693c.24658,0,.44629-.19952,.44629-.44641,0-.24677-.19971-.44635-.44629-.44635-.24707,0-.44678,.19958-.44678,.44635,0,.24689,.19971,.44641,.44678,.44641Z"/></g></g></svg>