<?xml version="1.0" encoding="UTF-8"?><svg id="Layer_2" xmlns="http://www.w3.org/2000/svg" viewBox="0 0 23.55176 21.10352"><defs><style>.cls-1{fill:#783cbe;}</style></defs><g id="Layer_1-2"><g><path class="cls-1" d="M4.58887,8.46777h14.02051c.23438,0,.4248-.19043,.4248-.4248s-.19043-.4248-.4248-.4248H4.58887c-.23438,0-.4248,.19043-.4248,.4248s.19043,.4248,.4248,.4248Z"/><path class="cls-1" d="M4.58887,12.18848H12.86426c.23438,0,.4248-.19043,.4248-.4248s-.19043-.4248-.4248-.4248H4.58887c-.23438,0-.4248,.19043-.4248,.4248s.19043,.4248,.4248,.4248Z"/><path class="cls-1" d="M11.77539,0c-1.78906,0-3.50879,.30566-5.12012,.91211-.07227,.0293-1.76953,.7207-2.75879,1.52441-.18164,.14844-.20898,.41602-.06152,.59863,.15039,.18164,.41699,.20703,.59863,.06152,.88867-.72363,2.52344-1.38965,2.53027-1.39258,1.50586-.56641,3.125-.85449,4.81152-.85449,6.02539,0,10.92676,3.75293,10.92676,8.36523,0,.76367-.13574,1.52148-.40234,2.25293-.08008,.2207,.0332,.46387,.25391,.54492,.04785,.01758,.09668,.02539,.14551,.02539,.17383,0,.33594-.10645,.39941-.2793,.30078-.82422,.45312-1.68066,.45312-2.54395C23.55176,4.13379,18.26855,0,11.77539,0Z"/><path class="cls-1" d="M12.96094,17.53027c-1.79395,.14746-3.6709-.04785-5.37109-.59082-.15234-.0459-.31738-.00781-.42969,.10449l-2.6084,2.6084,.00098-3.94336c0-.1377-.06641-.26758-.17969-.34668-2.23926-1.58203-3.52344-3.82324-3.52344-6.14746,0-1.19043,.32129-2.34082,.98828-3.47656,.0625-.10645,.08984-.1543,.1748-.27832,.13281-.19336,.08301-.45801-.11035-.59082-.19238-.13379-.45703-.08398-.59082,.11035-.10059,.14648-.13379,.20312-.24023,.38672-.71094,1.20996-1.07129,2.50488-1.07129,3.84863,0,2.54004,1.3457,4.97559,3.70215,6.71191v4.75195c0,.17188,.10352,.32715,.26172,.39258,.05273,.02148,.1084,.03223,.16309,.03223,.11035,0,.21875-.04297,.30078-.12402l3.15234-3.15332c1.73535,.51855,3.63574,.70215,5.45117,.55176,.2334-.01953,.4082-.22461,.38867-.45898-.01953-.2334-.24023-.4082-.45898-.38867Z"/><path class="cls-1" d="M22.51367,14.22266l-.70312,.03027c-.07031-.12793-.14941-.25293-.23535-.37305-.08594-.11914-.17871-.23242-.27734-.33984l.25391-.6582c.06738-.1748,.0127-.37305-.13574-.48828-.38379-.29688-.8125-.53027-1.27441-.69336-.18066-.06348-.375-.00098-.48535,.15039l-.41504,.56934c-.28906-.05078-.58008-.06445-.875-.04492l-.35547-.6084c-.0957-.16113-.28418-.24121-.4668-.19824-.47168,.11426-.92188,.30371-1.33789,.56348-.16016,.09961-.23535,.29199-.18555,.47266l.18652,.68066c-.21973,.19434-.41406,.41406-.58008,.65625l-.69824-.10156c-.18457-.02637-.36719,.07227-.44629,.24219-.20508,.44434-.33789,.91406-.39355,1.39551-.02246,.18652,.08105,.36523,.25391,.43945l.64844,.27832c.01465,.29492,.06543,.58398,.15137,.86426l-.51367,.48242c-.13672,.12793-.17285,.33105-.08984,.49902,.10742,.21484,.23242,.42285,.375,.62109,.14355,.20215,.30176,.38574,.46973,.55664,.13281,.13379,.33887,.16406,.50293,.07617l.62109-.33301c.23926,.1709,.49707,.31152,.77148,.41992l.05566,.70215c.01562,.1875,.15137,.34277,.33496,.38184,.31348,.06641,.63184,.09961,.95215,.09961,.16504,0,.33105-.00879,.49707-.02637,.18652-.02051,.33789-.16113,.37207-.34668l.12695-.69336c.28223-.08008,.55273-.19336,.80762-.33984l.58496,.39355c.15527,.10547,.36133,.09473,.50684-.02344,.37598-.30859,.7002-.67383,.96191-1.08691,.10059-.15918,.08496-.36523-.03906-.50684l-.43652-.50098c.07715-.16602,.13574-.35645,.17969-.53711,.03027-.11816,.04688-.23926,.05566-.34473l.64746-.2041c.17969-.05566,.30078-.22363,.29785-.41113-.00684-.4873-.09082-.96875-.25098-1.42969-.06152-.17676-.21484-.28223-.41992-.28516Zm-.81641,1.60938c-.18359,.05762-.30469,.23145-.29785,.42285,.00293,.06543,0,.27344-.04102,.44043-.05957,.24316-.15527,.42578-.19629,.49316-.04883,.05371-.08398,.12012-.10156,.19336-.0332,.14746,.01465,.29492,.11426,.39551l.40723,.46777c-.1123,.14844-.23633,.28809-.37012,.41797l-.54004-.36328c-.14355-.09668-.33398-.09668-.47754,.00195-.3125,.21387-.6582,.35938-1.02734,.43262-.1709,.03418-.30371,.16895-.33496,.34082l-.11719,.63965c-.19238,.00781-.37402-.00488-.55859-.02832l-.05176-.64844c-.01367-.17383-.13281-.32129-.2998-.37207-.36328-.11133-.69238-.29102-.97949-.5332-.13184-.1123-.32227-.13184-.47461-.05078l-.57324,.30762c-.05957-.07129-.11719-.14453-.17188-.22168-.05469-.07617-.10645-.15332-.1543-.23242l.47461-.44531c.12695-.11914,.16797-.30371,.10449-.46582-.13867-.34961-.2041-.71973-.19336-1.09863,.00488-.17383-.09668-.33301-.25684-.40234l-.59766-.25684c.03711-.18262,.08789-.3623,.15137-.53809l.64453,.09375c.16797,.02637,.3418-.05762,.42871-.20898,.1875-.32617,.43652-.60742,.73926-.83496,.13867-.10547,.2002-.28418,.1543-.45215l-.17285-.62793c.16699-.08594,.33887-.1582,.51562-.21777l.32812,.5625c.08887,.15039,.26172,.23535,.43164,.20508,.37207-.05664,.74609-.03711,1.11426,.05664,.1709,.04199,.34766-.02148,.44922-.16211l.38281-.52539c.1709,.07715,.33398,.16602,.49023,.26758l-.2334,.60742c-.0625,.16211-.01953,.34668,.1084,.46484,.13477,.12402,.25879,.26562,.37012,.41992,.1123,.15625,.20605,.31836,.28125,.48633,.07129,.1582,.18555,.24219,.40625,.25098l.64844-.02832c.0459,.18164,.07812,.36523,.09668,.55078l-.62012,.19531Z"/><path class="cls-1" d="M19.69727,14.27344c-.4502-.27637-.98145-.36035-1.49512-.2373-.51367,.12402-.94824,.43945-1.22363,.89062-.27637,.4502-.36035,.98145-.2373,1.49414,.12402,.51367,.43945,.94824,.88965,1.22461,.31543,.19336,.66992,.29199,1.03027,.29199,.1543,0,.31055-.01758,.46484-.05469,.51367-.12402,.94824-.43945,1.22461-.89062,.56934-.92871,.27637-2.14844-.65332-2.71875Zm-.07129,2.27539c-.15723,.25684-.40527,.43652-.69824,.50684-.29102,.07227-.59375,.02441-.85254-.13477-.25684-.15723-.43652-.40527-.50684-.69824s-.02246-.5957,.13477-.85254,.40527-.43652,.69727-.50684c.08887-.02148,.17773-.03223,.26562-.03223,.20605,0,.4082,.05664,.58691,.16699,.53027,.3252,.69727,1.02051,.37305,1.55078Z"/><path class="cls-1" d="M2.88184,4.40088c.24707,0,.44629-.19958,.44629-.44641,0-.24677-.19922-.44635-.44629-.44635-.24658,0-.44629,.19958-.44629,.44635,0,.24683,.19971,.44641,.44629,.44641Z"/></g></g></svg>