<?xml version="1.0" encoding="UTF-8"?><svg id="Layer_2" xmlns="http://www.w3.org/2000/svg" viewBox="0 0 27.1885 24.97998"><defs><style>.cls-1{fill:#783cbe;}</style></defs><g id="Layer_1-2"><g><path class="cls-1" d="M26.76367,9.396h-5.31641c-.23438,0-.4248,.19043-.4248,.4248s.19043,.4248,.4248,.4248h4.74512l-2.76758,9.20508H9.73047l-2.98389-9.20508h6.1167c.23438,0,.4248-.19043,.4248-.4248s-.19043-.4248-.4248-.4248H6.48535l-1.34766-4.84277c-.05078-.18359-.21875-.31055-.40918-.31055H.4248c-.23438,0-.4248,.19043-.4248,.4248s.19043,.4248,.4248,.4248h3.98047l1.34766,4.84277c.00049,.00214,.00293,.00311,.00342,.00525,.00146,.00378,.00049,.00757,.00146,.01135l3.25977,10.05469c.05664,.17578,.21973,.29395,.4043,.29395h14.31934c.1875,0,.35254-.12305,.40723-.30273l3.02246-10.05469c.03809-.12793,.01367-.26758-.06641-.37598-.08008-.10742-.20605-.1709-.34082-.1709Z"/><path class="cls-1" d="M10.5957,21.26025c-1.02539,0-1.85938,.83398-1.85938,1.86035,0,1.02539,.83398,1.85938,1.85938,1.85938s1.85938-.83398,1.85938-1.85938c0-1.02637-.83398-1.86035-1.85938-1.86035Zm0,2.87012c-.55664,0-1.00977-.45312-1.00977-1.00977,0-.55762,.45312-1.01074,1.00977-1.01074s1.00977,.45312,1.00977,1.01074c0,.55664-.45312,1.00977-1.00977,1.00977Z"/><path class="cls-1" d="M22.30664,21.26025c-1.02441,0-1.8584,.83398-1.8584,1.86035,0,1.02539,.83398,1.85938,1.8584,1.85938,1.02637,0,1.86035-.83398,1.86035-1.85938,0-1.02637-.83398-1.86035-1.86035-1.86035Zm0,2.87012c-.55566,0-1.00879-.45312-1.00879-1.00977,0-.55762,.45312-1.01074,1.00879-1.01074,.55762,0,1.01074,.45312,1.01074,1.01074,0,.55664-.45312,1.00977-1.01074,1.00977Z"/><path class="cls-1" d="M12.65527,5.97607h1.53223V14.61182c0,.23438,.19043,.4248,.4248,.4248s.4248-.19043,.4248-.4248V5.55127c0-.23438-.19043-.4248-.4248-.4248h-1.0332l3.47168-4.05469,3.47266,4.05469h-1.03418c-.23438,0-.4248,.19043-.4248,.4248v4.42188c0,.23438,.19043,.4248,.4248,.4248s.4248-.19043,.4248-.4248v-3.99707h1.5332c.16602,0,.31641-.09668,.38574-.24707s.04492-.32812-.0625-.4541L17.37402,.14209c-.16211-.18945-.48438-.18945-.64648,0l-4.39551,5.13281c-.10742,.12598-.13184,.30371-.0625,.4541s.21973,.24707,.38574,.24707Z"/><path class="cls-1" d="M19.48926,13.09033c-.23438,0-.4248,.19043-.4248,.4248v1.0957c0,.23438,.19043,.4248,.4248,.4248s.4248-.19043,.4248-.4248v-1.0957c0-.23438-.19043-.4248-.4248-.4248Z"/><path class="cls-1" d="M19.48975,11.30438c-.24707,0-.44678,.19958-.44678,.44635,0,.24683,.19971,.44641,.44678,.44641,.24658,0,.44629-.19958,.44629-.44641,0-.24677-.19971-.44635-.44629-.44635Z"/></g></g></svg>