<?xml version="1.0" encoding="UTF-8"?><svg id="Layer_2" xmlns="http://www.w3.org/2000/svg" viewBox="0 0 26.32715 21.76367"><defs><style>.cls-1{fill:#783cbe;}</style></defs><g id="Layer_1-2"><g><path class="cls-1" d="M25.67871,7.91113c0-.78027-.63867-1.41504-1.4248-1.41504h-1.25l-.00098-1.19336c-.11035-.95312-.91699-2.75391-3.18066-2.75391h-.00293c-2.25879,0-3.06934,1.875-3.18457,2.91406v1.0332h-1.23145c-.06885,0-.13135,.02325-.19824,.03271-.03613-.88739-.76416-1.6001-1.66016-1.6001h-1.67139l-.00342-1.61914c-.24316-1.14453-1.36035-3.30957-3.85254-3.30957l-.27246,.00098-.31055-.00098h-.00488c-.23242,0-.42285,.1875-.4248,.41992-.00293,.23535,.18555,.42773,.41992,.42969l.32617,.00098,.2666-.00098c2.4209,0,2.99805,2.5293,3.01172,2.54785v1.53125H4.97852v-1.38281c0-.00195,.01562-.21875,.2334-.72559,.09277-.21582-.00684-.46582-.22266-.55859-.21484-.09277-.4668,.00586-.55859,.22266-.28516,.66309-.30273,.97754-.30176,1.05176v1.39258h-1.6377c-.91895,0-1.66699,.74805-1.66602,1.64062l-.8252,13.52734c0,.91895,.74805,1.66699,1.66699,1.66699H14.36719c.89746,0,1.62695-.71503,1.65967-1.62793h8.88623c.78027,0,1.41504-.63477,1.41406-1.44043l-.64844-10.78418Zm-11.31152,13.00293H1.66699c-.4502,0-.81738-.36719-.81836-.79102L1.67383,6.5957c0-.4502,.36719-.81738,.81738-.81738h1.6377v1.68359c0,.23438,.19043,.4248,.4248,.4248s.4248-.19043,.4248-.4248v-1.68359h6.05078v1.68359c0,.23438,.19043,.4248,.4248,.4248s.4248-.19043,.4248-.4248l-.00342-1.68359h1.66943c.4502,0,.81738,.36719,.81836,.84277l.02783,.45648c-.00049,.00336,.00098,.00665,.00049,.01001l.79297,13.00909c0,.4502-.36719,.81738-.81738,.81738ZM19.81934,3.39844h.00293c2.06445,0,2.32617,1.92188,2.33398,1.95312v1.14453h-4.67383l-.00098-.98535c.00977-.08594,.26465-2.1123,2.33789-2.1123Zm5.09375,15.8877H15.98535l-.7251-11.89398c.04932-.0141,.0874-.04645,.14307-.04645h1.23145v1.25977c0,.23438,.19043,.4248,.4248,.4248s.4248-.19043,.4248-.4248l-.00098-1.25977h4.67285v1.25977c0,.23438,.19043,.4248,.4248,.4248s.4248-.19043,.4248-.4248l-.00098-1.25977h1.24902c.31738,0,.5752,.25391,.57617,.59082l.64844,10.78418c0,.31152-.25391,.56543-.56543,.56543Z"/><path class="cls-1" d="M5.9707,1.72687c.24707,0,.44629-.19958,.44629-.44641s-.19922-.44635-.44629-.44635c-.24658,0-.44629,.19952-.44629,.44635s.19971,.44641,.44629,.44641Z"/></g></g></svg>