<?xml version="1.0" encoding="UTF-8"?><svg id="Layer_2" xmlns="http://www.w3.org/2000/svg" viewBox="0 0 24.37402 20.85059"><defs><style>.cls-1{fill:#783cbe;}</style></defs><g id="Layer_1-2"><g><path class="cls-1" d="M21.37207,0H6.08105c-.23438,0-.4248,.19043-.4248,.4248s.19043,.4248,.4248,.4248h15.29102c1.18652,0,2.15234,.96582,2.15234,2.15332v3.47949h-3.84863c-2.17383,0-3.94238,1.76855-3.94238,3.94336,0,2.17383,1.76855,3.94141,3.94238,3.94141h3.84863v3.48047c0,1.1875-.96582,2.15332-2.15234,2.15332H.84961V.84961h1.7041c.23438,0,.4248-.19043,.4248-.4248s-.19043-.4248-.4248-.4248H.4248c-.23438,0-.4248,.19043-.4248,.4248V20.42578c0,.23438,.19043,.4248,.4248,.4248H21.37207c1.65527,0,3.00195-1.34668,3.00195-3.00293V3.00293c0-1.65625-1.34668-3.00293-3.00195-3.00293Zm2.15234,13.51758h-3.84863c-1.70508,0-3.09277-1.38672-3.09277-3.0918,0-1.70605,1.3877-3.09375,3.09277-3.09375h3.84863v6.18555Z"/><path class="cls-1" d="M18.47363,10.4248c0,.87207,.70898,1.58105,1.58008,1.58105s1.58008-.70898,1.58008-1.58105c0-.87109-.70898-1.58008-1.58008-1.58008s-1.58008,.70898-1.58008,1.58008Zm1.58008-.73047c.40234,0,.73047,.32812,.73047,.73047,0,.40332-.32812,.73145-.73047,.73145s-.73047-.32812-.73047-.73145c0-.40234,.32812-.73047,.73047-.73047Z"/><path class="cls-1" d="M4.31738,.92157c.24658,0,.44629-.19958,.44629-.44641,0-.24677-.19971-.44635-.44629-.44635-.24707,0-.44678,.19958-.44678,.44635,0,.24683,.19971,.44641,.44678,.44641Z"/></g></g></svg>