<?xml version="1.0" encoding="UTF-8"?><svg id="Layer_2" xmlns="http://www.w3.org/2000/svg" viewBox="0 0 23.84961 27.03613"><defs><style>.cls-1{fill:#783cbe;}</style></defs><g id="Layer_1-2"><g><path class="cls-1" d="M23.63574,14.5166l-4.40723-2.51855c-.13281-.0752-.29492-.07617-.42383,.00195-.13184,.0752-.21191,.21582-.21191,.36719v1.88184l-3.78613-2.24707c-.12988-.07812-.29492-.08008-.42676-.00391-.13281,.0752-.21484,.2168-.21484,.36914v2.0332l-3.69434-2.38965c-.12891-.08691-.29785-.09277-.43359-.0166-.13672,.07422-.22168,.21777-.22168,.37305v4.16992H4.84961V7.3125c0-.23438-.19043-.4248-.4248-.4248H.4248c-.23438,0-.4248,.19043-.4248,.4248V26.61133c0,.23438,.19043,.4248,.4248,.4248H23.4248c.23438,0,.4248-.19043,.4248-.4248V14.88574c0-.15234-.08105-.29297-.21387-.36914Zm-13.39551,2.87012h7.27832v8.7998H4.84961v-8.7998h5.39062ZM.84961,7.7373h3.15039V26.18652H.84961V7.7373ZM23,26.18652h-4.63184v-9.22461c0-.23438-.19043-.4248-.4248-.4248h-7.27832v-3.38867l3.69434,2.38965c.12891,.08496,.2959,.0918,.43359,.0166,.13672-.07422,.22168-.21777,.22168-.37305v-2.06738l3.78613,2.24707c.13086,.07812,.2959,.08008,.42676,.00391,.13281-.0752,.21484-.2168,.21484-.36914v-1.89648l3.55762,2.0332v11.05371Z"/><path class="cls-1" d="M6.7207,23.0127h3.29688c.23438,0,.4248-.19043,.4248-.4248v-3.37402c0-.23438-.19043-.4248-.4248-.4248h-3.29688c-.23438,0-.4248,.19043-.4248,.4248v3.37402c0,.23438,.19043,.4248,.4248,.4248Zm.4248-3.37402h2.44727v2.52441h-2.44727v-2.52441Z"/><path class="cls-1" d="M12.44727,23.0127h3.2959c.23438,0,.4248-.19043,.4248-.4248v-3.37402c0-.23438-.19043-.4248-.4248-.4248h-3.2959c-.23438,0-.4248,.19043-.4248,.4248v3.37402c0,.23438,.19043,.4248,.4248,.4248Zm.4248-3.37402h2.44629v2.52441h-2.44629v-2.52441Z"/><path class="cls-1" d="M14.11914,9.36096c-.02002,.26013,.1748,.48718,.43506,.50696,.25977,.0199,.48682-.1748,.50684-.43494s-.1748-.48718-.43506-.50696c-.26025-.0199-.4873,.1748-.50684,.43494Z"/><path class="cls-1" d="M17.19141,7.74512c.17773-.15332,.19824-.42188,.04492-.59961-.70215-.81543-1.64258-1.26367-2.64648-1.26367s-1.94238,.45117-2.64355,1.26953c-.15234,.17871-.13184,.44629,.04688,.59961,.08008,.06836,.17871,.10156,.27637,.10156,.12012,0,.23926-.0498,.32324-.14844,1.07422-1.25586,2.9248-1.25195,3.99902-.00391,.15332,.17773,.42188,.19727,.59961,.04492Z"/><path class="cls-1" d="M18.33301,5.67773c.08398,.09766,.20312,.14746,.32227,.14746,.09863,0,.19727-.0332,.27734-.10254,.17773-.15332,.19824-.42188,.04492-.59961-1.16797-1.35645-2.72656-2.10352-4.3877-2.10352s-3.21973,.74707-4.3877,2.10352c-.15332,.17773-.13281,.44629,.04492,.59961,.17578,.15234,.44629,.13281,.59961-.04492,1.00391-1.16602,2.33301-1.80859,3.74316-1.80859s2.73926,.64258,3.74316,1.80859Z"/><path class="cls-1" d="M9.00684,3.54004c1.49805-1.73438,3.48047-2.69043,5.58301-2.69043,2.10156,0,4.08496,.95605,5.58398,2.69043,.08398,.09766,.20215,.14746,.32129,.14746,.09863,0,.19727-.03418,.27734-.10352,.17773-.15332,.19727-.42188,.04395-.59863-1.66211-1.92578-3.87402-2.98535-6.22656-2.98535-2.35352,0-4.56445,1.05957-6.22559,2.98535-.15332,.17773-.13379,.44531,.04395,.59863,.1748,.15234,.44336,.13379,.59863-.04395Z"/></g></g></svg>