<?xml version="1.0" encoding="UTF-8"?><svg id="Layer_2" xmlns="http://www.w3.org/2000/svg" viewBox="0 0 31.12709 24.98535"><defs><style>.cls-1{fill:#783cbe;}</style></defs><g id="Layer_1-2"><g><g><g><g><g><path class="cls-1" d="M17.63783,10.99414c-.09766,0-.19531-.0332-.27539-.10059l-7.60645-6.4668L2.14857,10.89355c-.16895,.1416-.41602,.13281-.57422-.02148L.12611,9.44336c-.08301-.08203-.12891-.19531-.12598-.3125,.00293-.11621,.05273-.22754,.13965-.30566L9.31263,.54102c.16602-.15137,.4209-.14453,.58301,.01172l.11621,.11426c.00879,.00684,.01758,.01367,.02637,.02148l9.32715,8.13184c.08887,.07812,.1416,.18945,.14551,.30762s-.04199,.23242-.12598,.31543l-1.44824,1.42871c-.08301,.08105-.19043,.12207-.29883,.12207ZM1.04408,9.1543l.85059,.83887L9.4806,3.54492c.1582-.13477,.39258-.13477,.55078,0l7.58496,6.44824,.84473-.83301L9.59584,1.43066,1.04408,9.1543Z"/><path class="cls-1" d="M2.56263,23.70996c-.23438,0-.4248-.19043-.4248-.4248V11.81738c0-.23438,.19043-.4248,.4248-.4248s.4248,.19043,.4248,.4248v11.46777c0,.23438-.19043,.4248-.4248,.4248Z"/><path class="cls-1" d="M16.94837,23.70996c-.23438,0-.4248-.19043-.4248-.4248V11.92969c0-.23438,.19043-.4248,.4248-.4248s.4248,.19043,.4248,.4248v11.35547c0,.23438-.19043,.4248-.4248,.4248Z"/><path class="cls-1" d="M16.60462,5.51758c-.23438,0-.4248-.19043-.4248-.4248V.84961h-2.31641c-.23438,0-.4248-.19043-.4248-.4248s.19043-.4248,.4248-.4248h2.74121c.23438,0,.4248,.19043,.4248,.4248V5.09277c0,.23438-.19043,.4248-.4248,.4248Z"/></g><path class="cls-1" d="M18.8263,24.94238H.42494C.19056,24.94238,.00013,24.75195,.00013,24.51758s.19043-.4248,.4248-.4248H18.8263c.23438,0,.4248,.19043,.4248,.4248s-.19043,.4248-.4248,.4248Z"/></g><path class="cls-1" d="M8.2638,15.54004h-3.08008c-.23438,0-.4248-.19043-.4248-.4248v-3.82227c0-.23438,.19043-.4248,.4248-.4248h3.08008c.23438,0,.4248,.19043,.4248,.4248v3.82227c0,.23438-.19043,.4248-.4248,.4248Zm-2.65527-.84961h2.23047v-2.97266h-2.23047v2.97266Z"/><path class="cls-1" d="M14.29994,15.54004h-3.08008c-.23438,0-.4248-.19043-.4248-.4248v-3.82227c0-.23438,.19043-.4248,.4248-.4248h3.08008c.23438,0,.4248,.19043,.4248,.4248v3.82227c0,.23438-.19043,.4248-.4248,.4248Zm-2.65527-.84961h2.23047v-2.97266h-2.23047v2.97266Z"/><path class="cls-1" d="M14.29994,21.75879h-3.08008c-.23438,0-.4248-.19043-.4248-.4248v-3.82129c0-.23438,.19043-.4248,.4248-.4248h3.08008c.23438,0,.4248,.19043,.4248,.4248v3.82129c0,.23438-.19043,.4248-.4248,.4248Zm-2.65527-.84961h2.23047v-2.97168h-2.23047v2.97168Z"/><path class="cls-1" d="M8.16517,23.6084c-.23438,0-.4248-.19043-.4248-.4248v-5.24609h-2.23047v5.24609c0,.23438-.19043,.4248-.4248,.4248s-.4248-.19043-.4248-.4248v-5.6709c0-.23438,.19043-.4248,.4248-.4248h3.08008c.23438,0,.4248,.19043,.4248,.4248v5.6709c0,.23438-.19043,.4248-.4248,.4248Z"/></g><g><path class="cls-1" d="M30.12611,24.98535h-6.40234c-.55176,0-1.00098-.44922-1.00098-1.00098V12.06543c0-.55176,.44922-1.00098,1.00098-1.00098h6.40234c.55176,0,1.00098,.44922,1.00098,1.00098v11.91895c0,.55176-.44922,1.00098-1.00098,1.00098Zm-6.55371-10.77148v9.77051c0,.08203,.06934,.15137,.15137,.15137h6.40234c.08203,0,.15137-.06934,.15137-.15137V12.06543c0-.08203-.06934-.15137-.15137-.15137h-6.40234c-.08203,0-.15137,.06934-.15137,.15137v2.14844Z"/><path class="cls-1" d="M30.70228,13.89355h-7.55469c-.23438,0-.4248-.19043-.4248-.4248s.19043-.4248,.4248-.4248h7.55469c.23438,0,.4248,.19043,.4248,.4248s-.19043,.4248-.4248,.4248Z"/><path class="cls-1" d="M30.70228,22.23926h-7.55469c-.23438,0-.4248-.19043-.4248-.4248s.19043-.4248,.4248-.4248h7.55469c.23438,0,.4248,.19043,.4248,.4248s-.19043,.4248-.4248,.4248Z"/></g><g><path class="cls-1" d="M23.0558,7.22559c-.09766,0-.19629-.0332-.27637-.10156-.17773-.15234-.19922-.4209-.04688-.59961,1.17383-1.37109,3.26074-1.37012,4.43848-.00488,.15332,.17773,.13281,.44629-.04492,.59961-.17676,.15234-.44727,.13281-.59961-.04492-.84668-.9834-2.30371-.98828-3.14746,.00293-.08398,.09766-.20312,.14844-.32324,.14844Z"/><path class="cls-1" d="M28.27064,5.57031c-.11914,0-.23828-.0498-.32227-.14746-.80469-.93555-1.86914-1.4502-2.99805-1.4502s-2.19336,.51465-2.99805,1.4502c-.15527,.17773-.42383,.19727-.59961,.04492-.17773-.15332-.19824-.42188-.04492-.59961,.96875-1.125,2.26172-1.74512,3.64258-1.74512s2.67383,.62012,3.64258,1.74512c.15332,.17773,.13281,.44629-.04492,.59961-.08008,.06934-.17871,.10254-.27734,.10254Z"/><path class="cls-1" d="M29.77259,3.82422c-.11914,0-.2373-.0498-.32227-.14746-1.20703-1.39941-2.80469-2.16992-4.5-2.16992s-3.29297,.77051-4.5,2.16992c-.15625,.17871-.4248,.19531-.59961,.04492-.17773-.15332-.19824-.42188-.04492-.59961,1.37207-1.58984,3.19824-2.46484,5.14453-2.46484s3.77246,.875,5.14453,2.46484c.15332,.17773,.13281,.44629-.04492,.59961-.08008,.06836-.17871,.10254-.27734,.10254Z"/></g><path class="cls-1" d="M13.66712,2.85059c-.23438,0-.4248-.19043-.4248-.4248V.42773c0-.23438,.19043-.4248,.4248-.4248s.4248,.19043,.4248,.4248v1.99805c0,.23438-.19043,.4248-.4248,.4248Z"/></g><path class="cls-1" d="M24.50561,8.72451c0-.2468,.19956-.44636,.44638-.44636h0c.24682,0,.44638,.19956,.44638,.44636,0,.24684-.19956,.44639-.44638,.44639s-.44638-.19956-.44638-.44639"/></g></g></svg>