<?xml version="1.0" encoding="UTF-8"?><svg id="Layer_2" xmlns="http://www.w3.org/2000/svg" viewBox="0 0 18.64392 24.89355"><defs><style>.cls-1{fill:#783cbe;}</style></defs><g id="Layer_1-2"><g><path class="cls-1" d="M9.60462,.66211c-.00879-.00781-.0166-.01465-.02539-.02051l-.1084-.10742c-.16016-.15625-.41602-.16309-.58398-.0127L.13978,8.4209c-.08691,.07812-.13672,.18945-.13965,.30566-.00293,.11719,.04297,.23047,.12598,.3125l1.38086,1.3623c.1582,.1543,.40527,.16406,.57422,.02148l7.24121-6.15527,7.24023,6.15527c.08008,.06738,.17773,.10059,.27539,.10059,.1084,0,.21582-.04102,.29883-.12207l1.38086-1.3623c.08398-.08301,.12988-.19727,.12598-.31543s-.05664-.22949-.14551-.30762L9.60462,.66211Zm7.21191,8.86035L9.59779,3.38574c-.1582-.13477-.39258-.13477-.55078,0L1.82728,9.52246l-.7832-.77246L9.17005,1.41113l8.42383,7.34473-.77734,.7666Z"/><path class="cls-1" d="M2.88783,23.35254V11.28906c0-.23438-.19043-.4248-.4248-.4248s-.4248,.19043-.4248,.4248v12.06348c0,.23438,.19043,.4248,.4248,.4248s.4248-.19043,.4248-.4248Z"/><path class="cls-1" d="M16.60658,23.35254V11.39648c0-.23438-.19043-.4248-.4248-.4248s-.4248,.19043-.4248,.4248v11.95605c0,.23438,.19043,.4248,.4248,.4248s.4248-.19043,.4248-.4248Z"/><path class="cls-1" d="M13.23939,.84961h2.18945V4.87695c0,.23438,.19043,.4248,.4248,.4248s.4248-.19043,.4248-.4248V.4248c0-.23438-.19043-.4248-.4248-.4248h-2.61426c-.23438,0-.4248,.19043-.4248,.4248s.19043,.4248,.4248,.4248Z"/><path class="cls-1" d="M17.97181,24.04395H.42494C.19056,24.04395,.00013,24.23438,.00013,24.46875s.19043,.4248,.4248,.4248H17.97181c.23438,0,.4248-.19043,.4248-.4248s-.19043-.4248-.4248-.4248Z"/><path class="cls-1" d="M4.96302,14.8584h2.9375c.23438,0,.4248-.19043,.4248-.4248v-3.64453c0-.23438-.19043-.4248-.4248-.4248h-2.9375c-.23438,0-.4248,.19043-.4248,.4248v3.64453c0,.23438,.19043,.4248,.4248,.4248Zm.4248-3.64453h2.08789v2.79492h-2.08789v-2.79492Z"/><path class="cls-1" d="M10.71791,14.8584h2.9375c.23438,0,.4248-.19043,.4248-.4248v-3.64453c0-.23438-.19043-.4248-.4248-.4248h-2.9375c-.23438,0-.4248,.19043-.4248,.4248v3.64453c0,.23438,.19043,.4248,.4248,.4248Zm.4248-3.64453h2.08789v2.79492h-2.08789v-2.79492Z"/><path class="cls-1" d="M10.2931,20.36426c0,.23438,.19043,.4248,.4248,.4248h2.9375c.23438,0,.4248-.19043,.4248-.4248v-3.64453c0-.23438-.19043-.4248-.4248-.4248h-2.9375c-.23438,0-.4248,.19043-.4248,.4248v3.64453Zm.84961-3.21973h2.08789v2.79492h-2.08789v-2.79492Z"/><path class="cls-1" d="M4.44349,23.25488c0,.23438,.19043,.4248,.4248,.4248s.4248-.19043,.4248-.4248v-6.11035h2.08789v6.11035c0,.23438,.19043,.4248,.4248,.4248s.4248-.19043,.4248-.4248v-6.53516c0-.23438-.19043-.4248-.4248-.4248h-2.9375c-.23438,0-.4248,.19043-.4248,.4248v6.53516Z"/><path class="cls-1" d="M12.79603,2.37329c.00977,.01489,.01807,.03003,.0293,.04346,.0874,.10205,.2002,.17798,.33789,.17798,.03809,0,.07617-.00391,.11426-.01367,.12109-.03125,.22168-.10645,.2832-.21289,.06152-.10449,.07812-.22559,.04785-.34277-.01318-.05005-.0542-.07983-.08154-.12061-.00928-.01416-.01709-.02832-.02783-.04114-.08691-.10266-.19971-.17908-.33789-.17908-.03809,0-.07617,.00488-.11523,.01465-.11914,.03027-.21973,.10547-.28223,.21094-.06152,.10449-.0791,.22656-.04883,.34375,.01318,.04956,.05371,.07886,.08105,.11938Z"/></g></g></svg>