<?xml version="1.0" encoding="UTF-8"?><svg id="Layer_2" xmlns="http://www.w3.org/2000/svg" viewBox="0 0 23.29004 24.85718"><defs><style>.cls-1{fill:#783cbe;}</style></defs><g id="Layer_1-2"><g><path class="cls-1" d="M18.58984,14.04126h-4.99219c-.23047,0-.41553,.18628-.41553,.41577v4.57642h-4.57666c-.22949,0-.41553,.1864-.41553,.41577v4.99219c0,.23047,.18604,.41577,.41553,.41577h9.98438c.22949,0,.41602-.1853,.41602-.41577V14.45703c0-.22949-.18652-.41577-.41602-.41577Zm-2.91309,.83252h.83301v.83191h-.83301v-.83191Zm-1.66211,0h.83105v1.24756c0,.23047,.18652,.41577,.41553,.41577h1.66406c.23047,0,.41602-.1853,.41602-.41577v-1.24756h.83301v4.15967h-4.15967v-4.15967Zm1.66211,4.99231h.83301v.83167h-.83301v-.83167Zm-4.9917,0h.83252v.83167h-.83252v-.83167Zm-1.6626,0h.83105v1.24744c0,.23047,.18652,.41577,.41602,.41577h1.66357c.23096,0,.41602-.1853,.41602-.41577v-1.24744h.83301v4.15955h-4.15967v-4.15955Zm9.15186,4.15955h-4.15967v-4.15955h.83105v1.24744c0,.23047,.18652,.41577,.41553,.41577h1.66406c.23047,0,.41602-.1853,.41602-.41577v-1.24744h.83301v4.15955Z"/><path class="cls-1" d="M11.91309,.06543c-.12793-.10254-.3877-.07129-.53809,.00293l-2.02051,1.63477c-.18262,.14746-.21094,.41504-.0625,.59766,.14844,.18164,.41504,.21289,.59766,.0625l1.75-1.42676,10.80078,8.69922v14.28906h-1.83203V11.08008c0-.23438-.19043-.4248-.4248-.4248H11.64648c-.0127,0-.02637,0-.03906,.00195H3.10547c-.23438,0-.4248,.19043-.4248,.4248v12.84473H.84961V9.63867L7.10156,4.60254c.18262-.14746,.21191-.41504,.06445-.59766-.14746-.18359-.41406-.21094-.59766-.06445L.1582,9.10449c-.10059,.08105-.1582,.20215-.1582,.33105v14.91602c0,.23438,.19043,.4248,.4248,.4248H3.10547c.23438,0,.4248-.19043,.4248-.4248V11.50684H11.64258c.0127,0,.02637,0,.03906-.00195h8.07715v12.84473c0,.23438,.19043,.4248,.4248,.4248h2.68164c.23438,0,.4248-.19043,.4248-.4248V9.43262c0-.12891-.05762-.25-.1582-.33105L11.91309,.06543Z"/><path class="cls-1" d="M8.15381,3.62817c.26025,.0199,.4873-.1748,.50732-.43506,.01953-.26001-.17529-.48706-.43506-.50684-.26025-.02002-.4873,.1748-.50732,.43481-.01953,.26025,.1748,.48718,.43506,.50708Z"/></g></g></svg>