<?xml version="1.0" encoding="UTF-8"?><svg id="Layer_2" xmlns="http://www.w3.org/2000/svg" viewBox="0 0 23.95132 24.89551"><defs><style>.cls-1{fill:#783cbe;}</style></defs><g id="Layer_1-2"><g><path class="cls-1" d="M12.39696,1.68146V.4248c0-.23438-.19043-.4248-.4248-.4248s-.4248,.19043-.4248,.4248V1.67871c-.74756,.08459-2.44043,.35388-4.3291,1.17578-.21484,.09375-.31348,.34375-.21973,.55957,.09277,.21387,.34277,.31445,.55957,.21973,.79932-.34766,1.56689-.59009,2.23389-.75983-2.42383,2.33893-2.87109,7.01874-2.93555,9.26025-.9126-.99255-1.90332-1.50421-2.95752-1.52386h-.06152c-1.16504,0-2.15234,.60645-2.82227,1.1748,.48828-2.71191,1.7627-4.90137,3.79785-6.52148,.18359-.14648,.21387-.41406,.06836-.59766-.14648-.18359-.41504-.21387-.59766-.06836C1.75146,6.61328,.31103,9.43066,.00146,12.97266c-.01562,.18945,.0957,.36719,.27344,.43457,.17676,.06738,.37793,.00879,.49219-.14453,.01367-.01855,1.40723-1.87891,3.12012-1.80176,1.06641,.02051,2.08887,.73926,3.03906,2.13379,.00684,.00977,.01807,.01373,.02539,.02277,.02832,.03516,.06152,.06366,.09912,.08832,.01611,.01019,.0293,.02185,.0459,.02985,.05566,.02655,.11572,.04462,.18115,.04462h.0166c.00098-.00006,.00146-.00055,.00244-.00061,.00391-.00012,.00781,0,.01123-.00037,.0083-.00061,.01465-.00677,.02295-.00787,.05859-.00757,.1123-.02643,.16064-.05542,.0166-.00989,.03027-.02124,.04541-.03333,.03955-.03137,.07129-.06805,.09766-.11127,.00684-.01099,.01904-.01678,.0249-.02844,.01318-.02783,1.35303-2.72833,3.8877-2.86749l.00195,11.60675c.00391,.79785,.00781,1.37402-.16113,1.54395-.20215,.2041-.97754,.21973-2.0498,.21973-.89062,0-1.51562-.2207-1.85547-.6543-.48438-.61719-.27148-1.51562-.26953-1.52441,.05566-.22754-.08203-.45801-.30957-.51465-.22852-.06055-.45703,.0791-.51465,.30664-.0127,.05273-.31934,1.2998,.41895,2.25,.50977,.6543,1.36035,.98633,2.53027,.98633,1.43555,0,2.20605-.02051,2.65234-.46973,.41797-.41992,.41406-1.03418,.4082-2.14844l-.00195-11.60114c2.55469,.13861,3.88184,2.83887,3.89551,2.86676,.00488,.01031,.01611,.01532,.02197,.02509,.02637,.04492,.05957,.08301,.10059,.11536,.01465,.01172,.02783,.02277,.04395,.03241,.0498,.02966,.104,.04901,.16406,.05634,.00781,.00092,.01318,.00659,.021,.00714,.00195,.00018,.00342-.0011,.00488-.00092,.00293,.00018,.00488,.00177,.00781,.00189h.0166c.06055,0,.11719-.01422,.16943-.03717,.01904-.00848,.0332-.02161,.05029-.03278,.0415-.02551,.07666-.05609,.10693-.09375,.00684-.00879,.01855-.01251,.0249-.02185,.9502-1.39453,1.97266-2.1123,3.03906-2.13379,.01562-.00098,.03223-.00098,.04883-.00098,1.71387,0,3.05762,1.78418,3.07129,1.80273,.11328,.15332,.31641,.21191,.49219,.14453,.17773-.06836,.29004-.24512,.27344-.43457C23.12109,3.50763,14.37157,1.91956,12.39696,1.68146Zm-.396,8.14117c-.00342-.00024-.00586-.00214-.00928-.00232-.00537-.00018-.00977,.0011-.01514,.00092-.00146,0-.00293-.00092-.00439-.00092-.00098,0-.00195,.00055-.00293,.00055-.00342,.00012-.00635-.00067-.00977-.00055-.00342,.00018-.00635,.0022-.00977,.00244-2.03857-.05109-3.42725,1.13586-4.23047,2.11731,.10938-2.67419,.75781-8.35529,4.25586-9.42535,3.49609,1.06879,4.14648,6.75171,4.25635,9.42596-.80566-.98315-2.19873-2.17542-4.23047-2.11804Zm8.05029,.78772c-1.05371,.01965-2.04492,.53119-2.95654,1.5235-.06445-2.23633-.51025-6.89838-2.91895-9.24292,2.87988,.74829,7.66406,2.87927,8.7583,8.89325-.68066-.57812-1.65527-1.16992-2.88281-1.17383Z"/><path class="cls-1" d="M5.89989,4.49988c.25488,.01947,.47754-.17126,.49658-.42596,.01953-.25476-.1709-.47705-.42578-.49652-.25488-.01953-.47705,.1712-.49658,.42596s.17139,.47705,.42578,.49652Z"/></g></g></svg>