<?xml version="1.0" encoding="UTF-8"?><svg id="Layer_2" xmlns="http://www.w3.org/2000/svg" viewBox="0 0 22.12598 22.51172"><defs><style>.cls-1{fill:#783cbe;}</style></defs><g id="Layer_1-2"><g><path class="cls-1" d="M8.24512,12.42603c-.24414,.01929-.42773,.23218-.40869,.47687,.01807,.24457,.23193,.4281,.47705,.40997,.24463-.01929,.42773-.23334,.40869-.47797-.01807-.24463-.23242-.4281-.47705-.40887Z"/><path class="cls-1" d="M14.58203,0c-4.15918,0-7.54297,3.38379-7.54297,7.54297,0,.93463,.17578,1.84229,.50781,2.70557L.12207,17.76074c-.07812,.08008-.12207,.18652-.12207,.29883v4.02734c0,.23438,.19043,.4248,.4248,.4248H3.88574c.1123,0,.2207-.04492,.30078-.12402l1.19531-1.19629c.09375-.09375,.1377-.22559,.12012-.35742l-.18262-1.36719,1.68945,.48633c.14746,.04492,.30078,.00488,.40918-.09863,.10938-.10254,.15625-.25586,.12402-.40234l-.29492-1.32129h.79395c.1084,0,.21289-.04102,.29199-.11621l3.60254-3.4046c.88672,.38745,1.59619,.47687,2.64648,.47687,4.16016,0,7.54395-3.38379,7.54395-7.54395,0-4.15918-3.38379-7.54297-7.54395-7.54297Zm0,14.2373c-1.04883,0-1.66504-.07324-2.5498-.50781-.00244-.00122-.00537-.00092-.00781-.00208-.03516-.0166-.07275-.02264-.11084-.02893-.0166-.00281-.03271-.01038-.04932-.01111-.03027-.00128-.05908,.00708-.08887,.01208-.02441,.00415-.0498,.00391-.07324,.01233-.01709,.00616-.03174,.01886-.04785,.02728-.03369,.01721-.06738,.03394-.0957,.05994-.00195,.00165-.00391,.00208-.00586,.00372l-3.68066,3.47852h-1.15527c-.12891,0-.25098,.05859-.33203,.15918-.08008,.10059-.11133,.23242-.08301,.3584l.25488,1.13965-1.62598-.46875c-.14062-.04297-.28711-.00781-.39551,.08594s-.16309,.23633-.14355,.37891l.24023,1.80371-.92188,.92383H.84961v-.84497l6.44336-6.40405c.16602-.16602,.16699-.43457,.00195-.60156-.16504-.16602-.43457-.16602-.60156-.00195L.84961,19.61768v-1.3833l7.49414-7.58203c.13037-.13257,.15186-.32776,.07373-.48596-.00195-.00562-.00098-.01141-.00342-.01697-.34863-.82617-.52539-1.70312-.52539-2.60645C7.88867,3.85254,10.8916,.84961,14.58203,.84961c3.69141,0,6.69434,3.00293,6.69434,6.69336,0,3.69141-3.00293,6.69434-6.69434,6.69434Z"/><path class="cls-1" d="M16.93164,3.22363c-1.15625,0-2.09668,.94043-2.09668,2.09668s.94043,2.09668,2.09668,2.09668,2.09668-.94043,2.09668-2.09668-.94043-2.09668-2.09668-2.09668Zm0,3.34375c-.6875,0-1.24707-.55957-1.24707-1.24707s.55957-1.24707,1.24707-1.24707,1.24707,.55957,1.24707,1.24707-.55957,1.24707-1.24707,1.24707Z"/></g></g></svg>