<?xml version="1.0" encoding="UTF-8"?><svg id="Layer_2" xmlns="http://www.w3.org/2000/svg" viewBox="0 0 19.05176 25.11621"><defs><style>.cls-1{fill:#783cbe;}</style></defs><g id="Layer_1-2"><g><path class="cls-1" d="M14.67676,3.66016c.01074,0,.02148,0,.0332-.00098,.24121-.01953,.42188-.23047,.40332-.47168-.00879-.11621-.0625-.22168-.15137-.29785-.08887-.07715-.20508-.1123-.31934-.10449-.11621,.00977-.22266,.06348-.29883,.15137-.07617,.08887-.11328,.20215-.10449,.31836s.0625,.22266,.15137,.2998c.08105,.06836,.18066,.10547,.28613,.10547Z"/><path class="cls-1" d="M16.24121,8.63971v-2.33795c0-.5957-.09082-1.1875-.26855-1.75977-.06543-.21094-.29004-.33203-.50098-.2627-.21094,.06543-.32812,.29004-.2627,.50098,.15332,.49512,.23145,1.00684,.23145,1.52148v2.15723c-.1665-.02057-.33008-.05078-.50195-.05078H4.11328c-.17188,0-.33545,.03021-.50195,.05078v-2.1582C3.61133,3.26758,6.26465,.80078,9.52637,.80078c1.40918,0,2.77734,.47363,3.85156,1.33594,.1709,.1377,.4248,.11133,.5625-.0625,.1377-.17188,.11035-.42383-.0625-.5625-1.21484-.97461-2.76074-1.51172-4.35156-1.51172C5.82324,0,2.81055,2.82715,2.81055,6.30078v2.33893c-1.62744,.54858-2.81055,2.07214-2.81055,3.88177v8.48145c0,2.26758,1.8457,4.11328,4.11328,4.11328H14.93848c2.26758,0,4.11328-1.8457,4.11328-4.11328V12.52148c0-1.80963-1.18311-3.33319-2.81055-3.88177Zm2.00977,12.36322c0,1.82715-1.48535,3.3125-3.3125,3.3125H4.11328c-1.82715,0-3.3125-1.48535-3.3125-3.3125V12.52148c0-1.82715,1.48535-3.3125,3.3125-3.3125H14.93848c1.82715,0,3.3125,1.48535,3.3125,3.3125v8.48145Z"/><path class="cls-1" d="M10.25,12.94531c-.47754-.12695-.9707-.12695-1.46387,.00195-.96973,.25098-1.74609,1.04492-1.97852,2.02246-.28809,1.21387,.22852,2.44043,1.26465,3.07031v1.17969c0,.80078,.65234,1.45215,1.4541,1.45215s1.4541-.65137,1.4541-1.45215v-1.17969c.83496-.50684,1.34473-1.40137,1.34473-2.38965,0-.62988-.2041-1.22363-.58789-1.7168-.37305-.48047-.90137-.83203-1.4873-.98828Zm.15332,4.49902c-.13672,.06738-.22363,.20703-.22363,.35938v1.41602c0,.35938-.29297,.65137-.65332,.65137s-.65332-.29199-.65332-.65137v-1.41602c0-.15234-.08691-.29199-.22461-.35938-.84668-.41504-1.2832-1.35742-1.06152-2.29004,.16113-.68164,.72363-1.25781,1.39941-1.43262,.18262-.04688,.36328-.07129,.54199-.07129,.17383,0,.34668,.02344,.51465,.06836,.41895,.11133,.7959,.36133,1.0625,.70605,.27441,.35156,.41895,.77637,.41895,1.22559,0,.7666-.42969,1.4541-1.12109,1.79395Z"/></g></g></svg>