<?xml version="1.0" encoding="UTF-8"?><svg id="Layer_2" xmlns="http://www.w3.org/2000/svg" viewBox="0 0 28.5752 24.72559"><defs><style>.cls-1{fill:#783cbe;}</style></defs><g id="Layer_1-2"><g><path class="cls-1" d="M20.14453,10.23145c-1.92285,0-3.48633,1.56348-3.48633,3.48633s1.56348,3.48633,3.48633,3.48633,3.48633-1.56348,3.48633-3.48633-1.56348-3.48633-3.48633-3.48633Zm0,6.12305c-1.4541,0-2.63672-1.18262-2.63672-2.63672s1.18262-2.63672,2.63672-2.63672,2.63672,1.18262,2.63672,2.63672-1.18262,2.63672-2.63672,2.63672Z"/><path class="cls-1" d="M24.70605,9.5498c-.01465-.21094-.18262-.37891-.39355-.39355-1.46973-.10352-2.59961-.57324-3.90137-1.62109-.15625-.125-.37695-.125-.5332,0-1.30176,1.04785-2.43164,1.51758-3.90137,1.62109-.21094,.01465-.37891,.18262-.39355,.39453-.10254,1.46777-.57227,2.59766-1.62012,3.90039-.125,.15625-.125,.37695,0,.5332,1.04785,1.30273,1.51758,2.43262,1.62012,3.89941,.01465,.21191,.18262,.37988,.39355,.39453,.21533,.0152,.41064,.05615,.61328,.08771l-1.88184,4.91229c-.04199,.10938-.03711,.23145,.01367,.33691s.14355,.18555,.25488,.2207l2.75977,.87012c.04297,.01367,.08594,.01953,.12793,.01953,.1709,0,.33105-.10352,.39648-.27051l1.75195-4.50824c.04492,.01526,.08496,.04633,.13184,.04633s.08789-.03113,.13281-.04663l1.75195,4.50854c.06543,.16699,.22559,.27051,.39648,.27051,.04199,0,.08496-.00586,.12793-.01953l2.75879-.87012c.11133-.03516,.2041-.11523,.25488-.2207s.05566-.22754,.01367-.33691l-1.88086-4.91241c.20215-.03149,.39746-.07245,.6123-.08759,.21094-.01465,.37891-.18262,.39355-.39355,.10352-1.46875,.57324-2.59863,1.62109-3.90039,.125-.15527,.125-.37793,0-.5332-1.04785-1.30176-1.51758-2.43164-1.62109-3.90137Zm-7.09375,14.22559l-1.94922-.61426,1.76367-4.60504c.63281,.19086,1.23926,.49127,1.85645,.91846l-1.6709,4.30084Zm7.01367-.61426l-1.94824,.61426-1.67139-4.30139c.61768-.42706,1.22412-.72748,1.85693-.91815l1.7627,4.60529Zm-.73535-5.69824c-1.38477,.1543-2.50977,.625-3.74609,1.56543-1.23633-.94043-2.36133-1.41113-3.74609-1.56543-.15332-1.38379-.62402-2.50879-1.56445-3.74512,.94043-1.23633,1.41113-2.36133,1.56445-3.74609,1.38574-.1543,2.51172-.625,3.74609-1.56543,1.23438,.94043,2.36035,1.41113,3.74609,1.56543,.1543,1.38574,.625,2.51172,1.56543,3.74609-.94043,1.23438-1.41113,2.36035-1.56543,3.74512Z"/><path class="cls-1" d="M28.15039,0H.4248c-.23438,0-.4248,.19043-.4248,.4248V17.62012c0,.23438,.19043,.4248,.4248,.4248H12.25781c.23438,0,.4248-.19043,.4248-.4248s-.19043-.4248-.4248-.4248H.84961V.84961H27.72559V17.19531h-.76465c-.23438,0-.4248,.19043-.4248,.4248s.19043,.4248,.4248,.4248h1.18945c.23438,0,.4248-.19043,.4248-.4248V.4248c0-.23438-.19043-.4248-.4248-.4248Z"/><path class="cls-1" d="M4.00488,3.92285H24.61719c.23438,0,.4248-.19043,.4248-.4248s-.19043-.4248-.4248-.4248H4.00488c-.23438,0-.4248,.19043-.4248,.4248s.19043,.4248,.4248,.4248Z"/><path class="cls-1" d="M25.04199,5.78516c0-.23438-.19043-.4248-.4248-.4248H4.00488c-.23438,0-.4248,.19043-.4248,.4248s.19043,.4248,.4248,.4248H24.61719c.23438,0,.4248-.19043,.4248-.4248Z"/><path class="cls-1" d="M4.11914,11.85156c-.23438,0-.4248,.19043-.4248,.4248s.19043,.4248,.4248,.4248h6.4248c.23438,0,.4248-.19043,.4248-.4248s-.19043-.4248-.4248-.4248H4.11914Z"/><path class="cls-1" d="M14.04199,17.17407c-.24658,0-.44629,.19952-.44629,.44635s.19971,.44635,.44629,.44635c.24707,0,.44678-.19952,.44678-.44635s-.19971-.44635-.44678-.44635Z"/></g></g></svg>