<?xml version="1.0" encoding="UTF-8"?><svg id="Layer_2" xmlns="http://www.w3.org/2000/svg" viewBox="0 0 24.90054 25.42676"><defs><style>.cls-1{fill:#783cbe;}</style></defs><g id="Layer_1-2"><g><path class="cls-1" d="M12.94727,24.07031H.84961V4.92578h3.61035c.11328,0,.22168-.04492,.30176-.125,.0791-.08008,.12402-.18945,.12305-.30176l-.02051-3.64941h13.77441V9.62695c0,.23438,.19043,.4248,.4248,.4248s.4248-.19043,.4248-.4248V.4248c0-.23438-.19043-.4248-.4248-.4248H4.43652V.00006c-.04932,.00024-.09766,.0116-.14453,.02863-.05811,.02106-.1123,.05164-.15723,.09631-.00098,.00085-.00098,.00208-.00195,.00293L.12207,4.20312c-.01172,.01184-.01611,.02734-.02637,.04016-.02393,.0304-.04785,.06024-.06299,.09644-.01904,.04541-.02637,.09351-.02881,.14185-.00049,.00684-.00391,.01251-.00391,.01941V24.49512c0,.23438,.19043,.4248,.4248,.4248H12.94727c.23438,0,.4248-.19043,.4248-.4248s-.19043-.4248-.4248-.4248ZM1.43896,4.07617L4.01758,1.45599l.01465,2.62018H1.43896Z"/><path class="cls-1" d="M24.625,19.18262l-1.08789-.40918c-.03711-.49805-.14648-.98438-.32617-1.45215l.81055-.83496c.13086-.13477,.1582-.33887,.06641-.50293-.33887-.60547-.77051-1.15234-1.28418-1.62402-.13867-.12598-.3457-.14746-.50488-.05176l-.99805,.5957c-.41309-.28125-.86035-.49902-1.33789-.64941l-.14648-1.1543c-.02344-.18555-.16699-.33496-.35156-.36523-.68945-.11621-1.38477-.11816-2.07227-.01074-.18457,.0293-.3291,.17676-.35449,.3623l-.15723,1.15332c-.47754,.14746-.92773,.36133-1.34277,.63965l-.99316-.60449c-.1582-.0957-.36328-.07617-.50488,.04688-.51855,.4668-.95508,1.00879-1.29883,1.61328-.09277,.16309-.06836,.36816,.06152,.50391l.80371,.84082c-.08984,.22949-.16406,.46777-.22168,.71289-.05664,.24316-.0957,.49023-.11621,.7373l-1.0918,.39844c-.17578,.06445-.28906,.2373-.27734,.4248,.04102,.69531,.19336,1.375,.45312,2.02148,.06934,.17383,.24902,.29004,.43262,.26465l1.15723-.10352c.25,.43359,.55859,.82422,.92188,1.16699l-.36816,1.10352c-.05957,.17871,.00488,.37402,.15918,.48242,.56934,.40039,1.19531,.70508,1.8623,.90527,.17676,.05273,.37305-.01562,.47656-.17285l.6416-.9707c.49609,.07617,.99414,.07812,1.4873,.00781l.63184,.97559c.0791,.12305,.21484,.19336,.35645,.19336,.04004,0,.08008-.00586,.12012-.0166,.6709-.19727,1.2998-.49707,1.86914-.88965,.1543-.10645,.2207-.30176,.16309-.48047l-.35938-1.10645c.36914-.34082,.68164-.72949,.93457-1.16016l1.15527,.11426c.20703,.03027,.36426-.08789,.43555-.26172,.13184-.32227,.23828-.65527,.31543-.98926,.07812-.33301,.12988-.67871,.1543-1.02637,.01367-.1875-.09863-.3623-.27441-.42773Zm-.70801,1.26172c-.04395,.18945-.09863,.37891-.16309,.56543l-1.11035-.10938c-.18652-.0293-.34082,.07324-.41992,.22852-.26562,.5166-.62891,.96875-1.08008,1.3418-.13477,.11035-.1875,.29199-.13379,.45801l.34473,1.06348c-.33496,.2041-.69043,.37305-1.06348,.50488l-.60742-.93652c-.0791-.12207-.21387-.19336-.35645-.19336-.02734,0-.05566,.00293-.08398,.00781-.56836,.11426-1.14844,.11133-1.7207-.00879-.16406-.0332-.34375,.03711-.44141,.18164l-.61621,.93262c-.37109-.13379-.72461-.30566-1.05957-.51367l.35449-1.06055c.05469-.16504,.00391-.34766-.12988-.45996-.44531-.375-.80469-.83008-1.06836-1.35059-.07812-.15625-.24805-.25879-.41699-.23145l-1.11133,.09961c-.12695-.37305-.21289-.75781-.25879-1.14941l1.04883-.38281c.16309-.06055,.27344-.21387,.27832-.3877,.00781-.28613,.0459-.57617,.11133-.8584,.06641-.28613,.16113-.56152,.28027-.82129,.07227-.1582,.04102-.34473-.0791-.4707l-.77148-.80762c.21289-.33008,.45996-.63672,.73828-.91602l.95508,.58105c.14746,.08984,.33691,.08105,.47656-.02441,.46484-.35059,.98828-.59961,1.55469-.74121,.16895-.04199,.29492-.18262,.31836-.35449l.15039-1.10742c.39258-.03906,.78516-.03711,1.17773,.00586l.14062,1.10938c.02246,.17285,.14746,.31445,.31641,.3584,.56641,.14453,1.08691,.39746,1.54883,.75195,.13867,.10645,.32715,.11719,.47656,.02832l.95898-.57227c.27539,.28223,.51953,.59082,.72949,.92285l-.77832,.80176c-.12207,.125-.1543,.31152-.08301,.4707,.24023,.53418,.36719,1.09863,.37695,1.67871,.00293,.1748,.1123,.3291,.27539,.39062l1.04492,.39355c-.02441,.19629-.05859,.39062-.10352,.58105Z"/><path class="cls-1" d="M19.03711,16.42578c-1.50781-.35254-3.01953,.59082-3.37012,2.09668-.35059,1.50781,.59082,3.01953,2.09766,3.37012,.21387,.0498,.42871,.07422,.6416,.07422,.51758,0,1.02637-.14453,1.47754-.4248,.63574-.39648,1.08008-1.0166,1.25-1.74609,.16992-.73047,.0459-1.4834-.35059-2.12012-.39551-.63574-1.0166-1.08008-1.74609-1.25Zm1.26855,3.17676c-.11816,.50977-.42773,.94141-.87109,1.21777-.44238,.27637-.96484,.36328-1.47656,.24414-1.05078-.24414-1.70703-1.29785-1.46289-2.34863,.20996-.90234,1.0166-1.5127,1.90625-1.5127,.14551,0,.29492,.0166,.44238,.05078,.50977,.11816,.94238,.42773,1.21777,.87109,.27637,.44434,.36328,.96875,.24414,1.47754Z"/><path class="cls-1" d="M2.91406,15.42773c-.23438,0-.4248,.19043-.4248,.4248v6.0498c0,.23438,.19043,.4248,.4248,.4248h6.15918c.23438,0,.4248-.19043,.4248-.4248v-6.0498c0-.23438-.19043-.4248-.4248-.4248H2.91406Zm5.73438,6.0498H3.33887v-5.2002h5.30957v5.2002Z"/><path class="cls-1" d="M15.37305,5.9209H2.8418c-.23438,0-.4248,.19043-.4248,.4248s.19043,.4248,.4248,.4248H15.37305c.23438,0,.4248-.19043,.4248-.4248s-.19043-.4248-.4248-.4248Z"/><path class="cls-1" d="M15.79785,8.9873c0-.23438-.19043-.4248-.4248-.4248H2.8418c-.23438,0-.4248,.19043-.4248,.4248s.19043,.4248,.4248,.4248H15.37305c.23438,0,.4248-.19043,.4248-.4248Z"/><path class="cls-1" d="M12.91699,11.62891c0-.23438-.19043-.4248-.4248-.4248H2.8418c-.23438,0-.4248,.19043-.4248,.4248s.19043,.4248,.4248,.4248H12.49219c.23438,0,.4248-.19043,.4248-.4248Z"/><path class="cls-1" d="M5.36621,20.68359c.08008,.08398,.19141,.13086,.30664,.13086h.01465c.12012-.00391,.2334-.05957,.31152-.15137l1.99414-2.37891c.15039-.18066,.12695-.44824-.05273-.59961-.18066-.15039-.44727-.12695-.59961,.05273l-1.68945,2.0166-.99023-1.03125c-.16406-.16992-.43164-.17578-.60059-.0127-.16992,.16309-.1748,.43164-.0127,.60059l1.31836,1.37305Z"/><path class="cls-1" d="M19.09668,10.91614c-.2417-.01843-.45264,.16241-.47119,.40399-.01807,.24158,.1626,.45239,.4043,.47089,.24121,.01843,.45215-.16241,.4707-.40399s-.1626-.45239-.40381-.47089Z"/></g></g></svg>