<?xml version="1.0" encoding="UTF-8"?><svg id="Layer_2" xmlns="http://www.w3.org/2000/svg" viewBox="0 0 25.17578 25.01855"><defs><style>.cls-1{fill:#783cbe;}</style></defs><g id="Layer_1-2"><g><path class="cls-1" d="M11.33594,24.16895H.84961V6.94922c0-.08246-.02979-.15503-.07031-.22021,.04053-.06519,.07031-.13776,.07031-.22021v-1.42676h3.65723c.11328,0,.22168-.04492,.30176-.125,.0791-.08008,.12402-.18945,.12305-.30176l-.02051-3.80273,13.94434,.10352V9.12207c0,.23438,.19043,.4248,.4248,.4248s.4248-.19043,.4248-.4248V.53418c0-.2334-.18848-.42285-.42188-.4248l-14.79688-.10938h-.00293c-.00146,0-.00293,.00085-.00439,.00085-.03613,.00037-.07031,.0116-.10547,.02106-.01807,.00494-.0376,.00464-.05469,.01184-.02393,.01001-.04346,.02924-.06543,.04382-.02344,.0155-.0498,.02643-.06982,.04645-.00098,.0011-.00146,.00275-.00244,.00391-.00146,.00128-.00342,.00165-.00439,.00293L.11816,4.36328c-.01465,.0152-.02051,.03455-.03271,.05127-.01953,.02728-.04053,.05298-.05322,.08459-.01367,.03345-.0166,.06866-.02148,.10394-.00244,.01855-.01074,.03497-.01074,.05414v1.85156c0,.08246,.02979,.15503,.07031,.22021-.04053,.06519-.07031,.13776-.07031,.22021V24.59375c0,.23438,.19043,.4248,.4248,.4248H11.33594c.23438,0,.4248-.19043,.4248-.4248s-.19043-.4248-.4248-.4248ZM1.4209,4.23242L4.06445,1.47565l.01465,2.75677H1.4209Z"/><path class="cls-1" d="M10.7168,15.08984H2.87012c-.23438,0-.4248,.19043-.4248,.4248s.19043,.4248,.4248,.4248h7.84668c.23438,0,.4248-.19043,.4248-.4248s-.19043-.4248-.4248-.4248Z"/><path class="cls-1" d="M11.1416,18.06445c0-.23438-.19043-.4248-.4248-.4248H2.87012c-.23438,0-.4248,.19043-.4248,.4248s.19043,.4248,.4248,.4248h7.84668c.23438,0,.4248-.19043,.4248-.4248Z"/><path class="cls-1" d="M2.87012,20.04395c-.23438,0-.4248,.19043-.4248,.4248s.19043,.4248,.4248,.4248h6.04297c.23438,0,.4248-.19043,.4248-.4248s-.19043-.4248-.4248-.4248H2.87012Z"/><path class="cls-1" d="M16.05762,14.98926h-2.86621c-.23438,0-.4248,.19043-.4248,.4248v9.17969c0,.23438,.19043,.4248,.4248,.4248h2.86621c.23438,0,.4248-.19043,.4248-.4248V15.41406c0-.23438-.19043-.4248-.4248-.4248Zm-.4248,9.17969h-2.0166V15.83887h2.0166v8.33008Z"/><path class="cls-1" d="M20.4043,12.15723h-2.86621c-.23438,0-.4248,.19043-.4248,.4248v12.01172c0,.23438,.19043,.4248,.4248,.4248h2.86621c.23438,0,.4248-.19043,.4248-.4248V12.58203c0-.23438-.19043-.4248-.4248-.4248Zm-.4248,12.01172h-2.0166V13.00684h2.0166v11.16211Z"/><path class="cls-1" d="M24.75098,8.34375h-2.86621c-.23438,0-.4248,.19043-.4248,.4248v15.8252c0,.23438,.19043,.4248,.4248,.4248h2.86621c.23438,0,.4248-.19043,.4248-.4248V8.76855c0-.23438-.19043-.4248-.4248-.4248Zm-.4248,15.8252h-2.0166V9.19336h2.0166v14.97559Z"/><path class="cls-1" d="M15.85156,7.3916c0-2.95117-2.40137-5.35156-5.35254-5.35156s-5.35156,2.40039-5.35156,5.35156,2.40039,5.35156,5.35156,5.35156,5.35254-2.40039,5.35254-5.35156Zm-1.40967-2.12872l-3.51807,1.48767V2.93262c1.52539,.14563,2.82031,1.04431,3.51807,2.33026Zm-3.94287,6.63068c-2.48242,0-4.50195-2.01953-4.50195-4.50195,0-2.33698,1.79639-4.24121,4.07715-4.45898V7.39062c0,.05542,.01025,.11176,.0332,.16602,0,.00031,.00049,.00043,.00049,.00073,.02979,.06921,.08105,.12323,.14014,.16791,.01514,.01129,.02832,.021,.04492,.03009,.06201,.0354,.12988,.06104,.20605,.06104,.05566,0,.11133-.01074,.16602-.0332l4.1084-1.73767c.13525,.42773,.22852,.87415,.22852,1.34607,0,2.48242-2.02051,4.50195-4.50293,4.50195Z"/><path class="cls-1" d="M19.28613,10.40033c-.23975,0-.43457,.18762-.43457,.41907v.02972c-.00098,.23145,.19287,.41974,.43311,.42059h.00146c.23926,0,.43408-.18646,.43506-.41736v-.03308c0-.23132-.19482-.41895-.43506-.41895Z"/></g></g></svg>