<?xml version="1.0" encoding="UTF-8"?><svg id="Layer_2" xmlns="http://www.w3.org/2000/svg" viewBox="0 0 17.24609 23.87598"><defs><style>.cls-1{fill:#783cbe;}</style></defs><g id="Layer_5"><g><path class="cls-1" d="M5.79924,5.90412c.01855-.24365-.16357-.45642-.40771-.4751-.24365-.01855-.45605,.16382-.4751,.40771-.01855,.24365,.16406,.4563,.40771,.4751,.24365,.01855,.45654-.16394,.4751-.40771Z"/><g><path class="cls-1" d="M8.62207,13.33691h-.00977c-2.59863-.00488-4.70898-2.125-4.70312-4.72461,.00098-.50684,.08203-1.00488,.24121-1.4834,.0752-.22168,.31543-.33984,.53809-.26855,.22266,.07422,.34277,.31543,.26855,.53809-.13086,.39062-.19727,.7998-.19824,1.21582-.00391,2.13086,1.72559,3.86816,3.85547,3.87305h.00781c2.12793,0,3.86035-1.72852,3.86523-3.85645,.00195-1.03223-.39746-2.00293-1.12598-2.73438s-1.69727-1.13574-2.72949-1.1377c-.5957-.0166-1.19141,.13379-1.72949,.40332-.20703,.10449-.46484,.02148-.57031-.18945-.10547-.20996-.02051-.46582,.18945-.57031,.65527-.32715,1.36035-.49316,2.09863-.49316h.01367c1.25879,.00195,2.44141,.49512,3.33008,1.3877s1.37598,2.07715,1.37305,3.33594c-.00488,2.5957-2.11914,4.7041-4.71484,4.7041Z"/><path class="cls-1" d="M8.62305,17.24609c-.09473,0-.18848-.03125-.2666-.09375-1.85254-1.49121-3.46387-2.16016-5.56055-2.30859-.21094-.01465-.37891-.18262-.39355-.39355-.14844-2.0957-.81738-3.70605-2.30859-5.56055-.125-.15527-.125-.37793,0-.5332,1.49121-1.85449,2.16016-3.46484,2.30859-5.56055,.01465-.21094,.18262-.37891,.39355-.39355,2.0957-.14844,3.70605-.81738,5.56055-2.30859,.15625-.125,.37695-.125,.5332,0,1.85449,1.49121,3.46484,2.16016,5.56055,2.30859,.21094,.01465,.37891,.18262,.39355,.39355,.14844,2.0957,.81738,3.70605,2.30859,5.56055,.125,.15527,.125,.37793,0,.5332-1.49121,1.85449-2.16016,3.46484-2.30859,5.56055-.01465,.21094-.18262,.37891-.39355,.39355-2.09668,.14844-3.70801,.81738-5.56055,2.30859-.07812,.0625-.17188,.09375-.2666,.09375Zm-5.40332-3.21973c2.00977,.20117,3.61816,.87207,5.40332,2.25391,1.78516-1.38184,3.39355-2.05273,5.40332-2.25391,.20117-2.00879,.87207-3.61719,2.25391-5.40332-1.38184-1.78613-2.05273-3.39453-2.25391-5.40332-2.00879-.20117-3.61719-.87207-5.40332-2.25391-1.78613,1.38184-3.39453,2.05273-5.40332,2.25391-.20117,2.00879-.87207,3.61719-2.25391,5.40332,1.38184,1.78613,2.05273,3.39453,2.25391,5.40332Z"/><path class="cls-1" d="M5.42773,23.87598c-.10352,0-.20508-.03809-.28418-.1084l-3.22949-2.90234c-.13086-.11816-.17578-.30469-.1123-.46875l2.26172-5.88574c.08398-.21875,.33301-.32812,.54883-.24414,.21875,.08398,.32812,.33008,.24414,.54883l-2.15625,5.61328,2.55371,2.29492,2.49609-6.42285c.08496-.21875,.33105-.3252,.55078-.24219,.21875,.08496,.32715,.33203,.24219,.55078l-2.71875,6.99609c-.05078,.12988-.16211,.22656-.29785,.25879-.03223,.00781-.06543,.01172-.09863,.01172Z"/><path class="cls-1" d="M11.81836,23.87598c-.03223,0-.06543-.00391-.09766-.01172-.13672-.03223-.24805-.12891-.29883-.25879l-2.71875-6.99609c-.08496-.21875,.02344-.46582,.24219-.55078,.21875-.08398,.46484,.02246,.55078,.24219l2.49512,6.42188,2.54004-2.29395-2.14258-5.61426c-.08301-.21875,.02637-.46484,.24609-.54883,.21973-.08105,.46484,.02539,.54883,.24609l2.24609,5.88574c.0625,.16406,.01758,.34961-.1123,.4668l-3.21387,2.90234c-.0791,.07129-.18066,.10938-.28516,.10938Z"/></g></g></g></svg>