<?xml version="1.0" encoding="UTF-8"?><svg id="Layer_2" xmlns="http://www.w3.org/2000/svg" viewBox="0 0 23.35924 23.34151"><defs><style>.cls-1{fill:#783cbe;}</style></defs><g id="Layer_1-2"><g id="Layer_2-2"><g id="Layer_1-2"><path class="cls-1" d="M14.3368,7.4582H4.39014c-.23461,.00112-.42571-.18817-.42683-.42278-.00112-.23461,.18817-.42571,.42278-.42683,.00135,0,.0027,0,.00405,0H14.3368c.23461-.00112,.42571,.18817,.42683,.42278s-.18817,.42571-.42278,.42683c-.00135,0-.0027,0-.00405,0Z"/><path class="cls-1" d="M14.3368,4.44795H4.39014c-.23461,.00114-.42573-.18812-.42688-.42273s.18812-.42573,.42273-.42688c.00138,0,.00276,0,.00415,0H14.3368c.23461-.00114,.42573,.18812,.42688,.42273s-.18812,.42573-.42273,.42688c-.00138,0-.00276,0-.00415,0Z"/><path class="cls-1" d="M14.3368,10.26142H4.39014c-.23461,.00015-.42492-.18992-.42507-.42453-.00015-.23461,.18992-.42492,.42453-.42507H14.3368c.23461-.00015,.42492,.18992,.42507,.42453s-.18992,.42492-.42453,.42507h-.00054Z"/><path class="cls-1" d="M10.55291,21.36885h-2.37888c-.23461,.00117-.42575-.18807-.42693-.42268-.00117-.23461,.18807-.42575,.42268-.42693,.00141,0,.00283,0,.00424,0h2.37888c.23461-.00117,.42575,.18807,.42693,.42268,.00117,.23461-.18807,.42575-.42268,.42693-.00141,0-.00283,0-.00424,0Z"/><path class="cls-1" d="M14.30262,18.68086c-.23461,.00018-.42494-.18987-.42512-.42448-.00008-.11202,.04408-.21954,.12288-.29915l7.33545-7.41944c.16504-.16693,.43415-.16845,.60107-.00342,.16693,.16504,.16846,.43415,.00342,.60108h0l-7.33545,7.41943c-.07981,.08077-.18869,.12616-.30225,.12598Z"/><path class="cls-1" d="M12.97792,17.35615c-.23461,.00018-.42495-.18986-.42513-.42447-.00009-.11202,.04408-.21954,.12288-.29916l7.4043-7.48291c.16504-.16693,.43414-.16846,.60107-.00342,.16693,.16504,.16846,.43414,.00342,.60107h0l-7.4043,7.48291c-.07986,.0807-.18871,.12606-.30224,.12598Z"/><path class="cls-1" d="M21.63807,11.26142c-.23461-.0001-.42472-.19037-.42462-.42498,.00005-.11256,.04477-.2205,.12433-.30011l1.13476-1.13526-.71875-.71826-1.05224,1.041c-.16585,.16585-.43474,.16585-.60059,0s-.16585-.43474,0-.60059l1.04835-1.04832c.16507-.16957,.39039-.26714,.627-.27148h.00048c.18851-.00209,.36999,.07142,.50391,.2041l.88086,.88037c.28353,.31361,.25915,.79768-.05446,1.08121-.00266,.00241-.00534,.0048-.00804,.00717l-1.16065,1.16064c-.07947,.07995-.18762,.12478-.30034,.12451Zm.041-2.65332l.00049,.00049-.00049-.00049Z"/><path class="cls-1" d="M12.59803,19.06074c-.23499-.00028-.42526-.19099-.42498-.42598,.00004-.03064,.00338-.06119,.00998-.09111l.37989-1.70459c.05097-.22922,.2781-.37372,.50732-.32275s.37372,.2781,.32275,.50732l-.23486,1.05225,1.05225-.23487c.22944-.04998,.45595,.0955,.50593,.32494,.04968,.22804-.09376,.4535-.32137,.50514l-1.70459,.37989c-.03033,.00662-.06129,.0099-.09233,.00976Z"/><path class="cls-1" d="M21.62587,11.14326c-.11427,.00018-.22378-.04577-.30371-.12744l-1.23484-1.2612c-.16423-.16773-.16139-.43684,.00634-.60108,.16774-.16423,.43685-.16139,.60108,.00634l1.23487,1.26123c.16423,.16754,.16155,.43649-.00599,.60073-.0795,.07793-.18641,.12154-.29773,.12144l-.00002-.00003Z"/><path class="cls-1" d="M17.52324,9.57911c-.0002-.24632,.19932-.44616,.44564-.44636h.00073c.24653,0,.44638,.19984,.44639,.44637s-.19984,.44638-.44637,.44639c-.24653,0-.44638-.19984-.44639-.44637v-.00003"/><path class="cls-1" d="M15.59999,23.34151H2.79541c-1.54317-.00167-2.79374-1.25224-2.79541-2.79541L.16626,2.79443C.16784,1.25193,1.41776,.00181,2.96026,0H15.76527c1.54317,.00167,2.79374,1.25224,2.79541,2.79541l-.16626,5.20332c-.00117,.23461-.19231,.42385-.42693,.42268-.23296-.00116-.42152-.18973-.42268-.42268l.16626-5.20332c-.00133-1.07408-.87172-1.94447-1.9458-1.9458H2.96026c-1.07341,.00148-1.94315,.87141-1.94439,1.94482l-.16626,17.75167c.00133,1.07408,.87172,1.94447,1.9458,1.9458H15.59999c1.07355-.0013,1.94351-.87125,1.94482-1.9448v-3.99368c-.00117-.23461,.18807-.42575,.42268-.42693s.42575,.18807,.42693,.42268c0,.00141,0,.00283,0,.00424v3.99368c-.00165,1.54263-1.25179,2.79277-2.79443,2.79441Z"/><path class="cls-1" d="M6.99854,19.06074c-.11271,.00025-.22084-.04458-.3003-.12451l-2.6084-2.6084c-.16585-.16585-.16585-.43474,0-.60059s.43474-.16585,.60059,0l2.30811,2.30762,4.25048-4.25c.16585-.16585,.43474-.16585,.60059,0s.16585,.43474,0,.60059h0l-4.55078,4.55078c-.07946,.07993-.18758,.12476-.30029,.12451Z"/></g></g></g></svg>