<?xml version="1.0" encoding="UTF-8"?><svg id="Layer_2" xmlns="http://www.w3.org/2000/svg" viewBox="0 0 24.95655 25.02051"><defs><style>.cls-1{fill:#783cbe;}</style></defs><g id="Layer_1-2"><g><path class="cls-1" d="M11.5,17.57617l-2.09863,2.04761-1.62695-1.62671c-.16602-.16602-.43555-.16602-.60156,0s-.16602,.43555,0,.60156l1.61914,1.61926-1.86523,1.81952-1.59668-1.59601c-.16602-.16602-.43555-.16602-.60156,0s-.16602,.43555,0,.60156l1.58936,1.58856-1.36963,1.33624c-.26953,.27051-.70996,.27246-.97949,0l-2.91699-2.91699c-.12988-.12988-.20215-.30371-.20215-.48828,0-.18555,.07227-.35938,.19922-.4873l6.54785-6.38867c.16797-.16309,.1709-.43262,.00684-.60059-.16309-.16797-.43164-.1709-.60059-.00684L.45118,19.4707C.16016,19.7627-.00097,20.15039,0,20.5625,0,20.97461,.16016,21.36133,.45118,21.65234l2.91602,2.91699c.29199,.29102,.67871,.45117,1.0918,.45117,.41211,0,.79883-.16016,1.08691-.44824l6.54785-6.38867c.16797-.16309,.1709-.43262,.00684-.60059-.16309-.16699-.43066-.1709-.60059-.00684Z"/><path class="cls-1" d="M14.18262,7.10254L20.00977,1.27539c.26953-.26953,.70898-.26953,.97852,0l2.91699,2.91504c.26953,.27051,.26953,.70996,0,.97949l-1.35352,1.35345-1.57129-1.5722c-.16602-.16602-.43555-.16602-.60156,0s-.16602,.43555,0,.60156l1.57129,1.5722-1.8418,1.84192-1.57227-1.57135c-.16602-.16602-.43555-.16602-.60156,0s-.16602,.43555,0,.60156l1.57227,1.57135-1.25879,1.25873c-.16602,.16602-.16602,.43555,0,.60156,.08301,.08301,.19238,.12402,.30078,.12402s.21777-.04102,.30078-.12402l1.55859-1.55902c.00049-.00024,.00098-.00031,.00098-.00055s.00049-.00055,.00049-.00079l2.44092-2.44122c.00049-.00061,.00146-.00073,.00195-.00134s.00098-.00146,.00146-.00208l1.65283-1.6532c.59961-.60059,.59961-1.5791,0-2.18066l-2.91699-2.91602c-.58398-.58203-1.59766-.58203-2.18164,0l-5.82715,5.82715c-.16602,.16602-.16602,.43555,0,.60156s.43555,.16602,.60156,0Z"/><path class="cls-1" d="M24.09473,19.25378c-.00098-.00793,.00146-.01538,0-.02332-.00244-.01172-.01025-.02039-.01318-.03162-.00732-.02557-.01611-.04944-.02881-.07349-.00439-.00848-.00781-.0166-.01318-.02478-.01123-.0188-.02344-.03516-.0376-.05176-.00879-.0108-.01221-.02411-.02246-.03418L7.95606,2.98438,5.35157,.38086c-.24414-.24512-.56934-.38086-.91602-.38086h-.00098c-.3457,0-.67188,.13477-.91699,.37988L.95704,2.94043c-.25977,.26074-.40234,.60547-.40234,.97266s.14355,.71191,.40234,.9707l2.35156,2.35254c.08301,.08301,.19238,.12402,.30078,.12402,.00049,0,.00098-.00031,.00146-.00031,.02734,.00531,.05371,.01593,.08154,.01593,.10742,0,.21484-.04004,.29785-.12207l3.54492-3.48718,15.28467,15.29132-.82178,.16852c-.16699,.03418-.29688,.16406-.33105,.33105l-.27051,1.32031-1.32324,.27246c-.16602,.03418-.2959,.16406-.33008,.33008l-.16943,.82465L6.38965,9.09473c-.16504-.16699-.43359-.16797-.60059-.00098-.16699,.16602-.16699,.43457-.00098,.60059l13.74219,13.76953c.00879,.00897,.02051,.01215,.03027,.02014,.0166,.01404,.03174,.02777,.05078,.03925,.0127,.008,.02539,.01471,.03955,.02124,.01953,.00934,.03955,.01508,.06006,.02118,.01221,.0036,.02148,.01184,.03418,.0144,.01172,.00232,.02246,.00208,.03369,.00348,.00439,.00049,.00732,.00299,.01123,.00336l4.2627,.41406c.01367,.00195,.02734,.00195,.04102,.00195,.1123,0,.2207-.04395,.30078-.12402,.08984-.08984,.13477-.21582,.12207-.3418l-.41504-4.2627c-.00098-.00739-.00537-.01337-.00684-.02063ZM1.4043,3.91309c0-.14062,.05469-.27246,.1543-.37109L4.11915,.98145c.08398-.08496,.19629-.13184,.31543-.13184h.00098c.11816,.00098,.23047,.04688,.31445,.13184l2.18457,2.18463-3.27344,3.21991L1.55762,4.28223c-.09863-.09863-.15332-.22949-.15332-.36914ZM20.34229,22.78693l.17725-.86017,1.32324-.27246c.16602-.03418,.2959-.16406,.33008-.33105l.27051-1.32031,.8584-.17645,.31934,3.27899-3.27881-.31854Z"/><path class="cls-1" d="M19.6504,19.59473c.1084,0,.21777-.04102,.30078-.12402,.16602-.16602,.16602-.43555,0-.60156L7.68165,6.59277c-.16602-.16602-.43555-.16602-.60156,0s-.16602,.43555,0,.60156l12.26953,12.27637c.08301,.08301,.19238,.12402,.30078,.12402Z"/><path class="cls-1" d="M5.32959,8.23767c.01855-.2453-.16504-.45935-.41016-.47809-.24561-.0188-.45947,.16486-.47803,.41016-.01904,.2453,.16455,.45935,.41016,.47809,.24512,.0188,.45898-.16486,.47803-.41016Z"/></g></g></svg>