<?xml version="1.0" encoding="UTF-8"?><svg id="Layer_2" xmlns="http://www.w3.org/2000/svg" viewBox="0 0 19.91612 23.03906"><defs><style>.cls-1{fill:#783cbe;}</style></defs><g id="Layer_1-2"><g><path class="cls-1" d="M18.1417,1.60449c0-.88477-.74609-1.60449-1.66406-1.60449h-4.01562c-.90137,0-1.58008,.69434-1.58008,1.61523v3.60547c0,.23438,.19043,.4248,.4248,.4248s.4248-.19043,.4248-.4248V1.61523c0-.4502,.30078-.76562,.73047-.76562h4.01562c.45703,0,.81445,.33203,.81445,.75781,.00879,1.44141,.01855,3.79004,.00391,4.05371-.01562,.1084,.01172,.2207,.07812,.31152,1.02832,1.40527,1.69238,4.25684,1.69238,7.26562,0,3.74805-1.0498,7.0127-2.7334,8.51758l-3.57227,.00195c-.25-.22461-.57422-.53516-.85938-.95605-.12988-.19336-.39453-.24512-.58984-.11328-.19434,.13086-.24512,.39551-.11328,.58984,.33691,.49805,.70898,.85645,.99902,1.11621,.15625,.13574,.35645,.21094,.56738,.21094h3.57227c.2041-.00195,.40137-.07715,.55566-.21387,1.86523-1.66211,3.02344-5.16992,3.02344-9.15332,0-3.14551-.67578-6.05273-1.77051-7.64746,.01465-.40039,.01367-1.38379-.00391-3.98633Z"/><path class="cls-1" d="M11.5919,7.71484l-1.84473-4.75684c-.06348-.16406-.2207-.27148-.39648-.27148H3.37998c-.17578,0-.33301,.10742-.39648,.27148l-.28711,.74023c-.08496,.21875,.02441,.46484,.24316,.5498,.21484,.08496,.46387-.02344,.5498-.24316l.18164-.46875h5.38867l1.77441,4.55664c1.04297,1.67383,1.30469,4.09863,.73535,6.82715-1.14844,5.49609-2.10742,6.91406-2.5752,7.26953H3.72764c-.4707-.3584-1.42969-1.7793-2.5752-7.26953-.57422-2.74707-.30664-5.18262,.79199-6.93066l.43262-1.11426c.08496-.21973-.02344-.46582-.24219-.55078-.22363-.08594-.4668,.02344-.55078,.24219l-.39551,1.04102C-.00771,9.49805-.30849,12.08594,.32041,15.09375c.93066,4.45996,1.87793,7.00293,2.89746,7.77539l.11328,.08496c.07324,.05566,.16309,.08496,.25488,.08496h5.5498c.0918,0,.18164-.0293,.25488-.08496l.11523-.08594c1.0166-.77148,1.96387-3.31445,2.89551-7.77441,.62305-2.98633,.33105-5.5625-.80957-7.37891Z"/><path class="cls-1" d="M8.59971,9.78418H4.05772c-.57422,0-1.04102,.4668-1.04102,1.05469l.21973,6.7959c0,.57422,.4668,1.04102,1.0459,1.04102l4.0332-.04395c.57324-.00195,1.03809-.46777,1.03809-1.02344l.28613-6.7832c0-.57422-.4668-1.04102-1.04004-1.04102Zm-.0957,7.80664c0,.10547-.09473,.20801-.19629,.19141l-4.03027,.04395c-.10352,0-.19141-.08789-.19141-.20508l-.21973-6.7959c0-.10352,.08789-.19141,.19141-.19141h4.54199c.10352,0,.19043,.08789,.19043,.17383l-.28613,6.7832Z"/><path class="cls-1" d="M9.94737,7.89258c0-.23438-.19043-.4248-.4248-.4248H3.18858c-.23438,0-.4248,.19043-.4248,.4248s.19043,.4248,.4248,.4248h6.33398c.23438,0,.4248-.19043,.4248-.4248Z"/><path class="cls-1" d="M16.17979,6.32129c.23438,0,.4248-.19043,.4248-.4248s-.19043-.4248-.4248-.4248l-3.53027-.00098c-.23438,0-.4248,.19043-.4248,.4248s.19043,.4248,.4248,.4248l3.53027,.00098Z"/><path class="cls-1" d="M2.52744,5.72168c.02051,0,.04102-.00195,.06152-.00488,.1123-.01562,.21191-.07324,.28027-.16406s.09766-.20312,.08105-.31641c-.03027-.21191-.21191-.36523-.41992-.36523-.01953,0-.04004,.00195-.06055,.00488-.23145,.03223-.39355,.24707-.36133,.48047,.01562,.1123,.07422,.21191,.16504,.2793,.07422,.05664,.16309,.08594,.25391,.08594Z"/></g></g></svg>