<?xml version="1.0" encoding="UTF-8"?><svg id="Layer_2" xmlns="http://www.w3.org/2000/svg" viewBox="0 0 23.44684 23.36056"><defs><style>.cls-1{fill:#783cbe;}</style></defs><g id="Layer_1-2"><g><path class="cls-1" d="M9.4924,4.45801c1.22949,0,2.22949-.99902,2.22949-2.22852s-1-2.22949-2.22949-2.22949-2.22949,1-2.22949,2.22949,1,2.22852,2.22949,2.22852Zm0-3.59668c.75391,0,1.36816,.61426,1.36816,1.36816s-.61426,1.36719-1.36816,1.36719-1.36816-.61328-1.36816-1.36719,.61426-1.36816,1.36816-1.36816Z"/><path class="cls-1" d="M14.84103,16.10742c-.06543-.08496-.13574-.16016-.21387-.22852l-.01953-.01562-2.12305-1.76953c-.05176-.04297-.08008-.1084-.08008-.18262v-5.08105l1.74609,1.05957c.37793,.23047,.83984,.28711,1.25684,.16406l.03613-.0127,3.1875-1.04297c.32715-.1123,.59375-.3457,.75-.6582,.16016-.31934,.1875-.68262,.07617-1.02148-.11035-.33496-.34473-.60742-.66016-.7666-.31738-.15918-.67578-.18652-1.00977-.07617l-.02051,.00684-2.6748,.88086-.0498-.03027-3.31152-1.98047c-.19336-.11523-.41895-.17871-.63379-.17871h-2.77148c-.27832,0-.55664,.08008-.80469,.23047L1.69064,8.95215c-.30566,.18555-.52051,.47852-.60449,.82617-.08398,.3418-.0293,.69531,.15332,.99414,.18359,.30371,.47363,.51758,.81738,.60156,.34961,.08789,.70605,.03027,1.00781-.15332l3.96289-2.40723v4.49121c0,.18652-.05566,.37012-.15527,.51758l-1.72363,2.54883c-.02148,.02637-.03223,.04004-.04199,.05469-.05371,.08008-.15234,.12207-.25,.09863-.02441-.00586-.04688-.00781-.06934-.00977l-2.75195-.62305c-.43359-.09473-.88086-.02148-1.25781,.21582-.37695,.23633-.6377,.60547-.73633,1.03809-.20312,.89648,.36426,1.79297,1.26367,1.99707l3.4209,.77539c1.08594,.23926,2.19238-.20996,2.80273-1.11523l1.94141-2.88184,2.79297,2.32422c.02637,.02148,.04785,.04102,.06543,.05762h.00586l.04004,.0498,3.34375,4.35547c.27148,.35352,.66211,.5791,1.10156,.63477,.44824,.06738,.87598-.05957,1.22656-.33105,.35352-.27051,.58008-.66309,.63867-1.10547,.05762-.44238-.05859-.87988-.33008-1.23145l-3.51367-4.56738Zm-8.02734,2.21289c-.34375,.50977-.90234,.80176-1.49414,.80176-.13281,0-.26855-.01465-.40332-.0459l-3.4209-.77539c-.21191-.04785-.39258-.1748-.50781-.3584-.11523-.18262-.15234-.39844-.10449-.60742,.04688-.20703,.17285-.38477,.35352-.49805,.18359-.11426,.40234-.14941,.60742-.10352l2.82227,.63965c.02734,.00586,.05371,.00977,.0791,.01074l.02051-.00098c.06152,.00781,.10449,.00977,.14746,.00977,.33691,0,.65039-.15234,.86035-.41992,.02344-.02637,.04004-.04688,.05664-.06836l1.73633-2.56836,1.2373,1.03027-1.99023,2.9541Zm10.70898,4.00879h-.00098c-.14258,.10938-.31348,.16699-.4873,.16699-.03516,0-.06934-.00293-.10449-.00781-.20996-.02734-.39746-.13574-.52832-.30469l-3.36719-4.38379c-.05859-.07227-.12988-.14258-.21973-.21777l-.04688-.03906-4.88574-4.06543,.00391-.06445c.00098-.03516,.00293-.07129,.00293-.1084v-4.55762c0-.29688-.16406-.57324-.42871-.72168-.25488-.14355-.57129-.13867-.82422,.0166l-4.01855,2.44336c-.10547,.06348-.22949,.08203-.35156,.05273-.12305-.03125-.22559-.10742-.29102-.21387-.13086-.21582-.05859-.50098,.16309-.63574l5.83008-3.54785c.11426-.06836,.23828-.10547,.35742-.10547h2.77148c.06152,0,.13379,.02148,.19336,.05762l3.35254,2.00488c.2041,.12305,.45801,.15625,.68652,.09277,.02246-.00684,.03418-.00977,.04688-.01367l2.67871-.88184c.11914-.03906,.24414-.0293,.35352,.02441,.10938,.05469,.19141,.14941,.22949,.2666,.08008,.24609-.05566,.52051-.29492,.59961l-3.16699,1.03613c-.18066,.06055-.375,.04004-.54492-.04883h-.00195l-.03125-.01855-1.80371-1.0957c-.25488-.15527-.5752-.16113-.83203-.0166-.25879,.14551-.41895,.42188-.41895,.72168v5.14746c0,.33008,.1416,.6377,.38965,.84473l2.12402,1.77051c.03516,.0293,.06641,.0625,.10156,.10645l3.51465,4.56738c.26953,.35156,.20117,.85742-.15039,1.12891Z"/><path class="cls-1" d="M20.8863,19.40323c-1.1123,0-2.13965-.73145-2.46289-1.85254-.06543-.22559,.06445-.46191,.29004-.52637,.23145-.06641,.46094,.06445,.52637,.29004,.2627,.9082,1.20996,1.43164,2.11914,1.17188,.43945-.12695,.80273-.41602,1.02344-.81543,.2207-.40039,.27344-.8623,.14648-1.30078-.2627-.90625-1.21289-1.43164-2.12012-1.17188-.22949,.06836-.46191-.06641-.52539-.29102-.06543-.22559,.06543-.46094,.29102-.52539,1.35449-.38965,2.78027,.39648,3.1709,1.75195,.18945,.6582,.1123,1.34961-.21875,1.94824-.33105,.59766-.875,1.03223-1.5332,1.2207-.23535,.06836-.47266,.10059-.70703,.10059Z"/><path class="cls-1" d="M19.3699,15.64094c.07652,.22083-.04057,.46192-.26128,.5384-.22095,.07655-.46202-.04048-.53853-.26131-.07653-.22089,.04055-.46198,.26127-.53846,.22095-.07655,.46202,.04048,.53855,.26137Z"/></g></g></svg>