<?xml version="1.0" encoding="UTF-8"?><svg id="Layer_2" xmlns="http://www.w3.org/2000/svg" viewBox="0 0 24.38281 24.38513"><defs><style>.cls-1{fill:#783cbe;}</style></defs><g id="Layer_1-2"><g><path class="cls-1" d="M11.85938,1.02869c-1.37109-1.37109-3.60254-1.37207-4.97363,0l-3.3418,3.3418c-.16602,.16602-.16602,.43555,0,.60156s.43555,.16602,.60156,0L7.4873,1.63025c1.00195-1.00098,2.76855-1.00293,3.77051,0l11.49707,11.49707c.50195,.50098,.77832,1.1709,.77832,1.88477,0,.71484-.27637,1.38477-.77832,1.88574l-5.85645,5.85742c-1.00195,1.00098-2.76855,1.00293-3.77051,0L1.62988,11.25818c-.50098-.50098-.77734-1.1709-.77734-1.88477,0-.71484,.27637-1.38477,.77734-1.88574,.16602-.16602,.16602-.43555,0-.60156s-.43555-.16602-.60156,0c-1.37109,1.37109-1.37109,3.60254,0,4.97363l11.49805,11.49707c.68555,.68555,1.58594,1.02832,2.48633,1.02832,.90137,0,1.80176-.34277,2.4873-1.02832l5.85645-5.85742c.66211-.66211,1.02637-1.54492,1.02637-2.4873,0-.94141-.36426-1.82422-1.02637-2.48633L11.85938,1.02869Z"/><path class="cls-1" d="M3.84473,11.16345c.52148,0,1.04199-.19727,1.4375-.59375,.38477-.38379,.59668-.89453,.59668-1.43848s-.21191-1.05469-.59668-1.43848c-.79004-.79199-2.08008-.79199-2.87598,0-.79297,.79297-.79297,2.08398,.00098,2.87695,.39648,.39648,.91699,.59375,1.4375,.59375Zm-.83789-2.86914c.23145-.23047,.53516-.3457,.83789-.3457,.30371,0,.60645,.11523,.83691,.3457h.00098c.22363,.22363,.34668,.52051,.34668,.83691s-.12305,.61328-.34766,.83691c-.45996,.45996-1.21191,.46191-1.67383,0-.46191-.46094-.46191-1.21289-.00098-1.67383Z"/><path class="cls-1" d="M7.69434,2.40662c-.38477,.38379-.59668,.89453-.59668,1.43848,0,.54297,.21191,1.05371,.5957,1.43848,.39648,.39648,.91699,.59473,1.43848,.59473,.52051,0,1.04102-.19824,1.4375-.59473,.38379-.38477,.5957-.89551,.5957-1.43848,0-.54395-.21191-1.05469-.59668-1.43848-.76855-.76758-2.1084-.76758-2.87402,0Zm2.27344,2.27539c-.46094,.45996-1.21191,.46191-1.67285,0-.22461-.22363-.34766-.52148-.34766-.83691,0-.31641,.12305-.61328,.34766-.83789,.22363-.22363,.52051-.34668,.83691-.34668,.31543,0,.6123,.12305,.83594,.34668q0,.00098,.00098,.00098c.22363,.22363,.34668,.52051,.34668,.83691,0,.31543-.12305,.61328-.34766,.83691Z"/><path class="cls-1" d="M9.08594,11.49548c-.79297-.79395-2.08301-.79004-2.87598,0-.38379,.38477-.5957,.89551-.5957,1.43848,0,.54395,.21191,1.05469,.5957,1.4375,.38379,.38477,.89453,.59668,1.43848,.59668,.54297,0,1.05371-.21191,1.43848-.5957,.79199-.79297,.79199-2.08301,0-2.87598q0-.00098-.00098-.00098Zm-.60059,2.27539c-.44727,.4502-1.22559,.44824-1.6748,0-.22363-.22363-.34668-.52051-.34668-.83691,0-.31543,.12305-.61328,.34766-.83691,.23047-.23047,.5332-.3457,.83691-.3457,.30273,0,.60645,.11523,.83691,.3457,.46094,.46191,.46191,1.21289,0,1.67383Z"/><path class="cls-1" d="M14.37207,6.20935c-.79297-.79395-2.08301-.79102-2.87598,.00098-.79199,.79297-.79199,2.08301,0,2.87598,.39648,.39648,.91699,.59375,1.43848,.59375,.52051,0,1.04102-.19824,1.43848-.59375,.79199-.79297,.79199-2.08301,0-2.87598q0-.00098-.00098-.00098Zm-.59961,2.27539c-.46387,.46191-1.21484,.45996-1.6748,0-.46191-.46094-.46094-1.21191,0-1.67383,.23047-.23047,.5332-.3457,.83691-.3457,.30273,0,.60645,.11523,.83691,.3457,.46094,.46191,.46191,1.21289,.00098,1.67383Z"/><path class="cls-1" d="M11.45117,18.77087c.52051,0,1.04199-.19824,1.43848-.5957,.79199-.79297,.79199-2.08301,0-2.87598-.76758-.76758-2.10938-.76758-2.87695,0-.79199,.79297-.79199,2.08301,0,2.87695,.39648,.39648,.91797,.59473,1.43848,.59473Zm-.83691-2.87109c.22363-.22363,.52051-.34668,.83691-.34668s.61328,.12305,.83691,.34668v.00098c.46191,.46094,.46094,1.21191,0,1.67383-.46094,.46289-1.21289,.46191-1.67383,.00098-.46094-.46289-.46191-1.21387,0-1.67578Z"/><path class="cls-1" d="M15.29883,10.01306c-.79199,.79297-.79199,2.08301,.00098,2.87695,.39648,.39648,.91699,.59375,1.4375,.59375,.52148,0,1.04199-.19824,1.43848-.59375,.38379-.38477,.5957-.89551,.5957-1.43848,0-.54395-.21191-1.05469-.59668-1.43848-.7666-.76758-2.10645-.76758-2.87598,0Zm2.27539,2.27539c-.46094,.45996-1.21289,.45996-1.67383,.00098-.46094-.46289-.46191-1.21387,0-1.6748,.22363-.22461,.52148-.34766,.83691-.34766,.31641,0,.61328,.12305,.83691,.34668q0,.00098,.00098,.00098c.22363,.22363,.34668,.52051,.34668,.83691,0,.31543-.12305,.61328-.34766,.83691Z"/><path class="cls-1" d="M15.25391,22.57458c.54395,0,1.05469-.21191,1.4375-.5957,.38477-.38379,.59668-.89453,.59668-1.43848,0-.54297-.21191-1.05371-.5957-1.43848-.79395-.79199-2.08301-.79102-2.87695,.00098-.79199,.79297-.79199,2.08301,0,2.87598,.38477,.38379,.89551,.5957,1.43848,.5957Zm-.83789-2.87109c.23145-.23047,.53516-.3457,.83789-.3457,.30371,0,.60645,.11523,.83691,.3457,.22461,.22363,.34766,.52148,.34766,.83691,0,.31641-.12305,.61328-.34766,.83789-.44531,.44727-1.22461,.44922-1.67383-.00098-.46191-.46094-.46094-1.21191-.00098-1.67383Z"/><path class="cls-1" d="M20.54102,17.2865c.52051,0,1.04102-.19824,1.43848-.59375,.79297-.79297,.79297-2.08398,0-2.87695h-.00098c-.79395-.79395-2.08496-.79199-2.875,0-.38477,.38379-.59668,.89453-.59668,1.43848s.21191,1.05469,.5957,1.43848c.39648,.39648,.91699,.59375,1.43848,.59375Zm-.83691-2.86914c.23047-.23047,.5332-.3457,.83691-.3457,.30273,0,.60645,.11523,.83691,.3457,.46191,.46094,.46191,1.21289,.00098,1.67383-.46387,.46191-1.21387,.45996-1.67578,0-.22363-.22363-.34668-.52051-.34668-.83691s.12305-.61328,.34766-.83691Z"/><path class="cls-1" d="M5.0498,5.04919c-.16602,.16602-.16602,.43555,0,.60156l13.68457,13.68555c.08301,.08301,.19238,.12402,.30078,.12402s.21777-.04102,.30078-.12402c.16602-.16602,.16602-.43555,0-.60156L5.65137,5.04919c-.16602-.16602-.43555-.16602-.60156,0Z"/><path class="cls-1" d="M2.54736,6.29944c.2334,.01355,.43359-.16455,.44727-.39789s-.16455-.43353-.39795-.44708c-.2334-.01361-.43359,.16449-.44727,.39783s.16455,.43353,.39795,.44714Z"/></g></g></svg>