<?xml version="1.0" encoding="UTF-8"?><svg id="Layer_2" xmlns="http://www.w3.org/2000/svg" viewBox="0 0 27.35299 24.94608"><defs><style>.cls-1{fill:#783cbe;}</style></defs><g id="Layer_1-2"><g><path class="cls-1" d="M25.22083,13.46561c-.38184,.12695-.62207,.28027-.77246,.37695l-.60156,.40778c-.16016-.5434-.56689-.99329-1.11914-1.1861-.33301-.11719-.69824-.11523-1.0625,.01562l-2.97998,1.38489c-.01514-.00177-.02783-.00641-.04346-.00793l-10.85547-1.36719c-.35645-.04199-.72461-.00879-1.08691,.11426L1.10755,15.48319c-.21777,.08887-.32227,.33691-.2334,.55371,.08887,.21777,.33398,.32129,.55371,.2334l5.56738-2.27051c.21777-.07227,.4502-.09766,.68457-.06641l10.86621,1.36816c.39453,.04004,.68066,.17188,.84961,.39258,.27539,.3584,.19629,.86816,.19141,.90625-.02734,.2998-.4834,.63672-.86914,.64355l-5.74707,.07227-2.41113-.08398c-.21777,.02051-.43164,.17578-.43945,.41016s.17578,.43164,.41016,.43945l2.30713,.07971,3.50146,1.92419c.14062,.07715,.31152,.06934,.44336-.02051l8.14551-5.52051c.10449-.06738,.2793-.17871,.56641-.27441,.26953-.09473,.78516,.19141,.95312,.47363,.12012,.20703,.10449,.71973-.73145,1.33887l-8.98145,7.41797c-.24902,.18555-.53027,.32324-.83594,.4082l-.49707,.1377c-.25586,.06934-.52148,.06348-.77148-.01855l-10.41211-3.45312c-.57617-.19141-1.21973-.14551-1.82324,.16504L.17395,22.36698c-.18945,.13867-.23047,.4043-.0918,.59375,.13965,.19141,.4082,.23145,.59375,.0918l2.16016-1.58984c.34473-.17285,.75-.20117,1.11426-.08105l10.41211,3.45312c.22266,.07422,.45312,.11133,.68359,.11133,.19531,0,.3916-.02734,.58301-.08105l.49609-.1377c.4082-.1123,.78418-.2959,1.13379-.55762l8.98047-7.41699c1.36035-1.00684,1.19824-2.05566,.93457-2.4502-.35156-.59375-1.26074-1.0752-1.95312-.83691Zm-3.2334,.40039c.14648-.05273,.30859-.05273,.45703,0,.37793,.13184,.63184,.48828,.63184,.88672v.01978l-2.63037,1.78259c.01904-.27832,.00684-.8728-.36865-1.36877-.08447-.11182-.18262-.20929-.29102-.29626l2.20117-1.02405Zm-5.4668,5.34961l-1.94727-1.07001,3.59229-.04498-1.64502,1.11499Z"/><path class="cls-1" d="M13.61243,11.86502c.07715,.0625,.17188,.09375,.26562,.09375s.18848-.03125,.26562-.09375c.2168-.17285,5.30566-4.27637,6.06934-6.71973,.4375-1.16406,.31738-2.58008-.30566-3.60742-.52344-.8623-1.33789-1.38379-2.35742-1.50781-1.8418-.22363-3.09668,.85254-3.67188,1.50391C13.30286,.8826,12.05579-.19357,10.20618,.03006c-.37012,.04492-.71973,.14551-1.03809,.29688-.21191,.10156-.30078,.35547-.2002,.56738,.10254,.21191,.35645,.30273,.56738,.2002,.23438-.1123,.49512-.18652,.77344-.2207,2.02051-.2373,3.16309,1.50488,3.21094,1.5791,.07812,.12207,.21387,.19531,.3584,.19531s.28027-.07324,.3584-.19531c.04785-.07422,1.20312-1.81738,3.21094-1.5791,.94824,.11523,1.46582,.66504,1.7334,1.10547,.48535,.7998,.58008,1.95215,.22949,2.88965-.60254,1.92285-4.47461,5.2373-5.53223,6.11523-1.05762-.87891-4.92871-4.19531-5.53906-6.1377-.11523-.30859-.18555-.6582-.2041-1.08594l-.4248,.01562-.42188,.09863c.02051,.44629,.10645,.87402,.24805,1.24805,.77246,2.46582,5.85938,6.56934,6.07617,6.74219Z"/><path class="cls-1" d="M8.33899,2.29141c.17627-.18744,.1665-.48224-.021-.65869-.18848-.17535-.4834-.16553-.65869,.02191-.17627,.18744-.1665,.48224,.02197,.65869,.1875,.17535,.48242,.16656,.65771-.02191Z"/></g></g></svg>