<?xml version="1.0" encoding="UTF-8"?><svg id="Layer_2" xmlns="http://www.w3.org/2000/svg" viewBox="0 0 18.8916 23.49707"><defs><style>.cls-1{fill:#783cbe;}</style></defs><g id="Layer_1-2"><g><path class="cls-1" d="M7.7002,20.58887h.98535c.56152,0,1.01758-.44434,1.01758-.99023v-1.36133h1.44531c.56055,0,1.0166-.44434,1.0166-.99023v-.94141c0-.5459-.45605-.99023-1.0166-.99023h-1.44531v-1.36133c0-.5459-.45605-.99023-1.01758-.99023h-.98535c-.56152,0-1.01758,.44434-1.01758,.99023v1.36133h-1.44531c-.56152,0-1.01758,.44434-1.01758,.99023v.94141c0,.5459,.45605,.99023,1.01758,.99023h1.44531v1.36133c0,.5459,.45605,.99023,1.01758,.99023Zm-2.46289-3.20117c-.09082,0-.16797-.06445-.16797-.14062v-.94141c0-.07617,.07715-.14062,.16797-.14062h1.87012c.23438,0,.4248-.19043,.4248-.4248v-1.78613c0-.07617,.07715-.14062,.16797-.14062h.98535c.09082,0,.16797,.06445,.16797,.14062v1.78613c0,.23438,.19043,.4248,.4248,.4248h1.87012c.08887,0,.16699,.06543,.16699,.14062v.94141c0,.07617-.07617,.14062-.16699,.14062h-1.87012c-.23438,0-.4248,.19043-.4248,.4248v1.78613c0,.07617-.07715,.14062-.16797,.14062h-.98535c-.09082,0-.16797-.06445-.16797-.14062v-1.78613c0-.23438-.19043-.4248-.4248-.4248h-1.87012Z"/><path class="cls-1" d="M3.56445,3.91211H12.65527c.23438,0,.4248-.19043,.4248-.4248s-.19043-.4248-.4248-.4248H3.56445c-.23438,0-.4248,.19043-.4248,.4248s.19043,.4248,.4248,.4248Z"/><path class="cls-1" d="M3.56445,7.00488H12.65527c.23438,0,.4248-.19043,.4248-.4248s-.19043-.4248-.4248-.4248H3.56445c-.23438,0-.4248,.19043-.4248,.4248s.19043,.4248,.4248,.4248Z"/><path class="cls-1" d="M3.56445,9.87402H12.65527c.23438,0,.4248-.19043,.4248-.4248s-.19043-.4248-.4248-.4248H3.56445c-.23438,0-.4248,.19043-.4248,.4248s.19043,.4248,.4248,.4248Z"/><path class="cls-1" d="M15.96094,1.31543c-.10254,0-.19287,.04102-.26611,.10144-.64893-.85461-1.69189-1.41687-2.87549-1.41687H3.56641C1.59961,0,0,1.53613,0,3.4248v.75879c0,.23438,.19043,.4248,.4248,.4248s.4248-.19043,.4248-.4248v-.75879C.84961,2.00488,2.06836,.84961,3.56641,.84961H12.81934c1.49805,0,2.7168,1.15527,2.7168,2.5752V20.07324c0,1.41895-1.21875,2.57422-2.7168,2.57422H3.56641c-1.49805,0-2.7168-1.15527-2.7168-2.57422V7.47949c0-.23438-.19043-.4248-.4248-.4248s-.4248,.19043-.4248,.4248v12.59375c0,1.8877,1.59961,3.42383,3.56641,3.42383H12.81934c1.42676,0,2.65137-.8136,3.22119-1.97827,1.60449-.02484,2.85107-.77625,2.85107-1.73657v-2.20801c0-.53375-.39355-.99866-1.01172-1.31543,.61816-.31677,1.01172-.78168,1.01172-1.31543v-2.20801c0-.5343-.39355-.99945-1.01172-1.31635,.61816-.31683,1.01172-.78174,1.01172-1.31549v-2.20801c0-.53375-.39355-.99866-1.01172-1.31543,.61816-.31677,1.01172-.78168,1.01172-1.31543V3.05664c0-.97656-1.28711-1.74121-2.93066-1.74121Zm2.08105,16.25879v2.20801c0,.32697-.66016,.784-1.71777,.87286,.03418-.19,.06152-.38263,.06152-.58185v-3.3678c1.02295,.10052,1.65625,.54797,1.65625,.86877Zm0-4.83887v2.20801c0,.3208-.6333,.76825-1.65625,.86877v-3.94647c1.02295,.10077,1.65625,.54889,1.65625,.86969Zm0-4.83984v2.20801c0,.3208-.6333,.76825-1.65625,.86877v-3.94556c1.02295,.10052,1.65625,.54797,1.65625,.86877Zm0-2.63086c0,.3208-.6333,.76825-1.65625,.86877V3.4248c0-.44244-.09473-.86243-.25439-1.25098,1.16895,.04578,1.91064,.53656,1.91064,.88281v2.20801Z"/><path class="cls-1" d="M.84717,5.92401c.01367-.23328-.16455-.43347-.39795-.44708S.01562,5.64148,.00195,5.87482c-.01367,.23328,.16455,.43347,.39795,.44708s.43359-.16455,.44727-.39789Z"/></g></g></svg>