<?xml version="1.0" encoding="UTF-8"?><svg id="Layer_2" xmlns="http://www.w3.org/2000/svg" viewBox="0 0 25.42552 24.9248"><defs><style>.cls-1{fill:#783cbe;}</style></defs><g id="Layer_1-2"><g><path class="cls-1" d="M23.40735,14.21875c-.34863,.11621-.57129,.25586-.72363,.35254l-.51855,.35138c-.15967-.49469-.54248-.90002-1.0498-1.07794-.31055-.1084-.65625-.10742-1.00781,.0166l-2.75488,1.28015c-.01074-.00122-.02002-.00464-.03125-.00574l-10.06738-1.2666c-.33301-.04102-.67871-.00781-1.02246,.10742l-5.18652,2.11328c-.21777,.08887-.32227,.33691-.2334,.55371,.08789,.21777,.33594,.32227,.55371,.2334l5.16113-2.10352c.19824-.06641,.41016-.08887,.62207-.06055l10.07715,1.26758c.35645,.03613,.61426,.1543,.76562,.35254,.24609,.32129,.17578,.78027,.16992,.81934-.02246,.26465-.42871,.56152-.77344,.56836l-5.32812,.06738-2.23633-.0791c-.24805,.01953-.43164,.17578-.43945,.41016s.1748,.43066,.41016,.43945l2.13379,.07483,3.23926,1.78064c.14062,.07715,.31152,.06934,.44336-.02051l7.55762-5.12305c.10254-.06445,.25684-.16113,.51367-.24707,.2207-.07324,.68457,.15332,.84668,.42578,.10449,.18457,.08496,.6416-.67188,1.20215l-8.32715,6.87695c-.23047,.17188-.48828,.29785-.76562,.37402l-.45996,.12793c-.22949,.06348-.47266,.05664-.69727-.0166l-9.65332-3.20215c-.54102-.18066-1.14746-.1377-1.7207,.15723L.17395,22.47656c-.18945,.13867-.23047,.4043-.0918,.59375,.14062,.19141,.40723,.23145,.59375,.0918l1.99805-1.4707c.3125-.15723,.67969-.18359,1.01074-.07324l9.65527,3.20215c.20898,.06934,.42578,.10449,.64258,.10449,.18457,0,.36914-.02539,.5498-.07617l.45801-.12695c.37891-.10449,.73047-.27637,1.06348-.52441l8.32617-6.87598c1.28125-.94727,1.12402-1.94043,.875-2.31348-.33203-.56055-1.19434-1.01855-1.84766-.78906Zm-2.98047,.42969c.13086-.04785,.27637-.04883,.40723-.00098,.33691,.11719,.56348,.4375,.56348,.79492v.00085l-2.37305,1.60895c.0127-.28174-.01953-.78778-.35156-1.22797-.07031-.09265-.15039-.17438-.2373-.2489l1.99121-.92688Zm-5.07812,4.89551l-1.68555-.92657,3.10986-.03918-1.42432,.96576Z"/><path class="cls-1" d="M13.23548,2.10059h-1.10254c-.59961,0-1.08691,.4873-1.08691,1.08691v1.66797h-1.66699c-.59961,0-1.08789,.4873-1.08789,1.08691v1.10254c0,.59961,.48828,1.08789,1.08789,1.08789h1.66699v1.66699c0,.59961,.4873,1.08691,1.08691,1.08691h1.10254c.59961,0,1.08789-.4873,1.08789-1.08691v-1.66699h1.66699c.59961,0,1.08789-.48828,1.08789-1.08789v-1.10254c0-.59961-.48828-1.08691-1.08789-1.08691h-1.66699v-1.66797c0-.59961-.48828-1.08691-1.08789-1.08691Zm2.75488,3.60449c.12891,0,.23828,.1084,.23828,.2373v1.10254c0,.12891-.10938,.23828-.23828,.23828h-2.0918c-.23438,0-.4248,.19043-.4248,.4248v2.0918c0,.13086-.10742,.2373-.23828,.2373h-1.10254c-.12891,0-.2373-.1084-.2373-.2373v-2.0918c0-.23438-.19043-.4248-.4248-.4248h-2.0918c-.12891,0-.23828-.10938-.23828-.23828v-1.10254c0-.13086,.10742-.2373,.23828-.2373h2.0918c.23438,0,.4248-.19043,.4248-.4248V3.1875c0-.12891,.1084-.2373,.2373-.2373h1.10254c.13086,0,.23828,.10645,.23828,.2373v2.09277c0,.23438,.19043,.4248,.4248,.4248h2.0918Z"/><path class="cls-1" d="M12.6847,12.9873c3.58008,0,6.49316-2.91309,6.49316-6.49316,0-3.58105-2.91309-6.49414-6.49316-6.49414-1.17773,0-2.33203,.31836-3.33691,.92188-.20117,.12109-.2666,.38184-.14551,.58301,.12012,.20312,.38379,.26465,.58301,.14551,.87305-.52344,1.875-.80078,2.89941-.80078,3.11133,0,5.64355,2.53223,5.64355,5.64453,0,3.11133-2.53223,5.64355-5.64355,5.64355s-5.64355-2.53223-5.64355-5.64355c0-.86914,.19238-1.70215,.57031-2.47656,.10352-.21094,.01562-.46582-.19531-.56836-.20801-.10254-.46582-.01465-.56836,.19531-.43555,.8916-.65625,1.85059-.65625,2.84961,0,3.58008,2.91309,6.49316,6.49316,6.49316Z"/><path class="cls-1" d="M8.31263,2.82361c.23096-.05988,.36963-.29559,.30957-.52649-.05957-.2309-.29541-.36957-.52637-.30969s-.36963,.29559-.30957,.52649c.05957,.2309,.29541,.36957,.52637,.30969Z"/></g></g></svg>