<?xml version="1.0" encoding="UTF-8"?><svg id="Layer_2" xmlns="http://www.w3.org/2000/svg" viewBox="0 0 25.26903 22.82556"><defs><style>.cls-1{fill:#783cbe;}</style></defs><g id="Layer_1-2"><g><path class="cls-1" d="M8.2304,12.55896c.17188,0,.32715-.10352,.39258-.2627l.99512-2.40332,1.12695,7.47754c.0293,.19922,.19531,.34961,.39648,.36133h.02344c.19141,0,.36035-.12793,.41016-.31445l2.55566-9.53223,.69238,7.05664c.01758,.18359,.15332,.33594,.33496,.37402,.18164,.03711,.36719-.04492,.45801-.20703l1.43945-2.5498h2.91211c.23438,0,.4248-.19043,.4248-.4248s-.19043-.4248-.4248-.4248h-3.16016c-.15332,0-.29492,.08203-.37012,.21582l-.89941,1.59375-.79004-8.04297c-.01953-.2041-.18359-.36523-.3877-.38184-.2041-.01953-.39258,.11523-.44531,.31348l-2.63281,9.82227-1.05176-6.97559c-.02832-.18848-.17871-.33496-.36816-.3584-.2002-.02148-.37207,.08301-.44434,.25977l-1.47168,3.55371h-2.64258c-.23438,0-.4248,.19043-.4248,.4248s.19043,.4248,.4248,.4248h2.92676Z"/><path class="cls-1" d="M19.84857,.05506c-3.84863-.46094-6.3291,2.0918-7.21289,3.20801C11.75286,2.14685,9.27923-.40491,5.42181,.05506c-.22949,.02832-.45117,.06641-.66406,.11426-.22949,.05176-.37305,.2793-.32227,.50781,.05176,.22852,.27832,.37598,.50781,.32227,.1875-.04199,.38184-.07617,.58105-.10059,4.25879-.52051,6.72852,3.27637,6.75293,3.31445,.15625,.24414,.56055,.24414,.7168,0,.02441-.03809,2.49512-3.83301,6.75195-3.31445,1.61621,.19629,2.90723,1.02051,3.7334,2.38281,1.02344,1.68652,1.22559,4.1123,.49609,6.05859-1.28418,4.09668-9.72461,11.18457-11.33984,12.51172-1.61523-1.32812-10.05664-8.41699-11.34863-12.53418-.79004-2.10645-.49512-4.67285,.7334-6.38574,.07715-.10547,.15527-.20801,.23926-.30762,.15039-.17969,.12695-.44824-.05371-.59863-.17871-.14941-.44727-.12695-.59863,.05371-.0957,.11523-.1875,.2334-.27637,.35547C-.05671,4.36951-.3946,7.25623,.48431,9.59412c1.49121,4.75684,11.46191,12.79785,11.88574,13.1377,.07715,.0625,.17188,.09375,.26562,.09375s.18848-.03125,.26562-.09375c.42383-.33984,10.39453-8.38086,11.87695-13.11523,.82227-2.18848,.59766-4.84863-.57129-6.77539-.9668-1.59375-2.47363-2.55664-4.3584-2.78613Z"/><path class="cls-1" d="M3.19036,1.72302c.00781,.00098,.0166,.00098,.02441,.00098,.22949,0,.42188-.17969,.43555-.41016,.01465-.23926-.16895-.44531-.40918-.45898-.00879-.00098-.01758-.00098-.02637-.00098-.22754,0-.41895,.17871-.43262,.40918-.01465,.23926,.16895,.44629,.4082,.45996Z"/></g></g></svg>