<?xml version="1.0" encoding="UTF-8"?><svg id="Layer_2" xmlns="http://www.w3.org/2000/svg" viewBox="0 0 19.80469 25.84473"><defs><style>.cls-1{fill:#783cbe;}</style></defs><g id="Layer_1-2"><g><path class="cls-1" d="M13.29297,9.35547V.4248c0-.23438-.19043-.4248-.4248-.4248h-1.5c-.23438,0-.4248,.19043-.4248,.4248s.19043,.4248,.4248,.4248h1.0752V9.35547c0,2.76562-2.25098,5.0166-5.0166,5.0166h-1.56055c-2.76562,0-5.0166-2.25098-5.0166-5.0166V.84961h.95117c.23438,0,.4248-.19043,.4248-.4248s-.19043-.4248-.4248-.4248H.4248c-.23438,0-.4248,.19043-.4248,.4248V9.35547c0,3.23438,2.63184,5.86621,5.86621,5.86621h1.56055c3.23438,0,5.86621-2.63184,5.86621-5.86621Z"/><path class="cls-1" d="M17.44531,15.16309c-1.30176,0-2.36035,1.05859-2.36035,2.35938,0,1.1554,.83643,2.1153,1.93555,2.31641-.01562,.04419-.02832,.09015-.02832,.13965,0,2.76562-2.25,5.0166-5.01465,5.0166-2.7666,0-5.0166-2.25098-5.0166-5.0166v-1.35352c0-.23438-.19043-.4248-.4248-.4248s-.4248,.19043-.4248,.4248v1.35352c0,3.23438,2.63086,5.86621,5.86523,5.86621h.98242c.12793,0,.24219-.05664,.32031-.14551,2.60938-.59473,4.5625-2.93359,4.5625-5.7207,0-.04755-.0127-.09137-.02734-.13403,1.125-.17889,1.99023-1.14771,1.99023-2.32202,0-1.30078-1.05859-2.35938-2.35938-2.35938Zm0,3.86914c-.83301,0-1.51074-.67773-1.51074-1.50977s.67773-1.50977,1.51074-1.50977c.83203,0,1.50977,.67773,1.50977,1.50977s-.67773,1.50977-1.50977,1.50977Z"/><path class="cls-1" d="M6.53613,17.17017c.24658,0,.44629-.19952,.44629-.44641,0-.24677-.19971-.44635-.44629-.44635-.24707,0-.44629,.19958-.44629,.44635,0,.24689,.19922,.44641,.44629,.44641Z"/></g></g></svg>