<?xml version="1.0" encoding="UTF-8"?><svg id="Layer_2" xmlns="http://www.w3.org/2000/svg" viewBox="0 0 24.08105 15.67383"><defs><style>.cls-1{fill:#783cbe;}</style></defs><g id="Layer_1-2"><g><path class="cls-1" d="M22.20801,1.56738c-.37744,0-.72803,.11438-1.02246,.30743v-.00275c0-1.03223-.83984-1.87207-1.87305-1.87207-1.03223,0-1.87207,.83984-1.87207,1.87207V5.96387H6.64062V1.87207c0-1.03223-.83984-1.87207-1.87305-1.87207-1.03223,0-1.87207,.83984-1.87207,1.87207v.00287c-.29443-.19318-.64551-.30756-1.02344-.30756-1.03223,0-1.87207,.83984-1.87207,1.87305v.46387c0,.23438,.19043,.4248,.4248,.4248s.4248-.19043,.4248-.4248v-.46387c0-.56445,.45898-1.02344,1.02246-1.02344,.56445,0,1.02344,.45898,1.02344,1.02344V12.2334c0,.56445-.45898,1.02344-1.02344,1.02344-.56348,0-1.02246-.45898-1.02246-1.02344V7.12891c0-.23438-.19043-.4248-.4248-.4248s-.4248,.19043-.4248,.4248v5.10449c0,1.0332,.83984,1.87305,1.87207,1.87305,.37793,0,.729-.11438,1.02344-.30756v.00287c0,1.03223,.83984,1.87207,1.87207,1.87207,1.0332,0,1.87305-.83984,1.87305-1.87207v-4.09277h10.7998v4.09277c0,1.03223,.83984,1.87207,1.87207,1.87207,1.0332,0,1.87305-.83984,1.87305-1.87207v-.00275c.29443,.19305,.64502,.30743,1.02246,.30743,1.0332,0,1.87305-.83984,1.87305-1.87305V3.44043c0-1.0332-.83984-1.87305-1.87305-1.87305ZM5.79102,13.80176c0,.56348-.45898,1.02246-1.02344,1.02246-.56348,0-1.02246-.45898-1.02246-1.02246V1.87207c0-.56348,.45898-1.02246,1.02246-1.02246,.56445,0,1.02344,.45898,1.02344,1.02246V13.80176Zm.84961-4.94238v-2.0459h10.7998v2.0459H6.64062Zm13.69531,4.94238c0,.56348-.45898,1.02246-1.02344,1.02246-.56348,0-1.02246-.45898-1.02246-1.02246V1.87207c0-.56348,.45898-1.02246,1.02246-1.02246,.56445,0,1.02344,.45898,1.02344,1.02246V13.80176Zm2.89551-1.56836c0,.56445-.45898,1.02344-1.02344,1.02344-.56348,0-1.02246-.45898-1.02246-1.02344V3.44043c0-.56445,.45898-1.02344,1.02246-1.02344,.56445,0,1.02344,.45898,1.02344,1.02344V12.2334Z"/><path class="cls-1" d="M.40137,5.91742c.22119,.01288,.41113-.15601,.42383-.3772s-.15576-.41101-.37695-.42389-.41113,.15601-.42383,.3772c-.01318,.22119,.15576,.41095,.37695,.42389Z"/></g></g></svg>