<?xml version="1.0" encoding="UTF-8"?><svg id="Layer_2" xmlns="http://www.w3.org/2000/svg" viewBox="0 0 21.10974 22.88036"><defs><style>.cls-1{fill:#783cbe;}</style></defs><g id="Layer_1-2"><g><path class="cls-1" d="M14.1156,13.12823l4.18066-4.18146c.98535-.9873,1.52734-2.30469,1.52734-3.70801,0-1.40039-.54199-2.71582-1.52734-3.7041C16.7738,.01415,14.5072-.42139,12.51697,.43017c-.21582,.0918-.31641,.3418-.22363,.55762,.09277,.21484,.34082,.31641,.55762,.22363,1.6416-.70117,3.58887-.33105,4.84375,.92383,.8252,.82812,1.2793,1.92969,1.2793,3.10352,0,1.17676-.4541,2.28027-1.2793,3.10742l-4.375,4.375L7.11023,6.51153l3.37549-3.37531c.16602-.16602,.16602-.43555,0-.60156s-.43555-.16602-.60156,0l-3.67383,3.67383c-.00098,.00085-.00195,.0011-.00293,.00195s-.00098,.00208-.00195,.00293L1.53162,10.8872c-2.04199,2.0459-2.04199,5.37109-.00098,7.41113,.78906,.79236,1.82227,1.2868,2.93506,1.45026,.18262,2.03339,4.36377,3.13177,8.31396,3.13177,4.03809,0,8.33008-1.14551,8.33008-3.26758v-3.25977c0-1.8894-3.3999-3.00226-6.99414-3.22479Zm6.14453,3.22479c0,.49481-.57715,1.01379-1.58691,1.44373l-10.41748-3.34082c1.22363-.31677,2.76416-.52185,4.52393-.52185,4.4082,0,7.48047,1.27539,7.48047,2.41895Zm-13.37402-1.44446l10.41699,3.34076c-1.22314,.31665-2.76416,.52167-4.52344,.52167-4.40918,0-7.48145-1.27441-7.48145-2.41797,0-.49493,.57764-1.01422,1.58789-1.44446Zm-4.75293-3.42078L6.50818,7.11303l5.97705,5.97662c-2.09814,.02875-4.22803,.36346-5.77051,.98175-.01221,.00537-.02539,.00793-.03711,.0144-1.34131,.54504-2.229,1.30444-2.229,2.26721v2.5351c-.87793-.15753-1.68994-.56055-2.31543-1.19037-1.71094-1.70996-1.71094-4.49609,0-6.20996Zm10.64648,10.54297c-4.40918,0-7.48145-1.27441-7.48145-2.41797v-1.76599c1.44727,1.15881,4.52832,1.7738,7.48145,1.7738,2.95264,0,6.0332-.61493,7.48047-1.77374v1.76593c0,1.14355-3.07227,2.41797-7.48047,2.41797Z"/><path class="cls-1" d="M11.29968,2.21386c.23193,.01355,.43115-.16357,.44434-.39557,.01367-.23193-.16357-.43097-.39551-.44452-.23193-.01349-.43115,.16357-.44434,.39557-.01367,.23199,.16357,.43103,.39551,.44452Z"/></g></g></svg>