<?xml version="1.0" encoding="UTF-8"?><svg id="Layer_2" xmlns="http://www.w3.org/2000/svg" viewBox="0 0 22.2703 23.03125"><defs><style>.cls-1{fill:#783cbe;}</style></defs><g id="Layer_1-2"><g><g><path class="cls-1" d="M9.84643,20.90376l-2.58154,1.29644c-.52539,.2002-1.17188-.06934-1.43848-.60352-.25879-.51465-.11035-1.1377,.33203-1.4707l.47006-.23603,.1084-.0459c.18652-.08105,.27344-.29785,.19238-.48438-.07715-.18066-.28516-.27441-.4834-.19531l-.0459,.01758-.00098,.00098c-.05566,.01367-.54819,.25946-.55405,.26337-.82812,.5332-1.12012,1.60059-.67871,2.48145,.33008,.65723,1.00586,1.08105,1.72168,1.08105,.2207,0,.43848-.04102,.66113-.12695l2.62158-1.31402c.18262-.08887,.25977-.30957,.1709-.49121-.08496-.17871-.28906-.26562-.49512-.17285Z"/><g><path class="cls-1" d="M11.42798,5.48828c1.5127,0,2.74414-1.23145,2.74414-2.74414s-1.23145-2.74414-2.74414-2.74414-2.74414,1.23145-2.74414,2.74414,1.23145,2.74414,2.74414,2.74414Zm0-4.71387c1.08594,0,1.96973,.88379,1.96973,1.96973s-.88379,1.96973-1.96973,1.96973-1.96973-.88379-1.96973-1.96973,.88379-1.96973,1.96973-1.96973Z"/><path class="cls-1" d="M21.43394,11.30453l.00195-.00195-.04785-.02246v.00098l-2.53331-.98031-3.29102-3.14844-.0498-.03809c-1.19336-.88672-2.61426-1.35547-4.1084-1.35645-1.50098,0-2.93359,.47852-4.14551,1.38672l-3.63917,3.15965-2.72656,1.17188-.04102,.02148c-.3623,.2002-.63379,.52344-.76465,.9082-.13477,.3916-.11523,.81641,.05469,1.19531,.34766,.77441,1.24512,1.16309,2.04199,.8916l2.81738-1.19629,.2168-.09766,2.30031-2.06688v3.41895l-1.30762-.67285c-.65723-.33008-1.44727-.28418-2.06055,.12012-.62012,.40723-.97852,1.12207-.93359,1.86523,.0459,.74512,.48828,1.41602,1.1543,1.74902l10.84863,5.2832c.01367,.00586,.02637,.01074,.04688,.01758,.21484,.07812,.43848,.11816,.66309,.11816,.74512,0,1.41699-.41797,1.75391-1.09082,.44434-.88477,.15527-1.95508-.67578-2.49121l-8.60059-4.43945-.09375-.04785-.00098-4.72461-.04395-.17773-.15723-.16113-.1709-.0498-.00586-.00195-.13574,.0166-2.93019,2.61571-2.96094,1.26758c-.39648,.13379-.86426-.07812-1.04102-.47168-.17969-.40332-.02344-.8584,.36914-1.08105l2.73145-1.16797,.05371-.02637,3.73585-3.23583c1.03906-.77734,2.33496-1.20508,3.64746-1.20508s2.60352,.42383,3.63281,1.19141l3.32715,3.18359,2.67002,1.05941c.3916,.20898,.5498,.6709,.37012,1.07422-.13867,.30762-.45801,.51367-.7959,.51367-.0918,0-.17969-.01562-.27441-.04785l-2.71592-1.05746-2.32129-2.42871-.02734-.02246-.22363-.07617-.00586-.00098-.08105,.00684-.24707,.13965,.00684,.00586-.05273,.09668-.02832,4.69629-1.96161,.99149c-.09375,.0498-.16309,.13281-.19531,.23438-.03027,.10059-.02051,.20801,.02734,.30273,.09863,.18262,.34961,.26758,.53125,.1709l2.07098-1.05399,.03613-.00977c.04883-.01465,.0957-.03906,.13574-.07031l1.66309-.86426c.4043-.20703,.91211-.18066,1.29004,.06738,.38379,.25293,.60449,.69531,.57715,1.15332-.02734,.46094-.30469,.875-.72363,1.08398l-.35254,.19141c-.0957,.04688-.16797,.12793-.20117,.22852-.03516,.10059-.02832,.20898,.01855,.30566,.04785,.09766,.12988,.16895,.22949,.20215,.10059,.03516,.20996,.02344,.3125-.02637l.36133-.19629c.66406-.33301,1.10449-1,1.14941-1.74023,.04492-.74316-.31348-1.45801-.93359-1.86523-.60059-.39648-1.41113-.44629-2.0625-.12598l-1.17773,.6084v-3.24023l1.69043,1.86133,.04297,.0459,2.86338,1.11996,.04785,.01855c.17383,.06055,.35352,.09082,.5332,.09082,.6543,0,1.25-.38672,1.51758-.98438,.34375-.7666,.03906-1.67773-.69531-2.08789Zm-15.57237,3.28727l10.69629,5.51074,.01855,.01074c.4834,.32715,.6543,.95996,.39746,1.4707-.20117,.40137-.60156,.65137-1.04395,.65137-.13184,0-.25781-.02344-.39355-.07129l-10.82227-5.26953c-.4043-.20117-.67383-.61426-.70215-1.08008-.02734-.45898,.19336-.90039,.57715-1.15234,.20801-.1377,.44824-.20996,.69336-.20996,.19727,0,.39746,.04785,.5791,.13965Z"/></g></g><path class="cls-1" d="M17.00492,18.02619c.01782,.23303-.15674,.4364-.38965,.45422-.23315,.01782-.43652-.15668-.45435-.38971-.01782-.23309,.15674-.43646,.38965-.45428,.23315-.01782,.43652,.15668,.45435,.38977Z"/></g></g></svg>