<?xml version="1.0" encoding="UTF-8"?><svg id="Layer_2" xmlns="http://www.w3.org/2000/svg" viewBox="0 0 8.24513 22.96484"><defs><style>.cls-1{fill:#783cbe;}</style></defs><g id="Layer_1-2"><g><path class="cls-1" d="M5.8623,18.95117H2.37988c-.0918,0-.18164-.0293-.25488-.08496l-.99414-.74414c-.09961-.07422-.16113-.18945-.16895-.31348L.00098,2.27441l-.00098-1.84961c0-.23438,.19043-.4248,.4248-.4248H7.82031c.11328,0,.22168,.04492,.30078,.125,.08008,.08008,.125,.18848,.12402,.30176l-.00879,1.92773-.9541,15.4541c-.00781,.12402-.06934,.23926-.16992,.31445l-.99609,.74414c-.07324,.05469-.16211,.08398-.25391,.08398Zm-3.34082-.84961h3.19922l.72559-.54199,.94141-15.2334,.00586-1.47656H.84961v1.39844l.94824,15.31152,.72363,.54199Zm4.33691-.31934h0Z"/><path class="cls-1" d="M4.33301,2.77734H.48633c-.23438,0-.4248-.19043-.4248-.4248s.19043-.4248,.4248-.4248h3.84668c.23438,0,.4248,.19043,.4248,.4248s-.19043,.4248-.4248,.4248Z"/><path class="cls-1" d="M6.17773,22.96484H2.06738c-.23438,0-.4248-.19043-.4248-.4248v-4.26953c0-.23438,.19043-.4248,.4248-.4248H6.17773c.23438,0,.4248,.19043,.4248,.4248v4.26953c0,.23438-.19043,.4248-.4248,.4248Zm-3.68555-.84961h3.26074v-3.41992H2.49219v3.41992Z"/><path class="cls-1" d="M6.09375,2.77734c-.23438,0-.42969-.19043-.42969-.4248s.18555-.4248,.41992-.4248h.00977c.23535,0,.42578,.19043,.42578,.4248s-.19043,.4248-.42578,.4248Z"/></g></g></svg>