<?xml version="1.0" encoding="UTF-8"?><svg id="Layer_2" xmlns="http://www.w3.org/2000/svg" viewBox="0 0 15.29052 24.12543"><defs><style>.cls-1{fill:#783cbe;}</style></defs><g id="Layer_1-2"><g><path class="cls-1" d="M3.54204,7.05024c.0625,0,.12402-.01074,.18066-.03418,.21973-.08984,.4502-.15137,.6875-.18359,.21094-.02832,.36816-.20801,.36816-.4209V2.94965c0-.23438-.19043-.4248-.4248-.4248s-.4248,.19043-.4248,.4248v3.11035c-.19043,.04688-.39062,.11328-.61914,.20703-.21191,.09473-.26953,.3252-.17871,.53906,.06738,.15723,.23926,.24414,.41113,.24414Z"/><path class="cls-1" d="M9.19341,6.07953V2.94965c0-.23438-.19043-.4248-.4248-.4248s-.4248,.19043-.4248,.4248v3.47363c0,.20898,.15137,.38672,.35742,.41992,1.41309,.22559,2.47852,1.53125,2.47852,3.03516v12.97363c0,.2334-.18945,.42383-.42285,.42383H2.28033c-.2334,0-.42285-.19043-.42285-.42383V9.87836c0-.22266,.02246-.44531,.06641-.65527l-.39746-.16992-.43359-.00781c-.05664,.27148-.08496,.55176-.08496,.83301v12.97363c0,.70215,.57031,1.27344,1.27246,1.27344H10.75689c.70215,0,1.27246-.57129,1.27246-1.27344V9.87836c0-1.79004-1.19629-3.36035-2.83594-3.79883Z"/><path class="cls-1" d="M14.70513,.03168c-.85547,.34863-2.80176,1.00781-4.05371,1.00781-1.2832,0-8.06348,.14844-8.35156,.15527-.11133,.00195-.21777,.04883-.29492,.12891L.12017,3.26801c-.16406,.16895-.15918,.4375,.00879,.60059,.08301,.08008,.18945,.12012,.2959,.12012,.11133,0,.22168-.04297,.30469-.12891l1.76367-1.81934c1.09473-.02344,6.99805-.15137,8.1582-.15137,1.38086,0,3.39941-.67285,4.37402-1.07031,.21777-.08887,.32227-.33691,.2334-.55371-.08984-.21777-.34082-.32227-.55371-.2334Z"/><path class="cls-1" d="M3.07818,18.86371c0,.61816,.50293,1.12012,1.12109,1.12012h4.53418c.61816,0,1.12012-.50195,1.12012-1.12012v-7.33984c0-.61816-.50195-1.12012-1.12012-1.12012H4.19927c-.61816,0-1.12109,.50195-1.12109,1.12012v7.33984Zm.84961-7.33984c0-.14941,.12207-.27051,.27148-.27051h4.53418c.14941,0,.27051,.12109,.27051,.27051v7.33984c0,.14941-.12109,.27051-.27051,.27051H4.19927c-.14941,0-.27148-.12109-.27148-.27051v-7.33984Z"/><path class="cls-1" d="M2.25591,8.04633c.11328-.01562,.21289-.07422,.28223-.16504,.06836-.0918,.09766-.2041,.08105-.31738-.03125-.2334-.24609-.39746-.48242-.36426-.2334,.0332-.39648,.25-.36426,.4834,.03027,.21387,.21387,.36816,.42285,.36816,.02051,0,.04004-.00195,.06055-.00488Z"/></g></g></svg>