<?xml version="1.0" encoding="UTF-8"?><svg id="Layer_2" xmlns="http://www.w3.org/2000/svg" viewBox="0 0 20.13818 22.1106"><defs><style>.cls-1{fill:#783cbe;}</style></defs><g id="Layer_1-2"><g><path class="cls-1" d="M14.72852,16.80005c.04199-.12109,.06445-.25,.06445-.38477,0-.65039-.52832-1.17871-1.17773-1.17871h-4.97705l.97314-.48633c.40918-.2041,.66309-.61523,.66309-1.07227,0-.38184-.1748-.73242-.47949-.96094-.30176-.22852-.68457-.29883-1.04883-.19336l-4.28418,1.22363c-.04199,.01172-.08203,.03027-.11816,.05469l-2.15283,1.43457H.4248c-.23438,0-.4248,.19043-.4248,.4248s.19043,.4248,.4248,.4248h1.89258c.0127,0,.02344-.00604,.03564-.00714,.03174-.00238,.06201-.00897,.09277-.01886,.02393-.00763,.04541-.01648,.06738-.02802,.01318-.00714,.02881-.00848,.0415-.01727l2.20508-1.46875,4.22168-1.20605c.10547-.0293,.2168-.00977,.30273,.05664,.08887,.06641,.14062,.16895,.14062,.28125,0,.13281-.07422,.25293-.19434,.3125l-2.58301,1.29102c-.02051,.01025-.03418,.02777-.05225,.04077-.02295,.01654-.04688,.03082-.06592,.05151-.021,.02228-.03467,.04791-.0498,.07367-.0127,.02112-.02686,.04028-.03613,.06354-.01172,.0307-.01465,.06281-.01904,.09546-.00244,.0188-.01123,.03546-.01123,.05493,0,.00433,.00244,.00787,.00244,.01215,.00098,.02954,.01025,.05804,.01758,.0874,.00684,.02625,.01025,.05304,.021,.07715,.00244,.00446,.00195,.00928,.00391,.01373,.00488,.00952,.01514,.01312,.02051,.02216,.03027,.0506,.06934,.09241,.1167,.12665,.01562,.01099,.02881,.02167,.04541,.03046,.05957,.0321,.125,.05511,.19727,.05511h6.77734c.18066,0,.32812,.14746,.32812,.3291,0,.18066-.14746,.32812-.32812,.32812h-4.51855c-.23438,0-.4248,.19043-.4248,.4248s.19043,.4248,.4248,.4248h5.27148c.18066,0,.32812,.14746,.32812,.32812s-.14746,.32812-.32812,.32812h-5.27148c-.23438,0-.4248,.19043-.4248,.4248s.19043,.4248,.4248,.4248h4.51855c.18066,0,.32812,.14746,.32812,.32812s-.14746,.32812-.32812,.32812h-4.51855c-.23438,0-.4248,.19043-.4248,.4248s.19043,.4248,.4248,.4248h3.0127c.18066,0,.32812,.14746,.32812,.32812s-.14746,.32812-.32812,.32812H4.64844l-2.19434-.73145c-.04395-.01465-.08887-.02148-.13477-.02148H.4248c-.23438,0-.4248,.19043-.4248,.4248s.19043,.4248,.4248,.4248h1.8252l2.19434,.73145c.04395,.01465,.08887,.02148,.13477,.02148h7.53027c.64941,0,1.17773-.52832,1.17773-1.17773,0-.11633-.03467-.22192-.06641-.32812h.39453c.64941,0,1.17773-.52832,1.17773-1.17773,0-.14099-.03467-.2724-.08057-.39783,.479-.1496,.8335-.58063,.8335-1.10803,0-.52344-.34375-.96875-.81738-1.12109Z"/><path class="cls-1" d="M19.71289,2.9104H9.84082c.08594-.50098,.32422-.96387,.69043-1.33203,.47168-.46973,1.09668-.72852,1.75879-.72852h5.72363c.23438,0,.4248-.19043,.4248-.4248S18.24805,.00024,18.01367,.00024h-5.72363C11.40137,.00024,10.56445,.34595,9.92969,.97681c-.62891,.63379-.97461,1.47168-.97461,2.3584,0,.23438,.19043,.4248,.4248,.4248h.30273v1.03027c0,.23438,.19043,.4248,.4248,.4248h3.6377c.23438,0,.4248-.19043,.4248-.4248v-1.03027h5.54297c.23438,0,.4248-.19043,.4248-.4248s-.19043-.4248-.4248-.4248Zm-6.39258,1.45508h-2.78809v-.60547h2.78809v.60547Z"/><path class="cls-1" d="M11.92578,11.76001c.57227,0,1.14355-.20801,1.58008-.62305,.73926-.70215,.87891-1.79004,.33984-2.64551l-1.55957-2.47266c-.15625-.24805-.5625-.24805-.71875,0l-1.55957,2.47266c-.53906,.85449-.40039,1.94238,.3418,2.64746,.43457,.41406,1.00488,.62109,1.57617,.62109Zm-1.19922-2.81543l1.2002-1.90234,1.2002,1.90234c.32031,.50879,.23535,1.15723-.20898,1.5791-.54883,.52051-1.43652,.51855-1.98535-.00195-.44141-.4209-.52637-1.06934-.20605-1.57715Z"/><path class="cls-1" d="M19.71338,0c-.23486,0-.42529,.19031-.42529,.42499,0,.23474,.19043,.42499,.42529,.42499s.4248-.19025,.4248-.42499c0-.23468-.18994-.42499-.4248-.42499Z"/></g></g></svg>