<?xml version="1.0" encoding="UTF-8"?><svg id="Layer_2" xmlns="http://www.w3.org/2000/svg" viewBox="0 0 25.0918 25.09277"><defs><style>.cls-1{fill:#783cbe;}</style></defs><g id="Layer_3"><g><g><path class="cls-1" d="M12.5459,25.09277C5.62793,25.09277,0,19.46484,0,12.5459,0,5.62793,5.62793,0,12.5459,0c3.48047,0,6.71582,1.3916,9.11035,3.91895,.16113,.16992,.1543,.43945-.0166,.60059-.1709,.16016-.43848,.15527-.60059-.0166C18.80664,2.14746,15.79004,.84961,12.5459,.84961,6.09668,.84961,.84961,6.09668,.84961,12.5459c0,6.4502,5.24707,11.69727,11.69629,11.69727s11.69629-5.24707,11.69629-11.69727c0-1.85645-.4209-3.62891-1.25098-5.27051-.10645-.20898-.02246-.46484,.1875-.57031,.20996-.10645,.46582-.02148,.57031,.1875,.8916,1.76074,1.34277,3.66309,1.34277,5.65332,0,6.91895-5.62793,12.54688-12.5459,12.54688Z"/><path class="cls-1" d="M22.85206,5.40557c-.10328-.22206-.36642-.31866-.5885-.2154-.22201,.10326-.31865,.3664-.21537,.58846,.10328,.22207,.36642,.31866,.5885,.2154,.22201-.10326,.31865-.3664,.21537-.58846h0Z"/></g><path class="cls-1" d="M13.06934,19.80762h-2.55566c-.2207,0-.40039-.17969-.40039-.40039v-5.82129h-1.65527c-.2207,0-.40039-.17969-.40039-.40039v-2.5c0-.2207,.17969-.40039,.40039-.40039h1.65527v-2.32227c.02344-.71289,.5791-2.16699,2.52246-2.66504,.0332-.00781,.06641-.0127,.09961-.0127h2.88867c.2207,0,.40039,.17969,.40039,.40039v2.33301c0,.11035-.0459,.21582-.12598,.29102-.08008,.07617-.18652,.10938-.29785,.1084l-1.88867-.11133c-.07129-.00879-.12598-.00293-.14551,.01367-.01562,.01367-.04199,.07129-.04199,.19824v1.80078l2.09668-.01562h.00293c.11426,0,.22266,.04883,.29785,.13379,.07715,.08594,.11328,.2002,.09961,.31445l-.27734,2.31445c-.02441,.20117-.19531,.35254-.39746,.35254h-1.87695v5.98828c0,.2207-.17969,.40039-.40039,.40039Zm-2.15527-.80078h1.75488v-5.98828c0-.2207,.17969-.40039,.40039-.40039h1.92285l.18066-1.51074-2.0459,.01465h-.00293c-.10547,0-.20703-.04199-.28223-.11621-.0752-.0752-.11816-.17773-.11816-.28418v-2.20312c0-.44336,.18066-.6875,.33105-.81348,.31348-.2627,.70996-.2002,.75195-.19141l1.41699,.08105v-1.50879h-2.43652c-1.80762,.48633-1.87305,1.87598-1.87402,1.88965l.00098,2.70996c0,.2207-.17969,.40039-.40039,.40039h-1.65527v1.69922h1.65527c.2207,0,.40039,.17969,.40039,.40039v5.82129Z"/></g></g></svg>