<?xml version="1.0" encoding="UTF-8"?><svg id="Layer_2" xmlns="http://www.w3.org/2000/svg" viewBox="0 0 331.18778 331.18778"><defs><style>.cls-1{fill:#fff;}.cls-2{opacity:.2;}</style></defs><g id="Layer_1-2"><g id="Component_21_10"><path id="Path_391" class="cls-2" d="M165.59389,0c91.45498,0,165.59389,74.13891,165.59389,165.59389s-74.13892,165.59389-165.59389,165.59389S0,257.04887,0,165.59389,74.13891,0,165.59389,0Z"/><path id="Path_389" class="cls-1" d="M233.51495,91.87687H97.65894c-21.29682-.02737-38.61819,17.14914-38.7698,38.44553v70.54299c.15161,21.29639,17.47298,38.4729,38.7698,38.44553H233.51495c21.29387,.02316,38.61103-17.15208,38.76264-38.44553v-70.54299c-.15161-21.29345-17.46877-38.46869-38.76264-38.44553Zm-61.93894,94.58177l-33.11869,20.31264V125.5266l33.11869,20.31264,33.11869,20.31264-33.11869,20.30675Z"/></g></g></svg>