<?xml version="1.0" encoding="UTF-8"?><svg id="Layer_2" xmlns="http://www.w3.org/2000/svg" viewBox="0 0 331.18778 331.18778"><defs><style>.cls-1{fill:#fff;}.cls-2{opacity:.2;}</style></defs><g id="Layer_1-2"><g id="Component_19_10"><path id="Path_398" class="cls-2" d="M165.59389,0c91.45498,0,165.59389,74.13891,165.59389,165.59389s-74.13892,165.59389-165.59389,165.59389S0,257.04887,0,165.59389,74.13891,0,165.59389,0Z"/><g id="Group_91"><path id="Path_384" class="cls-1" d="M201.70718,260.07875h-72.2195c-32.22506-.0379-58.33789-26.15367-58.372-58.37874v-72.21276c.03411-32.22506,26.14694-58.34084,58.372-58.37874h72.2195c32.22506,.0379,58.33789,26.15367,58.372,58.37874v72.21276c-.03411,32.22506-26.14694,58.34084-58.372,58.37874ZM129.48768,92.17329c-20.59859,.02274-37.29122,16.71537-37.31396,37.31396v72.21276c.02274,20.59859,16.71537,37.29122,37.31396,37.31396h72.2195c20.59564-.02653,37.28406-16.71832,37.3068-37.31396v-72.21276c-.02274-20.59564-16.71116-37.28743-37.3068-37.31396h-72.2195Z"/><path id="Path_385" class="cls-1" d="M165.59385,213.89207c-26.66324-.02653-48.27169-21.63498-48.29822-48.29822,.03032-26.66155,21.63667-48.2679,48.29822-48.29822,26.66155,.03032,48.2679,21.63667,48.29822,48.29822-.03032,26.66155-21.63667,48.2679-48.29822,48.29822Zm0-77.63603c-16.19486,.01895-29.31886,13.14295-29.33782,29.33782,.01895,16.19486,13.14295,29.31886,29.33782,29.33782,16.19486-.01895,29.31886-13.14295,29.33782-29.33782-.02274-16.19233-13.14548-29.31171-29.33782-29.33066v-.00716Z"/><path id="Path_386" class="cls-1" d="M224.49689,114.49429c-.00379,4.50901-3.66044,8.16228-8.16944,8.16228-4.50774,0-8.16228-3.65454-8.16228-8.16228s3.65454-8.16228,8.16228-8.16228c4.50901,0,8.16565,3.65328,8.16944,8.16228Z"/></g></g></g></svg>