<?xml version="1.0" encoding="UTF-8"?><svg id="Layer_2" xmlns="http://www.w3.org/2000/svg" viewBox="0 0 25.09277 25.09277"><defs><style>.cls-1{fill:#783cbe;}</style></defs><g id="Layer_3"><g><g><path class="cls-1" d="M12.54688,25.09277C5.62793,25.09277,0,19.46484,0,12.5459c0-1.98828,.45117-3.89062,1.34277-5.65332,.10449-.20898,.36133-.29395,.57031-.1875,.20996,.10547,.29395,.36133,.1875,.57031-.83008,1.64355-1.25098,3.41602-1.25098,5.27051,0,6.4502,5.24707,11.69727,11.69727,11.69727,6.44922,0,11.69629-5.24707,11.69629-11.69727C24.24316,6.09668,18.99609,.84961,12.54688,.84961c-3.24512,0-6.26172,1.29785-8.49316,3.65332-.16406,.17188-.43164,.17676-.60059,.0166-.1709-.16113-.17773-.43066-.0166-.60059C5.83008,1.3916,9.06543,0,12.54688,0c6.91797,0,12.5459,5.62793,12.5459,12.5459,0,6.91895-5.62793,12.54688-12.5459,12.54688Z"/><path class="cls-1" d="M2.24054,5.40557c.10328-.22206,.36642-.31866,.5885-.2154,.22201,.10326,.31865,.3664,.21537,.58846-.10328,.22207-.36642,.31866-.5885,.2154-.22201-.10326-.31865-.3664-.21537-.58846h0Z"/></g><path class="cls-1" d="M10.43164,19.7373c-1.76758,0-3.77441-.43652-5.9834-1.49902-.17578-.08496-.26465-.28418-.20996-.47168s.24121-.30762,.43164-.28613c.01465,.00391,1.66699,.17773,3.55273-.7832-.78223-.29688-1.81543-.94434-2.33691-2.34668-.0459-.12305-.02832-.26074,.04688-.36816,.07422-.10742,.19727-.17188,.32812-.17188h.0332c-.8291-.62109-1.70801-1.60742-1.51172-2.91797,.0166-.10938,.07812-.20801,.16895-.27051,.0918-.06348,.20312-.08301,.31445-.06055l.2998,.06738c-.56836-.88086-.92676-2.16797-.22168-3.64551,.05273-.10938,.15234-.18945,.27148-.2168,.11719-.02637,.24219,0,.33887,.07617l.28125,.22461c1.56934,1.25195,3.68066,2.95508,5.85059,2.81836-.07324-1.01855,.25293-2.63574,1.93164-3.52832,2.21582-1.01172,3.81738,.16797,4.26855,.57031,.2998,.03125,1.14062-.0498,1.78125-.55762,.10742-.08496,.25098-.1084,.37891-.06445,.12988,.04395,.22656,.15137,.25879,.28418,.0957,.39648-.12109,.83008-.41602,1.20801,.13965-.03613,.2666-.07617,.37012-.12012,.16797-.07715,.36914-.01953,.47949,.13086,.11035,.14941,.10254,.35547-.01855,.49707-.36816,.42969-.62695,.63867-1.01953,.95605-.13184,.10742-.28027,.22754-.45605,.375,.03809,.87988,.04785,4.27441-1.8877,6.56641-1.36914,1.89648-3.89941,3.5332-7.3252,3.53418Zm-4.07812-1.56445c5.23242,1.88281,9.02832-.0459,10.77344-2.46191,1.99902-2.37012,1.71094-6.17871,1.70801-6.2168-.01074-.12793,.04102-.25391,.13867-.33691,.17773-.15234,.33105-.27832,.4668-.38965-.1748,.02344-.29297,.03516-.30762,.03711-.19336,.00977-.34473-.08594-.41016-.25-.06641-.16602-.01465-.35547,.12598-.46484,.2041-.1582,.40137-.33984,.57031-.51758-.69922,.19922-1.29297,.15137-1.33203,.14844-.09863-.00879-.19141-.05469-.25879-.12695-.05664-.05957-1.39746-1.46191-3.45605-.51953-1.86914,.99512-1.46094,2.99414-1.44238,3.0791,.02344,.10742,.00098,.2207-.06055,.31055-.0625,.09082-.1582,.15332-.2666,.16992-2.58984,.41895-4.95801-1.4209-6.72363-2.82812-.58008,1.89453,.99414,3.11426,1.06641,3.16992,.15039,.11328,.20117,.31641,.12207,.4873-.07812,.1709-.26465,.26074-.4502,.22266l-1.04883-.23633c.18262,1.46094,2.32422,2.38281,2.34766,2.39355,.1748,.07324,.27441,.26074,.23633,.44727-.03711,.18652-.20117,.32129-.3916,.32129h-.86914c.82031,1.38574,2.33008,1.5293,2.40137,1.53516,.16797,.01367,.31055,.13281,.35352,.29688,.04395,.16309-.02051,.33691-.16016,.43164-1.13672,.77637-2.25195,1.13672-3.13281,1.29785Z"/></g></g></svg>