<?xml version="1.0" encoding="UTF-8"?><svg id="Layer_2" xmlns="http://www.w3.org/2000/svg" viewBox="0 0 25.09277 25.09277"><defs><style>.cls-1{fill:#783cbe;}</style></defs><g id="Layer_3"><g><g><path class="cls-1" d="M12.54688,25.09277C5.62793,25.09277,0,19.46484,0,12.5459c0-1.98828,.45117-3.89062,1.34277-5.65332,.10449-.20898,.36133-.29395,.57031-.1875,.20996,.10547,.29395,.36133,.1875,.57031-.83008,1.64355-1.25098,3.41602-1.25098,5.27051,0,6.4502,5.24707,11.69727,11.69727,11.69727,6.44922,0,11.69629-5.24707,11.69629-11.69727C24.24316,6.09668,18.99609,.84961,12.54688,.84961c-3.24512,0-6.26172,1.29785-8.49316,3.65332-.16406,.17188-.43262,.17676-.60059,.0166-.1709-.16113-.17773-.43066-.0166-.60059C5.83008,1.3916,9.06543,0,12.54688,0c6.91797,0,12.5459,5.62793,12.5459,12.5459,0,6.91895-5.62793,12.54688-12.5459,12.54688Z"/><path class="cls-1" d="M2.24048,5.40557c.10328-.22206,.36642-.31866,.5885-.2154,.22201,.10326,.31865,.3664,.21537,.58846-.10328,.22207-.36642,.31866-.5885,.2154-.22201-.10326-.31865-.3664-.21537-.58846h0Z"/></g><g><path class="cls-1" d="M17.43848,18.49219H7.6543c-1.75781,0-3.1875-1.42969-3.1875-3.1875v-5.07715c0-1.75684,1.42969-3.18652,3.1875-3.18652h9.78418c1.75781,0,3.1875,1.42969,3.1875,3.18652v5.07715c0,1.75781-1.42969,3.1875-3.1875,3.1875ZM7.6543,7.8418c-1.31641,0-2.38672,1.07031-2.38672,2.38574v5.07715c0,1.31641,1.07031,2.38672,2.38672,2.38672h9.78418c1.31641,0,2.38672-1.07031,2.38672-2.38672v-5.07715c0-1.31543-1.07031-2.38574-2.38672-2.38574H7.6543Z"/><path class="cls-1" d="M10.84961,16.18066c-.06738,0-.13477-.01758-.19629-.05176-.12598-.07129-.2041-.2041-.2041-.34863v-6.02734c0-.14551,.0791-.27832,.20605-.34961,.12695-.06836,.28125-.06641,.4043,.00977l4.91699,3.04004c.11914,.07324,.19043,.20215,.19043,.3418-.00098,.13867-.07422,.26758-.19238,.33984l-4.91699,2.9873c-.06445,.03906-.13574,.05859-.20801,.05859Zm.40039-5.70996v4.59863l3.75098-2.2793-3.75098-2.31934Z"/></g></g></g></svg>