<?xml version="1.0" encoding="UTF-8"?><svg id="Layer_2" xmlns="http://www.w3.org/2000/svg" viewBox="0 0 25.99902 21.96094"><defs><style>.cls-1{fill:#783cbe;}</style></defs><g id="Layer_1-2"><g><path class="cls-1" d="M24.53125,1.55273h-4.03516V.4248c0-.23438-.19043-.4248-.4248-.4248s-.4248,.19043-.4248,.4248V1.55273H6.29785V.4248c0-.23438-.19043-.4248-.4248-.4248s-.4248,.19043-.4248,.4248V1.55273H1.49023C.68066,1.55273,.02246,2.21191,.02246,3.02148v2.31055c0,.23438,.19043,.4248,.4248,.4248s.4248-.19043,.4248-.4248V3.02148c0-.34082,.27734-.61914,.61816-.61914h3.95801v1.82422c0,.23438,.19043,.4248,.4248,.4248s.4248-.19043,.4248-.4248v-1.82422h13.34863v1.82422c0,.23438,.19043,.4248,.4248,.4248s.4248-.19043,.4248-.4248v-1.82422h4.03516c.34082,0,.61816,.27832,.61816,.61914V20.49316c0,.34082-.27734,.61816-.61816,.61816H1.49023c-.34082,0-.61816-.27734-.61816-.61816V8.83203c0-.23438-.19043-.4248-.4248-.4248s-.4248,.19043-.4248,.4248v11.66113c0,.80957,.6582,1.46777,1.46777,1.46777H24.53125c.80957,0,1.46777-.6582,1.46777-1.46777V3.02148c0-.80957-.6582-1.46875-1.46777-1.46875Z"/><path class="cls-1" d="M24.25977,7.07715c0-.23438-.19043-.4248-.4248-.4248H2.58203c-.23438,0-.4248,.19043-.4248,.4248s.19043,.4248,.4248,.4248H23.83496c.23438,0,.4248-.19043,.4248-.4248Z"/><path class="cls-1" d="M21.25977,14.41797c0-.23438-.19043-.4248-.4248-.4248H5.10938c-.23438,0-.4248,.19043-.4248,.4248s.19043,.4248,.4248,.4248h15.72559c.23438,0,.4248-.19043,.4248-.4248Z"/><path class="cls-1" d="M11.60449,12.30469v-2.66992c0-.23438-.19043-.4248-.4248-.4248s-.4248,.19043-.4248,.4248v2.66992c0,.23438,.19043,.4248,.4248,.4248s.4248-.19043,.4248-.4248Z"/><path class="cls-1" d="M8.01953,12.30469v-2.66992c0-.23438-.19043-.4248-.4248-.4248s-.4248,.19043-.4248,.4248v2.66992c0,.23438,.19043,.4248,.4248,.4248s.4248-.19043,.4248-.4248Z"/><path class="cls-1" d="M18.77441,12.30469v-2.66992c0-.23438-.19043-.4248-.4248-.4248s-.4248,.19043-.4248,.4248v2.66992c0,.23438,.19043,.4248,.4248,.4248s.4248-.19043,.4248-.4248Z"/><path class="cls-1" d="M15.18945,12.30469v-2.66992c0-.23438-.19043-.4248-.4248-.4248s-.4248,.19043-.4248,.4248v2.66992c0,.23438,.19043,.4248,.4248,.4248s.4248-.19043,.4248-.4248Z"/><path class="cls-1" d="M10.75488,16.23145v2.66992c0,.23438,.19043,.4248,.4248,.4248s.4248-.19043,.4248-.4248v-2.66992c0-.23438-.19043-.4248-.4248-.4248s-.4248,.19043-.4248,.4248Z"/><path class="cls-1" d="M7.16992,16.23145v2.66992c0,.23438,.19043,.4248,.4248,.4248s.4248-.19043,.4248-.4248v-2.66992c0-.23438-.19043-.4248-.4248-.4248s-.4248,.19043-.4248,.4248Z"/><path class="cls-1" d="M17.9248,16.23145v2.66992c0,.23438,.19043,.4248,.4248,.4248s.4248-.19043,.4248-.4248v-2.66992c0-.23438-.19043-.4248-.4248-.4248s-.4248,.19043-.4248,.4248Z"/><path class="cls-1" d="M14.33984,16.23145v2.66992c0,.23438,.19043,.4248,.4248,.4248s.4248-.19043,.4248-.4248v-2.66992c0-.23438-.19043-.4248-.4248-.4248s-.4248,.19043-.4248,.4248Z"/><path class="cls-1" d="M.44727,7.52393c.24609,0,.44629-.19971,.44629-.44653,0-.2467-.2002-.44629-.44629-.44629-.24707,0-.44727,.19958-.44727,.44629,0,.24683,.2002,.44653,.44727,.44653Z"/></g></g></svg>