<?xml version="1.0" encoding="UTF-8"?><svg id="Layer_2" xmlns="http://www.w3.org/2000/svg" viewBox="0 0 26.70958 24.93457"><defs><style>.cls-1{fill:#783cbe;}</style></defs><g id="Layer_1-2"><g><path class="cls-1" d="M14.24278,0c-1.67676,0-3.30371,.32715-4.83691,.97168-.25293,.10742-.50098,.22168-.74414,.34375-.20996,.10547-.29492,.36035-.18945,.57031,.10547,.21094,.36523,.29395,.57031,.18945,.22754-.11426,.45996-.2207,.69434-.32031,1.42676-.60059,2.94336-.90527,4.50586-.90527,6.40527,0,11.61719,5.21191,11.61719,11.61719,0,6.40625-5.21191,11.61816-11.61719,11.61816-6.40625,0-11.61816-5.21191-11.61816-11.61816,0-2.0791,.56689-4.104,1.61572-5.88477l1.05322,2.81543c.06445,.1709,.22656,.27637,.39844,.27637,.0498,0,.09961-.00879,.14844-.02637,.2207-.08301,.33203-.32715,.25-.54688l-1.43359-3.83203c-.08301-.2207-.33008-.32715-.54688-.25L.27696,6.45117c-.2207,.08203-.33203,.32715-.25,.54688,.08301,.2207,.33203,.3291,.54688,.25l2.92139-1.09204c-1.12207,1.90955-1.72021,4.08313-1.72021,6.31079,0,6.875,5.59277,12.46777,12.46777,12.46777,6.87402,0,12.4668-5.59277,12.4668-12.46777C26.70958,5.59277,21.11681,0,14.24278,0Z"/><path class="cls-1" d="M7.56017,3.0752c.00488,0,.00977,0,.01465-.00098,.11914-.00391,.22949-.05371,.31152-.14062,.16699-.17969,.1582-.46289-.02148-.63086-.08301-.07812-.19141-.12109-.30469-.12109-.00488,0-.00977,0-.01465,.00098-.11914,.00391-.22949,.05371-.31152,.14062-.08105,.08691-.12402,.2002-.12012,.31934s.05371,.22949,.14062,.31152c.08301,.07812,.19141,.12109,.30566,.12109Z"/><path class="cls-1" d="M11.65685,20.0293c.08301,.08691,.19434,.13086,.30664,.13086,.10059,0,.20215-.03516,.2832-.10742,3.38281-3.02344,3.07227-5.46484,2.75293-6.4248,3.63379,1.06445,6.34961-2.34961,6.37891-2.38477,.11719-.15234,.11816-.36133,.00684-.51172l.00195-.00293-.0293-.03125-.00879-.00879-4.89648-5.11816c-.00488-.00488-.00977-.00977-.01465-.01562l-.02441-.02441-.00195,.00195c-.14746-.11719-.35547-.12695-.51074-.01465-.03711,.02539-3.57227,2.57617-2.66504,6.2666-.94531-.36035-3.37109-.78027-6.53906,2.46777-.16016,.16406-.16211,.4248-.00293,.59082l4.96289,5.18652Zm4.44824-13.5918l4.36328,4.56055c-.1792,.19409-.4541,.46753-.80859,.75l-4.33936-4.53589c.29736-.34143,.58252-.60449,.78467-.77466Zm-2.91016,6.26367c.16699,.11133,.38379,.08887,.52734-.04688l.32129-.30664c.11914-.11328,.16211-.2832,.11133-.43848-.53027-1.63062-.021-3.01514,.64404-4.01294l4.15479,4.34265c-1.02539,.62097-2.43066,1.06873-4.03711,.46521-.15527-.05566-.32715-.02148-.44336,.0918l-.32129,.30762c-.14355,.13672-.17285,.35449-.07129,.52441,.01221,.01978,.91553,1.62732-.82227,4.05933l-4.15674-4.34424c2.47168-1.61304,4.01807-.6886,4.09326-.64185Zm-4.78711,1.14563l4.31787,4.51233c-.22119,.25439-.46094,.51318-.74365,.78149l-4.38672-4.58496c.28027-.27063,.54932-.49878,.8125-.70886Z"/></g></g></svg>