<?xml version="1.0" encoding="UTF-8"?><svg id="Layer_2" xmlns="http://www.w3.org/2000/svg" viewBox="0 0 12.8332 21.70605"><defs><style>.cls-1{fill:#783cbe;}</style></defs><g id="Layer_1-2"><g><path class="cls-1" d="M12.56648,18.11426c0-.01953-.00781-.0365-.01074-.05542-.6416-5.33691-3.50098-6.89612-4.48926-7.27368l.00098-.15918C13.71784,7.74902,12.77937,.54004,12.76863,.4668c-.0293-.20898-.20703-.36426-.41699-.36621L.69538,0h-.00391c-.19531,0-.36523,.13281-.41211,.32227-.02832,.11328-.68457,2.82617,.51172,5.75684,.08887,.21875,.3418,.32324,.55371,.2334,.21777-.08887,.32227-.33691,.2334-.55371-.23633-.57935-.3877-1.14978-.4873-1.69287l10.65039,.09546c-.41895,2.06885-1.51465,4.51111-4.27832,5.81421-.14746,.07031-.24219,.21777-.24316,.38184l-.00586,.73145c-.00195,.19727,.13379,.37012,.32617,.41602,.01465,.00378,.48828,.13074,1.11426,.56787,.0957,.29077,.07617,.53906-.07617,.76904-.8125,1.23413-4.54395,1.65637-6.55664,1.75073,1.28027-2.58862,3.16504-3.0791,3.28613-3.10718,.19434-.04199,.33301-.21289,.33398-.41211l.00586-.73145c.00195-.16309-.09082-.3125-.2373-.38379-.99707-.49121-1.52246-.87305-2.08301-1.51074-.15332-.17578-.42383-.19434-.59961-.03906-.17676,.15527-.19434,.42383-.03906,.59961,.58789,.66992,1.15723,1.10352,2.10742,1.5918l-.00195,.15625C3.62019,11.18164-.19622,13.18359,.00788,21.18945c.00586,.22949,.19238,.41211,.4209,.41406l11.81348,.10254h.00391c.22754,0,.41504-.17871,.4248-.40625,.05078-1.18921,.00195-2.23291-.10645-3.17407,0-.00415,.00195-.00745,.00195-.01147ZM.97566,3.21509c-.09473-1.052-.00488-1.91907,.06641-2.36255l10.91797,.09473c.03125,.46301,.05469,1.33057-.07617,2.36572l-10.9082-.0979ZM9.28816,13.30957c.10449-.15759,.16797-.32605,.21387-.49854,.86133,.90308,1.75391,2.4104,2.13867,4.87l-10.5459-.0946c.13965-.81104,.3291-1.51709,.55664-2.12915,1.35938-.03857,6.42188-.30493,7.63672-2.14771ZM.85066,20.75781c-.00684-.85522,.04395-1.61621,.12402-2.32288l10.77246,.0968c.07031,.70715,.10938,1.46729,.08789,2.3208l-10.98438-.09473Z"/><path class="cls-1" d="M2.29499,7.69897c.16406-.17529,.15527-.45044-.02051-.61475-.1748-.16406-.4502-.15515-.61426,.02002-.16406,.17529-.15527,.45044,.02051,.61462,.1748,.16418,.4502,.15527,.61426-.0199Z"/></g></g></svg>