<?xml version="1.0" encoding="UTF-8"?><svg id="Layer_2" xmlns="http://www.w3.org/2000/svg" viewBox="0 0 26.84825 24.93555"><defs><style>.cls-1{fill:#783cbe;}</style></defs><g id="Layer_1-2"><g><path class="cls-1" d="M14.58556,14.38086c1.05469,0,1.91309-.8584,1.91309-1.91309,0-.9082-.6377-1.66748-1.48828-1.86182v-2.69189c0-.23438-.19043-.4248-.4248-.4248s-.4248,.19043-.4248,.4248v2.69189c-.85156,.19409-1.48926,.95349-1.48926,1.86182,0,1.05469,.8584,1.91309,1.91406,1.91309Zm0-2.97656c.58594,0,1.06348,.47754,1.06348,1.06348s-.47754,1.06348-1.06348,1.06348c-.58691,0-1.06445-.47754-1.06445-1.06348s.47754-1.06348,1.06445-1.06348Z"/><path class="cls-1" d="M7.14171,12.51855c.01367,1.96289,.7959,3.74365,2.05713,5.06421,.01758,.02905,.03174,.06006,.05664,.08521,.01562,.01562,.03564,.02222,.05273,.03491,1.34375,1.34644,3.19971,2.18091,5.24707,2.18091,4.08887,0,7.41504-3.32715,7.41504-7.41602s-3.32617-7.41602-7.41504-7.41602-7.41602,3.32715-7.41602,7.41602c0,.01025,.00146,.02026,.00146,.03052,0,.00269-.00146,.00488-.00146,.00757,0,.00452,.00244,.0083,.00244,.0127Zm11.73877-4.97876l-.64258,.64282c-.16602,.16699-.16602,.43555,0,.60156,.08301,.08301,.19238,.12402,.30078,.12402s.21777-.04102,.30078-.12402l.64258-.64282c.93066,1.05884,1.52344,2.41626,1.61719,3.9104h-.76758c-.23438,0-.4248,.19043-.4248,.4248s.19043,.4248,.4248,.4248h.76758c-.09961,1.51099-.70996,2.88086-1.66309,3.94263l-.59668-.59692c-.16602-.16602-.43555-.16602-.60156,0s-.16602,.43555,0,.60156l.59277,.59229c-1.04199,.89709-2.36621,1.46973-3.82031,1.57031v-.71729c0-.23438-.19043-.4248-.4248-.4248s-.4248,.19043-.4248,.4248v.72021c-1.52734-.09131-2.91211-.70422-3.9834-1.66602l.5-.49951c.16602-.16602,.16602-.43457,0-.60156-.16602-.16602-.43555-.16602-.60156,0l-.49512,.49463c-.89453-1.03979-1.46631-2.36035-1.56836-3.81104h.71191c.23438,0,.4248-.19043,.4248-.4248s-.19043-.4248-.4248-.4248h-.71582c.08545-1.45679,.6416-2.78735,1.52686-3.8374l.54053,.54053c.08301,.08301,.19238,.12402,.30078,.12402s.21777-.04102,.30078-.12402c.16602-.16602,.16602-.43555,0-.60156l-.5498-.5498c1.16895-1.07141,2.7207-1.73145,4.42773-1.73145,1.65723,0,3.16797,.62195,4.3252,1.63843Z"/><path class="cls-1" d="M14.38146,0c-1.6748,0-3.30176,.32715-4.83594,.97266-.25293,.10645-.50195,.22168-.74512,.34375-.20996,.10547-.29492,.36035-.18945,.57031s.36621,.29395,.57031,.18945c.22754-.11426,.45898-.22168,.69434-.32031,1.42871-.60156,2.94434-.90625,4.50586-.90625,6.40527,0,11.61719,5.21191,11.61719,11.61816s-5.21191,11.61816-11.61719,11.61816c-6.40625,0-11.61816-5.21191-11.61816-11.61816,0-1.89038,.48242-3.72803,1.354-5.38623l1.01611,2.71924c.06445,.1709,.22656,.27637,.39844,.27637,.0498,0,.09961-.00879,.14844-.02637,.2207-.08301,.33203-.32715,.25-.54688l-1.38965-3.7168c-.08203-.21973-.32617-.32812-.54688-.25L.27696,6.92676c-.2207,.08301-.33203,.32715-.25,.54688,.08496,.2207,.33203,.33008,.54688,.25l2.75732-1.03101c-.9292,1.7749-1.41748,3.75342-1.41748,5.77515,0,6.875,5.59277,12.46777,12.46777,12.46777,6.87402,0,12.4668-5.59277,12.4668-12.46777S21.25548,0,14.38146,0Z"/><path class="cls-1" d="M8.01036,3.06885c.16064-.17188,.15186-.44177-.02002-.60278-.17188-.16113-.44141-.15234-.60254,.01953s-.15234,.44177,.01953,.60278c.17188,.16113,.44189,.15234,.60303-.01953Z"/></g></g></svg>